%TF.GenerationSoftware,KiCad,Pcbnew,(5.1.10)-1*%
%TF.CreationDate,2022-01-17T18:26:11+07:00*%
%TF.ProjectId,ADuM_I2C_v3_pnlz2x4,4144754d-5f49-4324-935f-76335f706e6c,rev?*%
%TF.SameCoordinates,Original*%
%TF.FileFunction,Soldermask,Bot*%
%TF.FilePolarity,Negative*%
%FSLAX46Y46*%
G04 Gerber Fmt 4.6, Leading zero omitted, Abs format (unit mm)*
G04 Created by KiCad (PCBNEW (5.1.10)-1) date 2022-01-17 18:26:11*
%MOMM*%
%LPD*%
G01*
G04 APERTURE LIST*
%ADD10R,1.000000X1.000000*%
%ADD11O,1.000000X1.000000*%
%ADD12R,0.900000X0.800000*%
G04 APERTURE END LIST*
%TO.C,R24*%
G36*
G01*
X143425000Y-118218000D02*
X143425000Y-117668000D01*
G75*
G02*
X143625000Y-117468000I200000J0D01*
G01*
X144025000Y-117468000D01*
G75*
G02*
X144225000Y-117668000I0J-200000D01*
G01*
X144225000Y-118218000D01*
G75*
G02*
X144025000Y-118418000I-200000J0D01*
G01*
X143625000Y-118418000D01*
G75*
G02*
X143425000Y-118218000I0J200000D01*
G01*
G37*
G36*
G01*
X145075000Y-118218000D02*
X145075000Y-117668000D01*
G75*
G02*
X145275000Y-117468000I200000J0D01*
G01*
X145675000Y-117468000D01*
G75*
G02*
X145875000Y-117668000I0J-200000D01*
G01*
X145875000Y-118218000D01*
G75*
G02*
X145675000Y-118418000I-200000J0D01*
G01*
X145275000Y-118418000D01*
G75*
G02*
X145075000Y-118218000I0J200000D01*
G01*
G37*
%TD*%
%TO.C,R24*%
G36*
G01*
X118425000Y-118218000D02*
X118425000Y-117668000D01*
G75*
G02*
X118625000Y-117468000I200000J0D01*
G01*
X119025000Y-117468000D01*
G75*
G02*
X119225000Y-117668000I0J-200000D01*
G01*
X119225000Y-118218000D01*
G75*
G02*
X119025000Y-118418000I-200000J0D01*
G01*
X118625000Y-118418000D01*
G75*
G02*
X118425000Y-118218000I0J200000D01*
G01*
G37*
G36*
G01*
X120075000Y-118218000D02*
X120075000Y-117668000D01*
G75*
G02*
X120275000Y-117468000I200000J0D01*
G01*
X120675000Y-117468000D01*
G75*
G02*
X120875000Y-117668000I0J-200000D01*
G01*
X120875000Y-118218000D01*
G75*
G02*
X120675000Y-118418000I-200000J0D01*
G01*
X120275000Y-118418000D01*
G75*
G02*
X120075000Y-118218000I0J200000D01*
G01*
G37*
%TD*%
%TO.C,R24*%
G36*
G01*
X143425000Y-105718000D02*
X143425000Y-105168000D01*
G75*
G02*
X143625000Y-104968000I200000J0D01*
G01*
X144025000Y-104968000D01*
G75*
G02*
X144225000Y-105168000I0J-200000D01*
G01*
X144225000Y-105718000D01*
G75*
G02*
X144025000Y-105918000I-200000J0D01*
G01*
X143625000Y-105918000D01*
G75*
G02*
X143425000Y-105718000I0J200000D01*
G01*
G37*
G36*
G01*
X145075000Y-105718000D02*
X145075000Y-105168000D01*
G75*
G02*
X145275000Y-104968000I200000J0D01*
G01*
X145675000Y-104968000D01*
G75*
G02*
X145875000Y-105168000I0J-200000D01*
G01*
X145875000Y-105718000D01*
G75*
G02*
X145675000Y-105918000I-200000J0D01*
G01*
X145275000Y-105918000D01*
G75*
G02*
X145075000Y-105718000I0J200000D01*
G01*
G37*
%TD*%
%TO.C,R24*%
G36*
G01*
X118425000Y-105718000D02*
X118425000Y-105168000D01*
G75*
G02*
X118625000Y-104968000I200000J0D01*
G01*
X119025000Y-104968000D01*
G75*
G02*
X119225000Y-105168000I0J-200000D01*
G01*
X119225000Y-105718000D01*
G75*
G02*
X119025000Y-105918000I-200000J0D01*
G01*
X118625000Y-105918000D01*
G75*
G02*
X118425000Y-105718000I0J200000D01*
G01*
G37*
G36*
G01*
X120075000Y-105718000D02*
X120075000Y-105168000D01*
G75*
G02*
X120275000Y-104968000I200000J0D01*
G01*
X120675000Y-104968000D01*
G75*
G02*
X120875000Y-105168000I0J-200000D01*
G01*
X120875000Y-105718000D01*
G75*
G02*
X120675000Y-105918000I-200000J0D01*
G01*
X120275000Y-105918000D01*
G75*
G02*
X120075000Y-105718000I0J200000D01*
G01*
G37*
%TD*%
%TO.C,R24*%
G36*
G01*
X143425000Y-93218000D02*
X143425000Y-92668000D01*
G75*
G02*
X143625000Y-92468000I200000J0D01*
G01*
X144025000Y-92468000D01*
G75*
G02*
X144225000Y-92668000I0J-200000D01*
G01*
X144225000Y-93218000D01*
G75*
G02*
X144025000Y-93418000I-200000J0D01*
G01*
X143625000Y-93418000D01*
G75*
G02*
X143425000Y-93218000I0J200000D01*
G01*
G37*
G36*
G01*
X145075000Y-93218000D02*
X145075000Y-92668000D01*
G75*
G02*
X145275000Y-92468000I200000J0D01*
G01*
X145675000Y-92468000D01*
G75*
G02*
X145875000Y-92668000I0J-200000D01*
G01*
X145875000Y-93218000D01*
G75*
G02*
X145675000Y-93418000I-200000J0D01*
G01*
X145275000Y-93418000D01*
G75*
G02*
X145075000Y-93218000I0J200000D01*
G01*
G37*
%TD*%
%TO.C,R24*%
G36*
G01*
X118425000Y-93218000D02*
X118425000Y-92668000D01*
G75*
G02*
X118625000Y-92468000I200000J0D01*
G01*
X119025000Y-92468000D01*
G75*
G02*
X119225000Y-92668000I0J-200000D01*
G01*
X119225000Y-93218000D01*
G75*
G02*
X119025000Y-93418000I-200000J0D01*
G01*
X118625000Y-93418000D01*
G75*
G02*
X118425000Y-93218000I0J200000D01*
G01*
G37*
G36*
G01*
X120075000Y-93218000D02*
X120075000Y-92668000D01*
G75*
G02*
X120275000Y-92468000I200000J0D01*
G01*
X120675000Y-92468000D01*
G75*
G02*
X120875000Y-92668000I0J-200000D01*
G01*
X120875000Y-93218000D01*
G75*
G02*
X120675000Y-93418000I-200000J0D01*
G01*
X120275000Y-93418000D01*
G75*
G02*
X120075000Y-93218000I0J200000D01*
G01*
G37*
%TD*%
%TO.C,R24*%
G36*
G01*
X143425000Y-80718000D02*
X143425000Y-80168000D01*
G75*
G02*
X143625000Y-79968000I200000J0D01*
G01*
X144025000Y-79968000D01*
G75*
G02*
X144225000Y-80168000I0J-200000D01*
G01*
X144225000Y-80718000D01*
G75*
G02*
X144025000Y-80918000I-200000J0D01*
G01*
X143625000Y-80918000D01*
G75*
G02*
X143425000Y-80718000I0J200000D01*
G01*
G37*
G36*
G01*
X145075000Y-80718000D02*
X145075000Y-80168000D01*
G75*
G02*
X145275000Y-79968000I200000J0D01*
G01*
X145675000Y-79968000D01*
G75*
G02*
X145875000Y-80168000I0J-200000D01*
G01*
X145875000Y-80718000D01*
G75*
G02*
X145675000Y-80918000I-200000J0D01*
G01*
X145275000Y-80918000D01*
G75*
G02*
X145075000Y-80718000I0J200000D01*
G01*
G37*
%TD*%
%TO.C,U1*%
G36*
G01*
X158450000Y-124524000D02*
X158450000Y-124824000D01*
G75*
G02*
X158300000Y-124974000I-150000J0D01*
G01*
X156650000Y-124974000D01*
G75*
G02*
X156500000Y-124824000I0J150000D01*
G01*
X156500000Y-124524000D01*
G75*
G02*
X156650000Y-124374000I150000J0D01*
G01*
X158300000Y-124374000D01*
G75*
G02*
X158450000Y-124524000I0J-150000D01*
G01*
G37*
G36*
G01*
X158450000Y-125794000D02*
X158450000Y-126094000D01*
G75*
G02*
X158300000Y-126244000I-150000J0D01*
G01*
X156650000Y-126244000D01*
G75*
G02*
X156500000Y-126094000I0J150000D01*
G01*
X156500000Y-125794000D01*
G75*
G02*
X156650000Y-125644000I150000J0D01*
G01*
X158300000Y-125644000D01*
G75*
G02*
X158450000Y-125794000I0J-150000D01*
G01*
G37*
G36*
G01*
X158450000Y-127064000D02*
X158450000Y-127364000D01*
G75*
G02*
X158300000Y-127514000I-150000J0D01*
G01*
X156650000Y-127514000D01*
G75*
G02*
X156500000Y-127364000I0J150000D01*
G01*
X156500000Y-127064000D01*
G75*
G02*
X156650000Y-126914000I150000J0D01*
G01*
X158300000Y-126914000D01*
G75*
G02*
X158450000Y-127064000I0J-150000D01*
G01*
G37*
G36*
G01*
X158450000Y-128334000D02*
X158450000Y-128634000D01*
G75*
G02*
X158300000Y-128784000I-150000J0D01*
G01*
X156650000Y-128784000D01*
G75*
G02*
X156500000Y-128634000I0J150000D01*
G01*
X156500000Y-128334000D01*
G75*
G02*
X156650000Y-128184000I150000J0D01*
G01*
X158300000Y-128184000D01*
G75*
G02*
X158450000Y-128334000I0J-150000D01*
G01*
G37*
G36*
G01*
X153500000Y-128334000D02*
X153500000Y-128634000D01*
G75*
G02*
X153350000Y-128784000I-150000J0D01*
G01*
X151700000Y-128784000D01*
G75*
G02*
X151550000Y-128634000I0J150000D01*
G01*
X151550000Y-128334000D01*
G75*
G02*
X151700000Y-128184000I150000J0D01*
G01*
X153350000Y-128184000D01*
G75*
G02*
X153500000Y-128334000I0J-150000D01*
G01*
G37*
G36*
G01*
X153500000Y-127064000D02*
X153500000Y-127364000D01*
G75*
G02*
X153350000Y-127514000I-150000J0D01*
G01*
X151700000Y-127514000D01*
G75*
G02*
X151550000Y-127364000I0J150000D01*
G01*
X151550000Y-127064000D01*
G75*
G02*
X151700000Y-126914000I150000J0D01*
G01*
X153350000Y-126914000D01*
G75*
G02*
X153500000Y-127064000I0J-150000D01*
G01*
G37*
G36*
G01*
X153500000Y-125794000D02*
X153500000Y-126094000D01*
G75*
G02*
X153350000Y-126244000I-150000J0D01*
G01*
X151700000Y-126244000D01*
G75*
G02*
X151550000Y-126094000I0J150000D01*
G01*
X151550000Y-125794000D01*
G75*
G02*
X151700000Y-125644000I150000J0D01*
G01*
X153350000Y-125644000D01*
G75*
G02*
X153500000Y-125794000I0J-150000D01*
G01*
G37*
G36*
G01*
X153500000Y-124524000D02*
X153500000Y-124824000D01*
G75*
G02*
X153350000Y-124974000I-150000J0D01*
G01*
X151700000Y-124974000D01*
G75*
G02*
X151550000Y-124824000I0J150000D01*
G01*
X151550000Y-124524000D01*
G75*
G02*
X151700000Y-124374000I150000J0D01*
G01*
X153350000Y-124374000D01*
G75*
G02*
X153500000Y-124524000I0J-150000D01*
G01*
G37*
%TD*%
%TO.C,U1*%
G36*
G01*
X133450000Y-124524000D02*
X133450000Y-124824000D01*
G75*
G02*
X133300000Y-124974000I-150000J0D01*
G01*
X131650000Y-124974000D01*
G75*
G02*
X131500000Y-124824000I0J150000D01*
G01*
X131500000Y-124524000D01*
G75*
G02*
X131650000Y-124374000I150000J0D01*
G01*
X133300000Y-124374000D01*
G75*
G02*
X133450000Y-124524000I0J-150000D01*
G01*
G37*
G36*
G01*
X133450000Y-125794000D02*
X133450000Y-126094000D01*
G75*
G02*
X133300000Y-126244000I-150000J0D01*
G01*
X131650000Y-126244000D01*
G75*
G02*
X131500000Y-126094000I0J150000D01*
G01*
X131500000Y-125794000D01*
G75*
G02*
X131650000Y-125644000I150000J0D01*
G01*
X133300000Y-125644000D01*
G75*
G02*
X133450000Y-125794000I0J-150000D01*
G01*
G37*
G36*
G01*
X133450000Y-127064000D02*
X133450000Y-127364000D01*
G75*
G02*
X133300000Y-127514000I-150000J0D01*
G01*
X131650000Y-127514000D01*
G75*
G02*
X131500000Y-127364000I0J150000D01*
G01*
X131500000Y-127064000D01*
G75*
G02*
X131650000Y-126914000I150000J0D01*
G01*
X133300000Y-126914000D01*
G75*
G02*
X133450000Y-127064000I0J-150000D01*
G01*
G37*
G36*
G01*
X133450000Y-128334000D02*
X133450000Y-128634000D01*
G75*
G02*
X133300000Y-128784000I-150000J0D01*
G01*
X131650000Y-128784000D01*
G75*
G02*
X131500000Y-128634000I0J150000D01*
G01*
X131500000Y-128334000D01*
G75*
G02*
X131650000Y-128184000I150000J0D01*
G01*
X133300000Y-128184000D01*
G75*
G02*
X133450000Y-128334000I0J-150000D01*
G01*
G37*
G36*
G01*
X128500000Y-128334000D02*
X128500000Y-128634000D01*
G75*
G02*
X128350000Y-128784000I-150000J0D01*
G01*
X126700000Y-128784000D01*
G75*
G02*
X126550000Y-128634000I0J150000D01*
G01*
X126550000Y-128334000D01*
G75*
G02*
X126700000Y-128184000I150000J0D01*
G01*
X128350000Y-128184000D01*
G75*
G02*
X128500000Y-128334000I0J-150000D01*
G01*
G37*
G36*
G01*
X128500000Y-127064000D02*
X128500000Y-127364000D01*
G75*
G02*
X128350000Y-127514000I-150000J0D01*
G01*
X126700000Y-127514000D01*
G75*
G02*
X126550000Y-127364000I0J150000D01*
G01*
X126550000Y-127064000D01*
G75*
G02*
X126700000Y-126914000I150000J0D01*
G01*
X128350000Y-126914000D01*
G75*
G02*
X128500000Y-127064000I0J-150000D01*
G01*
G37*
G36*
G01*
X128500000Y-125794000D02*
X128500000Y-126094000D01*
G75*
G02*
X128350000Y-126244000I-150000J0D01*
G01*
X126700000Y-126244000D01*
G75*
G02*
X126550000Y-126094000I0J150000D01*
G01*
X126550000Y-125794000D01*
G75*
G02*
X126700000Y-125644000I150000J0D01*
G01*
X128350000Y-125644000D01*
G75*
G02*
X128500000Y-125794000I0J-150000D01*
G01*
G37*
G36*
G01*
X128500000Y-124524000D02*
X128500000Y-124824000D01*
G75*
G02*
X128350000Y-124974000I-150000J0D01*
G01*
X126700000Y-124974000D01*
G75*
G02*
X126550000Y-124824000I0J150000D01*
G01*
X126550000Y-124524000D01*
G75*
G02*
X126700000Y-124374000I150000J0D01*
G01*
X128350000Y-124374000D01*
G75*
G02*
X128500000Y-124524000I0J-150000D01*
G01*
G37*
%TD*%
%TO.C,U1*%
G36*
G01*
X158450000Y-112024000D02*
X158450000Y-112324000D01*
G75*
G02*
X158300000Y-112474000I-150000J0D01*
G01*
X156650000Y-112474000D01*
G75*
G02*
X156500000Y-112324000I0J150000D01*
G01*
X156500000Y-112024000D01*
G75*
G02*
X156650000Y-111874000I150000J0D01*
G01*
X158300000Y-111874000D01*
G75*
G02*
X158450000Y-112024000I0J-150000D01*
G01*
G37*
G36*
G01*
X158450000Y-113294000D02*
X158450000Y-113594000D01*
G75*
G02*
X158300000Y-113744000I-150000J0D01*
G01*
X156650000Y-113744000D01*
G75*
G02*
X156500000Y-113594000I0J150000D01*
G01*
X156500000Y-113294000D01*
G75*
G02*
X156650000Y-113144000I150000J0D01*
G01*
X158300000Y-113144000D01*
G75*
G02*
X158450000Y-113294000I0J-150000D01*
G01*
G37*
G36*
G01*
X158450000Y-114564000D02*
X158450000Y-114864000D01*
G75*
G02*
X158300000Y-115014000I-150000J0D01*
G01*
X156650000Y-115014000D01*
G75*
G02*
X156500000Y-114864000I0J150000D01*
G01*
X156500000Y-114564000D01*
G75*
G02*
X156650000Y-114414000I150000J0D01*
G01*
X158300000Y-114414000D01*
G75*
G02*
X158450000Y-114564000I0J-150000D01*
G01*
G37*
G36*
G01*
X158450000Y-115834000D02*
X158450000Y-116134000D01*
G75*
G02*
X158300000Y-116284000I-150000J0D01*
G01*
X156650000Y-116284000D01*
G75*
G02*
X156500000Y-116134000I0J150000D01*
G01*
X156500000Y-115834000D01*
G75*
G02*
X156650000Y-115684000I150000J0D01*
G01*
X158300000Y-115684000D01*
G75*
G02*
X158450000Y-115834000I0J-150000D01*
G01*
G37*
G36*
G01*
X153500000Y-115834000D02*
X153500000Y-116134000D01*
G75*
G02*
X153350000Y-116284000I-150000J0D01*
G01*
X151700000Y-116284000D01*
G75*
G02*
X151550000Y-116134000I0J150000D01*
G01*
X151550000Y-115834000D01*
G75*
G02*
X151700000Y-115684000I150000J0D01*
G01*
X153350000Y-115684000D01*
G75*
G02*
X153500000Y-115834000I0J-150000D01*
G01*
G37*
G36*
G01*
X153500000Y-114564000D02*
X153500000Y-114864000D01*
G75*
G02*
X153350000Y-115014000I-150000J0D01*
G01*
X151700000Y-115014000D01*
G75*
G02*
X151550000Y-114864000I0J150000D01*
G01*
X151550000Y-114564000D01*
G75*
G02*
X151700000Y-114414000I150000J0D01*
G01*
X153350000Y-114414000D01*
G75*
G02*
X153500000Y-114564000I0J-150000D01*
G01*
G37*
G36*
G01*
X153500000Y-113294000D02*
X153500000Y-113594000D01*
G75*
G02*
X153350000Y-113744000I-150000J0D01*
G01*
X151700000Y-113744000D01*
G75*
G02*
X151550000Y-113594000I0J150000D01*
G01*
X151550000Y-113294000D01*
G75*
G02*
X151700000Y-113144000I150000J0D01*
G01*
X153350000Y-113144000D01*
G75*
G02*
X153500000Y-113294000I0J-150000D01*
G01*
G37*
G36*
G01*
X153500000Y-112024000D02*
X153500000Y-112324000D01*
G75*
G02*
X153350000Y-112474000I-150000J0D01*
G01*
X151700000Y-112474000D01*
G75*
G02*
X151550000Y-112324000I0J150000D01*
G01*
X151550000Y-112024000D01*
G75*
G02*
X151700000Y-111874000I150000J0D01*
G01*
X153350000Y-111874000D01*
G75*
G02*
X153500000Y-112024000I0J-150000D01*
G01*
G37*
%TD*%
%TO.C,U1*%
G36*
G01*
X133450000Y-112024000D02*
X133450000Y-112324000D01*
G75*
G02*
X133300000Y-112474000I-150000J0D01*
G01*
X131650000Y-112474000D01*
G75*
G02*
X131500000Y-112324000I0J150000D01*
G01*
X131500000Y-112024000D01*
G75*
G02*
X131650000Y-111874000I150000J0D01*
G01*
X133300000Y-111874000D01*
G75*
G02*
X133450000Y-112024000I0J-150000D01*
G01*
G37*
G36*
G01*
X133450000Y-113294000D02*
X133450000Y-113594000D01*
G75*
G02*
X133300000Y-113744000I-150000J0D01*
G01*
X131650000Y-113744000D01*
G75*
G02*
X131500000Y-113594000I0J150000D01*
G01*
X131500000Y-113294000D01*
G75*
G02*
X131650000Y-113144000I150000J0D01*
G01*
X133300000Y-113144000D01*
G75*
G02*
X133450000Y-113294000I0J-150000D01*
G01*
G37*
G36*
G01*
X133450000Y-114564000D02*
X133450000Y-114864000D01*
G75*
G02*
X133300000Y-115014000I-150000J0D01*
G01*
X131650000Y-115014000D01*
G75*
G02*
X131500000Y-114864000I0J150000D01*
G01*
X131500000Y-114564000D01*
G75*
G02*
X131650000Y-114414000I150000J0D01*
G01*
X133300000Y-114414000D01*
G75*
G02*
X133450000Y-114564000I0J-150000D01*
G01*
G37*
G36*
G01*
X133450000Y-115834000D02*
X133450000Y-116134000D01*
G75*
G02*
X133300000Y-116284000I-150000J0D01*
G01*
X131650000Y-116284000D01*
G75*
G02*
X131500000Y-116134000I0J150000D01*
G01*
X131500000Y-115834000D01*
G75*
G02*
X131650000Y-115684000I150000J0D01*
G01*
X133300000Y-115684000D01*
G75*
G02*
X133450000Y-115834000I0J-150000D01*
G01*
G37*
G36*
G01*
X128500000Y-115834000D02*
X128500000Y-116134000D01*
G75*
G02*
X128350000Y-116284000I-150000J0D01*
G01*
X126700000Y-116284000D01*
G75*
G02*
X126550000Y-116134000I0J150000D01*
G01*
X126550000Y-115834000D01*
G75*
G02*
X126700000Y-115684000I150000J0D01*
G01*
X128350000Y-115684000D01*
G75*
G02*
X128500000Y-115834000I0J-150000D01*
G01*
G37*
G36*
G01*
X128500000Y-114564000D02*
X128500000Y-114864000D01*
G75*
G02*
X128350000Y-115014000I-150000J0D01*
G01*
X126700000Y-115014000D01*
G75*
G02*
X126550000Y-114864000I0J150000D01*
G01*
X126550000Y-114564000D01*
G75*
G02*
X126700000Y-114414000I150000J0D01*
G01*
X128350000Y-114414000D01*
G75*
G02*
X128500000Y-114564000I0J-150000D01*
G01*
G37*
G36*
G01*
X128500000Y-113294000D02*
X128500000Y-113594000D01*
G75*
G02*
X128350000Y-113744000I-150000J0D01*
G01*
X126700000Y-113744000D01*
G75*
G02*
X126550000Y-113594000I0J150000D01*
G01*
X126550000Y-113294000D01*
G75*
G02*
X126700000Y-113144000I150000J0D01*
G01*
X128350000Y-113144000D01*
G75*
G02*
X128500000Y-113294000I0J-150000D01*
G01*
G37*
G36*
G01*
X128500000Y-112024000D02*
X128500000Y-112324000D01*
G75*
G02*
X128350000Y-112474000I-150000J0D01*
G01*
X126700000Y-112474000D01*
G75*
G02*
X126550000Y-112324000I0J150000D01*
G01*
X126550000Y-112024000D01*
G75*
G02*
X126700000Y-111874000I150000J0D01*
G01*
X128350000Y-111874000D01*
G75*
G02*
X128500000Y-112024000I0J-150000D01*
G01*
G37*
%TD*%
%TO.C,U1*%
G36*
G01*
X158450000Y-99524000D02*
X158450000Y-99824000D01*
G75*
G02*
X158300000Y-99974000I-150000J0D01*
G01*
X156650000Y-99974000D01*
G75*
G02*
X156500000Y-99824000I0J150000D01*
G01*
X156500000Y-99524000D01*
G75*
G02*
X156650000Y-99374000I150000J0D01*
G01*
X158300000Y-99374000D01*
G75*
G02*
X158450000Y-99524000I0J-150000D01*
G01*
G37*
G36*
G01*
X158450000Y-100794000D02*
X158450000Y-101094000D01*
G75*
G02*
X158300000Y-101244000I-150000J0D01*
G01*
X156650000Y-101244000D01*
G75*
G02*
X156500000Y-101094000I0J150000D01*
G01*
X156500000Y-100794000D01*
G75*
G02*
X156650000Y-100644000I150000J0D01*
G01*
X158300000Y-100644000D01*
G75*
G02*
X158450000Y-100794000I0J-150000D01*
G01*
G37*
G36*
G01*
X158450000Y-102064000D02*
X158450000Y-102364000D01*
G75*
G02*
X158300000Y-102514000I-150000J0D01*
G01*
X156650000Y-102514000D01*
G75*
G02*
X156500000Y-102364000I0J150000D01*
G01*
X156500000Y-102064000D01*
G75*
G02*
X156650000Y-101914000I150000J0D01*
G01*
X158300000Y-101914000D01*
G75*
G02*
X158450000Y-102064000I0J-150000D01*
G01*
G37*
G36*
G01*
X158450000Y-103334000D02*
X158450000Y-103634000D01*
G75*
G02*
X158300000Y-103784000I-150000J0D01*
G01*
X156650000Y-103784000D01*
G75*
G02*
X156500000Y-103634000I0J150000D01*
G01*
X156500000Y-103334000D01*
G75*
G02*
X156650000Y-103184000I150000J0D01*
G01*
X158300000Y-103184000D01*
G75*
G02*
X158450000Y-103334000I0J-150000D01*
G01*
G37*
G36*
G01*
X153500000Y-103334000D02*
X153500000Y-103634000D01*
G75*
G02*
X153350000Y-103784000I-150000J0D01*
G01*
X151700000Y-103784000D01*
G75*
G02*
X151550000Y-103634000I0J150000D01*
G01*
X151550000Y-103334000D01*
G75*
G02*
X151700000Y-103184000I150000J0D01*
G01*
X153350000Y-103184000D01*
G75*
G02*
X153500000Y-103334000I0J-150000D01*
G01*
G37*
G36*
G01*
X153500000Y-102064000D02*
X153500000Y-102364000D01*
G75*
G02*
X153350000Y-102514000I-150000J0D01*
G01*
X151700000Y-102514000D01*
G75*
G02*
X151550000Y-102364000I0J150000D01*
G01*
X151550000Y-102064000D01*
G75*
G02*
X151700000Y-101914000I150000J0D01*
G01*
X153350000Y-101914000D01*
G75*
G02*
X153500000Y-102064000I0J-150000D01*
G01*
G37*
G36*
G01*
X153500000Y-100794000D02*
X153500000Y-101094000D01*
G75*
G02*
X153350000Y-101244000I-150000J0D01*
G01*
X151700000Y-101244000D01*
G75*
G02*
X151550000Y-101094000I0J150000D01*
G01*
X151550000Y-100794000D01*
G75*
G02*
X151700000Y-100644000I150000J0D01*
G01*
X153350000Y-100644000D01*
G75*
G02*
X153500000Y-100794000I0J-150000D01*
G01*
G37*
G36*
G01*
X153500000Y-99524000D02*
X153500000Y-99824000D01*
G75*
G02*
X153350000Y-99974000I-150000J0D01*
G01*
X151700000Y-99974000D01*
G75*
G02*
X151550000Y-99824000I0J150000D01*
G01*
X151550000Y-99524000D01*
G75*
G02*
X151700000Y-99374000I150000J0D01*
G01*
X153350000Y-99374000D01*
G75*
G02*
X153500000Y-99524000I0J-150000D01*
G01*
G37*
%TD*%
%TO.C,U1*%
G36*
G01*
X133450000Y-99524000D02*
X133450000Y-99824000D01*
G75*
G02*
X133300000Y-99974000I-150000J0D01*
G01*
X131650000Y-99974000D01*
G75*
G02*
X131500000Y-99824000I0J150000D01*
G01*
X131500000Y-99524000D01*
G75*
G02*
X131650000Y-99374000I150000J0D01*
G01*
X133300000Y-99374000D01*
G75*
G02*
X133450000Y-99524000I0J-150000D01*
G01*
G37*
G36*
G01*
X133450000Y-100794000D02*
X133450000Y-101094000D01*
G75*
G02*
X133300000Y-101244000I-150000J0D01*
G01*
X131650000Y-101244000D01*
G75*
G02*
X131500000Y-101094000I0J150000D01*
G01*
X131500000Y-100794000D01*
G75*
G02*
X131650000Y-100644000I150000J0D01*
G01*
X133300000Y-100644000D01*
G75*
G02*
X133450000Y-100794000I0J-150000D01*
G01*
G37*
G36*
G01*
X133450000Y-102064000D02*
X133450000Y-102364000D01*
G75*
G02*
X133300000Y-102514000I-150000J0D01*
G01*
X131650000Y-102514000D01*
G75*
G02*
X131500000Y-102364000I0J150000D01*
G01*
X131500000Y-102064000D01*
G75*
G02*
X131650000Y-101914000I150000J0D01*
G01*
X133300000Y-101914000D01*
G75*
G02*
X133450000Y-102064000I0J-150000D01*
G01*
G37*
G36*
G01*
X133450000Y-103334000D02*
X133450000Y-103634000D01*
G75*
G02*
X133300000Y-103784000I-150000J0D01*
G01*
X131650000Y-103784000D01*
G75*
G02*
X131500000Y-103634000I0J150000D01*
G01*
X131500000Y-103334000D01*
G75*
G02*
X131650000Y-103184000I150000J0D01*
G01*
X133300000Y-103184000D01*
G75*
G02*
X133450000Y-103334000I0J-150000D01*
G01*
G37*
G36*
G01*
X128500000Y-103334000D02*
X128500000Y-103634000D01*
G75*
G02*
X128350000Y-103784000I-150000J0D01*
G01*
X126700000Y-103784000D01*
G75*
G02*
X126550000Y-103634000I0J150000D01*
G01*
X126550000Y-103334000D01*
G75*
G02*
X126700000Y-103184000I150000J0D01*
G01*
X128350000Y-103184000D01*
G75*
G02*
X128500000Y-103334000I0J-150000D01*
G01*
G37*
G36*
G01*
X128500000Y-102064000D02*
X128500000Y-102364000D01*
G75*
G02*
X128350000Y-102514000I-150000J0D01*
G01*
X126700000Y-102514000D01*
G75*
G02*
X126550000Y-102364000I0J150000D01*
G01*
X126550000Y-102064000D01*
G75*
G02*
X126700000Y-101914000I150000J0D01*
G01*
X128350000Y-101914000D01*
G75*
G02*
X128500000Y-102064000I0J-150000D01*
G01*
G37*
G36*
G01*
X128500000Y-100794000D02*
X128500000Y-101094000D01*
G75*
G02*
X128350000Y-101244000I-150000J0D01*
G01*
X126700000Y-101244000D01*
G75*
G02*
X126550000Y-101094000I0J150000D01*
G01*
X126550000Y-100794000D01*
G75*
G02*
X126700000Y-100644000I150000J0D01*
G01*
X128350000Y-100644000D01*
G75*
G02*
X128500000Y-100794000I0J-150000D01*
G01*
G37*
G36*
G01*
X128500000Y-99524000D02*
X128500000Y-99824000D01*
G75*
G02*
X128350000Y-99974000I-150000J0D01*
G01*
X126700000Y-99974000D01*
G75*
G02*
X126550000Y-99824000I0J150000D01*
G01*
X126550000Y-99524000D01*
G75*
G02*
X126700000Y-99374000I150000J0D01*
G01*
X128350000Y-99374000D01*
G75*
G02*
X128500000Y-99524000I0J-150000D01*
G01*
G37*
%TD*%
%TO.C,U1*%
G36*
G01*
X158450000Y-87024000D02*
X158450000Y-87324000D01*
G75*
G02*
X158300000Y-87474000I-150000J0D01*
G01*
X156650000Y-87474000D01*
G75*
G02*
X156500000Y-87324000I0J150000D01*
G01*
X156500000Y-87024000D01*
G75*
G02*
X156650000Y-86874000I150000J0D01*
G01*
X158300000Y-86874000D01*
G75*
G02*
X158450000Y-87024000I0J-150000D01*
G01*
G37*
G36*
G01*
X158450000Y-88294000D02*
X158450000Y-88594000D01*
G75*
G02*
X158300000Y-88744000I-150000J0D01*
G01*
X156650000Y-88744000D01*
G75*
G02*
X156500000Y-88594000I0J150000D01*
G01*
X156500000Y-88294000D01*
G75*
G02*
X156650000Y-88144000I150000J0D01*
G01*
X158300000Y-88144000D01*
G75*
G02*
X158450000Y-88294000I0J-150000D01*
G01*
G37*
G36*
G01*
X158450000Y-89564000D02*
X158450000Y-89864000D01*
G75*
G02*
X158300000Y-90014000I-150000J0D01*
G01*
X156650000Y-90014000D01*
G75*
G02*
X156500000Y-89864000I0J150000D01*
G01*
X156500000Y-89564000D01*
G75*
G02*
X156650000Y-89414000I150000J0D01*
G01*
X158300000Y-89414000D01*
G75*
G02*
X158450000Y-89564000I0J-150000D01*
G01*
G37*
G36*
G01*
X158450000Y-90834000D02*
X158450000Y-91134000D01*
G75*
G02*
X158300000Y-91284000I-150000J0D01*
G01*
X156650000Y-91284000D01*
G75*
G02*
X156500000Y-91134000I0J150000D01*
G01*
X156500000Y-90834000D01*
G75*
G02*
X156650000Y-90684000I150000J0D01*
G01*
X158300000Y-90684000D01*
G75*
G02*
X158450000Y-90834000I0J-150000D01*
G01*
G37*
G36*
G01*
X153500000Y-90834000D02*
X153500000Y-91134000D01*
G75*
G02*
X153350000Y-91284000I-150000J0D01*
G01*
X151700000Y-91284000D01*
G75*
G02*
X151550000Y-91134000I0J150000D01*
G01*
X151550000Y-90834000D01*
G75*
G02*
X151700000Y-90684000I150000J0D01*
G01*
X153350000Y-90684000D01*
G75*
G02*
X153500000Y-90834000I0J-150000D01*
G01*
G37*
G36*
G01*
X153500000Y-89564000D02*
X153500000Y-89864000D01*
G75*
G02*
X153350000Y-90014000I-150000J0D01*
G01*
X151700000Y-90014000D01*
G75*
G02*
X151550000Y-89864000I0J150000D01*
G01*
X151550000Y-89564000D01*
G75*
G02*
X151700000Y-89414000I150000J0D01*
G01*
X153350000Y-89414000D01*
G75*
G02*
X153500000Y-89564000I0J-150000D01*
G01*
G37*
G36*
G01*
X153500000Y-88294000D02*
X153500000Y-88594000D01*
G75*
G02*
X153350000Y-88744000I-150000J0D01*
G01*
X151700000Y-88744000D01*
G75*
G02*
X151550000Y-88594000I0J150000D01*
G01*
X151550000Y-88294000D01*
G75*
G02*
X151700000Y-88144000I150000J0D01*
G01*
X153350000Y-88144000D01*
G75*
G02*
X153500000Y-88294000I0J-150000D01*
G01*
G37*
G36*
G01*
X153500000Y-87024000D02*
X153500000Y-87324000D01*
G75*
G02*
X153350000Y-87474000I-150000J0D01*
G01*
X151700000Y-87474000D01*
G75*
G02*
X151550000Y-87324000I0J150000D01*
G01*
X151550000Y-87024000D01*
G75*
G02*
X151700000Y-86874000I150000J0D01*
G01*
X153350000Y-86874000D01*
G75*
G02*
X153500000Y-87024000I0J-150000D01*
G01*
G37*
%TD*%
D10*
%TO.C,J2*%
X146364000Y-125944000D03*
D11*
X146364000Y-127214000D03*
X145094000Y-125944000D03*
X145094000Y-127214000D03*
X143824000Y-125944000D03*
X143824000Y-127214000D03*
%TD*%
D10*
%TO.C,J2*%
X121364000Y-125944000D03*
D11*
X121364000Y-127214000D03*
X120094000Y-125944000D03*
X120094000Y-127214000D03*
X118824000Y-125944000D03*
X118824000Y-127214000D03*
%TD*%
D10*
%TO.C,J2*%
X146364000Y-113444000D03*
D11*
X146364000Y-114714000D03*
X145094000Y-113444000D03*
X145094000Y-114714000D03*
X143824000Y-113444000D03*
X143824000Y-114714000D03*
%TD*%
D10*
%TO.C,J2*%
X121364000Y-113444000D03*
D11*
X121364000Y-114714000D03*
X120094000Y-113444000D03*
X120094000Y-114714000D03*
X118824000Y-113444000D03*
X118824000Y-114714000D03*
%TD*%
D10*
%TO.C,J2*%
X146364000Y-100944000D03*
D11*
X146364000Y-102214000D03*
X145094000Y-100944000D03*
X145094000Y-102214000D03*
X143824000Y-100944000D03*
X143824000Y-102214000D03*
%TD*%
D10*
%TO.C,J2*%
X121364000Y-100944000D03*
D11*
X121364000Y-102214000D03*
X120094000Y-100944000D03*
X120094000Y-102214000D03*
X118824000Y-100944000D03*
X118824000Y-102214000D03*
%TD*%
D10*
%TO.C,J2*%
X146364000Y-88444000D03*
D11*
X146364000Y-89714000D03*
X145094000Y-88444000D03*
X145094000Y-89714000D03*
X143824000Y-88444000D03*
X143824000Y-89714000D03*
%TD*%
D10*
%TO.C,J1*%
X166176000Y-125944000D03*
D11*
X166176000Y-127214000D03*
X164906000Y-125944000D03*
X164906000Y-127214000D03*
X163636000Y-125944000D03*
X163636000Y-127214000D03*
%TD*%
D10*
%TO.C,J1*%
X141176000Y-125944000D03*
D11*
X141176000Y-127214000D03*
X139906000Y-125944000D03*
X139906000Y-127214000D03*
X138636000Y-125944000D03*
X138636000Y-127214000D03*
%TD*%
D10*
%TO.C,J1*%
X166176000Y-113444000D03*
D11*
X166176000Y-114714000D03*
X164906000Y-113444000D03*
X164906000Y-114714000D03*
X163636000Y-113444000D03*
X163636000Y-114714000D03*
%TD*%
D10*
%TO.C,J1*%
X141176000Y-113444000D03*
D11*
X141176000Y-114714000D03*
X139906000Y-113444000D03*
X139906000Y-114714000D03*
X138636000Y-113444000D03*
X138636000Y-114714000D03*
%TD*%
D10*
%TO.C,J1*%
X166176000Y-100944000D03*
D11*
X166176000Y-102214000D03*
X164906000Y-100944000D03*
X164906000Y-102214000D03*
X163636000Y-100944000D03*
X163636000Y-102214000D03*
%TD*%
D10*
%TO.C,J1*%
X141176000Y-100944000D03*
D11*
X141176000Y-102214000D03*
X139906000Y-100944000D03*
X139906000Y-102214000D03*
X138636000Y-100944000D03*
X138636000Y-102214000D03*
%TD*%
D10*
%TO.C,J1*%
X166176000Y-88444000D03*
D11*
X166176000Y-89714000D03*
X164906000Y-88444000D03*
X164906000Y-89714000D03*
X163636000Y-88444000D03*
X163636000Y-89714000D03*
%TD*%
%TO.C,R16*%
G36*
G01*
X146724000Y-119194000D02*
X147274000Y-119194000D01*
G75*
G02*
X147474000Y-119394000I0J-200000D01*
G01*
X147474000Y-119794000D01*
G75*
G02*
X147274000Y-119994000I-200000J0D01*
G01*
X146724000Y-119994000D01*
G75*
G02*
X146524000Y-119794000I0J200000D01*
G01*
X146524000Y-119394000D01*
G75*
G02*
X146724000Y-119194000I200000J0D01*
G01*
G37*
G36*
G01*
X146724000Y-120844000D02*
X147274000Y-120844000D01*
G75*
G02*
X147474000Y-121044000I0J-200000D01*
G01*
X147474000Y-121444000D01*
G75*
G02*
X147274000Y-121644000I-200000J0D01*
G01*
X146724000Y-121644000D01*
G75*
G02*
X146524000Y-121444000I0J200000D01*
G01*
X146524000Y-121044000D01*
G75*
G02*
X146724000Y-120844000I200000J0D01*
G01*
G37*
%TD*%
%TO.C,R16*%
G36*
G01*
X121724000Y-119194000D02*
X122274000Y-119194000D01*
G75*
G02*
X122474000Y-119394000I0J-200000D01*
G01*
X122474000Y-119794000D01*
G75*
G02*
X122274000Y-119994000I-200000J0D01*
G01*
X121724000Y-119994000D01*
G75*
G02*
X121524000Y-119794000I0J200000D01*
G01*
X121524000Y-119394000D01*
G75*
G02*
X121724000Y-119194000I200000J0D01*
G01*
G37*
G36*
G01*
X121724000Y-120844000D02*
X122274000Y-120844000D01*
G75*
G02*
X122474000Y-121044000I0J-200000D01*
G01*
X122474000Y-121444000D01*
G75*
G02*
X122274000Y-121644000I-200000J0D01*
G01*
X121724000Y-121644000D01*
G75*
G02*
X121524000Y-121444000I0J200000D01*
G01*
X121524000Y-121044000D01*
G75*
G02*
X121724000Y-120844000I200000J0D01*
G01*
G37*
%TD*%
%TO.C,R16*%
G36*
G01*
X146724000Y-106694000D02*
X147274000Y-106694000D01*
G75*
G02*
X147474000Y-106894000I0J-200000D01*
G01*
X147474000Y-107294000D01*
G75*
G02*
X147274000Y-107494000I-200000J0D01*
G01*
X146724000Y-107494000D01*
G75*
G02*
X146524000Y-107294000I0J200000D01*
G01*
X146524000Y-106894000D01*
G75*
G02*
X146724000Y-106694000I200000J0D01*
G01*
G37*
G36*
G01*
X146724000Y-108344000D02*
X147274000Y-108344000D01*
G75*
G02*
X147474000Y-108544000I0J-200000D01*
G01*
X147474000Y-108944000D01*
G75*
G02*
X147274000Y-109144000I-200000J0D01*
G01*
X146724000Y-109144000D01*
G75*
G02*
X146524000Y-108944000I0J200000D01*
G01*
X146524000Y-108544000D01*
G75*
G02*
X146724000Y-108344000I200000J0D01*
G01*
G37*
%TD*%
%TO.C,R16*%
G36*
G01*
X121724000Y-106694000D02*
X122274000Y-106694000D01*
G75*
G02*
X122474000Y-106894000I0J-200000D01*
G01*
X122474000Y-107294000D01*
G75*
G02*
X122274000Y-107494000I-200000J0D01*
G01*
X121724000Y-107494000D01*
G75*
G02*
X121524000Y-107294000I0J200000D01*
G01*
X121524000Y-106894000D01*
G75*
G02*
X121724000Y-106694000I200000J0D01*
G01*
G37*
G36*
G01*
X121724000Y-108344000D02*
X122274000Y-108344000D01*
G75*
G02*
X122474000Y-108544000I0J-200000D01*
G01*
X122474000Y-108944000D01*
G75*
G02*
X122274000Y-109144000I-200000J0D01*
G01*
X121724000Y-109144000D01*
G75*
G02*
X121524000Y-108944000I0J200000D01*
G01*
X121524000Y-108544000D01*
G75*
G02*
X121724000Y-108344000I200000J0D01*
G01*
G37*
%TD*%
%TO.C,R16*%
G36*
G01*
X146724000Y-94194000D02*
X147274000Y-94194000D01*
G75*
G02*
X147474000Y-94394000I0J-200000D01*
G01*
X147474000Y-94794000D01*
G75*
G02*
X147274000Y-94994000I-200000J0D01*
G01*
X146724000Y-94994000D01*
G75*
G02*
X146524000Y-94794000I0J200000D01*
G01*
X146524000Y-94394000D01*
G75*
G02*
X146724000Y-94194000I200000J0D01*
G01*
G37*
G36*
G01*
X146724000Y-95844000D02*
X147274000Y-95844000D01*
G75*
G02*
X147474000Y-96044000I0J-200000D01*
G01*
X147474000Y-96444000D01*
G75*
G02*
X147274000Y-96644000I-200000J0D01*
G01*
X146724000Y-96644000D01*
G75*
G02*
X146524000Y-96444000I0J200000D01*
G01*
X146524000Y-96044000D01*
G75*
G02*
X146724000Y-95844000I200000J0D01*
G01*
G37*
%TD*%
%TO.C,R16*%
G36*
G01*
X121724000Y-94194000D02*
X122274000Y-94194000D01*
G75*
G02*
X122474000Y-94394000I0J-200000D01*
G01*
X122474000Y-94794000D01*
G75*
G02*
X122274000Y-94994000I-200000J0D01*
G01*
X121724000Y-94994000D01*
G75*
G02*
X121524000Y-94794000I0J200000D01*
G01*
X121524000Y-94394000D01*
G75*
G02*
X121724000Y-94194000I200000J0D01*
G01*
G37*
G36*
G01*
X121724000Y-95844000D02*
X122274000Y-95844000D01*
G75*
G02*
X122474000Y-96044000I0J-200000D01*
G01*
X122474000Y-96444000D01*
G75*
G02*
X122274000Y-96644000I-200000J0D01*
G01*
X121724000Y-96644000D01*
G75*
G02*
X121524000Y-96444000I0J200000D01*
G01*
X121524000Y-96044000D01*
G75*
G02*
X121724000Y-95844000I200000J0D01*
G01*
G37*
%TD*%
%TO.C,R16*%
G36*
G01*
X146724000Y-81694000D02*
X147274000Y-81694000D01*
G75*
G02*
X147474000Y-81894000I0J-200000D01*
G01*
X147474000Y-82294000D01*
G75*
G02*
X147274000Y-82494000I-200000J0D01*
G01*
X146724000Y-82494000D01*
G75*
G02*
X146524000Y-82294000I0J200000D01*
G01*
X146524000Y-81894000D01*
G75*
G02*
X146724000Y-81694000I200000J0D01*
G01*
G37*
G36*
G01*
X146724000Y-83344000D02*
X147274000Y-83344000D01*
G75*
G02*
X147474000Y-83544000I0J-200000D01*
G01*
X147474000Y-83944000D01*
G75*
G02*
X147274000Y-84144000I-200000J0D01*
G01*
X146724000Y-84144000D01*
G75*
G02*
X146524000Y-83944000I0J200000D01*
G01*
X146524000Y-83544000D01*
G75*
G02*
X146724000Y-83344000I200000J0D01*
G01*
G37*
%TD*%
%TO.C,R18*%
G36*
G01*
X153113000Y-117668000D02*
X153113000Y-118218000D01*
G75*
G02*
X152913000Y-118418000I-200000J0D01*
G01*
X152513000Y-118418000D01*
G75*
G02*
X152313000Y-118218000I0J200000D01*
G01*
X152313000Y-117668000D01*
G75*
G02*
X152513000Y-117468000I200000J0D01*
G01*
X152913000Y-117468000D01*
G75*
G02*
X153113000Y-117668000I0J-200000D01*
G01*
G37*
G36*
G01*
X151463000Y-117668000D02*
X151463000Y-118218000D01*
G75*
G02*
X151263000Y-118418000I-200000J0D01*
G01*
X150863000Y-118418000D01*
G75*
G02*
X150663000Y-118218000I0J200000D01*
G01*
X150663000Y-117668000D01*
G75*
G02*
X150863000Y-117468000I200000J0D01*
G01*
X151263000Y-117468000D01*
G75*
G02*
X151463000Y-117668000I0J-200000D01*
G01*
G37*
%TD*%
%TO.C,R18*%
G36*
G01*
X128113000Y-117668000D02*
X128113000Y-118218000D01*
G75*
G02*
X127913000Y-118418000I-200000J0D01*
G01*
X127513000Y-118418000D01*
G75*
G02*
X127313000Y-118218000I0J200000D01*
G01*
X127313000Y-117668000D01*
G75*
G02*
X127513000Y-117468000I200000J0D01*
G01*
X127913000Y-117468000D01*
G75*
G02*
X128113000Y-117668000I0J-200000D01*
G01*
G37*
G36*
G01*
X126463000Y-117668000D02*
X126463000Y-118218000D01*
G75*
G02*
X126263000Y-118418000I-200000J0D01*
G01*
X125863000Y-118418000D01*
G75*
G02*
X125663000Y-118218000I0J200000D01*
G01*
X125663000Y-117668000D01*
G75*
G02*
X125863000Y-117468000I200000J0D01*
G01*
X126263000Y-117468000D01*
G75*
G02*
X126463000Y-117668000I0J-200000D01*
G01*
G37*
%TD*%
%TO.C,R18*%
G36*
G01*
X153113000Y-105168000D02*
X153113000Y-105718000D01*
G75*
G02*
X152913000Y-105918000I-200000J0D01*
G01*
X152513000Y-105918000D01*
G75*
G02*
X152313000Y-105718000I0J200000D01*
G01*
X152313000Y-105168000D01*
G75*
G02*
X152513000Y-104968000I200000J0D01*
G01*
X152913000Y-104968000D01*
G75*
G02*
X153113000Y-105168000I0J-200000D01*
G01*
G37*
G36*
G01*
X151463000Y-105168000D02*
X151463000Y-105718000D01*
G75*
G02*
X151263000Y-105918000I-200000J0D01*
G01*
X150863000Y-105918000D01*
G75*
G02*
X150663000Y-105718000I0J200000D01*
G01*
X150663000Y-105168000D01*
G75*
G02*
X150863000Y-104968000I200000J0D01*
G01*
X151263000Y-104968000D01*
G75*
G02*
X151463000Y-105168000I0J-200000D01*
G01*
G37*
%TD*%
%TO.C,R18*%
G36*
G01*
X128113000Y-105168000D02*
X128113000Y-105718000D01*
G75*
G02*
X127913000Y-105918000I-200000J0D01*
G01*
X127513000Y-105918000D01*
G75*
G02*
X127313000Y-105718000I0J200000D01*
G01*
X127313000Y-105168000D01*
G75*
G02*
X127513000Y-104968000I200000J0D01*
G01*
X127913000Y-104968000D01*
G75*
G02*
X128113000Y-105168000I0J-200000D01*
G01*
G37*
G36*
G01*
X126463000Y-105168000D02*
X126463000Y-105718000D01*
G75*
G02*
X126263000Y-105918000I-200000J0D01*
G01*
X125863000Y-105918000D01*
G75*
G02*
X125663000Y-105718000I0J200000D01*
G01*
X125663000Y-105168000D01*
G75*
G02*
X125863000Y-104968000I200000J0D01*
G01*
X126263000Y-104968000D01*
G75*
G02*
X126463000Y-105168000I0J-200000D01*
G01*
G37*
%TD*%
%TO.C,R18*%
G36*
G01*
X153113000Y-92668000D02*
X153113000Y-93218000D01*
G75*
G02*
X152913000Y-93418000I-200000J0D01*
G01*
X152513000Y-93418000D01*
G75*
G02*
X152313000Y-93218000I0J200000D01*
G01*
X152313000Y-92668000D01*
G75*
G02*
X152513000Y-92468000I200000J0D01*
G01*
X152913000Y-92468000D01*
G75*
G02*
X153113000Y-92668000I0J-200000D01*
G01*
G37*
G36*
G01*
X151463000Y-92668000D02*
X151463000Y-93218000D01*
G75*
G02*
X151263000Y-93418000I-200000J0D01*
G01*
X150863000Y-93418000D01*
G75*
G02*
X150663000Y-93218000I0J200000D01*
G01*
X150663000Y-92668000D01*
G75*
G02*
X150863000Y-92468000I200000J0D01*
G01*
X151263000Y-92468000D01*
G75*
G02*
X151463000Y-92668000I0J-200000D01*
G01*
G37*
%TD*%
%TO.C,R18*%
G36*
G01*
X128113000Y-92668000D02*
X128113000Y-93218000D01*
G75*
G02*
X127913000Y-93418000I-200000J0D01*
G01*
X127513000Y-93418000D01*
G75*
G02*
X127313000Y-93218000I0J200000D01*
G01*
X127313000Y-92668000D01*
G75*
G02*
X127513000Y-92468000I200000J0D01*
G01*
X127913000Y-92468000D01*
G75*
G02*
X128113000Y-92668000I0J-200000D01*
G01*
G37*
G36*
G01*
X126463000Y-92668000D02*
X126463000Y-93218000D01*
G75*
G02*
X126263000Y-93418000I-200000J0D01*
G01*
X125863000Y-93418000D01*
G75*
G02*
X125663000Y-93218000I0J200000D01*
G01*
X125663000Y-92668000D01*
G75*
G02*
X125863000Y-92468000I200000J0D01*
G01*
X126263000Y-92468000D01*
G75*
G02*
X126463000Y-92668000I0J-200000D01*
G01*
G37*
%TD*%
%TO.C,R18*%
G36*
G01*
X153113000Y-80168000D02*
X153113000Y-80718000D01*
G75*
G02*
X152913000Y-80918000I-200000J0D01*
G01*
X152513000Y-80918000D01*
G75*
G02*
X152313000Y-80718000I0J200000D01*
G01*
X152313000Y-80168000D01*
G75*
G02*
X152513000Y-79968000I200000J0D01*
G01*
X152913000Y-79968000D01*
G75*
G02*
X153113000Y-80168000I0J-200000D01*
G01*
G37*
G36*
G01*
X151463000Y-80168000D02*
X151463000Y-80718000D01*
G75*
G02*
X151263000Y-80918000I-200000J0D01*
G01*
X150863000Y-80918000D01*
G75*
G02*
X150663000Y-80718000I0J200000D01*
G01*
X150663000Y-80168000D01*
G75*
G02*
X150863000Y-79968000I200000J0D01*
G01*
X151263000Y-79968000D01*
G75*
G02*
X151463000Y-80168000I0J-200000D01*
G01*
G37*
%TD*%
%TO.C,R20*%
G36*
G01*
X143425000Y-123298000D02*
X143425000Y-122748000D01*
G75*
G02*
X143625000Y-122548000I200000J0D01*
G01*
X144025000Y-122548000D01*
G75*
G02*
X144225000Y-122748000I0J-200000D01*
G01*
X144225000Y-123298000D01*
G75*
G02*
X144025000Y-123498000I-200000J0D01*
G01*
X143625000Y-123498000D01*
G75*
G02*
X143425000Y-123298000I0J200000D01*
G01*
G37*
G36*
G01*
X145075000Y-123298000D02*
X145075000Y-122748000D01*
G75*
G02*
X145275000Y-122548000I200000J0D01*
G01*
X145675000Y-122548000D01*
G75*
G02*
X145875000Y-122748000I0J-200000D01*
G01*
X145875000Y-123298000D01*
G75*
G02*
X145675000Y-123498000I-200000J0D01*
G01*
X145275000Y-123498000D01*
G75*
G02*
X145075000Y-123298000I0J200000D01*
G01*
G37*
%TD*%
%TO.C,R20*%
G36*
G01*
X118425000Y-123298000D02*
X118425000Y-122748000D01*
G75*
G02*
X118625000Y-122548000I200000J0D01*
G01*
X119025000Y-122548000D01*
G75*
G02*
X119225000Y-122748000I0J-200000D01*
G01*
X119225000Y-123298000D01*
G75*
G02*
X119025000Y-123498000I-200000J0D01*
G01*
X118625000Y-123498000D01*
G75*
G02*
X118425000Y-123298000I0J200000D01*
G01*
G37*
G36*
G01*
X120075000Y-123298000D02*
X120075000Y-122748000D01*
G75*
G02*
X120275000Y-122548000I200000J0D01*
G01*
X120675000Y-122548000D01*
G75*
G02*
X120875000Y-122748000I0J-200000D01*
G01*
X120875000Y-123298000D01*
G75*
G02*
X120675000Y-123498000I-200000J0D01*
G01*
X120275000Y-123498000D01*
G75*
G02*
X120075000Y-123298000I0J200000D01*
G01*
G37*
%TD*%
%TO.C,R20*%
G36*
G01*
X143425000Y-110798000D02*
X143425000Y-110248000D01*
G75*
G02*
X143625000Y-110048000I200000J0D01*
G01*
X144025000Y-110048000D01*
G75*
G02*
X144225000Y-110248000I0J-200000D01*
G01*
X144225000Y-110798000D01*
G75*
G02*
X144025000Y-110998000I-200000J0D01*
G01*
X143625000Y-110998000D01*
G75*
G02*
X143425000Y-110798000I0J200000D01*
G01*
G37*
G36*
G01*
X145075000Y-110798000D02*
X145075000Y-110248000D01*
G75*
G02*
X145275000Y-110048000I200000J0D01*
G01*
X145675000Y-110048000D01*
G75*
G02*
X145875000Y-110248000I0J-200000D01*
G01*
X145875000Y-110798000D01*
G75*
G02*
X145675000Y-110998000I-200000J0D01*
G01*
X145275000Y-110998000D01*
G75*
G02*
X145075000Y-110798000I0J200000D01*
G01*
G37*
%TD*%
%TO.C,R20*%
G36*
G01*
X118425000Y-110798000D02*
X118425000Y-110248000D01*
G75*
G02*
X118625000Y-110048000I200000J0D01*
G01*
X119025000Y-110048000D01*
G75*
G02*
X119225000Y-110248000I0J-200000D01*
G01*
X119225000Y-110798000D01*
G75*
G02*
X119025000Y-110998000I-200000J0D01*
G01*
X118625000Y-110998000D01*
G75*
G02*
X118425000Y-110798000I0J200000D01*
G01*
G37*
G36*
G01*
X120075000Y-110798000D02*
X120075000Y-110248000D01*
G75*
G02*
X120275000Y-110048000I200000J0D01*
G01*
X120675000Y-110048000D01*
G75*
G02*
X120875000Y-110248000I0J-200000D01*
G01*
X120875000Y-110798000D01*
G75*
G02*
X120675000Y-110998000I-200000J0D01*
G01*
X120275000Y-110998000D01*
G75*
G02*
X120075000Y-110798000I0J200000D01*
G01*
G37*
%TD*%
%TO.C,R20*%
G36*
G01*
X143425000Y-98298000D02*
X143425000Y-97748000D01*
G75*
G02*
X143625000Y-97548000I200000J0D01*
G01*
X144025000Y-97548000D01*
G75*
G02*
X144225000Y-97748000I0J-200000D01*
G01*
X144225000Y-98298000D01*
G75*
G02*
X144025000Y-98498000I-200000J0D01*
G01*
X143625000Y-98498000D01*
G75*
G02*
X143425000Y-98298000I0J200000D01*
G01*
G37*
G36*
G01*
X145075000Y-98298000D02*
X145075000Y-97748000D01*
G75*
G02*
X145275000Y-97548000I200000J0D01*
G01*
X145675000Y-97548000D01*
G75*
G02*
X145875000Y-97748000I0J-200000D01*
G01*
X145875000Y-98298000D01*
G75*
G02*
X145675000Y-98498000I-200000J0D01*
G01*
X145275000Y-98498000D01*
G75*
G02*
X145075000Y-98298000I0J200000D01*
G01*
G37*
%TD*%
%TO.C,R20*%
G36*
G01*
X118425000Y-98298000D02*
X118425000Y-97748000D01*
G75*
G02*
X118625000Y-97548000I200000J0D01*
G01*
X119025000Y-97548000D01*
G75*
G02*
X119225000Y-97748000I0J-200000D01*
G01*
X119225000Y-98298000D01*
G75*
G02*
X119025000Y-98498000I-200000J0D01*
G01*
X118625000Y-98498000D01*
G75*
G02*
X118425000Y-98298000I0J200000D01*
G01*
G37*
G36*
G01*
X120075000Y-98298000D02*
X120075000Y-97748000D01*
G75*
G02*
X120275000Y-97548000I200000J0D01*
G01*
X120675000Y-97548000D01*
G75*
G02*
X120875000Y-97748000I0J-200000D01*
G01*
X120875000Y-98298000D01*
G75*
G02*
X120675000Y-98498000I-200000J0D01*
G01*
X120275000Y-98498000D01*
G75*
G02*
X120075000Y-98298000I0J200000D01*
G01*
G37*
%TD*%
%TO.C,R20*%
G36*
G01*
X143425000Y-85798000D02*
X143425000Y-85248000D01*
G75*
G02*
X143625000Y-85048000I200000J0D01*
G01*
X144025000Y-85048000D01*
G75*
G02*
X144225000Y-85248000I0J-200000D01*
G01*
X144225000Y-85798000D01*
G75*
G02*
X144025000Y-85998000I-200000J0D01*
G01*
X143625000Y-85998000D01*
G75*
G02*
X143425000Y-85798000I0J200000D01*
G01*
G37*
G36*
G01*
X145075000Y-85798000D02*
X145075000Y-85248000D01*
G75*
G02*
X145275000Y-85048000I200000J0D01*
G01*
X145675000Y-85048000D01*
G75*
G02*
X145875000Y-85248000I0J-200000D01*
G01*
X145875000Y-85798000D01*
G75*
G02*
X145675000Y-85998000I-200000J0D01*
G01*
X145275000Y-85998000D01*
G75*
G02*
X145075000Y-85798000I0J200000D01*
G01*
G37*
%TD*%
%TO.C,R22*%
G36*
G01*
X153113000Y-122748000D02*
X153113000Y-123298000D01*
G75*
G02*
X152913000Y-123498000I-200000J0D01*
G01*
X152513000Y-123498000D01*
G75*
G02*
X152313000Y-123298000I0J200000D01*
G01*
X152313000Y-122748000D01*
G75*
G02*
X152513000Y-122548000I200000J0D01*
G01*
X152913000Y-122548000D01*
G75*
G02*
X153113000Y-122748000I0J-200000D01*
G01*
G37*
G36*
G01*
X151463000Y-122748000D02*
X151463000Y-123298000D01*
G75*
G02*
X151263000Y-123498000I-200000J0D01*
G01*
X150863000Y-123498000D01*
G75*
G02*
X150663000Y-123298000I0J200000D01*
G01*
X150663000Y-122748000D01*
G75*
G02*
X150863000Y-122548000I200000J0D01*
G01*
X151263000Y-122548000D01*
G75*
G02*
X151463000Y-122748000I0J-200000D01*
G01*
G37*
%TD*%
%TO.C,R22*%
G36*
G01*
X128113000Y-122748000D02*
X128113000Y-123298000D01*
G75*
G02*
X127913000Y-123498000I-200000J0D01*
G01*
X127513000Y-123498000D01*
G75*
G02*
X127313000Y-123298000I0J200000D01*
G01*
X127313000Y-122748000D01*
G75*
G02*
X127513000Y-122548000I200000J0D01*
G01*
X127913000Y-122548000D01*
G75*
G02*
X128113000Y-122748000I0J-200000D01*
G01*
G37*
G36*
G01*
X126463000Y-122748000D02*
X126463000Y-123298000D01*
G75*
G02*
X126263000Y-123498000I-200000J0D01*
G01*
X125863000Y-123498000D01*
G75*
G02*
X125663000Y-123298000I0J200000D01*
G01*
X125663000Y-122748000D01*
G75*
G02*
X125863000Y-122548000I200000J0D01*
G01*
X126263000Y-122548000D01*
G75*
G02*
X126463000Y-122748000I0J-200000D01*
G01*
G37*
%TD*%
%TO.C,R22*%
G36*
G01*
X153113000Y-110248000D02*
X153113000Y-110798000D01*
G75*
G02*
X152913000Y-110998000I-200000J0D01*
G01*
X152513000Y-110998000D01*
G75*
G02*
X152313000Y-110798000I0J200000D01*
G01*
X152313000Y-110248000D01*
G75*
G02*
X152513000Y-110048000I200000J0D01*
G01*
X152913000Y-110048000D01*
G75*
G02*
X153113000Y-110248000I0J-200000D01*
G01*
G37*
G36*
G01*
X151463000Y-110248000D02*
X151463000Y-110798000D01*
G75*
G02*
X151263000Y-110998000I-200000J0D01*
G01*
X150863000Y-110998000D01*
G75*
G02*
X150663000Y-110798000I0J200000D01*
G01*
X150663000Y-110248000D01*
G75*
G02*
X150863000Y-110048000I200000J0D01*
G01*
X151263000Y-110048000D01*
G75*
G02*
X151463000Y-110248000I0J-200000D01*
G01*
G37*
%TD*%
%TO.C,R22*%
G36*
G01*
X128113000Y-110248000D02*
X128113000Y-110798000D01*
G75*
G02*
X127913000Y-110998000I-200000J0D01*
G01*
X127513000Y-110998000D01*
G75*
G02*
X127313000Y-110798000I0J200000D01*
G01*
X127313000Y-110248000D01*
G75*
G02*
X127513000Y-110048000I200000J0D01*
G01*
X127913000Y-110048000D01*
G75*
G02*
X128113000Y-110248000I0J-200000D01*
G01*
G37*
G36*
G01*
X126463000Y-110248000D02*
X126463000Y-110798000D01*
G75*
G02*
X126263000Y-110998000I-200000J0D01*
G01*
X125863000Y-110998000D01*
G75*
G02*
X125663000Y-110798000I0J200000D01*
G01*
X125663000Y-110248000D01*
G75*
G02*
X125863000Y-110048000I200000J0D01*
G01*
X126263000Y-110048000D01*
G75*
G02*
X126463000Y-110248000I0J-200000D01*
G01*
G37*
%TD*%
%TO.C,R22*%
G36*
G01*
X153113000Y-97748000D02*
X153113000Y-98298000D01*
G75*
G02*
X152913000Y-98498000I-200000J0D01*
G01*
X152513000Y-98498000D01*
G75*
G02*
X152313000Y-98298000I0J200000D01*
G01*
X152313000Y-97748000D01*
G75*
G02*
X152513000Y-97548000I200000J0D01*
G01*
X152913000Y-97548000D01*
G75*
G02*
X153113000Y-97748000I0J-200000D01*
G01*
G37*
G36*
G01*
X151463000Y-97748000D02*
X151463000Y-98298000D01*
G75*
G02*
X151263000Y-98498000I-200000J0D01*
G01*
X150863000Y-98498000D01*
G75*
G02*
X150663000Y-98298000I0J200000D01*
G01*
X150663000Y-97748000D01*
G75*
G02*
X150863000Y-97548000I200000J0D01*
G01*
X151263000Y-97548000D01*
G75*
G02*
X151463000Y-97748000I0J-200000D01*
G01*
G37*
%TD*%
%TO.C,R22*%
G36*
G01*
X128113000Y-97748000D02*
X128113000Y-98298000D01*
G75*
G02*
X127913000Y-98498000I-200000J0D01*
G01*
X127513000Y-98498000D01*
G75*
G02*
X127313000Y-98298000I0J200000D01*
G01*
X127313000Y-97748000D01*
G75*
G02*
X127513000Y-97548000I200000J0D01*
G01*
X127913000Y-97548000D01*
G75*
G02*
X128113000Y-97748000I0J-200000D01*
G01*
G37*
G36*
G01*
X126463000Y-97748000D02*
X126463000Y-98298000D01*
G75*
G02*
X126263000Y-98498000I-200000J0D01*
G01*
X125863000Y-98498000D01*
G75*
G02*
X125663000Y-98298000I0J200000D01*
G01*
X125663000Y-97748000D01*
G75*
G02*
X125863000Y-97548000I200000J0D01*
G01*
X126263000Y-97548000D01*
G75*
G02*
X126463000Y-97748000I0J-200000D01*
G01*
G37*
%TD*%
%TO.C,R22*%
G36*
G01*
X153113000Y-85248000D02*
X153113000Y-85798000D01*
G75*
G02*
X152913000Y-85998000I-200000J0D01*
G01*
X152513000Y-85998000D01*
G75*
G02*
X152313000Y-85798000I0J200000D01*
G01*
X152313000Y-85248000D01*
G75*
G02*
X152513000Y-85048000I200000J0D01*
G01*
X152913000Y-85048000D01*
G75*
G02*
X153113000Y-85248000I0J-200000D01*
G01*
G37*
G36*
G01*
X151463000Y-85248000D02*
X151463000Y-85798000D01*
G75*
G02*
X151263000Y-85998000I-200000J0D01*
G01*
X150863000Y-85998000D01*
G75*
G02*
X150663000Y-85798000I0J200000D01*
G01*
X150663000Y-85248000D01*
G75*
G02*
X150863000Y-85048000I200000J0D01*
G01*
X151263000Y-85048000D01*
G75*
G02*
X151463000Y-85248000I0J-200000D01*
G01*
G37*
%TD*%
%TO.C,C1*%
G36*
G01*
X161981000Y-127791000D02*
X161481000Y-127791000D01*
G75*
G02*
X161256000Y-127566000I0J225000D01*
G01*
X161256000Y-127116000D01*
G75*
G02*
X161481000Y-126891000I225000J0D01*
G01*
X161981000Y-126891000D01*
G75*
G02*
X162206000Y-127116000I0J-225000D01*
G01*
X162206000Y-127566000D01*
G75*
G02*
X161981000Y-127791000I-225000J0D01*
G01*
G37*
G36*
G01*
X161981000Y-126241000D02*
X161481000Y-126241000D01*
G75*
G02*
X161256000Y-126016000I0J225000D01*
G01*
X161256000Y-125566000D01*
G75*
G02*
X161481000Y-125341000I225000J0D01*
G01*
X161981000Y-125341000D01*
G75*
G02*
X162206000Y-125566000I0J-225000D01*
G01*
X162206000Y-126016000D01*
G75*
G02*
X161981000Y-126241000I-225000J0D01*
G01*
G37*
%TD*%
%TO.C,C1*%
G36*
G01*
X136981000Y-127791000D02*
X136481000Y-127791000D01*
G75*
G02*
X136256000Y-127566000I0J225000D01*
G01*
X136256000Y-127116000D01*
G75*
G02*
X136481000Y-126891000I225000J0D01*
G01*
X136981000Y-126891000D01*
G75*
G02*
X137206000Y-127116000I0J-225000D01*
G01*
X137206000Y-127566000D01*
G75*
G02*
X136981000Y-127791000I-225000J0D01*
G01*
G37*
G36*
G01*
X136981000Y-126241000D02*
X136481000Y-126241000D01*
G75*
G02*
X136256000Y-126016000I0J225000D01*
G01*
X136256000Y-125566000D01*
G75*
G02*
X136481000Y-125341000I225000J0D01*
G01*
X136981000Y-125341000D01*
G75*
G02*
X137206000Y-125566000I0J-225000D01*
G01*
X137206000Y-126016000D01*
G75*
G02*
X136981000Y-126241000I-225000J0D01*
G01*
G37*
%TD*%
%TO.C,C1*%
G36*
G01*
X161981000Y-115291000D02*
X161481000Y-115291000D01*
G75*
G02*
X161256000Y-115066000I0J225000D01*
G01*
X161256000Y-114616000D01*
G75*
G02*
X161481000Y-114391000I225000J0D01*
G01*
X161981000Y-114391000D01*
G75*
G02*
X162206000Y-114616000I0J-225000D01*
G01*
X162206000Y-115066000D01*
G75*
G02*
X161981000Y-115291000I-225000J0D01*
G01*
G37*
G36*
G01*
X161981000Y-113741000D02*
X161481000Y-113741000D01*
G75*
G02*
X161256000Y-113516000I0J225000D01*
G01*
X161256000Y-113066000D01*
G75*
G02*
X161481000Y-112841000I225000J0D01*
G01*
X161981000Y-112841000D01*
G75*
G02*
X162206000Y-113066000I0J-225000D01*
G01*
X162206000Y-113516000D01*
G75*
G02*
X161981000Y-113741000I-225000J0D01*
G01*
G37*
%TD*%
%TO.C,C1*%
G36*
G01*
X136981000Y-115291000D02*
X136481000Y-115291000D01*
G75*
G02*
X136256000Y-115066000I0J225000D01*
G01*
X136256000Y-114616000D01*
G75*
G02*
X136481000Y-114391000I225000J0D01*
G01*
X136981000Y-114391000D01*
G75*
G02*
X137206000Y-114616000I0J-225000D01*
G01*
X137206000Y-115066000D01*
G75*
G02*
X136981000Y-115291000I-225000J0D01*
G01*
G37*
G36*
G01*
X136981000Y-113741000D02*
X136481000Y-113741000D01*
G75*
G02*
X136256000Y-113516000I0J225000D01*
G01*
X136256000Y-113066000D01*
G75*
G02*
X136481000Y-112841000I225000J0D01*
G01*
X136981000Y-112841000D01*
G75*
G02*
X137206000Y-113066000I0J-225000D01*
G01*
X137206000Y-113516000D01*
G75*
G02*
X136981000Y-113741000I-225000J0D01*
G01*
G37*
%TD*%
%TO.C,C1*%
G36*
G01*
X161981000Y-102791000D02*
X161481000Y-102791000D01*
G75*
G02*
X161256000Y-102566000I0J225000D01*
G01*
X161256000Y-102116000D01*
G75*
G02*
X161481000Y-101891000I225000J0D01*
G01*
X161981000Y-101891000D01*
G75*
G02*
X162206000Y-102116000I0J-225000D01*
G01*
X162206000Y-102566000D01*
G75*
G02*
X161981000Y-102791000I-225000J0D01*
G01*
G37*
G36*
G01*
X161981000Y-101241000D02*
X161481000Y-101241000D01*
G75*
G02*
X161256000Y-101016000I0J225000D01*
G01*
X161256000Y-100566000D01*
G75*
G02*
X161481000Y-100341000I225000J0D01*
G01*
X161981000Y-100341000D01*
G75*
G02*
X162206000Y-100566000I0J-225000D01*
G01*
X162206000Y-101016000D01*
G75*
G02*
X161981000Y-101241000I-225000J0D01*
G01*
G37*
%TD*%
%TO.C,C1*%
G36*
G01*
X136981000Y-102791000D02*
X136481000Y-102791000D01*
G75*
G02*
X136256000Y-102566000I0J225000D01*
G01*
X136256000Y-102116000D01*
G75*
G02*
X136481000Y-101891000I225000J0D01*
G01*
X136981000Y-101891000D01*
G75*
G02*
X137206000Y-102116000I0J-225000D01*
G01*
X137206000Y-102566000D01*
G75*
G02*
X136981000Y-102791000I-225000J0D01*
G01*
G37*
G36*
G01*
X136981000Y-101241000D02*
X136481000Y-101241000D01*
G75*
G02*
X136256000Y-101016000I0J225000D01*
G01*
X136256000Y-100566000D01*
G75*
G02*
X136481000Y-100341000I225000J0D01*
G01*
X136981000Y-100341000D01*
G75*
G02*
X137206000Y-100566000I0J-225000D01*
G01*
X137206000Y-101016000D01*
G75*
G02*
X136981000Y-101241000I-225000J0D01*
G01*
G37*
%TD*%
%TO.C,C1*%
G36*
G01*
X161981000Y-90291000D02*
X161481000Y-90291000D01*
G75*
G02*
X161256000Y-90066000I0J225000D01*
G01*
X161256000Y-89616000D01*
G75*
G02*
X161481000Y-89391000I225000J0D01*
G01*
X161981000Y-89391000D01*
G75*
G02*
X162206000Y-89616000I0J-225000D01*
G01*
X162206000Y-90066000D01*
G75*
G02*
X161981000Y-90291000I-225000J0D01*
G01*
G37*
G36*
G01*
X161981000Y-88741000D02*
X161481000Y-88741000D01*
G75*
G02*
X161256000Y-88516000I0J225000D01*
G01*
X161256000Y-88066000D01*
G75*
G02*
X161481000Y-87841000I225000J0D01*
G01*
X161981000Y-87841000D01*
G75*
G02*
X162206000Y-88066000I0J-225000D01*
G01*
X162206000Y-88516000D01*
G75*
G02*
X161981000Y-88741000I-225000J0D01*
G01*
G37*
%TD*%
%TO.C,C2*%
G36*
G01*
X160457000Y-127791000D02*
X159957000Y-127791000D01*
G75*
G02*
X159732000Y-127566000I0J225000D01*
G01*
X159732000Y-127116000D01*
G75*
G02*
X159957000Y-126891000I225000J0D01*
G01*
X160457000Y-126891000D01*
G75*
G02*
X160682000Y-127116000I0J-225000D01*
G01*
X160682000Y-127566000D01*
G75*
G02*
X160457000Y-127791000I-225000J0D01*
G01*
G37*
G36*
G01*
X160457000Y-126241000D02*
X159957000Y-126241000D01*
G75*
G02*
X159732000Y-126016000I0J225000D01*
G01*
X159732000Y-125566000D01*
G75*
G02*
X159957000Y-125341000I225000J0D01*
G01*
X160457000Y-125341000D01*
G75*
G02*
X160682000Y-125566000I0J-225000D01*
G01*
X160682000Y-126016000D01*
G75*
G02*
X160457000Y-126241000I-225000J0D01*
G01*
G37*
%TD*%
%TO.C,C2*%
G36*
G01*
X135457000Y-127791000D02*
X134957000Y-127791000D01*
G75*
G02*
X134732000Y-127566000I0J225000D01*
G01*
X134732000Y-127116000D01*
G75*
G02*
X134957000Y-126891000I225000J0D01*
G01*
X135457000Y-126891000D01*
G75*
G02*
X135682000Y-127116000I0J-225000D01*
G01*
X135682000Y-127566000D01*
G75*
G02*
X135457000Y-127791000I-225000J0D01*
G01*
G37*
G36*
G01*
X135457000Y-126241000D02*
X134957000Y-126241000D01*
G75*
G02*
X134732000Y-126016000I0J225000D01*
G01*
X134732000Y-125566000D01*
G75*
G02*
X134957000Y-125341000I225000J0D01*
G01*
X135457000Y-125341000D01*
G75*
G02*
X135682000Y-125566000I0J-225000D01*
G01*
X135682000Y-126016000D01*
G75*
G02*
X135457000Y-126241000I-225000J0D01*
G01*
G37*
%TD*%
%TO.C,C2*%
G36*
G01*
X160457000Y-115291000D02*
X159957000Y-115291000D01*
G75*
G02*
X159732000Y-115066000I0J225000D01*
G01*
X159732000Y-114616000D01*
G75*
G02*
X159957000Y-114391000I225000J0D01*
G01*
X160457000Y-114391000D01*
G75*
G02*
X160682000Y-114616000I0J-225000D01*
G01*
X160682000Y-115066000D01*
G75*
G02*
X160457000Y-115291000I-225000J0D01*
G01*
G37*
G36*
G01*
X160457000Y-113741000D02*
X159957000Y-113741000D01*
G75*
G02*
X159732000Y-113516000I0J225000D01*
G01*
X159732000Y-113066000D01*
G75*
G02*
X159957000Y-112841000I225000J0D01*
G01*
X160457000Y-112841000D01*
G75*
G02*
X160682000Y-113066000I0J-225000D01*
G01*
X160682000Y-113516000D01*
G75*
G02*
X160457000Y-113741000I-225000J0D01*
G01*
G37*
%TD*%
%TO.C,C2*%
G36*
G01*
X135457000Y-115291000D02*
X134957000Y-115291000D01*
G75*
G02*
X134732000Y-115066000I0J225000D01*
G01*
X134732000Y-114616000D01*
G75*
G02*
X134957000Y-114391000I225000J0D01*
G01*
X135457000Y-114391000D01*
G75*
G02*
X135682000Y-114616000I0J-225000D01*
G01*
X135682000Y-115066000D01*
G75*
G02*
X135457000Y-115291000I-225000J0D01*
G01*
G37*
G36*
G01*
X135457000Y-113741000D02*
X134957000Y-113741000D01*
G75*
G02*
X134732000Y-113516000I0J225000D01*
G01*
X134732000Y-113066000D01*
G75*
G02*
X134957000Y-112841000I225000J0D01*
G01*
X135457000Y-112841000D01*
G75*
G02*
X135682000Y-113066000I0J-225000D01*
G01*
X135682000Y-113516000D01*
G75*
G02*
X135457000Y-113741000I-225000J0D01*
G01*
G37*
%TD*%
%TO.C,C2*%
G36*
G01*
X160457000Y-102791000D02*
X159957000Y-102791000D01*
G75*
G02*
X159732000Y-102566000I0J225000D01*
G01*
X159732000Y-102116000D01*
G75*
G02*
X159957000Y-101891000I225000J0D01*
G01*
X160457000Y-101891000D01*
G75*
G02*
X160682000Y-102116000I0J-225000D01*
G01*
X160682000Y-102566000D01*
G75*
G02*
X160457000Y-102791000I-225000J0D01*
G01*
G37*
G36*
G01*
X160457000Y-101241000D02*
X159957000Y-101241000D01*
G75*
G02*
X159732000Y-101016000I0J225000D01*
G01*
X159732000Y-100566000D01*
G75*
G02*
X159957000Y-100341000I225000J0D01*
G01*
X160457000Y-100341000D01*
G75*
G02*
X160682000Y-100566000I0J-225000D01*
G01*
X160682000Y-101016000D01*
G75*
G02*
X160457000Y-101241000I-225000J0D01*
G01*
G37*
%TD*%
%TO.C,C2*%
G36*
G01*
X135457000Y-102791000D02*
X134957000Y-102791000D01*
G75*
G02*
X134732000Y-102566000I0J225000D01*
G01*
X134732000Y-102116000D01*
G75*
G02*
X134957000Y-101891000I225000J0D01*
G01*
X135457000Y-101891000D01*
G75*
G02*
X135682000Y-102116000I0J-225000D01*
G01*
X135682000Y-102566000D01*
G75*
G02*
X135457000Y-102791000I-225000J0D01*
G01*
G37*
G36*
G01*
X135457000Y-101241000D02*
X134957000Y-101241000D01*
G75*
G02*
X134732000Y-101016000I0J225000D01*
G01*
X134732000Y-100566000D01*
G75*
G02*
X134957000Y-100341000I225000J0D01*
G01*
X135457000Y-100341000D01*
G75*
G02*
X135682000Y-100566000I0J-225000D01*
G01*
X135682000Y-101016000D01*
G75*
G02*
X135457000Y-101241000I-225000J0D01*
G01*
G37*
%TD*%
%TO.C,C2*%
G36*
G01*
X160457000Y-90291000D02*
X159957000Y-90291000D01*
G75*
G02*
X159732000Y-90066000I0J225000D01*
G01*
X159732000Y-89616000D01*
G75*
G02*
X159957000Y-89391000I225000J0D01*
G01*
X160457000Y-89391000D01*
G75*
G02*
X160682000Y-89616000I0J-225000D01*
G01*
X160682000Y-90066000D01*
G75*
G02*
X160457000Y-90291000I-225000J0D01*
G01*
G37*
G36*
G01*
X160457000Y-88741000D02*
X159957000Y-88741000D01*
G75*
G02*
X159732000Y-88516000I0J225000D01*
G01*
X159732000Y-88066000D01*
G75*
G02*
X159957000Y-87841000I225000J0D01*
G01*
X160457000Y-87841000D01*
G75*
G02*
X160682000Y-88066000I0J-225000D01*
G01*
X160682000Y-88516000D01*
G75*
G02*
X160457000Y-88741000I-225000J0D01*
G01*
G37*
%TD*%
%TO.C,C4*%
G36*
G01*
X150043000Y-127791000D02*
X149543000Y-127791000D01*
G75*
G02*
X149318000Y-127566000I0J225000D01*
G01*
X149318000Y-127116000D01*
G75*
G02*
X149543000Y-126891000I225000J0D01*
G01*
X150043000Y-126891000D01*
G75*
G02*
X150268000Y-127116000I0J-225000D01*
G01*
X150268000Y-127566000D01*
G75*
G02*
X150043000Y-127791000I-225000J0D01*
G01*
G37*
G36*
G01*
X150043000Y-126241000D02*
X149543000Y-126241000D01*
G75*
G02*
X149318000Y-126016000I0J225000D01*
G01*
X149318000Y-125566000D01*
G75*
G02*
X149543000Y-125341000I225000J0D01*
G01*
X150043000Y-125341000D01*
G75*
G02*
X150268000Y-125566000I0J-225000D01*
G01*
X150268000Y-126016000D01*
G75*
G02*
X150043000Y-126241000I-225000J0D01*
G01*
G37*
%TD*%
%TO.C,C4*%
G36*
G01*
X125043000Y-127791000D02*
X124543000Y-127791000D01*
G75*
G02*
X124318000Y-127566000I0J225000D01*
G01*
X124318000Y-127116000D01*
G75*
G02*
X124543000Y-126891000I225000J0D01*
G01*
X125043000Y-126891000D01*
G75*
G02*
X125268000Y-127116000I0J-225000D01*
G01*
X125268000Y-127566000D01*
G75*
G02*
X125043000Y-127791000I-225000J0D01*
G01*
G37*
G36*
G01*
X125043000Y-126241000D02*
X124543000Y-126241000D01*
G75*
G02*
X124318000Y-126016000I0J225000D01*
G01*
X124318000Y-125566000D01*
G75*
G02*
X124543000Y-125341000I225000J0D01*
G01*
X125043000Y-125341000D01*
G75*
G02*
X125268000Y-125566000I0J-225000D01*
G01*
X125268000Y-126016000D01*
G75*
G02*
X125043000Y-126241000I-225000J0D01*
G01*
G37*
%TD*%
%TO.C,C4*%
G36*
G01*
X150043000Y-115291000D02*
X149543000Y-115291000D01*
G75*
G02*
X149318000Y-115066000I0J225000D01*
G01*
X149318000Y-114616000D01*
G75*
G02*
X149543000Y-114391000I225000J0D01*
G01*
X150043000Y-114391000D01*
G75*
G02*
X150268000Y-114616000I0J-225000D01*
G01*
X150268000Y-115066000D01*
G75*
G02*
X150043000Y-115291000I-225000J0D01*
G01*
G37*
G36*
G01*
X150043000Y-113741000D02*
X149543000Y-113741000D01*
G75*
G02*
X149318000Y-113516000I0J225000D01*
G01*
X149318000Y-113066000D01*
G75*
G02*
X149543000Y-112841000I225000J0D01*
G01*
X150043000Y-112841000D01*
G75*
G02*
X150268000Y-113066000I0J-225000D01*
G01*
X150268000Y-113516000D01*
G75*
G02*
X150043000Y-113741000I-225000J0D01*
G01*
G37*
%TD*%
%TO.C,C4*%
G36*
G01*
X125043000Y-115291000D02*
X124543000Y-115291000D01*
G75*
G02*
X124318000Y-115066000I0J225000D01*
G01*
X124318000Y-114616000D01*
G75*
G02*
X124543000Y-114391000I225000J0D01*
G01*
X125043000Y-114391000D01*
G75*
G02*
X125268000Y-114616000I0J-225000D01*
G01*
X125268000Y-115066000D01*
G75*
G02*
X125043000Y-115291000I-225000J0D01*
G01*
G37*
G36*
G01*
X125043000Y-113741000D02*
X124543000Y-113741000D01*
G75*
G02*
X124318000Y-113516000I0J225000D01*
G01*
X124318000Y-113066000D01*
G75*
G02*
X124543000Y-112841000I225000J0D01*
G01*
X125043000Y-112841000D01*
G75*
G02*
X125268000Y-113066000I0J-225000D01*
G01*
X125268000Y-113516000D01*
G75*
G02*
X125043000Y-113741000I-225000J0D01*
G01*
G37*
%TD*%
%TO.C,C4*%
G36*
G01*
X150043000Y-102791000D02*
X149543000Y-102791000D01*
G75*
G02*
X149318000Y-102566000I0J225000D01*
G01*
X149318000Y-102116000D01*
G75*
G02*
X149543000Y-101891000I225000J0D01*
G01*
X150043000Y-101891000D01*
G75*
G02*
X150268000Y-102116000I0J-225000D01*
G01*
X150268000Y-102566000D01*
G75*
G02*
X150043000Y-102791000I-225000J0D01*
G01*
G37*
G36*
G01*
X150043000Y-101241000D02*
X149543000Y-101241000D01*
G75*
G02*
X149318000Y-101016000I0J225000D01*
G01*
X149318000Y-100566000D01*
G75*
G02*
X149543000Y-100341000I225000J0D01*
G01*
X150043000Y-100341000D01*
G75*
G02*
X150268000Y-100566000I0J-225000D01*
G01*
X150268000Y-101016000D01*
G75*
G02*
X150043000Y-101241000I-225000J0D01*
G01*
G37*
%TD*%
%TO.C,C4*%
G36*
G01*
X125043000Y-102791000D02*
X124543000Y-102791000D01*
G75*
G02*
X124318000Y-102566000I0J225000D01*
G01*
X124318000Y-102116000D01*
G75*
G02*
X124543000Y-101891000I225000J0D01*
G01*
X125043000Y-101891000D01*
G75*
G02*
X125268000Y-102116000I0J-225000D01*
G01*
X125268000Y-102566000D01*
G75*
G02*
X125043000Y-102791000I-225000J0D01*
G01*
G37*
G36*
G01*
X125043000Y-101241000D02*
X124543000Y-101241000D01*
G75*
G02*
X124318000Y-101016000I0J225000D01*
G01*
X124318000Y-100566000D01*
G75*
G02*
X124543000Y-100341000I225000J0D01*
G01*
X125043000Y-100341000D01*
G75*
G02*
X125268000Y-100566000I0J-225000D01*
G01*
X125268000Y-101016000D01*
G75*
G02*
X125043000Y-101241000I-225000J0D01*
G01*
G37*
%TD*%
%TO.C,C4*%
G36*
G01*
X150043000Y-90291000D02*
X149543000Y-90291000D01*
G75*
G02*
X149318000Y-90066000I0J225000D01*
G01*
X149318000Y-89616000D01*
G75*
G02*
X149543000Y-89391000I225000J0D01*
G01*
X150043000Y-89391000D01*
G75*
G02*
X150268000Y-89616000I0J-225000D01*
G01*
X150268000Y-90066000D01*
G75*
G02*
X150043000Y-90291000I-225000J0D01*
G01*
G37*
G36*
G01*
X150043000Y-88741000D02*
X149543000Y-88741000D01*
G75*
G02*
X149318000Y-88516000I0J225000D01*
G01*
X149318000Y-88066000D01*
G75*
G02*
X149543000Y-87841000I225000J0D01*
G01*
X150043000Y-87841000D01*
G75*
G02*
X150268000Y-88066000I0J-225000D01*
G01*
X150268000Y-88516000D01*
G75*
G02*
X150043000Y-88741000I-225000J0D01*
G01*
G37*
%TD*%
D12*
%TO.C,Q8*%
X145475000Y-119533000D03*
X145475000Y-121433000D03*
X143475000Y-120483000D03*
%TD*%
%TO.C,Q8*%
X120475000Y-119533000D03*
X120475000Y-121433000D03*
X118475000Y-120483000D03*
%TD*%
%TO.C,Q8*%
X145475000Y-107033000D03*
X145475000Y-108933000D03*
X143475000Y-107983000D03*
%TD*%
%TO.C,Q8*%
X120475000Y-107033000D03*
X120475000Y-108933000D03*
X118475000Y-107983000D03*
%TD*%
%TO.C,Q8*%
X145475000Y-94533000D03*
X145475000Y-96433000D03*
X143475000Y-95483000D03*
%TD*%
%TO.C,Q8*%
X120475000Y-94533000D03*
X120475000Y-96433000D03*
X118475000Y-95483000D03*
%TD*%
%TO.C,Q8*%
X145475000Y-82033000D03*
X145475000Y-83933000D03*
X143475000Y-82983000D03*
%TD*%
%TO.C,R1*%
G36*
G01*
X156887000Y-118091000D02*
X156887000Y-117541000D01*
G75*
G02*
X157087000Y-117341000I200000J0D01*
G01*
X157487000Y-117341000D01*
G75*
G02*
X157687000Y-117541000I0J-200000D01*
G01*
X157687000Y-118091000D01*
G75*
G02*
X157487000Y-118291000I-200000J0D01*
G01*
X157087000Y-118291000D01*
G75*
G02*
X156887000Y-118091000I0J200000D01*
G01*
G37*
G36*
G01*
X158537000Y-118091000D02*
X158537000Y-117541000D01*
G75*
G02*
X158737000Y-117341000I200000J0D01*
G01*
X159137000Y-117341000D01*
G75*
G02*
X159337000Y-117541000I0J-200000D01*
G01*
X159337000Y-118091000D01*
G75*
G02*
X159137000Y-118291000I-200000J0D01*
G01*
X158737000Y-118291000D01*
G75*
G02*
X158537000Y-118091000I0J200000D01*
G01*
G37*
%TD*%
%TO.C,R1*%
G36*
G01*
X131887000Y-118091000D02*
X131887000Y-117541000D01*
G75*
G02*
X132087000Y-117341000I200000J0D01*
G01*
X132487000Y-117341000D01*
G75*
G02*
X132687000Y-117541000I0J-200000D01*
G01*
X132687000Y-118091000D01*
G75*
G02*
X132487000Y-118291000I-200000J0D01*
G01*
X132087000Y-118291000D01*
G75*
G02*
X131887000Y-118091000I0J200000D01*
G01*
G37*
G36*
G01*
X133537000Y-118091000D02*
X133537000Y-117541000D01*
G75*
G02*
X133737000Y-117341000I200000J0D01*
G01*
X134137000Y-117341000D01*
G75*
G02*
X134337000Y-117541000I0J-200000D01*
G01*
X134337000Y-118091000D01*
G75*
G02*
X134137000Y-118291000I-200000J0D01*
G01*
X133737000Y-118291000D01*
G75*
G02*
X133537000Y-118091000I0J200000D01*
G01*
G37*
%TD*%
%TO.C,R1*%
G36*
G01*
X156887000Y-105591000D02*
X156887000Y-105041000D01*
G75*
G02*
X157087000Y-104841000I200000J0D01*
G01*
X157487000Y-104841000D01*
G75*
G02*
X157687000Y-105041000I0J-200000D01*
G01*
X157687000Y-105591000D01*
G75*
G02*
X157487000Y-105791000I-200000J0D01*
G01*
X157087000Y-105791000D01*
G75*
G02*
X156887000Y-105591000I0J200000D01*
G01*
G37*
G36*
G01*
X158537000Y-105591000D02*
X158537000Y-105041000D01*
G75*
G02*
X158737000Y-104841000I200000J0D01*
G01*
X159137000Y-104841000D01*
G75*
G02*
X159337000Y-105041000I0J-200000D01*
G01*
X159337000Y-105591000D01*
G75*
G02*
X159137000Y-105791000I-200000J0D01*
G01*
X158737000Y-105791000D01*
G75*
G02*
X158537000Y-105591000I0J200000D01*
G01*
G37*
%TD*%
%TO.C,R1*%
G36*
G01*
X131887000Y-105591000D02*
X131887000Y-105041000D01*
G75*
G02*
X132087000Y-104841000I200000J0D01*
G01*
X132487000Y-104841000D01*
G75*
G02*
X132687000Y-105041000I0J-200000D01*
G01*
X132687000Y-105591000D01*
G75*
G02*
X132487000Y-105791000I-200000J0D01*
G01*
X132087000Y-105791000D01*
G75*
G02*
X131887000Y-105591000I0J200000D01*
G01*
G37*
G36*
G01*
X133537000Y-105591000D02*
X133537000Y-105041000D01*
G75*
G02*
X133737000Y-104841000I200000J0D01*
G01*
X134137000Y-104841000D01*
G75*
G02*
X134337000Y-105041000I0J-200000D01*
G01*
X134337000Y-105591000D01*
G75*
G02*
X134137000Y-105791000I-200000J0D01*
G01*
X133737000Y-105791000D01*
G75*
G02*
X133537000Y-105591000I0J200000D01*
G01*
G37*
%TD*%
%TO.C,R1*%
G36*
G01*
X156887000Y-93091000D02*
X156887000Y-92541000D01*
G75*
G02*
X157087000Y-92341000I200000J0D01*
G01*
X157487000Y-92341000D01*
G75*
G02*
X157687000Y-92541000I0J-200000D01*
G01*
X157687000Y-93091000D01*
G75*
G02*
X157487000Y-93291000I-200000J0D01*
G01*
X157087000Y-93291000D01*
G75*
G02*
X156887000Y-93091000I0J200000D01*
G01*
G37*
G36*
G01*
X158537000Y-93091000D02*
X158537000Y-92541000D01*
G75*
G02*
X158737000Y-92341000I200000J0D01*
G01*
X159137000Y-92341000D01*
G75*
G02*
X159337000Y-92541000I0J-200000D01*
G01*
X159337000Y-93091000D01*
G75*
G02*
X159137000Y-93291000I-200000J0D01*
G01*
X158737000Y-93291000D01*
G75*
G02*
X158537000Y-93091000I0J200000D01*
G01*
G37*
%TD*%
%TO.C,R1*%
G36*
G01*
X131887000Y-93091000D02*
X131887000Y-92541000D01*
G75*
G02*
X132087000Y-92341000I200000J0D01*
G01*
X132487000Y-92341000D01*
G75*
G02*
X132687000Y-92541000I0J-200000D01*
G01*
X132687000Y-93091000D01*
G75*
G02*
X132487000Y-93291000I-200000J0D01*
G01*
X132087000Y-93291000D01*
G75*
G02*
X131887000Y-93091000I0J200000D01*
G01*
G37*
G36*
G01*
X133537000Y-93091000D02*
X133537000Y-92541000D01*
G75*
G02*
X133737000Y-92341000I200000J0D01*
G01*
X134137000Y-92341000D01*
G75*
G02*
X134337000Y-92541000I0J-200000D01*
G01*
X134337000Y-93091000D01*
G75*
G02*
X134137000Y-93291000I-200000J0D01*
G01*
X133737000Y-93291000D01*
G75*
G02*
X133537000Y-93091000I0J200000D01*
G01*
G37*
%TD*%
%TO.C,R1*%
G36*
G01*
X156887000Y-80591000D02*
X156887000Y-80041000D01*
G75*
G02*
X157087000Y-79841000I200000J0D01*
G01*
X157487000Y-79841000D01*
G75*
G02*
X157687000Y-80041000I0J-200000D01*
G01*
X157687000Y-80591000D01*
G75*
G02*
X157487000Y-80791000I-200000J0D01*
G01*
X157087000Y-80791000D01*
G75*
G02*
X156887000Y-80591000I0J200000D01*
G01*
G37*
G36*
G01*
X158537000Y-80591000D02*
X158537000Y-80041000D01*
G75*
G02*
X158737000Y-79841000I200000J0D01*
G01*
X159137000Y-79841000D01*
G75*
G02*
X159337000Y-80041000I0J-200000D01*
G01*
X159337000Y-80591000D01*
G75*
G02*
X159137000Y-80791000I-200000J0D01*
G01*
X158737000Y-80791000D01*
G75*
G02*
X158537000Y-80591000I0J200000D01*
G01*
G37*
%TD*%
%TO.C,R4*%
G36*
G01*
X166575000Y-122748000D02*
X166575000Y-123298000D01*
G75*
G02*
X166375000Y-123498000I-200000J0D01*
G01*
X165975000Y-123498000D01*
G75*
G02*
X165775000Y-123298000I0J200000D01*
G01*
X165775000Y-122748000D01*
G75*
G02*
X165975000Y-122548000I200000J0D01*
G01*
X166375000Y-122548000D01*
G75*
G02*
X166575000Y-122748000I0J-200000D01*
G01*
G37*
G36*
G01*
X164925000Y-122748000D02*
X164925000Y-123298000D01*
G75*
G02*
X164725000Y-123498000I-200000J0D01*
G01*
X164325000Y-123498000D01*
G75*
G02*
X164125000Y-123298000I0J200000D01*
G01*
X164125000Y-122748000D01*
G75*
G02*
X164325000Y-122548000I200000J0D01*
G01*
X164725000Y-122548000D01*
G75*
G02*
X164925000Y-122748000I0J-200000D01*
G01*
G37*
%TD*%
%TO.C,R4*%
G36*
G01*
X141575000Y-122748000D02*
X141575000Y-123298000D01*
G75*
G02*
X141375000Y-123498000I-200000J0D01*
G01*
X140975000Y-123498000D01*
G75*
G02*
X140775000Y-123298000I0J200000D01*
G01*
X140775000Y-122748000D01*
G75*
G02*
X140975000Y-122548000I200000J0D01*
G01*
X141375000Y-122548000D01*
G75*
G02*
X141575000Y-122748000I0J-200000D01*
G01*
G37*
G36*
G01*
X139925000Y-122748000D02*
X139925000Y-123298000D01*
G75*
G02*
X139725000Y-123498000I-200000J0D01*
G01*
X139325000Y-123498000D01*
G75*
G02*
X139125000Y-123298000I0J200000D01*
G01*
X139125000Y-122748000D01*
G75*
G02*
X139325000Y-122548000I200000J0D01*
G01*
X139725000Y-122548000D01*
G75*
G02*
X139925000Y-122748000I0J-200000D01*
G01*
G37*
%TD*%
%TO.C,R4*%
G36*
G01*
X166575000Y-110248000D02*
X166575000Y-110798000D01*
G75*
G02*
X166375000Y-110998000I-200000J0D01*
G01*
X165975000Y-110998000D01*
G75*
G02*
X165775000Y-110798000I0J200000D01*
G01*
X165775000Y-110248000D01*
G75*
G02*
X165975000Y-110048000I200000J0D01*
G01*
X166375000Y-110048000D01*
G75*
G02*
X166575000Y-110248000I0J-200000D01*
G01*
G37*
G36*
G01*
X164925000Y-110248000D02*
X164925000Y-110798000D01*
G75*
G02*
X164725000Y-110998000I-200000J0D01*
G01*
X164325000Y-110998000D01*
G75*
G02*
X164125000Y-110798000I0J200000D01*
G01*
X164125000Y-110248000D01*
G75*
G02*
X164325000Y-110048000I200000J0D01*
G01*
X164725000Y-110048000D01*
G75*
G02*
X164925000Y-110248000I0J-200000D01*
G01*
G37*
%TD*%
%TO.C,R4*%
G36*
G01*
X141575000Y-110248000D02*
X141575000Y-110798000D01*
G75*
G02*
X141375000Y-110998000I-200000J0D01*
G01*
X140975000Y-110998000D01*
G75*
G02*
X140775000Y-110798000I0J200000D01*
G01*
X140775000Y-110248000D01*
G75*
G02*
X140975000Y-110048000I200000J0D01*
G01*
X141375000Y-110048000D01*
G75*
G02*
X141575000Y-110248000I0J-200000D01*
G01*
G37*
G36*
G01*
X139925000Y-110248000D02*
X139925000Y-110798000D01*
G75*
G02*
X139725000Y-110998000I-200000J0D01*
G01*
X139325000Y-110998000D01*
G75*
G02*
X139125000Y-110798000I0J200000D01*
G01*
X139125000Y-110248000D01*
G75*
G02*
X139325000Y-110048000I200000J0D01*
G01*
X139725000Y-110048000D01*
G75*
G02*
X139925000Y-110248000I0J-200000D01*
G01*
G37*
%TD*%
%TO.C,R4*%
G36*
G01*
X166575000Y-97748000D02*
X166575000Y-98298000D01*
G75*
G02*
X166375000Y-98498000I-200000J0D01*
G01*
X165975000Y-98498000D01*
G75*
G02*
X165775000Y-98298000I0J200000D01*
G01*
X165775000Y-97748000D01*
G75*
G02*
X165975000Y-97548000I200000J0D01*
G01*
X166375000Y-97548000D01*
G75*
G02*
X166575000Y-97748000I0J-200000D01*
G01*
G37*
G36*
G01*
X164925000Y-97748000D02*
X164925000Y-98298000D01*
G75*
G02*
X164725000Y-98498000I-200000J0D01*
G01*
X164325000Y-98498000D01*
G75*
G02*
X164125000Y-98298000I0J200000D01*
G01*
X164125000Y-97748000D01*
G75*
G02*
X164325000Y-97548000I200000J0D01*
G01*
X164725000Y-97548000D01*
G75*
G02*
X164925000Y-97748000I0J-200000D01*
G01*
G37*
%TD*%
%TO.C,R4*%
G36*
G01*
X141575000Y-97748000D02*
X141575000Y-98298000D01*
G75*
G02*
X141375000Y-98498000I-200000J0D01*
G01*
X140975000Y-98498000D01*
G75*
G02*
X140775000Y-98298000I0J200000D01*
G01*
X140775000Y-97748000D01*
G75*
G02*
X140975000Y-97548000I200000J0D01*
G01*
X141375000Y-97548000D01*
G75*
G02*
X141575000Y-97748000I0J-200000D01*
G01*
G37*
G36*
G01*
X139925000Y-97748000D02*
X139925000Y-98298000D01*
G75*
G02*
X139725000Y-98498000I-200000J0D01*
G01*
X139325000Y-98498000D01*
G75*
G02*
X139125000Y-98298000I0J200000D01*
G01*
X139125000Y-97748000D01*
G75*
G02*
X139325000Y-97548000I200000J0D01*
G01*
X139725000Y-97548000D01*
G75*
G02*
X139925000Y-97748000I0J-200000D01*
G01*
G37*
%TD*%
%TO.C,R4*%
G36*
G01*
X166575000Y-85248000D02*
X166575000Y-85798000D01*
G75*
G02*
X166375000Y-85998000I-200000J0D01*
G01*
X165975000Y-85998000D01*
G75*
G02*
X165775000Y-85798000I0J200000D01*
G01*
X165775000Y-85248000D01*
G75*
G02*
X165975000Y-85048000I200000J0D01*
G01*
X166375000Y-85048000D01*
G75*
G02*
X166575000Y-85248000I0J-200000D01*
G01*
G37*
G36*
G01*
X164925000Y-85248000D02*
X164925000Y-85798000D01*
G75*
G02*
X164725000Y-85998000I-200000J0D01*
G01*
X164325000Y-85998000D01*
G75*
G02*
X164125000Y-85798000I0J200000D01*
G01*
X164125000Y-85248000D01*
G75*
G02*
X164325000Y-85048000I200000J0D01*
G01*
X164725000Y-85048000D01*
G75*
G02*
X164925000Y-85248000I0J-200000D01*
G01*
G37*
%TD*%
%TO.C,R5*%
G36*
G01*
X159337000Y-122748000D02*
X159337000Y-123298000D01*
G75*
G02*
X159137000Y-123498000I-200000J0D01*
G01*
X158737000Y-123498000D01*
G75*
G02*
X158537000Y-123298000I0J200000D01*
G01*
X158537000Y-122748000D01*
G75*
G02*
X158737000Y-122548000I200000J0D01*
G01*
X159137000Y-122548000D01*
G75*
G02*
X159337000Y-122748000I0J-200000D01*
G01*
G37*
G36*
G01*
X157687000Y-122748000D02*
X157687000Y-123298000D01*
G75*
G02*
X157487000Y-123498000I-200000J0D01*
G01*
X157087000Y-123498000D01*
G75*
G02*
X156887000Y-123298000I0J200000D01*
G01*
X156887000Y-122748000D01*
G75*
G02*
X157087000Y-122548000I200000J0D01*
G01*
X157487000Y-122548000D01*
G75*
G02*
X157687000Y-122748000I0J-200000D01*
G01*
G37*
%TD*%
%TO.C,R5*%
G36*
G01*
X134337000Y-122748000D02*
X134337000Y-123298000D01*
G75*
G02*
X134137000Y-123498000I-200000J0D01*
G01*
X133737000Y-123498000D01*
G75*
G02*
X133537000Y-123298000I0J200000D01*
G01*
X133537000Y-122748000D01*
G75*
G02*
X133737000Y-122548000I200000J0D01*
G01*
X134137000Y-122548000D01*
G75*
G02*
X134337000Y-122748000I0J-200000D01*
G01*
G37*
G36*
G01*
X132687000Y-122748000D02*
X132687000Y-123298000D01*
G75*
G02*
X132487000Y-123498000I-200000J0D01*
G01*
X132087000Y-123498000D01*
G75*
G02*
X131887000Y-123298000I0J200000D01*
G01*
X131887000Y-122748000D01*
G75*
G02*
X132087000Y-122548000I200000J0D01*
G01*
X132487000Y-122548000D01*
G75*
G02*
X132687000Y-122748000I0J-200000D01*
G01*
G37*
%TD*%
%TO.C,R5*%
G36*
G01*
X159337000Y-110248000D02*
X159337000Y-110798000D01*
G75*
G02*
X159137000Y-110998000I-200000J0D01*
G01*
X158737000Y-110998000D01*
G75*
G02*
X158537000Y-110798000I0J200000D01*
G01*
X158537000Y-110248000D01*
G75*
G02*
X158737000Y-110048000I200000J0D01*
G01*
X159137000Y-110048000D01*
G75*
G02*
X159337000Y-110248000I0J-200000D01*
G01*
G37*
G36*
G01*
X157687000Y-110248000D02*
X157687000Y-110798000D01*
G75*
G02*
X157487000Y-110998000I-200000J0D01*
G01*
X157087000Y-110998000D01*
G75*
G02*
X156887000Y-110798000I0J200000D01*
G01*
X156887000Y-110248000D01*
G75*
G02*
X157087000Y-110048000I200000J0D01*
G01*
X157487000Y-110048000D01*
G75*
G02*
X157687000Y-110248000I0J-200000D01*
G01*
G37*
%TD*%
%TO.C,R5*%
G36*
G01*
X134337000Y-110248000D02*
X134337000Y-110798000D01*
G75*
G02*
X134137000Y-110998000I-200000J0D01*
G01*
X133737000Y-110998000D01*
G75*
G02*
X133537000Y-110798000I0J200000D01*
G01*
X133537000Y-110248000D01*
G75*
G02*
X133737000Y-110048000I200000J0D01*
G01*
X134137000Y-110048000D01*
G75*
G02*
X134337000Y-110248000I0J-200000D01*
G01*
G37*
G36*
G01*
X132687000Y-110248000D02*
X132687000Y-110798000D01*
G75*
G02*
X132487000Y-110998000I-200000J0D01*
G01*
X132087000Y-110998000D01*
G75*
G02*
X131887000Y-110798000I0J200000D01*
G01*
X131887000Y-110248000D01*
G75*
G02*
X132087000Y-110048000I200000J0D01*
G01*
X132487000Y-110048000D01*
G75*
G02*
X132687000Y-110248000I0J-200000D01*
G01*
G37*
%TD*%
%TO.C,R5*%
G36*
G01*
X159337000Y-97748000D02*
X159337000Y-98298000D01*
G75*
G02*
X159137000Y-98498000I-200000J0D01*
G01*
X158737000Y-98498000D01*
G75*
G02*
X158537000Y-98298000I0J200000D01*
G01*
X158537000Y-97748000D01*
G75*
G02*
X158737000Y-97548000I200000J0D01*
G01*
X159137000Y-97548000D01*
G75*
G02*
X159337000Y-97748000I0J-200000D01*
G01*
G37*
G36*
G01*
X157687000Y-97748000D02*
X157687000Y-98298000D01*
G75*
G02*
X157487000Y-98498000I-200000J0D01*
G01*
X157087000Y-98498000D01*
G75*
G02*
X156887000Y-98298000I0J200000D01*
G01*
X156887000Y-97748000D01*
G75*
G02*
X157087000Y-97548000I200000J0D01*
G01*
X157487000Y-97548000D01*
G75*
G02*
X157687000Y-97748000I0J-200000D01*
G01*
G37*
%TD*%
%TO.C,R5*%
G36*
G01*
X134337000Y-97748000D02*
X134337000Y-98298000D01*
G75*
G02*
X134137000Y-98498000I-200000J0D01*
G01*
X133737000Y-98498000D01*
G75*
G02*
X133537000Y-98298000I0J200000D01*
G01*
X133537000Y-97748000D01*
G75*
G02*
X133737000Y-97548000I200000J0D01*
G01*
X134137000Y-97548000D01*
G75*
G02*
X134337000Y-97748000I0J-200000D01*
G01*
G37*
G36*
G01*
X132687000Y-97748000D02*
X132687000Y-98298000D01*
G75*
G02*
X132487000Y-98498000I-200000J0D01*
G01*
X132087000Y-98498000D01*
G75*
G02*
X131887000Y-98298000I0J200000D01*
G01*
X131887000Y-97748000D01*
G75*
G02*
X132087000Y-97548000I200000J0D01*
G01*
X132487000Y-97548000D01*
G75*
G02*
X132687000Y-97748000I0J-200000D01*
G01*
G37*
%TD*%
%TO.C,R5*%
G36*
G01*
X159337000Y-85248000D02*
X159337000Y-85798000D01*
G75*
G02*
X159137000Y-85998000I-200000J0D01*
G01*
X158737000Y-85998000D01*
G75*
G02*
X158537000Y-85798000I0J200000D01*
G01*
X158537000Y-85248000D01*
G75*
G02*
X158737000Y-85048000I200000J0D01*
G01*
X159137000Y-85048000D01*
G75*
G02*
X159337000Y-85248000I0J-200000D01*
G01*
G37*
G36*
G01*
X157687000Y-85248000D02*
X157687000Y-85798000D01*
G75*
G02*
X157487000Y-85998000I-200000J0D01*
G01*
X157087000Y-85998000D01*
G75*
G02*
X156887000Y-85798000I0J200000D01*
G01*
X156887000Y-85248000D01*
G75*
G02*
X157087000Y-85048000I200000J0D01*
G01*
X157487000Y-85048000D01*
G75*
G02*
X157687000Y-85248000I0J-200000D01*
G01*
G37*
%TD*%
%TO.C,C6*%
G36*
G01*
X148519000Y-127804000D02*
X148019000Y-127804000D01*
G75*
G02*
X147794000Y-127579000I0J225000D01*
G01*
X147794000Y-127129000D01*
G75*
G02*
X148019000Y-126904000I225000J0D01*
G01*
X148519000Y-126904000D01*
G75*
G02*
X148744000Y-127129000I0J-225000D01*
G01*
X148744000Y-127579000D01*
G75*
G02*
X148519000Y-127804000I-225000J0D01*
G01*
G37*
G36*
G01*
X148519000Y-126254000D02*
X148019000Y-126254000D01*
G75*
G02*
X147794000Y-126029000I0J225000D01*
G01*
X147794000Y-125579000D01*
G75*
G02*
X148019000Y-125354000I225000J0D01*
G01*
X148519000Y-125354000D01*
G75*
G02*
X148744000Y-125579000I0J-225000D01*
G01*
X148744000Y-126029000D01*
G75*
G02*
X148519000Y-126254000I-225000J0D01*
G01*
G37*
%TD*%
%TO.C,C6*%
G36*
G01*
X123519000Y-127804000D02*
X123019000Y-127804000D01*
G75*
G02*
X122794000Y-127579000I0J225000D01*
G01*
X122794000Y-127129000D01*
G75*
G02*
X123019000Y-126904000I225000J0D01*
G01*
X123519000Y-126904000D01*
G75*
G02*
X123744000Y-127129000I0J-225000D01*
G01*
X123744000Y-127579000D01*
G75*
G02*
X123519000Y-127804000I-225000J0D01*
G01*
G37*
G36*
G01*
X123519000Y-126254000D02*
X123019000Y-126254000D01*
G75*
G02*
X122794000Y-126029000I0J225000D01*
G01*
X122794000Y-125579000D01*
G75*
G02*
X123019000Y-125354000I225000J0D01*
G01*
X123519000Y-125354000D01*
G75*
G02*
X123744000Y-125579000I0J-225000D01*
G01*
X123744000Y-126029000D01*
G75*
G02*
X123519000Y-126254000I-225000J0D01*
G01*
G37*
%TD*%
%TO.C,C6*%
G36*
G01*
X148519000Y-115304000D02*
X148019000Y-115304000D01*
G75*
G02*
X147794000Y-115079000I0J225000D01*
G01*
X147794000Y-114629000D01*
G75*
G02*
X148019000Y-114404000I225000J0D01*
G01*
X148519000Y-114404000D01*
G75*
G02*
X148744000Y-114629000I0J-225000D01*
G01*
X148744000Y-115079000D01*
G75*
G02*
X148519000Y-115304000I-225000J0D01*
G01*
G37*
G36*
G01*
X148519000Y-113754000D02*
X148019000Y-113754000D01*
G75*
G02*
X147794000Y-113529000I0J225000D01*
G01*
X147794000Y-113079000D01*
G75*
G02*
X148019000Y-112854000I225000J0D01*
G01*
X148519000Y-112854000D01*
G75*
G02*
X148744000Y-113079000I0J-225000D01*
G01*
X148744000Y-113529000D01*
G75*
G02*
X148519000Y-113754000I-225000J0D01*
G01*
G37*
%TD*%
%TO.C,C6*%
G36*
G01*
X123519000Y-115304000D02*
X123019000Y-115304000D01*
G75*
G02*
X122794000Y-115079000I0J225000D01*
G01*
X122794000Y-114629000D01*
G75*
G02*
X123019000Y-114404000I225000J0D01*
G01*
X123519000Y-114404000D01*
G75*
G02*
X123744000Y-114629000I0J-225000D01*
G01*
X123744000Y-115079000D01*
G75*
G02*
X123519000Y-115304000I-225000J0D01*
G01*
G37*
G36*
G01*
X123519000Y-113754000D02*
X123019000Y-113754000D01*
G75*
G02*
X122794000Y-113529000I0J225000D01*
G01*
X122794000Y-113079000D01*
G75*
G02*
X123019000Y-112854000I225000J0D01*
G01*
X123519000Y-112854000D01*
G75*
G02*
X123744000Y-113079000I0J-225000D01*
G01*
X123744000Y-113529000D01*
G75*
G02*
X123519000Y-113754000I-225000J0D01*
G01*
G37*
%TD*%
%TO.C,C6*%
G36*
G01*
X148519000Y-102804000D02*
X148019000Y-102804000D01*
G75*
G02*
X147794000Y-102579000I0J225000D01*
G01*
X147794000Y-102129000D01*
G75*
G02*
X148019000Y-101904000I225000J0D01*
G01*
X148519000Y-101904000D01*
G75*
G02*
X148744000Y-102129000I0J-225000D01*
G01*
X148744000Y-102579000D01*
G75*
G02*
X148519000Y-102804000I-225000J0D01*
G01*
G37*
G36*
G01*
X148519000Y-101254000D02*
X148019000Y-101254000D01*
G75*
G02*
X147794000Y-101029000I0J225000D01*
G01*
X147794000Y-100579000D01*
G75*
G02*
X148019000Y-100354000I225000J0D01*
G01*
X148519000Y-100354000D01*
G75*
G02*
X148744000Y-100579000I0J-225000D01*
G01*
X148744000Y-101029000D01*
G75*
G02*
X148519000Y-101254000I-225000J0D01*
G01*
G37*
%TD*%
%TO.C,C6*%
G36*
G01*
X123519000Y-102804000D02*
X123019000Y-102804000D01*
G75*
G02*
X122794000Y-102579000I0J225000D01*
G01*
X122794000Y-102129000D01*
G75*
G02*
X123019000Y-101904000I225000J0D01*
G01*
X123519000Y-101904000D01*
G75*
G02*
X123744000Y-102129000I0J-225000D01*
G01*
X123744000Y-102579000D01*
G75*
G02*
X123519000Y-102804000I-225000J0D01*
G01*
G37*
G36*
G01*
X123519000Y-101254000D02*
X123019000Y-101254000D01*
G75*
G02*
X122794000Y-101029000I0J225000D01*
G01*
X122794000Y-100579000D01*
G75*
G02*
X123019000Y-100354000I225000J0D01*
G01*
X123519000Y-100354000D01*
G75*
G02*
X123744000Y-100579000I0J-225000D01*
G01*
X123744000Y-101029000D01*
G75*
G02*
X123519000Y-101254000I-225000J0D01*
G01*
G37*
%TD*%
%TO.C,C6*%
G36*
G01*
X148519000Y-90304000D02*
X148019000Y-90304000D01*
G75*
G02*
X147794000Y-90079000I0J225000D01*
G01*
X147794000Y-89629000D01*
G75*
G02*
X148019000Y-89404000I225000J0D01*
G01*
X148519000Y-89404000D01*
G75*
G02*
X148744000Y-89629000I0J-225000D01*
G01*
X148744000Y-90079000D01*
G75*
G02*
X148519000Y-90304000I-225000J0D01*
G01*
G37*
G36*
G01*
X148519000Y-88754000D02*
X148019000Y-88754000D01*
G75*
G02*
X147794000Y-88529000I0J225000D01*
G01*
X147794000Y-88079000D01*
G75*
G02*
X148019000Y-87854000I225000J0D01*
G01*
X148519000Y-87854000D01*
G75*
G02*
X148744000Y-88079000I0J-225000D01*
G01*
X148744000Y-88529000D01*
G75*
G02*
X148519000Y-88754000I-225000J0D01*
G01*
G37*
%TD*%
%TO.C,Q1*%
X158937000Y-119472000D03*
X158937000Y-121372000D03*
X156937000Y-120422000D03*
%TD*%
%TO.C,Q1*%
X133937000Y-119472000D03*
X133937000Y-121372000D03*
X131937000Y-120422000D03*
%TD*%
%TO.C,Q1*%
X158937000Y-106972000D03*
X158937000Y-108872000D03*
X156937000Y-107922000D03*
%TD*%
%TO.C,Q1*%
X133937000Y-106972000D03*
X133937000Y-108872000D03*
X131937000Y-107922000D03*
%TD*%
%TO.C,Q1*%
X158937000Y-94472000D03*
X158937000Y-96372000D03*
X156937000Y-95422000D03*
%TD*%
%TO.C,Q1*%
X133937000Y-94472000D03*
X133937000Y-96372000D03*
X131937000Y-95422000D03*
%TD*%
%TO.C,Q1*%
X158937000Y-81972000D03*
X158937000Y-83872000D03*
X156937000Y-82922000D03*
%TD*%
%TO.C,Q4*%
X164525000Y-121372000D03*
X164525000Y-119472000D03*
X166525000Y-120422000D03*
%TD*%
%TO.C,Q4*%
X139525000Y-121372000D03*
X139525000Y-119472000D03*
X141525000Y-120422000D03*
%TD*%
%TO.C,Q4*%
X164525000Y-108872000D03*
X164525000Y-106972000D03*
X166525000Y-107922000D03*
%TD*%
%TO.C,Q4*%
X139525000Y-108872000D03*
X139525000Y-106972000D03*
X141525000Y-107922000D03*
%TD*%
%TO.C,Q4*%
X164525000Y-96372000D03*
X164525000Y-94472000D03*
X166525000Y-95422000D03*
%TD*%
%TO.C,Q4*%
X139525000Y-96372000D03*
X139525000Y-94472000D03*
X141525000Y-95422000D03*
%TD*%
%TO.C,Q4*%
X164525000Y-83872000D03*
X164525000Y-81972000D03*
X166525000Y-82922000D03*
%TD*%
%TO.C,Q6*%
X151063000Y-121433000D03*
X151063000Y-119533000D03*
X153063000Y-120483000D03*
%TD*%
%TO.C,Q6*%
X126063000Y-121433000D03*
X126063000Y-119533000D03*
X128063000Y-120483000D03*
%TD*%
%TO.C,Q6*%
X151063000Y-108933000D03*
X151063000Y-107033000D03*
X153063000Y-107983000D03*
%TD*%
%TO.C,Q6*%
X126063000Y-108933000D03*
X126063000Y-107033000D03*
X128063000Y-107983000D03*
%TD*%
%TO.C,Q6*%
X151063000Y-96433000D03*
X151063000Y-94533000D03*
X153063000Y-95483000D03*
%TD*%
%TO.C,Q6*%
X126063000Y-96433000D03*
X126063000Y-94533000D03*
X128063000Y-95483000D03*
%TD*%
%TO.C,Q6*%
X151063000Y-83933000D03*
X151063000Y-82033000D03*
X153063000Y-82983000D03*
%TD*%
%TO.C,R8*%
G36*
G01*
X164126000Y-118091000D02*
X164126000Y-117541000D01*
G75*
G02*
X164326000Y-117341000I200000J0D01*
G01*
X164726000Y-117341000D01*
G75*
G02*
X164926000Y-117541000I0J-200000D01*
G01*
X164926000Y-118091000D01*
G75*
G02*
X164726000Y-118291000I-200000J0D01*
G01*
X164326000Y-118291000D01*
G75*
G02*
X164126000Y-118091000I0J200000D01*
G01*
G37*
G36*
G01*
X165776000Y-118091000D02*
X165776000Y-117541000D01*
G75*
G02*
X165976000Y-117341000I200000J0D01*
G01*
X166376000Y-117341000D01*
G75*
G02*
X166576000Y-117541000I0J-200000D01*
G01*
X166576000Y-118091000D01*
G75*
G02*
X166376000Y-118291000I-200000J0D01*
G01*
X165976000Y-118291000D01*
G75*
G02*
X165776000Y-118091000I0J200000D01*
G01*
G37*
%TD*%
%TO.C,R8*%
G36*
G01*
X139126000Y-118091000D02*
X139126000Y-117541000D01*
G75*
G02*
X139326000Y-117341000I200000J0D01*
G01*
X139726000Y-117341000D01*
G75*
G02*
X139926000Y-117541000I0J-200000D01*
G01*
X139926000Y-118091000D01*
G75*
G02*
X139726000Y-118291000I-200000J0D01*
G01*
X139326000Y-118291000D01*
G75*
G02*
X139126000Y-118091000I0J200000D01*
G01*
G37*
G36*
G01*
X140776000Y-118091000D02*
X140776000Y-117541000D01*
G75*
G02*
X140976000Y-117341000I200000J0D01*
G01*
X141376000Y-117341000D01*
G75*
G02*
X141576000Y-117541000I0J-200000D01*
G01*
X141576000Y-118091000D01*
G75*
G02*
X141376000Y-118291000I-200000J0D01*
G01*
X140976000Y-118291000D01*
G75*
G02*
X140776000Y-118091000I0J200000D01*
G01*
G37*
%TD*%
%TO.C,R8*%
G36*
G01*
X164126000Y-105591000D02*
X164126000Y-105041000D01*
G75*
G02*
X164326000Y-104841000I200000J0D01*
G01*
X164726000Y-104841000D01*
G75*
G02*
X164926000Y-105041000I0J-200000D01*
G01*
X164926000Y-105591000D01*
G75*
G02*
X164726000Y-105791000I-200000J0D01*
G01*
X164326000Y-105791000D01*
G75*
G02*
X164126000Y-105591000I0J200000D01*
G01*
G37*
G36*
G01*
X165776000Y-105591000D02*
X165776000Y-105041000D01*
G75*
G02*
X165976000Y-104841000I200000J0D01*
G01*
X166376000Y-104841000D01*
G75*
G02*
X166576000Y-105041000I0J-200000D01*
G01*
X166576000Y-105591000D01*
G75*
G02*
X166376000Y-105791000I-200000J0D01*
G01*
X165976000Y-105791000D01*
G75*
G02*
X165776000Y-105591000I0J200000D01*
G01*
G37*
%TD*%
%TO.C,R8*%
G36*
G01*
X139126000Y-105591000D02*
X139126000Y-105041000D01*
G75*
G02*
X139326000Y-104841000I200000J0D01*
G01*
X139726000Y-104841000D01*
G75*
G02*
X139926000Y-105041000I0J-200000D01*
G01*
X139926000Y-105591000D01*
G75*
G02*
X139726000Y-105791000I-200000J0D01*
G01*
X139326000Y-105791000D01*
G75*
G02*
X139126000Y-105591000I0J200000D01*
G01*
G37*
G36*
G01*
X140776000Y-105591000D02*
X140776000Y-105041000D01*
G75*
G02*
X140976000Y-104841000I200000J0D01*
G01*
X141376000Y-104841000D01*
G75*
G02*
X141576000Y-105041000I0J-200000D01*
G01*
X141576000Y-105591000D01*
G75*
G02*
X141376000Y-105791000I-200000J0D01*
G01*
X140976000Y-105791000D01*
G75*
G02*
X140776000Y-105591000I0J200000D01*
G01*
G37*
%TD*%
%TO.C,R8*%
G36*
G01*
X164126000Y-93091000D02*
X164126000Y-92541000D01*
G75*
G02*
X164326000Y-92341000I200000J0D01*
G01*
X164726000Y-92341000D01*
G75*
G02*
X164926000Y-92541000I0J-200000D01*
G01*
X164926000Y-93091000D01*
G75*
G02*
X164726000Y-93291000I-200000J0D01*
G01*
X164326000Y-93291000D01*
G75*
G02*
X164126000Y-93091000I0J200000D01*
G01*
G37*
G36*
G01*
X165776000Y-93091000D02*
X165776000Y-92541000D01*
G75*
G02*
X165976000Y-92341000I200000J0D01*
G01*
X166376000Y-92341000D01*
G75*
G02*
X166576000Y-92541000I0J-200000D01*
G01*
X166576000Y-93091000D01*
G75*
G02*
X166376000Y-93291000I-200000J0D01*
G01*
X165976000Y-93291000D01*
G75*
G02*
X165776000Y-93091000I0J200000D01*
G01*
G37*
%TD*%
%TO.C,R8*%
G36*
G01*
X139126000Y-93091000D02*
X139126000Y-92541000D01*
G75*
G02*
X139326000Y-92341000I200000J0D01*
G01*
X139726000Y-92341000D01*
G75*
G02*
X139926000Y-92541000I0J-200000D01*
G01*
X139926000Y-93091000D01*
G75*
G02*
X139726000Y-93291000I-200000J0D01*
G01*
X139326000Y-93291000D01*
G75*
G02*
X139126000Y-93091000I0J200000D01*
G01*
G37*
G36*
G01*
X140776000Y-93091000D02*
X140776000Y-92541000D01*
G75*
G02*
X140976000Y-92341000I200000J0D01*
G01*
X141376000Y-92341000D01*
G75*
G02*
X141576000Y-92541000I0J-200000D01*
G01*
X141576000Y-93091000D01*
G75*
G02*
X141376000Y-93291000I-200000J0D01*
G01*
X140976000Y-93291000D01*
G75*
G02*
X140776000Y-93091000I0J200000D01*
G01*
G37*
%TD*%
%TO.C,R8*%
G36*
G01*
X164126000Y-80591000D02*
X164126000Y-80041000D01*
G75*
G02*
X164326000Y-79841000I200000J0D01*
G01*
X164726000Y-79841000D01*
G75*
G02*
X164926000Y-80041000I0J-200000D01*
G01*
X164926000Y-80591000D01*
G75*
G02*
X164726000Y-80791000I-200000J0D01*
G01*
X164326000Y-80791000D01*
G75*
G02*
X164126000Y-80591000I0J200000D01*
G01*
G37*
G36*
G01*
X165776000Y-80591000D02*
X165776000Y-80041000D01*
G75*
G02*
X165976000Y-79841000I200000J0D01*
G01*
X166376000Y-79841000D01*
G75*
G02*
X166576000Y-80041000I0J-200000D01*
G01*
X166576000Y-80591000D01*
G75*
G02*
X166376000Y-80791000I-200000J0D01*
G01*
X165976000Y-80791000D01*
G75*
G02*
X165776000Y-80591000I0J200000D01*
G01*
G37*
%TD*%
%TO.C,R9*%
G36*
G01*
X160186000Y-119194000D02*
X160736000Y-119194000D01*
G75*
G02*
X160936000Y-119394000I0J-200000D01*
G01*
X160936000Y-119794000D01*
G75*
G02*
X160736000Y-119994000I-200000J0D01*
G01*
X160186000Y-119994000D01*
G75*
G02*
X159986000Y-119794000I0J200000D01*
G01*
X159986000Y-119394000D01*
G75*
G02*
X160186000Y-119194000I200000J0D01*
G01*
G37*
G36*
G01*
X160186000Y-120844000D02*
X160736000Y-120844000D01*
G75*
G02*
X160936000Y-121044000I0J-200000D01*
G01*
X160936000Y-121444000D01*
G75*
G02*
X160736000Y-121644000I-200000J0D01*
G01*
X160186000Y-121644000D01*
G75*
G02*
X159986000Y-121444000I0J200000D01*
G01*
X159986000Y-121044000D01*
G75*
G02*
X160186000Y-120844000I200000J0D01*
G01*
G37*
%TD*%
%TO.C,R9*%
G36*
G01*
X135186000Y-119194000D02*
X135736000Y-119194000D01*
G75*
G02*
X135936000Y-119394000I0J-200000D01*
G01*
X135936000Y-119794000D01*
G75*
G02*
X135736000Y-119994000I-200000J0D01*
G01*
X135186000Y-119994000D01*
G75*
G02*
X134986000Y-119794000I0J200000D01*
G01*
X134986000Y-119394000D01*
G75*
G02*
X135186000Y-119194000I200000J0D01*
G01*
G37*
G36*
G01*
X135186000Y-120844000D02*
X135736000Y-120844000D01*
G75*
G02*
X135936000Y-121044000I0J-200000D01*
G01*
X135936000Y-121444000D01*
G75*
G02*
X135736000Y-121644000I-200000J0D01*
G01*
X135186000Y-121644000D01*
G75*
G02*
X134986000Y-121444000I0J200000D01*
G01*
X134986000Y-121044000D01*
G75*
G02*
X135186000Y-120844000I200000J0D01*
G01*
G37*
%TD*%
%TO.C,R9*%
G36*
G01*
X160186000Y-106694000D02*
X160736000Y-106694000D01*
G75*
G02*
X160936000Y-106894000I0J-200000D01*
G01*
X160936000Y-107294000D01*
G75*
G02*
X160736000Y-107494000I-200000J0D01*
G01*
X160186000Y-107494000D01*
G75*
G02*
X159986000Y-107294000I0J200000D01*
G01*
X159986000Y-106894000D01*
G75*
G02*
X160186000Y-106694000I200000J0D01*
G01*
G37*
G36*
G01*
X160186000Y-108344000D02*
X160736000Y-108344000D01*
G75*
G02*
X160936000Y-108544000I0J-200000D01*
G01*
X160936000Y-108944000D01*
G75*
G02*
X160736000Y-109144000I-200000J0D01*
G01*
X160186000Y-109144000D01*
G75*
G02*
X159986000Y-108944000I0J200000D01*
G01*
X159986000Y-108544000D01*
G75*
G02*
X160186000Y-108344000I200000J0D01*
G01*
G37*
%TD*%
%TO.C,R9*%
G36*
G01*
X135186000Y-106694000D02*
X135736000Y-106694000D01*
G75*
G02*
X135936000Y-106894000I0J-200000D01*
G01*
X135936000Y-107294000D01*
G75*
G02*
X135736000Y-107494000I-200000J0D01*
G01*
X135186000Y-107494000D01*
G75*
G02*
X134986000Y-107294000I0J200000D01*
G01*
X134986000Y-106894000D01*
G75*
G02*
X135186000Y-106694000I200000J0D01*
G01*
G37*
G36*
G01*
X135186000Y-108344000D02*
X135736000Y-108344000D01*
G75*
G02*
X135936000Y-108544000I0J-200000D01*
G01*
X135936000Y-108944000D01*
G75*
G02*
X135736000Y-109144000I-200000J0D01*
G01*
X135186000Y-109144000D01*
G75*
G02*
X134986000Y-108944000I0J200000D01*
G01*
X134986000Y-108544000D01*
G75*
G02*
X135186000Y-108344000I200000J0D01*
G01*
G37*
%TD*%
%TO.C,R9*%
G36*
G01*
X160186000Y-94194000D02*
X160736000Y-94194000D01*
G75*
G02*
X160936000Y-94394000I0J-200000D01*
G01*
X160936000Y-94794000D01*
G75*
G02*
X160736000Y-94994000I-200000J0D01*
G01*
X160186000Y-94994000D01*
G75*
G02*
X159986000Y-94794000I0J200000D01*
G01*
X159986000Y-94394000D01*
G75*
G02*
X160186000Y-94194000I200000J0D01*
G01*
G37*
G36*
G01*
X160186000Y-95844000D02*
X160736000Y-95844000D01*
G75*
G02*
X160936000Y-96044000I0J-200000D01*
G01*
X160936000Y-96444000D01*
G75*
G02*
X160736000Y-96644000I-200000J0D01*
G01*
X160186000Y-96644000D01*
G75*
G02*
X159986000Y-96444000I0J200000D01*
G01*
X159986000Y-96044000D01*
G75*
G02*
X160186000Y-95844000I200000J0D01*
G01*
G37*
%TD*%
%TO.C,R9*%
G36*
G01*
X135186000Y-94194000D02*
X135736000Y-94194000D01*
G75*
G02*
X135936000Y-94394000I0J-200000D01*
G01*
X135936000Y-94794000D01*
G75*
G02*
X135736000Y-94994000I-200000J0D01*
G01*
X135186000Y-94994000D01*
G75*
G02*
X134986000Y-94794000I0J200000D01*
G01*
X134986000Y-94394000D01*
G75*
G02*
X135186000Y-94194000I200000J0D01*
G01*
G37*
G36*
G01*
X135186000Y-95844000D02*
X135736000Y-95844000D01*
G75*
G02*
X135936000Y-96044000I0J-200000D01*
G01*
X135936000Y-96444000D01*
G75*
G02*
X135736000Y-96644000I-200000J0D01*
G01*
X135186000Y-96644000D01*
G75*
G02*
X134986000Y-96444000I0J200000D01*
G01*
X134986000Y-96044000D01*
G75*
G02*
X135186000Y-95844000I200000J0D01*
G01*
G37*
%TD*%
%TO.C,R9*%
G36*
G01*
X160186000Y-81694000D02*
X160736000Y-81694000D01*
G75*
G02*
X160936000Y-81894000I0J-200000D01*
G01*
X160936000Y-82294000D01*
G75*
G02*
X160736000Y-82494000I-200000J0D01*
G01*
X160186000Y-82494000D01*
G75*
G02*
X159986000Y-82294000I0J200000D01*
G01*
X159986000Y-81894000D01*
G75*
G02*
X160186000Y-81694000I200000J0D01*
G01*
G37*
G36*
G01*
X160186000Y-83344000D02*
X160736000Y-83344000D01*
G75*
G02*
X160936000Y-83544000I0J-200000D01*
G01*
X160936000Y-83944000D01*
G75*
G02*
X160736000Y-84144000I-200000J0D01*
G01*
X160186000Y-84144000D01*
G75*
G02*
X159986000Y-83944000I0J200000D01*
G01*
X159986000Y-83544000D01*
G75*
G02*
X160186000Y-83344000I200000J0D01*
G01*
G37*
%TD*%
%TO.C,R12*%
G36*
G01*
X163276000Y-121645000D02*
X162726000Y-121645000D01*
G75*
G02*
X162526000Y-121445000I0J200000D01*
G01*
X162526000Y-121045000D01*
G75*
G02*
X162726000Y-120845000I200000J0D01*
G01*
X163276000Y-120845000D01*
G75*
G02*
X163476000Y-121045000I0J-200000D01*
G01*
X163476000Y-121445000D01*
G75*
G02*
X163276000Y-121645000I-200000J0D01*
G01*
G37*
G36*
G01*
X163276000Y-119995000D02*
X162726000Y-119995000D01*
G75*
G02*
X162526000Y-119795000I0J200000D01*
G01*
X162526000Y-119395000D01*
G75*
G02*
X162726000Y-119195000I200000J0D01*
G01*
X163276000Y-119195000D01*
G75*
G02*
X163476000Y-119395000I0J-200000D01*
G01*
X163476000Y-119795000D01*
G75*
G02*
X163276000Y-119995000I-200000J0D01*
G01*
G37*
%TD*%
%TO.C,R12*%
G36*
G01*
X138276000Y-121645000D02*
X137726000Y-121645000D01*
G75*
G02*
X137526000Y-121445000I0J200000D01*
G01*
X137526000Y-121045000D01*
G75*
G02*
X137726000Y-120845000I200000J0D01*
G01*
X138276000Y-120845000D01*
G75*
G02*
X138476000Y-121045000I0J-200000D01*
G01*
X138476000Y-121445000D01*
G75*
G02*
X138276000Y-121645000I-200000J0D01*
G01*
G37*
G36*
G01*
X138276000Y-119995000D02*
X137726000Y-119995000D01*
G75*
G02*
X137526000Y-119795000I0J200000D01*
G01*
X137526000Y-119395000D01*
G75*
G02*
X137726000Y-119195000I200000J0D01*
G01*
X138276000Y-119195000D01*
G75*
G02*
X138476000Y-119395000I0J-200000D01*
G01*
X138476000Y-119795000D01*
G75*
G02*
X138276000Y-119995000I-200000J0D01*
G01*
G37*
%TD*%
%TO.C,R12*%
G36*
G01*
X163276000Y-109145000D02*
X162726000Y-109145000D01*
G75*
G02*
X162526000Y-108945000I0J200000D01*
G01*
X162526000Y-108545000D01*
G75*
G02*
X162726000Y-108345000I200000J0D01*
G01*
X163276000Y-108345000D01*
G75*
G02*
X163476000Y-108545000I0J-200000D01*
G01*
X163476000Y-108945000D01*
G75*
G02*
X163276000Y-109145000I-200000J0D01*
G01*
G37*
G36*
G01*
X163276000Y-107495000D02*
X162726000Y-107495000D01*
G75*
G02*
X162526000Y-107295000I0J200000D01*
G01*
X162526000Y-106895000D01*
G75*
G02*
X162726000Y-106695000I200000J0D01*
G01*
X163276000Y-106695000D01*
G75*
G02*
X163476000Y-106895000I0J-200000D01*
G01*
X163476000Y-107295000D01*
G75*
G02*
X163276000Y-107495000I-200000J0D01*
G01*
G37*
%TD*%
%TO.C,R12*%
G36*
G01*
X138276000Y-109145000D02*
X137726000Y-109145000D01*
G75*
G02*
X137526000Y-108945000I0J200000D01*
G01*
X137526000Y-108545000D01*
G75*
G02*
X137726000Y-108345000I200000J0D01*
G01*
X138276000Y-108345000D01*
G75*
G02*
X138476000Y-108545000I0J-200000D01*
G01*
X138476000Y-108945000D01*
G75*
G02*
X138276000Y-109145000I-200000J0D01*
G01*
G37*
G36*
G01*
X138276000Y-107495000D02*
X137726000Y-107495000D01*
G75*
G02*
X137526000Y-107295000I0J200000D01*
G01*
X137526000Y-106895000D01*
G75*
G02*
X137726000Y-106695000I200000J0D01*
G01*
X138276000Y-106695000D01*
G75*
G02*
X138476000Y-106895000I0J-200000D01*
G01*
X138476000Y-107295000D01*
G75*
G02*
X138276000Y-107495000I-200000J0D01*
G01*
G37*
%TD*%
%TO.C,R12*%
G36*
G01*
X163276000Y-96645000D02*
X162726000Y-96645000D01*
G75*
G02*
X162526000Y-96445000I0J200000D01*
G01*
X162526000Y-96045000D01*
G75*
G02*
X162726000Y-95845000I200000J0D01*
G01*
X163276000Y-95845000D01*
G75*
G02*
X163476000Y-96045000I0J-200000D01*
G01*
X163476000Y-96445000D01*
G75*
G02*
X163276000Y-96645000I-200000J0D01*
G01*
G37*
G36*
G01*
X163276000Y-94995000D02*
X162726000Y-94995000D01*
G75*
G02*
X162526000Y-94795000I0J200000D01*
G01*
X162526000Y-94395000D01*
G75*
G02*
X162726000Y-94195000I200000J0D01*
G01*
X163276000Y-94195000D01*
G75*
G02*
X163476000Y-94395000I0J-200000D01*
G01*
X163476000Y-94795000D01*
G75*
G02*
X163276000Y-94995000I-200000J0D01*
G01*
G37*
%TD*%
%TO.C,R12*%
G36*
G01*
X138276000Y-96645000D02*
X137726000Y-96645000D01*
G75*
G02*
X137526000Y-96445000I0J200000D01*
G01*
X137526000Y-96045000D01*
G75*
G02*
X137726000Y-95845000I200000J0D01*
G01*
X138276000Y-95845000D01*
G75*
G02*
X138476000Y-96045000I0J-200000D01*
G01*
X138476000Y-96445000D01*
G75*
G02*
X138276000Y-96645000I-200000J0D01*
G01*
G37*
G36*
G01*
X138276000Y-94995000D02*
X137726000Y-94995000D01*
G75*
G02*
X137526000Y-94795000I0J200000D01*
G01*
X137526000Y-94395000D01*
G75*
G02*
X137726000Y-94195000I200000J0D01*
G01*
X138276000Y-94195000D01*
G75*
G02*
X138476000Y-94395000I0J-200000D01*
G01*
X138476000Y-94795000D01*
G75*
G02*
X138276000Y-94995000I-200000J0D01*
G01*
G37*
%TD*%
%TO.C,R12*%
G36*
G01*
X163276000Y-84145000D02*
X162726000Y-84145000D01*
G75*
G02*
X162526000Y-83945000I0J200000D01*
G01*
X162526000Y-83545000D01*
G75*
G02*
X162726000Y-83345000I200000J0D01*
G01*
X163276000Y-83345000D01*
G75*
G02*
X163476000Y-83545000I0J-200000D01*
G01*
X163476000Y-83945000D01*
G75*
G02*
X163276000Y-84145000I-200000J0D01*
G01*
G37*
G36*
G01*
X163276000Y-82495000D02*
X162726000Y-82495000D01*
G75*
G02*
X162526000Y-82295000I0J200000D01*
G01*
X162526000Y-81895000D01*
G75*
G02*
X162726000Y-81695000I200000J0D01*
G01*
X163276000Y-81695000D01*
G75*
G02*
X163476000Y-81895000I0J-200000D01*
G01*
X163476000Y-82295000D01*
G75*
G02*
X163276000Y-82495000I-200000J0D01*
G01*
G37*
%TD*%
%TO.C,R14*%
G36*
G01*
X149814000Y-121644000D02*
X149264000Y-121644000D01*
G75*
G02*
X149064000Y-121444000I0J200000D01*
G01*
X149064000Y-121044000D01*
G75*
G02*
X149264000Y-120844000I200000J0D01*
G01*
X149814000Y-120844000D01*
G75*
G02*
X150014000Y-121044000I0J-200000D01*
G01*
X150014000Y-121444000D01*
G75*
G02*
X149814000Y-121644000I-200000J0D01*
G01*
G37*
G36*
G01*
X149814000Y-119994000D02*
X149264000Y-119994000D01*
G75*
G02*
X149064000Y-119794000I0J200000D01*
G01*
X149064000Y-119394000D01*
G75*
G02*
X149264000Y-119194000I200000J0D01*
G01*
X149814000Y-119194000D01*
G75*
G02*
X150014000Y-119394000I0J-200000D01*
G01*
X150014000Y-119794000D01*
G75*
G02*
X149814000Y-119994000I-200000J0D01*
G01*
G37*
%TD*%
%TO.C,R14*%
G36*
G01*
X124814000Y-121644000D02*
X124264000Y-121644000D01*
G75*
G02*
X124064000Y-121444000I0J200000D01*
G01*
X124064000Y-121044000D01*
G75*
G02*
X124264000Y-120844000I200000J0D01*
G01*
X124814000Y-120844000D01*
G75*
G02*
X125014000Y-121044000I0J-200000D01*
G01*
X125014000Y-121444000D01*
G75*
G02*
X124814000Y-121644000I-200000J0D01*
G01*
G37*
G36*
G01*
X124814000Y-119994000D02*
X124264000Y-119994000D01*
G75*
G02*
X124064000Y-119794000I0J200000D01*
G01*
X124064000Y-119394000D01*
G75*
G02*
X124264000Y-119194000I200000J0D01*
G01*
X124814000Y-119194000D01*
G75*
G02*
X125014000Y-119394000I0J-200000D01*
G01*
X125014000Y-119794000D01*
G75*
G02*
X124814000Y-119994000I-200000J0D01*
G01*
G37*
%TD*%
%TO.C,R14*%
G36*
G01*
X149814000Y-109144000D02*
X149264000Y-109144000D01*
G75*
G02*
X149064000Y-108944000I0J200000D01*
G01*
X149064000Y-108544000D01*
G75*
G02*
X149264000Y-108344000I200000J0D01*
G01*
X149814000Y-108344000D01*
G75*
G02*
X150014000Y-108544000I0J-200000D01*
G01*
X150014000Y-108944000D01*
G75*
G02*
X149814000Y-109144000I-200000J0D01*
G01*
G37*
G36*
G01*
X149814000Y-107494000D02*
X149264000Y-107494000D01*
G75*
G02*
X149064000Y-107294000I0J200000D01*
G01*
X149064000Y-106894000D01*
G75*
G02*
X149264000Y-106694000I200000J0D01*
G01*
X149814000Y-106694000D01*
G75*
G02*
X150014000Y-106894000I0J-200000D01*
G01*
X150014000Y-107294000D01*
G75*
G02*
X149814000Y-107494000I-200000J0D01*
G01*
G37*
%TD*%
%TO.C,R14*%
G36*
G01*
X124814000Y-109144000D02*
X124264000Y-109144000D01*
G75*
G02*
X124064000Y-108944000I0J200000D01*
G01*
X124064000Y-108544000D01*
G75*
G02*
X124264000Y-108344000I200000J0D01*
G01*
X124814000Y-108344000D01*
G75*
G02*
X125014000Y-108544000I0J-200000D01*
G01*
X125014000Y-108944000D01*
G75*
G02*
X124814000Y-109144000I-200000J0D01*
G01*
G37*
G36*
G01*
X124814000Y-107494000D02*
X124264000Y-107494000D01*
G75*
G02*
X124064000Y-107294000I0J200000D01*
G01*
X124064000Y-106894000D01*
G75*
G02*
X124264000Y-106694000I200000J0D01*
G01*
X124814000Y-106694000D01*
G75*
G02*
X125014000Y-106894000I0J-200000D01*
G01*
X125014000Y-107294000D01*
G75*
G02*
X124814000Y-107494000I-200000J0D01*
G01*
G37*
%TD*%
%TO.C,R14*%
G36*
G01*
X149814000Y-96644000D02*
X149264000Y-96644000D01*
G75*
G02*
X149064000Y-96444000I0J200000D01*
G01*
X149064000Y-96044000D01*
G75*
G02*
X149264000Y-95844000I200000J0D01*
G01*
X149814000Y-95844000D01*
G75*
G02*
X150014000Y-96044000I0J-200000D01*
G01*
X150014000Y-96444000D01*
G75*
G02*
X149814000Y-96644000I-200000J0D01*
G01*
G37*
G36*
G01*
X149814000Y-94994000D02*
X149264000Y-94994000D01*
G75*
G02*
X149064000Y-94794000I0J200000D01*
G01*
X149064000Y-94394000D01*
G75*
G02*
X149264000Y-94194000I200000J0D01*
G01*
X149814000Y-94194000D01*
G75*
G02*
X150014000Y-94394000I0J-200000D01*
G01*
X150014000Y-94794000D01*
G75*
G02*
X149814000Y-94994000I-200000J0D01*
G01*
G37*
%TD*%
%TO.C,R14*%
G36*
G01*
X124814000Y-96644000D02*
X124264000Y-96644000D01*
G75*
G02*
X124064000Y-96444000I0J200000D01*
G01*
X124064000Y-96044000D01*
G75*
G02*
X124264000Y-95844000I200000J0D01*
G01*
X124814000Y-95844000D01*
G75*
G02*
X125014000Y-96044000I0J-200000D01*
G01*
X125014000Y-96444000D01*
G75*
G02*
X124814000Y-96644000I-200000J0D01*
G01*
G37*
G36*
G01*
X124814000Y-94994000D02*
X124264000Y-94994000D01*
G75*
G02*
X124064000Y-94794000I0J200000D01*
G01*
X124064000Y-94394000D01*
G75*
G02*
X124264000Y-94194000I200000J0D01*
G01*
X124814000Y-94194000D01*
G75*
G02*
X125014000Y-94394000I0J-200000D01*
G01*
X125014000Y-94794000D01*
G75*
G02*
X124814000Y-94994000I-200000J0D01*
G01*
G37*
%TD*%
%TO.C,R14*%
G36*
G01*
X149814000Y-84144000D02*
X149264000Y-84144000D01*
G75*
G02*
X149064000Y-83944000I0J200000D01*
G01*
X149064000Y-83544000D01*
G75*
G02*
X149264000Y-83344000I200000J0D01*
G01*
X149814000Y-83344000D01*
G75*
G02*
X150014000Y-83544000I0J-200000D01*
G01*
X150014000Y-83944000D01*
G75*
G02*
X149814000Y-84144000I-200000J0D01*
G01*
G37*
G36*
G01*
X149814000Y-82494000D02*
X149264000Y-82494000D01*
G75*
G02*
X149064000Y-82294000I0J200000D01*
G01*
X149064000Y-81894000D01*
G75*
G02*
X149264000Y-81694000I200000J0D01*
G01*
X149814000Y-81694000D01*
G75*
G02*
X150014000Y-81894000I0J-200000D01*
G01*
X150014000Y-82294000D01*
G75*
G02*
X149814000Y-82494000I-200000J0D01*
G01*
G37*
%TD*%
D11*
%TO.C,J1*%
X138636000Y-89714000D03*
X138636000Y-88444000D03*
X139906000Y-89714000D03*
X139906000Y-88444000D03*
X141176000Y-89714000D03*
D10*
X141176000Y-88444000D03*
%TD*%
D11*
%TO.C,J2*%
X118824000Y-89714000D03*
X118824000Y-88444000D03*
X120094000Y-89714000D03*
X120094000Y-88444000D03*
X121364000Y-89714000D03*
D10*
X121364000Y-88444000D03*
%TD*%
%TO.C,U1*%
G36*
G01*
X128500000Y-87024000D02*
X128500000Y-87324000D01*
G75*
G02*
X128350000Y-87474000I-150000J0D01*
G01*
X126700000Y-87474000D01*
G75*
G02*
X126550000Y-87324000I0J150000D01*
G01*
X126550000Y-87024000D01*
G75*
G02*
X126700000Y-86874000I150000J0D01*
G01*
X128350000Y-86874000D01*
G75*
G02*
X128500000Y-87024000I0J-150000D01*
G01*
G37*
G36*
G01*
X128500000Y-88294000D02*
X128500000Y-88594000D01*
G75*
G02*
X128350000Y-88744000I-150000J0D01*
G01*
X126700000Y-88744000D01*
G75*
G02*
X126550000Y-88594000I0J150000D01*
G01*
X126550000Y-88294000D01*
G75*
G02*
X126700000Y-88144000I150000J0D01*
G01*
X128350000Y-88144000D01*
G75*
G02*
X128500000Y-88294000I0J-150000D01*
G01*
G37*
G36*
G01*
X128500000Y-89564000D02*
X128500000Y-89864000D01*
G75*
G02*
X128350000Y-90014000I-150000J0D01*
G01*
X126700000Y-90014000D01*
G75*
G02*
X126550000Y-89864000I0J150000D01*
G01*
X126550000Y-89564000D01*
G75*
G02*
X126700000Y-89414000I150000J0D01*
G01*
X128350000Y-89414000D01*
G75*
G02*
X128500000Y-89564000I0J-150000D01*
G01*
G37*
G36*
G01*
X128500000Y-90834000D02*
X128500000Y-91134000D01*
G75*
G02*
X128350000Y-91284000I-150000J0D01*
G01*
X126700000Y-91284000D01*
G75*
G02*
X126550000Y-91134000I0J150000D01*
G01*
X126550000Y-90834000D01*
G75*
G02*
X126700000Y-90684000I150000J0D01*
G01*
X128350000Y-90684000D01*
G75*
G02*
X128500000Y-90834000I0J-150000D01*
G01*
G37*
G36*
G01*
X133450000Y-90834000D02*
X133450000Y-91134000D01*
G75*
G02*
X133300000Y-91284000I-150000J0D01*
G01*
X131650000Y-91284000D01*
G75*
G02*
X131500000Y-91134000I0J150000D01*
G01*
X131500000Y-90834000D01*
G75*
G02*
X131650000Y-90684000I150000J0D01*
G01*
X133300000Y-90684000D01*
G75*
G02*
X133450000Y-90834000I0J-150000D01*
G01*
G37*
G36*
G01*
X133450000Y-89564000D02*
X133450000Y-89864000D01*
G75*
G02*
X133300000Y-90014000I-150000J0D01*
G01*
X131650000Y-90014000D01*
G75*
G02*
X131500000Y-89864000I0J150000D01*
G01*
X131500000Y-89564000D01*
G75*
G02*
X131650000Y-89414000I150000J0D01*
G01*
X133300000Y-89414000D01*
G75*
G02*
X133450000Y-89564000I0J-150000D01*
G01*
G37*
G36*
G01*
X133450000Y-88294000D02*
X133450000Y-88594000D01*
G75*
G02*
X133300000Y-88744000I-150000J0D01*
G01*
X131650000Y-88744000D01*
G75*
G02*
X131500000Y-88594000I0J150000D01*
G01*
X131500000Y-88294000D01*
G75*
G02*
X131650000Y-88144000I150000J0D01*
G01*
X133300000Y-88144000D01*
G75*
G02*
X133450000Y-88294000I0J-150000D01*
G01*
G37*
G36*
G01*
X133450000Y-87024000D02*
X133450000Y-87324000D01*
G75*
G02*
X133300000Y-87474000I-150000J0D01*
G01*
X131650000Y-87474000D01*
G75*
G02*
X131500000Y-87324000I0J150000D01*
G01*
X131500000Y-87024000D01*
G75*
G02*
X131650000Y-86874000I150000J0D01*
G01*
X133300000Y-86874000D01*
G75*
G02*
X133450000Y-87024000I0J-150000D01*
G01*
G37*
%TD*%
%TO.C,R24*%
G36*
G01*
X120075000Y-80718000D02*
X120075000Y-80168000D01*
G75*
G02*
X120275000Y-79968000I200000J0D01*
G01*
X120675000Y-79968000D01*
G75*
G02*
X120875000Y-80168000I0J-200000D01*
G01*
X120875000Y-80718000D01*
G75*
G02*
X120675000Y-80918000I-200000J0D01*
G01*
X120275000Y-80918000D01*
G75*
G02*
X120075000Y-80718000I0J200000D01*
G01*
G37*
G36*
G01*
X118425000Y-80718000D02*
X118425000Y-80168000D01*
G75*
G02*
X118625000Y-79968000I200000J0D01*
G01*
X119025000Y-79968000D01*
G75*
G02*
X119225000Y-80168000I0J-200000D01*
G01*
X119225000Y-80718000D01*
G75*
G02*
X119025000Y-80918000I-200000J0D01*
G01*
X118625000Y-80918000D01*
G75*
G02*
X118425000Y-80718000I0J200000D01*
G01*
G37*
%TD*%
%TO.C,R22*%
G36*
G01*
X126463000Y-85248000D02*
X126463000Y-85798000D01*
G75*
G02*
X126263000Y-85998000I-200000J0D01*
G01*
X125863000Y-85998000D01*
G75*
G02*
X125663000Y-85798000I0J200000D01*
G01*
X125663000Y-85248000D01*
G75*
G02*
X125863000Y-85048000I200000J0D01*
G01*
X126263000Y-85048000D01*
G75*
G02*
X126463000Y-85248000I0J-200000D01*
G01*
G37*
G36*
G01*
X128113000Y-85248000D02*
X128113000Y-85798000D01*
G75*
G02*
X127913000Y-85998000I-200000J0D01*
G01*
X127513000Y-85998000D01*
G75*
G02*
X127313000Y-85798000I0J200000D01*
G01*
X127313000Y-85248000D01*
G75*
G02*
X127513000Y-85048000I200000J0D01*
G01*
X127913000Y-85048000D01*
G75*
G02*
X128113000Y-85248000I0J-200000D01*
G01*
G37*
%TD*%
%TO.C,R20*%
G36*
G01*
X120075000Y-85798000D02*
X120075000Y-85248000D01*
G75*
G02*
X120275000Y-85048000I200000J0D01*
G01*
X120675000Y-85048000D01*
G75*
G02*
X120875000Y-85248000I0J-200000D01*
G01*
X120875000Y-85798000D01*
G75*
G02*
X120675000Y-85998000I-200000J0D01*
G01*
X120275000Y-85998000D01*
G75*
G02*
X120075000Y-85798000I0J200000D01*
G01*
G37*
G36*
G01*
X118425000Y-85798000D02*
X118425000Y-85248000D01*
G75*
G02*
X118625000Y-85048000I200000J0D01*
G01*
X119025000Y-85048000D01*
G75*
G02*
X119225000Y-85248000I0J-200000D01*
G01*
X119225000Y-85798000D01*
G75*
G02*
X119025000Y-85998000I-200000J0D01*
G01*
X118625000Y-85998000D01*
G75*
G02*
X118425000Y-85798000I0J200000D01*
G01*
G37*
%TD*%
%TO.C,R18*%
G36*
G01*
X126463000Y-80168000D02*
X126463000Y-80718000D01*
G75*
G02*
X126263000Y-80918000I-200000J0D01*
G01*
X125863000Y-80918000D01*
G75*
G02*
X125663000Y-80718000I0J200000D01*
G01*
X125663000Y-80168000D01*
G75*
G02*
X125863000Y-79968000I200000J0D01*
G01*
X126263000Y-79968000D01*
G75*
G02*
X126463000Y-80168000I0J-200000D01*
G01*
G37*
G36*
G01*
X128113000Y-80168000D02*
X128113000Y-80718000D01*
G75*
G02*
X127913000Y-80918000I-200000J0D01*
G01*
X127513000Y-80918000D01*
G75*
G02*
X127313000Y-80718000I0J200000D01*
G01*
X127313000Y-80168000D01*
G75*
G02*
X127513000Y-79968000I200000J0D01*
G01*
X127913000Y-79968000D01*
G75*
G02*
X128113000Y-80168000I0J-200000D01*
G01*
G37*
%TD*%
%TO.C,R16*%
G36*
G01*
X121724000Y-83344000D02*
X122274000Y-83344000D01*
G75*
G02*
X122474000Y-83544000I0J-200000D01*
G01*
X122474000Y-83944000D01*
G75*
G02*
X122274000Y-84144000I-200000J0D01*
G01*
X121724000Y-84144000D01*
G75*
G02*
X121524000Y-83944000I0J200000D01*
G01*
X121524000Y-83544000D01*
G75*
G02*
X121724000Y-83344000I200000J0D01*
G01*
G37*
G36*
G01*
X121724000Y-81694000D02*
X122274000Y-81694000D01*
G75*
G02*
X122474000Y-81894000I0J-200000D01*
G01*
X122474000Y-82294000D01*
G75*
G02*
X122274000Y-82494000I-200000J0D01*
G01*
X121724000Y-82494000D01*
G75*
G02*
X121524000Y-82294000I0J200000D01*
G01*
X121524000Y-81894000D01*
G75*
G02*
X121724000Y-81694000I200000J0D01*
G01*
G37*
%TD*%
%TO.C,R14*%
G36*
G01*
X124814000Y-82494000D02*
X124264000Y-82494000D01*
G75*
G02*
X124064000Y-82294000I0J200000D01*
G01*
X124064000Y-81894000D01*
G75*
G02*
X124264000Y-81694000I200000J0D01*
G01*
X124814000Y-81694000D01*
G75*
G02*
X125014000Y-81894000I0J-200000D01*
G01*
X125014000Y-82294000D01*
G75*
G02*
X124814000Y-82494000I-200000J0D01*
G01*
G37*
G36*
G01*
X124814000Y-84144000D02*
X124264000Y-84144000D01*
G75*
G02*
X124064000Y-83944000I0J200000D01*
G01*
X124064000Y-83544000D01*
G75*
G02*
X124264000Y-83344000I200000J0D01*
G01*
X124814000Y-83344000D01*
G75*
G02*
X125014000Y-83544000I0J-200000D01*
G01*
X125014000Y-83944000D01*
G75*
G02*
X124814000Y-84144000I-200000J0D01*
G01*
G37*
%TD*%
%TO.C,R12*%
G36*
G01*
X138276000Y-82495000D02*
X137726000Y-82495000D01*
G75*
G02*
X137526000Y-82295000I0J200000D01*
G01*
X137526000Y-81895000D01*
G75*
G02*
X137726000Y-81695000I200000J0D01*
G01*
X138276000Y-81695000D01*
G75*
G02*
X138476000Y-81895000I0J-200000D01*
G01*
X138476000Y-82295000D01*
G75*
G02*
X138276000Y-82495000I-200000J0D01*
G01*
G37*
G36*
G01*
X138276000Y-84145000D02*
X137726000Y-84145000D01*
G75*
G02*
X137526000Y-83945000I0J200000D01*
G01*
X137526000Y-83545000D01*
G75*
G02*
X137726000Y-83345000I200000J0D01*
G01*
X138276000Y-83345000D01*
G75*
G02*
X138476000Y-83545000I0J-200000D01*
G01*
X138476000Y-83945000D01*
G75*
G02*
X138276000Y-84145000I-200000J0D01*
G01*
G37*
%TD*%
%TO.C,R9*%
G36*
G01*
X135186000Y-83344000D02*
X135736000Y-83344000D01*
G75*
G02*
X135936000Y-83544000I0J-200000D01*
G01*
X135936000Y-83944000D01*
G75*
G02*
X135736000Y-84144000I-200000J0D01*
G01*
X135186000Y-84144000D01*
G75*
G02*
X134986000Y-83944000I0J200000D01*
G01*
X134986000Y-83544000D01*
G75*
G02*
X135186000Y-83344000I200000J0D01*
G01*
G37*
G36*
G01*
X135186000Y-81694000D02*
X135736000Y-81694000D01*
G75*
G02*
X135936000Y-81894000I0J-200000D01*
G01*
X135936000Y-82294000D01*
G75*
G02*
X135736000Y-82494000I-200000J0D01*
G01*
X135186000Y-82494000D01*
G75*
G02*
X134986000Y-82294000I0J200000D01*
G01*
X134986000Y-81894000D01*
G75*
G02*
X135186000Y-81694000I200000J0D01*
G01*
G37*
%TD*%
%TO.C,R8*%
G36*
G01*
X140776000Y-80591000D02*
X140776000Y-80041000D01*
G75*
G02*
X140976000Y-79841000I200000J0D01*
G01*
X141376000Y-79841000D01*
G75*
G02*
X141576000Y-80041000I0J-200000D01*
G01*
X141576000Y-80591000D01*
G75*
G02*
X141376000Y-80791000I-200000J0D01*
G01*
X140976000Y-80791000D01*
G75*
G02*
X140776000Y-80591000I0J200000D01*
G01*
G37*
G36*
G01*
X139126000Y-80591000D02*
X139126000Y-80041000D01*
G75*
G02*
X139326000Y-79841000I200000J0D01*
G01*
X139726000Y-79841000D01*
G75*
G02*
X139926000Y-80041000I0J-200000D01*
G01*
X139926000Y-80591000D01*
G75*
G02*
X139726000Y-80791000I-200000J0D01*
G01*
X139326000Y-80791000D01*
G75*
G02*
X139126000Y-80591000I0J200000D01*
G01*
G37*
%TD*%
%TO.C,R5*%
G36*
G01*
X132687000Y-85248000D02*
X132687000Y-85798000D01*
G75*
G02*
X132487000Y-85998000I-200000J0D01*
G01*
X132087000Y-85998000D01*
G75*
G02*
X131887000Y-85798000I0J200000D01*
G01*
X131887000Y-85248000D01*
G75*
G02*
X132087000Y-85048000I200000J0D01*
G01*
X132487000Y-85048000D01*
G75*
G02*
X132687000Y-85248000I0J-200000D01*
G01*
G37*
G36*
G01*
X134337000Y-85248000D02*
X134337000Y-85798000D01*
G75*
G02*
X134137000Y-85998000I-200000J0D01*
G01*
X133737000Y-85998000D01*
G75*
G02*
X133537000Y-85798000I0J200000D01*
G01*
X133537000Y-85248000D01*
G75*
G02*
X133737000Y-85048000I200000J0D01*
G01*
X134137000Y-85048000D01*
G75*
G02*
X134337000Y-85248000I0J-200000D01*
G01*
G37*
%TD*%
%TO.C,R4*%
G36*
G01*
X139925000Y-85248000D02*
X139925000Y-85798000D01*
G75*
G02*
X139725000Y-85998000I-200000J0D01*
G01*
X139325000Y-85998000D01*
G75*
G02*
X139125000Y-85798000I0J200000D01*
G01*
X139125000Y-85248000D01*
G75*
G02*
X139325000Y-85048000I200000J0D01*
G01*
X139725000Y-85048000D01*
G75*
G02*
X139925000Y-85248000I0J-200000D01*
G01*
G37*
G36*
G01*
X141575000Y-85248000D02*
X141575000Y-85798000D01*
G75*
G02*
X141375000Y-85998000I-200000J0D01*
G01*
X140975000Y-85998000D01*
G75*
G02*
X140775000Y-85798000I0J200000D01*
G01*
X140775000Y-85248000D01*
G75*
G02*
X140975000Y-85048000I200000J0D01*
G01*
X141375000Y-85048000D01*
G75*
G02*
X141575000Y-85248000I0J-200000D01*
G01*
G37*
%TD*%
%TO.C,R1*%
G36*
G01*
X133537000Y-80591000D02*
X133537000Y-80041000D01*
G75*
G02*
X133737000Y-79841000I200000J0D01*
G01*
X134137000Y-79841000D01*
G75*
G02*
X134337000Y-80041000I0J-200000D01*
G01*
X134337000Y-80591000D01*
G75*
G02*
X134137000Y-80791000I-200000J0D01*
G01*
X133737000Y-80791000D01*
G75*
G02*
X133537000Y-80591000I0J200000D01*
G01*
G37*
G36*
G01*
X131887000Y-80591000D02*
X131887000Y-80041000D01*
G75*
G02*
X132087000Y-79841000I200000J0D01*
G01*
X132487000Y-79841000D01*
G75*
G02*
X132687000Y-80041000I0J-200000D01*
G01*
X132687000Y-80591000D01*
G75*
G02*
X132487000Y-80791000I-200000J0D01*
G01*
X132087000Y-80791000D01*
G75*
G02*
X131887000Y-80591000I0J200000D01*
G01*
G37*
%TD*%
D12*
%TO.C,Q8*%
X118475000Y-82983000D03*
X120475000Y-83933000D03*
X120475000Y-82033000D03*
%TD*%
%TO.C,Q6*%
X128063000Y-82983000D03*
X126063000Y-82033000D03*
X126063000Y-83933000D03*
%TD*%
%TO.C,Q4*%
X141525000Y-82922000D03*
X139525000Y-81972000D03*
X139525000Y-83872000D03*
%TD*%
%TO.C,Q1*%
X131937000Y-82922000D03*
X133937000Y-83872000D03*
X133937000Y-81972000D03*
%TD*%
%TO.C,C6*%
G36*
G01*
X123519000Y-88754000D02*
X123019000Y-88754000D01*
G75*
G02*
X122794000Y-88529000I0J225000D01*
G01*
X122794000Y-88079000D01*
G75*
G02*
X123019000Y-87854000I225000J0D01*
G01*
X123519000Y-87854000D01*
G75*
G02*
X123744000Y-88079000I0J-225000D01*
G01*
X123744000Y-88529000D01*
G75*
G02*
X123519000Y-88754000I-225000J0D01*
G01*
G37*
G36*
G01*
X123519000Y-90304000D02*
X123019000Y-90304000D01*
G75*
G02*
X122794000Y-90079000I0J225000D01*
G01*
X122794000Y-89629000D01*
G75*
G02*
X123019000Y-89404000I225000J0D01*
G01*
X123519000Y-89404000D01*
G75*
G02*
X123744000Y-89629000I0J-225000D01*
G01*
X123744000Y-90079000D01*
G75*
G02*
X123519000Y-90304000I-225000J0D01*
G01*
G37*
%TD*%
%TO.C,C4*%
G36*
G01*
X125043000Y-88741000D02*
X124543000Y-88741000D01*
G75*
G02*
X124318000Y-88516000I0J225000D01*
G01*
X124318000Y-88066000D01*
G75*
G02*
X124543000Y-87841000I225000J0D01*
G01*
X125043000Y-87841000D01*
G75*
G02*
X125268000Y-88066000I0J-225000D01*
G01*
X125268000Y-88516000D01*
G75*
G02*
X125043000Y-88741000I-225000J0D01*
G01*
G37*
G36*
G01*
X125043000Y-90291000D02*
X124543000Y-90291000D01*
G75*
G02*
X124318000Y-90066000I0J225000D01*
G01*
X124318000Y-89616000D01*
G75*
G02*
X124543000Y-89391000I225000J0D01*
G01*
X125043000Y-89391000D01*
G75*
G02*
X125268000Y-89616000I0J-225000D01*
G01*
X125268000Y-90066000D01*
G75*
G02*
X125043000Y-90291000I-225000J0D01*
G01*
G37*
%TD*%
%TO.C,C2*%
G36*
G01*
X135457000Y-88741000D02*
X134957000Y-88741000D01*
G75*
G02*
X134732000Y-88516000I0J225000D01*
G01*
X134732000Y-88066000D01*
G75*
G02*
X134957000Y-87841000I225000J0D01*
G01*
X135457000Y-87841000D01*
G75*
G02*
X135682000Y-88066000I0J-225000D01*
G01*
X135682000Y-88516000D01*
G75*
G02*
X135457000Y-88741000I-225000J0D01*
G01*
G37*
G36*
G01*
X135457000Y-90291000D02*
X134957000Y-90291000D01*
G75*
G02*
X134732000Y-90066000I0J225000D01*
G01*
X134732000Y-89616000D01*
G75*
G02*
X134957000Y-89391000I225000J0D01*
G01*
X135457000Y-89391000D01*
G75*
G02*
X135682000Y-89616000I0J-225000D01*
G01*
X135682000Y-90066000D01*
G75*
G02*
X135457000Y-90291000I-225000J0D01*
G01*
G37*
%TD*%
%TO.C,C1*%
G36*
G01*
X136981000Y-88741000D02*
X136481000Y-88741000D01*
G75*
G02*
X136256000Y-88516000I0J225000D01*
G01*
X136256000Y-88066000D01*
G75*
G02*
X136481000Y-87841000I225000J0D01*
G01*
X136981000Y-87841000D01*
G75*
G02*
X137206000Y-88066000I0J-225000D01*
G01*
X137206000Y-88516000D01*
G75*
G02*
X136981000Y-88741000I-225000J0D01*
G01*
G37*
G36*
G01*
X136981000Y-90291000D02*
X136481000Y-90291000D01*
G75*
G02*
X136256000Y-90066000I0J225000D01*
G01*
X136256000Y-89616000D01*
G75*
G02*
X136481000Y-89391000I225000J0D01*
G01*
X136981000Y-89391000D01*
G75*
G02*
X137206000Y-89616000I0J-225000D01*
G01*
X137206000Y-90066000D01*
G75*
G02*
X136981000Y-90291000I-225000J0D01*
G01*
G37*
%TD*%
M02*
