%TF.GenerationSoftware,KiCad,Pcbnew,(5.1.10)-1*%
%TF.CreationDate,2022-01-18T20:55:32+07:00*%
%TF.ProjectId,ADuM_I2C_v3_pnlz2x4,4144754d-5f49-4324-935f-76335f706e6c,rev?*%
%TF.SameCoordinates,Original*%
%TF.FileFunction,Profile,NP*%
%FSLAX46Y46*%
G04 Gerber Fmt 4.6, Leading zero omitted, Abs format (unit mm)*
G04 Created by KiCad (PCBNEW (5.1.10)-1) date 2022-01-18 20:55:32*
%MOMM*%
%LPD*%
G01*
G04 APERTURE LIST*
%TA.AperFunction,Profile*%
%ADD10C,0.100000*%
%TD*%
G04 APERTURE END LIST*
D10*
X51847000Y-91593000D02*
X51847000Y-41593000D01*
X101847000Y-91593000D02*
X51847000Y-91593000D01*
X101847000Y-41593000D02*
X101847000Y-91593000D01*
X51847000Y-41593000D02*
X101847000Y-41593000D01*
X90363000Y-89942000D02*
G75*
G03*
X90363000Y-89942000I-1016000J0D01*
G01*
X65363000Y-89942000D02*
G75*
G03*
X65363000Y-89942000I-1016000J0D01*
G01*
X90363000Y-77442000D02*
G75*
G03*
X90363000Y-77442000I-1016000J0D01*
G01*
X65363000Y-77442000D02*
G75*
G03*
X65363000Y-77442000I-1016000J0D01*
G01*
X90363000Y-64942000D02*
G75*
G03*
X90363000Y-64942000I-1016000J0D01*
G01*
X65363000Y-64942000D02*
G75*
G03*
X65363000Y-64942000I-1016000J0D01*
G01*
X90363000Y-52442000D02*
G75*
G03*
X90363000Y-52442000I-1016000J0D01*
G01*
X90363000Y-87529000D02*
G75*
G03*
X90363000Y-87529000I-1016000J0D01*
G01*
X65363000Y-87529000D02*
G75*
G03*
X65363000Y-87529000I-1016000J0D01*
G01*
X90363000Y-75029000D02*
G75*
G03*
X90363000Y-75029000I-1016000J0D01*
G01*
X65363000Y-75029000D02*
G75*
G03*
X65363000Y-75029000I-1016000J0D01*
G01*
X90363000Y-62529000D02*
G75*
G03*
X90363000Y-62529000I-1016000J0D01*
G01*
X65363000Y-62529000D02*
G75*
G03*
X65363000Y-62529000I-1016000J0D01*
G01*
X90363000Y-50029000D02*
G75*
G03*
X90363000Y-50029000I-1016000J0D01*
G01*
X90363000Y-89942000D02*
G75*
G03*
X90363000Y-89942000I-1016000J0D01*
G01*
X65363000Y-89942000D02*
G75*
G03*
X65363000Y-89942000I-1016000J0D01*
G01*
X90363000Y-77442000D02*
G75*
G03*
X90363000Y-77442000I-1016000J0D01*
G01*
X65363000Y-77442000D02*
G75*
G03*
X65363000Y-77442000I-1016000J0D01*
G01*
X90363000Y-64942000D02*
G75*
G03*
X90363000Y-64942000I-1016000J0D01*
G01*
X65363000Y-64942000D02*
G75*
G03*
X65363000Y-64942000I-1016000J0D01*
G01*
X90363000Y-52442000D02*
G75*
G03*
X90363000Y-52442000I-1016000J0D01*
G01*
X90363000Y-87529000D02*
G75*
G03*
X90363000Y-87529000I-1016000J0D01*
G01*
X65363000Y-87529000D02*
G75*
G03*
X65363000Y-87529000I-1016000J0D01*
G01*
X90363000Y-75029000D02*
G75*
G03*
X90363000Y-75029000I-1016000J0D01*
G01*
X65363000Y-75029000D02*
G75*
G03*
X65363000Y-75029000I-1016000J0D01*
G01*
X90363000Y-62529000D02*
G75*
G03*
X90363000Y-62529000I-1016000J0D01*
G01*
X65363000Y-62529000D02*
G75*
G03*
X65363000Y-62529000I-1016000J0D01*
G01*
X90363000Y-50029000D02*
G75*
G03*
X90363000Y-50029000I-1016000J0D01*
G01*
X65363000Y-50029000D02*
G75*
G03*
X65363000Y-50029000I-1016000J0D01*
G01*
X65363000Y-52442000D02*
G75*
G03*
X65363000Y-52442000I-1016000J0D01*
G01*
X65363000Y-50029000D02*
G75*
G03*
X65363000Y-50029000I-1016000J0D01*
G01*
X65363000Y-52442000D02*
G75*
G03*
X65363000Y-52442000I-1016000J0D01*
G01*
M02*
