%TF.GenerationSoftware,KiCad,Pcbnew,(5.1.10)-1*%
%TF.CreationDate,2022-01-17T18:26:10+07:00*%
%TF.ProjectId,ADuM_I2C_v3_pnlz2x4,4144754d-5f49-4324-935f-76335f706e6c,rev?*%
%TF.SameCoordinates,Original*%
%TF.FileFunction,Copper,L3,Inr*%
%TF.FilePolarity,Positive*%
%FSLAX46Y46*%
G04 Gerber Fmt 4.6, Leading zero omitted, Abs format (unit mm)*
G04 Created by KiCad (PCBNEW (5.1.10)-1) date 2022-01-17 18:26:10*
%MOMM*%
%LPD*%
G01*
G04 APERTURE LIST*
%TA.AperFunction,ComponentPad*%
%ADD10R,1.000000X1.000000*%
%TD*%
%TA.AperFunction,ComponentPad*%
%ADD11O,1.000000X1.000000*%
%TD*%
%TA.AperFunction,ViaPad*%
%ADD12C,0.800000*%
%TD*%
%TA.AperFunction,ViaPad*%
%ADD13C,1.100000*%
%TD*%
%TA.AperFunction,Conductor*%
%ADD14C,0.300000*%
%TD*%
G04 APERTURE END LIST*
D10*
%TO.N,VCCQ*%
%TO.C,J2*%
X146364000Y-125944000D03*
D11*
%TO.N,GND2*%
X146364000Y-127214000D03*
%TO.N,/SDAq*%
X145094000Y-125944000D03*
%TO.N,/SCLq*%
X145094000Y-127214000D03*
%TO.N,/outa*%
X143824000Y-125944000D03*
%TO.N,/inb*%
X143824000Y-127214000D03*
%TD*%
D10*
%TO.N,VCCQ*%
%TO.C,J2*%
X121364000Y-125944000D03*
D11*
%TO.N,GND2*%
X121364000Y-127214000D03*
%TO.N,/SDAq*%
X120094000Y-125944000D03*
%TO.N,/SCLq*%
X120094000Y-127214000D03*
%TO.N,/outa*%
X118824000Y-125944000D03*
%TO.N,/inb*%
X118824000Y-127214000D03*
%TD*%
D10*
%TO.N,VCCQ*%
%TO.C,J2*%
X146364000Y-113444000D03*
D11*
%TO.N,GND2*%
X146364000Y-114714000D03*
%TO.N,/SDAq*%
X145094000Y-113444000D03*
%TO.N,/SCLq*%
X145094000Y-114714000D03*
%TO.N,/outa*%
X143824000Y-113444000D03*
%TO.N,/inb*%
X143824000Y-114714000D03*
%TD*%
D10*
%TO.N,VCCQ*%
%TO.C,J2*%
X121364000Y-113444000D03*
D11*
%TO.N,GND2*%
X121364000Y-114714000D03*
%TO.N,/SDAq*%
X120094000Y-113444000D03*
%TO.N,/SCLq*%
X120094000Y-114714000D03*
%TO.N,/outa*%
X118824000Y-113444000D03*
%TO.N,/inb*%
X118824000Y-114714000D03*
%TD*%
D10*
%TO.N,VCCQ*%
%TO.C,J2*%
X146364000Y-100944000D03*
D11*
%TO.N,GND2*%
X146364000Y-102214000D03*
%TO.N,/SDAq*%
X145094000Y-100944000D03*
%TO.N,/SCLq*%
X145094000Y-102214000D03*
%TO.N,/outa*%
X143824000Y-100944000D03*
%TO.N,/inb*%
X143824000Y-102214000D03*
%TD*%
D10*
%TO.N,VCCQ*%
%TO.C,J2*%
X121364000Y-100944000D03*
D11*
%TO.N,GND2*%
X121364000Y-102214000D03*
%TO.N,/SDAq*%
X120094000Y-100944000D03*
%TO.N,/SCLq*%
X120094000Y-102214000D03*
%TO.N,/outa*%
X118824000Y-100944000D03*
%TO.N,/inb*%
X118824000Y-102214000D03*
%TD*%
D10*
%TO.N,VCCQ*%
%TO.C,J2*%
X146364000Y-88444000D03*
D11*
%TO.N,GND2*%
X146364000Y-89714000D03*
%TO.N,/SDAq*%
X145094000Y-88444000D03*
%TO.N,/SCLq*%
X145094000Y-89714000D03*
%TO.N,/outa*%
X143824000Y-88444000D03*
%TO.N,/inb*%
X143824000Y-89714000D03*
%TD*%
D10*
%TO.N,/ina*%
%TO.C,J1*%
X166176000Y-125944000D03*
D11*
%TO.N,/outb*%
X166176000Y-127214000D03*
%TO.N,/SDA*%
X164906000Y-125944000D03*
%TO.N,/SCL*%
X164906000Y-127214000D03*
%TO.N,VCC*%
X163636000Y-125944000D03*
%TO.N,GND*%
X163636000Y-127214000D03*
%TD*%
D10*
%TO.N,/ina*%
%TO.C,J1*%
X141176000Y-125944000D03*
D11*
%TO.N,/outb*%
X141176000Y-127214000D03*
%TO.N,/SDA*%
X139906000Y-125944000D03*
%TO.N,/SCL*%
X139906000Y-127214000D03*
%TO.N,VCC*%
X138636000Y-125944000D03*
%TO.N,GND*%
X138636000Y-127214000D03*
%TD*%
D10*
%TO.N,/ina*%
%TO.C,J1*%
X166176000Y-113444000D03*
D11*
%TO.N,/outb*%
X166176000Y-114714000D03*
%TO.N,/SDA*%
X164906000Y-113444000D03*
%TO.N,/SCL*%
X164906000Y-114714000D03*
%TO.N,VCC*%
X163636000Y-113444000D03*
%TO.N,GND*%
X163636000Y-114714000D03*
%TD*%
D10*
%TO.N,/ina*%
%TO.C,J1*%
X141176000Y-113444000D03*
D11*
%TO.N,/outb*%
X141176000Y-114714000D03*
%TO.N,/SDA*%
X139906000Y-113444000D03*
%TO.N,/SCL*%
X139906000Y-114714000D03*
%TO.N,VCC*%
X138636000Y-113444000D03*
%TO.N,GND*%
X138636000Y-114714000D03*
%TD*%
D10*
%TO.N,/ina*%
%TO.C,J1*%
X166176000Y-100944000D03*
D11*
%TO.N,/outb*%
X166176000Y-102214000D03*
%TO.N,/SDA*%
X164906000Y-100944000D03*
%TO.N,/SCL*%
X164906000Y-102214000D03*
%TO.N,VCC*%
X163636000Y-100944000D03*
%TO.N,GND*%
X163636000Y-102214000D03*
%TD*%
D10*
%TO.N,/ina*%
%TO.C,J1*%
X141176000Y-100944000D03*
D11*
%TO.N,/outb*%
X141176000Y-102214000D03*
%TO.N,/SDA*%
X139906000Y-100944000D03*
%TO.N,/SCL*%
X139906000Y-102214000D03*
%TO.N,VCC*%
X138636000Y-100944000D03*
%TO.N,GND*%
X138636000Y-102214000D03*
%TD*%
D10*
%TO.N,/ina*%
%TO.C,J1*%
X166176000Y-88444000D03*
D11*
%TO.N,/outb*%
X166176000Y-89714000D03*
%TO.N,/SDA*%
X164906000Y-88444000D03*
%TO.N,/SCL*%
X164906000Y-89714000D03*
%TO.N,VCC*%
X163636000Y-88444000D03*
%TO.N,GND*%
X163636000Y-89714000D03*
%TD*%
%TO.N,GND*%
%TO.C,J1*%
X138636000Y-89714000D03*
%TO.N,VCC*%
X138636000Y-88444000D03*
%TO.N,/SCL*%
X139906000Y-89714000D03*
%TO.N,/SDA*%
X139906000Y-88444000D03*
%TO.N,/outb*%
X141176000Y-89714000D03*
D10*
%TO.N,/ina*%
X141176000Y-88444000D03*
%TD*%
D11*
%TO.N,/inb*%
%TO.C,J2*%
X118824000Y-89714000D03*
%TO.N,/outa*%
X118824000Y-88444000D03*
%TO.N,/SCLq*%
X120094000Y-89714000D03*
%TO.N,/SDAq*%
X120094000Y-88444000D03*
%TO.N,GND2*%
X121364000Y-89714000D03*
D10*
%TO.N,VCCQ*%
X121364000Y-88444000D03*
%TD*%
D12*
%TO.N,VCC*%
X135207000Y-88291000D03*
D13*
X136731000Y-82856000D03*
D12*
X160207000Y-88291000D03*
X135207000Y-100791000D03*
X160207000Y-100791000D03*
X135207000Y-113291000D03*
X160207000Y-113291000D03*
X135207000Y-125791000D03*
X160207000Y-125791000D03*
D13*
X161731000Y-82856000D03*
X136731000Y-95356000D03*
X161731000Y-95356000D03*
X136731000Y-107856000D03*
X161731000Y-107856000D03*
X136731000Y-120356000D03*
X161731000Y-120356000D03*
D12*
%TO.N,GND*%
X135207000Y-89841000D03*
X160207000Y-89841000D03*
X135207000Y-102341000D03*
X160207000Y-102341000D03*
X135207000Y-114841000D03*
X160207000Y-114841000D03*
X135207000Y-127341000D03*
X160207000Y-127341000D03*
%TO.N,VCCQ*%
X124793000Y-88291000D03*
D13*
X123269000Y-82856000D03*
D12*
X149793000Y-88291000D03*
X124793000Y-100791000D03*
X149793000Y-100791000D03*
X124793000Y-113291000D03*
X149793000Y-113291000D03*
X124793000Y-125791000D03*
X149793000Y-125791000D03*
D13*
X148269000Y-82856000D03*
X123269000Y-95356000D03*
X148269000Y-95356000D03*
X123269000Y-107856000D03*
X148269000Y-107856000D03*
X123269000Y-120356000D03*
X148269000Y-120356000D03*
D12*
%TO.N,GND2*%
X124793000Y-89841000D03*
X149793000Y-89841000D03*
X124793000Y-102341000D03*
X149793000Y-102341000D03*
X124793000Y-114841000D03*
X149793000Y-114841000D03*
X124793000Y-127341000D03*
X149793000Y-127341000D03*
%TO.N,/SCL*%
X131903419Y-84379953D03*
X156903419Y-84379953D03*
X131903419Y-96879953D03*
X156903419Y-96879953D03*
X131903419Y-109379953D03*
X156903419Y-109379953D03*
X131903419Y-121879953D03*
X156903419Y-121879953D03*
%TO.N,/SDA*%
X132902990Y-84409645D03*
X157902990Y-84409645D03*
X132902990Y-96909645D03*
X157902990Y-96909645D03*
X132902990Y-109409645D03*
X157902990Y-109409645D03*
X132902990Y-121909645D03*
X157902990Y-121909645D03*
%TO.N,/SCLq*%
X128110140Y-81590919D03*
X153110140Y-81590919D03*
X128110140Y-94090919D03*
X153110140Y-94090919D03*
X128110140Y-106590919D03*
X153110140Y-106590919D03*
X128110140Y-119090919D03*
X153110140Y-119090919D03*
%TO.N,/SDAq*%
X127110247Y-81575469D03*
X152110247Y-81575469D03*
X127110247Y-94075469D03*
X152110247Y-94075469D03*
X127110247Y-106575469D03*
X152110247Y-106575469D03*
X127110247Y-119075469D03*
X152110247Y-119075469D03*
%TO.N,Net-(Q1-Pad2)*%
X134064000Y-87555000D03*
X135302898Y-85523004D03*
X159064000Y-87555000D03*
X134064000Y-100055000D03*
X159064000Y-100055000D03*
X134064000Y-112555000D03*
X159064000Y-112555000D03*
X134064000Y-125055000D03*
X159064000Y-125055000D03*
X160302898Y-85523004D03*
X135302898Y-98023004D03*
X160302898Y-98023004D03*
X135302898Y-110523004D03*
X160302898Y-110523004D03*
X135302898Y-123023004D03*
X160302898Y-123023004D03*
%TO.N,Net-(Q2-Pad2)*%
X134064000Y-89587000D03*
X133241533Y-82919496D03*
X159064000Y-89587000D03*
X134064000Y-102087000D03*
X159064000Y-102087000D03*
X134064000Y-114587000D03*
X159064000Y-114587000D03*
X134064000Y-127087000D03*
X159064000Y-127087000D03*
X158241533Y-82919496D03*
X133241533Y-95419496D03*
X158241533Y-95419496D03*
X133241533Y-107919496D03*
X158241533Y-107919496D03*
X133241533Y-120419496D03*
X158241533Y-120419496D03*
%TO.N,Net-(Q3-Pad2)*%
X134064000Y-88571000D03*
X138000994Y-85269000D03*
X159064000Y-88571000D03*
X134064000Y-101071000D03*
X159064000Y-101071000D03*
X134064000Y-113571000D03*
X159064000Y-113571000D03*
X134064000Y-126071000D03*
X159064000Y-126071000D03*
X163000994Y-85269000D03*
X138000994Y-97769000D03*
X163000994Y-97769000D03*
X138000994Y-110269000D03*
X163000994Y-110269000D03*
X138000994Y-122769000D03*
X163000994Y-122769000D03*
%TO.N,Net-(Q4-Pad2)*%
X134064000Y-90603000D03*
X140214811Y-82921996D03*
X159064000Y-90603000D03*
X134064000Y-103103000D03*
X159064000Y-103103000D03*
X134064000Y-115603000D03*
X159064000Y-115603000D03*
X134064000Y-128103000D03*
X159064000Y-128103000D03*
X165214811Y-82921996D03*
X140214811Y-95421996D03*
X165214811Y-95421996D03*
X140214811Y-107921996D03*
X165214811Y-107921996D03*
X140214811Y-120421996D03*
X165214811Y-120421996D03*
%TO.N,Net-(Q5-Pad2)*%
X124654010Y-86260265D03*
X125957705Y-87561379D03*
X149654010Y-86260265D03*
X124654010Y-98760265D03*
X149654010Y-98760265D03*
X124654010Y-111260265D03*
X149654010Y-111260265D03*
X124654010Y-123760265D03*
X149654010Y-123760265D03*
X150957705Y-87561379D03*
X125957705Y-100061379D03*
X150957705Y-100061379D03*
X125957705Y-112561379D03*
X150957705Y-112561379D03*
X125957705Y-125061379D03*
X150957705Y-125061379D03*
%TO.N,Net-(Q6-Pad2)*%
X125936000Y-89587000D03*
X126952000Y-83110000D03*
X150936000Y-89587000D03*
X125936000Y-102087000D03*
X150936000Y-102087000D03*
X125936000Y-114587000D03*
X150936000Y-114587000D03*
X125936000Y-127087000D03*
X150936000Y-127087000D03*
X151952000Y-83110000D03*
X126952000Y-95610000D03*
X151952000Y-95610000D03*
X126952000Y-108110000D03*
X151952000Y-108110000D03*
X126952000Y-120610000D03*
X151952000Y-120610000D03*
%TO.N,Net-(Q7-Pad2)*%
X119784577Y-82982726D03*
X125936000Y-88571000D03*
X144784577Y-82982726D03*
X119784577Y-95482726D03*
X144784577Y-95482726D03*
X119784577Y-107982726D03*
X144784577Y-107982726D03*
X119784577Y-120482726D03*
X144784577Y-120482726D03*
X150936000Y-88571000D03*
X125936000Y-101071000D03*
X150936000Y-101071000D03*
X125936000Y-113571000D03*
X150936000Y-113571000D03*
X125936000Y-126071000D03*
X150936000Y-126071000D03*
%TO.N,Net-(Q8-Pad2)*%
X125935957Y-90632135D03*
X120348000Y-86666000D03*
X150935957Y-90632135D03*
X125935957Y-103132135D03*
X150935957Y-103132135D03*
X125935957Y-115632135D03*
X150935957Y-115632135D03*
X125935957Y-128132135D03*
X150935957Y-128132135D03*
X145348000Y-86666000D03*
X120348000Y-99166000D03*
X145348000Y-99166000D03*
X120348000Y-111666000D03*
X145348000Y-111666000D03*
X120348000Y-124166000D03*
X145348000Y-124166000D03*
%TD*%
D14*
%TO.N,Net-(Q1-Pad2)*%
X135302898Y-86316102D02*
X135302898Y-85523004D01*
X134064000Y-87555000D02*
X135302898Y-86316102D01*
X135302898Y-86316102D02*
X135302898Y-85523004D01*
X134064000Y-87555000D02*
X135302898Y-86316102D01*
X160302898Y-86316102D02*
X160302898Y-85523004D01*
X135302898Y-98816102D02*
X135302898Y-98023004D01*
X160302898Y-98816102D02*
X160302898Y-98023004D01*
X135302898Y-111316102D02*
X135302898Y-110523004D01*
X160302898Y-111316102D02*
X160302898Y-110523004D01*
X135302898Y-123816102D02*
X135302898Y-123023004D01*
X160302898Y-123816102D02*
X160302898Y-123023004D01*
X159064000Y-87555000D02*
X160302898Y-86316102D01*
X134064000Y-100055000D02*
X135302898Y-98816102D01*
X159064000Y-100055000D02*
X160302898Y-98816102D01*
X134064000Y-112555000D02*
X135302898Y-111316102D01*
X159064000Y-112555000D02*
X160302898Y-111316102D01*
X134064000Y-125055000D02*
X135302898Y-123816102D01*
X159064000Y-125055000D02*
X160302898Y-123816102D01*
%TO.N,Net-(Q2-Pad2)*%
X134064000Y-89587000D02*
X133498315Y-89587000D01*
X133498315Y-89587000D02*
X133313999Y-89402684D01*
X133313999Y-89402684D02*
X133313999Y-87194999D01*
X133313999Y-87194999D02*
X133653631Y-86855367D01*
X133653631Y-86855367D02*
X133653631Y-83331594D01*
X133653631Y-83331594D02*
X133241533Y-82919496D01*
X134064000Y-89587000D02*
X133498315Y-89587000D01*
X133498315Y-89587000D02*
X133313999Y-89402684D01*
X133313999Y-89402684D02*
X133313999Y-87194999D01*
X133313999Y-87194999D02*
X133653631Y-86855367D01*
X133653631Y-86855367D02*
X133653631Y-83331594D01*
X133653631Y-83331594D02*
X133241533Y-82919496D01*
X159064000Y-89587000D02*
X158498315Y-89587000D01*
X134064000Y-102087000D02*
X133498315Y-102087000D01*
X159064000Y-102087000D02*
X158498315Y-102087000D01*
X134064000Y-114587000D02*
X133498315Y-114587000D01*
X159064000Y-114587000D02*
X158498315Y-114587000D01*
X134064000Y-127087000D02*
X133498315Y-127087000D01*
X159064000Y-127087000D02*
X158498315Y-127087000D01*
X158498315Y-89587000D02*
X158313999Y-89402684D01*
X133498315Y-102087000D02*
X133313999Y-101902684D01*
X158498315Y-102087000D02*
X158313999Y-101902684D01*
X133498315Y-114587000D02*
X133313999Y-114402684D01*
X158498315Y-114587000D02*
X158313999Y-114402684D01*
X133498315Y-127087000D02*
X133313999Y-126902684D01*
X158498315Y-127087000D02*
X158313999Y-126902684D01*
X158313999Y-89402684D02*
X158313999Y-87194999D01*
X133313999Y-101902684D02*
X133313999Y-99694999D01*
X158313999Y-101902684D02*
X158313999Y-99694999D01*
X133313999Y-114402684D02*
X133313999Y-112194999D01*
X158313999Y-114402684D02*
X158313999Y-112194999D01*
X133313999Y-126902684D02*
X133313999Y-124694999D01*
X158313999Y-126902684D02*
X158313999Y-124694999D01*
X158313999Y-87194999D02*
X158653631Y-86855367D01*
X133313999Y-99694999D02*
X133653631Y-99355367D01*
X158313999Y-99694999D02*
X158653631Y-99355367D01*
X133313999Y-112194999D02*
X133653631Y-111855367D01*
X158313999Y-112194999D02*
X158653631Y-111855367D01*
X133313999Y-124694999D02*
X133653631Y-124355367D01*
X158313999Y-124694999D02*
X158653631Y-124355367D01*
X158653631Y-86855367D02*
X158653631Y-83331594D01*
X133653631Y-99355367D02*
X133653631Y-95831594D01*
X158653631Y-99355367D02*
X158653631Y-95831594D01*
X133653631Y-111855367D02*
X133653631Y-108331594D01*
X158653631Y-111855367D02*
X158653631Y-108331594D01*
X133653631Y-124355367D02*
X133653631Y-120831594D01*
X158653631Y-124355367D02*
X158653631Y-120831594D01*
X158653631Y-83331594D02*
X158241533Y-82919496D01*
X133653631Y-95831594D02*
X133241533Y-95419496D01*
X158653631Y-95831594D02*
X158241533Y-95419496D01*
X133653631Y-108331594D02*
X133241533Y-107919496D01*
X158653631Y-108331594D02*
X158241533Y-107919496D01*
X133653631Y-120831594D02*
X133241533Y-120419496D01*
X158653631Y-120831594D02*
X158241533Y-120419496D01*
%TO.N,Net-(Q3-Pad2)*%
X138000994Y-86607008D02*
X138000994Y-85269000D01*
X135567001Y-89041001D02*
X138000994Y-86607008D01*
X134846999Y-89041001D02*
X135567001Y-89041001D01*
X134376998Y-88571000D02*
X134846999Y-89041001D01*
X134064000Y-88571000D02*
X134376998Y-88571000D01*
X138000994Y-86607008D02*
X138000994Y-85269000D01*
X135567001Y-89041001D02*
X138000994Y-86607008D01*
X134846999Y-89041001D02*
X135567001Y-89041001D01*
X134376998Y-88571000D02*
X134846999Y-89041001D01*
X134064000Y-88571000D02*
X134376998Y-88571000D01*
X163000994Y-86607008D02*
X163000994Y-85269000D01*
X138000994Y-99107008D02*
X138000994Y-97769000D01*
X163000994Y-99107008D02*
X163000994Y-97769000D01*
X138000994Y-111607008D02*
X138000994Y-110269000D01*
X163000994Y-111607008D02*
X163000994Y-110269000D01*
X138000994Y-124107008D02*
X138000994Y-122769000D01*
X163000994Y-124107008D02*
X163000994Y-122769000D01*
X160567001Y-89041001D02*
X163000994Y-86607008D01*
X135567001Y-101541001D02*
X138000994Y-99107008D01*
X160567001Y-101541001D02*
X163000994Y-99107008D01*
X135567001Y-114041001D02*
X138000994Y-111607008D01*
X160567001Y-114041001D02*
X163000994Y-111607008D01*
X135567001Y-126541001D02*
X138000994Y-124107008D01*
X160567001Y-126541001D02*
X163000994Y-124107008D01*
X159846999Y-89041001D02*
X160567001Y-89041001D01*
X134846999Y-101541001D02*
X135567001Y-101541001D01*
X159846999Y-101541001D02*
X160567001Y-101541001D01*
X134846999Y-114041001D02*
X135567001Y-114041001D01*
X159846999Y-114041001D02*
X160567001Y-114041001D01*
X134846999Y-126541001D02*
X135567001Y-126541001D01*
X159846999Y-126541001D02*
X160567001Y-126541001D01*
X159376998Y-88571000D02*
X159846999Y-89041001D01*
X134376998Y-101071000D02*
X134846999Y-101541001D01*
X159376998Y-101071000D02*
X159846999Y-101541001D01*
X134376998Y-113571000D02*
X134846999Y-114041001D01*
X159376998Y-113571000D02*
X159846999Y-114041001D01*
X134376998Y-126071000D02*
X134846999Y-126541001D01*
X159376998Y-126071000D02*
X159846999Y-126541001D01*
X159064000Y-88571000D02*
X159376998Y-88571000D01*
X134064000Y-101071000D02*
X134376998Y-101071000D01*
X159064000Y-101071000D02*
X159376998Y-101071000D01*
X134064000Y-113571000D02*
X134376998Y-113571000D01*
X159064000Y-113571000D02*
X159376998Y-113571000D01*
X134064000Y-126071000D02*
X134376998Y-126071000D01*
X159064000Y-126071000D02*
X159376998Y-126071000D01*
%TO.N,Net-(Q4-Pad2)*%
X138763000Y-84373807D02*
X140214811Y-82921996D01*
X138763000Y-86552122D02*
X138763000Y-84373807D01*
X135957001Y-89358121D02*
X138763000Y-86552122D01*
X135957001Y-90201001D02*
X135957001Y-89358121D01*
X135555002Y-90603000D02*
X135957001Y-90201001D01*
X134064000Y-90603000D02*
X135555002Y-90603000D01*
X138763000Y-84373807D02*
X140214811Y-82921996D01*
X138763000Y-86552122D02*
X138763000Y-84373807D01*
X135957001Y-89358121D02*
X138763000Y-86552122D01*
X135957001Y-90201001D02*
X135957001Y-89358121D01*
X135555002Y-90603000D02*
X135957001Y-90201001D01*
X134064000Y-90603000D02*
X135555002Y-90603000D01*
X163763000Y-84373807D02*
X165214811Y-82921996D01*
X138763000Y-96873807D02*
X140214811Y-95421996D01*
X163763000Y-96873807D02*
X165214811Y-95421996D01*
X138763000Y-109373807D02*
X140214811Y-107921996D01*
X163763000Y-109373807D02*
X165214811Y-107921996D01*
X138763000Y-121873807D02*
X140214811Y-120421996D01*
X163763000Y-121873807D02*
X165214811Y-120421996D01*
X163763000Y-86552122D02*
X163763000Y-84373807D01*
X138763000Y-99052122D02*
X138763000Y-96873807D01*
X163763000Y-99052122D02*
X163763000Y-96873807D01*
X138763000Y-111552122D02*
X138763000Y-109373807D01*
X163763000Y-111552122D02*
X163763000Y-109373807D01*
X138763000Y-124052122D02*
X138763000Y-121873807D01*
X163763000Y-124052122D02*
X163763000Y-121873807D01*
X160957001Y-89358121D02*
X163763000Y-86552122D01*
X135957001Y-101858121D02*
X138763000Y-99052122D01*
X160957001Y-101858121D02*
X163763000Y-99052122D01*
X135957001Y-114358121D02*
X138763000Y-111552122D01*
X160957001Y-114358121D02*
X163763000Y-111552122D01*
X135957001Y-126858121D02*
X138763000Y-124052122D01*
X160957001Y-126858121D02*
X163763000Y-124052122D01*
X160957001Y-90201001D02*
X160957001Y-89358121D01*
X135957001Y-102701001D02*
X135957001Y-101858121D01*
X160957001Y-102701001D02*
X160957001Y-101858121D01*
X135957001Y-115201001D02*
X135957001Y-114358121D01*
X160957001Y-115201001D02*
X160957001Y-114358121D01*
X135957001Y-127701001D02*
X135957001Y-126858121D01*
X160957001Y-127701001D02*
X160957001Y-126858121D01*
X160555002Y-90603000D02*
X160957001Y-90201001D01*
X135555002Y-103103000D02*
X135957001Y-102701001D01*
X160555002Y-103103000D02*
X160957001Y-102701001D01*
X135555002Y-115603000D02*
X135957001Y-115201001D01*
X160555002Y-115603000D02*
X160957001Y-115201001D01*
X135555002Y-128103000D02*
X135957001Y-127701001D01*
X160555002Y-128103000D02*
X160957001Y-127701001D01*
X159064000Y-90603000D02*
X160555002Y-90603000D01*
X134064000Y-103103000D02*
X135555002Y-103103000D01*
X159064000Y-103103000D02*
X160555002Y-103103000D01*
X134064000Y-115603000D02*
X135555002Y-115603000D01*
X159064000Y-115603000D02*
X160555002Y-115603000D01*
X134064000Y-128103000D02*
X135555002Y-128103000D01*
X159064000Y-128103000D02*
X160555002Y-128103000D01*
%TO.N,Net-(Q5-Pad2)*%
X125955124Y-87561379D02*
X125957705Y-87561379D01*
X124654010Y-86260265D02*
X125955124Y-87561379D01*
X125955124Y-87561379D02*
X125957705Y-87561379D01*
X124654010Y-86260265D02*
X125955124Y-87561379D01*
X150955124Y-87561379D02*
X150957705Y-87561379D01*
X125955124Y-100061379D02*
X125957705Y-100061379D01*
X150955124Y-100061379D02*
X150957705Y-100061379D01*
X125955124Y-112561379D02*
X125957705Y-112561379D01*
X150955124Y-112561379D02*
X150957705Y-112561379D01*
X125955124Y-125061379D02*
X125957705Y-125061379D01*
X150955124Y-125061379D02*
X150957705Y-125061379D01*
X149654010Y-86260265D02*
X150955124Y-87561379D01*
X124654010Y-98760265D02*
X125955124Y-100061379D01*
X149654010Y-98760265D02*
X150955124Y-100061379D01*
X124654010Y-111260265D02*
X125955124Y-112561379D01*
X149654010Y-111260265D02*
X150955124Y-112561379D01*
X124654010Y-123760265D02*
X125955124Y-125061379D01*
X149654010Y-123760265D02*
X150955124Y-125061379D01*
%TO.N,Net-(Q6-Pad2)*%
X126501685Y-89587000D02*
X125936000Y-89587000D01*
X126952000Y-89136685D02*
X126501685Y-89587000D01*
X126952000Y-83110000D02*
X126952000Y-89136685D01*
X126501685Y-89587000D02*
X125936000Y-89587000D01*
X126952000Y-89136685D02*
X126501685Y-89587000D01*
X126952000Y-83110000D02*
X126952000Y-89136685D01*
X151501685Y-89587000D02*
X150936000Y-89587000D01*
X126501685Y-102087000D02*
X125936000Y-102087000D01*
X151501685Y-102087000D02*
X150936000Y-102087000D01*
X126501685Y-114587000D02*
X125936000Y-114587000D01*
X151501685Y-114587000D02*
X150936000Y-114587000D01*
X126501685Y-127087000D02*
X125936000Y-127087000D01*
X151501685Y-127087000D02*
X150936000Y-127087000D01*
X151952000Y-89136685D02*
X151501685Y-89587000D01*
X126952000Y-101636685D02*
X126501685Y-102087000D01*
X151952000Y-101636685D02*
X151501685Y-102087000D01*
X126952000Y-114136685D02*
X126501685Y-114587000D01*
X151952000Y-114136685D02*
X151501685Y-114587000D01*
X126952000Y-126636685D02*
X126501685Y-127087000D01*
X151952000Y-126636685D02*
X151501685Y-127087000D01*
X151952000Y-83110000D02*
X151952000Y-89136685D01*
X126952000Y-95610000D02*
X126952000Y-101636685D01*
X151952000Y-95610000D02*
X151952000Y-101636685D01*
X126952000Y-108110000D02*
X126952000Y-114136685D01*
X151952000Y-108110000D02*
X151952000Y-114136685D01*
X126952000Y-120610000D02*
X126952000Y-126636685D01*
X151952000Y-120610000D02*
X151952000Y-126636685D01*
%TO.N,Net-(Q7-Pad2)*%
X125841998Y-88571000D02*
X125936000Y-88571000D01*
X125371997Y-89041001D02*
X125841998Y-88571000D01*
X124432999Y-89041001D02*
X125371997Y-89041001D01*
X119784577Y-84392579D02*
X124432999Y-89041001D01*
X119784577Y-82982726D02*
X119784577Y-84392579D01*
X125841998Y-88571000D02*
X125936000Y-88571000D01*
X125371997Y-89041001D02*
X125841998Y-88571000D01*
X124432999Y-89041001D02*
X125371997Y-89041001D01*
X119784577Y-84392579D02*
X124432999Y-89041001D01*
X119784577Y-82982726D02*
X119784577Y-84392579D01*
X150841998Y-88571000D02*
X150936000Y-88571000D01*
X125841998Y-101071000D02*
X125936000Y-101071000D01*
X150841998Y-101071000D02*
X150936000Y-101071000D01*
X125841998Y-113571000D02*
X125936000Y-113571000D01*
X150841998Y-113571000D02*
X150936000Y-113571000D01*
X125841998Y-126071000D02*
X125936000Y-126071000D01*
X150841998Y-126071000D02*
X150936000Y-126071000D01*
X150371997Y-89041001D02*
X150841998Y-88571000D01*
X125371997Y-101541001D02*
X125841998Y-101071000D01*
X150371997Y-101541001D02*
X150841998Y-101071000D01*
X125371997Y-114041001D02*
X125841998Y-113571000D01*
X150371997Y-114041001D02*
X150841998Y-113571000D01*
X125371997Y-126541001D02*
X125841998Y-126071000D01*
X150371997Y-126541001D02*
X150841998Y-126071000D01*
X149432999Y-89041001D02*
X150371997Y-89041001D01*
X124432999Y-101541001D02*
X125371997Y-101541001D01*
X149432999Y-101541001D02*
X150371997Y-101541001D01*
X124432999Y-114041001D02*
X125371997Y-114041001D01*
X149432999Y-114041001D02*
X150371997Y-114041001D01*
X124432999Y-126541001D02*
X125371997Y-126541001D01*
X149432999Y-126541001D02*
X150371997Y-126541001D01*
X144784577Y-84392579D02*
X149432999Y-89041001D01*
X119784577Y-96892579D02*
X124432999Y-101541001D01*
X144784577Y-96892579D02*
X149432999Y-101541001D01*
X119784577Y-109392579D02*
X124432999Y-114041001D01*
X144784577Y-109392579D02*
X149432999Y-114041001D01*
X119784577Y-121892579D02*
X124432999Y-126541001D01*
X144784577Y-121892579D02*
X149432999Y-126541001D01*
X144784577Y-82982726D02*
X144784577Y-84392579D01*
X119784577Y-95482726D02*
X119784577Y-96892579D01*
X144784577Y-95482726D02*
X144784577Y-96892579D01*
X119784577Y-107982726D02*
X119784577Y-109392579D01*
X144784577Y-107982726D02*
X144784577Y-109392579D01*
X119784577Y-120482726D02*
X119784577Y-121892579D01*
X144784577Y-120482726D02*
X144784577Y-121892579D01*
%TO.N,Net-(Q8-Pad2)*%
X124042999Y-89492997D02*
X124042999Y-90201001D01*
X124474133Y-90632135D02*
X125935957Y-90632135D01*
X121216002Y-86666000D02*
X124042999Y-89492997D01*
X124042999Y-90201001D02*
X124474133Y-90632135D01*
X120348000Y-86666000D02*
X121216002Y-86666000D01*
X124042999Y-89492997D02*
X124042999Y-90201001D01*
X124474133Y-90632135D02*
X125935957Y-90632135D01*
X121216002Y-86666000D02*
X124042999Y-89492997D01*
X124042999Y-90201001D02*
X124474133Y-90632135D01*
X120348000Y-86666000D02*
X121216002Y-86666000D01*
X149042999Y-89492997D02*
X149042999Y-90201001D01*
X124042999Y-101992997D02*
X124042999Y-102701001D01*
X149042999Y-101992997D02*
X149042999Y-102701001D01*
X124042999Y-114492997D02*
X124042999Y-115201001D01*
X149042999Y-114492997D02*
X149042999Y-115201001D01*
X124042999Y-126992997D02*
X124042999Y-127701001D01*
X149042999Y-126992997D02*
X149042999Y-127701001D01*
X149474133Y-90632135D02*
X150935957Y-90632135D01*
X124474133Y-103132135D02*
X125935957Y-103132135D01*
X149474133Y-103132135D02*
X150935957Y-103132135D01*
X124474133Y-115632135D02*
X125935957Y-115632135D01*
X149474133Y-115632135D02*
X150935957Y-115632135D01*
X124474133Y-128132135D02*
X125935957Y-128132135D01*
X149474133Y-128132135D02*
X150935957Y-128132135D01*
X146216002Y-86666000D02*
X149042999Y-89492997D01*
X121216002Y-99166000D02*
X124042999Y-101992997D01*
X146216002Y-99166000D02*
X149042999Y-101992997D01*
X121216002Y-111666000D02*
X124042999Y-114492997D01*
X146216002Y-111666000D02*
X149042999Y-114492997D01*
X121216002Y-124166000D02*
X124042999Y-126992997D01*
X146216002Y-124166000D02*
X149042999Y-126992997D01*
X149042999Y-90201001D02*
X149474133Y-90632135D01*
X124042999Y-102701001D02*
X124474133Y-103132135D01*
X149042999Y-102701001D02*
X149474133Y-103132135D01*
X124042999Y-115201001D02*
X124474133Y-115632135D01*
X149042999Y-115201001D02*
X149474133Y-115632135D01*
X124042999Y-127701001D02*
X124474133Y-128132135D01*
X149042999Y-127701001D02*
X149474133Y-128132135D01*
X145348000Y-86666000D02*
X146216002Y-86666000D01*
X120348000Y-99166000D02*
X121216002Y-99166000D01*
X145348000Y-99166000D02*
X146216002Y-99166000D01*
X120348000Y-111666000D02*
X121216002Y-111666000D01*
X145348000Y-111666000D02*
X146216002Y-111666000D01*
X120348000Y-124166000D02*
X121216002Y-124166000D01*
X145348000Y-124166000D02*
X146216002Y-124166000D01*
%TD*%
M02*
