M48
; DRILL file {KiCad (5.1.10)-1} date 01/18/22 10:01:57
; FORMAT={3:3/ absolute / metric / keep zeros}
; #@! TF.CreationDate,2022-01-18T10:01:57+07:00
; #@! TF.GenerationSoftware,Kicad,Pcbnew,(5.1.10)-1
; #@! TF.FileFunction,Plated,1,4,PTH
FMAT,2
METRIC
T1C0.400
T2C0.600
T3C0.650
%
G90
G05
T1
X051785Y-051983
X051785Y-064483
X051785Y-076983
X051785Y-089483
X052348Y-055666
X052348Y-068166
X052348Y-080666
X052348Y-093166
X056654Y-055260
X056654Y-067760
X056654Y-080260
X056654Y-092760
X056793Y-057291
X056793Y-058841
X056793Y-069791
X056793Y-071341
X056793Y-082291
X056793Y-083841
X056793Y-094791
X056793Y-096341
X057936Y-059632
X057936Y-072132
X057936Y-084632
X057936Y-097132
X057936Y-057571
X057936Y-058587
X057936Y-070071
X057936Y-071087
X057936Y-082571
X057936Y-083587
X057936Y-095071
X057936Y-096087
X057958Y-056561
X057958Y-069061
X057958Y-081561
X057958Y-094061
X058952Y-052110
X058952Y-064610
X058952Y-077110
X058952Y-089610
X059110Y-050575
X059110Y-063075
X059110Y-075575
X059110Y-088075
X060110Y-050591
X060110Y-063091
X060110Y-075591
X060110Y-088091
X063903Y-053380
X063903Y-065880
X063903Y-078380
X063903Y-090880
X064903Y-053410
X064903Y-065910
X064903Y-078410
X064903Y-090910
X065242Y-051919
X065242Y-064419
X065242Y-076919
X065242Y-089419
X066064Y-056555
X066064Y-057571
X066064Y-058587
X066064Y-059603
X066064Y-069055
X066064Y-070071
X066064Y-071087
X066064Y-072103
X066064Y-081555
X066064Y-082571
X066064Y-083587
X066064Y-084603
X066064Y-094055
X066064Y-095071
X066064Y-096087
X066064Y-097103
X067207Y-057291
X067207Y-058841
X067207Y-069791
X067207Y-071341
X067207Y-082291
X067207Y-083841
X067207Y-094791
X067207Y-096341
X067303Y-054523
X067303Y-067023
X067303Y-079523
X067303Y-092023
X070001Y-054269
X070001Y-066769
X070001Y-079269
X070001Y-091769
X072215Y-051922
X072215Y-064422
X072215Y-076922
X072215Y-089422
X076785Y-051983
X076785Y-064483
X076785Y-076983
X076785Y-089483
X077348Y-055666
X077348Y-068166
X077348Y-080666
X077348Y-093166
X081654Y-055260
X081654Y-067760
X081654Y-080260
X081654Y-092760
X081793Y-057291
X081793Y-058841
X081793Y-069791
X081793Y-071341
X081793Y-082291
X081793Y-083841
X081793Y-094791
X081793Y-096341
X082936Y-059632
X082936Y-072132
X082936Y-084632
X082936Y-097132
X082936Y-057571
X082936Y-058587
X082936Y-070071
X082936Y-071087
X082936Y-082571
X082936Y-083587
X082936Y-095071
X082936Y-096087
X082958Y-056561
X082958Y-069061
X082958Y-081561
X082958Y-094061
X083952Y-052110
X083952Y-064610
X083952Y-077110
X083952Y-089610
X084110Y-050575
X084110Y-063075
X084110Y-075575
X084110Y-088075
X085110Y-050591
X085110Y-063091
X085110Y-075591
X085110Y-088091
X088903Y-053380
X088903Y-065880
X088903Y-078380
X088903Y-090880
X089903Y-053410
X089903Y-065910
X089903Y-078410
X089903Y-090910
X090242Y-051919
X090242Y-064419
X090242Y-076919
X090242Y-089419
X091064Y-056555
X091064Y-057571
X091064Y-058587
X091064Y-059603
X091064Y-069055
X091064Y-070071
X091064Y-071087
X091064Y-072103
X091064Y-081555
X091064Y-082571
X091064Y-083587
X091064Y-084603
X091064Y-094055
X091064Y-095071
X091064Y-096087
X091064Y-097103
X092207Y-057291
X092207Y-058841
X092207Y-069791
X092207Y-071341
X092207Y-082291
X092207Y-083841
X092207Y-094791
X092207Y-096341
X092303Y-054523
X092303Y-067023
X092303Y-079523
X092303Y-092023
X095001Y-054269
X095001Y-066769
X095001Y-079269
X095001Y-091769
X097215Y-051922
X097215Y-064422
X097215Y-076922
X097215Y-089422
T2
X055269Y-051856
X055269Y-064356
X055269Y-076856
X055269Y-089356
X068731Y-051856
X068731Y-064356
X068731Y-076856
X068731Y-089356
X080269Y-051856
X080269Y-064356
X080269Y-076856
X080269Y-089356
X093731Y-051856
X093731Y-064356
X093731Y-076856
X093731Y-089356
T3
X050824Y-057444
X050824Y-058714
X050824Y-069944
X050824Y-071214
X050824Y-082444
X050824Y-083714
X050824Y-094944
X050824Y-096214
X052094Y-057444
X052094Y-058714
X052094Y-069944
X052094Y-071214
X052094Y-082444
X052094Y-083714
X052094Y-094944
X052094Y-096214
X053364Y-057444
X053364Y-058714
X053364Y-069944
X053364Y-071214
X053364Y-082444
X053364Y-083714
X053364Y-094944
X053364Y-096214
X070636Y-057444
X070636Y-058714
X070636Y-069944
X070636Y-071214
X070636Y-082444
X070636Y-083714
X070636Y-094944
X070636Y-096214
X071906Y-057444
X071906Y-058714
X071906Y-069944
X071906Y-071214
X071906Y-082444
X071906Y-083714
X071906Y-094944
X071906Y-096214
X073176Y-057444
X073176Y-058714
X073176Y-069944
X073176Y-071214
X073176Y-082444
X073176Y-083714
X073176Y-094944
X073176Y-096214
X075824Y-057444
X075824Y-058714
X075824Y-069944
X075824Y-071214
X075824Y-082444
X075824Y-083714
X075824Y-094944
X075824Y-096214
X077094Y-057444
X077094Y-058714
X077094Y-069944
X077094Y-071214
X077094Y-082444
X077094Y-083714
X077094Y-094944
X077094Y-096214
X078364Y-057444
X078364Y-058714
X078364Y-069944
X078364Y-071214
X078364Y-082444
X078364Y-083714
X078364Y-094944
X078364Y-096214
X095636Y-057444
X095636Y-058714
X095636Y-069944
X095636Y-071214
X095636Y-082444
X095636Y-083714
X095636Y-094944
X095636Y-096214
X096906Y-057444
X096906Y-058714
X096906Y-069944
X096906Y-071214
X096906Y-082444
X096906Y-083714
X096906Y-094944
X096906Y-096214
X098176Y-057444
X098176Y-058714
X098176Y-069944
X098176Y-071214
X098176Y-082444
X098176Y-083714
X098176Y-094944
X098176Y-096214
T0
M30
