%TF.GenerationSoftware,KiCad,Pcbnew,(5.1.10)-1*%
%TF.CreationDate,2022-01-18T10:01:53+07:00*%
%TF.ProjectId,ADuM_I2C_v3_pnlz2x4,4144754d-5f49-4324-935f-76335f706e6c,rev?*%
%TF.SameCoordinates,Original*%
%TF.FileFunction,Copper,L2,Inr*%
%TF.FilePolarity,Positive*%
%FSLAX46Y46*%
G04 Gerber Fmt 4.6, Leading zero omitted, Abs format (unit mm)*
G04 Created by KiCad (PCBNEW (5.1.10)-1) date 2022-01-18 10:01:53*
%MOMM*%
%LPD*%
G01*
G04 APERTURE LIST*
%TA.AperFunction,ComponentPad*%
%ADD10R,1.000000X1.000000*%
%TD*%
%TA.AperFunction,ComponentPad*%
%ADD11O,1.000000X1.000000*%
%TD*%
%TA.AperFunction,ViaPad*%
%ADD12C,0.800000*%
%TD*%
%TA.AperFunction,ViaPad*%
%ADD13C,1.100000*%
%TD*%
%TA.AperFunction,Conductor*%
%ADD14C,0.300000*%
%TD*%
G04 APERTURE END LIST*
D10*
%TO.N,VCCQ*%
%TO.C,J2*%
X78364000Y-94944000D03*
D11*
%TO.N,GND2*%
X78364000Y-96214000D03*
%TO.N,/SDAq*%
X77094000Y-94944000D03*
%TO.N,/SCLq*%
X77094000Y-96214000D03*
%TO.N,/outa*%
X75824000Y-94944000D03*
%TO.N,/inb*%
X75824000Y-96214000D03*
%TD*%
D10*
%TO.N,VCCQ*%
%TO.C,J2*%
X53364000Y-94944000D03*
D11*
%TO.N,GND2*%
X53364000Y-96214000D03*
%TO.N,/SDAq*%
X52094000Y-94944000D03*
%TO.N,/SCLq*%
X52094000Y-96214000D03*
%TO.N,/outa*%
X50824000Y-94944000D03*
%TO.N,/inb*%
X50824000Y-96214000D03*
%TD*%
D10*
%TO.N,VCCQ*%
%TO.C,J2*%
X78364000Y-82444000D03*
D11*
%TO.N,GND2*%
X78364000Y-83714000D03*
%TO.N,/SDAq*%
X77094000Y-82444000D03*
%TO.N,/SCLq*%
X77094000Y-83714000D03*
%TO.N,/outa*%
X75824000Y-82444000D03*
%TO.N,/inb*%
X75824000Y-83714000D03*
%TD*%
D10*
%TO.N,VCCQ*%
%TO.C,J2*%
X53364000Y-82444000D03*
D11*
%TO.N,GND2*%
X53364000Y-83714000D03*
%TO.N,/SDAq*%
X52094000Y-82444000D03*
%TO.N,/SCLq*%
X52094000Y-83714000D03*
%TO.N,/outa*%
X50824000Y-82444000D03*
%TO.N,/inb*%
X50824000Y-83714000D03*
%TD*%
D10*
%TO.N,VCCQ*%
%TO.C,J2*%
X78364000Y-69944000D03*
D11*
%TO.N,GND2*%
X78364000Y-71214000D03*
%TO.N,/SDAq*%
X77094000Y-69944000D03*
%TO.N,/SCLq*%
X77094000Y-71214000D03*
%TO.N,/outa*%
X75824000Y-69944000D03*
%TO.N,/inb*%
X75824000Y-71214000D03*
%TD*%
D10*
%TO.N,VCCQ*%
%TO.C,J2*%
X53364000Y-69944000D03*
D11*
%TO.N,GND2*%
X53364000Y-71214000D03*
%TO.N,/SDAq*%
X52094000Y-69944000D03*
%TO.N,/SCLq*%
X52094000Y-71214000D03*
%TO.N,/outa*%
X50824000Y-69944000D03*
%TO.N,/inb*%
X50824000Y-71214000D03*
%TD*%
D10*
%TO.N,VCCQ*%
%TO.C,J2*%
X78364000Y-57444000D03*
D11*
%TO.N,GND2*%
X78364000Y-58714000D03*
%TO.N,/SDAq*%
X77094000Y-57444000D03*
%TO.N,/SCLq*%
X77094000Y-58714000D03*
%TO.N,/outa*%
X75824000Y-57444000D03*
%TO.N,/inb*%
X75824000Y-58714000D03*
%TD*%
D10*
%TO.N,/ina*%
%TO.C,J1*%
X98176000Y-94944000D03*
D11*
%TO.N,/outb*%
X98176000Y-96214000D03*
%TO.N,/SDA*%
X96906000Y-94944000D03*
%TO.N,/SCL*%
X96906000Y-96214000D03*
%TO.N,VCC*%
X95636000Y-94944000D03*
%TO.N,GND*%
X95636000Y-96214000D03*
%TD*%
D10*
%TO.N,/ina*%
%TO.C,J1*%
X73176000Y-94944000D03*
D11*
%TO.N,/outb*%
X73176000Y-96214000D03*
%TO.N,/SDA*%
X71906000Y-94944000D03*
%TO.N,/SCL*%
X71906000Y-96214000D03*
%TO.N,VCC*%
X70636000Y-94944000D03*
%TO.N,GND*%
X70636000Y-96214000D03*
%TD*%
D10*
%TO.N,/ina*%
%TO.C,J1*%
X98176000Y-82444000D03*
D11*
%TO.N,/outb*%
X98176000Y-83714000D03*
%TO.N,/SDA*%
X96906000Y-82444000D03*
%TO.N,/SCL*%
X96906000Y-83714000D03*
%TO.N,VCC*%
X95636000Y-82444000D03*
%TO.N,GND*%
X95636000Y-83714000D03*
%TD*%
D10*
%TO.N,/ina*%
%TO.C,J1*%
X73176000Y-82444000D03*
D11*
%TO.N,/outb*%
X73176000Y-83714000D03*
%TO.N,/SDA*%
X71906000Y-82444000D03*
%TO.N,/SCL*%
X71906000Y-83714000D03*
%TO.N,VCC*%
X70636000Y-82444000D03*
%TO.N,GND*%
X70636000Y-83714000D03*
%TD*%
D10*
%TO.N,/ina*%
%TO.C,J1*%
X98176000Y-69944000D03*
D11*
%TO.N,/outb*%
X98176000Y-71214000D03*
%TO.N,/SDA*%
X96906000Y-69944000D03*
%TO.N,/SCL*%
X96906000Y-71214000D03*
%TO.N,VCC*%
X95636000Y-69944000D03*
%TO.N,GND*%
X95636000Y-71214000D03*
%TD*%
D10*
%TO.N,/ina*%
%TO.C,J1*%
X73176000Y-69944000D03*
D11*
%TO.N,/outb*%
X73176000Y-71214000D03*
%TO.N,/SDA*%
X71906000Y-69944000D03*
%TO.N,/SCL*%
X71906000Y-71214000D03*
%TO.N,VCC*%
X70636000Y-69944000D03*
%TO.N,GND*%
X70636000Y-71214000D03*
%TD*%
D10*
%TO.N,/ina*%
%TO.C,J1*%
X98176000Y-57444000D03*
D11*
%TO.N,/outb*%
X98176000Y-58714000D03*
%TO.N,/SDA*%
X96906000Y-57444000D03*
%TO.N,/SCL*%
X96906000Y-58714000D03*
%TO.N,VCC*%
X95636000Y-57444000D03*
%TO.N,GND*%
X95636000Y-58714000D03*
%TD*%
%TO.N,GND*%
%TO.C,J1*%
X70636000Y-58714000D03*
%TO.N,VCC*%
X70636000Y-57444000D03*
%TO.N,/SCL*%
X71906000Y-58714000D03*
%TO.N,/SDA*%
X71906000Y-57444000D03*
%TO.N,/outb*%
X73176000Y-58714000D03*
D10*
%TO.N,/ina*%
X73176000Y-57444000D03*
%TD*%
D11*
%TO.N,/inb*%
%TO.C,J2*%
X50824000Y-58714000D03*
%TO.N,/outa*%
X50824000Y-57444000D03*
%TO.N,/SCLq*%
X52094000Y-58714000D03*
%TO.N,/SDAq*%
X52094000Y-57444000D03*
%TO.N,GND2*%
X53364000Y-58714000D03*
D10*
%TO.N,VCCQ*%
X53364000Y-57444000D03*
%TD*%
D12*
%TO.N,VCC*%
X67207000Y-57291000D03*
D13*
X68731000Y-51856000D03*
D12*
X92207000Y-57291000D03*
X67207000Y-69791000D03*
X92207000Y-69791000D03*
X67207000Y-82291000D03*
X92207000Y-82291000D03*
X67207000Y-94791000D03*
X92207000Y-94791000D03*
D13*
X93731000Y-51856000D03*
X68731000Y-64356000D03*
X93731000Y-64356000D03*
X68731000Y-76856000D03*
X93731000Y-76856000D03*
X68731000Y-89356000D03*
X93731000Y-89356000D03*
D12*
%TO.N,GND*%
X67207000Y-58841000D03*
X92207000Y-58841000D03*
X67207000Y-71341000D03*
X92207000Y-71341000D03*
X67207000Y-83841000D03*
X92207000Y-83841000D03*
X67207000Y-96341000D03*
X92207000Y-96341000D03*
%TO.N,VCCQ*%
X56793000Y-57291000D03*
D13*
X55269000Y-51856000D03*
D12*
X81793000Y-57291000D03*
X56793000Y-69791000D03*
X81793000Y-69791000D03*
X56793000Y-82291000D03*
X81793000Y-82291000D03*
X56793000Y-94791000D03*
X81793000Y-94791000D03*
D13*
X80269000Y-51856000D03*
X55269000Y-64356000D03*
X80269000Y-64356000D03*
X55269000Y-76856000D03*
X80269000Y-76856000D03*
X55269000Y-89356000D03*
X80269000Y-89356000D03*
D12*
%TO.N,GND2*%
X56793000Y-58841000D03*
X81793000Y-58841000D03*
X56793000Y-71341000D03*
X81793000Y-71341000D03*
X56793000Y-83841000D03*
X81793000Y-83841000D03*
X56793000Y-96341000D03*
X81793000Y-96341000D03*
%TO.N,/SCL*%
X63903419Y-53379953D03*
X88903419Y-53379953D03*
X63903419Y-65879953D03*
X88903419Y-65879953D03*
X63903419Y-78379953D03*
X88903419Y-78379953D03*
X63903419Y-90879953D03*
X88903419Y-90879953D03*
%TO.N,/SDA*%
X64902990Y-53409645D03*
X89902990Y-53409645D03*
X64902990Y-65909645D03*
X89902990Y-65909645D03*
X64902990Y-78409645D03*
X89902990Y-78409645D03*
X64902990Y-90909645D03*
X89902990Y-90909645D03*
%TO.N,/SCLq*%
X60110140Y-50590919D03*
X85110140Y-50590919D03*
X60110140Y-63090919D03*
X85110140Y-63090919D03*
X60110140Y-75590919D03*
X85110140Y-75590919D03*
X60110140Y-88090919D03*
X85110140Y-88090919D03*
%TO.N,/SDAq*%
X59110247Y-50575469D03*
X84110247Y-50575469D03*
X59110247Y-63075469D03*
X84110247Y-63075469D03*
X59110247Y-75575469D03*
X84110247Y-75575469D03*
X59110247Y-88075469D03*
X84110247Y-88075469D03*
%TO.N,Net-(Q1-Pad2)*%
X66064000Y-56555000D03*
X67302898Y-54523004D03*
X91064000Y-56555000D03*
X66064000Y-69055000D03*
X91064000Y-69055000D03*
X66064000Y-81555000D03*
X91064000Y-81555000D03*
X66064000Y-94055000D03*
X91064000Y-94055000D03*
X92302898Y-54523004D03*
X67302898Y-67023004D03*
X92302898Y-67023004D03*
X67302898Y-79523004D03*
X92302898Y-79523004D03*
X67302898Y-92023004D03*
X92302898Y-92023004D03*
%TO.N,Net-(Q2-Pad2)*%
X66064000Y-58587000D03*
X65241533Y-51919496D03*
X91064000Y-58587000D03*
X66064000Y-71087000D03*
X91064000Y-71087000D03*
X66064000Y-83587000D03*
X91064000Y-83587000D03*
X66064000Y-96087000D03*
X91064000Y-96087000D03*
X90241533Y-51919496D03*
X65241533Y-64419496D03*
X90241533Y-64419496D03*
X65241533Y-76919496D03*
X90241533Y-76919496D03*
X65241533Y-89419496D03*
X90241533Y-89419496D03*
%TO.N,Net-(Q3-Pad2)*%
X66064000Y-57571000D03*
X70000994Y-54269000D03*
X91064000Y-57571000D03*
X66064000Y-70071000D03*
X91064000Y-70071000D03*
X66064000Y-82571000D03*
X91064000Y-82571000D03*
X66064000Y-95071000D03*
X91064000Y-95071000D03*
X95000994Y-54269000D03*
X70000994Y-66769000D03*
X95000994Y-66769000D03*
X70000994Y-79269000D03*
X95000994Y-79269000D03*
X70000994Y-91769000D03*
X95000994Y-91769000D03*
%TO.N,Net-(Q4-Pad2)*%
X66064000Y-59603000D03*
X72214811Y-51921996D03*
X91064000Y-59603000D03*
X66064000Y-72103000D03*
X91064000Y-72103000D03*
X66064000Y-84603000D03*
X91064000Y-84603000D03*
X66064000Y-97103000D03*
X91064000Y-97103000D03*
X97214811Y-51921996D03*
X72214811Y-64421996D03*
X97214811Y-64421996D03*
X72214811Y-76921996D03*
X97214811Y-76921996D03*
X72214811Y-89421996D03*
X97214811Y-89421996D03*
%TO.N,Net-(Q5-Pad2)*%
X56654010Y-55260265D03*
X57957705Y-56561379D03*
X81654010Y-55260265D03*
X56654010Y-67760265D03*
X81654010Y-67760265D03*
X56654010Y-80260265D03*
X81654010Y-80260265D03*
X56654010Y-92760265D03*
X81654010Y-92760265D03*
X82957705Y-56561379D03*
X57957705Y-69061379D03*
X82957705Y-69061379D03*
X57957705Y-81561379D03*
X82957705Y-81561379D03*
X57957705Y-94061379D03*
X82957705Y-94061379D03*
%TO.N,Net-(Q6-Pad2)*%
X57936000Y-58587000D03*
X58952000Y-52110000D03*
X82936000Y-58587000D03*
X57936000Y-71087000D03*
X82936000Y-71087000D03*
X57936000Y-83587000D03*
X82936000Y-83587000D03*
X57936000Y-96087000D03*
X82936000Y-96087000D03*
X83952000Y-52110000D03*
X58952000Y-64610000D03*
X83952000Y-64610000D03*
X58952000Y-77110000D03*
X83952000Y-77110000D03*
X58952000Y-89610000D03*
X83952000Y-89610000D03*
%TO.N,Net-(Q7-Pad2)*%
X51784577Y-51982726D03*
X57936000Y-57571000D03*
X76784577Y-51982726D03*
X51784577Y-64482726D03*
X76784577Y-64482726D03*
X51784577Y-76982726D03*
X76784577Y-76982726D03*
X51784577Y-89482726D03*
X76784577Y-89482726D03*
X82936000Y-57571000D03*
X57936000Y-70071000D03*
X82936000Y-70071000D03*
X57936000Y-82571000D03*
X82936000Y-82571000D03*
X57936000Y-95071000D03*
X82936000Y-95071000D03*
%TO.N,Net-(Q8-Pad2)*%
X57935957Y-59632135D03*
X52348000Y-55666000D03*
X82935957Y-59632135D03*
X57935957Y-72132135D03*
X82935957Y-72132135D03*
X57935957Y-84632135D03*
X82935957Y-84632135D03*
X57935957Y-97132135D03*
X82935957Y-97132135D03*
X77348000Y-55666000D03*
X52348000Y-68166000D03*
X77348000Y-68166000D03*
X52348000Y-80666000D03*
X77348000Y-80666000D03*
X52348000Y-93166000D03*
X77348000Y-93166000D03*
%TD*%
D14*
%TO.N,/SCL*%
X71055999Y-59564001D02*
X71906000Y-58714000D01*
X70227999Y-59564001D02*
X71055999Y-59564001D01*
X69785999Y-58752999D02*
X69785999Y-59122001D01*
X66826000Y-55793000D02*
X69785999Y-58752999D01*
X69785999Y-59122001D02*
X70227999Y-59564001D01*
X65750781Y-55793000D02*
X66826000Y-55793000D01*
X63903419Y-53945638D02*
X65750781Y-55793000D01*
X63903419Y-53379953D02*
X63903419Y-53945638D01*
X71055999Y-59564001D02*
X71906000Y-58714000D01*
X70227999Y-59564001D02*
X71055999Y-59564001D01*
X69785999Y-58752999D02*
X69785999Y-59122001D01*
X66826000Y-55793000D02*
X69785999Y-58752999D01*
X69785999Y-59122001D02*
X70227999Y-59564001D01*
X65750781Y-55793000D02*
X66826000Y-55793000D01*
X63903419Y-53945638D02*
X65750781Y-55793000D01*
X63903419Y-53379953D02*
X63903419Y-53945638D01*
X96055999Y-59564001D02*
X96906000Y-58714000D01*
X71055999Y-72064001D02*
X71906000Y-71214000D01*
X96055999Y-72064001D02*
X96906000Y-71214000D01*
X71055999Y-84564001D02*
X71906000Y-83714000D01*
X96055999Y-84564001D02*
X96906000Y-83714000D01*
X71055999Y-97064001D02*
X71906000Y-96214000D01*
X96055999Y-97064001D02*
X96906000Y-96214000D01*
X95227999Y-59564001D02*
X96055999Y-59564001D01*
X70227999Y-72064001D02*
X71055999Y-72064001D01*
X95227999Y-72064001D02*
X96055999Y-72064001D01*
X70227999Y-84564001D02*
X71055999Y-84564001D01*
X95227999Y-84564001D02*
X96055999Y-84564001D01*
X70227999Y-97064001D02*
X71055999Y-97064001D01*
X95227999Y-97064001D02*
X96055999Y-97064001D01*
X94785999Y-58752999D02*
X94785999Y-59122001D01*
X69785999Y-71252999D02*
X69785999Y-71622001D01*
X94785999Y-71252999D02*
X94785999Y-71622001D01*
X69785999Y-83752999D02*
X69785999Y-84122001D01*
X94785999Y-83752999D02*
X94785999Y-84122001D01*
X69785999Y-96252999D02*
X69785999Y-96622001D01*
X94785999Y-96252999D02*
X94785999Y-96622001D01*
X91826000Y-55793000D02*
X94785999Y-58752999D01*
X66826000Y-68293000D02*
X69785999Y-71252999D01*
X91826000Y-68293000D02*
X94785999Y-71252999D01*
X66826000Y-80793000D02*
X69785999Y-83752999D01*
X91826000Y-80793000D02*
X94785999Y-83752999D01*
X66826000Y-93293000D02*
X69785999Y-96252999D01*
X91826000Y-93293000D02*
X94785999Y-96252999D01*
X94785999Y-59122001D02*
X95227999Y-59564001D01*
X69785999Y-71622001D02*
X70227999Y-72064001D01*
X94785999Y-71622001D02*
X95227999Y-72064001D01*
X69785999Y-84122001D02*
X70227999Y-84564001D01*
X94785999Y-84122001D02*
X95227999Y-84564001D01*
X69785999Y-96622001D02*
X70227999Y-97064001D01*
X94785999Y-96622001D02*
X95227999Y-97064001D01*
X90750781Y-55793000D02*
X91826000Y-55793000D01*
X65750781Y-68293000D02*
X66826000Y-68293000D01*
X90750781Y-68293000D02*
X91826000Y-68293000D01*
X65750781Y-80793000D02*
X66826000Y-80793000D01*
X90750781Y-80793000D02*
X91826000Y-80793000D01*
X65750781Y-93293000D02*
X66826000Y-93293000D01*
X90750781Y-93293000D02*
X91826000Y-93293000D01*
X88903419Y-53945638D02*
X90750781Y-55793000D01*
X63903419Y-66445638D02*
X65750781Y-68293000D01*
X88903419Y-66445638D02*
X90750781Y-68293000D01*
X63903419Y-78945638D02*
X65750781Y-80793000D01*
X88903419Y-78945638D02*
X90750781Y-80793000D01*
X63903419Y-91445638D02*
X65750781Y-93293000D01*
X88903419Y-91445638D02*
X90750781Y-93293000D01*
X88903419Y-53379953D02*
X88903419Y-53945638D01*
X63903419Y-65879953D02*
X63903419Y-66445638D01*
X88903419Y-65879953D02*
X88903419Y-66445638D01*
X63903419Y-78379953D02*
X63903419Y-78945638D01*
X88903419Y-78379953D02*
X88903419Y-78945638D01*
X63903419Y-90879953D02*
X63903419Y-91445638D01*
X88903419Y-90879953D02*
X88903419Y-91445638D01*
%TO.N,/SDA*%
X64902990Y-54123990D02*
X64902990Y-53409645D01*
X66071990Y-55292990D02*
X64902990Y-54123990D01*
X67087990Y-55292990D02*
X66071990Y-55292990D01*
X68350000Y-56555000D02*
X67087990Y-55292990D01*
X71017000Y-56555000D02*
X68350000Y-56555000D01*
X71906000Y-57444000D02*
X71017000Y-56555000D01*
X64902990Y-54123990D02*
X64902990Y-53409645D01*
X66071990Y-55292990D02*
X64902990Y-54123990D01*
X67087990Y-55292990D02*
X66071990Y-55292990D01*
X68350000Y-56555000D02*
X67087990Y-55292990D01*
X71017000Y-56555000D02*
X68350000Y-56555000D01*
X71906000Y-57444000D02*
X71017000Y-56555000D01*
X89902990Y-54123990D02*
X89902990Y-53409645D01*
X64902990Y-66623990D02*
X64902990Y-65909645D01*
X89902990Y-66623990D02*
X89902990Y-65909645D01*
X64902990Y-79123990D02*
X64902990Y-78409645D01*
X89902990Y-79123990D02*
X89902990Y-78409645D01*
X64902990Y-91623990D02*
X64902990Y-90909645D01*
X89902990Y-91623990D02*
X89902990Y-90909645D01*
X91071990Y-55292990D02*
X89902990Y-54123990D01*
X66071990Y-67792990D02*
X64902990Y-66623990D01*
X91071990Y-67792990D02*
X89902990Y-66623990D01*
X66071990Y-80292990D02*
X64902990Y-79123990D01*
X91071990Y-80292990D02*
X89902990Y-79123990D01*
X66071990Y-92792990D02*
X64902990Y-91623990D01*
X91071990Y-92792990D02*
X89902990Y-91623990D01*
X92087990Y-55292990D02*
X91071990Y-55292990D01*
X67087990Y-67792990D02*
X66071990Y-67792990D01*
X92087990Y-67792990D02*
X91071990Y-67792990D01*
X67087990Y-80292990D02*
X66071990Y-80292990D01*
X92087990Y-80292990D02*
X91071990Y-80292990D01*
X67087990Y-92792990D02*
X66071990Y-92792990D01*
X92087990Y-92792990D02*
X91071990Y-92792990D01*
X93350000Y-56555000D02*
X92087990Y-55292990D01*
X68350000Y-69055000D02*
X67087990Y-67792990D01*
X93350000Y-69055000D02*
X92087990Y-67792990D01*
X68350000Y-81555000D02*
X67087990Y-80292990D01*
X93350000Y-81555000D02*
X92087990Y-80292990D01*
X68350000Y-94055000D02*
X67087990Y-92792990D01*
X93350000Y-94055000D02*
X92087990Y-92792990D01*
X96017000Y-56555000D02*
X93350000Y-56555000D01*
X71017000Y-69055000D02*
X68350000Y-69055000D01*
X96017000Y-69055000D02*
X93350000Y-69055000D01*
X71017000Y-81555000D02*
X68350000Y-81555000D01*
X96017000Y-81555000D02*
X93350000Y-81555000D01*
X71017000Y-94055000D02*
X68350000Y-94055000D01*
X96017000Y-94055000D02*
X93350000Y-94055000D01*
X96906000Y-57444000D02*
X96017000Y-56555000D01*
X71906000Y-69944000D02*
X71017000Y-69055000D01*
X96906000Y-69944000D02*
X96017000Y-69055000D01*
X71906000Y-82444000D02*
X71017000Y-81555000D01*
X96906000Y-82444000D02*
X96017000Y-81555000D01*
X71906000Y-94944000D02*
X71017000Y-94055000D01*
X96906000Y-94944000D02*
X96017000Y-94055000D01*
%TO.N,/SCLq*%
X52944001Y-59564001D02*
X52094000Y-58714000D01*
X53772001Y-59564001D02*
X52944001Y-59564001D01*
X52105998Y-58714000D02*
X52955999Y-59564001D01*
X52955999Y-59564001D02*
X53772001Y-59564001D01*
X52094000Y-58714000D02*
X52105998Y-58714000D01*
X60110140Y-50685578D02*
X60110140Y-50590919D01*
X59470248Y-51325470D02*
X60110140Y-50685578D01*
X54253000Y-55698998D02*
X58626528Y-51325470D01*
X58626528Y-51325470D02*
X59470248Y-51325470D01*
X54253000Y-59083002D02*
X54253000Y-55698998D01*
X53772001Y-59564001D02*
X54253000Y-59083002D01*
X52944001Y-59564001D02*
X52094000Y-58714000D01*
X53772001Y-59564001D02*
X52944001Y-59564001D01*
X52105998Y-58714000D02*
X52955999Y-59564001D01*
X52955999Y-59564001D02*
X53772001Y-59564001D01*
X52094000Y-58714000D02*
X52105998Y-58714000D01*
X60110140Y-50685578D02*
X60110140Y-50590919D01*
X59470248Y-51325470D02*
X60110140Y-50685578D01*
X54253000Y-55698998D02*
X58626528Y-51325470D01*
X58626528Y-51325470D02*
X59470248Y-51325470D01*
X54253000Y-59083002D02*
X54253000Y-55698998D01*
X53772001Y-59564001D02*
X54253000Y-59083002D01*
X77944001Y-59564001D02*
X77094000Y-58714000D01*
X52944001Y-72064001D02*
X52094000Y-71214000D01*
X77944001Y-72064001D02*
X77094000Y-71214000D01*
X52944001Y-84564001D02*
X52094000Y-83714000D01*
X77944001Y-84564001D02*
X77094000Y-83714000D01*
X52944001Y-97064001D02*
X52094000Y-96214000D01*
X77944001Y-97064001D02*
X77094000Y-96214000D01*
X78772001Y-59564001D02*
X77944001Y-59564001D01*
X53772001Y-72064001D02*
X52944001Y-72064001D01*
X78772001Y-72064001D02*
X77944001Y-72064001D01*
X53772001Y-84564001D02*
X52944001Y-84564001D01*
X78772001Y-84564001D02*
X77944001Y-84564001D01*
X53772001Y-97064001D02*
X52944001Y-97064001D01*
X78772001Y-97064001D02*
X77944001Y-97064001D01*
X77105998Y-58714000D02*
X77955999Y-59564001D01*
X52105998Y-71214000D02*
X52955999Y-72064001D01*
X77105998Y-71214000D02*
X77955999Y-72064001D01*
X52105998Y-83714000D02*
X52955999Y-84564001D01*
X77105998Y-83714000D02*
X77955999Y-84564001D01*
X52105998Y-96214000D02*
X52955999Y-97064001D01*
X77105998Y-96214000D02*
X77955999Y-97064001D01*
X77955999Y-59564001D02*
X78772001Y-59564001D01*
X52955999Y-72064001D02*
X53772001Y-72064001D01*
X77955999Y-72064001D02*
X78772001Y-72064001D01*
X52955999Y-84564001D02*
X53772001Y-84564001D01*
X77955999Y-84564001D02*
X78772001Y-84564001D01*
X52955999Y-97064001D02*
X53772001Y-97064001D01*
X77955999Y-97064001D02*
X78772001Y-97064001D01*
X77094000Y-58714000D02*
X77105998Y-58714000D01*
X52094000Y-71214000D02*
X52105998Y-71214000D01*
X77094000Y-71214000D02*
X77105998Y-71214000D01*
X52094000Y-83714000D02*
X52105998Y-83714000D01*
X77094000Y-83714000D02*
X77105998Y-83714000D01*
X52094000Y-96214000D02*
X52105998Y-96214000D01*
X77094000Y-96214000D02*
X77105998Y-96214000D01*
X85110140Y-50685578D02*
X85110140Y-50590919D01*
X60110140Y-63185578D02*
X60110140Y-63090919D01*
X85110140Y-63185578D02*
X85110140Y-63090919D01*
X60110140Y-75685578D02*
X60110140Y-75590919D01*
X85110140Y-75685578D02*
X85110140Y-75590919D01*
X60110140Y-88185578D02*
X60110140Y-88090919D01*
X85110140Y-88185578D02*
X85110140Y-88090919D01*
X84470248Y-51325470D02*
X85110140Y-50685578D01*
X59470248Y-63825470D02*
X60110140Y-63185578D01*
X84470248Y-63825470D02*
X85110140Y-63185578D01*
X59470248Y-76325470D02*
X60110140Y-75685578D01*
X84470248Y-76325470D02*
X85110140Y-75685578D01*
X59470248Y-88825470D02*
X60110140Y-88185578D01*
X84470248Y-88825470D02*
X85110140Y-88185578D01*
X79253000Y-55698998D02*
X83626528Y-51325470D01*
X54253000Y-68198998D02*
X58626528Y-63825470D01*
X79253000Y-68198998D02*
X83626528Y-63825470D01*
X54253000Y-80698998D02*
X58626528Y-76325470D01*
X79253000Y-80698998D02*
X83626528Y-76325470D01*
X54253000Y-93198998D02*
X58626528Y-88825470D01*
X79253000Y-93198998D02*
X83626528Y-88825470D01*
X83626528Y-51325470D02*
X84470248Y-51325470D01*
X58626528Y-63825470D02*
X59470248Y-63825470D01*
X83626528Y-63825470D02*
X84470248Y-63825470D01*
X58626528Y-76325470D02*
X59470248Y-76325470D01*
X83626528Y-76325470D02*
X84470248Y-76325470D01*
X58626528Y-88825470D02*
X59470248Y-88825470D01*
X83626528Y-88825470D02*
X84470248Y-88825470D01*
X79253000Y-59083002D02*
X79253000Y-55698998D01*
X54253000Y-71583002D02*
X54253000Y-68198998D01*
X79253000Y-71583002D02*
X79253000Y-68198998D01*
X54253000Y-84083002D02*
X54253000Y-80698998D01*
X79253000Y-84083002D02*
X79253000Y-80698998D01*
X54253000Y-96583002D02*
X54253000Y-93198998D01*
X79253000Y-96583002D02*
X79253000Y-93198998D01*
X78772001Y-59564001D02*
X79253000Y-59083002D01*
X53772001Y-72064001D02*
X54253000Y-71583002D01*
X78772001Y-72064001D02*
X79253000Y-71583002D01*
X53772001Y-84564001D02*
X54253000Y-84083002D01*
X78772001Y-84564001D02*
X79253000Y-84083002D01*
X53772001Y-97064001D02*
X54253000Y-96583002D01*
X78772001Y-97064001D02*
X79253000Y-96583002D01*
%TO.N,/SDAq*%
X58544562Y-50575469D02*
X59110247Y-50575469D01*
X52094000Y-57026032D02*
X58544562Y-50575469D01*
X52094000Y-57444000D02*
X52094000Y-57026032D01*
X58544562Y-50575469D02*
X59110247Y-50575469D01*
X52094000Y-57026032D02*
X58544562Y-50575469D01*
X52094000Y-57444000D02*
X52094000Y-57026032D01*
X83544562Y-50575469D02*
X84110247Y-50575469D01*
X58544562Y-63075469D02*
X59110247Y-63075469D01*
X83544562Y-63075469D02*
X84110247Y-63075469D01*
X58544562Y-75575469D02*
X59110247Y-75575469D01*
X83544562Y-75575469D02*
X84110247Y-75575469D01*
X58544562Y-88075469D02*
X59110247Y-88075469D01*
X83544562Y-88075469D02*
X84110247Y-88075469D01*
X77094000Y-57026032D02*
X83544562Y-50575469D01*
X52094000Y-69526032D02*
X58544562Y-63075469D01*
X77094000Y-69526032D02*
X83544562Y-63075469D01*
X52094000Y-82026032D02*
X58544562Y-75575469D01*
X77094000Y-82026032D02*
X83544562Y-75575469D01*
X52094000Y-94526032D02*
X58544562Y-88075469D01*
X77094000Y-94526032D02*
X83544562Y-88075469D01*
X77094000Y-57444000D02*
X77094000Y-57026032D01*
X52094000Y-69944000D02*
X52094000Y-69526032D01*
X77094000Y-69944000D02*
X77094000Y-69526032D01*
X52094000Y-82444000D02*
X52094000Y-82026032D01*
X77094000Y-82444000D02*
X77094000Y-82026032D01*
X52094000Y-94944000D02*
X52094000Y-94526032D01*
X77094000Y-94944000D02*
X77094000Y-94526032D01*
%TD*%
M02*
