%TF.GenerationSoftware,KiCad,Pcbnew,(5.1.10)-1*%
%TF.CreationDate,2022-01-18T20:55:32+07:00*%
%TF.ProjectId,ADuM_I2C_v3_pnlz2x4,4144754d-5f49-4324-935f-76335f706e6c,rev?*%
%TF.SameCoordinates,Original*%
%TF.FileFunction,Copper,L2,Inr*%
%TF.FilePolarity,Positive*%
%FSLAX46Y46*%
G04 Gerber Fmt 4.6, Leading zero omitted, Abs format (unit mm)*
G04 Created by KiCad (PCBNEW (5.1.10)-1) date 2022-01-18 20:55:32*
%MOMM*%
%LPD*%
G01*
G04 APERTURE LIST*
%TA.AperFunction,ComponentPad*%
%ADD10R,1.000000X1.000000*%
%TD*%
%TA.AperFunction,ComponentPad*%
%ADD11O,1.000000X1.000000*%
%TD*%
%TA.AperFunction,ViaPad*%
%ADD12C,0.800000*%
%TD*%
%TA.AperFunction,ViaPad*%
%ADD13C,1.100000*%
%TD*%
%TA.AperFunction,Conductor*%
%ADD14C,0.300000*%
%TD*%
G04 APERTURE END LIST*
D10*
%TO.N,VCCQ*%
%TO.C,J2*%
X80711000Y-88037000D03*
D11*
%TO.N,GND2*%
X80711000Y-89307000D03*
%TO.N,/SDAq*%
X79441000Y-88037000D03*
%TO.N,/SCLq*%
X79441000Y-89307000D03*
%TO.N,/outa*%
X78171000Y-88037000D03*
%TO.N,/inb*%
X78171000Y-89307000D03*
%TD*%
D10*
%TO.N,VCCQ*%
%TO.C,J2*%
X55711000Y-88037000D03*
D11*
%TO.N,GND2*%
X55711000Y-89307000D03*
%TO.N,/SDAq*%
X54441000Y-88037000D03*
%TO.N,/SCLq*%
X54441000Y-89307000D03*
%TO.N,/outa*%
X53171000Y-88037000D03*
%TO.N,/inb*%
X53171000Y-89307000D03*
%TD*%
D10*
%TO.N,VCCQ*%
%TO.C,J2*%
X80711000Y-75537000D03*
D11*
%TO.N,GND2*%
X80711000Y-76807000D03*
%TO.N,/SDAq*%
X79441000Y-75537000D03*
%TO.N,/SCLq*%
X79441000Y-76807000D03*
%TO.N,/outa*%
X78171000Y-75537000D03*
%TO.N,/inb*%
X78171000Y-76807000D03*
%TD*%
D10*
%TO.N,VCCQ*%
%TO.C,J2*%
X55711000Y-75537000D03*
D11*
%TO.N,GND2*%
X55711000Y-76807000D03*
%TO.N,/SDAq*%
X54441000Y-75537000D03*
%TO.N,/SCLq*%
X54441000Y-76807000D03*
%TO.N,/outa*%
X53171000Y-75537000D03*
%TO.N,/inb*%
X53171000Y-76807000D03*
%TD*%
D10*
%TO.N,VCCQ*%
%TO.C,J2*%
X80711000Y-63037000D03*
D11*
%TO.N,GND2*%
X80711000Y-64307000D03*
%TO.N,/SDAq*%
X79441000Y-63037000D03*
%TO.N,/SCLq*%
X79441000Y-64307000D03*
%TO.N,/outa*%
X78171000Y-63037000D03*
%TO.N,/inb*%
X78171000Y-64307000D03*
%TD*%
D10*
%TO.N,VCCQ*%
%TO.C,J2*%
X55711000Y-63037000D03*
D11*
%TO.N,GND2*%
X55711000Y-64307000D03*
%TO.N,/SDAq*%
X54441000Y-63037000D03*
%TO.N,/SCLq*%
X54441000Y-64307000D03*
%TO.N,/outa*%
X53171000Y-63037000D03*
%TO.N,/inb*%
X53171000Y-64307000D03*
%TD*%
D10*
%TO.N,VCCQ*%
%TO.C,J2*%
X80711000Y-50537000D03*
D11*
%TO.N,GND2*%
X80711000Y-51807000D03*
%TO.N,/SDAq*%
X79441000Y-50537000D03*
%TO.N,/SCLq*%
X79441000Y-51807000D03*
%TO.N,/outa*%
X78171000Y-50537000D03*
%TO.N,/inb*%
X78171000Y-51807000D03*
%TD*%
D10*
%TO.N,/ina*%
%TO.C,J1*%
X100523000Y-88037000D03*
D11*
%TO.N,/outb*%
X100523000Y-89307000D03*
%TO.N,/SDA*%
X99253000Y-88037000D03*
%TO.N,/SCL*%
X99253000Y-89307000D03*
%TO.N,VCC*%
X97983000Y-88037000D03*
%TO.N,GND*%
X97983000Y-89307000D03*
%TD*%
D10*
%TO.N,/ina*%
%TO.C,J1*%
X75523000Y-88037000D03*
D11*
%TO.N,/outb*%
X75523000Y-89307000D03*
%TO.N,/SDA*%
X74253000Y-88037000D03*
%TO.N,/SCL*%
X74253000Y-89307000D03*
%TO.N,VCC*%
X72983000Y-88037000D03*
%TO.N,GND*%
X72983000Y-89307000D03*
%TD*%
D10*
%TO.N,/ina*%
%TO.C,J1*%
X100523000Y-75537000D03*
D11*
%TO.N,/outb*%
X100523000Y-76807000D03*
%TO.N,/SDA*%
X99253000Y-75537000D03*
%TO.N,/SCL*%
X99253000Y-76807000D03*
%TO.N,VCC*%
X97983000Y-75537000D03*
%TO.N,GND*%
X97983000Y-76807000D03*
%TD*%
D10*
%TO.N,/ina*%
%TO.C,J1*%
X75523000Y-75537000D03*
D11*
%TO.N,/outb*%
X75523000Y-76807000D03*
%TO.N,/SDA*%
X74253000Y-75537000D03*
%TO.N,/SCL*%
X74253000Y-76807000D03*
%TO.N,VCC*%
X72983000Y-75537000D03*
%TO.N,GND*%
X72983000Y-76807000D03*
%TD*%
D10*
%TO.N,/ina*%
%TO.C,J1*%
X100523000Y-63037000D03*
D11*
%TO.N,/outb*%
X100523000Y-64307000D03*
%TO.N,/SDA*%
X99253000Y-63037000D03*
%TO.N,/SCL*%
X99253000Y-64307000D03*
%TO.N,VCC*%
X97983000Y-63037000D03*
%TO.N,GND*%
X97983000Y-64307000D03*
%TD*%
D10*
%TO.N,/ina*%
%TO.C,J1*%
X75523000Y-63037000D03*
D11*
%TO.N,/outb*%
X75523000Y-64307000D03*
%TO.N,/SDA*%
X74253000Y-63037000D03*
%TO.N,/SCL*%
X74253000Y-64307000D03*
%TO.N,VCC*%
X72983000Y-63037000D03*
%TO.N,GND*%
X72983000Y-64307000D03*
%TD*%
D10*
%TO.N,/ina*%
%TO.C,J1*%
X100523000Y-50537000D03*
D11*
%TO.N,/outb*%
X100523000Y-51807000D03*
%TO.N,/SDA*%
X99253000Y-50537000D03*
%TO.N,/SCL*%
X99253000Y-51807000D03*
%TO.N,VCC*%
X97983000Y-50537000D03*
%TO.N,GND*%
X97983000Y-51807000D03*
%TD*%
%TO.N,GND*%
%TO.C,J1*%
X72983000Y-51807000D03*
%TO.N,VCC*%
X72983000Y-50537000D03*
%TO.N,/SCL*%
X74253000Y-51807000D03*
%TO.N,/SDA*%
X74253000Y-50537000D03*
%TO.N,/outb*%
X75523000Y-51807000D03*
D10*
%TO.N,/ina*%
X75523000Y-50537000D03*
%TD*%
D11*
%TO.N,/inb*%
%TO.C,J2*%
X53171000Y-51807000D03*
%TO.N,/outa*%
X53171000Y-50537000D03*
%TO.N,/SCLq*%
X54441000Y-51807000D03*
%TO.N,/SDAq*%
X54441000Y-50537000D03*
%TO.N,GND2*%
X55711000Y-51807000D03*
D10*
%TO.N,VCCQ*%
X55711000Y-50537000D03*
%TD*%
D12*
%TO.N,VCC*%
X69554000Y-50384000D03*
D13*
X71078000Y-44949000D03*
D12*
X94554000Y-50384000D03*
X69554000Y-62884000D03*
X94554000Y-62884000D03*
X69554000Y-75384000D03*
X94554000Y-75384000D03*
X69554000Y-87884000D03*
X94554000Y-87884000D03*
D13*
X96078000Y-44949000D03*
X71078000Y-57449000D03*
X96078000Y-57449000D03*
X71078000Y-69949000D03*
X96078000Y-69949000D03*
X71078000Y-82449000D03*
X96078000Y-82449000D03*
D12*
%TO.N,GND*%
X69554000Y-51934000D03*
X94554000Y-51934000D03*
X69554000Y-64434000D03*
X94554000Y-64434000D03*
X69554000Y-76934000D03*
X94554000Y-76934000D03*
X69554000Y-89434000D03*
X94554000Y-89434000D03*
%TO.N,VCCQ*%
X59140000Y-50384000D03*
D13*
X57616000Y-44949000D03*
D12*
X84140000Y-50384000D03*
X59140000Y-62884000D03*
X84140000Y-62884000D03*
X59140000Y-75384000D03*
X84140000Y-75384000D03*
X59140000Y-87884000D03*
X84140000Y-87884000D03*
D13*
X82616000Y-44949000D03*
X57616000Y-57449000D03*
X82616000Y-57449000D03*
X57616000Y-69949000D03*
X82616000Y-69949000D03*
X57616000Y-82449000D03*
X82616000Y-82449000D03*
D12*
%TO.N,GND2*%
X59140000Y-51934000D03*
X84140000Y-51934000D03*
X59140000Y-64434000D03*
X84140000Y-64434000D03*
X59140000Y-76934000D03*
X84140000Y-76934000D03*
X59140000Y-89434000D03*
X84140000Y-89434000D03*
%TO.N,/SCL*%
X66250419Y-46472953D03*
X91250419Y-46472953D03*
X66250419Y-58972953D03*
X91250419Y-58972953D03*
X66250419Y-71472953D03*
X91250419Y-71472953D03*
X66250419Y-83972953D03*
X91250419Y-83972953D03*
%TO.N,/SDA*%
X67249990Y-46502645D03*
X92249990Y-46502645D03*
X67249990Y-59002645D03*
X92249990Y-59002645D03*
X67249990Y-71502645D03*
X92249990Y-71502645D03*
X67249990Y-84002645D03*
X92249990Y-84002645D03*
%TO.N,/SCLq*%
X62457140Y-43683919D03*
X87457140Y-43683919D03*
X62457140Y-56183919D03*
X87457140Y-56183919D03*
X62457140Y-68683919D03*
X87457140Y-68683919D03*
X62457140Y-81183919D03*
X87457140Y-81183919D03*
%TO.N,/SDAq*%
X61457247Y-43668469D03*
X86457247Y-43668469D03*
X61457247Y-56168469D03*
X86457247Y-56168469D03*
X61457247Y-68668469D03*
X86457247Y-68668469D03*
X61457247Y-81168469D03*
X86457247Y-81168469D03*
%TO.N,Net-(Q1-Pad2)*%
X68411000Y-49648000D03*
X69649898Y-47616004D03*
X93411000Y-49648000D03*
X68411000Y-62148000D03*
X93411000Y-62148000D03*
X68411000Y-74648000D03*
X93411000Y-74648000D03*
X68411000Y-87148000D03*
X93411000Y-87148000D03*
X94649898Y-47616004D03*
X69649898Y-60116004D03*
X94649898Y-60116004D03*
X69649898Y-72616004D03*
X94649898Y-72616004D03*
X69649898Y-85116004D03*
X94649898Y-85116004D03*
%TO.N,Net-(Q2-Pad2)*%
X68411000Y-51680000D03*
X67588533Y-45012496D03*
X93411000Y-51680000D03*
X68411000Y-64180000D03*
X93411000Y-64180000D03*
X68411000Y-76680000D03*
X93411000Y-76680000D03*
X68411000Y-89180000D03*
X93411000Y-89180000D03*
X92588533Y-45012496D03*
X67588533Y-57512496D03*
X92588533Y-57512496D03*
X67588533Y-70012496D03*
X92588533Y-70012496D03*
X67588533Y-82512496D03*
X92588533Y-82512496D03*
%TO.N,Net-(Q3-Pad2)*%
X68411000Y-50664000D03*
X72347994Y-47362000D03*
X93411000Y-50664000D03*
X68411000Y-63164000D03*
X93411000Y-63164000D03*
X68411000Y-75664000D03*
X93411000Y-75664000D03*
X68411000Y-88164000D03*
X93411000Y-88164000D03*
X97347994Y-47362000D03*
X72347994Y-59862000D03*
X97347994Y-59862000D03*
X72347994Y-72362000D03*
X97347994Y-72362000D03*
X72347994Y-84862000D03*
X97347994Y-84862000D03*
%TO.N,Net-(Q4-Pad2)*%
X68411000Y-52696000D03*
X74561811Y-45014996D03*
X93411000Y-52696000D03*
X68411000Y-65196000D03*
X93411000Y-65196000D03*
X68411000Y-77696000D03*
X93411000Y-77696000D03*
X68411000Y-90196000D03*
X93411000Y-90196000D03*
X99561811Y-45014996D03*
X74561811Y-57514996D03*
X99561811Y-57514996D03*
X74561811Y-70014996D03*
X99561811Y-70014996D03*
X74561811Y-82514996D03*
X99561811Y-82514996D03*
%TO.N,Net-(Q5-Pad2)*%
X59001010Y-48353265D03*
X60304705Y-49654379D03*
X84001010Y-48353265D03*
X59001010Y-60853265D03*
X84001010Y-60853265D03*
X59001010Y-73353265D03*
X84001010Y-73353265D03*
X59001010Y-85853265D03*
X84001010Y-85853265D03*
X85304705Y-49654379D03*
X60304705Y-62154379D03*
X85304705Y-62154379D03*
X60304705Y-74654379D03*
X85304705Y-74654379D03*
X60304705Y-87154379D03*
X85304705Y-87154379D03*
%TO.N,Net-(Q6-Pad2)*%
X60283000Y-51680000D03*
X61299000Y-45203000D03*
X85283000Y-51680000D03*
X60283000Y-64180000D03*
X85283000Y-64180000D03*
X60283000Y-76680000D03*
X85283000Y-76680000D03*
X60283000Y-89180000D03*
X85283000Y-89180000D03*
X86299000Y-45203000D03*
X61299000Y-57703000D03*
X86299000Y-57703000D03*
X61299000Y-70203000D03*
X86299000Y-70203000D03*
X61299000Y-82703000D03*
X86299000Y-82703000D03*
%TO.N,Net-(Q7-Pad2)*%
X54131577Y-45075726D03*
X60283000Y-50664000D03*
X79131577Y-45075726D03*
X54131577Y-57575726D03*
X79131577Y-57575726D03*
X54131577Y-70075726D03*
X79131577Y-70075726D03*
X54131577Y-82575726D03*
X79131577Y-82575726D03*
X85283000Y-50664000D03*
X60283000Y-63164000D03*
X85283000Y-63164000D03*
X60283000Y-75664000D03*
X85283000Y-75664000D03*
X60283000Y-88164000D03*
X85283000Y-88164000D03*
%TO.N,Net-(Q8-Pad2)*%
X60282957Y-52725135D03*
X54695000Y-48759000D03*
X85282957Y-52725135D03*
X60282957Y-65225135D03*
X85282957Y-65225135D03*
X60282957Y-77725135D03*
X85282957Y-77725135D03*
X60282957Y-90225135D03*
X85282957Y-90225135D03*
X79695000Y-48759000D03*
X54695000Y-61259000D03*
X79695000Y-61259000D03*
X54695000Y-73759000D03*
X79695000Y-73759000D03*
X54695000Y-86259000D03*
X79695000Y-86259000D03*
%TD*%
D14*
%TO.N,/SCL*%
X73402999Y-52657001D02*
X74253000Y-51807000D01*
X72574999Y-52657001D02*
X73402999Y-52657001D01*
X72132999Y-51845999D02*
X72132999Y-52215001D01*
X69173000Y-48886000D02*
X72132999Y-51845999D01*
X72132999Y-52215001D02*
X72574999Y-52657001D01*
X68097781Y-48886000D02*
X69173000Y-48886000D01*
X66250419Y-47038638D02*
X68097781Y-48886000D01*
X66250419Y-46472953D02*
X66250419Y-47038638D01*
X73402999Y-52657001D02*
X74253000Y-51807000D01*
X72574999Y-52657001D02*
X73402999Y-52657001D01*
X72132999Y-51845999D02*
X72132999Y-52215001D01*
X69173000Y-48886000D02*
X72132999Y-51845999D01*
X72132999Y-52215001D02*
X72574999Y-52657001D01*
X68097781Y-48886000D02*
X69173000Y-48886000D01*
X66250419Y-47038638D02*
X68097781Y-48886000D01*
X66250419Y-46472953D02*
X66250419Y-47038638D01*
X98402999Y-52657001D02*
X99253000Y-51807000D01*
X73402999Y-65157001D02*
X74253000Y-64307000D01*
X98402999Y-65157001D02*
X99253000Y-64307000D01*
X73402999Y-77657001D02*
X74253000Y-76807000D01*
X98402999Y-77657001D02*
X99253000Y-76807000D01*
X73402999Y-90157001D02*
X74253000Y-89307000D01*
X98402999Y-90157001D02*
X99253000Y-89307000D01*
X97574999Y-52657001D02*
X98402999Y-52657001D01*
X72574999Y-65157001D02*
X73402999Y-65157001D01*
X97574999Y-65157001D02*
X98402999Y-65157001D01*
X72574999Y-77657001D02*
X73402999Y-77657001D01*
X97574999Y-77657001D02*
X98402999Y-77657001D01*
X72574999Y-90157001D02*
X73402999Y-90157001D01*
X97574999Y-90157001D02*
X98402999Y-90157001D01*
X97132999Y-51845999D02*
X97132999Y-52215001D01*
X72132999Y-64345999D02*
X72132999Y-64715001D01*
X97132999Y-64345999D02*
X97132999Y-64715001D01*
X72132999Y-76845999D02*
X72132999Y-77215001D01*
X97132999Y-76845999D02*
X97132999Y-77215001D01*
X72132999Y-89345999D02*
X72132999Y-89715001D01*
X97132999Y-89345999D02*
X97132999Y-89715001D01*
X94173000Y-48886000D02*
X97132999Y-51845999D01*
X69173000Y-61386000D02*
X72132999Y-64345999D01*
X94173000Y-61386000D02*
X97132999Y-64345999D01*
X69173000Y-73886000D02*
X72132999Y-76845999D01*
X94173000Y-73886000D02*
X97132999Y-76845999D01*
X69173000Y-86386000D02*
X72132999Y-89345999D01*
X94173000Y-86386000D02*
X97132999Y-89345999D01*
X97132999Y-52215001D02*
X97574999Y-52657001D01*
X72132999Y-64715001D02*
X72574999Y-65157001D01*
X97132999Y-64715001D02*
X97574999Y-65157001D01*
X72132999Y-77215001D02*
X72574999Y-77657001D01*
X97132999Y-77215001D02*
X97574999Y-77657001D01*
X72132999Y-89715001D02*
X72574999Y-90157001D01*
X97132999Y-89715001D02*
X97574999Y-90157001D01*
X93097781Y-48886000D02*
X94173000Y-48886000D01*
X68097781Y-61386000D02*
X69173000Y-61386000D01*
X93097781Y-61386000D02*
X94173000Y-61386000D01*
X68097781Y-73886000D02*
X69173000Y-73886000D01*
X93097781Y-73886000D02*
X94173000Y-73886000D01*
X68097781Y-86386000D02*
X69173000Y-86386000D01*
X93097781Y-86386000D02*
X94173000Y-86386000D01*
X91250419Y-47038638D02*
X93097781Y-48886000D01*
X66250419Y-59538638D02*
X68097781Y-61386000D01*
X91250419Y-59538638D02*
X93097781Y-61386000D01*
X66250419Y-72038638D02*
X68097781Y-73886000D01*
X91250419Y-72038638D02*
X93097781Y-73886000D01*
X66250419Y-84538638D02*
X68097781Y-86386000D01*
X91250419Y-84538638D02*
X93097781Y-86386000D01*
X91250419Y-46472953D02*
X91250419Y-47038638D01*
X66250419Y-58972953D02*
X66250419Y-59538638D01*
X91250419Y-58972953D02*
X91250419Y-59538638D01*
X66250419Y-71472953D02*
X66250419Y-72038638D01*
X91250419Y-71472953D02*
X91250419Y-72038638D01*
X66250419Y-83972953D02*
X66250419Y-84538638D01*
X91250419Y-83972953D02*
X91250419Y-84538638D01*
%TO.N,/SDA*%
X67249990Y-47216990D02*
X67249990Y-46502645D01*
X68418990Y-48385990D02*
X67249990Y-47216990D01*
X69434990Y-48385990D02*
X68418990Y-48385990D01*
X70697000Y-49648000D02*
X69434990Y-48385990D01*
X73364000Y-49648000D02*
X70697000Y-49648000D01*
X74253000Y-50537000D02*
X73364000Y-49648000D01*
X67249990Y-47216990D02*
X67249990Y-46502645D01*
X68418990Y-48385990D02*
X67249990Y-47216990D01*
X69434990Y-48385990D02*
X68418990Y-48385990D01*
X70697000Y-49648000D02*
X69434990Y-48385990D01*
X73364000Y-49648000D02*
X70697000Y-49648000D01*
X74253000Y-50537000D02*
X73364000Y-49648000D01*
X92249990Y-47216990D02*
X92249990Y-46502645D01*
X67249990Y-59716990D02*
X67249990Y-59002645D01*
X92249990Y-59716990D02*
X92249990Y-59002645D01*
X67249990Y-72216990D02*
X67249990Y-71502645D01*
X92249990Y-72216990D02*
X92249990Y-71502645D01*
X67249990Y-84716990D02*
X67249990Y-84002645D01*
X92249990Y-84716990D02*
X92249990Y-84002645D01*
X93418990Y-48385990D02*
X92249990Y-47216990D01*
X68418990Y-60885990D02*
X67249990Y-59716990D01*
X93418990Y-60885990D02*
X92249990Y-59716990D01*
X68418990Y-73385990D02*
X67249990Y-72216990D01*
X93418990Y-73385990D02*
X92249990Y-72216990D01*
X68418990Y-85885990D02*
X67249990Y-84716990D01*
X93418990Y-85885990D02*
X92249990Y-84716990D01*
X94434990Y-48385990D02*
X93418990Y-48385990D01*
X69434990Y-60885990D02*
X68418990Y-60885990D01*
X94434990Y-60885990D02*
X93418990Y-60885990D01*
X69434990Y-73385990D02*
X68418990Y-73385990D01*
X94434990Y-73385990D02*
X93418990Y-73385990D01*
X69434990Y-85885990D02*
X68418990Y-85885990D01*
X94434990Y-85885990D02*
X93418990Y-85885990D01*
X95697000Y-49648000D02*
X94434990Y-48385990D01*
X70697000Y-62148000D02*
X69434990Y-60885990D01*
X95697000Y-62148000D02*
X94434990Y-60885990D01*
X70697000Y-74648000D02*
X69434990Y-73385990D01*
X95697000Y-74648000D02*
X94434990Y-73385990D01*
X70697000Y-87148000D02*
X69434990Y-85885990D01*
X95697000Y-87148000D02*
X94434990Y-85885990D01*
X98364000Y-49648000D02*
X95697000Y-49648000D01*
X73364000Y-62148000D02*
X70697000Y-62148000D01*
X98364000Y-62148000D02*
X95697000Y-62148000D01*
X73364000Y-74648000D02*
X70697000Y-74648000D01*
X98364000Y-74648000D02*
X95697000Y-74648000D01*
X73364000Y-87148000D02*
X70697000Y-87148000D01*
X98364000Y-87148000D02*
X95697000Y-87148000D01*
X99253000Y-50537000D02*
X98364000Y-49648000D01*
X74253000Y-63037000D02*
X73364000Y-62148000D01*
X99253000Y-63037000D02*
X98364000Y-62148000D01*
X74253000Y-75537000D02*
X73364000Y-74648000D01*
X99253000Y-75537000D02*
X98364000Y-74648000D01*
X74253000Y-88037000D02*
X73364000Y-87148000D01*
X99253000Y-88037000D02*
X98364000Y-87148000D01*
%TO.N,/SCLq*%
X55291001Y-52657001D02*
X54441000Y-51807000D01*
X56119001Y-52657001D02*
X55291001Y-52657001D01*
X54452998Y-51807000D02*
X55302999Y-52657001D01*
X55302999Y-52657001D02*
X56119001Y-52657001D01*
X54441000Y-51807000D02*
X54452998Y-51807000D01*
X62457140Y-43778578D02*
X62457140Y-43683919D01*
X61817248Y-44418470D02*
X62457140Y-43778578D01*
X56600000Y-48791998D02*
X60973528Y-44418470D01*
X60973528Y-44418470D02*
X61817248Y-44418470D01*
X56600000Y-52176002D02*
X56600000Y-48791998D01*
X56119001Y-52657001D02*
X56600000Y-52176002D01*
X55291001Y-52657001D02*
X54441000Y-51807000D01*
X56119001Y-52657001D02*
X55291001Y-52657001D01*
X54452998Y-51807000D02*
X55302999Y-52657001D01*
X55302999Y-52657001D02*
X56119001Y-52657001D01*
X54441000Y-51807000D02*
X54452998Y-51807000D01*
X62457140Y-43778578D02*
X62457140Y-43683919D01*
X61817248Y-44418470D02*
X62457140Y-43778578D01*
X56600000Y-48791998D02*
X60973528Y-44418470D01*
X60973528Y-44418470D02*
X61817248Y-44418470D01*
X56600000Y-52176002D02*
X56600000Y-48791998D01*
X56119001Y-52657001D02*
X56600000Y-52176002D01*
X80291001Y-52657001D02*
X79441000Y-51807000D01*
X55291001Y-65157001D02*
X54441000Y-64307000D01*
X80291001Y-65157001D02*
X79441000Y-64307000D01*
X55291001Y-77657001D02*
X54441000Y-76807000D01*
X80291001Y-77657001D02*
X79441000Y-76807000D01*
X55291001Y-90157001D02*
X54441000Y-89307000D01*
X80291001Y-90157001D02*
X79441000Y-89307000D01*
X81119001Y-52657001D02*
X80291001Y-52657001D01*
X56119001Y-65157001D02*
X55291001Y-65157001D01*
X81119001Y-65157001D02*
X80291001Y-65157001D01*
X56119001Y-77657001D02*
X55291001Y-77657001D01*
X81119001Y-77657001D02*
X80291001Y-77657001D01*
X56119001Y-90157001D02*
X55291001Y-90157001D01*
X81119001Y-90157001D02*
X80291001Y-90157001D01*
X79452998Y-51807000D02*
X80302999Y-52657001D01*
X54452998Y-64307000D02*
X55302999Y-65157001D01*
X79452998Y-64307000D02*
X80302999Y-65157001D01*
X54452998Y-76807000D02*
X55302999Y-77657001D01*
X79452998Y-76807000D02*
X80302999Y-77657001D01*
X54452998Y-89307000D02*
X55302999Y-90157001D01*
X79452998Y-89307000D02*
X80302999Y-90157001D01*
X80302999Y-52657001D02*
X81119001Y-52657001D01*
X55302999Y-65157001D02*
X56119001Y-65157001D01*
X80302999Y-65157001D02*
X81119001Y-65157001D01*
X55302999Y-77657001D02*
X56119001Y-77657001D01*
X80302999Y-77657001D02*
X81119001Y-77657001D01*
X55302999Y-90157001D02*
X56119001Y-90157001D01*
X80302999Y-90157001D02*
X81119001Y-90157001D01*
X79441000Y-51807000D02*
X79452998Y-51807000D01*
X54441000Y-64307000D02*
X54452998Y-64307000D01*
X79441000Y-64307000D02*
X79452998Y-64307000D01*
X54441000Y-76807000D02*
X54452998Y-76807000D01*
X79441000Y-76807000D02*
X79452998Y-76807000D01*
X54441000Y-89307000D02*
X54452998Y-89307000D01*
X79441000Y-89307000D02*
X79452998Y-89307000D01*
X87457140Y-43778578D02*
X87457140Y-43683919D01*
X62457140Y-56278578D02*
X62457140Y-56183919D01*
X87457140Y-56278578D02*
X87457140Y-56183919D01*
X62457140Y-68778578D02*
X62457140Y-68683919D01*
X87457140Y-68778578D02*
X87457140Y-68683919D01*
X62457140Y-81278578D02*
X62457140Y-81183919D01*
X87457140Y-81278578D02*
X87457140Y-81183919D01*
X86817248Y-44418470D02*
X87457140Y-43778578D01*
X61817248Y-56918470D02*
X62457140Y-56278578D01*
X86817248Y-56918470D02*
X87457140Y-56278578D01*
X61817248Y-69418470D02*
X62457140Y-68778578D01*
X86817248Y-69418470D02*
X87457140Y-68778578D01*
X61817248Y-81918470D02*
X62457140Y-81278578D01*
X86817248Y-81918470D02*
X87457140Y-81278578D01*
X81600000Y-48791998D02*
X85973528Y-44418470D01*
X56600000Y-61291998D02*
X60973528Y-56918470D01*
X81600000Y-61291998D02*
X85973528Y-56918470D01*
X56600000Y-73791998D02*
X60973528Y-69418470D01*
X81600000Y-73791998D02*
X85973528Y-69418470D01*
X56600000Y-86291998D02*
X60973528Y-81918470D01*
X81600000Y-86291998D02*
X85973528Y-81918470D01*
X85973528Y-44418470D02*
X86817248Y-44418470D01*
X60973528Y-56918470D02*
X61817248Y-56918470D01*
X85973528Y-56918470D02*
X86817248Y-56918470D01*
X60973528Y-69418470D02*
X61817248Y-69418470D01*
X85973528Y-69418470D02*
X86817248Y-69418470D01*
X60973528Y-81918470D02*
X61817248Y-81918470D01*
X85973528Y-81918470D02*
X86817248Y-81918470D01*
X81600000Y-52176002D02*
X81600000Y-48791998D01*
X56600000Y-64676002D02*
X56600000Y-61291998D01*
X81600000Y-64676002D02*
X81600000Y-61291998D01*
X56600000Y-77176002D02*
X56600000Y-73791998D01*
X81600000Y-77176002D02*
X81600000Y-73791998D01*
X56600000Y-89676002D02*
X56600000Y-86291998D01*
X81600000Y-89676002D02*
X81600000Y-86291998D01*
X81119001Y-52657001D02*
X81600000Y-52176002D01*
X56119001Y-65157001D02*
X56600000Y-64676002D01*
X81119001Y-65157001D02*
X81600000Y-64676002D01*
X56119001Y-77657001D02*
X56600000Y-77176002D01*
X81119001Y-77657001D02*
X81600000Y-77176002D01*
X56119001Y-90157001D02*
X56600000Y-89676002D01*
X81119001Y-90157001D02*
X81600000Y-89676002D01*
%TO.N,/SDAq*%
X60891562Y-43668469D02*
X61457247Y-43668469D01*
X54441000Y-50119032D02*
X60891562Y-43668469D01*
X54441000Y-50537000D02*
X54441000Y-50119032D01*
X60891562Y-43668469D02*
X61457247Y-43668469D01*
X54441000Y-50119032D02*
X60891562Y-43668469D01*
X54441000Y-50537000D02*
X54441000Y-50119032D01*
X85891562Y-43668469D02*
X86457247Y-43668469D01*
X60891562Y-56168469D02*
X61457247Y-56168469D01*
X85891562Y-56168469D02*
X86457247Y-56168469D01*
X60891562Y-68668469D02*
X61457247Y-68668469D01*
X85891562Y-68668469D02*
X86457247Y-68668469D01*
X60891562Y-81168469D02*
X61457247Y-81168469D01*
X85891562Y-81168469D02*
X86457247Y-81168469D01*
X79441000Y-50119032D02*
X85891562Y-43668469D01*
X54441000Y-62619032D02*
X60891562Y-56168469D01*
X79441000Y-62619032D02*
X85891562Y-56168469D01*
X54441000Y-75119032D02*
X60891562Y-68668469D01*
X79441000Y-75119032D02*
X85891562Y-68668469D01*
X54441000Y-87619032D02*
X60891562Y-81168469D01*
X79441000Y-87619032D02*
X85891562Y-81168469D01*
X79441000Y-50537000D02*
X79441000Y-50119032D01*
X54441000Y-63037000D02*
X54441000Y-62619032D01*
X79441000Y-63037000D02*
X79441000Y-62619032D01*
X54441000Y-75537000D02*
X54441000Y-75119032D01*
X79441000Y-75537000D02*
X79441000Y-75119032D01*
X54441000Y-88037000D02*
X54441000Y-87619032D01*
X79441000Y-88037000D02*
X79441000Y-87619032D01*
%TD*%
M02*
