M48
; DRILL file {KiCad (5.1.10)-1} date 01/18/22 20:55:35
; FORMAT={3:3/ absolute / metric / keep zeros}
; #@! TF.CreationDate,2022-01-18T20:55:35+07:00
; #@! TF.GenerationSoftware,Kicad,Pcbnew,(5.1.10)-1
; #@! TF.FileFunction,Plated,1,4,PTH
FMAT,2
METRIC
T1C0.400
T2C0.600
T3C0.650
%
G90
G05
T1
X054132Y-045076
X054132Y-057576
X054132Y-070076
X054132Y-082576
X054695Y-048759
X054695Y-061259
X054695Y-073759
X054695Y-086259
X059001Y-048353
X059001Y-060853
X059001Y-073353
X059001Y-085853
X059140Y-050384
X059140Y-051934
X059140Y-062884
X059140Y-064434
X059140Y-075384
X059140Y-076934
X059140Y-087884
X059140Y-089434
X060283Y-052725
X060283Y-065225
X060283Y-077725
X060283Y-090225
X060283Y-050664
X060283Y-051680
X060283Y-063164
X060283Y-064180
X060283Y-075664
X060283Y-076680
X060283Y-088164
X060283Y-089180
X060305Y-049654
X060305Y-062154
X060305Y-074654
X060305Y-087154
X061299Y-045203
X061299Y-057703
X061299Y-070203
X061299Y-082703
X061457Y-043668
X061457Y-056168
X061457Y-068668
X061457Y-081168
X062457Y-043684
X062457Y-056184
X062457Y-068684
X062457Y-081184
X066250Y-046473
X066250Y-058973
X066250Y-071473
X066250Y-083973
X067250Y-046503
X067250Y-059003
X067250Y-071503
X067250Y-084003
X067589Y-045012
X067589Y-057512
X067589Y-070012
X067589Y-082512
X068411Y-049648
X068411Y-050664
X068411Y-051680
X068411Y-052696
X068411Y-062148
X068411Y-063164
X068411Y-064180
X068411Y-065196
X068411Y-074648
X068411Y-075664
X068411Y-076680
X068411Y-077696
X068411Y-087148
X068411Y-088164
X068411Y-089180
X068411Y-090196
X069554Y-050384
X069554Y-051934
X069554Y-062884
X069554Y-064434
X069554Y-075384
X069554Y-076934
X069554Y-087884
X069554Y-089434
X069650Y-047616
X069650Y-060116
X069650Y-072616
X069650Y-085116
X072348Y-047362
X072348Y-059862
X072348Y-072362
X072348Y-084862
X074562Y-045015
X074562Y-057515
X074562Y-070015
X074562Y-082515
X079132Y-045076
X079132Y-057576
X079132Y-070076
X079132Y-082576
X079695Y-048759
X079695Y-061259
X079695Y-073759
X079695Y-086259
X084001Y-048353
X084001Y-060853
X084001Y-073353
X084001Y-085853
X084140Y-050384
X084140Y-051934
X084140Y-062884
X084140Y-064434
X084140Y-075384
X084140Y-076934
X084140Y-087884
X084140Y-089434
X085283Y-052725
X085283Y-065225
X085283Y-077725
X085283Y-090225
X085283Y-050664
X085283Y-051680
X085283Y-063164
X085283Y-064180
X085283Y-075664
X085283Y-076680
X085283Y-088164
X085283Y-089180
X085305Y-049654
X085305Y-062154
X085305Y-074654
X085305Y-087154
X086299Y-045203
X086299Y-057703
X086299Y-070203
X086299Y-082703
X086457Y-043668
X086457Y-056168
X086457Y-068668
X086457Y-081168
X087457Y-043684
X087457Y-056184
X087457Y-068684
X087457Y-081184
X091250Y-046473
X091250Y-058973
X091250Y-071473
X091250Y-083973
X092250Y-046503
X092250Y-059003
X092250Y-071503
X092250Y-084003
X092589Y-045012
X092589Y-057512
X092589Y-070012
X092589Y-082512
X093411Y-049648
X093411Y-050664
X093411Y-051680
X093411Y-052696
X093411Y-062148
X093411Y-063164
X093411Y-064180
X093411Y-065196
X093411Y-074648
X093411Y-075664
X093411Y-076680
X093411Y-077696
X093411Y-087148
X093411Y-088164
X093411Y-089180
X093411Y-090196
X094554Y-050384
X094554Y-051934
X094554Y-062884
X094554Y-064434
X094554Y-075384
X094554Y-076934
X094554Y-087884
X094554Y-089434
X094650Y-047616
X094650Y-060116
X094650Y-072616
X094650Y-085116
X097348Y-047362
X097348Y-059862
X097348Y-072362
X097348Y-084862
X099562Y-045015
X099562Y-057515
X099562Y-070015
X099562Y-082515
T2
X057616Y-044949
X057616Y-057449
X057616Y-069949
X057616Y-082449
X071078Y-044949
X071078Y-057449
X071078Y-069949
X071078Y-082449
X082616Y-044949
X082616Y-057449
X082616Y-069949
X082616Y-082449
X096078Y-044949
X096078Y-057449
X096078Y-069949
X096078Y-082449
T3
X053171Y-050537
X053171Y-051807
X053171Y-063037
X053171Y-064307
X053171Y-075537
X053171Y-076807
X053171Y-088037
X053171Y-089307
X054441Y-050537
X054441Y-051807
X054441Y-063037
X054441Y-064307
X054441Y-075537
X054441Y-076807
X054441Y-088037
X054441Y-089307
X055711Y-050537
X055711Y-051807
X055711Y-063037
X055711Y-064307
X055711Y-075537
X055711Y-076807
X055711Y-088037
X055711Y-089307
X072983Y-050537
X072983Y-051807
X072983Y-063037
X072983Y-064307
X072983Y-075537
X072983Y-076807
X072983Y-088037
X072983Y-089307
X074253Y-050537
X074253Y-051807
X074253Y-063037
X074253Y-064307
X074253Y-075537
X074253Y-076807
X074253Y-088037
X074253Y-089307
X075523Y-050537
X075523Y-051807
X075523Y-063037
X075523Y-064307
X075523Y-075537
X075523Y-076807
X075523Y-088037
X075523Y-089307
X078171Y-050537
X078171Y-051807
X078171Y-063037
X078171Y-064307
X078171Y-075537
X078171Y-076807
X078171Y-088037
X078171Y-089307
X079441Y-050537
X079441Y-051807
X079441Y-063037
X079441Y-064307
X079441Y-075537
X079441Y-076807
X079441Y-088037
X079441Y-089307
X080711Y-050537
X080711Y-051807
X080711Y-063037
X080711Y-064307
X080711Y-075537
X080711Y-076807
X080711Y-088037
X080711Y-089307
X097983Y-050537
X097983Y-051807
X097983Y-063037
X097983Y-064307
X097983Y-075537
X097983Y-076807
X097983Y-088037
X097983Y-089307
X099253Y-050537
X099253Y-051807
X099253Y-063037
X099253Y-064307
X099253Y-075537
X099253Y-076807
X099253Y-088037
X099253Y-089307
X100523Y-050537
X100523Y-051807
X100523Y-063037
X100523Y-064307
X100523Y-075537
X100523Y-076807
X100523Y-088037
X100523Y-089307
T0
M30
