%TF.GenerationSoftware,KiCad,Pcbnew,(5.1.10)-1*%
%TF.CreationDate,2022-01-17T18:26:11+07:00*%
%TF.ProjectId,ADuM_I2C_v3_pnlz2x4,4144754d-5f49-4324-935f-76335f706e6c,rev?*%
%TF.SameCoordinates,Original*%
%TF.FileFunction,Profile,NP*%
%FSLAX46Y46*%
G04 Gerber Fmt 4.6, Leading zero omitted, Abs format (unit mm)*
G04 Created by KiCad (PCBNEW (5.1.10)-1) date 2022-01-17 18:26:11*
%MOMM*%
%LPD*%
G01*
G04 APERTURE LIST*
%TA.AperFunction,Profile*%
%ADD10C,0.100000*%
%TD*%
G04 APERTURE END LIST*
D10*
X156016000Y-125436000D02*
G75*
G03*
X156016000Y-125436000I-1016000J0D01*
G01*
X131016000Y-125436000D02*
G75*
G03*
X131016000Y-125436000I-1016000J0D01*
G01*
X156016000Y-112936000D02*
G75*
G03*
X156016000Y-112936000I-1016000J0D01*
G01*
X131016000Y-112936000D02*
G75*
G03*
X131016000Y-112936000I-1016000J0D01*
G01*
X156016000Y-100436000D02*
G75*
G03*
X156016000Y-100436000I-1016000J0D01*
G01*
X131016000Y-100436000D02*
G75*
G03*
X131016000Y-100436000I-1016000J0D01*
G01*
X156016000Y-87936000D02*
G75*
G03*
X156016000Y-87936000I-1016000J0D01*
G01*
X156016000Y-127849000D02*
G75*
G03*
X156016000Y-127849000I-1016000J0D01*
G01*
X131016000Y-127849000D02*
G75*
G03*
X131016000Y-127849000I-1016000J0D01*
G01*
X156016000Y-115349000D02*
G75*
G03*
X156016000Y-115349000I-1016000J0D01*
G01*
X131016000Y-115349000D02*
G75*
G03*
X131016000Y-115349000I-1016000J0D01*
G01*
X156016000Y-102849000D02*
G75*
G03*
X156016000Y-102849000I-1016000J0D01*
G01*
X131016000Y-102849000D02*
G75*
G03*
X131016000Y-102849000I-1016000J0D01*
G01*
X156016000Y-90349000D02*
G75*
G03*
X156016000Y-90349000I-1016000J0D01*
G01*
X117500000Y-92000000D02*
X167500000Y-92000000D01*
X117500000Y-104500000D02*
X167500000Y-104500000D01*
X117500000Y-117000000D02*
X167500000Y-117000000D01*
X142500000Y-79500000D02*
X142500000Y-129500000D01*
X117500000Y-129500000D02*
X117500000Y-79500000D01*
X167500000Y-129500000D02*
X117500000Y-129500000D01*
X167500000Y-79500000D02*
X167500000Y-129500000D01*
X117500000Y-79500000D02*
X167500000Y-79500000D01*
X131016000Y-87936000D02*
G75*
G03*
X131016000Y-87936000I-1016000J0D01*
G01*
X131016000Y-90349000D02*
G75*
G03*
X131016000Y-90349000I-1016000J0D01*
G01*
M02*
