%TF.GenerationSoftware,KiCad,Pcbnew,(5.1.10)-1*%
%TF.CreationDate,2022-01-18T20:55:32+07:00*%
%TF.ProjectId,ADuM_I2C_v3_pnlz2x4,4144754d-5f49-4324-935f-76335f706e6c,rev?*%
%TF.SameCoordinates,Original*%
%TF.FileFunction,Soldermask,Top*%
%TF.FilePolarity,Negative*%
%FSLAX46Y46*%
G04 Gerber Fmt 4.6, Leading zero omitted, Abs format (unit mm)*
G04 Created by KiCad (PCBNEW (5.1.10)-1) date 2022-01-18 20:55:32*
%MOMM*%
%LPD*%
G01*
G04 APERTURE LIST*
%ADD10R,0.900000X0.800000*%
%ADD11R,1.000000X1.000000*%
%ADD12O,1.000000X1.000000*%
G04 APERTURE END LIST*
%TO.C,C3*%
G36*
G01*
X94804000Y-89884000D02*
X94304000Y-89884000D01*
G75*
G02*
X94079000Y-89659000I0J225000D01*
G01*
X94079000Y-89209000D01*
G75*
G02*
X94304000Y-88984000I225000J0D01*
G01*
X94804000Y-88984000D01*
G75*
G02*
X95029000Y-89209000I0J-225000D01*
G01*
X95029000Y-89659000D01*
G75*
G02*
X94804000Y-89884000I-225000J0D01*
G01*
G37*
G36*
G01*
X94804000Y-88334000D02*
X94304000Y-88334000D01*
G75*
G02*
X94079000Y-88109000I0J225000D01*
G01*
X94079000Y-87659000D01*
G75*
G02*
X94304000Y-87434000I225000J0D01*
G01*
X94804000Y-87434000D01*
G75*
G02*
X95029000Y-87659000I0J-225000D01*
G01*
X95029000Y-88109000D01*
G75*
G02*
X94804000Y-88334000I-225000J0D01*
G01*
G37*
%TD*%
%TO.C,C3*%
G36*
G01*
X69804000Y-89884000D02*
X69304000Y-89884000D01*
G75*
G02*
X69079000Y-89659000I0J225000D01*
G01*
X69079000Y-89209000D01*
G75*
G02*
X69304000Y-88984000I225000J0D01*
G01*
X69804000Y-88984000D01*
G75*
G02*
X70029000Y-89209000I0J-225000D01*
G01*
X70029000Y-89659000D01*
G75*
G02*
X69804000Y-89884000I-225000J0D01*
G01*
G37*
G36*
G01*
X69804000Y-88334000D02*
X69304000Y-88334000D01*
G75*
G02*
X69079000Y-88109000I0J225000D01*
G01*
X69079000Y-87659000D01*
G75*
G02*
X69304000Y-87434000I225000J0D01*
G01*
X69804000Y-87434000D01*
G75*
G02*
X70029000Y-87659000I0J-225000D01*
G01*
X70029000Y-88109000D01*
G75*
G02*
X69804000Y-88334000I-225000J0D01*
G01*
G37*
%TD*%
%TO.C,C3*%
G36*
G01*
X94804000Y-77384000D02*
X94304000Y-77384000D01*
G75*
G02*
X94079000Y-77159000I0J225000D01*
G01*
X94079000Y-76709000D01*
G75*
G02*
X94304000Y-76484000I225000J0D01*
G01*
X94804000Y-76484000D01*
G75*
G02*
X95029000Y-76709000I0J-225000D01*
G01*
X95029000Y-77159000D01*
G75*
G02*
X94804000Y-77384000I-225000J0D01*
G01*
G37*
G36*
G01*
X94804000Y-75834000D02*
X94304000Y-75834000D01*
G75*
G02*
X94079000Y-75609000I0J225000D01*
G01*
X94079000Y-75159000D01*
G75*
G02*
X94304000Y-74934000I225000J0D01*
G01*
X94804000Y-74934000D01*
G75*
G02*
X95029000Y-75159000I0J-225000D01*
G01*
X95029000Y-75609000D01*
G75*
G02*
X94804000Y-75834000I-225000J0D01*
G01*
G37*
%TD*%
%TO.C,C3*%
G36*
G01*
X69804000Y-77384000D02*
X69304000Y-77384000D01*
G75*
G02*
X69079000Y-77159000I0J225000D01*
G01*
X69079000Y-76709000D01*
G75*
G02*
X69304000Y-76484000I225000J0D01*
G01*
X69804000Y-76484000D01*
G75*
G02*
X70029000Y-76709000I0J-225000D01*
G01*
X70029000Y-77159000D01*
G75*
G02*
X69804000Y-77384000I-225000J0D01*
G01*
G37*
G36*
G01*
X69804000Y-75834000D02*
X69304000Y-75834000D01*
G75*
G02*
X69079000Y-75609000I0J225000D01*
G01*
X69079000Y-75159000D01*
G75*
G02*
X69304000Y-74934000I225000J0D01*
G01*
X69804000Y-74934000D01*
G75*
G02*
X70029000Y-75159000I0J-225000D01*
G01*
X70029000Y-75609000D01*
G75*
G02*
X69804000Y-75834000I-225000J0D01*
G01*
G37*
%TD*%
%TO.C,C3*%
G36*
G01*
X94804000Y-64884000D02*
X94304000Y-64884000D01*
G75*
G02*
X94079000Y-64659000I0J225000D01*
G01*
X94079000Y-64209000D01*
G75*
G02*
X94304000Y-63984000I225000J0D01*
G01*
X94804000Y-63984000D01*
G75*
G02*
X95029000Y-64209000I0J-225000D01*
G01*
X95029000Y-64659000D01*
G75*
G02*
X94804000Y-64884000I-225000J0D01*
G01*
G37*
G36*
G01*
X94804000Y-63334000D02*
X94304000Y-63334000D01*
G75*
G02*
X94079000Y-63109000I0J225000D01*
G01*
X94079000Y-62659000D01*
G75*
G02*
X94304000Y-62434000I225000J0D01*
G01*
X94804000Y-62434000D01*
G75*
G02*
X95029000Y-62659000I0J-225000D01*
G01*
X95029000Y-63109000D01*
G75*
G02*
X94804000Y-63334000I-225000J0D01*
G01*
G37*
%TD*%
%TO.C,C3*%
G36*
G01*
X69804000Y-64884000D02*
X69304000Y-64884000D01*
G75*
G02*
X69079000Y-64659000I0J225000D01*
G01*
X69079000Y-64209000D01*
G75*
G02*
X69304000Y-63984000I225000J0D01*
G01*
X69804000Y-63984000D01*
G75*
G02*
X70029000Y-64209000I0J-225000D01*
G01*
X70029000Y-64659000D01*
G75*
G02*
X69804000Y-64884000I-225000J0D01*
G01*
G37*
G36*
G01*
X69804000Y-63334000D02*
X69304000Y-63334000D01*
G75*
G02*
X69079000Y-63109000I0J225000D01*
G01*
X69079000Y-62659000D01*
G75*
G02*
X69304000Y-62434000I225000J0D01*
G01*
X69804000Y-62434000D01*
G75*
G02*
X70029000Y-62659000I0J-225000D01*
G01*
X70029000Y-63109000D01*
G75*
G02*
X69804000Y-63334000I-225000J0D01*
G01*
G37*
%TD*%
%TO.C,C3*%
G36*
G01*
X94804000Y-52384000D02*
X94304000Y-52384000D01*
G75*
G02*
X94079000Y-52159000I0J225000D01*
G01*
X94079000Y-51709000D01*
G75*
G02*
X94304000Y-51484000I225000J0D01*
G01*
X94804000Y-51484000D01*
G75*
G02*
X95029000Y-51709000I0J-225000D01*
G01*
X95029000Y-52159000D01*
G75*
G02*
X94804000Y-52384000I-225000J0D01*
G01*
G37*
G36*
G01*
X94804000Y-50834000D02*
X94304000Y-50834000D01*
G75*
G02*
X94079000Y-50609000I0J225000D01*
G01*
X94079000Y-50159000D01*
G75*
G02*
X94304000Y-49934000I225000J0D01*
G01*
X94804000Y-49934000D01*
G75*
G02*
X95029000Y-50159000I0J-225000D01*
G01*
X95029000Y-50609000D01*
G75*
G02*
X94804000Y-50834000I-225000J0D01*
G01*
G37*
%TD*%
%TO.C,C5*%
G36*
G01*
X84390000Y-89884000D02*
X83890000Y-89884000D01*
G75*
G02*
X83665000Y-89659000I0J225000D01*
G01*
X83665000Y-89209000D01*
G75*
G02*
X83890000Y-88984000I225000J0D01*
G01*
X84390000Y-88984000D01*
G75*
G02*
X84615000Y-89209000I0J-225000D01*
G01*
X84615000Y-89659000D01*
G75*
G02*
X84390000Y-89884000I-225000J0D01*
G01*
G37*
G36*
G01*
X84390000Y-88334000D02*
X83890000Y-88334000D01*
G75*
G02*
X83665000Y-88109000I0J225000D01*
G01*
X83665000Y-87659000D01*
G75*
G02*
X83890000Y-87434000I225000J0D01*
G01*
X84390000Y-87434000D01*
G75*
G02*
X84615000Y-87659000I0J-225000D01*
G01*
X84615000Y-88109000D01*
G75*
G02*
X84390000Y-88334000I-225000J0D01*
G01*
G37*
%TD*%
%TO.C,C5*%
G36*
G01*
X59390000Y-89884000D02*
X58890000Y-89884000D01*
G75*
G02*
X58665000Y-89659000I0J225000D01*
G01*
X58665000Y-89209000D01*
G75*
G02*
X58890000Y-88984000I225000J0D01*
G01*
X59390000Y-88984000D01*
G75*
G02*
X59615000Y-89209000I0J-225000D01*
G01*
X59615000Y-89659000D01*
G75*
G02*
X59390000Y-89884000I-225000J0D01*
G01*
G37*
G36*
G01*
X59390000Y-88334000D02*
X58890000Y-88334000D01*
G75*
G02*
X58665000Y-88109000I0J225000D01*
G01*
X58665000Y-87659000D01*
G75*
G02*
X58890000Y-87434000I225000J0D01*
G01*
X59390000Y-87434000D01*
G75*
G02*
X59615000Y-87659000I0J-225000D01*
G01*
X59615000Y-88109000D01*
G75*
G02*
X59390000Y-88334000I-225000J0D01*
G01*
G37*
%TD*%
%TO.C,C5*%
G36*
G01*
X84390000Y-77384000D02*
X83890000Y-77384000D01*
G75*
G02*
X83665000Y-77159000I0J225000D01*
G01*
X83665000Y-76709000D01*
G75*
G02*
X83890000Y-76484000I225000J0D01*
G01*
X84390000Y-76484000D01*
G75*
G02*
X84615000Y-76709000I0J-225000D01*
G01*
X84615000Y-77159000D01*
G75*
G02*
X84390000Y-77384000I-225000J0D01*
G01*
G37*
G36*
G01*
X84390000Y-75834000D02*
X83890000Y-75834000D01*
G75*
G02*
X83665000Y-75609000I0J225000D01*
G01*
X83665000Y-75159000D01*
G75*
G02*
X83890000Y-74934000I225000J0D01*
G01*
X84390000Y-74934000D01*
G75*
G02*
X84615000Y-75159000I0J-225000D01*
G01*
X84615000Y-75609000D01*
G75*
G02*
X84390000Y-75834000I-225000J0D01*
G01*
G37*
%TD*%
%TO.C,C5*%
G36*
G01*
X59390000Y-77384000D02*
X58890000Y-77384000D01*
G75*
G02*
X58665000Y-77159000I0J225000D01*
G01*
X58665000Y-76709000D01*
G75*
G02*
X58890000Y-76484000I225000J0D01*
G01*
X59390000Y-76484000D01*
G75*
G02*
X59615000Y-76709000I0J-225000D01*
G01*
X59615000Y-77159000D01*
G75*
G02*
X59390000Y-77384000I-225000J0D01*
G01*
G37*
G36*
G01*
X59390000Y-75834000D02*
X58890000Y-75834000D01*
G75*
G02*
X58665000Y-75609000I0J225000D01*
G01*
X58665000Y-75159000D01*
G75*
G02*
X58890000Y-74934000I225000J0D01*
G01*
X59390000Y-74934000D01*
G75*
G02*
X59615000Y-75159000I0J-225000D01*
G01*
X59615000Y-75609000D01*
G75*
G02*
X59390000Y-75834000I-225000J0D01*
G01*
G37*
%TD*%
%TO.C,C5*%
G36*
G01*
X84390000Y-64884000D02*
X83890000Y-64884000D01*
G75*
G02*
X83665000Y-64659000I0J225000D01*
G01*
X83665000Y-64209000D01*
G75*
G02*
X83890000Y-63984000I225000J0D01*
G01*
X84390000Y-63984000D01*
G75*
G02*
X84615000Y-64209000I0J-225000D01*
G01*
X84615000Y-64659000D01*
G75*
G02*
X84390000Y-64884000I-225000J0D01*
G01*
G37*
G36*
G01*
X84390000Y-63334000D02*
X83890000Y-63334000D01*
G75*
G02*
X83665000Y-63109000I0J225000D01*
G01*
X83665000Y-62659000D01*
G75*
G02*
X83890000Y-62434000I225000J0D01*
G01*
X84390000Y-62434000D01*
G75*
G02*
X84615000Y-62659000I0J-225000D01*
G01*
X84615000Y-63109000D01*
G75*
G02*
X84390000Y-63334000I-225000J0D01*
G01*
G37*
%TD*%
%TO.C,C5*%
G36*
G01*
X59390000Y-64884000D02*
X58890000Y-64884000D01*
G75*
G02*
X58665000Y-64659000I0J225000D01*
G01*
X58665000Y-64209000D01*
G75*
G02*
X58890000Y-63984000I225000J0D01*
G01*
X59390000Y-63984000D01*
G75*
G02*
X59615000Y-64209000I0J-225000D01*
G01*
X59615000Y-64659000D01*
G75*
G02*
X59390000Y-64884000I-225000J0D01*
G01*
G37*
G36*
G01*
X59390000Y-63334000D02*
X58890000Y-63334000D01*
G75*
G02*
X58665000Y-63109000I0J225000D01*
G01*
X58665000Y-62659000D01*
G75*
G02*
X58890000Y-62434000I225000J0D01*
G01*
X59390000Y-62434000D01*
G75*
G02*
X59615000Y-62659000I0J-225000D01*
G01*
X59615000Y-63109000D01*
G75*
G02*
X59390000Y-63334000I-225000J0D01*
G01*
G37*
%TD*%
%TO.C,C5*%
G36*
G01*
X84390000Y-52384000D02*
X83890000Y-52384000D01*
G75*
G02*
X83665000Y-52159000I0J225000D01*
G01*
X83665000Y-51709000D01*
G75*
G02*
X83890000Y-51484000I225000J0D01*
G01*
X84390000Y-51484000D01*
G75*
G02*
X84615000Y-51709000I0J-225000D01*
G01*
X84615000Y-52159000D01*
G75*
G02*
X84390000Y-52384000I-225000J0D01*
G01*
G37*
G36*
G01*
X84390000Y-50834000D02*
X83890000Y-50834000D01*
G75*
G02*
X83665000Y-50609000I0J225000D01*
G01*
X83665000Y-50159000D01*
G75*
G02*
X83890000Y-49934000I225000J0D01*
G01*
X84390000Y-49934000D01*
G75*
G02*
X84615000Y-50159000I0J-225000D01*
G01*
X84615000Y-50609000D01*
G75*
G02*
X84390000Y-50834000I-225000J0D01*
G01*
G37*
%TD*%
D10*
%TO.C,Q2*%
X93284000Y-83460000D03*
X93284000Y-81560000D03*
X91284000Y-82510000D03*
%TD*%
%TO.C,Q2*%
X68284000Y-83460000D03*
X68284000Y-81560000D03*
X66284000Y-82510000D03*
%TD*%
%TO.C,Q2*%
X93284000Y-70960000D03*
X93284000Y-69060000D03*
X91284000Y-70010000D03*
%TD*%
%TO.C,Q2*%
X68284000Y-70960000D03*
X68284000Y-69060000D03*
X66284000Y-70010000D03*
%TD*%
%TO.C,Q2*%
X93284000Y-58460000D03*
X93284000Y-56560000D03*
X91284000Y-57510000D03*
%TD*%
%TO.C,Q2*%
X68284000Y-58460000D03*
X68284000Y-56560000D03*
X66284000Y-57510000D03*
%TD*%
%TO.C,Q2*%
X93284000Y-45960000D03*
X93284000Y-44060000D03*
X91284000Y-45010000D03*
%TD*%
%TO.C,Q3*%
X98872000Y-81565000D03*
X98872000Y-83465000D03*
X100872000Y-82515000D03*
%TD*%
%TO.C,Q3*%
X73872000Y-81565000D03*
X73872000Y-83465000D03*
X75872000Y-82515000D03*
%TD*%
%TO.C,Q3*%
X98872000Y-69065000D03*
X98872000Y-70965000D03*
X100872000Y-70015000D03*
%TD*%
%TO.C,Q3*%
X73872000Y-69065000D03*
X73872000Y-70965000D03*
X75872000Y-70015000D03*
%TD*%
%TO.C,Q3*%
X98872000Y-56565000D03*
X98872000Y-58465000D03*
X100872000Y-57515000D03*
%TD*%
%TO.C,Q3*%
X73872000Y-56565000D03*
X73872000Y-58465000D03*
X75872000Y-57515000D03*
%TD*%
%TO.C,Q3*%
X98872000Y-44065000D03*
X98872000Y-45965000D03*
X100872000Y-45015000D03*
%TD*%
%TO.C,Q5*%
X85410000Y-81626000D03*
X85410000Y-83526000D03*
X87410000Y-82576000D03*
%TD*%
%TO.C,Q5*%
X60410000Y-81626000D03*
X60410000Y-83526000D03*
X62410000Y-82576000D03*
%TD*%
%TO.C,Q5*%
X85410000Y-69126000D03*
X85410000Y-71026000D03*
X87410000Y-70076000D03*
%TD*%
%TO.C,Q5*%
X60410000Y-69126000D03*
X60410000Y-71026000D03*
X62410000Y-70076000D03*
%TD*%
%TO.C,Q5*%
X85410000Y-56626000D03*
X85410000Y-58526000D03*
X87410000Y-57576000D03*
%TD*%
%TO.C,Q5*%
X60410000Y-56626000D03*
X60410000Y-58526000D03*
X62410000Y-57576000D03*
%TD*%
%TO.C,Q5*%
X85410000Y-44126000D03*
X85410000Y-46026000D03*
X87410000Y-45076000D03*
%TD*%
%TO.C,Q7*%
X77822000Y-82576000D03*
X79822000Y-81626000D03*
X79822000Y-83526000D03*
%TD*%
%TO.C,Q7*%
X52822000Y-82576000D03*
X54822000Y-81626000D03*
X54822000Y-83526000D03*
%TD*%
%TO.C,Q7*%
X77822000Y-70076000D03*
X79822000Y-69126000D03*
X79822000Y-71026000D03*
%TD*%
%TO.C,Q7*%
X52822000Y-70076000D03*
X54822000Y-69126000D03*
X54822000Y-71026000D03*
%TD*%
%TO.C,Q7*%
X77822000Y-57576000D03*
X79822000Y-56626000D03*
X79822000Y-58526000D03*
%TD*%
%TO.C,Q7*%
X52822000Y-57576000D03*
X54822000Y-56626000D03*
X54822000Y-58526000D03*
%TD*%
%TO.C,Q7*%
X77822000Y-45076000D03*
X79822000Y-44126000D03*
X79822000Y-46026000D03*
%TD*%
%TO.C,R2*%
G36*
G01*
X91234000Y-85391000D02*
X91234000Y-84841000D01*
G75*
G02*
X91434000Y-84641000I200000J0D01*
G01*
X91834000Y-84641000D01*
G75*
G02*
X92034000Y-84841000I0J-200000D01*
G01*
X92034000Y-85391000D01*
G75*
G02*
X91834000Y-85591000I-200000J0D01*
G01*
X91434000Y-85591000D01*
G75*
G02*
X91234000Y-85391000I0J200000D01*
G01*
G37*
G36*
G01*
X92884000Y-85391000D02*
X92884000Y-84841000D01*
G75*
G02*
X93084000Y-84641000I200000J0D01*
G01*
X93484000Y-84641000D01*
G75*
G02*
X93684000Y-84841000I0J-200000D01*
G01*
X93684000Y-85391000D01*
G75*
G02*
X93484000Y-85591000I-200000J0D01*
G01*
X93084000Y-85591000D01*
G75*
G02*
X92884000Y-85391000I0J200000D01*
G01*
G37*
%TD*%
%TO.C,R2*%
G36*
G01*
X66234000Y-85391000D02*
X66234000Y-84841000D01*
G75*
G02*
X66434000Y-84641000I200000J0D01*
G01*
X66834000Y-84641000D01*
G75*
G02*
X67034000Y-84841000I0J-200000D01*
G01*
X67034000Y-85391000D01*
G75*
G02*
X66834000Y-85591000I-200000J0D01*
G01*
X66434000Y-85591000D01*
G75*
G02*
X66234000Y-85391000I0J200000D01*
G01*
G37*
G36*
G01*
X67884000Y-85391000D02*
X67884000Y-84841000D01*
G75*
G02*
X68084000Y-84641000I200000J0D01*
G01*
X68484000Y-84641000D01*
G75*
G02*
X68684000Y-84841000I0J-200000D01*
G01*
X68684000Y-85391000D01*
G75*
G02*
X68484000Y-85591000I-200000J0D01*
G01*
X68084000Y-85591000D01*
G75*
G02*
X67884000Y-85391000I0J200000D01*
G01*
G37*
%TD*%
%TO.C,R2*%
G36*
G01*
X91234000Y-72891000D02*
X91234000Y-72341000D01*
G75*
G02*
X91434000Y-72141000I200000J0D01*
G01*
X91834000Y-72141000D01*
G75*
G02*
X92034000Y-72341000I0J-200000D01*
G01*
X92034000Y-72891000D01*
G75*
G02*
X91834000Y-73091000I-200000J0D01*
G01*
X91434000Y-73091000D01*
G75*
G02*
X91234000Y-72891000I0J200000D01*
G01*
G37*
G36*
G01*
X92884000Y-72891000D02*
X92884000Y-72341000D01*
G75*
G02*
X93084000Y-72141000I200000J0D01*
G01*
X93484000Y-72141000D01*
G75*
G02*
X93684000Y-72341000I0J-200000D01*
G01*
X93684000Y-72891000D01*
G75*
G02*
X93484000Y-73091000I-200000J0D01*
G01*
X93084000Y-73091000D01*
G75*
G02*
X92884000Y-72891000I0J200000D01*
G01*
G37*
%TD*%
%TO.C,R2*%
G36*
G01*
X66234000Y-72891000D02*
X66234000Y-72341000D01*
G75*
G02*
X66434000Y-72141000I200000J0D01*
G01*
X66834000Y-72141000D01*
G75*
G02*
X67034000Y-72341000I0J-200000D01*
G01*
X67034000Y-72891000D01*
G75*
G02*
X66834000Y-73091000I-200000J0D01*
G01*
X66434000Y-73091000D01*
G75*
G02*
X66234000Y-72891000I0J200000D01*
G01*
G37*
G36*
G01*
X67884000Y-72891000D02*
X67884000Y-72341000D01*
G75*
G02*
X68084000Y-72141000I200000J0D01*
G01*
X68484000Y-72141000D01*
G75*
G02*
X68684000Y-72341000I0J-200000D01*
G01*
X68684000Y-72891000D01*
G75*
G02*
X68484000Y-73091000I-200000J0D01*
G01*
X68084000Y-73091000D01*
G75*
G02*
X67884000Y-72891000I0J200000D01*
G01*
G37*
%TD*%
%TO.C,R2*%
G36*
G01*
X91234000Y-60391000D02*
X91234000Y-59841000D01*
G75*
G02*
X91434000Y-59641000I200000J0D01*
G01*
X91834000Y-59641000D01*
G75*
G02*
X92034000Y-59841000I0J-200000D01*
G01*
X92034000Y-60391000D01*
G75*
G02*
X91834000Y-60591000I-200000J0D01*
G01*
X91434000Y-60591000D01*
G75*
G02*
X91234000Y-60391000I0J200000D01*
G01*
G37*
G36*
G01*
X92884000Y-60391000D02*
X92884000Y-59841000D01*
G75*
G02*
X93084000Y-59641000I200000J0D01*
G01*
X93484000Y-59641000D01*
G75*
G02*
X93684000Y-59841000I0J-200000D01*
G01*
X93684000Y-60391000D01*
G75*
G02*
X93484000Y-60591000I-200000J0D01*
G01*
X93084000Y-60591000D01*
G75*
G02*
X92884000Y-60391000I0J200000D01*
G01*
G37*
%TD*%
%TO.C,R2*%
G36*
G01*
X66234000Y-60391000D02*
X66234000Y-59841000D01*
G75*
G02*
X66434000Y-59641000I200000J0D01*
G01*
X66834000Y-59641000D01*
G75*
G02*
X67034000Y-59841000I0J-200000D01*
G01*
X67034000Y-60391000D01*
G75*
G02*
X66834000Y-60591000I-200000J0D01*
G01*
X66434000Y-60591000D01*
G75*
G02*
X66234000Y-60391000I0J200000D01*
G01*
G37*
G36*
G01*
X67884000Y-60391000D02*
X67884000Y-59841000D01*
G75*
G02*
X68084000Y-59641000I200000J0D01*
G01*
X68484000Y-59641000D01*
G75*
G02*
X68684000Y-59841000I0J-200000D01*
G01*
X68684000Y-60391000D01*
G75*
G02*
X68484000Y-60591000I-200000J0D01*
G01*
X68084000Y-60591000D01*
G75*
G02*
X67884000Y-60391000I0J200000D01*
G01*
G37*
%TD*%
%TO.C,R2*%
G36*
G01*
X91234000Y-47891000D02*
X91234000Y-47341000D01*
G75*
G02*
X91434000Y-47141000I200000J0D01*
G01*
X91834000Y-47141000D01*
G75*
G02*
X92034000Y-47341000I0J-200000D01*
G01*
X92034000Y-47891000D01*
G75*
G02*
X91834000Y-48091000I-200000J0D01*
G01*
X91434000Y-48091000D01*
G75*
G02*
X91234000Y-47891000I0J200000D01*
G01*
G37*
G36*
G01*
X92884000Y-47891000D02*
X92884000Y-47341000D01*
G75*
G02*
X93084000Y-47141000I200000J0D01*
G01*
X93484000Y-47141000D01*
G75*
G02*
X93684000Y-47341000I0J-200000D01*
G01*
X93684000Y-47891000D01*
G75*
G02*
X93484000Y-48091000I-200000J0D01*
G01*
X93084000Y-48091000D01*
G75*
G02*
X92884000Y-47891000I0J200000D01*
G01*
G37*
%TD*%
%TO.C,R7*%
G36*
G01*
X98473000Y-85391000D02*
X98473000Y-84841000D01*
G75*
G02*
X98673000Y-84641000I200000J0D01*
G01*
X99073000Y-84641000D01*
G75*
G02*
X99273000Y-84841000I0J-200000D01*
G01*
X99273000Y-85391000D01*
G75*
G02*
X99073000Y-85591000I-200000J0D01*
G01*
X98673000Y-85591000D01*
G75*
G02*
X98473000Y-85391000I0J200000D01*
G01*
G37*
G36*
G01*
X100123000Y-85391000D02*
X100123000Y-84841000D01*
G75*
G02*
X100323000Y-84641000I200000J0D01*
G01*
X100723000Y-84641000D01*
G75*
G02*
X100923000Y-84841000I0J-200000D01*
G01*
X100923000Y-85391000D01*
G75*
G02*
X100723000Y-85591000I-200000J0D01*
G01*
X100323000Y-85591000D01*
G75*
G02*
X100123000Y-85391000I0J200000D01*
G01*
G37*
%TD*%
%TO.C,R7*%
G36*
G01*
X73473000Y-85391000D02*
X73473000Y-84841000D01*
G75*
G02*
X73673000Y-84641000I200000J0D01*
G01*
X74073000Y-84641000D01*
G75*
G02*
X74273000Y-84841000I0J-200000D01*
G01*
X74273000Y-85391000D01*
G75*
G02*
X74073000Y-85591000I-200000J0D01*
G01*
X73673000Y-85591000D01*
G75*
G02*
X73473000Y-85391000I0J200000D01*
G01*
G37*
G36*
G01*
X75123000Y-85391000D02*
X75123000Y-84841000D01*
G75*
G02*
X75323000Y-84641000I200000J0D01*
G01*
X75723000Y-84641000D01*
G75*
G02*
X75923000Y-84841000I0J-200000D01*
G01*
X75923000Y-85391000D01*
G75*
G02*
X75723000Y-85591000I-200000J0D01*
G01*
X75323000Y-85591000D01*
G75*
G02*
X75123000Y-85391000I0J200000D01*
G01*
G37*
%TD*%
%TO.C,R7*%
G36*
G01*
X98473000Y-72891000D02*
X98473000Y-72341000D01*
G75*
G02*
X98673000Y-72141000I200000J0D01*
G01*
X99073000Y-72141000D01*
G75*
G02*
X99273000Y-72341000I0J-200000D01*
G01*
X99273000Y-72891000D01*
G75*
G02*
X99073000Y-73091000I-200000J0D01*
G01*
X98673000Y-73091000D01*
G75*
G02*
X98473000Y-72891000I0J200000D01*
G01*
G37*
G36*
G01*
X100123000Y-72891000D02*
X100123000Y-72341000D01*
G75*
G02*
X100323000Y-72141000I200000J0D01*
G01*
X100723000Y-72141000D01*
G75*
G02*
X100923000Y-72341000I0J-200000D01*
G01*
X100923000Y-72891000D01*
G75*
G02*
X100723000Y-73091000I-200000J0D01*
G01*
X100323000Y-73091000D01*
G75*
G02*
X100123000Y-72891000I0J200000D01*
G01*
G37*
%TD*%
%TO.C,R7*%
G36*
G01*
X73473000Y-72891000D02*
X73473000Y-72341000D01*
G75*
G02*
X73673000Y-72141000I200000J0D01*
G01*
X74073000Y-72141000D01*
G75*
G02*
X74273000Y-72341000I0J-200000D01*
G01*
X74273000Y-72891000D01*
G75*
G02*
X74073000Y-73091000I-200000J0D01*
G01*
X73673000Y-73091000D01*
G75*
G02*
X73473000Y-72891000I0J200000D01*
G01*
G37*
G36*
G01*
X75123000Y-72891000D02*
X75123000Y-72341000D01*
G75*
G02*
X75323000Y-72141000I200000J0D01*
G01*
X75723000Y-72141000D01*
G75*
G02*
X75923000Y-72341000I0J-200000D01*
G01*
X75923000Y-72891000D01*
G75*
G02*
X75723000Y-73091000I-200000J0D01*
G01*
X75323000Y-73091000D01*
G75*
G02*
X75123000Y-72891000I0J200000D01*
G01*
G37*
%TD*%
%TO.C,R7*%
G36*
G01*
X98473000Y-60391000D02*
X98473000Y-59841000D01*
G75*
G02*
X98673000Y-59641000I200000J0D01*
G01*
X99073000Y-59641000D01*
G75*
G02*
X99273000Y-59841000I0J-200000D01*
G01*
X99273000Y-60391000D01*
G75*
G02*
X99073000Y-60591000I-200000J0D01*
G01*
X98673000Y-60591000D01*
G75*
G02*
X98473000Y-60391000I0J200000D01*
G01*
G37*
G36*
G01*
X100123000Y-60391000D02*
X100123000Y-59841000D01*
G75*
G02*
X100323000Y-59641000I200000J0D01*
G01*
X100723000Y-59641000D01*
G75*
G02*
X100923000Y-59841000I0J-200000D01*
G01*
X100923000Y-60391000D01*
G75*
G02*
X100723000Y-60591000I-200000J0D01*
G01*
X100323000Y-60591000D01*
G75*
G02*
X100123000Y-60391000I0J200000D01*
G01*
G37*
%TD*%
%TO.C,R7*%
G36*
G01*
X73473000Y-60391000D02*
X73473000Y-59841000D01*
G75*
G02*
X73673000Y-59641000I200000J0D01*
G01*
X74073000Y-59641000D01*
G75*
G02*
X74273000Y-59841000I0J-200000D01*
G01*
X74273000Y-60391000D01*
G75*
G02*
X74073000Y-60591000I-200000J0D01*
G01*
X73673000Y-60591000D01*
G75*
G02*
X73473000Y-60391000I0J200000D01*
G01*
G37*
G36*
G01*
X75123000Y-60391000D02*
X75123000Y-59841000D01*
G75*
G02*
X75323000Y-59641000I200000J0D01*
G01*
X75723000Y-59641000D01*
G75*
G02*
X75923000Y-59841000I0J-200000D01*
G01*
X75923000Y-60391000D01*
G75*
G02*
X75723000Y-60591000I-200000J0D01*
G01*
X75323000Y-60591000D01*
G75*
G02*
X75123000Y-60391000I0J200000D01*
G01*
G37*
%TD*%
%TO.C,R7*%
G36*
G01*
X98473000Y-47891000D02*
X98473000Y-47341000D01*
G75*
G02*
X98673000Y-47141000I200000J0D01*
G01*
X99073000Y-47141000D01*
G75*
G02*
X99273000Y-47341000I0J-200000D01*
G01*
X99273000Y-47891000D01*
G75*
G02*
X99073000Y-48091000I-200000J0D01*
G01*
X98673000Y-48091000D01*
G75*
G02*
X98473000Y-47891000I0J200000D01*
G01*
G37*
G36*
G01*
X100123000Y-47891000D02*
X100123000Y-47341000D01*
G75*
G02*
X100323000Y-47141000I200000J0D01*
G01*
X100723000Y-47141000D01*
G75*
G02*
X100923000Y-47341000I0J-200000D01*
G01*
X100923000Y-47891000D01*
G75*
G02*
X100723000Y-48091000I-200000J0D01*
G01*
X100323000Y-48091000D01*
G75*
G02*
X100123000Y-47891000I0J200000D01*
G01*
G37*
%TD*%
%TO.C,R10*%
G36*
G01*
X95083000Y-83738000D02*
X94533000Y-83738000D01*
G75*
G02*
X94333000Y-83538000I0J200000D01*
G01*
X94333000Y-83138000D01*
G75*
G02*
X94533000Y-82938000I200000J0D01*
G01*
X95083000Y-82938000D01*
G75*
G02*
X95283000Y-83138000I0J-200000D01*
G01*
X95283000Y-83538000D01*
G75*
G02*
X95083000Y-83738000I-200000J0D01*
G01*
G37*
G36*
G01*
X95083000Y-82088000D02*
X94533000Y-82088000D01*
G75*
G02*
X94333000Y-81888000I0J200000D01*
G01*
X94333000Y-81488000D01*
G75*
G02*
X94533000Y-81288000I200000J0D01*
G01*
X95083000Y-81288000D01*
G75*
G02*
X95283000Y-81488000I0J-200000D01*
G01*
X95283000Y-81888000D01*
G75*
G02*
X95083000Y-82088000I-200000J0D01*
G01*
G37*
%TD*%
%TO.C,R10*%
G36*
G01*
X70083000Y-83738000D02*
X69533000Y-83738000D01*
G75*
G02*
X69333000Y-83538000I0J200000D01*
G01*
X69333000Y-83138000D01*
G75*
G02*
X69533000Y-82938000I200000J0D01*
G01*
X70083000Y-82938000D01*
G75*
G02*
X70283000Y-83138000I0J-200000D01*
G01*
X70283000Y-83538000D01*
G75*
G02*
X70083000Y-83738000I-200000J0D01*
G01*
G37*
G36*
G01*
X70083000Y-82088000D02*
X69533000Y-82088000D01*
G75*
G02*
X69333000Y-81888000I0J200000D01*
G01*
X69333000Y-81488000D01*
G75*
G02*
X69533000Y-81288000I200000J0D01*
G01*
X70083000Y-81288000D01*
G75*
G02*
X70283000Y-81488000I0J-200000D01*
G01*
X70283000Y-81888000D01*
G75*
G02*
X70083000Y-82088000I-200000J0D01*
G01*
G37*
%TD*%
%TO.C,R10*%
G36*
G01*
X95083000Y-71238000D02*
X94533000Y-71238000D01*
G75*
G02*
X94333000Y-71038000I0J200000D01*
G01*
X94333000Y-70638000D01*
G75*
G02*
X94533000Y-70438000I200000J0D01*
G01*
X95083000Y-70438000D01*
G75*
G02*
X95283000Y-70638000I0J-200000D01*
G01*
X95283000Y-71038000D01*
G75*
G02*
X95083000Y-71238000I-200000J0D01*
G01*
G37*
G36*
G01*
X95083000Y-69588000D02*
X94533000Y-69588000D01*
G75*
G02*
X94333000Y-69388000I0J200000D01*
G01*
X94333000Y-68988000D01*
G75*
G02*
X94533000Y-68788000I200000J0D01*
G01*
X95083000Y-68788000D01*
G75*
G02*
X95283000Y-68988000I0J-200000D01*
G01*
X95283000Y-69388000D01*
G75*
G02*
X95083000Y-69588000I-200000J0D01*
G01*
G37*
%TD*%
%TO.C,R10*%
G36*
G01*
X70083000Y-71238000D02*
X69533000Y-71238000D01*
G75*
G02*
X69333000Y-71038000I0J200000D01*
G01*
X69333000Y-70638000D01*
G75*
G02*
X69533000Y-70438000I200000J0D01*
G01*
X70083000Y-70438000D01*
G75*
G02*
X70283000Y-70638000I0J-200000D01*
G01*
X70283000Y-71038000D01*
G75*
G02*
X70083000Y-71238000I-200000J0D01*
G01*
G37*
G36*
G01*
X70083000Y-69588000D02*
X69533000Y-69588000D01*
G75*
G02*
X69333000Y-69388000I0J200000D01*
G01*
X69333000Y-68988000D01*
G75*
G02*
X69533000Y-68788000I200000J0D01*
G01*
X70083000Y-68788000D01*
G75*
G02*
X70283000Y-68988000I0J-200000D01*
G01*
X70283000Y-69388000D01*
G75*
G02*
X70083000Y-69588000I-200000J0D01*
G01*
G37*
%TD*%
%TO.C,R10*%
G36*
G01*
X95083000Y-58738000D02*
X94533000Y-58738000D01*
G75*
G02*
X94333000Y-58538000I0J200000D01*
G01*
X94333000Y-58138000D01*
G75*
G02*
X94533000Y-57938000I200000J0D01*
G01*
X95083000Y-57938000D01*
G75*
G02*
X95283000Y-58138000I0J-200000D01*
G01*
X95283000Y-58538000D01*
G75*
G02*
X95083000Y-58738000I-200000J0D01*
G01*
G37*
G36*
G01*
X95083000Y-57088000D02*
X94533000Y-57088000D01*
G75*
G02*
X94333000Y-56888000I0J200000D01*
G01*
X94333000Y-56488000D01*
G75*
G02*
X94533000Y-56288000I200000J0D01*
G01*
X95083000Y-56288000D01*
G75*
G02*
X95283000Y-56488000I0J-200000D01*
G01*
X95283000Y-56888000D01*
G75*
G02*
X95083000Y-57088000I-200000J0D01*
G01*
G37*
%TD*%
%TO.C,R10*%
G36*
G01*
X70083000Y-58738000D02*
X69533000Y-58738000D01*
G75*
G02*
X69333000Y-58538000I0J200000D01*
G01*
X69333000Y-58138000D01*
G75*
G02*
X69533000Y-57938000I200000J0D01*
G01*
X70083000Y-57938000D01*
G75*
G02*
X70283000Y-58138000I0J-200000D01*
G01*
X70283000Y-58538000D01*
G75*
G02*
X70083000Y-58738000I-200000J0D01*
G01*
G37*
G36*
G01*
X70083000Y-57088000D02*
X69533000Y-57088000D01*
G75*
G02*
X69333000Y-56888000I0J200000D01*
G01*
X69333000Y-56488000D01*
G75*
G02*
X69533000Y-56288000I200000J0D01*
G01*
X70083000Y-56288000D01*
G75*
G02*
X70283000Y-56488000I0J-200000D01*
G01*
X70283000Y-56888000D01*
G75*
G02*
X70083000Y-57088000I-200000J0D01*
G01*
G37*
%TD*%
%TO.C,R10*%
G36*
G01*
X95083000Y-46238000D02*
X94533000Y-46238000D01*
G75*
G02*
X94333000Y-46038000I0J200000D01*
G01*
X94333000Y-45638000D01*
G75*
G02*
X94533000Y-45438000I200000J0D01*
G01*
X95083000Y-45438000D01*
G75*
G02*
X95283000Y-45638000I0J-200000D01*
G01*
X95283000Y-46038000D01*
G75*
G02*
X95083000Y-46238000I-200000J0D01*
G01*
G37*
G36*
G01*
X95083000Y-44588000D02*
X94533000Y-44588000D01*
G75*
G02*
X94333000Y-44388000I0J200000D01*
G01*
X94333000Y-43988000D01*
G75*
G02*
X94533000Y-43788000I200000J0D01*
G01*
X95083000Y-43788000D01*
G75*
G02*
X95283000Y-43988000I0J-200000D01*
G01*
X95283000Y-44388000D01*
G75*
G02*
X95083000Y-44588000I-200000J0D01*
G01*
G37*
%TD*%
%TO.C,R11*%
G36*
G01*
X97073000Y-81288000D02*
X97623000Y-81288000D01*
G75*
G02*
X97823000Y-81488000I0J-200000D01*
G01*
X97823000Y-81888000D01*
G75*
G02*
X97623000Y-82088000I-200000J0D01*
G01*
X97073000Y-82088000D01*
G75*
G02*
X96873000Y-81888000I0J200000D01*
G01*
X96873000Y-81488000D01*
G75*
G02*
X97073000Y-81288000I200000J0D01*
G01*
G37*
G36*
G01*
X97073000Y-82938000D02*
X97623000Y-82938000D01*
G75*
G02*
X97823000Y-83138000I0J-200000D01*
G01*
X97823000Y-83538000D01*
G75*
G02*
X97623000Y-83738000I-200000J0D01*
G01*
X97073000Y-83738000D01*
G75*
G02*
X96873000Y-83538000I0J200000D01*
G01*
X96873000Y-83138000D01*
G75*
G02*
X97073000Y-82938000I200000J0D01*
G01*
G37*
%TD*%
%TO.C,R11*%
G36*
G01*
X72073000Y-81288000D02*
X72623000Y-81288000D01*
G75*
G02*
X72823000Y-81488000I0J-200000D01*
G01*
X72823000Y-81888000D01*
G75*
G02*
X72623000Y-82088000I-200000J0D01*
G01*
X72073000Y-82088000D01*
G75*
G02*
X71873000Y-81888000I0J200000D01*
G01*
X71873000Y-81488000D01*
G75*
G02*
X72073000Y-81288000I200000J0D01*
G01*
G37*
G36*
G01*
X72073000Y-82938000D02*
X72623000Y-82938000D01*
G75*
G02*
X72823000Y-83138000I0J-200000D01*
G01*
X72823000Y-83538000D01*
G75*
G02*
X72623000Y-83738000I-200000J0D01*
G01*
X72073000Y-83738000D01*
G75*
G02*
X71873000Y-83538000I0J200000D01*
G01*
X71873000Y-83138000D01*
G75*
G02*
X72073000Y-82938000I200000J0D01*
G01*
G37*
%TD*%
%TO.C,R11*%
G36*
G01*
X97073000Y-68788000D02*
X97623000Y-68788000D01*
G75*
G02*
X97823000Y-68988000I0J-200000D01*
G01*
X97823000Y-69388000D01*
G75*
G02*
X97623000Y-69588000I-200000J0D01*
G01*
X97073000Y-69588000D01*
G75*
G02*
X96873000Y-69388000I0J200000D01*
G01*
X96873000Y-68988000D01*
G75*
G02*
X97073000Y-68788000I200000J0D01*
G01*
G37*
G36*
G01*
X97073000Y-70438000D02*
X97623000Y-70438000D01*
G75*
G02*
X97823000Y-70638000I0J-200000D01*
G01*
X97823000Y-71038000D01*
G75*
G02*
X97623000Y-71238000I-200000J0D01*
G01*
X97073000Y-71238000D01*
G75*
G02*
X96873000Y-71038000I0J200000D01*
G01*
X96873000Y-70638000D01*
G75*
G02*
X97073000Y-70438000I200000J0D01*
G01*
G37*
%TD*%
%TO.C,R11*%
G36*
G01*
X72073000Y-68788000D02*
X72623000Y-68788000D01*
G75*
G02*
X72823000Y-68988000I0J-200000D01*
G01*
X72823000Y-69388000D01*
G75*
G02*
X72623000Y-69588000I-200000J0D01*
G01*
X72073000Y-69588000D01*
G75*
G02*
X71873000Y-69388000I0J200000D01*
G01*
X71873000Y-68988000D01*
G75*
G02*
X72073000Y-68788000I200000J0D01*
G01*
G37*
G36*
G01*
X72073000Y-70438000D02*
X72623000Y-70438000D01*
G75*
G02*
X72823000Y-70638000I0J-200000D01*
G01*
X72823000Y-71038000D01*
G75*
G02*
X72623000Y-71238000I-200000J0D01*
G01*
X72073000Y-71238000D01*
G75*
G02*
X71873000Y-71038000I0J200000D01*
G01*
X71873000Y-70638000D01*
G75*
G02*
X72073000Y-70438000I200000J0D01*
G01*
G37*
%TD*%
%TO.C,R11*%
G36*
G01*
X97073000Y-56288000D02*
X97623000Y-56288000D01*
G75*
G02*
X97823000Y-56488000I0J-200000D01*
G01*
X97823000Y-56888000D01*
G75*
G02*
X97623000Y-57088000I-200000J0D01*
G01*
X97073000Y-57088000D01*
G75*
G02*
X96873000Y-56888000I0J200000D01*
G01*
X96873000Y-56488000D01*
G75*
G02*
X97073000Y-56288000I200000J0D01*
G01*
G37*
G36*
G01*
X97073000Y-57938000D02*
X97623000Y-57938000D01*
G75*
G02*
X97823000Y-58138000I0J-200000D01*
G01*
X97823000Y-58538000D01*
G75*
G02*
X97623000Y-58738000I-200000J0D01*
G01*
X97073000Y-58738000D01*
G75*
G02*
X96873000Y-58538000I0J200000D01*
G01*
X96873000Y-58138000D01*
G75*
G02*
X97073000Y-57938000I200000J0D01*
G01*
G37*
%TD*%
%TO.C,R11*%
G36*
G01*
X72073000Y-56288000D02*
X72623000Y-56288000D01*
G75*
G02*
X72823000Y-56488000I0J-200000D01*
G01*
X72823000Y-56888000D01*
G75*
G02*
X72623000Y-57088000I-200000J0D01*
G01*
X72073000Y-57088000D01*
G75*
G02*
X71873000Y-56888000I0J200000D01*
G01*
X71873000Y-56488000D01*
G75*
G02*
X72073000Y-56288000I200000J0D01*
G01*
G37*
G36*
G01*
X72073000Y-57938000D02*
X72623000Y-57938000D01*
G75*
G02*
X72823000Y-58138000I0J-200000D01*
G01*
X72823000Y-58538000D01*
G75*
G02*
X72623000Y-58738000I-200000J0D01*
G01*
X72073000Y-58738000D01*
G75*
G02*
X71873000Y-58538000I0J200000D01*
G01*
X71873000Y-58138000D01*
G75*
G02*
X72073000Y-57938000I200000J0D01*
G01*
G37*
%TD*%
%TO.C,R11*%
G36*
G01*
X97073000Y-43788000D02*
X97623000Y-43788000D01*
G75*
G02*
X97823000Y-43988000I0J-200000D01*
G01*
X97823000Y-44388000D01*
G75*
G02*
X97623000Y-44588000I-200000J0D01*
G01*
X97073000Y-44588000D01*
G75*
G02*
X96873000Y-44388000I0J200000D01*
G01*
X96873000Y-43988000D01*
G75*
G02*
X97073000Y-43788000I200000J0D01*
G01*
G37*
G36*
G01*
X97073000Y-45438000D02*
X97623000Y-45438000D01*
G75*
G02*
X97823000Y-45638000I0J-200000D01*
G01*
X97823000Y-46038000D01*
G75*
G02*
X97623000Y-46238000I-200000J0D01*
G01*
X97073000Y-46238000D01*
G75*
G02*
X96873000Y-46038000I0J200000D01*
G01*
X96873000Y-45638000D01*
G75*
G02*
X97073000Y-45438000I200000J0D01*
G01*
G37*
%TD*%
%TO.C,R13*%
G36*
G01*
X83611000Y-81287000D02*
X84161000Y-81287000D01*
G75*
G02*
X84361000Y-81487000I0J-200000D01*
G01*
X84361000Y-81887000D01*
G75*
G02*
X84161000Y-82087000I-200000J0D01*
G01*
X83611000Y-82087000D01*
G75*
G02*
X83411000Y-81887000I0J200000D01*
G01*
X83411000Y-81487000D01*
G75*
G02*
X83611000Y-81287000I200000J0D01*
G01*
G37*
G36*
G01*
X83611000Y-82937000D02*
X84161000Y-82937000D01*
G75*
G02*
X84361000Y-83137000I0J-200000D01*
G01*
X84361000Y-83537000D01*
G75*
G02*
X84161000Y-83737000I-200000J0D01*
G01*
X83611000Y-83737000D01*
G75*
G02*
X83411000Y-83537000I0J200000D01*
G01*
X83411000Y-83137000D01*
G75*
G02*
X83611000Y-82937000I200000J0D01*
G01*
G37*
%TD*%
%TO.C,R13*%
G36*
G01*
X58611000Y-81287000D02*
X59161000Y-81287000D01*
G75*
G02*
X59361000Y-81487000I0J-200000D01*
G01*
X59361000Y-81887000D01*
G75*
G02*
X59161000Y-82087000I-200000J0D01*
G01*
X58611000Y-82087000D01*
G75*
G02*
X58411000Y-81887000I0J200000D01*
G01*
X58411000Y-81487000D01*
G75*
G02*
X58611000Y-81287000I200000J0D01*
G01*
G37*
G36*
G01*
X58611000Y-82937000D02*
X59161000Y-82937000D01*
G75*
G02*
X59361000Y-83137000I0J-200000D01*
G01*
X59361000Y-83537000D01*
G75*
G02*
X59161000Y-83737000I-200000J0D01*
G01*
X58611000Y-83737000D01*
G75*
G02*
X58411000Y-83537000I0J200000D01*
G01*
X58411000Y-83137000D01*
G75*
G02*
X58611000Y-82937000I200000J0D01*
G01*
G37*
%TD*%
%TO.C,R13*%
G36*
G01*
X83611000Y-68787000D02*
X84161000Y-68787000D01*
G75*
G02*
X84361000Y-68987000I0J-200000D01*
G01*
X84361000Y-69387000D01*
G75*
G02*
X84161000Y-69587000I-200000J0D01*
G01*
X83611000Y-69587000D01*
G75*
G02*
X83411000Y-69387000I0J200000D01*
G01*
X83411000Y-68987000D01*
G75*
G02*
X83611000Y-68787000I200000J0D01*
G01*
G37*
G36*
G01*
X83611000Y-70437000D02*
X84161000Y-70437000D01*
G75*
G02*
X84361000Y-70637000I0J-200000D01*
G01*
X84361000Y-71037000D01*
G75*
G02*
X84161000Y-71237000I-200000J0D01*
G01*
X83611000Y-71237000D01*
G75*
G02*
X83411000Y-71037000I0J200000D01*
G01*
X83411000Y-70637000D01*
G75*
G02*
X83611000Y-70437000I200000J0D01*
G01*
G37*
%TD*%
%TO.C,R13*%
G36*
G01*
X58611000Y-68787000D02*
X59161000Y-68787000D01*
G75*
G02*
X59361000Y-68987000I0J-200000D01*
G01*
X59361000Y-69387000D01*
G75*
G02*
X59161000Y-69587000I-200000J0D01*
G01*
X58611000Y-69587000D01*
G75*
G02*
X58411000Y-69387000I0J200000D01*
G01*
X58411000Y-68987000D01*
G75*
G02*
X58611000Y-68787000I200000J0D01*
G01*
G37*
G36*
G01*
X58611000Y-70437000D02*
X59161000Y-70437000D01*
G75*
G02*
X59361000Y-70637000I0J-200000D01*
G01*
X59361000Y-71037000D01*
G75*
G02*
X59161000Y-71237000I-200000J0D01*
G01*
X58611000Y-71237000D01*
G75*
G02*
X58411000Y-71037000I0J200000D01*
G01*
X58411000Y-70637000D01*
G75*
G02*
X58611000Y-70437000I200000J0D01*
G01*
G37*
%TD*%
%TO.C,R13*%
G36*
G01*
X83611000Y-56287000D02*
X84161000Y-56287000D01*
G75*
G02*
X84361000Y-56487000I0J-200000D01*
G01*
X84361000Y-56887000D01*
G75*
G02*
X84161000Y-57087000I-200000J0D01*
G01*
X83611000Y-57087000D01*
G75*
G02*
X83411000Y-56887000I0J200000D01*
G01*
X83411000Y-56487000D01*
G75*
G02*
X83611000Y-56287000I200000J0D01*
G01*
G37*
G36*
G01*
X83611000Y-57937000D02*
X84161000Y-57937000D01*
G75*
G02*
X84361000Y-58137000I0J-200000D01*
G01*
X84361000Y-58537000D01*
G75*
G02*
X84161000Y-58737000I-200000J0D01*
G01*
X83611000Y-58737000D01*
G75*
G02*
X83411000Y-58537000I0J200000D01*
G01*
X83411000Y-58137000D01*
G75*
G02*
X83611000Y-57937000I200000J0D01*
G01*
G37*
%TD*%
%TO.C,R13*%
G36*
G01*
X58611000Y-56287000D02*
X59161000Y-56287000D01*
G75*
G02*
X59361000Y-56487000I0J-200000D01*
G01*
X59361000Y-56887000D01*
G75*
G02*
X59161000Y-57087000I-200000J0D01*
G01*
X58611000Y-57087000D01*
G75*
G02*
X58411000Y-56887000I0J200000D01*
G01*
X58411000Y-56487000D01*
G75*
G02*
X58611000Y-56287000I200000J0D01*
G01*
G37*
G36*
G01*
X58611000Y-57937000D02*
X59161000Y-57937000D01*
G75*
G02*
X59361000Y-58137000I0J-200000D01*
G01*
X59361000Y-58537000D01*
G75*
G02*
X59161000Y-58737000I-200000J0D01*
G01*
X58611000Y-58737000D01*
G75*
G02*
X58411000Y-58537000I0J200000D01*
G01*
X58411000Y-58137000D01*
G75*
G02*
X58611000Y-57937000I200000J0D01*
G01*
G37*
%TD*%
%TO.C,R13*%
G36*
G01*
X83611000Y-43787000D02*
X84161000Y-43787000D01*
G75*
G02*
X84361000Y-43987000I0J-200000D01*
G01*
X84361000Y-44387000D01*
G75*
G02*
X84161000Y-44587000I-200000J0D01*
G01*
X83611000Y-44587000D01*
G75*
G02*
X83411000Y-44387000I0J200000D01*
G01*
X83411000Y-43987000D01*
G75*
G02*
X83611000Y-43787000I200000J0D01*
G01*
G37*
G36*
G01*
X83611000Y-45437000D02*
X84161000Y-45437000D01*
G75*
G02*
X84361000Y-45637000I0J-200000D01*
G01*
X84361000Y-46037000D01*
G75*
G02*
X84161000Y-46237000I-200000J0D01*
G01*
X83611000Y-46237000D01*
G75*
G02*
X83411000Y-46037000I0J200000D01*
G01*
X83411000Y-45637000D01*
G75*
G02*
X83611000Y-45437000I200000J0D01*
G01*
G37*
%TD*%
%TO.C,R15*%
G36*
G01*
X81621000Y-82088000D02*
X81071000Y-82088000D01*
G75*
G02*
X80871000Y-81888000I0J200000D01*
G01*
X80871000Y-81488000D01*
G75*
G02*
X81071000Y-81288000I200000J0D01*
G01*
X81621000Y-81288000D01*
G75*
G02*
X81821000Y-81488000I0J-200000D01*
G01*
X81821000Y-81888000D01*
G75*
G02*
X81621000Y-82088000I-200000J0D01*
G01*
G37*
G36*
G01*
X81621000Y-83738000D02*
X81071000Y-83738000D01*
G75*
G02*
X80871000Y-83538000I0J200000D01*
G01*
X80871000Y-83138000D01*
G75*
G02*
X81071000Y-82938000I200000J0D01*
G01*
X81621000Y-82938000D01*
G75*
G02*
X81821000Y-83138000I0J-200000D01*
G01*
X81821000Y-83538000D01*
G75*
G02*
X81621000Y-83738000I-200000J0D01*
G01*
G37*
%TD*%
%TO.C,R15*%
G36*
G01*
X56621000Y-82088000D02*
X56071000Y-82088000D01*
G75*
G02*
X55871000Y-81888000I0J200000D01*
G01*
X55871000Y-81488000D01*
G75*
G02*
X56071000Y-81288000I200000J0D01*
G01*
X56621000Y-81288000D01*
G75*
G02*
X56821000Y-81488000I0J-200000D01*
G01*
X56821000Y-81888000D01*
G75*
G02*
X56621000Y-82088000I-200000J0D01*
G01*
G37*
G36*
G01*
X56621000Y-83738000D02*
X56071000Y-83738000D01*
G75*
G02*
X55871000Y-83538000I0J200000D01*
G01*
X55871000Y-83138000D01*
G75*
G02*
X56071000Y-82938000I200000J0D01*
G01*
X56621000Y-82938000D01*
G75*
G02*
X56821000Y-83138000I0J-200000D01*
G01*
X56821000Y-83538000D01*
G75*
G02*
X56621000Y-83738000I-200000J0D01*
G01*
G37*
%TD*%
%TO.C,R15*%
G36*
G01*
X81621000Y-69588000D02*
X81071000Y-69588000D01*
G75*
G02*
X80871000Y-69388000I0J200000D01*
G01*
X80871000Y-68988000D01*
G75*
G02*
X81071000Y-68788000I200000J0D01*
G01*
X81621000Y-68788000D01*
G75*
G02*
X81821000Y-68988000I0J-200000D01*
G01*
X81821000Y-69388000D01*
G75*
G02*
X81621000Y-69588000I-200000J0D01*
G01*
G37*
G36*
G01*
X81621000Y-71238000D02*
X81071000Y-71238000D01*
G75*
G02*
X80871000Y-71038000I0J200000D01*
G01*
X80871000Y-70638000D01*
G75*
G02*
X81071000Y-70438000I200000J0D01*
G01*
X81621000Y-70438000D01*
G75*
G02*
X81821000Y-70638000I0J-200000D01*
G01*
X81821000Y-71038000D01*
G75*
G02*
X81621000Y-71238000I-200000J0D01*
G01*
G37*
%TD*%
%TO.C,R15*%
G36*
G01*
X56621000Y-69588000D02*
X56071000Y-69588000D01*
G75*
G02*
X55871000Y-69388000I0J200000D01*
G01*
X55871000Y-68988000D01*
G75*
G02*
X56071000Y-68788000I200000J0D01*
G01*
X56621000Y-68788000D01*
G75*
G02*
X56821000Y-68988000I0J-200000D01*
G01*
X56821000Y-69388000D01*
G75*
G02*
X56621000Y-69588000I-200000J0D01*
G01*
G37*
G36*
G01*
X56621000Y-71238000D02*
X56071000Y-71238000D01*
G75*
G02*
X55871000Y-71038000I0J200000D01*
G01*
X55871000Y-70638000D01*
G75*
G02*
X56071000Y-70438000I200000J0D01*
G01*
X56621000Y-70438000D01*
G75*
G02*
X56821000Y-70638000I0J-200000D01*
G01*
X56821000Y-71038000D01*
G75*
G02*
X56621000Y-71238000I-200000J0D01*
G01*
G37*
%TD*%
%TO.C,R15*%
G36*
G01*
X81621000Y-57088000D02*
X81071000Y-57088000D01*
G75*
G02*
X80871000Y-56888000I0J200000D01*
G01*
X80871000Y-56488000D01*
G75*
G02*
X81071000Y-56288000I200000J0D01*
G01*
X81621000Y-56288000D01*
G75*
G02*
X81821000Y-56488000I0J-200000D01*
G01*
X81821000Y-56888000D01*
G75*
G02*
X81621000Y-57088000I-200000J0D01*
G01*
G37*
G36*
G01*
X81621000Y-58738000D02*
X81071000Y-58738000D01*
G75*
G02*
X80871000Y-58538000I0J200000D01*
G01*
X80871000Y-58138000D01*
G75*
G02*
X81071000Y-57938000I200000J0D01*
G01*
X81621000Y-57938000D01*
G75*
G02*
X81821000Y-58138000I0J-200000D01*
G01*
X81821000Y-58538000D01*
G75*
G02*
X81621000Y-58738000I-200000J0D01*
G01*
G37*
%TD*%
%TO.C,R15*%
G36*
G01*
X56621000Y-57088000D02*
X56071000Y-57088000D01*
G75*
G02*
X55871000Y-56888000I0J200000D01*
G01*
X55871000Y-56488000D01*
G75*
G02*
X56071000Y-56288000I200000J0D01*
G01*
X56621000Y-56288000D01*
G75*
G02*
X56821000Y-56488000I0J-200000D01*
G01*
X56821000Y-56888000D01*
G75*
G02*
X56621000Y-57088000I-200000J0D01*
G01*
G37*
G36*
G01*
X56621000Y-58738000D02*
X56071000Y-58738000D01*
G75*
G02*
X55871000Y-58538000I0J200000D01*
G01*
X55871000Y-58138000D01*
G75*
G02*
X56071000Y-57938000I200000J0D01*
G01*
X56621000Y-57938000D01*
G75*
G02*
X56821000Y-58138000I0J-200000D01*
G01*
X56821000Y-58538000D01*
G75*
G02*
X56621000Y-58738000I-200000J0D01*
G01*
G37*
%TD*%
%TO.C,R15*%
G36*
G01*
X81621000Y-44588000D02*
X81071000Y-44588000D01*
G75*
G02*
X80871000Y-44388000I0J200000D01*
G01*
X80871000Y-43988000D01*
G75*
G02*
X81071000Y-43788000I200000J0D01*
G01*
X81621000Y-43788000D01*
G75*
G02*
X81821000Y-43988000I0J-200000D01*
G01*
X81821000Y-44388000D01*
G75*
G02*
X81621000Y-44588000I-200000J0D01*
G01*
G37*
G36*
G01*
X81621000Y-46238000D02*
X81071000Y-46238000D01*
G75*
G02*
X80871000Y-46038000I0J200000D01*
G01*
X80871000Y-45638000D01*
G75*
G02*
X81071000Y-45438000I200000J0D01*
G01*
X81621000Y-45438000D01*
G75*
G02*
X81821000Y-45638000I0J-200000D01*
G01*
X81821000Y-46038000D01*
G75*
G02*
X81621000Y-46238000I-200000J0D01*
G01*
G37*
%TD*%
%TO.C,R17*%
G36*
G01*
X87460000Y-84841000D02*
X87460000Y-85391000D01*
G75*
G02*
X87260000Y-85591000I-200000J0D01*
G01*
X86860000Y-85591000D01*
G75*
G02*
X86660000Y-85391000I0J200000D01*
G01*
X86660000Y-84841000D01*
G75*
G02*
X86860000Y-84641000I200000J0D01*
G01*
X87260000Y-84641000D01*
G75*
G02*
X87460000Y-84841000I0J-200000D01*
G01*
G37*
G36*
G01*
X85810000Y-84841000D02*
X85810000Y-85391000D01*
G75*
G02*
X85610000Y-85591000I-200000J0D01*
G01*
X85210000Y-85591000D01*
G75*
G02*
X85010000Y-85391000I0J200000D01*
G01*
X85010000Y-84841000D01*
G75*
G02*
X85210000Y-84641000I200000J0D01*
G01*
X85610000Y-84641000D01*
G75*
G02*
X85810000Y-84841000I0J-200000D01*
G01*
G37*
%TD*%
%TO.C,R17*%
G36*
G01*
X62460000Y-84841000D02*
X62460000Y-85391000D01*
G75*
G02*
X62260000Y-85591000I-200000J0D01*
G01*
X61860000Y-85591000D01*
G75*
G02*
X61660000Y-85391000I0J200000D01*
G01*
X61660000Y-84841000D01*
G75*
G02*
X61860000Y-84641000I200000J0D01*
G01*
X62260000Y-84641000D01*
G75*
G02*
X62460000Y-84841000I0J-200000D01*
G01*
G37*
G36*
G01*
X60810000Y-84841000D02*
X60810000Y-85391000D01*
G75*
G02*
X60610000Y-85591000I-200000J0D01*
G01*
X60210000Y-85591000D01*
G75*
G02*
X60010000Y-85391000I0J200000D01*
G01*
X60010000Y-84841000D01*
G75*
G02*
X60210000Y-84641000I200000J0D01*
G01*
X60610000Y-84641000D01*
G75*
G02*
X60810000Y-84841000I0J-200000D01*
G01*
G37*
%TD*%
%TO.C,R17*%
G36*
G01*
X87460000Y-72341000D02*
X87460000Y-72891000D01*
G75*
G02*
X87260000Y-73091000I-200000J0D01*
G01*
X86860000Y-73091000D01*
G75*
G02*
X86660000Y-72891000I0J200000D01*
G01*
X86660000Y-72341000D01*
G75*
G02*
X86860000Y-72141000I200000J0D01*
G01*
X87260000Y-72141000D01*
G75*
G02*
X87460000Y-72341000I0J-200000D01*
G01*
G37*
G36*
G01*
X85810000Y-72341000D02*
X85810000Y-72891000D01*
G75*
G02*
X85610000Y-73091000I-200000J0D01*
G01*
X85210000Y-73091000D01*
G75*
G02*
X85010000Y-72891000I0J200000D01*
G01*
X85010000Y-72341000D01*
G75*
G02*
X85210000Y-72141000I200000J0D01*
G01*
X85610000Y-72141000D01*
G75*
G02*
X85810000Y-72341000I0J-200000D01*
G01*
G37*
%TD*%
%TO.C,R17*%
G36*
G01*
X62460000Y-72341000D02*
X62460000Y-72891000D01*
G75*
G02*
X62260000Y-73091000I-200000J0D01*
G01*
X61860000Y-73091000D01*
G75*
G02*
X61660000Y-72891000I0J200000D01*
G01*
X61660000Y-72341000D01*
G75*
G02*
X61860000Y-72141000I200000J0D01*
G01*
X62260000Y-72141000D01*
G75*
G02*
X62460000Y-72341000I0J-200000D01*
G01*
G37*
G36*
G01*
X60810000Y-72341000D02*
X60810000Y-72891000D01*
G75*
G02*
X60610000Y-73091000I-200000J0D01*
G01*
X60210000Y-73091000D01*
G75*
G02*
X60010000Y-72891000I0J200000D01*
G01*
X60010000Y-72341000D01*
G75*
G02*
X60210000Y-72141000I200000J0D01*
G01*
X60610000Y-72141000D01*
G75*
G02*
X60810000Y-72341000I0J-200000D01*
G01*
G37*
%TD*%
%TO.C,R17*%
G36*
G01*
X87460000Y-59841000D02*
X87460000Y-60391000D01*
G75*
G02*
X87260000Y-60591000I-200000J0D01*
G01*
X86860000Y-60591000D01*
G75*
G02*
X86660000Y-60391000I0J200000D01*
G01*
X86660000Y-59841000D01*
G75*
G02*
X86860000Y-59641000I200000J0D01*
G01*
X87260000Y-59641000D01*
G75*
G02*
X87460000Y-59841000I0J-200000D01*
G01*
G37*
G36*
G01*
X85810000Y-59841000D02*
X85810000Y-60391000D01*
G75*
G02*
X85610000Y-60591000I-200000J0D01*
G01*
X85210000Y-60591000D01*
G75*
G02*
X85010000Y-60391000I0J200000D01*
G01*
X85010000Y-59841000D01*
G75*
G02*
X85210000Y-59641000I200000J0D01*
G01*
X85610000Y-59641000D01*
G75*
G02*
X85810000Y-59841000I0J-200000D01*
G01*
G37*
%TD*%
%TO.C,R17*%
G36*
G01*
X62460000Y-59841000D02*
X62460000Y-60391000D01*
G75*
G02*
X62260000Y-60591000I-200000J0D01*
G01*
X61860000Y-60591000D01*
G75*
G02*
X61660000Y-60391000I0J200000D01*
G01*
X61660000Y-59841000D01*
G75*
G02*
X61860000Y-59641000I200000J0D01*
G01*
X62260000Y-59641000D01*
G75*
G02*
X62460000Y-59841000I0J-200000D01*
G01*
G37*
G36*
G01*
X60810000Y-59841000D02*
X60810000Y-60391000D01*
G75*
G02*
X60610000Y-60591000I-200000J0D01*
G01*
X60210000Y-60591000D01*
G75*
G02*
X60010000Y-60391000I0J200000D01*
G01*
X60010000Y-59841000D01*
G75*
G02*
X60210000Y-59641000I200000J0D01*
G01*
X60610000Y-59641000D01*
G75*
G02*
X60810000Y-59841000I0J-200000D01*
G01*
G37*
%TD*%
%TO.C,R17*%
G36*
G01*
X87460000Y-47341000D02*
X87460000Y-47891000D01*
G75*
G02*
X87260000Y-48091000I-200000J0D01*
G01*
X86860000Y-48091000D01*
G75*
G02*
X86660000Y-47891000I0J200000D01*
G01*
X86660000Y-47341000D01*
G75*
G02*
X86860000Y-47141000I200000J0D01*
G01*
X87260000Y-47141000D01*
G75*
G02*
X87460000Y-47341000I0J-200000D01*
G01*
G37*
G36*
G01*
X85810000Y-47341000D02*
X85810000Y-47891000D01*
G75*
G02*
X85610000Y-48091000I-200000J0D01*
G01*
X85210000Y-48091000D01*
G75*
G02*
X85010000Y-47891000I0J200000D01*
G01*
X85010000Y-47341000D01*
G75*
G02*
X85210000Y-47141000I200000J0D01*
G01*
X85610000Y-47141000D01*
G75*
G02*
X85810000Y-47341000I0J-200000D01*
G01*
G37*
%TD*%
%TO.C,R19*%
G36*
G01*
X79421000Y-80311000D02*
X79421000Y-79761000D01*
G75*
G02*
X79621000Y-79561000I200000J0D01*
G01*
X80021000Y-79561000D01*
G75*
G02*
X80221000Y-79761000I0J-200000D01*
G01*
X80221000Y-80311000D01*
G75*
G02*
X80021000Y-80511000I-200000J0D01*
G01*
X79621000Y-80511000D01*
G75*
G02*
X79421000Y-80311000I0J200000D01*
G01*
G37*
G36*
G01*
X77771000Y-80311000D02*
X77771000Y-79761000D01*
G75*
G02*
X77971000Y-79561000I200000J0D01*
G01*
X78371000Y-79561000D01*
G75*
G02*
X78571000Y-79761000I0J-200000D01*
G01*
X78571000Y-80311000D01*
G75*
G02*
X78371000Y-80511000I-200000J0D01*
G01*
X77971000Y-80511000D01*
G75*
G02*
X77771000Y-80311000I0J200000D01*
G01*
G37*
%TD*%
%TO.C,R19*%
G36*
G01*
X54421000Y-80311000D02*
X54421000Y-79761000D01*
G75*
G02*
X54621000Y-79561000I200000J0D01*
G01*
X55021000Y-79561000D01*
G75*
G02*
X55221000Y-79761000I0J-200000D01*
G01*
X55221000Y-80311000D01*
G75*
G02*
X55021000Y-80511000I-200000J0D01*
G01*
X54621000Y-80511000D01*
G75*
G02*
X54421000Y-80311000I0J200000D01*
G01*
G37*
G36*
G01*
X52771000Y-80311000D02*
X52771000Y-79761000D01*
G75*
G02*
X52971000Y-79561000I200000J0D01*
G01*
X53371000Y-79561000D01*
G75*
G02*
X53571000Y-79761000I0J-200000D01*
G01*
X53571000Y-80311000D01*
G75*
G02*
X53371000Y-80511000I-200000J0D01*
G01*
X52971000Y-80511000D01*
G75*
G02*
X52771000Y-80311000I0J200000D01*
G01*
G37*
%TD*%
%TO.C,R19*%
G36*
G01*
X79421000Y-67811000D02*
X79421000Y-67261000D01*
G75*
G02*
X79621000Y-67061000I200000J0D01*
G01*
X80021000Y-67061000D01*
G75*
G02*
X80221000Y-67261000I0J-200000D01*
G01*
X80221000Y-67811000D01*
G75*
G02*
X80021000Y-68011000I-200000J0D01*
G01*
X79621000Y-68011000D01*
G75*
G02*
X79421000Y-67811000I0J200000D01*
G01*
G37*
G36*
G01*
X77771000Y-67811000D02*
X77771000Y-67261000D01*
G75*
G02*
X77971000Y-67061000I200000J0D01*
G01*
X78371000Y-67061000D01*
G75*
G02*
X78571000Y-67261000I0J-200000D01*
G01*
X78571000Y-67811000D01*
G75*
G02*
X78371000Y-68011000I-200000J0D01*
G01*
X77971000Y-68011000D01*
G75*
G02*
X77771000Y-67811000I0J200000D01*
G01*
G37*
%TD*%
%TO.C,R19*%
G36*
G01*
X54421000Y-67811000D02*
X54421000Y-67261000D01*
G75*
G02*
X54621000Y-67061000I200000J0D01*
G01*
X55021000Y-67061000D01*
G75*
G02*
X55221000Y-67261000I0J-200000D01*
G01*
X55221000Y-67811000D01*
G75*
G02*
X55021000Y-68011000I-200000J0D01*
G01*
X54621000Y-68011000D01*
G75*
G02*
X54421000Y-67811000I0J200000D01*
G01*
G37*
G36*
G01*
X52771000Y-67811000D02*
X52771000Y-67261000D01*
G75*
G02*
X52971000Y-67061000I200000J0D01*
G01*
X53371000Y-67061000D01*
G75*
G02*
X53571000Y-67261000I0J-200000D01*
G01*
X53571000Y-67811000D01*
G75*
G02*
X53371000Y-68011000I-200000J0D01*
G01*
X52971000Y-68011000D01*
G75*
G02*
X52771000Y-67811000I0J200000D01*
G01*
G37*
%TD*%
%TO.C,R19*%
G36*
G01*
X79421000Y-55311000D02*
X79421000Y-54761000D01*
G75*
G02*
X79621000Y-54561000I200000J0D01*
G01*
X80021000Y-54561000D01*
G75*
G02*
X80221000Y-54761000I0J-200000D01*
G01*
X80221000Y-55311000D01*
G75*
G02*
X80021000Y-55511000I-200000J0D01*
G01*
X79621000Y-55511000D01*
G75*
G02*
X79421000Y-55311000I0J200000D01*
G01*
G37*
G36*
G01*
X77771000Y-55311000D02*
X77771000Y-54761000D01*
G75*
G02*
X77971000Y-54561000I200000J0D01*
G01*
X78371000Y-54561000D01*
G75*
G02*
X78571000Y-54761000I0J-200000D01*
G01*
X78571000Y-55311000D01*
G75*
G02*
X78371000Y-55511000I-200000J0D01*
G01*
X77971000Y-55511000D01*
G75*
G02*
X77771000Y-55311000I0J200000D01*
G01*
G37*
%TD*%
%TO.C,R19*%
G36*
G01*
X54421000Y-55311000D02*
X54421000Y-54761000D01*
G75*
G02*
X54621000Y-54561000I200000J0D01*
G01*
X55021000Y-54561000D01*
G75*
G02*
X55221000Y-54761000I0J-200000D01*
G01*
X55221000Y-55311000D01*
G75*
G02*
X55021000Y-55511000I-200000J0D01*
G01*
X54621000Y-55511000D01*
G75*
G02*
X54421000Y-55311000I0J200000D01*
G01*
G37*
G36*
G01*
X52771000Y-55311000D02*
X52771000Y-54761000D01*
G75*
G02*
X52971000Y-54561000I200000J0D01*
G01*
X53371000Y-54561000D01*
G75*
G02*
X53571000Y-54761000I0J-200000D01*
G01*
X53571000Y-55311000D01*
G75*
G02*
X53371000Y-55511000I-200000J0D01*
G01*
X52971000Y-55511000D01*
G75*
G02*
X52771000Y-55311000I0J200000D01*
G01*
G37*
%TD*%
%TO.C,R19*%
G36*
G01*
X79421000Y-42811000D02*
X79421000Y-42261000D01*
G75*
G02*
X79621000Y-42061000I200000J0D01*
G01*
X80021000Y-42061000D01*
G75*
G02*
X80221000Y-42261000I0J-200000D01*
G01*
X80221000Y-42811000D01*
G75*
G02*
X80021000Y-43011000I-200000J0D01*
G01*
X79621000Y-43011000D01*
G75*
G02*
X79421000Y-42811000I0J200000D01*
G01*
G37*
G36*
G01*
X77771000Y-42811000D02*
X77771000Y-42261000D01*
G75*
G02*
X77971000Y-42061000I200000J0D01*
G01*
X78371000Y-42061000D01*
G75*
G02*
X78571000Y-42261000I0J-200000D01*
G01*
X78571000Y-42811000D01*
G75*
G02*
X78371000Y-43011000I-200000J0D01*
G01*
X77971000Y-43011000D01*
G75*
G02*
X77771000Y-42811000I0J200000D01*
G01*
G37*
%TD*%
%TO.C,R21*%
G36*
G01*
X87460000Y-79761000D02*
X87460000Y-80311000D01*
G75*
G02*
X87260000Y-80511000I-200000J0D01*
G01*
X86860000Y-80511000D01*
G75*
G02*
X86660000Y-80311000I0J200000D01*
G01*
X86660000Y-79761000D01*
G75*
G02*
X86860000Y-79561000I200000J0D01*
G01*
X87260000Y-79561000D01*
G75*
G02*
X87460000Y-79761000I0J-200000D01*
G01*
G37*
G36*
G01*
X85810000Y-79761000D02*
X85810000Y-80311000D01*
G75*
G02*
X85610000Y-80511000I-200000J0D01*
G01*
X85210000Y-80511000D01*
G75*
G02*
X85010000Y-80311000I0J200000D01*
G01*
X85010000Y-79761000D01*
G75*
G02*
X85210000Y-79561000I200000J0D01*
G01*
X85610000Y-79561000D01*
G75*
G02*
X85810000Y-79761000I0J-200000D01*
G01*
G37*
%TD*%
%TO.C,R21*%
G36*
G01*
X62460000Y-79761000D02*
X62460000Y-80311000D01*
G75*
G02*
X62260000Y-80511000I-200000J0D01*
G01*
X61860000Y-80511000D01*
G75*
G02*
X61660000Y-80311000I0J200000D01*
G01*
X61660000Y-79761000D01*
G75*
G02*
X61860000Y-79561000I200000J0D01*
G01*
X62260000Y-79561000D01*
G75*
G02*
X62460000Y-79761000I0J-200000D01*
G01*
G37*
G36*
G01*
X60810000Y-79761000D02*
X60810000Y-80311000D01*
G75*
G02*
X60610000Y-80511000I-200000J0D01*
G01*
X60210000Y-80511000D01*
G75*
G02*
X60010000Y-80311000I0J200000D01*
G01*
X60010000Y-79761000D01*
G75*
G02*
X60210000Y-79561000I200000J0D01*
G01*
X60610000Y-79561000D01*
G75*
G02*
X60810000Y-79761000I0J-200000D01*
G01*
G37*
%TD*%
%TO.C,R21*%
G36*
G01*
X87460000Y-67261000D02*
X87460000Y-67811000D01*
G75*
G02*
X87260000Y-68011000I-200000J0D01*
G01*
X86860000Y-68011000D01*
G75*
G02*
X86660000Y-67811000I0J200000D01*
G01*
X86660000Y-67261000D01*
G75*
G02*
X86860000Y-67061000I200000J0D01*
G01*
X87260000Y-67061000D01*
G75*
G02*
X87460000Y-67261000I0J-200000D01*
G01*
G37*
G36*
G01*
X85810000Y-67261000D02*
X85810000Y-67811000D01*
G75*
G02*
X85610000Y-68011000I-200000J0D01*
G01*
X85210000Y-68011000D01*
G75*
G02*
X85010000Y-67811000I0J200000D01*
G01*
X85010000Y-67261000D01*
G75*
G02*
X85210000Y-67061000I200000J0D01*
G01*
X85610000Y-67061000D01*
G75*
G02*
X85810000Y-67261000I0J-200000D01*
G01*
G37*
%TD*%
%TO.C,R21*%
G36*
G01*
X62460000Y-67261000D02*
X62460000Y-67811000D01*
G75*
G02*
X62260000Y-68011000I-200000J0D01*
G01*
X61860000Y-68011000D01*
G75*
G02*
X61660000Y-67811000I0J200000D01*
G01*
X61660000Y-67261000D01*
G75*
G02*
X61860000Y-67061000I200000J0D01*
G01*
X62260000Y-67061000D01*
G75*
G02*
X62460000Y-67261000I0J-200000D01*
G01*
G37*
G36*
G01*
X60810000Y-67261000D02*
X60810000Y-67811000D01*
G75*
G02*
X60610000Y-68011000I-200000J0D01*
G01*
X60210000Y-68011000D01*
G75*
G02*
X60010000Y-67811000I0J200000D01*
G01*
X60010000Y-67261000D01*
G75*
G02*
X60210000Y-67061000I200000J0D01*
G01*
X60610000Y-67061000D01*
G75*
G02*
X60810000Y-67261000I0J-200000D01*
G01*
G37*
%TD*%
%TO.C,R21*%
G36*
G01*
X87460000Y-54761000D02*
X87460000Y-55311000D01*
G75*
G02*
X87260000Y-55511000I-200000J0D01*
G01*
X86860000Y-55511000D01*
G75*
G02*
X86660000Y-55311000I0J200000D01*
G01*
X86660000Y-54761000D01*
G75*
G02*
X86860000Y-54561000I200000J0D01*
G01*
X87260000Y-54561000D01*
G75*
G02*
X87460000Y-54761000I0J-200000D01*
G01*
G37*
G36*
G01*
X85810000Y-54761000D02*
X85810000Y-55311000D01*
G75*
G02*
X85610000Y-55511000I-200000J0D01*
G01*
X85210000Y-55511000D01*
G75*
G02*
X85010000Y-55311000I0J200000D01*
G01*
X85010000Y-54761000D01*
G75*
G02*
X85210000Y-54561000I200000J0D01*
G01*
X85610000Y-54561000D01*
G75*
G02*
X85810000Y-54761000I0J-200000D01*
G01*
G37*
%TD*%
%TO.C,R21*%
G36*
G01*
X62460000Y-54761000D02*
X62460000Y-55311000D01*
G75*
G02*
X62260000Y-55511000I-200000J0D01*
G01*
X61860000Y-55511000D01*
G75*
G02*
X61660000Y-55311000I0J200000D01*
G01*
X61660000Y-54761000D01*
G75*
G02*
X61860000Y-54561000I200000J0D01*
G01*
X62260000Y-54561000D01*
G75*
G02*
X62460000Y-54761000I0J-200000D01*
G01*
G37*
G36*
G01*
X60810000Y-54761000D02*
X60810000Y-55311000D01*
G75*
G02*
X60610000Y-55511000I-200000J0D01*
G01*
X60210000Y-55511000D01*
G75*
G02*
X60010000Y-55311000I0J200000D01*
G01*
X60010000Y-54761000D01*
G75*
G02*
X60210000Y-54561000I200000J0D01*
G01*
X60610000Y-54561000D01*
G75*
G02*
X60810000Y-54761000I0J-200000D01*
G01*
G37*
%TD*%
%TO.C,R21*%
G36*
G01*
X87460000Y-42261000D02*
X87460000Y-42811000D01*
G75*
G02*
X87260000Y-43011000I-200000J0D01*
G01*
X86860000Y-43011000D01*
G75*
G02*
X86660000Y-42811000I0J200000D01*
G01*
X86660000Y-42261000D01*
G75*
G02*
X86860000Y-42061000I200000J0D01*
G01*
X87260000Y-42061000D01*
G75*
G02*
X87460000Y-42261000I0J-200000D01*
G01*
G37*
G36*
G01*
X85810000Y-42261000D02*
X85810000Y-42811000D01*
G75*
G02*
X85610000Y-43011000I-200000J0D01*
G01*
X85210000Y-43011000D01*
G75*
G02*
X85010000Y-42811000I0J200000D01*
G01*
X85010000Y-42261000D01*
G75*
G02*
X85210000Y-42061000I200000J0D01*
G01*
X85610000Y-42061000D01*
G75*
G02*
X85810000Y-42261000I0J-200000D01*
G01*
G37*
%TD*%
%TO.C,R3*%
G36*
G01*
X100922000Y-79634000D02*
X100922000Y-80184000D01*
G75*
G02*
X100722000Y-80384000I-200000J0D01*
G01*
X100322000Y-80384000D01*
G75*
G02*
X100122000Y-80184000I0J200000D01*
G01*
X100122000Y-79634000D01*
G75*
G02*
X100322000Y-79434000I200000J0D01*
G01*
X100722000Y-79434000D01*
G75*
G02*
X100922000Y-79634000I0J-200000D01*
G01*
G37*
G36*
G01*
X99272000Y-79634000D02*
X99272000Y-80184000D01*
G75*
G02*
X99072000Y-80384000I-200000J0D01*
G01*
X98672000Y-80384000D01*
G75*
G02*
X98472000Y-80184000I0J200000D01*
G01*
X98472000Y-79634000D01*
G75*
G02*
X98672000Y-79434000I200000J0D01*
G01*
X99072000Y-79434000D01*
G75*
G02*
X99272000Y-79634000I0J-200000D01*
G01*
G37*
%TD*%
%TO.C,R3*%
G36*
G01*
X75922000Y-79634000D02*
X75922000Y-80184000D01*
G75*
G02*
X75722000Y-80384000I-200000J0D01*
G01*
X75322000Y-80384000D01*
G75*
G02*
X75122000Y-80184000I0J200000D01*
G01*
X75122000Y-79634000D01*
G75*
G02*
X75322000Y-79434000I200000J0D01*
G01*
X75722000Y-79434000D01*
G75*
G02*
X75922000Y-79634000I0J-200000D01*
G01*
G37*
G36*
G01*
X74272000Y-79634000D02*
X74272000Y-80184000D01*
G75*
G02*
X74072000Y-80384000I-200000J0D01*
G01*
X73672000Y-80384000D01*
G75*
G02*
X73472000Y-80184000I0J200000D01*
G01*
X73472000Y-79634000D01*
G75*
G02*
X73672000Y-79434000I200000J0D01*
G01*
X74072000Y-79434000D01*
G75*
G02*
X74272000Y-79634000I0J-200000D01*
G01*
G37*
%TD*%
%TO.C,R3*%
G36*
G01*
X100922000Y-67134000D02*
X100922000Y-67684000D01*
G75*
G02*
X100722000Y-67884000I-200000J0D01*
G01*
X100322000Y-67884000D01*
G75*
G02*
X100122000Y-67684000I0J200000D01*
G01*
X100122000Y-67134000D01*
G75*
G02*
X100322000Y-66934000I200000J0D01*
G01*
X100722000Y-66934000D01*
G75*
G02*
X100922000Y-67134000I0J-200000D01*
G01*
G37*
G36*
G01*
X99272000Y-67134000D02*
X99272000Y-67684000D01*
G75*
G02*
X99072000Y-67884000I-200000J0D01*
G01*
X98672000Y-67884000D01*
G75*
G02*
X98472000Y-67684000I0J200000D01*
G01*
X98472000Y-67134000D01*
G75*
G02*
X98672000Y-66934000I200000J0D01*
G01*
X99072000Y-66934000D01*
G75*
G02*
X99272000Y-67134000I0J-200000D01*
G01*
G37*
%TD*%
%TO.C,R3*%
G36*
G01*
X75922000Y-67134000D02*
X75922000Y-67684000D01*
G75*
G02*
X75722000Y-67884000I-200000J0D01*
G01*
X75322000Y-67884000D01*
G75*
G02*
X75122000Y-67684000I0J200000D01*
G01*
X75122000Y-67134000D01*
G75*
G02*
X75322000Y-66934000I200000J0D01*
G01*
X75722000Y-66934000D01*
G75*
G02*
X75922000Y-67134000I0J-200000D01*
G01*
G37*
G36*
G01*
X74272000Y-67134000D02*
X74272000Y-67684000D01*
G75*
G02*
X74072000Y-67884000I-200000J0D01*
G01*
X73672000Y-67884000D01*
G75*
G02*
X73472000Y-67684000I0J200000D01*
G01*
X73472000Y-67134000D01*
G75*
G02*
X73672000Y-66934000I200000J0D01*
G01*
X74072000Y-66934000D01*
G75*
G02*
X74272000Y-67134000I0J-200000D01*
G01*
G37*
%TD*%
%TO.C,R3*%
G36*
G01*
X100922000Y-54634000D02*
X100922000Y-55184000D01*
G75*
G02*
X100722000Y-55384000I-200000J0D01*
G01*
X100322000Y-55384000D01*
G75*
G02*
X100122000Y-55184000I0J200000D01*
G01*
X100122000Y-54634000D01*
G75*
G02*
X100322000Y-54434000I200000J0D01*
G01*
X100722000Y-54434000D01*
G75*
G02*
X100922000Y-54634000I0J-200000D01*
G01*
G37*
G36*
G01*
X99272000Y-54634000D02*
X99272000Y-55184000D01*
G75*
G02*
X99072000Y-55384000I-200000J0D01*
G01*
X98672000Y-55384000D01*
G75*
G02*
X98472000Y-55184000I0J200000D01*
G01*
X98472000Y-54634000D01*
G75*
G02*
X98672000Y-54434000I200000J0D01*
G01*
X99072000Y-54434000D01*
G75*
G02*
X99272000Y-54634000I0J-200000D01*
G01*
G37*
%TD*%
%TO.C,R3*%
G36*
G01*
X75922000Y-54634000D02*
X75922000Y-55184000D01*
G75*
G02*
X75722000Y-55384000I-200000J0D01*
G01*
X75322000Y-55384000D01*
G75*
G02*
X75122000Y-55184000I0J200000D01*
G01*
X75122000Y-54634000D01*
G75*
G02*
X75322000Y-54434000I200000J0D01*
G01*
X75722000Y-54434000D01*
G75*
G02*
X75922000Y-54634000I0J-200000D01*
G01*
G37*
G36*
G01*
X74272000Y-54634000D02*
X74272000Y-55184000D01*
G75*
G02*
X74072000Y-55384000I-200000J0D01*
G01*
X73672000Y-55384000D01*
G75*
G02*
X73472000Y-55184000I0J200000D01*
G01*
X73472000Y-54634000D01*
G75*
G02*
X73672000Y-54434000I200000J0D01*
G01*
X74072000Y-54434000D01*
G75*
G02*
X74272000Y-54634000I0J-200000D01*
G01*
G37*
%TD*%
%TO.C,R3*%
G36*
G01*
X100922000Y-42134000D02*
X100922000Y-42684000D01*
G75*
G02*
X100722000Y-42884000I-200000J0D01*
G01*
X100322000Y-42884000D01*
G75*
G02*
X100122000Y-42684000I0J200000D01*
G01*
X100122000Y-42134000D01*
G75*
G02*
X100322000Y-41934000I200000J0D01*
G01*
X100722000Y-41934000D01*
G75*
G02*
X100922000Y-42134000I0J-200000D01*
G01*
G37*
G36*
G01*
X99272000Y-42134000D02*
X99272000Y-42684000D01*
G75*
G02*
X99072000Y-42884000I-200000J0D01*
G01*
X98672000Y-42884000D01*
G75*
G02*
X98472000Y-42684000I0J200000D01*
G01*
X98472000Y-42134000D01*
G75*
G02*
X98672000Y-41934000I200000J0D01*
G01*
X99072000Y-41934000D01*
G75*
G02*
X99272000Y-42134000I0J-200000D01*
G01*
G37*
%TD*%
%TO.C,R6*%
G36*
G01*
X93684000Y-79634000D02*
X93684000Y-80184000D01*
G75*
G02*
X93484000Y-80384000I-200000J0D01*
G01*
X93084000Y-80384000D01*
G75*
G02*
X92884000Y-80184000I0J200000D01*
G01*
X92884000Y-79634000D01*
G75*
G02*
X93084000Y-79434000I200000J0D01*
G01*
X93484000Y-79434000D01*
G75*
G02*
X93684000Y-79634000I0J-200000D01*
G01*
G37*
G36*
G01*
X92034000Y-79634000D02*
X92034000Y-80184000D01*
G75*
G02*
X91834000Y-80384000I-200000J0D01*
G01*
X91434000Y-80384000D01*
G75*
G02*
X91234000Y-80184000I0J200000D01*
G01*
X91234000Y-79634000D01*
G75*
G02*
X91434000Y-79434000I200000J0D01*
G01*
X91834000Y-79434000D01*
G75*
G02*
X92034000Y-79634000I0J-200000D01*
G01*
G37*
%TD*%
%TO.C,R6*%
G36*
G01*
X68684000Y-79634000D02*
X68684000Y-80184000D01*
G75*
G02*
X68484000Y-80384000I-200000J0D01*
G01*
X68084000Y-80384000D01*
G75*
G02*
X67884000Y-80184000I0J200000D01*
G01*
X67884000Y-79634000D01*
G75*
G02*
X68084000Y-79434000I200000J0D01*
G01*
X68484000Y-79434000D01*
G75*
G02*
X68684000Y-79634000I0J-200000D01*
G01*
G37*
G36*
G01*
X67034000Y-79634000D02*
X67034000Y-80184000D01*
G75*
G02*
X66834000Y-80384000I-200000J0D01*
G01*
X66434000Y-80384000D01*
G75*
G02*
X66234000Y-80184000I0J200000D01*
G01*
X66234000Y-79634000D01*
G75*
G02*
X66434000Y-79434000I200000J0D01*
G01*
X66834000Y-79434000D01*
G75*
G02*
X67034000Y-79634000I0J-200000D01*
G01*
G37*
%TD*%
%TO.C,R6*%
G36*
G01*
X93684000Y-67134000D02*
X93684000Y-67684000D01*
G75*
G02*
X93484000Y-67884000I-200000J0D01*
G01*
X93084000Y-67884000D01*
G75*
G02*
X92884000Y-67684000I0J200000D01*
G01*
X92884000Y-67134000D01*
G75*
G02*
X93084000Y-66934000I200000J0D01*
G01*
X93484000Y-66934000D01*
G75*
G02*
X93684000Y-67134000I0J-200000D01*
G01*
G37*
G36*
G01*
X92034000Y-67134000D02*
X92034000Y-67684000D01*
G75*
G02*
X91834000Y-67884000I-200000J0D01*
G01*
X91434000Y-67884000D01*
G75*
G02*
X91234000Y-67684000I0J200000D01*
G01*
X91234000Y-67134000D01*
G75*
G02*
X91434000Y-66934000I200000J0D01*
G01*
X91834000Y-66934000D01*
G75*
G02*
X92034000Y-67134000I0J-200000D01*
G01*
G37*
%TD*%
%TO.C,R6*%
G36*
G01*
X68684000Y-67134000D02*
X68684000Y-67684000D01*
G75*
G02*
X68484000Y-67884000I-200000J0D01*
G01*
X68084000Y-67884000D01*
G75*
G02*
X67884000Y-67684000I0J200000D01*
G01*
X67884000Y-67134000D01*
G75*
G02*
X68084000Y-66934000I200000J0D01*
G01*
X68484000Y-66934000D01*
G75*
G02*
X68684000Y-67134000I0J-200000D01*
G01*
G37*
G36*
G01*
X67034000Y-67134000D02*
X67034000Y-67684000D01*
G75*
G02*
X66834000Y-67884000I-200000J0D01*
G01*
X66434000Y-67884000D01*
G75*
G02*
X66234000Y-67684000I0J200000D01*
G01*
X66234000Y-67134000D01*
G75*
G02*
X66434000Y-66934000I200000J0D01*
G01*
X66834000Y-66934000D01*
G75*
G02*
X67034000Y-67134000I0J-200000D01*
G01*
G37*
%TD*%
%TO.C,R6*%
G36*
G01*
X93684000Y-54634000D02*
X93684000Y-55184000D01*
G75*
G02*
X93484000Y-55384000I-200000J0D01*
G01*
X93084000Y-55384000D01*
G75*
G02*
X92884000Y-55184000I0J200000D01*
G01*
X92884000Y-54634000D01*
G75*
G02*
X93084000Y-54434000I200000J0D01*
G01*
X93484000Y-54434000D01*
G75*
G02*
X93684000Y-54634000I0J-200000D01*
G01*
G37*
G36*
G01*
X92034000Y-54634000D02*
X92034000Y-55184000D01*
G75*
G02*
X91834000Y-55384000I-200000J0D01*
G01*
X91434000Y-55384000D01*
G75*
G02*
X91234000Y-55184000I0J200000D01*
G01*
X91234000Y-54634000D01*
G75*
G02*
X91434000Y-54434000I200000J0D01*
G01*
X91834000Y-54434000D01*
G75*
G02*
X92034000Y-54634000I0J-200000D01*
G01*
G37*
%TD*%
%TO.C,R6*%
G36*
G01*
X68684000Y-54634000D02*
X68684000Y-55184000D01*
G75*
G02*
X68484000Y-55384000I-200000J0D01*
G01*
X68084000Y-55384000D01*
G75*
G02*
X67884000Y-55184000I0J200000D01*
G01*
X67884000Y-54634000D01*
G75*
G02*
X68084000Y-54434000I200000J0D01*
G01*
X68484000Y-54434000D01*
G75*
G02*
X68684000Y-54634000I0J-200000D01*
G01*
G37*
G36*
G01*
X67034000Y-54634000D02*
X67034000Y-55184000D01*
G75*
G02*
X66834000Y-55384000I-200000J0D01*
G01*
X66434000Y-55384000D01*
G75*
G02*
X66234000Y-55184000I0J200000D01*
G01*
X66234000Y-54634000D01*
G75*
G02*
X66434000Y-54434000I200000J0D01*
G01*
X66834000Y-54434000D01*
G75*
G02*
X67034000Y-54634000I0J-200000D01*
G01*
G37*
%TD*%
%TO.C,R6*%
G36*
G01*
X93684000Y-42134000D02*
X93684000Y-42684000D01*
G75*
G02*
X93484000Y-42884000I-200000J0D01*
G01*
X93084000Y-42884000D01*
G75*
G02*
X92884000Y-42684000I0J200000D01*
G01*
X92884000Y-42134000D01*
G75*
G02*
X93084000Y-41934000I200000J0D01*
G01*
X93484000Y-41934000D01*
G75*
G02*
X93684000Y-42134000I0J-200000D01*
G01*
G37*
G36*
G01*
X92034000Y-42134000D02*
X92034000Y-42684000D01*
G75*
G02*
X91834000Y-42884000I-200000J0D01*
G01*
X91434000Y-42884000D01*
G75*
G02*
X91234000Y-42684000I0J200000D01*
G01*
X91234000Y-42134000D01*
G75*
G02*
X91434000Y-41934000I200000J0D01*
G01*
X91834000Y-41934000D01*
G75*
G02*
X92034000Y-42134000I0J-200000D01*
G01*
G37*
%TD*%
%TO.C,R23*%
G36*
G01*
X79422000Y-85391000D02*
X79422000Y-84841000D01*
G75*
G02*
X79622000Y-84641000I200000J0D01*
G01*
X80022000Y-84641000D01*
G75*
G02*
X80222000Y-84841000I0J-200000D01*
G01*
X80222000Y-85391000D01*
G75*
G02*
X80022000Y-85591000I-200000J0D01*
G01*
X79622000Y-85591000D01*
G75*
G02*
X79422000Y-85391000I0J200000D01*
G01*
G37*
G36*
G01*
X77772000Y-85391000D02*
X77772000Y-84841000D01*
G75*
G02*
X77972000Y-84641000I200000J0D01*
G01*
X78372000Y-84641000D01*
G75*
G02*
X78572000Y-84841000I0J-200000D01*
G01*
X78572000Y-85391000D01*
G75*
G02*
X78372000Y-85591000I-200000J0D01*
G01*
X77972000Y-85591000D01*
G75*
G02*
X77772000Y-85391000I0J200000D01*
G01*
G37*
%TD*%
%TO.C,R23*%
G36*
G01*
X54422000Y-85391000D02*
X54422000Y-84841000D01*
G75*
G02*
X54622000Y-84641000I200000J0D01*
G01*
X55022000Y-84641000D01*
G75*
G02*
X55222000Y-84841000I0J-200000D01*
G01*
X55222000Y-85391000D01*
G75*
G02*
X55022000Y-85591000I-200000J0D01*
G01*
X54622000Y-85591000D01*
G75*
G02*
X54422000Y-85391000I0J200000D01*
G01*
G37*
G36*
G01*
X52772000Y-85391000D02*
X52772000Y-84841000D01*
G75*
G02*
X52972000Y-84641000I200000J0D01*
G01*
X53372000Y-84641000D01*
G75*
G02*
X53572000Y-84841000I0J-200000D01*
G01*
X53572000Y-85391000D01*
G75*
G02*
X53372000Y-85591000I-200000J0D01*
G01*
X52972000Y-85591000D01*
G75*
G02*
X52772000Y-85391000I0J200000D01*
G01*
G37*
%TD*%
%TO.C,R23*%
G36*
G01*
X79422000Y-72891000D02*
X79422000Y-72341000D01*
G75*
G02*
X79622000Y-72141000I200000J0D01*
G01*
X80022000Y-72141000D01*
G75*
G02*
X80222000Y-72341000I0J-200000D01*
G01*
X80222000Y-72891000D01*
G75*
G02*
X80022000Y-73091000I-200000J0D01*
G01*
X79622000Y-73091000D01*
G75*
G02*
X79422000Y-72891000I0J200000D01*
G01*
G37*
G36*
G01*
X77772000Y-72891000D02*
X77772000Y-72341000D01*
G75*
G02*
X77972000Y-72141000I200000J0D01*
G01*
X78372000Y-72141000D01*
G75*
G02*
X78572000Y-72341000I0J-200000D01*
G01*
X78572000Y-72891000D01*
G75*
G02*
X78372000Y-73091000I-200000J0D01*
G01*
X77972000Y-73091000D01*
G75*
G02*
X77772000Y-72891000I0J200000D01*
G01*
G37*
%TD*%
%TO.C,R23*%
G36*
G01*
X54422000Y-72891000D02*
X54422000Y-72341000D01*
G75*
G02*
X54622000Y-72141000I200000J0D01*
G01*
X55022000Y-72141000D01*
G75*
G02*
X55222000Y-72341000I0J-200000D01*
G01*
X55222000Y-72891000D01*
G75*
G02*
X55022000Y-73091000I-200000J0D01*
G01*
X54622000Y-73091000D01*
G75*
G02*
X54422000Y-72891000I0J200000D01*
G01*
G37*
G36*
G01*
X52772000Y-72891000D02*
X52772000Y-72341000D01*
G75*
G02*
X52972000Y-72141000I200000J0D01*
G01*
X53372000Y-72141000D01*
G75*
G02*
X53572000Y-72341000I0J-200000D01*
G01*
X53572000Y-72891000D01*
G75*
G02*
X53372000Y-73091000I-200000J0D01*
G01*
X52972000Y-73091000D01*
G75*
G02*
X52772000Y-72891000I0J200000D01*
G01*
G37*
%TD*%
%TO.C,R23*%
G36*
G01*
X79422000Y-60391000D02*
X79422000Y-59841000D01*
G75*
G02*
X79622000Y-59641000I200000J0D01*
G01*
X80022000Y-59641000D01*
G75*
G02*
X80222000Y-59841000I0J-200000D01*
G01*
X80222000Y-60391000D01*
G75*
G02*
X80022000Y-60591000I-200000J0D01*
G01*
X79622000Y-60591000D01*
G75*
G02*
X79422000Y-60391000I0J200000D01*
G01*
G37*
G36*
G01*
X77772000Y-60391000D02*
X77772000Y-59841000D01*
G75*
G02*
X77972000Y-59641000I200000J0D01*
G01*
X78372000Y-59641000D01*
G75*
G02*
X78572000Y-59841000I0J-200000D01*
G01*
X78572000Y-60391000D01*
G75*
G02*
X78372000Y-60591000I-200000J0D01*
G01*
X77972000Y-60591000D01*
G75*
G02*
X77772000Y-60391000I0J200000D01*
G01*
G37*
%TD*%
%TO.C,R23*%
G36*
G01*
X54422000Y-60391000D02*
X54422000Y-59841000D01*
G75*
G02*
X54622000Y-59641000I200000J0D01*
G01*
X55022000Y-59641000D01*
G75*
G02*
X55222000Y-59841000I0J-200000D01*
G01*
X55222000Y-60391000D01*
G75*
G02*
X55022000Y-60591000I-200000J0D01*
G01*
X54622000Y-60591000D01*
G75*
G02*
X54422000Y-60391000I0J200000D01*
G01*
G37*
G36*
G01*
X52772000Y-60391000D02*
X52772000Y-59841000D01*
G75*
G02*
X52972000Y-59641000I200000J0D01*
G01*
X53372000Y-59641000D01*
G75*
G02*
X53572000Y-59841000I0J-200000D01*
G01*
X53572000Y-60391000D01*
G75*
G02*
X53372000Y-60591000I-200000J0D01*
G01*
X52972000Y-60591000D01*
G75*
G02*
X52772000Y-60391000I0J200000D01*
G01*
G37*
%TD*%
%TO.C,R23*%
G36*
G01*
X79422000Y-47891000D02*
X79422000Y-47341000D01*
G75*
G02*
X79622000Y-47141000I200000J0D01*
G01*
X80022000Y-47141000D01*
G75*
G02*
X80222000Y-47341000I0J-200000D01*
G01*
X80222000Y-47891000D01*
G75*
G02*
X80022000Y-48091000I-200000J0D01*
G01*
X79622000Y-48091000D01*
G75*
G02*
X79422000Y-47891000I0J200000D01*
G01*
G37*
G36*
G01*
X77772000Y-47891000D02*
X77772000Y-47341000D01*
G75*
G02*
X77972000Y-47141000I200000J0D01*
G01*
X78372000Y-47141000D01*
G75*
G02*
X78572000Y-47341000I0J-200000D01*
G01*
X78572000Y-47891000D01*
G75*
G02*
X78372000Y-48091000I-200000J0D01*
G01*
X77972000Y-48091000D01*
G75*
G02*
X77772000Y-47891000I0J200000D01*
G01*
G37*
%TD*%
%TO.C,U2*%
G36*
G01*
X92797000Y-90427000D02*
X92797000Y-90727000D01*
G75*
G02*
X92647000Y-90877000I-150000J0D01*
G01*
X90997000Y-90877000D01*
G75*
G02*
X90847000Y-90727000I0J150000D01*
G01*
X90847000Y-90427000D01*
G75*
G02*
X90997000Y-90277000I150000J0D01*
G01*
X92647000Y-90277000D01*
G75*
G02*
X92797000Y-90427000I0J-150000D01*
G01*
G37*
G36*
G01*
X92797000Y-89157000D02*
X92797000Y-89457000D01*
G75*
G02*
X92647000Y-89607000I-150000J0D01*
G01*
X90997000Y-89607000D01*
G75*
G02*
X90847000Y-89457000I0J150000D01*
G01*
X90847000Y-89157000D01*
G75*
G02*
X90997000Y-89007000I150000J0D01*
G01*
X92647000Y-89007000D01*
G75*
G02*
X92797000Y-89157000I0J-150000D01*
G01*
G37*
G36*
G01*
X92797000Y-87887000D02*
X92797000Y-88187000D01*
G75*
G02*
X92647000Y-88337000I-150000J0D01*
G01*
X90997000Y-88337000D01*
G75*
G02*
X90847000Y-88187000I0J150000D01*
G01*
X90847000Y-87887000D01*
G75*
G02*
X90997000Y-87737000I150000J0D01*
G01*
X92647000Y-87737000D01*
G75*
G02*
X92797000Y-87887000I0J-150000D01*
G01*
G37*
G36*
G01*
X92797000Y-86617000D02*
X92797000Y-86917000D01*
G75*
G02*
X92647000Y-87067000I-150000J0D01*
G01*
X90997000Y-87067000D01*
G75*
G02*
X90847000Y-86917000I0J150000D01*
G01*
X90847000Y-86617000D01*
G75*
G02*
X90997000Y-86467000I150000J0D01*
G01*
X92647000Y-86467000D01*
G75*
G02*
X92797000Y-86617000I0J-150000D01*
G01*
G37*
G36*
G01*
X87847000Y-86617000D02*
X87847000Y-86917000D01*
G75*
G02*
X87697000Y-87067000I-150000J0D01*
G01*
X86047000Y-87067000D01*
G75*
G02*
X85897000Y-86917000I0J150000D01*
G01*
X85897000Y-86617000D01*
G75*
G02*
X86047000Y-86467000I150000J0D01*
G01*
X87697000Y-86467000D01*
G75*
G02*
X87847000Y-86617000I0J-150000D01*
G01*
G37*
G36*
G01*
X87847000Y-87887000D02*
X87847000Y-88187000D01*
G75*
G02*
X87697000Y-88337000I-150000J0D01*
G01*
X86047000Y-88337000D01*
G75*
G02*
X85897000Y-88187000I0J150000D01*
G01*
X85897000Y-87887000D01*
G75*
G02*
X86047000Y-87737000I150000J0D01*
G01*
X87697000Y-87737000D01*
G75*
G02*
X87847000Y-87887000I0J-150000D01*
G01*
G37*
G36*
G01*
X87847000Y-89157000D02*
X87847000Y-89457000D01*
G75*
G02*
X87697000Y-89607000I-150000J0D01*
G01*
X86047000Y-89607000D01*
G75*
G02*
X85897000Y-89457000I0J150000D01*
G01*
X85897000Y-89157000D01*
G75*
G02*
X86047000Y-89007000I150000J0D01*
G01*
X87697000Y-89007000D01*
G75*
G02*
X87847000Y-89157000I0J-150000D01*
G01*
G37*
G36*
G01*
X87847000Y-90427000D02*
X87847000Y-90727000D01*
G75*
G02*
X87697000Y-90877000I-150000J0D01*
G01*
X86047000Y-90877000D01*
G75*
G02*
X85897000Y-90727000I0J150000D01*
G01*
X85897000Y-90427000D01*
G75*
G02*
X86047000Y-90277000I150000J0D01*
G01*
X87697000Y-90277000D01*
G75*
G02*
X87847000Y-90427000I0J-150000D01*
G01*
G37*
%TD*%
%TO.C,U2*%
G36*
G01*
X67797000Y-90427000D02*
X67797000Y-90727000D01*
G75*
G02*
X67647000Y-90877000I-150000J0D01*
G01*
X65997000Y-90877000D01*
G75*
G02*
X65847000Y-90727000I0J150000D01*
G01*
X65847000Y-90427000D01*
G75*
G02*
X65997000Y-90277000I150000J0D01*
G01*
X67647000Y-90277000D01*
G75*
G02*
X67797000Y-90427000I0J-150000D01*
G01*
G37*
G36*
G01*
X67797000Y-89157000D02*
X67797000Y-89457000D01*
G75*
G02*
X67647000Y-89607000I-150000J0D01*
G01*
X65997000Y-89607000D01*
G75*
G02*
X65847000Y-89457000I0J150000D01*
G01*
X65847000Y-89157000D01*
G75*
G02*
X65997000Y-89007000I150000J0D01*
G01*
X67647000Y-89007000D01*
G75*
G02*
X67797000Y-89157000I0J-150000D01*
G01*
G37*
G36*
G01*
X67797000Y-87887000D02*
X67797000Y-88187000D01*
G75*
G02*
X67647000Y-88337000I-150000J0D01*
G01*
X65997000Y-88337000D01*
G75*
G02*
X65847000Y-88187000I0J150000D01*
G01*
X65847000Y-87887000D01*
G75*
G02*
X65997000Y-87737000I150000J0D01*
G01*
X67647000Y-87737000D01*
G75*
G02*
X67797000Y-87887000I0J-150000D01*
G01*
G37*
G36*
G01*
X67797000Y-86617000D02*
X67797000Y-86917000D01*
G75*
G02*
X67647000Y-87067000I-150000J0D01*
G01*
X65997000Y-87067000D01*
G75*
G02*
X65847000Y-86917000I0J150000D01*
G01*
X65847000Y-86617000D01*
G75*
G02*
X65997000Y-86467000I150000J0D01*
G01*
X67647000Y-86467000D01*
G75*
G02*
X67797000Y-86617000I0J-150000D01*
G01*
G37*
G36*
G01*
X62847000Y-86617000D02*
X62847000Y-86917000D01*
G75*
G02*
X62697000Y-87067000I-150000J0D01*
G01*
X61047000Y-87067000D01*
G75*
G02*
X60897000Y-86917000I0J150000D01*
G01*
X60897000Y-86617000D01*
G75*
G02*
X61047000Y-86467000I150000J0D01*
G01*
X62697000Y-86467000D01*
G75*
G02*
X62847000Y-86617000I0J-150000D01*
G01*
G37*
G36*
G01*
X62847000Y-87887000D02*
X62847000Y-88187000D01*
G75*
G02*
X62697000Y-88337000I-150000J0D01*
G01*
X61047000Y-88337000D01*
G75*
G02*
X60897000Y-88187000I0J150000D01*
G01*
X60897000Y-87887000D01*
G75*
G02*
X61047000Y-87737000I150000J0D01*
G01*
X62697000Y-87737000D01*
G75*
G02*
X62847000Y-87887000I0J-150000D01*
G01*
G37*
G36*
G01*
X62847000Y-89157000D02*
X62847000Y-89457000D01*
G75*
G02*
X62697000Y-89607000I-150000J0D01*
G01*
X61047000Y-89607000D01*
G75*
G02*
X60897000Y-89457000I0J150000D01*
G01*
X60897000Y-89157000D01*
G75*
G02*
X61047000Y-89007000I150000J0D01*
G01*
X62697000Y-89007000D01*
G75*
G02*
X62847000Y-89157000I0J-150000D01*
G01*
G37*
G36*
G01*
X62847000Y-90427000D02*
X62847000Y-90727000D01*
G75*
G02*
X62697000Y-90877000I-150000J0D01*
G01*
X61047000Y-90877000D01*
G75*
G02*
X60897000Y-90727000I0J150000D01*
G01*
X60897000Y-90427000D01*
G75*
G02*
X61047000Y-90277000I150000J0D01*
G01*
X62697000Y-90277000D01*
G75*
G02*
X62847000Y-90427000I0J-150000D01*
G01*
G37*
%TD*%
%TO.C,U2*%
G36*
G01*
X92797000Y-77927000D02*
X92797000Y-78227000D01*
G75*
G02*
X92647000Y-78377000I-150000J0D01*
G01*
X90997000Y-78377000D01*
G75*
G02*
X90847000Y-78227000I0J150000D01*
G01*
X90847000Y-77927000D01*
G75*
G02*
X90997000Y-77777000I150000J0D01*
G01*
X92647000Y-77777000D01*
G75*
G02*
X92797000Y-77927000I0J-150000D01*
G01*
G37*
G36*
G01*
X92797000Y-76657000D02*
X92797000Y-76957000D01*
G75*
G02*
X92647000Y-77107000I-150000J0D01*
G01*
X90997000Y-77107000D01*
G75*
G02*
X90847000Y-76957000I0J150000D01*
G01*
X90847000Y-76657000D01*
G75*
G02*
X90997000Y-76507000I150000J0D01*
G01*
X92647000Y-76507000D01*
G75*
G02*
X92797000Y-76657000I0J-150000D01*
G01*
G37*
G36*
G01*
X92797000Y-75387000D02*
X92797000Y-75687000D01*
G75*
G02*
X92647000Y-75837000I-150000J0D01*
G01*
X90997000Y-75837000D01*
G75*
G02*
X90847000Y-75687000I0J150000D01*
G01*
X90847000Y-75387000D01*
G75*
G02*
X90997000Y-75237000I150000J0D01*
G01*
X92647000Y-75237000D01*
G75*
G02*
X92797000Y-75387000I0J-150000D01*
G01*
G37*
G36*
G01*
X92797000Y-74117000D02*
X92797000Y-74417000D01*
G75*
G02*
X92647000Y-74567000I-150000J0D01*
G01*
X90997000Y-74567000D01*
G75*
G02*
X90847000Y-74417000I0J150000D01*
G01*
X90847000Y-74117000D01*
G75*
G02*
X90997000Y-73967000I150000J0D01*
G01*
X92647000Y-73967000D01*
G75*
G02*
X92797000Y-74117000I0J-150000D01*
G01*
G37*
G36*
G01*
X87847000Y-74117000D02*
X87847000Y-74417000D01*
G75*
G02*
X87697000Y-74567000I-150000J0D01*
G01*
X86047000Y-74567000D01*
G75*
G02*
X85897000Y-74417000I0J150000D01*
G01*
X85897000Y-74117000D01*
G75*
G02*
X86047000Y-73967000I150000J0D01*
G01*
X87697000Y-73967000D01*
G75*
G02*
X87847000Y-74117000I0J-150000D01*
G01*
G37*
G36*
G01*
X87847000Y-75387000D02*
X87847000Y-75687000D01*
G75*
G02*
X87697000Y-75837000I-150000J0D01*
G01*
X86047000Y-75837000D01*
G75*
G02*
X85897000Y-75687000I0J150000D01*
G01*
X85897000Y-75387000D01*
G75*
G02*
X86047000Y-75237000I150000J0D01*
G01*
X87697000Y-75237000D01*
G75*
G02*
X87847000Y-75387000I0J-150000D01*
G01*
G37*
G36*
G01*
X87847000Y-76657000D02*
X87847000Y-76957000D01*
G75*
G02*
X87697000Y-77107000I-150000J0D01*
G01*
X86047000Y-77107000D01*
G75*
G02*
X85897000Y-76957000I0J150000D01*
G01*
X85897000Y-76657000D01*
G75*
G02*
X86047000Y-76507000I150000J0D01*
G01*
X87697000Y-76507000D01*
G75*
G02*
X87847000Y-76657000I0J-150000D01*
G01*
G37*
G36*
G01*
X87847000Y-77927000D02*
X87847000Y-78227000D01*
G75*
G02*
X87697000Y-78377000I-150000J0D01*
G01*
X86047000Y-78377000D01*
G75*
G02*
X85897000Y-78227000I0J150000D01*
G01*
X85897000Y-77927000D01*
G75*
G02*
X86047000Y-77777000I150000J0D01*
G01*
X87697000Y-77777000D01*
G75*
G02*
X87847000Y-77927000I0J-150000D01*
G01*
G37*
%TD*%
%TO.C,U2*%
G36*
G01*
X67797000Y-77927000D02*
X67797000Y-78227000D01*
G75*
G02*
X67647000Y-78377000I-150000J0D01*
G01*
X65997000Y-78377000D01*
G75*
G02*
X65847000Y-78227000I0J150000D01*
G01*
X65847000Y-77927000D01*
G75*
G02*
X65997000Y-77777000I150000J0D01*
G01*
X67647000Y-77777000D01*
G75*
G02*
X67797000Y-77927000I0J-150000D01*
G01*
G37*
G36*
G01*
X67797000Y-76657000D02*
X67797000Y-76957000D01*
G75*
G02*
X67647000Y-77107000I-150000J0D01*
G01*
X65997000Y-77107000D01*
G75*
G02*
X65847000Y-76957000I0J150000D01*
G01*
X65847000Y-76657000D01*
G75*
G02*
X65997000Y-76507000I150000J0D01*
G01*
X67647000Y-76507000D01*
G75*
G02*
X67797000Y-76657000I0J-150000D01*
G01*
G37*
G36*
G01*
X67797000Y-75387000D02*
X67797000Y-75687000D01*
G75*
G02*
X67647000Y-75837000I-150000J0D01*
G01*
X65997000Y-75837000D01*
G75*
G02*
X65847000Y-75687000I0J150000D01*
G01*
X65847000Y-75387000D01*
G75*
G02*
X65997000Y-75237000I150000J0D01*
G01*
X67647000Y-75237000D01*
G75*
G02*
X67797000Y-75387000I0J-150000D01*
G01*
G37*
G36*
G01*
X67797000Y-74117000D02*
X67797000Y-74417000D01*
G75*
G02*
X67647000Y-74567000I-150000J0D01*
G01*
X65997000Y-74567000D01*
G75*
G02*
X65847000Y-74417000I0J150000D01*
G01*
X65847000Y-74117000D01*
G75*
G02*
X65997000Y-73967000I150000J0D01*
G01*
X67647000Y-73967000D01*
G75*
G02*
X67797000Y-74117000I0J-150000D01*
G01*
G37*
G36*
G01*
X62847000Y-74117000D02*
X62847000Y-74417000D01*
G75*
G02*
X62697000Y-74567000I-150000J0D01*
G01*
X61047000Y-74567000D01*
G75*
G02*
X60897000Y-74417000I0J150000D01*
G01*
X60897000Y-74117000D01*
G75*
G02*
X61047000Y-73967000I150000J0D01*
G01*
X62697000Y-73967000D01*
G75*
G02*
X62847000Y-74117000I0J-150000D01*
G01*
G37*
G36*
G01*
X62847000Y-75387000D02*
X62847000Y-75687000D01*
G75*
G02*
X62697000Y-75837000I-150000J0D01*
G01*
X61047000Y-75837000D01*
G75*
G02*
X60897000Y-75687000I0J150000D01*
G01*
X60897000Y-75387000D01*
G75*
G02*
X61047000Y-75237000I150000J0D01*
G01*
X62697000Y-75237000D01*
G75*
G02*
X62847000Y-75387000I0J-150000D01*
G01*
G37*
G36*
G01*
X62847000Y-76657000D02*
X62847000Y-76957000D01*
G75*
G02*
X62697000Y-77107000I-150000J0D01*
G01*
X61047000Y-77107000D01*
G75*
G02*
X60897000Y-76957000I0J150000D01*
G01*
X60897000Y-76657000D01*
G75*
G02*
X61047000Y-76507000I150000J0D01*
G01*
X62697000Y-76507000D01*
G75*
G02*
X62847000Y-76657000I0J-150000D01*
G01*
G37*
G36*
G01*
X62847000Y-77927000D02*
X62847000Y-78227000D01*
G75*
G02*
X62697000Y-78377000I-150000J0D01*
G01*
X61047000Y-78377000D01*
G75*
G02*
X60897000Y-78227000I0J150000D01*
G01*
X60897000Y-77927000D01*
G75*
G02*
X61047000Y-77777000I150000J0D01*
G01*
X62697000Y-77777000D01*
G75*
G02*
X62847000Y-77927000I0J-150000D01*
G01*
G37*
%TD*%
%TO.C,U2*%
G36*
G01*
X92797000Y-65427000D02*
X92797000Y-65727000D01*
G75*
G02*
X92647000Y-65877000I-150000J0D01*
G01*
X90997000Y-65877000D01*
G75*
G02*
X90847000Y-65727000I0J150000D01*
G01*
X90847000Y-65427000D01*
G75*
G02*
X90997000Y-65277000I150000J0D01*
G01*
X92647000Y-65277000D01*
G75*
G02*
X92797000Y-65427000I0J-150000D01*
G01*
G37*
G36*
G01*
X92797000Y-64157000D02*
X92797000Y-64457000D01*
G75*
G02*
X92647000Y-64607000I-150000J0D01*
G01*
X90997000Y-64607000D01*
G75*
G02*
X90847000Y-64457000I0J150000D01*
G01*
X90847000Y-64157000D01*
G75*
G02*
X90997000Y-64007000I150000J0D01*
G01*
X92647000Y-64007000D01*
G75*
G02*
X92797000Y-64157000I0J-150000D01*
G01*
G37*
G36*
G01*
X92797000Y-62887000D02*
X92797000Y-63187000D01*
G75*
G02*
X92647000Y-63337000I-150000J0D01*
G01*
X90997000Y-63337000D01*
G75*
G02*
X90847000Y-63187000I0J150000D01*
G01*
X90847000Y-62887000D01*
G75*
G02*
X90997000Y-62737000I150000J0D01*
G01*
X92647000Y-62737000D01*
G75*
G02*
X92797000Y-62887000I0J-150000D01*
G01*
G37*
G36*
G01*
X92797000Y-61617000D02*
X92797000Y-61917000D01*
G75*
G02*
X92647000Y-62067000I-150000J0D01*
G01*
X90997000Y-62067000D01*
G75*
G02*
X90847000Y-61917000I0J150000D01*
G01*
X90847000Y-61617000D01*
G75*
G02*
X90997000Y-61467000I150000J0D01*
G01*
X92647000Y-61467000D01*
G75*
G02*
X92797000Y-61617000I0J-150000D01*
G01*
G37*
G36*
G01*
X87847000Y-61617000D02*
X87847000Y-61917000D01*
G75*
G02*
X87697000Y-62067000I-150000J0D01*
G01*
X86047000Y-62067000D01*
G75*
G02*
X85897000Y-61917000I0J150000D01*
G01*
X85897000Y-61617000D01*
G75*
G02*
X86047000Y-61467000I150000J0D01*
G01*
X87697000Y-61467000D01*
G75*
G02*
X87847000Y-61617000I0J-150000D01*
G01*
G37*
G36*
G01*
X87847000Y-62887000D02*
X87847000Y-63187000D01*
G75*
G02*
X87697000Y-63337000I-150000J0D01*
G01*
X86047000Y-63337000D01*
G75*
G02*
X85897000Y-63187000I0J150000D01*
G01*
X85897000Y-62887000D01*
G75*
G02*
X86047000Y-62737000I150000J0D01*
G01*
X87697000Y-62737000D01*
G75*
G02*
X87847000Y-62887000I0J-150000D01*
G01*
G37*
G36*
G01*
X87847000Y-64157000D02*
X87847000Y-64457000D01*
G75*
G02*
X87697000Y-64607000I-150000J0D01*
G01*
X86047000Y-64607000D01*
G75*
G02*
X85897000Y-64457000I0J150000D01*
G01*
X85897000Y-64157000D01*
G75*
G02*
X86047000Y-64007000I150000J0D01*
G01*
X87697000Y-64007000D01*
G75*
G02*
X87847000Y-64157000I0J-150000D01*
G01*
G37*
G36*
G01*
X87847000Y-65427000D02*
X87847000Y-65727000D01*
G75*
G02*
X87697000Y-65877000I-150000J0D01*
G01*
X86047000Y-65877000D01*
G75*
G02*
X85897000Y-65727000I0J150000D01*
G01*
X85897000Y-65427000D01*
G75*
G02*
X86047000Y-65277000I150000J0D01*
G01*
X87697000Y-65277000D01*
G75*
G02*
X87847000Y-65427000I0J-150000D01*
G01*
G37*
%TD*%
%TO.C,U2*%
G36*
G01*
X67797000Y-65427000D02*
X67797000Y-65727000D01*
G75*
G02*
X67647000Y-65877000I-150000J0D01*
G01*
X65997000Y-65877000D01*
G75*
G02*
X65847000Y-65727000I0J150000D01*
G01*
X65847000Y-65427000D01*
G75*
G02*
X65997000Y-65277000I150000J0D01*
G01*
X67647000Y-65277000D01*
G75*
G02*
X67797000Y-65427000I0J-150000D01*
G01*
G37*
G36*
G01*
X67797000Y-64157000D02*
X67797000Y-64457000D01*
G75*
G02*
X67647000Y-64607000I-150000J0D01*
G01*
X65997000Y-64607000D01*
G75*
G02*
X65847000Y-64457000I0J150000D01*
G01*
X65847000Y-64157000D01*
G75*
G02*
X65997000Y-64007000I150000J0D01*
G01*
X67647000Y-64007000D01*
G75*
G02*
X67797000Y-64157000I0J-150000D01*
G01*
G37*
G36*
G01*
X67797000Y-62887000D02*
X67797000Y-63187000D01*
G75*
G02*
X67647000Y-63337000I-150000J0D01*
G01*
X65997000Y-63337000D01*
G75*
G02*
X65847000Y-63187000I0J150000D01*
G01*
X65847000Y-62887000D01*
G75*
G02*
X65997000Y-62737000I150000J0D01*
G01*
X67647000Y-62737000D01*
G75*
G02*
X67797000Y-62887000I0J-150000D01*
G01*
G37*
G36*
G01*
X67797000Y-61617000D02*
X67797000Y-61917000D01*
G75*
G02*
X67647000Y-62067000I-150000J0D01*
G01*
X65997000Y-62067000D01*
G75*
G02*
X65847000Y-61917000I0J150000D01*
G01*
X65847000Y-61617000D01*
G75*
G02*
X65997000Y-61467000I150000J0D01*
G01*
X67647000Y-61467000D01*
G75*
G02*
X67797000Y-61617000I0J-150000D01*
G01*
G37*
G36*
G01*
X62847000Y-61617000D02*
X62847000Y-61917000D01*
G75*
G02*
X62697000Y-62067000I-150000J0D01*
G01*
X61047000Y-62067000D01*
G75*
G02*
X60897000Y-61917000I0J150000D01*
G01*
X60897000Y-61617000D01*
G75*
G02*
X61047000Y-61467000I150000J0D01*
G01*
X62697000Y-61467000D01*
G75*
G02*
X62847000Y-61617000I0J-150000D01*
G01*
G37*
G36*
G01*
X62847000Y-62887000D02*
X62847000Y-63187000D01*
G75*
G02*
X62697000Y-63337000I-150000J0D01*
G01*
X61047000Y-63337000D01*
G75*
G02*
X60897000Y-63187000I0J150000D01*
G01*
X60897000Y-62887000D01*
G75*
G02*
X61047000Y-62737000I150000J0D01*
G01*
X62697000Y-62737000D01*
G75*
G02*
X62847000Y-62887000I0J-150000D01*
G01*
G37*
G36*
G01*
X62847000Y-64157000D02*
X62847000Y-64457000D01*
G75*
G02*
X62697000Y-64607000I-150000J0D01*
G01*
X61047000Y-64607000D01*
G75*
G02*
X60897000Y-64457000I0J150000D01*
G01*
X60897000Y-64157000D01*
G75*
G02*
X61047000Y-64007000I150000J0D01*
G01*
X62697000Y-64007000D01*
G75*
G02*
X62847000Y-64157000I0J-150000D01*
G01*
G37*
G36*
G01*
X62847000Y-65427000D02*
X62847000Y-65727000D01*
G75*
G02*
X62697000Y-65877000I-150000J0D01*
G01*
X61047000Y-65877000D01*
G75*
G02*
X60897000Y-65727000I0J150000D01*
G01*
X60897000Y-65427000D01*
G75*
G02*
X61047000Y-65277000I150000J0D01*
G01*
X62697000Y-65277000D01*
G75*
G02*
X62847000Y-65427000I0J-150000D01*
G01*
G37*
%TD*%
%TO.C,U2*%
G36*
G01*
X92797000Y-52927000D02*
X92797000Y-53227000D01*
G75*
G02*
X92647000Y-53377000I-150000J0D01*
G01*
X90997000Y-53377000D01*
G75*
G02*
X90847000Y-53227000I0J150000D01*
G01*
X90847000Y-52927000D01*
G75*
G02*
X90997000Y-52777000I150000J0D01*
G01*
X92647000Y-52777000D01*
G75*
G02*
X92797000Y-52927000I0J-150000D01*
G01*
G37*
G36*
G01*
X92797000Y-51657000D02*
X92797000Y-51957000D01*
G75*
G02*
X92647000Y-52107000I-150000J0D01*
G01*
X90997000Y-52107000D01*
G75*
G02*
X90847000Y-51957000I0J150000D01*
G01*
X90847000Y-51657000D01*
G75*
G02*
X90997000Y-51507000I150000J0D01*
G01*
X92647000Y-51507000D01*
G75*
G02*
X92797000Y-51657000I0J-150000D01*
G01*
G37*
G36*
G01*
X92797000Y-50387000D02*
X92797000Y-50687000D01*
G75*
G02*
X92647000Y-50837000I-150000J0D01*
G01*
X90997000Y-50837000D01*
G75*
G02*
X90847000Y-50687000I0J150000D01*
G01*
X90847000Y-50387000D01*
G75*
G02*
X90997000Y-50237000I150000J0D01*
G01*
X92647000Y-50237000D01*
G75*
G02*
X92797000Y-50387000I0J-150000D01*
G01*
G37*
G36*
G01*
X92797000Y-49117000D02*
X92797000Y-49417000D01*
G75*
G02*
X92647000Y-49567000I-150000J0D01*
G01*
X90997000Y-49567000D01*
G75*
G02*
X90847000Y-49417000I0J150000D01*
G01*
X90847000Y-49117000D01*
G75*
G02*
X90997000Y-48967000I150000J0D01*
G01*
X92647000Y-48967000D01*
G75*
G02*
X92797000Y-49117000I0J-150000D01*
G01*
G37*
G36*
G01*
X87847000Y-49117000D02*
X87847000Y-49417000D01*
G75*
G02*
X87697000Y-49567000I-150000J0D01*
G01*
X86047000Y-49567000D01*
G75*
G02*
X85897000Y-49417000I0J150000D01*
G01*
X85897000Y-49117000D01*
G75*
G02*
X86047000Y-48967000I150000J0D01*
G01*
X87697000Y-48967000D01*
G75*
G02*
X87847000Y-49117000I0J-150000D01*
G01*
G37*
G36*
G01*
X87847000Y-50387000D02*
X87847000Y-50687000D01*
G75*
G02*
X87697000Y-50837000I-150000J0D01*
G01*
X86047000Y-50837000D01*
G75*
G02*
X85897000Y-50687000I0J150000D01*
G01*
X85897000Y-50387000D01*
G75*
G02*
X86047000Y-50237000I150000J0D01*
G01*
X87697000Y-50237000D01*
G75*
G02*
X87847000Y-50387000I0J-150000D01*
G01*
G37*
G36*
G01*
X87847000Y-51657000D02*
X87847000Y-51957000D01*
G75*
G02*
X87697000Y-52107000I-150000J0D01*
G01*
X86047000Y-52107000D01*
G75*
G02*
X85897000Y-51957000I0J150000D01*
G01*
X85897000Y-51657000D01*
G75*
G02*
X86047000Y-51507000I150000J0D01*
G01*
X87697000Y-51507000D01*
G75*
G02*
X87847000Y-51657000I0J-150000D01*
G01*
G37*
G36*
G01*
X87847000Y-52927000D02*
X87847000Y-53227000D01*
G75*
G02*
X87697000Y-53377000I-150000J0D01*
G01*
X86047000Y-53377000D01*
G75*
G02*
X85897000Y-53227000I0J150000D01*
G01*
X85897000Y-52927000D01*
G75*
G02*
X86047000Y-52777000I150000J0D01*
G01*
X87697000Y-52777000D01*
G75*
G02*
X87847000Y-52927000I0J-150000D01*
G01*
G37*
%TD*%
D11*
%TO.C,J2*%
X80711000Y-88037000D03*
D12*
X80711000Y-89307000D03*
X79441000Y-88037000D03*
X79441000Y-89307000D03*
X78171000Y-88037000D03*
X78171000Y-89307000D03*
%TD*%
D11*
%TO.C,J2*%
X55711000Y-88037000D03*
D12*
X55711000Y-89307000D03*
X54441000Y-88037000D03*
X54441000Y-89307000D03*
X53171000Y-88037000D03*
X53171000Y-89307000D03*
%TD*%
D11*
%TO.C,J2*%
X80711000Y-75537000D03*
D12*
X80711000Y-76807000D03*
X79441000Y-75537000D03*
X79441000Y-76807000D03*
X78171000Y-75537000D03*
X78171000Y-76807000D03*
%TD*%
D11*
%TO.C,J2*%
X55711000Y-75537000D03*
D12*
X55711000Y-76807000D03*
X54441000Y-75537000D03*
X54441000Y-76807000D03*
X53171000Y-75537000D03*
X53171000Y-76807000D03*
%TD*%
D11*
%TO.C,J2*%
X80711000Y-63037000D03*
D12*
X80711000Y-64307000D03*
X79441000Y-63037000D03*
X79441000Y-64307000D03*
X78171000Y-63037000D03*
X78171000Y-64307000D03*
%TD*%
D11*
%TO.C,J2*%
X55711000Y-63037000D03*
D12*
X55711000Y-64307000D03*
X54441000Y-63037000D03*
X54441000Y-64307000D03*
X53171000Y-63037000D03*
X53171000Y-64307000D03*
%TD*%
D11*
%TO.C,J2*%
X80711000Y-50537000D03*
D12*
X80711000Y-51807000D03*
X79441000Y-50537000D03*
X79441000Y-51807000D03*
X78171000Y-50537000D03*
X78171000Y-51807000D03*
%TD*%
D11*
%TO.C,J1*%
X100523000Y-88037000D03*
D12*
X100523000Y-89307000D03*
X99253000Y-88037000D03*
X99253000Y-89307000D03*
X97983000Y-88037000D03*
X97983000Y-89307000D03*
%TD*%
D11*
%TO.C,J1*%
X75523000Y-88037000D03*
D12*
X75523000Y-89307000D03*
X74253000Y-88037000D03*
X74253000Y-89307000D03*
X72983000Y-88037000D03*
X72983000Y-89307000D03*
%TD*%
D11*
%TO.C,J1*%
X100523000Y-75537000D03*
D12*
X100523000Y-76807000D03*
X99253000Y-75537000D03*
X99253000Y-76807000D03*
X97983000Y-75537000D03*
X97983000Y-76807000D03*
%TD*%
D11*
%TO.C,J1*%
X75523000Y-75537000D03*
D12*
X75523000Y-76807000D03*
X74253000Y-75537000D03*
X74253000Y-76807000D03*
X72983000Y-75537000D03*
X72983000Y-76807000D03*
%TD*%
D11*
%TO.C,J1*%
X100523000Y-63037000D03*
D12*
X100523000Y-64307000D03*
X99253000Y-63037000D03*
X99253000Y-64307000D03*
X97983000Y-63037000D03*
X97983000Y-64307000D03*
%TD*%
D11*
%TO.C,J1*%
X75523000Y-63037000D03*
D12*
X75523000Y-64307000D03*
X74253000Y-63037000D03*
X74253000Y-64307000D03*
X72983000Y-63037000D03*
X72983000Y-64307000D03*
%TD*%
D11*
%TO.C,J1*%
X100523000Y-50537000D03*
D12*
X100523000Y-51807000D03*
X99253000Y-50537000D03*
X99253000Y-51807000D03*
X97983000Y-50537000D03*
X97983000Y-51807000D03*
%TD*%
%TO.C,J1*%
X72983000Y-51807000D03*
X72983000Y-50537000D03*
X74253000Y-51807000D03*
X74253000Y-50537000D03*
X75523000Y-51807000D03*
D11*
X75523000Y-50537000D03*
%TD*%
D12*
%TO.C,J2*%
X53171000Y-51807000D03*
X53171000Y-50537000D03*
X54441000Y-51807000D03*
X54441000Y-50537000D03*
X55711000Y-51807000D03*
D11*
X55711000Y-50537000D03*
%TD*%
%TO.C,U2*%
G36*
G01*
X62847000Y-52927000D02*
X62847000Y-53227000D01*
G75*
G02*
X62697000Y-53377000I-150000J0D01*
G01*
X61047000Y-53377000D01*
G75*
G02*
X60897000Y-53227000I0J150000D01*
G01*
X60897000Y-52927000D01*
G75*
G02*
X61047000Y-52777000I150000J0D01*
G01*
X62697000Y-52777000D01*
G75*
G02*
X62847000Y-52927000I0J-150000D01*
G01*
G37*
G36*
G01*
X62847000Y-51657000D02*
X62847000Y-51957000D01*
G75*
G02*
X62697000Y-52107000I-150000J0D01*
G01*
X61047000Y-52107000D01*
G75*
G02*
X60897000Y-51957000I0J150000D01*
G01*
X60897000Y-51657000D01*
G75*
G02*
X61047000Y-51507000I150000J0D01*
G01*
X62697000Y-51507000D01*
G75*
G02*
X62847000Y-51657000I0J-150000D01*
G01*
G37*
G36*
G01*
X62847000Y-50387000D02*
X62847000Y-50687000D01*
G75*
G02*
X62697000Y-50837000I-150000J0D01*
G01*
X61047000Y-50837000D01*
G75*
G02*
X60897000Y-50687000I0J150000D01*
G01*
X60897000Y-50387000D01*
G75*
G02*
X61047000Y-50237000I150000J0D01*
G01*
X62697000Y-50237000D01*
G75*
G02*
X62847000Y-50387000I0J-150000D01*
G01*
G37*
G36*
G01*
X62847000Y-49117000D02*
X62847000Y-49417000D01*
G75*
G02*
X62697000Y-49567000I-150000J0D01*
G01*
X61047000Y-49567000D01*
G75*
G02*
X60897000Y-49417000I0J150000D01*
G01*
X60897000Y-49117000D01*
G75*
G02*
X61047000Y-48967000I150000J0D01*
G01*
X62697000Y-48967000D01*
G75*
G02*
X62847000Y-49117000I0J-150000D01*
G01*
G37*
G36*
G01*
X67797000Y-49117000D02*
X67797000Y-49417000D01*
G75*
G02*
X67647000Y-49567000I-150000J0D01*
G01*
X65997000Y-49567000D01*
G75*
G02*
X65847000Y-49417000I0J150000D01*
G01*
X65847000Y-49117000D01*
G75*
G02*
X65997000Y-48967000I150000J0D01*
G01*
X67647000Y-48967000D01*
G75*
G02*
X67797000Y-49117000I0J-150000D01*
G01*
G37*
G36*
G01*
X67797000Y-50387000D02*
X67797000Y-50687000D01*
G75*
G02*
X67647000Y-50837000I-150000J0D01*
G01*
X65997000Y-50837000D01*
G75*
G02*
X65847000Y-50687000I0J150000D01*
G01*
X65847000Y-50387000D01*
G75*
G02*
X65997000Y-50237000I150000J0D01*
G01*
X67647000Y-50237000D01*
G75*
G02*
X67797000Y-50387000I0J-150000D01*
G01*
G37*
G36*
G01*
X67797000Y-51657000D02*
X67797000Y-51957000D01*
G75*
G02*
X67647000Y-52107000I-150000J0D01*
G01*
X65997000Y-52107000D01*
G75*
G02*
X65847000Y-51957000I0J150000D01*
G01*
X65847000Y-51657000D01*
G75*
G02*
X65997000Y-51507000I150000J0D01*
G01*
X67647000Y-51507000D01*
G75*
G02*
X67797000Y-51657000I0J-150000D01*
G01*
G37*
G36*
G01*
X67797000Y-52927000D02*
X67797000Y-53227000D01*
G75*
G02*
X67647000Y-53377000I-150000J0D01*
G01*
X65997000Y-53377000D01*
G75*
G02*
X65847000Y-53227000I0J150000D01*
G01*
X65847000Y-52927000D01*
G75*
G02*
X65997000Y-52777000I150000J0D01*
G01*
X67647000Y-52777000D01*
G75*
G02*
X67797000Y-52927000I0J-150000D01*
G01*
G37*
%TD*%
%TO.C,R23*%
G36*
G01*
X52772000Y-47891000D02*
X52772000Y-47341000D01*
G75*
G02*
X52972000Y-47141000I200000J0D01*
G01*
X53372000Y-47141000D01*
G75*
G02*
X53572000Y-47341000I0J-200000D01*
G01*
X53572000Y-47891000D01*
G75*
G02*
X53372000Y-48091000I-200000J0D01*
G01*
X52972000Y-48091000D01*
G75*
G02*
X52772000Y-47891000I0J200000D01*
G01*
G37*
G36*
G01*
X54422000Y-47891000D02*
X54422000Y-47341000D01*
G75*
G02*
X54622000Y-47141000I200000J0D01*
G01*
X55022000Y-47141000D01*
G75*
G02*
X55222000Y-47341000I0J-200000D01*
G01*
X55222000Y-47891000D01*
G75*
G02*
X55022000Y-48091000I-200000J0D01*
G01*
X54622000Y-48091000D01*
G75*
G02*
X54422000Y-47891000I0J200000D01*
G01*
G37*
%TD*%
%TO.C,R21*%
G36*
G01*
X60810000Y-42261000D02*
X60810000Y-42811000D01*
G75*
G02*
X60610000Y-43011000I-200000J0D01*
G01*
X60210000Y-43011000D01*
G75*
G02*
X60010000Y-42811000I0J200000D01*
G01*
X60010000Y-42261000D01*
G75*
G02*
X60210000Y-42061000I200000J0D01*
G01*
X60610000Y-42061000D01*
G75*
G02*
X60810000Y-42261000I0J-200000D01*
G01*
G37*
G36*
G01*
X62460000Y-42261000D02*
X62460000Y-42811000D01*
G75*
G02*
X62260000Y-43011000I-200000J0D01*
G01*
X61860000Y-43011000D01*
G75*
G02*
X61660000Y-42811000I0J200000D01*
G01*
X61660000Y-42261000D01*
G75*
G02*
X61860000Y-42061000I200000J0D01*
G01*
X62260000Y-42061000D01*
G75*
G02*
X62460000Y-42261000I0J-200000D01*
G01*
G37*
%TD*%
%TO.C,R19*%
G36*
G01*
X52771000Y-42811000D02*
X52771000Y-42261000D01*
G75*
G02*
X52971000Y-42061000I200000J0D01*
G01*
X53371000Y-42061000D01*
G75*
G02*
X53571000Y-42261000I0J-200000D01*
G01*
X53571000Y-42811000D01*
G75*
G02*
X53371000Y-43011000I-200000J0D01*
G01*
X52971000Y-43011000D01*
G75*
G02*
X52771000Y-42811000I0J200000D01*
G01*
G37*
G36*
G01*
X54421000Y-42811000D02*
X54421000Y-42261000D01*
G75*
G02*
X54621000Y-42061000I200000J0D01*
G01*
X55021000Y-42061000D01*
G75*
G02*
X55221000Y-42261000I0J-200000D01*
G01*
X55221000Y-42811000D01*
G75*
G02*
X55021000Y-43011000I-200000J0D01*
G01*
X54621000Y-43011000D01*
G75*
G02*
X54421000Y-42811000I0J200000D01*
G01*
G37*
%TD*%
%TO.C,R17*%
G36*
G01*
X60810000Y-47341000D02*
X60810000Y-47891000D01*
G75*
G02*
X60610000Y-48091000I-200000J0D01*
G01*
X60210000Y-48091000D01*
G75*
G02*
X60010000Y-47891000I0J200000D01*
G01*
X60010000Y-47341000D01*
G75*
G02*
X60210000Y-47141000I200000J0D01*
G01*
X60610000Y-47141000D01*
G75*
G02*
X60810000Y-47341000I0J-200000D01*
G01*
G37*
G36*
G01*
X62460000Y-47341000D02*
X62460000Y-47891000D01*
G75*
G02*
X62260000Y-48091000I-200000J0D01*
G01*
X61860000Y-48091000D01*
G75*
G02*
X61660000Y-47891000I0J200000D01*
G01*
X61660000Y-47341000D01*
G75*
G02*
X61860000Y-47141000I200000J0D01*
G01*
X62260000Y-47141000D01*
G75*
G02*
X62460000Y-47341000I0J-200000D01*
G01*
G37*
%TD*%
%TO.C,R15*%
G36*
G01*
X56621000Y-46238000D02*
X56071000Y-46238000D01*
G75*
G02*
X55871000Y-46038000I0J200000D01*
G01*
X55871000Y-45638000D01*
G75*
G02*
X56071000Y-45438000I200000J0D01*
G01*
X56621000Y-45438000D01*
G75*
G02*
X56821000Y-45638000I0J-200000D01*
G01*
X56821000Y-46038000D01*
G75*
G02*
X56621000Y-46238000I-200000J0D01*
G01*
G37*
G36*
G01*
X56621000Y-44588000D02*
X56071000Y-44588000D01*
G75*
G02*
X55871000Y-44388000I0J200000D01*
G01*
X55871000Y-43988000D01*
G75*
G02*
X56071000Y-43788000I200000J0D01*
G01*
X56621000Y-43788000D01*
G75*
G02*
X56821000Y-43988000I0J-200000D01*
G01*
X56821000Y-44388000D01*
G75*
G02*
X56621000Y-44588000I-200000J0D01*
G01*
G37*
%TD*%
%TO.C,R13*%
G36*
G01*
X58611000Y-45437000D02*
X59161000Y-45437000D01*
G75*
G02*
X59361000Y-45637000I0J-200000D01*
G01*
X59361000Y-46037000D01*
G75*
G02*
X59161000Y-46237000I-200000J0D01*
G01*
X58611000Y-46237000D01*
G75*
G02*
X58411000Y-46037000I0J200000D01*
G01*
X58411000Y-45637000D01*
G75*
G02*
X58611000Y-45437000I200000J0D01*
G01*
G37*
G36*
G01*
X58611000Y-43787000D02*
X59161000Y-43787000D01*
G75*
G02*
X59361000Y-43987000I0J-200000D01*
G01*
X59361000Y-44387000D01*
G75*
G02*
X59161000Y-44587000I-200000J0D01*
G01*
X58611000Y-44587000D01*
G75*
G02*
X58411000Y-44387000I0J200000D01*
G01*
X58411000Y-43987000D01*
G75*
G02*
X58611000Y-43787000I200000J0D01*
G01*
G37*
%TD*%
%TO.C,R11*%
G36*
G01*
X72073000Y-45438000D02*
X72623000Y-45438000D01*
G75*
G02*
X72823000Y-45638000I0J-200000D01*
G01*
X72823000Y-46038000D01*
G75*
G02*
X72623000Y-46238000I-200000J0D01*
G01*
X72073000Y-46238000D01*
G75*
G02*
X71873000Y-46038000I0J200000D01*
G01*
X71873000Y-45638000D01*
G75*
G02*
X72073000Y-45438000I200000J0D01*
G01*
G37*
G36*
G01*
X72073000Y-43788000D02*
X72623000Y-43788000D01*
G75*
G02*
X72823000Y-43988000I0J-200000D01*
G01*
X72823000Y-44388000D01*
G75*
G02*
X72623000Y-44588000I-200000J0D01*
G01*
X72073000Y-44588000D01*
G75*
G02*
X71873000Y-44388000I0J200000D01*
G01*
X71873000Y-43988000D01*
G75*
G02*
X72073000Y-43788000I200000J0D01*
G01*
G37*
%TD*%
%TO.C,R10*%
G36*
G01*
X70083000Y-44588000D02*
X69533000Y-44588000D01*
G75*
G02*
X69333000Y-44388000I0J200000D01*
G01*
X69333000Y-43988000D01*
G75*
G02*
X69533000Y-43788000I200000J0D01*
G01*
X70083000Y-43788000D01*
G75*
G02*
X70283000Y-43988000I0J-200000D01*
G01*
X70283000Y-44388000D01*
G75*
G02*
X70083000Y-44588000I-200000J0D01*
G01*
G37*
G36*
G01*
X70083000Y-46238000D02*
X69533000Y-46238000D01*
G75*
G02*
X69333000Y-46038000I0J200000D01*
G01*
X69333000Y-45638000D01*
G75*
G02*
X69533000Y-45438000I200000J0D01*
G01*
X70083000Y-45438000D01*
G75*
G02*
X70283000Y-45638000I0J-200000D01*
G01*
X70283000Y-46038000D01*
G75*
G02*
X70083000Y-46238000I-200000J0D01*
G01*
G37*
%TD*%
%TO.C,R7*%
G36*
G01*
X75123000Y-47891000D02*
X75123000Y-47341000D01*
G75*
G02*
X75323000Y-47141000I200000J0D01*
G01*
X75723000Y-47141000D01*
G75*
G02*
X75923000Y-47341000I0J-200000D01*
G01*
X75923000Y-47891000D01*
G75*
G02*
X75723000Y-48091000I-200000J0D01*
G01*
X75323000Y-48091000D01*
G75*
G02*
X75123000Y-47891000I0J200000D01*
G01*
G37*
G36*
G01*
X73473000Y-47891000D02*
X73473000Y-47341000D01*
G75*
G02*
X73673000Y-47141000I200000J0D01*
G01*
X74073000Y-47141000D01*
G75*
G02*
X74273000Y-47341000I0J-200000D01*
G01*
X74273000Y-47891000D01*
G75*
G02*
X74073000Y-48091000I-200000J0D01*
G01*
X73673000Y-48091000D01*
G75*
G02*
X73473000Y-47891000I0J200000D01*
G01*
G37*
%TD*%
%TO.C,R6*%
G36*
G01*
X67034000Y-42134000D02*
X67034000Y-42684000D01*
G75*
G02*
X66834000Y-42884000I-200000J0D01*
G01*
X66434000Y-42884000D01*
G75*
G02*
X66234000Y-42684000I0J200000D01*
G01*
X66234000Y-42134000D01*
G75*
G02*
X66434000Y-41934000I200000J0D01*
G01*
X66834000Y-41934000D01*
G75*
G02*
X67034000Y-42134000I0J-200000D01*
G01*
G37*
G36*
G01*
X68684000Y-42134000D02*
X68684000Y-42684000D01*
G75*
G02*
X68484000Y-42884000I-200000J0D01*
G01*
X68084000Y-42884000D01*
G75*
G02*
X67884000Y-42684000I0J200000D01*
G01*
X67884000Y-42134000D01*
G75*
G02*
X68084000Y-41934000I200000J0D01*
G01*
X68484000Y-41934000D01*
G75*
G02*
X68684000Y-42134000I0J-200000D01*
G01*
G37*
%TD*%
%TO.C,R3*%
G36*
G01*
X74272000Y-42134000D02*
X74272000Y-42684000D01*
G75*
G02*
X74072000Y-42884000I-200000J0D01*
G01*
X73672000Y-42884000D01*
G75*
G02*
X73472000Y-42684000I0J200000D01*
G01*
X73472000Y-42134000D01*
G75*
G02*
X73672000Y-41934000I200000J0D01*
G01*
X74072000Y-41934000D01*
G75*
G02*
X74272000Y-42134000I0J-200000D01*
G01*
G37*
G36*
G01*
X75922000Y-42134000D02*
X75922000Y-42684000D01*
G75*
G02*
X75722000Y-42884000I-200000J0D01*
G01*
X75322000Y-42884000D01*
G75*
G02*
X75122000Y-42684000I0J200000D01*
G01*
X75122000Y-42134000D01*
G75*
G02*
X75322000Y-41934000I200000J0D01*
G01*
X75722000Y-41934000D01*
G75*
G02*
X75922000Y-42134000I0J-200000D01*
G01*
G37*
%TD*%
%TO.C,R2*%
G36*
G01*
X67884000Y-47891000D02*
X67884000Y-47341000D01*
G75*
G02*
X68084000Y-47141000I200000J0D01*
G01*
X68484000Y-47141000D01*
G75*
G02*
X68684000Y-47341000I0J-200000D01*
G01*
X68684000Y-47891000D01*
G75*
G02*
X68484000Y-48091000I-200000J0D01*
G01*
X68084000Y-48091000D01*
G75*
G02*
X67884000Y-47891000I0J200000D01*
G01*
G37*
G36*
G01*
X66234000Y-47891000D02*
X66234000Y-47341000D01*
G75*
G02*
X66434000Y-47141000I200000J0D01*
G01*
X66834000Y-47141000D01*
G75*
G02*
X67034000Y-47341000I0J-200000D01*
G01*
X67034000Y-47891000D01*
G75*
G02*
X66834000Y-48091000I-200000J0D01*
G01*
X66434000Y-48091000D01*
G75*
G02*
X66234000Y-47891000I0J200000D01*
G01*
G37*
%TD*%
D10*
%TO.C,Q7*%
X54822000Y-46026000D03*
X54822000Y-44126000D03*
X52822000Y-45076000D03*
%TD*%
%TO.C,Q5*%
X62410000Y-45076000D03*
X60410000Y-46026000D03*
X60410000Y-44126000D03*
%TD*%
%TO.C,Q3*%
X75872000Y-45015000D03*
X73872000Y-45965000D03*
X73872000Y-44065000D03*
%TD*%
%TO.C,Q2*%
X66284000Y-45010000D03*
X68284000Y-44060000D03*
X68284000Y-45960000D03*
%TD*%
%TO.C,C5*%
G36*
G01*
X59390000Y-50834000D02*
X58890000Y-50834000D01*
G75*
G02*
X58665000Y-50609000I0J225000D01*
G01*
X58665000Y-50159000D01*
G75*
G02*
X58890000Y-49934000I225000J0D01*
G01*
X59390000Y-49934000D01*
G75*
G02*
X59615000Y-50159000I0J-225000D01*
G01*
X59615000Y-50609000D01*
G75*
G02*
X59390000Y-50834000I-225000J0D01*
G01*
G37*
G36*
G01*
X59390000Y-52384000D02*
X58890000Y-52384000D01*
G75*
G02*
X58665000Y-52159000I0J225000D01*
G01*
X58665000Y-51709000D01*
G75*
G02*
X58890000Y-51484000I225000J0D01*
G01*
X59390000Y-51484000D01*
G75*
G02*
X59615000Y-51709000I0J-225000D01*
G01*
X59615000Y-52159000D01*
G75*
G02*
X59390000Y-52384000I-225000J0D01*
G01*
G37*
%TD*%
%TO.C,C3*%
G36*
G01*
X69804000Y-50834000D02*
X69304000Y-50834000D01*
G75*
G02*
X69079000Y-50609000I0J225000D01*
G01*
X69079000Y-50159000D01*
G75*
G02*
X69304000Y-49934000I225000J0D01*
G01*
X69804000Y-49934000D01*
G75*
G02*
X70029000Y-50159000I0J-225000D01*
G01*
X70029000Y-50609000D01*
G75*
G02*
X69804000Y-50834000I-225000J0D01*
G01*
G37*
G36*
G01*
X69804000Y-52384000D02*
X69304000Y-52384000D01*
G75*
G02*
X69079000Y-52159000I0J225000D01*
G01*
X69079000Y-51709000D01*
G75*
G02*
X69304000Y-51484000I225000J0D01*
G01*
X69804000Y-51484000D01*
G75*
G02*
X70029000Y-51709000I0J-225000D01*
G01*
X70029000Y-52159000D01*
G75*
G02*
X69804000Y-52384000I-225000J0D01*
G01*
G37*
%TD*%
M02*
