M48
; DRILL file {KiCad (5.1.10)-1} date 01/17/22 18:26:13
; FORMAT={3:3/ absolute / metric / keep zeros}
; #@! TF.CreationDate,2022-01-17T18:26:13+07:00
; #@! TF.GenerationSoftware,Kicad,Pcbnew,(5.1.10)-1
; #@! TF.FileFunction,Plated,1,4,PTH
FMAT,2
METRIC
T1C0.400
T2C0.600
T3C0.650
%
G90
G05
T1
X119785Y-082983
X119785Y-095483
X119785Y-107983
X119785Y-120483
X120348Y-086666
X120348Y-099166
X120348Y-111666
X120348Y-124166
X124654Y-086260
X124654Y-098760
X124654Y-111260
X124654Y-123760
X124793Y-088291
X124793Y-089841
X124793Y-100791
X124793Y-102341
X124793Y-113291
X124793Y-114841
X124793Y-125791
X124793Y-127341
X125936Y-090632
X125936Y-103132
X125936Y-115632
X125936Y-128132
X125936Y-088571
X125936Y-089587
X125936Y-101071
X125936Y-102087
X125936Y-113571
X125936Y-114587
X125936Y-126071
X125936Y-127087
X125958Y-087561
X125958Y-100061
X125958Y-112561
X125958Y-125061
X126952Y-083110
X126952Y-095610
X126952Y-108110
X126952Y-120610
X127110Y-081575
X127110Y-094075
X127110Y-106575
X127110Y-119075
X128110Y-081591
X128110Y-094091
X128110Y-106591
X128110Y-119091
X131903Y-084380
X131903Y-096880
X131903Y-109380
X131903Y-121880
X132903Y-084410
X132903Y-096910
X132903Y-109410
X132903Y-121910
X133242Y-082919
X133242Y-095419
X133242Y-107919
X133242Y-120419
X134064Y-087555
X134064Y-088571
X134064Y-089587
X134064Y-090603
X134064Y-100055
X134064Y-101071
X134064Y-102087
X134064Y-103103
X134064Y-112555
X134064Y-113571
X134064Y-114587
X134064Y-115603
X134064Y-125055
X134064Y-126071
X134064Y-127087
X134064Y-128103
X135207Y-088291
X135207Y-089841
X135207Y-100791
X135207Y-102341
X135207Y-113291
X135207Y-114841
X135207Y-125791
X135207Y-127341
X135303Y-085523
X135303Y-098023
X135303Y-110523
X135303Y-123023
X138001Y-085269
X138001Y-097769
X138001Y-110269
X138001Y-122769
X140215Y-082922
X140215Y-095422
X140215Y-107922
X140215Y-120422
X144785Y-082983
X144785Y-095483
X144785Y-107983
X144785Y-120483
X145348Y-086666
X145348Y-099166
X145348Y-111666
X145348Y-124166
X149654Y-086260
X149654Y-098760
X149654Y-111260
X149654Y-123760
X149793Y-088291
X149793Y-089841
X149793Y-100791
X149793Y-102341
X149793Y-113291
X149793Y-114841
X149793Y-125791
X149793Y-127341
X150936Y-090632
X150936Y-103132
X150936Y-115632
X150936Y-128132
X150936Y-088571
X150936Y-089587
X150936Y-101071
X150936Y-102087
X150936Y-113571
X150936Y-114587
X150936Y-126071
X150936Y-127087
X150958Y-087561
X150958Y-100061
X150958Y-112561
X150958Y-125061
X151952Y-083110
X151952Y-095610
X151952Y-108110
X151952Y-120610
X152110Y-081575
X152110Y-094075
X152110Y-106575
X152110Y-119075
X153110Y-081591
X153110Y-094091
X153110Y-106591
X153110Y-119091
X156903Y-084380
X156903Y-096880
X156903Y-109380
X156903Y-121880
X157903Y-084410
X157903Y-096910
X157903Y-109410
X157903Y-121910
X158242Y-082919
X158242Y-095419
X158242Y-107919
X158242Y-120419
X159064Y-087555
X159064Y-088571
X159064Y-089587
X159064Y-090603
X159064Y-100055
X159064Y-101071
X159064Y-102087
X159064Y-103103
X159064Y-112555
X159064Y-113571
X159064Y-114587
X159064Y-115603
X159064Y-125055
X159064Y-126071
X159064Y-127087
X159064Y-128103
X160207Y-088291
X160207Y-089841
X160207Y-100791
X160207Y-102341
X160207Y-113291
X160207Y-114841
X160207Y-125791
X160207Y-127341
X160303Y-085523
X160303Y-098023
X160303Y-110523
X160303Y-123023
X163001Y-085269
X163001Y-097769
X163001Y-110269
X163001Y-122769
X165215Y-082922
X165215Y-095422
X165215Y-107922
X165215Y-120422
T2
X123269Y-082856
X123269Y-095356
X123269Y-107856
X123269Y-120356
X136731Y-082856
X136731Y-095356
X136731Y-107856
X136731Y-120356
X148269Y-082856
X148269Y-095356
X148269Y-107856
X148269Y-120356
X161731Y-082856
X161731Y-095356
X161731Y-107856
X161731Y-120356
T3
X118824Y-088444
X118824Y-089714
X118824Y-100944
X118824Y-102214
X118824Y-113444
X118824Y-114714
X118824Y-125944
X118824Y-127214
X120094Y-088444
X120094Y-089714
X120094Y-100944
X120094Y-102214
X120094Y-113444
X120094Y-114714
X120094Y-125944
X120094Y-127214
X121364Y-088444
X121364Y-089714
X121364Y-100944
X121364Y-102214
X121364Y-113444
X121364Y-114714
X121364Y-125944
X121364Y-127214
X138636Y-088444
X138636Y-089714
X138636Y-100944
X138636Y-102214
X138636Y-113444
X138636Y-114714
X138636Y-125944
X138636Y-127214
X139906Y-088444
X139906Y-089714
X139906Y-100944
X139906Y-102214
X139906Y-113444
X139906Y-114714
X139906Y-125944
X139906Y-127214
X141176Y-088444
X141176Y-089714
X141176Y-100944
X141176Y-102214
X141176Y-113444
X141176Y-114714
X141176Y-125944
X141176Y-127214
X143824Y-088444
X143824Y-089714
X143824Y-100944
X143824Y-102214
X143824Y-113444
X143824Y-114714
X143824Y-125944
X143824Y-127214
X145094Y-088444
X145094Y-089714
X145094Y-100944
X145094Y-102214
X145094Y-113444
X145094Y-114714
X145094Y-125944
X145094Y-127214
X146364Y-088444
X146364Y-089714
X146364Y-100944
X146364Y-102214
X146364Y-113444
X146364Y-114714
X146364Y-125944
X146364Y-127214
X163636Y-088444
X163636Y-089714
X163636Y-100944
X163636Y-102214
X163636Y-113444
X163636Y-114714
X163636Y-125944
X163636Y-127214
X164906Y-088444
X164906Y-089714
X164906Y-100944
X164906Y-102214
X164906Y-113444
X164906Y-114714
X164906Y-125944
X164906Y-127214
X166176Y-088444
X166176Y-089714
X166176Y-100944
X166176Y-102214
X166176Y-113444
X166176Y-114714
X166176Y-125944
X166176Y-127214
T0
M30
