%TF.GenerationSoftware,KiCad,Pcbnew,(5.1.10)-1*%
%TF.CreationDate,2022-01-18T20:55:32+07:00*%
%TF.ProjectId,ADuM_I2C_v3_pnlz2x4,4144754d-5f49-4324-935f-76335f706e6c,rev?*%
%TF.SameCoordinates,Original*%
%TF.FileFunction,Copper,L3,Inr*%
%TF.FilePolarity,Positive*%
%FSLAX46Y46*%
G04 Gerber Fmt 4.6, Leading zero omitted, Abs format (unit mm)*
G04 Created by KiCad (PCBNEW (5.1.10)-1) date 2022-01-18 20:55:32*
%MOMM*%
%LPD*%
G01*
G04 APERTURE LIST*
%TA.AperFunction,ComponentPad*%
%ADD10R,1.000000X1.000000*%
%TD*%
%TA.AperFunction,ComponentPad*%
%ADD11O,1.000000X1.000000*%
%TD*%
%TA.AperFunction,ViaPad*%
%ADD12C,0.800000*%
%TD*%
%TA.AperFunction,ViaPad*%
%ADD13C,1.100000*%
%TD*%
%TA.AperFunction,Conductor*%
%ADD14C,0.300000*%
%TD*%
G04 APERTURE END LIST*
D10*
%TO.N,VCCQ*%
%TO.C,J2*%
X80711000Y-88037000D03*
D11*
%TO.N,GND2*%
X80711000Y-89307000D03*
%TO.N,/SDAq*%
X79441000Y-88037000D03*
%TO.N,/SCLq*%
X79441000Y-89307000D03*
%TO.N,/outa*%
X78171000Y-88037000D03*
%TO.N,/inb*%
X78171000Y-89307000D03*
%TD*%
D10*
%TO.N,VCCQ*%
%TO.C,J2*%
X55711000Y-88037000D03*
D11*
%TO.N,GND2*%
X55711000Y-89307000D03*
%TO.N,/SDAq*%
X54441000Y-88037000D03*
%TO.N,/SCLq*%
X54441000Y-89307000D03*
%TO.N,/outa*%
X53171000Y-88037000D03*
%TO.N,/inb*%
X53171000Y-89307000D03*
%TD*%
D10*
%TO.N,VCCQ*%
%TO.C,J2*%
X80711000Y-75537000D03*
D11*
%TO.N,GND2*%
X80711000Y-76807000D03*
%TO.N,/SDAq*%
X79441000Y-75537000D03*
%TO.N,/SCLq*%
X79441000Y-76807000D03*
%TO.N,/outa*%
X78171000Y-75537000D03*
%TO.N,/inb*%
X78171000Y-76807000D03*
%TD*%
D10*
%TO.N,VCCQ*%
%TO.C,J2*%
X55711000Y-75537000D03*
D11*
%TO.N,GND2*%
X55711000Y-76807000D03*
%TO.N,/SDAq*%
X54441000Y-75537000D03*
%TO.N,/SCLq*%
X54441000Y-76807000D03*
%TO.N,/outa*%
X53171000Y-75537000D03*
%TO.N,/inb*%
X53171000Y-76807000D03*
%TD*%
D10*
%TO.N,VCCQ*%
%TO.C,J2*%
X80711000Y-63037000D03*
D11*
%TO.N,GND2*%
X80711000Y-64307000D03*
%TO.N,/SDAq*%
X79441000Y-63037000D03*
%TO.N,/SCLq*%
X79441000Y-64307000D03*
%TO.N,/outa*%
X78171000Y-63037000D03*
%TO.N,/inb*%
X78171000Y-64307000D03*
%TD*%
D10*
%TO.N,VCCQ*%
%TO.C,J2*%
X55711000Y-63037000D03*
D11*
%TO.N,GND2*%
X55711000Y-64307000D03*
%TO.N,/SDAq*%
X54441000Y-63037000D03*
%TO.N,/SCLq*%
X54441000Y-64307000D03*
%TO.N,/outa*%
X53171000Y-63037000D03*
%TO.N,/inb*%
X53171000Y-64307000D03*
%TD*%
D10*
%TO.N,VCCQ*%
%TO.C,J2*%
X80711000Y-50537000D03*
D11*
%TO.N,GND2*%
X80711000Y-51807000D03*
%TO.N,/SDAq*%
X79441000Y-50537000D03*
%TO.N,/SCLq*%
X79441000Y-51807000D03*
%TO.N,/outa*%
X78171000Y-50537000D03*
%TO.N,/inb*%
X78171000Y-51807000D03*
%TD*%
D10*
%TO.N,/ina*%
%TO.C,J1*%
X100523000Y-88037000D03*
D11*
%TO.N,/outb*%
X100523000Y-89307000D03*
%TO.N,/SDA*%
X99253000Y-88037000D03*
%TO.N,/SCL*%
X99253000Y-89307000D03*
%TO.N,VCC*%
X97983000Y-88037000D03*
%TO.N,GND*%
X97983000Y-89307000D03*
%TD*%
D10*
%TO.N,/ina*%
%TO.C,J1*%
X75523000Y-88037000D03*
D11*
%TO.N,/outb*%
X75523000Y-89307000D03*
%TO.N,/SDA*%
X74253000Y-88037000D03*
%TO.N,/SCL*%
X74253000Y-89307000D03*
%TO.N,VCC*%
X72983000Y-88037000D03*
%TO.N,GND*%
X72983000Y-89307000D03*
%TD*%
D10*
%TO.N,/ina*%
%TO.C,J1*%
X100523000Y-75537000D03*
D11*
%TO.N,/outb*%
X100523000Y-76807000D03*
%TO.N,/SDA*%
X99253000Y-75537000D03*
%TO.N,/SCL*%
X99253000Y-76807000D03*
%TO.N,VCC*%
X97983000Y-75537000D03*
%TO.N,GND*%
X97983000Y-76807000D03*
%TD*%
D10*
%TO.N,/ina*%
%TO.C,J1*%
X75523000Y-75537000D03*
D11*
%TO.N,/outb*%
X75523000Y-76807000D03*
%TO.N,/SDA*%
X74253000Y-75537000D03*
%TO.N,/SCL*%
X74253000Y-76807000D03*
%TO.N,VCC*%
X72983000Y-75537000D03*
%TO.N,GND*%
X72983000Y-76807000D03*
%TD*%
D10*
%TO.N,/ina*%
%TO.C,J1*%
X100523000Y-63037000D03*
D11*
%TO.N,/outb*%
X100523000Y-64307000D03*
%TO.N,/SDA*%
X99253000Y-63037000D03*
%TO.N,/SCL*%
X99253000Y-64307000D03*
%TO.N,VCC*%
X97983000Y-63037000D03*
%TO.N,GND*%
X97983000Y-64307000D03*
%TD*%
D10*
%TO.N,/ina*%
%TO.C,J1*%
X75523000Y-63037000D03*
D11*
%TO.N,/outb*%
X75523000Y-64307000D03*
%TO.N,/SDA*%
X74253000Y-63037000D03*
%TO.N,/SCL*%
X74253000Y-64307000D03*
%TO.N,VCC*%
X72983000Y-63037000D03*
%TO.N,GND*%
X72983000Y-64307000D03*
%TD*%
D10*
%TO.N,/ina*%
%TO.C,J1*%
X100523000Y-50537000D03*
D11*
%TO.N,/outb*%
X100523000Y-51807000D03*
%TO.N,/SDA*%
X99253000Y-50537000D03*
%TO.N,/SCL*%
X99253000Y-51807000D03*
%TO.N,VCC*%
X97983000Y-50537000D03*
%TO.N,GND*%
X97983000Y-51807000D03*
%TD*%
%TO.N,GND*%
%TO.C,J1*%
X72983000Y-51807000D03*
%TO.N,VCC*%
X72983000Y-50537000D03*
%TO.N,/SCL*%
X74253000Y-51807000D03*
%TO.N,/SDA*%
X74253000Y-50537000D03*
%TO.N,/outb*%
X75523000Y-51807000D03*
D10*
%TO.N,/ina*%
X75523000Y-50537000D03*
%TD*%
D11*
%TO.N,/inb*%
%TO.C,J2*%
X53171000Y-51807000D03*
%TO.N,/outa*%
X53171000Y-50537000D03*
%TO.N,/SCLq*%
X54441000Y-51807000D03*
%TO.N,/SDAq*%
X54441000Y-50537000D03*
%TO.N,GND2*%
X55711000Y-51807000D03*
D10*
%TO.N,VCCQ*%
X55711000Y-50537000D03*
%TD*%
D12*
%TO.N,VCC*%
X69554000Y-50384000D03*
D13*
X71078000Y-44949000D03*
D12*
X94554000Y-50384000D03*
X69554000Y-62884000D03*
X94554000Y-62884000D03*
X69554000Y-75384000D03*
X94554000Y-75384000D03*
X69554000Y-87884000D03*
X94554000Y-87884000D03*
D13*
X96078000Y-44949000D03*
X71078000Y-57449000D03*
X96078000Y-57449000D03*
X71078000Y-69949000D03*
X96078000Y-69949000D03*
X71078000Y-82449000D03*
X96078000Y-82449000D03*
D12*
%TO.N,GND*%
X69554000Y-51934000D03*
X94554000Y-51934000D03*
X69554000Y-64434000D03*
X94554000Y-64434000D03*
X69554000Y-76934000D03*
X94554000Y-76934000D03*
X69554000Y-89434000D03*
X94554000Y-89434000D03*
%TO.N,VCCQ*%
X59140000Y-50384000D03*
D13*
X57616000Y-44949000D03*
D12*
X84140000Y-50384000D03*
X59140000Y-62884000D03*
X84140000Y-62884000D03*
X59140000Y-75384000D03*
X84140000Y-75384000D03*
X59140000Y-87884000D03*
X84140000Y-87884000D03*
D13*
X82616000Y-44949000D03*
X57616000Y-57449000D03*
X82616000Y-57449000D03*
X57616000Y-69949000D03*
X82616000Y-69949000D03*
X57616000Y-82449000D03*
X82616000Y-82449000D03*
D12*
%TO.N,GND2*%
X59140000Y-51934000D03*
X84140000Y-51934000D03*
X59140000Y-64434000D03*
X84140000Y-64434000D03*
X59140000Y-76934000D03*
X84140000Y-76934000D03*
X59140000Y-89434000D03*
X84140000Y-89434000D03*
%TO.N,/SCL*%
X66250419Y-46472953D03*
X91250419Y-46472953D03*
X66250419Y-58972953D03*
X91250419Y-58972953D03*
X66250419Y-71472953D03*
X91250419Y-71472953D03*
X66250419Y-83972953D03*
X91250419Y-83972953D03*
%TO.N,/SDA*%
X67249990Y-46502645D03*
X92249990Y-46502645D03*
X67249990Y-59002645D03*
X92249990Y-59002645D03*
X67249990Y-71502645D03*
X92249990Y-71502645D03*
X67249990Y-84002645D03*
X92249990Y-84002645D03*
%TO.N,/SCLq*%
X62457140Y-43683919D03*
X87457140Y-43683919D03*
X62457140Y-56183919D03*
X87457140Y-56183919D03*
X62457140Y-68683919D03*
X87457140Y-68683919D03*
X62457140Y-81183919D03*
X87457140Y-81183919D03*
%TO.N,/SDAq*%
X61457247Y-43668469D03*
X86457247Y-43668469D03*
X61457247Y-56168469D03*
X86457247Y-56168469D03*
X61457247Y-68668469D03*
X86457247Y-68668469D03*
X61457247Y-81168469D03*
X86457247Y-81168469D03*
%TO.N,Net-(Q1-Pad2)*%
X68411000Y-49648000D03*
X69649898Y-47616004D03*
X93411000Y-49648000D03*
X68411000Y-62148000D03*
X93411000Y-62148000D03*
X68411000Y-74648000D03*
X93411000Y-74648000D03*
X68411000Y-87148000D03*
X93411000Y-87148000D03*
X94649898Y-47616004D03*
X69649898Y-60116004D03*
X94649898Y-60116004D03*
X69649898Y-72616004D03*
X94649898Y-72616004D03*
X69649898Y-85116004D03*
X94649898Y-85116004D03*
%TO.N,Net-(Q2-Pad2)*%
X68411000Y-51680000D03*
X67588533Y-45012496D03*
X93411000Y-51680000D03*
X68411000Y-64180000D03*
X93411000Y-64180000D03*
X68411000Y-76680000D03*
X93411000Y-76680000D03*
X68411000Y-89180000D03*
X93411000Y-89180000D03*
X92588533Y-45012496D03*
X67588533Y-57512496D03*
X92588533Y-57512496D03*
X67588533Y-70012496D03*
X92588533Y-70012496D03*
X67588533Y-82512496D03*
X92588533Y-82512496D03*
%TO.N,Net-(Q3-Pad2)*%
X68411000Y-50664000D03*
X72347994Y-47362000D03*
X93411000Y-50664000D03*
X68411000Y-63164000D03*
X93411000Y-63164000D03*
X68411000Y-75664000D03*
X93411000Y-75664000D03*
X68411000Y-88164000D03*
X93411000Y-88164000D03*
X97347994Y-47362000D03*
X72347994Y-59862000D03*
X97347994Y-59862000D03*
X72347994Y-72362000D03*
X97347994Y-72362000D03*
X72347994Y-84862000D03*
X97347994Y-84862000D03*
%TO.N,Net-(Q4-Pad2)*%
X68411000Y-52696000D03*
X74561811Y-45014996D03*
X93411000Y-52696000D03*
X68411000Y-65196000D03*
X93411000Y-65196000D03*
X68411000Y-77696000D03*
X93411000Y-77696000D03*
X68411000Y-90196000D03*
X93411000Y-90196000D03*
X99561811Y-45014996D03*
X74561811Y-57514996D03*
X99561811Y-57514996D03*
X74561811Y-70014996D03*
X99561811Y-70014996D03*
X74561811Y-82514996D03*
X99561811Y-82514996D03*
%TO.N,Net-(Q5-Pad2)*%
X59001010Y-48353265D03*
X60304705Y-49654379D03*
X84001010Y-48353265D03*
X59001010Y-60853265D03*
X84001010Y-60853265D03*
X59001010Y-73353265D03*
X84001010Y-73353265D03*
X59001010Y-85853265D03*
X84001010Y-85853265D03*
X85304705Y-49654379D03*
X60304705Y-62154379D03*
X85304705Y-62154379D03*
X60304705Y-74654379D03*
X85304705Y-74654379D03*
X60304705Y-87154379D03*
X85304705Y-87154379D03*
%TO.N,Net-(Q6-Pad2)*%
X60283000Y-51680000D03*
X61299000Y-45203000D03*
X85283000Y-51680000D03*
X60283000Y-64180000D03*
X85283000Y-64180000D03*
X60283000Y-76680000D03*
X85283000Y-76680000D03*
X60283000Y-89180000D03*
X85283000Y-89180000D03*
X86299000Y-45203000D03*
X61299000Y-57703000D03*
X86299000Y-57703000D03*
X61299000Y-70203000D03*
X86299000Y-70203000D03*
X61299000Y-82703000D03*
X86299000Y-82703000D03*
%TO.N,Net-(Q7-Pad2)*%
X54131577Y-45075726D03*
X60283000Y-50664000D03*
X79131577Y-45075726D03*
X54131577Y-57575726D03*
X79131577Y-57575726D03*
X54131577Y-70075726D03*
X79131577Y-70075726D03*
X54131577Y-82575726D03*
X79131577Y-82575726D03*
X85283000Y-50664000D03*
X60283000Y-63164000D03*
X85283000Y-63164000D03*
X60283000Y-75664000D03*
X85283000Y-75664000D03*
X60283000Y-88164000D03*
X85283000Y-88164000D03*
%TO.N,Net-(Q8-Pad2)*%
X60282957Y-52725135D03*
X54695000Y-48759000D03*
X85282957Y-52725135D03*
X60282957Y-65225135D03*
X85282957Y-65225135D03*
X60282957Y-77725135D03*
X85282957Y-77725135D03*
X60282957Y-90225135D03*
X85282957Y-90225135D03*
X79695000Y-48759000D03*
X54695000Y-61259000D03*
X79695000Y-61259000D03*
X54695000Y-73759000D03*
X79695000Y-73759000D03*
X54695000Y-86259000D03*
X79695000Y-86259000D03*
%TD*%
D14*
%TO.N,Net-(Q1-Pad2)*%
X69649898Y-48409102D02*
X69649898Y-47616004D01*
X68411000Y-49648000D02*
X69649898Y-48409102D01*
X69649898Y-48409102D02*
X69649898Y-47616004D01*
X68411000Y-49648000D02*
X69649898Y-48409102D01*
X94649898Y-48409102D02*
X94649898Y-47616004D01*
X69649898Y-60909102D02*
X69649898Y-60116004D01*
X94649898Y-60909102D02*
X94649898Y-60116004D01*
X69649898Y-73409102D02*
X69649898Y-72616004D01*
X94649898Y-73409102D02*
X94649898Y-72616004D01*
X69649898Y-85909102D02*
X69649898Y-85116004D01*
X94649898Y-85909102D02*
X94649898Y-85116004D01*
X93411000Y-49648000D02*
X94649898Y-48409102D01*
X68411000Y-62148000D02*
X69649898Y-60909102D01*
X93411000Y-62148000D02*
X94649898Y-60909102D01*
X68411000Y-74648000D02*
X69649898Y-73409102D01*
X93411000Y-74648000D02*
X94649898Y-73409102D01*
X68411000Y-87148000D02*
X69649898Y-85909102D01*
X93411000Y-87148000D02*
X94649898Y-85909102D01*
%TO.N,Net-(Q2-Pad2)*%
X68411000Y-51680000D02*
X67845315Y-51680000D01*
X67845315Y-51680000D02*
X67660999Y-51495684D01*
X67660999Y-51495684D02*
X67660999Y-49287999D01*
X67660999Y-49287999D02*
X68000631Y-48948367D01*
X68000631Y-48948367D02*
X68000631Y-45424594D01*
X68000631Y-45424594D02*
X67588533Y-45012496D01*
X68411000Y-51680000D02*
X67845315Y-51680000D01*
X67845315Y-51680000D02*
X67660999Y-51495684D01*
X67660999Y-51495684D02*
X67660999Y-49287999D01*
X67660999Y-49287999D02*
X68000631Y-48948367D01*
X68000631Y-48948367D02*
X68000631Y-45424594D01*
X68000631Y-45424594D02*
X67588533Y-45012496D01*
X93411000Y-51680000D02*
X92845315Y-51680000D01*
X68411000Y-64180000D02*
X67845315Y-64180000D01*
X93411000Y-64180000D02*
X92845315Y-64180000D01*
X68411000Y-76680000D02*
X67845315Y-76680000D01*
X93411000Y-76680000D02*
X92845315Y-76680000D01*
X68411000Y-89180000D02*
X67845315Y-89180000D01*
X93411000Y-89180000D02*
X92845315Y-89180000D01*
X92845315Y-51680000D02*
X92660999Y-51495684D01*
X67845315Y-64180000D02*
X67660999Y-63995684D01*
X92845315Y-64180000D02*
X92660999Y-63995684D01*
X67845315Y-76680000D02*
X67660999Y-76495684D01*
X92845315Y-76680000D02*
X92660999Y-76495684D01*
X67845315Y-89180000D02*
X67660999Y-88995684D01*
X92845315Y-89180000D02*
X92660999Y-88995684D01*
X92660999Y-51495684D02*
X92660999Y-49287999D01*
X67660999Y-63995684D02*
X67660999Y-61787999D01*
X92660999Y-63995684D02*
X92660999Y-61787999D01*
X67660999Y-76495684D02*
X67660999Y-74287999D01*
X92660999Y-76495684D02*
X92660999Y-74287999D01*
X67660999Y-88995684D02*
X67660999Y-86787999D01*
X92660999Y-88995684D02*
X92660999Y-86787999D01*
X92660999Y-49287999D02*
X93000631Y-48948367D01*
X67660999Y-61787999D02*
X68000631Y-61448367D01*
X92660999Y-61787999D02*
X93000631Y-61448367D01*
X67660999Y-74287999D02*
X68000631Y-73948367D01*
X92660999Y-74287999D02*
X93000631Y-73948367D01*
X67660999Y-86787999D02*
X68000631Y-86448367D01*
X92660999Y-86787999D02*
X93000631Y-86448367D01*
X93000631Y-48948367D02*
X93000631Y-45424594D01*
X68000631Y-61448367D02*
X68000631Y-57924594D01*
X93000631Y-61448367D02*
X93000631Y-57924594D01*
X68000631Y-73948367D02*
X68000631Y-70424594D01*
X93000631Y-73948367D02*
X93000631Y-70424594D01*
X68000631Y-86448367D02*
X68000631Y-82924594D01*
X93000631Y-86448367D02*
X93000631Y-82924594D01*
X93000631Y-45424594D02*
X92588533Y-45012496D01*
X68000631Y-57924594D02*
X67588533Y-57512496D01*
X93000631Y-57924594D02*
X92588533Y-57512496D01*
X68000631Y-70424594D02*
X67588533Y-70012496D01*
X93000631Y-70424594D02*
X92588533Y-70012496D01*
X68000631Y-82924594D02*
X67588533Y-82512496D01*
X93000631Y-82924594D02*
X92588533Y-82512496D01*
%TO.N,Net-(Q3-Pad2)*%
X72347994Y-48700008D02*
X72347994Y-47362000D01*
X69914001Y-51134001D02*
X72347994Y-48700008D01*
X69193999Y-51134001D02*
X69914001Y-51134001D01*
X68723998Y-50664000D02*
X69193999Y-51134001D01*
X68411000Y-50664000D02*
X68723998Y-50664000D01*
X72347994Y-48700008D02*
X72347994Y-47362000D01*
X69914001Y-51134001D02*
X72347994Y-48700008D01*
X69193999Y-51134001D02*
X69914001Y-51134001D01*
X68723998Y-50664000D02*
X69193999Y-51134001D01*
X68411000Y-50664000D02*
X68723998Y-50664000D01*
X97347994Y-48700008D02*
X97347994Y-47362000D01*
X72347994Y-61200008D02*
X72347994Y-59862000D01*
X97347994Y-61200008D02*
X97347994Y-59862000D01*
X72347994Y-73700008D02*
X72347994Y-72362000D01*
X97347994Y-73700008D02*
X97347994Y-72362000D01*
X72347994Y-86200008D02*
X72347994Y-84862000D01*
X97347994Y-86200008D02*
X97347994Y-84862000D01*
X94914001Y-51134001D02*
X97347994Y-48700008D01*
X69914001Y-63634001D02*
X72347994Y-61200008D01*
X94914001Y-63634001D02*
X97347994Y-61200008D01*
X69914001Y-76134001D02*
X72347994Y-73700008D01*
X94914001Y-76134001D02*
X97347994Y-73700008D01*
X69914001Y-88634001D02*
X72347994Y-86200008D01*
X94914001Y-88634001D02*
X97347994Y-86200008D01*
X94193999Y-51134001D02*
X94914001Y-51134001D01*
X69193999Y-63634001D02*
X69914001Y-63634001D01*
X94193999Y-63634001D02*
X94914001Y-63634001D01*
X69193999Y-76134001D02*
X69914001Y-76134001D01*
X94193999Y-76134001D02*
X94914001Y-76134001D01*
X69193999Y-88634001D02*
X69914001Y-88634001D01*
X94193999Y-88634001D02*
X94914001Y-88634001D01*
X93723998Y-50664000D02*
X94193999Y-51134001D01*
X68723998Y-63164000D02*
X69193999Y-63634001D01*
X93723998Y-63164000D02*
X94193999Y-63634001D01*
X68723998Y-75664000D02*
X69193999Y-76134001D01*
X93723998Y-75664000D02*
X94193999Y-76134001D01*
X68723998Y-88164000D02*
X69193999Y-88634001D01*
X93723998Y-88164000D02*
X94193999Y-88634001D01*
X93411000Y-50664000D02*
X93723998Y-50664000D01*
X68411000Y-63164000D02*
X68723998Y-63164000D01*
X93411000Y-63164000D02*
X93723998Y-63164000D01*
X68411000Y-75664000D02*
X68723998Y-75664000D01*
X93411000Y-75664000D02*
X93723998Y-75664000D01*
X68411000Y-88164000D02*
X68723998Y-88164000D01*
X93411000Y-88164000D02*
X93723998Y-88164000D01*
%TO.N,Net-(Q4-Pad2)*%
X73110000Y-46466807D02*
X74561811Y-45014996D01*
X73110000Y-48645122D02*
X73110000Y-46466807D01*
X70304001Y-51451121D02*
X73110000Y-48645122D01*
X70304001Y-52294001D02*
X70304001Y-51451121D01*
X69902002Y-52696000D02*
X70304001Y-52294001D01*
X68411000Y-52696000D02*
X69902002Y-52696000D01*
X73110000Y-46466807D02*
X74561811Y-45014996D01*
X73110000Y-48645122D02*
X73110000Y-46466807D01*
X70304001Y-51451121D02*
X73110000Y-48645122D01*
X70304001Y-52294001D02*
X70304001Y-51451121D01*
X69902002Y-52696000D02*
X70304001Y-52294001D01*
X68411000Y-52696000D02*
X69902002Y-52696000D01*
X98110000Y-46466807D02*
X99561811Y-45014996D01*
X73110000Y-58966807D02*
X74561811Y-57514996D01*
X98110000Y-58966807D02*
X99561811Y-57514996D01*
X73110000Y-71466807D02*
X74561811Y-70014996D01*
X98110000Y-71466807D02*
X99561811Y-70014996D01*
X73110000Y-83966807D02*
X74561811Y-82514996D01*
X98110000Y-83966807D02*
X99561811Y-82514996D01*
X98110000Y-48645122D02*
X98110000Y-46466807D01*
X73110000Y-61145122D02*
X73110000Y-58966807D01*
X98110000Y-61145122D02*
X98110000Y-58966807D01*
X73110000Y-73645122D02*
X73110000Y-71466807D01*
X98110000Y-73645122D02*
X98110000Y-71466807D01*
X73110000Y-86145122D02*
X73110000Y-83966807D01*
X98110000Y-86145122D02*
X98110000Y-83966807D01*
X95304001Y-51451121D02*
X98110000Y-48645122D01*
X70304001Y-63951121D02*
X73110000Y-61145122D01*
X95304001Y-63951121D02*
X98110000Y-61145122D01*
X70304001Y-76451121D02*
X73110000Y-73645122D01*
X95304001Y-76451121D02*
X98110000Y-73645122D01*
X70304001Y-88951121D02*
X73110000Y-86145122D01*
X95304001Y-88951121D02*
X98110000Y-86145122D01*
X95304001Y-52294001D02*
X95304001Y-51451121D01*
X70304001Y-64794001D02*
X70304001Y-63951121D01*
X95304001Y-64794001D02*
X95304001Y-63951121D01*
X70304001Y-77294001D02*
X70304001Y-76451121D01*
X95304001Y-77294001D02*
X95304001Y-76451121D01*
X70304001Y-89794001D02*
X70304001Y-88951121D01*
X95304001Y-89794001D02*
X95304001Y-88951121D01*
X94902002Y-52696000D02*
X95304001Y-52294001D01*
X69902002Y-65196000D02*
X70304001Y-64794001D01*
X94902002Y-65196000D02*
X95304001Y-64794001D01*
X69902002Y-77696000D02*
X70304001Y-77294001D01*
X94902002Y-77696000D02*
X95304001Y-77294001D01*
X69902002Y-90196000D02*
X70304001Y-89794001D01*
X94902002Y-90196000D02*
X95304001Y-89794001D01*
X93411000Y-52696000D02*
X94902002Y-52696000D01*
X68411000Y-65196000D02*
X69902002Y-65196000D01*
X93411000Y-65196000D02*
X94902002Y-65196000D01*
X68411000Y-77696000D02*
X69902002Y-77696000D01*
X93411000Y-77696000D02*
X94902002Y-77696000D01*
X68411000Y-90196000D02*
X69902002Y-90196000D01*
X93411000Y-90196000D02*
X94902002Y-90196000D01*
%TO.N,Net-(Q5-Pad2)*%
X60302124Y-49654379D02*
X60304705Y-49654379D01*
X59001010Y-48353265D02*
X60302124Y-49654379D01*
X60302124Y-49654379D02*
X60304705Y-49654379D01*
X59001010Y-48353265D02*
X60302124Y-49654379D01*
X85302124Y-49654379D02*
X85304705Y-49654379D01*
X60302124Y-62154379D02*
X60304705Y-62154379D01*
X85302124Y-62154379D02*
X85304705Y-62154379D01*
X60302124Y-74654379D02*
X60304705Y-74654379D01*
X85302124Y-74654379D02*
X85304705Y-74654379D01*
X60302124Y-87154379D02*
X60304705Y-87154379D01*
X85302124Y-87154379D02*
X85304705Y-87154379D01*
X84001010Y-48353265D02*
X85302124Y-49654379D01*
X59001010Y-60853265D02*
X60302124Y-62154379D01*
X84001010Y-60853265D02*
X85302124Y-62154379D01*
X59001010Y-73353265D02*
X60302124Y-74654379D01*
X84001010Y-73353265D02*
X85302124Y-74654379D01*
X59001010Y-85853265D02*
X60302124Y-87154379D01*
X84001010Y-85853265D02*
X85302124Y-87154379D01*
%TO.N,Net-(Q6-Pad2)*%
X60848685Y-51680000D02*
X60283000Y-51680000D01*
X61299000Y-51229685D02*
X60848685Y-51680000D01*
X61299000Y-45203000D02*
X61299000Y-51229685D01*
X60848685Y-51680000D02*
X60283000Y-51680000D01*
X61299000Y-51229685D02*
X60848685Y-51680000D01*
X61299000Y-45203000D02*
X61299000Y-51229685D01*
X85848685Y-51680000D02*
X85283000Y-51680000D01*
X60848685Y-64180000D02*
X60283000Y-64180000D01*
X85848685Y-64180000D02*
X85283000Y-64180000D01*
X60848685Y-76680000D02*
X60283000Y-76680000D01*
X85848685Y-76680000D02*
X85283000Y-76680000D01*
X60848685Y-89180000D02*
X60283000Y-89180000D01*
X85848685Y-89180000D02*
X85283000Y-89180000D01*
X86299000Y-51229685D02*
X85848685Y-51680000D01*
X61299000Y-63729685D02*
X60848685Y-64180000D01*
X86299000Y-63729685D02*
X85848685Y-64180000D01*
X61299000Y-76229685D02*
X60848685Y-76680000D01*
X86299000Y-76229685D02*
X85848685Y-76680000D01*
X61299000Y-88729685D02*
X60848685Y-89180000D01*
X86299000Y-88729685D02*
X85848685Y-89180000D01*
X86299000Y-45203000D02*
X86299000Y-51229685D01*
X61299000Y-57703000D02*
X61299000Y-63729685D01*
X86299000Y-57703000D02*
X86299000Y-63729685D01*
X61299000Y-70203000D02*
X61299000Y-76229685D01*
X86299000Y-70203000D02*
X86299000Y-76229685D01*
X61299000Y-82703000D02*
X61299000Y-88729685D01*
X86299000Y-82703000D02*
X86299000Y-88729685D01*
%TO.N,Net-(Q7-Pad2)*%
X60188998Y-50664000D02*
X60283000Y-50664000D01*
X59718997Y-51134001D02*
X60188998Y-50664000D01*
X58779999Y-51134001D02*
X59718997Y-51134001D01*
X54131577Y-46485579D02*
X58779999Y-51134001D01*
X54131577Y-45075726D02*
X54131577Y-46485579D01*
X60188998Y-50664000D02*
X60283000Y-50664000D01*
X59718997Y-51134001D02*
X60188998Y-50664000D01*
X58779999Y-51134001D02*
X59718997Y-51134001D01*
X54131577Y-46485579D02*
X58779999Y-51134001D01*
X54131577Y-45075726D02*
X54131577Y-46485579D01*
X85188998Y-50664000D02*
X85283000Y-50664000D01*
X60188998Y-63164000D02*
X60283000Y-63164000D01*
X85188998Y-63164000D02*
X85283000Y-63164000D01*
X60188998Y-75664000D02*
X60283000Y-75664000D01*
X85188998Y-75664000D02*
X85283000Y-75664000D01*
X60188998Y-88164000D02*
X60283000Y-88164000D01*
X85188998Y-88164000D02*
X85283000Y-88164000D01*
X84718997Y-51134001D02*
X85188998Y-50664000D01*
X59718997Y-63634001D02*
X60188998Y-63164000D01*
X84718997Y-63634001D02*
X85188998Y-63164000D01*
X59718997Y-76134001D02*
X60188998Y-75664000D01*
X84718997Y-76134001D02*
X85188998Y-75664000D01*
X59718997Y-88634001D02*
X60188998Y-88164000D01*
X84718997Y-88634001D02*
X85188998Y-88164000D01*
X83779999Y-51134001D02*
X84718997Y-51134001D01*
X58779999Y-63634001D02*
X59718997Y-63634001D01*
X83779999Y-63634001D02*
X84718997Y-63634001D01*
X58779999Y-76134001D02*
X59718997Y-76134001D01*
X83779999Y-76134001D02*
X84718997Y-76134001D01*
X58779999Y-88634001D02*
X59718997Y-88634001D01*
X83779999Y-88634001D02*
X84718997Y-88634001D01*
X79131577Y-46485579D02*
X83779999Y-51134001D01*
X54131577Y-58985579D02*
X58779999Y-63634001D01*
X79131577Y-58985579D02*
X83779999Y-63634001D01*
X54131577Y-71485579D02*
X58779999Y-76134001D01*
X79131577Y-71485579D02*
X83779999Y-76134001D01*
X54131577Y-83985579D02*
X58779999Y-88634001D01*
X79131577Y-83985579D02*
X83779999Y-88634001D01*
X79131577Y-45075726D02*
X79131577Y-46485579D01*
X54131577Y-57575726D02*
X54131577Y-58985579D01*
X79131577Y-57575726D02*
X79131577Y-58985579D01*
X54131577Y-70075726D02*
X54131577Y-71485579D01*
X79131577Y-70075726D02*
X79131577Y-71485579D01*
X54131577Y-82575726D02*
X54131577Y-83985579D01*
X79131577Y-82575726D02*
X79131577Y-83985579D01*
%TO.N,Net-(Q8-Pad2)*%
X58389999Y-51585997D02*
X58389999Y-52294001D01*
X58821133Y-52725135D02*
X60282957Y-52725135D01*
X55563002Y-48759000D02*
X58389999Y-51585997D01*
X58389999Y-52294001D02*
X58821133Y-52725135D01*
X54695000Y-48759000D02*
X55563002Y-48759000D01*
X58389999Y-51585997D02*
X58389999Y-52294001D01*
X58821133Y-52725135D02*
X60282957Y-52725135D01*
X55563002Y-48759000D02*
X58389999Y-51585997D01*
X58389999Y-52294001D02*
X58821133Y-52725135D01*
X54695000Y-48759000D02*
X55563002Y-48759000D01*
X83389999Y-51585997D02*
X83389999Y-52294001D01*
X58389999Y-64085997D02*
X58389999Y-64794001D01*
X83389999Y-64085997D02*
X83389999Y-64794001D01*
X58389999Y-76585997D02*
X58389999Y-77294001D01*
X83389999Y-76585997D02*
X83389999Y-77294001D01*
X58389999Y-89085997D02*
X58389999Y-89794001D01*
X83389999Y-89085997D02*
X83389999Y-89794001D01*
X83821133Y-52725135D02*
X85282957Y-52725135D01*
X58821133Y-65225135D02*
X60282957Y-65225135D01*
X83821133Y-65225135D02*
X85282957Y-65225135D01*
X58821133Y-77725135D02*
X60282957Y-77725135D01*
X83821133Y-77725135D02*
X85282957Y-77725135D01*
X58821133Y-90225135D02*
X60282957Y-90225135D01*
X83821133Y-90225135D02*
X85282957Y-90225135D01*
X80563002Y-48759000D02*
X83389999Y-51585997D01*
X55563002Y-61259000D02*
X58389999Y-64085997D01*
X80563002Y-61259000D02*
X83389999Y-64085997D01*
X55563002Y-73759000D02*
X58389999Y-76585997D01*
X80563002Y-73759000D02*
X83389999Y-76585997D01*
X55563002Y-86259000D02*
X58389999Y-89085997D01*
X80563002Y-86259000D02*
X83389999Y-89085997D01*
X83389999Y-52294001D02*
X83821133Y-52725135D01*
X58389999Y-64794001D02*
X58821133Y-65225135D01*
X83389999Y-64794001D02*
X83821133Y-65225135D01*
X58389999Y-77294001D02*
X58821133Y-77725135D01*
X83389999Y-77294001D02*
X83821133Y-77725135D01*
X58389999Y-89794001D02*
X58821133Y-90225135D01*
X83389999Y-89794001D02*
X83821133Y-90225135D01*
X79695000Y-48759000D02*
X80563002Y-48759000D01*
X54695000Y-61259000D02*
X55563002Y-61259000D01*
X79695000Y-61259000D02*
X80563002Y-61259000D01*
X54695000Y-73759000D02*
X55563002Y-73759000D01*
X79695000Y-73759000D02*
X80563002Y-73759000D01*
X54695000Y-86259000D02*
X55563002Y-86259000D01*
X79695000Y-86259000D02*
X80563002Y-86259000D01*
%TD*%
M02*
