M48
; DRILL file {KiCad (5.1.10)-1} date 01/18/22 16:22:44
; FORMAT={3:3/ absolute / metric / keep zeros}
; #@! TF.CreationDate,2022-01-18T16:22:44+07:00
; #@! TF.GenerationSoftware,Kicad,Pcbnew,(5.1.10)-1
; #@! TF.FileFunction,Plated,1,2,PTH
FMAT,2
METRIC
T1C0.400
T2C0.700
T3C1.000
T4C1.075
%
G90
G05
T1
X057138Y-055979
X057138Y-075156
X057138Y-094333
X057138Y-113510
X057138Y-132687
X057773Y-054457
X057773Y-073634
X057773Y-092811
X057773Y-111988
X057773Y-131165
X059170Y-058140
X059170Y-077317
X059170Y-096494
X059170Y-115671
X059170Y-134848
X061202Y-054965
X061202Y-074142
X061202Y-093319
X061202Y-112496
X061202Y-131673
X078638Y-055979
X078638Y-075156
X078638Y-094333
X078638Y-113510
X078638Y-132687
X079273Y-054457
X079273Y-073634
X079273Y-092811
X079273Y-111988
X079273Y-131165
X080670Y-058140
X080670Y-077317
X080670Y-096494
X080670Y-115671
X080670Y-134848
X082702Y-054965
X082702Y-074142
X082702Y-093319
X082702Y-112496
X082702Y-131673
X100138Y-055979
X100138Y-075156
X100138Y-094333
X100138Y-113510
X100138Y-132687
X100773Y-054457
X100773Y-073634
X100773Y-092811
X100773Y-111988
X100773Y-131165
X102170Y-058140
X102170Y-077317
X102170Y-096494
X102170Y-115671
X102170Y-134848
X104202Y-054965
X104202Y-074142
X104202Y-093319
X104202Y-112496
X104202Y-131673
X121638Y-055979
X121638Y-075156
X121638Y-094333
X121638Y-113510
X121638Y-132687
X122273Y-054457
X122273Y-073634
X122273Y-092811
X122273Y-111988
X122273Y-131165
X123670Y-058140
X123670Y-077317
X123670Y-096494
X123670Y-115671
X123670Y-134848
X125702Y-054965
X125702Y-074142
X125702Y-093319
X125702Y-112496
X125702Y-131673
T2
X054471Y-049377
X054471Y-068554
X054471Y-087731
X054471Y-106908
X054471Y-126085
X057496Y-057782
X057496Y-076959
X057496Y-096136
X057496Y-115313
X057496Y-134490
X066790Y-051917
X066790Y-071094
X066790Y-090271
X066790Y-109448
X066790Y-128625
X068060Y-053187
X068060Y-072364
X068060Y-091541
X068060Y-110718
X068060Y-129895
X068921Y-047980
X068921Y-067157
X068921Y-086334
X068921Y-105511
X068921Y-124688
X073521Y-047980
X073521Y-067157
X073521Y-086334
X073521Y-105511
X073521Y-124688
X075971Y-049377
X075971Y-068554
X075971Y-087731
X075971Y-106908
X075971Y-126085
X078996Y-057782
X078996Y-076959
X078996Y-096136
X078996Y-115313
X078996Y-134490
X088290Y-051917
X088290Y-071094
X088290Y-090271
X088290Y-109448
X088290Y-128625
X089560Y-053187
X089560Y-072364
X089560Y-091541
X089560Y-110718
X089560Y-129895
X090421Y-047980
X090421Y-067157
X090421Y-086334
X090421Y-105511
X090421Y-124688
X095021Y-047980
X095021Y-067157
X095021Y-086334
X095021Y-105511
X095021Y-124688
X097471Y-049377
X097471Y-068554
X097471Y-087731
X097471Y-106908
X097471Y-126085
X100496Y-057782
X100496Y-076959
X100496Y-096136
X100496Y-115313
X100496Y-134490
X109790Y-051917
X109790Y-071094
X109790Y-090271
X109790Y-109448
X109790Y-128625
X111060Y-053187
X111060Y-072364
X111060Y-091541
X111060Y-110718
X111060Y-129895
X111921Y-047980
X111921Y-067157
X111921Y-086334
X111921Y-105511
X111921Y-124688
X116521Y-047980
X116521Y-067157
X116521Y-086334
X116521Y-105511
X116521Y-124688
X118971Y-049377
X118971Y-068554
X118971Y-087731
X118971Y-106908
X118971Y-126085
X121996Y-057782
X121996Y-076959
X121996Y-096136
X121996Y-115313
X121996Y-134490
X131290Y-051917
X131290Y-071094
X131290Y-090271
X131290Y-109448
X131290Y-128625
X132560Y-053187
X132560Y-072364
X132560Y-091541
X132560Y-110718
X132560Y-129895
X133421Y-047980
X133421Y-067157
X133421Y-086334
X133421Y-105511
X133421Y-124688
X138021Y-047980
X138021Y-067157
X138021Y-086334
X138021Y-105511
X138021Y-124688
T3
X054852Y-060426
X054852Y-079603
X054852Y-098780
X054852Y-117957
X054852Y-137134
X057392Y-060426
X057392Y-079603
X057392Y-098780
X057392Y-117957
X057392Y-137134
X059932Y-060426
X059932Y-079603
X059932Y-098780
X059932Y-117957
X059932Y-137134
X062472Y-060426
X062472Y-079603
X062472Y-098780
X062472Y-117957
X062472Y-137134
X067552Y-060426
X067552Y-079603
X067552Y-098780
X067552Y-117957
X067552Y-137134
X070092Y-060426
X070092Y-079603
X070092Y-098780
X070092Y-117957
X070092Y-137134
X072632Y-060426
X072632Y-079603
X072632Y-098780
X072632Y-117957
X072632Y-137134
X076352Y-060426
X076352Y-079603
X076352Y-098780
X076352Y-117957
X076352Y-137134
X078892Y-060426
X078892Y-079603
X078892Y-098780
X078892Y-117957
X078892Y-137134
X081432Y-060426
X081432Y-079603
X081432Y-098780
X081432Y-117957
X081432Y-137134
X083972Y-060426
X083972Y-079603
X083972Y-098780
X083972Y-117957
X083972Y-137134
X089052Y-060426
X089052Y-079603
X089052Y-098780
X089052Y-117957
X089052Y-137134
X091592Y-060426
X091592Y-079603
X091592Y-098780
X091592Y-117957
X091592Y-137134
X094132Y-060426
X094132Y-079603
X094132Y-098780
X094132Y-117957
X094132Y-137134
X097852Y-060426
X097852Y-079603
X097852Y-098780
X097852Y-117957
X097852Y-137134
X100392Y-060426
X100392Y-079603
X100392Y-098780
X100392Y-117957
X100392Y-137134
X102932Y-060426
X102932Y-079603
X102932Y-098780
X102932Y-117957
X102932Y-137134
X105472Y-060426
X105472Y-079603
X105472Y-098780
X105472Y-117957
X105472Y-137134
X110552Y-060426
X110552Y-079603
X110552Y-098780
X110552Y-117957
X110552Y-137134
X113092Y-060426
X113092Y-079603
X113092Y-098780
X113092Y-117957
X113092Y-137134
X115632Y-060426
X115632Y-079603
X115632Y-098780
X115632Y-117957
X115632Y-137134
X119352Y-060426
X119352Y-079603
X119352Y-098780
X119352Y-117957
X119352Y-137134
X121892Y-060426
X121892Y-079603
X121892Y-098780
X121892Y-117957
X121892Y-137134
X124432Y-060426
X124432Y-079603
X124432Y-098780
X124432Y-117957
X124432Y-137134
X126972Y-060426
X126972Y-079603
X126972Y-098780
X126972Y-117957
X126972Y-137134
X132052Y-060426
X132052Y-079603
X132052Y-098780
X132052Y-117957
X132052Y-137134
X134592Y-060426
X134592Y-079603
X134592Y-098780
X134592Y-117957
X134592Y-137134
X137132Y-060426
X137132Y-079603
X137132Y-098780
X137132Y-117957
X137132Y-137134
T4
X057646Y-047980
X057646Y-067157
X057646Y-086334
X057646Y-105511
X057646Y-124688
X060186Y-047980
X060186Y-067157
X060186Y-086334
X060186Y-105511
X060186Y-124688
X062726Y-047980
X062726Y-067157
X062726Y-086334
X062726Y-105511
X062726Y-124688
X065266Y-047980
X065266Y-067157
X065266Y-086334
X065266Y-105511
X065266Y-124688
X079146Y-047980
X079146Y-067157
X079146Y-086334
X079146Y-105511
X079146Y-124688
X081686Y-047980
X081686Y-067157
X081686Y-086334
X081686Y-105511
X081686Y-124688
X084226Y-047980
X084226Y-067157
X084226Y-086334
X084226Y-105511
X084226Y-124688
X086766Y-047980
X086766Y-067157
X086766Y-086334
X086766Y-105511
X086766Y-124688
X100646Y-047980
X100646Y-067157
X100646Y-086334
X100646Y-105511
X100646Y-124688
X103186Y-047980
X103186Y-067157
X103186Y-086334
X103186Y-105511
X103186Y-124688
X105726Y-047980
X105726Y-067157
X105726Y-086334
X105726Y-105511
X105726Y-124688
X108266Y-047980
X108266Y-067157
X108266Y-086334
X108266Y-105511
X108266Y-124688
X122146Y-047980
X122146Y-067157
X122146Y-086334
X122146Y-105511
X122146Y-124688
X124686Y-047980
X124686Y-067157
X124686Y-086334
X124686Y-105511
X124686Y-124688
X127226Y-047980
X127226Y-067157
X127226Y-086334
X127226Y-105511
X127226Y-124688
X129766Y-047980
X129766Y-067157
X129766Y-086334
X129766Y-105511
X129766Y-124688
T0
M30
