%TF.GenerationSoftware,KiCad,Pcbnew,(5.1.10)-1*%
%TF.CreationDate,2022-01-18T16:22:41+07:00*%
%TF.ProjectId,DC5V_DC5V3V3_v3_pnlz4x5,44433556-5f44-4433-9556-3356335f7633,rev?*%
%TF.SameCoordinates,Original*%
%TF.FileFunction,Profile,NP*%
%FSLAX46Y46*%
G04 Gerber Fmt 4.6, Leading zero omitted, Abs format (unit mm)*
G04 Created by KiCad (PCBNEW (5.1.10)-1) date 2022-01-18 16:22:41*
%MOMM*%
%LPD*%
G01*
G04 APERTURE LIST*
%TA.AperFunction,Profile*%
%ADD10C,0.100000*%
%TD*%
G04 APERTURE END LIST*
D10*
X118000000Y-119354000D02*
X118000000Y-138531000D01*
X96500000Y-119354000D02*
X96500000Y-138531000D01*
X75000000Y-119354000D02*
X75000000Y-138531000D01*
X53500000Y-119354000D02*
X53500000Y-138531000D01*
X118000000Y-100177000D02*
X118000000Y-119354000D01*
X96500000Y-100177000D02*
X96500000Y-119354000D01*
X75000000Y-100177000D02*
X75000000Y-119354000D01*
X53500000Y-100177000D02*
X53500000Y-119354000D01*
X118000000Y-81000000D02*
X118000000Y-100177000D01*
X96500000Y-81000000D02*
X96500000Y-100177000D01*
X75000000Y-81000000D02*
X75000000Y-100177000D01*
X53500000Y-81000000D02*
X53500000Y-100177000D01*
X118000000Y-61823000D02*
X118000000Y-81000000D01*
X96500000Y-61823000D02*
X96500000Y-81000000D01*
X75000000Y-61823000D02*
X75000000Y-81000000D01*
X53500000Y-61823000D02*
X53500000Y-81000000D01*
X118000000Y-42646000D02*
X118000000Y-61823000D01*
X96500000Y-42646000D02*
X96500000Y-61823000D01*
X75000000Y-42646000D02*
X75000000Y-61823000D01*
X139500000Y-119354000D02*
X118000000Y-119354000D01*
X118000000Y-119354000D02*
X96500000Y-119354000D01*
X96500000Y-119354000D02*
X75000000Y-119354000D01*
X75000000Y-119354000D02*
X53500000Y-119354000D01*
X139500000Y-100177000D02*
X118000000Y-100177000D01*
X118000000Y-100177000D02*
X96500000Y-100177000D01*
X96500000Y-100177000D02*
X75000000Y-100177000D01*
X75000000Y-100177000D02*
X53500000Y-100177000D01*
X139500000Y-81000000D02*
X118000000Y-81000000D01*
X118000000Y-81000000D02*
X96500000Y-81000000D01*
X96500000Y-81000000D02*
X75000000Y-81000000D01*
X75000000Y-81000000D02*
X53500000Y-81000000D01*
X139500000Y-61823000D02*
X118000000Y-61823000D01*
X118000000Y-61823000D02*
X96500000Y-61823000D01*
X96500000Y-61823000D02*
X75000000Y-61823000D01*
X75000000Y-61823000D02*
X53500000Y-61823000D01*
X139500000Y-42646000D02*
X118000000Y-42646000D01*
X118000000Y-42646000D02*
X96500000Y-42646000D01*
X96500000Y-42646000D02*
X75000000Y-42646000D01*
X139500000Y-119354000D02*
X139500000Y-138531000D01*
X118000000Y-119354000D02*
X118000000Y-138531000D01*
X96500000Y-119354000D02*
X96500000Y-138531000D01*
X75000000Y-119354000D02*
X75000000Y-138531000D01*
X139500000Y-100177000D02*
X139500000Y-119354000D01*
X118000000Y-100177000D02*
X118000000Y-119354000D01*
X96500000Y-100177000D02*
X96500000Y-119354000D01*
X75000000Y-100177000D02*
X75000000Y-119354000D01*
X139500000Y-81000000D02*
X139500000Y-100177000D01*
X118000000Y-81000000D02*
X118000000Y-100177000D01*
X96500000Y-81000000D02*
X96500000Y-100177000D01*
X75000000Y-81000000D02*
X75000000Y-100177000D01*
X139500000Y-61823000D02*
X139500000Y-81000000D01*
X118000000Y-61823000D02*
X118000000Y-81000000D01*
X96500000Y-61823000D02*
X96500000Y-81000000D01*
X75000000Y-61823000D02*
X75000000Y-81000000D01*
X139500000Y-42646000D02*
X139500000Y-61823000D01*
X118000000Y-42646000D02*
X118000000Y-61823000D01*
X96500000Y-42646000D02*
X96500000Y-61823000D01*
X118000000Y-138531000D02*
X139500000Y-138531000D01*
X96500000Y-138531000D02*
X118000000Y-138531000D01*
X75000000Y-138531000D02*
X96500000Y-138531000D01*
X53500000Y-138531000D02*
X75000000Y-138531000D01*
X118000000Y-119354000D02*
X139500000Y-119354000D01*
X96500000Y-119354000D02*
X118000000Y-119354000D01*
X75000000Y-119354000D02*
X96500000Y-119354000D01*
X53500000Y-119354000D02*
X75000000Y-119354000D01*
X118000000Y-100177000D02*
X139500000Y-100177000D01*
X96500000Y-100177000D02*
X118000000Y-100177000D01*
X75000000Y-100177000D02*
X96500000Y-100177000D01*
X53500000Y-100177000D02*
X75000000Y-100177000D01*
X118000000Y-81000000D02*
X139500000Y-81000000D01*
X96500000Y-81000000D02*
X118000000Y-81000000D01*
X75000000Y-81000000D02*
X96500000Y-81000000D01*
X53500000Y-81000000D02*
X75000000Y-81000000D01*
X118000000Y-61823000D02*
X139500000Y-61823000D01*
X96500000Y-61823000D02*
X118000000Y-61823000D01*
X75000000Y-61823000D02*
X96500000Y-61823000D01*
X53500000Y-42646000D02*
X53500000Y-61823000D01*
X75000000Y-42646000D02*
X53500000Y-42646000D01*
X75000000Y-42646000D02*
X75000000Y-61823000D01*
X53500000Y-61823000D02*
X75000000Y-61823000D01*
M02*
