M48
; DRILL file {KiCad (5.1.10)-1} date 01/17/22 19:02:28
; FORMAT={3:3/ absolute / metric / keep zeros}
; #@! TF.CreationDate,2022-01-17T19:02:28+07:00
; #@! TF.GenerationSoftware,Kicad,Pcbnew,(5.1.10)-1
; #@! TF.FileFunction,Plated,1,2,PTH
FMAT,2
METRIC
T1C0.400
T2C0.700
T3C1.000
T4C1.075
%
G90
G05
T1
X103638Y-083979
X103638Y-103156
X103638Y-122333
X103638Y-141510
X103638Y-160687
X104273Y-082457
X104273Y-101634
X104273Y-120811
X104273Y-139988
X104273Y-159165
X105670Y-086140
X105670Y-105317
X105670Y-124494
X105670Y-143671
X105670Y-162848
X107702Y-082965
X107702Y-102142
X107702Y-121319
X107702Y-140496
X107702Y-159673
X125138Y-083979
X125138Y-103156
X125138Y-122333
X125138Y-141510
X125138Y-160687
X125773Y-082457
X125773Y-101634
X125773Y-120811
X125773Y-139988
X125773Y-159165
X127170Y-086140
X127170Y-105317
X127170Y-124494
X127170Y-143671
X127170Y-162848
X129202Y-082965
X129202Y-102142
X129202Y-121319
X129202Y-140496
X129202Y-159673
X146638Y-083979
X146638Y-103156
X146638Y-122333
X146638Y-141510
X146638Y-160687
X147273Y-082457
X147273Y-101634
X147273Y-120811
X147273Y-139988
X147273Y-159165
X148670Y-086140
X148670Y-105317
X148670Y-124494
X148670Y-143671
X148670Y-162848
X150702Y-082965
X150702Y-102142
X150702Y-121319
X150702Y-140496
X150702Y-159673
X168138Y-083979
X168138Y-103156
X168138Y-122333
X168138Y-141510
X168138Y-160687
X168773Y-082457
X168773Y-101634
X168773Y-120811
X168773Y-139988
X168773Y-159165
X170170Y-086140
X170170Y-105317
X170170Y-124494
X170170Y-143671
X170170Y-162848
X172202Y-082965
X172202Y-102142
X172202Y-121319
X172202Y-140496
X172202Y-159673
T2
X100971Y-077377
X100971Y-096554
X100971Y-115731
X100971Y-134908
X100971Y-154085
X103996Y-085782
X103996Y-104959
X103996Y-124136
X103996Y-143313
X103996Y-162490
X113290Y-079917
X113290Y-099094
X113290Y-118271
X113290Y-137448
X113290Y-156625
X114560Y-081187
X114560Y-100364
X114560Y-119541
X114560Y-138718
X114560Y-157895
X115421Y-075980
X115421Y-095157
X115421Y-114334
X115421Y-133511
X115421Y-152688
X120021Y-075980
X120021Y-095157
X120021Y-114334
X120021Y-133511
X120021Y-152688
X122471Y-077377
X122471Y-096554
X122471Y-115731
X122471Y-134908
X122471Y-154085
X125496Y-085782
X125496Y-104959
X125496Y-124136
X125496Y-143313
X125496Y-162490
X134790Y-079917
X134790Y-099094
X134790Y-118271
X134790Y-137448
X134790Y-156625
X136060Y-081187
X136060Y-100364
X136060Y-119541
X136060Y-138718
X136060Y-157895
X136921Y-075980
X136921Y-095157
X136921Y-114334
X136921Y-133511
X136921Y-152688
X141521Y-075980
X141521Y-095157
X141521Y-114334
X141521Y-133511
X141521Y-152688
X143971Y-077377
X143971Y-096554
X143971Y-115731
X143971Y-134908
X143971Y-154085
X146996Y-085782
X146996Y-104959
X146996Y-124136
X146996Y-143313
X146996Y-162490
X156290Y-079917
X156290Y-099094
X156290Y-118271
X156290Y-137448
X156290Y-156625
X157560Y-081187
X157560Y-100364
X157560Y-119541
X157560Y-138718
X157560Y-157895
X158421Y-075980
X158421Y-095157
X158421Y-114334
X158421Y-133511
X158421Y-152688
X163021Y-075980
X163021Y-095157
X163021Y-114334
X163021Y-133511
X163021Y-152688
X165471Y-077377
X165471Y-096554
X165471Y-115731
X165471Y-134908
X165471Y-154085
X168496Y-085782
X168496Y-104959
X168496Y-124136
X168496Y-143313
X168496Y-162490
X177790Y-079917
X177790Y-099094
X177790Y-118271
X177790Y-137448
X177790Y-156625
X179060Y-081187
X179060Y-100364
X179060Y-119541
X179060Y-138718
X179060Y-157895
X179921Y-075980
X179921Y-095157
X179921Y-114334
X179921Y-133511
X179921Y-152688
X184521Y-075980
X184521Y-095157
X184521Y-114334
X184521Y-133511
X184521Y-152688
T3
X101352Y-088426
X101352Y-107603
X101352Y-126780
X101352Y-145957
X101352Y-165134
X103892Y-088426
X103892Y-107603
X103892Y-126780
X103892Y-145957
X103892Y-165134
X106432Y-088426
X106432Y-107603
X106432Y-126780
X106432Y-145957
X106432Y-165134
X108972Y-088426
X108972Y-107603
X108972Y-126780
X108972Y-145957
X108972Y-165134
X114052Y-088426
X114052Y-107603
X114052Y-126780
X114052Y-145957
X114052Y-165134
X116592Y-088426
X116592Y-107603
X116592Y-126780
X116592Y-145957
X116592Y-165134
X119132Y-088426
X119132Y-107603
X119132Y-126780
X119132Y-145957
X119132Y-165134
X122852Y-088426
X122852Y-107603
X122852Y-126780
X122852Y-145957
X122852Y-165134
X125392Y-088426
X125392Y-107603
X125392Y-126780
X125392Y-145957
X125392Y-165134
X127932Y-088426
X127932Y-107603
X127932Y-126780
X127932Y-145957
X127932Y-165134
X130472Y-088426
X130472Y-107603
X130472Y-126780
X130472Y-145957
X130472Y-165134
X135552Y-088426
X135552Y-107603
X135552Y-126780
X135552Y-145957
X135552Y-165134
X138092Y-088426
X138092Y-107603
X138092Y-126780
X138092Y-145957
X138092Y-165134
X140632Y-088426
X140632Y-107603
X140632Y-126780
X140632Y-145957
X140632Y-165134
X144352Y-088426
X144352Y-107603
X144352Y-126780
X144352Y-145957
X144352Y-165134
X146892Y-088426
X146892Y-107603
X146892Y-126780
X146892Y-145957
X146892Y-165134
X149432Y-088426
X149432Y-107603
X149432Y-126780
X149432Y-145957
X149432Y-165134
X151972Y-088426
X151972Y-107603
X151972Y-126780
X151972Y-145957
X151972Y-165134
X157052Y-088426
X157052Y-107603
X157052Y-126780
X157052Y-145957
X157052Y-165134
X159592Y-088426
X159592Y-107603
X159592Y-126780
X159592Y-145957
X159592Y-165134
X162132Y-088426
X162132Y-107603
X162132Y-126780
X162132Y-145957
X162132Y-165134
X165852Y-088426
X165852Y-107603
X165852Y-126780
X165852Y-145957
X165852Y-165134
X168392Y-088426
X168392Y-107603
X168392Y-126780
X168392Y-145957
X168392Y-165134
X170932Y-088426
X170932Y-107603
X170932Y-126780
X170932Y-145957
X170932Y-165134
X173472Y-088426
X173472Y-107603
X173472Y-126780
X173472Y-145957
X173472Y-165134
X178552Y-088426
X178552Y-107603
X178552Y-126780
X178552Y-145957
X178552Y-165134
X181092Y-088426
X181092Y-107603
X181092Y-126780
X181092Y-145957
X181092Y-165134
X183632Y-088426
X183632Y-107603
X183632Y-126780
X183632Y-145957
X183632Y-165134
T4
X104146Y-075980
X104146Y-095157
X104146Y-114334
X104146Y-133511
X104146Y-152688
X106686Y-075980
X106686Y-095157
X106686Y-114334
X106686Y-133511
X106686Y-152688
X109226Y-075980
X109226Y-095157
X109226Y-114334
X109226Y-133511
X109226Y-152688
X111766Y-075980
X111766Y-095157
X111766Y-114334
X111766Y-133511
X111766Y-152688
X125646Y-075980
X125646Y-095157
X125646Y-114334
X125646Y-133511
X125646Y-152688
X128186Y-075980
X128186Y-095157
X128186Y-114334
X128186Y-133511
X128186Y-152688
X130726Y-075980
X130726Y-095157
X130726Y-114334
X130726Y-133511
X130726Y-152688
X133266Y-075980
X133266Y-095157
X133266Y-114334
X133266Y-133511
X133266Y-152688
X147146Y-075980
X147146Y-095157
X147146Y-114334
X147146Y-133511
X147146Y-152688
X149686Y-075980
X149686Y-095157
X149686Y-114334
X149686Y-133511
X149686Y-152688
X152226Y-075980
X152226Y-095157
X152226Y-114334
X152226Y-133511
X152226Y-152688
X154766Y-075980
X154766Y-095157
X154766Y-114334
X154766Y-133511
X154766Y-152688
X168646Y-075980
X168646Y-095157
X168646Y-114334
X168646Y-133511
X168646Y-152688
X171186Y-075980
X171186Y-095157
X171186Y-114334
X171186Y-133511
X171186Y-152688
X173726Y-075980
X173726Y-095157
X173726Y-114334
X173726Y-133511
X173726Y-152688
X176266Y-075980
X176266Y-095157
X176266Y-114334
X176266Y-133511
X176266Y-152688
T0
M30
