%TF.GenerationSoftware,KiCad,Pcbnew,(5.1.10)-1*%
%TF.CreationDate,2022-01-17T19:02:25+07:00*%
%TF.ProjectId,DC5V_DC5V3V3_v3_pnlz4x5,44433556-5f44-4433-9556-3356335f7633,rev?*%
%TF.SameCoordinates,Original*%
%TF.FileFunction,Profile,NP*%
%FSLAX46Y46*%
G04 Gerber Fmt 4.6, Leading zero omitted, Abs format (unit mm)*
G04 Created by KiCad (PCBNEW (5.1.10)-1) date 2022-01-17 19:02:25*
%MOMM*%
%LPD*%
G01*
G04 APERTURE LIST*
%TA.AperFunction,Profile*%
%ADD10C,0.100000*%
%TD*%
G04 APERTURE END LIST*
D10*
X164500000Y-147354000D02*
X164500000Y-166531000D01*
X143000000Y-147354000D02*
X143000000Y-166531000D01*
X121500000Y-147354000D02*
X121500000Y-166531000D01*
X100000000Y-147354000D02*
X100000000Y-166531000D01*
X164500000Y-128177000D02*
X164500000Y-147354000D01*
X143000000Y-128177000D02*
X143000000Y-147354000D01*
X121500000Y-128177000D02*
X121500000Y-147354000D01*
X100000000Y-128177000D02*
X100000000Y-147354000D01*
X164500000Y-109000000D02*
X164500000Y-128177000D01*
X143000000Y-109000000D02*
X143000000Y-128177000D01*
X121500000Y-109000000D02*
X121500000Y-128177000D01*
X100000000Y-109000000D02*
X100000000Y-128177000D01*
X164500000Y-89823000D02*
X164500000Y-109000000D01*
X143000000Y-89823000D02*
X143000000Y-109000000D01*
X121500000Y-89823000D02*
X121500000Y-109000000D01*
X100000000Y-89823000D02*
X100000000Y-109000000D01*
X164500000Y-70646000D02*
X164500000Y-89823000D01*
X143000000Y-70646000D02*
X143000000Y-89823000D01*
X121500000Y-70646000D02*
X121500000Y-89823000D01*
X186000000Y-147354000D02*
X164500000Y-147354000D01*
X164500000Y-147354000D02*
X143000000Y-147354000D01*
X143000000Y-147354000D02*
X121500000Y-147354000D01*
X121500000Y-147354000D02*
X100000000Y-147354000D01*
X186000000Y-128177000D02*
X164500000Y-128177000D01*
X164500000Y-128177000D02*
X143000000Y-128177000D01*
X143000000Y-128177000D02*
X121500000Y-128177000D01*
X121500000Y-128177000D02*
X100000000Y-128177000D01*
X186000000Y-109000000D02*
X164500000Y-109000000D01*
X164500000Y-109000000D02*
X143000000Y-109000000D01*
X143000000Y-109000000D02*
X121500000Y-109000000D01*
X121500000Y-109000000D02*
X100000000Y-109000000D01*
X186000000Y-89823000D02*
X164500000Y-89823000D01*
X164500000Y-89823000D02*
X143000000Y-89823000D01*
X143000000Y-89823000D02*
X121500000Y-89823000D01*
X121500000Y-89823000D02*
X100000000Y-89823000D01*
X186000000Y-70646000D02*
X164500000Y-70646000D01*
X164500000Y-70646000D02*
X143000000Y-70646000D01*
X143000000Y-70646000D02*
X121500000Y-70646000D01*
X186000000Y-147354000D02*
X186000000Y-166531000D01*
X164500000Y-147354000D02*
X164500000Y-166531000D01*
X143000000Y-147354000D02*
X143000000Y-166531000D01*
X121500000Y-147354000D02*
X121500000Y-166531000D01*
X186000000Y-128177000D02*
X186000000Y-147354000D01*
X164500000Y-128177000D02*
X164500000Y-147354000D01*
X143000000Y-128177000D02*
X143000000Y-147354000D01*
X121500000Y-128177000D02*
X121500000Y-147354000D01*
X186000000Y-109000000D02*
X186000000Y-128177000D01*
X164500000Y-109000000D02*
X164500000Y-128177000D01*
X143000000Y-109000000D02*
X143000000Y-128177000D01*
X121500000Y-109000000D02*
X121500000Y-128177000D01*
X186000000Y-89823000D02*
X186000000Y-109000000D01*
X164500000Y-89823000D02*
X164500000Y-109000000D01*
X143000000Y-89823000D02*
X143000000Y-109000000D01*
X121500000Y-89823000D02*
X121500000Y-109000000D01*
X186000000Y-70646000D02*
X186000000Y-89823000D01*
X164500000Y-70646000D02*
X164500000Y-89823000D01*
X143000000Y-70646000D02*
X143000000Y-89823000D01*
X164500000Y-166531000D02*
X186000000Y-166531000D01*
X143000000Y-166531000D02*
X164500000Y-166531000D01*
X121500000Y-166531000D02*
X143000000Y-166531000D01*
X100000000Y-166531000D02*
X121500000Y-166531000D01*
X164500000Y-147354000D02*
X186000000Y-147354000D01*
X143000000Y-147354000D02*
X164500000Y-147354000D01*
X121500000Y-147354000D02*
X143000000Y-147354000D01*
X100000000Y-147354000D02*
X121500000Y-147354000D01*
X164500000Y-128177000D02*
X186000000Y-128177000D01*
X143000000Y-128177000D02*
X164500000Y-128177000D01*
X121500000Y-128177000D02*
X143000000Y-128177000D01*
X100000000Y-128177000D02*
X121500000Y-128177000D01*
X164500000Y-109000000D02*
X186000000Y-109000000D01*
X143000000Y-109000000D02*
X164500000Y-109000000D01*
X121500000Y-109000000D02*
X143000000Y-109000000D01*
X100000000Y-109000000D02*
X121500000Y-109000000D01*
X164500000Y-89823000D02*
X186000000Y-89823000D01*
X143000000Y-89823000D02*
X164500000Y-89823000D01*
X121500000Y-89823000D02*
X143000000Y-89823000D01*
X100000000Y-70646000D02*
X100000000Y-89823000D01*
X121500000Y-70646000D02*
X100000000Y-70646000D01*
X121500000Y-70646000D02*
X121500000Y-89823000D01*
X100000000Y-89823000D02*
X121500000Y-89823000D01*
M02*
