%TF.GenerationSoftware,KiCad,Pcbnew,(5.1.10)-1*%
%TF.CreationDate,2022-01-18T16:22:40+07:00*%
%TF.ProjectId,DC5V_DC5V3V3_v3_pnlz4x5,44433556-5f44-4433-9556-3356335f7633,rev?*%
%TF.SameCoordinates,Original*%
%TF.FileFunction,Copper,L1,Top*%
%TF.FilePolarity,Positive*%
%FSLAX46Y46*%
G04 Gerber Fmt 4.6, Leading zero omitted, Abs format (unit mm)*
G04 Created by KiCad (PCBNEW (5.1.10)-1) date 2022-01-18 16:22:40*
%MOMM*%
%LPD*%
G01*
G04 APERTURE LIST*
%TA.AperFunction,NonConductor*%
%ADD10C,0.300000*%
%TD*%
%TA.AperFunction,SMDPad,CuDef*%
%ADD11R,3.800000X2.000000*%
%TD*%
%TA.AperFunction,SMDPad,CuDef*%
%ADD12R,1.500000X2.000000*%
%TD*%
%TA.AperFunction,ComponentPad*%
%ADD13R,1.700000X1.700000*%
%TD*%
%TA.AperFunction,ComponentPad*%
%ADD14O,1.700000X1.700000*%
%TD*%
%TA.AperFunction,ComponentPad*%
%ADD15O,1.750000X2.250000*%
%TD*%
%TA.AperFunction,ComponentPad*%
%ADD16R,1.750000X2.250000*%
%TD*%
%TA.AperFunction,ViaPad*%
%ADD17C,0.800000*%
%TD*%
%TA.AperFunction,ViaPad*%
%ADD18C,1.200000*%
%TD*%
%TA.AperFunction,Conductor*%
%ADD19C,0.800000*%
%TD*%
%TA.AperFunction,Conductor*%
%ADD20C,0.700000*%
%TD*%
%TA.AperFunction,Conductor*%
%ADD21C,0.400000*%
%TD*%
G04 APERTURE END LIST*
D10*
X136564571Y-121318571D02*
X136921714Y-122318571D01*
X137278857Y-121318571D01*
X137707428Y-120818571D02*
X138636000Y-120818571D01*
X138136000Y-121390000D01*
X138350285Y-121390000D01*
X138493142Y-121461428D01*
X138564571Y-121532857D01*
X138636000Y-121675714D01*
X138636000Y-122032857D01*
X138564571Y-122175714D01*
X138493142Y-122247142D01*
X138350285Y-122318571D01*
X137921714Y-122318571D01*
X137778857Y-122247142D01*
X137707428Y-122175714D01*
X115064571Y-121318571D02*
X115421714Y-122318571D01*
X115778857Y-121318571D01*
X116207428Y-120818571D02*
X117136000Y-120818571D01*
X116636000Y-121390000D01*
X116850285Y-121390000D01*
X116993142Y-121461428D01*
X117064571Y-121532857D01*
X117136000Y-121675714D01*
X117136000Y-122032857D01*
X117064571Y-122175714D01*
X116993142Y-122247142D01*
X116850285Y-122318571D01*
X116421714Y-122318571D01*
X116278857Y-122247142D01*
X116207428Y-122175714D01*
X93564571Y-121318571D02*
X93921714Y-122318571D01*
X94278857Y-121318571D01*
X94707428Y-120818571D02*
X95636000Y-120818571D01*
X95136000Y-121390000D01*
X95350285Y-121390000D01*
X95493142Y-121461428D01*
X95564571Y-121532857D01*
X95636000Y-121675714D01*
X95636000Y-122032857D01*
X95564571Y-122175714D01*
X95493142Y-122247142D01*
X95350285Y-122318571D01*
X94921714Y-122318571D01*
X94778857Y-122247142D01*
X94707428Y-122175714D01*
X72064571Y-121318571D02*
X72421714Y-122318571D01*
X72778857Y-121318571D01*
X73207428Y-120818571D02*
X74136000Y-120818571D01*
X73636000Y-121390000D01*
X73850285Y-121390000D01*
X73993142Y-121461428D01*
X74064571Y-121532857D01*
X74136000Y-121675714D01*
X74136000Y-122032857D01*
X74064571Y-122175714D01*
X73993142Y-122247142D01*
X73850285Y-122318571D01*
X73421714Y-122318571D01*
X73278857Y-122247142D01*
X73207428Y-122175714D01*
X136564571Y-102141571D02*
X136921714Y-103141571D01*
X137278857Y-102141571D01*
X137707428Y-101641571D02*
X138636000Y-101641571D01*
X138136000Y-102213000D01*
X138350285Y-102213000D01*
X138493142Y-102284428D01*
X138564571Y-102355857D01*
X138636000Y-102498714D01*
X138636000Y-102855857D01*
X138564571Y-102998714D01*
X138493142Y-103070142D01*
X138350285Y-103141571D01*
X137921714Y-103141571D01*
X137778857Y-103070142D01*
X137707428Y-102998714D01*
X115064571Y-102141571D02*
X115421714Y-103141571D01*
X115778857Y-102141571D01*
X116207428Y-101641571D02*
X117136000Y-101641571D01*
X116636000Y-102213000D01*
X116850285Y-102213000D01*
X116993142Y-102284428D01*
X117064571Y-102355857D01*
X117136000Y-102498714D01*
X117136000Y-102855857D01*
X117064571Y-102998714D01*
X116993142Y-103070142D01*
X116850285Y-103141571D01*
X116421714Y-103141571D01*
X116278857Y-103070142D01*
X116207428Y-102998714D01*
X93564571Y-102141571D02*
X93921714Y-103141571D01*
X94278857Y-102141571D01*
X94707428Y-101641571D02*
X95636000Y-101641571D01*
X95136000Y-102213000D01*
X95350285Y-102213000D01*
X95493142Y-102284428D01*
X95564571Y-102355857D01*
X95636000Y-102498714D01*
X95636000Y-102855857D01*
X95564571Y-102998714D01*
X95493142Y-103070142D01*
X95350285Y-103141571D01*
X94921714Y-103141571D01*
X94778857Y-103070142D01*
X94707428Y-102998714D01*
X72064571Y-102141571D02*
X72421714Y-103141571D01*
X72778857Y-102141571D01*
X73207428Y-101641571D02*
X74136000Y-101641571D01*
X73636000Y-102213000D01*
X73850285Y-102213000D01*
X73993142Y-102284428D01*
X74064571Y-102355857D01*
X74136000Y-102498714D01*
X74136000Y-102855857D01*
X74064571Y-102998714D01*
X73993142Y-103070142D01*
X73850285Y-103141571D01*
X73421714Y-103141571D01*
X73278857Y-103070142D01*
X73207428Y-102998714D01*
X136564571Y-82964571D02*
X136921714Y-83964571D01*
X137278857Y-82964571D01*
X137707428Y-82464571D02*
X138636000Y-82464571D01*
X138136000Y-83036000D01*
X138350285Y-83036000D01*
X138493142Y-83107428D01*
X138564571Y-83178857D01*
X138636000Y-83321714D01*
X138636000Y-83678857D01*
X138564571Y-83821714D01*
X138493142Y-83893142D01*
X138350285Y-83964571D01*
X137921714Y-83964571D01*
X137778857Y-83893142D01*
X137707428Y-83821714D01*
X115064571Y-82964571D02*
X115421714Y-83964571D01*
X115778857Y-82964571D01*
X116207428Y-82464571D02*
X117136000Y-82464571D01*
X116636000Y-83036000D01*
X116850285Y-83036000D01*
X116993142Y-83107428D01*
X117064571Y-83178857D01*
X117136000Y-83321714D01*
X117136000Y-83678857D01*
X117064571Y-83821714D01*
X116993142Y-83893142D01*
X116850285Y-83964571D01*
X116421714Y-83964571D01*
X116278857Y-83893142D01*
X116207428Y-83821714D01*
X93564571Y-82964571D02*
X93921714Y-83964571D01*
X94278857Y-82964571D01*
X94707428Y-82464571D02*
X95636000Y-82464571D01*
X95136000Y-83036000D01*
X95350285Y-83036000D01*
X95493142Y-83107428D01*
X95564571Y-83178857D01*
X95636000Y-83321714D01*
X95636000Y-83678857D01*
X95564571Y-83821714D01*
X95493142Y-83893142D01*
X95350285Y-83964571D01*
X94921714Y-83964571D01*
X94778857Y-83893142D01*
X94707428Y-83821714D01*
X72064571Y-82964571D02*
X72421714Y-83964571D01*
X72778857Y-82964571D01*
X73207428Y-82464571D02*
X74136000Y-82464571D01*
X73636000Y-83036000D01*
X73850285Y-83036000D01*
X73993142Y-83107428D01*
X74064571Y-83178857D01*
X74136000Y-83321714D01*
X74136000Y-83678857D01*
X74064571Y-83821714D01*
X73993142Y-83893142D01*
X73850285Y-83964571D01*
X73421714Y-83964571D01*
X73278857Y-83893142D01*
X73207428Y-83821714D01*
X136564571Y-63787571D02*
X136921714Y-64787571D01*
X137278857Y-63787571D01*
X137707428Y-63287571D02*
X138636000Y-63287571D01*
X138136000Y-63859000D01*
X138350285Y-63859000D01*
X138493142Y-63930428D01*
X138564571Y-64001857D01*
X138636000Y-64144714D01*
X138636000Y-64501857D01*
X138564571Y-64644714D01*
X138493142Y-64716142D01*
X138350285Y-64787571D01*
X137921714Y-64787571D01*
X137778857Y-64716142D01*
X137707428Y-64644714D01*
X115064571Y-63787571D02*
X115421714Y-64787571D01*
X115778857Y-63787571D01*
X116207428Y-63287571D02*
X117136000Y-63287571D01*
X116636000Y-63859000D01*
X116850285Y-63859000D01*
X116993142Y-63930428D01*
X117064571Y-64001857D01*
X117136000Y-64144714D01*
X117136000Y-64501857D01*
X117064571Y-64644714D01*
X116993142Y-64716142D01*
X116850285Y-64787571D01*
X116421714Y-64787571D01*
X116278857Y-64716142D01*
X116207428Y-64644714D01*
X93564571Y-63787571D02*
X93921714Y-64787571D01*
X94278857Y-63787571D01*
X94707428Y-63287571D02*
X95636000Y-63287571D01*
X95136000Y-63859000D01*
X95350285Y-63859000D01*
X95493142Y-63930428D01*
X95564571Y-64001857D01*
X95636000Y-64144714D01*
X95636000Y-64501857D01*
X95564571Y-64644714D01*
X95493142Y-64716142D01*
X95350285Y-64787571D01*
X94921714Y-64787571D01*
X94778857Y-64716142D01*
X94707428Y-64644714D01*
X72064571Y-63787571D02*
X72421714Y-64787571D01*
X72778857Y-63787571D01*
X73207428Y-63287571D02*
X74136000Y-63287571D01*
X73636000Y-63859000D01*
X73850285Y-63859000D01*
X73993142Y-63930428D01*
X74064571Y-64001857D01*
X74136000Y-64144714D01*
X74136000Y-64501857D01*
X74064571Y-64644714D01*
X73993142Y-64716142D01*
X73850285Y-64787571D01*
X73421714Y-64787571D01*
X73278857Y-64716142D01*
X73207428Y-64644714D01*
X136564571Y-44610571D02*
X136921714Y-45610571D01*
X137278857Y-44610571D01*
X137707428Y-44110571D02*
X138636000Y-44110571D01*
X138136000Y-44682000D01*
X138350285Y-44682000D01*
X138493142Y-44753428D01*
X138564571Y-44824857D01*
X138636000Y-44967714D01*
X138636000Y-45324857D01*
X138564571Y-45467714D01*
X138493142Y-45539142D01*
X138350285Y-45610571D01*
X137921714Y-45610571D01*
X137778857Y-45539142D01*
X137707428Y-45467714D01*
X115064571Y-44610571D02*
X115421714Y-45610571D01*
X115778857Y-44610571D01*
X116207428Y-44110571D02*
X117136000Y-44110571D01*
X116636000Y-44682000D01*
X116850285Y-44682000D01*
X116993142Y-44753428D01*
X117064571Y-44824857D01*
X117136000Y-44967714D01*
X117136000Y-45324857D01*
X117064571Y-45467714D01*
X116993142Y-45539142D01*
X116850285Y-45610571D01*
X116421714Y-45610571D01*
X116278857Y-45539142D01*
X116207428Y-45467714D01*
X93564571Y-44610571D02*
X93921714Y-45610571D01*
X94278857Y-44610571D01*
X94707428Y-44110571D02*
X95636000Y-44110571D01*
X95136000Y-44682000D01*
X95350285Y-44682000D01*
X95493142Y-44753428D01*
X95564571Y-44824857D01*
X95636000Y-44967714D01*
X95636000Y-45324857D01*
X95564571Y-45467714D01*
X95493142Y-45539142D01*
X95350285Y-45610571D01*
X94921714Y-45610571D01*
X94778857Y-45539142D01*
X94707428Y-45467714D01*
X72064571Y-44610571D02*
X72421714Y-45610571D01*
X72778857Y-44610571D01*
X73207428Y-44110571D02*
X74136000Y-44110571D01*
X73636000Y-44682000D01*
X73850285Y-44682000D01*
X73993142Y-44753428D01*
X74064571Y-44824857D01*
X74136000Y-44967714D01*
X74136000Y-45324857D01*
X74064571Y-45467714D01*
X73993142Y-45539142D01*
X73850285Y-45610571D01*
X73421714Y-45610571D01*
X73278857Y-45539142D01*
X73207428Y-45467714D01*
D11*
%TO.P,U1,2*%
%TO.N,+3.3VP*%
X135721000Y-130988000D03*
D12*
X135721000Y-124688000D03*
%TO.P,U1,3*%
%TO.N,+5VP*%
X133421000Y-124688000D03*
%TO.P,U1,1*%
%TO.N,GND2*%
X138021000Y-124688000D03*
%TD*%
D11*
%TO.P,U1,2*%
%TO.N,+3.3VP*%
X114221000Y-130988000D03*
D12*
X114221000Y-124688000D03*
%TO.P,U1,3*%
%TO.N,+5VP*%
X111921000Y-124688000D03*
%TO.P,U1,1*%
%TO.N,GND2*%
X116521000Y-124688000D03*
%TD*%
D11*
%TO.P,U1,2*%
%TO.N,+3.3VP*%
X92721000Y-130988000D03*
D12*
X92721000Y-124688000D03*
%TO.P,U1,3*%
%TO.N,+5VP*%
X90421000Y-124688000D03*
%TO.P,U1,1*%
%TO.N,GND2*%
X95021000Y-124688000D03*
%TD*%
D11*
%TO.P,U1,2*%
%TO.N,+3.3VP*%
X71221000Y-130988000D03*
D12*
X71221000Y-124688000D03*
%TO.P,U1,3*%
%TO.N,+5VP*%
X68921000Y-124688000D03*
%TO.P,U1,1*%
%TO.N,GND2*%
X73521000Y-124688000D03*
%TD*%
D11*
%TO.P,U1,2*%
%TO.N,+3.3VP*%
X135721000Y-111811000D03*
D12*
X135721000Y-105511000D03*
%TO.P,U1,3*%
%TO.N,+5VP*%
X133421000Y-105511000D03*
%TO.P,U1,1*%
%TO.N,GND2*%
X138021000Y-105511000D03*
%TD*%
D11*
%TO.P,U1,2*%
%TO.N,+3.3VP*%
X114221000Y-111811000D03*
D12*
X114221000Y-105511000D03*
%TO.P,U1,3*%
%TO.N,+5VP*%
X111921000Y-105511000D03*
%TO.P,U1,1*%
%TO.N,GND2*%
X116521000Y-105511000D03*
%TD*%
D11*
%TO.P,U1,2*%
%TO.N,+3.3VP*%
X92721000Y-111811000D03*
D12*
X92721000Y-105511000D03*
%TO.P,U1,3*%
%TO.N,+5VP*%
X90421000Y-105511000D03*
%TO.P,U1,1*%
%TO.N,GND2*%
X95021000Y-105511000D03*
%TD*%
D11*
%TO.P,U1,2*%
%TO.N,+3.3VP*%
X71221000Y-111811000D03*
D12*
X71221000Y-105511000D03*
%TO.P,U1,3*%
%TO.N,+5VP*%
X68921000Y-105511000D03*
%TO.P,U1,1*%
%TO.N,GND2*%
X73521000Y-105511000D03*
%TD*%
D11*
%TO.P,U1,2*%
%TO.N,+3.3VP*%
X135721000Y-92634000D03*
D12*
X135721000Y-86334000D03*
%TO.P,U1,3*%
%TO.N,+5VP*%
X133421000Y-86334000D03*
%TO.P,U1,1*%
%TO.N,GND2*%
X138021000Y-86334000D03*
%TD*%
D11*
%TO.P,U1,2*%
%TO.N,+3.3VP*%
X114221000Y-92634000D03*
D12*
X114221000Y-86334000D03*
%TO.P,U1,3*%
%TO.N,+5VP*%
X111921000Y-86334000D03*
%TO.P,U1,1*%
%TO.N,GND2*%
X116521000Y-86334000D03*
%TD*%
D11*
%TO.P,U1,2*%
%TO.N,+3.3VP*%
X92721000Y-92634000D03*
D12*
X92721000Y-86334000D03*
%TO.P,U1,3*%
%TO.N,+5VP*%
X90421000Y-86334000D03*
%TO.P,U1,1*%
%TO.N,GND2*%
X95021000Y-86334000D03*
%TD*%
D11*
%TO.P,U1,2*%
%TO.N,+3.3VP*%
X71221000Y-92634000D03*
D12*
X71221000Y-86334000D03*
%TO.P,U1,3*%
%TO.N,+5VP*%
X68921000Y-86334000D03*
%TO.P,U1,1*%
%TO.N,GND2*%
X73521000Y-86334000D03*
%TD*%
D11*
%TO.P,U1,2*%
%TO.N,+3.3VP*%
X135721000Y-73457000D03*
D12*
X135721000Y-67157000D03*
%TO.P,U1,3*%
%TO.N,+5VP*%
X133421000Y-67157000D03*
%TO.P,U1,1*%
%TO.N,GND2*%
X138021000Y-67157000D03*
%TD*%
D11*
%TO.P,U1,2*%
%TO.N,+3.3VP*%
X114221000Y-73457000D03*
D12*
X114221000Y-67157000D03*
%TO.P,U1,3*%
%TO.N,+5VP*%
X111921000Y-67157000D03*
%TO.P,U1,1*%
%TO.N,GND2*%
X116521000Y-67157000D03*
%TD*%
D11*
%TO.P,U1,2*%
%TO.N,+3.3VP*%
X92721000Y-73457000D03*
D12*
X92721000Y-67157000D03*
%TO.P,U1,3*%
%TO.N,+5VP*%
X90421000Y-67157000D03*
%TO.P,U1,1*%
%TO.N,GND2*%
X95021000Y-67157000D03*
%TD*%
D11*
%TO.P,U1,2*%
%TO.N,+3.3VP*%
X71221000Y-73457000D03*
D12*
X71221000Y-67157000D03*
%TO.P,U1,3*%
%TO.N,+5VP*%
X68921000Y-67157000D03*
%TO.P,U1,1*%
%TO.N,GND2*%
X73521000Y-67157000D03*
%TD*%
D11*
%TO.P,U1,2*%
%TO.N,+3.3VP*%
X135721000Y-54280000D03*
D12*
X135721000Y-47980000D03*
%TO.P,U1,3*%
%TO.N,+5VP*%
X133421000Y-47980000D03*
%TO.P,U1,1*%
%TO.N,GND2*%
X138021000Y-47980000D03*
%TD*%
D11*
%TO.P,U1,2*%
%TO.N,+3.3VP*%
X114221000Y-54280000D03*
D12*
X114221000Y-47980000D03*
%TO.P,U1,3*%
%TO.N,+5VP*%
X111921000Y-47980000D03*
%TO.P,U1,1*%
%TO.N,GND2*%
X116521000Y-47980000D03*
%TD*%
D11*
%TO.P,U1,2*%
%TO.N,+3.3VP*%
X92721000Y-54280000D03*
D12*
X92721000Y-47980000D03*
%TO.P,U1,3*%
%TO.N,+5VP*%
X90421000Y-47980000D03*
%TO.P,U1,1*%
%TO.N,GND2*%
X95021000Y-47980000D03*
%TD*%
D13*
%TO.P,J1,1*%
%TO.N,+5V*%
X119352000Y-137134000D03*
D14*
%TO.P,J1,2*%
%TO.N,GND1*%
X121892000Y-137134000D03*
%TO.P,J1,3*%
%TO.N,+5P*%
X124432000Y-137134000D03*
%TO.P,J1,4*%
%TO.N,/+5V_state*%
X126972000Y-137134000D03*
%TD*%
D13*
%TO.P,J1,1*%
%TO.N,+5V*%
X97852000Y-137134000D03*
D14*
%TO.P,J1,2*%
%TO.N,GND1*%
X100392000Y-137134000D03*
%TO.P,J1,3*%
%TO.N,+5P*%
X102932000Y-137134000D03*
%TO.P,J1,4*%
%TO.N,/+5V_state*%
X105472000Y-137134000D03*
%TD*%
D13*
%TO.P,J1,1*%
%TO.N,+5V*%
X76352000Y-137134000D03*
D14*
%TO.P,J1,2*%
%TO.N,GND1*%
X78892000Y-137134000D03*
%TO.P,J1,3*%
%TO.N,+5P*%
X81432000Y-137134000D03*
%TO.P,J1,4*%
%TO.N,/+5V_state*%
X83972000Y-137134000D03*
%TD*%
D13*
%TO.P,J1,1*%
%TO.N,+5V*%
X54852000Y-137134000D03*
D14*
%TO.P,J1,2*%
%TO.N,GND1*%
X57392000Y-137134000D03*
%TO.P,J1,3*%
%TO.N,+5P*%
X59932000Y-137134000D03*
%TO.P,J1,4*%
%TO.N,/+5V_state*%
X62472000Y-137134000D03*
%TD*%
D13*
%TO.P,J1,1*%
%TO.N,+5V*%
X119352000Y-117957000D03*
D14*
%TO.P,J1,2*%
%TO.N,GND1*%
X121892000Y-117957000D03*
%TO.P,J1,3*%
%TO.N,+5P*%
X124432000Y-117957000D03*
%TO.P,J1,4*%
%TO.N,/+5V_state*%
X126972000Y-117957000D03*
%TD*%
D13*
%TO.P,J1,1*%
%TO.N,+5V*%
X97852000Y-117957000D03*
D14*
%TO.P,J1,2*%
%TO.N,GND1*%
X100392000Y-117957000D03*
%TO.P,J1,3*%
%TO.N,+5P*%
X102932000Y-117957000D03*
%TO.P,J1,4*%
%TO.N,/+5V_state*%
X105472000Y-117957000D03*
%TD*%
D13*
%TO.P,J1,1*%
%TO.N,+5V*%
X76352000Y-117957000D03*
D14*
%TO.P,J1,2*%
%TO.N,GND1*%
X78892000Y-117957000D03*
%TO.P,J1,3*%
%TO.N,+5P*%
X81432000Y-117957000D03*
%TO.P,J1,4*%
%TO.N,/+5V_state*%
X83972000Y-117957000D03*
%TD*%
D13*
%TO.P,J1,1*%
%TO.N,+5V*%
X54852000Y-117957000D03*
D14*
%TO.P,J1,2*%
%TO.N,GND1*%
X57392000Y-117957000D03*
%TO.P,J1,3*%
%TO.N,+5P*%
X59932000Y-117957000D03*
%TO.P,J1,4*%
%TO.N,/+5V_state*%
X62472000Y-117957000D03*
%TD*%
D13*
%TO.P,J1,1*%
%TO.N,+5V*%
X119352000Y-98780000D03*
D14*
%TO.P,J1,2*%
%TO.N,GND1*%
X121892000Y-98780000D03*
%TO.P,J1,3*%
%TO.N,+5P*%
X124432000Y-98780000D03*
%TO.P,J1,4*%
%TO.N,/+5V_state*%
X126972000Y-98780000D03*
%TD*%
D13*
%TO.P,J1,1*%
%TO.N,+5V*%
X97852000Y-98780000D03*
D14*
%TO.P,J1,2*%
%TO.N,GND1*%
X100392000Y-98780000D03*
%TO.P,J1,3*%
%TO.N,+5P*%
X102932000Y-98780000D03*
%TO.P,J1,4*%
%TO.N,/+5V_state*%
X105472000Y-98780000D03*
%TD*%
D13*
%TO.P,J1,1*%
%TO.N,+5V*%
X76352000Y-98780000D03*
D14*
%TO.P,J1,2*%
%TO.N,GND1*%
X78892000Y-98780000D03*
%TO.P,J1,3*%
%TO.N,+5P*%
X81432000Y-98780000D03*
%TO.P,J1,4*%
%TO.N,/+5V_state*%
X83972000Y-98780000D03*
%TD*%
D13*
%TO.P,J1,1*%
%TO.N,+5V*%
X54852000Y-98780000D03*
D14*
%TO.P,J1,2*%
%TO.N,GND1*%
X57392000Y-98780000D03*
%TO.P,J1,3*%
%TO.N,+5P*%
X59932000Y-98780000D03*
%TO.P,J1,4*%
%TO.N,/+5V_state*%
X62472000Y-98780000D03*
%TD*%
D13*
%TO.P,J1,1*%
%TO.N,+5V*%
X119352000Y-79603000D03*
D14*
%TO.P,J1,2*%
%TO.N,GND1*%
X121892000Y-79603000D03*
%TO.P,J1,3*%
%TO.N,+5P*%
X124432000Y-79603000D03*
%TO.P,J1,4*%
%TO.N,/+5V_state*%
X126972000Y-79603000D03*
%TD*%
D13*
%TO.P,J1,1*%
%TO.N,+5V*%
X97852000Y-79603000D03*
D14*
%TO.P,J1,2*%
%TO.N,GND1*%
X100392000Y-79603000D03*
%TO.P,J1,3*%
%TO.N,+5P*%
X102932000Y-79603000D03*
%TO.P,J1,4*%
%TO.N,/+5V_state*%
X105472000Y-79603000D03*
%TD*%
D13*
%TO.P,J1,1*%
%TO.N,+5V*%
X76352000Y-79603000D03*
D14*
%TO.P,J1,2*%
%TO.N,GND1*%
X78892000Y-79603000D03*
%TO.P,J1,3*%
%TO.N,+5P*%
X81432000Y-79603000D03*
%TO.P,J1,4*%
%TO.N,/+5V_state*%
X83972000Y-79603000D03*
%TD*%
D13*
%TO.P,J1,1*%
%TO.N,+5V*%
X54852000Y-79603000D03*
D14*
%TO.P,J1,2*%
%TO.N,GND1*%
X57392000Y-79603000D03*
%TO.P,J1,3*%
%TO.N,+5P*%
X59932000Y-79603000D03*
%TO.P,J1,4*%
%TO.N,/+5V_state*%
X62472000Y-79603000D03*
%TD*%
D13*
%TO.P,J1,1*%
%TO.N,+5V*%
X119352000Y-60426000D03*
D14*
%TO.P,J1,2*%
%TO.N,GND1*%
X121892000Y-60426000D03*
%TO.P,J1,3*%
%TO.N,+5P*%
X124432000Y-60426000D03*
%TO.P,J1,4*%
%TO.N,/+5V_state*%
X126972000Y-60426000D03*
%TD*%
D13*
%TO.P,J1,1*%
%TO.N,+5V*%
X97852000Y-60426000D03*
D14*
%TO.P,J1,2*%
%TO.N,GND1*%
X100392000Y-60426000D03*
%TO.P,J1,3*%
%TO.N,+5P*%
X102932000Y-60426000D03*
%TO.P,J1,4*%
%TO.N,/+5V_state*%
X105472000Y-60426000D03*
%TD*%
D13*
%TO.P,J1,1*%
%TO.N,+5V*%
X76352000Y-60426000D03*
D14*
%TO.P,J1,2*%
%TO.N,GND1*%
X78892000Y-60426000D03*
%TO.P,J1,3*%
%TO.N,+5P*%
X81432000Y-60426000D03*
%TO.P,J1,4*%
%TO.N,/+5V_state*%
X83972000Y-60426000D03*
%TD*%
D13*
%TO.P,J2,1*%
%TO.N,+5VP*%
X132052000Y-137134000D03*
D14*
%TO.P,J2,2*%
%TO.N,GND2*%
X134592000Y-137134000D03*
%TO.P,J2,3*%
%TO.N,+3.3VP*%
X137132000Y-137134000D03*
%TD*%
D13*
%TO.P,J2,1*%
%TO.N,+5VP*%
X110552000Y-137134000D03*
D14*
%TO.P,J2,2*%
%TO.N,GND2*%
X113092000Y-137134000D03*
%TO.P,J2,3*%
%TO.N,+3.3VP*%
X115632000Y-137134000D03*
%TD*%
D13*
%TO.P,J2,1*%
%TO.N,+5VP*%
X89052000Y-137134000D03*
D14*
%TO.P,J2,2*%
%TO.N,GND2*%
X91592000Y-137134000D03*
%TO.P,J2,3*%
%TO.N,+3.3VP*%
X94132000Y-137134000D03*
%TD*%
D13*
%TO.P,J2,1*%
%TO.N,+5VP*%
X67552000Y-137134000D03*
D14*
%TO.P,J2,2*%
%TO.N,GND2*%
X70092000Y-137134000D03*
%TO.P,J2,3*%
%TO.N,+3.3VP*%
X72632000Y-137134000D03*
%TD*%
D13*
%TO.P,J2,1*%
%TO.N,+5VP*%
X132052000Y-117957000D03*
D14*
%TO.P,J2,2*%
%TO.N,GND2*%
X134592000Y-117957000D03*
%TO.P,J2,3*%
%TO.N,+3.3VP*%
X137132000Y-117957000D03*
%TD*%
D13*
%TO.P,J2,1*%
%TO.N,+5VP*%
X110552000Y-117957000D03*
D14*
%TO.P,J2,2*%
%TO.N,GND2*%
X113092000Y-117957000D03*
%TO.P,J2,3*%
%TO.N,+3.3VP*%
X115632000Y-117957000D03*
%TD*%
D13*
%TO.P,J2,1*%
%TO.N,+5VP*%
X89052000Y-117957000D03*
D14*
%TO.P,J2,2*%
%TO.N,GND2*%
X91592000Y-117957000D03*
%TO.P,J2,3*%
%TO.N,+3.3VP*%
X94132000Y-117957000D03*
%TD*%
D13*
%TO.P,J2,1*%
%TO.N,+5VP*%
X67552000Y-117957000D03*
D14*
%TO.P,J2,2*%
%TO.N,GND2*%
X70092000Y-117957000D03*
%TO.P,J2,3*%
%TO.N,+3.3VP*%
X72632000Y-117957000D03*
%TD*%
D13*
%TO.P,J2,1*%
%TO.N,+5VP*%
X132052000Y-98780000D03*
D14*
%TO.P,J2,2*%
%TO.N,GND2*%
X134592000Y-98780000D03*
%TO.P,J2,3*%
%TO.N,+3.3VP*%
X137132000Y-98780000D03*
%TD*%
D13*
%TO.P,J2,1*%
%TO.N,+5VP*%
X110552000Y-98780000D03*
D14*
%TO.P,J2,2*%
%TO.N,GND2*%
X113092000Y-98780000D03*
%TO.P,J2,3*%
%TO.N,+3.3VP*%
X115632000Y-98780000D03*
%TD*%
D13*
%TO.P,J2,1*%
%TO.N,+5VP*%
X89052000Y-98780000D03*
D14*
%TO.P,J2,2*%
%TO.N,GND2*%
X91592000Y-98780000D03*
%TO.P,J2,3*%
%TO.N,+3.3VP*%
X94132000Y-98780000D03*
%TD*%
D13*
%TO.P,J2,1*%
%TO.N,+5VP*%
X67552000Y-98780000D03*
D14*
%TO.P,J2,2*%
%TO.N,GND2*%
X70092000Y-98780000D03*
%TO.P,J2,3*%
%TO.N,+3.3VP*%
X72632000Y-98780000D03*
%TD*%
D13*
%TO.P,J2,1*%
%TO.N,+5VP*%
X132052000Y-79603000D03*
D14*
%TO.P,J2,2*%
%TO.N,GND2*%
X134592000Y-79603000D03*
%TO.P,J2,3*%
%TO.N,+3.3VP*%
X137132000Y-79603000D03*
%TD*%
D13*
%TO.P,J2,1*%
%TO.N,+5VP*%
X110552000Y-79603000D03*
D14*
%TO.P,J2,2*%
%TO.N,GND2*%
X113092000Y-79603000D03*
%TO.P,J2,3*%
%TO.N,+3.3VP*%
X115632000Y-79603000D03*
%TD*%
D13*
%TO.P,J2,1*%
%TO.N,+5VP*%
X89052000Y-79603000D03*
D14*
%TO.P,J2,2*%
%TO.N,GND2*%
X91592000Y-79603000D03*
%TO.P,J2,3*%
%TO.N,+3.3VP*%
X94132000Y-79603000D03*
%TD*%
D13*
%TO.P,J2,1*%
%TO.N,+5VP*%
X67552000Y-79603000D03*
D14*
%TO.P,J2,2*%
%TO.N,GND2*%
X70092000Y-79603000D03*
%TO.P,J2,3*%
%TO.N,+3.3VP*%
X72632000Y-79603000D03*
%TD*%
D13*
%TO.P,J2,1*%
%TO.N,+5VP*%
X132052000Y-60426000D03*
D14*
%TO.P,J2,2*%
%TO.N,GND2*%
X134592000Y-60426000D03*
%TO.P,J2,3*%
%TO.N,+3.3VP*%
X137132000Y-60426000D03*
%TD*%
D13*
%TO.P,J2,1*%
%TO.N,+5VP*%
X110552000Y-60426000D03*
D14*
%TO.P,J2,2*%
%TO.N,GND2*%
X113092000Y-60426000D03*
%TO.P,J2,3*%
%TO.N,+3.3VP*%
X115632000Y-60426000D03*
%TD*%
D13*
%TO.P,J2,1*%
%TO.N,+5VP*%
X89052000Y-60426000D03*
D14*
%TO.P,J2,2*%
%TO.N,GND2*%
X91592000Y-60426000D03*
%TO.P,J2,3*%
%TO.N,+3.3VP*%
X94132000Y-60426000D03*
%TD*%
%TO.P,C7,1*%
%TO.N,+5P*%
%TA.AperFunction,SMDPad,CuDef*%
G36*
G01*
X118441500Y-129777000D02*
X118441500Y-127727000D01*
G75*
G02*
X118691500Y-127477000I250000J0D01*
G01*
X120266500Y-127477000D01*
G75*
G02*
X120516500Y-127727000I0J-250000D01*
G01*
X120516500Y-129777000D01*
G75*
G02*
X120266500Y-130027000I-250000J0D01*
G01*
X118691500Y-130027000D01*
G75*
G02*
X118441500Y-129777000I0J250000D01*
G01*
G37*
%TD.AperFunction*%
%TO.P,C7,2*%
%TO.N,GND1*%
%TA.AperFunction,SMDPad,CuDef*%
G36*
G01*
X124666500Y-129777000D02*
X124666500Y-127727000D01*
G75*
G02*
X124916500Y-127477000I250000J0D01*
G01*
X126491500Y-127477000D01*
G75*
G02*
X126741500Y-127727000I0J-250000D01*
G01*
X126741500Y-129777000D01*
G75*
G02*
X126491500Y-130027000I-250000J0D01*
G01*
X124916500Y-130027000D01*
G75*
G02*
X124666500Y-129777000I0J250000D01*
G01*
G37*
%TD.AperFunction*%
%TD*%
%TO.P,C7,1*%
%TO.N,+5P*%
%TA.AperFunction,SMDPad,CuDef*%
G36*
G01*
X96941500Y-129777000D02*
X96941500Y-127727000D01*
G75*
G02*
X97191500Y-127477000I250000J0D01*
G01*
X98766500Y-127477000D01*
G75*
G02*
X99016500Y-127727000I0J-250000D01*
G01*
X99016500Y-129777000D01*
G75*
G02*
X98766500Y-130027000I-250000J0D01*
G01*
X97191500Y-130027000D01*
G75*
G02*
X96941500Y-129777000I0J250000D01*
G01*
G37*
%TD.AperFunction*%
%TO.P,C7,2*%
%TO.N,GND1*%
%TA.AperFunction,SMDPad,CuDef*%
G36*
G01*
X103166500Y-129777000D02*
X103166500Y-127727000D01*
G75*
G02*
X103416500Y-127477000I250000J0D01*
G01*
X104991500Y-127477000D01*
G75*
G02*
X105241500Y-127727000I0J-250000D01*
G01*
X105241500Y-129777000D01*
G75*
G02*
X104991500Y-130027000I-250000J0D01*
G01*
X103416500Y-130027000D01*
G75*
G02*
X103166500Y-129777000I0J250000D01*
G01*
G37*
%TD.AperFunction*%
%TD*%
%TO.P,C7,1*%
%TO.N,+5P*%
%TA.AperFunction,SMDPad,CuDef*%
G36*
G01*
X75441500Y-129777000D02*
X75441500Y-127727000D01*
G75*
G02*
X75691500Y-127477000I250000J0D01*
G01*
X77266500Y-127477000D01*
G75*
G02*
X77516500Y-127727000I0J-250000D01*
G01*
X77516500Y-129777000D01*
G75*
G02*
X77266500Y-130027000I-250000J0D01*
G01*
X75691500Y-130027000D01*
G75*
G02*
X75441500Y-129777000I0J250000D01*
G01*
G37*
%TD.AperFunction*%
%TO.P,C7,2*%
%TO.N,GND1*%
%TA.AperFunction,SMDPad,CuDef*%
G36*
G01*
X81666500Y-129777000D02*
X81666500Y-127727000D01*
G75*
G02*
X81916500Y-127477000I250000J0D01*
G01*
X83491500Y-127477000D01*
G75*
G02*
X83741500Y-127727000I0J-250000D01*
G01*
X83741500Y-129777000D01*
G75*
G02*
X83491500Y-130027000I-250000J0D01*
G01*
X81916500Y-130027000D01*
G75*
G02*
X81666500Y-129777000I0J250000D01*
G01*
G37*
%TD.AperFunction*%
%TD*%
%TO.P,C7,1*%
%TO.N,+5P*%
%TA.AperFunction,SMDPad,CuDef*%
G36*
G01*
X53941500Y-129777000D02*
X53941500Y-127727000D01*
G75*
G02*
X54191500Y-127477000I250000J0D01*
G01*
X55766500Y-127477000D01*
G75*
G02*
X56016500Y-127727000I0J-250000D01*
G01*
X56016500Y-129777000D01*
G75*
G02*
X55766500Y-130027000I-250000J0D01*
G01*
X54191500Y-130027000D01*
G75*
G02*
X53941500Y-129777000I0J250000D01*
G01*
G37*
%TD.AperFunction*%
%TO.P,C7,2*%
%TO.N,GND1*%
%TA.AperFunction,SMDPad,CuDef*%
G36*
G01*
X60166500Y-129777000D02*
X60166500Y-127727000D01*
G75*
G02*
X60416500Y-127477000I250000J0D01*
G01*
X61991500Y-127477000D01*
G75*
G02*
X62241500Y-127727000I0J-250000D01*
G01*
X62241500Y-129777000D01*
G75*
G02*
X61991500Y-130027000I-250000J0D01*
G01*
X60416500Y-130027000D01*
G75*
G02*
X60166500Y-129777000I0J250000D01*
G01*
G37*
%TD.AperFunction*%
%TD*%
%TO.P,C7,1*%
%TO.N,+5P*%
%TA.AperFunction,SMDPad,CuDef*%
G36*
G01*
X118441500Y-110600000D02*
X118441500Y-108550000D01*
G75*
G02*
X118691500Y-108300000I250000J0D01*
G01*
X120266500Y-108300000D01*
G75*
G02*
X120516500Y-108550000I0J-250000D01*
G01*
X120516500Y-110600000D01*
G75*
G02*
X120266500Y-110850000I-250000J0D01*
G01*
X118691500Y-110850000D01*
G75*
G02*
X118441500Y-110600000I0J250000D01*
G01*
G37*
%TD.AperFunction*%
%TO.P,C7,2*%
%TO.N,GND1*%
%TA.AperFunction,SMDPad,CuDef*%
G36*
G01*
X124666500Y-110600000D02*
X124666500Y-108550000D01*
G75*
G02*
X124916500Y-108300000I250000J0D01*
G01*
X126491500Y-108300000D01*
G75*
G02*
X126741500Y-108550000I0J-250000D01*
G01*
X126741500Y-110600000D01*
G75*
G02*
X126491500Y-110850000I-250000J0D01*
G01*
X124916500Y-110850000D01*
G75*
G02*
X124666500Y-110600000I0J250000D01*
G01*
G37*
%TD.AperFunction*%
%TD*%
%TO.P,C7,1*%
%TO.N,+5P*%
%TA.AperFunction,SMDPad,CuDef*%
G36*
G01*
X96941500Y-110600000D02*
X96941500Y-108550000D01*
G75*
G02*
X97191500Y-108300000I250000J0D01*
G01*
X98766500Y-108300000D01*
G75*
G02*
X99016500Y-108550000I0J-250000D01*
G01*
X99016500Y-110600000D01*
G75*
G02*
X98766500Y-110850000I-250000J0D01*
G01*
X97191500Y-110850000D01*
G75*
G02*
X96941500Y-110600000I0J250000D01*
G01*
G37*
%TD.AperFunction*%
%TO.P,C7,2*%
%TO.N,GND1*%
%TA.AperFunction,SMDPad,CuDef*%
G36*
G01*
X103166500Y-110600000D02*
X103166500Y-108550000D01*
G75*
G02*
X103416500Y-108300000I250000J0D01*
G01*
X104991500Y-108300000D01*
G75*
G02*
X105241500Y-108550000I0J-250000D01*
G01*
X105241500Y-110600000D01*
G75*
G02*
X104991500Y-110850000I-250000J0D01*
G01*
X103416500Y-110850000D01*
G75*
G02*
X103166500Y-110600000I0J250000D01*
G01*
G37*
%TD.AperFunction*%
%TD*%
%TO.P,C7,1*%
%TO.N,+5P*%
%TA.AperFunction,SMDPad,CuDef*%
G36*
G01*
X75441500Y-110600000D02*
X75441500Y-108550000D01*
G75*
G02*
X75691500Y-108300000I250000J0D01*
G01*
X77266500Y-108300000D01*
G75*
G02*
X77516500Y-108550000I0J-250000D01*
G01*
X77516500Y-110600000D01*
G75*
G02*
X77266500Y-110850000I-250000J0D01*
G01*
X75691500Y-110850000D01*
G75*
G02*
X75441500Y-110600000I0J250000D01*
G01*
G37*
%TD.AperFunction*%
%TO.P,C7,2*%
%TO.N,GND1*%
%TA.AperFunction,SMDPad,CuDef*%
G36*
G01*
X81666500Y-110600000D02*
X81666500Y-108550000D01*
G75*
G02*
X81916500Y-108300000I250000J0D01*
G01*
X83491500Y-108300000D01*
G75*
G02*
X83741500Y-108550000I0J-250000D01*
G01*
X83741500Y-110600000D01*
G75*
G02*
X83491500Y-110850000I-250000J0D01*
G01*
X81916500Y-110850000D01*
G75*
G02*
X81666500Y-110600000I0J250000D01*
G01*
G37*
%TD.AperFunction*%
%TD*%
%TO.P,C7,1*%
%TO.N,+5P*%
%TA.AperFunction,SMDPad,CuDef*%
G36*
G01*
X53941500Y-110600000D02*
X53941500Y-108550000D01*
G75*
G02*
X54191500Y-108300000I250000J0D01*
G01*
X55766500Y-108300000D01*
G75*
G02*
X56016500Y-108550000I0J-250000D01*
G01*
X56016500Y-110600000D01*
G75*
G02*
X55766500Y-110850000I-250000J0D01*
G01*
X54191500Y-110850000D01*
G75*
G02*
X53941500Y-110600000I0J250000D01*
G01*
G37*
%TD.AperFunction*%
%TO.P,C7,2*%
%TO.N,GND1*%
%TA.AperFunction,SMDPad,CuDef*%
G36*
G01*
X60166500Y-110600000D02*
X60166500Y-108550000D01*
G75*
G02*
X60416500Y-108300000I250000J0D01*
G01*
X61991500Y-108300000D01*
G75*
G02*
X62241500Y-108550000I0J-250000D01*
G01*
X62241500Y-110600000D01*
G75*
G02*
X61991500Y-110850000I-250000J0D01*
G01*
X60416500Y-110850000D01*
G75*
G02*
X60166500Y-110600000I0J250000D01*
G01*
G37*
%TD.AperFunction*%
%TD*%
%TO.P,C7,1*%
%TO.N,+5P*%
%TA.AperFunction,SMDPad,CuDef*%
G36*
G01*
X118441500Y-91423000D02*
X118441500Y-89373000D01*
G75*
G02*
X118691500Y-89123000I250000J0D01*
G01*
X120266500Y-89123000D01*
G75*
G02*
X120516500Y-89373000I0J-250000D01*
G01*
X120516500Y-91423000D01*
G75*
G02*
X120266500Y-91673000I-250000J0D01*
G01*
X118691500Y-91673000D01*
G75*
G02*
X118441500Y-91423000I0J250000D01*
G01*
G37*
%TD.AperFunction*%
%TO.P,C7,2*%
%TO.N,GND1*%
%TA.AperFunction,SMDPad,CuDef*%
G36*
G01*
X124666500Y-91423000D02*
X124666500Y-89373000D01*
G75*
G02*
X124916500Y-89123000I250000J0D01*
G01*
X126491500Y-89123000D01*
G75*
G02*
X126741500Y-89373000I0J-250000D01*
G01*
X126741500Y-91423000D01*
G75*
G02*
X126491500Y-91673000I-250000J0D01*
G01*
X124916500Y-91673000D01*
G75*
G02*
X124666500Y-91423000I0J250000D01*
G01*
G37*
%TD.AperFunction*%
%TD*%
%TO.P,C7,1*%
%TO.N,+5P*%
%TA.AperFunction,SMDPad,CuDef*%
G36*
G01*
X96941500Y-91423000D02*
X96941500Y-89373000D01*
G75*
G02*
X97191500Y-89123000I250000J0D01*
G01*
X98766500Y-89123000D01*
G75*
G02*
X99016500Y-89373000I0J-250000D01*
G01*
X99016500Y-91423000D01*
G75*
G02*
X98766500Y-91673000I-250000J0D01*
G01*
X97191500Y-91673000D01*
G75*
G02*
X96941500Y-91423000I0J250000D01*
G01*
G37*
%TD.AperFunction*%
%TO.P,C7,2*%
%TO.N,GND1*%
%TA.AperFunction,SMDPad,CuDef*%
G36*
G01*
X103166500Y-91423000D02*
X103166500Y-89373000D01*
G75*
G02*
X103416500Y-89123000I250000J0D01*
G01*
X104991500Y-89123000D01*
G75*
G02*
X105241500Y-89373000I0J-250000D01*
G01*
X105241500Y-91423000D01*
G75*
G02*
X104991500Y-91673000I-250000J0D01*
G01*
X103416500Y-91673000D01*
G75*
G02*
X103166500Y-91423000I0J250000D01*
G01*
G37*
%TD.AperFunction*%
%TD*%
%TO.P,C7,1*%
%TO.N,+5P*%
%TA.AperFunction,SMDPad,CuDef*%
G36*
G01*
X75441500Y-91423000D02*
X75441500Y-89373000D01*
G75*
G02*
X75691500Y-89123000I250000J0D01*
G01*
X77266500Y-89123000D01*
G75*
G02*
X77516500Y-89373000I0J-250000D01*
G01*
X77516500Y-91423000D01*
G75*
G02*
X77266500Y-91673000I-250000J0D01*
G01*
X75691500Y-91673000D01*
G75*
G02*
X75441500Y-91423000I0J250000D01*
G01*
G37*
%TD.AperFunction*%
%TO.P,C7,2*%
%TO.N,GND1*%
%TA.AperFunction,SMDPad,CuDef*%
G36*
G01*
X81666500Y-91423000D02*
X81666500Y-89373000D01*
G75*
G02*
X81916500Y-89123000I250000J0D01*
G01*
X83491500Y-89123000D01*
G75*
G02*
X83741500Y-89373000I0J-250000D01*
G01*
X83741500Y-91423000D01*
G75*
G02*
X83491500Y-91673000I-250000J0D01*
G01*
X81916500Y-91673000D01*
G75*
G02*
X81666500Y-91423000I0J250000D01*
G01*
G37*
%TD.AperFunction*%
%TD*%
%TO.P,C7,1*%
%TO.N,+5P*%
%TA.AperFunction,SMDPad,CuDef*%
G36*
G01*
X53941500Y-91423000D02*
X53941500Y-89373000D01*
G75*
G02*
X54191500Y-89123000I250000J0D01*
G01*
X55766500Y-89123000D01*
G75*
G02*
X56016500Y-89373000I0J-250000D01*
G01*
X56016500Y-91423000D01*
G75*
G02*
X55766500Y-91673000I-250000J0D01*
G01*
X54191500Y-91673000D01*
G75*
G02*
X53941500Y-91423000I0J250000D01*
G01*
G37*
%TD.AperFunction*%
%TO.P,C7,2*%
%TO.N,GND1*%
%TA.AperFunction,SMDPad,CuDef*%
G36*
G01*
X60166500Y-91423000D02*
X60166500Y-89373000D01*
G75*
G02*
X60416500Y-89123000I250000J0D01*
G01*
X61991500Y-89123000D01*
G75*
G02*
X62241500Y-89373000I0J-250000D01*
G01*
X62241500Y-91423000D01*
G75*
G02*
X61991500Y-91673000I-250000J0D01*
G01*
X60416500Y-91673000D01*
G75*
G02*
X60166500Y-91423000I0J250000D01*
G01*
G37*
%TD.AperFunction*%
%TD*%
%TO.P,C7,1*%
%TO.N,+5P*%
%TA.AperFunction,SMDPad,CuDef*%
G36*
G01*
X118441500Y-72246000D02*
X118441500Y-70196000D01*
G75*
G02*
X118691500Y-69946000I250000J0D01*
G01*
X120266500Y-69946000D01*
G75*
G02*
X120516500Y-70196000I0J-250000D01*
G01*
X120516500Y-72246000D01*
G75*
G02*
X120266500Y-72496000I-250000J0D01*
G01*
X118691500Y-72496000D01*
G75*
G02*
X118441500Y-72246000I0J250000D01*
G01*
G37*
%TD.AperFunction*%
%TO.P,C7,2*%
%TO.N,GND1*%
%TA.AperFunction,SMDPad,CuDef*%
G36*
G01*
X124666500Y-72246000D02*
X124666500Y-70196000D01*
G75*
G02*
X124916500Y-69946000I250000J0D01*
G01*
X126491500Y-69946000D01*
G75*
G02*
X126741500Y-70196000I0J-250000D01*
G01*
X126741500Y-72246000D01*
G75*
G02*
X126491500Y-72496000I-250000J0D01*
G01*
X124916500Y-72496000D01*
G75*
G02*
X124666500Y-72246000I0J250000D01*
G01*
G37*
%TD.AperFunction*%
%TD*%
%TO.P,C7,1*%
%TO.N,+5P*%
%TA.AperFunction,SMDPad,CuDef*%
G36*
G01*
X96941500Y-72246000D02*
X96941500Y-70196000D01*
G75*
G02*
X97191500Y-69946000I250000J0D01*
G01*
X98766500Y-69946000D01*
G75*
G02*
X99016500Y-70196000I0J-250000D01*
G01*
X99016500Y-72246000D01*
G75*
G02*
X98766500Y-72496000I-250000J0D01*
G01*
X97191500Y-72496000D01*
G75*
G02*
X96941500Y-72246000I0J250000D01*
G01*
G37*
%TD.AperFunction*%
%TO.P,C7,2*%
%TO.N,GND1*%
%TA.AperFunction,SMDPad,CuDef*%
G36*
G01*
X103166500Y-72246000D02*
X103166500Y-70196000D01*
G75*
G02*
X103416500Y-69946000I250000J0D01*
G01*
X104991500Y-69946000D01*
G75*
G02*
X105241500Y-70196000I0J-250000D01*
G01*
X105241500Y-72246000D01*
G75*
G02*
X104991500Y-72496000I-250000J0D01*
G01*
X103416500Y-72496000D01*
G75*
G02*
X103166500Y-72246000I0J250000D01*
G01*
G37*
%TD.AperFunction*%
%TD*%
%TO.P,C7,1*%
%TO.N,+5P*%
%TA.AperFunction,SMDPad,CuDef*%
G36*
G01*
X75441500Y-72246000D02*
X75441500Y-70196000D01*
G75*
G02*
X75691500Y-69946000I250000J0D01*
G01*
X77266500Y-69946000D01*
G75*
G02*
X77516500Y-70196000I0J-250000D01*
G01*
X77516500Y-72246000D01*
G75*
G02*
X77266500Y-72496000I-250000J0D01*
G01*
X75691500Y-72496000D01*
G75*
G02*
X75441500Y-72246000I0J250000D01*
G01*
G37*
%TD.AperFunction*%
%TO.P,C7,2*%
%TO.N,GND1*%
%TA.AperFunction,SMDPad,CuDef*%
G36*
G01*
X81666500Y-72246000D02*
X81666500Y-70196000D01*
G75*
G02*
X81916500Y-69946000I250000J0D01*
G01*
X83491500Y-69946000D01*
G75*
G02*
X83741500Y-70196000I0J-250000D01*
G01*
X83741500Y-72246000D01*
G75*
G02*
X83491500Y-72496000I-250000J0D01*
G01*
X81916500Y-72496000D01*
G75*
G02*
X81666500Y-72246000I0J250000D01*
G01*
G37*
%TD.AperFunction*%
%TD*%
%TO.P,C7,1*%
%TO.N,+5P*%
%TA.AperFunction,SMDPad,CuDef*%
G36*
G01*
X53941500Y-72246000D02*
X53941500Y-70196000D01*
G75*
G02*
X54191500Y-69946000I250000J0D01*
G01*
X55766500Y-69946000D01*
G75*
G02*
X56016500Y-70196000I0J-250000D01*
G01*
X56016500Y-72246000D01*
G75*
G02*
X55766500Y-72496000I-250000J0D01*
G01*
X54191500Y-72496000D01*
G75*
G02*
X53941500Y-72246000I0J250000D01*
G01*
G37*
%TD.AperFunction*%
%TO.P,C7,2*%
%TO.N,GND1*%
%TA.AperFunction,SMDPad,CuDef*%
G36*
G01*
X60166500Y-72246000D02*
X60166500Y-70196000D01*
G75*
G02*
X60416500Y-69946000I250000J0D01*
G01*
X61991500Y-69946000D01*
G75*
G02*
X62241500Y-70196000I0J-250000D01*
G01*
X62241500Y-72246000D01*
G75*
G02*
X61991500Y-72496000I-250000J0D01*
G01*
X60416500Y-72496000D01*
G75*
G02*
X60166500Y-72246000I0J250000D01*
G01*
G37*
%TD.AperFunction*%
%TD*%
%TO.P,C7,1*%
%TO.N,+5P*%
%TA.AperFunction,SMDPad,CuDef*%
G36*
G01*
X118441500Y-53069000D02*
X118441500Y-51019000D01*
G75*
G02*
X118691500Y-50769000I250000J0D01*
G01*
X120266500Y-50769000D01*
G75*
G02*
X120516500Y-51019000I0J-250000D01*
G01*
X120516500Y-53069000D01*
G75*
G02*
X120266500Y-53319000I-250000J0D01*
G01*
X118691500Y-53319000D01*
G75*
G02*
X118441500Y-53069000I0J250000D01*
G01*
G37*
%TD.AperFunction*%
%TO.P,C7,2*%
%TO.N,GND1*%
%TA.AperFunction,SMDPad,CuDef*%
G36*
G01*
X124666500Y-53069000D02*
X124666500Y-51019000D01*
G75*
G02*
X124916500Y-50769000I250000J0D01*
G01*
X126491500Y-50769000D01*
G75*
G02*
X126741500Y-51019000I0J-250000D01*
G01*
X126741500Y-53069000D01*
G75*
G02*
X126491500Y-53319000I-250000J0D01*
G01*
X124916500Y-53319000D01*
G75*
G02*
X124666500Y-53069000I0J250000D01*
G01*
G37*
%TD.AperFunction*%
%TD*%
%TO.P,C7,1*%
%TO.N,+5P*%
%TA.AperFunction,SMDPad,CuDef*%
G36*
G01*
X96941500Y-53069000D02*
X96941500Y-51019000D01*
G75*
G02*
X97191500Y-50769000I250000J0D01*
G01*
X98766500Y-50769000D01*
G75*
G02*
X99016500Y-51019000I0J-250000D01*
G01*
X99016500Y-53069000D01*
G75*
G02*
X98766500Y-53319000I-250000J0D01*
G01*
X97191500Y-53319000D01*
G75*
G02*
X96941500Y-53069000I0J250000D01*
G01*
G37*
%TD.AperFunction*%
%TO.P,C7,2*%
%TO.N,GND1*%
%TA.AperFunction,SMDPad,CuDef*%
G36*
G01*
X103166500Y-53069000D02*
X103166500Y-51019000D01*
G75*
G02*
X103416500Y-50769000I250000J0D01*
G01*
X104991500Y-50769000D01*
G75*
G02*
X105241500Y-51019000I0J-250000D01*
G01*
X105241500Y-53069000D01*
G75*
G02*
X104991500Y-53319000I-250000J0D01*
G01*
X103416500Y-53319000D01*
G75*
G02*
X103166500Y-53069000I0J250000D01*
G01*
G37*
%TD.AperFunction*%
%TD*%
%TO.P,C7,1*%
%TO.N,+5P*%
%TA.AperFunction,SMDPad,CuDef*%
G36*
G01*
X75441500Y-53069000D02*
X75441500Y-51019000D01*
G75*
G02*
X75691500Y-50769000I250000J0D01*
G01*
X77266500Y-50769000D01*
G75*
G02*
X77516500Y-51019000I0J-250000D01*
G01*
X77516500Y-53069000D01*
G75*
G02*
X77266500Y-53319000I-250000J0D01*
G01*
X75691500Y-53319000D01*
G75*
G02*
X75441500Y-53069000I0J250000D01*
G01*
G37*
%TD.AperFunction*%
%TO.P,C7,2*%
%TO.N,GND1*%
%TA.AperFunction,SMDPad,CuDef*%
G36*
G01*
X81666500Y-53069000D02*
X81666500Y-51019000D01*
G75*
G02*
X81916500Y-50769000I250000J0D01*
G01*
X83491500Y-50769000D01*
G75*
G02*
X83741500Y-51019000I0J-250000D01*
G01*
X83741500Y-53069000D01*
G75*
G02*
X83491500Y-53319000I-250000J0D01*
G01*
X81916500Y-53319000D01*
G75*
G02*
X81666500Y-53069000I0J250000D01*
G01*
G37*
%TD.AperFunction*%
%TD*%
%TO.P,C8,1*%
%TO.N,+5P*%
%TA.AperFunction,SMDPad,CuDef*%
G36*
G01*
X118439500Y-134730000D02*
X118439500Y-132680000D01*
G75*
G02*
X118689500Y-132430000I250000J0D01*
G01*
X120264500Y-132430000D01*
G75*
G02*
X120514500Y-132680000I0J-250000D01*
G01*
X120514500Y-134730000D01*
G75*
G02*
X120264500Y-134980000I-250000J0D01*
G01*
X118689500Y-134980000D01*
G75*
G02*
X118439500Y-134730000I0J250000D01*
G01*
G37*
%TD.AperFunction*%
%TO.P,C8,2*%
%TO.N,GND1*%
%TA.AperFunction,SMDPad,CuDef*%
G36*
G01*
X124664500Y-134730000D02*
X124664500Y-132680000D01*
G75*
G02*
X124914500Y-132430000I250000J0D01*
G01*
X126489500Y-132430000D01*
G75*
G02*
X126739500Y-132680000I0J-250000D01*
G01*
X126739500Y-134730000D01*
G75*
G02*
X126489500Y-134980000I-250000J0D01*
G01*
X124914500Y-134980000D01*
G75*
G02*
X124664500Y-134730000I0J250000D01*
G01*
G37*
%TD.AperFunction*%
%TD*%
%TO.P,C8,1*%
%TO.N,+5P*%
%TA.AperFunction,SMDPad,CuDef*%
G36*
G01*
X96939500Y-134730000D02*
X96939500Y-132680000D01*
G75*
G02*
X97189500Y-132430000I250000J0D01*
G01*
X98764500Y-132430000D01*
G75*
G02*
X99014500Y-132680000I0J-250000D01*
G01*
X99014500Y-134730000D01*
G75*
G02*
X98764500Y-134980000I-250000J0D01*
G01*
X97189500Y-134980000D01*
G75*
G02*
X96939500Y-134730000I0J250000D01*
G01*
G37*
%TD.AperFunction*%
%TO.P,C8,2*%
%TO.N,GND1*%
%TA.AperFunction,SMDPad,CuDef*%
G36*
G01*
X103164500Y-134730000D02*
X103164500Y-132680000D01*
G75*
G02*
X103414500Y-132430000I250000J0D01*
G01*
X104989500Y-132430000D01*
G75*
G02*
X105239500Y-132680000I0J-250000D01*
G01*
X105239500Y-134730000D01*
G75*
G02*
X104989500Y-134980000I-250000J0D01*
G01*
X103414500Y-134980000D01*
G75*
G02*
X103164500Y-134730000I0J250000D01*
G01*
G37*
%TD.AperFunction*%
%TD*%
%TO.P,C8,1*%
%TO.N,+5P*%
%TA.AperFunction,SMDPad,CuDef*%
G36*
G01*
X75439500Y-134730000D02*
X75439500Y-132680000D01*
G75*
G02*
X75689500Y-132430000I250000J0D01*
G01*
X77264500Y-132430000D01*
G75*
G02*
X77514500Y-132680000I0J-250000D01*
G01*
X77514500Y-134730000D01*
G75*
G02*
X77264500Y-134980000I-250000J0D01*
G01*
X75689500Y-134980000D01*
G75*
G02*
X75439500Y-134730000I0J250000D01*
G01*
G37*
%TD.AperFunction*%
%TO.P,C8,2*%
%TO.N,GND1*%
%TA.AperFunction,SMDPad,CuDef*%
G36*
G01*
X81664500Y-134730000D02*
X81664500Y-132680000D01*
G75*
G02*
X81914500Y-132430000I250000J0D01*
G01*
X83489500Y-132430000D01*
G75*
G02*
X83739500Y-132680000I0J-250000D01*
G01*
X83739500Y-134730000D01*
G75*
G02*
X83489500Y-134980000I-250000J0D01*
G01*
X81914500Y-134980000D01*
G75*
G02*
X81664500Y-134730000I0J250000D01*
G01*
G37*
%TD.AperFunction*%
%TD*%
%TO.P,C8,1*%
%TO.N,+5P*%
%TA.AperFunction,SMDPad,CuDef*%
G36*
G01*
X53939500Y-134730000D02*
X53939500Y-132680000D01*
G75*
G02*
X54189500Y-132430000I250000J0D01*
G01*
X55764500Y-132430000D01*
G75*
G02*
X56014500Y-132680000I0J-250000D01*
G01*
X56014500Y-134730000D01*
G75*
G02*
X55764500Y-134980000I-250000J0D01*
G01*
X54189500Y-134980000D01*
G75*
G02*
X53939500Y-134730000I0J250000D01*
G01*
G37*
%TD.AperFunction*%
%TO.P,C8,2*%
%TO.N,GND1*%
%TA.AperFunction,SMDPad,CuDef*%
G36*
G01*
X60164500Y-134730000D02*
X60164500Y-132680000D01*
G75*
G02*
X60414500Y-132430000I250000J0D01*
G01*
X61989500Y-132430000D01*
G75*
G02*
X62239500Y-132680000I0J-250000D01*
G01*
X62239500Y-134730000D01*
G75*
G02*
X61989500Y-134980000I-250000J0D01*
G01*
X60414500Y-134980000D01*
G75*
G02*
X60164500Y-134730000I0J250000D01*
G01*
G37*
%TD.AperFunction*%
%TD*%
%TO.P,C8,1*%
%TO.N,+5P*%
%TA.AperFunction,SMDPad,CuDef*%
G36*
G01*
X118439500Y-115553000D02*
X118439500Y-113503000D01*
G75*
G02*
X118689500Y-113253000I250000J0D01*
G01*
X120264500Y-113253000D01*
G75*
G02*
X120514500Y-113503000I0J-250000D01*
G01*
X120514500Y-115553000D01*
G75*
G02*
X120264500Y-115803000I-250000J0D01*
G01*
X118689500Y-115803000D01*
G75*
G02*
X118439500Y-115553000I0J250000D01*
G01*
G37*
%TD.AperFunction*%
%TO.P,C8,2*%
%TO.N,GND1*%
%TA.AperFunction,SMDPad,CuDef*%
G36*
G01*
X124664500Y-115553000D02*
X124664500Y-113503000D01*
G75*
G02*
X124914500Y-113253000I250000J0D01*
G01*
X126489500Y-113253000D01*
G75*
G02*
X126739500Y-113503000I0J-250000D01*
G01*
X126739500Y-115553000D01*
G75*
G02*
X126489500Y-115803000I-250000J0D01*
G01*
X124914500Y-115803000D01*
G75*
G02*
X124664500Y-115553000I0J250000D01*
G01*
G37*
%TD.AperFunction*%
%TD*%
%TO.P,C8,1*%
%TO.N,+5P*%
%TA.AperFunction,SMDPad,CuDef*%
G36*
G01*
X96939500Y-115553000D02*
X96939500Y-113503000D01*
G75*
G02*
X97189500Y-113253000I250000J0D01*
G01*
X98764500Y-113253000D01*
G75*
G02*
X99014500Y-113503000I0J-250000D01*
G01*
X99014500Y-115553000D01*
G75*
G02*
X98764500Y-115803000I-250000J0D01*
G01*
X97189500Y-115803000D01*
G75*
G02*
X96939500Y-115553000I0J250000D01*
G01*
G37*
%TD.AperFunction*%
%TO.P,C8,2*%
%TO.N,GND1*%
%TA.AperFunction,SMDPad,CuDef*%
G36*
G01*
X103164500Y-115553000D02*
X103164500Y-113503000D01*
G75*
G02*
X103414500Y-113253000I250000J0D01*
G01*
X104989500Y-113253000D01*
G75*
G02*
X105239500Y-113503000I0J-250000D01*
G01*
X105239500Y-115553000D01*
G75*
G02*
X104989500Y-115803000I-250000J0D01*
G01*
X103414500Y-115803000D01*
G75*
G02*
X103164500Y-115553000I0J250000D01*
G01*
G37*
%TD.AperFunction*%
%TD*%
%TO.P,C8,1*%
%TO.N,+5P*%
%TA.AperFunction,SMDPad,CuDef*%
G36*
G01*
X75439500Y-115553000D02*
X75439500Y-113503000D01*
G75*
G02*
X75689500Y-113253000I250000J0D01*
G01*
X77264500Y-113253000D01*
G75*
G02*
X77514500Y-113503000I0J-250000D01*
G01*
X77514500Y-115553000D01*
G75*
G02*
X77264500Y-115803000I-250000J0D01*
G01*
X75689500Y-115803000D01*
G75*
G02*
X75439500Y-115553000I0J250000D01*
G01*
G37*
%TD.AperFunction*%
%TO.P,C8,2*%
%TO.N,GND1*%
%TA.AperFunction,SMDPad,CuDef*%
G36*
G01*
X81664500Y-115553000D02*
X81664500Y-113503000D01*
G75*
G02*
X81914500Y-113253000I250000J0D01*
G01*
X83489500Y-113253000D01*
G75*
G02*
X83739500Y-113503000I0J-250000D01*
G01*
X83739500Y-115553000D01*
G75*
G02*
X83489500Y-115803000I-250000J0D01*
G01*
X81914500Y-115803000D01*
G75*
G02*
X81664500Y-115553000I0J250000D01*
G01*
G37*
%TD.AperFunction*%
%TD*%
%TO.P,C8,1*%
%TO.N,+5P*%
%TA.AperFunction,SMDPad,CuDef*%
G36*
G01*
X53939500Y-115553000D02*
X53939500Y-113503000D01*
G75*
G02*
X54189500Y-113253000I250000J0D01*
G01*
X55764500Y-113253000D01*
G75*
G02*
X56014500Y-113503000I0J-250000D01*
G01*
X56014500Y-115553000D01*
G75*
G02*
X55764500Y-115803000I-250000J0D01*
G01*
X54189500Y-115803000D01*
G75*
G02*
X53939500Y-115553000I0J250000D01*
G01*
G37*
%TD.AperFunction*%
%TO.P,C8,2*%
%TO.N,GND1*%
%TA.AperFunction,SMDPad,CuDef*%
G36*
G01*
X60164500Y-115553000D02*
X60164500Y-113503000D01*
G75*
G02*
X60414500Y-113253000I250000J0D01*
G01*
X61989500Y-113253000D01*
G75*
G02*
X62239500Y-113503000I0J-250000D01*
G01*
X62239500Y-115553000D01*
G75*
G02*
X61989500Y-115803000I-250000J0D01*
G01*
X60414500Y-115803000D01*
G75*
G02*
X60164500Y-115553000I0J250000D01*
G01*
G37*
%TD.AperFunction*%
%TD*%
%TO.P,C8,1*%
%TO.N,+5P*%
%TA.AperFunction,SMDPad,CuDef*%
G36*
G01*
X118439500Y-96376000D02*
X118439500Y-94326000D01*
G75*
G02*
X118689500Y-94076000I250000J0D01*
G01*
X120264500Y-94076000D01*
G75*
G02*
X120514500Y-94326000I0J-250000D01*
G01*
X120514500Y-96376000D01*
G75*
G02*
X120264500Y-96626000I-250000J0D01*
G01*
X118689500Y-96626000D01*
G75*
G02*
X118439500Y-96376000I0J250000D01*
G01*
G37*
%TD.AperFunction*%
%TO.P,C8,2*%
%TO.N,GND1*%
%TA.AperFunction,SMDPad,CuDef*%
G36*
G01*
X124664500Y-96376000D02*
X124664500Y-94326000D01*
G75*
G02*
X124914500Y-94076000I250000J0D01*
G01*
X126489500Y-94076000D01*
G75*
G02*
X126739500Y-94326000I0J-250000D01*
G01*
X126739500Y-96376000D01*
G75*
G02*
X126489500Y-96626000I-250000J0D01*
G01*
X124914500Y-96626000D01*
G75*
G02*
X124664500Y-96376000I0J250000D01*
G01*
G37*
%TD.AperFunction*%
%TD*%
%TO.P,C8,1*%
%TO.N,+5P*%
%TA.AperFunction,SMDPad,CuDef*%
G36*
G01*
X96939500Y-96376000D02*
X96939500Y-94326000D01*
G75*
G02*
X97189500Y-94076000I250000J0D01*
G01*
X98764500Y-94076000D01*
G75*
G02*
X99014500Y-94326000I0J-250000D01*
G01*
X99014500Y-96376000D01*
G75*
G02*
X98764500Y-96626000I-250000J0D01*
G01*
X97189500Y-96626000D01*
G75*
G02*
X96939500Y-96376000I0J250000D01*
G01*
G37*
%TD.AperFunction*%
%TO.P,C8,2*%
%TO.N,GND1*%
%TA.AperFunction,SMDPad,CuDef*%
G36*
G01*
X103164500Y-96376000D02*
X103164500Y-94326000D01*
G75*
G02*
X103414500Y-94076000I250000J0D01*
G01*
X104989500Y-94076000D01*
G75*
G02*
X105239500Y-94326000I0J-250000D01*
G01*
X105239500Y-96376000D01*
G75*
G02*
X104989500Y-96626000I-250000J0D01*
G01*
X103414500Y-96626000D01*
G75*
G02*
X103164500Y-96376000I0J250000D01*
G01*
G37*
%TD.AperFunction*%
%TD*%
%TO.P,C8,1*%
%TO.N,+5P*%
%TA.AperFunction,SMDPad,CuDef*%
G36*
G01*
X75439500Y-96376000D02*
X75439500Y-94326000D01*
G75*
G02*
X75689500Y-94076000I250000J0D01*
G01*
X77264500Y-94076000D01*
G75*
G02*
X77514500Y-94326000I0J-250000D01*
G01*
X77514500Y-96376000D01*
G75*
G02*
X77264500Y-96626000I-250000J0D01*
G01*
X75689500Y-96626000D01*
G75*
G02*
X75439500Y-96376000I0J250000D01*
G01*
G37*
%TD.AperFunction*%
%TO.P,C8,2*%
%TO.N,GND1*%
%TA.AperFunction,SMDPad,CuDef*%
G36*
G01*
X81664500Y-96376000D02*
X81664500Y-94326000D01*
G75*
G02*
X81914500Y-94076000I250000J0D01*
G01*
X83489500Y-94076000D01*
G75*
G02*
X83739500Y-94326000I0J-250000D01*
G01*
X83739500Y-96376000D01*
G75*
G02*
X83489500Y-96626000I-250000J0D01*
G01*
X81914500Y-96626000D01*
G75*
G02*
X81664500Y-96376000I0J250000D01*
G01*
G37*
%TD.AperFunction*%
%TD*%
%TO.P,C8,1*%
%TO.N,+5P*%
%TA.AperFunction,SMDPad,CuDef*%
G36*
G01*
X53939500Y-96376000D02*
X53939500Y-94326000D01*
G75*
G02*
X54189500Y-94076000I250000J0D01*
G01*
X55764500Y-94076000D01*
G75*
G02*
X56014500Y-94326000I0J-250000D01*
G01*
X56014500Y-96376000D01*
G75*
G02*
X55764500Y-96626000I-250000J0D01*
G01*
X54189500Y-96626000D01*
G75*
G02*
X53939500Y-96376000I0J250000D01*
G01*
G37*
%TD.AperFunction*%
%TO.P,C8,2*%
%TO.N,GND1*%
%TA.AperFunction,SMDPad,CuDef*%
G36*
G01*
X60164500Y-96376000D02*
X60164500Y-94326000D01*
G75*
G02*
X60414500Y-94076000I250000J0D01*
G01*
X61989500Y-94076000D01*
G75*
G02*
X62239500Y-94326000I0J-250000D01*
G01*
X62239500Y-96376000D01*
G75*
G02*
X61989500Y-96626000I-250000J0D01*
G01*
X60414500Y-96626000D01*
G75*
G02*
X60164500Y-96376000I0J250000D01*
G01*
G37*
%TD.AperFunction*%
%TD*%
%TO.P,C8,1*%
%TO.N,+5P*%
%TA.AperFunction,SMDPad,CuDef*%
G36*
G01*
X118439500Y-77199000D02*
X118439500Y-75149000D01*
G75*
G02*
X118689500Y-74899000I250000J0D01*
G01*
X120264500Y-74899000D01*
G75*
G02*
X120514500Y-75149000I0J-250000D01*
G01*
X120514500Y-77199000D01*
G75*
G02*
X120264500Y-77449000I-250000J0D01*
G01*
X118689500Y-77449000D01*
G75*
G02*
X118439500Y-77199000I0J250000D01*
G01*
G37*
%TD.AperFunction*%
%TO.P,C8,2*%
%TO.N,GND1*%
%TA.AperFunction,SMDPad,CuDef*%
G36*
G01*
X124664500Y-77199000D02*
X124664500Y-75149000D01*
G75*
G02*
X124914500Y-74899000I250000J0D01*
G01*
X126489500Y-74899000D01*
G75*
G02*
X126739500Y-75149000I0J-250000D01*
G01*
X126739500Y-77199000D01*
G75*
G02*
X126489500Y-77449000I-250000J0D01*
G01*
X124914500Y-77449000D01*
G75*
G02*
X124664500Y-77199000I0J250000D01*
G01*
G37*
%TD.AperFunction*%
%TD*%
%TO.P,C8,1*%
%TO.N,+5P*%
%TA.AperFunction,SMDPad,CuDef*%
G36*
G01*
X96939500Y-77199000D02*
X96939500Y-75149000D01*
G75*
G02*
X97189500Y-74899000I250000J0D01*
G01*
X98764500Y-74899000D01*
G75*
G02*
X99014500Y-75149000I0J-250000D01*
G01*
X99014500Y-77199000D01*
G75*
G02*
X98764500Y-77449000I-250000J0D01*
G01*
X97189500Y-77449000D01*
G75*
G02*
X96939500Y-77199000I0J250000D01*
G01*
G37*
%TD.AperFunction*%
%TO.P,C8,2*%
%TO.N,GND1*%
%TA.AperFunction,SMDPad,CuDef*%
G36*
G01*
X103164500Y-77199000D02*
X103164500Y-75149000D01*
G75*
G02*
X103414500Y-74899000I250000J0D01*
G01*
X104989500Y-74899000D01*
G75*
G02*
X105239500Y-75149000I0J-250000D01*
G01*
X105239500Y-77199000D01*
G75*
G02*
X104989500Y-77449000I-250000J0D01*
G01*
X103414500Y-77449000D01*
G75*
G02*
X103164500Y-77199000I0J250000D01*
G01*
G37*
%TD.AperFunction*%
%TD*%
%TO.P,C8,1*%
%TO.N,+5P*%
%TA.AperFunction,SMDPad,CuDef*%
G36*
G01*
X75439500Y-77199000D02*
X75439500Y-75149000D01*
G75*
G02*
X75689500Y-74899000I250000J0D01*
G01*
X77264500Y-74899000D01*
G75*
G02*
X77514500Y-75149000I0J-250000D01*
G01*
X77514500Y-77199000D01*
G75*
G02*
X77264500Y-77449000I-250000J0D01*
G01*
X75689500Y-77449000D01*
G75*
G02*
X75439500Y-77199000I0J250000D01*
G01*
G37*
%TD.AperFunction*%
%TO.P,C8,2*%
%TO.N,GND1*%
%TA.AperFunction,SMDPad,CuDef*%
G36*
G01*
X81664500Y-77199000D02*
X81664500Y-75149000D01*
G75*
G02*
X81914500Y-74899000I250000J0D01*
G01*
X83489500Y-74899000D01*
G75*
G02*
X83739500Y-75149000I0J-250000D01*
G01*
X83739500Y-77199000D01*
G75*
G02*
X83489500Y-77449000I-250000J0D01*
G01*
X81914500Y-77449000D01*
G75*
G02*
X81664500Y-77199000I0J250000D01*
G01*
G37*
%TD.AperFunction*%
%TD*%
%TO.P,C8,1*%
%TO.N,+5P*%
%TA.AperFunction,SMDPad,CuDef*%
G36*
G01*
X53939500Y-77199000D02*
X53939500Y-75149000D01*
G75*
G02*
X54189500Y-74899000I250000J0D01*
G01*
X55764500Y-74899000D01*
G75*
G02*
X56014500Y-75149000I0J-250000D01*
G01*
X56014500Y-77199000D01*
G75*
G02*
X55764500Y-77449000I-250000J0D01*
G01*
X54189500Y-77449000D01*
G75*
G02*
X53939500Y-77199000I0J250000D01*
G01*
G37*
%TD.AperFunction*%
%TO.P,C8,2*%
%TO.N,GND1*%
%TA.AperFunction,SMDPad,CuDef*%
G36*
G01*
X60164500Y-77199000D02*
X60164500Y-75149000D01*
G75*
G02*
X60414500Y-74899000I250000J0D01*
G01*
X61989500Y-74899000D01*
G75*
G02*
X62239500Y-75149000I0J-250000D01*
G01*
X62239500Y-77199000D01*
G75*
G02*
X61989500Y-77449000I-250000J0D01*
G01*
X60414500Y-77449000D01*
G75*
G02*
X60164500Y-77199000I0J250000D01*
G01*
G37*
%TD.AperFunction*%
%TD*%
%TO.P,C8,1*%
%TO.N,+5P*%
%TA.AperFunction,SMDPad,CuDef*%
G36*
G01*
X118439500Y-58022000D02*
X118439500Y-55972000D01*
G75*
G02*
X118689500Y-55722000I250000J0D01*
G01*
X120264500Y-55722000D01*
G75*
G02*
X120514500Y-55972000I0J-250000D01*
G01*
X120514500Y-58022000D01*
G75*
G02*
X120264500Y-58272000I-250000J0D01*
G01*
X118689500Y-58272000D01*
G75*
G02*
X118439500Y-58022000I0J250000D01*
G01*
G37*
%TD.AperFunction*%
%TO.P,C8,2*%
%TO.N,GND1*%
%TA.AperFunction,SMDPad,CuDef*%
G36*
G01*
X124664500Y-58022000D02*
X124664500Y-55972000D01*
G75*
G02*
X124914500Y-55722000I250000J0D01*
G01*
X126489500Y-55722000D01*
G75*
G02*
X126739500Y-55972000I0J-250000D01*
G01*
X126739500Y-58022000D01*
G75*
G02*
X126489500Y-58272000I-250000J0D01*
G01*
X124914500Y-58272000D01*
G75*
G02*
X124664500Y-58022000I0J250000D01*
G01*
G37*
%TD.AperFunction*%
%TD*%
%TO.P,C8,1*%
%TO.N,+5P*%
%TA.AperFunction,SMDPad,CuDef*%
G36*
G01*
X96939500Y-58022000D02*
X96939500Y-55972000D01*
G75*
G02*
X97189500Y-55722000I250000J0D01*
G01*
X98764500Y-55722000D01*
G75*
G02*
X99014500Y-55972000I0J-250000D01*
G01*
X99014500Y-58022000D01*
G75*
G02*
X98764500Y-58272000I-250000J0D01*
G01*
X97189500Y-58272000D01*
G75*
G02*
X96939500Y-58022000I0J250000D01*
G01*
G37*
%TD.AperFunction*%
%TO.P,C8,2*%
%TO.N,GND1*%
%TA.AperFunction,SMDPad,CuDef*%
G36*
G01*
X103164500Y-58022000D02*
X103164500Y-55972000D01*
G75*
G02*
X103414500Y-55722000I250000J0D01*
G01*
X104989500Y-55722000D01*
G75*
G02*
X105239500Y-55972000I0J-250000D01*
G01*
X105239500Y-58022000D01*
G75*
G02*
X104989500Y-58272000I-250000J0D01*
G01*
X103414500Y-58272000D01*
G75*
G02*
X103164500Y-58022000I0J250000D01*
G01*
G37*
%TD.AperFunction*%
%TD*%
%TO.P,C8,1*%
%TO.N,+5P*%
%TA.AperFunction,SMDPad,CuDef*%
G36*
G01*
X75439500Y-58022000D02*
X75439500Y-55972000D01*
G75*
G02*
X75689500Y-55722000I250000J0D01*
G01*
X77264500Y-55722000D01*
G75*
G02*
X77514500Y-55972000I0J-250000D01*
G01*
X77514500Y-58022000D01*
G75*
G02*
X77264500Y-58272000I-250000J0D01*
G01*
X75689500Y-58272000D01*
G75*
G02*
X75439500Y-58022000I0J250000D01*
G01*
G37*
%TD.AperFunction*%
%TO.P,C8,2*%
%TO.N,GND1*%
%TA.AperFunction,SMDPad,CuDef*%
G36*
G01*
X81664500Y-58022000D02*
X81664500Y-55972000D01*
G75*
G02*
X81914500Y-55722000I250000J0D01*
G01*
X83489500Y-55722000D01*
G75*
G02*
X83739500Y-55972000I0J-250000D01*
G01*
X83739500Y-58022000D01*
G75*
G02*
X83489500Y-58272000I-250000J0D01*
G01*
X81914500Y-58272000D01*
G75*
G02*
X81664500Y-58022000I0J250000D01*
G01*
G37*
%TD.AperFunction*%
%TD*%
%TO.P,C15,1*%
%TO.N,GND2*%
%TA.AperFunction,SMDPad,CuDef*%
G36*
G01*
X133735000Y-133320000D02*
X133735000Y-132820000D01*
G75*
G02*
X133960000Y-132595000I225000J0D01*
G01*
X134410000Y-132595000D01*
G75*
G02*
X134635000Y-132820000I0J-225000D01*
G01*
X134635000Y-133320000D01*
G75*
G02*
X134410000Y-133545000I-225000J0D01*
G01*
X133960000Y-133545000D01*
G75*
G02*
X133735000Y-133320000I0J225000D01*
G01*
G37*
%TD.AperFunction*%
%TO.P,C15,2*%
%TO.N,+3.3VP*%
%TA.AperFunction,SMDPad,CuDef*%
G36*
G01*
X135285000Y-133320000D02*
X135285000Y-132820000D01*
G75*
G02*
X135510000Y-132595000I225000J0D01*
G01*
X135960000Y-132595000D01*
G75*
G02*
X136185000Y-132820000I0J-225000D01*
G01*
X136185000Y-133320000D01*
G75*
G02*
X135960000Y-133545000I-225000J0D01*
G01*
X135510000Y-133545000D01*
G75*
G02*
X135285000Y-133320000I0J225000D01*
G01*
G37*
%TD.AperFunction*%
%TD*%
%TO.P,C15,1*%
%TO.N,GND2*%
%TA.AperFunction,SMDPad,CuDef*%
G36*
G01*
X112235000Y-133320000D02*
X112235000Y-132820000D01*
G75*
G02*
X112460000Y-132595000I225000J0D01*
G01*
X112910000Y-132595000D01*
G75*
G02*
X113135000Y-132820000I0J-225000D01*
G01*
X113135000Y-133320000D01*
G75*
G02*
X112910000Y-133545000I-225000J0D01*
G01*
X112460000Y-133545000D01*
G75*
G02*
X112235000Y-133320000I0J225000D01*
G01*
G37*
%TD.AperFunction*%
%TO.P,C15,2*%
%TO.N,+3.3VP*%
%TA.AperFunction,SMDPad,CuDef*%
G36*
G01*
X113785000Y-133320000D02*
X113785000Y-132820000D01*
G75*
G02*
X114010000Y-132595000I225000J0D01*
G01*
X114460000Y-132595000D01*
G75*
G02*
X114685000Y-132820000I0J-225000D01*
G01*
X114685000Y-133320000D01*
G75*
G02*
X114460000Y-133545000I-225000J0D01*
G01*
X114010000Y-133545000D01*
G75*
G02*
X113785000Y-133320000I0J225000D01*
G01*
G37*
%TD.AperFunction*%
%TD*%
%TO.P,C15,1*%
%TO.N,GND2*%
%TA.AperFunction,SMDPad,CuDef*%
G36*
G01*
X90735000Y-133320000D02*
X90735000Y-132820000D01*
G75*
G02*
X90960000Y-132595000I225000J0D01*
G01*
X91410000Y-132595000D01*
G75*
G02*
X91635000Y-132820000I0J-225000D01*
G01*
X91635000Y-133320000D01*
G75*
G02*
X91410000Y-133545000I-225000J0D01*
G01*
X90960000Y-133545000D01*
G75*
G02*
X90735000Y-133320000I0J225000D01*
G01*
G37*
%TD.AperFunction*%
%TO.P,C15,2*%
%TO.N,+3.3VP*%
%TA.AperFunction,SMDPad,CuDef*%
G36*
G01*
X92285000Y-133320000D02*
X92285000Y-132820000D01*
G75*
G02*
X92510000Y-132595000I225000J0D01*
G01*
X92960000Y-132595000D01*
G75*
G02*
X93185000Y-132820000I0J-225000D01*
G01*
X93185000Y-133320000D01*
G75*
G02*
X92960000Y-133545000I-225000J0D01*
G01*
X92510000Y-133545000D01*
G75*
G02*
X92285000Y-133320000I0J225000D01*
G01*
G37*
%TD.AperFunction*%
%TD*%
%TO.P,C15,1*%
%TO.N,GND2*%
%TA.AperFunction,SMDPad,CuDef*%
G36*
G01*
X69235000Y-133320000D02*
X69235000Y-132820000D01*
G75*
G02*
X69460000Y-132595000I225000J0D01*
G01*
X69910000Y-132595000D01*
G75*
G02*
X70135000Y-132820000I0J-225000D01*
G01*
X70135000Y-133320000D01*
G75*
G02*
X69910000Y-133545000I-225000J0D01*
G01*
X69460000Y-133545000D01*
G75*
G02*
X69235000Y-133320000I0J225000D01*
G01*
G37*
%TD.AperFunction*%
%TO.P,C15,2*%
%TO.N,+3.3VP*%
%TA.AperFunction,SMDPad,CuDef*%
G36*
G01*
X70785000Y-133320000D02*
X70785000Y-132820000D01*
G75*
G02*
X71010000Y-132595000I225000J0D01*
G01*
X71460000Y-132595000D01*
G75*
G02*
X71685000Y-132820000I0J-225000D01*
G01*
X71685000Y-133320000D01*
G75*
G02*
X71460000Y-133545000I-225000J0D01*
G01*
X71010000Y-133545000D01*
G75*
G02*
X70785000Y-133320000I0J225000D01*
G01*
G37*
%TD.AperFunction*%
%TD*%
%TO.P,C15,1*%
%TO.N,GND2*%
%TA.AperFunction,SMDPad,CuDef*%
G36*
G01*
X133735000Y-114143000D02*
X133735000Y-113643000D01*
G75*
G02*
X133960000Y-113418000I225000J0D01*
G01*
X134410000Y-113418000D01*
G75*
G02*
X134635000Y-113643000I0J-225000D01*
G01*
X134635000Y-114143000D01*
G75*
G02*
X134410000Y-114368000I-225000J0D01*
G01*
X133960000Y-114368000D01*
G75*
G02*
X133735000Y-114143000I0J225000D01*
G01*
G37*
%TD.AperFunction*%
%TO.P,C15,2*%
%TO.N,+3.3VP*%
%TA.AperFunction,SMDPad,CuDef*%
G36*
G01*
X135285000Y-114143000D02*
X135285000Y-113643000D01*
G75*
G02*
X135510000Y-113418000I225000J0D01*
G01*
X135960000Y-113418000D01*
G75*
G02*
X136185000Y-113643000I0J-225000D01*
G01*
X136185000Y-114143000D01*
G75*
G02*
X135960000Y-114368000I-225000J0D01*
G01*
X135510000Y-114368000D01*
G75*
G02*
X135285000Y-114143000I0J225000D01*
G01*
G37*
%TD.AperFunction*%
%TD*%
%TO.P,C15,1*%
%TO.N,GND2*%
%TA.AperFunction,SMDPad,CuDef*%
G36*
G01*
X112235000Y-114143000D02*
X112235000Y-113643000D01*
G75*
G02*
X112460000Y-113418000I225000J0D01*
G01*
X112910000Y-113418000D01*
G75*
G02*
X113135000Y-113643000I0J-225000D01*
G01*
X113135000Y-114143000D01*
G75*
G02*
X112910000Y-114368000I-225000J0D01*
G01*
X112460000Y-114368000D01*
G75*
G02*
X112235000Y-114143000I0J225000D01*
G01*
G37*
%TD.AperFunction*%
%TO.P,C15,2*%
%TO.N,+3.3VP*%
%TA.AperFunction,SMDPad,CuDef*%
G36*
G01*
X113785000Y-114143000D02*
X113785000Y-113643000D01*
G75*
G02*
X114010000Y-113418000I225000J0D01*
G01*
X114460000Y-113418000D01*
G75*
G02*
X114685000Y-113643000I0J-225000D01*
G01*
X114685000Y-114143000D01*
G75*
G02*
X114460000Y-114368000I-225000J0D01*
G01*
X114010000Y-114368000D01*
G75*
G02*
X113785000Y-114143000I0J225000D01*
G01*
G37*
%TD.AperFunction*%
%TD*%
%TO.P,C15,1*%
%TO.N,GND2*%
%TA.AperFunction,SMDPad,CuDef*%
G36*
G01*
X90735000Y-114143000D02*
X90735000Y-113643000D01*
G75*
G02*
X90960000Y-113418000I225000J0D01*
G01*
X91410000Y-113418000D01*
G75*
G02*
X91635000Y-113643000I0J-225000D01*
G01*
X91635000Y-114143000D01*
G75*
G02*
X91410000Y-114368000I-225000J0D01*
G01*
X90960000Y-114368000D01*
G75*
G02*
X90735000Y-114143000I0J225000D01*
G01*
G37*
%TD.AperFunction*%
%TO.P,C15,2*%
%TO.N,+3.3VP*%
%TA.AperFunction,SMDPad,CuDef*%
G36*
G01*
X92285000Y-114143000D02*
X92285000Y-113643000D01*
G75*
G02*
X92510000Y-113418000I225000J0D01*
G01*
X92960000Y-113418000D01*
G75*
G02*
X93185000Y-113643000I0J-225000D01*
G01*
X93185000Y-114143000D01*
G75*
G02*
X92960000Y-114368000I-225000J0D01*
G01*
X92510000Y-114368000D01*
G75*
G02*
X92285000Y-114143000I0J225000D01*
G01*
G37*
%TD.AperFunction*%
%TD*%
%TO.P,C15,1*%
%TO.N,GND2*%
%TA.AperFunction,SMDPad,CuDef*%
G36*
G01*
X69235000Y-114143000D02*
X69235000Y-113643000D01*
G75*
G02*
X69460000Y-113418000I225000J0D01*
G01*
X69910000Y-113418000D01*
G75*
G02*
X70135000Y-113643000I0J-225000D01*
G01*
X70135000Y-114143000D01*
G75*
G02*
X69910000Y-114368000I-225000J0D01*
G01*
X69460000Y-114368000D01*
G75*
G02*
X69235000Y-114143000I0J225000D01*
G01*
G37*
%TD.AperFunction*%
%TO.P,C15,2*%
%TO.N,+3.3VP*%
%TA.AperFunction,SMDPad,CuDef*%
G36*
G01*
X70785000Y-114143000D02*
X70785000Y-113643000D01*
G75*
G02*
X71010000Y-113418000I225000J0D01*
G01*
X71460000Y-113418000D01*
G75*
G02*
X71685000Y-113643000I0J-225000D01*
G01*
X71685000Y-114143000D01*
G75*
G02*
X71460000Y-114368000I-225000J0D01*
G01*
X71010000Y-114368000D01*
G75*
G02*
X70785000Y-114143000I0J225000D01*
G01*
G37*
%TD.AperFunction*%
%TD*%
%TO.P,C15,1*%
%TO.N,GND2*%
%TA.AperFunction,SMDPad,CuDef*%
G36*
G01*
X133735000Y-94966000D02*
X133735000Y-94466000D01*
G75*
G02*
X133960000Y-94241000I225000J0D01*
G01*
X134410000Y-94241000D01*
G75*
G02*
X134635000Y-94466000I0J-225000D01*
G01*
X134635000Y-94966000D01*
G75*
G02*
X134410000Y-95191000I-225000J0D01*
G01*
X133960000Y-95191000D01*
G75*
G02*
X133735000Y-94966000I0J225000D01*
G01*
G37*
%TD.AperFunction*%
%TO.P,C15,2*%
%TO.N,+3.3VP*%
%TA.AperFunction,SMDPad,CuDef*%
G36*
G01*
X135285000Y-94966000D02*
X135285000Y-94466000D01*
G75*
G02*
X135510000Y-94241000I225000J0D01*
G01*
X135960000Y-94241000D01*
G75*
G02*
X136185000Y-94466000I0J-225000D01*
G01*
X136185000Y-94966000D01*
G75*
G02*
X135960000Y-95191000I-225000J0D01*
G01*
X135510000Y-95191000D01*
G75*
G02*
X135285000Y-94966000I0J225000D01*
G01*
G37*
%TD.AperFunction*%
%TD*%
%TO.P,C15,1*%
%TO.N,GND2*%
%TA.AperFunction,SMDPad,CuDef*%
G36*
G01*
X112235000Y-94966000D02*
X112235000Y-94466000D01*
G75*
G02*
X112460000Y-94241000I225000J0D01*
G01*
X112910000Y-94241000D01*
G75*
G02*
X113135000Y-94466000I0J-225000D01*
G01*
X113135000Y-94966000D01*
G75*
G02*
X112910000Y-95191000I-225000J0D01*
G01*
X112460000Y-95191000D01*
G75*
G02*
X112235000Y-94966000I0J225000D01*
G01*
G37*
%TD.AperFunction*%
%TO.P,C15,2*%
%TO.N,+3.3VP*%
%TA.AperFunction,SMDPad,CuDef*%
G36*
G01*
X113785000Y-94966000D02*
X113785000Y-94466000D01*
G75*
G02*
X114010000Y-94241000I225000J0D01*
G01*
X114460000Y-94241000D01*
G75*
G02*
X114685000Y-94466000I0J-225000D01*
G01*
X114685000Y-94966000D01*
G75*
G02*
X114460000Y-95191000I-225000J0D01*
G01*
X114010000Y-95191000D01*
G75*
G02*
X113785000Y-94966000I0J225000D01*
G01*
G37*
%TD.AperFunction*%
%TD*%
%TO.P,C15,1*%
%TO.N,GND2*%
%TA.AperFunction,SMDPad,CuDef*%
G36*
G01*
X90735000Y-94966000D02*
X90735000Y-94466000D01*
G75*
G02*
X90960000Y-94241000I225000J0D01*
G01*
X91410000Y-94241000D01*
G75*
G02*
X91635000Y-94466000I0J-225000D01*
G01*
X91635000Y-94966000D01*
G75*
G02*
X91410000Y-95191000I-225000J0D01*
G01*
X90960000Y-95191000D01*
G75*
G02*
X90735000Y-94966000I0J225000D01*
G01*
G37*
%TD.AperFunction*%
%TO.P,C15,2*%
%TO.N,+3.3VP*%
%TA.AperFunction,SMDPad,CuDef*%
G36*
G01*
X92285000Y-94966000D02*
X92285000Y-94466000D01*
G75*
G02*
X92510000Y-94241000I225000J0D01*
G01*
X92960000Y-94241000D01*
G75*
G02*
X93185000Y-94466000I0J-225000D01*
G01*
X93185000Y-94966000D01*
G75*
G02*
X92960000Y-95191000I-225000J0D01*
G01*
X92510000Y-95191000D01*
G75*
G02*
X92285000Y-94966000I0J225000D01*
G01*
G37*
%TD.AperFunction*%
%TD*%
%TO.P,C15,1*%
%TO.N,GND2*%
%TA.AperFunction,SMDPad,CuDef*%
G36*
G01*
X69235000Y-94966000D02*
X69235000Y-94466000D01*
G75*
G02*
X69460000Y-94241000I225000J0D01*
G01*
X69910000Y-94241000D01*
G75*
G02*
X70135000Y-94466000I0J-225000D01*
G01*
X70135000Y-94966000D01*
G75*
G02*
X69910000Y-95191000I-225000J0D01*
G01*
X69460000Y-95191000D01*
G75*
G02*
X69235000Y-94966000I0J225000D01*
G01*
G37*
%TD.AperFunction*%
%TO.P,C15,2*%
%TO.N,+3.3VP*%
%TA.AperFunction,SMDPad,CuDef*%
G36*
G01*
X70785000Y-94966000D02*
X70785000Y-94466000D01*
G75*
G02*
X71010000Y-94241000I225000J0D01*
G01*
X71460000Y-94241000D01*
G75*
G02*
X71685000Y-94466000I0J-225000D01*
G01*
X71685000Y-94966000D01*
G75*
G02*
X71460000Y-95191000I-225000J0D01*
G01*
X71010000Y-95191000D01*
G75*
G02*
X70785000Y-94966000I0J225000D01*
G01*
G37*
%TD.AperFunction*%
%TD*%
%TO.P,C15,1*%
%TO.N,GND2*%
%TA.AperFunction,SMDPad,CuDef*%
G36*
G01*
X133735000Y-75789000D02*
X133735000Y-75289000D01*
G75*
G02*
X133960000Y-75064000I225000J0D01*
G01*
X134410000Y-75064000D01*
G75*
G02*
X134635000Y-75289000I0J-225000D01*
G01*
X134635000Y-75789000D01*
G75*
G02*
X134410000Y-76014000I-225000J0D01*
G01*
X133960000Y-76014000D01*
G75*
G02*
X133735000Y-75789000I0J225000D01*
G01*
G37*
%TD.AperFunction*%
%TO.P,C15,2*%
%TO.N,+3.3VP*%
%TA.AperFunction,SMDPad,CuDef*%
G36*
G01*
X135285000Y-75789000D02*
X135285000Y-75289000D01*
G75*
G02*
X135510000Y-75064000I225000J0D01*
G01*
X135960000Y-75064000D01*
G75*
G02*
X136185000Y-75289000I0J-225000D01*
G01*
X136185000Y-75789000D01*
G75*
G02*
X135960000Y-76014000I-225000J0D01*
G01*
X135510000Y-76014000D01*
G75*
G02*
X135285000Y-75789000I0J225000D01*
G01*
G37*
%TD.AperFunction*%
%TD*%
%TO.P,C15,1*%
%TO.N,GND2*%
%TA.AperFunction,SMDPad,CuDef*%
G36*
G01*
X112235000Y-75789000D02*
X112235000Y-75289000D01*
G75*
G02*
X112460000Y-75064000I225000J0D01*
G01*
X112910000Y-75064000D01*
G75*
G02*
X113135000Y-75289000I0J-225000D01*
G01*
X113135000Y-75789000D01*
G75*
G02*
X112910000Y-76014000I-225000J0D01*
G01*
X112460000Y-76014000D01*
G75*
G02*
X112235000Y-75789000I0J225000D01*
G01*
G37*
%TD.AperFunction*%
%TO.P,C15,2*%
%TO.N,+3.3VP*%
%TA.AperFunction,SMDPad,CuDef*%
G36*
G01*
X113785000Y-75789000D02*
X113785000Y-75289000D01*
G75*
G02*
X114010000Y-75064000I225000J0D01*
G01*
X114460000Y-75064000D01*
G75*
G02*
X114685000Y-75289000I0J-225000D01*
G01*
X114685000Y-75789000D01*
G75*
G02*
X114460000Y-76014000I-225000J0D01*
G01*
X114010000Y-76014000D01*
G75*
G02*
X113785000Y-75789000I0J225000D01*
G01*
G37*
%TD.AperFunction*%
%TD*%
%TO.P,C15,1*%
%TO.N,GND2*%
%TA.AperFunction,SMDPad,CuDef*%
G36*
G01*
X90735000Y-75789000D02*
X90735000Y-75289000D01*
G75*
G02*
X90960000Y-75064000I225000J0D01*
G01*
X91410000Y-75064000D01*
G75*
G02*
X91635000Y-75289000I0J-225000D01*
G01*
X91635000Y-75789000D01*
G75*
G02*
X91410000Y-76014000I-225000J0D01*
G01*
X90960000Y-76014000D01*
G75*
G02*
X90735000Y-75789000I0J225000D01*
G01*
G37*
%TD.AperFunction*%
%TO.P,C15,2*%
%TO.N,+3.3VP*%
%TA.AperFunction,SMDPad,CuDef*%
G36*
G01*
X92285000Y-75789000D02*
X92285000Y-75289000D01*
G75*
G02*
X92510000Y-75064000I225000J0D01*
G01*
X92960000Y-75064000D01*
G75*
G02*
X93185000Y-75289000I0J-225000D01*
G01*
X93185000Y-75789000D01*
G75*
G02*
X92960000Y-76014000I-225000J0D01*
G01*
X92510000Y-76014000D01*
G75*
G02*
X92285000Y-75789000I0J225000D01*
G01*
G37*
%TD.AperFunction*%
%TD*%
%TO.P,C15,1*%
%TO.N,GND2*%
%TA.AperFunction,SMDPad,CuDef*%
G36*
G01*
X69235000Y-75789000D02*
X69235000Y-75289000D01*
G75*
G02*
X69460000Y-75064000I225000J0D01*
G01*
X69910000Y-75064000D01*
G75*
G02*
X70135000Y-75289000I0J-225000D01*
G01*
X70135000Y-75789000D01*
G75*
G02*
X69910000Y-76014000I-225000J0D01*
G01*
X69460000Y-76014000D01*
G75*
G02*
X69235000Y-75789000I0J225000D01*
G01*
G37*
%TD.AperFunction*%
%TO.P,C15,2*%
%TO.N,+3.3VP*%
%TA.AperFunction,SMDPad,CuDef*%
G36*
G01*
X70785000Y-75789000D02*
X70785000Y-75289000D01*
G75*
G02*
X71010000Y-75064000I225000J0D01*
G01*
X71460000Y-75064000D01*
G75*
G02*
X71685000Y-75289000I0J-225000D01*
G01*
X71685000Y-75789000D01*
G75*
G02*
X71460000Y-76014000I-225000J0D01*
G01*
X71010000Y-76014000D01*
G75*
G02*
X70785000Y-75789000I0J225000D01*
G01*
G37*
%TD.AperFunction*%
%TD*%
%TO.P,C15,1*%
%TO.N,GND2*%
%TA.AperFunction,SMDPad,CuDef*%
G36*
G01*
X133735000Y-56612000D02*
X133735000Y-56112000D01*
G75*
G02*
X133960000Y-55887000I225000J0D01*
G01*
X134410000Y-55887000D01*
G75*
G02*
X134635000Y-56112000I0J-225000D01*
G01*
X134635000Y-56612000D01*
G75*
G02*
X134410000Y-56837000I-225000J0D01*
G01*
X133960000Y-56837000D01*
G75*
G02*
X133735000Y-56612000I0J225000D01*
G01*
G37*
%TD.AperFunction*%
%TO.P,C15,2*%
%TO.N,+3.3VP*%
%TA.AperFunction,SMDPad,CuDef*%
G36*
G01*
X135285000Y-56612000D02*
X135285000Y-56112000D01*
G75*
G02*
X135510000Y-55887000I225000J0D01*
G01*
X135960000Y-55887000D01*
G75*
G02*
X136185000Y-56112000I0J-225000D01*
G01*
X136185000Y-56612000D01*
G75*
G02*
X135960000Y-56837000I-225000J0D01*
G01*
X135510000Y-56837000D01*
G75*
G02*
X135285000Y-56612000I0J225000D01*
G01*
G37*
%TD.AperFunction*%
%TD*%
%TO.P,C15,1*%
%TO.N,GND2*%
%TA.AperFunction,SMDPad,CuDef*%
G36*
G01*
X112235000Y-56612000D02*
X112235000Y-56112000D01*
G75*
G02*
X112460000Y-55887000I225000J0D01*
G01*
X112910000Y-55887000D01*
G75*
G02*
X113135000Y-56112000I0J-225000D01*
G01*
X113135000Y-56612000D01*
G75*
G02*
X112910000Y-56837000I-225000J0D01*
G01*
X112460000Y-56837000D01*
G75*
G02*
X112235000Y-56612000I0J225000D01*
G01*
G37*
%TD.AperFunction*%
%TO.P,C15,2*%
%TO.N,+3.3VP*%
%TA.AperFunction,SMDPad,CuDef*%
G36*
G01*
X113785000Y-56612000D02*
X113785000Y-56112000D01*
G75*
G02*
X114010000Y-55887000I225000J0D01*
G01*
X114460000Y-55887000D01*
G75*
G02*
X114685000Y-56112000I0J-225000D01*
G01*
X114685000Y-56612000D01*
G75*
G02*
X114460000Y-56837000I-225000J0D01*
G01*
X114010000Y-56837000D01*
G75*
G02*
X113785000Y-56612000I0J225000D01*
G01*
G37*
%TD.AperFunction*%
%TD*%
%TO.P,C15,1*%
%TO.N,GND2*%
%TA.AperFunction,SMDPad,CuDef*%
G36*
G01*
X90735000Y-56612000D02*
X90735000Y-56112000D01*
G75*
G02*
X90960000Y-55887000I225000J0D01*
G01*
X91410000Y-55887000D01*
G75*
G02*
X91635000Y-56112000I0J-225000D01*
G01*
X91635000Y-56612000D01*
G75*
G02*
X91410000Y-56837000I-225000J0D01*
G01*
X90960000Y-56837000D01*
G75*
G02*
X90735000Y-56612000I0J225000D01*
G01*
G37*
%TD.AperFunction*%
%TO.P,C15,2*%
%TO.N,+3.3VP*%
%TA.AperFunction,SMDPad,CuDef*%
G36*
G01*
X92285000Y-56612000D02*
X92285000Y-56112000D01*
G75*
G02*
X92510000Y-55887000I225000J0D01*
G01*
X92960000Y-55887000D01*
G75*
G02*
X93185000Y-56112000I0J-225000D01*
G01*
X93185000Y-56612000D01*
G75*
G02*
X92960000Y-56837000I-225000J0D01*
G01*
X92510000Y-56837000D01*
G75*
G02*
X92285000Y-56612000I0J225000D01*
G01*
G37*
%TD.AperFunction*%
%TD*%
%TO.P,C16,1*%
%TO.N,GND2*%
%TA.AperFunction,SMDPad,CuDef*%
G36*
G01*
X133761000Y-134971000D02*
X133761000Y-134471000D01*
G75*
G02*
X133986000Y-134246000I225000J0D01*
G01*
X134436000Y-134246000D01*
G75*
G02*
X134661000Y-134471000I0J-225000D01*
G01*
X134661000Y-134971000D01*
G75*
G02*
X134436000Y-135196000I-225000J0D01*
G01*
X133986000Y-135196000D01*
G75*
G02*
X133761000Y-134971000I0J225000D01*
G01*
G37*
%TD.AperFunction*%
%TO.P,C16,2*%
%TO.N,+3.3VP*%
%TA.AperFunction,SMDPad,CuDef*%
G36*
G01*
X135311000Y-134971000D02*
X135311000Y-134471000D01*
G75*
G02*
X135536000Y-134246000I225000J0D01*
G01*
X135986000Y-134246000D01*
G75*
G02*
X136211000Y-134471000I0J-225000D01*
G01*
X136211000Y-134971000D01*
G75*
G02*
X135986000Y-135196000I-225000J0D01*
G01*
X135536000Y-135196000D01*
G75*
G02*
X135311000Y-134971000I0J225000D01*
G01*
G37*
%TD.AperFunction*%
%TD*%
%TO.P,C16,1*%
%TO.N,GND2*%
%TA.AperFunction,SMDPad,CuDef*%
G36*
G01*
X112261000Y-134971000D02*
X112261000Y-134471000D01*
G75*
G02*
X112486000Y-134246000I225000J0D01*
G01*
X112936000Y-134246000D01*
G75*
G02*
X113161000Y-134471000I0J-225000D01*
G01*
X113161000Y-134971000D01*
G75*
G02*
X112936000Y-135196000I-225000J0D01*
G01*
X112486000Y-135196000D01*
G75*
G02*
X112261000Y-134971000I0J225000D01*
G01*
G37*
%TD.AperFunction*%
%TO.P,C16,2*%
%TO.N,+3.3VP*%
%TA.AperFunction,SMDPad,CuDef*%
G36*
G01*
X113811000Y-134971000D02*
X113811000Y-134471000D01*
G75*
G02*
X114036000Y-134246000I225000J0D01*
G01*
X114486000Y-134246000D01*
G75*
G02*
X114711000Y-134471000I0J-225000D01*
G01*
X114711000Y-134971000D01*
G75*
G02*
X114486000Y-135196000I-225000J0D01*
G01*
X114036000Y-135196000D01*
G75*
G02*
X113811000Y-134971000I0J225000D01*
G01*
G37*
%TD.AperFunction*%
%TD*%
%TO.P,C16,1*%
%TO.N,GND2*%
%TA.AperFunction,SMDPad,CuDef*%
G36*
G01*
X90761000Y-134971000D02*
X90761000Y-134471000D01*
G75*
G02*
X90986000Y-134246000I225000J0D01*
G01*
X91436000Y-134246000D01*
G75*
G02*
X91661000Y-134471000I0J-225000D01*
G01*
X91661000Y-134971000D01*
G75*
G02*
X91436000Y-135196000I-225000J0D01*
G01*
X90986000Y-135196000D01*
G75*
G02*
X90761000Y-134971000I0J225000D01*
G01*
G37*
%TD.AperFunction*%
%TO.P,C16,2*%
%TO.N,+3.3VP*%
%TA.AperFunction,SMDPad,CuDef*%
G36*
G01*
X92311000Y-134971000D02*
X92311000Y-134471000D01*
G75*
G02*
X92536000Y-134246000I225000J0D01*
G01*
X92986000Y-134246000D01*
G75*
G02*
X93211000Y-134471000I0J-225000D01*
G01*
X93211000Y-134971000D01*
G75*
G02*
X92986000Y-135196000I-225000J0D01*
G01*
X92536000Y-135196000D01*
G75*
G02*
X92311000Y-134971000I0J225000D01*
G01*
G37*
%TD.AperFunction*%
%TD*%
%TO.P,C16,1*%
%TO.N,GND2*%
%TA.AperFunction,SMDPad,CuDef*%
G36*
G01*
X69261000Y-134971000D02*
X69261000Y-134471000D01*
G75*
G02*
X69486000Y-134246000I225000J0D01*
G01*
X69936000Y-134246000D01*
G75*
G02*
X70161000Y-134471000I0J-225000D01*
G01*
X70161000Y-134971000D01*
G75*
G02*
X69936000Y-135196000I-225000J0D01*
G01*
X69486000Y-135196000D01*
G75*
G02*
X69261000Y-134971000I0J225000D01*
G01*
G37*
%TD.AperFunction*%
%TO.P,C16,2*%
%TO.N,+3.3VP*%
%TA.AperFunction,SMDPad,CuDef*%
G36*
G01*
X70811000Y-134971000D02*
X70811000Y-134471000D01*
G75*
G02*
X71036000Y-134246000I225000J0D01*
G01*
X71486000Y-134246000D01*
G75*
G02*
X71711000Y-134471000I0J-225000D01*
G01*
X71711000Y-134971000D01*
G75*
G02*
X71486000Y-135196000I-225000J0D01*
G01*
X71036000Y-135196000D01*
G75*
G02*
X70811000Y-134971000I0J225000D01*
G01*
G37*
%TD.AperFunction*%
%TD*%
%TO.P,C16,1*%
%TO.N,GND2*%
%TA.AperFunction,SMDPad,CuDef*%
G36*
G01*
X133761000Y-115794000D02*
X133761000Y-115294000D01*
G75*
G02*
X133986000Y-115069000I225000J0D01*
G01*
X134436000Y-115069000D01*
G75*
G02*
X134661000Y-115294000I0J-225000D01*
G01*
X134661000Y-115794000D01*
G75*
G02*
X134436000Y-116019000I-225000J0D01*
G01*
X133986000Y-116019000D01*
G75*
G02*
X133761000Y-115794000I0J225000D01*
G01*
G37*
%TD.AperFunction*%
%TO.P,C16,2*%
%TO.N,+3.3VP*%
%TA.AperFunction,SMDPad,CuDef*%
G36*
G01*
X135311000Y-115794000D02*
X135311000Y-115294000D01*
G75*
G02*
X135536000Y-115069000I225000J0D01*
G01*
X135986000Y-115069000D01*
G75*
G02*
X136211000Y-115294000I0J-225000D01*
G01*
X136211000Y-115794000D01*
G75*
G02*
X135986000Y-116019000I-225000J0D01*
G01*
X135536000Y-116019000D01*
G75*
G02*
X135311000Y-115794000I0J225000D01*
G01*
G37*
%TD.AperFunction*%
%TD*%
%TO.P,C16,1*%
%TO.N,GND2*%
%TA.AperFunction,SMDPad,CuDef*%
G36*
G01*
X112261000Y-115794000D02*
X112261000Y-115294000D01*
G75*
G02*
X112486000Y-115069000I225000J0D01*
G01*
X112936000Y-115069000D01*
G75*
G02*
X113161000Y-115294000I0J-225000D01*
G01*
X113161000Y-115794000D01*
G75*
G02*
X112936000Y-116019000I-225000J0D01*
G01*
X112486000Y-116019000D01*
G75*
G02*
X112261000Y-115794000I0J225000D01*
G01*
G37*
%TD.AperFunction*%
%TO.P,C16,2*%
%TO.N,+3.3VP*%
%TA.AperFunction,SMDPad,CuDef*%
G36*
G01*
X113811000Y-115794000D02*
X113811000Y-115294000D01*
G75*
G02*
X114036000Y-115069000I225000J0D01*
G01*
X114486000Y-115069000D01*
G75*
G02*
X114711000Y-115294000I0J-225000D01*
G01*
X114711000Y-115794000D01*
G75*
G02*
X114486000Y-116019000I-225000J0D01*
G01*
X114036000Y-116019000D01*
G75*
G02*
X113811000Y-115794000I0J225000D01*
G01*
G37*
%TD.AperFunction*%
%TD*%
%TO.P,C16,1*%
%TO.N,GND2*%
%TA.AperFunction,SMDPad,CuDef*%
G36*
G01*
X90761000Y-115794000D02*
X90761000Y-115294000D01*
G75*
G02*
X90986000Y-115069000I225000J0D01*
G01*
X91436000Y-115069000D01*
G75*
G02*
X91661000Y-115294000I0J-225000D01*
G01*
X91661000Y-115794000D01*
G75*
G02*
X91436000Y-116019000I-225000J0D01*
G01*
X90986000Y-116019000D01*
G75*
G02*
X90761000Y-115794000I0J225000D01*
G01*
G37*
%TD.AperFunction*%
%TO.P,C16,2*%
%TO.N,+3.3VP*%
%TA.AperFunction,SMDPad,CuDef*%
G36*
G01*
X92311000Y-115794000D02*
X92311000Y-115294000D01*
G75*
G02*
X92536000Y-115069000I225000J0D01*
G01*
X92986000Y-115069000D01*
G75*
G02*
X93211000Y-115294000I0J-225000D01*
G01*
X93211000Y-115794000D01*
G75*
G02*
X92986000Y-116019000I-225000J0D01*
G01*
X92536000Y-116019000D01*
G75*
G02*
X92311000Y-115794000I0J225000D01*
G01*
G37*
%TD.AperFunction*%
%TD*%
%TO.P,C16,1*%
%TO.N,GND2*%
%TA.AperFunction,SMDPad,CuDef*%
G36*
G01*
X69261000Y-115794000D02*
X69261000Y-115294000D01*
G75*
G02*
X69486000Y-115069000I225000J0D01*
G01*
X69936000Y-115069000D01*
G75*
G02*
X70161000Y-115294000I0J-225000D01*
G01*
X70161000Y-115794000D01*
G75*
G02*
X69936000Y-116019000I-225000J0D01*
G01*
X69486000Y-116019000D01*
G75*
G02*
X69261000Y-115794000I0J225000D01*
G01*
G37*
%TD.AperFunction*%
%TO.P,C16,2*%
%TO.N,+3.3VP*%
%TA.AperFunction,SMDPad,CuDef*%
G36*
G01*
X70811000Y-115794000D02*
X70811000Y-115294000D01*
G75*
G02*
X71036000Y-115069000I225000J0D01*
G01*
X71486000Y-115069000D01*
G75*
G02*
X71711000Y-115294000I0J-225000D01*
G01*
X71711000Y-115794000D01*
G75*
G02*
X71486000Y-116019000I-225000J0D01*
G01*
X71036000Y-116019000D01*
G75*
G02*
X70811000Y-115794000I0J225000D01*
G01*
G37*
%TD.AperFunction*%
%TD*%
%TO.P,C16,1*%
%TO.N,GND2*%
%TA.AperFunction,SMDPad,CuDef*%
G36*
G01*
X133761000Y-96617000D02*
X133761000Y-96117000D01*
G75*
G02*
X133986000Y-95892000I225000J0D01*
G01*
X134436000Y-95892000D01*
G75*
G02*
X134661000Y-96117000I0J-225000D01*
G01*
X134661000Y-96617000D01*
G75*
G02*
X134436000Y-96842000I-225000J0D01*
G01*
X133986000Y-96842000D01*
G75*
G02*
X133761000Y-96617000I0J225000D01*
G01*
G37*
%TD.AperFunction*%
%TO.P,C16,2*%
%TO.N,+3.3VP*%
%TA.AperFunction,SMDPad,CuDef*%
G36*
G01*
X135311000Y-96617000D02*
X135311000Y-96117000D01*
G75*
G02*
X135536000Y-95892000I225000J0D01*
G01*
X135986000Y-95892000D01*
G75*
G02*
X136211000Y-96117000I0J-225000D01*
G01*
X136211000Y-96617000D01*
G75*
G02*
X135986000Y-96842000I-225000J0D01*
G01*
X135536000Y-96842000D01*
G75*
G02*
X135311000Y-96617000I0J225000D01*
G01*
G37*
%TD.AperFunction*%
%TD*%
%TO.P,C16,1*%
%TO.N,GND2*%
%TA.AperFunction,SMDPad,CuDef*%
G36*
G01*
X112261000Y-96617000D02*
X112261000Y-96117000D01*
G75*
G02*
X112486000Y-95892000I225000J0D01*
G01*
X112936000Y-95892000D01*
G75*
G02*
X113161000Y-96117000I0J-225000D01*
G01*
X113161000Y-96617000D01*
G75*
G02*
X112936000Y-96842000I-225000J0D01*
G01*
X112486000Y-96842000D01*
G75*
G02*
X112261000Y-96617000I0J225000D01*
G01*
G37*
%TD.AperFunction*%
%TO.P,C16,2*%
%TO.N,+3.3VP*%
%TA.AperFunction,SMDPad,CuDef*%
G36*
G01*
X113811000Y-96617000D02*
X113811000Y-96117000D01*
G75*
G02*
X114036000Y-95892000I225000J0D01*
G01*
X114486000Y-95892000D01*
G75*
G02*
X114711000Y-96117000I0J-225000D01*
G01*
X114711000Y-96617000D01*
G75*
G02*
X114486000Y-96842000I-225000J0D01*
G01*
X114036000Y-96842000D01*
G75*
G02*
X113811000Y-96617000I0J225000D01*
G01*
G37*
%TD.AperFunction*%
%TD*%
%TO.P,C16,1*%
%TO.N,GND2*%
%TA.AperFunction,SMDPad,CuDef*%
G36*
G01*
X90761000Y-96617000D02*
X90761000Y-96117000D01*
G75*
G02*
X90986000Y-95892000I225000J0D01*
G01*
X91436000Y-95892000D01*
G75*
G02*
X91661000Y-96117000I0J-225000D01*
G01*
X91661000Y-96617000D01*
G75*
G02*
X91436000Y-96842000I-225000J0D01*
G01*
X90986000Y-96842000D01*
G75*
G02*
X90761000Y-96617000I0J225000D01*
G01*
G37*
%TD.AperFunction*%
%TO.P,C16,2*%
%TO.N,+3.3VP*%
%TA.AperFunction,SMDPad,CuDef*%
G36*
G01*
X92311000Y-96617000D02*
X92311000Y-96117000D01*
G75*
G02*
X92536000Y-95892000I225000J0D01*
G01*
X92986000Y-95892000D01*
G75*
G02*
X93211000Y-96117000I0J-225000D01*
G01*
X93211000Y-96617000D01*
G75*
G02*
X92986000Y-96842000I-225000J0D01*
G01*
X92536000Y-96842000D01*
G75*
G02*
X92311000Y-96617000I0J225000D01*
G01*
G37*
%TD.AperFunction*%
%TD*%
%TO.P,C16,1*%
%TO.N,GND2*%
%TA.AperFunction,SMDPad,CuDef*%
G36*
G01*
X69261000Y-96617000D02*
X69261000Y-96117000D01*
G75*
G02*
X69486000Y-95892000I225000J0D01*
G01*
X69936000Y-95892000D01*
G75*
G02*
X70161000Y-96117000I0J-225000D01*
G01*
X70161000Y-96617000D01*
G75*
G02*
X69936000Y-96842000I-225000J0D01*
G01*
X69486000Y-96842000D01*
G75*
G02*
X69261000Y-96617000I0J225000D01*
G01*
G37*
%TD.AperFunction*%
%TO.P,C16,2*%
%TO.N,+3.3VP*%
%TA.AperFunction,SMDPad,CuDef*%
G36*
G01*
X70811000Y-96617000D02*
X70811000Y-96117000D01*
G75*
G02*
X71036000Y-95892000I225000J0D01*
G01*
X71486000Y-95892000D01*
G75*
G02*
X71711000Y-96117000I0J-225000D01*
G01*
X71711000Y-96617000D01*
G75*
G02*
X71486000Y-96842000I-225000J0D01*
G01*
X71036000Y-96842000D01*
G75*
G02*
X70811000Y-96617000I0J225000D01*
G01*
G37*
%TD.AperFunction*%
%TD*%
%TO.P,C16,1*%
%TO.N,GND2*%
%TA.AperFunction,SMDPad,CuDef*%
G36*
G01*
X133761000Y-77440000D02*
X133761000Y-76940000D01*
G75*
G02*
X133986000Y-76715000I225000J0D01*
G01*
X134436000Y-76715000D01*
G75*
G02*
X134661000Y-76940000I0J-225000D01*
G01*
X134661000Y-77440000D01*
G75*
G02*
X134436000Y-77665000I-225000J0D01*
G01*
X133986000Y-77665000D01*
G75*
G02*
X133761000Y-77440000I0J225000D01*
G01*
G37*
%TD.AperFunction*%
%TO.P,C16,2*%
%TO.N,+3.3VP*%
%TA.AperFunction,SMDPad,CuDef*%
G36*
G01*
X135311000Y-77440000D02*
X135311000Y-76940000D01*
G75*
G02*
X135536000Y-76715000I225000J0D01*
G01*
X135986000Y-76715000D01*
G75*
G02*
X136211000Y-76940000I0J-225000D01*
G01*
X136211000Y-77440000D01*
G75*
G02*
X135986000Y-77665000I-225000J0D01*
G01*
X135536000Y-77665000D01*
G75*
G02*
X135311000Y-77440000I0J225000D01*
G01*
G37*
%TD.AperFunction*%
%TD*%
%TO.P,C16,1*%
%TO.N,GND2*%
%TA.AperFunction,SMDPad,CuDef*%
G36*
G01*
X112261000Y-77440000D02*
X112261000Y-76940000D01*
G75*
G02*
X112486000Y-76715000I225000J0D01*
G01*
X112936000Y-76715000D01*
G75*
G02*
X113161000Y-76940000I0J-225000D01*
G01*
X113161000Y-77440000D01*
G75*
G02*
X112936000Y-77665000I-225000J0D01*
G01*
X112486000Y-77665000D01*
G75*
G02*
X112261000Y-77440000I0J225000D01*
G01*
G37*
%TD.AperFunction*%
%TO.P,C16,2*%
%TO.N,+3.3VP*%
%TA.AperFunction,SMDPad,CuDef*%
G36*
G01*
X113811000Y-77440000D02*
X113811000Y-76940000D01*
G75*
G02*
X114036000Y-76715000I225000J0D01*
G01*
X114486000Y-76715000D01*
G75*
G02*
X114711000Y-76940000I0J-225000D01*
G01*
X114711000Y-77440000D01*
G75*
G02*
X114486000Y-77665000I-225000J0D01*
G01*
X114036000Y-77665000D01*
G75*
G02*
X113811000Y-77440000I0J225000D01*
G01*
G37*
%TD.AperFunction*%
%TD*%
%TO.P,C16,1*%
%TO.N,GND2*%
%TA.AperFunction,SMDPad,CuDef*%
G36*
G01*
X90761000Y-77440000D02*
X90761000Y-76940000D01*
G75*
G02*
X90986000Y-76715000I225000J0D01*
G01*
X91436000Y-76715000D01*
G75*
G02*
X91661000Y-76940000I0J-225000D01*
G01*
X91661000Y-77440000D01*
G75*
G02*
X91436000Y-77665000I-225000J0D01*
G01*
X90986000Y-77665000D01*
G75*
G02*
X90761000Y-77440000I0J225000D01*
G01*
G37*
%TD.AperFunction*%
%TO.P,C16,2*%
%TO.N,+3.3VP*%
%TA.AperFunction,SMDPad,CuDef*%
G36*
G01*
X92311000Y-77440000D02*
X92311000Y-76940000D01*
G75*
G02*
X92536000Y-76715000I225000J0D01*
G01*
X92986000Y-76715000D01*
G75*
G02*
X93211000Y-76940000I0J-225000D01*
G01*
X93211000Y-77440000D01*
G75*
G02*
X92986000Y-77665000I-225000J0D01*
G01*
X92536000Y-77665000D01*
G75*
G02*
X92311000Y-77440000I0J225000D01*
G01*
G37*
%TD.AperFunction*%
%TD*%
%TO.P,C16,1*%
%TO.N,GND2*%
%TA.AperFunction,SMDPad,CuDef*%
G36*
G01*
X69261000Y-77440000D02*
X69261000Y-76940000D01*
G75*
G02*
X69486000Y-76715000I225000J0D01*
G01*
X69936000Y-76715000D01*
G75*
G02*
X70161000Y-76940000I0J-225000D01*
G01*
X70161000Y-77440000D01*
G75*
G02*
X69936000Y-77665000I-225000J0D01*
G01*
X69486000Y-77665000D01*
G75*
G02*
X69261000Y-77440000I0J225000D01*
G01*
G37*
%TD.AperFunction*%
%TO.P,C16,2*%
%TO.N,+3.3VP*%
%TA.AperFunction,SMDPad,CuDef*%
G36*
G01*
X70811000Y-77440000D02*
X70811000Y-76940000D01*
G75*
G02*
X71036000Y-76715000I225000J0D01*
G01*
X71486000Y-76715000D01*
G75*
G02*
X71711000Y-76940000I0J-225000D01*
G01*
X71711000Y-77440000D01*
G75*
G02*
X71486000Y-77665000I-225000J0D01*
G01*
X71036000Y-77665000D01*
G75*
G02*
X70811000Y-77440000I0J225000D01*
G01*
G37*
%TD.AperFunction*%
%TD*%
%TO.P,C16,1*%
%TO.N,GND2*%
%TA.AperFunction,SMDPad,CuDef*%
G36*
G01*
X133761000Y-58263000D02*
X133761000Y-57763000D01*
G75*
G02*
X133986000Y-57538000I225000J0D01*
G01*
X134436000Y-57538000D01*
G75*
G02*
X134661000Y-57763000I0J-225000D01*
G01*
X134661000Y-58263000D01*
G75*
G02*
X134436000Y-58488000I-225000J0D01*
G01*
X133986000Y-58488000D01*
G75*
G02*
X133761000Y-58263000I0J225000D01*
G01*
G37*
%TD.AperFunction*%
%TO.P,C16,2*%
%TO.N,+3.3VP*%
%TA.AperFunction,SMDPad,CuDef*%
G36*
G01*
X135311000Y-58263000D02*
X135311000Y-57763000D01*
G75*
G02*
X135536000Y-57538000I225000J0D01*
G01*
X135986000Y-57538000D01*
G75*
G02*
X136211000Y-57763000I0J-225000D01*
G01*
X136211000Y-58263000D01*
G75*
G02*
X135986000Y-58488000I-225000J0D01*
G01*
X135536000Y-58488000D01*
G75*
G02*
X135311000Y-58263000I0J225000D01*
G01*
G37*
%TD.AperFunction*%
%TD*%
%TO.P,C16,1*%
%TO.N,GND2*%
%TA.AperFunction,SMDPad,CuDef*%
G36*
G01*
X112261000Y-58263000D02*
X112261000Y-57763000D01*
G75*
G02*
X112486000Y-57538000I225000J0D01*
G01*
X112936000Y-57538000D01*
G75*
G02*
X113161000Y-57763000I0J-225000D01*
G01*
X113161000Y-58263000D01*
G75*
G02*
X112936000Y-58488000I-225000J0D01*
G01*
X112486000Y-58488000D01*
G75*
G02*
X112261000Y-58263000I0J225000D01*
G01*
G37*
%TD.AperFunction*%
%TO.P,C16,2*%
%TO.N,+3.3VP*%
%TA.AperFunction,SMDPad,CuDef*%
G36*
G01*
X113811000Y-58263000D02*
X113811000Y-57763000D01*
G75*
G02*
X114036000Y-57538000I225000J0D01*
G01*
X114486000Y-57538000D01*
G75*
G02*
X114711000Y-57763000I0J-225000D01*
G01*
X114711000Y-58263000D01*
G75*
G02*
X114486000Y-58488000I-225000J0D01*
G01*
X114036000Y-58488000D01*
G75*
G02*
X113811000Y-58263000I0J225000D01*
G01*
G37*
%TD.AperFunction*%
%TD*%
%TO.P,C16,1*%
%TO.N,GND2*%
%TA.AperFunction,SMDPad,CuDef*%
G36*
G01*
X90761000Y-58263000D02*
X90761000Y-57763000D01*
G75*
G02*
X90986000Y-57538000I225000J0D01*
G01*
X91436000Y-57538000D01*
G75*
G02*
X91661000Y-57763000I0J-225000D01*
G01*
X91661000Y-58263000D01*
G75*
G02*
X91436000Y-58488000I-225000J0D01*
G01*
X90986000Y-58488000D01*
G75*
G02*
X90761000Y-58263000I0J225000D01*
G01*
G37*
%TD.AperFunction*%
%TO.P,C16,2*%
%TO.N,+3.3VP*%
%TA.AperFunction,SMDPad,CuDef*%
G36*
G01*
X92311000Y-58263000D02*
X92311000Y-57763000D01*
G75*
G02*
X92536000Y-57538000I225000J0D01*
G01*
X92986000Y-57538000D01*
G75*
G02*
X93211000Y-57763000I0J-225000D01*
G01*
X93211000Y-58263000D01*
G75*
G02*
X92986000Y-58488000I-225000J0D01*
G01*
X92536000Y-58488000D01*
G75*
G02*
X92311000Y-58263000I0J225000D01*
G01*
G37*
%TD.AperFunction*%
%TD*%
D15*
%TO.P,PS1,4*%
%TO.N,+5VP*%
X129766000Y-124688000D03*
%TO.P,PS1,3*%
%TO.N,GND2*%
X127226000Y-124688000D03*
%TO.P,PS1,2*%
%TO.N,+5V*%
X124686000Y-124688000D03*
D16*
%TO.P,PS1,1*%
%TO.N,GND1*%
X122146000Y-124688000D03*
%TD*%
D15*
%TO.P,PS1,4*%
%TO.N,+5VP*%
X108266000Y-124688000D03*
%TO.P,PS1,3*%
%TO.N,GND2*%
X105726000Y-124688000D03*
%TO.P,PS1,2*%
%TO.N,+5V*%
X103186000Y-124688000D03*
D16*
%TO.P,PS1,1*%
%TO.N,GND1*%
X100646000Y-124688000D03*
%TD*%
D15*
%TO.P,PS1,4*%
%TO.N,+5VP*%
X86766000Y-124688000D03*
%TO.P,PS1,3*%
%TO.N,GND2*%
X84226000Y-124688000D03*
%TO.P,PS1,2*%
%TO.N,+5V*%
X81686000Y-124688000D03*
D16*
%TO.P,PS1,1*%
%TO.N,GND1*%
X79146000Y-124688000D03*
%TD*%
D15*
%TO.P,PS1,4*%
%TO.N,+5VP*%
X65266000Y-124688000D03*
%TO.P,PS1,3*%
%TO.N,GND2*%
X62726000Y-124688000D03*
%TO.P,PS1,2*%
%TO.N,+5V*%
X60186000Y-124688000D03*
D16*
%TO.P,PS1,1*%
%TO.N,GND1*%
X57646000Y-124688000D03*
%TD*%
D15*
%TO.P,PS1,4*%
%TO.N,+5VP*%
X129766000Y-105511000D03*
%TO.P,PS1,3*%
%TO.N,GND2*%
X127226000Y-105511000D03*
%TO.P,PS1,2*%
%TO.N,+5V*%
X124686000Y-105511000D03*
D16*
%TO.P,PS1,1*%
%TO.N,GND1*%
X122146000Y-105511000D03*
%TD*%
D15*
%TO.P,PS1,4*%
%TO.N,+5VP*%
X108266000Y-105511000D03*
%TO.P,PS1,3*%
%TO.N,GND2*%
X105726000Y-105511000D03*
%TO.P,PS1,2*%
%TO.N,+5V*%
X103186000Y-105511000D03*
D16*
%TO.P,PS1,1*%
%TO.N,GND1*%
X100646000Y-105511000D03*
%TD*%
D15*
%TO.P,PS1,4*%
%TO.N,+5VP*%
X86766000Y-105511000D03*
%TO.P,PS1,3*%
%TO.N,GND2*%
X84226000Y-105511000D03*
%TO.P,PS1,2*%
%TO.N,+5V*%
X81686000Y-105511000D03*
D16*
%TO.P,PS1,1*%
%TO.N,GND1*%
X79146000Y-105511000D03*
%TD*%
D15*
%TO.P,PS1,4*%
%TO.N,+5VP*%
X65266000Y-105511000D03*
%TO.P,PS1,3*%
%TO.N,GND2*%
X62726000Y-105511000D03*
%TO.P,PS1,2*%
%TO.N,+5V*%
X60186000Y-105511000D03*
D16*
%TO.P,PS1,1*%
%TO.N,GND1*%
X57646000Y-105511000D03*
%TD*%
D15*
%TO.P,PS1,4*%
%TO.N,+5VP*%
X129766000Y-86334000D03*
%TO.P,PS1,3*%
%TO.N,GND2*%
X127226000Y-86334000D03*
%TO.P,PS1,2*%
%TO.N,+5V*%
X124686000Y-86334000D03*
D16*
%TO.P,PS1,1*%
%TO.N,GND1*%
X122146000Y-86334000D03*
%TD*%
D15*
%TO.P,PS1,4*%
%TO.N,+5VP*%
X108266000Y-86334000D03*
%TO.P,PS1,3*%
%TO.N,GND2*%
X105726000Y-86334000D03*
%TO.P,PS1,2*%
%TO.N,+5V*%
X103186000Y-86334000D03*
D16*
%TO.P,PS1,1*%
%TO.N,GND1*%
X100646000Y-86334000D03*
%TD*%
D15*
%TO.P,PS1,4*%
%TO.N,+5VP*%
X86766000Y-86334000D03*
%TO.P,PS1,3*%
%TO.N,GND2*%
X84226000Y-86334000D03*
%TO.P,PS1,2*%
%TO.N,+5V*%
X81686000Y-86334000D03*
D16*
%TO.P,PS1,1*%
%TO.N,GND1*%
X79146000Y-86334000D03*
%TD*%
D15*
%TO.P,PS1,4*%
%TO.N,+5VP*%
X65266000Y-86334000D03*
%TO.P,PS1,3*%
%TO.N,GND2*%
X62726000Y-86334000D03*
%TO.P,PS1,2*%
%TO.N,+5V*%
X60186000Y-86334000D03*
D16*
%TO.P,PS1,1*%
%TO.N,GND1*%
X57646000Y-86334000D03*
%TD*%
D15*
%TO.P,PS1,4*%
%TO.N,+5VP*%
X129766000Y-67157000D03*
%TO.P,PS1,3*%
%TO.N,GND2*%
X127226000Y-67157000D03*
%TO.P,PS1,2*%
%TO.N,+5V*%
X124686000Y-67157000D03*
D16*
%TO.P,PS1,1*%
%TO.N,GND1*%
X122146000Y-67157000D03*
%TD*%
D15*
%TO.P,PS1,4*%
%TO.N,+5VP*%
X108266000Y-67157000D03*
%TO.P,PS1,3*%
%TO.N,GND2*%
X105726000Y-67157000D03*
%TO.P,PS1,2*%
%TO.N,+5V*%
X103186000Y-67157000D03*
D16*
%TO.P,PS1,1*%
%TO.N,GND1*%
X100646000Y-67157000D03*
%TD*%
D15*
%TO.P,PS1,4*%
%TO.N,+5VP*%
X86766000Y-67157000D03*
%TO.P,PS1,3*%
%TO.N,GND2*%
X84226000Y-67157000D03*
%TO.P,PS1,2*%
%TO.N,+5V*%
X81686000Y-67157000D03*
D16*
%TO.P,PS1,1*%
%TO.N,GND1*%
X79146000Y-67157000D03*
%TD*%
D15*
%TO.P,PS1,4*%
%TO.N,+5VP*%
X65266000Y-67157000D03*
%TO.P,PS1,3*%
%TO.N,GND2*%
X62726000Y-67157000D03*
%TO.P,PS1,2*%
%TO.N,+5V*%
X60186000Y-67157000D03*
D16*
%TO.P,PS1,1*%
%TO.N,GND1*%
X57646000Y-67157000D03*
%TD*%
D15*
%TO.P,PS1,4*%
%TO.N,+5VP*%
X129766000Y-47980000D03*
%TO.P,PS1,3*%
%TO.N,GND2*%
X127226000Y-47980000D03*
%TO.P,PS1,2*%
%TO.N,+5V*%
X124686000Y-47980000D03*
D16*
%TO.P,PS1,1*%
%TO.N,GND1*%
X122146000Y-47980000D03*
%TD*%
D15*
%TO.P,PS1,4*%
%TO.N,+5VP*%
X108266000Y-47980000D03*
%TO.P,PS1,3*%
%TO.N,GND2*%
X105726000Y-47980000D03*
%TO.P,PS1,2*%
%TO.N,+5V*%
X103186000Y-47980000D03*
D16*
%TO.P,PS1,1*%
%TO.N,GND1*%
X100646000Y-47980000D03*
%TD*%
D15*
%TO.P,PS1,4*%
%TO.N,+5VP*%
X86766000Y-47980000D03*
%TO.P,PS1,3*%
%TO.N,GND2*%
X84226000Y-47980000D03*
%TO.P,PS1,2*%
%TO.N,+5V*%
X81686000Y-47980000D03*
D16*
%TO.P,PS1,1*%
%TO.N,GND1*%
X79146000Y-47980000D03*
%TD*%
D14*
%TO.P,J1,4*%
%TO.N,/+5V_state*%
X62472000Y-60426000D03*
%TO.P,J1,3*%
%TO.N,+5P*%
X59932000Y-60426000D03*
%TO.P,J1,2*%
%TO.N,GND1*%
X57392000Y-60426000D03*
D13*
%TO.P,J1,1*%
%TO.N,+5V*%
X54852000Y-60426000D03*
%TD*%
D14*
%TO.P,J2,3*%
%TO.N,+3.3VP*%
X72632000Y-60426000D03*
%TO.P,J2,2*%
%TO.N,GND2*%
X70092000Y-60426000D03*
D13*
%TO.P,J2,1*%
%TO.N,+5VP*%
X67552000Y-60426000D03*
%TD*%
D12*
%TO.P,U1,1*%
%TO.N,GND2*%
X73521000Y-47980000D03*
%TO.P,U1,3*%
%TO.N,+5VP*%
X68921000Y-47980000D03*
%TO.P,U1,2*%
%TO.N,+3.3VP*%
X71221000Y-47980000D03*
D11*
X71221000Y-54280000D03*
%TD*%
D16*
%TO.P,PS1,1*%
%TO.N,GND1*%
X57646000Y-47980000D03*
D15*
%TO.P,PS1,2*%
%TO.N,+5V*%
X60186000Y-47980000D03*
%TO.P,PS1,3*%
%TO.N,GND2*%
X62726000Y-47980000D03*
%TO.P,PS1,4*%
%TO.N,+5VP*%
X65266000Y-47980000D03*
%TD*%
%TO.P,C16,2*%
%TO.N,+3.3VP*%
%TA.AperFunction,SMDPad,CuDef*%
G36*
G01*
X70811000Y-58263000D02*
X70811000Y-57763000D01*
G75*
G02*
X71036000Y-57538000I225000J0D01*
G01*
X71486000Y-57538000D01*
G75*
G02*
X71711000Y-57763000I0J-225000D01*
G01*
X71711000Y-58263000D01*
G75*
G02*
X71486000Y-58488000I-225000J0D01*
G01*
X71036000Y-58488000D01*
G75*
G02*
X70811000Y-58263000I0J225000D01*
G01*
G37*
%TD.AperFunction*%
%TO.P,C16,1*%
%TO.N,GND2*%
%TA.AperFunction,SMDPad,CuDef*%
G36*
G01*
X69261000Y-58263000D02*
X69261000Y-57763000D01*
G75*
G02*
X69486000Y-57538000I225000J0D01*
G01*
X69936000Y-57538000D01*
G75*
G02*
X70161000Y-57763000I0J-225000D01*
G01*
X70161000Y-58263000D01*
G75*
G02*
X69936000Y-58488000I-225000J0D01*
G01*
X69486000Y-58488000D01*
G75*
G02*
X69261000Y-58263000I0J225000D01*
G01*
G37*
%TD.AperFunction*%
%TD*%
%TO.P,C15,2*%
%TO.N,+3.3VP*%
%TA.AperFunction,SMDPad,CuDef*%
G36*
G01*
X70785000Y-56612000D02*
X70785000Y-56112000D01*
G75*
G02*
X71010000Y-55887000I225000J0D01*
G01*
X71460000Y-55887000D01*
G75*
G02*
X71685000Y-56112000I0J-225000D01*
G01*
X71685000Y-56612000D01*
G75*
G02*
X71460000Y-56837000I-225000J0D01*
G01*
X71010000Y-56837000D01*
G75*
G02*
X70785000Y-56612000I0J225000D01*
G01*
G37*
%TD.AperFunction*%
%TO.P,C15,1*%
%TO.N,GND2*%
%TA.AperFunction,SMDPad,CuDef*%
G36*
G01*
X69235000Y-56612000D02*
X69235000Y-56112000D01*
G75*
G02*
X69460000Y-55887000I225000J0D01*
G01*
X69910000Y-55887000D01*
G75*
G02*
X70135000Y-56112000I0J-225000D01*
G01*
X70135000Y-56612000D01*
G75*
G02*
X69910000Y-56837000I-225000J0D01*
G01*
X69460000Y-56837000D01*
G75*
G02*
X69235000Y-56612000I0J225000D01*
G01*
G37*
%TD.AperFunction*%
%TD*%
%TO.P,C8,2*%
%TO.N,GND1*%
%TA.AperFunction,SMDPad,CuDef*%
G36*
G01*
X60164500Y-58022000D02*
X60164500Y-55972000D01*
G75*
G02*
X60414500Y-55722000I250000J0D01*
G01*
X61989500Y-55722000D01*
G75*
G02*
X62239500Y-55972000I0J-250000D01*
G01*
X62239500Y-58022000D01*
G75*
G02*
X61989500Y-58272000I-250000J0D01*
G01*
X60414500Y-58272000D01*
G75*
G02*
X60164500Y-58022000I0J250000D01*
G01*
G37*
%TD.AperFunction*%
%TO.P,C8,1*%
%TO.N,+5P*%
%TA.AperFunction,SMDPad,CuDef*%
G36*
G01*
X53939500Y-58022000D02*
X53939500Y-55972000D01*
G75*
G02*
X54189500Y-55722000I250000J0D01*
G01*
X55764500Y-55722000D01*
G75*
G02*
X56014500Y-55972000I0J-250000D01*
G01*
X56014500Y-58022000D01*
G75*
G02*
X55764500Y-58272000I-250000J0D01*
G01*
X54189500Y-58272000D01*
G75*
G02*
X53939500Y-58022000I0J250000D01*
G01*
G37*
%TD.AperFunction*%
%TD*%
%TO.P,C7,2*%
%TO.N,GND1*%
%TA.AperFunction,SMDPad,CuDef*%
G36*
G01*
X60166500Y-53069000D02*
X60166500Y-51019000D01*
G75*
G02*
X60416500Y-50769000I250000J0D01*
G01*
X61991500Y-50769000D01*
G75*
G02*
X62241500Y-51019000I0J-250000D01*
G01*
X62241500Y-53069000D01*
G75*
G02*
X61991500Y-53319000I-250000J0D01*
G01*
X60416500Y-53319000D01*
G75*
G02*
X60166500Y-53069000I0J250000D01*
G01*
G37*
%TD.AperFunction*%
%TO.P,C7,1*%
%TO.N,+5P*%
%TA.AperFunction,SMDPad,CuDef*%
G36*
G01*
X53941500Y-53069000D02*
X53941500Y-51019000D01*
G75*
G02*
X54191500Y-50769000I250000J0D01*
G01*
X55766500Y-50769000D01*
G75*
G02*
X56016500Y-51019000I0J-250000D01*
G01*
X56016500Y-53069000D01*
G75*
G02*
X55766500Y-53319000I-250000J0D01*
G01*
X54191500Y-53319000D01*
G75*
G02*
X53941500Y-53069000I0J250000D01*
G01*
G37*
%TD.AperFunction*%
%TD*%
D17*
%TO.N,+5P*%
X57138000Y-55979392D03*
D18*
X54471000Y-49377000D03*
D17*
X59169998Y-58140000D03*
X80669998Y-58140000D03*
X102169998Y-58140000D03*
X123669998Y-58140000D03*
X59169998Y-77317000D03*
X80669998Y-77317000D03*
X102169998Y-77317000D03*
X123669998Y-77317000D03*
X59169998Y-96494000D03*
X80669998Y-96494000D03*
X102169998Y-96494000D03*
X123669998Y-96494000D03*
X59169998Y-115671000D03*
X80669998Y-115671000D03*
X102169998Y-115671000D03*
X123669998Y-115671000D03*
X59169998Y-134848000D03*
X80669998Y-134848000D03*
X102169998Y-134848000D03*
X123669998Y-134848000D03*
X78638000Y-55979392D03*
X100138000Y-55979392D03*
X121638000Y-55979392D03*
X57138000Y-75156392D03*
X78638000Y-75156392D03*
X100138000Y-75156392D03*
X121638000Y-75156392D03*
X57138000Y-94333392D03*
X78638000Y-94333392D03*
X100138000Y-94333392D03*
X121638000Y-94333392D03*
X57138000Y-113510392D03*
X78638000Y-113510392D03*
X100138000Y-113510392D03*
X121638000Y-113510392D03*
X57138000Y-132687392D03*
X78638000Y-132687392D03*
X100138000Y-132687392D03*
X121638000Y-132687392D03*
D18*
X75971000Y-49377000D03*
X97471000Y-49377000D03*
X118971000Y-49377000D03*
X54471000Y-68554000D03*
X75971000Y-68554000D03*
X97471000Y-68554000D03*
X118971000Y-68554000D03*
X54471000Y-87731000D03*
X75971000Y-87731000D03*
X97471000Y-87731000D03*
X118971000Y-87731000D03*
X54471000Y-106908000D03*
X75971000Y-106908000D03*
X97471000Y-106908000D03*
X118971000Y-106908000D03*
X54471000Y-126085000D03*
X75971000Y-126085000D03*
X97471000Y-126085000D03*
X118971000Y-126085000D03*
%TO.N,+5VP*%
X68921000Y-47980000D03*
X66790000Y-51916990D03*
X90421000Y-47980000D03*
X111921000Y-47980000D03*
X133421000Y-47980000D03*
X68921000Y-67157000D03*
X90421000Y-67157000D03*
X111921000Y-67157000D03*
X133421000Y-67157000D03*
X68921000Y-86334000D03*
X90421000Y-86334000D03*
X111921000Y-86334000D03*
X133421000Y-86334000D03*
X68921000Y-105511000D03*
X90421000Y-105511000D03*
X111921000Y-105511000D03*
X133421000Y-105511000D03*
X68921000Y-124688000D03*
X90421000Y-124688000D03*
X111921000Y-124688000D03*
X133421000Y-124688000D03*
X88290000Y-51916990D03*
X109790000Y-51916990D03*
X131290000Y-51916990D03*
X66790000Y-71093990D03*
X88290000Y-71093990D03*
X109790000Y-71093990D03*
X131290000Y-71093990D03*
X66790000Y-90270990D03*
X88290000Y-90270990D03*
X109790000Y-90270990D03*
X131290000Y-90270990D03*
X66790000Y-109447990D03*
X88290000Y-109447990D03*
X109790000Y-109447990D03*
X131290000Y-109447990D03*
X66790000Y-128624990D03*
X88290000Y-128624990D03*
X109790000Y-128624990D03*
X131290000Y-128624990D03*
%TO.N,+5V*%
X57495964Y-57782036D03*
X78995964Y-57782036D03*
X100495964Y-57782036D03*
X121995964Y-57782036D03*
X57495964Y-76959036D03*
X78995964Y-76959036D03*
X100495964Y-76959036D03*
X121995964Y-76959036D03*
X57495964Y-96136036D03*
X78995964Y-96136036D03*
X100495964Y-96136036D03*
X121995964Y-96136036D03*
X57495964Y-115313036D03*
X78995964Y-115313036D03*
X100495964Y-115313036D03*
X121995964Y-115313036D03*
X57495964Y-134490036D03*
X78995964Y-134490036D03*
X100495964Y-134490036D03*
X121995964Y-134490036D03*
%TO.N,GND2*%
X73521000Y-47980000D03*
X68060000Y-53187000D03*
X89560000Y-53187000D03*
X111060000Y-53187000D03*
X132560000Y-53187000D03*
X68060000Y-72364000D03*
X89560000Y-72364000D03*
X111060000Y-72364000D03*
X132560000Y-72364000D03*
X68060000Y-91541000D03*
X89560000Y-91541000D03*
X111060000Y-91541000D03*
X132560000Y-91541000D03*
X68060000Y-110718000D03*
X89560000Y-110718000D03*
X111060000Y-110718000D03*
X132560000Y-110718000D03*
X68060000Y-129895000D03*
X89560000Y-129895000D03*
X111060000Y-129895000D03*
X132560000Y-129895000D03*
X95021000Y-47980000D03*
X116521000Y-47980000D03*
X138021000Y-47980000D03*
X73521000Y-67157000D03*
X95021000Y-67157000D03*
X116521000Y-67157000D03*
X138021000Y-67157000D03*
X73521000Y-86334000D03*
X95021000Y-86334000D03*
X116521000Y-86334000D03*
X138021000Y-86334000D03*
X73521000Y-105511000D03*
X95021000Y-105511000D03*
X116521000Y-105511000D03*
X138021000Y-105511000D03*
X73521000Y-124688000D03*
X95021000Y-124688000D03*
X116521000Y-124688000D03*
X138021000Y-124688000D03*
D17*
%TO.N,Net-(D1-Pad5)*%
X57773000Y-54457000D03*
X61202000Y-54965000D03*
X79273000Y-54457000D03*
X100773000Y-54457000D03*
X122273000Y-54457000D03*
X57773000Y-73634000D03*
X79273000Y-73634000D03*
X100773000Y-73634000D03*
X122273000Y-73634000D03*
X57773000Y-92811000D03*
X79273000Y-92811000D03*
X100773000Y-92811000D03*
X122273000Y-92811000D03*
X57773000Y-111988000D03*
X79273000Y-111988000D03*
X100773000Y-111988000D03*
X122273000Y-111988000D03*
X57773000Y-131165000D03*
X79273000Y-131165000D03*
X100773000Y-131165000D03*
X122273000Y-131165000D03*
X82702000Y-54965000D03*
X104202000Y-54965000D03*
X125702000Y-54965000D03*
X61202000Y-74142000D03*
X82702000Y-74142000D03*
X104202000Y-74142000D03*
X125702000Y-74142000D03*
X61202000Y-93319000D03*
X82702000Y-93319000D03*
X104202000Y-93319000D03*
X125702000Y-93319000D03*
X61202000Y-112496000D03*
X82702000Y-112496000D03*
X104202000Y-112496000D03*
X125702000Y-112496000D03*
X61202000Y-131673000D03*
X82702000Y-131673000D03*
X104202000Y-131673000D03*
X125702000Y-131673000D03*
%TD*%
D19*
%TO.N,+5P*%
X54979000Y-53820392D02*
X54979000Y-52044000D01*
X57138000Y-55979392D02*
X54979000Y-53820392D01*
X57138000Y-55979392D02*
X57703685Y-55979392D01*
X57703685Y-55979392D02*
X59169998Y-57445705D01*
X59169998Y-57445705D02*
X59169998Y-58140000D01*
X59169998Y-59663998D02*
X59932000Y-60426000D01*
X59169998Y-58140000D02*
X59169998Y-59663998D01*
X56247392Y-56870000D02*
X57138000Y-55979392D01*
X54979000Y-56870000D02*
X56247392Y-56870000D01*
X54979000Y-49885000D02*
X54471000Y-49377000D01*
X54979000Y-52044000D02*
X54979000Y-49885000D01*
X76479000Y-53820392D02*
X76479000Y-52044000D01*
X97979000Y-53820392D02*
X97979000Y-52044000D01*
X119479000Y-53820392D02*
X119479000Y-52044000D01*
X54979000Y-72997392D02*
X54979000Y-71221000D01*
X76479000Y-72997392D02*
X76479000Y-71221000D01*
X97979000Y-72997392D02*
X97979000Y-71221000D01*
X119479000Y-72997392D02*
X119479000Y-71221000D01*
X54979000Y-92174392D02*
X54979000Y-90398000D01*
X76479000Y-92174392D02*
X76479000Y-90398000D01*
X97979000Y-92174392D02*
X97979000Y-90398000D01*
X119479000Y-92174392D02*
X119479000Y-90398000D01*
X54979000Y-111351392D02*
X54979000Y-109575000D01*
X76479000Y-111351392D02*
X76479000Y-109575000D01*
X97979000Y-111351392D02*
X97979000Y-109575000D01*
X119479000Y-111351392D02*
X119479000Y-109575000D01*
X54979000Y-130528392D02*
X54979000Y-128752000D01*
X76479000Y-130528392D02*
X76479000Y-128752000D01*
X97979000Y-130528392D02*
X97979000Y-128752000D01*
X119479000Y-130528392D02*
X119479000Y-128752000D01*
X78638000Y-55979392D02*
X76479000Y-53820392D01*
X100138000Y-55979392D02*
X97979000Y-53820392D01*
X121638000Y-55979392D02*
X119479000Y-53820392D01*
X57138000Y-75156392D02*
X54979000Y-72997392D01*
X78638000Y-75156392D02*
X76479000Y-72997392D01*
X100138000Y-75156392D02*
X97979000Y-72997392D01*
X121638000Y-75156392D02*
X119479000Y-72997392D01*
X57138000Y-94333392D02*
X54979000Y-92174392D01*
X78638000Y-94333392D02*
X76479000Y-92174392D01*
X100138000Y-94333392D02*
X97979000Y-92174392D01*
X121638000Y-94333392D02*
X119479000Y-92174392D01*
X57138000Y-113510392D02*
X54979000Y-111351392D01*
X78638000Y-113510392D02*
X76479000Y-111351392D01*
X100138000Y-113510392D02*
X97979000Y-111351392D01*
X121638000Y-113510392D02*
X119479000Y-111351392D01*
X57138000Y-132687392D02*
X54979000Y-130528392D01*
X78638000Y-132687392D02*
X76479000Y-130528392D01*
X100138000Y-132687392D02*
X97979000Y-130528392D01*
X121638000Y-132687392D02*
X119479000Y-130528392D01*
X78638000Y-55979392D02*
X79203685Y-55979392D01*
X100138000Y-55979392D02*
X100703685Y-55979392D01*
X121638000Y-55979392D02*
X122203685Y-55979392D01*
X57138000Y-75156392D02*
X57703685Y-75156392D01*
X78638000Y-75156392D02*
X79203685Y-75156392D01*
X100138000Y-75156392D02*
X100703685Y-75156392D01*
X121638000Y-75156392D02*
X122203685Y-75156392D01*
X57138000Y-94333392D02*
X57703685Y-94333392D01*
X78638000Y-94333392D02*
X79203685Y-94333392D01*
X100138000Y-94333392D02*
X100703685Y-94333392D01*
X121638000Y-94333392D02*
X122203685Y-94333392D01*
X57138000Y-113510392D02*
X57703685Y-113510392D01*
X78638000Y-113510392D02*
X79203685Y-113510392D01*
X100138000Y-113510392D02*
X100703685Y-113510392D01*
X121638000Y-113510392D02*
X122203685Y-113510392D01*
X57138000Y-132687392D02*
X57703685Y-132687392D01*
X78638000Y-132687392D02*
X79203685Y-132687392D01*
X100138000Y-132687392D02*
X100703685Y-132687392D01*
X121638000Y-132687392D02*
X122203685Y-132687392D01*
X79203685Y-55979392D02*
X80669998Y-57445705D01*
X100703685Y-55979392D02*
X102169998Y-57445705D01*
X122203685Y-55979392D02*
X123669998Y-57445705D01*
X57703685Y-75156392D02*
X59169998Y-76622705D01*
X79203685Y-75156392D02*
X80669998Y-76622705D01*
X100703685Y-75156392D02*
X102169998Y-76622705D01*
X122203685Y-75156392D02*
X123669998Y-76622705D01*
X57703685Y-94333392D02*
X59169998Y-95799705D01*
X79203685Y-94333392D02*
X80669998Y-95799705D01*
X100703685Y-94333392D02*
X102169998Y-95799705D01*
X122203685Y-94333392D02*
X123669998Y-95799705D01*
X57703685Y-113510392D02*
X59169998Y-114976705D01*
X79203685Y-113510392D02*
X80669998Y-114976705D01*
X100703685Y-113510392D02*
X102169998Y-114976705D01*
X122203685Y-113510392D02*
X123669998Y-114976705D01*
X57703685Y-132687392D02*
X59169998Y-134153705D01*
X79203685Y-132687392D02*
X80669998Y-134153705D01*
X100703685Y-132687392D02*
X102169998Y-134153705D01*
X122203685Y-132687392D02*
X123669998Y-134153705D01*
X80669998Y-57445705D02*
X80669998Y-58140000D01*
X102169998Y-57445705D02*
X102169998Y-58140000D01*
X123669998Y-57445705D02*
X123669998Y-58140000D01*
X59169998Y-76622705D02*
X59169998Y-77317000D01*
X80669998Y-76622705D02*
X80669998Y-77317000D01*
X102169998Y-76622705D02*
X102169998Y-77317000D01*
X123669998Y-76622705D02*
X123669998Y-77317000D01*
X59169998Y-95799705D02*
X59169998Y-96494000D01*
X80669998Y-95799705D02*
X80669998Y-96494000D01*
X102169998Y-95799705D02*
X102169998Y-96494000D01*
X123669998Y-95799705D02*
X123669998Y-96494000D01*
X59169998Y-114976705D02*
X59169998Y-115671000D01*
X80669998Y-114976705D02*
X80669998Y-115671000D01*
X102169998Y-114976705D02*
X102169998Y-115671000D01*
X123669998Y-114976705D02*
X123669998Y-115671000D01*
X59169998Y-134153705D02*
X59169998Y-134848000D01*
X80669998Y-134153705D02*
X80669998Y-134848000D01*
X102169998Y-134153705D02*
X102169998Y-134848000D01*
X123669998Y-134153705D02*
X123669998Y-134848000D01*
X80669998Y-59663998D02*
X81432000Y-60426000D01*
X102169998Y-59663998D02*
X102932000Y-60426000D01*
X123669998Y-59663998D02*
X124432000Y-60426000D01*
X59169998Y-78840998D02*
X59932000Y-79603000D01*
X80669998Y-78840998D02*
X81432000Y-79603000D01*
X102169998Y-78840998D02*
X102932000Y-79603000D01*
X123669998Y-78840998D02*
X124432000Y-79603000D01*
X59169998Y-98017998D02*
X59932000Y-98780000D01*
X80669998Y-98017998D02*
X81432000Y-98780000D01*
X102169998Y-98017998D02*
X102932000Y-98780000D01*
X123669998Y-98017998D02*
X124432000Y-98780000D01*
X59169998Y-117194998D02*
X59932000Y-117957000D01*
X80669998Y-117194998D02*
X81432000Y-117957000D01*
X102169998Y-117194998D02*
X102932000Y-117957000D01*
X123669998Y-117194998D02*
X124432000Y-117957000D01*
X59169998Y-136371998D02*
X59932000Y-137134000D01*
X80669998Y-136371998D02*
X81432000Y-137134000D01*
X102169998Y-136371998D02*
X102932000Y-137134000D01*
X123669998Y-136371998D02*
X124432000Y-137134000D01*
X80669998Y-58140000D02*
X80669998Y-59663998D01*
X102169998Y-58140000D02*
X102169998Y-59663998D01*
X123669998Y-58140000D02*
X123669998Y-59663998D01*
X59169998Y-77317000D02*
X59169998Y-78840998D01*
X80669998Y-77317000D02*
X80669998Y-78840998D01*
X102169998Y-77317000D02*
X102169998Y-78840998D01*
X123669998Y-77317000D02*
X123669998Y-78840998D01*
X59169998Y-96494000D02*
X59169998Y-98017998D01*
X80669998Y-96494000D02*
X80669998Y-98017998D01*
X102169998Y-96494000D02*
X102169998Y-98017998D01*
X123669998Y-96494000D02*
X123669998Y-98017998D01*
X59169998Y-115671000D02*
X59169998Y-117194998D01*
X80669998Y-115671000D02*
X80669998Y-117194998D01*
X102169998Y-115671000D02*
X102169998Y-117194998D01*
X123669998Y-115671000D02*
X123669998Y-117194998D01*
X59169998Y-134848000D02*
X59169998Y-136371998D01*
X80669998Y-134848000D02*
X80669998Y-136371998D01*
X102169998Y-134848000D02*
X102169998Y-136371998D01*
X123669998Y-134848000D02*
X123669998Y-136371998D01*
X77747392Y-56870000D02*
X78638000Y-55979392D01*
X99247392Y-56870000D02*
X100138000Y-55979392D01*
X120747392Y-56870000D02*
X121638000Y-55979392D01*
X56247392Y-76047000D02*
X57138000Y-75156392D01*
X77747392Y-76047000D02*
X78638000Y-75156392D01*
X99247392Y-76047000D02*
X100138000Y-75156392D01*
X120747392Y-76047000D02*
X121638000Y-75156392D01*
X56247392Y-95224000D02*
X57138000Y-94333392D01*
X77747392Y-95224000D02*
X78638000Y-94333392D01*
X99247392Y-95224000D02*
X100138000Y-94333392D01*
X120747392Y-95224000D02*
X121638000Y-94333392D01*
X56247392Y-114401000D02*
X57138000Y-113510392D01*
X77747392Y-114401000D02*
X78638000Y-113510392D01*
X99247392Y-114401000D02*
X100138000Y-113510392D01*
X120747392Y-114401000D02*
X121638000Y-113510392D01*
X56247392Y-133578000D02*
X57138000Y-132687392D01*
X77747392Y-133578000D02*
X78638000Y-132687392D01*
X99247392Y-133578000D02*
X100138000Y-132687392D01*
X120747392Y-133578000D02*
X121638000Y-132687392D01*
X76479000Y-56870000D02*
X77747392Y-56870000D01*
X97979000Y-56870000D02*
X99247392Y-56870000D01*
X119479000Y-56870000D02*
X120747392Y-56870000D01*
X54979000Y-76047000D02*
X56247392Y-76047000D01*
X76479000Y-76047000D02*
X77747392Y-76047000D01*
X97979000Y-76047000D02*
X99247392Y-76047000D01*
X119479000Y-76047000D02*
X120747392Y-76047000D01*
X54979000Y-95224000D02*
X56247392Y-95224000D01*
X76479000Y-95224000D02*
X77747392Y-95224000D01*
X97979000Y-95224000D02*
X99247392Y-95224000D01*
X119479000Y-95224000D02*
X120747392Y-95224000D01*
X54979000Y-114401000D02*
X56247392Y-114401000D01*
X76479000Y-114401000D02*
X77747392Y-114401000D01*
X97979000Y-114401000D02*
X99247392Y-114401000D01*
X119479000Y-114401000D02*
X120747392Y-114401000D01*
X54979000Y-133578000D02*
X56247392Y-133578000D01*
X76479000Y-133578000D02*
X77747392Y-133578000D01*
X97979000Y-133578000D02*
X99247392Y-133578000D01*
X119479000Y-133578000D02*
X120747392Y-133578000D01*
X76479000Y-52044000D02*
X76479000Y-49885000D01*
X97979000Y-52044000D02*
X97979000Y-49885000D01*
X119479000Y-52044000D02*
X119479000Y-49885000D01*
X54979000Y-71221000D02*
X54979000Y-69062000D01*
X76479000Y-71221000D02*
X76479000Y-69062000D01*
X97979000Y-71221000D02*
X97979000Y-69062000D01*
X119479000Y-71221000D02*
X119479000Y-69062000D01*
X54979000Y-90398000D02*
X54979000Y-88239000D01*
X76479000Y-90398000D02*
X76479000Y-88239000D01*
X97979000Y-90398000D02*
X97979000Y-88239000D01*
X119479000Y-90398000D02*
X119479000Y-88239000D01*
X54979000Y-109575000D02*
X54979000Y-107416000D01*
X76479000Y-109575000D02*
X76479000Y-107416000D01*
X97979000Y-109575000D02*
X97979000Y-107416000D01*
X119479000Y-109575000D02*
X119479000Y-107416000D01*
X54979000Y-128752000D02*
X54979000Y-126593000D01*
X76479000Y-128752000D02*
X76479000Y-126593000D01*
X97979000Y-128752000D02*
X97979000Y-126593000D01*
X119479000Y-128752000D02*
X119479000Y-126593000D01*
X76479000Y-49885000D02*
X75971000Y-49377000D01*
X97979000Y-49885000D02*
X97471000Y-49377000D01*
X119479000Y-49885000D02*
X118971000Y-49377000D01*
X54979000Y-69062000D02*
X54471000Y-68554000D01*
X76479000Y-69062000D02*
X75971000Y-68554000D01*
X97979000Y-69062000D02*
X97471000Y-68554000D01*
X119479000Y-69062000D02*
X118971000Y-68554000D01*
X54979000Y-88239000D02*
X54471000Y-87731000D01*
X76479000Y-88239000D02*
X75971000Y-87731000D01*
X97979000Y-88239000D02*
X97471000Y-87731000D01*
X119479000Y-88239000D02*
X118971000Y-87731000D01*
X54979000Y-107416000D02*
X54471000Y-106908000D01*
X76479000Y-107416000D02*
X75971000Y-106908000D01*
X97979000Y-107416000D02*
X97471000Y-106908000D01*
X119479000Y-107416000D02*
X118971000Y-106908000D01*
X54979000Y-126593000D02*
X54471000Y-126085000D01*
X76479000Y-126593000D02*
X75971000Y-126085000D01*
X97979000Y-126593000D02*
X97471000Y-126085000D01*
X119479000Y-126593000D02*
X118971000Y-126085000D01*
%TO.N,GND1*%
X57646000Y-48486000D02*
X61204000Y-52044000D01*
X57646000Y-47980000D02*
X57646000Y-48486000D01*
X61204000Y-52044000D02*
X62202001Y-53042001D01*
X62202001Y-53042001D02*
X62202001Y-55871999D01*
X62202001Y-55871999D02*
X61204000Y-56870000D01*
X83702001Y-55871999D02*
X82704000Y-56870000D01*
X105202001Y-55871999D02*
X104204000Y-56870000D01*
X126702001Y-55871999D02*
X125704000Y-56870000D01*
X62202001Y-75048999D02*
X61204000Y-76047000D01*
X83702001Y-75048999D02*
X82704000Y-76047000D01*
X105202001Y-75048999D02*
X104204000Y-76047000D01*
X126702001Y-75048999D02*
X125704000Y-76047000D01*
X62202001Y-94225999D02*
X61204000Y-95224000D01*
X83702001Y-94225999D02*
X82704000Y-95224000D01*
X105202001Y-94225999D02*
X104204000Y-95224000D01*
X126702001Y-94225999D02*
X125704000Y-95224000D01*
X62202001Y-113402999D02*
X61204000Y-114401000D01*
X83702001Y-113402999D02*
X82704000Y-114401000D01*
X105202001Y-113402999D02*
X104204000Y-114401000D01*
X126702001Y-113402999D02*
X125704000Y-114401000D01*
X62202001Y-132579999D02*
X61204000Y-133578000D01*
X83702001Y-132579999D02*
X82704000Y-133578000D01*
X105202001Y-132579999D02*
X104204000Y-133578000D01*
X126702001Y-132579999D02*
X125704000Y-133578000D01*
X83702001Y-53042001D02*
X83702001Y-55871999D01*
X105202001Y-53042001D02*
X105202001Y-55871999D01*
X126702001Y-53042001D02*
X126702001Y-55871999D01*
X62202001Y-72219001D02*
X62202001Y-75048999D01*
X83702001Y-72219001D02*
X83702001Y-75048999D01*
X105202001Y-72219001D02*
X105202001Y-75048999D01*
X126702001Y-72219001D02*
X126702001Y-75048999D01*
X62202001Y-91396001D02*
X62202001Y-94225999D01*
X83702001Y-91396001D02*
X83702001Y-94225999D01*
X105202001Y-91396001D02*
X105202001Y-94225999D01*
X126702001Y-91396001D02*
X126702001Y-94225999D01*
X62202001Y-110573001D02*
X62202001Y-113402999D01*
X83702001Y-110573001D02*
X83702001Y-113402999D01*
X105202001Y-110573001D02*
X105202001Y-113402999D01*
X126702001Y-110573001D02*
X126702001Y-113402999D01*
X62202001Y-129750001D02*
X62202001Y-132579999D01*
X83702001Y-129750001D02*
X83702001Y-132579999D01*
X105202001Y-129750001D02*
X105202001Y-132579999D01*
X126702001Y-129750001D02*
X126702001Y-132579999D01*
X82704000Y-52044000D02*
X83702001Y-53042001D01*
X104204000Y-52044000D02*
X105202001Y-53042001D01*
X125704000Y-52044000D02*
X126702001Y-53042001D01*
X61204000Y-71221000D02*
X62202001Y-72219001D01*
X82704000Y-71221000D02*
X83702001Y-72219001D01*
X104204000Y-71221000D02*
X105202001Y-72219001D01*
X125704000Y-71221000D02*
X126702001Y-72219001D01*
X61204000Y-90398000D02*
X62202001Y-91396001D01*
X82704000Y-90398000D02*
X83702001Y-91396001D01*
X104204000Y-90398000D02*
X105202001Y-91396001D01*
X125704000Y-90398000D02*
X126702001Y-91396001D01*
X61204000Y-109575000D02*
X62202001Y-110573001D01*
X82704000Y-109575000D02*
X83702001Y-110573001D01*
X104204000Y-109575000D02*
X105202001Y-110573001D01*
X125704000Y-109575000D02*
X126702001Y-110573001D01*
X61204000Y-128752000D02*
X62202001Y-129750001D01*
X82704000Y-128752000D02*
X83702001Y-129750001D01*
X104204000Y-128752000D02*
X105202001Y-129750001D01*
X125704000Y-128752000D02*
X126702001Y-129750001D01*
X79146000Y-47980000D02*
X79146000Y-48486000D01*
X100646000Y-47980000D02*
X100646000Y-48486000D01*
X122146000Y-47980000D02*
X122146000Y-48486000D01*
X57646000Y-67157000D02*
X57646000Y-67663000D01*
X79146000Y-67157000D02*
X79146000Y-67663000D01*
X100646000Y-67157000D02*
X100646000Y-67663000D01*
X122146000Y-67157000D02*
X122146000Y-67663000D01*
X57646000Y-86334000D02*
X57646000Y-86840000D01*
X79146000Y-86334000D02*
X79146000Y-86840000D01*
X100646000Y-86334000D02*
X100646000Y-86840000D01*
X122146000Y-86334000D02*
X122146000Y-86840000D01*
X57646000Y-105511000D02*
X57646000Y-106017000D01*
X79146000Y-105511000D02*
X79146000Y-106017000D01*
X100646000Y-105511000D02*
X100646000Y-106017000D01*
X122146000Y-105511000D02*
X122146000Y-106017000D01*
X57646000Y-124688000D02*
X57646000Y-125194000D01*
X79146000Y-124688000D02*
X79146000Y-125194000D01*
X100646000Y-124688000D02*
X100646000Y-125194000D01*
X122146000Y-124688000D02*
X122146000Y-125194000D01*
X79146000Y-48486000D02*
X82704000Y-52044000D01*
X100646000Y-48486000D02*
X104204000Y-52044000D01*
X122146000Y-48486000D02*
X125704000Y-52044000D01*
X57646000Y-67663000D02*
X61204000Y-71221000D01*
X79146000Y-67663000D02*
X82704000Y-71221000D01*
X100646000Y-67663000D02*
X104204000Y-71221000D01*
X122146000Y-67663000D02*
X125704000Y-71221000D01*
X57646000Y-86840000D02*
X61204000Y-90398000D01*
X79146000Y-86840000D02*
X82704000Y-90398000D01*
X100646000Y-86840000D02*
X104204000Y-90398000D01*
X122146000Y-86840000D02*
X125704000Y-90398000D01*
X57646000Y-106017000D02*
X61204000Y-109575000D01*
X79146000Y-106017000D02*
X82704000Y-109575000D01*
X100646000Y-106017000D02*
X104204000Y-109575000D01*
X122146000Y-106017000D02*
X125704000Y-109575000D01*
X57646000Y-125194000D02*
X61204000Y-128752000D01*
X79146000Y-125194000D02*
X82704000Y-128752000D01*
X100646000Y-125194000D02*
X104204000Y-128752000D01*
X122146000Y-125194000D02*
X125704000Y-128752000D01*
%TO.N,+5VP*%
X67552000Y-56616000D02*
X66790000Y-55854000D01*
X67552000Y-60426000D02*
X67552000Y-56616000D01*
X66790000Y-55854000D02*
X66790000Y-51916990D01*
X88290000Y-55854000D02*
X88290000Y-51916990D01*
X109790000Y-55854000D02*
X109790000Y-51916990D01*
X131290000Y-55854000D02*
X131290000Y-51916990D01*
X66790000Y-75031000D02*
X66790000Y-71093990D01*
X88290000Y-75031000D02*
X88290000Y-71093990D01*
X109790000Y-75031000D02*
X109790000Y-71093990D01*
X131290000Y-75031000D02*
X131290000Y-71093990D01*
X66790000Y-94208000D02*
X66790000Y-90270990D01*
X88290000Y-94208000D02*
X88290000Y-90270990D01*
X109790000Y-94208000D02*
X109790000Y-90270990D01*
X131290000Y-94208000D02*
X131290000Y-90270990D01*
X66790000Y-113385000D02*
X66790000Y-109447990D01*
X88290000Y-113385000D02*
X88290000Y-109447990D01*
X109790000Y-113385000D02*
X109790000Y-109447990D01*
X131290000Y-113385000D02*
X131290000Y-109447990D01*
X66790000Y-132562000D02*
X66790000Y-128624990D01*
X88290000Y-132562000D02*
X88290000Y-128624990D01*
X109790000Y-132562000D02*
X109790000Y-128624990D01*
X131290000Y-132562000D02*
X131290000Y-128624990D01*
X89052000Y-60426000D02*
X89052000Y-56616000D01*
X110552000Y-60426000D02*
X110552000Y-56616000D01*
X132052000Y-60426000D02*
X132052000Y-56616000D01*
X67552000Y-79603000D02*
X67552000Y-75793000D01*
X89052000Y-79603000D02*
X89052000Y-75793000D01*
X110552000Y-79603000D02*
X110552000Y-75793000D01*
X132052000Y-79603000D02*
X132052000Y-75793000D01*
X67552000Y-98780000D02*
X67552000Y-94970000D01*
X89052000Y-98780000D02*
X89052000Y-94970000D01*
X110552000Y-98780000D02*
X110552000Y-94970000D01*
X132052000Y-98780000D02*
X132052000Y-94970000D01*
X67552000Y-117957000D02*
X67552000Y-114147000D01*
X89052000Y-117957000D02*
X89052000Y-114147000D01*
X110552000Y-117957000D02*
X110552000Y-114147000D01*
X132052000Y-117957000D02*
X132052000Y-114147000D01*
X67552000Y-137134000D02*
X67552000Y-133324000D01*
X89052000Y-137134000D02*
X89052000Y-133324000D01*
X110552000Y-137134000D02*
X110552000Y-133324000D01*
X132052000Y-137134000D02*
X132052000Y-133324000D01*
X89052000Y-56616000D02*
X88290000Y-55854000D01*
X110552000Y-56616000D02*
X109790000Y-55854000D01*
X132052000Y-56616000D02*
X131290000Y-55854000D01*
X67552000Y-75793000D02*
X66790000Y-75031000D01*
X89052000Y-75793000D02*
X88290000Y-75031000D01*
X110552000Y-75793000D02*
X109790000Y-75031000D01*
X132052000Y-75793000D02*
X131290000Y-75031000D01*
X67552000Y-94970000D02*
X66790000Y-94208000D01*
X89052000Y-94970000D02*
X88290000Y-94208000D01*
X110552000Y-94970000D02*
X109790000Y-94208000D01*
X132052000Y-94970000D02*
X131290000Y-94208000D01*
X67552000Y-114147000D02*
X66790000Y-113385000D01*
X89052000Y-114147000D02*
X88290000Y-113385000D01*
X110552000Y-114147000D02*
X109790000Y-113385000D01*
X132052000Y-114147000D02*
X131290000Y-113385000D01*
X67552000Y-133324000D02*
X66790000Y-132562000D01*
X89052000Y-133324000D02*
X88290000Y-132562000D01*
X110552000Y-133324000D02*
X109790000Y-132562000D01*
X132052000Y-133324000D02*
X131290000Y-132562000D01*
D20*
%TO.N,+3.3VP*%
X71221000Y-47980000D02*
X71221000Y-54280000D01*
D19*
X71221000Y-56348000D02*
X71235000Y-56362000D01*
X71221000Y-54280000D02*
X71221000Y-56348000D01*
X71235000Y-57987000D02*
X71261000Y-58013000D01*
X71235000Y-56362000D02*
X71235000Y-57987000D01*
X72632000Y-59384000D02*
X71261000Y-58013000D01*
X72632000Y-60426000D02*
X72632000Y-59384000D01*
X94132000Y-60426000D02*
X94132000Y-59384000D01*
X115632000Y-60426000D02*
X115632000Y-59384000D01*
X137132000Y-60426000D02*
X137132000Y-59384000D01*
X72632000Y-79603000D02*
X72632000Y-78561000D01*
X94132000Y-79603000D02*
X94132000Y-78561000D01*
X115632000Y-79603000D02*
X115632000Y-78561000D01*
X137132000Y-79603000D02*
X137132000Y-78561000D01*
X72632000Y-98780000D02*
X72632000Y-97738000D01*
X94132000Y-98780000D02*
X94132000Y-97738000D01*
X115632000Y-98780000D02*
X115632000Y-97738000D01*
X137132000Y-98780000D02*
X137132000Y-97738000D01*
X72632000Y-117957000D02*
X72632000Y-116915000D01*
X94132000Y-117957000D02*
X94132000Y-116915000D01*
X115632000Y-117957000D02*
X115632000Y-116915000D01*
X137132000Y-117957000D02*
X137132000Y-116915000D01*
X72632000Y-137134000D02*
X72632000Y-136092000D01*
X94132000Y-137134000D02*
X94132000Y-136092000D01*
X115632000Y-137134000D02*
X115632000Y-136092000D01*
X137132000Y-137134000D02*
X137132000Y-136092000D01*
X94132000Y-59384000D02*
X92761000Y-58013000D01*
X115632000Y-59384000D02*
X114261000Y-58013000D01*
X137132000Y-59384000D02*
X135761000Y-58013000D01*
X72632000Y-78561000D02*
X71261000Y-77190000D01*
X94132000Y-78561000D02*
X92761000Y-77190000D01*
X115632000Y-78561000D02*
X114261000Y-77190000D01*
X137132000Y-78561000D02*
X135761000Y-77190000D01*
X72632000Y-97738000D02*
X71261000Y-96367000D01*
X94132000Y-97738000D02*
X92761000Y-96367000D01*
X115632000Y-97738000D02*
X114261000Y-96367000D01*
X137132000Y-97738000D02*
X135761000Y-96367000D01*
X72632000Y-116915000D02*
X71261000Y-115544000D01*
X94132000Y-116915000D02*
X92761000Y-115544000D01*
X115632000Y-116915000D02*
X114261000Y-115544000D01*
X137132000Y-116915000D02*
X135761000Y-115544000D01*
X72632000Y-136092000D02*
X71261000Y-134721000D01*
X94132000Y-136092000D02*
X92761000Y-134721000D01*
X115632000Y-136092000D02*
X114261000Y-134721000D01*
X137132000Y-136092000D02*
X135761000Y-134721000D01*
X92735000Y-56362000D02*
X92735000Y-57987000D01*
X114235000Y-56362000D02*
X114235000Y-57987000D01*
X135735000Y-56362000D02*
X135735000Y-57987000D01*
X71235000Y-75539000D02*
X71235000Y-77164000D01*
X92735000Y-75539000D02*
X92735000Y-77164000D01*
X114235000Y-75539000D02*
X114235000Y-77164000D01*
X135735000Y-75539000D02*
X135735000Y-77164000D01*
X71235000Y-94716000D02*
X71235000Y-96341000D01*
X92735000Y-94716000D02*
X92735000Y-96341000D01*
X114235000Y-94716000D02*
X114235000Y-96341000D01*
X135735000Y-94716000D02*
X135735000Y-96341000D01*
X71235000Y-113893000D02*
X71235000Y-115518000D01*
X92735000Y-113893000D02*
X92735000Y-115518000D01*
X114235000Y-113893000D02*
X114235000Y-115518000D01*
X135735000Y-113893000D02*
X135735000Y-115518000D01*
X71235000Y-133070000D02*
X71235000Y-134695000D01*
X92735000Y-133070000D02*
X92735000Y-134695000D01*
X114235000Y-133070000D02*
X114235000Y-134695000D01*
X135735000Y-133070000D02*
X135735000Y-134695000D01*
X92735000Y-57987000D02*
X92761000Y-58013000D01*
X114235000Y-57987000D02*
X114261000Y-58013000D01*
X135735000Y-57987000D02*
X135761000Y-58013000D01*
X71235000Y-77164000D02*
X71261000Y-77190000D01*
X92735000Y-77164000D02*
X92761000Y-77190000D01*
X114235000Y-77164000D02*
X114261000Y-77190000D01*
X135735000Y-77164000D02*
X135761000Y-77190000D01*
X71235000Y-96341000D02*
X71261000Y-96367000D01*
X92735000Y-96341000D02*
X92761000Y-96367000D01*
X114235000Y-96341000D02*
X114261000Y-96367000D01*
X135735000Y-96341000D02*
X135761000Y-96367000D01*
X71235000Y-115518000D02*
X71261000Y-115544000D01*
X92735000Y-115518000D02*
X92761000Y-115544000D01*
X114235000Y-115518000D02*
X114261000Y-115544000D01*
X135735000Y-115518000D02*
X135761000Y-115544000D01*
X71235000Y-134695000D02*
X71261000Y-134721000D01*
X92735000Y-134695000D02*
X92761000Y-134721000D01*
X114235000Y-134695000D02*
X114261000Y-134721000D01*
X135735000Y-134695000D02*
X135761000Y-134721000D01*
X92721000Y-54280000D02*
X92721000Y-56348000D01*
X114221000Y-54280000D02*
X114221000Y-56348000D01*
X135721000Y-54280000D02*
X135721000Y-56348000D01*
X71221000Y-73457000D02*
X71221000Y-75525000D01*
X92721000Y-73457000D02*
X92721000Y-75525000D01*
X114221000Y-73457000D02*
X114221000Y-75525000D01*
X135721000Y-73457000D02*
X135721000Y-75525000D01*
X71221000Y-92634000D02*
X71221000Y-94702000D01*
X92721000Y-92634000D02*
X92721000Y-94702000D01*
X114221000Y-92634000D02*
X114221000Y-94702000D01*
X135721000Y-92634000D02*
X135721000Y-94702000D01*
X71221000Y-111811000D02*
X71221000Y-113879000D01*
X92721000Y-111811000D02*
X92721000Y-113879000D01*
X114221000Y-111811000D02*
X114221000Y-113879000D01*
X135721000Y-111811000D02*
X135721000Y-113879000D01*
X71221000Y-130988000D02*
X71221000Y-133056000D01*
X92721000Y-130988000D02*
X92721000Y-133056000D01*
X114221000Y-130988000D02*
X114221000Y-133056000D01*
X135721000Y-130988000D02*
X135721000Y-133056000D01*
X92721000Y-56348000D02*
X92735000Y-56362000D01*
X114221000Y-56348000D02*
X114235000Y-56362000D01*
X135721000Y-56348000D02*
X135735000Y-56362000D01*
X71221000Y-75525000D02*
X71235000Y-75539000D01*
X92721000Y-75525000D02*
X92735000Y-75539000D01*
X114221000Y-75525000D02*
X114235000Y-75539000D01*
X135721000Y-75525000D02*
X135735000Y-75539000D01*
X71221000Y-94702000D02*
X71235000Y-94716000D01*
X92721000Y-94702000D02*
X92735000Y-94716000D01*
X114221000Y-94702000D02*
X114235000Y-94716000D01*
X135721000Y-94702000D02*
X135735000Y-94716000D01*
X71221000Y-113879000D02*
X71235000Y-113893000D01*
X92721000Y-113879000D02*
X92735000Y-113893000D01*
X114221000Y-113879000D02*
X114235000Y-113893000D01*
X135721000Y-113879000D02*
X135735000Y-113893000D01*
X71221000Y-133056000D02*
X71235000Y-133070000D01*
X92721000Y-133056000D02*
X92735000Y-133070000D01*
X114221000Y-133056000D02*
X114235000Y-133070000D01*
X135721000Y-133056000D02*
X135735000Y-133070000D01*
D20*
X92721000Y-47980000D02*
X92721000Y-54280000D01*
X114221000Y-47980000D02*
X114221000Y-54280000D01*
X135721000Y-47980000D02*
X135721000Y-54280000D01*
X71221000Y-67157000D02*
X71221000Y-73457000D01*
X92721000Y-67157000D02*
X92721000Y-73457000D01*
X114221000Y-67157000D02*
X114221000Y-73457000D01*
X135721000Y-67157000D02*
X135721000Y-73457000D01*
X71221000Y-86334000D02*
X71221000Y-92634000D01*
X92721000Y-86334000D02*
X92721000Y-92634000D01*
X114221000Y-86334000D02*
X114221000Y-92634000D01*
X135721000Y-86334000D02*
X135721000Y-92634000D01*
X71221000Y-105511000D02*
X71221000Y-111811000D01*
X92721000Y-105511000D02*
X92721000Y-111811000D01*
X114221000Y-105511000D02*
X114221000Y-111811000D01*
X135721000Y-105511000D02*
X135721000Y-111811000D01*
X71221000Y-124688000D02*
X71221000Y-130988000D01*
X92721000Y-124688000D02*
X92721000Y-130988000D01*
X114221000Y-124688000D02*
X114221000Y-130988000D01*
X135721000Y-124688000D02*
X135721000Y-130988000D01*
D19*
%TO.N,+5V*%
X54852000Y-60426000D02*
X57495964Y-57782036D01*
X76352000Y-60426000D02*
X78995964Y-57782036D01*
X97852000Y-60426000D02*
X100495964Y-57782036D01*
X119352000Y-60426000D02*
X121995964Y-57782036D01*
X54852000Y-79603000D02*
X57495964Y-76959036D01*
X76352000Y-79603000D02*
X78995964Y-76959036D01*
X97852000Y-79603000D02*
X100495964Y-76959036D01*
X119352000Y-79603000D02*
X121995964Y-76959036D01*
X54852000Y-98780000D02*
X57495964Y-96136036D01*
X76352000Y-98780000D02*
X78995964Y-96136036D01*
X97852000Y-98780000D02*
X100495964Y-96136036D01*
X119352000Y-98780000D02*
X121995964Y-96136036D01*
X54852000Y-117957000D02*
X57495964Y-115313036D01*
X76352000Y-117957000D02*
X78995964Y-115313036D01*
X97852000Y-117957000D02*
X100495964Y-115313036D01*
X119352000Y-117957000D02*
X121995964Y-115313036D01*
X54852000Y-137134000D02*
X57495964Y-134490036D01*
X76352000Y-137134000D02*
X78995964Y-134490036D01*
X97852000Y-137134000D02*
X100495964Y-134490036D01*
X119352000Y-137134000D02*
X121995964Y-134490036D01*
%TO.N,GND2*%
X69711000Y-56388000D02*
X69685000Y-56362000D01*
X69711000Y-58013000D02*
X69711000Y-56388000D01*
X69711000Y-60045000D02*
X70092000Y-60426000D01*
X69711000Y-58013000D02*
X69711000Y-60045000D01*
X69235000Y-56362000D02*
X69685000Y-56362000D01*
X68060000Y-55187000D02*
X69235000Y-56362000D01*
X68060000Y-53187000D02*
X68060000Y-55187000D01*
X91211000Y-56388000D02*
X91185000Y-56362000D01*
X112711000Y-56388000D02*
X112685000Y-56362000D01*
X134211000Y-56388000D02*
X134185000Y-56362000D01*
X69711000Y-75565000D02*
X69685000Y-75539000D01*
X91211000Y-75565000D02*
X91185000Y-75539000D01*
X112711000Y-75565000D02*
X112685000Y-75539000D01*
X134211000Y-75565000D02*
X134185000Y-75539000D01*
X69711000Y-94742000D02*
X69685000Y-94716000D01*
X91211000Y-94742000D02*
X91185000Y-94716000D01*
X112711000Y-94742000D02*
X112685000Y-94716000D01*
X134211000Y-94742000D02*
X134185000Y-94716000D01*
X69711000Y-113919000D02*
X69685000Y-113893000D01*
X91211000Y-113919000D02*
X91185000Y-113893000D01*
X112711000Y-113919000D02*
X112685000Y-113893000D01*
X134211000Y-113919000D02*
X134185000Y-113893000D01*
X69711000Y-133096000D02*
X69685000Y-133070000D01*
X91211000Y-133096000D02*
X91185000Y-133070000D01*
X112711000Y-133096000D02*
X112685000Y-133070000D01*
X134211000Y-133096000D02*
X134185000Y-133070000D01*
X91211000Y-58013000D02*
X91211000Y-56388000D01*
X112711000Y-58013000D02*
X112711000Y-56388000D01*
X134211000Y-58013000D02*
X134211000Y-56388000D01*
X69711000Y-77190000D02*
X69711000Y-75565000D01*
X91211000Y-77190000D02*
X91211000Y-75565000D01*
X112711000Y-77190000D02*
X112711000Y-75565000D01*
X134211000Y-77190000D02*
X134211000Y-75565000D01*
X69711000Y-96367000D02*
X69711000Y-94742000D01*
X91211000Y-96367000D02*
X91211000Y-94742000D01*
X112711000Y-96367000D02*
X112711000Y-94742000D01*
X134211000Y-96367000D02*
X134211000Y-94742000D01*
X69711000Y-115544000D02*
X69711000Y-113919000D01*
X91211000Y-115544000D02*
X91211000Y-113919000D01*
X112711000Y-115544000D02*
X112711000Y-113919000D01*
X134211000Y-115544000D02*
X134211000Y-113919000D01*
X69711000Y-134721000D02*
X69711000Y-133096000D01*
X91211000Y-134721000D02*
X91211000Y-133096000D01*
X112711000Y-134721000D02*
X112711000Y-133096000D01*
X134211000Y-134721000D02*
X134211000Y-133096000D01*
X91211000Y-60045000D02*
X91592000Y-60426000D01*
X112711000Y-60045000D02*
X113092000Y-60426000D01*
X134211000Y-60045000D02*
X134592000Y-60426000D01*
X69711000Y-79222000D02*
X70092000Y-79603000D01*
X91211000Y-79222000D02*
X91592000Y-79603000D01*
X112711000Y-79222000D02*
X113092000Y-79603000D01*
X134211000Y-79222000D02*
X134592000Y-79603000D01*
X69711000Y-98399000D02*
X70092000Y-98780000D01*
X91211000Y-98399000D02*
X91592000Y-98780000D01*
X112711000Y-98399000D02*
X113092000Y-98780000D01*
X134211000Y-98399000D02*
X134592000Y-98780000D01*
X69711000Y-117576000D02*
X70092000Y-117957000D01*
X91211000Y-117576000D02*
X91592000Y-117957000D01*
X112711000Y-117576000D02*
X113092000Y-117957000D01*
X134211000Y-117576000D02*
X134592000Y-117957000D01*
X69711000Y-136753000D02*
X70092000Y-137134000D01*
X91211000Y-136753000D02*
X91592000Y-137134000D01*
X112711000Y-136753000D02*
X113092000Y-137134000D01*
X134211000Y-136753000D02*
X134592000Y-137134000D01*
X91211000Y-58013000D02*
X91211000Y-60045000D01*
X112711000Y-58013000D02*
X112711000Y-60045000D01*
X134211000Y-58013000D02*
X134211000Y-60045000D01*
X69711000Y-77190000D02*
X69711000Y-79222000D01*
X91211000Y-77190000D02*
X91211000Y-79222000D01*
X112711000Y-77190000D02*
X112711000Y-79222000D01*
X134211000Y-77190000D02*
X134211000Y-79222000D01*
X69711000Y-96367000D02*
X69711000Y-98399000D01*
X91211000Y-96367000D02*
X91211000Y-98399000D01*
X112711000Y-96367000D02*
X112711000Y-98399000D01*
X134211000Y-96367000D02*
X134211000Y-98399000D01*
X69711000Y-115544000D02*
X69711000Y-117576000D01*
X91211000Y-115544000D02*
X91211000Y-117576000D01*
X112711000Y-115544000D02*
X112711000Y-117576000D01*
X134211000Y-115544000D02*
X134211000Y-117576000D01*
X69711000Y-134721000D02*
X69711000Y-136753000D01*
X91211000Y-134721000D02*
X91211000Y-136753000D01*
X112711000Y-134721000D02*
X112711000Y-136753000D01*
X134211000Y-134721000D02*
X134211000Y-136753000D01*
X90735000Y-56362000D02*
X91185000Y-56362000D01*
X112235000Y-56362000D02*
X112685000Y-56362000D01*
X133735000Y-56362000D02*
X134185000Y-56362000D01*
X69235000Y-75539000D02*
X69685000Y-75539000D01*
X90735000Y-75539000D02*
X91185000Y-75539000D01*
X112235000Y-75539000D02*
X112685000Y-75539000D01*
X133735000Y-75539000D02*
X134185000Y-75539000D01*
X69235000Y-94716000D02*
X69685000Y-94716000D01*
X90735000Y-94716000D02*
X91185000Y-94716000D01*
X112235000Y-94716000D02*
X112685000Y-94716000D01*
X133735000Y-94716000D02*
X134185000Y-94716000D01*
X69235000Y-113893000D02*
X69685000Y-113893000D01*
X90735000Y-113893000D02*
X91185000Y-113893000D01*
X112235000Y-113893000D02*
X112685000Y-113893000D01*
X133735000Y-113893000D02*
X134185000Y-113893000D01*
X69235000Y-133070000D02*
X69685000Y-133070000D01*
X90735000Y-133070000D02*
X91185000Y-133070000D01*
X112235000Y-133070000D02*
X112685000Y-133070000D01*
X133735000Y-133070000D02*
X134185000Y-133070000D01*
X89560000Y-55187000D02*
X90735000Y-56362000D01*
X111060000Y-55187000D02*
X112235000Y-56362000D01*
X132560000Y-55187000D02*
X133735000Y-56362000D01*
X68060000Y-74364000D02*
X69235000Y-75539000D01*
X89560000Y-74364000D02*
X90735000Y-75539000D01*
X111060000Y-74364000D02*
X112235000Y-75539000D01*
X132560000Y-74364000D02*
X133735000Y-75539000D01*
X68060000Y-93541000D02*
X69235000Y-94716000D01*
X89560000Y-93541000D02*
X90735000Y-94716000D01*
X111060000Y-93541000D02*
X112235000Y-94716000D01*
X132560000Y-93541000D02*
X133735000Y-94716000D01*
X68060000Y-112718000D02*
X69235000Y-113893000D01*
X89560000Y-112718000D02*
X90735000Y-113893000D01*
X111060000Y-112718000D02*
X112235000Y-113893000D01*
X132560000Y-112718000D02*
X133735000Y-113893000D01*
X68060000Y-131895000D02*
X69235000Y-133070000D01*
X89560000Y-131895000D02*
X90735000Y-133070000D01*
X111060000Y-131895000D02*
X112235000Y-133070000D01*
X132560000Y-131895000D02*
X133735000Y-133070000D01*
X89560000Y-53187000D02*
X89560000Y-55187000D01*
X111060000Y-53187000D02*
X111060000Y-55187000D01*
X132560000Y-53187000D02*
X132560000Y-55187000D01*
X68060000Y-72364000D02*
X68060000Y-74364000D01*
X89560000Y-72364000D02*
X89560000Y-74364000D01*
X111060000Y-72364000D02*
X111060000Y-74364000D01*
X132560000Y-72364000D02*
X132560000Y-74364000D01*
X68060000Y-91541000D02*
X68060000Y-93541000D01*
X89560000Y-91541000D02*
X89560000Y-93541000D01*
X111060000Y-91541000D02*
X111060000Y-93541000D01*
X132560000Y-91541000D02*
X132560000Y-93541000D01*
X68060000Y-110718000D02*
X68060000Y-112718000D01*
X89560000Y-110718000D02*
X89560000Y-112718000D01*
X111060000Y-110718000D02*
X111060000Y-112718000D01*
X132560000Y-110718000D02*
X132560000Y-112718000D01*
X68060000Y-129895000D02*
X68060000Y-131895000D01*
X89560000Y-129895000D02*
X89560000Y-131895000D01*
X111060000Y-129895000D02*
X111060000Y-131895000D01*
X132560000Y-129895000D02*
X132560000Y-131895000D01*
D21*
%TO.N,Net-(D1-Pad5)*%
X57773000Y-54457000D02*
X60694000Y-54457000D01*
X60694000Y-54457000D02*
X61202000Y-54965000D01*
X79273000Y-54457000D02*
X82194000Y-54457000D01*
X100773000Y-54457000D02*
X103694000Y-54457000D01*
X122273000Y-54457000D02*
X125194000Y-54457000D01*
X57773000Y-73634000D02*
X60694000Y-73634000D01*
X79273000Y-73634000D02*
X82194000Y-73634000D01*
X100773000Y-73634000D02*
X103694000Y-73634000D01*
X122273000Y-73634000D02*
X125194000Y-73634000D01*
X57773000Y-92811000D02*
X60694000Y-92811000D01*
X79273000Y-92811000D02*
X82194000Y-92811000D01*
X100773000Y-92811000D02*
X103694000Y-92811000D01*
X122273000Y-92811000D02*
X125194000Y-92811000D01*
X57773000Y-111988000D02*
X60694000Y-111988000D01*
X79273000Y-111988000D02*
X82194000Y-111988000D01*
X100773000Y-111988000D02*
X103694000Y-111988000D01*
X122273000Y-111988000D02*
X125194000Y-111988000D01*
X57773000Y-131165000D02*
X60694000Y-131165000D01*
X79273000Y-131165000D02*
X82194000Y-131165000D01*
X100773000Y-131165000D02*
X103694000Y-131165000D01*
X122273000Y-131165000D02*
X125194000Y-131165000D01*
X82194000Y-54457000D02*
X82702000Y-54965000D01*
X103694000Y-54457000D02*
X104202000Y-54965000D01*
X125194000Y-54457000D02*
X125702000Y-54965000D01*
X60694000Y-73634000D02*
X61202000Y-74142000D01*
X82194000Y-73634000D02*
X82702000Y-74142000D01*
X103694000Y-73634000D02*
X104202000Y-74142000D01*
X125194000Y-73634000D02*
X125702000Y-74142000D01*
X60694000Y-92811000D02*
X61202000Y-93319000D01*
X82194000Y-92811000D02*
X82702000Y-93319000D01*
X103694000Y-92811000D02*
X104202000Y-93319000D01*
X125194000Y-92811000D02*
X125702000Y-93319000D01*
X60694000Y-111988000D02*
X61202000Y-112496000D01*
X82194000Y-111988000D02*
X82702000Y-112496000D01*
X103694000Y-111988000D02*
X104202000Y-112496000D01*
X125194000Y-111988000D02*
X125702000Y-112496000D01*
X60694000Y-131165000D02*
X61202000Y-131673000D01*
X82194000Y-131165000D02*
X82702000Y-131673000D01*
X103694000Y-131165000D02*
X104202000Y-131673000D01*
X125194000Y-131165000D02*
X125702000Y-131673000D01*
%TD*%
M02*
