%TF.GenerationSoftware,KiCad,Pcbnew,(5.1.10)-1*%
%TF.CreationDate,2022-01-18T16:22:41+07:00*%
%TF.ProjectId,DC5V_DC5V3V3_v3_pnlz4x5,44433556-5f44-4433-9556-3356335f7633,rev?*%
%TF.SameCoordinates,Original*%
%TF.FileFunction,Soldermask,Top*%
%TF.FilePolarity,Negative*%
%FSLAX46Y46*%
G04 Gerber Fmt 4.6, Leading zero omitted, Abs format (unit mm)*
G04 Created by KiCad (PCBNEW (5.1.10)-1) date 2022-01-18 16:22:41*
%MOMM*%
%LPD*%
G01*
G04 APERTURE LIST*
%ADD10R,3.800000X2.000000*%
%ADD11R,1.500000X2.000000*%
%ADD12R,1.700000X1.700000*%
%ADD13O,1.700000X1.700000*%
%ADD14O,1.750000X2.250000*%
%ADD15R,1.750000X2.250000*%
G04 APERTURE END LIST*
D10*
%TO.C,U1*%
X135721000Y-130988000D03*
D11*
X135721000Y-124688000D03*
X133421000Y-124688000D03*
X138021000Y-124688000D03*
%TD*%
D10*
%TO.C,U1*%
X114221000Y-130988000D03*
D11*
X114221000Y-124688000D03*
X111921000Y-124688000D03*
X116521000Y-124688000D03*
%TD*%
D10*
%TO.C,U1*%
X92721000Y-130988000D03*
D11*
X92721000Y-124688000D03*
X90421000Y-124688000D03*
X95021000Y-124688000D03*
%TD*%
D10*
%TO.C,U1*%
X71221000Y-130988000D03*
D11*
X71221000Y-124688000D03*
X68921000Y-124688000D03*
X73521000Y-124688000D03*
%TD*%
D10*
%TO.C,U1*%
X135721000Y-111811000D03*
D11*
X135721000Y-105511000D03*
X133421000Y-105511000D03*
X138021000Y-105511000D03*
%TD*%
D10*
%TO.C,U1*%
X114221000Y-111811000D03*
D11*
X114221000Y-105511000D03*
X111921000Y-105511000D03*
X116521000Y-105511000D03*
%TD*%
D10*
%TO.C,U1*%
X92721000Y-111811000D03*
D11*
X92721000Y-105511000D03*
X90421000Y-105511000D03*
X95021000Y-105511000D03*
%TD*%
D10*
%TO.C,U1*%
X71221000Y-111811000D03*
D11*
X71221000Y-105511000D03*
X68921000Y-105511000D03*
X73521000Y-105511000D03*
%TD*%
D10*
%TO.C,U1*%
X135721000Y-92634000D03*
D11*
X135721000Y-86334000D03*
X133421000Y-86334000D03*
X138021000Y-86334000D03*
%TD*%
D10*
%TO.C,U1*%
X114221000Y-92634000D03*
D11*
X114221000Y-86334000D03*
X111921000Y-86334000D03*
X116521000Y-86334000D03*
%TD*%
D10*
%TO.C,U1*%
X92721000Y-92634000D03*
D11*
X92721000Y-86334000D03*
X90421000Y-86334000D03*
X95021000Y-86334000D03*
%TD*%
D10*
%TO.C,U1*%
X71221000Y-92634000D03*
D11*
X71221000Y-86334000D03*
X68921000Y-86334000D03*
X73521000Y-86334000D03*
%TD*%
D10*
%TO.C,U1*%
X135721000Y-73457000D03*
D11*
X135721000Y-67157000D03*
X133421000Y-67157000D03*
X138021000Y-67157000D03*
%TD*%
D10*
%TO.C,U1*%
X114221000Y-73457000D03*
D11*
X114221000Y-67157000D03*
X111921000Y-67157000D03*
X116521000Y-67157000D03*
%TD*%
D10*
%TO.C,U1*%
X92721000Y-73457000D03*
D11*
X92721000Y-67157000D03*
X90421000Y-67157000D03*
X95021000Y-67157000D03*
%TD*%
D10*
%TO.C,U1*%
X71221000Y-73457000D03*
D11*
X71221000Y-67157000D03*
X68921000Y-67157000D03*
X73521000Y-67157000D03*
%TD*%
D10*
%TO.C,U1*%
X135721000Y-54280000D03*
D11*
X135721000Y-47980000D03*
X133421000Y-47980000D03*
X138021000Y-47980000D03*
%TD*%
D10*
%TO.C,U1*%
X114221000Y-54280000D03*
D11*
X114221000Y-47980000D03*
X111921000Y-47980000D03*
X116521000Y-47980000D03*
%TD*%
D10*
%TO.C,U1*%
X92721000Y-54280000D03*
D11*
X92721000Y-47980000D03*
X90421000Y-47980000D03*
X95021000Y-47980000D03*
%TD*%
D12*
%TO.C,J1*%
X119352000Y-137134000D03*
D13*
X121892000Y-137134000D03*
X124432000Y-137134000D03*
X126972000Y-137134000D03*
%TD*%
D12*
%TO.C,J1*%
X97852000Y-137134000D03*
D13*
X100392000Y-137134000D03*
X102932000Y-137134000D03*
X105472000Y-137134000D03*
%TD*%
D12*
%TO.C,J1*%
X76352000Y-137134000D03*
D13*
X78892000Y-137134000D03*
X81432000Y-137134000D03*
X83972000Y-137134000D03*
%TD*%
D12*
%TO.C,J1*%
X54852000Y-137134000D03*
D13*
X57392000Y-137134000D03*
X59932000Y-137134000D03*
X62472000Y-137134000D03*
%TD*%
D12*
%TO.C,J1*%
X119352000Y-117957000D03*
D13*
X121892000Y-117957000D03*
X124432000Y-117957000D03*
X126972000Y-117957000D03*
%TD*%
D12*
%TO.C,J1*%
X97852000Y-117957000D03*
D13*
X100392000Y-117957000D03*
X102932000Y-117957000D03*
X105472000Y-117957000D03*
%TD*%
D12*
%TO.C,J1*%
X76352000Y-117957000D03*
D13*
X78892000Y-117957000D03*
X81432000Y-117957000D03*
X83972000Y-117957000D03*
%TD*%
D12*
%TO.C,J1*%
X54852000Y-117957000D03*
D13*
X57392000Y-117957000D03*
X59932000Y-117957000D03*
X62472000Y-117957000D03*
%TD*%
D12*
%TO.C,J1*%
X119352000Y-98780000D03*
D13*
X121892000Y-98780000D03*
X124432000Y-98780000D03*
X126972000Y-98780000D03*
%TD*%
D12*
%TO.C,J1*%
X97852000Y-98780000D03*
D13*
X100392000Y-98780000D03*
X102932000Y-98780000D03*
X105472000Y-98780000D03*
%TD*%
D12*
%TO.C,J1*%
X76352000Y-98780000D03*
D13*
X78892000Y-98780000D03*
X81432000Y-98780000D03*
X83972000Y-98780000D03*
%TD*%
D12*
%TO.C,J1*%
X54852000Y-98780000D03*
D13*
X57392000Y-98780000D03*
X59932000Y-98780000D03*
X62472000Y-98780000D03*
%TD*%
D12*
%TO.C,J1*%
X119352000Y-79603000D03*
D13*
X121892000Y-79603000D03*
X124432000Y-79603000D03*
X126972000Y-79603000D03*
%TD*%
D12*
%TO.C,J1*%
X97852000Y-79603000D03*
D13*
X100392000Y-79603000D03*
X102932000Y-79603000D03*
X105472000Y-79603000D03*
%TD*%
D12*
%TO.C,J1*%
X76352000Y-79603000D03*
D13*
X78892000Y-79603000D03*
X81432000Y-79603000D03*
X83972000Y-79603000D03*
%TD*%
D12*
%TO.C,J1*%
X54852000Y-79603000D03*
D13*
X57392000Y-79603000D03*
X59932000Y-79603000D03*
X62472000Y-79603000D03*
%TD*%
D12*
%TO.C,J1*%
X119352000Y-60426000D03*
D13*
X121892000Y-60426000D03*
X124432000Y-60426000D03*
X126972000Y-60426000D03*
%TD*%
D12*
%TO.C,J1*%
X97852000Y-60426000D03*
D13*
X100392000Y-60426000D03*
X102932000Y-60426000D03*
X105472000Y-60426000D03*
%TD*%
D12*
%TO.C,J1*%
X76352000Y-60426000D03*
D13*
X78892000Y-60426000D03*
X81432000Y-60426000D03*
X83972000Y-60426000D03*
%TD*%
D12*
%TO.C,J2*%
X132052000Y-137134000D03*
D13*
X134592000Y-137134000D03*
X137132000Y-137134000D03*
%TD*%
D12*
%TO.C,J2*%
X110552000Y-137134000D03*
D13*
X113092000Y-137134000D03*
X115632000Y-137134000D03*
%TD*%
D12*
%TO.C,J2*%
X89052000Y-137134000D03*
D13*
X91592000Y-137134000D03*
X94132000Y-137134000D03*
%TD*%
D12*
%TO.C,J2*%
X67552000Y-137134000D03*
D13*
X70092000Y-137134000D03*
X72632000Y-137134000D03*
%TD*%
D12*
%TO.C,J2*%
X132052000Y-117957000D03*
D13*
X134592000Y-117957000D03*
X137132000Y-117957000D03*
%TD*%
D12*
%TO.C,J2*%
X110552000Y-117957000D03*
D13*
X113092000Y-117957000D03*
X115632000Y-117957000D03*
%TD*%
D12*
%TO.C,J2*%
X89052000Y-117957000D03*
D13*
X91592000Y-117957000D03*
X94132000Y-117957000D03*
%TD*%
D12*
%TO.C,J2*%
X67552000Y-117957000D03*
D13*
X70092000Y-117957000D03*
X72632000Y-117957000D03*
%TD*%
D12*
%TO.C,J2*%
X132052000Y-98780000D03*
D13*
X134592000Y-98780000D03*
X137132000Y-98780000D03*
%TD*%
D12*
%TO.C,J2*%
X110552000Y-98780000D03*
D13*
X113092000Y-98780000D03*
X115632000Y-98780000D03*
%TD*%
D12*
%TO.C,J2*%
X89052000Y-98780000D03*
D13*
X91592000Y-98780000D03*
X94132000Y-98780000D03*
%TD*%
D12*
%TO.C,J2*%
X67552000Y-98780000D03*
D13*
X70092000Y-98780000D03*
X72632000Y-98780000D03*
%TD*%
D12*
%TO.C,J2*%
X132052000Y-79603000D03*
D13*
X134592000Y-79603000D03*
X137132000Y-79603000D03*
%TD*%
D12*
%TO.C,J2*%
X110552000Y-79603000D03*
D13*
X113092000Y-79603000D03*
X115632000Y-79603000D03*
%TD*%
D12*
%TO.C,J2*%
X89052000Y-79603000D03*
D13*
X91592000Y-79603000D03*
X94132000Y-79603000D03*
%TD*%
D12*
%TO.C,J2*%
X67552000Y-79603000D03*
D13*
X70092000Y-79603000D03*
X72632000Y-79603000D03*
%TD*%
D12*
%TO.C,J2*%
X132052000Y-60426000D03*
D13*
X134592000Y-60426000D03*
X137132000Y-60426000D03*
%TD*%
D12*
%TO.C,J2*%
X110552000Y-60426000D03*
D13*
X113092000Y-60426000D03*
X115632000Y-60426000D03*
%TD*%
D12*
%TO.C,J2*%
X89052000Y-60426000D03*
D13*
X91592000Y-60426000D03*
X94132000Y-60426000D03*
%TD*%
%TO.C,C7*%
G36*
G01*
X118441500Y-129777000D02*
X118441500Y-127727000D01*
G75*
G02*
X118691500Y-127477000I250000J0D01*
G01*
X120266500Y-127477000D01*
G75*
G02*
X120516500Y-127727000I0J-250000D01*
G01*
X120516500Y-129777000D01*
G75*
G02*
X120266500Y-130027000I-250000J0D01*
G01*
X118691500Y-130027000D01*
G75*
G02*
X118441500Y-129777000I0J250000D01*
G01*
G37*
G36*
G01*
X124666500Y-129777000D02*
X124666500Y-127727000D01*
G75*
G02*
X124916500Y-127477000I250000J0D01*
G01*
X126491500Y-127477000D01*
G75*
G02*
X126741500Y-127727000I0J-250000D01*
G01*
X126741500Y-129777000D01*
G75*
G02*
X126491500Y-130027000I-250000J0D01*
G01*
X124916500Y-130027000D01*
G75*
G02*
X124666500Y-129777000I0J250000D01*
G01*
G37*
%TD*%
%TO.C,C7*%
G36*
G01*
X96941500Y-129777000D02*
X96941500Y-127727000D01*
G75*
G02*
X97191500Y-127477000I250000J0D01*
G01*
X98766500Y-127477000D01*
G75*
G02*
X99016500Y-127727000I0J-250000D01*
G01*
X99016500Y-129777000D01*
G75*
G02*
X98766500Y-130027000I-250000J0D01*
G01*
X97191500Y-130027000D01*
G75*
G02*
X96941500Y-129777000I0J250000D01*
G01*
G37*
G36*
G01*
X103166500Y-129777000D02*
X103166500Y-127727000D01*
G75*
G02*
X103416500Y-127477000I250000J0D01*
G01*
X104991500Y-127477000D01*
G75*
G02*
X105241500Y-127727000I0J-250000D01*
G01*
X105241500Y-129777000D01*
G75*
G02*
X104991500Y-130027000I-250000J0D01*
G01*
X103416500Y-130027000D01*
G75*
G02*
X103166500Y-129777000I0J250000D01*
G01*
G37*
%TD*%
%TO.C,C7*%
G36*
G01*
X75441500Y-129777000D02*
X75441500Y-127727000D01*
G75*
G02*
X75691500Y-127477000I250000J0D01*
G01*
X77266500Y-127477000D01*
G75*
G02*
X77516500Y-127727000I0J-250000D01*
G01*
X77516500Y-129777000D01*
G75*
G02*
X77266500Y-130027000I-250000J0D01*
G01*
X75691500Y-130027000D01*
G75*
G02*
X75441500Y-129777000I0J250000D01*
G01*
G37*
G36*
G01*
X81666500Y-129777000D02*
X81666500Y-127727000D01*
G75*
G02*
X81916500Y-127477000I250000J0D01*
G01*
X83491500Y-127477000D01*
G75*
G02*
X83741500Y-127727000I0J-250000D01*
G01*
X83741500Y-129777000D01*
G75*
G02*
X83491500Y-130027000I-250000J0D01*
G01*
X81916500Y-130027000D01*
G75*
G02*
X81666500Y-129777000I0J250000D01*
G01*
G37*
%TD*%
%TO.C,C7*%
G36*
G01*
X53941500Y-129777000D02*
X53941500Y-127727000D01*
G75*
G02*
X54191500Y-127477000I250000J0D01*
G01*
X55766500Y-127477000D01*
G75*
G02*
X56016500Y-127727000I0J-250000D01*
G01*
X56016500Y-129777000D01*
G75*
G02*
X55766500Y-130027000I-250000J0D01*
G01*
X54191500Y-130027000D01*
G75*
G02*
X53941500Y-129777000I0J250000D01*
G01*
G37*
G36*
G01*
X60166500Y-129777000D02*
X60166500Y-127727000D01*
G75*
G02*
X60416500Y-127477000I250000J0D01*
G01*
X61991500Y-127477000D01*
G75*
G02*
X62241500Y-127727000I0J-250000D01*
G01*
X62241500Y-129777000D01*
G75*
G02*
X61991500Y-130027000I-250000J0D01*
G01*
X60416500Y-130027000D01*
G75*
G02*
X60166500Y-129777000I0J250000D01*
G01*
G37*
%TD*%
%TO.C,C7*%
G36*
G01*
X118441500Y-110600000D02*
X118441500Y-108550000D01*
G75*
G02*
X118691500Y-108300000I250000J0D01*
G01*
X120266500Y-108300000D01*
G75*
G02*
X120516500Y-108550000I0J-250000D01*
G01*
X120516500Y-110600000D01*
G75*
G02*
X120266500Y-110850000I-250000J0D01*
G01*
X118691500Y-110850000D01*
G75*
G02*
X118441500Y-110600000I0J250000D01*
G01*
G37*
G36*
G01*
X124666500Y-110600000D02*
X124666500Y-108550000D01*
G75*
G02*
X124916500Y-108300000I250000J0D01*
G01*
X126491500Y-108300000D01*
G75*
G02*
X126741500Y-108550000I0J-250000D01*
G01*
X126741500Y-110600000D01*
G75*
G02*
X126491500Y-110850000I-250000J0D01*
G01*
X124916500Y-110850000D01*
G75*
G02*
X124666500Y-110600000I0J250000D01*
G01*
G37*
%TD*%
%TO.C,C7*%
G36*
G01*
X96941500Y-110600000D02*
X96941500Y-108550000D01*
G75*
G02*
X97191500Y-108300000I250000J0D01*
G01*
X98766500Y-108300000D01*
G75*
G02*
X99016500Y-108550000I0J-250000D01*
G01*
X99016500Y-110600000D01*
G75*
G02*
X98766500Y-110850000I-250000J0D01*
G01*
X97191500Y-110850000D01*
G75*
G02*
X96941500Y-110600000I0J250000D01*
G01*
G37*
G36*
G01*
X103166500Y-110600000D02*
X103166500Y-108550000D01*
G75*
G02*
X103416500Y-108300000I250000J0D01*
G01*
X104991500Y-108300000D01*
G75*
G02*
X105241500Y-108550000I0J-250000D01*
G01*
X105241500Y-110600000D01*
G75*
G02*
X104991500Y-110850000I-250000J0D01*
G01*
X103416500Y-110850000D01*
G75*
G02*
X103166500Y-110600000I0J250000D01*
G01*
G37*
%TD*%
%TO.C,C7*%
G36*
G01*
X75441500Y-110600000D02*
X75441500Y-108550000D01*
G75*
G02*
X75691500Y-108300000I250000J0D01*
G01*
X77266500Y-108300000D01*
G75*
G02*
X77516500Y-108550000I0J-250000D01*
G01*
X77516500Y-110600000D01*
G75*
G02*
X77266500Y-110850000I-250000J0D01*
G01*
X75691500Y-110850000D01*
G75*
G02*
X75441500Y-110600000I0J250000D01*
G01*
G37*
G36*
G01*
X81666500Y-110600000D02*
X81666500Y-108550000D01*
G75*
G02*
X81916500Y-108300000I250000J0D01*
G01*
X83491500Y-108300000D01*
G75*
G02*
X83741500Y-108550000I0J-250000D01*
G01*
X83741500Y-110600000D01*
G75*
G02*
X83491500Y-110850000I-250000J0D01*
G01*
X81916500Y-110850000D01*
G75*
G02*
X81666500Y-110600000I0J250000D01*
G01*
G37*
%TD*%
%TO.C,C7*%
G36*
G01*
X53941500Y-110600000D02*
X53941500Y-108550000D01*
G75*
G02*
X54191500Y-108300000I250000J0D01*
G01*
X55766500Y-108300000D01*
G75*
G02*
X56016500Y-108550000I0J-250000D01*
G01*
X56016500Y-110600000D01*
G75*
G02*
X55766500Y-110850000I-250000J0D01*
G01*
X54191500Y-110850000D01*
G75*
G02*
X53941500Y-110600000I0J250000D01*
G01*
G37*
G36*
G01*
X60166500Y-110600000D02*
X60166500Y-108550000D01*
G75*
G02*
X60416500Y-108300000I250000J0D01*
G01*
X61991500Y-108300000D01*
G75*
G02*
X62241500Y-108550000I0J-250000D01*
G01*
X62241500Y-110600000D01*
G75*
G02*
X61991500Y-110850000I-250000J0D01*
G01*
X60416500Y-110850000D01*
G75*
G02*
X60166500Y-110600000I0J250000D01*
G01*
G37*
%TD*%
%TO.C,C7*%
G36*
G01*
X118441500Y-91423000D02*
X118441500Y-89373000D01*
G75*
G02*
X118691500Y-89123000I250000J0D01*
G01*
X120266500Y-89123000D01*
G75*
G02*
X120516500Y-89373000I0J-250000D01*
G01*
X120516500Y-91423000D01*
G75*
G02*
X120266500Y-91673000I-250000J0D01*
G01*
X118691500Y-91673000D01*
G75*
G02*
X118441500Y-91423000I0J250000D01*
G01*
G37*
G36*
G01*
X124666500Y-91423000D02*
X124666500Y-89373000D01*
G75*
G02*
X124916500Y-89123000I250000J0D01*
G01*
X126491500Y-89123000D01*
G75*
G02*
X126741500Y-89373000I0J-250000D01*
G01*
X126741500Y-91423000D01*
G75*
G02*
X126491500Y-91673000I-250000J0D01*
G01*
X124916500Y-91673000D01*
G75*
G02*
X124666500Y-91423000I0J250000D01*
G01*
G37*
%TD*%
%TO.C,C7*%
G36*
G01*
X96941500Y-91423000D02*
X96941500Y-89373000D01*
G75*
G02*
X97191500Y-89123000I250000J0D01*
G01*
X98766500Y-89123000D01*
G75*
G02*
X99016500Y-89373000I0J-250000D01*
G01*
X99016500Y-91423000D01*
G75*
G02*
X98766500Y-91673000I-250000J0D01*
G01*
X97191500Y-91673000D01*
G75*
G02*
X96941500Y-91423000I0J250000D01*
G01*
G37*
G36*
G01*
X103166500Y-91423000D02*
X103166500Y-89373000D01*
G75*
G02*
X103416500Y-89123000I250000J0D01*
G01*
X104991500Y-89123000D01*
G75*
G02*
X105241500Y-89373000I0J-250000D01*
G01*
X105241500Y-91423000D01*
G75*
G02*
X104991500Y-91673000I-250000J0D01*
G01*
X103416500Y-91673000D01*
G75*
G02*
X103166500Y-91423000I0J250000D01*
G01*
G37*
%TD*%
%TO.C,C7*%
G36*
G01*
X75441500Y-91423000D02*
X75441500Y-89373000D01*
G75*
G02*
X75691500Y-89123000I250000J0D01*
G01*
X77266500Y-89123000D01*
G75*
G02*
X77516500Y-89373000I0J-250000D01*
G01*
X77516500Y-91423000D01*
G75*
G02*
X77266500Y-91673000I-250000J0D01*
G01*
X75691500Y-91673000D01*
G75*
G02*
X75441500Y-91423000I0J250000D01*
G01*
G37*
G36*
G01*
X81666500Y-91423000D02*
X81666500Y-89373000D01*
G75*
G02*
X81916500Y-89123000I250000J0D01*
G01*
X83491500Y-89123000D01*
G75*
G02*
X83741500Y-89373000I0J-250000D01*
G01*
X83741500Y-91423000D01*
G75*
G02*
X83491500Y-91673000I-250000J0D01*
G01*
X81916500Y-91673000D01*
G75*
G02*
X81666500Y-91423000I0J250000D01*
G01*
G37*
%TD*%
%TO.C,C7*%
G36*
G01*
X53941500Y-91423000D02*
X53941500Y-89373000D01*
G75*
G02*
X54191500Y-89123000I250000J0D01*
G01*
X55766500Y-89123000D01*
G75*
G02*
X56016500Y-89373000I0J-250000D01*
G01*
X56016500Y-91423000D01*
G75*
G02*
X55766500Y-91673000I-250000J0D01*
G01*
X54191500Y-91673000D01*
G75*
G02*
X53941500Y-91423000I0J250000D01*
G01*
G37*
G36*
G01*
X60166500Y-91423000D02*
X60166500Y-89373000D01*
G75*
G02*
X60416500Y-89123000I250000J0D01*
G01*
X61991500Y-89123000D01*
G75*
G02*
X62241500Y-89373000I0J-250000D01*
G01*
X62241500Y-91423000D01*
G75*
G02*
X61991500Y-91673000I-250000J0D01*
G01*
X60416500Y-91673000D01*
G75*
G02*
X60166500Y-91423000I0J250000D01*
G01*
G37*
%TD*%
%TO.C,C7*%
G36*
G01*
X118441500Y-72246000D02*
X118441500Y-70196000D01*
G75*
G02*
X118691500Y-69946000I250000J0D01*
G01*
X120266500Y-69946000D01*
G75*
G02*
X120516500Y-70196000I0J-250000D01*
G01*
X120516500Y-72246000D01*
G75*
G02*
X120266500Y-72496000I-250000J0D01*
G01*
X118691500Y-72496000D01*
G75*
G02*
X118441500Y-72246000I0J250000D01*
G01*
G37*
G36*
G01*
X124666500Y-72246000D02*
X124666500Y-70196000D01*
G75*
G02*
X124916500Y-69946000I250000J0D01*
G01*
X126491500Y-69946000D01*
G75*
G02*
X126741500Y-70196000I0J-250000D01*
G01*
X126741500Y-72246000D01*
G75*
G02*
X126491500Y-72496000I-250000J0D01*
G01*
X124916500Y-72496000D01*
G75*
G02*
X124666500Y-72246000I0J250000D01*
G01*
G37*
%TD*%
%TO.C,C7*%
G36*
G01*
X96941500Y-72246000D02*
X96941500Y-70196000D01*
G75*
G02*
X97191500Y-69946000I250000J0D01*
G01*
X98766500Y-69946000D01*
G75*
G02*
X99016500Y-70196000I0J-250000D01*
G01*
X99016500Y-72246000D01*
G75*
G02*
X98766500Y-72496000I-250000J0D01*
G01*
X97191500Y-72496000D01*
G75*
G02*
X96941500Y-72246000I0J250000D01*
G01*
G37*
G36*
G01*
X103166500Y-72246000D02*
X103166500Y-70196000D01*
G75*
G02*
X103416500Y-69946000I250000J0D01*
G01*
X104991500Y-69946000D01*
G75*
G02*
X105241500Y-70196000I0J-250000D01*
G01*
X105241500Y-72246000D01*
G75*
G02*
X104991500Y-72496000I-250000J0D01*
G01*
X103416500Y-72496000D01*
G75*
G02*
X103166500Y-72246000I0J250000D01*
G01*
G37*
%TD*%
%TO.C,C7*%
G36*
G01*
X75441500Y-72246000D02*
X75441500Y-70196000D01*
G75*
G02*
X75691500Y-69946000I250000J0D01*
G01*
X77266500Y-69946000D01*
G75*
G02*
X77516500Y-70196000I0J-250000D01*
G01*
X77516500Y-72246000D01*
G75*
G02*
X77266500Y-72496000I-250000J0D01*
G01*
X75691500Y-72496000D01*
G75*
G02*
X75441500Y-72246000I0J250000D01*
G01*
G37*
G36*
G01*
X81666500Y-72246000D02*
X81666500Y-70196000D01*
G75*
G02*
X81916500Y-69946000I250000J0D01*
G01*
X83491500Y-69946000D01*
G75*
G02*
X83741500Y-70196000I0J-250000D01*
G01*
X83741500Y-72246000D01*
G75*
G02*
X83491500Y-72496000I-250000J0D01*
G01*
X81916500Y-72496000D01*
G75*
G02*
X81666500Y-72246000I0J250000D01*
G01*
G37*
%TD*%
%TO.C,C7*%
G36*
G01*
X53941500Y-72246000D02*
X53941500Y-70196000D01*
G75*
G02*
X54191500Y-69946000I250000J0D01*
G01*
X55766500Y-69946000D01*
G75*
G02*
X56016500Y-70196000I0J-250000D01*
G01*
X56016500Y-72246000D01*
G75*
G02*
X55766500Y-72496000I-250000J0D01*
G01*
X54191500Y-72496000D01*
G75*
G02*
X53941500Y-72246000I0J250000D01*
G01*
G37*
G36*
G01*
X60166500Y-72246000D02*
X60166500Y-70196000D01*
G75*
G02*
X60416500Y-69946000I250000J0D01*
G01*
X61991500Y-69946000D01*
G75*
G02*
X62241500Y-70196000I0J-250000D01*
G01*
X62241500Y-72246000D01*
G75*
G02*
X61991500Y-72496000I-250000J0D01*
G01*
X60416500Y-72496000D01*
G75*
G02*
X60166500Y-72246000I0J250000D01*
G01*
G37*
%TD*%
%TO.C,C7*%
G36*
G01*
X118441500Y-53069000D02*
X118441500Y-51019000D01*
G75*
G02*
X118691500Y-50769000I250000J0D01*
G01*
X120266500Y-50769000D01*
G75*
G02*
X120516500Y-51019000I0J-250000D01*
G01*
X120516500Y-53069000D01*
G75*
G02*
X120266500Y-53319000I-250000J0D01*
G01*
X118691500Y-53319000D01*
G75*
G02*
X118441500Y-53069000I0J250000D01*
G01*
G37*
G36*
G01*
X124666500Y-53069000D02*
X124666500Y-51019000D01*
G75*
G02*
X124916500Y-50769000I250000J0D01*
G01*
X126491500Y-50769000D01*
G75*
G02*
X126741500Y-51019000I0J-250000D01*
G01*
X126741500Y-53069000D01*
G75*
G02*
X126491500Y-53319000I-250000J0D01*
G01*
X124916500Y-53319000D01*
G75*
G02*
X124666500Y-53069000I0J250000D01*
G01*
G37*
%TD*%
%TO.C,C7*%
G36*
G01*
X96941500Y-53069000D02*
X96941500Y-51019000D01*
G75*
G02*
X97191500Y-50769000I250000J0D01*
G01*
X98766500Y-50769000D01*
G75*
G02*
X99016500Y-51019000I0J-250000D01*
G01*
X99016500Y-53069000D01*
G75*
G02*
X98766500Y-53319000I-250000J0D01*
G01*
X97191500Y-53319000D01*
G75*
G02*
X96941500Y-53069000I0J250000D01*
G01*
G37*
G36*
G01*
X103166500Y-53069000D02*
X103166500Y-51019000D01*
G75*
G02*
X103416500Y-50769000I250000J0D01*
G01*
X104991500Y-50769000D01*
G75*
G02*
X105241500Y-51019000I0J-250000D01*
G01*
X105241500Y-53069000D01*
G75*
G02*
X104991500Y-53319000I-250000J0D01*
G01*
X103416500Y-53319000D01*
G75*
G02*
X103166500Y-53069000I0J250000D01*
G01*
G37*
%TD*%
%TO.C,C7*%
G36*
G01*
X75441500Y-53069000D02*
X75441500Y-51019000D01*
G75*
G02*
X75691500Y-50769000I250000J0D01*
G01*
X77266500Y-50769000D01*
G75*
G02*
X77516500Y-51019000I0J-250000D01*
G01*
X77516500Y-53069000D01*
G75*
G02*
X77266500Y-53319000I-250000J0D01*
G01*
X75691500Y-53319000D01*
G75*
G02*
X75441500Y-53069000I0J250000D01*
G01*
G37*
G36*
G01*
X81666500Y-53069000D02*
X81666500Y-51019000D01*
G75*
G02*
X81916500Y-50769000I250000J0D01*
G01*
X83491500Y-50769000D01*
G75*
G02*
X83741500Y-51019000I0J-250000D01*
G01*
X83741500Y-53069000D01*
G75*
G02*
X83491500Y-53319000I-250000J0D01*
G01*
X81916500Y-53319000D01*
G75*
G02*
X81666500Y-53069000I0J250000D01*
G01*
G37*
%TD*%
%TO.C,C8*%
G36*
G01*
X118439500Y-134730000D02*
X118439500Y-132680000D01*
G75*
G02*
X118689500Y-132430000I250000J0D01*
G01*
X120264500Y-132430000D01*
G75*
G02*
X120514500Y-132680000I0J-250000D01*
G01*
X120514500Y-134730000D01*
G75*
G02*
X120264500Y-134980000I-250000J0D01*
G01*
X118689500Y-134980000D01*
G75*
G02*
X118439500Y-134730000I0J250000D01*
G01*
G37*
G36*
G01*
X124664500Y-134730000D02*
X124664500Y-132680000D01*
G75*
G02*
X124914500Y-132430000I250000J0D01*
G01*
X126489500Y-132430000D01*
G75*
G02*
X126739500Y-132680000I0J-250000D01*
G01*
X126739500Y-134730000D01*
G75*
G02*
X126489500Y-134980000I-250000J0D01*
G01*
X124914500Y-134980000D01*
G75*
G02*
X124664500Y-134730000I0J250000D01*
G01*
G37*
%TD*%
%TO.C,C8*%
G36*
G01*
X96939500Y-134730000D02*
X96939500Y-132680000D01*
G75*
G02*
X97189500Y-132430000I250000J0D01*
G01*
X98764500Y-132430000D01*
G75*
G02*
X99014500Y-132680000I0J-250000D01*
G01*
X99014500Y-134730000D01*
G75*
G02*
X98764500Y-134980000I-250000J0D01*
G01*
X97189500Y-134980000D01*
G75*
G02*
X96939500Y-134730000I0J250000D01*
G01*
G37*
G36*
G01*
X103164500Y-134730000D02*
X103164500Y-132680000D01*
G75*
G02*
X103414500Y-132430000I250000J0D01*
G01*
X104989500Y-132430000D01*
G75*
G02*
X105239500Y-132680000I0J-250000D01*
G01*
X105239500Y-134730000D01*
G75*
G02*
X104989500Y-134980000I-250000J0D01*
G01*
X103414500Y-134980000D01*
G75*
G02*
X103164500Y-134730000I0J250000D01*
G01*
G37*
%TD*%
%TO.C,C8*%
G36*
G01*
X75439500Y-134730000D02*
X75439500Y-132680000D01*
G75*
G02*
X75689500Y-132430000I250000J0D01*
G01*
X77264500Y-132430000D01*
G75*
G02*
X77514500Y-132680000I0J-250000D01*
G01*
X77514500Y-134730000D01*
G75*
G02*
X77264500Y-134980000I-250000J0D01*
G01*
X75689500Y-134980000D01*
G75*
G02*
X75439500Y-134730000I0J250000D01*
G01*
G37*
G36*
G01*
X81664500Y-134730000D02*
X81664500Y-132680000D01*
G75*
G02*
X81914500Y-132430000I250000J0D01*
G01*
X83489500Y-132430000D01*
G75*
G02*
X83739500Y-132680000I0J-250000D01*
G01*
X83739500Y-134730000D01*
G75*
G02*
X83489500Y-134980000I-250000J0D01*
G01*
X81914500Y-134980000D01*
G75*
G02*
X81664500Y-134730000I0J250000D01*
G01*
G37*
%TD*%
%TO.C,C8*%
G36*
G01*
X53939500Y-134730000D02*
X53939500Y-132680000D01*
G75*
G02*
X54189500Y-132430000I250000J0D01*
G01*
X55764500Y-132430000D01*
G75*
G02*
X56014500Y-132680000I0J-250000D01*
G01*
X56014500Y-134730000D01*
G75*
G02*
X55764500Y-134980000I-250000J0D01*
G01*
X54189500Y-134980000D01*
G75*
G02*
X53939500Y-134730000I0J250000D01*
G01*
G37*
G36*
G01*
X60164500Y-134730000D02*
X60164500Y-132680000D01*
G75*
G02*
X60414500Y-132430000I250000J0D01*
G01*
X61989500Y-132430000D01*
G75*
G02*
X62239500Y-132680000I0J-250000D01*
G01*
X62239500Y-134730000D01*
G75*
G02*
X61989500Y-134980000I-250000J0D01*
G01*
X60414500Y-134980000D01*
G75*
G02*
X60164500Y-134730000I0J250000D01*
G01*
G37*
%TD*%
%TO.C,C8*%
G36*
G01*
X118439500Y-115553000D02*
X118439500Y-113503000D01*
G75*
G02*
X118689500Y-113253000I250000J0D01*
G01*
X120264500Y-113253000D01*
G75*
G02*
X120514500Y-113503000I0J-250000D01*
G01*
X120514500Y-115553000D01*
G75*
G02*
X120264500Y-115803000I-250000J0D01*
G01*
X118689500Y-115803000D01*
G75*
G02*
X118439500Y-115553000I0J250000D01*
G01*
G37*
G36*
G01*
X124664500Y-115553000D02*
X124664500Y-113503000D01*
G75*
G02*
X124914500Y-113253000I250000J0D01*
G01*
X126489500Y-113253000D01*
G75*
G02*
X126739500Y-113503000I0J-250000D01*
G01*
X126739500Y-115553000D01*
G75*
G02*
X126489500Y-115803000I-250000J0D01*
G01*
X124914500Y-115803000D01*
G75*
G02*
X124664500Y-115553000I0J250000D01*
G01*
G37*
%TD*%
%TO.C,C8*%
G36*
G01*
X96939500Y-115553000D02*
X96939500Y-113503000D01*
G75*
G02*
X97189500Y-113253000I250000J0D01*
G01*
X98764500Y-113253000D01*
G75*
G02*
X99014500Y-113503000I0J-250000D01*
G01*
X99014500Y-115553000D01*
G75*
G02*
X98764500Y-115803000I-250000J0D01*
G01*
X97189500Y-115803000D01*
G75*
G02*
X96939500Y-115553000I0J250000D01*
G01*
G37*
G36*
G01*
X103164500Y-115553000D02*
X103164500Y-113503000D01*
G75*
G02*
X103414500Y-113253000I250000J0D01*
G01*
X104989500Y-113253000D01*
G75*
G02*
X105239500Y-113503000I0J-250000D01*
G01*
X105239500Y-115553000D01*
G75*
G02*
X104989500Y-115803000I-250000J0D01*
G01*
X103414500Y-115803000D01*
G75*
G02*
X103164500Y-115553000I0J250000D01*
G01*
G37*
%TD*%
%TO.C,C8*%
G36*
G01*
X75439500Y-115553000D02*
X75439500Y-113503000D01*
G75*
G02*
X75689500Y-113253000I250000J0D01*
G01*
X77264500Y-113253000D01*
G75*
G02*
X77514500Y-113503000I0J-250000D01*
G01*
X77514500Y-115553000D01*
G75*
G02*
X77264500Y-115803000I-250000J0D01*
G01*
X75689500Y-115803000D01*
G75*
G02*
X75439500Y-115553000I0J250000D01*
G01*
G37*
G36*
G01*
X81664500Y-115553000D02*
X81664500Y-113503000D01*
G75*
G02*
X81914500Y-113253000I250000J0D01*
G01*
X83489500Y-113253000D01*
G75*
G02*
X83739500Y-113503000I0J-250000D01*
G01*
X83739500Y-115553000D01*
G75*
G02*
X83489500Y-115803000I-250000J0D01*
G01*
X81914500Y-115803000D01*
G75*
G02*
X81664500Y-115553000I0J250000D01*
G01*
G37*
%TD*%
%TO.C,C8*%
G36*
G01*
X53939500Y-115553000D02*
X53939500Y-113503000D01*
G75*
G02*
X54189500Y-113253000I250000J0D01*
G01*
X55764500Y-113253000D01*
G75*
G02*
X56014500Y-113503000I0J-250000D01*
G01*
X56014500Y-115553000D01*
G75*
G02*
X55764500Y-115803000I-250000J0D01*
G01*
X54189500Y-115803000D01*
G75*
G02*
X53939500Y-115553000I0J250000D01*
G01*
G37*
G36*
G01*
X60164500Y-115553000D02*
X60164500Y-113503000D01*
G75*
G02*
X60414500Y-113253000I250000J0D01*
G01*
X61989500Y-113253000D01*
G75*
G02*
X62239500Y-113503000I0J-250000D01*
G01*
X62239500Y-115553000D01*
G75*
G02*
X61989500Y-115803000I-250000J0D01*
G01*
X60414500Y-115803000D01*
G75*
G02*
X60164500Y-115553000I0J250000D01*
G01*
G37*
%TD*%
%TO.C,C8*%
G36*
G01*
X118439500Y-96376000D02*
X118439500Y-94326000D01*
G75*
G02*
X118689500Y-94076000I250000J0D01*
G01*
X120264500Y-94076000D01*
G75*
G02*
X120514500Y-94326000I0J-250000D01*
G01*
X120514500Y-96376000D01*
G75*
G02*
X120264500Y-96626000I-250000J0D01*
G01*
X118689500Y-96626000D01*
G75*
G02*
X118439500Y-96376000I0J250000D01*
G01*
G37*
G36*
G01*
X124664500Y-96376000D02*
X124664500Y-94326000D01*
G75*
G02*
X124914500Y-94076000I250000J0D01*
G01*
X126489500Y-94076000D01*
G75*
G02*
X126739500Y-94326000I0J-250000D01*
G01*
X126739500Y-96376000D01*
G75*
G02*
X126489500Y-96626000I-250000J0D01*
G01*
X124914500Y-96626000D01*
G75*
G02*
X124664500Y-96376000I0J250000D01*
G01*
G37*
%TD*%
%TO.C,C8*%
G36*
G01*
X96939500Y-96376000D02*
X96939500Y-94326000D01*
G75*
G02*
X97189500Y-94076000I250000J0D01*
G01*
X98764500Y-94076000D01*
G75*
G02*
X99014500Y-94326000I0J-250000D01*
G01*
X99014500Y-96376000D01*
G75*
G02*
X98764500Y-96626000I-250000J0D01*
G01*
X97189500Y-96626000D01*
G75*
G02*
X96939500Y-96376000I0J250000D01*
G01*
G37*
G36*
G01*
X103164500Y-96376000D02*
X103164500Y-94326000D01*
G75*
G02*
X103414500Y-94076000I250000J0D01*
G01*
X104989500Y-94076000D01*
G75*
G02*
X105239500Y-94326000I0J-250000D01*
G01*
X105239500Y-96376000D01*
G75*
G02*
X104989500Y-96626000I-250000J0D01*
G01*
X103414500Y-96626000D01*
G75*
G02*
X103164500Y-96376000I0J250000D01*
G01*
G37*
%TD*%
%TO.C,C8*%
G36*
G01*
X75439500Y-96376000D02*
X75439500Y-94326000D01*
G75*
G02*
X75689500Y-94076000I250000J0D01*
G01*
X77264500Y-94076000D01*
G75*
G02*
X77514500Y-94326000I0J-250000D01*
G01*
X77514500Y-96376000D01*
G75*
G02*
X77264500Y-96626000I-250000J0D01*
G01*
X75689500Y-96626000D01*
G75*
G02*
X75439500Y-96376000I0J250000D01*
G01*
G37*
G36*
G01*
X81664500Y-96376000D02*
X81664500Y-94326000D01*
G75*
G02*
X81914500Y-94076000I250000J0D01*
G01*
X83489500Y-94076000D01*
G75*
G02*
X83739500Y-94326000I0J-250000D01*
G01*
X83739500Y-96376000D01*
G75*
G02*
X83489500Y-96626000I-250000J0D01*
G01*
X81914500Y-96626000D01*
G75*
G02*
X81664500Y-96376000I0J250000D01*
G01*
G37*
%TD*%
%TO.C,C8*%
G36*
G01*
X53939500Y-96376000D02*
X53939500Y-94326000D01*
G75*
G02*
X54189500Y-94076000I250000J0D01*
G01*
X55764500Y-94076000D01*
G75*
G02*
X56014500Y-94326000I0J-250000D01*
G01*
X56014500Y-96376000D01*
G75*
G02*
X55764500Y-96626000I-250000J0D01*
G01*
X54189500Y-96626000D01*
G75*
G02*
X53939500Y-96376000I0J250000D01*
G01*
G37*
G36*
G01*
X60164500Y-96376000D02*
X60164500Y-94326000D01*
G75*
G02*
X60414500Y-94076000I250000J0D01*
G01*
X61989500Y-94076000D01*
G75*
G02*
X62239500Y-94326000I0J-250000D01*
G01*
X62239500Y-96376000D01*
G75*
G02*
X61989500Y-96626000I-250000J0D01*
G01*
X60414500Y-96626000D01*
G75*
G02*
X60164500Y-96376000I0J250000D01*
G01*
G37*
%TD*%
%TO.C,C8*%
G36*
G01*
X118439500Y-77199000D02*
X118439500Y-75149000D01*
G75*
G02*
X118689500Y-74899000I250000J0D01*
G01*
X120264500Y-74899000D01*
G75*
G02*
X120514500Y-75149000I0J-250000D01*
G01*
X120514500Y-77199000D01*
G75*
G02*
X120264500Y-77449000I-250000J0D01*
G01*
X118689500Y-77449000D01*
G75*
G02*
X118439500Y-77199000I0J250000D01*
G01*
G37*
G36*
G01*
X124664500Y-77199000D02*
X124664500Y-75149000D01*
G75*
G02*
X124914500Y-74899000I250000J0D01*
G01*
X126489500Y-74899000D01*
G75*
G02*
X126739500Y-75149000I0J-250000D01*
G01*
X126739500Y-77199000D01*
G75*
G02*
X126489500Y-77449000I-250000J0D01*
G01*
X124914500Y-77449000D01*
G75*
G02*
X124664500Y-77199000I0J250000D01*
G01*
G37*
%TD*%
%TO.C,C8*%
G36*
G01*
X96939500Y-77199000D02*
X96939500Y-75149000D01*
G75*
G02*
X97189500Y-74899000I250000J0D01*
G01*
X98764500Y-74899000D01*
G75*
G02*
X99014500Y-75149000I0J-250000D01*
G01*
X99014500Y-77199000D01*
G75*
G02*
X98764500Y-77449000I-250000J0D01*
G01*
X97189500Y-77449000D01*
G75*
G02*
X96939500Y-77199000I0J250000D01*
G01*
G37*
G36*
G01*
X103164500Y-77199000D02*
X103164500Y-75149000D01*
G75*
G02*
X103414500Y-74899000I250000J0D01*
G01*
X104989500Y-74899000D01*
G75*
G02*
X105239500Y-75149000I0J-250000D01*
G01*
X105239500Y-77199000D01*
G75*
G02*
X104989500Y-77449000I-250000J0D01*
G01*
X103414500Y-77449000D01*
G75*
G02*
X103164500Y-77199000I0J250000D01*
G01*
G37*
%TD*%
%TO.C,C8*%
G36*
G01*
X75439500Y-77199000D02*
X75439500Y-75149000D01*
G75*
G02*
X75689500Y-74899000I250000J0D01*
G01*
X77264500Y-74899000D01*
G75*
G02*
X77514500Y-75149000I0J-250000D01*
G01*
X77514500Y-77199000D01*
G75*
G02*
X77264500Y-77449000I-250000J0D01*
G01*
X75689500Y-77449000D01*
G75*
G02*
X75439500Y-77199000I0J250000D01*
G01*
G37*
G36*
G01*
X81664500Y-77199000D02*
X81664500Y-75149000D01*
G75*
G02*
X81914500Y-74899000I250000J0D01*
G01*
X83489500Y-74899000D01*
G75*
G02*
X83739500Y-75149000I0J-250000D01*
G01*
X83739500Y-77199000D01*
G75*
G02*
X83489500Y-77449000I-250000J0D01*
G01*
X81914500Y-77449000D01*
G75*
G02*
X81664500Y-77199000I0J250000D01*
G01*
G37*
%TD*%
%TO.C,C8*%
G36*
G01*
X53939500Y-77199000D02*
X53939500Y-75149000D01*
G75*
G02*
X54189500Y-74899000I250000J0D01*
G01*
X55764500Y-74899000D01*
G75*
G02*
X56014500Y-75149000I0J-250000D01*
G01*
X56014500Y-77199000D01*
G75*
G02*
X55764500Y-77449000I-250000J0D01*
G01*
X54189500Y-77449000D01*
G75*
G02*
X53939500Y-77199000I0J250000D01*
G01*
G37*
G36*
G01*
X60164500Y-77199000D02*
X60164500Y-75149000D01*
G75*
G02*
X60414500Y-74899000I250000J0D01*
G01*
X61989500Y-74899000D01*
G75*
G02*
X62239500Y-75149000I0J-250000D01*
G01*
X62239500Y-77199000D01*
G75*
G02*
X61989500Y-77449000I-250000J0D01*
G01*
X60414500Y-77449000D01*
G75*
G02*
X60164500Y-77199000I0J250000D01*
G01*
G37*
%TD*%
%TO.C,C8*%
G36*
G01*
X118439500Y-58022000D02*
X118439500Y-55972000D01*
G75*
G02*
X118689500Y-55722000I250000J0D01*
G01*
X120264500Y-55722000D01*
G75*
G02*
X120514500Y-55972000I0J-250000D01*
G01*
X120514500Y-58022000D01*
G75*
G02*
X120264500Y-58272000I-250000J0D01*
G01*
X118689500Y-58272000D01*
G75*
G02*
X118439500Y-58022000I0J250000D01*
G01*
G37*
G36*
G01*
X124664500Y-58022000D02*
X124664500Y-55972000D01*
G75*
G02*
X124914500Y-55722000I250000J0D01*
G01*
X126489500Y-55722000D01*
G75*
G02*
X126739500Y-55972000I0J-250000D01*
G01*
X126739500Y-58022000D01*
G75*
G02*
X126489500Y-58272000I-250000J0D01*
G01*
X124914500Y-58272000D01*
G75*
G02*
X124664500Y-58022000I0J250000D01*
G01*
G37*
%TD*%
%TO.C,C8*%
G36*
G01*
X96939500Y-58022000D02*
X96939500Y-55972000D01*
G75*
G02*
X97189500Y-55722000I250000J0D01*
G01*
X98764500Y-55722000D01*
G75*
G02*
X99014500Y-55972000I0J-250000D01*
G01*
X99014500Y-58022000D01*
G75*
G02*
X98764500Y-58272000I-250000J0D01*
G01*
X97189500Y-58272000D01*
G75*
G02*
X96939500Y-58022000I0J250000D01*
G01*
G37*
G36*
G01*
X103164500Y-58022000D02*
X103164500Y-55972000D01*
G75*
G02*
X103414500Y-55722000I250000J0D01*
G01*
X104989500Y-55722000D01*
G75*
G02*
X105239500Y-55972000I0J-250000D01*
G01*
X105239500Y-58022000D01*
G75*
G02*
X104989500Y-58272000I-250000J0D01*
G01*
X103414500Y-58272000D01*
G75*
G02*
X103164500Y-58022000I0J250000D01*
G01*
G37*
%TD*%
%TO.C,C8*%
G36*
G01*
X75439500Y-58022000D02*
X75439500Y-55972000D01*
G75*
G02*
X75689500Y-55722000I250000J0D01*
G01*
X77264500Y-55722000D01*
G75*
G02*
X77514500Y-55972000I0J-250000D01*
G01*
X77514500Y-58022000D01*
G75*
G02*
X77264500Y-58272000I-250000J0D01*
G01*
X75689500Y-58272000D01*
G75*
G02*
X75439500Y-58022000I0J250000D01*
G01*
G37*
G36*
G01*
X81664500Y-58022000D02*
X81664500Y-55972000D01*
G75*
G02*
X81914500Y-55722000I250000J0D01*
G01*
X83489500Y-55722000D01*
G75*
G02*
X83739500Y-55972000I0J-250000D01*
G01*
X83739500Y-58022000D01*
G75*
G02*
X83489500Y-58272000I-250000J0D01*
G01*
X81914500Y-58272000D01*
G75*
G02*
X81664500Y-58022000I0J250000D01*
G01*
G37*
%TD*%
%TO.C,C15*%
G36*
G01*
X133735000Y-133320000D02*
X133735000Y-132820000D01*
G75*
G02*
X133960000Y-132595000I225000J0D01*
G01*
X134410000Y-132595000D01*
G75*
G02*
X134635000Y-132820000I0J-225000D01*
G01*
X134635000Y-133320000D01*
G75*
G02*
X134410000Y-133545000I-225000J0D01*
G01*
X133960000Y-133545000D01*
G75*
G02*
X133735000Y-133320000I0J225000D01*
G01*
G37*
G36*
G01*
X135285000Y-133320000D02*
X135285000Y-132820000D01*
G75*
G02*
X135510000Y-132595000I225000J0D01*
G01*
X135960000Y-132595000D01*
G75*
G02*
X136185000Y-132820000I0J-225000D01*
G01*
X136185000Y-133320000D01*
G75*
G02*
X135960000Y-133545000I-225000J0D01*
G01*
X135510000Y-133545000D01*
G75*
G02*
X135285000Y-133320000I0J225000D01*
G01*
G37*
%TD*%
%TO.C,C15*%
G36*
G01*
X112235000Y-133320000D02*
X112235000Y-132820000D01*
G75*
G02*
X112460000Y-132595000I225000J0D01*
G01*
X112910000Y-132595000D01*
G75*
G02*
X113135000Y-132820000I0J-225000D01*
G01*
X113135000Y-133320000D01*
G75*
G02*
X112910000Y-133545000I-225000J0D01*
G01*
X112460000Y-133545000D01*
G75*
G02*
X112235000Y-133320000I0J225000D01*
G01*
G37*
G36*
G01*
X113785000Y-133320000D02*
X113785000Y-132820000D01*
G75*
G02*
X114010000Y-132595000I225000J0D01*
G01*
X114460000Y-132595000D01*
G75*
G02*
X114685000Y-132820000I0J-225000D01*
G01*
X114685000Y-133320000D01*
G75*
G02*
X114460000Y-133545000I-225000J0D01*
G01*
X114010000Y-133545000D01*
G75*
G02*
X113785000Y-133320000I0J225000D01*
G01*
G37*
%TD*%
%TO.C,C15*%
G36*
G01*
X90735000Y-133320000D02*
X90735000Y-132820000D01*
G75*
G02*
X90960000Y-132595000I225000J0D01*
G01*
X91410000Y-132595000D01*
G75*
G02*
X91635000Y-132820000I0J-225000D01*
G01*
X91635000Y-133320000D01*
G75*
G02*
X91410000Y-133545000I-225000J0D01*
G01*
X90960000Y-133545000D01*
G75*
G02*
X90735000Y-133320000I0J225000D01*
G01*
G37*
G36*
G01*
X92285000Y-133320000D02*
X92285000Y-132820000D01*
G75*
G02*
X92510000Y-132595000I225000J0D01*
G01*
X92960000Y-132595000D01*
G75*
G02*
X93185000Y-132820000I0J-225000D01*
G01*
X93185000Y-133320000D01*
G75*
G02*
X92960000Y-133545000I-225000J0D01*
G01*
X92510000Y-133545000D01*
G75*
G02*
X92285000Y-133320000I0J225000D01*
G01*
G37*
%TD*%
%TO.C,C15*%
G36*
G01*
X69235000Y-133320000D02*
X69235000Y-132820000D01*
G75*
G02*
X69460000Y-132595000I225000J0D01*
G01*
X69910000Y-132595000D01*
G75*
G02*
X70135000Y-132820000I0J-225000D01*
G01*
X70135000Y-133320000D01*
G75*
G02*
X69910000Y-133545000I-225000J0D01*
G01*
X69460000Y-133545000D01*
G75*
G02*
X69235000Y-133320000I0J225000D01*
G01*
G37*
G36*
G01*
X70785000Y-133320000D02*
X70785000Y-132820000D01*
G75*
G02*
X71010000Y-132595000I225000J0D01*
G01*
X71460000Y-132595000D01*
G75*
G02*
X71685000Y-132820000I0J-225000D01*
G01*
X71685000Y-133320000D01*
G75*
G02*
X71460000Y-133545000I-225000J0D01*
G01*
X71010000Y-133545000D01*
G75*
G02*
X70785000Y-133320000I0J225000D01*
G01*
G37*
%TD*%
%TO.C,C15*%
G36*
G01*
X133735000Y-114143000D02*
X133735000Y-113643000D01*
G75*
G02*
X133960000Y-113418000I225000J0D01*
G01*
X134410000Y-113418000D01*
G75*
G02*
X134635000Y-113643000I0J-225000D01*
G01*
X134635000Y-114143000D01*
G75*
G02*
X134410000Y-114368000I-225000J0D01*
G01*
X133960000Y-114368000D01*
G75*
G02*
X133735000Y-114143000I0J225000D01*
G01*
G37*
G36*
G01*
X135285000Y-114143000D02*
X135285000Y-113643000D01*
G75*
G02*
X135510000Y-113418000I225000J0D01*
G01*
X135960000Y-113418000D01*
G75*
G02*
X136185000Y-113643000I0J-225000D01*
G01*
X136185000Y-114143000D01*
G75*
G02*
X135960000Y-114368000I-225000J0D01*
G01*
X135510000Y-114368000D01*
G75*
G02*
X135285000Y-114143000I0J225000D01*
G01*
G37*
%TD*%
%TO.C,C15*%
G36*
G01*
X112235000Y-114143000D02*
X112235000Y-113643000D01*
G75*
G02*
X112460000Y-113418000I225000J0D01*
G01*
X112910000Y-113418000D01*
G75*
G02*
X113135000Y-113643000I0J-225000D01*
G01*
X113135000Y-114143000D01*
G75*
G02*
X112910000Y-114368000I-225000J0D01*
G01*
X112460000Y-114368000D01*
G75*
G02*
X112235000Y-114143000I0J225000D01*
G01*
G37*
G36*
G01*
X113785000Y-114143000D02*
X113785000Y-113643000D01*
G75*
G02*
X114010000Y-113418000I225000J0D01*
G01*
X114460000Y-113418000D01*
G75*
G02*
X114685000Y-113643000I0J-225000D01*
G01*
X114685000Y-114143000D01*
G75*
G02*
X114460000Y-114368000I-225000J0D01*
G01*
X114010000Y-114368000D01*
G75*
G02*
X113785000Y-114143000I0J225000D01*
G01*
G37*
%TD*%
%TO.C,C15*%
G36*
G01*
X90735000Y-114143000D02*
X90735000Y-113643000D01*
G75*
G02*
X90960000Y-113418000I225000J0D01*
G01*
X91410000Y-113418000D01*
G75*
G02*
X91635000Y-113643000I0J-225000D01*
G01*
X91635000Y-114143000D01*
G75*
G02*
X91410000Y-114368000I-225000J0D01*
G01*
X90960000Y-114368000D01*
G75*
G02*
X90735000Y-114143000I0J225000D01*
G01*
G37*
G36*
G01*
X92285000Y-114143000D02*
X92285000Y-113643000D01*
G75*
G02*
X92510000Y-113418000I225000J0D01*
G01*
X92960000Y-113418000D01*
G75*
G02*
X93185000Y-113643000I0J-225000D01*
G01*
X93185000Y-114143000D01*
G75*
G02*
X92960000Y-114368000I-225000J0D01*
G01*
X92510000Y-114368000D01*
G75*
G02*
X92285000Y-114143000I0J225000D01*
G01*
G37*
%TD*%
%TO.C,C15*%
G36*
G01*
X69235000Y-114143000D02*
X69235000Y-113643000D01*
G75*
G02*
X69460000Y-113418000I225000J0D01*
G01*
X69910000Y-113418000D01*
G75*
G02*
X70135000Y-113643000I0J-225000D01*
G01*
X70135000Y-114143000D01*
G75*
G02*
X69910000Y-114368000I-225000J0D01*
G01*
X69460000Y-114368000D01*
G75*
G02*
X69235000Y-114143000I0J225000D01*
G01*
G37*
G36*
G01*
X70785000Y-114143000D02*
X70785000Y-113643000D01*
G75*
G02*
X71010000Y-113418000I225000J0D01*
G01*
X71460000Y-113418000D01*
G75*
G02*
X71685000Y-113643000I0J-225000D01*
G01*
X71685000Y-114143000D01*
G75*
G02*
X71460000Y-114368000I-225000J0D01*
G01*
X71010000Y-114368000D01*
G75*
G02*
X70785000Y-114143000I0J225000D01*
G01*
G37*
%TD*%
%TO.C,C15*%
G36*
G01*
X133735000Y-94966000D02*
X133735000Y-94466000D01*
G75*
G02*
X133960000Y-94241000I225000J0D01*
G01*
X134410000Y-94241000D01*
G75*
G02*
X134635000Y-94466000I0J-225000D01*
G01*
X134635000Y-94966000D01*
G75*
G02*
X134410000Y-95191000I-225000J0D01*
G01*
X133960000Y-95191000D01*
G75*
G02*
X133735000Y-94966000I0J225000D01*
G01*
G37*
G36*
G01*
X135285000Y-94966000D02*
X135285000Y-94466000D01*
G75*
G02*
X135510000Y-94241000I225000J0D01*
G01*
X135960000Y-94241000D01*
G75*
G02*
X136185000Y-94466000I0J-225000D01*
G01*
X136185000Y-94966000D01*
G75*
G02*
X135960000Y-95191000I-225000J0D01*
G01*
X135510000Y-95191000D01*
G75*
G02*
X135285000Y-94966000I0J225000D01*
G01*
G37*
%TD*%
%TO.C,C15*%
G36*
G01*
X112235000Y-94966000D02*
X112235000Y-94466000D01*
G75*
G02*
X112460000Y-94241000I225000J0D01*
G01*
X112910000Y-94241000D01*
G75*
G02*
X113135000Y-94466000I0J-225000D01*
G01*
X113135000Y-94966000D01*
G75*
G02*
X112910000Y-95191000I-225000J0D01*
G01*
X112460000Y-95191000D01*
G75*
G02*
X112235000Y-94966000I0J225000D01*
G01*
G37*
G36*
G01*
X113785000Y-94966000D02*
X113785000Y-94466000D01*
G75*
G02*
X114010000Y-94241000I225000J0D01*
G01*
X114460000Y-94241000D01*
G75*
G02*
X114685000Y-94466000I0J-225000D01*
G01*
X114685000Y-94966000D01*
G75*
G02*
X114460000Y-95191000I-225000J0D01*
G01*
X114010000Y-95191000D01*
G75*
G02*
X113785000Y-94966000I0J225000D01*
G01*
G37*
%TD*%
%TO.C,C15*%
G36*
G01*
X90735000Y-94966000D02*
X90735000Y-94466000D01*
G75*
G02*
X90960000Y-94241000I225000J0D01*
G01*
X91410000Y-94241000D01*
G75*
G02*
X91635000Y-94466000I0J-225000D01*
G01*
X91635000Y-94966000D01*
G75*
G02*
X91410000Y-95191000I-225000J0D01*
G01*
X90960000Y-95191000D01*
G75*
G02*
X90735000Y-94966000I0J225000D01*
G01*
G37*
G36*
G01*
X92285000Y-94966000D02*
X92285000Y-94466000D01*
G75*
G02*
X92510000Y-94241000I225000J0D01*
G01*
X92960000Y-94241000D01*
G75*
G02*
X93185000Y-94466000I0J-225000D01*
G01*
X93185000Y-94966000D01*
G75*
G02*
X92960000Y-95191000I-225000J0D01*
G01*
X92510000Y-95191000D01*
G75*
G02*
X92285000Y-94966000I0J225000D01*
G01*
G37*
%TD*%
%TO.C,C15*%
G36*
G01*
X69235000Y-94966000D02*
X69235000Y-94466000D01*
G75*
G02*
X69460000Y-94241000I225000J0D01*
G01*
X69910000Y-94241000D01*
G75*
G02*
X70135000Y-94466000I0J-225000D01*
G01*
X70135000Y-94966000D01*
G75*
G02*
X69910000Y-95191000I-225000J0D01*
G01*
X69460000Y-95191000D01*
G75*
G02*
X69235000Y-94966000I0J225000D01*
G01*
G37*
G36*
G01*
X70785000Y-94966000D02*
X70785000Y-94466000D01*
G75*
G02*
X71010000Y-94241000I225000J0D01*
G01*
X71460000Y-94241000D01*
G75*
G02*
X71685000Y-94466000I0J-225000D01*
G01*
X71685000Y-94966000D01*
G75*
G02*
X71460000Y-95191000I-225000J0D01*
G01*
X71010000Y-95191000D01*
G75*
G02*
X70785000Y-94966000I0J225000D01*
G01*
G37*
%TD*%
%TO.C,C15*%
G36*
G01*
X133735000Y-75789000D02*
X133735000Y-75289000D01*
G75*
G02*
X133960000Y-75064000I225000J0D01*
G01*
X134410000Y-75064000D01*
G75*
G02*
X134635000Y-75289000I0J-225000D01*
G01*
X134635000Y-75789000D01*
G75*
G02*
X134410000Y-76014000I-225000J0D01*
G01*
X133960000Y-76014000D01*
G75*
G02*
X133735000Y-75789000I0J225000D01*
G01*
G37*
G36*
G01*
X135285000Y-75789000D02*
X135285000Y-75289000D01*
G75*
G02*
X135510000Y-75064000I225000J0D01*
G01*
X135960000Y-75064000D01*
G75*
G02*
X136185000Y-75289000I0J-225000D01*
G01*
X136185000Y-75789000D01*
G75*
G02*
X135960000Y-76014000I-225000J0D01*
G01*
X135510000Y-76014000D01*
G75*
G02*
X135285000Y-75789000I0J225000D01*
G01*
G37*
%TD*%
%TO.C,C15*%
G36*
G01*
X112235000Y-75789000D02*
X112235000Y-75289000D01*
G75*
G02*
X112460000Y-75064000I225000J0D01*
G01*
X112910000Y-75064000D01*
G75*
G02*
X113135000Y-75289000I0J-225000D01*
G01*
X113135000Y-75789000D01*
G75*
G02*
X112910000Y-76014000I-225000J0D01*
G01*
X112460000Y-76014000D01*
G75*
G02*
X112235000Y-75789000I0J225000D01*
G01*
G37*
G36*
G01*
X113785000Y-75789000D02*
X113785000Y-75289000D01*
G75*
G02*
X114010000Y-75064000I225000J0D01*
G01*
X114460000Y-75064000D01*
G75*
G02*
X114685000Y-75289000I0J-225000D01*
G01*
X114685000Y-75789000D01*
G75*
G02*
X114460000Y-76014000I-225000J0D01*
G01*
X114010000Y-76014000D01*
G75*
G02*
X113785000Y-75789000I0J225000D01*
G01*
G37*
%TD*%
%TO.C,C15*%
G36*
G01*
X90735000Y-75789000D02*
X90735000Y-75289000D01*
G75*
G02*
X90960000Y-75064000I225000J0D01*
G01*
X91410000Y-75064000D01*
G75*
G02*
X91635000Y-75289000I0J-225000D01*
G01*
X91635000Y-75789000D01*
G75*
G02*
X91410000Y-76014000I-225000J0D01*
G01*
X90960000Y-76014000D01*
G75*
G02*
X90735000Y-75789000I0J225000D01*
G01*
G37*
G36*
G01*
X92285000Y-75789000D02*
X92285000Y-75289000D01*
G75*
G02*
X92510000Y-75064000I225000J0D01*
G01*
X92960000Y-75064000D01*
G75*
G02*
X93185000Y-75289000I0J-225000D01*
G01*
X93185000Y-75789000D01*
G75*
G02*
X92960000Y-76014000I-225000J0D01*
G01*
X92510000Y-76014000D01*
G75*
G02*
X92285000Y-75789000I0J225000D01*
G01*
G37*
%TD*%
%TO.C,C15*%
G36*
G01*
X69235000Y-75789000D02*
X69235000Y-75289000D01*
G75*
G02*
X69460000Y-75064000I225000J0D01*
G01*
X69910000Y-75064000D01*
G75*
G02*
X70135000Y-75289000I0J-225000D01*
G01*
X70135000Y-75789000D01*
G75*
G02*
X69910000Y-76014000I-225000J0D01*
G01*
X69460000Y-76014000D01*
G75*
G02*
X69235000Y-75789000I0J225000D01*
G01*
G37*
G36*
G01*
X70785000Y-75789000D02*
X70785000Y-75289000D01*
G75*
G02*
X71010000Y-75064000I225000J0D01*
G01*
X71460000Y-75064000D01*
G75*
G02*
X71685000Y-75289000I0J-225000D01*
G01*
X71685000Y-75789000D01*
G75*
G02*
X71460000Y-76014000I-225000J0D01*
G01*
X71010000Y-76014000D01*
G75*
G02*
X70785000Y-75789000I0J225000D01*
G01*
G37*
%TD*%
%TO.C,C15*%
G36*
G01*
X133735000Y-56612000D02*
X133735000Y-56112000D01*
G75*
G02*
X133960000Y-55887000I225000J0D01*
G01*
X134410000Y-55887000D01*
G75*
G02*
X134635000Y-56112000I0J-225000D01*
G01*
X134635000Y-56612000D01*
G75*
G02*
X134410000Y-56837000I-225000J0D01*
G01*
X133960000Y-56837000D01*
G75*
G02*
X133735000Y-56612000I0J225000D01*
G01*
G37*
G36*
G01*
X135285000Y-56612000D02*
X135285000Y-56112000D01*
G75*
G02*
X135510000Y-55887000I225000J0D01*
G01*
X135960000Y-55887000D01*
G75*
G02*
X136185000Y-56112000I0J-225000D01*
G01*
X136185000Y-56612000D01*
G75*
G02*
X135960000Y-56837000I-225000J0D01*
G01*
X135510000Y-56837000D01*
G75*
G02*
X135285000Y-56612000I0J225000D01*
G01*
G37*
%TD*%
%TO.C,C15*%
G36*
G01*
X112235000Y-56612000D02*
X112235000Y-56112000D01*
G75*
G02*
X112460000Y-55887000I225000J0D01*
G01*
X112910000Y-55887000D01*
G75*
G02*
X113135000Y-56112000I0J-225000D01*
G01*
X113135000Y-56612000D01*
G75*
G02*
X112910000Y-56837000I-225000J0D01*
G01*
X112460000Y-56837000D01*
G75*
G02*
X112235000Y-56612000I0J225000D01*
G01*
G37*
G36*
G01*
X113785000Y-56612000D02*
X113785000Y-56112000D01*
G75*
G02*
X114010000Y-55887000I225000J0D01*
G01*
X114460000Y-55887000D01*
G75*
G02*
X114685000Y-56112000I0J-225000D01*
G01*
X114685000Y-56612000D01*
G75*
G02*
X114460000Y-56837000I-225000J0D01*
G01*
X114010000Y-56837000D01*
G75*
G02*
X113785000Y-56612000I0J225000D01*
G01*
G37*
%TD*%
%TO.C,C15*%
G36*
G01*
X90735000Y-56612000D02*
X90735000Y-56112000D01*
G75*
G02*
X90960000Y-55887000I225000J0D01*
G01*
X91410000Y-55887000D01*
G75*
G02*
X91635000Y-56112000I0J-225000D01*
G01*
X91635000Y-56612000D01*
G75*
G02*
X91410000Y-56837000I-225000J0D01*
G01*
X90960000Y-56837000D01*
G75*
G02*
X90735000Y-56612000I0J225000D01*
G01*
G37*
G36*
G01*
X92285000Y-56612000D02*
X92285000Y-56112000D01*
G75*
G02*
X92510000Y-55887000I225000J0D01*
G01*
X92960000Y-55887000D01*
G75*
G02*
X93185000Y-56112000I0J-225000D01*
G01*
X93185000Y-56612000D01*
G75*
G02*
X92960000Y-56837000I-225000J0D01*
G01*
X92510000Y-56837000D01*
G75*
G02*
X92285000Y-56612000I0J225000D01*
G01*
G37*
%TD*%
%TO.C,C16*%
G36*
G01*
X133761000Y-134971000D02*
X133761000Y-134471000D01*
G75*
G02*
X133986000Y-134246000I225000J0D01*
G01*
X134436000Y-134246000D01*
G75*
G02*
X134661000Y-134471000I0J-225000D01*
G01*
X134661000Y-134971000D01*
G75*
G02*
X134436000Y-135196000I-225000J0D01*
G01*
X133986000Y-135196000D01*
G75*
G02*
X133761000Y-134971000I0J225000D01*
G01*
G37*
G36*
G01*
X135311000Y-134971000D02*
X135311000Y-134471000D01*
G75*
G02*
X135536000Y-134246000I225000J0D01*
G01*
X135986000Y-134246000D01*
G75*
G02*
X136211000Y-134471000I0J-225000D01*
G01*
X136211000Y-134971000D01*
G75*
G02*
X135986000Y-135196000I-225000J0D01*
G01*
X135536000Y-135196000D01*
G75*
G02*
X135311000Y-134971000I0J225000D01*
G01*
G37*
%TD*%
%TO.C,C16*%
G36*
G01*
X112261000Y-134971000D02*
X112261000Y-134471000D01*
G75*
G02*
X112486000Y-134246000I225000J0D01*
G01*
X112936000Y-134246000D01*
G75*
G02*
X113161000Y-134471000I0J-225000D01*
G01*
X113161000Y-134971000D01*
G75*
G02*
X112936000Y-135196000I-225000J0D01*
G01*
X112486000Y-135196000D01*
G75*
G02*
X112261000Y-134971000I0J225000D01*
G01*
G37*
G36*
G01*
X113811000Y-134971000D02*
X113811000Y-134471000D01*
G75*
G02*
X114036000Y-134246000I225000J0D01*
G01*
X114486000Y-134246000D01*
G75*
G02*
X114711000Y-134471000I0J-225000D01*
G01*
X114711000Y-134971000D01*
G75*
G02*
X114486000Y-135196000I-225000J0D01*
G01*
X114036000Y-135196000D01*
G75*
G02*
X113811000Y-134971000I0J225000D01*
G01*
G37*
%TD*%
%TO.C,C16*%
G36*
G01*
X90761000Y-134971000D02*
X90761000Y-134471000D01*
G75*
G02*
X90986000Y-134246000I225000J0D01*
G01*
X91436000Y-134246000D01*
G75*
G02*
X91661000Y-134471000I0J-225000D01*
G01*
X91661000Y-134971000D01*
G75*
G02*
X91436000Y-135196000I-225000J0D01*
G01*
X90986000Y-135196000D01*
G75*
G02*
X90761000Y-134971000I0J225000D01*
G01*
G37*
G36*
G01*
X92311000Y-134971000D02*
X92311000Y-134471000D01*
G75*
G02*
X92536000Y-134246000I225000J0D01*
G01*
X92986000Y-134246000D01*
G75*
G02*
X93211000Y-134471000I0J-225000D01*
G01*
X93211000Y-134971000D01*
G75*
G02*
X92986000Y-135196000I-225000J0D01*
G01*
X92536000Y-135196000D01*
G75*
G02*
X92311000Y-134971000I0J225000D01*
G01*
G37*
%TD*%
%TO.C,C16*%
G36*
G01*
X69261000Y-134971000D02*
X69261000Y-134471000D01*
G75*
G02*
X69486000Y-134246000I225000J0D01*
G01*
X69936000Y-134246000D01*
G75*
G02*
X70161000Y-134471000I0J-225000D01*
G01*
X70161000Y-134971000D01*
G75*
G02*
X69936000Y-135196000I-225000J0D01*
G01*
X69486000Y-135196000D01*
G75*
G02*
X69261000Y-134971000I0J225000D01*
G01*
G37*
G36*
G01*
X70811000Y-134971000D02*
X70811000Y-134471000D01*
G75*
G02*
X71036000Y-134246000I225000J0D01*
G01*
X71486000Y-134246000D01*
G75*
G02*
X71711000Y-134471000I0J-225000D01*
G01*
X71711000Y-134971000D01*
G75*
G02*
X71486000Y-135196000I-225000J0D01*
G01*
X71036000Y-135196000D01*
G75*
G02*
X70811000Y-134971000I0J225000D01*
G01*
G37*
%TD*%
%TO.C,C16*%
G36*
G01*
X133761000Y-115794000D02*
X133761000Y-115294000D01*
G75*
G02*
X133986000Y-115069000I225000J0D01*
G01*
X134436000Y-115069000D01*
G75*
G02*
X134661000Y-115294000I0J-225000D01*
G01*
X134661000Y-115794000D01*
G75*
G02*
X134436000Y-116019000I-225000J0D01*
G01*
X133986000Y-116019000D01*
G75*
G02*
X133761000Y-115794000I0J225000D01*
G01*
G37*
G36*
G01*
X135311000Y-115794000D02*
X135311000Y-115294000D01*
G75*
G02*
X135536000Y-115069000I225000J0D01*
G01*
X135986000Y-115069000D01*
G75*
G02*
X136211000Y-115294000I0J-225000D01*
G01*
X136211000Y-115794000D01*
G75*
G02*
X135986000Y-116019000I-225000J0D01*
G01*
X135536000Y-116019000D01*
G75*
G02*
X135311000Y-115794000I0J225000D01*
G01*
G37*
%TD*%
%TO.C,C16*%
G36*
G01*
X112261000Y-115794000D02*
X112261000Y-115294000D01*
G75*
G02*
X112486000Y-115069000I225000J0D01*
G01*
X112936000Y-115069000D01*
G75*
G02*
X113161000Y-115294000I0J-225000D01*
G01*
X113161000Y-115794000D01*
G75*
G02*
X112936000Y-116019000I-225000J0D01*
G01*
X112486000Y-116019000D01*
G75*
G02*
X112261000Y-115794000I0J225000D01*
G01*
G37*
G36*
G01*
X113811000Y-115794000D02*
X113811000Y-115294000D01*
G75*
G02*
X114036000Y-115069000I225000J0D01*
G01*
X114486000Y-115069000D01*
G75*
G02*
X114711000Y-115294000I0J-225000D01*
G01*
X114711000Y-115794000D01*
G75*
G02*
X114486000Y-116019000I-225000J0D01*
G01*
X114036000Y-116019000D01*
G75*
G02*
X113811000Y-115794000I0J225000D01*
G01*
G37*
%TD*%
%TO.C,C16*%
G36*
G01*
X90761000Y-115794000D02*
X90761000Y-115294000D01*
G75*
G02*
X90986000Y-115069000I225000J0D01*
G01*
X91436000Y-115069000D01*
G75*
G02*
X91661000Y-115294000I0J-225000D01*
G01*
X91661000Y-115794000D01*
G75*
G02*
X91436000Y-116019000I-225000J0D01*
G01*
X90986000Y-116019000D01*
G75*
G02*
X90761000Y-115794000I0J225000D01*
G01*
G37*
G36*
G01*
X92311000Y-115794000D02*
X92311000Y-115294000D01*
G75*
G02*
X92536000Y-115069000I225000J0D01*
G01*
X92986000Y-115069000D01*
G75*
G02*
X93211000Y-115294000I0J-225000D01*
G01*
X93211000Y-115794000D01*
G75*
G02*
X92986000Y-116019000I-225000J0D01*
G01*
X92536000Y-116019000D01*
G75*
G02*
X92311000Y-115794000I0J225000D01*
G01*
G37*
%TD*%
%TO.C,C16*%
G36*
G01*
X69261000Y-115794000D02*
X69261000Y-115294000D01*
G75*
G02*
X69486000Y-115069000I225000J0D01*
G01*
X69936000Y-115069000D01*
G75*
G02*
X70161000Y-115294000I0J-225000D01*
G01*
X70161000Y-115794000D01*
G75*
G02*
X69936000Y-116019000I-225000J0D01*
G01*
X69486000Y-116019000D01*
G75*
G02*
X69261000Y-115794000I0J225000D01*
G01*
G37*
G36*
G01*
X70811000Y-115794000D02*
X70811000Y-115294000D01*
G75*
G02*
X71036000Y-115069000I225000J0D01*
G01*
X71486000Y-115069000D01*
G75*
G02*
X71711000Y-115294000I0J-225000D01*
G01*
X71711000Y-115794000D01*
G75*
G02*
X71486000Y-116019000I-225000J0D01*
G01*
X71036000Y-116019000D01*
G75*
G02*
X70811000Y-115794000I0J225000D01*
G01*
G37*
%TD*%
%TO.C,C16*%
G36*
G01*
X133761000Y-96617000D02*
X133761000Y-96117000D01*
G75*
G02*
X133986000Y-95892000I225000J0D01*
G01*
X134436000Y-95892000D01*
G75*
G02*
X134661000Y-96117000I0J-225000D01*
G01*
X134661000Y-96617000D01*
G75*
G02*
X134436000Y-96842000I-225000J0D01*
G01*
X133986000Y-96842000D01*
G75*
G02*
X133761000Y-96617000I0J225000D01*
G01*
G37*
G36*
G01*
X135311000Y-96617000D02*
X135311000Y-96117000D01*
G75*
G02*
X135536000Y-95892000I225000J0D01*
G01*
X135986000Y-95892000D01*
G75*
G02*
X136211000Y-96117000I0J-225000D01*
G01*
X136211000Y-96617000D01*
G75*
G02*
X135986000Y-96842000I-225000J0D01*
G01*
X135536000Y-96842000D01*
G75*
G02*
X135311000Y-96617000I0J225000D01*
G01*
G37*
%TD*%
%TO.C,C16*%
G36*
G01*
X112261000Y-96617000D02*
X112261000Y-96117000D01*
G75*
G02*
X112486000Y-95892000I225000J0D01*
G01*
X112936000Y-95892000D01*
G75*
G02*
X113161000Y-96117000I0J-225000D01*
G01*
X113161000Y-96617000D01*
G75*
G02*
X112936000Y-96842000I-225000J0D01*
G01*
X112486000Y-96842000D01*
G75*
G02*
X112261000Y-96617000I0J225000D01*
G01*
G37*
G36*
G01*
X113811000Y-96617000D02*
X113811000Y-96117000D01*
G75*
G02*
X114036000Y-95892000I225000J0D01*
G01*
X114486000Y-95892000D01*
G75*
G02*
X114711000Y-96117000I0J-225000D01*
G01*
X114711000Y-96617000D01*
G75*
G02*
X114486000Y-96842000I-225000J0D01*
G01*
X114036000Y-96842000D01*
G75*
G02*
X113811000Y-96617000I0J225000D01*
G01*
G37*
%TD*%
%TO.C,C16*%
G36*
G01*
X90761000Y-96617000D02*
X90761000Y-96117000D01*
G75*
G02*
X90986000Y-95892000I225000J0D01*
G01*
X91436000Y-95892000D01*
G75*
G02*
X91661000Y-96117000I0J-225000D01*
G01*
X91661000Y-96617000D01*
G75*
G02*
X91436000Y-96842000I-225000J0D01*
G01*
X90986000Y-96842000D01*
G75*
G02*
X90761000Y-96617000I0J225000D01*
G01*
G37*
G36*
G01*
X92311000Y-96617000D02*
X92311000Y-96117000D01*
G75*
G02*
X92536000Y-95892000I225000J0D01*
G01*
X92986000Y-95892000D01*
G75*
G02*
X93211000Y-96117000I0J-225000D01*
G01*
X93211000Y-96617000D01*
G75*
G02*
X92986000Y-96842000I-225000J0D01*
G01*
X92536000Y-96842000D01*
G75*
G02*
X92311000Y-96617000I0J225000D01*
G01*
G37*
%TD*%
%TO.C,C16*%
G36*
G01*
X69261000Y-96617000D02*
X69261000Y-96117000D01*
G75*
G02*
X69486000Y-95892000I225000J0D01*
G01*
X69936000Y-95892000D01*
G75*
G02*
X70161000Y-96117000I0J-225000D01*
G01*
X70161000Y-96617000D01*
G75*
G02*
X69936000Y-96842000I-225000J0D01*
G01*
X69486000Y-96842000D01*
G75*
G02*
X69261000Y-96617000I0J225000D01*
G01*
G37*
G36*
G01*
X70811000Y-96617000D02*
X70811000Y-96117000D01*
G75*
G02*
X71036000Y-95892000I225000J0D01*
G01*
X71486000Y-95892000D01*
G75*
G02*
X71711000Y-96117000I0J-225000D01*
G01*
X71711000Y-96617000D01*
G75*
G02*
X71486000Y-96842000I-225000J0D01*
G01*
X71036000Y-96842000D01*
G75*
G02*
X70811000Y-96617000I0J225000D01*
G01*
G37*
%TD*%
%TO.C,C16*%
G36*
G01*
X133761000Y-77440000D02*
X133761000Y-76940000D01*
G75*
G02*
X133986000Y-76715000I225000J0D01*
G01*
X134436000Y-76715000D01*
G75*
G02*
X134661000Y-76940000I0J-225000D01*
G01*
X134661000Y-77440000D01*
G75*
G02*
X134436000Y-77665000I-225000J0D01*
G01*
X133986000Y-77665000D01*
G75*
G02*
X133761000Y-77440000I0J225000D01*
G01*
G37*
G36*
G01*
X135311000Y-77440000D02*
X135311000Y-76940000D01*
G75*
G02*
X135536000Y-76715000I225000J0D01*
G01*
X135986000Y-76715000D01*
G75*
G02*
X136211000Y-76940000I0J-225000D01*
G01*
X136211000Y-77440000D01*
G75*
G02*
X135986000Y-77665000I-225000J0D01*
G01*
X135536000Y-77665000D01*
G75*
G02*
X135311000Y-77440000I0J225000D01*
G01*
G37*
%TD*%
%TO.C,C16*%
G36*
G01*
X112261000Y-77440000D02*
X112261000Y-76940000D01*
G75*
G02*
X112486000Y-76715000I225000J0D01*
G01*
X112936000Y-76715000D01*
G75*
G02*
X113161000Y-76940000I0J-225000D01*
G01*
X113161000Y-77440000D01*
G75*
G02*
X112936000Y-77665000I-225000J0D01*
G01*
X112486000Y-77665000D01*
G75*
G02*
X112261000Y-77440000I0J225000D01*
G01*
G37*
G36*
G01*
X113811000Y-77440000D02*
X113811000Y-76940000D01*
G75*
G02*
X114036000Y-76715000I225000J0D01*
G01*
X114486000Y-76715000D01*
G75*
G02*
X114711000Y-76940000I0J-225000D01*
G01*
X114711000Y-77440000D01*
G75*
G02*
X114486000Y-77665000I-225000J0D01*
G01*
X114036000Y-77665000D01*
G75*
G02*
X113811000Y-77440000I0J225000D01*
G01*
G37*
%TD*%
%TO.C,C16*%
G36*
G01*
X90761000Y-77440000D02*
X90761000Y-76940000D01*
G75*
G02*
X90986000Y-76715000I225000J0D01*
G01*
X91436000Y-76715000D01*
G75*
G02*
X91661000Y-76940000I0J-225000D01*
G01*
X91661000Y-77440000D01*
G75*
G02*
X91436000Y-77665000I-225000J0D01*
G01*
X90986000Y-77665000D01*
G75*
G02*
X90761000Y-77440000I0J225000D01*
G01*
G37*
G36*
G01*
X92311000Y-77440000D02*
X92311000Y-76940000D01*
G75*
G02*
X92536000Y-76715000I225000J0D01*
G01*
X92986000Y-76715000D01*
G75*
G02*
X93211000Y-76940000I0J-225000D01*
G01*
X93211000Y-77440000D01*
G75*
G02*
X92986000Y-77665000I-225000J0D01*
G01*
X92536000Y-77665000D01*
G75*
G02*
X92311000Y-77440000I0J225000D01*
G01*
G37*
%TD*%
%TO.C,C16*%
G36*
G01*
X69261000Y-77440000D02*
X69261000Y-76940000D01*
G75*
G02*
X69486000Y-76715000I225000J0D01*
G01*
X69936000Y-76715000D01*
G75*
G02*
X70161000Y-76940000I0J-225000D01*
G01*
X70161000Y-77440000D01*
G75*
G02*
X69936000Y-77665000I-225000J0D01*
G01*
X69486000Y-77665000D01*
G75*
G02*
X69261000Y-77440000I0J225000D01*
G01*
G37*
G36*
G01*
X70811000Y-77440000D02*
X70811000Y-76940000D01*
G75*
G02*
X71036000Y-76715000I225000J0D01*
G01*
X71486000Y-76715000D01*
G75*
G02*
X71711000Y-76940000I0J-225000D01*
G01*
X71711000Y-77440000D01*
G75*
G02*
X71486000Y-77665000I-225000J0D01*
G01*
X71036000Y-77665000D01*
G75*
G02*
X70811000Y-77440000I0J225000D01*
G01*
G37*
%TD*%
%TO.C,C16*%
G36*
G01*
X133761000Y-58263000D02*
X133761000Y-57763000D01*
G75*
G02*
X133986000Y-57538000I225000J0D01*
G01*
X134436000Y-57538000D01*
G75*
G02*
X134661000Y-57763000I0J-225000D01*
G01*
X134661000Y-58263000D01*
G75*
G02*
X134436000Y-58488000I-225000J0D01*
G01*
X133986000Y-58488000D01*
G75*
G02*
X133761000Y-58263000I0J225000D01*
G01*
G37*
G36*
G01*
X135311000Y-58263000D02*
X135311000Y-57763000D01*
G75*
G02*
X135536000Y-57538000I225000J0D01*
G01*
X135986000Y-57538000D01*
G75*
G02*
X136211000Y-57763000I0J-225000D01*
G01*
X136211000Y-58263000D01*
G75*
G02*
X135986000Y-58488000I-225000J0D01*
G01*
X135536000Y-58488000D01*
G75*
G02*
X135311000Y-58263000I0J225000D01*
G01*
G37*
%TD*%
%TO.C,C16*%
G36*
G01*
X112261000Y-58263000D02*
X112261000Y-57763000D01*
G75*
G02*
X112486000Y-57538000I225000J0D01*
G01*
X112936000Y-57538000D01*
G75*
G02*
X113161000Y-57763000I0J-225000D01*
G01*
X113161000Y-58263000D01*
G75*
G02*
X112936000Y-58488000I-225000J0D01*
G01*
X112486000Y-58488000D01*
G75*
G02*
X112261000Y-58263000I0J225000D01*
G01*
G37*
G36*
G01*
X113811000Y-58263000D02*
X113811000Y-57763000D01*
G75*
G02*
X114036000Y-57538000I225000J0D01*
G01*
X114486000Y-57538000D01*
G75*
G02*
X114711000Y-57763000I0J-225000D01*
G01*
X114711000Y-58263000D01*
G75*
G02*
X114486000Y-58488000I-225000J0D01*
G01*
X114036000Y-58488000D01*
G75*
G02*
X113811000Y-58263000I0J225000D01*
G01*
G37*
%TD*%
%TO.C,C16*%
G36*
G01*
X90761000Y-58263000D02*
X90761000Y-57763000D01*
G75*
G02*
X90986000Y-57538000I225000J0D01*
G01*
X91436000Y-57538000D01*
G75*
G02*
X91661000Y-57763000I0J-225000D01*
G01*
X91661000Y-58263000D01*
G75*
G02*
X91436000Y-58488000I-225000J0D01*
G01*
X90986000Y-58488000D01*
G75*
G02*
X90761000Y-58263000I0J225000D01*
G01*
G37*
G36*
G01*
X92311000Y-58263000D02*
X92311000Y-57763000D01*
G75*
G02*
X92536000Y-57538000I225000J0D01*
G01*
X92986000Y-57538000D01*
G75*
G02*
X93211000Y-57763000I0J-225000D01*
G01*
X93211000Y-58263000D01*
G75*
G02*
X92986000Y-58488000I-225000J0D01*
G01*
X92536000Y-58488000D01*
G75*
G02*
X92311000Y-58263000I0J225000D01*
G01*
G37*
%TD*%
D14*
%TO.C,PS1*%
X129766000Y-124688000D03*
X127226000Y-124688000D03*
X124686000Y-124688000D03*
D15*
X122146000Y-124688000D03*
%TD*%
D14*
%TO.C,PS1*%
X108266000Y-124688000D03*
X105726000Y-124688000D03*
X103186000Y-124688000D03*
D15*
X100646000Y-124688000D03*
%TD*%
D14*
%TO.C,PS1*%
X86766000Y-124688000D03*
X84226000Y-124688000D03*
X81686000Y-124688000D03*
D15*
X79146000Y-124688000D03*
%TD*%
D14*
%TO.C,PS1*%
X65266000Y-124688000D03*
X62726000Y-124688000D03*
X60186000Y-124688000D03*
D15*
X57646000Y-124688000D03*
%TD*%
D14*
%TO.C,PS1*%
X129766000Y-105511000D03*
X127226000Y-105511000D03*
X124686000Y-105511000D03*
D15*
X122146000Y-105511000D03*
%TD*%
D14*
%TO.C,PS1*%
X108266000Y-105511000D03*
X105726000Y-105511000D03*
X103186000Y-105511000D03*
D15*
X100646000Y-105511000D03*
%TD*%
D14*
%TO.C,PS1*%
X86766000Y-105511000D03*
X84226000Y-105511000D03*
X81686000Y-105511000D03*
D15*
X79146000Y-105511000D03*
%TD*%
D14*
%TO.C,PS1*%
X65266000Y-105511000D03*
X62726000Y-105511000D03*
X60186000Y-105511000D03*
D15*
X57646000Y-105511000D03*
%TD*%
D14*
%TO.C,PS1*%
X129766000Y-86334000D03*
X127226000Y-86334000D03*
X124686000Y-86334000D03*
D15*
X122146000Y-86334000D03*
%TD*%
D14*
%TO.C,PS1*%
X108266000Y-86334000D03*
X105726000Y-86334000D03*
X103186000Y-86334000D03*
D15*
X100646000Y-86334000D03*
%TD*%
D14*
%TO.C,PS1*%
X86766000Y-86334000D03*
X84226000Y-86334000D03*
X81686000Y-86334000D03*
D15*
X79146000Y-86334000D03*
%TD*%
D14*
%TO.C,PS1*%
X65266000Y-86334000D03*
X62726000Y-86334000D03*
X60186000Y-86334000D03*
D15*
X57646000Y-86334000D03*
%TD*%
D14*
%TO.C,PS1*%
X129766000Y-67157000D03*
X127226000Y-67157000D03*
X124686000Y-67157000D03*
D15*
X122146000Y-67157000D03*
%TD*%
D14*
%TO.C,PS1*%
X108266000Y-67157000D03*
X105726000Y-67157000D03*
X103186000Y-67157000D03*
D15*
X100646000Y-67157000D03*
%TD*%
D14*
%TO.C,PS1*%
X86766000Y-67157000D03*
X84226000Y-67157000D03*
X81686000Y-67157000D03*
D15*
X79146000Y-67157000D03*
%TD*%
D14*
%TO.C,PS1*%
X65266000Y-67157000D03*
X62726000Y-67157000D03*
X60186000Y-67157000D03*
D15*
X57646000Y-67157000D03*
%TD*%
D14*
%TO.C,PS1*%
X129766000Y-47980000D03*
X127226000Y-47980000D03*
X124686000Y-47980000D03*
D15*
X122146000Y-47980000D03*
%TD*%
D14*
%TO.C,PS1*%
X108266000Y-47980000D03*
X105726000Y-47980000D03*
X103186000Y-47980000D03*
D15*
X100646000Y-47980000D03*
%TD*%
D14*
%TO.C,PS1*%
X86766000Y-47980000D03*
X84226000Y-47980000D03*
X81686000Y-47980000D03*
D15*
X79146000Y-47980000D03*
%TD*%
D13*
%TO.C,J1*%
X62472000Y-60426000D03*
X59932000Y-60426000D03*
X57392000Y-60426000D03*
D12*
X54852000Y-60426000D03*
%TD*%
D13*
%TO.C,J2*%
X72632000Y-60426000D03*
X70092000Y-60426000D03*
D12*
X67552000Y-60426000D03*
%TD*%
D11*
%TO.C,U1*%
X73521000Y-47980000D03*
X68921000Y-47980000D03*
X71221000Y-47980000D03*
D10*
X71221000Y-54280000D03*
%TD*%
D15*
%TO.C,PS1*%
X57646000Y-47980000D03*
D14*
X60186000Y-47980000D03*
X62726000Y-47980000D03*
X65266000Y-47980000D03*
%TD*%
%TO.C,C16*%
G36*
G01*
X70811000Y-58263000D02*
X70811000Y-57763000D01*
G75*
G02*
X71036000Y-57538000I225000J0D01*
G01*
X71486000Y-57538000D01*
G75*
G02*
X71711000Y-57763000I0J-225000D01*
G01*
X71711000Y-58263000D01*
G75*
G02*
X71486000Y-58488000I-225000J0D01*
G01*
X71036000Y-58488000D01*
G75*
G02*
X70811000Y-58263000I0J225000D01*
G01*
G37*
G36*
G01*
X69261000Y-58263000D02*
X69261000Y-57763000D01*
G75*
G02*
X69486000Y-57538000I225000J0D01*
G01*
X69936000Y-57538000D01*
G75*
G02*
X70161000Y-57763000I0J-225000D01*
G01*
X70161000Y-58263000D01*
G75*
G02*
X69936000Y-58488000I-225000J0D01*
G01*
X69486000Y-58488000D01*
G75*
G02*
X69261000Y-58263000I0J225000D01*
G01*
G37*
%TD*%
%TO.C,C15*%
G36*
G01*
X70785000Y-56612000D02*
X70785000Y-56112000D01*
G75*
G02*
X71010000Y-55887000I225000J0D01*
G01*
X71460000Y-55887000D01*
G75*
G02*
X71685000Y-56112000I0J-225000D01*
G01*
X71685000Y-56612000D01*
G75*
G02*
X71460000Y-56837000I-225000J0D01*
G01*
X71010000Y-56837000D01*
G75*
G02*
X70785000Y-56612000I0J225000D01*
G01*
G37*
G36*
G01*
X69235000Y-56612000D02*
X69235000Y-56112000D01*
G75*
G02*
X69460000Y-55887000I225000J0D01*
G01*
X69910000Y-55887000D01*
G75*
G02*
X70135000Y-56112000I0J-225000D01*
G01*
X70135000Y-56612000D01*
G75*
G02*
X69910000Y-56837000I-225000J0D01*
G01*
X69460000Y-56837000D01*
G75*
G02*
X69235000Y-56612000I0J225000D01*
G01*
G37*
%TD*%
%TO.C,C8*%
G36*
G01*
X60164500Y-58022000D02*
X60164500Y-55972000D01*
G75*
G02*
X60414500Y-55722000I250000J0D01*
G01*
X61989500Y-55722000D01*
G75*
G02*
X62239500Y-55972000I0J-250000D01*
G01*
X62239500Y-58022000D01*
G75*
G02*
X61989500Y-58272000I-250000J0D01*
G01*
X60414500Y-58272000D01*
G75*
G02*
X60164500Y-58022000I0J250000D01*
G01*
G37*
G36*
G01*
X53939500Y-58022000D02*
X53939500Y-55972000D01*
G75*
G02*
X54189500Y-55722000I250000J0D01*
G01*
X55764500Y-55722000D01*
G75*
G02*
X56014500Y-55972000I0J-250000D01*
G01*
X56014500Y-58022000D01*
G75*
G02*
X55764500Y-58272000I-250000J0D01*
G01*
X54189500Y-58272000D01*
G75*
G02*
X53939500Y-58022000I0J250000D01*
G01*
G37*
%TD*%
%TO.C,C7*%
G36*
G01*
X60166500Y-53069000D02*
X60166500Y-51019000D01*
G75*
G02*
X60416500Y-50769000I250000J0D01*
G01*
X61991500Y-50769000D01*
G75*
G02*
X62241500Y-51019000I0J-250000D01*
G01*
X62241500Y-53069000D01*
G75*
G02*
X61991500Y-53319000I-250000J0D01*
G01*
X60416500Y-53319000D01*
G75*
G02*
X60166500Y-53069000I0J250000D01*
G01*
G37*
G36*
G01*
X53941500Y-53069000D02*
X53941500Y-51019000D01*
G75*
G02*
X54191500Y-50769000I250000J0D01*
G01*
X55766500Y-50769000D01*
G75*
G02*
X56016500Y-51019000I0J-250000D01*
G01*
X56016500Y-53069000D01*
G75*
G02*
X55766500Y-53319000I-250000J0D01*
G01*
X54191500Y-53319000D01*
G75*
G02*
X53941500Y-53069000I0J250000D01*
G01*
G37*
%TD*%
M02*
