%TF.GenerationSoftware,KiCad,Pcbnew,(5.1.10)-1*%
%TF.CreationDate,2022-01-17T19:26:08+07:00*%
%TF.ProjectId,Fan_controller_v3_pnlz1x2,46616e5f-636f-46e7-9472-6f6c6c65725f,rev?*%
%TF.SameCoordinates,Original*%
%TF.FileFunction,Paste,Top*%
%TF.FilePolarity,Positive*%
%FSLAX46Y46*%
G04 Gerber Fmt 4.6, Leading zero omitted, Abs format (unit mm)*
G04 Created by KiCad (PCBNEW (5.1.10)-1) date 2022-01-17 19:26:08*
%MOMM*%
%LPD*%
G01*
G04 APERTURE LIST*
%ADD10R,0.900000X0.800000*%
%ADD11R,1.100000X0.400000*%
%ADD12R,0.800000X0.900000*%
G04 APERTURE END LIST*
%TO.C,C13*%
G36*
G01*
X112445000Y-95549000D02*
X112445000Y-96049000D01*
G75*
G02*
X112220000Y-96274000I-225000J0D01*
G01*
X111770000Y-96274000D01*
G75*
G02*
X111545000Y-96049000I0J225000D01*
G01*
X111545000Y-95549000D01*
G75*
G02*
X111770000Y-95324000I225000J0D01*
G01*
X112220000Y-95324000D01*
G75*
G02*
X112445000Y-95549000I0J-225000D01*
G01*
G37*
G36*
G01*
X110895000Y-95549000D02*
X110895000Y-96049000D01*
G75*
G02*
X110670000Y-96274000I-225000J0D01*
G01*
X110220000Y-96274000D01*
G75*
G02*
X109995000Y-96049000I0J225000D01*
G01*
X109995000Y-95549000D01*
G75*
G02*
X110220000Y-95324000I225000J0D01*
G01*
X110670000Y-95324000D01*
G75*
G02*
X110895000Y-95549000I0J-225000D01*
G01*
G37*
%TD*%
D10*
%TO.C,Q3*%
X85521000Y-105004000D03*
X85521000Y-103104000D03*
X83521000Y-104054000D03*
%TD*%
%TO.C,Q4*%
X85521000Y-101382000D03*
X85521000Y-99482000D03*
X83521000Y-100432000D03*
%TD*%
%TO.C,R6*%
G36*
G01*
X101065000Y-92603000D02*
X101065000Y-93153000D01*
G75*
G02*
X100865000Y-93353000I-200000J0D01*
G01*
X100465000Y-93353000D01*
G75*
G02*
X100265000Y-93153000I0J200000D01*
G01*
X100265000Y-92603000D01*
G75*
G02*
X100465000Y-92403000I200000J0D01*
G01*
X100865000Y-92403000D01*
G75*
G02*
X101065000Y-92603000I0J-200000D01*
G01*
G37*
G36*
G01*
X99415000Y-92603000D02*
X99415000Y-93153000D01*
G75*
G02*
X99215000Y-93353000I-200000J0D01*
G01*
X98815000Y-93353000D01*
G75*
G02*
X98615000Y-93153000I0J200000D01*
G01*
X98615000Y-92603000D01*
G75*
G02*
X98815000Y-92403000I200000J0D01*
G01*
X99215000Y-92403000D01*
G75*
G02*
X99415000Y-92603000I0J-200000D01*
G01*
G37*
%TD*%
%TO.C,R18*%
G36*
G01*
X119571000Y-93153000D02*
X119571000Y-92603000D01*
G75*
G02*
X119771000Y-92403000I200000J0D01*
G01*
X120171000Y-92403000D01*
G75*
G02*
X120371000Y-92603000I0J-200000D01*
G01*
X120371000Y-93153000D01*
G75*
G02*
X120171000Y-93353000I-200000J0D01*
G01*
X119771000Y-93353000D01*
G75*
G02*
X119571000Y-93153000I0J200000D01*
G01*
G37*
G36*
G01*
X121221000Y-93153000D02*
X121221000Y-92603000D01*
G75*
G02*
X121421000Y-92403000I200000J0D01*
G01*
X121821000Y-92403000D01*
G75*
G02*
X122021000Y-92603000I0J-200000D01*
G01*
X122021000Y-93153000D01*
G75*
G02*
X121821000Y-93353000I-200000J0D01*
G01*
X121421000Y-93353000D01*
G75*
G02*
X121221000Y-93153000I0J200000D01*
G01*
G37*
%TD*%
%TO.C,R9*%
G36*
G01*
X97216000Y-92479000D02*
X97766000Y-92479000D01*
G75*
G02*
X97966000Y-92679000I0J-200000D01*
G01*
X97966000Y-93079000D01*
G75*
G02*
X97766000Y-93279000I-200000J0D01*
G01*
X97216000Y-93279000D01*
G75*
G02*
X97016000Y-93079000I0J200000D01*
G01*
X97016000Y-92679000D01*
G75*
G02*
X97216000Y-92479000I200000J0D01*
G01*
G37*
G36*
G01*
X97216000Y-94129000D02*
X97766000Y-94129000D01*
G75*
G02*
X97966000Y-94329000I0J-200000D01*
G01*
X97966000Y-94729000D01*
G75*
G02*
X97766000Y-94929000I-200000J0D01*
G01*
X97216000Y-94929000D01*
G75*
G02*
X97016000Y-94729000I0J200000D01*
G01*
X97016000Y-94329000D01*
G75*
G02*
X97216000Y-94129000I200000J0D01*
G01*
G37*
%TD*%
%TO.C,R10*%
G36*
G01*
X95692000Y-92479000D02*
X96242000Y-92479000D01*
G75*
G02*
X96442000Y-92679000I0J-200000D01*
G01*
X96442000Y-93079000D01*
G75*
G02*
X96242000Y-93279000I-200000J0D01*
G01*
X95692000Y-93279000D01*
G75*
G02*
X95492000Y-93079000I0J200000D01*
G01*
X95492000Y-92679000D01*
G75*
G02*
X95692000Y-92479000I200000J0D01*
G01*
G37*
G36*
G01*
X95692000Y-94129000D02*
X96242000Y-94129000D01*
G75*
G02*
X96442000Y-94329000I0J-200000D01*
G01*
X96442000Y-94729000D01*
G75*
G02*
X96242000Y-94929000I-200000J0D01*
G01*
X95692000Y-94929000D01*
G75*
G02*
X95492000Y-94729000I0J200000D01*
G01*
X95492000Y-94329000D01*
G75*
G02*
X95692000Y-94129000I200000J0D01*
G01*
G37*
%TD*%
%TO.C,R19*%
G36*
G01*
X124394000Y-92479000D02*
X124944000Y-92479000D01*
G75*
G02*
X125144000Y-92679000I0J-200000D01*
G01*
X125144000Y-93079000D01*
G75*
G02*
X124944000Y-93279000I-200000J0D01*
G01*
X124394000Y-93279000D01*
G75*
G02*
X124194000Y-93079000I0J200000D01*
G01*
X124194000Y-92679000D01*
G75*
G02*
X124394000Y-92479000I200000J0D01*
G01*
G37*
G36*
G01*
X124394000Y-94129000D02*
X124944000Y-94129000D01*
G75*
G02*
X125144000Y-94329000I0J-200000D01*
G01*
X125144000Y-94729000D01*
G75*
G02*
X124944000Y-94929000I-200000J0D01*
G01*
X124394000Y-94929000D01*
G75*
G02*
X124194000Y-94729000I0J200000D01*
G01*
X124194000Y-94329000D01*
G75*
G02*
X124394000Y-94129000I200000J0D01*
G01*
G37*
%TD*%
%TO.C,R20*%
G36*
G01*
X122870000Y-92479000D02*
X123420000Y-92479000D01*
G75*
G02*
X123620000Y-92679000I0J-200000D01*
G01*
X123620000Y-93079000D01*
G75*
G02*
X123420000Y-93279000I-200000J0D01*
G01*
X122870000Y-93279000D01*
G75*
G02*
X122670000Y-93079000I0J200000D01*
G01*
X122670000Y-92679000D01*
G75*
G02*
X122870000Y-92479000I200000J0D01*
G01*
G37*
G36*
G01*
X122870000Y-94129000D02*
X123420000Y-94129000D01*
G75*
G02*
X123620000Y-94329000I0J-200000D01*
G01*
X123620000Y-94729000D01*
G75*
G02*
X123420000Y-94929000I-200000J0D01*
G01*
X122870000Y-94929000D01*
G75*
G02*
X122670000Y-94729000I0J200000D01*
G01*
X122670000Y-94329000D01*
G75*
G02*
X122870000Y-94129000I200000J0D01*
G01*
G37*
%TD*%
%TO.C,R7*%
G36*
G01*
X81722000Y-104797000D02*
X82272000Y-104797000D01*
G75*
G02*
X82472000Y-104997000I0J-200000D01*
G01*
X82472000Y-105397000D01*
G75*
G02*
X82272000Y-105597000I-200000J0D01*
G01*
X81722000Y-105597000D01*
G75*
G02*
X81522000Y-105397000I0J200000D01*
G01*
X81522000Y-104997000D01*
G75*
G02*
X81722000Y-104797000I200000J0D01*
G01*
G37*
G36*
G01*
X81722000Y-106447000D02*
X82272000Y-106447000D01*
G75*
G02*
X82472000Y-106647000I0J-200000D01*
G01*
X82472000Y-107047000D01*
G75*
G02*
X82272000Y-107247000I-200000J0D01*
G01*
X81722000Y-107247000D01*
G75*
G02*
X81522000Y-107047000I0J200000D01*
G01*
X81522000Y-106647000D01*
G75*
G02*
X81722000Y-106447000I200000J0D01*
G01*
G37*
%TD*%
%TO.C,R8*%
G36*
G01*
X82272000Y-104136500D02*
X81722000Y-104136500D01*
G75*
G02*
X81522000Y-103936500I0J200000D01*
G01*
X81522000Y-103536500D01*
G75*
G02*
X81722000Y-103336500I200000J0D01*
G01*
X82272000Y-103336500D01*
G75*
G02*
X82472000Y-103536500I0J-200000D01*
G01*
X82472000Y-103936500D01*
G75*
G02*
X82272000Y-104136500I-200000J0D01*
G01*
G37*
G36*
G01*
X82272000Y-102486500D02*
X81722000Y-102486500D01*
G75*
G02*
X81522000Y-102286500I0J200000D01*
G01*
X81522000Y-101886500D01*
G75*
G02*
X81722000Y-101686500I200000J0D01*
G01*
X82272000Y-101686500D01*
G75*
G02*
X82472000Y-101886500I0J-200000D01*
G01*
X82472000Y-102286500D01*
G75*
G02*
X82272000Y-102486500I-200000J0D01*
G01*
G37*
%TD*%
%TO.C,R11*%
G36*
G01*
X86802000Y-102892000D02*
X87352000Y-102892000D01*
G75*
G02*
X87552000Y-103092000I0J-200000D01*
G01*
X87552000Y-103492000D01*
G75*
G02*
X87352000Y-103692000I-200000J0D01*
G01*
X86802000Y-103692000D01*
G75*
G02*
X86602000Y-103492000I0J200000D01*
G01*
X86602000Y-103092000D01*
G75*
G02*
X86802000Y-102892000I200000J0D01*
G01*
G37*
G36*
G01*
X86802000Y-104542000D02*
X87352000Y-104542000D01*
G75*
G02*
X87552000Y-104742000I0J-200000D01*
G01*
X87552000Y-105142000D01*
G75*
G02*
X87352000Y-105342000I-200000J0D01*
G01*
X86802000Y-105342000D01*
G75*
G02*
X86602000Y-105142000I0J200000D01*
G01*
X86602000Y-104742000D01*
G75*
G02*
X86802000Y-104542000I200000J0D01*
G01*
G37*
%TD*%
%TO.C,R12*%
G36*
G01*
X86802000Y-99209000D02*
X87352000Y-99209000D01*
G75*
G02*
X87552000Y-99409000I0J-200000D01*
G01*
X87552000Y-99809000D01*
G75*
G02*
X87352000Y-100009000I-200000J0D01*
G01*
X86802000Y-100009000D01*
G75*
G02*
X86602000Y-99809000I0J200000D01*
G01*
X86602000Y-99409000D01*
G75*
G02*
X86802000Y-99209000I200000J0D01*
G01*
G37*
G36*
G01*
X86802000Y-100859000D02*
X87352000Y-100859000D01*
G75*
G02*
X87552000Y-101059000I0J-200000D01*
G01*
X87552000Y-101459000D01*
G75*
G02*
X87352000Y-101659000I-200000J0D01*
G01*
X86802000Y-101659000D01*
G75*
G02*
X86602000Y-101459000I0J200000D01*
G01*
X86602000Y-101059000D01*
G75*
G02*
X86802000Y-100859000I200000J0D01*
G01*
G37*
%TD*%
D11*
%TO.C,U2*%
X108422000Y-97491000D03*
X108422000Y-98141000D03*
X108422000Y-98791000D03*
X108422000Y-99441000D03*
X112722000Y-99441000D03*
X112722000Y-98791000D03*
X112722000Y-98141000D03*
X112722000Y-97491000D03*
%TD*%
%TO.C,C8*%
G36*
G01*
X90030000Y-94525000D02*
X90030000Y-94025000D01*
G75*
G02*
X90255000Y-93800000I225000J0D01*
G01*
X90705000Y-93800000D01*
G75*
G02*
X90930000Y-94025000I0J-225000D01*
G01*
X90930000Y-94525000D01*
G75*
G02*
X90705000Y-94750000I-225000J0D01*
G01*
X90255000Y-94750000D01*
G75*
G02*
X90030000Y-94525000I0J225000D01*
G01*
G37*
G36*
G01*
X91580000Y-94525000D02*
X91580000Y-94025000D01*
G75*
G02*
X91805000Y-93800000I225000J0D01*
G01*
X92255000Y-93800000D01*
G75*
G02*
X92480000Y-94025000I0J-225000D01*
G01*
X92480000Y-94525000D01*
G75*
G02*
X92255000Y-94750000I-225000J0D01*
G01*
X91805000Y-94750000D01*
G75*
G02*
X91580000Y-94525000I0J225000D01*
G01*
G37*
%TD*%
%TO.C,C10*%
G36*
G01*
X89522000Y-103669000D02*
X89522000Y-103169000D01*
G75*
G02*
X89747000Y-102944000I225000J0D01*
G01*
X90197000Y-102944000D01*
G75*
G02*
X90422000Y-103169000I0J-225000D01*
G01*
X90422000Y-103669000D01*
G75*
G02*
X90197000Y-103894000I-225000J0D01*
G01*
X89747000Y-103894000D01*
G75*
G02*
X89522000Y-103669000I0J225000D01*
G01*
G37*
G36*
G01*
X91072000Y-103669000D02*
X91072000Y-103169000D01*
G75*
G02*
X91297000Y-102944000I225000J0D01*
G01*
X91747000Y-102944000D01*
G75*
G02*
X91972000Y-103169000I0J-225000D01*
G01*
X91972000Y-103669000D01*
G75*
G02*
X91747000Y-103894000I-225000J0D01*
G01*
X91297000Y-103894000D01*
G75*
G02*
X91072000Y-103669000I0J225000D01*
G01*
G37*
%TD*%
D10*
%TO.C,Q2*%
X104095000Y-94460500D03*
X104095000Y-92560500D03*
X102095000Y-93510500D03*
%TD*%
%TO.C,R16*%
G36*
G01*
X112967000Y-92772000D02*
X112967000Y-92222000D01*
G75*
G02*
X113167000Y-92022000I200000J0D01*
G01*
X113567000Y-92022000D01*
G75*
G02*
X113767000Y-92222000I0J-200000D01*
G01*
X113767000Y-92772000D01*
G75*
G02*
X113567000Y-92972000I-200000J0D01*
G01*
X113167000Y-92972000D01*
G75*
G02*
X112967000Y-92772000I0J200000D01*
G01*
G37*
G36*
G01*
X114617000Y-92772000D02*
X114617000Y-92222000D01*
G75*
G02*
X114817000Y-92022000I200000J0D01*
G01*
X115217000Y-92022000D01*
G75*
G02*
X115417000Y-92222000I0J-200000D01*
G01*
X115417000Y-92772000D01*
G75*
G02*
X115217000Y-92972000I-200000J0D01*
G01*
X114817000Y-92972000D01*
G75*
G02*
X114617000Y-92772000I0J200000D01*
G01*
G37*
%TD*%
%TO.C,U1*%
G36*
G01*
X93023000Y-95397000D02*
X93323000Y-95397000D01*
G75*
G02*
X93473000Y-95547000I0J-150000D01*
G01*
X93473000Y-97197000D01*
G75*
G02*
X93323000Y-97347000I-150000J0D01*
G01*
X93023000Y-97347000D01*
G75*
G02*
X92873000Y-97197000I0J150000D01*
G01*
X92873000Y-95547000D01*
G75*
G02*
X93023000Y-95397000I150000J0D01*
G01*
G37*
G36*
G01*
X91753000Y-95397000D02*
X92053000Y-95397000D01*
G75*
G02*
X92203000Y-95547000I0J-150000D01*
G01*
X92203000Y-97197000D01*
G75*
G02*
X92053000Y-97347000I-150000J0D01*
G01*
X91753000Y-97347000D01*
G75*
G02*
X91603000Y-97197000I0J150000D01*
G01*
X91603000Y-95547000D01*
G75*
G02*
X91753000Y-95397000I150000J0D01*
G01*
G37*
G36*
G01*
X90483000Y-95397000D02*
X90783000Y-95397000D01*
G75*
G02*
X90933000Y-95547000I0J-150000D01*
G01*
X90933000Y-97197000D01*
G75*
G02*
X90783000Y-97347000I-150000J0D01*
G01*
X90483000Y-97347000D01*
G75*
G02*
X90333000Y-97197000I0J150000D01*
G01*
X90333000Y-95547000D01*
G75*
G02*
X90483000Y-95397000I150000J0D01*
G01*
G37*
G36*
G01*
X89213000Y-95397000D02*
X89513000Y-95397000D01*
G75*
G02*
X89663000Y-95547000I0J-150000D01*
G01*
X89663000Y-97197000D01*
G75*
G02*
X89513000Y-97347000I-150000J0D01*
G01*
X89213000Y-97347000D01*
G75*
G02*
X89063000Y-97197000I0J150000D01*
G01*
X89063000Y-95547000D01*
G75*
G02*
X89213000Y-95397000I150000J0D01*
G01*
G37*
G36*
G01*
X89213000Y-100347000D02*
X89513000Y-100347000D01*
G75*
G02*
X89663000Y-100497000I0J-150000D01*
G01*
X89663000Y-102147000D01*
G75*
G02*
X89513000Y-102297000I-150000J0D01*
G01*
X89213000Y-102297000D01*
G75*
G02*
X89063000Y-102147000I0J150000D01*
G01*
X89063000Y-100497000D01*
G75*
G02*
X89213000Y-100347000I150000J0D01*
G01*
G37*
G36*
G01*
X90483000Y-100347000D02*
X90783000Y-100347000D01*
G75*
G02*
X90933000Y-100497000I0J-150000D01*
G01*
X90933000Y-102147000D01*
G75*
G02*
X90783000Y-102297000I-150000J0D01*
G01*
X90483000Y-102297000D01*
G75*
G02*
X90333000Y-102147000I0J150000D01*
G01*
X90333000Y-100497000D01*
G75*
G02*
X90483000Y-100347000I150000J0D01*
G01*
G37*
G36*
G01*
X91753000Y-100347000D02*
X92053000Y-100347000D01*
G75*
G02*
X92203000Y-100497000I0J-150000D01*
G01*
X92203000Y-102147000D01*
G75*
G02*
X92053000Y-102297000I-150000J0D01*
G01*
X91753000Y-102297000D01*
G75*
G02*
X91603000Y-102147000I0J150000D01*
G01*
X91603000Y-100497000D01*
G75*
G02*
X91753000Y-100347000I150000J0D01*
G01*
G37*
G36*
G01*
X93023000Y-100347000D02*
X93323000Y-100347000D01*
G75*
G02*
X93473000Y-100497000I0J-150000D01*
G01*
X93473000Y-102147000D01*
G75*
G02*
X93323000Y-102297000I-150000J0D01*
G01*
X93023000Y-102297000D01*
G75*
G02*
X92873000Y-102147000I0J150000D01*
G01*
X92873000Y-100497000D01*
G75*
G02*
X93023000Y-100347000I150000J0D01*
G01*
G37*
%TD*%
D12*
%TO.C,Q6*%
X118441000Y-92560500D03*
X116541000Y-92560500D03*
X117491000Y-94560500D03*
%TD*%
%TO.C,R2*%
G36*
G01*
X105219000Y-94296000D02*
X105219000Y-93746000D01*
G75*
G02*
X105419000Y-93546000I200000J0D01*
G01*
X105819000Y-93546000D01*
G75*
G02*
X106019000Y-93746000I0J-200000D01*
G01*
X106019000Y-94296000D01*
G75*
G02*
X105819000Y-94496000I-200000J0D01*
G01*
X105419000Y-94496000D01*
G75*
G02*
X105219000Y-94296000I0J200000D01*
G01*
G37*
G36*
G01*
X106869000Y-94296000D02*
X106869000Y-93746000D01*
G75*
G02*
X107069000Y-93546000I200000J0D01*
G01*
X107469000Y-93546000D01*
G75*
G02*
X107669000Y-93746000I0J-200000D01*
G01*
X107669000Y-94296000D01*
G75*
G02*
X107469000Y-94496000I-200000J0D01*
G01*
X107069000Y-94496000D01*
G75*
G02*
X106869000Y-94296000I0J200000D01*
G01*
G37*
%TD*%
%TO.C,R4*%
G36*
G01*
X107669000Y-92222000D02*
X107669000Y-92772000D01*
G75*
G02*
X107469000Y-92972000I-200000J0D01*
G01*
X107069000Y-92972000D01*
G75*
G02*
X106869000Y-92772000I0J200000D01*
G01*
X106869000Y-92222000D01*
G75*
G02*
X107069000Y-92022000I200000J0D01*
G01*
X107469000Y-92022000D01*
G75*
G02*
X107669000Y-92222000I0J-200000D01*
G01*
G37*
G36*
G01*
X106019000Y-92222000D02*
X106019000Y-92772000D01*
G75*
G02*
X105819000Y-92972000I-200000J0D01*
G01*
X105419000Y-92972000D01*
G75*
G02*
X105219000Y-92772000I0J200000D01*
G01*
X105219000Y-92222000D01*
G75*
G02*
X105419000Y-92022000I200000J0D01*
G01*
X105819000Y-92022000D01*
G75*
G02*
X106019000Y-92222000I0J-200000D01*
G01*
G37*
%TD*%
%TO.C,R14*%
G36*
G01*
X112966000Y-94613500D02*
X112966000Y-94063500D01*
G75*
G02*
X113166000Y-93863500I200000J0D01*
G01*
X113566000Y-93863500D01*
G75*
G02*
X113766000Y-94063500I0J-200000D01*
G01*
X113766000Y-94613500D01*
G75*
G02*
X113566000Y-94813500I-200000J0D01*
G01*
X113166000Y-94813500D01*
G75*
G02*
X112966000Y-94613500I0J200000D01*
G01*
G37*
G36*
G01*
X114616000Y-94613500D02*
X114616000Y-94063500D01*
G75*
G02*
X114816000Y-93863500I200000J0D01*
G01*
X115216000Y-93863500D01*
G75*
G02*
X115416000Y-94063500I0J-200000D01*
G01*
X115416000Y-94613500D01*
G75*
G02*
X115216000Y-94813500I-200000J0D01*
G01*
X114816000Y-94813500D01*
G75*
G02*
X114616000Y-94613500I0J200000D01*
G01*
G37*
%TD*%
%TO.C,U1*%
G36*
G01*
X93023000Y-75347000D02*
X93323000Y-75347000D01*
G75*
G02*
X93473000Y-75497000I0J-150000D01*
G01*
X93473000Y-77147000D01*
G75*
G02*
X93323000Y-77297000I-150000J0D01*
G01*
X93023000Y-77297000D01*
G75*
G02*
X92873000Y-77147000I0J150000D01*
G01*
X92873000Y-75497000D01*
G75*
G02*
X93023000Y-75347000I150000J0D01*
G01*
G37*
G36*
G01*
X91753000Y-75347000D02*
X92053000Y-75347000D01*
G75*
G02*
X92203000Y-75497000I0J-150000D01*
G01*
X92203000Y-77147000D01*
G75*
G02*
X92053000Y-77297000I-150000J0D01*
G01*
X91753000Y-77297000D01*
G75*
G02*
X91603000Y-77147000I0J150000D01*
G01*
X91603000Y-75497000D01*
G75*
G02*
X91753000Y-75347000I150000J0D01*
G01*
G37*
G36*
G01*
X90483000Y-75347000D02*
X90783000Y-75347000D01*
G75*
G02*
X90933000Y-75497000I0J-150000D01*
G01*
X90933000Y-77147000D01*
G75*
G02*
X90783000Y-77297000I-150000J0D01*
G01*
X90483000Y-77297000D01*
G75*
G02*
X90333000Y-77147000I0J150000D01*
G01*
X90333000Y-75497000D01*
G75*
G02*
X90483000Y-75347000I150000J0D01*
G01*
G37*
G36*
G01*
X89213000Y-75347000D02*
X89513000Y-75347000D01*
G75*
G02*
X89663000Y-75497000I0J-150000D01*
G01*
X89663000Y-77147000D01*
G75*
G02*
X89513000Y-77297000I-150000J0D01*
G01*
X89213000Y-77297000D01*
G75*
G02*
X89063000Y-77147000I0J150000D01*
G01*
X89063000Y-75497000D01*
G75*
G02*
X89213000Y-75347000I150000J0D01*
G01*
G37*
G36*
G01*
X89213000Y-70397000D02*
X89513000Y-70397000D01*
G75*
G02*
X89663000Y-70547000I0J-150000D01*
G01*
X89663000Y-72197000D01*
G75*
G02*
X89513000Y-72347000I-150000J0D01*
G01*
X89213000Y-72347000D01*
G75*
G02*
X89063000Y-72197000I0J150000D01*
G01*
X89063000Y-70547000D01*
G75*
G02*
X89213000Y-70397000I150000J0D01*
G01*
G37*
G36*
G01*
X90483000Y-70397000D02*
X90783000Y-70397000D01*
G75*
G02*
X90933000Y-70547000I0J-150000D01*
G01*
X90933000Y-72197000D01*
G75*
G02*
X90783000Y-72347000I-150000J0D01*
G01*
X90483000Y-72347000D01*
G75*
G02*
X90333000Y-72197000I0J150000D01*
G01*
X90333000Y-70547000D01*
G75*
G02*
X90483000Y-70397000I150000J0D01*
G01*
G37*
G36*
G01*
X91753000Y-70397000D02*
X92053000Y-70397000D01*
G75*
G02*
X92203000Y-70547000I0J-150000D01*
G01*
X92203000Y-72197000D01*
G75*
G02*
X92053000Y-72347000I-150000J0D01*
G01*
X91753000Y-72347000D01*
G75*
G02*
X91603000Y-72197000I0J150000D01*
G01*
X91603000Y-70547000D01*
G75*
G02*
X91753000Y-70397000I150000J0D01*
G01*
G37*
G36*
G01*
X93023000Y-70397000D02*
X93323000Y-70397000D01*
G75*
G02*
X93473000Y-70547000I0J-150000D01*
G01*
X93473000Y-72197000D01*
G75*
G02*
X93323000Y-72347000I-150000J0D01*
G01*
X93023000Y-72347000D01*
G75*
G02*
X92873000Y-72197000I0J150000D01*
G01*
X92873000Y-70547000D01*
G75*
G02*
X93023000Y-70397000I150000J0D01*
G01*
G37*
%TD*%
%TO.C,R16*%
G36*
G01*
X114617000Y-67772000D02*
X114617000Y-67222000D01*
G75*
G02*
X114817000Y-67022000I200000J0D01*
G01*
X115217000Y-67022000D01*
G75*
G02*
X115417000Y-67222000I0J-200000D01*
G01*
X115417000Y-67772000D01*
G75*
G02*
X115217000Y-67972000I-200000J0D01*
G01*
X114817000Y-67972000D01*
G75*
G02*
X114617000Y-67772000I0J200000D01*
G01*
G37*
G36*
G01*
X112967000Y-67772000D02*
X112967000Y-67222000D01*
G75*
G02*
X113167000Y-67022000I200000J0D01*
G01*
X113567000Y-67022000D01*
G75*
G02*
X113767000Y-67222000I0J-200000D01*
G01*
X113767000Y-67772000D01*
G75*
G02*
X113567000Y-67972000I-200000J0D01*
G01*
X113167000Y-67972000D01*
G75*
G02*
X112967000Y-67772000I0J200000D01*
G01*
G37*
%TD*%
%TO.C,R14*%
G36*
G01*
X114616000Y-69613500D02*
X114616000Y-69063500D01*
G75*
G02*
X114816000Y-68863500I200000J0D01*
G01*
X115216000Y-68863500D01*
G75*
G02*
X115416000Y-69063500I0J-200000D01*
G01*
X115416000Y-69613500D01*
G75*
G02*
X115216000Y-69813500I-200000J0D01*
G01*
X114816000Y-69813500D01*
G75*
G02*
X114616000Y-69613500I0J200000D01*
G01*
G37*
G36*
G01*
X112966000Y-69613500D02*
X112966000Y-69063500D01*
G75*
G02*
X113166000Y-68863500I200000J0D01*
G01*
X113566000Y-68863500D01*
G75*
G02*
X113766000Y-69063500I0J-200000D01*
G01*
X113766000Y-69613500D01*
G75*
G02*
X113566000Y-69813500I-200000J0D01*
G01*
X113166000Y-69813500D01*
G75*
G02*
X112966000Y-69613500I0J200000D01*
G01*
G37*
%TD*%
%TO.C,R4*%
G36*
G01*
X106019000Y-67222000D02*
X106019000Y-67772000D01*
G75*
G02*
X105819000Y-67972000I-200000J0D01*
G01*
X105419000Y-67972000D01*
G75*
G02*
X105219000Y-67772000I0J200000D01*
G01*
X105219000Y-67222000D01*
G75*
G02*
X105419000Y-67022000I200000J0D01*
G01*
X105819000Y-67022000D01*
G75*
G02*
X106019000Y-67222000I0J-200000D01*
G01*
G37*
G36*
G01*
X107669000Y-67222000D02*
X107669000Y-67772000D01*
G75*
G02*
X107469000Y-67972000I-200000J0D01*
G01*
X107069000Y-67972000D01*
G75*
G02*
X106869000Y-67772000I0J200000D01*
G01*
X106869000Y-67222000D01*
G75*
G02*
X107069000Y-67022000I200000J0D01*
G01*
X107469000Y-67022000D01*
G75*
G02*
X107669000Y-67222000I0J-200000D01*
G01*
G37*
%TD*%
%TO.C,R2*%
G36*
G01*
X106869000Y-69296000D02*
X106869000Y-68746000D01*
G75*
G02*
X107069000Y-68546000I200000J0D01*
G01*
X107469000Y-68546000D01*
G75*
G02*
X107669000Y-68746000I0J-200000D01*
G01*
X107669000Y-69296000D01*
G75*
G02*
X107469000Y-69496000I-200000J0D01*
G01*
X107069000Y-69496000D01*
G75*
G02*
X106869000Y-69296000I0J200000D01*
G01*
G37*
G36*
G01*
X105219000Y-69296000D02*
X105219000Y-68746000D01*
G75*
G02*
X105419000Y-68546000I200000J0D01*
G01*
X105819000Y-68546000D01*
G75*
G02*
X106019000Y-68746000I0J-200000D01*
G01*
X106019000Y-69296000D01*
G75*
G02*
X105819000Y-69496000I-200000J0D01*
G01*
X105419000Y-69496000D01*
G75*
G02*
X105219000Y-69296000I0J200000D01*
G01*
G37*
%TD*%
%TO.C,Q6*%
X117491000Y-69560500D03*
X116541000Y-67560500D03*
X118441000Y-67560500D03*
%TD*%
D10*
%TO.C,Q2*%
X102095000Y-68510500D03*
X104095000Y-67560500D03*
X104095000Y-69460500D03*
%TD*%
%TO.C,C10*%
G36*
G01*
X91072000Y-78669000D02*
X91072000Y-78169000D01*
G75*
G02*
X91297000Y-77944000I225000J0D01*
G01*
X91747000Y-77944000D01*
G75*
G02*
X91972000Y-78169000I0J-225000D01*
G01*
X91972000Y-78669000D01*
G75*
G02*
X91747000Y-78894000I-225000J0D01*
G01*
X91297000Y-78894000D01*
G75*
G02*
X91072000Y-78669000I0J225000D01*
G01*
G37*
G36*
G01*
X89522000Y-78669000D02*
X89522000Y-78169000D01*
G75*
G02*
X89747000Y-77944000I225000J0D01*
G01*
X90197000Y-77944000D01*
G75*
G02*
X90422000Y-78169000I0J-225000D01*
G01*
X90422000Y-78669000D01*
G75*
G02*
X90197000Y-78894000I-225000J0D01*
G01*
X89747000Y-78894000D01*
G75*
G02*
X89522000Y-78669000I0J225000D01*
G01*
G37*
%TD*%
%TO.C,C8*%
G36*
G01*
X91580000Y-69525000D02*
X91580000Y-69025000D01*
G75*
G02*
X91805000Y-68800000I225000J0D01*
G01*
X92255000Y-68800000D01*
G75*
G02*
X92480000Y-69025000I0J-225000D01*
G01*
X92480000Y-69525000D01*
G75*
G02*
X92255000Y-69750000I-225000J0D01*
G01*
X91805000Y-69750000D01*
G75*
G02*
X91580000Y-69525000I0J225000D01*
G01*
G37*
G36*
G01*
X90030000Y-69525000D02*
X90030000Y-69025000D01*
G75*
G02*
X90255000Y-68800000I225000J0D01*
G01*
X90705000Y-68800000D01*
G75*
G02*
X90930000Y-69025000I0J-225000D01*
G01*
X90930000Y-69525000D01*
G75*
G02*
X90705000Y-69750000I-225000J0D01*
G01*
X90255000Y-69750000D01*
G75*
G02*
X90030000Y-69525000I0J225000D01*
G01*
G37*
%TD*%
D11*
%TO.C,U2*%
X112722000Y-72491000D03*
X112722000Y-73141000D03*
X112722000Y-73791000D03*
X112722000Y-74441000D03*
X108422000Y-74441000D03*
X108422000Y-73791000D03*
X108422000Y-73141000D03*
X108422000Y-72491000D03*
%TD*%
%TO.C,R12*%
G36*
G01*
X86802000Y-75859000D02*
X87352000Y-75859000D01*
G75*
G02*
X87552000Y-76059000I0J-200000D01*
G01*
X87552000Y-76459000D01*
G75*
G02*
X87352000Y-76659000I-200000J0D01*
G01*
X86802000Y-76659000D01*
G75*
G02*
X86602000Y-76459000I0J200000D01*
G01*
X86602000Y-76059000D01*
G75*
G02*
X86802000Y-75859000I200000J0D01*
G01*
G37*
G36*
G01*
X86802000Y-74209000D02*
X87352000Y-74209000D01*
G75*
G02*
X87552000Y-74409000I0J-200000D01*
G01*
X87552000Y-74809000D01*
G75*
G02*
X87352000Y-75009000I-200000J0D01*
G01*
X86802000Y-75009000D01*
G75*
G02*
X86602000Y-74809000I0J200000D01*
G01*
X86602000Y-74409000D01*
G75*
G02*
X86802000Y-74209000I200000J0D01*
G01*
G37*
%TD*%
%TO.C,R11*%
G36*
G01*
X86802000Y-79542000D02*
X87352000Y-79542000D01*
G75*
G02*
X87552000Y-79742000I0J-200000D01*
G01*
X87552000Y-80142000D01*
G75*
G02*
X87352000Y-80342000I-200000J0D01*
G01*
X86802000Y-80342000D01*
G75*
G02*
X86602000Y-80142000I0J200000D01*
G01*
X86602000Y-79742000D01*
G75*
G02*
X86802000Y-79542000I200000J0D01*
G01*
G37*
G36*
G01*
X86802000Y-77892000D02*
X87352000Y-77892000D01*
G75*
G02*
X87552000Y-78092000I0J-200000D01*
G01*
X87552000Y-78492000D01*
G75*
G02*
X87352000Y-78692000I-200000J0D01*
G01*
X86802000Y-78692000D01*
G75*
G02*
X86602000Y-78492000I0J200000D01*
G01*
X86602000Y-78092000D01*
G75*
G02*
X86802000Y-77892000I200000J0D01*
G01*
G37*
%TD*%
%TO.C,R8*%
G36*
G01*
X82272000Y-77486500D02*
X81722000Y-77486500D01*
G75*
G02*
X81522000Y-77286500I0J200000D01*
G01*
X81522000Y-76886500D01*
G75*
G02*
X81722000Y-76686500I200000J0D01*
G01*
X82272000Y-76686500D01*
G75*
G02*
X82472000Y-76886500I0J-200000D01*
G01*
X82472000Y-77286500D01*
G75*
G02*
X82272000Y-77486500I-200000J0D01*
G01*
G37*
G36*
G01*
X82272000Y-79136500D02*
X81722000Y-79136500D01*
G75*
G02*
X81522000Y-78936500I0J200000D01*
G01*
X81522000Y-78536500D01*
G75*
G02*
X81722000Y-78336500I200000J0D01*
G01*
X82272000Y-78336500D01*
G75*
G02*
X82472000Y-78536500I0J-200000D01*
G01*
X82472000Y-78936500D01*
G75*
G02*
X82272000Y-79136500I-200000J0D01*
G01*
G37*
%TD*%
%TO.C,R7*%
G36*
G01*
X81722000Y-81447000D02*
X82272000Y-81447000D01*
G75*
G02*
X82472000Y-81647000I0J-200000D01*
G01*
X82472000Y-82047000D01*
G75*
G02*
X82272000Y-82247000I-200000J0D01*
G01*
X81722000Y-82247000D01*
G75*
G02*
X81522000Y-82047000I0J200000D01*
G01*
X81522000Y-81647000D01*
G75*
G02*
X81722000Y-81447000I200000J0D01*
G01*
G37*
G36*
G01*
X81722000Y-79797000D02*
X82272000Y-79797000D01*
G75*
G02*
X82472000Y-79997000I0J-200000D01*
G01*
X82472000Y-80397000D01*
G75*
G02*
X82272000Y-80597000I-200000J0D01*
G01*
X81722000Y-80597000D01*
G75*
G02*
X81522000Y-80397000I0J200000D01*
G01*
X81522000Y-79997000D01*
G75*
G02*
X81722000Y-79797000I200000J0D01*
G01*
G37*
%TD*%
%TO.C,R20*%
G36*
G01*
X122870000Y-69129000D02*
X123420000Y-69129000D01*
G75*
G02*
X123620000Y-69329000I0J-200000D01*
G01*
X123620000Y-69729000D01*
G75*
G02*
X123420000Y-69929000I-200000J0D01*
G01*
X122870000Y-69929000D01*
G75*
G02*
X122670000Y-69729000I0J200000D01*
G01*
X122670000Y-69329000D01*
G75*
G02*
X122870000Y-69129000I200000J0D01*
G01*
G37*
G36*
G01*
X122870000Y-67479000D02*
X123420000Y-67479000D01*
G75*
G02*
X123620000Y-67679000I0J-200000D01*
G01*
X123620000Y-68079000D01*
G75*
G02*
X123420000Y-68279000I-200000J0D01*
G01*
X122870000Y-68279000D01*
G75*
G02*
X122670000Y-68079000I0J200000D01*
G01*
X122670000Y-67679000D01*
G75*
G02*
X122870000Y-67479000I200000J0D01*
G01*
G37*
%TD*%
%TO.C,R19*%
G36*
G01*
X124394000Y-69129000D02*
X124944000Y-69129000D01*
G75*
G02*
X125144000Y-69329000I0J-200000D01*
G01*
X125144000Y-69729000D01*
G75*
G02*
X124944000Y-69929000I-200000J0D01*
G01*
X124394000Y-69929000D01*
G75*
G02*
X124194000Y-69729000I0J200000D01*
G01*
X124194000Y-69329000D01*
G75*
G02*
X124394000Y-69129000I200000J0D01*
G01*
G37*
G36*
G01*
X124394000Y-67479000D02*
X124944000Y-67479000D01*
G75*
G02*
X125144000Y-67679000I0J-200000D01*
G01*
X125144000Y-68079000D01*
G75*
G02*
X124944000Y-68279000I-200000J0D01*
G01*
X124394000Y-68279000D01*
G75*
G02*
X124194000Y-68079000I0J200000D01*
G01*
X124194000Y-67679000D01*
G75*
G02*
X124394000Y-67479000I200000J0D01*
G01*
G37*
%TD*%
%TO.C,R10*%
G36*
G01*
X95692000Y-69129000D02*
X96242000Y-69129000D01*
G75*
G02*
X96442000Y-69329000I0J-200000D01*
G01*
X96442000Y-69729000D01*
G75*
G02*
X96242000Y-69929000I-200000J0D01*
G01*
X95692000Y-69929000D01*
G75*
G02*
X95492000Y-69729000I0J200000D01*
G01*
X95492000Y-69329000D01*
G75*
G02*
X95692000Y-69129000I200000J0D01*
G01*
G37*
G36*
G01*
X95692000Y-67479000D02*
X96242000Y-67479000D01*
G75*
G02*
X96442000Y-67679000I0J-200000D01*
G01*
X96442000Y-68079000D01*
G75*
G02*
X96242000Y-68279000I-200000J0D01*
G01*
X95692000Y-68279000D01*
G75*
G02*
X95492000Y-68079000I0J200000D01*
G01*
X95492000Y-67679000D01*
G75*
G02*
X95692000Y-67479000I200000J0D01*
G01*
G37*
%TD*%
%TO.C,R9*%
G36*
G01*
X97216000Y-69129000D02*
X97766000Y-69129000D01*
G75*
G02*
X97966000Y-69329000I0J-200000D01*
G01*
X97966000Y-69729000D01*
G75*
G02*
X97766000Y-69929000I-200000J0D01*
G01*
X97216000Y-69929000D01*
G75*
G02*
X97016000Y-69729000I0J200000D01*
G01*
X97016000Y-69329000D01*
G75*
G02*
X97216000Y-69129000I200000J0D01*
G01*
G37*
G36*
G01*
X97216000Y-67479000D02*
X97766000Y-67479000D01*
G75*
G02*
X97966000Y-67679000I0J-200000D01*
G01*
X97966000Y-68079000D01*
G75*
G02*
X97766000Y-68279000I-200000J0D01*
G01*
X97216000Y-68279000D01*
G75*
G02*
X97016000Y-68079000I0J200000D01*
G01*
X97016000Y-67679000D01*
G75*
G02*
X97216000Y-67479000I200000J0D01*
G01*
G37*
%TD*%
%TO.C,R18*%
G36*
G01*
X121221000Y-68153000D02*
X121221000Y-67603000D01*
G75*
G02*
X121421000Y-67403000I200000J0D01*
G01*
X121821000Y-67403000D01*
G75*
G02*
X122021000Y-67603000I0J-200000D01*
G01*
X122021000Y-68153000D01*
G75*
G02*
X121821000Y-68353000I-200000J0D01*
G01*
X121421000Y-68353000D01*
G75*
G02*
X121221000Y-68153000I0J200000D01*
G01*
G37*
G36*
G01*
X119571000Y-68153000D02*
X119571000Y-67603000D01*
G75*
G02*
X119771000Y-67403000I200000J0D01*
G01*
X120171000Y-67403000D01*
G75*
G02*
X120371000Y-67603000I0J-200000D01*
G01*
X120371000Y-68153000D01*
G75*
G02*
X120171000Y-68353000I-200000J0D01*
G01*
X119771000Y-68353000D01*
G75*
G02*
X119571000Y-68153000I0J200000D01*
G01*
G37*
%TD*%
%TO.C,R6*%
G36*
G01*
X99415000Y-67603000D02*
X99415000Y-68153000D01*
G75*
G02*
X99215000Y-68353000I-200000J0D01*
G01*
X98815000Y-68353000D01*
G75*
G02*
X98615000Y-68153000I0J200000D01*
G01*
X98615000Y-67603000D01*
G75*
G02*
X98815000Y-67403000I200000J0D01*
G01*
X99215000Y-67403000D01*
G75*
G02*
X99415000Y-67603000I0J-200000D01*
G01*
G37*
G36*
G01*
X101065000Y-67603000D02*
X101065000Y-68153000D01*
G75*
G02*
X100865000Y-68353000I-200000J0D01*
G01*
X100465000Y-68353000D01*
G75*
G02*
X100265000Y-68153000I0J200000D01*
G01*
X100265000Y-67603000D01*
G75*
G02*
X100465000Y-67403000I200000J0D01*
G01*
X100865000Y-67403000D01*
G75*
G02*
X101065000Y-67603000I0J-200000D01*
G01*
G37*
%TD*%
D10*
%TO.C,Q4*%
X83521000Y-75432000D03*
X85521000Y-74482000D03*
X85521000Y-76382000D03*
%TD*%
%TO.C,Q3*%
X83521000Y-79054000D03*
X85521000Y-78104000D03*
X85521000Y-80004000D03*
%TD*%
%TO.C,C13*%
G36*
G01*
X110895000Y-70549000D02*
X110895000Y-71049000D01*
G75*
G02*
X110670000Y-71274000I-225000J0D01*
G01*
X110220000Y-71274000D01*
G75*
G02*
X109995000Y-71049000I0J225000D01*
G01*
X109995000Y-70549000D01*
G75*
G02*
X110220000Y-70324000I225000J0D01*
G01*
X110670000Y-70324000D01*
G75*
G02*
X110895000Y-70549000I0J-225000D01*
G01*
G37*
G36*
G01*
X112445000Y-70549000D02*
X112445000Y-71049000D01*
G75*
G02*
X112220000Y-71274000I-225000J0D01*
G01*
X111770000Y-71274000D01*
G75*
G02*
X111545000Y-71049000I0J225000D01*
G01*
X111545000Y-70549000D01*
G75*
G02*
X111770000Y-70324000I225000J0D01*
G01*
X112220000Y-70324000D01*
G75*
G02*
X112445000Y-70549000I0J-225000D01*
G01*
G37*
%TD*%
M02*
