M48
; DRILL file {KiCad (5.1.10)-1} date 01/17/22 19:26:11
; FORMAT={3:3/ absolute / metric / keep zeros}
; #@! TF.CreationDate,2022-01-17T19:26:11+07:00
; #@! TF.GenerationSoftware,Kicad,Pcbnew,(5.1.10)-1
; #@! TF.FileFunction,Plated,1,4,PTH
FMAT,2
METRIC
T1C0.400
T2C0.650
T3C0.700
T4C1.000
T5C1.075
T6C1.200
%
G90
G05
T1
X081997Y-078736
X081997Y-080197
X081997Y-103737
X081997Y-105197
X083521Y-075432
X083521Y-100432
X087077Y-079943
X087077Y-104943
X089972Y-078419
X089972Y-103419
X090480Y-069275
X090480Y-094275
X090633Y-074736
X090633Y-099736
X091903Y-074736
X091903Y-099736
X095967Y-067878
X095967Y-069529
X095967Y-092878
X095967Y-094529
X097491Y-067878
X097491Y-069529
X097491Y-092878
X097491Y-094529
X104095Y-067561
X104095Y-092561
X105619Y-067497
X105619Y-092497
X107397Y-071688
X107397Y-096688
X109497Y-073631
X109497Y-098631
X110445Y-070799
X110445Y-095799
X111616Y-074016
X111616Y-099016
X111616Y-072916
X111616Y-097916
X111995Y-070799
X111995Y-095799
X113833Y-074441
X113833Y-099441
X114255Y-070661
X114255Y-095661
X115017Y-067497
X115017Y-092497
X116541Y-067561
X116541Y-092561
X123145Y-067878
X123145Y-069529
X123145Y-092878
X123145Y-094529
X124669Y-067878
X124669Y-069529
X124669Y-092878
X124669Y-094529
T2
X082251Y-071180
X082251Y-072450
X082251Y-096180
X082251Y-097450
X083521Y-071180
X083521Y-072450
X083521Y-096180
X083521Y-097450
X084791Y-071180
X084791Y-072450
X084791Y-096180
X084791Y-097450
T3
X089871Y-085658
X089871Y-110658
X091395Y-081340
X091395Y-106340
T4
X087141Y-083118
X087141Y-108118
X095713Y-071942
X095713Y-074482
X095713Y-079562
X095713Y-084642
X095713Y-089722
X095713Y-096942
X095713Y-099482
X095713Y-104562
X095713Y-109642
X095713Y-114722
X103333Y-071942
X103333Y-074482
X103333Y-079562
X103333Y-084642
X103333Y-089722
X103333Y-096942
X103333Y-099482
X103333Y-104562
X103333Y-109642
X103333Y-114722
X107270Y-089468
X107270Y-114468
X109810Y-089468
X109810Y-114468
X112350Y-089468
X112350Y-114468
X116287Y-071942
X116287Y-074482
X116287Y-079562
X116287Y-084642
X116287Y-089722
X116287Y-096942
X116287Y-099482
X116287Y-104562
X116287Y-109642
X116287Y-114722
X123907Y-071942
X123907Y-074482
X123907Y-079562
X123907Y-084642
X123907Y-089722
X123907Y-096942
X123907Y-099482
X123907Y-104562
X123907Y-109642
X123907Y-114722
T5
X083521Y-089849
X083521Y-114849
X086061Y-089849
X086061Y-114849
X088601Y-089849
X088601Y-114849
X091141Y-089849
X091141Y-114849
T6
X098613Y-087182
X098613Y-112182
X121113Y-087182
X121113Y-112182
X129241Y-070545
X129241Y-088045
X129241Y-095545
X129241Y-113045
T0
M30
