%TF.GenerationSoftware,KiCad,Pcbnew,(5.1.10)-1*%
%TF.CreationDate,2022-01-18T18:11:06+07:00*%
%TF.ProjectId,Fan_controller_v3_pnlz1x2,46616e5f-636f-46e7-9472-6f6c6c65725f,rev?*%
%TF.SameCoordinates,Original*%
%TF.FileFunction,Paste,Top*%
%TF.FilePolarity,Positive*%
%FSLAX46Y46*%
G04 Gerber Fmt 4.6, Leading zero omitted, Abs format (unit mm)*
G04 Created by KiCad (PCBNEW (5.1.10)-1) date 2022-01-18 18:11:06*
%MOMM*%
%LPD*%
G01*
G04 APERTURE LIST*
%ADD10R,0.900000X0.800000*%
%ADD11R,0.800000X0.900000*%
%ADD12R,1.100000X0.400000*%
G04 APERTURE END LIST*
%TO.C,C13*%
G36*
G01*
X75945000Y-67549000D02*
X75945000Y-68049000D01*
G75*
G02*
X75720000Y-68274000I-225000J0D01*
G01*
X75270000Y-68274000D01*
G75*
G02*
X75045000Y-68049000I0J225000D01*
G01*
X75045000Y-67549000D01*
G75*
G02*
X75270000Y-67324000I225000J0D01*
G01*
X75720000Y-67324000D01*
G75*
G02*
X75945000Y-67549000I0J-225000D01*
G01*
G37*
G36*
G01*
X74395000Y-67549000D02*
X74395000Y-68049000D01*
G75*
G02*
X74170000Y-68274000I-225000J0D01*
G01*
X73720000Y-68274000D01*
G75*
G02*
X73495000Y-68049000I0J225000D01*
G01*
X73495000Y-67549000D01*
G75*
G02*
X73720000Y-67324000I225000J0D01*
G01*
X74170000Y-67324000D01*
G75*
G02*
X74395000Y-67549000I0J-225000D01*
G01*
G37*
%TD*%
D10*
%TO.C,Q3*%
X49021000Y-77004000D03*
X49021000Y-75104000D03*
X47021000Y-76054000D03*
%TD*%
%TO.C,Q4*%
X49021000Y-73382000D03*
X49021000Y-71482000D03*
X47021000Y-72432000D03*
%TD*%
%TO.C,R6*%
G36*
G01*
X64565000Y-64603000D02*
X64565000Y-65153000D01*
G75*
G02*
X64365000Y-65353000I-200000J0D01*
G01*
X63965000Y-65353000D01*
G75*
G02*
X63765000Y-65153000I0J200000D01*
G01*
X63765000Y-64603000D01*
G75*
G02*
X63965000Y-64403000I200000J0D01*
G01*
X64365000Y-64403000D01*
G75*
G02*
X64565000Y-64603000I0J-200000D01*
G01*
G37*
G36*
G01*
X62915000Y-64603000D02*
X62915000Y-65153000D01*
G75*
G02*
X62715000Y-65353000I-200000J0D01*
G01*
X62315000Y-65353000D01*
G75*
G02*
X62115000Y-65153000I0J200000D01*
G01*
X62115000Y-64603000D01*
G75*
G02*
X62315000Y-64403000I200000J0D01*
G01*
X62715000Y-64403000D01*
G75*
G02*
X62915000Y-64603000I0J-200000D01*
G01*
G37*
%TD*%
%TO.C,R18*%
G36*
G01*
X83071000Y-65153000D02*
X83071000Y-64603000D01*
G75*
G02*
X83271000Y-64403000I200000J0D01*
G01*
X83671000Y-64403000D01*
G75*
G02*
X83871000Y-64603000I0J-200000D01*
G01*
X83871000Y-65153000D01*
G75*
G02*
X83671000Y-65353000I-200000J0D01*
G01*
X83271000Y-65353000D01*
G75*
G02*
X83071000Y-65153000I0J200000D01*
G01*
G37*
G36*
G01*
X84721000Y-65153000D02*
X84721000Y-64603000D01*
G75*
G02*
X84921000Y-64403000I200000J0D01*
G01*
X85321000Y-64403000D01*
G75*
G02*
X85521000Y-64603000I0J-200000D01*
G01*
X85521000Y-65153000D01*
G75*
G02*
X85321000Y-65353000I-200000J0D01*
G01*
X84921000Y-65353000D01*
G75*
G02*
X84721000Y-65153000I0J200000D01*
G01*
G37*
%TD*%
%TO.C,R9*%
G36*
G01*
X60716000Y-64479000D02*
X61266000Y-64479000D01*
G75*
G02*
X61466000Y-64679000I0J-200000D01*
G01*
X61466000Y-65079000D01*
G75*
G02*
X61266000Y-65279000I-200000J0D01*
G01*
X60716000Y-65279000D01*
G75*
G02*
X60516000Y-65079000I0J200000D01*
G01*
X60516000Y-64679000D01*
G75*
G02*
X60716000Y-64479000I200000J0D01*
G01*
G37*
G36*
G01*
X60716000Y-66129000D02*
X61266000Y-66129000D01*
G75*
G02*
X61466000Y-66329000I0J-200000D01*
G01*
X61466000Y-66729000D01*
G75*
G02*
X61266000Y-66929000I-200000J0D01*
G01*
X60716000Y-66929000D01*
G75*
G02*
X60516000Y-66729000I0J200000D01*
G01*
X60516000Y-66329000D01*
G75*
G02*
X60716000Y-66129000I200000J0D01*
G01*
G37*
%TD*%
%TO.C,R10*%
G36*
G01*
X59192000Y-64479000D02*
X59742000Y-64479000D01*
G75*
G02*
X59942000Y-64679000I0J-200000D01*
G01*
X59942000Y-65079000D01*
G75*
G02*
X59742000Y-65279000I-200000J0D01*
G01*
X59192000Y-65279000D01*
G75*
G02*
X58992000Y-65079000I0J200000D01*
G01*
X58992000Y-64679000D01*
G75*
G02*
X59192000Y-64479000I200000J0D01*
G01*
G37*
G36*
G01*
X59192000Y-66129000D02*
X59742000Y-66129000D01*
G75*
G02*
X59942000Y-66329000I0J-200000D01*
G01*
X59942000Y-66729000D01*
G75*
G02*
X59742000Y-66929000I-200000J0D01*
G01*
X59192000Y-66929000D01*
G75*
G02*
X58992000Y-66729000I0J200000D01*
G01*
X58992000Y-66329000D01*
G75*
G02*
X59192000Y-66129000I200000J0D01*
G01*
G37*
%TD*%
%TO.C,R19*%
G36*
G01*
X87894000Y-64479000D02*
X88444000Y-64479000D01*
G75*
G02*
X88644000Y-64679000I0J-200000D01*
G01*
X88644000Y-65079000D01*
G75*
G02*
X88444000Y-65279000I-200000J0D01*
G01*
X87894000Y-65279000D01*
G75*
G02*
X87694000Y-65079000I0J200000D01*
G01*
X87694000Y-64679000D01*
G75*
G02*
X87894000Y-64479000I200000J0D01*
G01*
G37*
G36*
G01*
X87894000Y-66129000D02*
X88444000Y-66129000D01*
G75*
G02*
X88644000Y-66329000I0J-200000D01*
G01*
X88644000Y-66729000D01*
G75*
G02*
X88444000Y-66929000I-200000J0D01*
G01*
X87894000Y-66929000D01*
G75*
G02*
X87694000Y-66729000I0J200000D01*
G01*
X87694000Y-66329000D01*
G75*
G02*
X87894000Y-66129000I200000J0D01*
G01*
G37*
%TD*%
%TO.C,R20*%
G36*
G01*
X86370000Y-64479000D02*
X86920000Y-64479000D01*
G75*
G02*
X87120000Y-64679000I0J-200000D01*
G01*
X87120000Y-65079000D01*
G75*
G02*
X86920000Y-65279000I-200000J0D01*
G01*
X86370000Y-65279000D01*
G75*
G02*
X86170000Y-65079000I0J200000D01*
G01*
X86170000Y-64679000D01*
G75*
G02*
X86370000Y-64479000I200000J0D01*
G01*
G37*
G36*
G01*
X86370000Y-66129000D02*
X86920000Y-66129000D01*
G75*
G02*
X87120000Y-66329000I0J-200000D01*
G01*
X87120000Y-66729000D01*
G75*
G02*
X86920000Y-66929000I-200000J0D01*
G01*
X86370000Y-66929000D01*
G75*
G02*
X86170000Y-66729000I0J200000D01*
G01*
X86170000Y-66329000D01*
G75*
G02*
X86370000Y-66129000I200000J0D01*
G01*
G37*
%TD*%
%TO.C,R7*%
G36*
G01*
X45222000Y-76797000D02*
X45772000Y-76797000D01*
G75*
G02*
X45972000Y-76997000I0J-200000D01*
G01*
X45972000Y-77397000D01*
G75*
G02*
X45772000Y-77597000I-200000J0D01*
G01*
X45222000Y-77597000D01*
G75*
G02*
X45022000Y-77397000I0J200000D01*
G01*
X45022000Y-76997000D01*
G75*
G02*
X45222000Y-76797000I200000J0D01*
G01*
G37*
G36*
G01*
X45222000Y-78447000D02*
X45772000Y-78447000D01*
G75*
G02*
X45972000Y-78647000I0J-200000D01*
G01*
X45972000Y-79047000D01*
G75*
G02*
X45772000Y-79247000I-200000J0D01*
G01*
X45222000Y-79247000D01*
G75*
G02*
X45022000Y-79047000I0J200000D01*
G01*
X45022000Y-78647000D01*
G75*
G02*
X45222000Y-78447000I200000J0D01*
G01*
G37*
%TD*%
D11*
%TO.C,Q6*%
X81941000Y-64560500D03*
X80041000Y-64560500D03*
X80991000Y-66560500D03*
%TD*%
%TO.C,R2*%
G36*
G01*
X68719000Y-66296000D02*
X68719000Y-65746000D01*
G75*
G02*
X68919000Y-65546000I200000J0D01*
G01*
X69319000Y-65546000D01*
G75*
G02*
X69519000Y-65746000I0J-200000D01*
G01*
X69519000Y-66296000D01*
G75*
G02*
X69319000Y-66496000I-200000J0D01*
G01*
X68919000Y-66496000D01*
G75*
G02*
X68719000Y-66296000I0J200000D01*
G01*
G37*
G36*
G01*
X70369000Y-66296000D02*
X70369000Y-65746000D01*
G75*
G02*
X70569000Y-65546000I200000J0D01*
G01*
X70969000Y-65546000D01*
G75*
G02*
X71169000Y-65746000I0J-200000D01*
G01*
X71169000Y-66296000D01*
G75*
G02*
X70969000Y-66496000I-200000J0D01*
G01*
X70569000Y-66496000D01*
G75*
G02*
X70369000Y-66296000I0J200000D01*
G01*
G37*
%TD*%
%TO.C,R4*%
G36*
G01*
X71169000Y-64222000D02*
X71169000Y-64772000D01*
G75*
G02*
X70969000Y-64972000I-200000J0D01*
G01*
X70569000Y-64972000D01*
G75*
G02*
X70369000Y-64772000I0J200000D01*
G01*
X70369000Y-64222000D01*
G75*
G02*
X70569000Y-64022000I200000J0D01*
G01*
X70969000Y-64022000D01*
G75*
G02*
X71169000Y-64222000I0J-200000D01*
G01*
G37*
G36*
G01*
X69519000Y-64222000D02*
X69519000Y-64772000D01*
G75*
G02*
X69319000Y-64972000I-200000J0D01*
G01*
X68919000Y-64972000D01*
G75*
G02*
X68719000Y-64772000I0J200000D01*
G01*
X68719000Y-64222000D01*
G75*
G02*
X68919000Y-64022000I200000J0D01*
G01*
X69319000Y-64022000D01*
G75*
G02*
X69519000Y-64222000I0J-200000D01*
G01*
G37*
%TD*%
%TO.C,R14*%
G36*
G01*
X76466000Y-66613500D02*
X76466000Y-66063500D01*
G75*
G02*
X76666000Y-65863500I200000J0D01*
G01*
X77066000Y-65863500D01*
G75*
G02*
X77266000Y-66063500I0J-200000D01*
G01*
X77266000Y-66613500D01*
G75*
G02*
X77066000Y-66813500I-200000J0D01*
G01*
X76666000Y-66813500D01*
G75*
G02*
X76466000Y-66613500I0J200000D01*
G01*
G37*
G36*
G01*
X78116000Y-66613500D02*
X78116000Y-66063500D01*
G75*
G02*
X78316000Y-65863500I200000J0D01*
G01*
X78716000Y-65863500D01*
G75*
G02*
X78916000Y-66063500I0J-200000D01*
G01*
X78916000Y-66613500D01*
G75*
G02*
X78716000Y-66813500I-200000J0D01*
G01*
X78316000Y-66813500D01*
G75*
G02*
X78116000Y-66613500I0J200000D01*
G01*
G37*
%TD*%
%TO.C,R8*%
G36*
G01*
X45772000Y-76136500D02*
X45222000Y-76136500D01*
G75*
G02*
X45022000Y-75936500I0J200000D01*
G01*
X45022000Y-75536500D01*
G75*
G02*
X45222000Y-75336500I200000J0D01*
G01*
X45772000Y-75336500D01*
G75*
G02*
X45972000Y-75536500I0J-200000D01*
G01*
X45972000Y-75936500D01*
G75*
G02*
X45772000Y-76136500I-200000J0D01*
G01*
G37*
G36*
G01*
X45772000Y-74486500D02*
X45222000Y-74486500D01*
G75*
G02*
X45022000Y-74286500I0J200000D01*
G01*
X45022000Y-73886500D01*
G75*
G02*
X45222000Y-73686500I200000J0D01*
G01*
X45772000Y-73686500D01*
G75*
G02*
X45972000Y-73886500I0J-200000D01*
G01*
X45972000Y-74286500D01*
G75*
G02*
X45772000Y-74486500I-200000J0D01*
G01*
G37*
%TD*%
%TO.C,R11*%
G36*
G01*
X50302000Y-74892000D02*
X50852000Y-74892000D01*
G75*
G02*
X51052000Y-75092000I0J-200000D01*
G01*
X51052000Y-75492000D01*
G75*
G02*
X50852000Y-75692000I-200000J0D01*
G01*
X50302000Y-75692000D01*
G75*
G02*
X50102000Y-75492000I0J200000D01*
G01*
X50102000Y-75092000D01*
G75*
G02*
X50302000Y-74892000I200000J0D01*
G01*
G37*
G36*
G01*
X50302000Y-76542000D02*
X50852000Y-76542000D01*
G75*
G02*
X51052000Y-76742000I0J-200000D01*
G01*
X51052000Y-77142000D01*
G75*
G02*
X50852000Y-77342000I-200000J0D01*
G01*
X50302000Y-77342000D01*
G75*
G02*
X50102000Y-77142000I0J200000D01*
G01*
X50102000Y-76742000D01*
G75*
G02*
X50302000Y-76542000I200000J0D01*
G01*
G37*
%TD*%
%TO.C,R12*%
G36*
G01*
X50302000Y-71209000D02*
X50852000Y-71209000D01*
G75*
G02*
X51052000Y-71409000I0J-200000D01*
G01*
X51052000Y-71809000D01*
G75*
G02*
X50852000Y-72009000I-200000J0D01*
G01*
X50302000Y-72009000D01*
G75*
G02*
X50102000Y-71809000I0J200000D01*
G01*
X50102000Y-71409000D01*
G75*
G02*
X50302000Y-71209000I200000J0D01*
G01*
G37*
G36*
G01*
X50302000Y-72859000D02*
X50852000Y-72859000D01*
G75*
G02*
X51052000Y-73059000I0J-200000D01*
G01*
X51052000Y-73459000D01*
G75*
G02*
X50852000Y-73659000I-200000J0D01*
G01*
X50302000Y-73659000D01*
G75*
G02*
X50102000Y-73459000I0J200000D01*
G01*
X50102000Y-73059000D01*
G75*
G02*
X50302000Y-72859000I200000J0D01*
G01*
G37*
%TD*%
%TO.C,R16*%
G36*
G01*
X76467000Y-64772000D02*
X76467000Y-64222000D01*
G75*
G02*
X76667000Y-64022000I200000J0D01*
G01*
X77067000Y-64022000D01*
G75*
G02*
X77267000Y-64222000I0J-200000D01*
G01*
X77267000Y-64772000D01*
G75*
G02*
X77067000Y-64972000I-200000J0D01*
G01*
X76667000Y-64972000D01*
G75*
G02*
X76467000Y-64772000I0J200000D01*
G01*
G37*
G36*
G01*
X78117000Y-64772000D02*
X78117000Y-64222000D01*
G75*
G02*
X78317000Y-64022000I200000J0D01*
G01*
X78717000Y-64022000D01*
G75*
G02*
X78917000Y-64222000I0J-200000D01*
G01*
X78917000Y-64772000D01*
G75*
G02*
X78717000Y-64972000I-200000J0D01*
G01*
X78317000Y-64972000D01*
G75*
G02*
X78117000Y-64772000I0J200000D01*
G01*
G37*
%TD*%
%TO.C,U1*%
G36*
G01*
X56523000Y-67397000D02*
X56823000Y-67397000D01*
G75*
G02*
X56973000Y-67547000I0J-150000D01*
G01*
X56973000Y-69197000D01*
G75*
G02*
X56823000Y-69347000I-150000J0D01*
G01*
X56523000Y-69347000D01*
G75*
G02*
X56373000Y-69197000I0J150000D01*
G01*
X56373000Y-67547000D01*
G75*
G02*
X56523000Y-67397000I150000J0D01*
G01*
G37*
G36*
G01*
X55253000Y-67397000D02*
X55553000Y-67397000D01*
G75*
G02*
X55703000Y-67547000I0J-150000D01*
G01*
X55703000Y-69197000D01*
G75*
G02*
X55553000Y-69347000I-150000J0D01*
G01*
X55253000Y-69347000D01*
G75*
G02*
X55103000Y-69197000I0J150000D01*
G01*
X55103000Y-67547000D01*
G75*
G02*
X55253000Y-67397000I150000J0D01*
G01*
G37*
G36*
G01*
X53983000Y-67397000D02*
X54283000Y-67397000D01*
G75*
G02*
X54433000Y-67547000I0J-150000D01*
G01*
X54433000Y-69197000D01*
G75*
G02*
X54283000Y-69347000I-150000J0D01*
G01*
X53983000Y-69347000D01*
G75*
G02*
X53833000Y-69197000I0J150000D01*
G01*
X53833000Y-67547000D01*
G75*
G02*
X53983000Y-67397000I150000J0D01*
G01*
G37*
G36*
G01*
X52713000Y-67397000D02*
X53013000Y-67397000D01*
G75*
G02*
X53163000Y-67547000I0J-150000D01*
G01*
X53163000Y-69197000D01*
G75*
G02*
X53013000Y-69347000I-150000J0D01*
G01*
X52713000Y-69347000D01*
G75*
G02*
X52563000Y-69197000I0J150000D01*
G01*
X52563000Y-67547000D01*
G75*
G02*
X52713000Y-67397000I150000J0D01*
G01*
G37*
G36*
G01*
X52713000Y-72347000D02*
X53013000Y-72347000D01*
G75*
G02*
X53163000Y-72497000I0J-150000D01*
G01*
X53163000Y-74147000D01*
G75*
G02*
X53013000Y-74297000I-150000J0D01*
G01*
X52713000Y-74297000D01*
G75*
G02*
X52563000Y-74147000I0J150000D01*
G01*
X52563000Y-72497000D01*
G75*
G02*
X52713000Y-72347000I150000J0D01*
G01*
G37*
G36*
G01*
X53983000Y-72347000D02*
X54283000Y-72347000D01*
G75*
G02*
X54433000Y-72497000I0J-150000D01*
G01*
X54433000Y-74147000D01*
G75*
G02*
X54283000Y-74297000I-150000J0D01*
G01*
X53983000Y-74297000D01*
G75*
G02*
X53833000Y-74147000I0J150000D01*
G01*
X53833000Y-72497000D01*
G75*
G02*
X53983000Y-72347000I150000J0D01*
G01*
G37*
G36*
G01*
X55253000Y-72347000D02*
X55553000Y-72347000D01*
G75*
G02*
X55703000Y-72497000I0J-150000D01*
G01*
X55703000Y-74147000D01*
G75*
G02*
X55553000Y-74297000I-150000J0D01*
G01*
X55253000Y-74297000D01*
G75*
G02*
X55103000Y-74147000I0J150000D01*
G01*
X55103000Y-72497000D01*
G75*
G02*
X55253000Y-72347000I150000J0D01*
G01*
G37*
G36*
G01*
X56523000Y-72347000D02*
X56823000Y-72347000D01*
G75*
G02*
X56973000Y-72497000I0J-150000D01*
G01*
X56973000Y-74147000D01*
G75*
G02*
X56823000Y-74297000I-150000J0D01*
G01*
X56523000Y-74297000D01*
G75*
G02*
X56373000Y-74147000I0J150000D01*
G01*
X56373000Y-72497000D01*
G75*
G02*
X56523000Y-72347000I150000J0D01*
G01*
G37*
%TD*%
D12*
%TO.C,U2*%
X71922000Y-69491000D03*
X71922000Y-70141000D03*
X71922000Y-70791000D03*
X71922000Y-71441000D03*
X76222000Y-71441000D03*
X76222000Y-70791000D03*
X76222000Y-70141000D03*
X76222000Y-69491000D03*
%TD*%
%TO.C,C8*%
G36*
G01*
X53530000Y-66525000D02*
X53530000Y-66025000D01*
G75*
G02*
X53755000Y-65800000I225000J0D01*
G01*
X54205000Y-65800000D01*
G75*
G02*
X54430000Y-66025000I0J-225000D01*
G01*
X54430000Y-66525000D01*
G75*
G02*
X54205000Y-66750000I-225000J0D01*
G01*
X53755000Y-66750000D01*
G75*
G02*
X53530000Y-66525000I0J225000D01*
G01*
G37*
G36*
G01*
X55080000Y-66525000D02*
X55080000Y-66025000D01*
G75*
G02*
X55305000Y-65800000I225000J0D01*
G01*
X55755000Y-65800000D01*
G75*
G02*
X55980000Y-66025000I0J-225000D01*
G01*
X55980000Y-66525000D01*
G75*
G02*
X55755000Y-66750000I-225000J0D01*
G01*
X55305000Y-66750000D01*
G75*
G02*
X55080000Y-66525000I0J225000D01*
G01*
G37*
%TD*%
%TO.C,C10*%
G36*
G01*
X53022000Y-75669000D02*
X53022000Y-75169000D01*
G75*
G02*
X53247000Y-74944000I225000J0D01*
G01*
X53697000Y-74944000D01*
G75*
G02*
X53922000Y-75169000I0J-225000D01*
G01*
X53922000Y-75669000D01*
G75*
G02*
X53697000Y-75894000I-225000J0D01*
G01*
X53247000Y-75894000D01*
G75*
G02*
X53022000Y-75669000I0J225000D01*
G01*
G37*
G36*
G01*
X54572000Y-75669000D02*
X54572000Y-75169000D01*
G75*
G02*
X54797000Y-74944000I225000J0D01*
G01*
X55247000Y-74944000D01*
G75*
G02*
X55472000Y-75169000I0J-225000D01*
G01*
X55472000Y-75669000D01*
G75*
G02*
X55247000Y-75894000I-225000J0D01*
G01*
X54797000Y-75894000D01*
G75*
G02*
X54572000Y-75669000I0J225000D01*
G01*
G37*
%TD*%
D10*
%TO.C,Q2*%
X67595000Y-66460500D03*
X67595000Y-64560500D03*
X65595000Y-65510500D03*
%TD*%
%TO.C,U1*%
G36*
G01*
X56523000Y-47347000D02*
X56823000Y-47347000D01*
G75*
G02*
X56973000Y-47497000I0J-150000D01*
G01*
X56973000Y-49147000D01*
G75*
G02*
X56823000Y-49297000I-150000J0D01*
G01*
X56523000Y-49297000D01*
G75*
G02*
X56373000Y-49147000I0J150000D01*
G01*
X56373000Y-47497000D01*
G75*
G02*
X56523000Y-47347000I150000J0D01*
G01*
G37*
G36*
G01*
X55253000Y-47347000D02*
X55553000Y-47347000D01*
G75*
G02*
X55703000Y-47497000I0J-150000D01*
G01*
X55703000Y-49147000D01*
G75*
G02*
X55553000Y-49297000I-150000J0D01*
G01*
X55253000Y-49297000D01*
G75*
G02*
X55103000Y-49147000I0J150000D01*
G01*
X55103000Y-47497000D01*
G75*
G02*
X55253000Y-47347000I150000J0D01*
G01*
G37*
G36*
G01*
X53983000Y-47347000D02*
X54283000Y-47347000D01*
G75*
G02*
X54433000Y-47497000I0J-150000D01*
G01*
X54433000Y-49147000D01*
G75*
G02*
X54283000Y-49297000I-150000J0D01*
G01*
X53983000Y-49297000D01*
G75*
G02*
X53833000Y-49147000I0J150000D01*
G01*
X53833000Y-47497000D01*
G75*
G02*
X53983000Y-47347000I150000J0D01*
G01*
G37*
G36*
G01*
X52713000Y-47347000D02*
X53013000Y-47347000D01*
G75*
G02*
X53163000Y-47497000I0J-150000D01*
G01*
X53163000Y-49147000D01*
G75*
G02*
X53013000Y-49297000I-150000J0D01*
G01*
X52713000Y-49297000D01*
G75*
G02*
X52563000Y-49147000I0J150000D01*
G01*
X52563000Y-47497000D01*
G75*
G02*
X52713000Y-47347000I150000J0D01*
G01*
G37*
G36*
G01*
X52713000Y-42397000D02*
X53013000Y-42397000D01*
G75*
G02*
X53163000Y-42547000I0J-150000D01*
G01*
X53163000Y-44197000D01*
G75*
G02*
X53013000Y-44347000I-150000J0D01*
G01*
X52713000Y-44347000D01*
G75*
G02*
X52563000Y-44197000I0J150000D01*
G01*
X52563000Y-42547000D01*
G75*
G02*
X52713000Y-42397000I150000J0D01*
G01*
G37*
G36*
G01*
X53983000Y-42397000D02*
X54283000Y-42397000D01*
G75*
G02*
X54433000Y-42547000I0J-150000D01*
G01*
X54433000Y-44197000D01*
G75*
G02*
X54283000Y-44347000I-150000J0D01*
G01*
X53983000Y-44347000D01*
G75*
G02*
X53833000Y-44197000I0J150000D01*
G01*
X53833000Y-42547000D01*
G75*
G02*
X53983000Y-42397000I150000J0D01*
G01*
G37*
G36*
G01*
X55253000Y-42397000D02*
X55553000Y-42397000D01*
G75*
G02*
X55703000Y-42547000I0J-150000D01*
G01*
X55703000Y-44197000D01*
G75*
G02*
X55553000Y-44347000I-150000J0D01*
G01*
X55253000Y-44347000D01*
G75*
G02*
X55103000Y-44197000I0J150000D01*
G01*
X55103000Y-42547000D01*
G75*
G02*
X55253000Y-42397000I150000J0D01*
G01*
G37*
G36*
G01*
X56523000Y-42397000D02*
X56823000Y-42397000D01*
G75*
G02*
X56973000Y-42547000I0J-150000D01*
G01*
X56973000Y-44197000D01*
G75*
G02*
X56823000Y-44347000I-150000J0D01*
G01*
X56523000Y-44347000D01*
G75*
G02*
X56373000Y-44197000I0J150000D01*
G01*
X56373000Y-42547000D01*
G75*
G02*
X56523000Y-42397000I150000J0D01*
G01*
G37*
%TD*%
%TO.C,R16*%
G36*
G01*
X78117000Y-39772000D02*
X78117000Y-39222000D01*
G75*
G02*
X78317000Y-39022000I200000J0D01*
G01*
X78717000Y-39022000D01*
G75*
G02*
X78917000Y-39222000I0J-200000D01*
G01*
X78917000Y-39772000D01*
G75*
G02*
X78717000Y-39972000I-200000J0D01*
G01*
X78317000Y-39972000D01*
G75*
G02*
X78117000Y-39772000I0J200000D01*
G01*
G37*
G36*
G01*
X76467000Y-39772000D02*
X76467000Y-39222000D01*
G75*
G02*
X76667000Y-39022000I200000J0D01*
G01*
X77067000Y-39022000D01*
G75*
G02*
X77267000Y-39222000I0J-200000D01*
G01*
X77267000Y-39772000D01*
G75*
G02*
X77067000Y-39972000I-200000J0D01*
G01*
X76667000Y-39972000D01*
G75*
G02*
X76467000Y-39772000I0J200000D01*
G01*
G37*
%TD*%
%TO.C,R14*%
G36*
G01*
X78116000Y-41613500D02*
X78116000Y-41063500D01*
G75*
G02*
X78316000Y-40863500I200000J0D01*
G01*
X78716000Y-40863500D01*
G75*
G02*
X78916000Y-41063500I0J-200000D01*
G01*
X78916000Y-41613500D01*
G75*
G02*
X78716000Y-41813500I-200000J0D01*
G01*
X78316000Y-41813500D01*
G75*
G02*
X78116000Y-41613500I0J200000D01*
G01*
G37*
G36*
G01*
X76466000Y-41613500D02*
X76466000Y-41063500D01*
G75*
G02*
X76666000Y-40863500I200000J0D01*
G01*
X77066000Y-40863500D01*
G75*
G02*
X77266000Y-41063500I0J-200000D01*
G01*
X77266000Y-41613500D01*
G75*
G02*
X77066000Y-41813500I-200000J0D01*
G01*
X76666000Y-41813500D01*
G75*
G02*
X76466000Y-41613500I0J200000D01*
G01*
G37*
%TD*%
%TO.C,R4*%
G36*
G01*
X69519000Y-39222000D02*
X69519000Y-39772000D01*
G75*
G02*
X69319000Y-39972000I-200000J0D01*
G01*
X68919000Y-39972000D01*
G75*
G02*
X68719000Y-39772000I0J200000D01*
G01*
X68719000Y-39222000D01*
G75*
G02*
X68919000Y-39022000I200000J0D01*
G01*
X69319000Y-39022000D01*
G75*
G02*
X69519000Y-39222000I0J-200000D01*
G01*
G37*
G36*
G01*
X71169000Y-39222000D02*
X71169000Y-39772000D01*
G75*
G02*
X70969000Y-39972000I-200000J0D01*
G01*
X70569000Y-39972000D01*
G75*
G02*
X70369000Y-39772000I0J200000D01*
G01*
X70369000Y-39222000D01*
G75*
G02*
X70569000Y-39022000I200000J0D01*
G01*
X70969000Y-39022000D01*
G75*
G02*
X71169000Y-39222000I0J-200000D01*
G01*
G37*
%TD*%
%TO.C,R2*%
G36*
G01*
X70369000Y-41296000D02*
X70369000Y-40746000D01*
G75*
G02*
X70569000Y-40546000I200000J0D01*
G01*
X70969000Y-40546000D01*
G75*
G02*
X71169000Y-40746000I0J-200000D01*
G01*
X71169000Y-41296000D01*
G75*
G02*
X70969000Y-41496000I-200000J0D01*
G01*
X70569000Y-41496000D01*
G75*
G02*
X70369000Y-41296000I0J200000D01*
G01*
G37*
G36*
G01*
X68719000Y-41296000D02*
X68719000Y-40746000D01*
G75*
G02*
X68919000Y-40546000I200000J0D01*
G01*
X69319000Y-40546000D01*
G75*
G02*
X69519000Y-40746000I0J-200000D01*
G01*
X69519000Y-41296000D01*
G75*
G02*
X69319000Y-41496000I-200000J0D01*
G01*
X68919000Y-41496000D01*
G75*
G02*
X68719000Y-41296000I0J200000D01*
G01*
G37*
%TD*%
D11*
%TO.C,Q6*%
X80991000Y-41560500D03*
X80041000Y-39560500D03*
X81941000Y-39560500D03*
%TD*%
D10*
%TO.C,Q2*%
X65595000Y-40510500D03*
X67595000Y-39560500D03*
X67595000Y-41460500D03*
%TD*%
%TO.C,C10*%
G36*
G01*
X54572000Y-50669000D02*
X54572000Y-50169000D01*
G75*
G02*
X54797000Y-49944000I225000J0D01*
G01*
X55247000Y-49944000D01*
G75*
G02*
X55472000Y-50169000I0J-225000D01*
G01*
X55472000Y-50669000D01*
G75*
G02*
X55247000Y-50894000I-225000J0D01*
G01*
X54797000Y-50894000D01*
G75*
G02*
X54572000Y-50669000I0J225000D01*
G01*
G37*
G36*
G01*
X53022000Y-50669000D02*
X53022000Y-50169000D01*
G75*
G02*
X53247000Y-49944000I225000J0D01*
G01*
X53697000Y-49944000D01*
G75*
G02*
X53922000Y-50169000I0J-225000D01*
G01*
X53922000Y-50669000D01*
G75*
G02*
X53697000Y-50894000I-225000J0D01*
G01*
X53247000Y-50894000D01*
G75*
G02*
X53022000Y-50669000I0J225000D01*
G01*
G37*
%TD*%
%TO.C,C8*%
G36*
G01*
X55080000Y-41525000D02*
X55080000Y-41025000D01*
G75*
G02*
X55305000Y-40800000I225000J0D01*
G01*
X55755000Y-40800000D01*
G75*
G02*
X55980000Y-41025000I0J-225000D01*
G01*
X55980000Y-41525000D01*
G75*
G02*
X55755000Y-41750000I-225000J0D01*
G01*
X55305000Y-41750000D01*
G75*
G02*
X55080000Y-41525000I0J225000D01*
G01*
G37*
G36*
G01*
X53530000Y-41525000D02*
X53530000Y-41025000D01*
G75*
G02*
X53755000Y-40800000I225000J0D01*
G01*
X54205000Y-40800000D01*
G75*
G02*
X54430000Y-41025000I0J-225000D01*
G01*
X54430000Y-41525000D01*
G75*
G02*
X54205000Y-41750000I-225000J0D01*
G01*
X53755000Y-41750000D01*
G75*
G02*
X53530000Y-41525000I0J225000D01*
G01*
G37*
%TD*%
D12*
%TO.C,U2*%
X76222000Y-44491000D03*
X76222000Y-45141000D03*
X76222000Y-45791000D03*
X76222000Y-46441000D03*
X71922000Y-46441000D03*
X71922000Y-45791000D03*
X71922000Y-45141000D03*
X71922000Y-44491000D03*
%TD*%
%TO.C,R12*%
G36*
G01*
X50302000Y-47859000D02*
X50852000Y-47859000D01*
G75*
G02*
X51052000Y-48059000I0J-200000D01*
G01*
X51052000Y-48459000D01*
G75*
G02*
X50852000Y-48659000I-200000J0D01*
G01*
X50302000Y-48659000D01*
G75*
G02*
X50102000Y-48459000I0J200000D01*
G01*
X50102000Y-48059000D01*
G75*
G02*
X50302000Y-47859000I200000J0D01*
G01*
G37*
G36*
G01*
X50302000Y-46209000D02*
X50852000Y-46209000D01*
G75*
G02*
X51052000Y-46409000I0J-200000D01*
G01*
X51052000Y-46809000D01*
G75*
G02*
X50852000Y-47009000I-200000J0D01*
G01*
X50302000Y-47009000D01*
G75*
G02*
X50102000Y-46809000I0J200000D01*
G01*
X50102000Y-46409000D01*
G75*
G02*
X50302000Y-46209000I200000J0D01*
G01*
G37*
%TD*%
%TO.C,R11*%
G36*
G01*
X50302000Y-51542000D02*
X50852000Y-51542000D01*
G75*
G02*
X51052000Y-51742000I0J-200000D01*
G01*
X51052000Y-52142000D01*
G75*
G02*
X50852000Y-52342000I-200000J0D01*
G01*
X50302000Y-52342000D01*
G75*
G02*
X50102000Y-52142000I0J200000D01*
G01*
X50102000Y-51742000D01*
G75*
G02*
X50302000Y-51542000I200000J0D01*
G01*
G37*
G36*
G01*
X50302000Y-49892000D02*
X50852000Y-49892000D01*
G75*
G02*
X51052000Y-50092000I0J-200000D01*
G01*
X51052000Y-50492000D01*
G75*
G02*
X50852000Y-50692000I-200000J0D01*
G01*
X50302000Y-50692000D01*
G75*
G02*
X50102000Y-50492000I0J200000D01*
G01*
X50102000Y-50092000D01*
G75*
G02*
X50302000Y-49892000I200000J0D01*
G01*
G37*
%TD*%
%TO.C,R8*%
G36*
G01*
X45772000Y-49486500D02*
X45222000Y-49486500D01*
G75*
G02*
X45022000Y-49286500I0J200000D01*
G01*
X45022000Y-48886500D01*
G75*
G02*
X45222000Y-48686500I200000J0D01*
G01*
X45772000Y-48686500D01*
G75*
G02*
X45972000Y-48886500I0J-200000D01*
G01*
X45972000Y-49286500D01*
G75*
G02*
X45772000Y-49486500I-200000J0D01*
G01*
G37*
G36*
G01*
X45772000Y-51136500D02*
X45222000Y-51136500D01*
G75*
G02*
X45022000Y-50936500I0J200000D01*
G01*
X45022000Y-50536500D01*
G75*
G02*
X45222000Y-50336500I200000J0D01*
G01*
X45772000Y-50336500D01*
G75*
G02*
X45972000Y-50536500I0J-200000D01*
G01*
X45972000Y-50936500D01*
G75*
G02*
X45772000Y-51136500I-200000J0D01*
G01*
G37*
%TD*%
%TO.C,R7*%
G36*
G01*
X45222000Y-53447000D02*
X45772000Y-53447000D01*
G75*
G02*
X45972000Y-53647000I0J-200000D01*
G01*
X45972000Y-54047000D01*
G75*
G02*
X45772000Y-54247000I-200000J0D01*
G01*
X45222000Y-54247000D01*
G75*
G02*
X45022000Y-54047000I0J200000D01*
G01*
X45022000Y-53647000D01*
G75*
G02*
X45222000Y-53447000I200000J0D01*
G01*
G37*
G36*
G01*
X45222000Y-51797000D02*
X45772000Y-51797000D01*
G75*
G02*
X45972000Y-51997000I0J-200000D01*
G01*
X45972000Y-52397000D01*
G75*
G02*
X45772000Y-52597000I-200000J0D01*
G01*
X45222000Y-52597000D01*
G75*
G02*
X45022000Y-52397000I0J200000D01*
G01*
X45022000Y-51997000D01*
G75*
G02*
X45222000Y-51797000I200000J0D01*
G01*
G37*
%TD*%
%TO.C,R20*%
G36*
G01*
X86370000Y-41129000D02*
X86920000Y-41129000D01*
G75*
G02*
X87120000Y-41329000I0J-200000D01*
G01*
X87120000Y-41729000D01*
G75*
G02*
X86920000Y-41929000I-200000J0D01*
G01*
X86370000Y-41929000D01*
G75*
G02*
X86170000Y-41729000I0J200000D01*
G01*
X86170000Y-41329000D01*
G75*
G02*
X86370000Y-41129000I200000J0D01*
G01*
G37*
G36*
G01*
X86370000Y-39479000D02*
X86920000Y-39479000D01*
G75*
G02*
X87120000Y-39679000I0J-200000D01*
G01*
X87120000Y-40079000D01*
G75*
G02*
X86920000Y-40279000I-200000J0D01*
G01*
X86370000Y-40279000D01*
G75*
G02*
X86170000Y-40079000I0J200000D01*
G01*
X86170000Y-39679000D01*
G75*
G02*
X86370000Y-39479000I200000J0D01*
G01*
G37*
%TD*%
%TO.C,R19*%
G36*
G01*
X87894000Y-41129000D02*
X88444000Y-41129000D01*
G75*
G02*
X88644000Y-41329000I0J-200000D01*
G01*
X88644000Y-41729000D01*
G75*
G02*
X88444000Y-41929000I-200000J0D01*
G01*
X87894000Y-41929000D01*
G75*
G02*
X87694000Y-41729000I0J200000D01*
G01*
X87694000Y-41329000D01*
G75*
G02*
X87894000Y-41129000I200000J0D01*
G01*
G37*
G36*
G01*
X87894000Y-39479000D02*
X88444000Y-39479000D01*
G75*
G02*
X88644000Y-39679000I0J-200000D01*
G01*
X88644000Y-40079000D01*
G75*
G02*
X88444000Y-40279000I-200000J0D01*
G01*
X87894000Y-40279000D01*
G75*
G02*
X87694000Y-40079000I0J200000D01*
G01*
X87694000Y-39679000D01*
G75*
G02*
X87894000Y-39479000I200000J0D01*
G01*
G37*
%TD*%
%TO.C,R10*%
G36*
G01*
X59192000Y-41129000D02*
X59742000Y-41129000D01*
G75*
G02*
X59942000Y-41329000I0J-200000D01*
G01*
X59942000Y-41729000D01*
G75*
G02*
X59742000Y-41929000I-200000J0D01*
G01*
X59192000Y-41929000D01*
G75*
G02*
X58992000Y-41729000I0J200000D01*
G01*
X58992000Y-41329000D01*
G75*
G02*
X59192000Y-41129000I200000J0D01*
G01*
G37*
G36*
G01*
X59192000Y-39479000D02*
X59742000Y-39479000D01*
G75*
G02*
X59942000Y-39679000I0J-200000D01*
G01*
X59942000Y-40079000D01*
G75*
G02*
X59742000Y-40279000I-200000J0D01*
G01*
X59192000Y-40279000D01*
G75*
G02*
X58992000Y-40079000I0J200000D01*
G01*
X58992000Y-39679000D01*
G75*
G02*
X59192000Y-39479000I200000J0D01*
G01*
G37*
%TD*%
%TO.C,R9*%
G36*
G01*
X60716000Y-41129000D02*
X61266000Y-41129000D01*
G75*
G02*
X61466000Y-41329000I0J-200000D01*
G01*
X61466000Y-41729000D01*
G75*
G02*
X61266000Y-41929000I-200000J0D01*
G01*
X60716000Y-41929000D01*
G75*
G02*
X60516000Y-41729000I0J200000D01*
G01*
X60516000Y-41329000D01*
G75*
G02*
X60716000Y-41129000I200000J0D01*
G01*
G37*
G36*
G01*
X60716000Y-39479000D02*
X61266000Y-39479000D01*
G75*
G02*
X61466000Y-39679000I0J-200000D01*
G01*
X61466000Y-40079000D01*
G75*
G02*
X61266000Y-40279000I-200000J0D01*
G01*
X60716000Y-40279000D01*
G75*
G02*
X60516000Y-40079000I0J200000D01*
G01*
X60516000Y-39679000D01*
G75*
G02*
X60716000Y-39479000I200000J0D01*
G01*
G37*
%TD*%
%TO.C,R18*%
G36*
G01*
X84721000Y-40153000D02*
X84721000Y-39603000D01*
G75*
G02*
X84921000Y-39403000I200000J0D01*
G01*
X85321000Y-39403000D01*
G75*
G02*
X85521000Y-39603000I0J-200000D01*
G01*
X85521000Y-40153000D01*
G75*
G02*
X85321000Y-40353000I-200000J0D01*
G01*
X84921000Y-40353000D01*
G75*
G02*
X84721000Y-40153000I0J200000D01*
G01*
G37*
G36*
G01*
X83071000Y-40153000D02*
X83071000Y-39603000D01*
G75*
G02*
X83271000Y-39403000I200000J0D01*
G01*
X83671000Y-39403000D01*
G75*
G02*
X83871000Y-39603000I0J-200000D01*
G01*
X83871000Y-40153000D01*
G75*
G02*
X83671000Y-40353000I-200000J0D01*
G01*
X83271000Y-40353000D01*
G75*
G02*
X83071000Y-40153000I0J200000D01*
G01*
G37*
%TD*%
%TO.C,R6*%
G36*
G01*
X62915000Y-39603000D02*
X62915000Y-40153000D01*
G75*
G02*
X62715000Y-40353000I-200000J0D01*
G01*
X62315000Y-40353000D01*
G75*
G02*
X62115000Y-40153000I0J200000D01*
G01*
X62115000Y-39603000D01*
G75*
G02*
X62315000Y-39403000I200000J0D01*
G01*
X62715000Y-39403000D01*
G75*
G02*
X62915000Y-39603000I0J-200000D01*
G01*
G37*
G36*
G01*
X64565000Y-39603000D02*
X64565000Y-40153000D01*
G75*
G02*
X64365000Y-40353000I-200000J0D01*
G01*
X63965000Y-40353000D01*
G75*
G02*
X63765000Y-40153000I0J200000D01*
G01*
X63765000Y-39603000D01*
G75*
G02*
X63965000Y-39403000I200000J0D01*
G01*
X64365000Y-39403000D01*
G75*
G02*
X64565000Y-39603000I0J-200000D01*
G01*
G37*
%TD*%
D10*
%TO.C,Q4*%
X47021000Y-47432000D03*
X49021000Y-46482000D03*
X49021000Y-48382000D03*
%TD*%
%TO.C,Q3*%
X47021000Y-51054000D03*
X49021000Y-50104000D03*
X49021000Y-52004000D03*
%TD*%
%TO.C,C13*%
G36*
G01*
X74395000Y-42549000D02*
X74395000Y-43049000D01*
G75*
G02*
X74170000Y-43274000I-225000J0D01*
G01*
X73720000Y-43274000D01*
G75*
G02*
X73495000Y-43049000I0J225000D01*
G01*
X73495000Y-42549000D01*
G75*
G02*
X73720000Y-42324000I225000J0D01*
G01*
X74170000Y-42324000D01*
G75*
G02*
X74395000Y-42549000I0J-225000D01*
G01*
G37*
G36*
G01*
X75945000Y-42549000D02*
X75945000Y-43049000D01*
G75*
G02*
X75720000Y-43274000I-225000J0D01*
G01*
X75270000Y-43274000D01*
G75*
G02*
X75045000Y-43049000I0J225000D01*
G01*
X75045000Y-42549000D01*
G75*
G02*
X75270000Y-42324000I225000J0D01*
G01*
X75720000Y-42324000D01*
G75*
G02*
X75945000Y-42549000I0J-225000D01*
G01*
G37*
%TD*%
M02*
