%TF.GenerationSoftware,KiCad,Pcbnew,(5.1.10)-1*%
%TF.CreationDate,2022-01-18T18:11:06+07:00*%
%TF.ProjectId,Fan_controller_v3_pnlz1x2,46616e5f-636f-46e7-9472-6f6c6c65725f,rev?*%
%TF.SameCoordinates,Original*%
%TF.FileFunction,Legend,Bot*%
%TF.FilePolarity,Positive*%
%FSLAX46Y46*%
G04 Gerber Fmt 4.6, Leading zero omitted, Abs format (unit mm)*
G04 Created by KiCad (PCBNEW (5.1.10)-1) date 2022-01-18 18:11:06*
%MOMM*%
%LPD*%
G01*
G04 APERTURE LIST*
%ADD10C,0.120000*%
%ADD11C,0.150000*%
%ADD12C,2.000000*%
%ADD13R,0.600000X0.450000*%
%ADD14R,1.600000X1.600000*%
%ADD15C,1.600000*%
%ADD16R,1.750000X2.250000*%
%ADD17O,1.750000X2.250000*%
%ADD18R,1.000000X1.000000*%
%ADD19O,1.000000X1.000000*%
%ADD20O,1.700000X1.700000*%
%ADD21R,1.700000X1.700000*%
%ADD22R,0.800000X0.900000*%
%ADD23R,0.900000X0.800000*%
G04 APERTURE END LIST*
D10*
%TO.C,C3*%
X61501000Y-65575920D02*
X61501000Y-65857080D01*
X60481000Y-65575920D02*
X60481000Y-65857080D01*
%TO.C,C4*%
X59977000Y-65575920D02*
X59977000Y-65857080D01*
X58957000Y-65575920D02*
X58957000Y-65857080D01*
%TO.C,C11*%
X88679000Y-65575920D02*
X88679000Y-65857080D01*
X87659000Y-65575920D02*
X87659000Y-65857080D01*
%TO.C,C12*%
X87155000Y-65575920D02*
X87155000Y-65857080D01*
X86135000Y-65575920D02*
X86135000Y-65857080D01*
%TO.C,C1*%
X46158000Y-84043000D02*
X46158000Y-75808000D01*
X50678000Y-84043000D02*
X46158000Y-84043000D01*
X50678000Y-75808000D02*
X50678000Y-84043000D01*
%TO.C,C2*%
X48150420Y-84307000D02*
X48431580Y-84307000D01*
X48150420Y-85327000D02*
X48431580Y-85327000D01*
%TO.C,C6*%
X53230420Y-84307000D02*
X53511580Y-84307000D01*
X53230420Y-85327000D02*
X53511580Y-85327000D01*
%TO.C,C7*%
X88621000Y-66175000D02*
X88621000Y-86415000D01*
X96861000Y-66175000D02*
X96861000Y-86415000D01*
X88621000Y-66175000D02*
X96861000Y-66175000D01*
X88621000Y-86415000D02*
X96861000Y-86415000D01*
%TO.C,C9*%
X51111000Y-84043000D02*
X51111000Y-75808000D01*
X55631000Y-84043000D02*
X51111000Y-84043000D01*
X55631000Y-75808000D02*
X55631000Y-84043000D01*
%TO.C,D1*%
X61049000Y-69792000D02*
X63599000Y-69792000D01*
X61049000Y-68092000D02*
X63599000Y-68092000D01*
X61049000Y-69792000D02*
X61049000Y-68092000D01*
%TO.C,D2*%
X61049000Y-72332000D02*
X63599000Y-72332000D01*
X61049000Y-70632000D02*
X63599000Y-70632000D01*
X61049000Y-72332000D02*
X61049000Y-70632000D01*
%TO.C,D3*%
X81623000Y-69792000D02*
X84173000Y-69792000D01*
X81623000Y-68092000D02*
X84173000Y-68092000D01*
X81623000Y-69792000D02*
X81623000Y-68092000D01*
%TO.C,D4*%
X81623000Y-72332000D02*
X84173000Y-72332000D01*
X81623000Y-70632000D02*
X84173000Y-70632000D01*
X81623000Y-72332000D02*
X81623000Y-70632000D01*
%TO.C,R5*%
X63577258Y-65400500D02*
X63102742Y-65400500D01*
X63577258Y-64355500D02*
X63102742Y-64355500D01*
%TO.C,R17*%
X84058742Y-64355500D02*
X84533258Y-64355500D01*
X84058742Y-65400500D02*
X84533258Y-65400500D01*
%TO.C,R1*%
X69706742Y-65498500D02*
X70181258Y-65498500D01*
X69706742Y-66543500D02*
X70181258Y-66543500D01*
%TO.C,R3*%
X70181258Y-65019500D02*
X69706742Y-65019500D01*
X70181258Y-63974500D02*
X69706742Y-63974500D01*
%TO.C,R13*%
X77453742Y-65816000D02*
X77928258Y-65816000D01*
X77453742Y-66861000D02*
X77928258Y-66861000D01*
%TO.C,R15*%
X77454742Y-63974500D02*
X77929258Y-63974500D01*
X77454742Y-65019500D02*
X77929258Y-65019500D01*
%TO.C,C5*%
X86483000Y-86052000D02*
X86483000Y-66529000D01*
X60243000Y-86052000D02*
X60243000Y-66529000D01*
X60243000Y-66529000D02*
X86483000Y-66529000D01*
X60243000Y-86052000D02*
X86483000Y-86052000D01*
%TO.C,Q1*%
X68225000Y-66320500D02*
X68225000Y-64860500D01*
X65065000Y-66320500D02*
X65065000Y-64160500D01*
X65065000Y-66320500D02*
X65995000Y-66320500D01*
X68225000Y-66320500D02*
X67295000Y-66320500D01*
%TO.C,Q5*%
X81801000Y-63930500D02*
X80341000Y-63930500D01*
X81801000Y-67090500D02*
X79641000Y-67090500D01*
X81801000Y-67090500D02*
X81801000Y-66160500D01*
X81801000Y-63930500D02*
X81801000Y-64860500D01*
%TO.C,C5*%
X60243000Y-61052000D02*
X86483000Y-61052000D01*
X60243000Y-41529000D02*
X86483000Y-41529000D01*
X60243000Y-61052000D02*
X60243000Y-41529000D01*
X86483000Y-61052000D02*
X86483000Y-41529000D01*
%TO.C,R15*%
X77454742Y-40019500D02*
X77929258Y-40019500D01*
X77454742Y-38974500D02*
X77929258Y-38974500D01*
%TO.C,R13*%
X77453742Y-41861000D02*
X77928258Y-41861000D01*
X77453742Y-40816000D02*
X77928258Y-40816000D01*
%TO.C,R3*%
X70181258Y-38974500D02*
X69706742Y-38974500D01*
X70181258Y-40019500D02*
X69706742Y-40019500D01*
%TO.C,R1*%
X69706742Y-41543500D02*
X70181258Y-41543500D01*
X69706742Y-40498500D02*
X70181258Y-40498500D01*
%TO.C,Q5*%
X81801000Y-38930500D02*
X81801000Y-39860500D01*
X81801000Y-42090500D02*
X81801000Y-41160500D01*
X81801000Y-42090500D02*
X79641000Y-42090500D01*
X81801000Y-38930500D02*
X80341000Y-38930500D01*
%TO.C,Q1*%
X68225000Y-41320500D02*
X67295000Y-41320500D01*
X65065000Y-41320500D02*
X65995000Y-41320500D01*
X65065000Y-41320500D02*
X65065000Y-39160500D01*
X68225000Y-41320500D02*
X68225000Y-39860500D01*
%TO.C,R17*%
X84058742Y-40400500D02*
X84533258Y-40400500D01*
X84058742Y-39355500D02*
X84533258Y-39355500D01*
%TO.C,R5*%
X63577258Y-39355500D02*
X63102742Y-39355500D01*
X63577258Y-40400500D02*
X63102742Y-40400500D01*
%TO.C,D4*%
X81623000Y-47332000D02*
X81623000Y-45632000D01*
X81623000Y-45632000D02*
X84173000Y-45632000D01*
X81623000Y-47332000D02*
X84173000Y-47332000D01*
%TO.C,D3*%
X81623000Y-44792000D02*
X81623000Y-43092000D01*
X81623000Y-43092000D02*
X84173000Y-43092000D01*
X81623000Y-44792000D02*
X84173000Y-44792000D01*
%TO.C,D2*%
X61049000Y-47332000D02*
X61049000Y-45632000D01*
X61049000Y-45632000D02*
X63599000Y-45632000D01*
X61049000Y-47332000D02*
X63599000Y-47332000D01*
%TO.C,D1*%
X61049000Y-44792000D02*
X61049000Y-43092000D01*
X61049000Y-43092000D02*
X63599000Y-43092000D01*
X61049000Y-44792000D02*
X63599000Y-44792000D01*
%TO.C,C9*%
X55631000Y-50808000D02*
X55631000Y-59043000D01*
X55631000Y-59043000D02*
X51111000Y-59043000D01*
X51111000Y-59043000D02*
X51111000Y-50808000D01*
%TO.C,C7*%
X88621000Y-61415000D02*
X96861000Y-61415000D01*
X88621000Y-41175000D02*
X96861000Y-41175000D01*
X96861000Y-41175000D02*
X96861000Y-61415000D01*
X88621000Y-41175000D02*
X88621000Y-61415000D01*
%TO.C,C6*%
X53230420Y-60327000D02*
X53511580Y-60327000D01*
X53230420Y-59307000D02*
X53511580Y-59307000D01*
%TO.C,C2*%
X48150420Y-60327000D02*
X48431580Y-60327000D01*
X48150420Y-59307000D02*
X48431580Y-59307000D01*
%TO.C,C1*%
X50678000Y-50808000D02*
X50678000Y-59043000D01*
X50678000Y-59043000D02*
X46158000Y-59043000D01*
X46158000Y-59043000D02*
X46158000Y-50808000D01*
%TO.C,C12*%
X86135000Y-40575920D02*
X86135000Y-40857080D01*
X87155000Y-40575920D02*
X87155000Y-40857080D01*
%TO.C,C11*%
X87659000Y-40575920D02*
X87659000Y-40857080D01*
X88679000Y-40575920D02*
X88679000Y-40857080D01*
%TO.C,C4*%
X58957000Y-40575920D02*
X58957000Y-40857080D01*
X59977000Y-40575920D02*
X59977000Y-40857080D01*
%TO.C,C3*%
X60481000Y-40575920D02*
X60481000Y-40857080D01*
X61501000Y-40575920D02*
X61501000Y-40857080D01*
D11*
X58681142Y-65473333D02*
X58728761Y-65425714D01*
X58776380Y-65282857D01*
X58776380Y-65187619D01*
X58728761Y-65044761D01*
X58633523Y-64949523D01*
X58538285Y-64901904D01*
X58347809Y-64854285D01*
X58204952Y-64854285D01*
X58014476Y-64901904D01*
X57919238Y-64949523D01*
X57824000Y-65044761D01*
X57776380Y-65187619D01*
X57776380Y-65282857D01*
X57824000Y-65425714D01*
X57871619Y-65473333D01*
X57776380Y-65806666D02*
X57776380Y-66425714D01*
X58157333Y-66092380D01*
X58157333Y-66235238D01*
X58204952Y-66330476D01*
X58252571Y-66378095D01*
X58347809Y-66425714D01*
X58585904Y-66425714D01*
X58681142Y-66378095D01*
X58728761Y-66330476D01*
X58776380Y-66235238D01*
X58776380Y-65949523D01*
X58728761Y-65854285D01*
X58681142Y-65806666D01*
%TO.C,C4*%
X57284142Y-65549833D02*
X57331761Y-65502214D01*
X57379380Y-65359357D01*
X57379380Y-65264119D01*
X57331761Y-65121261D01*
X57236523Y-65026023D01*
X57141285Y-64978404D01*
X56950809Y-64930785D01*
X56807952Y-64930785D01*
X56617476Y-64978404D01*
X56522238Y-65026023D01*
X56427000Y-65121261D01*
X56379380Y-65264119D01*
X56379380Y-65359357D01*
X56427000Y-65502214D01*
X56474619Y-65549833D01*
X56712714Y-66406976D02*
X57379380Y-66406976D01*
X56331761Y-66168880D02*
X57046047Y-65930785D01*
X57046047Y-66549833D01*
%TO.C,C11*%
X93510857Y-65870142D02*
X93558476Y-65917761D01*
X93701333Y-65965380D01*
X93796571Y-65965380D01*
X93939428Y-65917761D01*
X94034666Y-65822523D01*
X94082285Y-65727285D01*
X94129904Y-65536809D01*
X94129904Y-65393952D01*
X94082285Y-65203476D01*
X94034666Y-65108238D01*
X93939428Y-65013000D01*
X93796571Y-64965380D01*
X93701333Y-64965380D01*
X93558476Y-65013000D01*
X93510857Y-65060619D01*
X92558476Y-65965380D02*
X93129904Y-65965380D01*
X92844190Y-65965380D02*
X92844190Y-64965380D01*
X92939428Y-65108238D01*
X93034666Y-65203476D01*
X93129904Y-65251095D01*
X91606095Y-65965380D02*
X92177523Y-65965380D01*
X91891809Y-65965380D02*
X91891809Y-64965380D01*
X91987047Y-65108238D01*
X92082285Y-65203476D01*
X92177523Y-65251095D01*
%TO.C,C12*%
X90970857Y-64727142D02*
X91018476Y-64774761D01*
X91161333Y-64822380D01*
X91256571Y-64822380D01*
X91399428Y-64774761D01*
X91494666Y-64679523D01*
X91542285Y-64584285D01*
X91589904Y-64393809D01*
X91589904Y-64250952D01*
X91542285Y-64060476D01*
X91494666Y-63965238D01*
X91399428Y-63870000D01*
X91256571Y-63822380D01*
X91161333Y-63822380D01*
X91018476Y-63870000D01*
X90970857Y-63917619D01*
X90018476Y-64822380D02*
X90589904Y-64822380D01*
X90304190Y-64822380D02*
X90304190Y-63822380D01*
X90399428Y-63965238D01*
X90494666Y-64060476D01*
X90589904Y-64108095D01*
X89637523Y-63917619D02*
X89589904Y-63870000D01*
X89494666Y-63822380D01*
X89256571Y-63822380D01*
X89161333Y-63870000D01*
X89113714Y-63917619D01*
X89066095Y-64012857D01*
X89066095Y-64108095D01*
X89113714Y-64250952D01*
X89685142Y-64822380D01*
X89066095Y-64822380D01*
%TO.C,C1*%
X45727142Y-79062333D02*
X45774761Y-79014714D01*
X45822380Y-78871857D01*
X45822380Y-78776619D01*
X45774761Y-78633761D01*
X45679523Y-78538523D01*
X45584285Y-78490904D01*
X45393809Y-78443285D01*
X45250952Y-78443285D01*
X45060476Y-78490904D01*
X44965238Y-78538523D01*
X44870000Y-78633761D01*
X44822380Y-78776619D01*
X44822380Y-78871857D01*
X44870000Y-79014714D01*
X44917619Y-79062333D01*
X45822380Y-80014714D02*
X45822380Y-79443285D01*
X45822380Y-79729000D02*
X44822380Y-79729000D01*
X44965238Y-79633761D01*
X45060476Y-79538523D01*
X45108095Y-79443285D01*
%TO.C,C2*%
X46044666Y-85174142D02*
X46092285Y-85221761D01*
X46235142Y-85269380D01*
X46330380Y-85269380D01*
X46473238Y-85221761D01*
X46568476Y-85126523D01*
X46616095Y-85031285D01*
X46663714Y-84840809D01*
X46663714Y-84697952D01*
X46616095Y-84507476D01*
X46568476Y-84412238D01*
X46473238Y-84317000D01*
X46330380Y-84269380D01*
X46235142Y-84269380D01*
X46092285Y-84317000D01*
X46044666Y-84364619D01*
X45663714Y-84364619D02*
X45616095Y-84317000D01*
X45520857Y-84269380D01*
X45282761Y-84269380D01*
X45187523Y-84317000D01*
X45139904Y-84364619D01*
X45092285Y-84459857D01*
X45092285Y-84555095D01*
X45139904Y-84697952D01*
X45711333Y-85269380D01*
X45092285Y-85269380D01*
%TO.C,C6*%
X51124666Y-85174142D02*
X51172285Y-85221761D01*
X51315142Y-85269380D01*
X51410380Y-85269380D01*
X51553238Y-85221761D01*
X51648476Y-85126523D01*
X51696095Y-85031285D01*
X51743714Y-84840809D01*
X51743714Y-84697952D01*
X51696095Y-84507476D01*
X51648476Y-84412238D01*
X51553238Y-84317000D01*
X51410380Y-84269380D01*
X51315142Y-84269380D01*
X51172285Y-84317000D01*
X51124666Y-84364619D01*
X50267523Y-84269380D02*
X50458000Y-84269380D01*
X50553238Y-84317000D01*
X50600857Y-84364619D01*
X50696095Y-84507476D01*
X50743714Y-84697952D01*
X50743714Y-85078904D01*
X50696095Y-85174142D01*
X50648476Y-85221761D01*
X50553238Y-85269380D01*
X50362761Y-85269380D01*
X50267523Y-85221761D01*
X50219904Y-85174142D01*
X50172285Y-85078904D01*
X50172285Y-84840809D01*
X50219904Y-84745571D01*
X50267523Y-84697952D01*
X50362761Y-84650333D01*
X50553238Y-84650333D01*
X50648476Y-84697952D01*
X50696095Y-84745571D01*
X50743714Y-84840809D01*
%TO.C,C7*%
X92907666Y-87714142D02*
X92955285Y-87761761D01*
X93098142Y-87809380D01*
X93193380Y-87809380D01*
X93336238Y-87761761D01*
X93431476Y-87666523D01*
X93479095Y-87571285D01*
X93526714Y-87380809D01*
X93526714Y-87237952D01*
X93479095Y-87047476D01*
X93431476Y-86952238D01*
X93336238Y-86857000D01*
X93193380Y-86809380D01*
X93098142Y-86809380D01*
X92955285Y-86857000D01*
X92907666Y-86904619D01*
X92574333Y-86809380D02*
X91907666Y-86809380D01*
X92336238Y-87809380D01*
%TO.C,C9*%
X56903142Y-78808333D02*
X56950761Y-78760714D01*
X56998380Y-78617857D01*
X56998380Y-78522619D01*
X56950761Y-78379761D01*
X56855523Y-78284523D01*
X56760285Y-78236904D01*
X56569809Y-78189285D01*
X56426952Y-78189285D01*
X56236476Y-78236904D01*
X56141238Y-78284523D01*
X56046000Y-78379761D01*
X55998380Y-78522619D01*
X55998380Y-78617857D01*
X56046000Y-78760714D01*
X56093619Y-78808333D01*
X56998380Y-79284523D02*
X56998380Y-79475000D01*
X56950761Y-79570238D01*
X56903142Y-79617857D01*
X56760285Y-79713095D01*
X56569809Y-79760714D01*
X56188857Y-79760714D01*
X56093619Y-79713095D01*
X56046000Y-79665476D01*
X55998380Y-79570238D01*
X55998380Y-79379761D01*
X56046000Y-79284523D01*
X56093619Y-79236904D01*
X56188857Y-79189285D01*
X56426952Y-79189285D01*
X56522190Y-79236904D01*
X56569809Y-79284523D01*
X56617428Y-79379761D01*
X56617428Y-79570238D01*
X56569809Y-79665476D01*
X56522190Y-79713095D01*
X56426952Y-79760714D01*
%TO.C,D1*%
X65380380Y-68203904D02*
X64380380Y-68203904D01*
X64380380Y-68442000D01*
X64428000Y-68584857D01*
X64523238Y-68680095D01*
X64618476Y-68727714D01*
X64808952Y-68775333D01*
X64951809Y-68775333D01*
X65142285Y-68727714D01*
X65237523Y-68680095D01*
X65332761Y-68584857D01*
X65380380Y-68442000D01*
X65380380Y-68203904D01*
X65380380Y-69727714D02*
X65380380Y-69156285D01*
X65380380Y-69442000D02*
X64380380Y-69442000D01*
X64523238Y-69346761D01*
X64618476Y-69251523D01*
X64666095Y-69156285D01*
%TO.C,D2*%
X65380380Y-70743904D02*
X64380380Y-70743904D01*
X64380380Y-70982000D01*
X64428000Y-71124857D01*
X64523238Y-71220095D01*
X64618476Y-71267714D01*
X64808952Y-71315333D01*
X64951809Y-71315333D01*
X65142285Y-71267714D01*
X65237523Y-71220095D01*
X65332761Y-71124857D01*
X65380380Y-70982000D01*
X65380380Y-70743904D01*
X64475619Y-71696285D02*
X64428000Y-71743904D01*
X64380380Y-71839142D01*
X64380380Y-72077238D01*
X64428000Y-72172476D01*
X64475619Y-72220095D01*
X64570857Y-72267714D01*
X64666095Y-72267714D01*
X64808952Y-72220095D01*
X65380380Y-71648666D01*
X65380380Y-72267714D01*
%TO.C,D3*%
X85954380Y-68203904D02*
X84954380Y-68203904D01*
X84954380Y-68442000D01*
X85002000Y-68584857D01*
X85097238Y-68680095D01*
X85192476Y-68727714D01*
X85382952Y-68775333D01*
X85525809Y-68775333D01*
X85716285Y-68727714D01*
X85811523Y-68680095D01*
X85906761Y-68584857D01*
X85954380Y-68442000D01*
X85954380Y-68203904D01*
X84954380Y-69108666D02*
X84954380Y-69727714D01*
X85335333Y-69394380D01*
X85335333Y-69537238D01*
X85382952Y-69632476D01*
X85430571Y-69680095D01*
X85525809Y-69727714D01*
X85763904Y-69727714D01*
X85859142Y-69680095D01*
X85906761Y-69632476D01*
X85954380Y-69537238D01*
X85954380Y-69251523D01*
X85906761Y-69156285D01*
X85859142Y-69108666D01*
%TO.C,D4*%
X85954380Y-70743904D02*
X84954380Y-70743904D01*
X84954380Y-70982000D01*
X85002000Y-71124857D01*
X85097238Y-71220095D01*
X85192476Y-71267714D01*
X85382952Y-71315333D01*
X85525809Y-71315333D01*
X85716285Y-71267714D01*
X85811523Y-71220095D01*
X85906761Y-71124857D01*
X85954380Y-70982000D01*
X85954380Y-70743904D01*
X85287714Y-72172476D02*
X85954380Y-72172476D01*
X84906761Y-71934380D02*
X85621047Y-71696285D01*
X85621047Y-72315333D01*
%TO.C,R5*%
X63443666Y-66727380D02*
X63777000Y-66251190D01*
X64015095Y-66727380D02*
X64015095Y-65727380D01*
X63634142Y-65727380D01*
X63538904Y-65775000D01*
X63491285Y-65822619D01*
X63443666Y-65917857D01*
X63443666Y-66060714D01*
X63491285Y-66155952D01*
X63538904Y-66203571D01*
X63634142Y-66251190D01*
X64015095Y-66251190D01*
X62538904Y-65727380D02*
X63015095Y-65727380D01*
X63062714Y-66203571D01*
X63015095Y-66155952D01*
X62919857Y-66108333D01*
X62681761Y-66108333D01*
X62586523Y-66155952D01*
X62538904Y-66203571D01*
X62491285Y-66298809D01*
X62491285Y-66536904D01*
X62538904Y-66632142D01*
X62586523Y-66679761D01*
X62681761Y-66727380D01*
X62919857Y-66727380D01*
X63015095Y-66679761D01*
X63062714Y-66632142D01*
%TO.C,R17*%
X85001857Y-66727380D02*
X85335190Y-66251190D01*
X85573285Y-66727380D02*
X85573285Y-65727380D01*
X85192333Y-65727380D01*
X85097095Y-65775000D01*
X85049476Y-65822619D01*
X85001857Y-65917857D01*
X85001857Y-66060714D01*
X85049476Y-66155952D01*
X85097095Y-66203571D01*
X85192333Y-66251190D01*
X85573285Y-66251190D01*
X84049476Y-66727380D02*
X84620904Y-66727380D01*
X84335190Y-66727380D02*
X84335190Y-65727380D01*
X84430428Y-65870238D01*
X84525666Y-65965476D01*
X84620904Y-66013095D01*
X83716142Y-65727380D02*
X83049476Y-65727380D01*
X83478047Y-66727380D01*
%TO.C,R1*%
X72460666Y-66473380D02*
X72794000Y-65997190D01*
X73032095Y-66473380D02*
X73032095Y-65473380D01*
X72651142Y-65473380D01*
X72555904Y-65521000D01*
X72508285Y-65568619D01*
X72460666Y-65663857D01*
X72460666Y-65806714D01*
X72508285Y-65901952D01*
X72555904Y-65949571D01*
X72651142Y-65997190D01*
X73032095Y-65997190D01*
X71508285Y-66473380D02*
X72079714Y-66473380D01*
X71794000Y-66473380D02*
X71794000Y-65473380D01*
X71889238Y-65616238D01*
X71984476Y-65711476D01*
X72079714Y-65759095D01*
%TO.C,R3*%
X72460666Y-64949380D02*
X72794000Y-64473190D01*
X73032095Y-64949380D02*
X73032095Y-63949380D01*
X72651142Y-63949380D01*
X72555904Y-63997000D01*
X72508285Y-64044619D01*
X72460666Y-64139857D01*
X72460666Y-64282714D01*
X72508285Y-64377952D01*
X72555904Y-64425571D01*
X72651142Y-64473190D01*
X73032095Y-64473190D01*
X72127333Y-63949380D02*
X71508285Y-63949380D01*
X71841619Y-64330333D01*
X71698761Y-64330333D01*
X71603523Y-64377952D01*
X71555904Y-64425571D01*
X71508285Y-64520809D01*
X71508285Y-64758904D01*
X71555904Y-64854142D01*
X71603523Y-64901761D01*
X71698761Y-64949380D01*
X71984476Y-64949380D01*
X72079714Y-64901761D01*
X72127333Y-64854142D01*
%TO.C,R13*%
X75476857Y-66790880D02*
X75810190Y-66314690D01*
X76048285Y-66790880D02*
X76048285Y-65790880D01*
X75667333Y-65790880D01*
X75572095Y-65838500D01*
X75524476Y-65886119D01*
X75476857Y-65981357D01*
X75476857Y-66124214D01*
X75524476Y-66219452D01*
X75572095Y-66267071D01*
X75667333Y-66314690D01*
X76048285Y-66314690D01*
X74524476Y-66790880D02*
X75095904Y-66790880D01*
X74810190Y-66790880D02*
X74810190Y-65790880D01*
X74905428Y-65933738D01*
X75000666Y-66028976D01*
X75095904Y-66076595D01*
X74191142Y-65790880D02*
X73572095Y-65790880D01*
X73905428Y-66171833D01*
X73762571Y-66171833D01*
X73667333Y-66219452D01*
X73619714Y-66267071D01*
X73572095Y-66362309D01*
X73572095Y-66600404D01*
X73619714Y-66695642D01*
X73667333Y-66743261D01*
X73762571Y-66790880D01*
X74048285Y-66790880D01*
X74143523Y-66743261D01*
X74191142Y-66695642D01*
%TO.C,R15*%
X75476857Y-64949380D02*
X75810190Y-64473190D01*
X76048285Y-64949380D02*
X76048285Y-63949380D01*
X75667333Y-63949380D01*
X75572095Y-63997000D01*
X75524476Y-64044619D01*
X75476857Y-64139857D01*
X75476857Y-64282714D01*
X75524476Y-64377952D01*
X75572095Y-64425571D01*
X75667333Y-64473190D01*
X76048285Y-64473190D01*
X74524476Y-64949380D02*
X75095904Y-64949380D01*
X74810190Y-64949380D02*
X74810190Y-63949380D01*
X74905428Y-64092238D01*
X75000666Y-64187476D01*
X75095904Y-64235095D01*
X73619714Y-63949380D02*
X74095904Y-63949380D01*
X74143523Y-64425571D01*
X74095904Y-64377952D01*
X74000666Y-64330333D01*
X73762571Y-64330333D01*
X73667333Y-64377952D01*
X73619714Y-64425571D01*
X73572095Y-64520809D01*
X73572095Y-64758904D01*
X73619714Y-64854142D01*
X73667333Y-64901761D01*
X73762571Y-64949380D01*
X74000666Y-64949380D01*
X74095904Y-64901761D01*
X74143523Y-64854142D01*
%TO.C,C5*%
X62300666Y-87333142D02*
X62348285Y-87380761D01*
X62491142Y-87428380D01*
X62586380Y-87428380D01*
X62729238Y-87380761D01*
X62824476Y-87285523D01*
X62872095Y-87190285D01*
X62919714Y-86999809D01*
X62919714Y-86856952D01*
X62872095Y-86666476D01*
X62824476Y-86571238D01*
X62729238Y-86476000D01*
X62586380Y-86428380D01*
X62491142Y-86428380D01*
X62348285Y-86476000D01*
X62300666Y-86523619D01*
X61395904Y-86428380D02*
X61872095Y-86428380D01*
X61919714Y-86904571D01*
X61872095Y-86856952D01*
X61776857Y-86809333D01*
X61538761Y-86809333D01*
X61443523Y-86856952D01*
X61395904Y-86904571D01*
X61348285Y-86999809D01*
X61348285Y-87237904D01*
X61395904Y-87333142D01*
X61443523Y-87380761D01*
X61538761Y-87428380D01*
X61776857Y-87428380D01*
X61872095Y-87380761D01*
X61919714Y-87333142D01*
%TO.C,Q1*%
X69341238Y-67965619D02*
X69436476Y-67918000D01*
X69531714Y-67822761D01*
X69674571Y-67679904D01*
X69769809Y-67632285D01*
X69865047Y-67632285D01*
X69817428Y-67870380D02*
X69912666Y-67822761D01*
X70007904Y-67727523D01*
X70055523Y-67537047D01*
X70055523Y-67203714D01*
X70007904Y-67013238D01*
X69912666Y-66918000D01*
X69817428Y-66870380D01*
X69626952Y-66870380D01*
X69531714Y-66918000D01*
X69436476Y-67013238D01*
X69388857Y-67203714D01*
X69388857Y-67537047D01*
X69436476Y-67727523D01*
X69531714Y-67822761D01*
X69626952Y-67870380D01*
X69817428Y-67870380D01*
X68436476Y-67870380D02*
X69007904Y-67870380D01*
X68722190Y-67870380D02*
X68722190Y-66870380D01*
X68817428Y-67013238D01*
X68912666Y-67108476D01*
X69007904Y-67156095D01*
%TO.C,Q5*%
X77342238Y-68219619D02*
X77437476Y-68172000D01*
X77532714Y-68076761D01*
X77675571Y-67933904D01*
X77770809Y-67886285D01*
X77866047Y-67886285D01*
X77818428Y-68124380D02*
X77913666Y-68076761D01*
X78008904Y-67981523D01*
X78056523Y-67791047D01*
X78056523Y-67457714D01*
X78008904Y-67267238D01*
X77913666Y-67172000D01*
X77818428Y-67124380D01*
X77627952Y-67124380D01*
X77532714Y-67172000D01*
X77437476Y-67267238D01*
X77389857Y-67457714D01*
X77389857Y-67791047D01*
X77437476Y-67981523D01*
X77532714Y-68076761D01*
X77627952Y-68124380D01*
X77818428Y-68124380D01*
X76485095Y-67124380D02*
X76961285Y-67124380D01*
X77008904Y-67600571D01*
X76961285Y-67552952D01*
X76866047Y-67505333D01*
X76627952Y-67505333D01*
X76532714Y-67552952D01*
X76485095Y-67600571D01*
X76437476Y-67695809D01*
X76437476Y-67933904D01*
X76485095Y-68029142D01*
X76532714Y-68076761D01*
X76627952Y-68124380D01*
X76866047Y-68124380D01*
X76961285Y-68076761D01*
X77008904Y-68029142D01*
%TO.C,C5*%
X62300666Y-62333142D02*
X62348285Y-62380761D01*
X62491142Y-62428380D01*
X62586380Y-62428380D01*
X62729238Y-62380761D01*
X62824476Y-62285523D01*
X62872095Y-62190285D01*
X62919714Y-61999809D01*
X62919714Y-61856952D01*
X62872095Y-61666476D01*
X62824476Y-61571238D01*
X62729238Y-61476000D01*
X62586380Y-61428380D01*
X62491142Y-61428380D01*
X62348285Y-61476000D01*
X62300666Y-61523619D01*
X61395904Y-61428380D02*
X61872095Y-61428380D01*
X61919714Y-61904571D01*
X61872095Y-61856952D01*
X61776857Y-61809333D01*
X61538761Y-61809333D01*
X61443523Y-61856952D01*
X61395904Y-61904571D01*
X61348285Y-61999809D01*
X61348285Y-62237904D01*
X61395904Y-62333142D01*
X61443523Y-62380761D01*
X61538761Y-62428380D01*
X61776857Y-62428380D01*
X61872095Y-62380761D01*
X61919714Y-62333142D01*
%TO.C,R15*%
X75476857Y-39949380D02*
X75810190Y-39473190D01*
X76048285Y-39949380D02*
X76048285Y-38949380D01*
X75667333Y-38949380D01*
X75572095Y-38997000D01*
X75524476Y-39044619D01*
X75476857Y-39139857D01*
X75476857Y-39282714D01*
X75524476Y-39377952D01*
X75572095Y-39425571D01*
X75667333Y-39473190D01*
X76048285Y-39473190D01*
X74524476Y-39949380D02*
X75095904Y-39949380D01*
X74810190Y-39949380D02*
X74810190Y-38949380D01*
X74905428Y-39092238D01*
X75000666Y-39187476D01*
X75095904Y-39235095D01*
X73619714Y-38949380D02*
X74095904Y-38949380D01*
X74143523Y-39425571D01*
X74095904Y-39377952D01*
X74000666Y-39330333D01*
X73762571Y-39330333D01*
X73667333Y-39377952D01*
X73619714Y-39425571D01*
X73572095Y-39520809D01*
X73572095Y-39758904D01*
X73619714Y-39854142D01*
X73667333Y-39901761D01*
X73762571Y-39949380D01*
X74000666Y-39949380D01*
X74095904Y-39901761D01*
X74143523Y-39854142D01*
%TO.C,R13*%
X75476857Y-41790880D02*
X75810190Y-41314690D01*
X76048285Y-41790880D02*
X76048285Y-40790880D01*
X75667333Y-40790880D01*
X75572095Y-40838500D01*
X75524476Y-40886119D01*
X75476857Y-40981357D01*
X75476857Y-41124214D01*
X75524476Y-41219452D01*
X75572095Y-41267071D01*
X75667333Y-41314690D01*
X76048285Y-41314690D01*
X74524476Y-41790880D02*
X75095904Y-41790880D01*
X74810190Y-41790880D02*
X74810190Y-40790880D01*
X74905428Y-40933738D01*
X75000666Y-41028976D01*
X75095904Y-41076595D01*
X74191142Y-40790880D02*
X73572095Y-40790880D01*
X73905428Y-41171833D01*
X73762571Y-41171833D01*
X73667333Y-41219452D01*
X73619714Y-41267071D01*
X73572095Y-41362309D01*
X73572095Y-41600404D01*
X73619714Y-41695642D01*
X73667333Y-41743261D01*
X73762571Y-41790880D01*
X74048285Y-41790880D01*
X74143523Y-41743261D01*
X74191142Y-41695642D01*
%TO.C,R3*%
X72460666Y-39949380D02*
X72794000Y-39473190D01*
X73032095Y-39949380D02*
X73032095Y-38949380D01*
X72651142Y-38949380D01*
X72555904Y-38997000D01*
X72508285Y-39044619D01*
X72460666Y-39139857D01*
X72460666Y-39282714D01*
X72508285Y-39377952D01*
X72555904Y-39425571D01*
X72651142Y-39473190D01*
X73032095Y-39473190D01*
X72127333Y-38949380D02*
X71508285Y-38949380D01*
X71841619Y-39330333D01*
X71698761Y-39330333D01*
X71603523Y-39377952D01*
X71555904Y-39425571D01*
X71508285Y-39520809D01*
X71508285Y-39758904D01*
X71555904Y-39854142D01*
X71603523Y-39901761D01*
X71698761Y-39949380D01*
X71984476Y-39949380D01*
X72079714Y-39901761D01*
X72127333Y-39854142D01*
%TO.C,R1*%
X72460666Y-41473380D02*
X72794000Y-40997190D01*
X73032095Y-41473380D02*
X73032095Y-40473380D01*
X72651142Y-40473380D01*
X72555904Y-40521000D01*
X72508285Y-40568619D01*
X72460666Y-40663857D01*
X72460666Y-40806714D01*
X72508285Y-40901952D01*
X72555904Y-40949571D01*
X72651142Y-40997190D01*
X73032095Y-40997190D01*
X71508285Y-41473380D02*
X72079714Y-41473380D01*
X71794000Y-41473380D02*
X71794000Y-40473380D01*
X71889238Y-40616238D01*
X71984476Y-40711476D01*
X72079714Y-40759095D01*
%TO.C,Q5*%
X77342238Y-43219619D02*
X77437476Y-43172000D01*
X77532714Y-43076761D01*
X77675571Y-42933904D01*
X77770809Y-42886285D01*
X77866047Y-42886285D01*
X77818428Y-43124380D02*
X77913666Y-43076761D01*
X78008904Y-42981523D01*
X78056523Y-42791047D01*
X78056523Y-42457714D01*
X78008904Y-42267238D01*
X77913666Y-42172000D01*
X77818428Y-42124380D01*
X77627952Y-42124380D01*
X77532714Y-42172000D01*
X77437476Y-42267238D01*
X77389857Y-42457714D01*
X77389857Y-42791047D01*
X77437476Y-42981523D01*
X77532714Y-43076761D01*
X77627952Y-43124380D01*
X77818428Y-43124380D01*
X76485095Y-42124380D02*
X76961285Y-42124380D01*
X77008904Y-42600571D01*
X76961285Y-42552952D01*
X76866047Y-42505333D01*
X76627952Y-42505333D01*
X76532714Y-42552952D01*
X76485095Y-42600571D01*
X76437476Y-42695809D01*
X76437476Y-42933904D01*
X76485095Y-43029142D01*
X76532714Y-43076761D01*
X76627952Y-43124380D01*
X76866047Y-43124380D01*
X76961285Y-43076761D01*
X77008904Y-43029142D01*
%TO.C,Q1*%
X69341238Y-42965619D02*
X69436476Y-42918000D01*
X69531714Y-42822761D01*
X69674571Y-42679904D01*
X69769809Y-42632285D01*
X69865047Y-42632285D01*
X69817428Y-42870380D02*
X69912666Y-42822761D01*
X70007904Y-42727523D01*
X70055523Y-42537047D01*
X70055523Y-42203714D01*
X70007904Y-42013238D01*
X69912666Y-41918000D01*
X69817428Y-41870380D01*
X69626952Y-41870380D01*
X69531714Y-41918000D01*
X69436476Y-42013238D01*
X69388857Y-42203714D01*
X69388857Y-42537047D01*
X69436476Y-42727523D01*
X69531714Y-42822761D01*
X69626952Y-42870380D01*
X69817428Y-42870380D01*
X68436476Y-42870380D02*
X69007904Y-42870380D01*
X68722190Y-42870380D02*
X68722190Y-41870380D01*
X68817428Y-42013238D01*
X68912666Y-42108476D01*
X69007904Y-42156095D01*
%TO.C,R17*%
X85001857Y-41727380D02*
X85335190Y-41251190D01*
X85573285Y-41727380D02*
X85573285Y-40727380D01*
X85192333Y-40727380D01*
X85097095Y-40775000D01*
X85049476Y-40822619D01*
X85001857Y-40917857D01*
X85001857Y-41060714D01*
X85049476Y-41155952D01*
X85097095Y-41203571D01*
X85192333Y-41251190D01*
X85573285Y-41251190D01*
X84049476Y-41727380D02*
X84620904Y-41727380D01*
X84335190Y-41727380D02*
X84335190Y-40727380D01*
X84430428Y-40870238D01*
X84525666Y-40965476D01*
X84620904Y-41013095D01*
X83716142Y-40727380D02*
X83049476Y-40727380D01*
X83478047Y-41727380D01*
%TO.C,R5*%
X63443666Y-41727380D02*
X63777000Y-41251190D01*
X64015095Y-41727380D02*
X64015095Y-40727380D01*
X63634142Y-40727380D01*
X63538904Y-40775000D01*
X63491285Y-40822619D01*
X63443666Y-40917857D01*
X63443666Y-41060714D01*
X63491285Y-41155952D01*
X63538904Y-41203571D01*
X63634142Y-41251190D01*
X64015095Y-41251190D01*
X62538904Y-40727380D02*
X63015095Y-40727380D01*
X63062714Y-41203571D01*
X63015095Y-41155952D01*
X62919857Y-41108333D01*
X62681761Y-41108333D01*
X62586523Y-41155952D01*
X62538904Y-41203571D01*
X62491285Y-41298809D01*
X62491285Y-41536904D01*
X62538904Y-41632142D01*
X62586523Y-41679761D01*
X62681761Y-41727380D01*
X62919857Y-41727380D01*
X63015095Y-41679761D01*
X63062714Y-41632142D01*
%TO.C,D4*%
X85954380Y-45743904D02*
X84954380Y-45743904D01*
X84954380Y-45982000D01*
X85002000Y-46124857D01*
X85097238Y-46220095D01*
X85192476Y-46267714D01*
X85382952Y-46315333D01*
X85525809Y-46315333D01*
X85716285Y-46267714D01*
X85811523Y-46220095D01*
X85906761Y-46124857D01*
X85954380Y-45982000D01*
X85954380Y-45743904D01*
X85287714Y-47172476D02*
X85954380Y-47172476D01*
X84906761Y-46934380D02*
X85621047Y-46696285D01*
X85621047Y-47315333D01*
%TO.C,D3*%
X85954380Y-43203904D02*
X84954380Y-43203904D01*
X84954380Y-43442000D01*
X85002000Y-43584857D01*
X85097238Y-43680095D01*
X85192476Y-43727714D01*
X85382952Y-43775333D01*
X85525809Y-43775333D01*
X85716285Y-43727714D01*
X85811523Y-43680095D01*
X85906761Y-43584857D01*
X85954380Y-43442000D01*
X85954380Y-43203904D01*
X84954380Y-44108666D02*
X84954380Y-44727714D01*
X85335333Y-44394380D01*
X85335333Y-44537238D01*
X85382952Y-44632476D01*
X85430571Y-44680095D01*
X85525809Y-44727714D01*
X85763904Y-44727714D01*
X85859142Y-44680095D01*
X85906761Y-44632476D01*
X85954380Y-44537238D01*
X85954380Y-44251523D01*
X85906761Y-44156285D01*
X85859142Y-44108666D01*
%TO.C,D2*%
X65380380Y-45743904D02*
X64380380Y-45743904D01*
X64380380Y-45982000D01*
X64428000Y-46124857D01*
X64523238Y-46220095D01*
X64618476Y-46267714D01*
X64808952Y-46315333D01*
X64951809Y-46315333D01*
X65142285Y-46267714D01*
X65237523Y-46220095D01*
X65332761Y-46124857D01*
X65380380Y-45982000D01*
X65380380Y-45743904D01*
X64475619Y-46696285D02*
X64428000Y-46743904D01*
X64380380Y-46839142D01*
X64380380Y-47077238D01*
X64428000Y-47172476D01*
X64475619Y-47220095D01*
X64570857Y-47267714D01*
X64666095Y-47267714D01*
X64808952Y-47220095D01*
X65380380Y-46648666D01*
X65380380Y-47267714D01*
%TO.C,D1*%
X65380380Y-43203904D02*
X64380380Y-43203904D01*
X64380380Y-43442000D01*
X64428000Y-43584857D01*
X64523238Y-43680095D01*
X64618476Y-43727714D01*
X64808952Y-43775333D01*
X64951809Y-43775333D01*
X65142285Y-43727714D01*
X65237523Y-43680095D01*
X65332761Y-43584857D01*
X65380380Y-43442000D01*
X65380380Y-43203904D01*
X65380380Y-44727714D02*
X65380380Y-44156285D01*
X65380380Y-44442000D02*
X64380380Y-44442000D01*
X64523238Y-44346761D01*
X64618476Y-44251523D01*
X64666095Y-44156285D01*
%TO.C,C9*%
X56903142Y-53808333D02*
X56950761Y-53760714D01*
X56998380Y-53617857D01*
X56998380Y-53522619D01*
X56950761Y-53379761D01*
X56855523Y-53284523D01*
X56760285Y-53236904D01*
X56569809Y-53189285D01*
X56426952Y-53189285D01*
X56236476Y-53236904D01*
X56141238Y-53284523D01*
X56046000Y-53379761D01*
X55998380Y-53522619D01*
X55998380Y-53617857D01*
X56046000Y-53760714D01*
X56093619Y-53808333D01*
X56998380Y-54284523D02*
X56998380Y-54475000D01*
X56950761Y-54570238D01*
X56903142Y-54617857D01*
X56760285Y-54713095D01*
X56569809Y-54760714D01*
X56188857Y-54760714D01*
X56093619Y-54713095D01*
X56046000Y-54665476D01*
X55998380Y-54570238D01*
X55998380Y-54379761D01*
X56046000Y-54284523D01*
X56093619Y-54236904D01*
X56188857Y-54189285D01*
X56426952Y-54189285D01*
X56522190Y-54236904D01*
X56569809Y-54284523D01*
X56617428Y-54379761D01*
X56617428Y-54570238D01*
X56569809Y-54665476D01*
X56522190Y-54713095D01*
X56426952Y-54760714D01*
%TO.C,C7*%
X92907666Y-62714142D02*
X92955285Y-62761761D01*
X93098142Y-62809380D01*
X93193380Y-62809380D01*
X93336238Y-62761761D01*
X93431476Y-62666523D01*
X93479095Y-62571285D01*
X93526714Y-62380809D01*
X93526714Y-62237952D01*
X93479095Y-62047476D01*
X93431476Y-61952238D01*
X93336238Y-61857000D01*
X93193380Y-61809380D01*
X93098142Y-61809380D01*
X92955285Y-61857000D01*
X92907666Y-61904619D01*
X92574333Y-61809380D02*
X91907666Y-61809380D01*
X92336238Y-62809380D01*
%TO.C,C6*%
X51124666Y-60174142D02*
X51172285Y-60221761D01*
X51315142Y-60269380D01*
X51410380Y-60269380D01*
X51553238Y-60221761D01*
X51648476Y-60126523D01*
X51696095Y-60031285D01*
X51743714Y-59840809D01*
X51743714Y-59697952D01*
X51696095Y-59507476D01*
X51648476Y-59412238D01*
X51553238Y-59317000D01*
X51410380Y-59269380D01*
X51315142Y-59269380D01*
X51172285Y-59317000D01*
X51124666Y-59364619D01*
X50267523Y-59269380D02*
X50458000Y-59269380D01*
X50553238Y-59317000D01*
X50600857Y-59364619D01*
X50696095Y-59507476D01*
X50743714Y-59697952D01*
X50743714Y-60078904D01*
X50696095Y-60174142D01*
X50648476Y-60221761D01*
X50553238Y-60269380D01*
X50362761Y-60269380D01*
X50267523Y-60221761D01*
X50219904Y-60174142D01*
X50172285Y-60078904D01*
X50172285Y-59840809D01*
X50219904Y-59745571D01*
X50267523Y-59697952D01*
X50362761Y-59650333D01*
X50553238Y-59650333D01*
X50648476Y-59697952D01*
X50696095Y-59745571D01*
X50743714Y-59840809D01*
%TO.C,C2*%
X46044666Y-60174142D02*
X46092285Y-60221761D01*
X46235142Y-60269380D01*
X46330380Y-60269380D01*
X46473238Y-60221761D01*
X46568476Y-60126523D01*
X46616095Y-60031285D01*
X46663714Y-59840809D01*
X46663714Y-59697952D01*
X46616095Y-59507476D01*
X46568476Y-59412238D01*
X46473238Y-59317000D01*
X46330380Y-59269380D01*
X46235142Y-59269380D01*
X46092285Y-59317000D01*
X46044666Y-59364619D01*
X45663714Y-59364619D02*
X45616095Y-59317000D01*
X45520857Y-59269380D01*
X45282761Y-59269380D01*
X45187523Y-59317000D01*
X45139904Y-59364619D01*
X45092285Y-59459857D01*
X45092285Y-59555095D01*
X45139904Y-59697952D01*
X45711333Y-60269380D01*
X45092285Y-60269380D01*
%TO.C,C1*%
X45727142Y-54062333D02*
X45774761Y-54014714D01*
X45822380Y-53871857D01*
X45822380Y-53776619D01*
X45774761Y-53633761D01*
X45679523Y-53538523D01*
X45584285Y-53490904D01*
X45393809Y-53443285D01*
X45250952Y-53443285D01*
X45060476Y-53490904D01*
X44965238Y-53538523D01*
X44870000Y-53633761D01*
X44822380Y-53776619D01*
X44822380Y-53871857D01*
X44870000Y-54014714D01*
X44917619Y-54062333D01*
X45822380Y-55014714D02*
X45822380Y-54443285D01*
X45822380Y-54729000D02*
X44822380Y-54729000D01*
X44965238Y-54633761D01*
X45060476Y-54538523D01*
X45108095Y-54443285D01*
%TO.C,C12*%
X90970857Y-39727142D02*
X91018476Y-39774761D01*
X91161333Y-39822380D01*
X91256571Y-39822380D01*
X91399428Y-39774761D01*
X91494666Y-39679523D01*
X91542285Y-39584285D01*
X91589904Y-39393809D01*
X91589904Y-39250952D01*
X91542285Y-39060476D01*
X91494666Y-38965238D01*
X91399428Y-38870000D01*
X91256571Y-38822380D01*
X91161333Y-38822380D01*
X91018476Y-38870000D01*
X90970857Y-38917619D01*
X90018476Y-39822380D02*
X90589904Y-39822380D01*
X90304190Y-39822380D02*
X90304190Y-38822380D01*
X90399428Y-38965238D01*
X90494666Y-39060476D01*
X90589904Y-39108095D01*
X89637523Y-38917619D02*
X89589904Y-38870000D01*
X89494666Y-38822380D01*
X89256571Y-38822380D01*
X89161333Y-38870000D01*
X89113714Y-38917619D01*
X89066095Y-39012857D01*
X89066095Y-39108095D01*
X89113714Y-39250952D01*
X89685142Y-39822380D01*
X89066095Y-39822380D01*
%TO.C,C11*%
X93510857Y-40870142D02*
X93558476Y-40917761D01*
X93701333Y-40965380D01*
X93796571Y-40965380D01*
X93939428Y-40917761D01*
X94034666Y-40822523D01*
X94082285Y-40727285D01*
X94129904Y-40536809D01*
X94129904Y-40393952D01*
X94082285Y-40203476D01*
X94034666Y-40108238D01*
X93939428Y-40013000D01*
X93796571Y-39965380D01*
X93701333Y-39965380D01*
X93558476Y-40013000D01*
X93510857Y-40060619D01*
X92558476Y-40965380D02*
X93129904Y-40965380D01*
X92844190Y-40965380D02*
X92844190Y-39965380D01*
X92939428Y-40108238D01*
X93034666Y-40203476D01*
X93129904Y-40251095D01*
X91606095Y-40965380D02*
X92177523Y-40965380D01*
X91891809Y-40965380D02*
X91891809Y-39965380D01*
X91987047Y-40108238D01*
X92082285Y-40203476D01*
X92177523Y-40251095D01*
%TO.C,C4*%
X57284142Y-40549833D02*
X57331761Y-40502214D01*
X57379380Y-40359357D01*
X57379380Y-40264119D01*
X57331761Y-40121261D01*
X57236523Y-40026023D01*
X57141285Y-39978404D01*
X56950809Y-39930785D01*
X56807952Y-39930785D01*
X56617476Y-39978404D01*
X56522238Y-40026023D01*
X56427000Y-40121261D01*
X56379380Y-40264119D01*
X56379380Y-40359357D01*
X56427000Y-40502214D01*
X56474619Y-40549833D01*
X56712714Y-41406976D02*
X57379380Y-41406976D01*
X56331761Y-41168880D02*
X57046047Y-40930785D01*
X57046047Y-41549833D01*
%TO.C,C3*%
X58681142Y-40473333D02*
X58728761Y-40425714D01*
X58776380Y-40282857D01*
X58776380Y-40187619D01*
X58728761Y-40044761D01*
X58633523Y-39949523D01*
X58538285Y-39901904D01*
X58347809Y-39854285D01*
X58204952Y-39854285D01*
X58014476Y-39901904D01*
X57919238Y-39949523D01*
X57824000Y-40044761D01*
X57776380Y-40187619D01*
X57776380Y-40282857D01*
X57824000Y-40425714D01*
X57871619Y-40473333D01*
X57776380Y-40806666D02*
X57776380Y-41425714D01*
X58157333Y-41092380D01*
X58157333Y-41235238D01*
X58204952Y-41330476D01*
X58252571Y-41378095D01*
X58347809Y-41425714D01*
X58585904Y-41425714D01*
X58681142Y-41378095D01*
X58728761Y-41330476D01*
X58776380Y-41235238D01*
X58776380Y-40949523D01*
X58728761Y-40854285D01*
X58681142Y-40806666D01*
%TD*%
%LPC*%
%TO.C,C3*%
G36*
G01*
X60741000Y-64491500D02*
X61241000Y-64491500D01*
G75*
G02*
X61466000Y-64716500I0J-225000D01*
G01*
X61466000Y-65166500D01*
G75*
G02*
X61241000Y-65391500I-225000J0D01*
G01*
X60741000Y-65391500D01*
G75*
G02*
X60516000Y-65166500I0J225000D01*
G01*
X60516000Y-64716500D01*
G75*
G02*
X60741000Y-64491500I225000J0D01*
G01*
G37*
G36*
G01*
X60741000Y-66041500D02*
X61241000Y-66041500D01*
G75*
G02*
X61466000Y-66266500I0J-225000D01*
G01*
X61466000Y-66716500D01*
G75*
G02*
X61241000Y-66941500I-225000J0D01*
G01*
X60741000Y-66941500D01*
G75*
G02*
X60516000Y-66716500I0J225000D01*
G01*
X60516000Y-66266500D01*
G75*
G02*
X60741000Y-66041500I225000J0D01*
G01*
G37*
%TD*%
%TO.C,C4*%
G36*
G01*
X59217000Y-64491500D02*
X59717000Y-64491500D01*
G75*
G02*
X59942000Y-64716500I0J-225000D01*
G01*
X59942000Y-65166500D01*
G75*
G02*
X59717000Y-65391500I-225000J0D01*
G01*
X59217000Y-65391500D01*
G75*
G02*
X58992000Y-65166500I0J225000D01*
G01*
X58992000Y-64716500D01*
G75*
G02*
X59217000Y-64491500I225000J0D01*
G01*
G37*
G36*
G01*
X59217000Y-66041500D02*
X59717000Y-66041500D01*
G75*
G02*
X59942000Y-66266500I0J-225000D01*
G01*
X59942000Y-66716500D01*
G75*
G02*
X59717000Y-66941500I-225000J0D01*
G01*
X59217000Y-66941500D01*
G75*
G02*
X58992000Y-66716500I0J225000D01*
G01*
X58992000Y-66266500D01*
G75*
G02*
X59217000Y-66041500I225000J0D01*
G01*
G37*
%TD*%
%TO.C,C11*%
G36*
G01*
X87919000Y-64491500D02*
X88419000Y-64491500D01*
G75*
G02*
X88644000Y-64716500I0J-225000D01*
G01*
X88644000Y-65166500D01*
G75*
G02*
X88419000Y-65391500I-225000J0D01*
G01*
X87919000Y-65391500D01*
G75*
G02*
X87694000Y-65166500I0J225000D01*
G01*
X87694000Y-64716500D01*
G75*
G02*
X87919000Y-64491500I225000J0D01*
G01*
G37*
G36*
G01*
X87919000Y-66041500D02*
X88419000Y-66041500D01*
G75*
G02*
X88644000Y-66266500I0J-225000D01*
G01*
X88644000Y-66716500D01*
G75*
G02*
X88419000Y-66941500I-225000J0D01*
G01*
X87919000Y-66941500D01*
G75*
G02*
X87694000Y-66716500I0J225000D01*
G01*
X87694000Y-66266500D01*
G75*
G02*
X87919000Y-66041500I225000J0D01*
G01*
G37*
%TD*%
%TO.C,C12*%
G36*
G01*
X86395000Y-64491500D02*
X86895000Y-64491500D01*
G75*
G02*
X87120000Y-64716500I0J-225000D01*
G01*
X87120000Y-65166500D01*
G75*
G02*
X86895000Y-65391500I-225000J0D01*
G01*
X86395000Y-65391500D01*
G75*
G02*
X86170000Y-65166500I0J225000D01*
G01*
X86170000Y-64716500D01*
G75*
G02*
X86395000Y-64491500I225000J0D01*
G01*
G37*
G36*
G01*
X86395000Y-66041500D02*
X86895000Y-66041500D01*
G75*
G02*
X87120000Y-66266500I0J-225000D01*
G01*
X87120000Y-66716500D01*
G75*
G02*
X86895000Y-66941500I-225000J0D01*
G01*
X86395000Y-66941500D01*
G75*
G02*
X86170000Y-66716500I0J225000D01*
G01*
X86170000Y-66266500D01*
G75*
G02*
X86395000Y-66041500I225000J0D01*
G01*
G37*
%TD*%
%TO.C,C1*%
G36*
G01*
X49443001Y-83783000D02*
X47392999Y-83783000D01*
G75*
G02*
X47143000Y-83533001I0J249999D01*
G01*
X47143000Y-81782999D01*
G75*
G02*
X47392999Y-81533000I249999J0D01*
G01*
X49443001Y-81533000D01*
G75*
G02*
X49693000Y-81782999I0J-249999D01*
G01*
X49693000Y-83533001D01*
G75*
G02*
X49443001Y-83783000I-249999J0D01*
G01*
G37*
G36*
G01*
X49443001Y-77383000D02*
X47392999Y-77383000D01*
G75*
G02*
X47143000Y-77133001I0J249999D01*
G01*
X47143000Y-75382999D01*
G75*
G02*
X47392999Y-75133000I249999J0D01*
G01*
X49443001Y-75133000D01*
G75*
G02*
X49693000Y-75382999I0J-249999D01*
G01*
X49693000Y-77133001D01*
G75*
G02*
X49443001Y-77383000I-249999J0D01*
G01*
G37*
%TD*%
%TO.C,C2*%
G36*
G01*
X47066000Y-85067000D02*
X47066000Y-84567000D01*
G75*
G02*
X47291000Y-84342000I225000J0D01*
G01*
X47741000Y-84342000D01*
G75*
G02*
X47966000Y-84567000I0J-225000D01*
G01*
X47966000Y-85067000D01*
G75*
G02*
X47741000Y-85292000I-225000J0D01*
G01*
X47291000Y-85292000D01*
G75*
G02*
X47066000Y-85067000I0J225000D01*
G01*
G37*
G36*
G01*
X48616000Y-85067000D02*
X48616000Y-84567000D01*
G75*
G02*
X48841000Y-84342000I225000J0D01*
G01*
X49291000Y-84342000D01*
G75*
G02*
X49516000Y-84567000I0J-225000D01*
G01*
X49516000Y-85067000D01*
G75*
G02*
X49291000Y-85292000I-225000J0D01*
G01*
X48841000Y-85292000D01*
G75*
G02*
X48616000Y-85067000I0J225000D01*
G01*
G37*
%TD*%
%TO.C,C6*%
G36*
G01*
X52146000Y-85067000D02*
X52146000Y-84567000D01*
G75*
G02*
X52371000Y-84342000I225000J0D01*
G01*
X52821000Y-84342000D01*
G75*
G02*
X53046000Y-84567000I0J-225000D01*
G01*
X53046000Y-85067000D01*
G75*
G02*
X52821000Y-85292000I-225000J0D01*
G01*
X52371000Y-85292000D01*
G75*
G02*
X52146000Y-85067000I0J225000D01*
G01*
G37*
G36*
G01*
X53696000Y-85067000D02*
X53696000Y-84567000D01*
G75*
G02*
X53921000Y-84342000I225000J0D01*
G01*
X54371000Y-84342000D01*
G75*
G02*
X54596000Y-84567000I0J-225000D01*
G01*
X54596000Y-85067000D01*
G75*
G02*
X54371000Y-85292000I-225000J0D01*
G01*
X53921000Y-85292000D01*
G75*
G02*
X53696000Y-85067000I0J225000D01*
G01*
G37*
%TD*%
D12*
%TO.C,C7*%
X92741000Y-67545000D03*
X92741000Y-85045000D03*
%TD*%
%TO.C,C9*%
G36*
G01*
X54396001Y-83783000D02*
X52345999Y-83783000D01*
G75*
G02*
X52096000Y-83533001I0J249999D01*
G01*
X52096000Y-81782999D01*
G75*
G02*
X52345999Y-81533000I249999J0D01*
G01*
X54396001Y-81533000D01*
G75*
G02*
X54646000Y-81782999I0J-249999D01*
G01*
X54646000Y-83533001D01*
G75*
G02*
X54396001Y-83783000I-249999J0D01*
G01*
G37*
G36*
G01*
X54396001Y-77383000D02*
X52345999Y-77383000D01*
G75*
G02*
X52096000Y-77133001I0J249999D01*
G01*
X52096000Y-75382999D01*
G75*
G02*
X52345999Y-75133000I249999J0D01*
G01*
X54396001Y-75133000D01*
G75*
G02*
X54646000Y-75382999I0J-249999D01*
G01*
X54646000Y-77133001D01*
G75*
G02*
X54396001Y-77383000I-249999J0D01*
G01*
G37*
%TD*%
D13*
%TO.C,D1*%
X61499000Y-68942000D03*
X63599000Y-68942000D03*
%TD*%
%TO.C,D2*%
X61499000Y-71482000D03*
X63599000Y-71482000D03*
%TD*%
%TO.C,D3*%
X82073000Y-68942000D03*
X84173000Y-68942000D03*
%TD*%
%TO.C,D4*%
X82073000Y-71482000D03*
X84173000Y-71482000D03*
%TD*%
D14*
%TO.C,K1*%
X59213000Y-68942000D03*
D15*
X59213000Y-71482000D03*
X59213000Y-76562000D03*
X59213000Y-81642000D03*
X59213000Y-86722000D03*
X66833000Y-86722000D03*
X66833000Y-81642000D03*
X66833000Y-76562000D03*
X66833000Y-71482000D03*
X66833000Y-68942000D03*
%TD*%
D16*
%TO.C,PS1*%
X47021000Y-86849000D03*
D17*
X49561000Y-86849000D03*
X52101000Y-86849000D03*
X54641000Y-86849000D03*
%TD*%
%TO.C,R5*%
G36*
G01*
X64565000Y-64603000D02*
X64565000Y-65153000D01*
G75*
G02*
X64365000Y-65353000I-200000J0D01*
G01*
X63965000Y-65353000D01*
G75*
G02*
X63765000Y-65153000I0J200000D01*
G01*
X63765000Y-64603000D01*
G75*
G02*
X63965000Y-64403000I200000J0D01*
G01*
X64365000Y-64403000D01*
G75*
G02*
X64565000Y-64603000I0J-200000D01*
G01*
G37*
G36*
G01*
X62915000Y-64603000D02*
X62915000Y-65153000D01*
G75*
G02*
X62715000Y-65353000I-200000J0D01*
G01*
X62315000Y-65353000D01*
G75*
G02*
X62115000Y-65153000I0J200000D01*
G01*
X62115000Y-64603000D01*
G75*
G02*
X62315000Y-64403000I200000J0D01*
G01*
X62715000Y-64403000D01*
G75*
G02*
X62915000Y-64603000I0J-200000D01*
G01*
G37*
%TD*%
%TO.C,R17*%
G36*
G01*
X83071000Y-65153000D02*
X83071000Y-64603000D01*
G75*
G02*
X83271000Y-64403000I200000J0D01*
G01*
X83671000Y-64403000D01*
G75*
G02*
X83871000Y-64603000I0J-200000D01*
G01*
X83871000Y-65153000D01*
G75*
G02*
X83671000Y-65353000I-200000J0D01*
G01*
X83271000Y-65353000D01*
G75*
G02*
X83071000Y-65153000I0J200000D01*
G01*
G37*
G36*
G01*
X84721000Y-65153000D02*
X84721000Y-64603000D01*
G75*
G02*
X84921000Y-64403000I200000J0D01*
G01*
X85321000Y-64403000D01*
G75*
G02*
X85521000Y-64603000I0J-200000D01*
G01*
X85521000Y-65153000D01*
G75*
G02*
X85321000Y-65353000I-200000J0D01*
G01*
X84921000Y-65353000D01*
G75*
G02*
X84721000Y-65153000I0J200000D01*
G01*
G37*
%TD*%
%TO.C,R1*%
G36*
G01*
X68719000Y-66296000D02*
X68719000Y-65746000D01*
G75*
G02*
X68919000Y-65546000I200000J0D01*
G01*
X69319000Y-65546000D01*
G75*
G02*
X69519000Y-65746000I0J-200000D01*
G01*
X69519000Y-66296000D01*
G75*
G02*
X69319000Y-66496000I-200000J0D01*
G01*
X68919000Y-66496000D01*
G75*
G02*
X68719000Y-66296000I0J200000D01*
G01*
G37*
G36*
G01*
X70369000Y-66296000D02*
X70369000Y-65746000D01*
G75*
G02*
X70569000Y-65546000I200000J0D01*
G01*
X70969000Y-65546000D01*
G75*
G02*
X71169000Y-65746000I0J-200000D01*
G01*
X71169000Y-66296000D01*
G75*
G02*
X70969000Y-66496000I-200000J0D01*
G01*
X70569000Y-66496000D01*
G75*
G02*
X70369000Y-66296000I0J200000D01*
G01*
G37*
%TD*%
%TO.C,R3*%
G36*
G01*
X71169000Y-64222000D02*
X71169000Y-64772000D01*
G75*
G02*
X70969000Y-64972000I-200000J0D01*
G01*
X70569000Y-64972000D01*
G75*
G02*
X70369000Y-64772000I0J200000D01*
G01*
X70369000Y-64222000D01*
G75*
G02*
X70569000Y-64022000I200000J0D01*
G01*
X70969000Y-64022000D01*
G75*
G02*
X71169000Y-64222000I0J-200000D01*
G01*
G37*
G36*
G01*
X69519000Y-64222000D02*
X69519000Y-64772000D01*
G75*
G02*
X69319000Y-64972000I-200000J0D01*
G01*
X68919000Y-64972000D01*
G75*
G02*
X68719000Y-64772000I0J200000D01*
G01*
X68719000Y-64222000D01*
G75*
G02*
X68919000Y-64022000I200000J0D01*
G01*
X69319000Y-64022000D01*
G75*
G02*
X69519000Y-64222000I0J-200000D01*
G01*
G37*
%TD*%
%TO.C,R13*%
G36*
G01*
X76466000Y-66613500D02*
X76466000Y-66063500D01*
G75*
G02*
X76666000Y-65863500I200000J0D01*
G01*
X77066000Y-65863500D01*
G75*
G02*
X77266000Y-66063500I0J-200000D01*
G01*
X77266000Y-66613500D01*
G75*
G02*
X77066000Y-66813500I-200000J0D01*
G01*
X76666000Y-66813500D01*
G75*
G02*
X76466000Y-66613500I0J200000D01*
G01*
G37*
G36*
G01*
X78116000Y-66613500D02*
X78116000Y-66063500D01*
G75*
G02*
X78316000Y-65863500I200000J0D01*
G01*
X78716000Y-65863500D01*
G75*
G02*
X78916000Y-66063500I0J-200000D01*
G01*
X78916000Y-66613500D01*
G75*
G02*
X78716000Y-66813500I-200000J0D01*
G01*
X78316000Y-66813500D01*
G75*
G02*
X78116000Y-66613500I0J200000D01*
G01*
G37*
%TD*%
%TO.C,R15*%
G36*
G01*
X76467000Y-64772000D02*
X76467000Y-64222000D01*
G75*
G02*
X76667000Y-64022000I200000J0D01*
G01*
X77067000Y-64022000D01*
G75*
G02*
X77267000Y-64222000I0J-200000D01*
G01*
X77267000Y-64772000D01*
G75*
G02*
X77067000Y-64972000I-200000J0D01*
G01*
X76667000Y-64972000D01*
G75*
G02*
X76467000Y-64772000I0J200000D01*
G01*
G37*
G36*
G01*
X78117000Y-64772000D02*
X78117000Y-64222000D01*
G75*
G02*
X78317000Y-64022000I200000J0D01*
G01*
X78717000Y-64022000D01*
G75*
G02*
X78917000Y-64222000I0J-200000D01*
G01*
X78917000Y-64772000D01*
G75*
G02*
X78717000Y-64972000I-200000J0D01*
G01*
X78317000Y-64972000D01*
G75*
G02*
X78117000Y-64772000I0J200000D01*
G01*
G37*
%TD*%
D12*
%TO.C,TP1*%
X50640500Y-80118000D03*
%TD*%
%TO.C,C5*%
X62113000Y-84182000D03*
X84613000Y-84182000D03*
%TD*%
D18*
%TO.C,J2*%
X48291000Y-69450000D03*
D19*
X48291000Y-68180000D03*
X47021000Y-69450000D03*
X47021000Y-68180000D03*
X45751000Y-69450000D03*
X45751000Y-68180000D03*
%TD*%
D20*
%TO.C,J1*%
X75850000Y-86468000D03*
X73310000Y-86468000D03*
D21*
X70770000Y-86468000D03*
%TD*%
D15*
%TO.C,K2*%
X87407000Y-68942000D03*
X87407000Y-71482000D03*
X87407000Y-76562000D03*
X87407000Y-81642000D03*
X87407000Y-86722000D03*
X79787000Y-86722000D03*
X79787000Y-81642000D03*
X79787000Y-76562000D03*
X79787000Y-71482000D03*
D14*
X79787000Y-68942000D03*
%TD*%
D22*
%TO.C,Q1*%
X65695000Y-64560500D03*
X67595000Y-64560500D03*
X66645000Y-66560500D03*
%TD*%
D23*
%TO.C,Q5*%
X80041000Y-66460500D03*
X80041000Y-64560500D03*
X82041000Y-65510500D03*
%TD*%
D19*
%TO.C,J2*%
X45751000Y-43180000D03*
X45751000Y-44450000D03*
X47021000Y-43180000D03*
X47021000Y-44450000D03*
X48291000Y-43180000D03*
D18*
X48291000Y-44450000D03*
%TD*%
D12*
%TO.C,C5*%
X84613000Y-59182000D03*
X62113000Y-59182000D03*
%TD*%
%TO.C,R15*%
G36*
G01*
X78117000Y-39772000D02*
X78117000Y-39222000D01*
G75*
G02*
X78317000Y-39022000I200000J0D01*
G01*
X78717000Y-39022000D01*
G75*
G02*
X78917000Y-39222000I0J-200000D01*
G01*
X78917000Y-39772000D01*
G75*
G02*
X78717000Y-39972000I-200000J0D01*
G01*
X78317000Y-39972000D01*
G75*
G02*
X78117000Y-39772000I0J200000D01*
G01*
G37*
G36*
G01*
X76467000Y-39772000D02*
X76467000Y-39222000D01*
G75*
G02*
X76667000Y-39022000I200000J0D01*
G01*
X77067000Y-39022000D01*
G75*
G02*
X77267000Y-39222000I0J-200000D01*
G01*
X77267000Y-39772000D01*
G75*
G02*
X77067000Y-39972000I-200000J0D01*
G01*
X76667000Y-39972000D01*
G75*
G02*
X76467000Y-39772000I0J200000D01*
G01*
G37*
%TD*%
%TO.C,R13*%
G36*
G01*
X78116000Y-41613500D02*
X78116000Y-41063500D01*
G75*
G02*
X78316000Y-40863500I200000J0D01*
G01*
X78716000Y-40863500D01*
G75*
G02*
X78916000Y-41063500I0J-200000D01*
G01*
X78916000Y-41613500D01*
G75*
G02*
X78716000Y-41813500I-200000J0D01*
G01*
X78316000Y-41813500D01*
G75*
G02*
X78116000Y-41613500I0J200000D01*
G01*
G37*
G36*
G01*
X76466000Y-41613500D02*
X76466000Y-41063500D01*
G75*
G02*
X76666000Y-40863500I200000J0D01*
G01*
X77066000Y-40863500D01*
G75*
G02*
X77266000Y-41063500I0J-200000D01*
G01*
X77266000Y-41613500D01*
G75*
G02*
X77066000Y-41813500I-200000J0D01*
G01*
X76666000Y-41813500D01*
G75*
G02*
X76466000Y-41613500I0J200000D01*
G01*
G37*
%TD*%
%TO.C,R3*%
G36*
G01*
X69519000Y-39222000D02*
X69519000Y-39772000D01*
G75*
G02*
X69319000Y-39972000I-200000J0D01*
G01*
X68919000Y-39972000D01*
G75*
G02*
X68719000Y-39772000I0J200000D01*
G01*
X68719000Y-39222000D01*
G75*
G02*
X68919000Y-39022000I200000J0D01*
G01*
X69319000Y-39022000D01*
G75*
G02*
X69519000Y-39222000I0J-200000D01*
G01*
G37*
G36*
G01*
X71169000Y-39222000D02*
X71169000Y-39772000D01*
G75*
G02*
X70969000Y-39972000I-200000J0D01*
G01*
X70569000Y-39972000D01*
G75*
G02*
X70369000Y-39772000I0J200000D01*
G01*
X70369000Y-39222000D01*
G75*
G02*
X70569000Y-39022000I200000J0D01*
G01*
X70969000Y-39022000D01*
G75*
G02*
X71169000Y-39222000I0J-200000D01*
G01*
G37*
%TD*%
%TO.C,R1*%
G36*
G01*
X70369000Y-41296000D02*
X70369000Y-40746000D01*
G75*
G02*
X70569000Y-40546000I200000J0D01*
G01*
X70969000Y-40546000D01*
G75*
G02*
X71169000Y-40746000I0J-200000D01*
G01*
X71169000Y-41296000D01*
G75*
G02*
X70969000Y-41496000I-200000J0D01*
G01*
X70569000Y-41496000D01*
G75*
G02*
X70369000Y-41296000I0J200000D01*
G01*
G37*
G36*
G01*
X68719000Y-41296000D02*
X68719000Y-40746000D01*
G75*
G02*
X68919000Y-40546000I200000J0D01*
G01*
X69319000Y-40546000D01*
G75*
G02*
X69519000Y-40746000I0J-200000D01*
G01*
X69519000Y-41296000D01*
G75*
G02*
X69319000Y-41496000I-200000J0D01*
G01*
X68919000Y-41496000D01*
G75*
G02*
X68719000Y-41296000I0J200000D01*
G01*
G37*
%TD*%
D23*
%TO.C,Q5*%
X82041000Y-40510500D03*
X80041000Y-39560500D03*
X80041000Y-41460500D03*
%TD*%
D22*
%TO.C,Q1*%
X66645000Y-41560500D03*
X67595000Y-39560500D03*
X65695000Y-39560500D03*
%TD*%
D14*
%TO.C,K2*%
X79787000Y-43942000D03*
D15*
X79787000Y-46482000D03*
X79787000Y-51562000D03*
X79787000Y-56642000D03*
X79787000Y-61722000D03*
X87407000Y-61722000D03*
X87407000Y-56642000D03*
X87407000Y-51562000D03*
X87407000Y-46482000D03*
X87407000Y-43942000D03*
%TD*%
D21*
%TO.C,J1*%
X70770000Y-61468000D03*
D20*
X73310000Y-61468000D03*
X75850000Y-61468000D03*
%TD*%
D12*
%TO.C,TP1*%
X50640500Y-55118000D03*
%TD*%
%TO.C,R17*%
G36*
G01*
X84721000Y-40153000D02*
X84721000Y-39603000D01*
G75*
G02*
X84921000Y-39403000I200000J0D01*
G01*
X85321000Y-39403000D01*
G75*
G02*
X85521000Y-39603000I0J-200000D01*
G01*
X85521000Y-40153000D01*
G75*
G02*
X85321000Y-40353000I-200000J0D01*
G01*
X84921000Y-40353000D01*
G75*
G02*
X84721000Y-40153000I0J200000D01*
G01*
G37*
G36*
G01*
X83071000Y-40153000D02*
X83071000Y-39603000D01*
G75*
G02*
X83271000Y-39403000I200000J0D01*
G01*
X83671000Y-39403000D01*
G75*
G02*
X83871000Y-39603000I0J-200000D01*
G01*
X83871000Y-40153000D01*
G75*
G02*
X83671000Y-40353000I-200000J0D01*
G01*
X83271000Y-40353000D01*
G75*
G02*
X83071000Y-40153000I0J200000D01*
G01*
G37*
%TD*%
%TO.C,R5*%
G36*
G01*
X62915000Y-39603000D02*
X62915000Y-40153000D01*
G75*
G02*
X62715000Y-40353000I-200000J0D01*
G01*
X62315000Y-40353000D01*
G75*
G02*
X62115000Y-40153000I0J200000D01*
G01*
X62115000Y-39603000D01*
G75*
G02*
X62315000Y-39403000I200000J0D01*
G01*
X62715000Y-39403000D01*
G75*
G02*
X62915000Y-39603000I0J-200000D01*
G01*
G37*
G36*
G01*
X64565000Y-39603000D02*
X64565000Y-40153000D01*
G75*
G02*
X64365000Y-40353000I-200000J0D01*
G01*
X63965000Y-40353000D01*
G75*
G02*
X63765000Y-40153000I0J200000D01*
G01*
X63765000Y-39603000D01*
G75*
G02*
X63965000Y-39403000I200000J0D01*
G01*
X64365000Y-39403000D01*
G75*
G02*
X64565000Y-39603000I0J-200000D01*
G01*
G37*
%TD*%
D17*
%TO.C,PS1*%
X54641000Y-61849000D03*
X52101000Y-61849000D03*
X49561000Y-61849000D03*
D16*
X47021000Y-61849000D03*
%TD*%
D15*
%TO.C,K1*%
X66833000Y-43942000D03*
X66833000Y-46482000D03*
X66833000Y-51562000D03*
X66833000Y-56642000D03*
X66833000Y-61722000D03*
X59213000Y-61722000D03*
X59213000Y-56642000D03*
X59213000Y-51562000D03*
X59213000Y-46482000D03*
D14*
X59213000Y-43942000D03*
%TD*%
D13*
%TO.C,D4*%
X84173000Y-46482000D03*
X82073000Y-46482000D03*
%TD*%
%TO.C,D3*%
X84173000Y-43942000D03*
X82073000Y-43942000D03*
%TD*%
%TO.C,D2*%
X63599000Y-46482000D03*
X61499000Y-46482000D03*
%TD*%
%TO.C,D1*%
X63599000Y-43942000D03*
X61499000Y-43942000D03*
%TD*%
%TO.C,C9*%
G36*
G01*
X54396001Y-52383000D02*
X52345999Y-52383000D01*
G75*
G02*
X52096000Y-52133001I0J249999D01*
G01*
X52096000Y-50382999D01*
G75*
G02*
X52345999Y-50133000I249999J0D01*
G01*
X54396001Y-50133000D01*
G75*
G02*
X54646000Y-50382999I0J-249999D01*
G01*
X54646000Y-52133001D01*
G75*
G02*
X54396001Y-52383000I-249999J0D01*
G01*
G37*
G36*
G01*
X54396001Y-58783000D02*
X52345999Y-58783000D01*
G75*
G02*
X52096000Y-58533001I0J249999D01*
G01*
X52096000Y-56782999D01*
G75*
G02*
X52345999Y-56533000I249999J0D01*
G01*
X54396001Y-56533000D01*
G75*
G02*
X54646000Y-56782999I0J-249999D01*
G01*
X54646000Y-58533001D01*
G75*
G02*
X54396001Y-58783000I-249999J0D01*
G01*
G37*
%TD*%
D12*
%TO.C,C7*%
X92741000Y-60045000D03*
X92741000Y-42545000D03*
%TD*%
%TO.C,C6*%
G36*
G01*
X53696000Y-60067000D02*
X53696000Y-59567000D01*
G75*
G02*
X53921000Y-59342000I225000J0D01*
G01*
X54371000Y-59342000D01*
G75*
G02*
X54596000Y-59567000I0J-225000D01*
G01*
X54596000Y-60067000D01*
G75*
G02*
X54371000Y-60292000I-225000J0D01*
G01*
X53921000Y-60292000D01*
G75*
G02*
X53696000Y-60067000I0J225000D01*
G01*
G37*
G36*
G01*
X52146000Y-60067000D02*
X52146000Y-59567000D01*
G75*
G02*
X52371000Y-59342000I225000J0D01*
G01*
X52821000Y-59342000D01*
G75*
G02*
X53046000Y-59567000I0J-225000D01*
G01*
X53046000Y-60067000D01*
G75*
G02*
X52821000Y-60292000I-225000J0D01*
G01*
X52371000Y-60292000D01*
G75*
G02*
X52146000Y-60067000I0J225000D01*
G01*
G37*
%TD*%
%TO.C,C2*%
G36*
G01*
X48616000Y-60067000D02*
X48616000Y-59567000D01*
G75*
G02*
X48841000Y-59342000I225000J0D01*
G01*
X49291000Y-59342000D01*
G75*
G02*
X49516000Y-59567000I0J-225000D01*
G01*
X49516000Y-60067000D01*
G75*
G02*
X49291000Y-60292000I-225000J0D01*
G01*
X48841000Y-60292000D01*
G75*
G02*
X48616000Y-60067000I0J225000D01*
G01*
G37*
G36*
G01*
X47066000Y-60067000D02*
X47066000Y-59567000D01*
G75*
G02*
X47291000Y-59342000I225000J0D01*
G01*
X47741000Y-59342000D01*
G75*
G02*
X47966000Y-59567000I0J-225000D01*
G01*
X47966000Y-60067000D01*
G75*
G02*
X47741000Y-60292000I-225000J0D01*
G01*
X47291000Y-60292000D01*
G75*
G02*
X47066000Y-60067000I0J225000D01*
G01*
G37*
%TD*%
%TO.C,C1*%
G36*
G01*
X49443001Y-52383000D02*
X47392999Y-52383000D01*
G75*
G02*
X47143000Y-52133001I0J249999D01*
G01*
X47143000Y-50382999D01*
G75*
G02*
X47392999Y-50133000I249999J0D01*
G01*
X49443001Y-50133000D01*
G75*
G02*
X49693000Y-50382999I0J-249999D01*
G01*
X49693000Y-52133001D01*
G75*
G02*
X49443001Y-52383000I-249999J0D01*
G01*
G37*
G36*
G01*
X49443001Y-58783000D02*
X47392999Y-58783000D01*
G75*
G02*
X47143000Y-58533001I0J249999D01*
G01*
X47143000Y-56782999D01*
G75*
G02*
X47392999Y-56533000I249999J0D01*
G01*
X49443001Y-56533000D01*
G75*
G02*
X49693000Y-56782999I0J-249999D01*
G01*
X49693000Y-58533001D01*
G75*
G02*
X49443001Y-58783000I-249999J0D01*
G01*
G37*
%TD*%
%TO.C,C12*%
G36*
G01*
X86395000Y-41041500D02*
X86895000Y-41041500D01*
G75*
G02*
X87120000Y-41266500I0J-225000D01*
G01*
X87120000Y-41716500D01*
G75*
G02*
X86895000Y-41941500I-225000J0D01*
G01*
X86395000Y-41941500D01*
G75*
G02*
X86170000Y-41716500I0J225000D01*
G01*
X86170000Y-41266500D01*
G75*
G02*
X86395000Y-41041500I225000J0D01*
G01*
G37*
G36*
G01*
X86395000Y-39491500D02*
X86895000Y-39491500D01*
G75*
G02*
X87120000Y-39716500I0J-225000D01*
G01*
X87120000Y-40166500D01*
G75*
G02*
X86895000Y-40391500I-225000J0D01*
G01*
X86395000Y-40391500D01*
G75*
G02*
X86170000Y-40166500I0J225000D01*
G01*
X86170000Y-39716500D01*
G75*
G02*
X86395000Y-39491500I225000J0D01*
G01*
G37*
%TD*%
%TO.C,C11*%
G36*
G01*
X87919000Y-41041500D02*
X88419000Y-41041500D01*
G75*
G02*
X88644000Y-41266500I0J-225000D01*
G01*
X88644000Y-41716500D01*
G75*
G02*
X88419000Y-41941500I-225000J0D01*
G01*
X87919000Y-41941500D01*
G75*
G02*
X87694000Y-41716500I0J225000D01*
G01*
X87694000Y-41266500D01*
G75*
G02*
X87919000Y-41041500I225000J0D01*
G01*
G37*
G36*
G01*
X87919000Y-39491500D02*
X88419000Y-39491500D01*
G75*
G02*
X88644000Y-39716500I0J-225000D01*
G01*
X88644000Y-40166500D01*
G75*
G02*
X88419000Y-40391500I-225000J0D01*
G01*
X87919000Y-40391500D01*
G75*
G02*
X87694000Y-40166500I0J225000D01*
G01*
X87694000Y-39716500D01*
G75*
G02*
X87919000Y-39491500I225000J0D01*
G01*
G37*
%TD*%
%TO.C,C4*%
G36*
G01*
X59217000Y-41041500D02*
X59717000Y-41041500D01*
G75*
G02*
X59942000Y-41266500I0J-225000D01*
G01*
X59942000Y-41716500D01*
G75*
G02*
X59717000Y-41941500I-225000J0D01*
G01*
X59217000Y-41941500D01*
G75*
G02*
X58992000Y-41716500I0J225000D01*
G01*
X58992000Y-41266500D01*
G75*
G02*
X59217000Y-41041500I225000J0D01*
G01*
G37*
G36*
G01*
X59217000Y-39491500D02*
X59717000Y-39491500D01*
G75*
G02*
X59942000Y-39716500I0J-225000D01*
G01*
X59942000Y-40166500D01*
G75*
G02*
X59717000Y-40391500I-225000J0D01*
G01*
X59217000Y-40391500D01*
G75*
G02*
X58992000Y-40166500I0J225000D01*
G01*
X58992000Y-39716500D01*
G75*
G02*
X59217000Y-39491500I225000J0D01*
G01*
G37*
%TD*%
%TO.C,C3*%
G36*
G01*
X60741000Y-41041500D02*
X61241000Y-41041500D01*
G75*
G02*
X61466000Y-41266500I0J-225000D01*
G01*
X61466000Y-41716500D01*
G75*
G02*
X61241000Y-41941500I-225000J0D01*
G01*
X60741000Y-41941500D01*
G75*
G02*
X60516000Y-41716500I0J225000D01*
G01*
X60516000Y-41266500D01*
G75*
G02*
X60741000Y-41041500I225000J0D01*
G01*
G37*
G36*
G01*
X60741000Y-39491500D02*
X61241000Y-39491500D01*
G75*
G02*
X61466000Y-39716500I0J-225000D01*
G01*
X61466000Y-40166500D01*
G75*
G02*
X61241000Y-40391500I-225000J0D01*
G01*
X60741000Y-40391500D01*
G75*
G02*
X60516000Y-40166500I0J225000D01*
G01*
X60516000Y-39716500D01*
G75*
G02*
X60741000Y-39491500I225000J0D01*
G01*
G37*
%TD*%
M02*
