%TF.GenerationSoftware,KiCad,Pcbnew,(5.1.10)-1*%
%TF.CreationDate,2022-01-17T19:26:09+07:00*%
%TF.ProjectId,Fan_controller_v3_pnlz1x2,46616e5f-636f-46e7-9472-6f6c6c65725f,rev?*%
%TF.SameCoordinates,Original*%
%TF.FileFunction,Soldermask,Bot*%
%TF.FilePolarity,Negative*%
%FSLAX46Y46*%
G04 Gerber Fmt 4.6, Leading zero omitted, Abs format (unit mm)*
G04 Created by KiCad (PCBNEW (5.1.10)-1) date 2022-01-17 19:26:09*
%MOMM*%
%LPD*%
G01*
G04 APERTURE LIST*
%ADD10C,2.000000*%
%ADD11R,0.600000X0.450000*%
%ADD12R,1.600000X1.600000*%
%ADD13C,1.600000*%
%ADD14R,1.750000X2.250000*%
%ADD15O,1.750000X2.250000*%
%ADD16O,1.700000X1.700000*%
%ADD17R,1.700000X1.700000*%
%ADD18R,0.800000X0.900000*%
%ADD19R,0.900000X0.800000*%
%ADD20R,1.000000X1.000000*%
%ADD21O,1.000000X1.000000*%
G04 APERTURE END LIST*
%TO.C,C3*%
G36*
G01*
X97241000Y-92491500D02*
X97741000Y-92491500D01*
G75*
G02*
X97966000Y-92716500I0J-225000D01*
G01*
X97966000Y-93166500D01*
G75*
G02*
X97741000Y-93391500I-225000J0D01*
G01*
X97241000Y-93391500D01*
G75*
G02*
X97016000Y-93166500I0J225000D01*
G01*
X97016000Y-92716500D01*
G75*
G02*
X97241000Y-92491500I225000J0D01*
G01*
G37*
G36*
G01*
X97241000Y-94041500D02*
X97741000Y-94041500D01*
G75*
G02*
X97966000Y-94266500I0J-225000D01*
G01*
X97966000Y-94716500D01*
G75*
G02*
X97741000Y-94941500I-225000J0D01*
G01*
X97241000Y-94941500D01*
G75*
G02*
X97016000Y-94716500I0J225000D01*
G01*
X97016000Y-94266500D01*
G75*
G02*
X97241000Y-94041500I225000J0D01*
G01*
G37*
%TD*%
%TO.C,C4*%
G36*
G01*
X95717000Y-92491500D02*
X96217000Y-92491500D01*
G75*
G02*
X96442000Y-92716500I0J-225000D01*
G01*
X96442000Y-93166500D01*
G75*
G02*
X96217000Y-93391500I-225000J0D01*
G01*
X95717000Y-93391500D01*
G75*
G02*
X95492000Y-93166500I0J225000D01*
G01*
X95492000Y-92716500D01*
G75*
G02*
X95717000Y-92491500I225000J0D01*
G01*
G37*
G36*
G01*
X95717000Y-94041500D02*
X96217000Y-94041500D01*
G75*
G02*
X96442000Y-94266500I0J-225000D01*
G01*
X96442000Y-94716500D01*
G75*
G02*
X96217000Y-94941500I-225000J0D01*
G01*
X95717000Y-94941500D01*
G75*
G02*
X95492000Y-94716500I0J225000D01*
G01*
X95492000Y-94266500D01*
G75*
G02*
X95717000Y-94041500I225000J0D01*
G01*
G37*
%TD*%
%TO.C,C11*%
G36*
G01*
X124419000Y-92491500D02*
X124919000Y-92491500D01*
G75*
G02*
X125144000Y-92716500I0J-225000D01*
G01*
X125144000Y-93166500D01*
G75*
G02*
X124919000Y-93391500I-225000J0D01*
G01*
X124419000Y-93391500D01*
G75*
G02*
X124194000Y-93166500I0J225000D01*
G01*
X124194000Y-92716500D01*
G75*
G02*
X124419000Y-92491500I225000J0D01*
G01*
G37*
G36*
G01*
X124419000Y-94041500D02*
X124919000Y-94041500D01*
G75*
G02*
X125144000Y-94266500I0J-225000D01*
G01*
X125144000Y-94716500D01*
G75*
G02*
X124919000Y-94941500I-225000J0D01*
G01*
X124419000Y-94941500D01*
G75*
G02*
X124194000Y-94716500I0J225000D01*
G01*
X124194000Y-94266500D01*
G75*
G02*
X124419000Y-94041500I225000J0D01*
G01*
G37*
%TD*%
%TO.C,C12*%
G36*
G01*
X122895000Y-92491500D02*
X123395000Y-92491500D01*
G75*
G02*
X123620000Y-92716500I0J-225000D01*
G01*
X123620000Y-93166500D01*
G75*
G02*
X123395000Y-93391500I-225000J0D01*
G01*
X122895000Y-93391500D01*
G75*
G02*
X122670000Y-93166500I0J225000D01*
G01*
X122670000Y-92716500D01*
G75*
G02*
X122895000Y-92491500I225000J0D01*
G01*
G37*
G36*
G01*
X122895000Y-94041500D02*
X123395000Y-94041500D01*
G75*
G02*
X123620000Y-94266500I0J-225000D01*
G01*
X123620000Y-94716500D01*
G75*
G02*
X123395000Y-94941500I-225000J0D01*
G01*
X122895000Y-94941500D01*
G75*
G02*
X122670000Y-94716500I0J225000D01*
G01*
X122670000Y-94266500D01*
G75*
G02*
X122895000Y-94041500I225000J0D01*
G01*
G37*
%TD*%
%TO.C,C1*%
G36*
G01*
X85943001Y-111783000D02*
X83892999Y-111783000D01*
G75*
G02*
X83643000Y-111533001I0J249999D01*
G01*
X83643000Y-109782999D01*
G75*
G02*
X83892999Y-109533000I249999J0D01*
G01*
X85943001Y-109533000D01*
G75*
G02*
X86193000Y-109782999I0J-249999D01*
G01*
X86193000Y-111533001D01*
G75*
G02*
X85943001Y-111783000I-249999J0D01*
G01*
G37*
G36*
G01*
X85943001Y-105383000D02*
X83892999Y-105383000D01*
G75*
G02*
X83643000Y-105133001I0J249999D01*
G01*
X83643000Y-103382999D01*
G75*
G02*
X83892999Y-103133000I249999J0D01*
G01*
X85943001Y-103133000D01*
G75*
G02*
X86193000Y-103382999I0J-249999D01*
G01*
X86193000Y-105133001D01*
G75*
G02*
X85943001Y-105383000I-249999J0D01*
G01*
G37*
%TD*%
%TO.C,C2*%
G36*
G01*
X83566000Y-113067000D02*
X83566000Y-112567000D01*
G75*
G02*
X83791000Y-112342000I225000J0D01*
G01*
X84241000Y-112342000D01*
G75*
G02*
X84466000Y-112567000I0J-225000D01*
G01*
X84466000Y-113067000D01*
G75*
G02*
X84241000Y-113292000I-225000J0D01*
G01*
X83791000Y-113292000D01*
G75*
G02*
X83566000Y-113067000I0J225000D01*
G01*
G37*
G36*
G01*
X85116000Y-113067000D02*
X85116000Y-112567000D01*
G75*
G02*
X85341000Y-112342000I225000J0D01*
G01*
X85791000Y-112342000D01*
G75*
G02*
X86016000Y-112567000I0J-225000D01*
G01*
X86016000Y-113067000D01*
G75*
G02*
X85791000Y-113292000I-225000J0D01*
G01*
X85341000Y-113292000D01*
G75*
G02*
X85116000Y-113067000I0J225000D01*
G01*
G37*
%TD*%
%TO.C,C6*%
G36*
G01*
X88646000Y-113067000D02*
X88646000Y-112567000D01*
G75*
G02*
X88871000Y-112342000I225000J0D01*
G01*
X89321000Y-112342000D01*
G75*
G02*
X89546000Y-112567000I0J-225000D01*
G01*
X89546000Y-113067000D01*
G75*
G02*
X89321000Y-113292000I-225000J0D01*
G01*
X88871000Y-113292000D01*
G75*
G02*
X88646000Y-113067000I0J225000D01*
G01*
G37*
G36*
G01*
X90196000Y-113067000D02*
X90196000Y-112567000D01*
G75*
G02*
X90421000Y-112342000I225000J0D01*
G01*
X90871000Y-112342000D01*
G75*
G02*
X91096000Y-112567000I0J-225000D01*
G01*
X91096000Y-113067000D01*
G75*
G02*
X90871000Y-113292000I-225000J0D01*
G01*
X90421000Y-113292000D01*
G75*
G02*
X90196000Y-113067000I0J225000D01*
G01*
G37*
%TD*%
D10*
%TO.C,C7*%
X129241000Y-95545000D03*
X129241000Y-113045000D03*
%TD*%
%TO.C,C9*%
G36*
G01*
X90896001Y-111783000D02*
X88845999Y-111783000D01*
G75*
G02*
X88596000Y-111533001I0J249999D01*
G01*
X88596000Y-109782999D01*
G75*
G02*
X88845999Y-109533000I249999J0D01*
G01*
X90896001Y-109533000D01*
G75*
G02*
X91146000Y-109782999I0J-249999D01*
G01*
X91146000Y-111533001D01*
G75*
G02*
X90896001Y-111783000I-249999J0D01*
G01*
G37*
G36*
G01*
X90896001Y-105383000D02*
X88845999Y-105383000D01*
G75*
G02*
X88596000Y-105133001I0J249999D01*
G01*
X88596000Y-103382999D01*
G75*
G02*
X88845999Y-103133000I249999J0D01*
G01*
X90896001Y-103133000D01*
G75*
G02*
X91146000Y-103382999I0J-249999D01*
G01*
X91146000Y-105133001D01*
G75*
G02*
X90896001Y-105383000I-249999J0D01*
G01*
G37*
%TD*%
D11*
%TO.C,D1*%
X97999000Y-96942000D03*
X100099000Y-96942000D03*
%TD*%
%TO.C,D2*%
X97999000Y-99482000D03*
X100099000Y-99482000D03*
%TD*%
%TO.C,D3*%
X118573000Y-96942000D03*
X120673000Y-96942000D03*
%TD*%
%TO.C,D4*%
X118573000Y-99482000D03*
X120673000Y-99482000D03*
%TD*%
D12*
%TO.C,K1*%
X95713000Y-96942000D03*
D13*
X95713000Y-99482000D03*
X95713000Y-104562000D03*
X95713000Y-109642000D03*
X95713000Y-114722000D03*
X103333000Y-114722000D03*
X103333000Y-109642000D03*
X103333000Y-104562000D03*
X103333000Y-99482000D03*
X103333000Y-96942000D03*
%TD*%
D14*
%TO.C,PS1*%
X83521000Y-114849000D03*
D15*
X86061000Y-114849000D03*
X88601000Y-114849000D03*
X91141000Y-114849000D03*
%TD*%
%TO.C,R5*%
G36*
G01*
X101065000Y-92603000D02*
X101065000Y-93153000D01*
G75*
G02*
X100865000Y-93353000I-200000J0D01*
G01*
X100465000Y-93353000D01*
G75*
G02*
X100265000Y-93153000I0J200000D01*
G01*
X100265000Y-92603000D01*
G75*
G02*
X100465000Y-92403000I200000J0D01*
G01*
X100865000Y-92403000D01*
G75*
G02*
X101065000Y-92603000I0J-200000D01*
G01*
G37*
G36*
G01*
X99415000Y-92603000D02*
X99415000Y-93153000D01*
G75*
G02*
X99215000Y-93353000I-200000J0D01*
G01*
X98815000Y-93353000D01*
G75*
G02*
X98615000Y-93153000I0J200000D01*
G01*
X98615000Y-92603000D01*
G75*
G02*
X98815000Y-92403000I200000J0D01*
G01*
X99215000Y-92403000D01*
G75*
G02*
X99415000Y-92603000I0J-200000D01*
G01*
G37*
%TD*%
%TO.C,R17*%
G36*
G01*
X119571000Y-93153000D02*
X119571000Y-92603000D01*
G75*
G02*
X119771000Y-92403000I200000J0D01*
G01*
X120171000Y-92403000D01*
G75*
G02*
X120371000Y-92603000I0J-200000D01*
G01*
X120371000Y-93153000D01*
G75*
G02*
X120171000Y-93353000I-200000J0D01*
G01*
X119771000Y-93353000D01*
G75*
G02*
X119571000Y-93153000I0J200000D01*
G01*
G37*
G36*
G01*
X121221000Y-93153000D02*
X121221000Y-92603000D01*
G75*
G02*
X121421000Y-92403000I200000J0D01*
G01*
X121821000Y-92403000D01*
G75*
G02*
X122021000Y-92603000I0J-200000D01*
G01*
X122021000Y-93153000D01*
G75*
G02*
X121821000Y-93353000I-200000J0D01*
G01*
X121421000Y-93353000D01*
G75*
G02*
X121221000Y-93153000I0J200000D01*
G01*
G37*
%TD*%
D10*
%TO.C,TP1*%
X87140500Y-108118000D03*
%TD*%
D16*
%TO.C,J1*%
X112350000Y-114468000D03*
X109810000Y-114468000D03*
D17*
X107270000Y-114468000D03*
%TD*%
D13*
%TO.C,K2*%
X123907000Y-96942000D03*
X123907000Y-99482000D03*
X123907000Y-104562000D03*
X123907000Y-109642000D03*
X123907000Y-114722000D03*
X116287000Y-114722000D03*
X116287000Y-109642000D03*
X116287000Y-104562000D03*
X116287000Y-99482000D03*
D12*
X116287000Y-96942000D03*
%TD*%
D18*
%TO.C,Q1*%
X102195000Y-92560500D03*
X104095000Y-92560500D03*
X103145000Y-94560500D03*
%TD*%
D19*
%TO.C,Q5*%
X116541000Y-94460500D03*
X116541000Y-92560500D03*
X118541000Y-93510500D03*
%TD*%
D10*
%TO.C,C5*%
X98613000Y-112182000D03*
X121113000Y-112182000D03*
%TD*%
D20*
%TO.C,J2*%
X84791000Y-97450000D03*
D21*
X84791000Y-96180000D03*
X83521000Y-97450000D03*
X83521000Y-96180000D03*
X82251000Y-97450000D03*
X82251000Y-96180000D03*
%TD*%
%TO.C,R1*%
G36*
G01*
X105219000Y-94296000D02*
X105219000Y-93746000D01*
G75*
G02*
X105419000Y-93546000I200000J0D01*
G01*
X105819000Y-93546000D01*
G75*
G02*
X106019000Y-93746000I0J-200000D01*
G01*
X106019000Y-94296000D01*
G75*
G02*
X105819000Y-94496000I-200000J0D01*
G01*
X105419000Y-94496000D01*
G75*
G02*
X105219000Y-94296000I0J200000D01*
G01*
G37*
G36*
G01*
X106869000Y-94296000D02*
X106869000Y-93746000D01*
G75*
G02*
X107069000Y-93546000I200000J0D01*
G01*
X107469000Y-93546000D01*
G75*
G02*
X107669000Y-93746000I0J-200000D01*
G01*
X107669000Y-94296000D01*
G75*
G02*
X107469000Y-94496000I-200000J0D01*
G01*
X107069000Y-94496000D01*
G75*
G02*
X106869000Y-94296000I0J200000D01*
G01*
G37*
%TD*%
%TO.C,R3*%
G36*
G01*
X107669000Y-92222000D02*
X107669000Y-92772000D01*
G75*
G02*
X107469000Y-92972000I-200000J0D01*
G01*
X107069000Y-92972000D01*
G75*
G02*
X106869000Y-92772000I0J200000D01*
G01*
X106869000Y-92222000D01*
G75*
G02*
X107069000Y-92022000I200000J0D01*
G01*
X107469000Y-92022000D01*
G75*
G02*
X107669000Y-92222000I0J-200000D01*
G01*
G37*
G36*
G01*
X106019000Y-92222000D02*
X106019000Y-92772000D01*
G75*
G02*
X105819000Y-92972000I-200000J0D01*
G01*
X105419000Y-92972000D01*
G75*
G02*
X105219000Y-92772000I0J200000D01*
G01*
X105219000Y-92222000D01*
G75*
G02*
X105419000Y-92022000I200000J0D01*
G01*
X105819000Y-92022000D01*
G75*
G02*
X106019000Y-92222000I0J-200000D01*
G01*
G37*
%TD*%
%TO.C,R13*%
G36*
G01*
X112966000Y-94613500D02*
X112966000Y-94063500D01*
G75*
G02*
X113166000Y-93863500I200000J0D01*
G01*
X113566000Y-93863500D01*
G75*
G02*
X113766000Y-94063500I0J-200000D01*
G01*
X113766000Y-94613500D01*
G75*
G02*
X113566000Y-94813500I-200000J0D01*
G01*
X113166000Y-94813500D01*
G75*
G02*
X112966000Y-94613500I0J200000D01*
G01*
G37*
G36*
G01*
X114616000Y-94613500D02*
X114616000Y-94063500D01*
G75*
G02*
X114816000Y-93863500I200000J0D01*
G01*
X115216000Y-93863500D01*
G75*
G02*
X115416000Y-94063500I0J-200000D01*
G01*
X115416000Y-94613500D01*
G75*
G02*
X115216000Y-94813500I-200000J0D01*
G01*
X114816000Y-94813500D01*
G75*
G02*
X114616000Y-94613500I0J200000D01*
G01*
G37*
%TD*%
%TO.C,R15*%
G36*
G01*
X112967000Y-92772000D02*
X112967000Y-92222000D01*
G75*
G02*
X113167000Y-92022000I200000J0D01*
G01*
X113567000Y-92022000D01*
G75*
G02*
X113767000Y-92222000I0J-200000D01*
G01*
X113767000Y-92772000D01*
G75*
G02*
X113567000Y-92972000I-200000J0D01*
G01*
X113167000Y-92972000D01*
G75*
G02*
X112967000Y-92772000I0J200000D01*
G01*
G37*
G36*
G01*
X114617000Y-92772000D02*
X114617000Y-92222000D01*
G75*
G02*
X114817000Y-92022000I200000J0D01*
G01*
X115217000Y-92022000D01*
G75*
G02*
X115417000Y-92222000I0J-200000D01*
G01*
X115417000Y-92772000D01*
G75*
G02*
X115217000Y-92972000I-200000J0D01*
G01*
X114817000Y-92972000D01*
G75*
G02*
X114617000Y-92772000I0J200000D01*
G01*
G37*
%TD*%
%TO.C,J2*%
X82251000Y-71180000D03*
X82251000Y-72450000D03*
X83521000Y-71180000D03*
X83521000Y-72450000D03*
X84791000Y-71180000D03*
D20*
X84791000Y-72450000D03*
%TD*%
D10*
%TO.C,C5*%
X121113000Y-87182000D03*
X98613000Y-87182000D03*
%TD*%
%TO.C,R15*%
G36*
G01*
X114617000Y-67772000D02*
X114617000Y-67222000D01*
G75*
G02*
X114817000Y-67022000I200000J0D01*
G01*
X115217000Y-67022000D01*
G75*
G02*
X115417000Y-67222000I0J-200000D01*
G01*
X115417000Y-67772000D01*
G75*
G02*
X115217000Y-67972000I-200000J0D01*
G01*
X114817000Y-67972000D01*
G75*
G02*
X114617000Y-67772000I0J200000D01*
G01*
G37*
G36*
G01*
X112967000Y-67772000D02*
X112967000Y-67222000D01*
G75*
G02*
X113167000Y-67022000I200000J0D01*
G01*
X113567000Y-67022000D01*
G75*
G02*
X113767000Y-67222000I0J-200000D01*
G01*
X113767000Y-67772000D01*
G75*
G02*
X113567000Y-67972000I-200000J0D01*
G01*
X113167000Y-67972000D01*
G75*
G02*
X112967000Y-67772000I0J200000D01*
G01*
G37*
%TD*%
%TO.C,R13*%
G36*
G01*
X114616000Y-69613500D02*
X114616000Y-69063500D01*
G75*
G02*
X114816000Y-68863500I200000J0D01*
G01*
X115216000Y-68863500D01*
G75*
G02*
X115416000Y-69063500I0J-200000D01*
G01*
X115416000Y-69613500D01*
G75*
G02*
X115216000Y-69813500I-200000J0D01*
G01*
X114816000Y-69813500D01*
G75*
G02*
X114616000Y-69613500I0J200000D01*
G01*
G37*
G36*
G01*
X112966000Y-69613500D02*
X112966000Y-69063500D01*
G75*
G02*
X113166000Y-68863500I200000J0D01*
G01*
X113566000Y-68863500D01*
G75*
G02*
X113766000Y-69063500I0J-200000D01*
G01*
X113766000Y-69613500D01*
G75*
G02*
X113566000Y-69813500I-200000J0D01*
G01*
X113166000Y-69813500D01*
G75*
G02*
X112966000Y-69613500I0J200000D01*
G01*
G37*
%TD*%
%TO.C,R3*%
G36*
G01*
X106019000Y-67222000D02*
X106019000Y-67772000D01*
G75*
G02*
X105819000Y-67972000I-200000J0D01*
G01*
X105419000Y-67972000D01*
G75*
G02*
X105219000Y-67772000I0J200000D01*
G01*
X105219000Y-67222000D01*
G75*
G02*
X105419000Y-67022000I200000J0D01*
G01*
X105819000Y-67022000D01*
G75*
G02*
X106019000Y-67222000I0J-200000D01*
G01*
G37*
G36*
G01*
X107669000Y-67222000D02*
X107669000Y-67772000D01*
G75*
G02*
X107469000Y-67972000I-200000J0D01*
G01*
X107069000Y-67972000D01*
G75*
G02*
X106869000Y-67772000I0J200000D01*
G01*
X106869000Y-67222000D01*
G75*
G02*
X107069000Y-67022000I200000J0D01*
G01*
X107469000Y-67022000D01*
G75*
G02*
X107669000Y-67222000I0J-200000D01*
G01*
G37*
%TD*%
%TO.C,R1*%
G36*
G01*
X106869000Y-69296000D02*
X106869000Y-68746000D01*
G75*
G02*
X107069000Y-68546000I200000J0D01*
G01*
X107469000Y-68546000D01*
G75*
G02*
X107669000Y-68746000I0J-200000D01*
G01*
X107669000Y-69296000D01*
G75*
G02*
X107469000Y-69496000I-200000J0D01*
G01*
X107069000Y-69496000D01*
G75*
G02*
X106869000Y-69296000I0J200000D01*
G01*
G37*
G36*
G01*
X105219000Y-69296000D02*
X105219000Y-68746000D01*
G75*
G02*
X105419000Y-68546000I200000J0D01*
G01*
X105819000Y-68546000D01*
G75*
G02*
X106019000Y-68746000I0J-200000D01*
G01*
X106019000Y-69296000D01*
G75*
G02*
X105819000Y-69496000I-200000J0D01*
G01*
X105419000Y-69496000D01*
G75*
G02*
X105219000Y-69296000I0J200000D01*
G01*
G37*
%TD*%
D19*
%TO.C,Q5*%
X118541000Y-68510500D03*
X116541000Y-67560500D03*
X116541000Y-69460500D03*
%TD*%
D18*
%TO.C,Q1*%
X103145000Y-69560500D03*
X104095000Y-67560500D03*
X102195000Y-67560500D03*
%TD*%
D12*
%TO.C,K2*%
X116287000Y-71942000D03*
D13*
X116287000Y-74482000D03*
X116287000Y-79562000D03*
X116287000Y-84642000D03*
X116287000Y-89722000D03*
X123907000Y-89722000D03*
X123907000Y-84642000D03*
X123907000Y-79562000D03*
X123907000Y-74482000D03*
X123907000Y-71942000D03*
%TD*%
D17*
%TO.C,J1*%
X107270000Y-89468000D03*
D16*
X109810000Y-89468000D03*
X112350000Y-89468000D03*
%TD*%
D10*
%TO.C,TP1*%
X87140500Y-83118000D03*
%TD*%
%TO.C,R17*%
G36*
G01*
X121221000Y-68153000D02*
X121221000Y-67603000D01*
G75*
G02*
X121421000Y-67403000I200000J0D01*
G01*
X121821000Y-67403000D01*
G75*
G02*
X122021000Y-67603000I0J-200000D01*
G01*
X122021000Y-68153000D01*
G75*
G02*
X121821000Y-68353000I-200000J0D01*
G01*
X121421000Y-68353000D01*
G75*
G02*
X121221000Y-68153000I0J200000D01*
G01*
G37*
G36*
G01*
X119571000Y-68153000D02*
X119571000Y-67603000D01*
G75*
G02*
X119771000Y-67403000I200000J0D01*
G01*
X120171000Y-67403000D01*
G75*
G02*
X120371000Y-67603000I0J-200000D01*
G01*
X120371000Y-68153000D01*
G75*
G02*
X120171000Y-68353000I-200000J0D01*
G01*
X119771000Y-68353000D01*
G75*
G02*
X119571000Y-68153000I0J200000D01*
G01*
G37*
%TD*%
%TO.C,R5*%
G36*
G01*
X99415000Y-67603000D02*
X99415000Y-68153000D01*
G75*
G02*
X99215000Y-68353000I-200000J0D01*
G01*
X98815000Y-68353000D01*
G75*
G02*
X98615000Y-68153000I0J200000D01*
G01*
X98615000Y-67603000D01*
G75*
G02*
X98815000Y-67403000I200000J0D01*
G01*
X99215000Y-67403000D01*
G75*
G02*
X99415000Y-67603000I0J-200000D01*
G01*
G37*
G36*
G01*
X101065000Y-67603000D02*
X101065000Y-68153000D01*
G75*
G02*
X100865000Y-68353000I-200000J0D01*
G01*
X100465000Y-68353000D01*
G75*
G02*
X100265000Y-68153000I0J200000D01*
G01*
X100265000Y-67603000D01*
G75*
G02*
X100465000Y-67403000I200000J0D01*
G01*
X100865000Y-67403000D01*
G75*
G02*
X101065000Y-67603000I0J-200000D01*
G01*
G37*
%TD*%
D15*
%TO.C,PS1*%
X91141000Y-89849000D03*
X88601000Y-89849000D03*
X86061000Y-89849000D03*
D14*
X83521000Y-89849000D03*
%TD*%
D13*
%TO.C,K1*%
X103333000Y-71942000D03*
X103333000Y-74482000D03*
X103333000Y-79562000D03*
X103333000Y-84642000D03*
X103333000Y-89722000D03*
X95713000Y-89722000D03*
X95713000Y-84642000D03*
X95713000Y-79562000D03*
X95713000Y-74482000D03*
D12*
X95713000Y-71942000D03*
%TD*%
D11*
%TO.C,D4*%
X120673000Y-74482000D03*
X118573000Y-74482000D03*
%TD*%
%TO.C,D3*%
X120673000Y-71942000D03*
X118573000Y-71942000D03*
%TD*%
%TO.C,D2*%
X100099000Y-74482000D03*
X97999000Y-74482000D03*
%TD*%
%TO.C,D1*%
X100099000Y-71942000D03*
X97999000Y-71942000D03*
%TD*%
%TO.C,C9*%
G36*
G01*
X90896001Y-80383000D02*
X88845999Y-80383000D01*
G75*
G02*
X88596000Y-80133001I0J249999D01*
G01*
X88596000Y-78382999D01*
G75*
G02*
X88845999Y-78133000I249999J0D01*
G01*
X90896001Y-78133000D01*
G75*
G02*
X91146000Y-78382999I0J-249999D01*
G01*
X91146000Y-80133001D01*
G75*
G02*
X90896001Y-80383000I-249999J0D01*
G01*
G37*
G36*
G01*
X90896001Y-86783000D02*
X88845999Y-86783000D01*
G75*
G02*
X88596000Y-86533001I0J249999D01*
G01*
X88596000Y-84782999D01*
G75*
G02*
X88845999Y-84533000I249999J0D01*
G01*
X90896001Y-84533000D01*
G75*
G02*
X91146000Y-84782999I0J-249999D01*
G01*
X91146000Y-86533001D01*
G75*
G02*
X90896001Y-86783000I-249999J0D01*
G01*
G37*
%TD*%
D10*
%TO.C,C7*%
X129241000Y-88045000D03*
X129241000Y-70545000D03*
%TD*%
%TO.C,C6*%
G36*
G01*
X90196000Y-88067000D02*
X90196000Y-87567000D01*
G75*
G02*
X90421000Y-87342000I225000J0D01*
G01*
X90871000Y-87342000D01*
G75*
G02*
X91096000Y-87567000I0J-225000D01*
G01*
X91096000Y-88067000D01*
G75*
G02*
X90871000Y-88292000I-225000J0D01*
G01*
X90421000Y-88292000D01*
G75*
G02*
X90196000Y-88067000I0J225000D01*
G01*
G37*
G36*
G01*
X88646000Y-88067000D02*
X88646000Y-87567000D01*
G75*
G02*
X88871000Y-87342000I225000J0D01*
G01*
X89321000Y-87342000D01*
G75*
G02*
X89546000Y-87567000I0J-225000D01*
G01*
X89546000Y-88067000D01*
G75*
G02*
X89321000Y-88292000I-225000J0D01*
G01*
X88871000Y-88292000D01*
G75*
G02*
X88646000Y-88067000I0J225000D01*
G01*
G37*
%TD*%
%TO.C,C2*%
G36*
G01*
X85116000Y-88067000D02*
X85116000Y-87567000D01*
G75*
G02*
X85341000Y-87342000I225000J0D01*
G01*
X85791000Y-87342000D01*
G75*
G02*
X86016000Y-87567000I0J-225000D01*
G01*
X86016000Y-88067000D01*
G75*
G02*
X85791000Y-88292000I-225000J0D01*
G01*
X85341000Y-88292000D01*
G75*
G02*
X85116000Y-88067000I0J225000D01*
G01*
G37*
G36*
G01*
X83566000Y-88067000D02*
X83566000Y-87567000D01*
G75*
G02*
X83791000Y-87342000I225000J0D01*
G01*
X84241000Y-87342000D01*
G75*
G02*
X84466000Y-87567000I0J-225000D01*
G01*
X84466000Y-88067000D01*
G75*
G02*
X84241000Y-88292000I-225000J0D01*
G01*
X83791000Y-88292000D01*
G75*
G02*
X83566000Y-88067000I0J225000D01*
G01*
G37*
%TD*%
%TO.C,C1*%
G36*
G01*
X85943001Y-80383000D02*
X83892999Y-80383000D01*
G75*
G02*
X83643000Y-80133001I0J249999D01*
G01*
X83643000Y-78382999D01*
G75*
G02*
X83892999Y-78133000I249999J0D01*
G01*
X85943001Y-78133000D01*
G75*
G02*
X86193000Y-78382999I0J-249999D01*
G01*
X86193000Y-80133001D01*
G75*
G02*
X85943001Y-80383000I-249999J0D01*
G01*
G37*
G36*
G01*
X85943001Y-86783000D02*
X83892999Y-86783000D01*
G75*
G02*
X83643000Y-86533001I0J249999D01*
G01*
X83643000Y-84782999D01*
G75*
G02*
X83892999Y-84533000I249999J0D01*
G01*
X85943001Y-84533000D01*
G75*
G02*
X86193000Y-84782999I0J-249999D01*
G01*
X86193000Y-86533001D01*
G75*
G02*
X85943001Y-86783000I-249999J0D01*
G01*
G37*
%TD*%
%TO.C,C12*%
G36*
G01*
X122895000Y-69041500D02*
X123395000Y-69041500D01*
G75*
G02*
X123620000Y-69266500I0J-225000D01*
G01*
X123620000Y-69716500D01*
G75*
G02*
X123395000Y-69941500I-225000J0D01*
G01*
X122895000Y-69941500D01*
G75*
G02*
X122670000Y-69716500I0J225000D01*
G01*
X122670000Y-69266500D01*
G75*
G02*
X122895000Y-69041500I225000J0D01*
G01*
G37*
G36*
G01*
X122895000Y-67491500D02*
X123395000Y-67491500D01*
G75*
G02*
X123620000Y-67716500I0J-225000D01*
G01*
X123620000Y-68166500D01*
G75*
G02*
X123395000Y-68391500I-225000J0D01*
G01*
X122895000Y-68391500D01*
G75*
G02*
X122670000Y-68166500I0J225000D01*
G01*
X122670000Y-67716500D01*
G75*
G02*
X122895000Y-67491500I225000J0D01*
G01*
G37*
%TD*%
%TO.C,C11*%
G36*
G01*
X124419000Y-69041500D02*
X124919000Y-69041500D01*
G75*
G02*
X125144000Y-69266500I0J-225000D01*
G01*
X125144000Y-69716500D01*
G75*
G02*
X124919000Y-69941500I-225000J0D01*
G01*
X124419000Y-69941500D01*
G75*
G02*
X124194000Y-69716500I0J225000D01*
G01*
X124194000Y-69266500D01*
G75*
G02*
X124419000Y-69041500I225000J0D01*
G01*
G37*
G36*
G01*
X124419000Y-67491500D02*
X124919000Y-67491500D01*
G75*
G02*
X125144000Y-67716500I0J-225000D01*
G01*
X125144000Y-68166500D01*
G75*
G02*
X124919000Y-68391500I-225000J0D01*
G01*
X124419000Y-68391500D01*
G75*
G02*
X124194000Y-68166500I0J225000D01*
G01*
X124194000Y-67716500D01*
G75*
G02*
X124419000Y-67491500I225000J0D01*
G01*
G37*
%TD*%
%TO.C,C4*%
G36*
G01*
X95717000Y-69041500D02*
X96217000Y-69041500D01*
G75*
G02*
X96442000Y-69266500I0J-225000D01*
G01*
X96442000Y-69716500D01*
G75*
G02*
X96217000Y-69941500I-225000J0D01*
G01*
X95717000Y-69941500D01*
G75*
G02*
X95492000Y-69716500I0J225000D01*
G01*
X95492000Y-69266500D01*
G75*
G02*
X95717000Y-69041500I225000J0D01*
G01*
G37*
G36*
G01*
X95717000Y-67491500D02*
X96217000Y-67491500D01*
G75*
G02*
X96442000Y-67716500I0J-225000D01*
G01*
X96442000Y-68166500D01*
G75*
G02*
X96217000Y-68391500I-225000J0D01*
G01*
X95717000Y-68391500D01*
G75*
G02*
X95492000Y-68166500I0J225000D01*
G01*
X95492000Y-67716500D01*
G75*
G02*
X95717000Y-67491500I225000J0D01*
G01*
G37*
%TD*%
%TO.C,C3*%
G36*
G01*
X97241000Y-69041500D02*
X97741000Y-69041500D01*
G75*
G02*
X97966000Y-69266500I0J-225000D01*
G01*
X97966000Y-69716500D01*
G75*
G02*
X97741000Y-69941500I-225000J0D01*
G01*
X97241000Y-69941500D01*
G75*
G02*
X97016000Y-69716500I0J225000D01*
G01*
X97016000Y-69266500D01*
G75*
G02*
X97241000Y-69041500I225000J0D01*
G01*
G37*
G36*
G01*
X97241000Y-67491500D02*
X97741000Y-67491500D01*
G75*
G02*
X97966000Y-67716500I0J-225000D01*
G01*
X97966000Y-68166500D01*
G75*
G02*
X97741000Y-68391500I-225000J0D01*
G01*
X97241000Y-68391500D01*
G75*
G02*
X97016000Y-68166500I0J225000D01*
G01*
X97016000Y-67716500D01*
G75*
G02*
X97241000Y-67491500I225000J0D01*
G01*
G37*
%TD*%
M02*
