%TF.GenerationSoftware,KiCad,Pcbnew,(5.1.10)-1*%
%TF.CreationDate,2022-01-18T18:11:06+07:00*%
%TF.ProjectId,Fan_controller_v3_pnlz1x2,46616e5f-636f-46e7-9472-6f6c6c65725f,rev?*%
%TF.SameCoordinates,Original*%
%TF.FileFunction,Copper,L1,Top*%
%TF.FilePolarity,Positive*%
%FSLAX46Y46*%
G04 Gerber Fmt 4.6, Leading zero omitted, Abs format (unit mm)*
G04 Created by KiCad (PCBNEW (5.1.10)-1) date 2022-01-18 18:11:06*
%MOMM*%
%LPD*%
G01*
G04 APERTURE LIST*
%TA.AperFunction,ComponentPad*%
%ADD10C,2.000000*%
%TD*%
%TA.AperFunction,SMDPad,CuDef*%
%ADD11C,0.020000*%
%TD*%
%TA.AperFunction,ComponentPad*%
%ADD12R,1.600000X1.600000*%
%TD*%
%TA.AperFunction,ComponentPad*%
%ADD13C,1.600000*%
%TD*%
%TA.AperFunction,ComponentPad*%
%ADD14R,1.750000X2.250000*%
%TD*%
%TA.AperFunction,ComponentPad*%
%ADD15O,1.750000X2.250000*%
%TD*%
%TA.AperFunction,SMDPad,CuDef*%
%ADD16R,0.900000X0.800000*%
%TD*%
%TA.AperFunction,SMDPad,CuDef*%
%ADD17R,0.800000X0.900000*%
%TD*%
%TA.AperFunction,ComponentPad*%
%ADD18R,1.000000X1.000000*%
%TD*%
%TA.AperFunction,ComponentPad*%
%ADD19O,1.000000X1.000000*%
%TD*%
%TA.AperFunction,SMDPad,CuDef*%
%ADD20R,1.100000X0.400000*%
%TD*%
%TA.AperFunction,ComponentPad*%
%ADD21O,1.700000X1.700000*%
%TD*%
%TA.AperFunction,ComponentPad*%
%ADD22R,1.700000X1.700000*%
%TD*%
%TA.AperFunction,ViaPad*%
%ADD23C,0.800000*%
%TD*%
%TA.AperFunction,ViaPad*%
%ADD24C,1.200000*%
%TD*%
%TA.AperFunction,Conductor*%
%ADD25C,0.500000*%
%TD*%
%TA.AperFunction,Conductor*%
%ADD26C,0.800000*%
%TD*%
%TA.AperFunction,Conductor*%
%ADD27C,0.300000*%
%TD*%
%TA.AperFunction,Conductor*%
%ADD28C,1.000000*%
%TD*%
%TA.AperFunction,Conductor*%
%ADD29C,0.600000*%
%TD*%
%TA.AperFunction,Conductor*%
%ADD30C,2.000000*%
%TD*%
%TA.AperFunction,Conductor*%
%ADD31C,0.400000*%
%TD*%
G04 APERTURE END LIST*
%TO.P,C13,1*%
%TO.N,+5VP*%
%TA.AperFunction,SMDPad,CuDef*%
G36*
G01*
X75945000Y-67549000D02*
X75945000Y-68049000D01*
G75*
G02*
X75720000Y-68274000I-225000J0D01*
G01*
X75270000Y-68274000D01*
G75*
G02*
X75045000Y-68049000I0J225000D01*
G01*
X75045000Y-67549000D01*
G75*
G02*
X75270000Y-67324000I225000J0D01*
G01*
X75720000Y-67324000D01*
G75*
G02*
X75945000Y-67549000I0J-225000D01*
G01*
G37*
%TD.AperFunction*%
%TO.P,C13,2*%
%TO.N,GND2*%
%TA.AperFunction,SMDPad,CuDef*%
G36*
G01*
X74395000Y-67549000D02*
X74395000Y-68049000D01*
G75*
G02*
X74170000Y-68274000I-225000J0D01*
G01*
X73720000Y-68274000D01*
G75*
G02*
X73495000Y-68049000I0J225000D01*
G01*
X73495000Y-67549000D01*
G75*
G02*
X73720000Y-67324000I225000J0D01*
G01*
X74170000Y-67324000D01*
G75*
G02*
X74395000Y-67549000I0J-225000D01*
G01*
G37*
%TD.AperFunction*%
%TD*%
D10*
%TO.P,C7,1*%
%TO.N,Net-(C7-Pad1)*%
X92741000Y-67545000D03*
%TO.P,C7,2*%
%TO.N,Net-(C5-Pad2)*%
X92741000Y-85045000D03*
%TD*%
%TA.AperFunction,SMDPad,CuDef*%
D11*
%TO.P,JP1,2*%
%TO.N,+5VP*%
G36*
X54121000Y-78729000D02*
G01*
X54121000Y-79879000D01*
X53371000Y-79379000D01*
X52621000Y-79879000D01*
X52621000Y-78729000D01*
X54121000Y-78729000D01*
G37*
%TD.AperFunction*%
%TA.AperFunction,SMDPad,CuDef*%
%TO.P,JP1,1*%
%TO.N,Net-(C6-Pad2)*%
G36*
X53371000Y-79679000D02*
G01*
X54121000Y-80179000D01*
X54121000Y-81179000D01*
X52621000Y-81179000D01*
X52621000Y-80179000D01*
X53371000Y-79679000D01*
G37*
%TD.AperFunction*%
%TD*%
D12*
%TO.P,K1,1*%
%TO.N,+5VP*%
X59213000Y-68942000D03*
D13*
%TO.P,K1,2*%
X59213000Y-71482000D03*
%TO.P,K1,4*%
%TO.N,Net-(C5-Pad1)*%
X59213000Y-76562000D03*
%TO.P,K1,6*%
%TO.N,Net-(C7-Pad1)*%
X59213000Y-81642000D03*
%TO.P,K1,8*%
%TO.N,Net-(K1-Pad8)*%
X59213000Y-86722000D03*
%TO.P,K1,9*%
X66833000Y-86722000D03*
%TO.P,K1,11*%
%TO.N,Net-(C5-Pad2)*%
X66833000Y-81642000D03*
%TO.P,K1,13*%
%TO.N,Net-(J1-Pad1)*%
X66833000Y-76562000D03*
%TO.P,K1,15*%
%TO.N,Net-(C4-Pad2)*%
X66833000Y-71482000D03*
%TO.P,K1,16*%
%TO.N,Net-(C3-Pad2)*%
X66833000Y-68942000D03*
%TD*%
D14*
%TO.P,PS1,1*%
%TO.N,GND1*%
X47021000Y-86849000D03*
D15*
%TO.P,PS1,2*%
%TO.N,+5P*%
X49561000Y-86849000D03*
%TO.P,PS1,3*%
%TO.N,GND2*%
X52101000Y-86849000D03*
%TO.P,PS1,4*%
%TO.N,Net-(C6-Pad2)*%
X54641000Y-86849000D03*
%TD*%
D16*
%TO.P,Q3,1*%
%TO.N,+5P*%
X49021000Y-77004000D03*
%TO.P,Q3,2*%
%TO.N,Net-(Q3-Pad2)*%
X49021000Y-75104000D03*
%TO.P,Q3,3*%
%TO.N,/sda0*%
X47021000Y-76054000D03*
%TD*%
%TO.P,Q4,1*%
%TO.N,+5P*%
X49021000Y-73382000D03*
%TO.P,Q4,2*%
%TO.N,Net-(Q4-Pad2)*%
X49021000Y-71482000D03*
%TO.P,Q4,3*%
%TO.N,/scl0*%
X47021000Y-72432000D03*
%TD*%
%TO.P,R6,1*%
%TO.N,Net-(Q2-Pad3)*%
%TA.AperFunction,SMDPad,CuDef*%
G36*
G01*
X64565000Y-64603000D02*
X64565000Y-65153000D01*
G75*
G02*
X64365000Y-65353000I-200000J0D01*
G01*
X63965000Y-65353000D01*
G75*
G02*
X63765000Y-65153000I0J200000D01*
G01*
X63765000Y-64603000D01*
G75*
G02*
X63965000Y-64403000I200000J0D01*
G01*
X64365000Y-64403000D01*
G75*
G02*
X64565000Y-64603000I0J-200000D01*
G01*
G37*
%TD.AperFunction*%
%TO.P,R6,2*%
%TO.N,Net-(C4-Pad1)*%
%TA.AperFunction,SMDPad,CuDef*%
G36*
G01*
X62915000Y-64603000D02*
X62915000Y-65153000D01*
G75*
G02*
X62715000Y-65353000I-200000J0D01*
G01*
X62315000Y-65353000D01*
G75*
G02*
X62115000Y-65153000I0J200000D01*
G01*
X62115000Y-64603000D01*
G75*
G02*
X62315000Y-64403000I200000J0D01*
G01*
X62715000Y-64403000D01*
G75*
G02*
X62915000Y-64603000I0J-200000D01*
G01*
G37*
%TD.AperFunction*%
%TD*%
%TO.P,R18,1*%
%TO.N,Net-(Q6-Pad3)*%
%TA.AperFunction,SMDPad,CuDef*%
G36*
G01*
X83071000Y-65153000D02*
X83071000Y-64603000D01*
G75*
G02*
X83271000Y-64403000I200000J0D01*
G01*
X83671000Y-64403000D01*
G75*
G02*
X83871000Y-64603000I0J-200000D01*
G01*
X83871000Y-65153000D01*
G75*
G02*
X83671000Y-65353000I-200000J0D01*
G01*
X83271000Y-65353000D01*
G75*
G02*
X83071000Y-65153000I0J200000D01*
G01*
G37*
%TD.AperFunction*%
%TO.P,R18,2*%
%TO.N,Net-(C12-Pad1)*%
%TA.AperFunction,SMDPad,CuDef*%
G36*
G01*
X84721000Y-65153000D02*
X84721000Y-64603000D01*
G75*
G02*
X84921000Y-64403000I200000J0D01*
G01*
X85321000Y-64403000D01*
G75*
G02*
X85521000Y-64603000I0J-200000D01*
G01*
X85521000Y-65153000D01*
G75*
G02*
X85321000Y-65353000I-200000J0D01*
G01*
X84921000Y-65353000D01*
G75*
G02*
X84721000Y-65153000I0J200000D01*
G01*
G37*
%TD.AperFunction*%
%TD*%
%TO.P,R9,1*%
%TO.N,Net-(C3-Pad1)*%
%TA.AperFunction,SMDPad,CuDef*%
G36*
G01*
X60716000Y-64479000D02*
X61266000Y-64479000D01*
G75*
G02*
X61466000Y-64679000I0J-200000D01*
G01*
X61466000Y-65079000D01*
G75*
G02*
X61266000Y-65279000I-200000J0D01*
G01*
X60716000Y-65279000D01*
G75*
G02*
X60516000Y-65079000I0J200000D01*
G01*
X60516000Y-64679000D01*
G75*
G02*
X60716000Y-64479000I200000J0D01*
G01*
G37*
%TD.AperFunction*%
%TO.P,R9,2*%
%TO.N,Net-(C3-Pad2)*%
%TA.AperFunction,SMDPad,CuDef*%
G36*
G01*
X60716000Y-66129000D02*
X61266000Y-66129000D01*
G75*
G02*
X61466000Y-66329000I0J-200000D01*
G01*
X61466000Y-66729000D01*
G75*
G02*
X61266000Y-66929000I-200000J0D01*
G01*
X60716000Y-66929000D01*
G75*
G02*
X60516000Y-66729000I0J200000D01*
G01*
X60516000Y-66329000D01*
G75*
G02*
X60716000Y-66129000I200000J0D01*
G01*
G37*
%TD.AperFunction*%
%TD*%
%TO.P,R10,1*%
%TO.N,Net-(C4-Pad1)*%
%TA.AperFunction,SMDPad,CuDef*%
G36*
G01*
X59192000Y-64479000D02*
X59742000Y-64479000D01*
G75*
G02*
X59942000Y-64679000I0J-200000D01*
G01*
X59942000Y-65079000D01*
G75*
G02*
X59742000Y-65279000I-200000J0D01*
G01*
X59192000Y-65279000D01*
G75*
G02*
X58992000Y-65079000I0J200000D01*
G01*
X58992000Y-64679000D01*
G75*
G02*
X59192000Y-64479000I200000J0D01*
G01*
G37*
%TD.AperFunction*%
%TO.P,R10,2*%
%TO.N,Net-(C4-Pad2)*%
%TA.AperFunction,SMDPad,CuDef*%
G36*
G01*
X59192000Y-66129000D02*
X59742000Y-66129000D01*
G75*
G02*
X59942000Y-66329000I0J-200000D01*
G01*
X59942000Y-66729000D01*
G75*
G02*
X59742000Y-66929000I-200000J0D01*
G01*
X59192000Y-66929000D01*
G75*
G02*
X58992000Y-66729000I0J200000D01*
G01*
X58992000Y-66329000D01*
G75*
G02*
X59192000Y-66129000I200000J0D01*
G01*
G37*
%TD.AperFunction*%
%TD*%
%TO.P,R19,1*%
%TO.N,Net-(C11-Pad1)*%
%TA.AperFunction,SMDPad,CuDef*%
G36*
G01*
X87894000Y-64479000D02*
X88444000Y-64479000D01*
G75*
G02*
X88644000Y-64679000I0J-200000D01*
G01*
X88644000Y-65079000D01*
G75*
G02*
X88444000Y-65279000I-200000J0D01*
G01*
X87894000Y-65279000D01*
G75*
G02*
X87694000Y-65079000I0J200000D01*
G01*
X87694000Y-64679000D01*
G75*
G02*
X87894000Y-64479000I200000J0D01*
G01*
G37*
%TD.AperFunction*%
%TO.P,R19,2*%
%TO.N,Net-(C11-Pad2)*%
%TA.AperFunction,SMDPad,CuDef*%
G36*
G01*
X87894000Y-66129000D02*
X88444000Y-66129000D01*
G75*
G02*
X88644000Y-66329000I0J-200000D01*
G01*
X88644000Y-66729000D01*
G75*
G02*
X88444000Y-66929000I-200000J0D01*
G01*
X87894000Y-66929000D01*
G75*
G02*
X87694000Y-66729000I0J200000D01*
G01*
X87694000Y-66329000D01*
G75*
G02*
X87894000Y-66129000I200000J0D01*
G01*
G37*
%TD.AperFunction*%
%TD*%
%TO.P,R20,1*%
%TO.N,Net-(C12-Pad1)*%
%TA.AperFunction,SMDPad,CuDef*%
G36*
G01*
X86370000Y-64479000D02*
X86920000Y-64479000D01*
G75*
G02*
X87120000Y-64679000I0J-200000D01*
G01*
X87120000Y-65079000D01*
G75*
G02*
X86920000Y-65279000I-200000J0D01*
G01*
X86370000Y-65279000D01*
G75*
G02*
X86170000Y-65079000I0J200000D01*
G01*
X86170000Y-64679000D01*
G75*
G02*
X86370000Y-64479000I200000J0D01*
G01*
G37*
%TD.AperFunction*%
%TO.P,R20,2*%
%TO.N,Net-(C12-Pad2)*%
%TA.AperFunction,SMDPad,CuDef*%
G36*
G01*
X86370000Y-66129000D02*
X86920000Y-66129000D01*
G75*
G02*
X87120000Y-66329000I0J-200000D01*
G01*
X87120000Y-66729000D01*
G75*
G02*
X86920000Y-66929000I-200000J0D01*
G01*
X86370000Y-66929000D01*
G75*
G02*
X86170000Y-66729000I0J200000D01*
G01*
X86170000Y-66329000D01*
G75*
G02*
X86370000Y-66129000I200000J0D01*
G01*
G37*
%TD.AperFunction*%
%TD*%
%TO.P,R7,1*%
%TO.N,/sda0*%
%TA.AperFunction,SMDPad,CuDef*%
G36*
G01*
X45222000Y-76797000D02*
X45772000Y-76797000D01*
G75*
G02*
X45972000Y-76997000I0J-200000D01*
G01*
X45972000Y-77397000D01*
G75*
G02*
X45772000Y-77597000I-200000J0D01*
G01*
X45222000Y-77597000D01*
G75*
G02*
X45022000Y-77397000I0J200000D01*
G01*
X45022000Y-76997000D01*
G75*
G02*
X45222000Y-76797000I200000J0D01*
G01*
G37*
%TD.AperFunction*%
%TO.P,R7,2*%
%TO.N,+5P*%
%TA.AperFunction,SMDPad,CuDef*%
G36*
G01*
X45222000Y-78447000D02*
X45772000Y-78447000D01*
G75*
G02*
X45972000Y-78647000I0J-200000D01*
G01*
X45972000Y-79047000D01*
G75*
G02*
X45772000Y-79247000I-200000J0D01*
G01*
X45222000Y-79247000D01*
G75*
G02*
X45022000Y-79047000I0J200000D01*
G01*
X45022000Y-78647000D01*
G75*
G02*
X45222000Y-78447000I200000J0D01*
G01*
G37*
%TD.AperFunction*%
%TD*%
D17*
%TO.P,Q6,1*%
%TO.N,Net-(Q6-Pad1)*%
X81941000Y-64560500D03*
%TO.P,Q6,2*%
%TO.N,GND2*%
X80041000Y-64560500D03*
%TO.P,Q6,3*%
%TO.N,Net-(Q6-Pad3)*%
X80991000Y-66560500D03*
%TD*%
%TO.P,R2,1*%
%TO.N,Net-(Q2-Pad1)*%
%TA.AperFunction,SMDPad,CuDef*%
G36*
G01*
X68719000Y-66296000D02*
X68719000Y-65746000D01*
G75*
G02*
X68919000Y-65546000I200000J0D01*
G01*
X69319000Y-65546000D01*
G75*
G02*
X69519000Y-65746000I0J-200000D01*
G01*
X69519000Y-66296000D01*
G75*
G02*
X69319000Y-66496000I-200000J0D01*
G01*
X68919000Y-66496000D01*
G75*
G02*
X68719000Y-66296000I0J200000D01*
G01*
G37*
%TD.AperFunction*%
%TO.P,R2,2*%
%TO.N,/K1_rst*%
%TA.AperFunction,SMDPad,CuDef*%
G36*
G01*
X70369000Y-66296000D02*
X70369000Y-65746000D01*
G75*
G02*
X70569000Y-65546000I200000J0D01*
G01*
X70969000Y-65546000D01*
G75*
G02*
X71169000Y-65746000I0J-200000D01*
G01*
X71169000Y-66296000D01*
G75*
G02*
X70969000Y-66496000I-200000J0D01*
G01*
X70569000Y-66496000D01*
G75*
G02*
X70369000Y-66296000I0J200000D01*
G01*
G37*
%TD.AperFunction*%
%TD*%
%TO.P,R4,1*%
%TO.N,Net-(Q2-Pad1)*%
%TA.AperFunction,SMDPad,CuDef*%
G36*
G01*
X71169000Y-64222000D02*
X71169000Y-64772000D01*
G75*
G02*
X70969000Y-64972000I-200000J0D01*
G01*
X70569000Y-64972000D01*
G75*
G02*
X70369000Y-64772000I0J200000D01*
G01*
X70369000Y-64222000D01*
G75*
G02*
X70569000Y-64022000I200000J0D01*
G01*
X70969000Y-64022000D01*
G75*
G02*
X71169000Y-64222000I0J-200000D01*
G01*
G37*
%TD.AperFunction*%
%TO.P,R4,2*%
%TO.N,GND2*%
%TA.AperFunction,SMDPad,CuDef*%
G36*
G01*
X69519000Y-64222000D02*
X69519000Y-64772000D01*
G75*
G02*
X69319000Y-64972000I-200000J0D01*
G01*
X68919000Y-64972000D01*
G75*
G02*
X68719000Y-64772000I0J200000D01*
G01*
X68719000Y-64222000D01*
G75*
G02*
X68919000Y-64022000I200000J0D01*
G01*
X69319000Y-64022000D01*
G75*
G02*
X69519000Y-64222000I0J-200000D01*
G01*
G37*
%TD.AperFunction*%
%TD*%
%TO.P,R14,1*%
%TO.N,Net-(Q6-Pad1)*%
%TA.AperFunction,SMDPad,CuDef*%
G36*
G01*
X76466000Y-66613500D02*
X76466000Y-66063500D01*
G75*
G02*
X76666000Y-65863500I200000J0D01*
G01*
X77066000Y-65863500D01*
G75*
G02*
X77266000Y-66063500I0J-200000D01*
G01*
X77266000Y-66613500D01*
G75*
G02*
X77066000Y-66813500I-200000J0D01*
G01*
X76666000Y-66813500D01*
G75*
G02*
X76466000Y-66613500I0J200000D01*
G01*
G37*
%TD.AperFunction*%
%TO.P,R14,2*%
%TO.N,/K2_rst*%
%TA.AperFunction,SMDPad,CuDef*%
G36*
G01*
X78116000Y-66613500D02*
X78116000Y-66063500D01*
G75*
G02*
X78316000Y-65863500I200000J0D01*
G01*
X78716000Y-65863500D01*
G75*
G02*
X78916000Y-66063500I0J-200000D01*
G01*
X78916000Y-66613500D01*
G75*
G02*
X78716000Y-66813500I-200000J0D01*
G01*
X78316000Y-66813500D01*
G75*
G02*
X78116000Y-66613500I0J200000D01*
G01*
G37*
%TD.AperFunction*%
%TD*%
%TO.P,R8,1*%
%TO.N,/scl0*%
%TA.AperFunction,SMDPad,CuDef*%
G36*
G01*
X45772000Y-76136500D02*
X45222000Y-76136500D01*
G75*
G02*
X45022000Y-75936500I0J200000D01*
G01*
X45022000Y-75536500D01*
G75*
G02*
X45222000Y-75336500I200000J0D01*
G01*
X45772000Y-75336500D01*
G75*
G02*
X45972000Y-75536500I0J-200000D01*
G01*
X45972000Y-75936500D01*
G75*
G02*
X45772000Y-76136500I-200000J0D01*
G01*
G37*
%TD.AperFunction*%
%TO.P,R8,2*%
%TO.N,+5P*%
%TA.AperFunction,SMDPad,CuDef*%
G36*
G01*
X45772000Y-74486500D02*
X45222000Y-74486500D01*
G75*
G02*
X45022000Y-74286500I0J200000D01*
G01*
X45022000Y-73886500D01*
G75*
G02*
X45222000Y-73686500I200000J0D01*
G01*
X45772000Y-73686500D01*
G75*
G02*
X45972000Y-73886500I0J-200000D01*
G01*
X45972000Y-74286500D01*
G75*
G02*
X45772000Y-74486500I-200000J0D01*
G01*
G37*
%TD.AperFunction*%
%TD*%
%TO.P,R11,1*%
%TO.N,Net-(Q3-Pad2)*%
%TA.AperFunction,SMDPad,CuDef*%
G36*
G01*
X50302000Y-74892000D02*
X50852000Y-74892000D01*
G75*
G02*
X51052000Y-75092000I0J-200000D01*
G01*
X51052000Y-75492000D01*
G75*
G02*
X50852000Y-75692000I-200000J0D01*
G01*
X50302000Y-75692000D01*
G75*
G02*
X50102000Y-75492000I0J200000D01*
G01*
X50102000Y-75092000D01*
G75*
G02*
X50302000Y-74892000I200000J0D01*
G01*
G37*
%TD.AperFunction*%
%TO.P,R11,2*%
%TO.N,+5P*%
%TA.AperFunction,SMDPad,CuDef*%
G36*
G01*
X50302000Y-76542000D02*
X50852000Y-76542000D01*
G75*
G02*
X51052000Y-76742000I0J-200000D01*
G01*
X51052000Y-77142000D01*
G75*
G02*
X50852000Y-77342000I-200000J0D01*
G01*
X50302000Y-77342000D01*
G75*
G02*
X50102000Y-77142000I0J200000D01*
G01*
X50102000Y-76742000D01*
G75*
G02*
X50302000Y-76542000I200000J0D01*
G01*
G37*
%TD.AperFunction*%
%TD*%
%TO.P,R12,1*%
%TO.N,Net-(Q4-Pad2)*%
%TA.AperFunction,SMDPad,CuDef*%
G36*
G01*
X50302000Y-71209000D02*
X50852000Y-71209000D01*
G75*
G02*
X51052000Y-71409000I0J-200000D01*
G01*
X51052000Y-71809000D01*
G75*
G02*
X50852000Y-72009000I-200000J0D01*
G01*
X50302000Y-72009000D01*
G75*
G02*
X50102000Y-71809000I0J200000D01*
G01*
X50102000Y-71409000D01*
G75*
G02*
X50302000Y-71209000I200000J0D01*
G01*
G37*
%TD.AperFunction*%
%TO.P,R12,2*%
%TO.N,+5P*%
%TA.AperFunction,SMDPad,CuDef*%
G36*
G01*
X50302000Y-72859000D02*
X50852000Y-72859000D01*
G75*
G02*
X51052000Y-73059000I0J-200000D01*
G01*
X51052000Y-73459000D01*
G75*
G02*
X50852000Y-73659000I-200000J0D01*
G01*
X50302000Y-73659000D01*
G75*
G02*
X50102000Y-73459000I0J200000D01*
G01*
X50102000Y-73059000D01*
G75*
G02*
X50302000Y-72859000I200000J0D01*
G01*
G37*
%TD.AperFunction*%
%TD*%
D10*
%TO.P,TP1,1*%
%TO.N,GND2*%
X50640500Y-80118000D03*
%TD*%
%TO.P,R16,1*%
%TO.N,Net-(Q6-Pad1)*%
%TA.AperFunction,SMDPad,CuDef*%
G36*
G01*
X76467000Y-64772000D02*
X76467000Y-64222000D01*
G75*
G02*
X76667000Y-64022000I200000J0D01*
G01*
X77067000Y-64022000D01*
G75*
G02*
X77267000Y-64222000I0J-200000D01*
G01*
X77267000Y-64772000D01*
G75*
G02*
X77067000Y-64972000I-200000J0D01*
G01*
X76667000Y-64972000D01*
G75*
G02*
X76467000Y-64772000I0J200000D01*
G01*
G37*
%TD.AperFunction*%
%TO.P,R16,2*%
%TO.N,GND2*%
%TA.AperFunction,SMDPad,CuDef*%
G36*
G01*
X78117000Y-64772000D02*
X78117000Y-64222000D01*
G75*
G02*
X78317000Y-64022000I200000J0D01*
G01*
X78717000Y-64022000D01*
G75*
G02*
X78917000Y-64222000I0J-200000D01*
G01*
X78917000Y-64772000D01*
G75*
G02*
X78717000Y-64972000I-200000J0D01*
G01*
X78317000Y-64972000D01*
G75*
G02*
X78117000Y-64772000I0J200000D01*
G01*
G37*
%TD.AperFunction*%
%TD*%
%TO.P,U1,1*%
%TO.N,+5P*%
%TA.AperFunction,SMDPad,CuDef*%
G36*
G01*
X56523000Y-67397000D02*
X56823000Y-67397000D01*
G75*
G02*
X56973000Y-67547000I0J-150000D01*
G01*
X56973000Y-69197000D01*
G75*
G02*
X56823000Y-69347000I-150000J0D01*
G01*
X56523000Y-69347000D01*
G75*
G02*
X56373000Y-69197000I0J150000D01*
G01*
X56373000Y-67547000D01*
G75*
G02*
X56523000Y-67397000I150000J0D01*
G01*
G37*
%TD.AperFunction*%
%TO.P,U1,2*%
%TO.N,Net-(Q3-Pad2)*%
%TA.AperFunction,SMDPad,CuDef*%
G36*
G01*
X55253000Y-67397000D02*
X55553000Y-67397000D01*
G75*
G02*
X55703000Y-67547000I0J-150000D01*
G01*
X55703000Y-69197000D01*
G75*
G02*
X55553000Y-69347000I-150000J0D01*
G01*
X55253000Y-69347000D01*
G75*
G02*
X55103000Y-69197000I0J150000D01*
G01*
X55103000Y-67547000D01*
G75*
G02*
X55253000Y-67397000I150000J0D01*
G01*
G37*
%TD.AperFunction*%
%TO.P,U1,3*%
%TO.N,Net-(Q4-Pad2)*%
%TA.AperFunction,SMDPad,CuDef*%
G36*
G01*
X53983000Y-67397000D02*
X54283000Y-67397000D01*
G75*
G02*
X54433000Y-67547000I0J-150000D01*
G01*
X54433000Y-69197000D01*
G75*
G02*
X54283000Y-69347000I-150000J0D01*
G01*
X53983000Y-69347000D01*
G75*
G02*
X53833000Y-69197000I0J150000D01*
G01*
X53833000Y-67547000D01*
G75*
G02*
X53983000Y-67397000I150000J0D01*
G01*
G37*
%TD.AperFunction*%
%TO.P,U1,4*%
%TO.N,GND1*%
%TA.AperFunction,SMDPad,CuDef*%
G36*
G01*
X52713000Y-67397000D02*
X53013000Y-67397000D01*
G75*
G02*
X53163000Y-67547000I0J-150000D01*
G01*
X53163000Y-69197000D01*
G75*
G02*
X53013000Y-69347000I-150000J0D01*
G01*
X52713000Y-69347000D01*
G75*
G02*
X52563000Y-69197000I0J150000D01*
G01*
X52563000Y-67547000D01*
G75*
G02*
X52713000Y-67397000I150000J0D01*
G01*
G37*
%TD.AperFunction*%
%TO.P,U1,5*%
%TO.N,GND2*%
%TA.AperFunction,SMDPad,CuDef*%
G36*
G01*
X52713000Y-72347000D02*
X53013000Y-72347000D01*
G75*
G02*
X53163000Y-72497000I0J-150000D01*
G01*
X53163000Y-74147000D01*
G75*
G02*
X53013000Y-74297000I-150000J0D01*
G01*
X52713000Y-74297000D01*
G75*
G02*
X52563000Y-74147000I0J150000D01*
G01*
X52563000Y-72497000D01*
G75*
G02*
X52713000Y-72347000I150000J0D01*
G01*
G37*
%TD.AperFunction*%
%TO.P,U1,6*%
%TO.N,/I2C_SCL*%
%TA.AperFunction,SMDPad,CuDef*%
G36*
G01*
X53983000Y-72347000D02*
X54283000Y-72347000D01*
G75*
G02*
X54433000Y-72497000I0J-150000D01*
G01*
X54433000Y-74147000D01*
G75*
G02*
X54283000Y-74297000I-150000J0D01*
G01*
X53983000Y-74297000D01*
G75*
G02*
X53833000Y-74147000I0J150000D01*
G01*
X53833000Y-72497000D01*
G75*
G02*
X53983000Y-72347000I150000J0D01*
G01*
G37*
%TD.AperFunction*%
%TO.P,U1,7*%
%TO.N,/I2C_SDA*%
%TA.AperFunction,SMDPad,CuDef*%
G36*
G01*
X55253000Y-72347000D02*
X55553000Y-72347000D01*
G75*
G02*
X55703000Y-72497000I0J-150000D01*
G01*
X55703000Y-74147000D01*
G75*
G02*
X55553000Y-74297000I-150000J0D01*
G01*
X55253000Y-74297000D01*
G75*
G02*
X55103000Y-74147000I0J150000D01*
G01*
X55103000Y-72497000D01*
G75*
G02*
X55253000Y-72347000I150000J0D01*
G01*
G37*
%TD.AperFunction*%
%TO.P,U1,8*%
%TO.N,+5VP*%
%TA.AperFunction,SMDPad,CuDef*%
G36*
G01*
X56523000Y-72347000D02*
X56823000Y-72347000D01*
G75*
G02*
X56973000Y-72497000I0J-150000D01*
G01*
X56973000Y-74147000D01*
G75*
G02*
X56823000Y-74297000I-150000J0D01*
G01*
X56523000Y-74297000D01*
G75*
G02*
X56373000Y-74147000I0J150000D01*
G01*
X56373000Y-72497000D01*
G75*
G02*
X56523000Y-72347000I150000J0D01*
G01*
G37*
%TD.AperFunction*%
%TD*%
%TO.P,C5,1*%
%TO.N,Net-(C5-Pad1)*%
X62113000Y-84182000D03*
%TO.P,C5,2*%
%TO.N,Net-(C5-Pad2)*%
X84613000Y-84182000D03*
%TD*%
D18*
%TO.P,J2,1*%
%TO.N,+5P*%
X48291000Y-69450000D03*
D19*
%TO.P,J2,2*%
X48291000Y-68180000D03*
%TO.P,J2,3*%
%TO.N,GND1*%
X47021000Y-69450000D03*
%TO.P,J2,4*%
X47021000Y-68180000D03*
%TO.P,J2,5*%
%TO.N,/sda0*%
X45751000Y-69450000D03*
%TO.P,J2,6*%
%TO.N,/scl0*%
X45751000Y-68180000D03*
%TD*%
D20*
%TO.P,U2,1*%
%TO.N,/K1_rst*%
X71922000Y-69491000D03*
%TO.P,U2,2*%
%TO.N,/K1_set*%
X71922000Y-70141000D03*
%TO.P,U2,3*%
%TO.N,/K2_rst*%
X71922000Y-70791000D03*
%TO.P,U2,4*%
%TO.N,GND2*%
X71922000Y-71441000D03*
%TO.P,U2,5*%
%TO.N,/K2_set*%
X76222000Y-71441000D03*
%TO.P,U2,6*%
%TO.N,/I2C_SCL*%
X76222000Y-70791000D03*
%TO.P,U2,7*%
%TO.N,/I2C_SDA*%
X76222000Y-70141000D03*
%TO.P,U2,8*%
%TO.N,+5VP*%
X76222000Y-69491000D03*
%TD*%
D21*
%TO.P,J1,3*%
%TO.N,Net-(J1-Pad3)*%
X75850000Y-86468000D03*
%TO.P,J1,2*%
%TO.N,N/C*%
X73310000Y-86468000D03*
D22*
%TO.P,J1,1*%
%TO.N,Net-(J1-Pad1)*%
X70770000Y-86468000D03*
%TD*%
D13*
%TO.P,K2,16*%
%TO.N,Net-(C11-Pad2)*%
X87407000Y-68942000D03*
%TO.P,K2,15*%
%TO.N,Net-(C12-Pad2)*%
X87407000Y-71482000D03*
%TO.P,K2,13*%
%TO.N,Net-(C7-Pad1)*%
X87407000Y-76562000D03*
%TO.P,K2,11*%
%TO.N,Net-(C5-Pad2)*%
X87407000Y-81642000D03*
%TO.P,K2,9*%
%TO.N,Net-(K2-Pad8)*%
X87407000Y-86722000D03*
%TO.P,K2,8*%
X79787000Y-86722000D03*
%TO.P,K2,6*%
%TO.N,Net-(C7-Pad1)*%
X79787000Y-81642000D03*
%TO.P,K2,4*%
%TO.N,Net-(J1-Pad3)*%
X79787000Y-76562000D03*
%TO.P,K2,2*%
%TO.N,+5VP*%
X79787000Y-71482000D03*
D12*
%TO.P,K2,1*%
X79787000Y-68942000D03*
%TD*%
%TO.P,C8,1*%
%TO.N,GND1*%
%TA.AperFunction,SMDPad,CuDef*%
G36*
G01*
X53530000Y-66525000D02*
X53530000Y-66025000D01*
G75*
G02*
X53755000Y-65800000I225000J0D01*
G01*
X54205000Y-65800000D01*
G75*
G02*
X54430000Y-66025000I0J-225000D01*
G01*
X54430000Y-66525000D01*
G75*
G02*
X54205000Y-66750000I-225000J0D01*
G01*
X53755000Y-66750000D01*
G75*
G02*
X53530000Y-66525000I0J225000D01*
G01*
G37*
%TD.AperFunction*%
%TO.P,C8,2*%
%TO.N,+5P*%
%TA.AperFunction,SMDPad,CuDef*%
G36*
G01*
X55080000Y-66525000D02*
X55080000Y-66025000D01*
G75*
G02*
X55305000Y-65800000I225000J0D01*
G01*
X55755000Y-65800000D01*
G75*
G02*
X55980000Y-66025000I0J-225000D01*
G01*
X55980000Y-66525000D01*
G75*
G02*
X55755000Y-66750000I-225000J0D01*
G01*
X55305000Y-66750000D01*
G75*
G02*
X55080000Y-66525000I0J225000D01*
G01*
G37*
%TD.AperFunction*%
%TD*%
%TO.P,C10,1*%
%TO.N,GND2*%
%TA.AperFunction,SMDPad,CuDef*%
G36*
G01*
X53022000Y-75669000D02*
X53022000Y-75169000D01*
G75*
G02*
X53247000Y-74944000I225000J0D01*
G01*
X53697000Y-74944000D01*
G75*
G02*
X53922000Y-75169000I0J-225000D01*
G01*
X53922000Y-75669000D01*
G75*
G02*
X53697000Y-75894000I-225000J0D01*
G01*
X53247000Y-75894000D01*
G75*
G02*
X53022000Y-75669000I0J225000D01*
G01*
G37*
%TD.AperFunction*%
%TO.P,C10,2*%
%TO.N,+5VP*%
%TA.AperFunction,SMDPad,CuDef*%
G36*
G01*
X54572000Y-75669000D02*
X54572000Y-75169000D01*
G75*
G02*
X54797000Y-74944000I225000J0D01*
G01*
X55247000Y-74944000D01*
G75*
G02*
X55472000Y-75169000I0J-225000D01*
G01*
X55472000Y-75669000D01*
G75*
G02*
X55247000Y-75894000I-225000J0D01*
G01*
X54797000Y-75894000D01*
G75*
G02*
X54572000Y-75669000I0J225000D01*
G01*
G37*
%TD.AperFunction*%
%TD*%
D16*
%TO.P,Q2,1*%
%TO.N,Net-(Q2-Pad1)*%
X67595000Y-66460500D03*
%TO.P,Q2,2*%
%TO.N,GND2*%
X67595000Y-64560500D03*
%TO.P,Q2,3*%
%TO.N,Net-(Q2-Pad3)*%
X65595000Y-65510500D03*
%TD*%
D19*
%TO.P,J2,6*%
%TO.N,/scl0*%
X45751000Y-43180000D03*
%TO.P,J2,5*%
%TO.N,/sda0*%
X45751000Y-44450000D03*
%TO.P,J2,4*%
%TO.N,GND1*%
X47021000Y-43180000D03*
%TO.P,J2,3*%
X47021000Y-44450000D03*
%TO.P,J2,2*%
%TO.N,+5P*%
X48291000Y-43180000D03*
D18*
%TO.P,J2,1*%
X48291000Y-44450000D03*
%TD*%
D10*
%TO.P,C5,2*%
%TO.N,Net-(C5-Pad2)*%
X84613000Y-59182000D03*
%TO.P,C5,1*%
%TO.N,Net-(C5-Pad1)*%
X62113000Y-59182000D03*
%TD*%
%TO.P,U1,8*%
%TO.N,+5VP*%
%TA.AperFunction,SMDPad,CuDef*%
G36*
G01*
X56523000Y-47347000D02*
X56823000Y-47347000D01*
G75*
G02*
X56973000Y-47497000I0J-150000D01*
G01*
X56973000Y-49147000D01*
G75*
G02*
X56823000Y-49297000I-150000J0D01*
G01*
X56523000Y-49297000D01*
G75*
G02*
X56373000Y-49147000I0J150000D01*
G01*
X56373000Y-47497000D01*
G75*
G02*
X56523000Y-47347000I150000J0D01*
G01*
G37*
%TD.AperFunction*%
%TO.P,U1,7*%
%TO.N,/I2C_SDA*%
%TA.AperFunction,SMDPad,CuDef*%
G36*
G01*
X55253000Y-47347000D02*
X55553000Y-47347000D01*
G75*
G02*
X55703000Y-47497000I0J-150000D01*
G01*
X55703000Y-49147000D01*
G75*
G02*
X55553000Y-49297000I-150000J0D01*
G01*
X55253000Y-49297000D01*
G75*
G02*
X55103000Y-49147000I0J150000D01*
G01*
X55103000Y-47497000D01*
G75*
G02*
X55253000Y-47347000I150000J0D01*
G01*
G37*
%TD.AperFunction*%
%TO.P,U1,6*%
%TO.N,/I2C_SCL*%
%TA.AperFunction,SMDPad,CuDef*%
G36*
G01*
X53983000Y-47347000D02*
X54283000Y-47347000D01*
G75*
G02*
X54433000Y-47497000I0J-150000D01*
G01*
X54433000Y-49147000D01*
G75*
G02*
X54283000Y-49297000I-150000J0D01*
G01*
X53983000Y-49297000D01*
G75*
G02*
X53833000Y-49147000I0J150000D01*
G01*
X53833000Y-47497000D01*
G75*
G02*
X53983000Y-47347000I150000J0D01*
G01*
G37*
%TD.AperFunction*%
%TO.P,U1,5*%
%TO.N,GND2*%
%TA.AperFunction,SMDPad,CuDef*%
G36*
G01*
X52713000Y-47347000D02*
X53013000Y-47347000D01*
G75*
G02*
X53163000Y-47497000I0J-150000D01*
G01*
X53163000Y-49147000D01*
G75*
G02*
X53013000Y-49297000I-150000J0D01*
G01*
X52713000Y-49297000D01*
G75*
G02*
X52563000Y-49147000I0J150000D01*
G01*
X52563000Y-47497000D01*
G75*
G02*
X52713000Y-47347000I150000J0D01*
G01*
G37*
%TD.AperFunction*%
%TO.P,U1,4*%
%TO.N,GND1*%
%TA.AperFunction,SMDPad,CuDef*%
G36*
G01*
X52713000Y-42397000D02*
X53013000Y-42397000D01*
G75*
G02*
X53163000Y-42547000I0J-150000D01*
G01*
X53163000Y-44197000D01*
G75*
G02*
X53013000Y-44347000I-150000J0D01*
G01*
X52713000Y-44347000D01*
G75*
G02*
X52563000Y-44197000I0J150000D01*
G01*
X52563000Y-42547000D01*
G75*
G02*
X52713000Y-42397000I150000J0D01*
G01*
G37*
%TD.AperFunction*%
%TO.P,U1,3*%
%TO.N,Net-(Q4-Pad2)*%
%TA.AperFunction,SMDPad,CuDef*%
G36*
G01*
X53983000Y-42397000D02*
X54283000Y-42397000D01*
G75*
G02*
X54433000Y-42547000I0J-150000D01*
G01*
X54433000Y-44197000D01*
G75*
G02*
X54283000Y-44347000I-150000J0D01*
G01*
X53983000Y-44347000D01*
G75*
G02*
X53833000Y-44197000I0J150000D01*
G01*
X53833000Y-42547000D01*
G75*
G02*
X53983000Y-42397000I150000J0D01*
G01*
G37*
%TD.AperFunction*%
%TO.P,U1,2*%
%TO.N,Net-(Q3-Pad2)*%
%TA.AperFunction,SMDPad,CuDef*%
G36*
G01*
X55253000Y-42397000D02*
X55553000Y-42397000D01*
G75*
G02*
X55703000Y-42547000I0J-150000D01*
G01*
X55703000Y-44197000D01*
G75*
G02*
X55553000Y-44347000I-150000J0D01*
G01*
X55253000Y-44347000D01*
G75*
G02*
X55103000Y-44197000I0J150000D01*
G01*
X55103000Y-42547000D01*
G75*
G02*
X55253000Y-42397000I150000J0D01*
G01*
G37*
%TD.AperFunction*%
%TO.P,U1,1*%
%TO.N,+5P*%
%TA.AperFunction,SMDPad,CuDef*%
G36*
G01*
X56523000Y-42397000D02*
X56823000Y-42397000D01*
G75*
G02*
X56973000Y-42547000I0J-150000D01*
G01*
X56973000Y-44197000D01*
G75*
G02*
X56823000Y-44347000I-150000J0D01*
G01*
X56523000Y-44347000D01*
G75*
G02*
X56373000Y-44197000I0J150000D01*
G01*
X56373000Y-42547000D01*
G75*
G02*
X56523000Y-42397000I150000J0D01*
G01*
G37*
%TD.AperFunction*%
%TD*%
%TO.P,R16,2*%
%TO.N,GND2*%
%TA.AperFunction,SMDPad,CuDef*%
G36*
G01*
X78117000Y-39772000D02*
X78117000Y-39222000D01*
G75*
G02*
X78317000Y-39022000I200000J0D01*
G01*
X78717000Y-39022000D01*
G75*
G02*
X78917000Y-39222000I0J-200000D01*
G01*
X78917000Y-39772000D01*
G75*
G02*
X78717000Y-39972000I-200000J0D01*
G01*
X78317000Y-39972000D01*
G75*
G02*
X78117000Y-39772000I0J200000D01*
G01*
G37*
%TD.AperFunction*%
%TO.P,R16,1*%
%TO.N,Net-(Q6-Pad1)*%
%TA.AperFunction,SMDPad,CuDef*%
G36*
G01*
X76467000Y-39772000D02*
X76467000Y-39222000D01*
G75*
G02*
X76667000Y-39022000I200000J0D01*
G01*
X77067000Y-39022000D01*
G75*
G02*
X77267000Y-39222000I0J-200000D01*
G01*
X77267000Y-39772000D01*
G75*
G02*
X77067000Y-39972000I-200000J0D01*
G01*
X76667000Y-39972000D01*
G75*
G02*
X76467000Y-39772000I0J200000D01*
G01*
G37*
%TD.AperFunction*%
%TD*%
%TO.P,R14,2*%
%TO.N,/K2_rst*%
%TA.AperFunction,SMDPad,CuDef*%
G36*
G01*
X78116000Y-41613500D02*
X78116000Y-41063500D01*
G75*
G02*
X78316000Y-40863500I200000J0D01*
G01*
X78716000Y-40863500D01*
G75*
G02*
X78916000Y-41063500I0J-200000D01*
G01*
X78916000Y-41613500D01*
G75*
G02*
X78716000Y-41813500I-200000J0D01*
G01*
X78316000Y-41813500D01*
G75*
G02*
X78116000Y-41613500I0J200000D01*
G01*
G37*
%TD.AperFunction*%
%TO.P,R14,1*%
%TO.N,Net-(Q6-Pad1)*%
%TA.AperFunction,SMDPad,CuDef*%
G36*
G01*
X76466000Y-41613500D02*
X76466000Y-41063500D01*
G75*
G02*
X76666000Y-40863500I200000J0D01*
G01*
X77066000Y-40863500D01*
G75*
G02*
X77266000Y-41063500I0J-200000D01*
G01*
X77266000Y-41613500D01*
G75*
G02*
X77066000Y-41813500I-200000J0D01*
G01*
X76666000Y-41813500D01*
G75*
G02*
X76466000Y-41613500I0J200000D01*
G01*
G37*
%TD.AperFunction*%
%TD*%
%TO.P,R4,2*%
%TO.N,GND2*%
%TA.AperFunction,SMDPad,CuDef*%
G36*
G01*
X69519000Y-39222000D02*
X69519000Y-39772000D01*
G75*
G02*
X69319000Y-39972000I-200000J0D01*
G01*
X68919000Y-39972000D01*
G75*
G02*
X68719000Y-39772000I0J200000D01*
G01*
X68719000Y-39222000D01*
G75*
G02*
X68919000Y-39022000I200000J0D01*
G01*
X69319000Y-39022000D01*
G75*
G02*
X69519000Y-39222000I0J-200000D01*
G01*
G37*
%TD.AperFunction*%
%TO.P,R4,1*%
%TO.N,Net-(Q2-Pad1)*%
%TA.AperFunction,SMDPad,CuDef*%
G36*
G01*
X71169000Y-39222000D02*
X71169000Y-39772000D01*
G75*
G02*
X70969000Y-39972000I-200000J0D01*
G01*
X70569000Y-39972000D01*
G75*
G02*
X70369000Y-39772000I0J200000D01*
G01*
X70369000Y-39222000D01*
G75*
G02*
X70569000Y-39022000I200000J0D01*
G01*
X70969000Y-39022000D01*
G75*
G02*
X71169000Y-39222000I0J-200000D01*
G01*
G37*
%TD.AperFunction*%
%TD*%
%TO.P,R2,2*%
%TO.N,/K1_rst*%
%TA.AperFunction,SMDPad,CuDef*%
G36*
G01*
X70369000Y-41296000D02*
X70369000Y-40746000D01*
G75*
G02*
X70569000Y-40546000I200000J0D01*
G01*
X70969000Y-40546000D01*
G75*
G02*
X71169000Y-40746000I0J-200000D01*
G01*
X71169000Y-41296000D01*
G75*
G02*
X70969000Y-41496000I-200000J0D01*
G01*
X70569000Y-41496000D01*
G75*
G02*
X70369000Y-41296000I0J200000D01*
G01*
G37*
%TD.AperFunction*%
%TO.P,R2,1*%
%TO.N,Net-(Q2-Pad1)*%
%TA.AperFunction,SMDPad,CuDef*%
G36*
G01*
X68719000Y-41296000D02*
X68719000Y-40746000D01*
G75*
G02*
X68919000Y-40546000I200000J0D01*
G01*
X69319000Y-40546000D01*
G75*
G02*
X69519000Y-40746000I0J-200000D01*
G01*
X69519000Y-41296000D01*
G75*
G02*
X69319000Y-41496000I-200000J0D01*
G01*
X68919000Y-41496000D01*
G75*
G02*
X68719000Y-41296000I0J200000D01*
G01*
G37*
%TD.AperFunction*%
%TD*%
D17*
%TO.P,Q6,3*%
%TO.N,Net-(Q6-Pad3)*%
X80991000Y-41560500D03*
%TO.P,Q6,2*%
%TO.N,GND2*%
X80041000Y-39560500D03*
%TO.P,Q6,1*%
%TO.N,Net-(Q6-Pad1)*%
X81941000Y-39560500D03*
%TD*%
D16*
%TO.P,Q2,3*%
%TO.N,Net-(Q2-Pad3)*%
X65595000Y-40510500D03*
%TO.P,Q2,2*%
%TO.N,GND2*%
X67595000Y-39560500D03*
%TO.P,Q2,1*%
%TO.N,Net-(Q2-Pad1)*%
X67595000Y-41460500D03*
%TD*%
%TO.P,C10,2*%
%TO.N,+5VP*%
%TA.AperFunction,SMDPad,CuDef*%
G36*
G01*
X54572000Y-50669000D02*
X54572000Y-50169000D01*
G75*
G02*
X54797000Y-49944000I225000J0D01*
G01*
X55247000Y-49944000D01*
G75*
G02*
X55472000Y-50169000I0J-225000D01*
G01*
X55472000Y-50669000D01*
G75*
G02*
X55247000Y-50894000I-225000J0D01*
G01*
X54797000Y-50894000D01*
G75*
G02*
X54572000Y-50669000I0J225000D01*
G01*
G37*
%TD.AperFunction*%
%TO.P,C10,1*%
%TO.N,GND2*%
%TA.AperFunction,SMDPad,CuDef*%
G36*
G01*
X53022000Y-50669000D02*
X53022000Y-50169000D01*
G75*
G02*
X53247000Y-49944000I225000J0D01*
G01*
X53697000Y-49944000D01*
G75*
G02*
X53922000Y-50169000I0J-225000D01*
G01*
X53922000Y-50669000D01*
G75*
G02*
X53697000Y-50894000I-225000J0D01*
G01*
X53247000Y-50894000D01*
G75*
G02*
X53022000Y-50669000I0J225000D01*
G01*
G37*
%TD.AperFunction*%
%TD*%
%TO.P,C8,2*%
%TO.N,+5P*%
%TA.AperFunction,SMDPad,CuDef*%
G36*
G01*
X55080000Y-41525000D02*
X55080000Y-41025000D01*
G75*
G02*
X55305000Y-40800000I225000J0D01*
G01*
X55755000Y-40800000D01*
G75*
G02*
X55980000Y-41025000I0J-225000D01*
G01*
X55980000Y-41525000D01*
G75*
G02*
X55755000Y-41750000I-225000J0D01*
G01*
X55305000Y-41750000D01*
G75*
G02*
X55080000Y-41525000I0J225000D01*
G01*
G37*
%TD.AperFunction*%
%TO.P,C8,1*%
%TO.N,GND1*%
%TA.AperFunction,SMDPad,CuDef*%
G36*
G01*
X53530000Y-41525000D02*
X53530000Y-41025000D01*
G75*
G02*
X53755000Y-40800000I225000J0D01*
G01*
X54205000Y-40800000D01*
G75*
G02*
X54430000Y-41025000I0J-225000D01*
G01*
X54430000Y-41525000D01*
G75*
G02*
X54205000Y-41750000I-225000J0D01*
G01*
X53755000Y-41750000D01*
G75*
G02*
X53530000Y-41525000I0J225000D01*
G01*
G37*
%TD.AperFunction*%
%TD*%
D12*
%TO.P,K2,1*%
%TO.N,+5VP*%
X79787000Y-43942000D03*
D13*
%TO.P,K2,2*%
X79787000Y-46482000D03*
%TO.P,K2,4*%
%TO.N,Net-(J1-Pad3)*%
X79787000Y-51562000D03*
%TO.P,K2,6*%
%TO.N,Net-(C7-Pad1)*%
X79787000Y-56642000D03*
%TO.P,K2,8*%
%TO.N,Net-(K2-Pad8)*%
X79787000Y-61722000D03*
%TO.P,K2,9*%
X87407000Y-61722000D03*
%TO.P,K2,11*%
%TO.N,Net-(C5-Pad2)*%
X87407000Y-56642000D03*
%TO.P,K2,13*%
%TO.N,Net-(C7-Pad1)*%
X87407000Y-51562000D03*
%TO.P,K2,15*%
%TO.N,Net-(C12-Pad2)*%
X87407000Y-46482000D03*
%TO.P,K2,16*%
%TO.N,Net-(C11-Pad2)*%
X87407000Y-43942000D03*
%TD*%
D22*
%TO.P,J1,1*%
%TO.N,Net-(J1-Pad1)*%
X70770000Y-61468000D03*
D21*
%TO.P,J1,2*%
%TO.N,N/C*%
X73310000Y-61468000D03*
%TO.P,J1,3*%
%TO.N,Net-(J1-Pad3)*%
X75850000Y-61468000D03*
%TD*%
D20*
%TO.P,U2,8*%
%TO.N,+5VP*%
X76222000Y-44491000D03*
%TO.P,U2,7*%
%TO.N,/I2C_SDA*%
X76222000Y-45141000D03*
%TO.P,U2,6*%
%TO.N,/I2C_SCL*%
X76222000Y-45791000D03*
%TO.P,U2,5*%
%TO.N,/K2_set*%
X76222000Y-46441000D03*
%TO.P,U2,4*%
%TO.N,GND2*%
X71922000Y-46441000D03*
%TO.P,U2,3*%
%TO.N,/K2_rst*%
X71922000Y-45791000D03*
%TO.P,U2,2*%
%TO.N,/K1_set*%
X71922000Y-45141000D03*
%TO.P,U2,1*%
%TO.N,/K1_rst*%
X71922000Y-44491000D03*
%TD*%
D10*
%TO.P,TP1,1*%
%TO.N,GND2*%
X50640500Y-55118000D03*
%TD*%
%TO.P,R12,2*%
%TO.N,+5P*%
%TA.AperFunction,SMDPad,CuDef*%
G36*
G01*
X50302000Y-47859000D02*
X50852000Y-47859000D01*
G75*
G02*
X51052000Y-48059000I0J-200000D01*
G01*
X51052000Y-48459000D01*
G75*
G02*
X50852000Y-48659000I-200000J0D01*
G01*
X50302000Y-48659000D01*
G75*
G02*
X50102000Y-48459000I0J200000D01*
G01*
X50102000Y-48059000D01*
G75*
G02*
X50302000Y-47859000I200000J0D01*
G01*
G37*
%TD.AperFunction*%
%TO.P,R12,1*%
%TO.N,Net-(Q4-Pad2)*%
%TA.AperFunction,SMDPad,CuDef*%
G36*
G01*
X50302000Y-46209000D02*
X50852000Y-46209000D01*
G75*
G02*
X51052000Y-46409000I0J-200000D01*
G01*
X51052000Y-46809000D01*
G75*
G02*
X50852000Y-47009000I-200000J0D01*
G01*
X50302000Y-47009000D01*
G75*
G02*
X50102000Y-46809000I0J200000D01*
G01*
X50102000Y-46409000D01*
G75*
G02*
X50302000Y-46209000I200000J0D01*
G01*
G37*
%TD.AperFunction*%
%TD*%
%TO.P,R11,2*%
%TO.N,+5P*%
%TA.AperFunction,SMDPad,CuDef*%
G36*
G01*
X50302000Y-51542000D02*
X50852000Y-51542000D01*
G75*
G02*
X51052000Y-51742000I0J-200000D01*
G01*
X51052000Y-52142000D01*
G75*
G02*
X50852000Y-52342000I-200000J0D01*
G01*
X50302000Y-52342000D01*
G75*
G02*
X50102000Y-52142000I0J200000D01*
G01*
X50102000Y-51742000D01*
G75*
G02*
X50302000Y-51542000I200000J0D01*
G01*
G37*
%TD.AperFunction*%
%TO.P,R11,1*%
%TO.N,Net-(Q3-Pad2)*%
%TA.AperFunction,SMDPad,CuDef*%
G36*
G01*
X50302000Y-49892000D02*
X50852000Y-49892000D01*
G75*
G02*
X51052000Y-50092000I0J-200000D01*
G01*
X51052000Y-50492000D01*
G75*
G02*
X50852000Y-50692000I-200000J0D01*
G01*
X50302000Y-50692000D01*
G75*
G02*
X50102000Y-50492000I0J200000D01*
G01*
X50102000Y-50092000D01*
G75*
G02*
X50302000Y-49892000I200000J0D01*
G01*
G37*
%TD.AperFunction*%
%TD*%
%TO.P,R8,2*%
%TO.N,+5P*%
%TA.AperFunction,SMDPad,CuDef*%
G36*
G01*
X45772000Y-49486500D02*
X45222000Y-49486500D01*
G75*
G02*
X45022000Y-49286500I0J200000D01*
G01*
X45022000Y-48886500D01*
G75*
G02*
X45222000Y-48686500I200000J0D01*
G01*
X45772000Y-48686500D01*
G75*
G02*
X45972000Y-48886500I0J-200000D01*
G01*
X45972000Y-49286500D01*
G75*
G02*
X45772000Y-49486500I-200000J0D01*
G01*
G37*
%TD.AperFunction*%
%TO.P,R8,1*%
%TO.N,/scl0*%
%TA.AperFunction,SMDPad,CuDef*%
G36*
G01*
X45772000Y-51136500D02*
X45222000Y-51136500D01*
G75*
G02*
X45022000Y-50936500I0J200000D01*
G01*
X45022000Y-50536500D01*
G75*
G02*
X45222000Y-50336500I200000J0D01*
G01*
X45772000Y-50336500D01*
G75*
G02*
X45972000Y-50536500I0J-200000D01*
G01*
X45972000Y-50936500D01*
G75*
G02*
X45772000Y-51136500I-200000J0D01*
G01*
G37*
%TD.AperFunction*%
%TD*%
%TO.P,R7,2*%
%TO.N,+5P*%
%TA.AperFunction,SMDPad,CuDef*%
G36*
G01*
X45222000Y-53447000D02*
X45772000Y-53447000D01*
G75*
G02*
X45972000Y-53647000I0J-200000D01*
G01*
X45972000Y-54047000D01*
G75*
G02*
X45772000Y-54247000I-200000J0D01*
G01*
X45222000Y-54247000D01*
G75*
G02*
X45022000Y-54047000I0J200000D01*
G01*
X45022000Y-53647000D01*
G75*
G02*
X45222000Y-53447000I200000J0D01*
G01*
G37*
%TD.AperFunction*%
%TO.P,R7,1*%
%TO.N,/sda0*%
%TA.AperFunction,SMDPad,CuDef*%
G36*
G01*
X45222000Y-51797000D02*
X45772000Y-51797000D01*
G75*
G02*
X45972000Y-51997000I0J-200000D01*
G01*
X45972000Y-52397000D01*
G75*
G02*
X45772000Y-52597000I-200000J0D01*
G01*
X45222000Y-52597000D01*
G75*
G02*
X45022000Y-52397000I0J200000D01*
G01*
X45022000Y-51997000D01*
G75*
G02*
X45222000Y-51797000I200000J0D01*
G01*
G37*
%TD.AperFunction*%
%TD*%
%TO.P,R20,2*%
%TO.N,Net-(C12-Pad2)*%
%TA.AperFunction,SMDPad,CuDef*%
G36*
G01*
X86370000Y-41129000D02*
X86920000Y-41129000D01*
G75*
G02*
X87120000Y-41329000I0J-200000D01*
G01*
X87120000Y-41729000D01*
G75*
G02*
X86920000Y-41929000I-200000J0D01*
G01*
X86370000Y-41929000D01*
G75*
G02*
X86170000Y-41729000I0J200000D01*
G01*
X86170000Y-41329000D01*
G75*
G02*
X86370000Y-41129000I200000J0D01*
G01*
G37*
%TD.AperFunction*%
%TO.P,R20,1*%
%TO.N,Net-(C12-Pad1)*%
%TA.AperFunction,SMDPad,CuDef*%
G36*
G01*
X86370000Y-39479000D02*
X86920000Y-39479000D01*
G75*
G02*
X87120000Y-39679000I0J-200000D01*
G01*
X87120000Y-40079000D01*
G75*
G02*
X86920000Y-40279000I-200000J0D01*
G01*
X86370000Y-40279000D01*
G75*
G02*
X86170000Y-40079000I0J200000D01*
G01*
X86170000Y-39679000D01*
G75*
G02*
X86370000Y-39479000I200000J0D01*
G01*
G37*
%TD.AperFunction*%
%TD*%
%TO.P,R19,2*%
%TO.N,Net-(C11-Pad2)*%
%TA.AperFunction,SMDPad,CuDef*%
G36*
G01*
X87894000Y-41129000D02*
X88444000Y-41129000D01*
G75*
G02*
X88644000Y-41329000I0J-200000D01*
G01*
X88644000Y-41729000D01*
G75*
G02*
X88444000Y-41929000I-200000J0D01*
G01*
X87894000Y-41929000D01*
G75*
G02*
X87694000Y-41729000I0J200000D01*
G01*
X87694000Y-41329000D01*
G75*
G02*
X87894000Y-41129000I200000J0D01*
G01*
G37*
%TD.AperFunction*%
%TO.P,R19,1*%
%TO.N,Net-(C11-Pad1)*%
%TA.AperFunction,SMDPad,CuDef*%
G36*
G01*
X87894000Y-39479000D02*
X88444000Y-39479000D01*
G75*
G02*
X88644000Y-39679000I0J-200000D01*
G01*
X88644000Y-40079000D01*
G75*
G02*
X88444000Y-40279000I-200000J0D01*
G01*
X87894000Y-40279000D01*
G75*
G02*
X87694000Y-40079000I0J200000D01*
G01*
X87694000Y-39679000D01*
G75*
G02*
X87894000Y-39479000I200000J0D01*
G01*
G37*
%TD.AperFunction*%
%TD*%
%TO.P,R10,2*%
%TO.N,Net-(C4-Pad2)*%
%TA.AperFunction,SMDPad,CuDef*%
G36*
G01*
X59192000Y-41129000D02*
X59742000Y-41129000D01*
G75*
G02*
X59942000Y-41329000I0J-200000D01*
G01*
X59942000Y-41729000D01*
G75*
G02*
X59742000Y-41929000I-200000J0D01*
G01*
X59192000Y-41929000D01*
G75*
G02*
X58992000Y-41729000I0J200000D01*
G01*
X58992000Y-41329000D01*
G75*
G02*
X59192000Y-41129000I200000J0D01*
G01*
G37*
%TD.AperFunction*%
%TO.P,R10,1*%
%TO.N,Net-(C4-Pad1)*%
%TA.AperFunction,SMDPad,CuDef*%
G36*
G01*
X59192000Y-39479000D02*
X59742000Y-39479000D01*
G75*
G02*
X59942000Y-39679000I0J-200000D01*
G01*
X59942000Y-40079000D01*
G75*
G02*
X59742000Y-40279000I-200000J0D01*
G01*
X59192000Y-40279000D01*
G75*
G02*
X58992000Y-40079000I0J200000D01*
G01*
X58992000Y-39679000D01*
G75*
G02*
X59192000Y-39479000I200000J0D01*
G01*
G37*
%TD.AperFunction*%
%TD*%
%TO.P,R9,2*%
%TO.N,Net-(C3-Pad2)*%
%TA.AperFunction,SMDPad,CuDef*%
G36*
G01*
X60716000Y-41129000D02*
X61266000Y-41129000D01*
G75*
G02*
X61466000Y-41329000I0J-200000D01*
G01*
X61466000Y-41729000D01*
G75*
G02*
X61266000Y-41929000I-200000J0D01*
G01*
X60716000Y-41929000D01*
G75*
G02*
X60516000Y-41729000I0J200000D01*
G01*
X60516000Y-41329000D01*
G75*
G02*
X60716000Y-41129000I200000J0D01*
G01*
G37*
%TD.AperFunction*%
%TO.P,R9,1*%
%TO.N,Net-(C3-Pad1)*%
%TA.AperFunction,SMDPad,CuDef*%
G36*
G01*
X60716000Y-39479000D02*
X61266000Y-39479000D01*
G75*
G02*
X61466000Y-39679000I0J-200000D01*
G01*
X61466000Y-40079000D01*
G75*
G02*
X61266000Y-40279000I-200000J0D01*
G01*
X60716000Y-40279000D01*
G75*
G02*
X60516000Y-40079000I0J200000D01*
G01*
X60516000Y-39679000D01*
G75*
G02*
X60716000Y-39479000I200000J0D01*
G01*
G37*
%TD.AperFunction*%
%TD*%
%TO.P,R18,2*%
%TO.N,Net-(C12-Pad1)*%
%TA.AperFunction,SMDPad,CuDef*%
G36*
G01*
X84721000Y-40153000D02*
X84721000Y-39603000D01*
G75*
G02*
X84921000Y-39403000I200000J0D01*
G01*
X85321000Y-39403000D01*
G75*
G02*
X85521000Y-39603000I0J-200000D01*
G01*
X85521000Y-40153000D01*
G75*
G02*
X85321000Y-40353000I-200000J0D01*
G01*
X84921000Y-40353000D01*
G75*
G02*
X84721000Y-40153000I0J200000D01*
G01*
G37*
%TD.AperFunction*%
%TO.P,R18,1*%
%TO.N,Net-(Q6-Pad3)*%
%TA.AperFunction,SMDPad,CuDef*%
G36*
G01*
X83071000Y-40153000D02*
X83071000Y-39603000D01*
G75*
G02*
X83271000Y-39403000I200000J0D01*
G01*
X83671000Y-39403000D01*
G75*
G02*
X83871000Y-39603000I0J-200000D01*
G01*
X83871000Y-40153000D01*
G75*
G02*
X83671000Y-40353000I-200000J0D01*
G01*
X83271000Y-40353000D01*
G75*
G02*
X83071000Y-40153000I0J200000D01*
G01*
G37*
%TD.AperFunction*%
%TD*%
%TO.P,R6,2*%
%TO.N,Net-(C4-Pad1)*%
%TA.AperFunction,SMDPad,CuDef*%
G36*
G01*
X62915000Y-39603000D02*
X62915000Y-40153000D01*
G75*
G02*
X62715000Y-40353000I-200000J0D01*
G01*
X62315000Y-40353000D01*
G75*
G02*
X62115000Y-40153000I0J200000D01*
G01*
X62115000Y-39603000D01*
G75*
G02*
X62315000Y-39403000I200000J0D01*
G01*
X62715000Y-39403000D01*
G75*
G02*
X62915000Y-39603000I0J-200000D01*
G01*
G37*
%TD.AperFunction*%
%TO.P,R6,1*%
%TO.N,Net-(Q2-Pad3)*%
%TA.AperFunction,SMDPad,CuDef*%
G36*
G01*
X64565000Y-39603000D02*
X64565000Y-40153000D01*
G75*
G02*
X64365000Y-40353000I-200000J0D01*
G01*
X63965000Y-40353000D01*
G75*
G02*
X63765000Y-40153000I0J200000D01*
G01*
X63765000Y-39603000D01*
G75*
G02*
X63965000Y-39403000I200000J0D01*
G01*
X64365000Y-39403000D01*
G75*
G02*
X64565000Y-39603000I0J-200000D01*
G01*
G37*
%TD.AperFunction*%
%TD*%
D16*
%TO.P,Q4,3*%
%TO.N,/scl0*%
X47021000Y-47432000D03*
%TO.P,Q4,2*%
%TO.N,Net-(Q4-Pad2)*%
X49021000Y-46482000D03*
%TO.P,Q4,1*%
%TO.N,+5P*%
X49021000Y-48382000D03*
%TD*%
%TO.P,Q3,3*%
%TO.N,/sda0*%
X47021000Y-51054000D03*
%TO.P,Q3,2*%
%TO.N,Net-(Q3-Pad2)*%
X49021000Y-50104000D03*
%TO.P,Q3,1*%
%TO.N,+5P*%
X49021000Y-52004000D03*
%TD*%
D15*
%TO.P,PS1,4*%
%TO.N,Net-(C6-Pad2)*%
X54641000Y-61849000D03*
%TO.P,PS1,3*%
%TO.N,GND2*%
X52101000Y-61849000D03*
%TO.P,PS1,2*%
%TO.N,+5P*%
X49561000Y-61849000D03*
D14*
%TO.P,PS1,1*%
%TO.N,GND1*%
X47021000Y-61849000D03*
%TD*%
D13*
%TO.P,K1,16*%
%TO.N,Net-(C3-Pad2)*%
X66833000Y-43942000D03*
%TO.P,K1,15*%
%TO.N,Net-(C4-Pad2)*%
X66833000Y-46482000D03*
%TO.P,K1,13*%
%TO.N,Net-(J1-Pad1)*%
X66833000Y-51562000D03*
%TO.P,K1,11*%
%TO.N,Net-(C5-Pad2)*%
X66833000Y-56642000D03*
%TO.P,K1,9*%
%TO.N,Net-(K1-Pad8)*%
X66833000Y-61722000D03*
%TO.P,K1,8*%
X59213000Y-61722000D03*
%TO.P,K1,6*%
%TO.N,Net-(C7-Pad1)*%
X59213000Y-56642000D03*
%TO.P,K1,4*%
%TO.N,Net-(C5-Pad1)*%
X59213000Y-51562000D03*
%TO.P,K1,2*%
%TO.N,+5VP*%
X59213000Y-46482000D03*
D12*
%TO.P,K1,1*%
X59213000Y-43942000D03*
%TD*%
%TA.AperFunction,SMDPad,CuDef*%
D11*
%TO.P,JP1,1*%
%TO.N,Net-(C6-Pad2)*%
G36*
X53371000Y-54679000D02*
G01*
X54121000Y-55179000D01*
X54121000Y-56179000D01*
X52621000Y-56179000D01*
X52621000Y-55179000D01*
X53371000Y-54679000D01*
G37*
%TD.AperFunction*%
%TA.AperFunction,SMDPad,CuDef*%
%TO.P,JP1,2*%
%TO.N,+5VP*%
G36*
X54121000Y-53729000D02*
G01*
X54121000Y-54879000D01*
X53371000Y-54379000D01*
X52621000Y-54879000D01*
X52621000Y-53729000D01*
X54121000Y-53729000D01*
G37*
%TD.AperFunction*%
%TD*%
D10*
%TO.P,C7,2*%
%TO.N,Net-(C5-Pad2)*%
X92741000Y-60045000D03*
%TO.P,C7,1*%
%TO.N,Net-(C7-Pad1)*%
X92741000Y-42545000D03*
%TD*%
%TO.P,C13,2*%
%TO.N,GND2*%
%TA.AperFunction,SMDPad,CuDef*%
G36*
G01*
X74395000Y-42549000D02*
X74395000Y-43049000D01*
G75*
G02*
X74170000Y-43274000I-225000J0D01*
G01*
X73720000Y-43274000D01*
G75*
G02*
X73495000Y-43049000I0J225000D01*
G01*
X73495000Y-42549000D01*
G75*
G02*
X73720000Y-42324000I225000J0D01*
G01*
X74170000Y-42324000D01*
G75*
G02*
X74395000Y-42549000I0J-225000D01*
G01*
G37*
%TD.AperFunction*%
%TO.P,C13,1*%
%TO.N,+5VP*%
%TA.AperFunction,SMDPad,CuDef*%
G36*
G01*
X75945000Y-42549000D02*
X75945000Y-43049000D01*
G75*
G02*
X75720000Y-43274000I-225000J0D01*
G01*
X75270000Y-43274000D01*
G75*
G02*
X75045000Y-43049000I0J225000D01*
G01*
X75045000Y-42549000D01*
G75*
G02*
X75270000Y-42324000I225000J0D01*
G01*
X75720000Y-42324000D01*
G75*
G02*
X75945000Y-42549000I0J-225000D01*
G01*
G37*
%TD.AperFunction*%
%TD*%
D23*
%TO.N,Net-(C3-Pad2)*%
X60991000Y-41529000D03*
X60991000Y-66529000D03*
%TO.N,Net-(C3-Pad1)*%
X60991000Y-39878000D03*
X60991000Y-64878000D03*
%TO.N,Net-(C4-Pad2)*%
X59467000Y-41529000D03*
X59467000Y-66529000D03*
%TO.N,Net-(C4-Pad1)*%
X59467000Y-39878000D03*
X59467000Y-64878000D03*
%TO.N,GND1*%
X53980000Y-41275000D03*
X53980000Y-66275000D03*
%TO.N,+5P*%
X50577000Y-51943000D03*
X50577000Y-48260000D03*
X50577000Y-76943000D03*
X50577000Y-73260000D03*
%TO.N,Net-(C11-Pad1)*%
X88169000Y-39878000D03*
X88169000Y-64878000D03*
%TO.N,GND2*%
X73945000Y-42799000D03*
X69119000Y-39497000D03*
X78517000Y-39497000D03*
X67595000Y-39560500D03*
X80041000Y-39560500D03*
X53472032Y-50419000D03*
X73945000Y-67799000D03*
X69119000Y-64497000D03*
X78517000Y-64497000D03*
X67595000Y-64560500D03*
X80041000Y-64560500D03*
X53472032Y-75419000D03*
%TO.N,+5VP*%
X75495000Y-42799000D03*
D24*
X54895006Y-53340000D03*
D23*
X75495000Y-67799000D03*
D24*
X54895006Y-78340000D03*
D23*
%TO.N,/scl0*%
X47021000Y-47432000D03*
X45497000Y-50736500D03*
X47021000Y-72432000D03*
X45497000Y-75736500D03*
%TO.N,/sda0*%
X45497000Y-52197000D03*
X45497000Y-77197000D03*
%TO.N,/I2C_SDA*%
X75115886Y-44916284D03*
X55403000Y-46736000D03*
X75115886Y-69916284D03*
X55403000Y-71736000D03*
%TO.N,/I2C_SCL*%
X75115814Y-46015892D03*
X54133000Y-46736000D03*
X75115814Y-71015892D03*
X54133000Y-71736000D03*
%TO.N,/K1_set*%
X70896992Y-43688000D03*
X70896992Y-68688000D03*
%TO.N,/K2_set*%
X77333000Y-46441000D03*
X77333000Y-71441000D03*
%TO.N,/K2_rst*%
X77755000Y-42661000D03*
X72997423Y-45630732D03*
X77755000Y-67661000D03*
X72997423Y-70630732D03*
D24*
%TO.N,Net-(C6-Pad2)*%
X53371000Y-57658000D03*
X53371000Y-82658000D03*
D23*
%TO.N,Net-(C11-Pad2)*%
X88169000Y-41529000D03*
X88169000Y-66529000D03*
%TO.N,Net-(C12-Pad2)*%
X86645000Y-41529000D03*
X86645000Y-66529000D03*
%TO.N,Net-(C12-Pad1)*%
X86645000Y-39878000D03*
X86645000Y-64878000D03*
%TD*%
D25*
%TO.N,Net-(C3-Pad2)*%
X63404000Y-43942000D02*
X60991000Y-41529000D01*
X66833000Y-43942000D02*
X63404000Y-43942000D01*
X63404000Y-68942000D02*
X60991000Y-66529000D01*
X66833000Y-68942000D02*
X63404000Y-68942000D01*
%TO.N,Net-(C4-Pad2)*%
X64420000Y-46482000D02*
X59467000Y-41529000D01*
X66833000Y-46482000D02*
X64420000Y-46482000D01*
X64420000Y-71482000D02*
X59467000Y-66529000D01*
X66833000Y-71482000D02*
X64420000Y-71482000D01*
%TO.N,Net-(C4-Pad1)*%
X60318001Y-39027999D02*
X59467000Y-39879000D01*
X61664999Y-39027999D02*
X60318001Y-39027999D01*
X62515000Y-39878000D02*
X61664999Y-39027999D01*
X60318001Y-64027999D02*
X59467000Y-64879000D01*
X61664999Y-64027999D02*
X60318001Y-64027999D01*
X62515000Y-64878000D02*
X61664999Y-64027999D01*
%TO.N,GND1*%
X52863000Y-42392000D02*
X53980000Y-41275000D01*
X52863000Y-43372000D02*
X52863000Y-42392000D01*
X52863000Y-67392000D02*
X53980000Y-66275000D01*
X52863000Y-68372000D02*
X52863000Y-67392000D01*
%TO.N,+5P*%
X56673000Y-42418000D02*
X55530000Y-41275000D01*
X56673000Y-43372000D02*
X56673000Y-42418000D01*
X50515000Y-52004000D02*
X50577000Y-51942000D01*
X49021000Y-52004000D02*
X50515000Y-52004000D01*
X47340000Y-52004000D02*
X45497000Y-53847000D01*
X49021000Y-52004000D02*
X47340000Y-52004000D01*
X49021000Y-48382000D02*
X50454000Y-48382000D01*
X50454000Y-48382000D02*
X50577000Y-48259000D01*
X46201500Y-48382000D02*
X45497000Y-49086500D01*
X49021000Y-48382000D02*
X46201500Y-48382000D01*
D26*
X51271010Y-40199990D02*
X48291000Y-43180000D01*
X54929990Y-40199990D02*
X51271010Y-40199990D01*
X55530000Y-40800000D02*
X54929990Y-40199990D01*
X55530000Y-41275000D02*
X55530000Y-40800000D01*
D25*
X56673000Y-67418000D02*
X55530000Y-66275000D01*
X56673000Y-68372000D02*
X56673000Y-67418000D01*
X50515000Y-77004000D02*
X50577000Y-76942000D01*
X49021000Y-77004000D02*
X50515000Y-77004000D01*
X47340000Y-77004000D02*
X45497000Y-78847000D01*
X49021000Y-77004000D02*
X47340000Y-77004000D01*
X49021000Y-73382000D02*
X50454000Y-73382000D01*
X50454000Y-73382000D02*
X50577000Y-73259000D01*
X46201500Y-73382000D02*
X45497000Y-74086500D01*
X49021000Y-73382000D02*
X46201500Y-73382000D01*
D26*
X51271010Y-65199990D02*
X48291000Y-68180000D01*
X54929990Y-65199990D02*
X51271010Y-65199990D01*
X55530000Y-65800000D02*
X54929990Y-65199990D01*
X55530000Y-66275000D02*
X55530000Y-65800000D01*
D25*
%TO.N,GND2*%
X52863000Y-49809968D02*
X53472032Y-50419000D01*
X52863000Y-48322000D02*
X52863000Y-49809968D01*
D27*
X73945000Y-45793157D02*
X73945000Y-42799000D01*
X73297157Y-46441000D02*
X73945000Y-45793157D01*
X71922000Y-46441000D02*
X73297157Y-46441000D01*
D25*
X52863000Y-74809968D02*
X53472032Y-75419000D01*
X52863000Y-73322000D02*
X52863000Y-74809968D01*
D27*
X73945000Y-70793157D02*
X73945000Y-67799000D01*
X73297157Y-71441000D02*
X73945000Y-70793157D01*
X71922000Y-71441000D02*
X73297157Y-71441000D01*
D28*
%TO.N,+5VP*%
X79787000Y-43942000D02*
X79787000Y-46482000D01*
X59213000Y-43942000D02*
X59213000Y-46482000D01*
D27*
X53371000Y-53721000D02*
X53371000Y-54229000D01*
D29*
X79406000Y-43561000D02*
X79787000Y-43942000D01*
X76993000Y-43561000D02*
X79406000Y-43561000D01*
X76231000Y-42799000D02*
X76993000Y-43561000D01*
X75495000Y-42799000D02*
X75495000Y-42799000D01*
D25*
X55551000Y-50419000D02*
X55022000Y-50419000D01*
X56673000Y-49297000D02*
X55551000Y-50419000D01*
X56673000Y-48322000D02*
X56673000Y-49297000D01*
D27*
X75495000Y-43764000D02*
X76222000Y-44491000D01*
X75495000Y-42799000D02*
X75495000Y-43764000D01*
D29*
X75495000Y-42799000D02*
X76231000Y-42799000D01*
D26*
X55022000Y-50419000D02*
X55022000Y-50894000D01*
X53371000Y-53721000D02*
X53752000Y-53340000D01*
X53752000Y-53340000D02*
X54895006Y-53340000D01*
X55022000Y-50894000D02*
X54895006Y-51020994D01*
X54895006Y-51020994D02*
X54895006Y-53340000D01*
D28*
X79787000Y-68942000D02*
X79787000Y-71482000D01*
X59213000Y-68942000D02*
X59213000Y-71482000D01*
D27*
X53371000Y-78721000D02*
X53371000Y-79229000D01*
D29*
X79406000Y-68561000D02*
X79787000Y-68942000D01*
X76993000Y-68561000D02*
X79406000Y-68561000D01*
X76231000Y-67799000D02*
X76993000Y-68561000D01*
X75495000Y-67799000D02*
X75495000Y-67799000D01*
D25*
X55551000Y-75419000D02*
X55022000Y-75419000D01*
X56673000Y-74297000D02*
X55551000Y-75419000D01*
X56673000Y-73322000D02*
X56673000Y-74297000D01*
D27*
X75495000Y-68764000D02*
X76222000Y-69491000D01*
X75495000Y-67799000D02*
X75495000Y-68764000D01*
D29*
X75495000Y-67799000D02*
X76231000Y-67799000D01*
D26*
X55022000Y-75419000D02*
X55022000Y-75894000D01*
X53371000Y-78721000D02*
X53752000Y-78340000D01*
X53752000Y-78340000D02*
X54895006Y-78340000D01*
X55022000Y-75894000D02*
X54895006Y-76020994D01*
X54895006Y-76020994D02*
X54895006Y-78340000D01*
D27*
%TO.N,/sda0*%
X47021000Y-51054000D02*
X46640000Y-51054000D01*
X46640000Y-51054000D02*
X45497000Y-52197000D01*
X47021000Y-76054000D02*
X46640000Y-76054000D01*
X46640000Y-76054000D02*
X45497000Y-77197000D01*
D30*
%TO.N,Net-(K1-Pad8)*%
X66305010Y-62249990D02*
X66833000Y-61722000D01*
X59740990Y-62249990D02*
X66305010Y-62249990D01*
X59213000Y-61722000D02*
X59740990Y-62249990D01*
X66305010Y-87249990D02*
X66833000Y-86722000D01*
X59740990Y-87249990D02*
X66305010Y-87249990D01*
X59213000Y-86722000D02*
X59740990Y-87249990D01*
D27*
%TO.N,/I2C_SDA*%
X76222000Y-45141000D02*
X75340602Y-45141000D01*
X75340602Y-45141000D02*
X75115886Y-44916284D01*
X55403000Y-48322000D02*
X55403000Y-46736000D01*
X76222000Y-70141000D02*
X75340602Y-70141000D01*
X75340602Y-70141000D02*
X75115886Y-69916284D01*
X55403000Y-73322000D02*
X55403000Y-71736000D01*
%TO.N,/I2C_SCL*%
X76222000Y-45791000D02*
X75340706Y-45791000D01*
X75340706Y-45791000D02*
X75115814Y-46015892D01*
X54133000Y-48322000D02*
X54133000Y-46736000D01*
X76222000Y-70791000D02*
X75340706Y-70791000D01*
X75340706Y-70791000D02*
X75115814Y-71015892D01*
X54133000Y-73322000D02*
X54133000Y-71736000D01*
D31*
%TO.N,Net-(Q6-Pad1)*%
X76867000Y-41337500D02*
X76866000Y-41338500D01*
X76881990Y-40463490D02*
X76867000Y-40448500D01*
X81941000Y-39560500D02*
X81038010Y-40463490D01*
X76867000Y-40448500D02*
X76867000Y-41337500D01*
X81038010Y-40463490D02*
X76881990Y-40463490D01*
X76867000Y-39497000D02*
X76867000Y-40448500D01*
X76867000Y-66337500D02*
X76866000Y-66338500D01*
X76881990Y-65463490D02*
X76867000Y-65448500D01*
X81941000Y-64560500D02*
X81038010Y-65463490D01*
X76867000Y-65448500D02*
X76867000Y-66337500D01*
X81038010Y-65463490D02*
X76881990Y-65463490D01*
X76867000Y-64497000D02*
X76867000Y-65448500D01*
D27*
%TO.N,/K1_set*%
X70896992Y-44782992D02*
X70896992Y-43688000D01*
X71255000Y-45141000D02*
X70896992Y-44782992D01*
X71922000Y-45141000D02*
X71255000Y-45141000D01*
X70896992Y-69782992D02*
X70896992Y-68688000D01*
X71255000Y-70141000D02*
X70896992Y-69782992D01*
X71922000Y-70141000D02*
X71255000Y-70141000D01*
%TO.N,/K1_rst*%
X71922000Y-44491000D02*
X71922000Y-42174000D01*
X71922000Y-42174000D02*
X70769000Y-41021000D01*
X71922000Y-69491000D02*
X71922000Y-67174000D01*
X71922000Y-67174000D02*
X70769000Y-66021000D01*
%TO.N,/K2_set*%
X76222000Y-46441000D02*
X77333000Y-46441000D01*
X76222000Y-71441000D02*
X77333000Y-71441000D01*
%TO.N,/K2_rst*%
X78516000Y-41900000D02*
X77755000Y-42661000D01*
X78516000Y-41338500D02*
X78516000Y-41900000D01*
X71922000Y-45791000D02*
X72837155Y-45791000D01*
X72837155Y-45791000D02*
X72997423Y-45630732D01*
X78516000Y-66900000D02*
X77755000Y-67661000D01*
X78516000Y-66338500D02*
X78516000Y-66900000D01*
X71922000Y-70791000D02*
X72837155Y-70791000D01*
X72837155Y-70791000D02*
X72997423Y-70630732D01*
D25*
%TO.N,Net-(Q6-Pad3)*%
X81788500Y-41560500D02*
X83471000Y-39878000D01*
X80991000Y-41560500D02*
X81788500Y-41560500D01*
X81788500Y-66560500D02*
X83471000Y-64878000D01*
X80991000Y-66560500D02*
X81788500Y-66560500D01*
D30*
%TO.N,Net-(C5-Pad2)*%
X77882000Y-59182000D02*
X84613000Y-59182000D01*
X76739000Y-58039000D02*
X77882000Y-59182000D01*
X68230000Y-58039000D02*
X76739000Y-58039000D01*
X66833000Y-56642000D02*
X68230000Y-58039000D01*
X86010000Y-56642000D02*
X87407000Y-56642000D01*
X84613000Y-58039000D02*
X86010000Y-56642000D01*
X84613000Y-59182000D02*
X84613000Y-58039000D01*
X91725000Y-56642000D02*
X87407000Y-56642000D01*
X93249990Y-58166990D02*
X91725000Y-56642000D01*
X93249990Y-59536010D02*
X93249990Y-58166990D01*
X92741000Y-60045000D02*
X93249990Y-59536010D01*
X77882000Y-84182000D02*
X84613000Y-84182000D01*
X76739000Y-83039000D02*
X77882000Y-84182000D01*
X68230000Y-83039000D02*
X76739000Y-83039000D01*
X66833000Y-81642000D02*
X68230000Y-83039000D01*
X86010000Y-81642000D02*
X87407000Y-81642000D01*
X84613000Y-83039000D02*
X86010000Y-81642000D01*
X84613000Y-84182000D02*
X84613000Y-83039000D01*
X91725000Y-81642000D02*
X87407000Y-81642000D01*
X93249990Y-83166990D02*
X91725000Y-81642000D01*
X93249990Y-84536010D02*
X93249990Y-83166990D01*
X92741000Y-85045000D02*
X93249990Y-84536010D01*
D28*
%TO.N,Net-(C6-Pad2)*%
X53371000Y-55679000D02*
X53371000Y-57658000D01*
X53371000Y-80679000D02*
X53371000Y-82658000D01*
D30*
%TO.N,Net-(C7-Pad1)*%
X87407000Y-51562000D02*
X84867000Y-51562000D01*
X81311000Y-55118000D02*
X84867000Y-51562000D01*
X79787000Y-56642000D02*
X79787000Y-55118000D01*
X79787000Y-55118000D02*
X81311000Y-55118000D01*
X78263000Y-55118000D02*
X79787000Y-55118000D01*
X77247000Y-54102000D02*
X78263000Y-55118000D01*
X61753000Y-54102000D02*
X77247000Y-54102000D01*
X59213000Y-56642000D02*
X61753000Y-54102000D01*
X87534000Y-51562000D02*
X85248000Y-51562000D01*
X90836000Y-51562000D02*
X87407000Y-51562000D01*
X93249990Y-49148010D02*
X90836000Y-51562000D01*
X93249990Y-43053990D02*
X93249990Y-49148010D01*
X92741000Y-42545000D02*
X93249990Y-43053990D01*
X87407000Y-76562000D02*
X84867000Y-76562000D01*
X81311000Y-80118000D02*
X84867000Y-76562000D01*
X79787000Y-81642000D02*
X79787000Y-80118000D01*
X79787000Y-80118000D02*
X81311000Y-80118000D01*
X78263000Y-80118000D02*
X79787000Y-80118000D01*
X77247000Y-79102000D02*
X78263000Y-80118000D01*
X61753000Y-79102000D02*
X77247000Y-79102000D01*
X59213000Y-81642000D02*
X61753000Y-79102000D01*
X87534000Y-76562000D02*
X85248000Y-76562000D01*
X90836000Y-76562000D02*
X87407000Y-76562000D01*
X93249990Y-74148010D02*
X90836000Y-76562000D01*
X93249990Y-68053990D02*
X93249990Y-74148010D01*
X92741000Y-67545000D02*
X93249990Y-68053990D01*
D25*
%TO.N,Net-(C11-Pad2)*%
X87407000Y-42291000D02*
X87407000Y-43942000D01*
X88169000Y-41529000D02*
X87407000Y-42291000D01*
X87407000Y-67291000D02*
X87407000Y-68942000D01*
X88169000Y-66529000D02*
X87407000Y-67291000D01*
%TO.N,Net-(C12-Pad2)*%
X86518000Y-41656000D02*
X86645000Y-41529000D01*
X86137000Y-42037000D02*
X86645000Y-41529000D01*
X86137000Y-45212000D02*
X86137000Y-42037000D01*
X87407000Y-46482000D02*
X86137000Y-45212000D01*
X86518000Y-66656000D02*
X86645000Y-66529000D01*
X86137000Y-67037000D02*
X86645000Y-66529000D01*
X86137000Y-70212000D02*
X86137000Y-67037000D01*
X87407000Y-71482000D02*
X86137000Y-70212000D01*
%TO.N,Net-(C12-Pad1)*%
X86644000Y-39878000D02*
X86645000Y-39879000D01*
X85121000Y-39878000D02*
X86644000Y-39878000D01*
X86644000Y-64878000D02*
X86645000Y-64879000D01*
X85121000Y-64878000D02*
X86644000Y-64878000D01*
%TO.N,Net-(Q2-Pad3)*%
X64797500Y-40510500D02*
X64165000Y-39878000D01*
X65595000Y-40510500D02*
X64797500Y-40510500D01*
X64797500Y-65510500D02*
X64165000Y-64878000D01*
X65595000Y-65510500D02*
X64797500Y-65510500D01*
%TO.N,Net-(Q2-Pad1)*%
X68679500Y-41460500D02*
X69119000Y-41021000D01*
X67595000Y-41460500D02*
X68679500Y-41460500D01*
X69245000Y-41021000D02*
X70769000Y-39497000D01*
X69119000Y-41021000D02*
X69245000Y-41021000D01*
X68679500Y-66460500D02*
X69119000Y-66021000D01*
X67595000Y-66460500D02*
X68679500Y-66460500D01*
X69245000Y-66021000D02*
X70769000Y-64497000D01*
X69119000Y-66021000D02*
X69245000Y-66021000D01*
D27*
%TO.N,Net-(Q3-Pad2)*%
X55403000Y-44069000D02*
X55403000Y-43372000D01*
X52212990Y-47259010D02*
X55403000Y-44069000D01*
X52212990Y-48256010D02*
X52212990Y-47259010D01*
X50577000Y-49892000D02*
X52212990Y-48256010D01*
X50577000Y-50292000D02*
X50577000Y-49892000D01*
X50389000Y-50104000D02*
X50577000Y-50292000D01*
X49021000Y-50104000D02*
X50389000Y-50104000D01*
X55403000Y-69069000D02*
X55403000Y-68372000D01*
X52212990Y-72259010D02*
X55403000Y-69069000D01*
X52212990Y-73256010D02*
X52212990Y-72259010D01*
X50577000Y-74892000D02*
X52212990Y-73256010D01*
X50577000Y-75292000D02*
X50577000Y-74892000D01*
X50389000Y-75104000D02*
X50577000Y-75292000D01*
X49021000Y-75104000D02*
X50389000Y-75104000D01*
%TO.N,Net-(Q4-Pad2)*%
X51593000Y-46609000D02*
X50577000Y-46609000D01*
X54133000Y-44069000D02*
X51593000Y-46609000D01*
X54133000Y-43372000D02*
X54133000Y-44069000D01*
X50450000Y-46482000D02*
X50577000Y-46609000D01*
X49021000Y-46482000D02*
X50450000Y-46482000D01*
X51593000Y-71609000D02*
X50577000Y-71609000D01*
X54133000Y-69069000D02*
X51593000Y-71609000D01*
X54133000Y-68372000D02*
X54133000Y-69069000D01*
X50450000Y-71482000D02*
X50577000Y-71609000D01*
X49021000Y-71482000D02*
X50450000Y-71482000D01*
%TD*%
M02*
