%TF.GenerationSoftware,KiCad,Pcbnew,(5.1.10)-1*%
%TF.CreationDate,2022-01-18T18:11:06+07:00*%
%TF.ProjectId,Fan_controller_v3_pnlz1x2,46616e5f-636f-46e7-9472-6f6c6c65725f,rev?*%
%TF.SameCoordinates,Original*%
%TF.FileFunction,Copper,L2,Inr*%
%TF.FilePolarity,Positive*%
%FSLAX46Y46*%
G04 Gerber Fmt 4.6, Leading zero omitted, Abs format (unit mm)*
G04 Created by KiCad (PCBNEW (5.1.10)-1) date 2022-01-18 18:11:06*
%MOMM*%
%LPD*%
G01*
G04 APERTURE LIST*
%TA.AperFunction,ComponentPad*%
%ADD10C,2.000000*%
%TD*%
%TA.AperFunction,ComponentPad*%
%ADD11R,1.600000X1.600000*%
%TD*%
%TA.AperFunction,ComponentPad*%
%ADD12C,1.600000*%
%TD*%
%TA.AperFunction,ComponentPad*%
%ADD13R,1.750000X2.250000*%
%TD*%
%TA.AperFunction,ComponentPad*%
%ADD14O,1.750000X2.250000*%
%TD*%
%TA.AperFunction,ComponentPad*%
%ADD15R,1.000000X1.000000*%
%TD*%
%TA.AperFunction,ComponentPad*%
%ADD16O,1.000000X1.000000*%
%TD*%
%TA.AperFunction,ComponentPad*%
%ADD17O,1.700000X1.700000*%
%TD*%
%TA.AperFunction,ComponentPad*%
%ADD18R,1.700000X1.700000*%
%TD*%
%TA.AperFunction,ViaPad*%
%ADD19C,0.800000*%
%TD*%
%TA.AperFunction,ViaPad*%
%ADD20C,1.200000*%
%TD*%
%TA.AperFunction,Conductor*%
%ADD21C,0.254000*%
%TD*%
%TA.AperFunction,Conductor*%
%ADD22C,0.020000*%
%TD*%
G04 APERTURE END LIST*
D10*
%TO.N,Net-(C7-Pad1)*%
%TO.C,C7*%
X92741000Y-67545000D03*
%TO.N,Net-(C5-Pad2)*%
X92741000Y-85045000D03*
%TD*%
D11*
%TO.N,+5VP*%
%TO.C,K1*%
X59213000Y-68942000D03*
D12*
X59213000Y-71482000D03*
%TO.N,Net-(C5-Pad1)*%
X59213000Y-76562000D03*
%TO.N,Net-(C7-Pad1)*%
X59213000Y-81642000D03*
%TO.N,Net-(K1-Pad8)*%
X59213000Y-86722000D03*
X66833000Y-86722000D03*
%TO.N,Net-(C5-Pad2)*%
X66833000Y-81642000D03*
%TO.N,Net-(J1-Pad1)*%
X66833000Y-76562000D03*
%TO.N,Net-(C4-Pad2)*%
X66833000Y-71482000D03*
%TO.N,Net-(C3-Pad2)*%
X66833000Y-68942000D03*
%TD*%
D13*
%TO.N,GND1*%
%TO.C,PS1*%
X47021000Y-86849000D03*
D14*
%TO.N,+5P*%
X49561000Y-86849000D03*
%TO.N,GND2*%
X52101000Y-86849000D03*
%TO.N,Net-(C6-Pad2)*%
X54641000Y-86849000D03*
%TD*%
D10*
%TO.N,GND2*%
%TO.C,TP1*%
X50640500Y-80118000D03*
%TD*%
%TO.N,Net-(C5-Pad1)*%
%TO.C,C5*%
X62113000Y-84182000D03*
%TO.N,Net-(C5-Pad2)*%
X84613000Y-84182000D03*
%TD*%
D15*
%TO.N,+5P*%
%TO.C,J2*%
X48291000Y-69450000D03*
D16*
X48291000Y-68180000D03*
%TO.N,GND1*%
X47021000Y-69450000D03*
X47021000Y-68180000D03*
%TO.N,/sda0*%
X45751000Y-69450000D03*
%TO.N,/scl0*%
X45751000Y-68180000D03*
%TD*%
D17*
%TO.N,Net-(J1-Pad3)*%
%TO.C,J1*%
X75850000Y-86468000D03*
%TO.N,N/C*%
X73310000Y-86468000D03*
D18*
%TO.N,Net-(J1-Pad1)*%
X70770000Y-86468000D03*
%TD*%
D12*
%TO.N,Net-(C11-Pad2)*%
%TO.C,K2*%
X87407000Y-68942000D03*
%TO.N,Net-(C12-Pad2)*%
X87407000Y-71482000D03*
%TO.N,Net-(C7-Pad1)*%
X87407000Y-76562000D03*
%TO.N,Net-(C5-Pad2)*%
X87407000Y-81642000D03*
%TO.N,Net-(K2-Pad8)*%
X87407000Y-86722000D03*
X79787000Y-86722000D03*
%TO.N,Net-(C7-Pad1)*%
X79787000Y-81642000D03*
%TO.N,Net-(J1-Pad3)*%
X79787000Y-76562000D03*
%TO.N,+5VP*%
X79787000Y-71482000D03*
D11*
X79787000Y-68942000D03*
%TD*%
D16*
%TO.N,/scl0*%
%TO.C,J2*%
X45751000Y-43180000D03*
%TO.N,/sda0*%
X45751000Y-44450000D03*
%TO.N,GND1*%
X47021000Y-43180000D03*
X47021000Y-44450000D03*
%TO.N,+5P*%
X48291000Y-43180000D03*
D15*
X48291000Y-44450000D03*
%TD*%
D10*
%TO.N,Net-(C5-Pad2)*%
%TO.C,C5*%
X84613000Y-59182000D03*
%TO.N,Net-(C5-Pad1)*%
X62113000Y-59182000D03*
%TD*%
D11*
%TO.N,+5VP*%
%TO.C,K2*%
X79787000Y-43942000D03*
D12*
X79787000Y-46482000D03*
%TO.N,Net-(J1-Pad3)*%
X79787000Y-51562000D03*
%TO.N,Net-(C7-Pad1)*%
X79787000Y-56642000D03*
%TO.N,Net-(K2-Pad8)*%
X79787000Y-61722000D03*
X87407000Y-61722000D03*
%TO.N,Net-(C5-Pad2)*%
X87407000Y-56642000D03*
%TO.N,Net-(C7-Pad1)*%
X87407000Y-51562000D03*
%TO.N,Net-(C12-Pad2)*%
X87407000Y-46482000D03*
%TO.N,Net-(C11-Pad2)*%
X87407000Y-43942000D03*
%TD*%
D18*
%TO.N,Net-(J1-Pad1)*%
%TO.C,J1*%
X70770000Y-61468000D03*
D17*
%TO.N,N/C*%
X73310000Y-61468000D03*
%TO.N,Net-(J1-Pad3)*%
X75850000Y-61468000D03*
%TD*%
D10*
%TO.N,GND2*%
%TO.C,TP1*%
X50640500Y-55118000D03*
%TD*%
D14*
%TO.N,Net-(C6-Pad2)*%
%TO.C,PS1*%
X54641000Y-61849000D03*
%TO.N,GND2*%
X52101000Y-61849000D03*
%TO.N,+5P*%
X49561000Y-61849000D03*
D13*
%TO.N,GND1*%
X47021000Y-61849000D03*
%TD*%
D12*
%TO.N,Net-(C3-Pad2)*%
%TO.C,K1*%
X66833000Y-43942000D03*
%TO.N,Net-(C4-Pad2)*%
X66833000Y-46482000D03*
%TO.N,Net-(J1-Pad1)*%
X66833000Y-51562000D03*
%TO.N,Net-(C5-Pad2)*%
X66833000Y-56642000D03*
%TO.N,Net-(K1-Pad8)*%
X66833000Y-61722000D03*
X59213000Y-61722000D03*
%TO.N,Net-(C7-Pad1)*%
X59213000Y-56642000D03*
%TO.N,Net-(C5-Pad1)*%
X59213000Y-51562000D03*
%TO.N,+5VP*%
X59213000Y-46482000D03*
D11*
X59213000Y-43942000D03*
%TD*%
D10*
%TO.N,Net-(C5-Pad2)*%
%TO.C,C7*%
X92741000Y-60045000D03*
%TO.N,Net-(C7-Pad1)*%
X92741000Y-42545000D03*
%TD*%
D19*
%TO.N,Net-(C3-Pad2)*%
X60991000Y-41529000D03*
X60991000Y-66529000D03*
%TO.N,Net-(C3-Pad1)*%
X60991000Y-39878000D03*
X60991000Y-64878000D03*
%TO.N,Net-(C4-Pad2)*%
X59467000Y-41529000D03*
X59467000Y-66529000D03*
%TO.N,Net-(C4-Pad1)*%
X59467000Y-39878000D03*
X59467000Y-64878000D03*
%TO.N,GND1*%
X53980000Y-41275000D03*
X53980000Y-66275000D03*
%TO.N,+5P*%
X50577000Y-51943000D03*
X50577000Y-48260000D03*
X50577000Y-76943000D03*
X50577000Y-73260000D03*
%TO.N,Net-(C11-Pad1)*%
X88169000Y-39878000D03*
X88169000Y-64878000D03*
%TO.N,GND2*%
X73945000Y-42799000D03*
X69119000Y-39497000D03*
X78517000Y-39497000D03*
X67595000Y-39560500D03*
X80041000Y-39560500D03*
X53472032Y-50419000D03*
X73945000Y-67799000D03*
X69119000Y-64497000D03*
X78517000Y-64497000D03*
X67595000Y-64560500D03*
X80041000Y-64560500D03*
X53472032Y-75419000D03*
%TO.N,+5VP*%
X75495000Y-42799000D03*
D20*
X54895006Y-53340000D03*
D19*
X75495000Y-67799000D03*
D20*
X54895006Y-78340000D03*
D19*
%TO.N,/scl0*%
X47021000Y-47432000D03*
X45497000Y-50736500D03*
X47021000Y-72432000D03*
X45497000Y-75736500D03*
%TO.N,/sda0*%
X45497000Y-52197000D03*
X45497000Y-77197000D03*
%TO.N,/I2C_SDA*%
X75115886Y-44916284D03*
X55403000Y-46736000D03*
X75115886Y-69916284D03*
X55403000Y-71736000D03*
%TO.N,/I2C_SCL*%
X75115814Y-46015892D03*
X54133000Y-46736000D03*
X75115814Y-71015892D03*
X54133000Y-71736000D03*
%TO.N,/K1_set*%
X70896992Y-43688000D03*
X70896992Y-68688000D03*
%TO.N,/K2_set*%
X77333000Y-46441000D03*
X77333000Y-71441000D03*
%TO.N,/K2_rst*%
X77755000Y-42661000D03*
X72997423Y-45630732D03*
X77755000Y-67661000D03*
X72997423Y-70630732D03*
D20*
%TO.N,Net-(C6-Pad2)*%
X53371000Y-57658000D03*
X53371000Y-82658000D03*
D19*
%TO.N,Net-(C11-Pad2)*%
X88169000Y-41529000D03*
X88169000Y-66529000D03*
%TO.N,Net-(C12-Pad2)*%
X86645000Y-41529000D03*
X86645000Y-66529000D03*
%TO.N,Net-(C12-Pad1)*%
X86645000Y-39878000D03*
X86645000Y-64878000D03*
%TD*%
D21*
%TO.N,+5VP*%
X67097141Y-38953858D02*
X66988358Y-39062641D01*
X66902887Y-39190558D01*
X66844013Y-39332691D01*
X66814000Y-39483578D01*
X66814000Y-39637422D01*
X66844013Y-39788309D01*
X66902887Y-39930442D01*
X66988358Y-40058359D01*
X67097141Y-40167142D01*
X67225058Y-40252613D01*
X67367191Y-40311487D01*
X67518078Y-40341500D01*
X67671922Y-40341500D01*
X67822809Y-40311487D01*
X67964942Y-40252613D01*
X68092859Y-40167142D01*
X68201642Y-40058359D01*
X68287113Y-39930442D01*
X68345987Y-39788309D01*
X68363315Y-39701192D01*
X68368013Y-39724809D01*
X68426887Y-39866942D01*
X68512358Y-39994859D01*
X68621141Y-40103642D01*
X68749058Y-40189113D01*
X68891191Y-40247987D01*
X69042078Y-40278000D01*
X69195922Y-40278000D01*
X69346809Y-40247987D01*
X69488942Y-40189113D01*
X69616859Y-40103642D01*
X69725642Y-39994859D01*
X69811113Y-39866942D01*
X69869987Y-39724809D01*
X69900000Y-39573922D01*
X69900000Y-39420078D01*
X69869987Y-39269191D01*
X69811113Y-39127058D01*
X69725642Y-38999141D01*
X69657501Y-38931000D01*
X77978499Y-38931000D01*
X77910358Y-38999141D01*
X77824887Y-39127058D01*
X77766013Y-39269191D01*
X77736000Y-39420078D01*
X77736000Y-39573922D01*
X77766013Y-39724809D01*
X77824887Y-39866942D01*
X77910358Y-39994859D01*
X78019141Y-40103642D01*
X78147058Y-40189113D01*
X78289191Y-40247987D01*
X78440078Y-40278000D01*
X78593922Y-40278000D01*
X78744809Y-40247987D01*
X78886942Y-40189113D01*
X79014859Y-40103642D01*
X79123642Y-39994859D01*
X79209113Y-39866942D01*
X79267987Y-39724809D01*
X79272685Y-39701192D01*
X79290013Y-39788309D01*
X79348887Y-39930442D01*
X79434358Y-40058359D01*
X79543141Y-40167142D01*
X79671058Y-40252613D01*
X79813191Y-40311487D01*
X79964078Y-40341500D01*
X80117922Y-40341500D01*
X80268809Y-40311487D01*
X80410942Y-40252613D01*
X80538859Y-40167142D01*
X80647642Y-40058359D01*
X80733113Y-39930442D01*
X80791987Y-39788309D01*
X80822000Y-39637422D01*
X80822000Y-39483578D01*
X80791987Y-39332691D01*
X80733113Y-39190558D01*
X80647642Y-39062641D01*
X80538859Y-38953858D01*
X80504649Y-38931000D01*
X88677000Y-38931000D01*
X88677000Y-39281499D01*
X88666859Y-39271358D01*
X88538942Y-39185887D01*
X88396809Y-39127013D01*
X88245922Y-39097000D01*
X88092078Y-39097000D01*
X87941191Y-39127013D01*
X87799058Y-39185887D01*
X87671141Y-39271358D01*
X87562358Y-39380141D01*
X87476887Y-39508058D01*
X87418013Y-39650191D01*
X87407000Y-39705558D01*
X87395987Y-39650191D01*
X87337113Y-39508058D01*
X87251642Y-39380141D01*
X87142859Y-39271358D01*
X87014942Y-39185887D01*
X86872809Y-39127013D01*
X86721922Y-39097000D01*
X86568078Y-39097000D01*
X86417191Y-39127013D01*
X86275058Y-39185887D01*
X86147141Y-39271358D01*
X86038358Y-39380141D01*
X85952887Y-39508058D01*
X85894013Y-39650191D01*
X85864000Y-39801078D01*
X85864000Y-39954922D01*
X85894013Y-40105809D01*
X85952887Y-40247942D01*
X86038358Y-40375859D01*
X86147141Y-40484642D01*
X86275058Y-40570113D01*
X86417191Y-40628987D01*
X86568078Y-40659000D01*
X86721922Y-40659000D01*
X86872809Y-40628987D01*
X87014942Y-40570113D01*
X87142859Y-40484642D01*
X87251642Y-40375859D01*
X87337113Y-40247942D01*
X87395987Y-40105809D01*
X87407000Y-40050442D01*
X87418013Y-40105809D01*
X87476887Y-40247942D01*
X87562358Y-40375859D01*
X87671141Y-40484642D01*
X87799058Y-40570113D01*
X87941191Y-40628987D01*
X88092078Y-40659000D01*
X88245922Y-40659000D01*
X88396809Y-40628987D01*
X88538942Y-40570113D01*
X88666859Y-40484642D01*
X88677000Y-40474501D01*
X88677000Y-40561289D01*
X88636693Y-40637096D01*
X88621817Y-40673188D01*
X88606419Y-40709114D01*
X88604640Y-40714863D01*
X88562954Y-40852931D01*
X88538942Y-40836887D01*
X88396809Y-40778013D01*
X88245922Y-40748000D01*
X88092078Y-40748000D01*
X87941191Y-40778013D01*
X87799058Y-40836887D01*
X87671141Y-40922358D01*
X87562358Y-41031141D01*
X87476887Y-41159058D01*
X87418013Y-41301191D01*
X87407000Y-41356558D01*
X87395987Y-41301191D01*
X87337113Y-41159058D01*
X87251642Y-41031141D01*
X87142859Y-40922358D01*
X87014942Y-40836887D01*
X86872809Y-40778013D01*
X86721922Y-40748000D01*
X86568078Y-40748000D01*
X86417191Y-40778013D01*
X86275058Y-40836887D01*
X86147141Y-40922358D01*
X86038358Y-41031141D01*
X85952887Y-41159058D01*
X85894013Y-41301191D01*
X85864000Y-41452078D01*
X85864000Y-41605922D01*
X85894013Y-41756809D01*
X85952887Y-41898942D01*
X86038358Y-42026859D01*
X86147141Y-42135642D01*
X86275058Y-42221113D01*
X86417191Y-42279987D01*
X86568078Y-42310000D01*
X86721922Y-42310000D01*
X86872809Y-42279987D01*
X87014942Y-42221113D01*
X87142859Y-42135642D01*
X87251642Y-42026859D01*
X87337113Y-41898942D01*
X87395987Y-41756809D01*
X87407000Y-41701442D01*
X87418013Y-41756809D01*
X87476887Y-41898942D01*
X87562358Y-42026859D01*
X87671141Y-42135642D01*
X87799058Y-42221113D01*
X87941191Y-42279987D01*
X88092078Y-42310000D01*
X88245922Y-42310000D01*
X88396809Y-42279987D01*
X88500001Y-42237243D01*
X88500000Y-43494636D01*
X88453588Y-43382587D01*
X88324342Y-43189157D01*
X88159843Y-43024658D01*
X87966413Y-42895412D01*
X87751485Y-42806386D01*
X87523318Y-42761000D01*
X87290682Y-42761000D01*
X87062515Y-42806386D01*
X86847587Y-42895412D01*
X86654157Y-43024658D01*
X86489658Y-43189157D01*
X86360412Y-43382587D01*
X86271386Y-43597515D01*
X86226000Y-43825682D01*
X86226000Y-44058318D01*
X86271386Y-44286485D01*
X86360412Y-44501413D01*
X86489658Y-44694843D01*
X86654157Y-44859342D01*
X86847587Y-44988588D01*
X87062515Y-45077614D01*
X87290682Y-45123000D01*
X87523318Y-45123000D01*
X87751485Y-45077614D01*
X87966413Y-44988588D01*
X88159843Y-44859342D01*
X88324342Y-44694843D01*
X88453588Y-44501413D01*
X88500000Y-44389364D01*
X88500000Y-44471167D01*
X88502168Y-44493178D01*
X88502168Y-44508017D01*
X88502797Y-44514002D01*
X88527663Y-44735686D01*
X88535784Y-44773890D01*
X88543372Y-44812215D01*
X88545152Y-44817964D01*
X88612603Y-45030597D01*
X88627989Y-45066495D01*
X88642878Y-45102619D01*
X88645735Y-45107903D01*
X88645739Y-45107912D01*
X88645744Y-45107919D01*
X88677000Y-45164774D01*
X88677000Y-47536899D01*
X88515584Y-47488164D01*
X88477298Y-47480583D01*
X88439053Y-47472454D01*
X88433070Y-47471825D01*
X88433068Y-47471825D01*
X88211058Y-47450057D01*
X88211052Y-47450057D01*
X88190168Y-47448000D01*
X88087021Y-47448000D01*
X88159843Y-47399342D01*
X88324342Y-47234843D01*
X88453588Y-47041413D01*
X88542614Y-46826485D01*
X88588000Y-46598318D01*
X88588000Y-46365682D01*
X88542614Y-46137515D01*
X88453588Y-45922587D01*
X88324342Y-45729157D01*
X88159843Y-45564658D01*
X87966413Y-45435412D01*
X87751485Y-45346386D01*
X87523318Y-45301000D01*
X87290682Y-45301000D01*
X87062515Y-45346386D01*
X86847587Y-45435412D01*
X86654157Y-45564658D01*
X86489658Y-45729157D01*
X86360412Y-45922587D01*
X86271386Y-46137515D01*
X86226000Y-46365682D01*
X86226000Y-46598318D01*
X86271386Y-46826485D01*
X86360412Y-47041413D01*
X86489658Y-47234843D01*
X86654157Y-47399342D01*
X86726979Y-47448000D01*
X86623832Y-47448000D01*
X86601821Y-47450168D01*
X86586983Y-47450168D01*
X86580997Y-47450797D01*
X86359314Y-47475663D01*
X86321110Y-47483784D01*
X86282785Y-47491372D01*
X86277038Y-47493151D01*
X86277032Y-47493153D01*
X86064403Y-47560603D01*
X86028493Y-47575994D01*
X85992381Y-47590878D01*
X85987097Y-47593735D01*
X85987088Y-47593739D01*
X85987081Y-47593744D01*
X85791607Y-47701207D01*
X85759402Y-47723258D01*
X85726838Y-47744894D01*
X85722201Y-47748730D01*
X85718304Y-47752000D01*
X81473586Y-47752000D01*
X81453932Y-47735971D01*
X81421433Y-47714378D01*
X81389162Y-47692282D01*
X81383868Y-47689420D01*
X81186904Y-47584693D01*
X81150812Y-47569817D01*
X81114886Y-47554419D01*
X81109137Y-47552640D01*
X81109139Y-47552640D01*
X81109131Y-47552638D01*
X80895584Y-47488164D01*
X80857298Y-47480583D01*
X80819053Y-47472454D01*
X80813070Y-47471825D01*
X80813068Y-47471825D01*
X80591058Y-47450057D01*
X80591052Y-47450057D01*
X80570168Y-47448000D01*
X80445238Y-47448000D01*
X80512199Y-47297708D01*
X79787000Y-46572510D01*
X79061801Y-47297708D01*
X79128762Y-47448000D01*
X79003832Y-47448000D01*
X78981821Y-47450168D01*
X78966983Y-47450168D01*
X78960997Y-47450797D01*
X78739314Y-47475663D01*
X78701110Y-47483784D01*
X78662785Y-47491372D01*
X78657038Y-47493151D01*
X78657032Y-47493153D01*
X78444403Y-47560603D01*
X78408493Y-47575994D01*
X78372381Y-47590878D01*
X78367097Y-47593735D01*
X78367088Y-47593739D01*
X78367081Y-47593744D01*
X78171607Y-47701207D01*
X78139402Y-47723258D01*
X78106838Y-47744894D01*
X78102201Y-47748730D01*
X78098304Y-47752000D01*
X68519586Y-47752000D01*
X68499932Y-47735971D01*
X68467433Y-47714378D01*
X68435162Y-47692282D01*
X68429868Y-47689420D01*
X68232904Y-47584693D01*
X68196812Y-47569817D01*
X68160886Y-47554419D01*
X68155137Y-47552640D01*
X68155139Y-47552640D01*
X68155131Y-47552638D01*
X67941584Y-47488164D01*
X67903298Y-47480583D01*
X67865053Y-47472454D01*
X67859070Y-47471825D01*
X67859068Y-47471825D01*
X67637058Y-47450057D01*
X67637052Y-47450057D01*
X67616168Y-47448000D01*
X67513021Y-47448000D01*
X67585843Y-47399342D01*
X67750342Y-47234843D01*
X67879588Y-47041413D01*
X67968614Y-46826485D01*
X68014000Y-46598318D01*
X68014000Y-46365682D01*
X67968614Y-46137515D01*
X67879588Y-45922587D01*
X67750342Y-45729157D01*
X67585843Y-45564658D01*
X67569608Y-45553810D01*
X72216423Y-45553810D01*
X72216423Y-45707654D01*
X72246436Y-45858541D01*
X72305310Y-46000674D01*
X72390781Y-46128591D01*
X72499564Y-46237374D01*
X72627481Y-46322845D01*
X72769614Y-46381719D01*
X72920501Y-46411732D01*
X73074345Y-46411732D01*
X73225232Y-46381719D01*
X73367365Y-46322845D01*
X73495282Y-46237374D01*
X73604065Y-46128591D01*
X73689536Y-46000674D01*
X73715094Y-45938970D01*
X74334814Y-45938970D01*
X74334814Y-46092814D01*
X74364827Y-46243701D01*
X74423701Y-46385834D01*
X74509172Y-46513751D01*
X74617955Y-46622534D01*
X74745872Y-46708005D01*
X74888005Y-46766879D01*
X75038892Y-46796892D01*
X75192736Y-46796892D01*
X75343623Y-46766879D01*
X75485756Y-46708005D01*
X75613673Y-46622534D01*
X75722456Y-46513751D01*
X75807927Y-46385834D01*
X75816938Y-46364078D01*
X76552000Y-46364078D01*
X76552000Y-46517922D01*
X76582013Y-46668809D01*
X76640887Y-46810942D01*
X76726358Y-46938859D01*
X76835141Y-47047642D01*
X76963058Y-47133113D01*
X77105191Y-47191987D01*
X77256078Y-47222000D01*
X77409922Y-47222000D01*
X77560809Y-47191987D01*
X77702942Y-47133113D01*
X77830859Y-47047642D01*
X77939642Y-46938859D01*
X78025113Y-46810942D01*
X78083987Y-46668809D01*
X78114000Y-46517922D01*
X78114000Y-46499429D01*
X78600414Y-46499429D01*
X78626614Y-46730586D01*
X78697408Y-46952189D01*
X78790707Y-47126741D01*
X78971292Y-47207199D01*
X79696490Y-46482000D01*
X79877510Y-46482000D01*
X80602708Y-47207199D01*
X80783293Y-47126741D01*
X80889932Y-46919985D01*
X80954186Y-46696398D01*
X80973586Y-46464571D01*
X80947386Y-46233414D01*
X80876592Y-46011811D01*
X80783293Y-45837259D01*
X80602708Y-45756801D01*
X79877510Y-46482000D01*
X79696490Y-46482000D01*
X78971292Y-45756801D01*
X78790707Y-45837259D01*
X78684068Y-46044015D01*
X78619814Y-46267602D01*
X78600414Y-46499429D01*
X78114000Y-46499429D01*
X78114000Y-46364078D01*
X78083987Y-46213191D01*
X78025113Y-46071058D01*
X77939642Y-45943141D01*
X77830859Y-45834358D01*
X77702942Y-45748887D01*
X77560809Y-45690013D01*
X77441555Y-45666292D01*
X79061801Y-45666292D01*
X79787000Y-46391490D01*
X80512199Y-45666292D01*
X80431741Y-45485707D01*
X80224985Y-45379068D01*
X80001398Y-45314814D01*
X79769571Y-45295414D01*
X79538414Y-45321614D01*
X79316811Y-45392408D01*
X79142259Y-45485707D01*
X79061801Y-45666292D01*
X77441555Y-45666292D01*
X77409922Y-45660000D01*
X77256078Y-45660000D01*
X77105191Y-45690013D01*
X76963058Y-45748887D01*
X76835141Y-45834358D01*
X76726358Y-45943141D01*
X76640887Y-46071058D01*
X76582013Y-46213191D01*
X76552000Y-46364078D01*
X75816938Y-46364078D01*
X75866801Y-46243701D01*
X75896814Y-46092814D01*
X75896814Y-45938970D01*
X75866801Y-45788083D01*
X75807927Y-45645950D01*
X75722456Y-45518033D01*
X75670547Y-45466124D01*
X75722528Y-45414143D01*
X75807999Y-45286226D01*
X75866873Y-45144093D01*
X75896886Y-44993206D01*
X75896886Y-44839362D01*
X75877520Y-44742000D01*
X78604157Y-44742000D01*
X78611513Y-44816689D01*
X78633299Y-44888508D01*
X78668678Y-44954696D01*
X78716289Y-45012711D01*
X78774304Y-45060322D01*
X78840492Y-45095701D01*
X78912311Y-45117487D01*
X78987000Y-45124843D01*
X79627750Y-45123000D01*
X79723000Y-45027750D01*
X79723000Y-44006000D01*
X79851000Y-44006000D01*
X79851000Y-45027750D01*
X79946250Y-45123000D01*
X80587000Y-45124843D01*
X80661689Y-45117487D01*
X80733508Y-45095701D01*
X80799696Y-45060322D01*
X80857711Y-45012711D01*
X80905322Y-44954696D01*
X80940701Y-44888508D01*
X80962487Y-44816689D01*
X80969843Y-44742000D01*
X80968000Y-44101250D01*
X80872750Y-44006000D01*
X79851000Y-44006000D01*
X79723000Y-44006000D01*
X78701250Y-44006000D01*
X78606000Y-44101250D01*
X78604157Y-44742000D01*
X75877520Y-44742000D01*
X75866873Y-44688475D01*
X75807999Y-44546342D01*
X75722528Y-44418425D01*
X75613745Y-44309642D01*
X75485828Y-44224171D01*
X75343695Y-44165297D01*
X75192808Y-44135284D01*
X75038964Y-44135284D01*
X74888077Y-44165297D01*
X74745944Y-44224171D01*
X74618027Y-44309642D01*
X74509244Y-44418425D01*
X74423773Y-44546342D01*
X74364899Y-44688475D01*
X74334886Y-44839362D01*
X74334886Y-44993206D01*
X74364899Y-45144093D01*
X74423773Y-45286226D01*
X74509244Y-45414143D01*
X74561153Y-45466052D01*
X74509172Y-45518033D01*
X74423701Y-45645950D01*
X74364827Y-45788083D01*
X74334814Y-45938970D01*
X73715094Y-45938970D01*
X73748410Y-45858541D01*
X73778423Y-45707654D01*
X73778423Y-45553810D01*
X73748410Y-45402923D01*
X73689536Y-45260790D01*
X73604065Y-45132873D01*
X73495282Y-45024090D01*
X73367365Y-44938619D01*
X73225232Y-44879745D01*
X73074345Y-44849732D01*
X72920501Y-44849732D01*
X72769614Y-44879745D01*
X72627481Y-44938619D01*
X72499564Y-45024090D01*
X72390781Y-45132873D01*
X72305310Y-45260790D01*
X72246436Y-45402923D01*
X72216423Y-45553810D01*
X67569608Y-45553810D01*
X67392413Y-45435412D01*
X67177485Y-45346386D01*
X66949318Y-45301000D01*
X66716682Y-45301000D01*
X66488515Y-45346386D01*
X66273587Y-45435412D01*
X66080157Y-45564658D01*
X65915658Y-45729157D01*
X65786412Y-45922587D01*
X65697386Y-46137515D01*
X65652000Y-46365682D01*
X65652000Y-46598318D01*
X65697386Y-46826485D01*
X65786412Y-47041413D01*
X65915658Y-47234843D01*
X66080157Y-47399342D01*
X66152979Y-47448000D01*
X66049832Y-47448000D01*
X66027821Y-47450168D01*
X66012983Y-47450168D01*
X66006997Y-47450797D01*
X65785314Y-47475663D01*
X65747110Y-47483784D01*
X65708785Y-47491372D01*
X65703038Y-47493151D01*
X65703032Y-47493153D01*
X65490403Y-47560603D01*
X65454493Y-47575994D01*
X65418381Y-47590878D01*
X65413097Y-47593735D01*
X65413088Y-47593739D01*
X65413081Y-47593744D01*
X65217607Y-47701207D01*
X65185402Y-47723258D01*
X65152838Y-47744894D01*
X65148201Y-47748730D01*
X65144304Y-47752000D01*
X60899586Y-47752000D01*
X60879932Y-47735971D01*
X60847433Y-47714378D01*
X60815162Y-47692282D01*
X60809868Y-47689420D01*
X60612904Y-47584693D01*
X60576812Y-47569817D01*
X60540886Y-47554419D01*
X60535137Y-47552640D01*
X60535139Y-47552640D01*
X60535131Y-47552638D01*
X60321584Y-47488164D01*
X60283298Y-47480583D01*
X60245053Y-47472454D01*
X60239070Y-47471825D01*
X60239068Y-47471825D01*
X60017058Y-47450057D01*
X60017052Y-47450057D01*
X59996168Y-47448000D01*
X59871238Y-47448000D01*
X59938199Y-47297708D01*
X59213000Y-46572510D01*
X58487801Y-47297708D01*
X58554762Y-47448000D01*
X58429832Y-47448000D01*
X58407821Y-47450168D01*
X58392983Y-47450168D01*
X58386997Y-47450797D01*
X58165314Y-47475663D01*
X58127110Y-47483784D01*
X58088785Y-47491372D01*
X58083038Y-47493151D01*
X58083032Y-47493153D01*
X57870403Y-47560603D01*
X57834493Y-47575994D01*
X57798381Y-47590878D01*
X57793097Y-47593735D01*
X57793088Y-47593739D01*
X57793081Y-47593744D01*
X57597607Y-47701207D01*
X57565402Y-47723258D01*
X57532838Y-47744894D01*
X57528201Y-47748730D01*
X57524304Y-47752000D01*
X55784000Y-47752000D01*
X55759224Y-47754440D01*
X55735399Y-47761667D01*
X55713443Y-47773403D01*
X55694197Y-47789197D01*
X55678403Y-47808443D01*
X55666667Y-47830399D01*
X55659440Y-47854224D01*
X55657000Y-47879000D01*
X55657000Y-50334598D01*
X55567821Y-50423777D01*
X55394218Y-50683594D01*
X55274637Y-50972286D01*
X55213676Y-51278761D01*
X55213676Y-51591239D01*
X55274637Y-51897714D01*
X55394218Y-52186406D01*
X55567821Y-52446223D01*
X55657000Y-52535402D01*
X55657000Y-54229000D01*
X52228000Y-54229000D01*
X52228000Y-50342078D01*
X52691032Y-50342078D01*
X52691032Y-50495922D01*
X52721045Y-50646809D01*
X52779919Y-50788942D01*
X52865390Y-50916859D01*
X52974173Y-51025642D01*
X53102090Y-51111113D01*
X53244223Y-51169987D01*
X53395110Y-51200000D01*
X53548954Y-51200000D01*
X53699841Y-51169987D01*
X53841974Y-51111113D01*
X53969891Y-51025642D01*
X54078674Y-50916859D01*
X54164145Y-50788942D01*
X54223019Y-50646809D01*
X54253032Y-50495922D01*
X54253032Y-50342078D01*
X54223019Y-50191191D01*
X54164145Y-50049058D01*
X54078674Y-49921141D01*
X53969891Y-49812358D01*
X53841974Y-49726887D01*
X53699841Y-49668013D01*
X53548954Y-49638000D01*
X53395110Y-49638000D01*
X53244223Y-49668013D01*
X53102090Y-49726887D01*
X52974173Y-49812358D01*
X52865390Y-49921141D01*
X52779919Y-50049058D01*
X52721045Y-50191191D01*
X52691032Y-50342078D01*
X52228000Y-50342078D01*
X52228000Y-46659078D01*
X53352000Y-46659078D01*
X53352000Y-46812922D01*
X53382013Y-46963809D01*
X53440887Y-47105942D01*
X53526358Y-47233859D01*
X53635141Y-47342642D01*
X53763058Y-47428113D01*
X53905191Y-47486987D01*
X54056078Y-47517000D01*
X54209922Y-47517000D01*
X54360809Y-47486987D01*
X54502942Y-47428113D01*
X54630859Y-47342642D01*
X54739642Y-47233859D01*
X54768000Y-47191418D01*
X54796358Y-47233859D01*
X54905141Y-47342642D01*
X55033058Y-47428113D01*
X55175191Y-47486987D01*
X55326078Y-47517000D01*
X55479922Y-47517000D01*
X55630809Y-47486987D01*
X55772942Y-47428113D01*
X55900859Y-47342642D01*
X56009642Y-47233859D01*
X56095113Y-47105942D01*
X56153987Y-46963809D01*
X56184000Y-46812922D01*
X56184000Y-46659078D01*
X56153987Y-46508191D01*
X56150358Y-46499429D01*
X58026414Y-46499429D01*
X58052614Y-46730586D01*
X58123408Y-46952189D01*
X58216707Y-47126741D01*
X58397292Y-47207199D01*
X59122490Y-46482000D01*
X59303510Y-46482000D01*
X60028708Y-47207199D01*
X60209293Y-47126741D01*
X60315932Y-46919985D01*
X60380186Y-46696398D01*
X60399586Y-46464571D01*
X60373386Y-46233414D01*
X60302592Y-46011811D01*
X60209293Y-45837259D01*
X60028708Y-45756801D01*
X59303510Y-46482000D01*
X59122490Y-46482000D01*
X58397292Y-45756801D01*
X58216707Y-45837259D01*
X58110068Y-46044015D01*
X58045814Y-46267602D01*
X58026414Y-46499429D01*
X56150358Y-46499429D01*
X56095113Y-46366058D01*
X56009642Y-46238141D01*
X55900859Y-46129358D01*
X55772942Y-46043887D01*
X55630809Y-45985013D01*
X55479922Y-45955000D01*
X55326078Y-45955000D01*
X55175191Y-45985013D01*
X55033058Y-46043887D01*
X54905141Y-46129358D01*
X54796358Y-46238141D01*
X54768000Y-46280582D01*
X54739642Y-46238141D01*
X54630859Y-46129358D01*
X54502942Y-46043887D01*
X54360809Y-45985013D01*
X54209922Y-45955000D01*
X54056078Y-45955000D01*
X53905191Y-45985013D01*
X53763058Y-46043887D01*
X53635141Y-46129358D01*
X53526358Y-46238141D01*
X53440887Y-46366058D01*
X53382013Y-46508191D01*
X53352000Y-46659078D01*
X52228000Y-46659078D01*
X52228000Y-45666292D01*
X58487801Y-45666292D01*
X59213000Y-46391490D01*
X59938199Y-45666292D01*
X59857741Y-45485707D01*
X59650985Y-45379068D01*
X59427398Y-45314814D01*
X59195571Y-45295414D01*
X58964414Y-45321614D01*
X58742811Y-45392408D01*
X58568259Y-45485707D01*
X58487801Y-45666292D01*
X52228000Y-45666292D01*
X52228000Y-44742000D01*
X58030157Y-44742000D01*
X58037513Y-44816689D01*
X58059299Y-44888508D01*
X58094678Y-44954696D01*
X58142289Y-45012711D01*
X58200304Y-45060322D01*
X58266492Y-45095701D01*
X58338311Y-45117487D01*
X58413000Y-45124843D01*
X59053750Y-45123000D01*
X59149000Y-45027750D01*
X59149000Y-44006000D01*
X59277000Y-44006000D01*
X59277000Y-45027750D01*
X59372250Y-45123000D01*
X60013000Y-45124843D01*
X60087689Y-45117487D01*
X60159508Y-45095701D01*
X60225696Y-45060322D01*
X60283711Y-45012711D01*
X60331322Y-44954696D01*
X60366701Y-44888508D01*
X60388487Y-44816689D01*
X60395843Y-44742000D01*
X60394000Y-44101250D01*
X60298750Y-44006000D01*
X59277000Y-44006000D01*
X59149000Y-44006000D01*
X58127250Y-44006000D01*
X58032000Y-44101250D01*
X58030157Y-44742000D01*
X52228000Y-44742000D01*
X52228000Y-43142000D01*
X58030157Y-43142000D01*
X58032000Y-43782750D01*
X58127250Y-43878000D01*
X59149000Y-43878000D01*
X59149000Y-42856250D01*
X59277000Y-42856250D01*
X59277000Y-43878000D01*
X60298750Y-43878000D01*
X60351068Y-43825682D01*
X65652000Y-43825682D01*
X65652000Y-44058318D01*
X65697386Y-44286485D01*
X65786412Y-44501413D01*
X65915658Y-44694843D01*
X66080157Y-44859342D01*
X66273587Y-44988588D01*
X66488515Y-45077614D01*
X66716682Y-45123000D01*
X66949318Y-45123000D01*
X67177485Y-45077614D01*
X67392413Y-44988588D01*
X67585843Y-44859342D01*
X67750342Y-44694843D01*
X67879588Y-44501413D01*
X67968614Y-44286485D01*
X68014000Y-44058318D01*
X68014000Y-43825682D01*
X67971312Y-43611078D01*
X70115992Y-43611078D01*
X70115992Y-43764922D01*
X70146005Y-43915809D01*
X70204879Y-44057942D01*
X70290350Y-44185859D01*
X70399133Y-44294642D01*
X70527050Y-44380113D01*
X70669183Y-44438987D01*
X70820070Y-44469000D01*
X70973914Y-44469000D01*
X71124801Y-44438987D01*
X71266934Y-44380113D01*
X71394851Y-44294642D01*
X71503634Y-44185859D01*
X71589105Y-44057942D01*
X71647979Y-43915809D01*
X71677992Y-43764922D01*
X71677992Y-43611078D01*
X71647979Y-43460191D01*
X71589105Y-43318058D01*
X71503634Y-43190141D01*
X71394851Y-43081358D01*
X71266934Y-42995887D01*
X71124801Y-42937013D01*
X70973914Y-42907000D01*
X70820070Y-42907000D01*
X70669183Y-42937013D01*
X70527050Y-42995887D01*
X70399133Y-43081358D01*
X70290350Y-43190141D01*
X70204879Y-43318058D01*
X70146005Y-43460191D01*
X70115992Y-43611078D01*
X67971312Y-43611078D01*
X67968614Y-43597515D01*
X67879588Y-43382587D01*
X67750342Y-43189157D01*
X67585843Y-43024658D01*
X67392413Y-42895412D01*
X67177485Y-42806386D01*
X66949318Y-42761000D01*
X66716682Y-42761000D01*
X66488515Y-42806386D01*
X66273587Y-42895412D01*
X66080157Y-43024658D01*
X65915658Y-43189157D01*
X65786412Y-43382587D01*
X65697386Y-43597515D01*
X65652000Y-43825682D01*
X60351068Y-43825682D01*
X60394000Y-43782750D01*
X60395843Y-43142000D01*
X60388487Y-43067311D01*
X60366701Y-42995492D01*
X60331322Y-42929304D01*
X60283711Y-42871289D01*
X60225696Y-42823678D01*
X60159508Y-42788299D01*
X60087689Y-42766513D01*
X60013000Y-42759157D01*
X59372250Y-42761000D01*
X59277000Y-42856250D01*
X59149000Y-42856250D01*
X59053750Y-42761000D01*
X58413000Y-42759157D01*
X58338311Y-42766513D01*
X58266492Y-42788299D01*
X58200304Y-42823678D01*
X58142289Y-42871289D01*
X58094678Y-42929304D01*
X58059299Y-42995492D01*
X58037513Y-43067311D01*
X58030157Y-43142000D01*
X52228000Y-43142000D01*
X52228000Y-42722078D01*
X73164000Y-42722078D01*
X73164000Y-42875922D01*
X73194013Y-43026809D01*
X73252887Y-43168942D01*
X73338358Y-43296859D01*
X73447141Y-43405642D01*
X73575058Y-43491113D01*
X73717191Y-43549987D01*
X73868078Y-43580000D01*
X74021922Y-43580000D01*
X74172809Y-43549987D01*
X74314942Y-43491113D01*
X74442859Y-43405642D01*
X74551642Y-43296859D01*
X74637113Y-43168942D01*
X74695987Y-43026809D01*
X74726000Y-42875922D01*
X74726000Y-42722078D01*
X74698551Y-42584078D01*
X76974000Y-42584078D01*
X76974000Y-42737922D01*
X77004013Y-42888809D01*
X77062887Y-43030942D01*
X77148358Y-43158859D01*
X77257141Y-43267642D01*
X77385058Y-43353113D01*
X77527191Y-43411987D01*
X77678078Y-43442000D01*
X77831922Y-43442000D01*
X77982809Y-43411987D01*
X78124942Y-43353113D01*
X78252859Y-43267642D01*
X78361642Y-43158859D01*
X78372906Y-43142000D01*
X78604157Y-43142000D01*
X78606000Y-43782750D01*
X78701250Y-43878000D01*
X79723000Y-43878000D01*
X79723000Y-42856250D01*
X79851000Y-42856250D01*
X79851000Y-43878000D01*
X80872750Y-43878000D01*
X80968000Y-43782750D01*
X80969843Y-43142000D01*
X80962487Y-43067311D01*
X80940701Y-42995492D01*
X80905322Y-42929304D01*
X80857711Y-42871289D01*
X80799696Y-42823678D01*
X80733508Y-42788299D01*
X80661689Y-42766513D01*
X80587000Y-42759157D01*
X79946250Y-42761000D01*
X79851000Y-42856250D01*
X79723000Y-42856250D01*
X79627750Y-42761000D01*
X78987000Y-42759157D01*
X78912311Y-42766513D01*
X78840492Y-42788299D01*
X78774304Y-42823678D01*
X78716289Y-42871289D01*
X78668678Y-42929304D01*
X78633299Y-42995492D01*
X78611513Y-43067311D01*
X78604157Y-43142000D01*
X78372906Y-43142000D01*
X78447113Y-43030942D01*
X78505987Y-42888809D01*
X78536000Y-42737922D01*
X78536000Y-42584078D01*
X78505987Y-42433191D01*
X78447113Y-42291058D01*
X78361642Y-42163141D01*
X78252859Y-42054358D01*
X78124942Y-41968887D01*
X77982809Y-41910013D01*
X77831922Y-41880000D01*
X77678078Y-41880000D01*
X77527191Y-41910013D01*
X77385058Y-41968887D01*
X77257141Y-42054358D01*
X77148358Y-42163141D01*
X77062887Y-42291058D01*
X77004013Y-42433191D01*
X76974000Y-42584078D01*
X74698551Y-42584078D01*
X74695987Y-42571191D01*
X74637113Y-42429058D01*
X74551642Y-42301141D01*
X74442859Y-42192358D01*
X74314942Y-42106887D01*
X74172809Y-42048013D01*
X74021922Y-42018000D01*
X73868078Y-42018000D01*
X73717191Y-42048013D01*
X73575058Y-42106887D01*
X73447141Y-42192358D01*
X73338358Y-42301141D01*
X73252887Y-42429058D01*
X73194013Y-42571191D01*
X73164000Y-42722078D01*
X52228000Y-42722078D01*
X52228000Y-41198078D01*
X53199000Y-41198078D01*
X53199000Y-41351922D01*
X53229013Y-41502809D01*
X53287887Y-41644942D01*
X53373358Y-41772859D01*
X53482141Y-41881642D01*
X53610058Y-41967113D01*
X53752191Y-42025987D01*
X53903078Y-42056000D01*
X54056922Y-42056000D01*
X54207809Y-42025987D01*
X54349942Y-41967113D01*
X54477859Y-41881642D01*
X54586642Y-41772859D01*
X54672113Y-41644942D01*
X54730987Y-41502809D01*
X54741077Y-41452078D01*
X58686000Y-41452078D01*
X58686000Y-41605922D01*
X58716013Y-41756809D01*
X58774887Y-41898942D01*
X58860358Y-42026859D01*
X58969141Y-42135642D01*
X59097058Y-42221113D01*
X59239191Y-42279987D01*
X59390078Y-42310000D01*
X59543922Y-42310000D01*
X59694809Y-42279987D01*
X59836942Y-42221113D01*
X59964859Y-42135642D01*
X60073642Y-42026859D01*
X60159113Y-41898942D01*
X60217987Y-41756809D01*
X60229000Y-41701442D01*
X60240013Y-41756809D01*
X60298887Y-41898942D01*
X60384358Y-42026859D01*
X60493141Y-42135642D01*
X60621058Y-42221113D01*
X60763191Y-42279987D01*
X60914078Y-42310000D01*
X61067922Y-42310000D01*
X61218809Y-42279987D01*
X61360942Y-42221113D01*
X61488859Y-42135642D01*
X61597642Y-42026859D01*
X61683113Y-41898942D01*
X61741987Y-41756809D01*
X61772000Y-41605922D01*
X61772000Y-41452078D01*
X61741987Y-41301191D01*
X61683113Y-41159058D01*
X61597642Y-41031141D01*
X61488859Y-40922358D01*
X61360942Y-40836887D01*
X61218809Y-40778013D01*
X61067922Y-40748000D01*
X60914078Y-40748000D01*
X60763191Y-40778013D01*
X60621058Y-40836887D01*
X60493141Y-40922358D01*
X60384358Y-41031141D01*
X60298887Y-41159058D01*
X60240013Y-41301191D01*
X60229000Y-41356558D01*
X60217987Y-41301191D01*
X60159113Y-41159058D01*
X60073642Y-41031141D01*
X59964859Y-40922358D01*
X59836942Y-40836887D01*
X59694809Y-40778013D01*
X59543922Y-40748000D01*
X59390078Y-40748000D01*
X59239191Y-40778013D01*
X59097058Y-40836887D01*
X58969141Y-40922358D01*
X58860358Y-41031141D01*
X58774887Y-41159058D01*
X58716013Y-41301191D01*
X58686000Y-41452078D01*
X54741077Y-41452078D01*
X54761000Y-41351922D01*
X54761000Y-41198078D01*
X54730987Y-41047191D01*
X54672113Y-40905058D01*
X54586642Y-40777141D01*
X54477859Y-40668358D01*
X54349942Y-40582887D01*
X54207809Y-40524013D01*
X54056922Y-40494000D01*
X53903078Y-40494000D01*
X53752191Y-40524013D01*
X53610058Y-40582887D01*
X53482141Y-40668358D01*
X53373358Y-40777141D01*
X53287887Y-40905058D01*
X53229013Y-41047191D01*
X53199000Y-41198078D01*
X52228000Y-41198078D01*
X52228000Y-39801078D01*
X58686000Y-39801078D01*
X58686000Y-39954922D01*
X58716013Y-40105809D01*
X58774887Y-40247942D01*
X58860358Y-40375859D01*
X58969141Y-40484642D01*
X59097058Y-40570113D01*
X59239191Y-40628987D01*
X59390078Y-40659000D01*
X59543922Y-40659000D01*
X59694809Y-40628987D01*
X59836942Y-40570113D01*
X59964859Y-40484642D01*
X60073642Y-40375859D01*
X60159113Y-40247942D01*
X60217987Y-40105809D01*
X60229000Y-40050442D01*
X60240013Y-40105809D01*
X60298887Y-40247942D01*
X60384358Y-40375859D01*
X60493141Y-40484642D01*
X60621058Y-40570113D01*
X60763191Y-40628987D01*
X60914078Y-40659000D01*
X61067922Y-40659000D01*
X61218809Y-40628987D01*
X61360942Y-40570113D01*
X61488859Y-40484642D01*
X61597642Y-40375859D01*
X61683113Y-40247942D01*
X61741987Y-40105809D01*
X61772000Y-39954922D01*
X61772000Y-39801078D01*
X61741987Y-39650191D01*
X61683113Y-39508058D01*
X61597642Y-39380141D01*
X61488859Y-39271358D01*
X61360942Y-39185887D01*
X61218809Y-39127013D01*
X61067922Y-39097000D01*
X60914078Y-39097000D01*
X60763191Y-39127013D01*
X60621058Y-39185887D01*
X60493141Y-39271358D01*
X60384358Y-39380141D01*
X60298887Y-39508058D01*
X60240013Y-39650191D01*
X60229000Y-39705558D01*
X60217987Y-39650191D01*
X60159113Y-39508058D01*
X60073642Y-39380141D01*
X59964859Y-39271358D01*
X59836942Y-39185887D01*
X59694809Y-39127013D01*
X59543922Y-39097000D01*
X59390078Y-39097000D01*
X59239191Y-39127013D01*
X59097058Y-39185887D01*
X58969141Y-39271358D01*
X58860358Y-39380141D01*
X58774887Y-39508058D01*
X58716013Y-39650191D01*
X58686000Y-39801078D01*
X52228000Y-39801078D01*
X52228000Y-38931000D01*
X67131351Y-38931000D01*
X67097141Y-38953858D01*
%TA.AperFunction,Conductor*%
D22*
G36*
X67097141Y-38953858D02*
G01*
X66988358Y-39062641D01*
X66902887Y-39190558D01*
X66844013Y-39332691D01*
X66814000Y-39483578D01*
X66814000Y-39637422D01*
X66844013Y-39788309D01*
X66902887Y-39930442D01*
X66988358Y-40058359D01*
X67097141Y-40167142D01*
X67225058Y-40252613D01*
X67367191Y-40311487D01*
X67518078Y-40341500D01*
X67671922Y-40341500D01*
X67822809Y-40311487D01*
X67964942Y-40252613D01*
X68092859Y-40167142D01*
X68201642Y-40058359D01*
X68287113Y-39930442D01*
X68345987Y-39788309D01*
X68363315Y-39701192D01*
X68368013Y-39724809D01*
X68426887Y-39866942D01*
X68512358Y-39994859D01*
X68621141Y-40103642D01*
X68749058Y-40189113D01*
X68891191Y-40247987D01*
X69042078Y-40278000D01*
X69195922Y-40278000D01*
X69346809Y-40247987D01*
X69488942Y-40189113D01*
X69616859Y-40103642D01*
X69725642Y-39994859D01*
X69811113Y-39866942D01*
X69869987Y-39724809D01*
X69900000Y-39573922D01*
X69900000Y-39420078D01*
X69869987Y-39269191D01*
X69811113Y-39127058D01*
X69725642Y-38999141D01*
X69657501Y-38931000D01*
X77978499Y-38931000D01*
X77910358Y-38999141D01*
X77824887Y-39127058D01*
X77766013Y-39269191D01*
X77736000Y-39420078D01*
X77736000Y-39573922D01*
X77766013Y-39724809D01*
X77824887Y-39866942D01*
X77910358Y-39994859D01*
X78019141Y-40103642D01*
X78147058Y-40189113D01*
X78289191Y-40247987D01*
X78440078Y-40278000D01*
X78593922Y-40278000D01*
X78744809Y-40247987D01*
X78886942Y-40189113D01*
X79014859Y-40103642D01*
X79123642Y-39994859D01*
X79209113Y-39866942D01*
X79267987Y-39724809D01*
X79272685Y-39701192D01*
X79290013Y-39788309D01*
X79348887Y-39930442D01*
X79434358Y-40058359D01*
X79543141Y-40167142D01*
X79671058Y-40252613D01*
X79813191Y-40311487D01*
X79964078Y-40341500D01*
X80117922Y-40341500D01*
X80268809Y-40311487D01*
X80410942Y-40252613D01*
X80538859Y-40167142D01*
X80647642Y-40058359D01*
X80733113Y-39930442D01*
X80791987Y-39788309D01*
X80822000Y-39637422D01*
X80822000Y-39483578D01*
X80791987Y-39332691D01*
X80733113Y-39190558D01*
X80647642Y-39062641D01*
X80538859Y-38953858D01*
X80504649Y-38931000D01*
X88677000Y-38931000D01*
X88677000Y-39281499D01*
X88666859Y-39271358D01*
X88538942Y-39185887D01*
X88396809Y-39127013D01*
X88245922Y-39097000D01*
X88092078Y-39097000D01*
X87941191Y-39127013D01*
X87799058Y-39185887D01*
X87671141Y-39271358D01*
X87562358Y-39380141D01*
X87476887Y-39508058D01*
X87418013Y-39650191D01*
X87407000Y-39705558D01*
X87395987Y-39650191D01*
X87337113Y-39508058D01*
X87251642Y-39380141D01*
X87142859Y-39271358D01*
X87014942Y-39185887D01*
X86872809Y-39127013D01*
X86721922Y-39097000D01*
X86568078Y-39097000D01*
X86417191Y-39127013D01*
X86275058Y-39185887D01*
X86147141Y-39271358D01*
X86038358Y-39380141D01*
X85952887Y-39508058D01*
X85894013Y-39650191D01*
X85864000Y-39801078D01*
X85864000Y-39954922D01*
X85894013Y-40105809D01*
X85952887Y-40247942D01*
X86038358Y-40375859D01*
X86147141Y-40484642D01*
X86275058Y-40570113D01*
X86417191Y-40628987D01*
X86568078Y-40659000D01*
X86721922Y-40659000D01*
X86872809Y-40628987D01*
X87014942Y-40570113D01*
X87142859Y-40484642D01*
X87251642Y-40375859D01*
X87337113Y-40247942D01*
X87395987Y-40105809D01*
X87407000Y-40050442D01*
X87418013Y-40105809D01*
X87476887Y-40247942D01*
X87562358Y-40375859D01*
X87671141Y-40484642D01*
X87799058Y-40570113D01*
X87941191Y-40628987D01*
X88092078Y-40659000D01*
X88245922Y-40659000D01*
X88396809Y-40628987D01*
X88538942Y-40570113D01*
X88666859Y-40484642D01*
X88677000Y-40474501D01*
X88677000Y-40561289D01*
X88636693Y-40637096D01*
X88621817Y-40673188D01*
X88606419Y-40709114D01*
X88604640Y-40714863D01*
X88562954Y-40852931D01*
X88538942Y-40836887D01*
X88396809Y-40778013D01*
X88245922Y-40748000D01*
X88092078Y-40748000D01*
X87941191Y-40778013D01*
X87799058Y-40836887D01*
X87671141Y-40922358D01*
X87562358Y-41031141D01*
X87476887Y-41159058D01*
X87418013Y-41301191D01*
X87407000Y-41356558D01*
X87395987Y-41301191D01*
X87337113Y-41159058D01*
X87251642Y-41031141D01*
X87142859Y-40922358D01*
X87014942Y-40836887D01*
X86872809Y-40778013D01*
X86721922Y-40748000D01*
X86568078Y-40748000D01*
X86417191Y-40778013D01*
X86275058Y-40836887D01*
X86147141Y-40922358D01*
X86038358Y-41031141D01*
X85952887Y-41159058D01*
X85894013Y-41301191D01*
X85864000Y-41452078D01*
X85864000Y-41605922D01*
X85894013Y-41756809D01*
X85952887Y-41898942D01*
X86038358Y-42026859D01*
X86147141Y-42135642D01*
X86275058Y-42221113D01*
X86417191Y-42279987D01*
X86568078Y-42310000D01*
X86721922Y-42310000D01*
X86872809Y-42279987D01*
X87014942Y-42221113D01*
X87142859Y-42135642D01*
X87251642Y-42026859D01*
X87337113Y-41898942D01*
X87395987Y-41756809D01*
X87407000Y-41701442D01*
X87418013Y-41756809D01*
X87476887Y-41898942D01*
X87562358Y-42026859D01*
X87671141Y-42135642D01*
X87799058Y-42221113D01*
X87941191Y-42279987D01*
X88092078Y-42310000D01*
X88245922Y-42310000D01*
X88396809Y-42279987D01*
X88500001Y-42237243D01*
X88500000Y-43494636D01*
X88453588Y-43382587D01*
X88324342Y-43189157D01*
X88159843Y-43024658D01*
X87966413Y-42895412D01*
X87751485Y-42806386D01*
X87523318Y-42761000D01*
X87290682Y-42761000D01*
X87062515Y-42806386D01*
X86847587Y-42895412D01*
X86654157Y-43024658D01*
X86489658Y-43189157D01*
X86360412Y-43382587D01*
X86271386Y-43597515D01*
X86226000Y-43825682D01*
X86226000Y-44058318D01*
X86271386Y-44286485D01*
X86360412Y-44501413D01*
X86489658Y-44694843D01*
X86654157Y-44859342D01*
X86847587Y-44988588D01*
X87062515Y-45077614D01*
X87290682Y-45123000D01*
X87523318Y-45123000D01*
X87751485Y-45077614D01*
X87966413Y-44988588D01*
X88159843Y-44859342D01*
X88324342Y-44694843D01*
X88453588Y-44501413D01*
X88500000Y-44389364D01*
X88500000Y-44471167D01*
X88502168Y-44493178D01*
X88502168Y-44508017D01*
X88502797Y-44514002D01*
X88527663Y-44735686D01*
X88535784Y-44773890D01*
X88543372Y-44812215D01*
X88545152Y-44817964D01*
X88612603Y-45030597D01*
X88627989Y-45066495D01*
X88642878Y-45102619D01*
X88645735Y-45107903D01*
X88645739Y-45107912D01*
X88645744Y-45107919D01*
X88677000Y-45164774D01*
X88677000Y-47536899D01*
X88515584Y-47488164D01*
X88477298Y-47480583D01*
X88439053Y-47472454D01*
X88433070Y-47471825D01*
X88433068Y-47471825D01*
X88211058Y-47450057D01*
X88211052Y-47450057D01*
X88190168Y-47448000D01*
X88087021Y-47448000D01*
X88159843Y-47399342D01*
X88324342Y-47234843D01*
X88453588Y-47041413D01*
X88542614Y-46826485D01*
X88588000Y-46598318D01*
X88588000Y-46365682D01*
X88542614Y-46137515D01*
X88453588Y-45922587D01*
X88324342Y-45729157D01*
X88159843Y-45564658D01*
X87966413Y-45435412D01*
X87751485Y-45346386D01*
X87523318Y-45301000D01*
X87290682Y-45301000D01*
X87062515Y-45346386D01*
X86847587Y-45435412D01*
X86654157Y-45564658D01*
X86489658Y-45729157D01*
X86360412Y-45922587D01*
X86271386Y-46137515D01*
X86226000Y-46365682D01*
X86226000Y-46598318D01*
X86271386Y-46826485D01*
X86360412Y-47041413D01*
X86489658Y-47234843D01*
X86654157Y-47399342D01*
X86726979Y-47448000D01*
X86623832Y-47448000D01*
X86601821Y-47450168D01*
X86586983Y-47450168D01*
X86580997Y-47450797D01*
X86359314Y-47475663D01*
X86321110Y-47483784D01*
X86282785Y-47491372D01*
X86277038Y-47493151D01*
X86277032Y-47493153D01*
X86064403Y-47560603D01*
X86028493Y-47575994D01*
X85992381Y-47590878D01*
X85987097Y-47593735D01*
X85987088Y-47593739D01*
X85987081Y-47593744D01*
X85791607Y-47701207D01*
X85759402Y-47723258D01*
X85726838Y-47744894D01*
X85722201Y-47748730D01*
X85718304Y-47752000D01*
X81473586Y-47752000D01*
X81453932Y-47735971D01*
X81421433Y-47714378D01*
X81389162Y-47692282D01*
X81383868Y-47689420D01*
X81186904Y-47584693D01*
X81150812Y-47569817D01*
X81114886Y-47554419D01*
X81109137Y-47552640D01*
X81109139Y-47552640D01*
X81109131Y-47552638D01*
X80895584Y-47488164D01*
X80857298Y-47480583D01*
X80819053Y-47472454D01*
X80813070Y-47471825D01*
X80813068Y-47471825D01*
X80591058Y-47450057D01*
X80591052Y-47450057D01*
X80570168Y-47448000D01*
X80445238Y-47448000D01*
X80512199Y-47297708D01*
X79787000Y-46572510D01*
X79061801Y-47297708D01*
X79128762Y-47448000D01*
X79003832Y-47448000D01*
X78981821Y-47450168D01*
X78966983Y-47450168D01*
X78960997Y-47450797D01*
X78739314Y-47475663D01*
X78701110Y-47483784D01*
X78662785Y-47491372D01*
X78657038Y-47493151D01*
X78657032Y-47493153D01*
X78444403Y-47560603D01*
X78408493Y-47575994D01*
X78372381Y-47590878D01*
X78367097Y-47593735D01*
X78367088Y-47593739D01*
X78367081Y-47593744D01*
X78171607Y-47701207D01*
X78139402Y-47723258D01*
X78106838Y-47744894D01*
X78102201Y-47748730D01*
X78098304Y-47752000D01*
X68519586Y-47752000D01*
X68499932Y-47735971D01*
X68467433Y-47714378D01*
X68435162Y-47692282D01*
X68429868Y-47689420D01*
X68232904Y-47584693D01*
X68196812Y-47569817D01*
X68160886Y-47554419D01*
X68155137Y-47552640D01*
X68155139Y-47552640D01*
X68155131Y-47552638D01*
X67941584Y-47488164D01*
X67903298Y-47480583D01*
X67865053Y-47472454D01*
X67859070Y-47471825D01*
X67859068Y-47471825D01*
X67637058Y-47450057D01*
X67637052Y-47450057D01*
X67616168Y-47448000D01*
X67513021Y-47448000D01*
X67585843Y-47399342D01*
X67750342Y-47234843D01*
X67879588Y-47041413D01*
X67968614Y-46826485D01*
X68014000Y-46598318D01*
X68014000Y-46365682D01*
X67968614Y-46137515D01*
X67879588Y-45922587D01*
X67750342Y-45729157D01*
X67585843Y-45564658D01*
X67569608Y-45553810D01*
X72216423Y-45553810D01*
X72216423Y-45707654D01*
X72246436Y-45858541D01*
X72305310Y-46000674D01*
X72390781Y-46128591D01*
X72499564Y-46237374D01*
X72627481Y-46322845D01*
X72769614Y-46381719D01*
X72920501Y-46411732D01*
X73074345Y-46411732D01*
X73225232Y-46381719D01*
X73367365Y-46322845D01*
X73495282Y-46237374D01*
X73604065Y-46128591D01*
X73689536Y-46000674D01*
X73715094Y-45938970D01*
X74334814Y-45938970D01*
X74334814Y-46092814D01*
X74364827Y-46243701D01*
X74423701Y-46385834D01*
X74509172Y-46513751D01*
X74617955Y-46622534D01*
X74745872Y-46708005D01*
X74888005Y-46766879D01*
X75038892Y-46796892D01*
X75192736Y-46796892D01*
X75343623Y-46766879D01*
X75485756Y-46708005D01*
X75613673Y-46622534D01*
X75722456Y-46513751D01*
X75807927Y-46385834D01*
X75816938Y-46364078D01*
X76552000Y-46364078D01*
X76552000Y-46517922D01*
X76582013Y-46668809D01*
X76640887Y-46810942D01*
X76726358Y-46938859D01*
X76835141Y-47047642D01*
X76963058Y-47133113D01*
X77105191Y-47191987D01*
X77256078Y-47222000D01*
X77409922Y-47222000D01*
X77560809Y-47191987D01*
X77702942Y-47133113D01*
X77830859Y-47047642D01*
X77939642Y-46938859D01*
X78025113Y-46810942D01*
X78083987Y-46668809D01*
X78114000Y-46517922D01*
X78114000Y-46499429D01*
X78600414Y-46499429D01*
X78626614Y-46730586D01*
X78697408Y-46952189D01*
X78790707Y-47126741D01*
X78971292Y-47207199D01*
X79696490Y-46482000D01*
X79877510Y-46482000D01*
X80602708Y-47207199D01*
X80783293Y-47126741D01*
X80889932Y-46919985D01*
X80954186Y-46696398D01*
X80973586Y-46464571D01*
X80947386Y-46233414D01*
X80876592Y-46011811D01*
X80783293Y-45837259D01*
X80602708Y-45756801D01*
X79877510Y-46482000D01*
X79696490Y-46482000D01*
X78971292Y-45756801D01*
X78790707Y-45837259D01*
X78684068Y-46044015D01*
X78619814Y-46267602D01*
X78600414Y-46499429D01*
X78114000Y-46499429D01*
X78114000Y-46364078D01*
X78083987Y-46213191D01*
X78025113Y-46071058D01*
X77939642Y-45943141D01*
X77830859Y-45834358D01*
X77702942Y-45748887D01*
X77560809Y-45690013D01*
X77441555Y-45666292D01*
X79061801Y-45666292D01*
X79787000Y-46391490D01*
X80512199Y-45666292D01*
X80431741Y-45485707D01*
X80224985Y-45379068D01*
X80001398Y-45314814D01*
X79769571Y-45295414D01*
X79538414Y-45321614D01*
X79316811Y-45392408D01*
X79142259Y-45485707D01*
X79061801Y-45666292D01*
X77441555Y-45666292D01*
X77409922Y-45660000D01*
X77256078Y-45660000D01*
X77105191Y-45690013D01*
X76963058Y-45748887D01*
X76835141Y-45834358D01*
X76726358Y-45943141D01*
X76640887Y-46071058D01*
X76582013Y-46213191D01*
X76552000Y-46364078D01*
X75816938Y-46364078D01*
X75866801Y-46243701D01*
X75896814Y-46092814D01*
X75896814Y-45938970D01*
X75866801Y-45788083D01*
X75807927Y-45645950D01*
X75722456Y-45518033D01*
X75670547Y-45466124D01*
X75722528Y-45414143D01*
X75807999Y-45286226D01*
X75866873Y-45144093D01*
X75896886Y-44993206D01*
X75896886Y-44839362D01*
X75877520Y-44742000D01*
X78604157Y-44742000D01*
X78611513Y-44816689D01*
X78633299Y-44888508D01*
X78668678Y-44954696D01*
X78716289Y-45012711D01*
X78774304Y-45060322D01*
X78840492Y-45095701D01*
X78912311Y-45117487D01*
X78987000Y-45124843D01*
X79627750Y-45123000D01*
X79723000Y-45027750D01*
X79723000Y-44006000D01*
X79851000Y-44006000D01*
X79851000Y-45027750D01*
X79946250Y-45123000D01*
X80587000Y-45124843D01*
X80661689Y-45117487D01*
X80733508Y-45095701D01*
X80799696Y-45060322D01*
X80857711Y-45012711D01*
X80905322Y-44954696D01*
X80940701Y-44888508D01*
X80962487Y-44816689D01*
X80969843Y-44742000D01*
X80968000Y-44101250D01*
X80872750Y-44006000D01*
X79851000Y-44006000D01*
X79723000Y-44006000D01*
X78701250Y-44006000D01*
X78606000Y-44101250D01*
X78604157Y-44742000D01*
X75877520Y-44742000D01*
X75866873Y-44688475D01*
X75807999Y-44546342D01*
X75722528Y-44418425D01*
X75613745Y-44309642D01*
X75485828Y-44224171D01*
X75343695Y-44165297D01*
X75192808Y-44135284D01*
X75038964Y-44135284D01*
X74888077Y-44165297D01*
X74745944Y-44224171D01*
X74618027Y-44309642D01*
X74509244Y-44418425D01*
X74423773Y-44546342D01*
X74364899Y-44688475D01*
X74334886Y-44839362D01*
X74334886Y-44993206D01*
X74364899Y-45144093D01*
X74423773Y-45286226D01*
X74509244Y-45414143D01*
X74561153Y-45466052D01*
X74509172Y-45518033D01*
X74423701Y-45645950D01*
X74364827Y-45788083D01*
X74334814Y-45938970D01*
X73715094Y-45938970D01*
X73748410Y-45858541D01*
X73778423Y-45707654D01*
X73778423Y-45553810D01*
X73748410Y-45402923D01*
X73689536Y-45260790D01*
X73604065Y-45132873D01*
X73495282Y-45024090D01*
X73367365Y-44938619D01*
X73225232Y-44879745D01*
X73074345Y-44849732D01*
X72920501Y-44849732D01*
X72769614Y-44879745D01*
X72627481Y-44938619D01*
X72499564Y-45024090D01*
X72390781Y-45132873D01*
X72305310Y-45260790D01*
X72246436Y-45402923D01*
X72216423Y-45553810D01*
X67569608Y-45553810D01*
X67392413Y-45435412D01*
X67177485Y-45346386D01*
X66949318Y-45301000D01*
X66716682Y-45301000D01*
X66488515Y-45346386D01*
X66273587Y-45435412D01*
X66080157Y-45564658D01*
X65915658Y-45729157D01*
X65786412Y-45922587D01*
X65697386Y-46137515D01*
X65652000Y-46365682D01*
X65652000Y-46598318D01*
X65697386Y-46826485D01*
X65786412Y-47041413D01*
X65915658Y-47234843D01*
X66080157Y-47399342D01*
X66152979Y-47448000D01*
X66049832Y-47448000D01*
X66027821Y-47450168D01*
X66012983Y-47450168D01*
X66006997Y-47450797D01*
X65785314Y-47475663D01*
X65747110Y-47483784D01*
X65708785Y-47491372D01*
X65703038Y-47493151D01*
X65703032Y-47493153D01*
X65490403Y-47560603D01*
X65454493Y-47575994D01*
X65418381Y-47590878D01*
X65413097Y-47593735D01*
X65413088Y-47593739D01*
X65413081Y-47593744D01*
X65217607Y-47701207D01*
X65185402Y-47723258D01*
X65152838Y-47744894D01*
X65148201Y-47748730D01*
X65144304Y-47752000D01*
X60899586Y-47752000D01*
X60879932Y-47735971D01*
X60847433Y-47714378D01*
X60815162Y-47692282D01*
X60809868Y-47689420D01*
X60612904Y-47584693D01*
X60576812Y-47569817D01*
X60540886Y-47554419D01*
X60535137Y-47552640D01*
X60535139Y-47552640D01*
X60535131Y-47552638D01*
X60321584Y-47488164D01*
X60283298Y-47480583D01*
X60245053Y-47472454D01*
X60239070Y-47471825D01*
X60239068Y-47471825D01*
X60017058Y-47450057D01*
X60017052Y-47450057D01*
X59996168Y-47448000D01*
X59871238Y-47448000D01*
X59938199Y-47297708D01*
X59213000Y-46572510D01*
X58487801Y-47297708D01*
X58554762Y-47448000D01*
X58429832Y-47448000D01*
X58407821Y-47450168D01*
X58392983Y-47450168D01*
X58386997Y-47450797D01*
X58165314Y-47475663D01*
X58127110Y-47483784D01*
X58088785Y-47491372D01*
X58083038Y-47493151D01*
X58083032Y-47493153D01*
X57870403Y-47560603D01*
X57834493Y-47575994D01*
X57798381Y-47590878D01*
X57793097Y-47593735D01*
X57793088Y-47593739D01*
X57793081Y-47593744D01*
X57597607Y-47701207D01*
X57565402Y-47723258D01*
X57532838Y-47744894D01*
X57528201Y-47748730D01*
X57524304Y-47752000D01*
X55784000Y-47752000D01*
X55759224Y-47754440D01*
X55735399Y-47761667D01*
X55713443Y-47773403D01*
X55694197Y-47789197D01*
X55678403Y-47808443D01*
X55666667Y-47830399D01*
X55659440Y-47854224D01*
X55657000Y-47879000D01*
X55657000Y-50334598D01*
X55567821Y-50423777D01*
X55394218Y-50683594D01*
X55274637Y-50972286D01*
X55213676Y-51278761D01*
X55213676Y-51591239D01*
X55274637Y-51897714D01*
X55394218Y-52186406D01*
X55567821Y-52446223D01*
X55657000Y-52535402D01*
X55657000Y-54229000D01*
X52228000Y-54229000D01*
X52228000Y-50342078D01*
X52691032Y-50342078D01*
X52691032Y-50495922D01*
X52721045Y-50646809D01*
X52779919Y-50788942D01*
X52865390Y-50916859D01*
X52974173Y-51025642D01*
X53102090Y-51111113D01*
X53244223Y-51169987D01*
X53395110Y-51200000D01*
X53548954Y-51200000D01*
X53699841Y-51169987D01*
X53841974Y-51111113D01*
X53969891Y-51025642D01*
X54078674Y-50916859D01*
X54164145Y-50788942D01*
X54223019Y-50646809D01*
X54253032Y-50495922D01*
X54253032Y-50342078D01*
X54223019Y-50191191D01*
X54164145Y-50049058D01*
X54078674Y-49921141D01*
X53969891Y-49812358D01*
X53841974Y-49726887D01*
X53699841Y-49668013D01*
X53548954Y-49638000D01*
X53395110Y-49638000D01*
X53244223Y-49668013D01*
X53102090Y-49726887D01*
X52974173Y-49812358D01*
X52865390Y-49921141D01*
X52779919Y-50049058D01*
X52721045Y-50191191D01*
X52691032Y-50342078D01*
X52228000Y-50342078D01*
X52228000Y-46659078D01*
X53352000Y-46659078D01*
X53352000Y-46812922D01*
X53382013Y-46963809D01*
X53440887Y-47105942D01*
X53526358Y-47233859D01*
X53635141Y-47342642D01*
X53763058Y-47428113D01*
X53905191Y-47486987D01*
X54056078Y-47517000D01*
X54209922Y-47517000D01*
X54360809Y-47486987D01*
X54502942Y-47428113D01*
X54630859Y-47342642D01*
X54739642Y-47233859D01*
X54768000Y-47191418D01*
X54796358Y-47233859D01*
X54905141Y-47342642D01*
X55033058Y-47428113D01*
X55175191Y-47486987D01*
X55326078Y-47517000D01*
X55479922Y-47517000D01*
X55630809Y-47486987D01*
X55772942Y-47428113D01*
X55900859Y-47342642D01*
X56009642Y-47233859D01*
X56095113Y-47105942D01*
X56153987Y-46963809D01*
X56184000Y-46812922D01*
X56184000Y-46659078D01*
X56153987Y-46508191D01*
X56150358Y-46499429D01*
X58026414Y-46499429D01*
X58052614Y-46730586D01*
X58123408Y-46952189D01*
X58216707Y-47126741D01*
X58397292Y-47207199D01*
X59122490Y-46482000D01*
X59303510Y-46482000D01*
X60028708Y-47207199D01*
X60209293Y-47126741D01*
X60315932Y-46919985D01*
X60380186Y-46696398D01*
X60399586Y-46464571D01*
X60373386Y-46233414D01*
X60302592Y-46011811D01*
X60209293Y-45837259D01*
X60028708Y-45756801D01*
X59303510Y-46482000D01*
X59122490Y-46482000D01*
X58397292Y-45756801D01*
X58216707Y-45837259D01*
X58110068Y-46044015D01*
X58045814Y-46267602D01*
X58026414Y-46499429D01*
X56150358Y-46499429D01*
X56095113Y-46366058D01*
X56009642Y-46238141D01*
X55900859Y-46129358D01*
X55772942Y-46043887D01*
X55630809Y-45985013D01*
X55479922Y-45955000D01*
X55326078Y-45955000D01*
X55175191Y-45985013D01*
X55033058Y-46043887D01*
X54905141Y-46129358D01*
X54796358Y-46238141D01*
X54768000Y-46280582D01*
X54739642Y-46238141D01*
X54630859Y-46129358D01*
X54502942Y-46043887D01*
X54360809Y-45985013D01*
X54209922Y-45955000D01*
X54056078Y-45955000D01*
X53905191Y-45985013D01*
X53763058Y-46043887D01*
X53635141Y-46129358D01*
X53526358Y-46238141D01*
X53440887Y-46366058D01*
X53382013Y-46508191D01*
X53352000Y-46659078D01*
X52228000Y-46659078D01*
X52228000Y-45666292D01*
X58487801Y-45666292D01*
X59213000Y-46391490D01*
X59938199Y-45666292D01*
X59857741Y-45485707D01*
X59650985Y-45379068D01*
X59427398Y-45314814D01*
X59195571Y-45295414D01*
X58964414Y-45321614D01*
X58742811Y-45392408D01*
X58568259Y-45485707D01*
X58487801Y-45666292D01*
X52228000Y-45666292D01*
X52228000Y-44742000D01*
X58030157Y-44742000D01*
X58037513Y-44816689D01*
X58059299Y-44888508D01*
X58094678Y-44954696D01*
X58142289Y-45012711D01*
X58200304Y-45060322D01*
X58266492Y-45095701D01*
X58338311Y-45117487D01*
X58413000Y-45124843D01*
X59053750Y-45123000D01*
X59149000Y-45027750D01*
X59149000Y-44006000D01*
X59277000Y-44006000D01*
X59277000Y-45027750D01*
X59372250Y-45123000D01*
X60013000Y-45124843D01*
X60087689Y-45117487D01*
X60159508Y-45095701D01*
X60225696Y-45060322D01*
X60283711Y-45012711D01*
X60331322Y-44954696D01*
X60366701Y-44888508D01*
X60388487Y-44816689D01*
X60395843Y-44742000D01*
X60394000Y-44101250D01*
X60298750Y-44006000D01*
X59277000Y-44006000D01*
X59149000Y-44006000D01*
X58127250Y-44006000D01*
X58032000Y-44101250D01*
X58030157Y-44742000D01*
X52228000Y-44742000D01*
X52228000Y-43142000D01*
X58030157Y-43142000D01*
X58032000Y-43782750D01*
X58127250Y-43878000D01*
X59149000Y-43878000D01*
X59149000Y-42856250D01*
X59277000Y-42856250D01*
X59277000Y-43878000D01*
X60298750Y-43878000D01*
X60351068Y-43825682D01*
X65652000Y-43825682D01*
X65652000Y-44058318D01*
X65697386Y-44286485D01*
X65786412Y-44501413D01*
X65915658Y-44694843D01*
X66080157Y-44859342D01*
X66273587Y-44988588D01*
X66488515Y-45077614D01*
X66716682Y-45123000D01*
X66949318Y-45123000D01*
X67177485Y-45077614D01*
X67392413Y-44988588D01*
X67585843Y-44859342D01*
X67750342Y-44694843D01*
X67879588Y-44501413D01*
X67968614Y-44286485D01*
X68014000Y-44058318D01*
X68014000Y-43825682D01*
X67971312Y-43611078D01*
X70115992Y-43611078D01*
X70115992Y-43764922D01*
X70146005Y-43915809D01*
X70204879Y-44057942D01*
X70290350Y-44185859D01*
X70399133Y-44294642D01*
X70527050Y-44380113D01*
X70669183Y-44438987D01*
X70820070Y-44469000D01*
X70973914Y-44469000D01*
X71124801Y-44438987D01*
X71266934Y-44380113D01*
X71394851Y-44294642D01*
X71503634Y-44185859D01*
X71589105Y-44057942D01*
X71647979Y-43915809D01*
X71677992Y-43764922D01*
X71677992Y-43611078D01*
X71647979Y-43460191D01*
X71589105Y-43318058D01*
X71503634Y-43190141D01*
X71394851Y-43081358D01*
X71266934Y-42995887D01*
X71124801Y-42937013D01*
X70973914Y-42907000D01*
X70820070Y-42907000D01*
X70669183Y-42937013D01*
X70527050Y-42995887D01*
X70399133Y-43081358D01*
X70290350Y-43190141D01*
X70204879Y-43318058D01*
X70146005Y-43460191D01*
X70115992Y-43611078D01*
X67971312Y-43611078D01*
X67968614Y-43597515D01*
X67879588Y-43382587D01*
X67750342Y-43189157D01*
X67585843Y-43024658D01*
X67392413Y-42895412D01*
X67177485Y-42806386D01*
X66949318Y-42761000D01*
X66716682Y-42761000D01*
X66488515Y-42806386D01*
X66273587Y-42895412D01*
X66080157Y-43024658D01*
X65915658Y-43189157D01*
X65786412Y-43382587D01*
X65697386Y-43597515D01*
X65652000Y-43825682D01*
X60351068Y-43825682D01*
X60394000Y-43782750D01*
X60395843Y-43142000D01*
X60388487Y-43067311D01*
X60366701Y-42995492D01*
X60331322Y-42929304D01*
X60283711Y-42871289D01*
X60225696Y-42823678D01*
X60159508Y-42788299D01*
X60087689Y-42766513D01*
X60013000Y-42759157D01*
X59372250Y-42761000D01*
X59277000Y-42856250D01*
X59149000Y-42856250D01*
X59053750Y-42761000D01*
X58413000Y-42759157D01*
X58338311Y-42766513D01*
X58266492Y-42788299D01*
X58200304Y-42823678D01*
X58142289Y-42871289D01*
X58094678Y-42929304D01*
X58059299Y-42995492D01*
X58037513Y-43067311D01*
X58030157Y-43142000D01*
X52228000Y-43142000D01*
X52228000Y-42722078D01*
X73164000Y-42722078D01*
X73164000Y-42875922D01*
X73194013Y-43026809D01*
X73252887Y-43168942D01*
X73338358Y-43296859D01*
X73447141Y-43405642D01*
X73575058Y-43491113D01*
X73717191Y-43549987D01*
X73868078Y-43580000D01*
X74021922Y-43580000D01*
X74172809Y-43549987D01*
X74314942Y-43491113D01*
X74442859Y-43405642D01*
X74551642Y-43296859D01*
X74637113Y-43168942D01*
X74695987Y-43026809D01*
X74726000Y-42875922D01*
X74726000Y-42722078D01*
X74698551Y-42584078D01*
X76974000Y-42584078D01*
X76974000Y-42737922D01*
X77004013Y-42888809D01*
X77062887Y-43030942D01*
X77148358Y-43158859D01*
X77257141Y-43267642D01*
X77385058Y-43353113D01*
X77527191Y-43411987D01*
X77678078Y-43442000D01*
X77831922Y-43442000D01*
X77982809Y-43411987D01*
X78124942Y-43353113D01*
X78252859Y-43267642D01*
X78361642Y-43158859D01*
X78372906Y-43142000D01*
X78604157Y-43142000D01*
X78606000Y-43782750D01*
X78701250Y-43878000D01*
X79723000Y-43878000D01*
X79723000Y-42856250D01*
X79851000Y-42856250D01*
X79851000Y-43878000D01*
X80872750Y-43878000D01*
X80968000Y-43782750D01*
X80969843Y-43142000D01*
X80962487Y-43067311D01*
X80940701Y-42995492D01*
X80905322Y-42929304D01*
X80857711Y-42871289D01*
X80799696Y-42823678D01*
X80733508Y-42788299D01*
X80661689Y-42766513D01*
X80587000Y-42759157D01*
X79946250Y-42761000D01*
X79851000Y-42856250D01*
X79723000Y-42856250D01*
X79627750Y-42761000D01*
X78987000Y-42759157D01*
X78912311Y-42766513D01*
X78840492Y-42788299D01*
X78774304Y-42823678D01*
X78716289Y-42871289D01*
X78668678Y-42929304D01*
X78633299Y-42995492D01*
X78611513Y-43067311D01*
X78604157Y-43142000D01*
X78372906Y-43142000D01*
X78447113Y-43030942D01*
X78505987Y-42888809D01*
X78536000Y-42737922D01*
X78536000Y-42584078D01*
X78505987Y-42433191D01*
X78447113Y-42291058D01*
X78361642Y-42163141D01*
X78252859Y-42054358D01*
X78124942Y-41968887D01*
X77982809Y-41910013D01*
X77831922Y-41880000D01*
X77678078Y-41880000D01*
X77527191Y-41910013D01*
X77385058Y-41968887D01*
X77257141Y-42054358D01*
X77148358Y-42163141D01*
X77062887Y-42291058D01*
X77004013Y-42433191D01*
X76974000Y-42584078D01*
X74698551Y-42584078D01*
X74695987Y-42571191D01*
X74637113Y-42429058D01*
X74551642Y-42301141D01*
X74442859Y-42192358D01*
X74314942Y-42106887D01*
X74172809Y-42048013D01*
X74021922Y-42018000D01*
X73868078Y-42018000D01*
X73717191Y-42048013D01*
X73575058Y-42106887D01*
X73447141Y-42192358D01*
X73338358Y-42301141D01*
X73252887Y-42429058D01*
X73194013Y-42571191D01*
X73164000Y-42722078D01*
X52228000Y-42722078D01*
X52228000Y-41198078D01*
X53199000Y-41198078D01*
X53199000Y-41351922D01*
X53229013Y-41502809D01*
X53287887Y-41644942D01*
X53373358Y-41772859D01*
X53482141Y-41881642D01*
X53610058Y-41967113D01*
X53752191Y-42025987D01*
X53903078Y-42056000D01*
X54056922Y-42056000D01*
X54207809Y-42025987D01*
X54349942Y-41967113D01*
X54477859Y-41881642D01*
X54586642Y-41772859D01*
X54672113Y-41644942D01*
X54730987Y-41502809D01*
X54741077Y-41452078D01*
X58686000Y-41452078D01*
X58686000Y-41605922D01*
X58716013Y-41756809D01*
X58774887Y-41898942D01*
X58860358Y-42026859D01*
X58969141Y-42135642D01*
X59097058Y-42221113D01*
X59239191Y-42279987D01*
X59390078Y-42310000D01*
X59543922Y-42310000D01*
X59694809Y-42279987D01*
X59836942Y-42221113D01*
X59964859Y-42135642D01*
X60073642Y-42026859D01*
X60159113Y-41898942D01*
X60217987Y-41756809D01*
X60229000Y-41701442D01*
X60240013Y-41756809D01*
X60298887Y-41898942D01*
X60384358Y-42026859D01*
X60493141Y-42135642D01*
X60621058Y-42221113D01*
X60763191Y-42279987D01*
X60914078Y-42310000D01*
X61067922Y-42310000D01*
X61218809Y-42279987D01*
X61360942Y-42221113D01*
X61488859Y-42135642D01*
X61597642Y-42026859D01*
X61683113Y-41898942D01*
X61741987Y-41756809D01*
X61772000Y-41605922D01*
X61772000Y-41452078D01*
X61741987Y-41301191D01*
X61683113Y-41159058D01*
X61597642Y-41031141D01*
X61488859Y-40922358D01*
X61360942Y-40836887D01*
X61218809Y-40778013D01*
X61067922Y-40748000D01*
X60914078Y-40748000D01*
X60763191Y-40778013D01*
X60621058Y-40836887D01*
X60493141Y-40922358D01*
X60384358Y-41031141D01*
X60298887Y-41159058D01*
X60240013Y-41301191D01*
X60229000Y-41356558D01*
X60217987Y-41301191D01*
X60159113Y-41159058D01*
X60073642Y-41031141D01*
X59964859Y-40922358D01*
X59836942Y-40836887D01*
X59694809Y-40778013D01*
X59543922Y-40748000D01*
X59390078Y-40748000D01*
X59239191Y-40778013D01*
X59097058Y-40836887D01*
X58969141Y-40922358D01*
X58860358Y-41031141D01*
X58774887Y-41159058D01*
X58716013Y-41301191D01*
X58686000Y-41452078D01*
X54741077Y-41452078D01*
X54761000Y-41351922D01*
X54761000Y-41198078D01*
X54730987Y-41047191D01*
X54672113Y-40905058D01*
X54586642Y-40777141D01*
X54477859Y-40668358D01*
X54349942Y-40582887D01*
X54207809Y-40524013D01*
X54056922Y-40494000D01*
X53903078Y-40494000D01*
X53752191Y-40524013D01*
X53610058Y-40582887D01*
X53482141Y-40668358D01*
X53373358Y-40777141D01*
X53287887Y-40905058D01*
X53229013Y-41047191D01*
X53199000Y-41198078D01*
X52228000Y-41198078D01*
X52228000Y-39801078D01*
X58686000Y-39801078D01*
X58686000Y-39954922D01*
X58716013Y-40105809D01*
X58774887Y-40247942D01*
X58860358Y-40375859D01*
X58969141Y-40484642D01*
X59097058Y-40570113D01*
X59239191Y-40628987D01*
X59390078Y-40659000D01*
X59543922Y-40659000D01*
X59694809Y-40628987D01*
X59836942Y-40570113D01*
X59964859Y-40484642D01*
X60073642Y-40375859D01*
X60159113Y-40247942D01*
X60217987Y-40105809D01*
X60229000Y-40050442D01*
X60240013Y-40105809D01*
X60298887Y-40247942D01*
X60384358Y-40375859D01*
X60493141Y-40484642D01*
X60621058Y-40570113D01*
X60763191Y-40628987D01*
X60914078Y-40659000D01*
X61067922Y-40659000D01*
X61218809Y-40628987D01*
X61360942Y-40570113D01*
X61488859Y-40484642D01*
X61597642Y-40375859D01*
X61683113Y-40247942D01*
X61741987Y-40105809D01*
X61772000Y-39954922D01*
X61772000Y-39801078D01*
X61741987Y-39650191D01*
X61683113Y-39508058D01*
X61597642Y-39380141D01*
X61488859Y-39271358D01*
X61360942Y-39185887D01*
X61218809Y-39127013D01*
X61067922Y-39097000D01*
X60914078Y-39097000D01*
X60763191Y-39127013D01*
X60621058Y-39185887D01*
X60493141Y-39271358D01*
X60384358Y-39380141D01*
X60298887Y-39508058D01*
X60240013Y-39650191D01*
X60229000Y-39705558D01*
X60217987Y-39650191D01*
X60159113Y-39508058D01*
X60073642Y-39380141D01*
X59964859Y-39271358D01*
X59836942Y-39185887D01*
X59694809Y-39127013D01*
X59543922Y-39097000D01*
X59390078Y-39097000D01*
X59239191Y-39127013D01*
X59097058Y-39185887D01*
X58969141Y-39271358D01*
X58860358Y-39380141D01*
X58774887Y-39508058D01*
X58716013Y-39650191D01*
X58686000Y-39801078D01*
X52228000Y-39801078D01*
X52228000Y-38931000D01*
X67131351Y-38931000D01*
X67097141Y-38953858D01*
G37*
%TD.AperFunction*%
%TD*%
D21*
%TO.N,+5VP*%
X67097141Y-38953858D02*
X66988358Y-39062641D01*
X66902887Y-39190558D01*
X66844013Y-39332691D01*
X66814000Y-39483578D01*
X66814000Y-39637422D01*
X66844013Y-39788309D01*
X66902887Y-39930442D01*
X66988358Y-40058359D01*
X67097141Y-40167142D01*
X67225058Y-40252613D01*
X67367191Y-40311487D01*
X67518078Y-40341500D01*
X67671922Y-40341500D01*
X67822809Y-40311487D01*
X67964942Y-40252613D01*
X68092859Y-40167142D01*
X68201642Y-40058359D01*
X68287113Y-39930442D01*
X68345987Y-39788309D01*
X68363315Y-39701192D01*
X68368013Y-39724809D01*
X68426887Y-39866942D01*
X68512358Y-39994859D01*
X68621141Y-40103642D01*
X68749058Y-40189113D01*
X68891191Y-40247987D01*
X69042078Y-40278000D01*
X69195922Y-40278000D01*
X69346809Y-40247987D01*
X69488942Y-40189113D01*
X69616859Y-40103642D01*
X69725642Y-39994859D01*
X69811113Y-39866942D01*
X69869987Y-39724809D01*
X69900000Y-39573922D01*
X69900000Y-39420078D01*
X69869987Y-39269191D01*
X69811113Y-39127058D01*
X69725642Y-38999141D01*
X69657501Y-38931000D01*
X77978499Y-38931000D01*
X77910358Y-38999141D01*
X77824887Y-39127058D01*
X77766013Y-39269191D01*
X77736000Y-39420078D01*
X77736000Y-39573922D01*
X77766013Y-39724809D01*
X77824887Y-39866942D01*
X77910358Y-39994859D01*
X78019141Y-40103642D01*
X78147058Y-40189113D01*
X78289191Y-40247987D01*
X78440078Y-40278000D01*
X78593922Y-40278000D01*
X78744809Y-40247987D01*
X78886942Y-40189113D01*
X79014859Y-40103642D01*
X79123642Y-39994859D01*
X79209113Y-39866942D01*
X79267987Y-39724809D01*
X79272685Y-39701192D01*
X79290013Y-39788309D01*
X79348887Y-39930442D01*
X79434358Y-40058359D01*
X79543141Y-40167142D01*
X79671058Y-40252613D01*
X79813191Y-40311487D01*
X79964078Y-40341500D01*
X80117922Y-40341500D01*
X80268809Y-40311487D01*
X80410942Y-40252613D01*
X80538859Y-40167142D01*
X80647642Y-40058359D01*
X80733113Y-39930442D01*
X80791987Y-39788309D01*
X80822000Y-39637422D01*
X80822000Y-39483578D01*
X80791987Y-39332691D01*
X80733113Y-39190558D01*
X80647642Y-39062641D01*
X80538859Y-38953858D01*
X80504649Y-38931000D01*
X88677000Y-38931000D01*
X88677000Y-39281499D01*
X88666859Y-39271358D01*
X88538942Y-39185887D01*
X88396809Y-39127013D01*
X88245922Y-39097000D01*
X88092078Y-39097000D01*
X87941191Y-39127013D01*
X87799058Y-39185887D01*
X87671141Y-39271358D01*
X87562358Y-39380141D01*
X87476887Y-39508058D01*
X87418013Y-39650191D01*
X87407000Y-39705558D01*
X87395987Y-39650191D01*
X87337113Y-39508058D01*
X87251642Y-39380141D01*
X87142859Y-39271358D01*
X87014942Y-39185887D01*
X86872809Y-39127013D01*
X86721922Y-39097000D01*
X86568078Y-39097000D01*
X86417191Y-39127013D01*
X86275058Y-39185887D01*
X86147141Y-39271358D01*
X86038358Y-39380141D01*
X85952887Y-39508058D01*
X85894013Y-39650191D01*
X85864000Y-39801078D01*
X85864000Y-39954922D01*
X85894013Y-40105809D01*
X85952887Y-40247942D01*
X86038358Y-40375859D01*
X86147141Y-40484642D01*
X86275058Y-40570113D01*
X86417191Y-40628987D01*
X86568078Y-40659000D01*
X86721922Y-40659000D01*
X86872809Y-40628987D01*
X87014942Y-40570113D01*
X87142859Y-40484642D01*
X87251642Y-40375859D01*
X87337113Y-40247942D01*
X87395987Y-40105809D01*
X87407000Y-40050442D01*
X87418013Y-40105809D01*
X87476887Y-40247942D01*
X87562358Y-40375859D01*
X87671141Y-40484642D01*
X87799058Y-40570113D01*
X87941191Y-40628987D01*
X88092078Y-40659000D01*
X88245922Y-40659000D01*
X88396809Y-40628987D01*
X88538942Y-40570113D01*
X88666859Y-40484642D01*
X88677000Y-40474501D01*
X88677000Y-40561289D01*
X88636693Y-40637096D01*
X88621817Y-40673188D01*
X88606419Y-40709114D01*
X88604640Y-40714863D01*
X88562954Y-40852931D01*
X88538942Y-40836887D01*
X88396809Y-40778013D01*
X88245922Y-40748000D01*
X88092078Y-40748000D01*
X87941191Y-40778013D01*
X87799058Y-40836887D01*
X87671141Y-40922358D01*
X87562358Y-41031141D01*
X87476887Y-41159058D01*
X87418013Y-41301191D01*
X87407000Y-41356558D01*
X87395987Y-41301191D01*
X87337113Y-41159058D01*
X87251642Y-41031141D01*
X87142859Y-40922358D01*
X87014942Y-40836887D01*
X86872809Y-40778013D01*
X86721922Y-40748000D01*
X86568078Y-40748000D01*
X86417191Y-40778013D01*
X86275058Y-40836887D01*
X86147141Y-40922358D01*
X86038358Y-41031141D01*
X85952887Y-41159058D01*
X85894013Y-41301191D01*
X85864000Y-41452078D01*
X85864000Y-41605922D01*
X85894013Y-41756809D01*
X85952887Y-41898942D01*
X86038358Y-42026859D01*
X86147141Y-42135642D01*
X86275058Y-42221113D01*
X86417191Y-42279987D01*
X86568078Y-42310000D01*
X86721922Y-42310000D01*
X86872809Y-42279987D01*
X87014942Y-42221113D01*
X87142859Y-42135642D01*
X87251642Y-42026859D01*
X87337113Y-41898942D01*
X87395987Y-41756809D01*
X87407000Y-41701442D01*
X87418013Y-41756809D01*
X87476887Y-41898942D01*
X87562358Y-42026859D01*
X87671141Y-42135642D01*
X87799058Y-42221113D01*
X87941191Y-42279987D01*
X88092078Y-42310000D01*
X88245922Y-42310000D01*
X88396809Y-42279987D01*
X88500001Y-42237243D01*
X88500000Y-43494636D01*
X88453588Y-43382587D01*
X88324342Y-43189157D01*
X88159843Y-43024658D01*
X87966413Y-42895412D01*
X87751485Y-42806386D01*
X87523318Y-42761000D01*
X87290682Y-42761000D01*
X87062515Y-42806386D01*
X86847587Y-42895412D01*
X86654157Y-43024658D01*
X86489658Y-43189157D01*
X86360412Y-43382587D01*
X86271386Y-43597515D01*
X86226000Y-43825682D01*
X86226000Y-44058318D01*
X86271386Y-44286485D01*
X86360412Y-44501413D01*
X86489658Y-44694843D01*
X86654157Y-44859342D01*
X86847587Y-44988588D01*
X87062515Y-45077614D01*
X87290682Y-45123000D01*
X87523318Y-45123000D01*
X87751485Y-45077614D01*
X87966413Y-44988588D01*
X88159843Y-44859342D01*
X88324342Y-44694843D01*
X88453588Y-44501413D01*
X88500000Y-44389364D01*
X88500000Y-44471167D01*
X88502168Y-44493178D01*
X88502168Y-44508017D01*
X88502797Y-44514002D01*
X88527663Y-44735686D01*
X88535784Y-44773890D01*
X88543372Y-44812215D01*
X88545152Y-44817964D01*
X88612603Y-45030597D01*
X88627989Y-45066495D01*
X88642878Y-45102619D01*
X88645735Y-45107903D01*
X88645739Y-45107912D01*
X88645744Y-45107919D01*
X88677000Y-45164774D01*
X88677000Y-47536899D01*
X88515584Y-47488164D01*
X88477298Y-47480583D01*
X88439053Y-47472454D01*
X88433070Y-47471825D01*
X88433068Y-47471825D01*
X88211058Y-47450057D01*
X88211052Y-47450057D01*
X88190168Y-47448000D01*
X88087021Y-47448000D01*
X88159843Y-47399342D01*
X88324342Y-47234843D01*
X88453588Y-47041413D01*
X88542614Y-46826485D01*
X88588000Y-46598318D01*
X88588000Y-46365682D01*
X88542614Y-46137515D01*
X88453588Y-45922587D01*
X88324342Y-45729157D01*
X88159843Y-45564658D01*
X87966413Y-45435412D01*
X87751485Y-45346386D01*
X87523318Y-45301000D01*
X87290682Y-45301000D01*
X87062515Y-45346386D01*
X86847587Y-45435412D01*
X86654157Y-45564658D01*
X86489658Y-45729157D01*
X86360412Y-45922587D01*
X86271386Y-46137515D01*
X86226000Y-46365682D01*
X86226000Y-46598318D01*
X86271386Y-46826485D01*
X86360412Y-47041413D01*
X86489658Y-47234843D01*
X86654157Y-47399342D01*
X86726979Y-47448000D01*
X86623832Y-47448000D01*
X86601821Y-47450168D01*
X86586983Y-47450168D01*
X86580997Y-47450797D01*
X86359314Y-47475663D01*
X86321110Y-47483784D01*
X86282785Y-47491372D01*
X86277038Y-47493151D01*
X86277032Y-47493153D01*
X86064403Y-47560603D01*
X86028493Y-47575994D01*
X85992381Y-47590878D01*
X85987097Y-47593735D01*
X85987088Y-47593739D01*
X85987081Y-47593744D01*
X85791607Y-47701207D01*
X85759402Y-47723258D01*
X85726838Y-47744894D01*
X85722201Y-47748730D01*
X85718304Y-47752000D01*
X81473586Y-47752000D01*
X81453932Y-47735971D01*
X81421433Y-47714378D01*
X81389162Y-47692282D01*
X81383868Y-47689420D01*
X81186904Y-47584693D01*
X81150812Y-47569817D01*
X81114886Y-47554419D01*
X81109137Y-47552640D01*
X81109139Y-47552640D01*
X81109131Y-47552638D01*
X80895584Y-47488164D01*
X80857298Y-47480583D01*
X80819053Y-47472454D01*
X80813070Y-47471825D01*
X80813068Y-47471825D01*
X80591058Y-47450057D01*
X80591052Y-47450057D01*
X80570168Y-47448000D01*
X80445238Y-47448000D01*
X80512199Y-47297708D01*
X79787000Y-46572510D01*
X79061801Y-47297708D01*
X79128762Y-47448000D01*
X79003832Y-47448000D01*
X78981821Y-47450168D01*
X78966983Y-47450168D01*
X78960997Y-47450797D01*
X78739314Y-47475663D01*
X78701110Y-47483784D01*
X78662785Y-47491372D01*
X78657038Y-47493151D01*
X78657032Y-47493153D01*
X78444403Y-47560603D01*
X78408493Y-47575994D01*
X78372381Y-47590878D01*
X78367097Y-47593735D01*
X78367088Y-47593739D01*
X78367081Y-47593744D01*
X78171607Y-47701207D01*
X78139402Y-47723258D01*
X78106838Y-47744894D01*
X78102201Y-47748730D01*
X78098304Y-47752000D01*
X68519586Y-47752000D01*
X68499932Y-47735971D01*
X68467433Y-47714378D01*
X68435162Y-47692282D01*
X68429868Y-47689420D01*
X68232904Y-47584693D01*
X68196812Y-47569817D01*
X68160886Y-47554419D01*
X68155137Y-47552640D01*
X68155139Y-47552640D01*
X68155131Y-47552638D01*
X67941584Y-47488164D01*
X67903298Y-47480583D01*
X67865053Y-47472454D01*
X67859070Y-47471825D01*
X67859068Y-47471825D01*
X67637058Y-47450057D01*
X67637052Y-47450057D01*
X67616168Y-47448000D01*
X67513021Y-47448000D01*
X67585843Y-47399342D01*
X67750342Y-47234843D01*
X67879588Y-47041413D01*
X67968614Y-46826485D01*
X68014000Y-46598318D01*
X68014000Y-46365682D01*
X67968614Y-46137515D01*
X67879588Y-45922587D01*
X67750342Y-45729157D01*
X67585843Y-45564658D01*
X67569608Y-45553810D01*
X72216423Y-45553810D01*
X72216423Y-45707654D01*
X72246436Y-45858541D01*
X72305310Y-46000674D01*
X72390781Y-46128591D01*
X72499564Y-46237374D01*
X72627481Y-46322845D01*
X72769614Y-46381719D01*
X72920501Y-46411732D01*
X73074345Y-46411732D01*
X73225232Y-46381719D01*
X73367365Y-46322845D01*
X73495282Y-46237374D01*
X73604065Y-46128591D01*
X73689536Y-46000674D01*
X73715094Y-45938970D01*
X74334814Y-45938970D01*
X74334814Y-46092814D01*
X74364827Y-46243701D01*
X74423701Y-46385834D01*
X74509172Y-46513751D01*
X74617955Y-46622534D01*
X74745872Y-46708005D01*
X74888005Y-46766879D01*
X75038892Y-46796892D01*
X75192736Y-46796892D01*
X75343623Y-46766879D01*
X75485756Y-46708005D01*
X75613673Y-46622534D01*
X75722456Y-46513751D01*
X75807927Y-46385834D01*
X75816938Y-46364078D01*
X76552000Y-46364078D01*
X76552000Y-46517922D01*
X76582013Y-46668809D01*
X76640887Y-46810942D01*
X76726358Y-46938859D01*
X76835141Y-47047642D01*
X76963058Y-47133113D01*
X77105191Y-47191987D01*
X77256078Y-47222000D01*
X77409922Y-47222000D01*
X77560809Y-47191987D01*
X77702942Y-47133113D01*
X77830859Y-47047642D01*
X77939642Y-46938859D01*
X78025113Y-46810942D01*
X78083987Y-46668809D01*
X78114000Y-46517922D01*
X78114000Y-46499429D01*
X78600414Y-46499429D01*
X78626614Y-46730586D01*
X78697408Y-46952189D01*
X78790707Y-47126741D01*
X78971292Y-47207199D01*
X79696490Y-46482000D01*
X79877510Y-46482000D01*
X80602708Y-47207199D01*
X80783293Y-47126741D01*
X80889932Y-46919985D01*
X80954186Y-46696398D01*
X80973586Y-46464571D01*
X80947386Y-46233414D01*
X80876592Y-46011811D01*
X80783293Y-45837259D01*
X80602708Y-45756801D01*
X79877510Y-46482000D01*
X79696490Y-46482000D01*
X78971292Y-45756801D01*
X78790707Y-45837259D01*
X78684068Y-46044015D01*
X78619814Y-46267602D01*
X78600414Y-46499429D01*
X78114000Y-46499429D01*
X78114000Y-46364078D01*
X78083987Y-46213191D01*
X78025113Y-46071058D01*
X77939642Y-45943141D01*
X77830859Y-45834358D01*
X77702942Y-45748887D01*
X77560809Y-45690013D01*
X77441555Y-45666292D01*
X79061801Y-45666292D01*
X79787000Y-46391490D01*
X80512199Y-45666292D01*
X80431741Y-45485707D01*
X80224985Y-45379068D01*
X80001398Y-45314814D01*
X79769571Y-45295414D01*
X79538414Y-45321614D01*
X79316811Y-45392408D01*
X79142259Y-45485707D01*
X79061801Y-45666292D01*
X77441555Y-45666292D01*
X77409922Y-45660000D01*
X77256078Y-45660000D01*
X77105191Y-45690013D01*
X76963058Y-45748887D01*
X76835141Y-45834358D01*
X76726358Y-45943141D01*
X76640887Y-46071058D01*
X76582013Y-46213191D01*
X76552000Y-46364078D01*
X75816938Y-46364078D01*
X75866801Y-46243701D01*
X75896814Y-46092814D01*
X75896814Y-45938970D01*
X75866801Y-45788083D01*
X75807927Y-45645950D01*
X75722456Y-45518033D01*
X75670547Y-45466124D01*
X75722528Y-45414143D01*
X75807999Y-45286226D01*
X75866873Y-45144093D01*
X75896886Y-44993206D01*
X75896886Y-44839362D01*
X75877520Y-44742000D01*
X78604157Y-44742000D01*
X78611513Y-44816689D01*
X78633299Y-44888508D01*
X78668678Y-44954696D01*
X78716289Y-45012711D01*
X78774304Y-45060322D01*
X78840492Y-45095701D01*
X78912311Y-45117487D01*
X78987000Y-45124843D01*
X79627750Y-45123000D01*
X79723000Y-45027750D01*
X79723000Y-44006000D01*
X79851000Y-44006000D01*
X79851000Y-45027750D01*
X79946250Y-45123000D01*
X80587000Y-45124843D01*
X80661689Y-45117487D01*
X80733508Y-45095701D01*
X80799696Y-45060322D01*
X80857711Y-45012711D01*
X80905322Y-44954696D01*
X80940701Y-44888508D01*
X80962487Y-44816689D01*
X80969843Y-44742000D01*
X80968000Y-44101250D01*
X80872750Y-44006000D01*
X79851000Y-44006000D01*
X79723000Y-44006000D01*
X78701250Y-44006000D01*
X78606000Y-44101250D01*
X78604157Y-44742000D01*
X75877520Y-44742000D01*
X75866873Y-44688475D01*
X75807999Y-44546342D01*
X75722528Y-44418425D01*
X75613745Y-44309642D01*
X75485828Y-44224171D01*
X75343695Y-44165297D01*
X75192808Y-44135284D01*
X75038964Y-44135284D01*
X74888077Y-44165297D01*
X74745944Y-44224171D01*
X74618027Y-44309642D01*
X74509244Y-44418425D01*
X74423773Y-44546342D01*
X74364899Y-44688475D01*
X74334886Y-44839362D01*
X74334886Y-44993206D01*
X74364899Y-45144093D01*
X74423773Y-45286226D01*
X74509244Y-45414143D01*
X74561153Y-45466052D01*
X74509172Y-45518033D01*
X74423701Y-45645950D01*
X74364827Y-45788083D01*
X74334814Y-45938970D01*
X73715094Y-45938970D01*
X73748410Y-45858541D01*
X73778423Y-45707654D01*
X73778423Y-45553810D01*
X73748410Y-45402923D01*
X73689536Y-45260790D01*
X73604065Y-45132873D01*
X73495282Y-45024090D01*
X73367365Y-44938619D01*
X73225232Y-44879745D01*
X73074345Y-44849732D01*
X72920501Y-44849732D01*
X72769614Y-44879745D01*
X72627481Y-44938619D01*
X72499564Y-45024090D01*
X72390781Y-45132873D01*
X72305310Y-45260790D01*
X72246436Y-45402923D01*
X72216423Y-45553810D01*
X67569608Y-45553810D01*
X67392413Y-45435412D01*
X67177485Y-45346386D01*
X66949318Y-45301000D01*
X66716682Y-45301000D01*
X66488515Y-45346386D01*
X66273587Y-45435412D01*
X66080157Y-45564658D01*
X65915658Y-45729157D01*
X65786412Y-45922587D01*
X65697386Y-46137515D01*
X65652000Y-46365682D01*
X65652000Y-46598318D01*
X65697386Y-46826485D01*
X65786412Y-47041413D01*
X65915658Y-47234843D01*
X66080157Y-47399342D01*
X66152979Y-47448000D01*
X66049832Y-47448000D01*
X66027821Y-47450168D01*
X66012983Y-47450168D01*
X66006997Y-47450797D01*
X65785314Y-47475663D01*
X65747110Y-47483784D01*
X65708785Y-47491372D01*
X65703038Y-47493151D01*
X65703032Y-47493153D01*
X65490403Y-47560603D01*
X65454493Y-47575994D01*
X65418381Y-47590878D01*
X65413097Y-47593735D01*
X65413088Y-47593739D01*
X65413081Y-47593744D01*
X65217607Y-47701207D01*
X65185402Y-47723258D01*
X65152838Y-47744894D01*
X65148201Y-47748730D01*
X65144304Y-47752000D01*
X60899586Y-47752000D01*
X60879932Y-47735971D01*
X60847433Y-47714378D01*
X60815162Y-47692282D01*
X60809868Y-47689420D01*
X60612904Y-47584693D01*
X60576812Y-47569817D01*
X60540886Y-47554419D01*
X60535137Y-47552640D01*
X60535139Y-47552640D01*
X60535131Y-47552638D01*
X60321584Y-47488164D01*
X60283298Y-47480583D01*
X60245053Y-47472454D01*
X60239070Y-47471825D01*
X60239068Y-47471825D01*
X60017058Y-47450057D01*
X60017052Y-47450057D01*
X59996168Y-47448000D01*
X59871238Y-47448000D01*
X59938199Y-47297708D01*
X59213000Y-46572510D01*
X58487801Y-47297708D01*
X58554762Y-47448000D01*
X58429832Y-47448000D01*
X58407821Y-47450168D01*
X58392983Y-47450168D01*
X58386997Y-47450797D01*
X58165314Y-47475663D01*
X58127110Y-47483784D01*
X58088785Y-47491372D01*
X58083038Y-47493151D01*
X58083032Y-47493153D01*
X57870403Y-47560603D01*
X57834493Y-47575994D01*
X57798381Y-47590878D01*
X57793097Y-47593735D01*
X57793088Y-47593739D01*
X57793081Y-47593744D01*
X57597607Y-47701207D01*
X57565402Y-47723258D01*
X57532838Y-47744894D01*
X57528201Y-47748730D01*
X57524304Y-47752000D01*
X55784000Y-47752000D01*
X55759224Y-47754440D01*
X55735399Y-47761667D01*
X55713443Y-47773403D01*
X55694197Y-47789197D01*
X55678403Y-47808443D01*
X55666667Y-47830399D01*
X55659440Y-47854224D01*
X55657000Y-47879000D01*
X55657000Y-50334598D01*
X55567821Y-50423777D01*
X55394218Y-50683594D01*
X55274637Y-50972286D01*
X55213676Y-51278761D01*
X55213676Y-51591239D01*
X55274637Y-51897714D01*
X55394218Y-52186406D01*
X55567821Y-52446223D01*
X55657000Y-52535402D01*
X55657000Y-54229000D01*
X52228000Y-54229000D01*
X52228000Y-50342078D01*
X52691032Y-50342078D01*
X52691032Y-50495922D01*
X52721045Y-50646809D01*
X52779919Y-50788942D01*
X52865390Y-50916859D01*
X52974173Y-51025642D01*
X53102090Y-51111113D01*
X53244223Y-51169987D01*
X53395110Y-51200000D01*
X53548954Y-51200000D01*
X53699841Y-51169987D01*
X53841974Y-51111113D01*
X53969891Y-51025642D01*
X54078674Y-50916859D01*
X54164145Y-50788942D01*
X54223019Y-50646809D01*
X54253032Y-50495922D01*
X54253032Y-50342078D01*
X54223019Y-50191191D01*
X54164145Y-50049058D01*
X54078674Y-49921141D01*
X53969891Y-49812358D01*
X53841974Y-49726887D01*
X53699841Y-49668013D01*
X53548954Y-49638000D01*
X53395110Y-49638000D01*
X53244223Y-49668013D01*
X53102090Y-49726887D01*
X52974173Y-49812358D01*
X52865390Y-49921141D01*
X52779919Y-50049058D01*
X52721045Y-50191191D01*
X52691032Y-50342078D01*
X52228000Y-50342078D01*
X52228000Y-46659078D01*
X53352000Y-46659078D01*
X53352000Y-46812922D01*
X53382013Y-46963809D01*
X53440887Y-47105942D01*
X53526358Y-47233859D01*
X53635141Y-47342642D01*
X53763058Y-47428113D01*
X53905191Y-47486987D01*
X54056078Y-47517000D01*
X54209922Y-47517000D01*
X54360809Y-47486987D01*
X54502942Y-47428113D01*
X54630859Y-47342642D01*
X54739642Y-47233859D01*
X54768000Y-47191418D01*
X54796358Y-47233859D01*
X54905141Y-47342642D01*
X55033058Y-47428113D01*
X55175191Y-47486987D01*
X55326078Y-47517000D01*
X55479922Y-47517000D01*
X55630809Y-47486987D01*
X55772942Y-47428113D01*
X55900859Y-47342642D01*
X56009642Y-47233859D01*
X56095113Y-47105942D01*
X56153987Y-46963809D01*
X56184000Y-46812922D01*
X56184000Y-46659078D01*
X56153987Y-46508191D01*
X56150358Y-46499429D01*
X58026414Y-46499429D01*
X58052614Y-46730586D01*
X58123408Y-46952189D01*
X58216707Y-47126741D01*
X58397292Y-47207199D01*
X59122490Y-46482000D01*
X59303510Y-46482000D01*
X60028708Y-47207199D01*
X60209293Y-47126741D01*
X60315932Y-46919985D01*
X60380186Y-46696398D01*
X60399586Y-46464571D01*
X60373386Y-46233414D01*
X60302592Y-46011811D01*
X60209293Y-45837259D01*
X60028708Y-45756801D01*
X59303510Y-46482000D01*
X59122490Y-46482000D01*
X58397292Y-45756801D01*
X58216707Y-45837259D01*
X58110068Y-46044015D01*
X58045814Y-46267602D01*
X58026414Y-46499429D01*
X56150358Y-46499429D01*
X56095113Y-46366058D01*
X56009642Y-46238141D01*
X55900859Y-46129358D01*
X55772942Y-46043887D01*
X55630809Y-45985013D01*
X55479922Y-45955000D01*
X55326078Y-45955000D01*
X55175191Y-45985013D01*
X55033058Y-46043887D01*
X54905141Y-46129358D01*
X54796358Y-46238141D01*
X54768000Y-46280582D01*
X54739642Y-46238141D01*
X54630859Y-46129358D01*
X54502942Y-46043887D01*
X54360809Y-45985013D01*
X54209922Y-45955000D01*
X54056078Y-45955000D01*
X53905191Y-45985013D01*
X53763058Y-46043887D01*
X53635141Y-46129358D01*
X53526358Y-46238141D01*
X53440887Y-46366058D01*
X53382013Y-46508191D01*
X53352000Y-46659078D01*
X52228000Y-46659078D01*
X52228000Y-45666292D01*
X58487801Y-45666292D01*
X59213000Y-46391490D01*
X59938199Y-45666292D01*
X59857741Y-45485707D01*
X59650985Y-45379068D01*
X59427398Y-45314814D01*
X59195571Y-45295414D01*
X58964414Y-45321614D01*
X58742811Y-45392408D01*
X58568259Y-45485707D01*
X58487801Y-45666292D01*
X52228000Y-45666292D01*
X52228000Y-44742000D01*
X58030157Y-44742000D01*
X58037513Y-44816689D01*
X58059299Y-44888508D01*
X58094678Y-44954696D01*
X58142289Y-45012711D01*
X58200304Y-45060322D01*
X58266492Y-45095701D01*
X58338311Y-45117487D01*
X58413000Y-45124843D01*
X59053750Y-45123000D01*
X59149000Y-45027750D01*
X59149000Y-44006000D01*
X59277000Y-44006000D01*
X59277000Y-45027750D01*
X59372250Y-45123000D01*
X60013000Y-45124843D01*
X60087689Y-45117487D01*
X60159508Y-45095701D01*
X60225696Y-45060322D01*
X60283711Y-45012711D01*
X60331322Y-44954696D01*
X60366701Y-44888508D01*
X60388487Y-44816689D01*
X60395843Y-44742000D01*
X60394000Y-44101250D01*
X60298750Y-44006000D01*
X59277000Y-44006000D01*
X59149000Y-44006000D01*
X58127250Y-44006000D01*
X58032000Y-44101250D01*
X58030157Y-44742000D01*
X52228000Y-44742000D01*
X52228000Y-43142000D01*
X58030157Y-43142000D01*
X58032000Y-43782750D01*
X58127250Y-43878000D01*
X59149000Y-43878000D01*
X59149000Y-42856250D01*
X59277000Y-42856250D01*
X59277000Y-43878000D01*
X60298750Y-43878000D01*
X60351068Y-43825682D01*
X65652000Y-43825682D01*
X65652000Y-44058318D01*
X65697386Y-44286485D01*
X65786412Y-44501413D01*
X65915658Y-44694843D01*
X66080157Y-44859342D01*
X66273587Y-44988588D01*
X66488515Y-45077614D01*
X66716682Y-45123000D01*
X66949318Y-45123000D01*
X67177485Y-45077614D01*
X67392413Y-44988588D01*
X67585843Y-44859342D01*
X67750342Y-44694843D01*
X67879588Y-44501413D01*
X67968614Y-44286485D01*
X68014000Y-44058318D01*
X68014000Y-43825682D01*
X67971312Y-43611078D01*
X70115992Y-43611078D01*
X70115992Y-43764922D01*
X70146005Y-43915809D01*
X70204879Y-44057942D01*
X70290350Y-44185859D01*
X70399133Y-44294642D01*
X70527050Y-44380113D01*
X70669183Y-44438987D01*
X70820070Y-44469000D01*
X70973914Y-44469000D01*
X71124801Y-44438987D01*
X71266934Y-44380113D01*
X71394851Y-44294642D01*
X71503634Y-44185859D01*
X71589105Y-44057942D01*
X71647979Y-43915809D01*
X71677992Y-43764922D01*
X71677992Y-43611078D01*
X71647979Y-43460191D01*
X71589105Y-43318058D01*
X71503634Y-43190141D01*
X71394851Y-43081358D01*
X71266934Y-42995887D01*
X71124801Y-42937013D01*
X70973914Y-42907000D01*
X70820070Y-42907000D01*
X70669183Y-42937013D01*
X70527050Y-42995887D01*
X70399133Y-43081358D01*
X70290350Y-43190141D01*
X70204879Y-43318058D01*
X70146005Y-43460191D01*
X70115992Y-43611078D01*
X67971312Y-43611078D01*
X67968614Y-43597515D01*
X67879588Y-43382587D01*
X67750342Y-43189157D01*
X67585843Y-43024658D01*
X67392413Y-42895412D01*
X67177485Y-42806386D01*
X66949318Y-42761000D01*
X66716682Y-42761000D01*
X66488515Y-42806386D01*
X66273587Y-42895412D01*
X66080157Y-43024658D01*
X65915658Y-43189157D01*
X65786412Y-43382587D01*
X65697386Y-43597515D01*
X65652000Y-43825682D01*
X60351068Y-43825682D01*
X60394000Y-43782750D01*
X60395843Y-43142000D01*
X60388487Y-43067311D01*
X60366701Y-42995492D01*
X60331322Y-42929304D01*
X60283711Y-42871289D01*
X60225696Y-42823678D01*
X60159508Y-42788299D01*
X60087689Y-42766513D01*
X60013000Y-42759157D01*
X59372250Y-42761000D01*
X59277000Y-42856250D01*
X59149000Y-42856250D01*
X59053750Y-42761000D01*
X58413000Y-42759157D01*
X58338311Y-42766513D01*
X58266492Y-42788299D01*
X58200304Y-42823678D01*
X58142289Y-42871289D01*
X58094678Y-42929304D01*
X58059299Y-42995492D01*
X58037513Y-43067311D01*
X58030157Y-43142000D01*
X52228000Y-43142000D01*
X52228000Y-42722078D01*
X73164000Y-42722078D01*
X73164000Y-42875922D01*
X73194013Y-43026809D01*
X73252887Y-43168942D01*
X73338358Y-43296859D01*
X73447141Y-43405642D01*
X73575058Y-43491113D01*
X73717191Y-43549987D01*
X73868078Y-43580000D01*
X74021922Y-43580000D01*
X74172809Y-43549987D01*
X74314942Y-43491113D01*
X74442859Y-43405642D01*
X74551642Y-43296859D01*
X74637113Y-43168942D01*
X74695987Y-43026809D01*
X74726000Y-42875922D01*
X74726000Y-42722078D01*
X74698551Y-42584078D01*
X76974000Y-42584078D01*
X76974000Y-42737922D01*
X77004013Y-42888809D01*
X77062887Y-43030942D01*
X77148358Y-43158859D01*
X77257141Y-43267642D01*
X77385058Y-43353113D01*
X77527191Y-43411987D01*
X77678078Y-43442000D01*
X77831922Y-43442000D01*
X77982809Y-43411987D01*
X78124942Y-43353113D01*
X78252859Y-43267642D01*
X78361642Y-43158859D01*
X78372906Y-43142000D01*
X78604157Y-43142000D01*
X78606000Y-43782750D01*
X78701250Y-43878000D01*
X79723000Y-43878000D01*
X79723000Y-42856250D01*
X79851000Y-42856250D01*
X79851000Y-43878000D01*
X80872750Y-43878000D01*
X80968000Y-43782750D01*
X80969843Y-43142000D01*
X80962487Y-43067311D01*
X80940701Y-42995492D01*
X80905322Y-42929304D01*
X80857711Y-42871289D01*
X80799696Y-42823678D01*
X80733508Y-42788299D01*
X80661689Y-42766513D01*
X80587000Y-42759157D01*
X79946250Y-42761000D01*
X79851000Y-42856250D01*
X79723000Y-42856250D01*
X79627750Y-42761000D01*
X78987000Y-42759157D01*
X78912311Y-42766513D01*
X78840492Y-42788299D01*
X78774304Y-42823678D01*
X78716289Y-42871289D01*
X78668678Y-42929304D01*
X78633299Y-42995492D01*
X78611513Y-43067311D01*
X78604157Y-43142000D01*
X78372906Y-43142000D01*
X78447113Y-43030942D01*
X78505987Y-42888809D01*
X78536000Y-42737922D01*
X78536000Y-42584078D01*
X78505987Y-42433191D01*
X78447113Y-42291058D01*
X78361642Y-42163141D01*
X78252859Y-42054358D01*
X78124942Y-41968887D01*
X77982809Y-41910013D01*
X77831922Y-41880000D01*
X77678078Y-41880000D01*
X77527191Y-41910013D01*
X77385058Y-41968887D01*
X77257141Y-42054358D01*
X77148358Y-42163141D01*
X77062887Y-42291058D01*
X77004013Y-42433191D01*
X76974000Y-42584078D01*
X74698551Y-42584078D01*
X74695987Y-42571191D01*
X74637113Y-42429058D01*
X74551642Y-42301141D01*
X74442859Y-42192358D01*
X74314942Y-42106887D01*
X74172809Y-42048013D01*
X74021922Y-42018000D01*
X73868078Y-42018000D01*
X73717191Y-42048013D01*
X73575058Y-42106887D01*
X73447141Y-42192358D01*
X73338358Y-42301141D01*
X73252887Y-42429058D01*
X73194013Y-42571191D01*
X73164000Y-42722078D01*
X52228000Y-42722078D01*
X52228000Y-41198078D01*
X53199000Y-41198078D01*
X53199000Y-41351922D01*
X53229013Y-41502809D01*
X53287887Y-41644942D01*
X53373358Y-41772859D01*
X53482141Y-41881642D01*
X53610058Y-41967113D01*
X53752191Y-42025987D01*
X53903078Y-42056000D01*
X54056922Y-42056000D01*
X54207809Y-42025987D01*
X54349942Y-41967113D01*
X54477859Y-41881642D01*
X54586642Y-41772859D01*
X54672113Y-41644942D01*
X54730987Y-41502809D01*
X54741077Y-41452078D01*
X58686000Y-41452078D01*
X58686000Y-41605922D01*
X58716013Y-41756809D01*
X58774887Y-41898942D01*
X58860358Y-42026859D01*
X58969141Y-42135642D01*
X59097058Y-42221113D01*
X59239191Y-42279987D01*
X59390078Y-42310000D01*
X59543922Y-42310000D01*
X59694809Y-42279987D01*
X59836942Y-42221113D01*
X59964859Y-42135642D01*
X60073642Y-42026859D01*
X60159113Y-41898942D01*
X60217987Y-41756809D01*
X60229000Y-41701442D01*
X60240013Y-41756809D01*
X60298887Y-41898942D01*
X60384358Y-42026859D01*
X60493141Y-42135642D01*
X60621058Y-42221113D01*
X60763191Y-42279987D01*
X60914078Y-42310000D01*
X61067922Y-42310000D01*
X61218809Y-42279987D01*
X61360942Y-42221113D01*
X61488859Y-42135642D01*
X61597642Y-42026859D01*
X61683113Y-41898942D01*
X61741987Y-41756809D01*
X61772000Y-41605922D01*
X61772000Y-41452078D01*
X61741987Y-41301191D01*
X61683113Y-41159058D01*
X61597642Y-41031141D01*
X61488859Y-40922358D01*
X61360942Y-40836887D01*
X61218809Y-40778013D01*
X61067922Y-40748000D01*
X60914078Y-40748000D01*
X60763191Y-40778013D01*
X60621058Y-40836887D01*
X60493141Y-40922358D01*
X60384358Y-41031141D01*
X60298887Y-41159058D01*
X60240013Y-41301191D01*
X60229000Y-41356558D01*
X60217987Y-41301191D01*
X60159113Y-41159058D01*
X60073642Y-41031141D01*
X59964859Y-40922358D01*
X59836942Y-40836887D01*
X59694809Y-40778013D01*
X59543922Y-40748000D01*
X59390078Y-40748000D01*
X59239191Y-40778013D01*
X59097058Y-40836887D01*
X58969141Y-40922358D01*
X58860358Y-41031141D01*
X58774887Y-41159058D01*
X58716013Y-41301191D01*
X58686000Y-41452078D01*
X54741077Y-41452078D01*
X54761000Y-41351922D01*
X54761000Y-41198078D01*
X54730987Y-41047191D01*
X54672113Y-40905058D01*
X54586642Y-40777141D01*
X54477859Y-40668358D01*
X54349942Y-40582887D01*
X54207809Y-40524013D01*
X54056922Y-40494000D01*
X53903078Y-40494000D01*
X53752191Y-40524013D01*
X53610058Y-40582887D01*
X53482141Y-40668358D01*
X53373358Y-40777141D01*
X53287887Y-40905058D01*
X53229013Y-41047191D01*
X53199000Y-41198078D01*
X52228000Y-41198078D01*
X52228000Y-39801078D01*
X58686000Y-39801078D01*
X58686000Y-39954922D01*
X58716013Y-40105809D01*
X58774887Y-40247942D01*
X58860358Y-40375859D01*
X58969141Y-40484642D01*
X59097058Y-40570113D01*
X59239191Y-40628987D01*
X59390078Y-40659000D01*
X59543922Y-40659000D01*
X59694809Y-40628987D01*
X59836942Y-40570113D01*
X59964859Y-40484642D01*
X60073642Y-40375859D01*
X60159113Y-40247942D01*
X60217987Y-40105809D01*
X60229000Y-40050442D01*
X60240013Y-40105809D01*
X60298887Y-40247942D01*
X60384358Y-40375859D01*
X60493141Y-40484642D01*
X60621058Y-40570113D01*
X60763191Y-40628987D01*
X60914078Y-40659000D01*
X61067922Y-40659000D01*
X61218809Y-40628987D01*
X61360942Y-40570113D01*
X61488859Y-40484642D01*
X61597642Y-40375859D01*
X61683113Y-40247942D01*
X61741987Y-40105809D01*
X61772000Y-39954922D01*
X61772000Y-39801078D01*
X61741987Y-39650191D01*
X61683113Y-39508058D01*
X61597642Y-39380141D01*
X61488859Y-39271358D01*
X61360942Y-39185887D01*
X61218809Y-39127013D01*
X61067922Y-39097000D01*
X60914078Y-39097000D01*
X60763191Y-39127013D01*
X60621058Y-39185887D01*
X60493141Y-39271358D01*
X60384358Y-39380141D01*
X60298887Y-39508058D01*
X60240013Y-39650191D01*
X60229000Y-39705558D01*
X60217987Y-39650191D01*
X60159113Y-39508058D01*
X60073642Y-39380141D01*
X59964859Y-39271358D01*
X59836942Y-39185887D01*
X59694809Y-39127013D01*
X59543922Y-39097000D01*
X59390078Y-39097000D01*
X59239191Y-39127013D01*
X59097058Y-39185887D01*
X58969141Y-39271358D01*
X58860358Y-39380141D01*
X58774887Y-39508058D01*
X58716013Y-39650191D01*
X58686000Y-39801078D01*
X52228000Y-39801078D01*
X52228000Y-38931000D01*
X67131351Y-38931000D01*
X67097141Y-38953858D01*
%TA.AperFunction,Conductor*%
D22*
G36*
X67097141Y-38953858D02*
G01*
X66988358Y-39062641D01*
X66902887Y-39190558D01*
X66844013Y-39332691D01*
X66814000Y-39483578D01*
X66814000Y-39637422D01*
X66844013Y-39788309D01*
X66902887Y-39930442D01*
X66988358Y-40058359D01*
X67097141Y-40167142D01*
X67225058Y-40252613D01*
X67367191Y-40311487D01*
X67518078Y-40341500D01*
X67671922Y-40341500D01*
X67822809Y-40311487D01*
X67964942Y-40252613D01*
X68092859Y-40167142D01*
X68201642Y-40058359D01*
X68287113Y-39930442D01*
X68345987Y-39788309D01*
X68363315Y-39701192D01*
X68368013Y-39724809D01*
X68426887Y-39866942D01*
X68512358Y-39994859D01*
X68621141Y-40103642D01*
X68749058Y-40189113D01*
X68891191Y-40247987D01*
X69042078Y-40278000D01*
X69195922Y-40278000D01*
X69346809Y-40247987D01*
X69488942Y-40189113D01*
X69616859Y-40103642D01*
X69725642Y-39994859D01*
X69811113Y-39866942D01*
X69869987Y-39724809D01*
X69900000Y-39573922D01*
X69900000Y-39420078D01*
X69869987Y-39269191D01*
X69811113Y-39127058D01*
X69725642Y-38999141D01*
X69657501Y-38931000D01*
X77978499Y-38931000D01*
X77910358Y-38999141D01*
X77824887Y-39127058D01*
X77766013Y-39269191D01*
X77736000Y-39420078D01*
X77736000Y-39573922D01*
X77766013Y-39724809D01*
X77824887Y-39866942D01*
X77910358Y-39994859D01*
X78019141Y-40103642D01*
X78147058Y-40189113D01*
X78289191Y-40247987D01*
X78440078Y-40278000D01*
X78593922Y-40278000D01*
X78744809Y-40247987D01*
X78886942Y-40189113D01*
X79014859Y-40103642D01*
X79123642Y-39994859D01*
X79209113Y-39866942D01*
X79267987Y-39724809D01*
X79272685Y-39701192D01*
X79290013Y-39788309D01*
X79348887Y-39930442D01*
X79434358Y-40058359D01*
X79543141Y-40167142D01*
X79671058Y-40252613D01*
X79813191Y-40311487D01*
X79964078Y-40341500D01*
X80117922Y-40341500D01*
X80268809Y-40311487D01*
X80410942Y-40252613D01*
X80538859Y-40167142D01*
X80647642Y-40058359D01*
X80733113Y-39930442D01*
X80791987Y-39788309D01*
X80822000Y-39637422D01*
X80822000Y-39483578D01*
X80791987Y-39332691D01*
X80733113Y-39190558D01*
X80647642Y-39062641D01*
X80538859Y-38953858D01*
X80504649Y-38931000D01*
X88677000Y-38931000D01*
X88677000Y-39281499D01*
X88666859Y-39271358D01*
X88538942Y-39185887D01*
X88396809Y-39127013D01*
X88245922Y-39097000D01*
X88092078Y-39097000D01*
X87941191Y-39127013D01*
X87799058Y-39185887D01*
X87671141Y-39271358D01*
X87562358Y-39380141D01*
X87476887Y-39508058D01*
X87418013Y-39650191D01*
X87407000Y-39705558D01*
X87395987Y-39650191D01*
X87337113Y-39508058D01*
X87251642Y-39380141D01*
X87142859Y-39271358D01*
X87014942Y-39185887D01*
X86872809Y-39127013D01*
X86721922Y-39097000D01*
X86568078Y-39097000D01*
X86417191Y-39127013D01*
X86275058Y-39185887D01*
X86147141Y-39271358D01*
X86038358Y-39380141D01*
X85952887Y-39508058D01*
X85894013Y-39650191D01*
X85864000Y-39801078D01*
X85864000Y-39954922D01*
X85894013Y-40105809D01*
X85952887Y-40247942D01*
X86038358Y-40375859D01*
X86147141Y-40484642D01*
X86275058Y-40570113D01*
X86417191Y-40628987D01*
X86568078Y-40659000D01*
X86721922Y-40659000D01*
X86872809Y-40628987D01*
X87014942Y-40570113D01*
X87142859Y-40484642D01*
X87251642Y-40375859D01*
X87337113Y-40247942D01*
X87395987Y-40105809D01*
X87407000Y-40050442D01*
X87418013Y-40105809D01*
X87476887Y-40247942D01*
X87562358Y-40375859D01*
X87671141Y-40484642D01*
X87799058Y-40570113D01*
X87941191Y-40628987D01*
X88092078Y-40659000D01*
X88245922Y-40659000D01*
X88396809Y-40628987D01*
X88538942Y-40570113D01*
X88666859Y-40484642D01*
X88677000Y-40474501D01*
X88677000Y-40561289D01*
X88636693Y-40637096D01*
X88621817Y-40673188D01*
X88606419Y-40709114D01*
X88604640Y-40714863D01*
X88562954Y-40852931D01*
X88538942Y-40836887D01*
X88396809Y-40778013D01*
X88245922Y-40748000D01*
X88092078Y-40748000D01*
X87941191Y-40778013D01*
X87799058Y-40836887D01*
X87671141Y-40922358D01*
X87562358Y-41031141D01*
X87476887Y-41159058D01*
X87418013Y-41301191D01*
X87407000Y-41356558D01*
X87395987Y-41301191D01*
X87337113Y-41159058D01*
X87251642Y-41031141D01*
X87142859Y-40922358D01*
X87014942Y-40836887D01*
X86872809Y-40778013D01*
X86721922Y-40748000D01*
X86568078Y-40748000D01*
X86417191Y-40778013D01*
X86275058Y-40836887D01*
X86147141Y-40922358D01*
X86038358Y-41031141D01*
X85952887Y-41159058D01*
X85894013Y-41301191D01*
X85864000Y-41452078D01*
X85864000Y-41605922D01*
X85894013Y-41756809D01*
X85952887Y-41898942D01*
X86038358Y-42026859D01*
X86147141Y-42135642D01*
X86275058Y-42221113D01*
X86417191Y-42279987D01*
X86568078Y-42310000D01*
X86721922Y-42310000D01*
X86872809Y-42279987D01*
X87014942Y-42221113D01*
X87142859Y-42135642D01*
X87251642Y-42026859D01*
X87337113Y-41898942D01*
X87395987Y-41756809D01*
X87407000Y-41701442D01*
X87418013Y-41756809D01*
X87476887Y-41898942D01*
X87562358Y-42026859D01*
X87671141Y-42135642D01*
X87799058Y-42221113D01*
X87941191Y-42279987D01*
X88092078Y-42310000D01*
X88245922Y-42310000D01*
X88396809Y-42279987D01*
X88500001Y-42237243D01*
X88500000Y-43494636D01*
X88453588Y-43382587D01*
X88324342Y-43189157D01*
X88159843Y-43024658D01*
X87966413Y-42895412D01*
X87751485Y-42806386D01*
X87523318Y-42761000D01*
X87290682Y-42761000D01*
X87062515Y-42806386D01*
X86847587Y-42895412D01*
X86654157Y-43024658D01*
X86489658Y-43189157D01*
X86360412Y-43382587D01*
X86271386Y-43597515D01*
X86226000Y-43825682D01*
X86226000Y-44058318D01*
X86271386Y-44286485D01*
X86360412Y-44501413D01*
X86489658Y-44694843D01*
X86654157Y-44859342D01*
X86847587Y-44988588D01*
X87062515Y-45077614D01*
X87290682Y-45123000D01*
X87523318Y-45123000D01*
X87751485Y-45077614D01*
X87966413Y-44988588D01*
X88159843Y-44859342D01*
X88324342Y-44694843D01*
X88453588Y-44501413D01*
X88500000Y-44389364D01*
X88500000Y-44471167D01*
X88502168Y-44493178D01*
X88502168Y-44508017D01*
X88502797Y-44514002D01*
X88527663Y-44735686D01*
X88535784Y-44773890D01*
X88543372Y-44812215D01*
X88545152Y-44817964D01*
X88612603Y-45030597D01*
X88627989Y-45066495D01*
X88642878Y-45102619D01*
X88645735Y-45107903D01*
X88645739Y-45107912D01*
X88645744Y-45107919D01*
X88677000Y-45164774D01*
X88677000Y-47536899D01*
X88515584Y-47488164D01*
X88477298Y-47480583D01*
X88439053Y-47472454D01*
X88433070Y-47471825D01*
X88433068Y-47471825D01*
X88211058Y-47450057D01*
X88211052Y-47450057D01*
X88190168Y-47448000D01*
X88087021Y-47448000D01*
X88159843Y-47399342D01*
X88324342Y-47234843D01*
X88453588Y-47041413D01*
X88542614Y-46826485D01*
X88588000Y-46598318D01*
X88588000Y-46365682D01*
X88542614Y-46137515D01*
X88453588Y-45922587D01*
X88324342Y-45729157D01*
X88159843Y-45564658D01*
X87966413Y-45435412D01*
X87751485Y-45346386D01*
X87523318Y-45301000D01*
X87290682Y-45301000D01*
X87062515Y-45346386D01*
X86847587Y-45435412D01*
X86654157Y-45564658D01*
X86489658Y-45729157D01*
X86360412Y-45922587D01*
X86271386Y-46137515D01*
X86226000Y-46365682D01*
X86226000Y-46598318D01*
X86271386Y-46826485D01*
X86360412Y-47041413D01*
X86489658Y-47234843D01*
X86654157Y-47399342D01*
X86726979Y-47448000D01*
X86623832Y-47448000D01*
X86601821Y-47450168D01*
X86586983Y-47450168D01*
X86580997Y-47450797D01*
X86359314Y-47475663D01*
X86321110Y-47483784D01*
X86282785Y-47491372D01*
X86277038Y-47493151D01*
X86277032Y-47493153D01*
X86064403Y-47560603D01*
X86028493Y-47575994D01*
X85992381Y-47590878D01*
X85987097Y-47593735D01*
X85987088Y-47593739D01*
X85987081Y-47593744D01*
X85791607Y-47701207D01*
X85759402Y-47723258D01*
X85726838Y-47744894D01*
X85722201Y-47748730D01*
X85718304Y-47752000D01*
X81473586Y-47752000D01*
X81453932Y-47735971D01*
X81421433Y-47714378D01*
X81389162Y-47692282D01*
X81383868Y-47689420D01*
X81186904Y-47584693D01*
X81150812Y-47569817D01*
X81114886Y-47554419D01*
X81109137Y-47552640D01*
X81109139Y-47552640D01*
X81109131Y-47552638D01*
X80895584Y-47488164D01*
X80857298Y-47480583D01*
X80819053Y-47472454D01*
X80813070Y-47471825D01*
X80813068Y-47471825D01*
X80591058Y-47450057D01*
X80591052Y-47450057D01*
X80570168Y-47448000D01*
X80445238Y-47448000D01*
X80512199Y-47297708D01*
X79787000Y-46572510D01*
X79061801Y-47297708D01*
X79128762Y-47448000D01*
X79003832Y-47448000D01*
X78981821Y-47450168D01*
X78966983Y-47450168D01*
X78960997Y-47450797D01*
X78739314Y-47475663D01*
X78701110Y-47483784D01*
X78662785Y-47491372D01*
X78657038Y-47493151D01*
X78657032Y-47493153D01*
X78444403Y-47560603D01*
X78408493Y-47575994D01*
X78372381Y-47590878D01*
X78367097Y-47593735D01*
X78367088Y-47593739D01*
X78367081Y-47593744D01*
X78171607Y-47701207D01*
X78139402Y-47723258D01*
X78106838Y-47744894D01*
X78102201Y-47748730D01*
X78098304Y-47752000D01*
X68519586Y-47752000D01*
X68499932Y-47735971D01*
X68467433Y-47714378D01*
X68435162Y-47692282D01*
X68429868Y-47689420D01*
X68232904Y-47584693D01*
X68196812Y-47569817D01*
X68160886Y-47554419D01*
X68155137Y-47552640D01*
X68155139Y-47552640D01*
X68155131Y-47552638D01*
X67941584Y-47488164D01*
X67903298Y-47480583D01*
X67865053Y-47472454D01*
X67859070Y-47471825D01*
X67859068Y-47471825D01*
X67637058Y-47450057D01*
X67637052Y-47450057D01*
X67616168Y-47448000D01*
X67513021Y-47448000D01*
X67585843Y-47399342D01*
X67750342Y-47234843D01*
X67879588Y-47041413D01*
X67968614Y-46826485D01*
X68014000Y-46598318D01*
X68014000Y-46365682D01*
X67968614Y-46137515D01*
X67879588Y-45922587D01*
X67750342Y-45729157D01*
X67585843Y-45564658D01*
X67569608Y-45553810D01*
X72216423Y-45553810D01*
X72216423Y-45707654D01*
X72246436Y-45858541D01*
X72305310Y-46000674D01*
X72390781Y-46128591D01*
X72499564Y-46237374D01*
X72627481Y-46322845D01*
X72769614Y-46381719D01*
X72920501Y-46411732D01*
X73074345Y-46411732D01*
X73225232Y-46381719D01*
X73367365Y-46322845D01*
X73495282Y-46237374D01*
X73604065Y-46128591D01*
X73689536Y-46000674D01*
X73715094Y-45938970D01*
X74334814Y-45938970D01*
X74334814Y-46092814D01*
X74364827Y-46243701D01*
X74423701Y-46385834D01*
X74509172Y-46513751D01*
X74617955Y-46622534D01*
X74745872Y-46708005D01*
X74888005Y-46766879D01*
X75038892Y-46796892D01*
X75192736Y-46796892D01*
X75343623Y-46766879D01*
X75485756Y-46708005D01*
X75613673Y-46622534D01*
X75722456Y-46513751D01*
X75807927Y-46385834D01*
X75816938Y-46364078D01*
X76552000Y-46364078D01*
X76552000Y-46517922D01*
X76582013Y-46668809D01*
X76640887Y-46810942D01*
X76726358Y-46938859D01*
X76835141Y-47047642D01*
X76963058Y-47133113D01*
X77105191Y-47191987D01*
X77256078Y-47222000D01*
X77409922Y-47222000D01*
X77560809Y-47191987D01*
X77702942Y-47133113D01*
X77830859Y-47047642D01*
X77939642Y-46938859D01*
X78025113Y-46810942D01*
X78083987Y-46668809D01*
X78114000Y-46517922D01*
X78114000Y-46499429D01*
X78600414Y-46499429D01*
X78626614Y-46730586D01*
X78697408Y-46952189D01*
X78790707Y-47126741D01*
X78971292Y-47207199D01*
X79696490Y-46482000D01*
X79877510Y-46482000D01*
X80602708Y-47207199D01*
X80783293Y-47126741D01*
X80889932Y-46919985D01*
X80954186Y-46696398D01*
X80973586Y-46464571D01*
X80947386Y-46233414D01*
X80876592Y-46011811D01*
X80783293Y-45837259D01*
X80602708Y-45756801D01*
X79877510Y-46482000D01*
X79696490Y-46482000D01*
X78971292Y-45756801D01*
X78790707Y-45837259D01*
X78684068Y-46044015D01*
X78619814Y-46267602D01*
X78600414Y-46499429D01*
X78114000Y-46499429D01*
X78114000Y-46364078D01*
X78083987Y-46213191D01*
X78025113Y-46071058D01*
X77939642Y-45943141D01*
X77830859Y-45834358D01*
X77702942Y-45748887D01*
X77560809Y-45690013D01*
X77441555Y-45666292D01*
X79061801Y-45666292D01*
X79787000Y-46391490D01*
X80512199Y-45666292D01*
X80431741Y-45485707D01*
X80224985Y-45379068D01*
X80001398Y-45314814D01*
X79769571Y-45295414D01*
X79538414Y-45321614D01*
X79316811Y-45392408D01*
X79142259Y-45485707D01*
X79061801Y-45666292D01*
X77441555Y-45666292D01*
X77409922Y-45660000D01*
X77256078Y-45660000D01*
X77105191Y-45690013D01*
X76963058Y-45748887D01*
X76835141Y-45834358D01*
X76726358Y-45943141D01*
X76640887Y-46071058D01*
X76582013Y-46213191D01*
X76552000Y-46364078D01*
X75816938Y-46364078D01*
X75866801Y-46243701D01*
X75896814Y-46092814D01*
X75896814Y-45938970D01*
X75866801Y-45788083D01*
X75807927Y-45645950D01*
X75722456Y-45518033D01*
X75670547Y-45466124D01*
X75722528Y-45414143D01*
X75807999Y-45286226D01*
X75866873Y-45144093D01*
X75896886Y-44993206D01*
X75896886Y-44839362D01*
X75877520Y-44742000D01*
X78604157Y-44742000D01*
X78611513Y-44816689D01*
X78633299Y-44888508D01*
X78668678Y-44954696D01*
X78716289Y-45012711D01*
X78774304Y-45060322D01*
X78840492Y-45095701D01*
X78912311Y-45117487D01*
X78987000Y-45124843D01*
X79627750Y-45123000D01*
X79723000Y-45027750D01*
X79723000Y-44006000D01*
X79851000Y-44006000D01*
X79851000Y-45027750D01*
X79946250Y-45123000D01*
X80587000Y-45124843D01*
X80661689Y-45117487D01*
X80733508Y-45095701D01*
X80799696Y-45060322D01*
X80857711Y-45012711D01*
X80905322Y-44954696D01*
X80940701Y-44888508D01*
X80962487Y-44816689D01*
X80969843Y-44742000D01*
X80968000Y-44101250D01*
X80872750Y-44006000D01*
X79851000Y-44006000D01*
X79723000Y-44006000D01*
X78701250Y-44006000D01*
X78606000Y-44101250D01*
X78604157Y-44742000D01*
X75877520Y-44742000D01*
X75866873Y-44688475D01*
X75807999Y-44546342D01*
X75722528Y-44418425D01*
X75613745Y-44309642D01*
X75485828Y-44224171D01*
X75343695Y-44165297D01*
X75192808Y-44135284D01*
X75038964Y-44135284D01*
X74888077Y-44165297D01*
X74745944Y-44224171D01*
X74618027Y-44309642D01*
X74509244Y-44418425D01*
X74423773Y-44546342D01*
X74364899Y-44688475D01*
X74334886Y-44839362D01*
X74334886Y-44993206D01*
X74364899Y-45144093D01*
X74423773Y-45286226D01*
X74509244Y-45414143D01*
X74561153Y-45466052D01*
X74509172Y-45518033D01*
X74423701Y-45645950D01*
X74364827Y-45788083D01*
X74334814Y-45938970D01*
X73715094Y-45938970D01*
X73748410Y-45858541D01*
X73778423Y-45707654D01*
X73778423Y-45553810D01*
X73748410Y-45402923D01*
X73689536Y-45260790D01*
X73604065Y-45132873D01*
X73495282Y-45024090D01*
X73367365Y-44938619D01*
X73225232Y-44879745D01*
X73074345Y-44849732D01*
X72920501Y-44849732D01*
X72769614Y-44879745D01*
X72627481Y-44938619D01*
X72499564Y-45024090D01*
X72390781Y-45132873D01*
X72305310Y-45260790D01*
X72246436Y-45402923D01*
X72216423Y-45553810D01*
X67569608Y-45553810D01*
X67392413Y-45435412D01*
X67177485Y-45346386D01*
X66949318Y-45301000D01*
X66716682Y-45301000D01*
X66488515Y-45346386D01*
X66273587Y-45435412D01*
X66080157Y-45564658D01*
X65915658Y-45729157D01*
X65786412Y-45922587D01*
X65697386Y-46137515D01*
X65652000Y-46365682D01*
X65652000Y-46598318D01*
X65697386Y-46826485D01*
X65786412Y-47041413D01*
X65915658Y-47234843D01*
X66080157Y-47399342D01*
X66152979Y-47448000D01*
X66049832Y-47448000D01*
X66027821Y-47450168D01*
X66012983Y-47450168D01*
X66006997Y-47450797D01*
X65785314Y-47475663D01*
X65747110Y-47483784D01*
X65708785Y-47491372D01*
X65703038Y-47493151D01*
X65703032Y-47493153D01*
X65490403Y-47560603D01*
X65454493Y-47575994D01*
X65418381Y-47590878D01*
X65413097Y-47593735D01*
X65413088Y-47593739D01*
X65413081Y-47593744D01*
X65217607Y-47701207D01*
X65185402Y-47723258D01*
X65152838Y-47744894D01*
X65148201Y-47748730D01*
X65144304Y-47752000D01*
X60899586Y-47752000D01*
X60879932Y-47735971D01*
X60847433Y-47714378D01*
X60815162Y-47692282D01*
X60809868Y-47689420D01*
X60612904Y-47584693D01*
X60576812Y-47569817D01*
X60540886Y-47554419D01*
X60535137Y-47552640D01*
X60535139Y-47552640D01*
X60535131Y-47552638D01*
X60321584Y-47488164D01*
X60283298Y-47480583D01*
X60245053Y-47472454D01*
X60239070Y-47471825D01*
X60239068Y-47471825D01*
X60017058Y-47450057D01*
X60017052Y-47450057D01*
X59996168Y-47448000D01*
X59871238Y-47448000D01*
X59938199Y-47297708D01*
X59213000Y-46572510D01*
X58487801Y-47297708D01*
X58554762Y-47448000D01*
X58429832Y-47448000D01*
X58407821Y-47450168D01*
X58392983Y-47450168D01*
X58386997Y-47450797D01*
X58165314Y-47475663D01*
X58127110Y-47483784D01*
X58088785Y-47491372D01*
X58083038Y-47493151D01*
X58083032Y-47493153D01*
X57870403Y-47560603D01*
X57834493Y-47575994D01*
X57798381Y-47590878D01*
X57793097Y-47593735D01*
X57793088Y-47593739D01*
X57793081Y-47593744D01*
X57597607Y-47701207D01*
X57565402Y-47723258D01*
X57532838Y-47744894D01*
X57528201Y-47748730D01*
X57524304Y-47752000D01*
X55784000Y-47752000D01*
X55759224Y-47754440D01*
X55735399Y-47761667D01*
X55713443Y-47773403D01*
X55694197Y-47789197D01*
X55678403Y-47808443D01*
X55666667Y-47830399D01*
X55659440Y-47854224D01*
X55657000Y-47879000D01*
X55657000Y-50334598D01*
X55567821Y-50423777D01*
X55394218Y-50683594D01*
X55274637Y-50972286D01*
X55213676Y-51278761D01*
X55213676Y-51591239D01*
X55274637Y-51897714D01*
X55394218Y-52186406D01*
X55567821Y-52446223D01*
X55657000Y-52535402D01*
X55657000Y-54229000D01*
X52228000Y-54229000D01*
X52228000Y-50342078D01*
X52691032Y-50342078D01*
X52691032Y-50495922D01*
X52721045Y-50646809D01*
X52779919Y-50788942D01*
X52865390Y-50916859D01*
X52974173Y-51025642D01*
X53102090Y-51111113D01*
X53244223Y-51169987D01*
X53395110Y-51200000D01*
X53548954Y-51200000D01*
X53699841Y-51169987D01*
X53841974Y-51111113D01*
X53969891Y-51025642D01*
X54078674Y-50916859D01*
X54164145Y-50788942D01*
X54223019Y-50646809D01*
X54253032Y-50495922D01*
X54253032Y-50342078D01*
X54223019Y-50191191D01*
X54164145Y-50049058D01*
X54078674Y-49921141D01*
X53969891Y-49812358D01*
X53841974Y-49726887D01*
X53699841Y-49668013D01*
X53548954Y-49638000D01*
X53395110Y-49638000D01*
X53244223Y-49668013D01*
X53102090Y-49726887D01*
X52974173Y-49812358D01*
X52865390Y-49921141D01*
X52779919Y-50049058D01*
X52721045Y-50191191D01*
X52691032Y-50342078D01*
X52228000Y-50342078D01*
X52228000Y-46659078D01*
X53352000Y-46659078D01*
X53352000Y-46812922D01*
X53382013Y-46963809D01*
X53440887Y-47105942D01*
X53526358Y-47233859D01*
X53635141Y-47342642D01*
X53763058Y-47428113D01*
X53905191Y-47486987D01*
X54056078Y-47517000D01*
X54209922Y-47517000D01*
X54360809Y-47486987D01*
X54502942Y-47428113D01*
X54630859Y-47342642D01*
X54739642Y-47233859D01*
X54768000Y-47191418D01*
X54796358Y-47233859D01*
X54905141Y-47342642D01*
X55033058Y-47428113D01*
X55175191Y-47486987D01*
X55326078Y-47517000D01*
X55479922Y-47517000D01*
X55630809Y-47486987D01*
X55772942Y-47428113D01*
X55900859Y-47342642D01*
X56009642Y-47233859D01*
X56095113Y-47105942D01*
X56153987Y-46963809D01*
X56184000Y-46812922D01*
X56184000Y-46659078D01*
X56153987Y-46508191D01*
X56150358Y-46499429D01*
X58026414Y-46499429D01*
X58052614Y-46730586D01*
X58123408Y-46952189D01*
X58216707Y-47126741D01*
X58397292Y-47207199D01*
X59122490Y-46482000D01*
X59303510Y-46482000D01*
X60028708Y-47207199D01*
X60209293Y-47126741D01*
X60315932Y-46919985D01*
X60380186Y-46696398D01*
X60399586Y-46464571D01*
X60373386Y-46233414D01*
X60302592Y-46011811D01*
X60209293Y-45837259D01*
X60028708Y-45756801D01*
X59303510Y-46482000D01*
X59122490Y-46482000D01*
X58397292Y-45756801D01*
X58216707Y-45837259D01*
X58110068Y-46044015D01*
X58045814Y-46267602D01*
X58026414Y-46499429D01*
X56150358Y-46499429D01*
X56095113Y-46366058D01*
X56009642Y-46238141D01*
X55900859Y-46129358D01*
X55772942Y-46043887D01*
X55630809Y-45985013D01*
X55479922Y-45955000D01*
X55326078Y-45955000D01*
X55175191Y-45985013D01*
X55033058Y-46043887D01*
X54905141Y-46129358D01*
X54796358Y-46238141D01*
X54768000Y-46280582D01*
X54739642Y-46238141D01*
X54630859Y-46129358D01*
X54502942Y-46043887D01*
X54360809Y-45985013D01*
X54209922Y-45955000D01*
X54056078Y-45955000D01*
X53905191Y-45985013D01*
X53763058Y-46043887D01*
X53635141Y-46129358D01*
X53526358Y-46238141D01*
X53440887Y-46366058D01*
X53382013Y-46508191D01*
X53352000Y-46659078D01*
X52228000Y-46659078D01*
X52228000Y-45666292D01*
X58487801Y-45666292D01*
X59213000Y-46391490D01*
X59938199Y-45666292D01*
X59857741Y-45485707D01*
X59650985Y-45379068D01*
X59427398Y-45314814D01*
X59195571Y-45295414D01*
X58964414Y-45321614D01*
X58742811Y-45392408D01*
X58568259Y-45485707D01*
X58487801Y-45666292D01*
X52228000Y-45666292D01*
X52228000Y-44742000D01*
X58030157Y-44742000D01*
X58037513Y-44816689D01*
X58059299Y-44888508D01*
X58094678Y-44954696D01*
X58142289Y-45012711D01*
X58200304Y-45060322D01*
X58266492Y-45095701D01*
X58338311Y-45117487D01*
X58413000Y-45124843D01*
X59053750Y-45123000D01*
X59149000Y-45027750D01*
X59149000Y-44006000D01*
X59277000Y-44006000D01*
X59277000Y-45027750D01*
X59372250Y-45123000D01*
X60013000Y-45124843D01*
X60087689Y-45117487D01*
X60159508Y-45095701D01*
X60225696Y-45060322D01*
X60283711Y-45012711D01*
X60331322Y-44954696D01*
X60366701Y-44888508D01*
X60388487Y-44816689D01*
X60395843Y-44742000D01*
X60394000Y-44101250D01*
X60298750Y-44006000D01*
X59277000Y-44006000D01*
X59149000Y-44006000D01*
X58127250Y-44006000D01*
X58032000Y-44101250D01*
X58030157Y-44742000D01*
X52228000Y-44742000D01*
X52228000Y-43142000D01*
X58030157Y-43142000D01*
X58032000Y-43782750D01*
X58127250Y-43878000D01*
X59149000Y-43878000D01*
X59149000Y-42856250D01*
X59277000Y-42856250D01*
X59277000Y-43878000D01*
X60298750Y-43878000D01*
X60351068Y-43825682D01*
X65652000Y-43825682D01*
X65652000Y-44058318D01*
X65697386Y-44286485D01*
X65786412Y-44501413D01*
X65915658Y-44694843D01*
X66080157Y-44859342D01*
X66273587Y-44988588D01*
X66488515Y-45077614D01*
X66716682Y-45123000D01*
X66949318Y-45123000D01*
X67177485Y-45077614D01*
X67392413Y-44988588D01*
X67585843Y-44859342D01*
X67750342Y-44694843D01*
X67879588Y-44501413D01*
X67968614Y-44286485D01*
X68014000Y-44058318D01*
X68014000Y-43825682D01*
X67971312Y-43611078D01*
X70115992Y-43611078D01*
X70115992Y-43764922D01*
X70146005Y-43915809D01*
X70204879Y-44057942D01*
X70290350Y-44185859D01*
X70399133Y-44294642D01*
X70527050Y-44380113D01*
X70669183Y-44438987D01*
X70820070Y-44469000D01*
X70973914Y-44469000D01*
X71124801Y-44438987D01*
X71266934Y-44380113D01*
X71394851Y-44294642D01*
X71503634Y-44185859D01*
X71589105Y-44057942D01*
X71647979Y-43915809D01*
X71677992Y-43764922D01*
X71677992Y-43611078D01*
X71647979Y-43460191D01*
X71589105Y-43318058D01*
X71503634Y-43190141D01*
X71394851Y-43081358D01*
X71266934Y-42995887D01*
X71124801Y-42937013D01*
X70973914Y-42907000D01*
X70820070Y-42907000D01*
X70669183Y-42937013D01*
X70527050Y-42995887D01*
X70399133Y-43081358D01*
X70290350Y-43190141D01*
X70204879Y-43318058D01*
X70146005Y-43460191D01*
X70115992Y-43611078D01*
X67971312Y-43611078D01*
X67968614Y-43597515D01*
X67879588Y-43382587D01*
X67750342Y-43189157D01*
X67585843Y-43024658D01*
X67392413Y-42895412D01*
X67177485Y-42806386D01*
X66949318Y-42761000D01*
X66716682Y-42761000D01*
X66488515Y-42806386D01*
X66273587Y-42895412D01*
X66080157Y-43024658D01*
X65915658Y-43189157D01*
X65786412Y-43382587D01*
X65697386Y-43597515D01*
X65652000Y-43825682D01*
X60351068Y-43825682D01*
X60394000Y-43782750D01*
X60395843Y-43142000D01*
X60388487Y-43067311D01*
X60366701Y-42995492D01*
X60331322Y-42929304D01*
X60283711Y-42871289D01*
X60225696Y-42823678D01*
X60159508Y-42788299D01*
X60087689Y-42766513D01*
X60013000Y-42759157D01*
X59372250Y-42761000D01*
X59277000Y-42856250D01*
X59149000Y-42856250D01*
X59053750Y-42761000D01*
X58413000Y-42759157D01*
X58338311Y-42766513D01*
X58266492Y-42788299D01*
X58200304Y-42823678D01*
X58142289Y-42871289D01*
X58094678Y-42929304D01*
X58059299Y-42995492D01*
X58037513Y-43067311D01*
X58030157Y-43142000D01*
X52228000Y-43142000D01*
X52228000Y-42722078D01*
X73164000Y-42722078D01*
X73164000Y-42875922D01*
X73194013Y-43026809D01*
X73252887Y-43168942D01*
X73338358Y-43296859D01*
X73447141Y-43405642D01*
X73575058Y-43491113D01*
X73717191Y-43549987D01*
X73868078Y-43580000D01*
X74021922Y-43580000D01*
X74172809Y-43549987D01*
X74314942Y-43491113D01*
X74442859Y-43405642D01*
X74551642Y-43296859D01*
X74637113Y-43168942D01*
X74695987Y-43026809D01*
X74726000Y-42875922D01*
X74726000Y-42722078D01*
X74698551Y-42584078D01*
X76974000Y-42584078D01*
X76974000Y-42737922D01*
X77004013Y-42888809D01*
X77062887Y-43030942D01*
X77148358Y-43158859D01*
X77257141Y-43267642D01*
X77385058Y-43353113D01*
X77527191Y-43411987D01*
X77678078Y-43442000D01*
X77831922Y-43442000D01*
X77982809Y-43411987D01*
X78124942Y-43353113D01*
X78252859Y-43267642D01*
X78361642Y-43158859D01*
X78372906Y-43142000D01*
X78604157Y-43142000D01*
X78606000Y-43782750D01*
X78701250Y-43878000D01*
X79723000Y-43878000D01*
X79723000Y-42856250D01*
X79851000Y-42856250D01*
X79851000Y-43878000D01*
X80872750Y-43878000D01*
X80968000Y-43782750D01*
X80969843Y-43142000D01*
X80962487Y-43067311D01*
X80940701Y-42995492D01*
X80905322Y-42929304D01*
X80857711Y-42871289D01*
X80799696Y-42823678D01*
X80733508Y-42788299D01*
X80661689Y-42766513D01*
X80587000Y-42759157D01*
X79946250Y-42761000D01*
X79851000Y-42856250D01*
X79723000Y-42856250D01*
X79627750Y-42761000D01*
X78987000Y-42759157D01*
X78912311Y-42766513D01*
X78840492Y-42788299D01*
X78774304Y-42823678D01*
X78716289Y-42871289D01*
X78668678Y-42929304D01*
X78633299Y-42995492D01*
X78611513Y-43067311D01*
X78604157Y-43142000D01*
X78372906Y-43142000D01*
X78447113Y-43030942D01*
X78505987Y-42888809D01*
X78536000Y-42737922D01*
X78536000Y-42584078D01*
X78505987Y-42433191D01*
X78447113Y-42291058D01*
X78361642Y-42163141D01*
X78252859Y-42054358D01*
X78124942Y-41968887D01*
X77982809Y-41910013D01*
X77831922Y-41880000D01*
X77678078Y-41880000D01*
X77527191Y-41910013D01*
X77385058Y-41968887D01*
X77257141Y-42054358D01*
X77148358Y-42163141D01*
X77062887Y-42291058D01*
X77004013Y-42433191D01*
X76974000Y-42584078D01*
X74698551Y-42584078D01*
X74695987Y-42571191D01*
X74637113Y-42429058D01*
X74551642Y-42301141D01*
X74442859Y-42192358D01*
X74314942Y-42106887D01*
X74172809Y-42048013D01*
X74021922Y-42018000D01*
X73868078Y-42018000D01*
X73717191Y-42048013D01*
X73575058Y-42106887D01*
X73447141Y-42192358D01*
X73338358Y-42301141D01*
X73252887Y-42429058D01*
X73194013Y-42571191D01*
X73164000Y-42722078D01*
X52228000Y-42722078D01*
X52228000Y-41198078D01*
X53199000Y-41198078D01*
X53199000Y-41351922D01*
X53229013Y-41502809D01*
X53287887Y-41644942D01*
X53373358Y-41772859D01*
X53482141Y-41881642D01*
X53610058Y-41967113D01*
X53752191Y-42025987D01*
X53903078Y-42056000D01*
X54056922Y-42056000D01*
X54207809Y-42025987D01*
X54349942Y-41967113D01*
X54477859Y-41881642D01*
X54586642Y-41772859D01*
X54672113Y-41644942D01*
X54730987Y-41502809D01*
X54741077Y-41452078D01*
X58686000Y-41452078D01*
X58686000Y-41605922D01*
X58716013Y-41756809D01*
X58774887Y-41898942D01*
X58860358Y-42026859D01*
X58969141Y-42135642D01*
X59097058Y-42221113D01*
X59239191Y-42279987D01*
X59390078Y-42310000D01*
X59543922Y-42310000D01*
X59694809Y-42279987D01*
X59836942Y-42221113D01*
X59964859Y-42135642D01*
X60073642Y-42026859D01*
X60159113Y-41898942D01*
X60217987Y-41756809D01*
X60229000Y-41701442D01*
X60240013Y-41756809D01*
X60298887Y-41898942D01*
X60384358Y-42026859D01*
X60493141Y-42135642D01*
X60621058Y-42221113D01*
X60763191Y-42279987D01*
X60914078Y-42310000D01*
X61067922Y-42310000D01*
X61218809Y-42279987D01*
X61360942Y-42221113D01*
X61488859Y-42135642D01*
X61597642Y-42026859D01*
X61683113Y-41898942D01*
X61741987Y-41756809D01*
X61772000Y-41605922D01*
X61772000Y-41452078D01*
X61741987Y-41301191D01*
X61683113Y-41159058D01*
X61597642Y-41031141D01*
X61488859Y-40922358D01*
X61360942Y-40836887D01*
X61218809Y-40778013D01*
X61067922Y-40748000D01*
X60914078Y-40748000D01*
X60763191Y-40778013D01*
X60621058Y-40836887D01*
X60493141Y-40922358D01*
X60384358Y-41031141D01*
X60298887Y-41159058D01*
X60240013Y-41301191D01*
X60229000Y-41356558D01*
X60217987Y-41301191D01*
X60159113Y-41159058D01*
X60073642Y-41031141D01*
X59964859Y-40922358D01*
X59836942Y-40836887D01*
X59694809Y-40778013D01*
X59543922Y-40748000D01*
X59390078Y-40748000D01*
X59239191Y-40778013D01*
X59097058Y-40836887D01*
X58969141Y-40922358D01*
X58860358Y-41031141D01*
X58774887Y-41159058D01*
X58716013Y-41301191D01*
X58686000Y-41452078D01*
X54741077Y-41452078D01*
X54761000Y-41351922D01*
X54761000Y-41198078D01*
X54730987Y-41047191D01*
X54672113Y-40905058D01*
X54586642Y-40777141D01*
X54477859Y-40668358D01*
X54349942Y-40582887D01*
X54207809Y-40524013D01*
X54056922Y-40494000D01*
X53903078Y-40494000D01*
X53752191Y-40524013D01*
X53610058Y-40582887D01*
X53482141Y-40668358D01*
X53373358Y-40777141D01*
X53287887Y-40905058D01*
X53229013Y-41047191D01*
X53199000Y-41198078D01*
X52228000Y-41198078D01*
X52228000Y-39801078D01*
X58686000Y-39801078D01*
X58686000Y-39954922D01*
X58716013Y-40105809D01*
X58774887Y-40247942D01*
X58860358Y-40375859D01*
X58969141Y-40484642D01*
X59097058Y-40570113D01*
X59239191Y-40628987D01*
X59390078Y-40659000D01*
X59543922Y-40659000D01*
X59694809Y-40628987D01*
X59836942Y-40570113D01*
X59964859Y-40484642D01*
X60073642Y-40375859D01*
X60159113Y-40247942D01*
X60217987Y-40105809D01*
X60229000Y-40050442D01*
X60240013Y-40105809D01*
X60298887Y-40247942D01*
X60384358Y-40375859D01*
X60493141Y-40484642D01*
X60621058Y-40570113D01*
X60763191Y-40628987D01*
X60914078Y-40659000D01*
X61067922Y-40659000D01*
X61218809Y-40628987D01*
X61360942Y-40570113D01*
X61488859Y-40484642D01*
X61597642Y-40375859D01*
X61683113Y-40247942D01*
X61741987Y-40105809D01*
X61772000Y-39954922D01*
X61772000Y-39801078D01*
X61741987Y-39650191D01*
X61683113Y-39508058D01*
X61597642Y-39380141D01*
X61488859Y-39271358D01*
X61360942Y-39185887D01*
X61218809Y-39127013D01*
X61067922Y-39097000D01*
X60914078Y-39097000D01*
X60763191Y-39127013D01*
X60621058Y-39185887D01*
X60493141Y-39271358D01*
X60384358Y-39380141D01*
X60298887Y-39508058D01*
X60240013Y-39650191D01*
X60229000Y-39705558D01*
X60217987Y-39650191D01*
X60159113Y-39508058D01*
X60073642Y-39380141D01*
X59964859Y-39271358D01*
X59836942Y-39185887D01*
X59694809Y-39127013D01*
X59543922Y-39097000D01*
X59390078Y-39097000D01*
X59239191Y-39127013D01*
X59097058Y-39185887D01*
X58969141Y-39271358D01*
X58860358Y-39380141D01*
X58774887Y-39508058D01*
X58716013Y-39650191D01*
X58686000Y-39801078D01*
X52228000Y-39801078D01*
X52228000Y-38931000D01*
X67131351Y-38931000D01*
X67097141Y-38953858D01*
G37*
%TD.AperFunction*%
%TD*%
D21*
%TO.N,+5VP*%
X67097141Y-63953858D02*
X66988358Y-64062641D01*
X66902887Y-64190558D01*
X66844013Y-64332691D01*
X66814000Y-64483578D01*
X66814000Y-64637422D01*
X66844013Y-64788309D01*
X66902887Y-64930442D01*
X66988358Y-65058359D01*
X67097141Y-65167142D01*
X67225058Y-65252613D01*
X67367191Y-65311487D01*
X67518078Y-65341500D01*
X67671922Y-65341500D01*
X67822809Y-65311487D01*
X67964942Y-65252613D01*
X68092859Y-65167142D01*
X68201642Y-65058359D01*
X68287113Y-64930442D01*
X68345987Y-64788309D01*
X68363315Y-64701192D01*
X68368013Y-64724809D01*
X68426887Y-64866942D01*
X68512358Y-64994859D01*
X68621141Y-65103642D01*
X68749058Y-65189113D01*
X68891191Y-65247987D01*
X69042078Y-65278000D01*
X69195922Y-65278000D01*
X69346809Y-65247987D01*
X69488942Y-65189113D01*
X69616859Y-65103642D01*
X69725642Y-64994859D01*
X69811113Y-64866942D01*
X69869987Y-64724809D01*
X69900000Y-64573922D01*
X69900000Y-64420078D01*
X69869987Y-64269191D01*
X69811113Y-64127058D01*
X69725642Y-63999141D01*
X69657501Y-63931000D01*
X77978499Y-63931000D01*
X77910358Y-63999141D01*
X77824887Y-64127058D01*
X77766013Y-64269191D01*
X77736000Y-64420078D01*
X77736000Y-64573922D01*
X77766013Y-64724809D01*
X77824887Y-64866942D01*
X77910358Y-64994859D01*
X78019141Y-65103642D01*
X78147058Y-65189113D01*
X78289191Y-65247987D01*
X78440078Y-65278000D01*
X78593922Y-65278000D01*
X78744809Y-65247987D01*
X78886942Y-65189113D01*
X79014859Y-65103642D01*
X79123642Y-64994859D01*
X79209113Y-64866942D01*
X79267987Y-64724809D01*
X79272685Y-64701192D01*
X79290013Y-64788309D01*
X79348887Y-64930442D01*
X79434358Y-65058359D01*
X79543141Y-65167142D01*
X79671058Y-65252613D01*
X79813191Y-65311487D01*
X79964078Y-65341500D01*
X80117922Y-65341500D01*
X80268809Y-65311487D01*
X80410942Y-65252613D01*
X80538859Y-65167142D01*
X80647642Y-65058359D01*
X80733113Y-64930442D01*
X80791987Y-64788309D01*
X80822000Y-64637422D01*
X80822000Y-64483578D01*
X80791987Y-64332691D01*
X80733113Y-64190558D01*
X80647642Y-64062641D01*
X80538859Y-63953858D01*
X80504649Y-63931000D01*
X88677000Y-63931000D01*
X88677000Y-64281499D01*
X88666859Y-64271358D01*
X88538942Y-64185887D01*
X88396809Y-64127013D01*
X88245922Y-64097000D01*
X88092078Y-64097000D01*
X87941191Y-64127013D01*
X87799058Y-64185887D01*
X87671141Y-64271358D01*
X87562358Y-64380141D01*
X87476887Y-64508058D01*
X87418013Y-64650191D01*
X87407000Y-64705558D01*
X87395987Y-64650191D01*
X87337113Y-64508058D01*
X87251642Y-64380141D01*
X87142859Y-64271358D01*
X87014942Y-64185887D01*
X86872809Y-64127013D01*
X86721922Y-64097000D01*
X86568078Y-64097000D01*
X86417191Y-64127013D01*
X86275058Y-64185887D01*
X86147141Y-64271358D01*
X86038358Y-64380141D01*
X85952887Y-64508058D01*
X85894013Y-64650191D01*
X85864000Y-64801078D01*
X85864000Y-64954922D01*
X85894013Y-65105809D01*
X85952887Y-65247942D01*
X86038358Y-65375859D01*
X86147141Y-65484642D01*
X86275058Y-65570113D01*
X86417191Y-65628987D01*
X86568078Y-65659000D01*
X86721922Y-65659000D01*
X86872809Y-65628987D01*
X87014942Y-65570113D01*
X87142859Y-65484642D01*
X87251642Y-65375859D01*
X87337113Y-65247942D01*
X87395987Y-65105809D01*
X87407000Y-65050442D01*
X87418013Y-65105809D01*
X87476887Y-65247942D01*
X87562358Y-65375859D01*
X87671141Y-65484642D01*
X87799058Y-65570113D01*
X87941191Y-65628987D01*
X88092078Y-65659000D01*
X88245922Y-65659000D01*
X88396809Y-65628987D01*
X88538942Y-65570113D01*
X88666859Y-65484642D01*
X88677000Y-65474501D01*
X88677000Y-65561289D01*
X88636693Y-65637096D01*
X88621817Y-65673188D01*
X88606419Y-65709114D01*
X88604640Y-65714863D01*
X88562954Y-65852931D01*
X88538942Y-65836887D01*
X88396809Y-65778013D01*
X88245922Y-65748000D01*
X88092078Y-65748000D01*
X87941191Y-65778013D01*
X87799058Y-65836887D01*
X87671141Y-65922358D01*
X87562358Y-66031141D01*
X87476887Y-66159058D01*
X87418013Y-66301191D01*
X87407000Y-66356558D01*
X87395987Y-66301191D01*
X87337113Y-66159058D01*
X87251642Y-66031141D01*
X87142859Y-65922358D01*
X87014942Y-65836887D01*
X86872809Y-65778013D01*
X86721922Y-65748000D01*
X86568078Y-65748000D01*
X86417191Y-65778013D01*
X86275058Y-65836887D01*
X86147141Y-65922358D01*
X86038358Y-66031141D01*
X85952887Y-66159058D01*
X85894013Y-66301191D01*
X85864000Y-66452078D01*
X85864000Y-66605922D01*
X85894013Y-66756809D01*
X85952887Y-66898942D01*
X86038358Y-67026859D01*
X86147141Y-67135642D01*
X86275058Y-67221113D01*
X86417191Y-67279987D01*
X86568078Y-67310000D01*
X86721922Y-67310000D01*
X86872809Y-67279987D01*
X87014942Y-67221113D01*
X87142859Y-67135642D01*
X87251642Y-67026859D01*
X87337113Y-66898942D01*
X87395987Y-66756809D01*
X87407000Y-66701442D01*
X87418013Y-66756809D01*
X87476887Y-66898942D01*
X87562358Y-67026859D01*
X87671141Y-67135642D01*
X87799058Y-67221113D01*
X87941191Y-67279987D01*
X88092078Y-67310000D01*
X88245922Y-67310000D01*
X88396809Y-67279987D01*
X88500001Y-67237243D01*
X88500000Y-68494636D01*
X88453588Y-68382587D01*
X88324342Y-68189157D01*
X88159843Y-68024658D01*
X87966413Y-67895412D01*
X87751485Y-67806386D01*
X87523318Y-67761000D01*
X87290682Y-67761000D01*
X87062515Y-67806386D01*
X86847587Y-67895412D01*
X86654157Y-68024658D01*
X86489658Y-68189157D01*
X86360412Y-68382587D01*
X86271386Y-68597515D01*
X86226000Y-68825682D01*
X86226000Y-69058318D01*
X86271386Y-69286485D01*
X86360412Y-69501413D01*
X86489658Y-69694843D01*
X86654157Y-69859342D01*
X86847587Y-69988588D01*
X87062515Y-70077614D01*
X87290682Y-70123000D01*
X87523318Y-70123000D01*
X87751485Y-70077614D01*
X87966413Y-69988588D01*
X88159843Y-69859342D01*
X88324342Y-69694843D01*
X88453588Y-69501413D01*
X88500000Y-69389364D01*
X88500000Y-69471167D01*
X88502168Y-69493178D01*
X88502168Y-69508017D01*
X88502797Y-69514002D01*
X88527663Y-69735686D01*
X88535784Y-69773890D01*
X88543372Y-69812215D01*
X88545152Y-69817964D01*
X88612603Y-70030597D01*
X88627989Y-70066495D01*
X88642878Y-70102619D01*
X88645735Y-70107903D01*
X88645739Y-70107912D01*
X88645744Y-70107919D01*
X88677000Y-70164774D01*
X88677000Y-72536899D01*
X88515584Y-72488164D01*
X88477298Y-72480583D01*
X88439053Y-72472454D01*
X88433070Y-72471825D01*
X88433068Y-72471825D01*
X88211058Y-72450057D01*
X88211052Y-72450057D01*
X88190168Y-72448000D01*
X88087021Y-72448000D01*
X88159843Y-72399342D01*
X88324342Y-72234843D01*
X88453588Y-72041413D01*
X88542614Y-71826485D01*
X88588000Y-71598318D01*
X88588000Y-71365682D01*
X88542614Y-71137515D01*
X88453588Y-70922587D01*
X88324342Y-70729157D01*
X88159843Y-70564658D01*
X87966413Y-70435412D01*
X87751485Y-70346386D01*
X87523318Y-70301000D01*
X87290682Y-70301000D01*
X87062515Y-70346386D01*
X86847587Y-70435412D01*
X86654157Y-70564658D01*
X86489658Y-70729157D01*
X86360412Y-70922587D01*
X86271386Y-71137515D01*
X86226000Y-71365682D01*
X86226000Y-71598318D01*
X86271386Y-71826485D01*
X86360412Y-72041413D01*
X86489658Y-72234843D01*
X86654157Y-72399342D01*
X86726979Y-72448000D01*
X86623832Y-72448000D01*
X86601821Y-72450168D01*
X86586983Y-72450168D01*
X86580997Y-72450797D01*
X86359314Y-72475663D01*
X86321110Y-72483784D01*
X86282785Y-72491372D01*
X86277038Y-72493151D01*
X86277032Y-72493153D01*
X86064403Y-72560603D01*
X86028493Y-72575994D01*
X85992381Y-72590878D01*
X85987097Y-72593735D01*
X85987088Y-72593739D01*
X85987081Y-72593744D01*
X85791607Y-72701207D01*
X85759402Y-72723258D01*
X85726838Y-72744894D01*
X85722201Y-72748730D01*
X85718304Y-72752000D01*
X81473586Y-72752000D01*
X81453932Y-72735971D01*
X81421433Y-72714378D01*
X81389162Y-72692282D01*
X81383868Y-72689420D01*
X81186904Y-72584693D01*
X81150812Y-72569817D01*
X81114886Y-72554419D01*
X81109137Y-72552640D01*
X81109139Y-72552640D01*
X81109131Y-72552638D01*
X80895584Y-72488164D01*
X80857298Y-72480583D01*
X80819053Y-72472454D01*
X80813070Y-72471825D01*
X80813068Y-72471825D01*
X80591058Y-72450057D01*
X80591052Y-72450057D01*
X80570168Y-72448000D01*
X80445238Y-72448000D01*
X80512199Y-72297708D01*
X79787000Y-71572510D01*
X79061801Y-72297708D01*
X79128762Y-72448000D01*
X79003832Y-72448000D01*
X78981821Y-72450168D01*
X78966983Y-72450168D01*
X78960997Y-72450797D01*
X78739314Y-72475663D01*
X78701110Y-72483784D01*
X78662785Y-72491372D01*
X78657038Y-72493151D01*
X78657032Y-72493153D01*
X78444403Y-72560603D01*
X78408493Y-72575994D01*
X78372381Y-72590878D01*
X78367097Y-72593735D01*
X78367088Y-72593739D01*
X78367081Y-72593744D01*
X78171607Y-72701207D01*
X78139402Y-72723258D01*
X78106838Y-72744894D01*
X78102201Y-72748730D01*
X78098304Y-72752000D01*
X68519586Y-72752000D01*
X68499932Y-72735971D01*
X68467433Y-72714378D01*
X68435162Y-72692282D01*
X68429868Y-72689420D01*
X68232904Y-72584693D01*
X68196812Y-72569817D01*
X68160886Y-72554419D01*
X68155137Y-72552640D01*
X68155139Y-72552640D01*
X68155131Y-72552638D01*
X67941584Y-72488164D01*
X67903298Y-72480583D01*
X67865053Y-72472454D01*
X67859070Y-72471825D01*
X67859068Y-72471825D01*
X67637058Y-72450057D01*
X67637052Y-72450057D01*
X67616168Y-72448000D01*
X67513021Y-72448000D01*
X67585843Y-72399342D01*
X67750342Y-72234843D01*
X67879588Y-72041413D01*
X67968614Y-71826485D01*
X68014000Y-71598318D01*
X68014000Y-71365682D01*
X67968614Y-71137515D01*
X67879588Y-70922587D01*
X67750342Y-70729157D01*
X67585843Y-70564658D01*
X67569608Y-70553810D01*
X72216423Y-70553810D01*
X72216423Y-70707654D01*
X72246436Y-70858541D01*
X72305310Y-71000674D01*
X72390781Y-71128591D01*
X72499564Y-71237374D01*
X72627481Y-71322845D01*
X72769614Y-71381719D01*
X72920501Y-71411732D01*
X73074345Y-71411732D01*
X73225232Y-71381719D01*
X73367365Y-71322845D01*
X73495282Y-71237374D01*
X73604065Y-71128591D01*
X73689536Y-71000674D01*
X73715094Y-70938970D01*
X74334814Y-70938970D01*
X74334814Y-71092814D01*
X74364827Y-71243701D01*
X74423701Y-71385834D01*
X74509172Y-71513751D01*
X74617955Y-71622534D01*
X74745872Y-71708005D01*
X74888005Y-71766879D01*
X75038892Y-71796892D01*
X75192736Y-71796892D01*
X75343623Y-71766879D01*
X75485756Y-71708005D01*
X75613673Y-71622534D01*
X75722456Y-71513751D01*
X75807927Y-71385834D01*
X75816938Y-71364078D01*
X76552000Y-71364078D01*
X76552000Y-71517922D01*
X76582013Y-71668809D01*
X76640887Y-71810942D01*
X76726358Y-71938859D01*
X76835141Y-72047642D01*
X76963058Y-72133113D01*
X77105191Y-72191987D01*
X77256078Y-72222000D01*
X77409922Y-72222000D01*
X77560809Y-72191987D01*
X77702942Y-72133113D01*
X77830859Y-72047642D01*
X77939642Y-71938859D01*
X78025113Y-71810942D01*
X78083987Y-71668809D01*
X78114000Y-71517922D01*
X78114000Y-71499429D01*
X78600414Y-71499429D01*
X78626614Y-71730586D01*
X78697408Y-71952189D01*
X78790707Y-72126741D01*
X78971292Y-72207199D01*
X79696490Y-71482000D01*
X79877510Y-71482000D01*
X80602708Y-72207199D01*
X80783293Y-72126741D01*
X80889932Y-71919985D01*
X80954186Y-71696398D01*
X80973586Y-71464571D01*
X80947386Y-71233414D01*
X80876592Y-71011811D01*
X80783293Y-70837259D01*
X80602708Y-70756801D01*
X79877510Y-71482000D01*
X79696490Y-71482000D01*
X78971292Y-70756801D01*
X78790707Y-70837259D01*
X78684068Y-71044015D01*
X78619814Y-71267602D01*
X78600414Y-71499429D01*
X78114000Y-71499429D01*
X78114000Y-71364078D01*
X78083987Y-71213191D01*
X78025113Y-71071058D01*
X77939642Y-70943141D01*
X77830859Y-70834358D01*
X77702942Y-70748887D01*
X77560809Y-70690013D01*
X77441555Y-70666292D01*
X79061801Y-70666292D01*
X79787000Y-71391490D01*
X80512199Y-70666292D01*
X80431741Y-70485707D01*
X80224985Y-70379068D01*
X80001398Y-70314814D01*
X79769571Y-70295414D01*
X79538414Y-70321614D01*
X79316811Y-70392408D01*
X79142259Y-70485707D01*
X79061801Y-70666292D01*
X77441555Y-70666292D01*
X77409922Y-70660000D01*
X77256078Y-70660000D01*
X77105191Y-70690013D01*
X76963058Y-70748887D01*
X76835141Y-70834358D01*
X76726358Y-70943141D01*
X76640887Y-71071058D01*
X76582013Y-71213191D01*
X76552000Y-71364078D01*
X75816938Y-71364078D01*
X75866801Y-71243701D01*
X75896814Y-71092814D01*
X75896814Y-70938970D01*
X75866801Y-70788083D01*
X75807927Y-70645950D01*
X75722456Y-70518033D01*
X75670547Y-70466124D01*
X75722528Y-70414143D01*
X75807999Y-70286226D01*
X75866873Y-70144093D01*
X75896886Y-69993206D01*
X75896886Y-69839362D01*
X75877520Y-69742000D01*
X78604157Y-69742000D01*
X78611513Y-69816689D01*
X78633299Y-69888508D01*
X78668678Y-69954696D01*
X78716289Y-70012711D01*
X78774304Y-70060322D01*
X78840492Y-70095701D01*
X78912311Y-70117487D01*
X78987000Y-70124843D01*
X79627750Y-70123000D01*
X79723000Y-70027750D01*
X79723000Y-69006000D01*
X79851000Y-69006000D01*
X79851000Y-70027750D01*
X79946250Y-70123000D01*
X80587000Y-70124843D01*
X80661689Y-70117487D01*
X80733508Y-70095701D01*
X80799696Y-70060322D01*
X80857711Y-70012711D01*
X80905322Y-69954696D01*
X80940701Y-69888508D01*
X80962487Y-69816689D01*
X80969843Y-69742000D01*
X80968000Y-69101250D01*
X80872750Y-69006000D01*
X79851000Y-69006000D01*
X79723000Y-69006000D01*
X78701250Y-69006000D01*
X78606000Y-69101250D01*
X78604157Y-69742000D01*
X75877520Y-69742000D01*
X75866873Y-69688475D01*
X75807999Y-69546342D01*
X75722528Y-69418425D01*
X75613745Y-69309642D01*
X75485828Y-69224171D01*
X75343695Y-69165297D01*
X75192808Y-69135284D01*
X75038964Y-69135284D01*
X74888077Y-69165297D01*
X74745944Y-69224171D01*
X74618027Y-69309642D01*
X74509244Y-69418425D01*
X74423773Y-69546342D01*
X74364899Y-69688475D01*
X74334886Y-69839362D01*
X74334886Y-69993206D01*
X74364899Y-70144093D01*
X74423773Y-70286226D01*
X74509244Y-70414143D01*
X74561153Y-70466052D01*
X74509172Y-70518033D01*
X74423701Y-70645950D01*
X74364827Y-70788083D01*
X74334814Y-70938970D01*
X73715094Y-70938970D01*
X73748410Y-70858541D01*
X73778423Y-70707654D01*
X73778423Y-70553810D01*
X73748410Y-70402923D01*
X73689536Y-70260790D01*
X73604065Y-70132873D01*
X73495282Y-70024090D01*
X73367365Y-69938619D01*
X73225232Y-69879745D01*
X73074345Y-69849732D01*
X72920501Y-69849732D01*
X72769614Y-69879745D01*
X72627481Y-69938619D01*
X72499564Y-70024090D01*
X72390781Y-70132873D01*
X72305310Y-70260790D01*
X72246436Y-70402923D01*
X72216423Y-70553810D01*
X67569608Y-70553810D01*
X67392413Y-70435412D01*
X67177485Y-70346386D01*
X66949318Y-70301000D01*
X66716682Y-70301000D01*
X66488515Y-70346386D01*
X66273587Y-70435412D01*
X66080157Y-70564658D01*
X65915658Y-70729157D01*
X65786412Y-70922587D01*
X65697386Y-71137515D01*
X65652000Y-71365682D01*
X65652000Y-71598318D01*
X65697386Y-71826485D01*
X65786412Y-72041413D01*
X65915658Y-72234843D01*
X66080157Y-72399342D01*
X66152979Y-72448000D01*
X66049832Y-72448000D01*
X66027821Y-72450168D01*
X66012983Y-72450168D01*
X66006997Y-72450797D01*
X65785314Y-72475663D01*
X65747110Y-72483784D01*
X65708785Y-72491372D01*
X65703038Y-72493151D01*
X65703032Y-72493153D01*
X65490403Y-72560603D01*
X65454493Y-72575994D01*
X65418381Y-72590878D01*
X65413097Y-72593735D01*
X65413088Y-72593739D01*
X65413081Y-72593744D01*
X65217607Y-72701207D01*
X65185402Y-72723258D01*
X65152838Y-72744894D01*
X65148201Y-72748730D01*
X65144304Y-72752000D01*
X60899586Y-72752000D01*
X60879932Y-72735971D01*
X60847433Y-72714378D01*
X60815162Y-72692282D01*
X60809868Y-72689420D01*
X60612904Y-72584693D01*
X60576812Y-72569817D01*
X60540886Y-72554419D01*
X60535137Y-72552640D01*
X60535139Y-72552640D01*
X60535131Y-72552638D01*
X60321584Y-72488164D01*
X60283298Y-72480583D01*
X60245053Y-72472454D01*
X60239070Y-72471825D01*
X60239068Y-72471825D01*
X60017058Y-72450057D01*
X60017052Y-72450057D01*
X59996168Y-72448000D01*
X59871238Y-72448000D01*
X59938199Y-72297708D01*
X59213000Y-71572510D01*
X58487801Y-72297708D01*
X58554762Y-72448000D01*
X58429832Y-72448000D01*
X58407821Y-72450168D01*
X58392983Y-72450168D01*
X58386997Y-72450797D01*
X58165314Y-72475663D01*
X58127110Y-72483784D01*
X58088785Y-72491372D01*
X58083038Y-72493151D01*
X58083032Y-72493153D01*
X57870403Y-72560603D01*
X57834493Y-72575994D01*
X57798381Y-72590878D01*
X57793097Y-72593735D01*
X57793088Y-72593739D01*
X57793081Y-72593744D01*
X57597607Y-72701207D01*
X57565402Y-72723258D01*
X57532838Y-72744894D01*
X57528201Y-72748730D01*
X57524304Y-72752000D01*
X55784000Y-72752000D01*
X55759224Y-72754440D01*
X55735399Y-72761667D01*
X55713443Y-72773403D01*
X55694197Y-72789197D01*
X55678403Y-72808443D01*
X55666667Y-72830399D01*
X55659440Y-72854224D01*
X55657000Y-72879000D01*
X55657000Y-75334598D01*
X55567821Y-75423777D01*
X55394218Y-75683594D01*
X55274637Y-75972286D01*
X55213676Y-76278761D01*
X55213676Y-76591239D01*
X55274637Y-76897714D01*
X55394218Y-77186406D01*
X55567821Y-77446223D01*
X55657000Y-77535402D01*
X55657000Y-79229000D01*
X52228000Y-79229000D01*
X52228000Y-75342078D01*
X52691032Y-75342078D01*
X52691032Y-75495922D01*
X52721045Y-75646809D01*
X52779919Y-75788942D01*
X52865390Y-75916859D01*
X52974173Y-76025642D01*
X53102090Y-76111113D01*
X53244223Y-76169987D01*
X53395110Y-76200000D01*
X53548954Y-76200000D01*
X53699841Y-76169987D01*
X53841974Y-76111113D01*
X53969891Y-76025642D01*
X54078674Y-75916859D01*
X54164145Y-75788942D01*
X54223019Y-75646809D01*
X54253032Y-75495922D01*
X54253032Y-75342078D01*
X54223019Y-75191191D01*
X54164145Y-75049058D01*
X54078674Y-74921141D01*
X53969891Y-74812358D01*
X53841974Y-74726887D01*
X53699841Y-74668013D01*
X53548954Y-74638000D01*
X53395110Y-74638000D01*
X53244223Y-74668013D01*
X53102090Y-74726887D01*
X52974173Y-74812358D01*
X52865390Y-74921141D01*
X52779919Y-75049058D01*
X52721045Y-75191191D01*
X52691032Y-75342078D01*
X52228000Y-75342078D01*
X52228000Y-71659078D01*
X53352000Y-71659078D01*
X53352000Y-71812922D01*
X53382013Y-71963809D01*
X53440887Y-72105942D01*
X53526358Y-72233859D01*
X53635141Y-72342642D01*
X53763058Y-72428113D01*
X53905191Y-72486987D01*
X54056078Y-72517000D01*
X54209922Y-72517000D01*
X54360809Y-72486987D01*
X54502942Y-72428113D01*
X54630859Y-72342642D01*
X54739642Y-72233859D01*
X54768000Y-72191418D01*
X54796358Y-72233859D01*
X54905141Y-72342642D01*
X55033058Y-72428113D01*
X55175191Y-72486987D01*
X55326078Y-72517000D01*
X55479922Y-72517000D01*
X55630809Y-72486987D01*
X55772942Y-72428113D01*
X55900859Y-72342642D01*
X56009642Y-72233859D01*
X56095113Y-72105942D01*
X56153987Y-71963809D01*
X56184000Y-71812922D01*
X56184000Y-71659078D01*
X56153987Y-71508191D01*
X56150358Y-71499429D01*
X58026414Y-71499429D01*
X58052614Y-71730586D01*
X58123408Y-71952189D01*
X58216707Y-72126741D01*
X58397292Y-72207199D01*
X59122490Y-71482000D01*
X59303510Y-71482000D01*
X60028708Y-72207199D01*
X60209293Y-72126741D01*
X60315932Y-71919985D01*
X60380186Y-71696398D01*
X60399586Y-71464571D01*
X60373386Y-71233414D01*
X60302592Y-71011811D01*
X60209293Y-70837259D01*
X60028708Y-70756801D01*
X59303510Y-71482000D01*
X59122490Y-71482000D01*
X58397292Y-70756801D01*
X58216707Y-70837259D01*
X58110068Y-71044015D01*
X58045814Y-71267602D01*
X58026414Y-71499429D01*
X56150358Y-71499429D01*
X56095113Y-71366058D01*
X56009642Y-71238141D01*
X55900859Y-71129358D01*
X55772942Y-71043887D01*
X55630809Y-70985013D01*
X55479922Y-70955000D01*
X55326078Y-70955000D01*
X55175191Y-70985013D01*
X55033058Y-71043887D01*
X54905141Y-71129358D01*
X54796358Y-71238141D01*
X54768000Y-71280582D01*
X54739642Y-71238141D01*
X54630859Y-71129358D01*
X54502942Y-71043887D01*
X54360809Y-70985013D01*
X54209922Y-70955000D01*
X54056078Y-70955000D01*
X53905191Y-70985013D01*
X53763058Y-71043887D01*
X53635141Y-71129358D01*
X53526358Y-71238141D01*
X53440887Y-71366058D01*
X53382013Y-71508191D01*
X53352000Y-71659078D01*
X52228000Y-71659078D01*
X52228000Y-70666292D01*
X58487801Y-70666292D01*
X59213000Y-71391490D01*
X59938199Y-70666292D01*
X59857741Y-70485707D01*
X59650985Y-70379068D01*
X59427398Y-70314814D01*
X59195571Y-70295414D01*
X58964414Y-70321614D01*
X58742811Y-70392408D01*
X58568259Y-70485707D01*
X58487801Y-70666292D01*
X52228000Y-70666292D01*
X52228000Y-69742000D01*
X58030157Y-69742000D01*
X58037513Y-69816689D01*
X58059299Y-69888508D01*
X58094678Y-69954696D01*
X58142289Y-70012711D01*
X58200304Y-70060322D01*
X58266492Y-70095701D01*
X58338311Y-70117487D01*
X58413000Y-70124843D01*
X59053750Y-70123000D01*
X59149000Y-70027750D01*
X59149000Y-69006000D01*
X59277000Y-69006000D01*
X59277000Y-70027750D01*
X59372250Y-70123000D01*
X60013000Y-70124843D01*
X60087689Y-70117487D01*
X60159508Y-70095701D01*
X60225696Y-70060322D01*
X60283711Y-70012711D01*
X60331322Y-69954696D01*
X60366701Y-69888508D01*
X60388487Y-69816689D01*
X60395843Y-69742000D01*
X60394000Y-69101250D01*
X60298750Y-69006000D01*
X59277000Y-69006000D01*
X59149000Y-69006000D01*
X58127250Y-69006000D01*
X58032000Y-69101250D01*
X58030157Y-69742000D01*
X52228000Y-69742000D01*
X52228000Y-68142000D01*
X58030157Y-68142000D01*
X58032000Y-68782750D01*
X58127250Y-68878000D01*
X59149000Y-68878000D01*
X59149000Y-67856250D01*
X59277000Y-67856250D01*
X59277000Y-68878000D01*
X60298750Y-68878000D01*
X60351068Y-68825682D01*
X65652000Y-68825682D01*
X65652000Y-69058318D01*
X65697386Y-69286485D01*
X65786412Y-69501413D01*
X65915658Y-69694843D01*
X66080157Y-69859342D01*
X66273587Y-69988588D01*
X66488515Y-70077614D01*
X66716682Y-70123000D01*
X66949318Y-70123000D01*
X67177485Y-70077614D01*
X67392413Y-69988588D01*
X67585843Y-69859342D01*
X67750342Y-69694843D01*
X67879588Y-69501413D01*
X67968614Y-69286485D01*
X68014000Y-69058318D01*
X68014000Y-68825682D01*
X67971312Y-68611078D01*
X70115992Y-68611078D01*
X70115992Y-68764922D01*
X70146005Y-68915809D01*
X70204879Y-69057942D01*
X70290350Y-69185859D01*
X70399133Y-69294642D01*
X70527050Y-69380113D01*
X70669183Y-69438987D01*
X70820070Y-69469000D01*
X70973914Y-69469000D01*
X71124801Y-69438987D01*
X71266934Y-69380113D01*
X71394851Y-69294642D01*
X71503634Y-69185859D01*
X71589105Y-69057942D01*
X71647979Y-68915809D01*
X71677992Y-68764922D01*
X71677992Y-68611078D01*
X71647979Y-68460191D01*
X71589105Y-68318058D01*
X71503634Y-68190141D01*
X71394851Y-68081358D01*
X71266934Y-67995887D01*
X71124801Y-67937013D01*
X70973914Y-67907000D01*
X70820070Y-67907000D01*
X70669183Y-67937013D01*
X70527050Y-67995887D01*
X70399133Y-68081358D01*
X70290350Y-68190141D01*
X70204879Y-68318058D01*
X70146005Y-68460191D01*
X70115992Y-68611078D01*
X67971312Y-68611078D01*
X67968614Y-68597515D01*
X67879588Y-68382587D01*
X67750342Y-68189157D01*
X67585843Y-68024658D01*
X67392413Y-67895412D01*
X67177485Y-67806386D01*
X66949318Y-67761000D01*
X66716682Y-67761000D01*
X66488515Y-67806386D01*
X66273587Y-67895412D01*
X66080157Y-68024658D01*
X65915658Y-68189157D01*
X65786412Y-68382587D01*
X65697386Y-68597515D01*
X65652000Y-68825682D01*
X60351068Y-68825682D01*
X60394000Y-68782750D01*
X60395843Y-68142000D01*
X60388487Y-68067311D01*
X60366701Y-67995492D01*
X60331322Y-67929304D01*
X60283711Y-67871289D01*
X60225696Y-67823678D01*
X60159508Y-67788299D01*
X60087689Y-67766513D01*
X60013000Y-67759157D01*
X59372250Y-67761000D01*
X59277000Y-67856250D01*
X59149000Y-67856250D01*
X59053750Y-67761000D01*
X58413000Y-67759157D01*
X58338311Y-67766513D01*
X58266492Y-67788299D01*
X58200304Y-67823678D01*
X58142289Y-67871289D01*
X58094678Y-67929304D01*
X58059299Y-67995492D01*
X58037513Y-68067311D01*
X58030157Y-68142000D01*
X52228000Y-68142000D01*
X52228000Y-67722078D01*
X73164000Y-67722078D01*
X73164000Y-67875922D01*
X73194013Y-68026809D01*
X73252887Y-68168942D01*
X73338358Y-68296859D01*
X73447141Y-68405642D01*
X73575058Y-68491113D01*
X73717191Y-68549987D01*
X73868078Y-68580000D01*
X74021922Y-68580000D01*
X74172809Y-68549987D01*
X74314942Y-68491113D01*
X74442859Y-68405642D01*
X74551642Y-68296859D01*
X74637113Y-68168942D01*
X74695987Y-68026809D01*
X74726000Y-67875922D01*
X74726000Y-67722078D01*
X74698551Y-67584078D01*
X76974000Y-67584078D01*
X76974000Y-67737922D01*
X77004013Y-67888809D01*
X77062887Y-68030942D01*
X77148358Y-68158859D01*
X77257141Y-68267642D01*
X77385058Y-68353113D01*
X77527191Y-68411987D01*
X77678078Y-68442000D01*
X77831922Y-68442000D01*
X77982809Y-68411987D01*
X78124942Y-68353113D01*
X78252859Y-68267642D01*
X78361642Y-68158859D01*
X78372906Y-68142000D01*
X78604157Y-68142000D01*
X78606000Y-68782750D01*
X78701250Y-68878000D01*
X79723000Y-68878000D01*
X79723000Y-67856250D01*
X79851000Y-67856250D01*
X79851000Y-68878000D01*
X80872750Y-68878000D01*
X80968000Y-68782750D01*
X80969843Y-68142000D01*
X80962487Y-68067311D01*
X80940701Y-67995492D01*
X80905322Y-67929304D01*
X80857711Y-67871289D01*
X80799696Y-67823678D01*
X80733508Y-67788299D01*
X80661689Y-67766513D01*
X80587000Y-67759157D01*
X79946250Y-67761000D01*
X79851000Y-67856250D01*
X79723000Y-67856250D01*
X79627750Y-67761000D01*
X78987000Y-67759157D01*
X78912311Y-67766513D01*
X78840492Y-67788299D01*
X78774304Y-67823678D01*
X78716289Y-67871289D01*
X78668678Y-67929304D01*
X78633299Y-67995492D01*
X78611513Y-68067311D01*
X78604157Y-68142000D01*
X78372906Y-68142000D01*
X78447113Y-68030942D01*
X78505987Y-67888809D01*
X78536000Y-67737922D01*
X78536000Y-67584078D01*
X78505987Y-67433191D01*
X78447113Y-67291058D01*
X78361642Y-67163141D01*
X78252859Y-67054358D01*
X78124942Y-66968887D01*
X77982809Y-66910013D01*
X77831922Y-66880000D01*
X77678078Y-66880000D01*
X77527191Y-66910013D01*
X77385058Y-66968887D01*
X77257141Y-67054358D01*
X77148358Y-67163141D01*
X77062887Y-67291058D01*
X77004013Y-67433191D01*
X76974000Y-67584078D01*
X74698551Y-67584078D01*
X74695987Y-67571191D01*
X74637113Y-67429058D01*
X74551642Y-67301141D01*
X74442859Y-67192358D01*
X74314942Y-67106887D01*
X74172809Y-67048013D01*
X74021922Y-67018000D01*
X73868078Y-67018000D01*
X73717191Y-67048013D01*
X73575058Y-67106887D01*
X73447141Y-67192358D01*
X73338358Y-67301141D01*
X73252887Y-67429058D01*
X73194013Y-67571191D01*
X73164000Y-67722078D01*
X52228000Y-67722078D01*
X52228000Y-66198078D01*
X53199000Y-66198078D01*
X53199000Y-66351922D01*
X53229013Y-66502809D01*
X53287887Y-66644942D01*
X53373358Y-66772859D01*
X53482141Y-66881642D01*
X53610058Y-66967113D01*
X53752191Y-67025987D01*
X53903078Y-67056000D01*
X54056922Y-67056000D01*
X54207809Y-67025987D01*
X54349942Y-66967113D01*
X54477859Y-66881642D01*
X54586642Y-66772859D01*
X54672113Y-66644942D01*
X54730987Y-66502809D01*
X54741077Y-66452078D01*
X58686000Y-66452078D01*
X58686000Y-66605922D01*
X58716013Y-66756809D01*
X58774887Y-66898942D01*
X58860358Y-67026859D01*
X58969141Y-67135642D01*
X59097058Y-67221113D01*
X59239191Y-67279987D01*
X59390078Y-67310000D01*
X59543922Y-67310000D01*
X59694809Y-67279987D01*
X59836942Y-67221113D01*
X59964859Y-67135642D01*
X60073642Y-67026859D01*
X60159113Y-66898942D01*
X60217987Y-66756809D01*
X60229000Y-66701442D01*
X60240013Y-66756809D01*
X60298887Y-66898942D01*
X60384358Y-67026859D01*
X60493141Y-67135642D01*
X60621058Y-67221113D01*
X60763191Y-67279987D01*
X60914078Y-67310000D01*
X61067922Y-67310000D01*
X61218809Y-67279987D01*
X61360942Y-67221113D01*
X61488859Y-67135642D01*
X61597642Y-67026859D01*
X61683113Y-66898942D01*
X61741987Y-66756809D01*
X61772000Y-66605922D01*
X61772000Y-66452078D01*
X61741987Y-66301191D01*
X61683113Y-66159058D01*
X61597642Y-66031141D01*
X61488859Y-65922358D01*
X61360942Y-65836887D01*
X61218809Y-65778013D01*
X61067922Y-65748000D01*
X60914078Y-65748000D01*
X60763191Y-65778013D01*
X60621058Y-65836887D01*
X60493141Y-65922358D01*
X60384358Y-66031141D01*
X60298887Y-66159058D01*
X60240013Y-66301191D01*
X60229000Y-66356558D01*
X60217987Y-66301191D01*
X60159113Y-66159058D01*
X60073642Y-66031141D01*
X59964859Y-65922358D01*
X59836942Y-65836887D01*
X59694809Y-65778013D01*
X59543922Y-65748000D01*
X59390078Y-65748000D01*
X59239191Y-65778013D01*
X59097058Y-65836887D01*
X58969141Y-65922358D01*
X58860358Y-66031141D01*
X58774887Y-66159058D01*
X58716013Y-66301191D01*
X58686000Y-66452078D01*
X54741077Y-66452078D01*
X54761000Y-66351922D01*
X54761000Y-66198078D01*
X54730987Y-66047191D01*
X54672113Y-65905058D01*
X54586642Y-65777141D01*
X54477859Y-65668358D01*
X54349942Y-65582887D01*
X54207809Y-65524013D01*
X54056922Y-65494000D01*
X53903078Y-65494000D01*
X53752191Y-65524013D01*
X53610058Y-65582887D01*
X53482141Y-65668358D01*
X53373358Y-65777141D01*
X53287887Y-65905058D01*
X53229013Y-66047191D01*
X53199000Y-66198078D01*
X52228000Y-66198078D01*
X52228000Y-64801078D01*
X58686000Y-64801078D01*
X58686000Y-64954922D01*
X58716013Y-65105809D01*
X58774887Y-65247942D01*
X58860358Y-65375859D01*
X58969141Y-65484642D01*
X59097058Y-65570113D01*
X59239191Y-65628987D01*
X59390078Y-65659000D01*
X59543922Y-65659000D01*
X59694809Y-65628987D01*
X59836942Y-65570113D01*
X59964859Y-65484642D01*
X60073642Y-65375859D01*
X60159113Y-65247942D01*
X60217987Y-65105809D01*
X60229000Y-65050442D01*
X60240013Y-65105809D01*
X60298887Y-65247942D01*
X60384358Y-65375859D01*
X60493141Y-65484642D01*
X60621058Y-65570113D01*
X60763191Y-65628987D01*
X60914078Y-65659000D01*
X61067922Y-65659000D01*
X61218809Y-65628987D01*
X61360942Y-65570113D01*
X61488859Y-65484642D01*
X61597642Y-65375859D01*
X61683113Y-65247942D01*
X61741987Y-65105809D01*
X61772000Y-64954922D01*
X61772000Y-64801078D01*
X61741987Y-64650191D01*
X61683113Y-64508058D01*
X61597642Y-64380141D01*
X61488859Y-64271358D01*
X61360942Y-64185887D01*
X61218809Y-64127013D01*
X61067922Y-64097000D01*
X60914078Y-64097000D01*
X60763191Y-64127013D01*
X60621058Y-64185887D01*
X60493141Y-64271358D01*
X60384358Y-64380141D01*
X60298887Y-64508058D01*
X60240013Y-64650191D01*
X60229000Y-64705558D01*
X60217987Y-64650191D01*
X60159113Y-64508058D01*
X60073642Y-64380141D01*
X59964859Y-64271358D01*
X59836942Y-64185887D01*
X59694809Y-64127013D01*
X59543922Y-64097000D01*
X59390078Y-64097000D01*
X59239191Y-64127013D01*
X59097058Y-64185887D01*
X58969141Y-64271358D01*
X58860358Y-64380141D01*
X58774887Y-64508058D01*
X58716013Y-64650191D01*
X58686000Y-64801078D01*
X52228000Y-64801078D01*
X52228000Y-63931000D01*
X67131351Y-63931000D01*
X67097141Y-63953858D01*
%TA.AperFunction,Conductor*%
D22*
G36*
X67097141Y-63953858D02*
G01*
X66988358Y-64062641D01*
X66902887Y-64190558D01*
X66844013Y-64332691D01*
X66814000Y-64483578D01*
X66814000Y-64637422D01*
X66844013Y-64788309D01*
X66902887Y-64930442D01*
X66988358Y-65058359D01*
X67097141Y-65167142D01*
X67225058Y-65252613D01*
X67367191Y-65311487D01*
X67518078Y-65341500D01*
X67671922Y-65341500D01*
X67822809Y-65311487D01*
X67964942Y-65252613D01*
X68092859Y-65167142D01*
X68201642Y-65058359D01*
X68287113Y-64930442D01*
X68345987Y-64788309D01*
X68363315Y-64701192D01*
X68368013Y-64724809D01*
X68426887Y-64866942D01*
X68512358Y-64994859D01*
X68621141Y-65103642D01*
X68749058Y-65189113D01*
X68891191Y-65247987D01*
X69042078Y-65278000D01*
X69195922Y-65278000D01*
X69346809Y-65247987D01*
X69488942Y-65189113D01*
X69616859Y-65103642D01*
X69725642Y-64994859D01*
X69811113Y-64866942D01*
X69869987Y-64724809D01*
X69900000Y-64573922D01*
X69900000Y-64420078D01*
X69869987Y-64269191D01*
X69811113Y-64127058D01*
X69725642Y-63999141D01*
X69657501Y-63931000D01*
X77978499Y-63931000D01*
X77910358Y-63999141D01*
X77824887Y-64127058D01*
X77766013Y-64269191D01*
X77736000Y-64420078D01*
X77736000Y-64573922D01*
X77766013Y-64724809D01*
X77824887Y-64866942D01*
X77910358Y-64994859D01*
X78019141Y-65103642D01*
X78147058Y-65189113D01*
X78289191Y-65247987D01*
X78440078Y-65278000D01*
X78593922Y-65278000D01*
X78744809Y-65247987D01*
X78886942Y-65189113D01*
X79014859Y-65103642D01*
X79123642Y-64994859D01*
X79209113Y-64866942D01*
X79267987Y-64724809D01*
X79272685Y-64701192D01*
X79290013Y-64788309D01*
X79348887Y-64930442D01*
X79434358Y-65058359D01*
X79543141Y-65167142D01*
X79671058Y-65252613D01*
X79813191Y-65311487D01*
X79964078Y-65341500D01*
X80117922Y-65341500D01*
X80268809Y-65311487D01*
X80410942Y-65252613D01*
X80538859Y-65167142D01*
X80647642Y-65058359D01*
X80733113Y-64930442D01*
X80791987Y-64788309D01*
X80822000Y-64637422D01*
X80822000Y-64483578D01*
X80791987Y-64332691D01*
X80733113Y-64190558D01*
X80647642Y-64062641D01*
X80538859Y-63953858D01*
X80504649Y-63931000D01*
X88677000Y-63931000D01*
X88677000Y-64281499D01*
X88666859Y-64271358D01*
X88538942Y-64185887D01*
X88396809Y-64127013D01*
X88245922Y-64097000D01*
X88092078Y-64097000D01*
X87941191Y-64127013D01*
X87799058Y-64185887D01*
X87671141Y-64271358D01*
X87562358Y-64380141D01*
X87476887Y-64508058D01*
X87418013Y-64650191D01*
X87407000Y-64705558D01*
X87395987Y-64650191D01*
X87337113Y-64508058D01*
X87251642Y-64380141D01*
X87142859Y-64271358D01*
X87014942Y-64185887D01*
X86872809Y-64127013D01*
X86721922Y-64097000D01*
X86568078Y-64097000D01*
X86417191Y-64127013D01*
X86275058Y-64185887D01*
X86147141Y-64271358D01*
X86038358Y-64380141D01*
X85952887Y-64508058D01*
X85894013Y-64650191D01*
X85864000Y-64801078D01*
X85864000Y-64954922D01*
X85894013Y-65105809D01*
X85952887Y-65247942D01*
X86038358Y-65375859D01*
X86147141Y-65484642D01*
X86275058Y-65570113D01*
X86417191Y-65628987D01*
X86568078Y-65659000D01*
X86721922Y-65659000D01*
X86872809Y-65628987D01*
X87014942Y-65570113D01*
X87142859Y-65484642D01*
X87251642Y-65375859D01*
X87337113Y-65247942D01*
X87395987Y-65105809D01*
X87407000Y-65050442D01*
X87418013Y-65105809D01*
X87476887Y-65247942D01*
X87562358Y-65375859D01*
X87671141Y-65484642D01*
X87799058Y-65570113D01*
X87941191Y-65628987D01*
X88092078Y-65659000D01*
X88245922Y-65659000D01*
X88396809Y-65628987D01*
X88538942Y-65570113D01*
X88666859Y-65484642D01*
X88677000Y-65474501D01*
X88677000Y-65561289D01*
X88636693Y-65637096D01*
X88621817Y-65673188D01*
X88606419Y-65709114D01*
X88604640Y-65714863D01*
X88562954Y-65852931D01*
X88538942Y-65836887D01*
X88396809Y-65778013D01*
X88245922Y-65748000D01*
X88092078Y-65748000D01*
X87941191Y-65778013D01*
X87799058Y-65836887D01*
X87671141Y-65922358D01*
X87562358Y-66031141D01*
X87476887Y-66159058D01*
X87418013Y-66301191D01*
X87407000Y-66356558D01*
X87395987Y-66301191D01*
X87337113Y-66159058D01*
X87251642Y-66031141D01*
X87142859Y-65922358D01*
X87014942Y-65836887D01*
X86872809Y-65778013D01*
X86721922Y-65748000D01*
X86568078Y-65748000D01*
X86417191Y-65778013D01*
X86275058Y-65836887D01*
X86147141Y-65922358D01*
X86038358Y-66031141D01*
X85952887Y-66159058D01*
X85894013Y-66301191D01*
X85864000Y-66452078D01*
X85864000Y-66605922D01*
X85894013Y-66756809D01*
X85952887Y-66898942D01*
X86038358Y-67026859D01*
X86147141Y-67135642D01*
X86275058Y-67221113D01*
X86417191Y-67279987D01*
X86568078Y-67310000D01*
X86721922Y-67310000D01*
X86872809Y-67279987D01*
X87014942Y-67221113D01*
X87142859Y-67135642D01*
X87251642Y-67026859D01*
X87337113Y-66898942D01*
X87395987Y-66756809D01*
X87407000Y-66701442D01*
X87418013Y-66756809D01*
X87476887Y-66898942D01*
X87562358Y-67026859D01*
X87671141Y-67135642D01*
X87799058Y-67221113D01*
X87941191Y-67279987D01*
X88092078Y-67310000D01*
X88245922Y-67310000D01*
X88396809Y-67279987D01*
X88500001Y-67237243D01*
X88500000Y-68494636D01*
X88453588Y-68382587D01*
X88324342Y-68189157D01*
X88159843Y-68024658D01*
X87966413Y-67895412D01*
X87751485Y-67806386D01*
X87523318Y-67761000D01*
X87290682Y-67761000D01*
X87062515Y-67806386D01*
X86847587Y-67895412D01*
X86654157Y-68024658D01*
X86489658Y-68189157D01*
X86360412Y-68382587D01*
X86271386Y-68597515D01*
X86226000Y-68825682D01*
X86226000Y-69058318D01*
X86271386Y-69286485D01*
X86360412Y-69501413D01*
X86489658Y-69694843D01*
X86654157Y-69859342D01*
X86847587Y-69988588D01*
X87062515Y-70077614D01*
X87290682Y-70123000D01*
X87523318Y-70123000D01*
X87751485Y-70077614D01*
X87966413Y-69988588D01*
X88159843Y-69859342D01*
X88324342Y-69694843D01*
X88453588Y-69501413D01*
X88500000Y-69389364D01*
X88500000Y-69471167D01*
X88502168Y-69493178D01*
X88502168Y-69508017D01*
X88502797Y-69514002D01*
X88527663Y-69735686D01*
X88535784Y-69773890D01*
X88543372Y-69812215D01*
X88545152Y-69817964D01*
X88612603Y-70030597D01*
X88627989Y-70066495D01*
X88642878Y-70102619D01*
X88645735Y-70107903D01*
X88645739Y-70107912D01*
X88645744Y-70107919D01*
X88677000Y-70164774D01*
X88677000Y-72536899D01*
X88515584Y-72488164D01*
X88477298Y-72480583D01*
X88439053Y-72472454D01*
X88433070Y-72471825D01*
X88433068Y-72471825D01*
X88211058Y-72450057D01*
X88211052Y-72450057D01*
X88190168Y-72448000D01*
X88087021Y-72448000D01*
X88159843Y-72399342D01*
X88324342Y-72234843D01*
X88453588Y-72041413D01*
X88542614Y-71826485D01*
X88588000Y-71598318D01*
X88588000Y-71365682D01*
X88542614Y-71137515D01*
X88453588Y-70922587D01*
X88324342Y-70729157D01*
X88159843Y-70564658D01*
X87966413Y-70435412D01*
X87751485Y-70346386D01*
X87523318Y-70301000D01*
X87290682Y-70301000D01*
X87062515Y-70346386D01*
X86847587Y-70435412D01*
X86654157Y-70564658D01*
X86489658Y-70729157D01*
X86360412Y-70922587D01*
X86271386Y-71137515D01*
X86226000Y-71365682D01*
X86226000Y-71598318D01*
X86271386Y-71826485D01*
X86360412Y-72041413D01*
X86489658Y-72234843D01*
X86654157Y-72399342D01*
X86726979Y-72448000D01*
X86623832Y-72448000D01*
X86601821Y-72450168D01*
X86586983Y-72450168D01*
X86580997Y-72450797D01*
X86359314Y-72475663D01*
X86321110Y-72483784D01*
X86282785Y-72491372D01*
X86277038Y-72493151D01*
X86277032Y-72493153D01*
X86064403Y-72560603D01*
X86028493Y-72575994D01*
X85992381Y-72590878D01*
X85987097Y-72593735D01*
X85987088Y-72593739D01*
X85987081Y-72593744D01*
X85791607Y-72701207D01*
X85759402Y-72723258D01*
X85726838Y-72744894D01*
X85722201Y-72748730D01*
X85718304Y-72752000D01*
X81473586Y-72752000D01*
X81453932Y-72735971D01*
X81421433Y-72714378D01*
X81389162Y-72692282D01*
X81383868Y-72689420D01*
X81186904Y-72584693D01*
X81150812Y-72569817D01*
X81114886Y-72554419D01*
X81109137Y-72552640D01*
X81109139Y-72552640D01*
X81109131Y-72552638D01*
X80895584Y-72488164D01*
X80857298Y-72480583D01*
X80819053Y-72472454D01*
X80813070Y-72471825D01*
X80813068Y-72471825D01*
X80591058Y-72450057D01*
X80591052Y-72450057D01*
X80570168Y-72448000D01*
X80445238Y-72448000D01*
X80512199Y-72297708D01*
X79787000Y-71572510D01*
X79061801Y-72297708D01*
X79128762Y-72448000D01*
X79003832Y-72448000D01*
X78981821Y-72450168D01*
X78966983Y-72450168D01*
X78960997Y-72450797D01*
X78739314Y-72475663D01*
X78701110Y-72483784D01*
X78662785Y-72491372D01*
X78657038Y-72493151D01*
X78657032Y-72493153D01*
X78444403Y-72560603D01*
X78408493Y-72575994D01*
X78372381Y-72590878D01*
X78367097Y-72593735D01*
X78367088Y-72593739D01*
X78367081Y-72593744D01*
X78171607Y-72701207D01*
X78139402Y-72723258D01*
X78106838Y-72744894D01*
X78102201Y-72748730D01*
X78098304Y-72752000D01*
X68519586Y-72752000D01*
X68499932Y-72735971D01*
X68467433Y-72714378D01*
X68435162Y-72692282D01*
X68429868Y-72689420D01*
X68232904Y-72584693D01*
X68196812Y-72569817D01*
X68160886Y-72554419D01*
X68155137Y-72552640D01*
X68155139Y-72552640D01*
X68155131Y-72552638D01*
X67941584Y-72488164D01*
X67903298Y-72480583D01*
X67865053Y-72472454D01*
X67859070Y-72471825D01*
X67859068Y-72471825D01*
X67637058Y-72450057D01*
X67637052Y-72450057D01*
X67616168Y-72448000D01*
X67513021Y-72448000D01*
X67585843Y-72399342D01*
X67750342Y-72234843D01*
X67879588Y-72041413D01*
X67968614Y-71826485D01*
X68014000Y-71598318D01*
X68014000Y-71365682D01*
X67968614Y-71137515D01*
X67879588Y-70922587D01*
X67750342Y-70729157D01*
X67585843Y-70564658D01*
X67569608Y-70553810D01*
X72216423Y-70553810D01*
X72216423Y-70707654D01*
X72246436Y-70858541D01*
X72305310Y-71000674D01*
X72390781Y-71128591D01*
X72499564Y-71237374D01*
X72627481Y-71322845D01*
X72769614Y-71381719D01*
X72920501Y-71411732D01*
X73074345Y-71411732D01*
X73225232Y-71381719D01*
X73367365Y-71322845D01*
X73495282Y-71237374D01*
X73604065Y-71128591D01*
X73689536Y-71000674D01*
X73715094Y-70938970D01*
X74334814Y-70938970D01*
X74334814Y-71092814D01*
X74364827Y-71243701D01*
X74423701Y-71385834D01*
X74509172Y-71513751D01*
X74617955Y-71622534D01*
X74745872Y-71708005D01*
X74888005Y-71766879D01*
X75038892Y-71796892D01*
X75192736Y-71796892D01*
X75343623Y-71766879D01*
X75485756Y-71708005D01*
X75613673Y-71622534D01*
X75722456Y-71513751D01*
X75807927Y-71385834D01*
X75816938Y-71364078D01*
X76552000Y-71364078D01*
X76552000Y-71517922D01*
X76582013Y-71668809D01*
X76640887Y-71810942D01*
X76726358Y-71938859D01*
X76835141Y-72047642D01*
X76963058Y-72133113D01*
X77105191Y-72191987D01*
X77256078Y-72222000D01*
X77409922Y-72222000D01*
X77560809Y-72191987D01*
X77702942Y-72133113D01*
X77830859Y-72047642D01*
X77939642Y-71938859D01*
X78025113Y-71810942D01*
X78083987Y-71668809D01*
X78114000Y-71517922D01*
X78114000Y-71499429D01*
X78600414Y-71499429D01*
X78626614Y-71730586D01*
X78697408Y-71952189D01*
X78790707Y-72126741D01*
X78971292Y-72207199D01*
X79696490Y-71482000D01*
X79877510Y-71482000D01*
X80602708Y-72207199D01*
X80783293Y-72126741D01*
X80889932Y-71919985D01*
X80954186Y-71696398D01*
X80973586Y-71464571D01*
X80947386Y-71233414D01*
X80876592Y-71011811D01*
X80783293Y-70837259D01*
X80602708Y-70756801D01*
X79877510Y-71482000D01*
X79696490Y-71482000D01*
X78971292Y-70756801D01*
X78790707Y-70837259D01*
X78684068Y-71044015D01*
X78619814Y-71267602D01*
X78600414Y-71499429D01*
X78114000Y-71499429D01*
X78114000Y-71364078D01*
X78083987Y-71213191D01*
X78025113Y-71071058D01*
X77939642Y-70943141D01*
X77830859Y-70834358D01*
X77702942Y-70748887D01*
X77560809Y-70690013D01*
X77441555Y-70666292D01*
X79061801Y-70666292D01*
X79787000Y-71391490D01*
X80512199Y-70666292D01*
X80431741Y-70485707D01*
X80224985Y-70379068D01*
X80001398Y-70314814D01*
X79769571Y-70295414D01*
X79538414Y-70321614D01*
X79316811Y-70392408D01*
X79142259Y-70485707D01*
X79061801Y-70666292D01*
X77441555Y-70666292D01*
X77409922Y-70660000D01*
X77256078Y-70660000D01*
X77105191Y-70690013D01*
X76963058Y-70748887D01*
X76835141Y-70834358D01*
X76726358Y-70943141D01*
X76640887Y-71071058D01*
X76582013Y-71213191D01*
X76552000Y-71364078D01*
X75816938Y-71364078D01*
X75866801Y-71243701D01*
X75896814Y-71092814D01*
X75896814Y-70938970D01*
X75866801Y-70788083D01*
X75807927Y-70645950D01*
X75722456Y-70518033D01*
X75670547Y-70466124D01*
X75722528Y-70414143D01*
X75807999Y-70286226D01*
X75866873Y-70144093D01*
X75896886Y-69993206D01*
X75896886Y-69839362D01*
X75877520Y-69742000D01*
X78604157Y-69742000D01*
X78611513Y-69816689D01*
X78633299Y-69888508D01*
X78668678Y-69954696D01*
X78716289Y-70012711D01*
X78774304Y-70060322D01*
X78840492Y-70095701D01*
X78912311Y-70117487D01*
X78987000Y-70124843D01*
X79627750Y-70123000D01*
X79723000Y-70027750D01*
X79723000Y-69006000D01*
X79851000Y-69006000D01*
X79851000Y-70027750D01*
X79946250Y-70123000D01*
X80587000Y-70124843D01*
X80661689Y-70117487D01*
X80733508Y-70095701D01*
X80799696Y-70060322D01*
X80857711Y-70012711D01*
X80905322Y-69954696D01*
X80940701Y-69888508D01*
X80962487Y-69816689D01*
X80969843Y-69742000D01*
X80968000Y-69101250D01*
X80872750Y-69006000D01*
X79851000Y-69006000D01*
X79723000Y-69006000D01*
X78701250Y-69006000D01*
X78606000Y-69101250D01*
X78604157Y-69742000D01*
X75877520Y-69742000D01*
X75866873Y-69688475D01*
X75807999Y-69546342D01*
X75722528Y-69418425D01*
X75613745Y-69309642D01*
X75485828Y-69224171D01*
X75343695Y-69165297D01*
X75192808Y-69135284D01*
X75038964Y-69135284D01*
X74888077Y-69165297D01*
X74745944Y-69224171D01*
X74618027Y-69309642D01*
X74509244Y-69418425D01*
X74423773Y-69546342D01*
X74364899Y-69688475D01*
X74334886Y-69839362D01*
X74334886Y-69993206D01*
X74364899Y-70144093D01*
X74423773Y-70286226D01*
X74509244Y-70414143D01*
X74561153Y-70466052D01*
X74509172Y-70518033D01*
X74423701Y-70645950D01*
X74364827Y-70788083D01*
X74334814Y-70938970D01*
X73715094Y-70938970D01*
X73748410Y-70858541D01*
X73778423Y-70707654D01*
X73778423Y-70553810D01*
X73748410Y-70402923D01*
X73689536Y-70260790D01*
X73604065Y-70132873D01*
X73495282Y-70024090D01*
X73367365Y-69938619D01*
X73225232Y-69879745D01*
X73074345Y-69849732D01*
X72920501Y-69849732D01*
X72769614Y-69879745D01*
X72627481Y-69938619D01*
X72499564Y-70024090D01*
X72390781Y-70132873D01*
X72305310Y-70260790D01*
X72246436Y-70402923D01*
X72216423Y-70553810D01*
X67569608Y-70553810D01*
X67392413Y-70435412D01*
X67177485Y-70346386D01*
X66949318Y-70301000D01*
X66716682Y-70301000D01*
X66488515Y-70346386D01*
X66273587Y-70435412D01*
X66080157Y-70564658D01*
X65915658Y-70729157D01*
X65786412Y-70922587D01*
X65697386Y-71137515D01*
X65652000Y-71365682D01*
X65652000Y-71598318D01*
X65697386Y-71826485D01*
X65786412Y-72041413D01*
X65915658Y-72234843D01*
X66080157Y-72399342D01*
X66152979Y-72448000D01*
X66049832Y-72448000D01*
X66027821Y-72450168D01*
X66012983Y-72450168D01*
X66006997Y-72450797D01*
X65785314Y-72475663D01*
X65747110Y-72483784D01*
X65708785Y-72491372D01*
X65703038Y-72493151D01*
X65703032Y-72493153D01*
X65490403Y-72560603D01*
X65454493Y-72575994D01*
X65418381Y-72590878D01*
X65413097Y-72593735D01*
X65413088Y-72593739D01*
X65413081Y-72593744D01*
X65217607Y-72701207D01*
X65185402Y-72723258D01*
X65152838Y-72744894D01*
X65148201Y-72748730D01*
X65144304Y-72752000D01*
X60899586Y-72752000D01*
X60879932Y-72735971D01*
X60847433Y-72714378D01*
X60815162Y-72692282D01*
X60809868Y-72689420D01*
X60612904Y-72584693D01*
X60576812Y-72569817D01*
X60540886Y-72554419D01*
X60535137Y-72552640D01*
X60535139Y-72552640D01*
X60535131Y-72552638D01*
X60321584Y-72488164D01*
X60283298Y-72480583D01*
X60245053Y-72472454D01*
X60239070Y-72471825D01*
X60239068Y-72471825D01*
X60017058Y-72450057D01*
X60017052Y-72450057D01*
X59996168Y-72448000D01*
X59871238Y-72448000D01*
X59938199Y-72297708D01*
X59213000Y-71572510D01*
X58487801Y-72297708D01*
X58554762Y-72448000D01*
X58429832Y-72448000D01*
X58407821Y-72450168D01*
X58392983Y-72450168D01*
X58386997Y-72450797D01*
X58165314Y-72475663D01*
X58127110Y-72483784D01*
X58088785Y-72491372D01*
X58083038Y-72493151D01*
X58083032Y-72493153D01*
X57870403Y-72560603D01*
X57834493Y-72575994D01*
X57798381Y-72590878D01*
X57793097Y-72593735D01*
X57793088Y-72593739D01*
X57793081Y-72593744D01*
X57597607Y-72701207D01*
X57565402Y-72723258D01*
X57532838Y-72744894D01*
X57528201Y-72748730D01*
X57524304Y-72752000D01*
X55784000Y-72752000D01*
X55759224Y-72754440D01*
X55735399Y-72761667D01*
X55713443Y-72773403D01*
X55694197Y-72789197D01*
X55678403Y-72808443D01*
X55666667Y-72830399D01*
X55659440Y-72854224D01*
X55657000Y-72879000D01*
X55657000Y-75334598D01*
X55567821Y-75423777D01*
X55394218Y-75683594D01*
X55274637Y-75972286D01*
X55213676Y-76278761D01*
X55213676Y-76591239D01*
X55274637Y-76897714D01*
X55394218Y-77186406D01*
X55567821Y-77446223D01*
X55657000Y-77535402D01*
X55657000Y-79229000D01*
X52228000Y-79229000D01*
X52228000Y-75342078D01*
X52691032Y-75342078D01*
X52691032Y-75495922D01*
X52721045Y-75646809D01*
X52779919Y-75788942D01*
X52865390Y-75916859D01*
X52974173Y-76025642D01*
X53102090Y-76111113D01*
X53244223Y-76169987D01*
X53395110Y-76200000D01*
X53548954Y-76200000D01*
X53699841Y-76169987D01*
X53841974Y-76111113D01*
X53969891Y-76025642D01*
X54078674Y-75916859D01*
X54164145Y-75788942D01*
X54223019Y-75646809D01*
X54253032Y-75495922D01*
X54253032Y-75342078D01*
X54223019Y-75191191D01*
X54164145Y-75049058D01*
X54078674Y-74921141D01*
X53969891Y-74812358D01*
X53841974Y-74726887D01*
X53699841Y-74668013D01*
X53548954Y-74638000D01*
X53395110Y-74638000D01*
X53244223Y-74668013D01*
X53102090Y-74726887D01*
X52974173Y-74812358D01*
X52865390Y-74921141D01*
X52779919Y-75049058D01*
X52721045Y-75191191D01*
X52691032Y-75342078D01*
X52228000Y-75342078D01*
X52228000Y-71659078D01*
X53352000Y-71659078D01*
X53352000Y-71812922D01*
X53382013Y-71963809D01*
X53440887Y-72105942D01*
X53526358Y-72233859D01*
X53635141Y-72342642D01*
X53763058Y-72428113D01*
X53905191Y-72486987D01*
X54056078Y-72517000D01*
X54209922Y-72517000D01*
X54360809Y-72486987D01*
X54502942Y-72428113D01*
X54630859Y-72342642D01*
X54739642Y-72233859D01*
X54768000Y-72191418D01*
X54796358Y-72233859D01*
X54905141Y-72342642D01*
X55033058Y-72428113D01*
X55175191Y-72486987D01*
X55326078Y-72517000D01*
X55479922Y-72517000D01*
X55630809Y-72486987D01*
X55772942Y-72428113D01*
X55900859Y-72342642D01*
X56009642Y-72233859D01*
X56095113Y-72105942D01*
X56153987Y-71963809D01*
X56184000Y-71812922D01*
X56184000Y-71659078D01*
X56153987Y-71508191D01*
X56150358Y-71499429D01*
X58026414Y-71499429D01*
X58052614Y-71730586D01*
X58123408Y-71952189D01*
X58216707Y-72126741D01*
X58397292Y-72207199D01*
X59122490Y-71482000D01*
X59303510Y-71482000D01*
X60028708Y-72207199D01*
X60209293Y-72126741D01*
X60315932Y-71919985D01*
X60380186Y-71696398D01*
X60399586Y-71464571D01*
X60373386Y-71233414D01*
X60302592Y-71011811D01*
X60209293Y-70837259D01*
X60028708Y-70756801D01*
X59303510Y-71482000D01*
X59122490Y-71482000D01*
X58397292Y-70756801D01*
X58216707Y-70837259D01*
X58110068Y-71044015D01*
X58045814Y-71267602D01*
X58026414Y-71499429D01*
X56150358Y-71499429D01*
X56095113Y-71366058D01*
X56009642Y-71238141D01*
X55900859Y-71129358D01*
X55772942Y-71043887D01*
X55630809Y-70985013D01*
X55479922Y-70955000D01*
X55326078Y-70955000D01*
X55175191Y-70985013D01*
X55033058Y-71043887D01*
X54905141Y-71129358D01*
X54796358Y-71238141D01*
X54768000Y-71280582D01*
X54739642Y-71238141D01*
X54630859Y-71129358D01*
X54502942Y-71043887D01*
X54360809Y-70985013D01*
X54209922Y-70955000D01*
X54056078Y-70955000D01*
X53905191Y-70985013D01*
X53763058Y-71043887D01*
X53635141Y-71129358D01*
X53526358Y-71238141D01*
X53440887Y-71366058D01*
X53382013Y-71508191D01*
X53352000Y-71659078D01*
X52228000Y-71659078D01*
X52228000Y-70666292D01*
X58487801Y-70666292D01*
X59213000Y-71391490D01*
X59938199Y-70666292D01*
X59857741Y-70485707D01*
X59650985Y-70379068D01*
X59427398Y-70314814D01*
X59195571Y-70295414D01*
X58964414Y-70321614D01*
X58742811Y-70392408D01*
X58568259Y-70485707D01*
X58487801Y-70666292D01*
X52228000Y-70666292D01*
X52228000Y-69742000D01*
X58030157Y-69742000D01*
X58037513Y-69816689D01*
X58059299Y-69888508D01*
X58094678Y-69954696D01*
X58142289Y-70012711D01*
X58200304Y-70060322D01*
X58266492Y-70095701D01*
X58338311Y-70117487D01*
X58413000Y-70124843D01*
X59053750Y-70123000D01*
X59149000Y-70027750D01*
X59149000Y-69006000D01*
X59277000Y-69006000D01*
X59277000Y-70027750D01*
X59372250Y-70123000D01*
X60013000Y-70124843D01*
X60087689Y-70117487D01*
X60159508Y-70095701D01*
X60225696Y-70060322D01*
X60283711Y-70012711D01*
X60331322Y-69954696D01*
X60366701Y-69888508D01*
X60388487Y-69816689D01*
X60395843Y-69742000D01*
X60394000Y-69101250D01*
X60298750Y-69006000D01*
X59277000Y-69006000D01*
X59149000Y-69006000D01*
X58127250Y-69006000D01*
X58032000Y-69101250D01*
X58030157Y-69742000D01*
X52228000Y-69742000D01*
X52228000Y-68142000D01*
X58030157Y-68142000D01*
X58032000Y-68782750D01*
X58127250Y-68878000D01*
X59149000Y-68878000D01*
X59149000Y-67856250D01*
X59277000Y-67856250D01*
X59277000Y-68878000D01*
X60298750Y-68878000D01*
X60351068Y-68825682D01*
X65652000Y-68825682D01*
X65652000Y-69058318D01*
X65697386Y-69286485D01*
X65786412Y-69501413D01*
X65915658Y-69694843D01*
X66080157Y-69859342D01*
X66273587Y-69988588D01*
X66488515Y-70077614D01*
X66716682Y-70123000D01*
X66949318Y-70123000D01*
X67177485Y-70077614D01*
X67392413Y-69988588D01*
X67585843Y-69859342D01*
X67750342Y-69694843D01*
X67879588Y-69501413D01*
X67968614Y-69286485D01*
X68014000Y-69058318D01*
X68014000Y-68825682D01*
X67971312Y-68611078D01*
X70115992Y-68611078D01*
X70115992Y-68764922D01*
X70146005Y-68915809D01*
X70204879Y-69057942D01*
X70290350Y-69185859D01*
X70399133Y-69294642D01*
X70527050Y-69380113D01*
X70669183Y-69438987D01*
X70820070Y-69469000D01*
X70973914Y-69469000D01*
X71124801Y-69438987D01*
X71266934Y-69380113D01*
X71394851Y-69294642D01*
X71503634Y-69185859D01*
X71589105Y-69057942D01*
X71647979Y-68915809D01*
X71677992Y-68764922D01*
X71677992Y-68611078D01*
X71647979Y-68460191D01*
X71589105Y-68318058D01*
X71503634Y-68190141D01*
X71394851Y-68081358D01*
X71266934Y-67995887D01*
X71124801Y-67937013D01*
X70973914Y-67907000D01*
X70820070Y-67907000D01*
X70669183Y-67937013D01*
X70527050Y-67995887D01*
X70399133Y-68081358D01*
X70290350Y-68190141D01*
X70204879Y-68318058D01*
X70146005Y-68460191D01*
X70115992Y-68611078D01*
X67971312Y-68611078D01*
X67968614Y-68597515D01*
X67879588Y-68382587D01*
X67750342Y-68189157D01*
X67585843Y-68024658D01*
X67392413Y-67895412D01*
X67177485Y-67806386D01*
X66949318Y-67761000D01*
X66716682Y-67761000D01*
X66488515Y-67806386D01*
X66273587Y-67895412D01*
X66080157Y-68024658D01*
X65915658Y-68189157D01*
X65786412Y-68382587D01*
X65697386Y-68597515D01*
X65652000Y-68825682D01*
X60351068Y-68825682D01*
X60394000Y-68782750D01*
X60395843Y-68142000D01*
X60388487Y-68067311D01*
X60366701Y-67995492D01*
X60331322Y-67929304D01*
X60283711Y-67871289D01*
X60225696Y-67823678D01*
X60159508Y-67788299D01*
X60087689Y-67766513D01*
X60013000Y-67759157D01*
X59372250Y-67761000D01*
X59277000Y-67856250D01*
X59149000Y-67856250D01*
X59053750Y-67761000D01*
X58413000Y-67759157D01*
X58338311Y-67766513D01*
X58266492Y-67788299D01*
X58200304Y-67823678D01*
X58142289Y-67871289D01*
X58094678Y-67929304D01*
X58059299Y-67995492D01*
X58037513Y-68067311D01*
X58030157Y-68142000D01*
X52228000Y-68142000D01*
X52228000Y-67722078D01*
X73164000Y-67722078D01*
X73164000Y-67875922D01*
X73194013Y-68026809D01*
X73252887Y-68168942D01*
X73338358Y-68296859D01*
X73447141Y-68405642D01*
X73575058Y-68491113D01*
X73717191Y-68549987D01*
X73868078Y-68580000D01*
X74021922Y-68580000D01*
X74172809Y-68549987D01*
X74314942Y-68491113D01*
X74442859Y-68405642D01*
X74551642Y-68296859D01*
X74637113Y-68168942D01*
X74695987Y-68026809D01*
X74726000Y-67875922D01*
X74726000Y-67722078D01*
X74698551Y-67584078D01*
X76974000Y-67584078D01*
X76974000Y-67737922D01*
X77004013Y-67888809D01*
X77062887Y-68030942D01*
X77148358Y-68158859D01*
X77257141Y-68267642D01*
X77385058Y-68353113D01*
X77527191Y-68411987D01*
X77678078Y-68442000D01*
X77831922Y-68442000D01*
X77982809Y-68411987D01*
X78124942Y-68353113D01*
X78252859Y-68267642D01*
X78361642Y-68158859D01*
X78372906Y-68142000D01*
X78604157Y-68142000D01*
X78606000Y-68782750D01*
X78701250Y-68878000D01*
X79723000Y-68878000D01*
X79723000Y-67856250D01*
X79851000Y-67856250D01*
X79851000Y-68878000D01*
X80872750Y-68878000D01*
X80968000Y-68782750D01*
X80969843Y-68142000D01*
X80962487Y-68067311D01*
X80940701Y-67995492D01*
X80905322Y-67929304D01*
X80857711Y-67871289D01*
X80799696Y-67823678D01*
X80733508Y-67788299D01*
X80661689Y-67766513D01*
X80587000Y-67759157D01*
X79946250Y-67761000D01*
X79851000Y-67856250D01*
X79723000Y-67856250D01*
X79627750Y-67761000D01*
X78987000Y-67759157D01*
X78912311Y-67766513D01*
X78840492Y-67788299D01*
X78774304Y-67823678D01*
X78716289Y-67871289D01*
X78668678Y-67929304D01*
X78633299Y-67995492D01*
X78611513Y-68067311D01*
X78604157Y-68142000D01*
X78372906Y-68142000D01*
X78447113Y-68030942D01*
X78505987Y-67888809D01*
X78536000Y-67737922D01*
X78536000Y-67584078D01*
X78505987Y-67433191D01*
X78447113Y-67291058D01*
X78361642Y-67163141D01*
X78252859Y-67054358D01*
X78124942Y-66968887D01*
X77982809Y-66910013D01*
X77831922Y-66880000D01*
X77678078Y-66880000D01*
X77527191Y-66910013D01*
X77385058Y-66968887D01*
X77257141Y-67054358D01*
X77148358Y-67163141D01*
X77062887Y-67291058D01*
X77004013Y-67433191D01*
X76974000Y-67584078D01*
X74698551Y-67584078D01*
X74695987Y-67571191D01*
X74637113Y-67429058D01*
X74551642Y-67301141D01*
X74442859Y-67192358D01*
X74314942Y-67106887D01*
X74172809Y-67048013D01*
X74021922Y-67018000D01*
X73868078Y-67018000D01*
X73717191Y-67048013D01*
X73575058Y-67106887D01*
X73447141Y-67192358D01*
X73338358Y-67301141D01*
X73252887Y-67429058D01*
X73194013Y-67571191D01*
X73164000Y-67722078D01*
X52228000Y-67722078D01*
X52228000Y-66198078D01*
X53199000Y-66198078D01*
X53199000Y-66351922D01*
X53229013Y-66502809D01*
X53287887Y-66644942D01*
X53373358Y-66772859D01*
X53482141Y-66881642D01*
X53610058Y-66967113D01*
X53752191Y-67025987D01*
X53903078Y-67056000D01*
X54056922Y-67056000D01*
X54207809Y-67025987D01*
X54349942Y-66967113D01*
X54477859Y-66881642D01*
X54586642Y-66772859D01*
X54672113Y-66644942D01*
X54730987Y-66502809D01*
X54741077Y-66452078D01*
X58686000Y-66452078D01*
X58686000Y-66605922D01*
X58716013Y-66756809D01*
X58774887Y-66898942D01*
X58860358Y-67026859D01*
X58969141Y-67135642D01*
X59097058Y-67221113D01*
X59239191Y-67279987D01*
X59390078Y-67310000D01*
X59543922Y-67310000D01*
X59694809Y-67279987D01*
X59836942Y-67221113D01*
X59964859Y-67135642D01*
X60073642Y-67026859D01*
X60159113Y-66898942D01*
X60217987Y-66756809D01*
X60229000Y-66701442D01*
X60240013Y-66756809D01*
X60298887Y-66898942D01*
X60384358Y-67026859D01*
X60493141Y-67135642D01*
X60621058Y-67221113D01*
X60763191Y-67279987D01*
X60914078Y-67310000D01*
X61067922Y-67310000D01*
X61218809Y-67279987D01*
X61360942Y-67221113D01*
X61488859Y-67135642D01*
X61597642Y-67026859D01*
X61683113Y-66898942D01*
X61741987Y-66756809D01*
X61772000Y-66605922D01*
X61772000Y-66452078D01*
X61741987Y-66301191D01*
X61683113Y-66159058D01*
X61597642Y-66031141D01*
X61488859Y-65922358D01*
X61360942Y-65836887D01*
X61218809Y-65778013D01*
X61067922Y-65748000D01*
X60914078Y-65748000D01*
X60763191Y-65778013D01*
X60621058Y-65836887D01*
X60493141Y-65922358D01*
X60384358Y-66031141D01*
X60298887Y-66159058D01*
X60240013Y-66301191D01*
X60229000Y-66356558D01*
X60217987Y-66301191D01*
X60159113Y-66159058D01*
X60073642Y-66031141D01*
X59964859Y-65922358D01*
X59836942Y-65836887D01*
X59694809Y-65778013D01*
X59543922Y-65748000D01*
X59390078Y-65748000D01*
X59239191Y-65778013D01*
X59097058Y-65836887D01*
X58969141Y-65922358D01*
X58860358Y-66031141D01*
X58774887Y-66159058D01*
X58716013Y-66301191D01*
X58686000Y-66452078D01*
X54741077Y-66452078D01*
X54761000Y-66351922D01*
X54761000Y-66198078D01*
X54730987Y-66047191D01*
X54672113Y-65905058D01*
X54586642Y-65777141D01*
X54477859Y-65668358D01*
X54349942Y-65582887D01*
X54207809Y-65524013D01*
X54056922Y-65494000D01*
X53903078Y-65494000D01*
X53752191Y-65524013D01*
X53610058Y-65582887D01*
X53482141Y-65668358D01*
X53373358Y-65777141D01*
X53287887Y-65905058D01*
X53229013Y-66047191D01*
X53199000Y-66198078D01*
X52228000Y-66198078D01*
X52228000Y-64801078D01*
X58686000Y-64801078D01*
X58686000Y-64954922D01*
X58716013Y-65105809D01*
X58774887Y-65247942D01*
X58860358Y-65375859D01*
X58969141Y-65484642D01*
X59097058Y-65570113D01*
X59239191Y-65628987D01*
X59390078Y-65659000D01*
X59543922Y-65659000D01*
X59694809Y-65628987D01*
X59836942Y-65570113D01*
X59964859Y-65484642D01*
X60073642Y-65375859D01*
X60159113Y-65247942D01*
X60217987Y-65105809D01*
X60229000Y-65050442D01*
X60240013Y-65105809D01*
X60298887Y-65247942D01*
X60384358Y-65375859D01*
X60493141Y-65484642D01*
X60621058Y-65570113D01*
X60763191Y-65628987D01*
X60914078Y-65659000D01*
X61067922Y-65659000D01*
X61218809Y-65628987D01*
X61360942Y-65570113D01*
X61488859Y-65484642D01*
X61597642Y-65375859D01*
X61683113Y-65247942D01*
X61741987Y-65105809D01*
X61772000Y-64954922D01*
X61772000Y-64801078D01*
X61741987Y-64650191D01*
X61683113Y-64508058D01*
X61597642Y-64380141D01*
X61488859Y-64271358D01*
X61360942Y-64185887D01*
X61218809Y-64127013D01*
X61067922Y-64097000D01*
X60914078Y-64097000D01*
X60763191Y-64127013D01*
X60621058Y-64185887D01*
X60493141Y-64271358D01*
X60384358Y-64380141D01*
X60298887Y-64508058D01*
X60240013Y-64650191D01*
X60229000Y-64705558D01*
X60217987Y-64650191D01*
X60159113Y-64508058D01*
X60073642Y-64380141D01*
X59964859Y-64271358D01*
X59836942Y-64185887D01*
X59694809Y-64127013D01*
X59543922Y-64097000D01*
X59390078Y-64097000D01*
X59239191Y-64127013D01*
X59097058Y-64185887D01*
X58969141Y-64271358D01*
X58860358Y-64380141D01*
X58774887Y-64508058D01*
X58716013Y-64650191D01*
X58686000Y-64801078D01*
X52228000Y-64801078D01*
X52228000Y-63931000D01*
X67131351Y-63931000D01*
X67097141Y-63953858D01*
G37*
%TD.AperFunction*%
%TD*%
M02*
