%TF.GenerationSoftware,KiCad,Pcbnew,(5.1.10)-1*%
%TF.CreationDate,2022-01-17T19:26:09+07:00*%
%TF.ProjectId,Fan_controller_v3_pnlz1x2,46616e5f-636f-46e7-9472-6f6c6c65725f,rev?*%
%TF.SameCoordinates,Original*%
%TF.FileFunction,Legend,Top*%
%TF.FilePolarity,Positive*%
%FSLAX46Y46*%
G04 Gerber Fmt 4.6, Leading zero omitted, Abs format (unit mm)*
G04 Created by KiCad (PCBNEW (5.1.10)-1) date 2022-01-17 19:26:09*
%MOMM*%
%LPD*%
G01*
G04 APERTURE LIST*
%ADD10C,0.120000*%
%ADD11C,0.150000*%
%ADD12C,2.000000*%
%ADD13C,0.020000*%
%ADD14R,1.600000X1.600000*%
%ADD15C,1.600000*%
%ADD16R,1.750000X2.250000*%
%ADD17O,1.750000X2.250000*%
%ADD18R,0.900000X0.800000*%
%ADD19R,1.100000X0.400000*%
%ADD20O,1.700000X1.700000*%
%ADD21R,1.700000X1.700000*%
%ADD22R,1.000000X1.000000*%
%ADD23O,1.000000X1.000000*%
%ADD24R,0.800000X0.900000*%
G04 APERTURE END LIST*
D10*
%TO.C,C13*%
X111360580Y-95289000D02*
X111079420Y-95289000D01*
X111360580Y-96309000D02*
X111079420Y-96309000D01*
%TO.C,JP1*%
X88871000Y-109354000D02*
X88871000Y-106554000D01*
X88871000Y-106554000D02*
X90871000Y-106554000D01*
X90871000Y-106554000D02*
X90871000Y-109354000D01*
X90871000Y-109354000D02*
X88871000Y-109354000D01*
%TO.C,K1*%
X94613000Y-95942000D02*
X94613000Y-97942000D01*
X94613000Y-95926000D02*
X96713000Y-95926000D01*
X104613000Y-95742000D02*
X94433000Y-95742000D01*
X94433000Y-95742000D02*
X94433000Y-115942000D01*
X94433000Y-115942000D02*
X104633000Y-115942000D01*
X104633000Y-115942000D02*
X104633000Y-95742000D01*
%TO.C,PS1*%
X81071000Y-116349000D02*
X82271000Y-116349000D01*
X81071000Y-115149000D02*
X81071000Y-116349000D01*
X93091000Y-109759000D02*
X93091000Y-116099000D01*
X81321000Y-116099000D02*
X93091000Y-116099000D01*
X81321000Y-109759000D02*
X81321000Y-116099000D01*
X81321000Y-109759000D02*
X93091000Y-109759000D01*
%TO.C,Q3*%
X83761000Y-102474000D02*
X85221000Y-102474000D01*
X83761000Y-105634000D02*
X85921000Y-105634000D01*
X83761000Y-105634000D02*
X83761000Y-104704000D01*
X83761000Y-102474000D02*
X83761000Y-103404000D01*
%TO.C,Q4*%
X83761000Y-98852000D02*
X85221000Y-98852000D01*
X83761000Y-102012000D02*
X85921000Y-102012000D01*
X83761000Y-102012000D02*
X83761000Y-101082000D01*
X83761000Y-98852000D02*
X83761000Y-99782000D01*
%TO.C,R6*%
X100077258Y-92355500D02*
X99602742Y-92355500D01*
X100077258Y-93400500D02*
X99602742Y-93400500D01*
%TO.C,R18*%
X120558742Y-93400500D02*
X121033258Y-93400500D01*
X120558742Y-92355500D02*
X121033258Y-92355500D01*
%TO.C,R9*%
X96968500Y-93466742D02*
X96968500Y-93941258D01*
X98013500Y-93466742D02*
X98013500Y-93941258D01*
%TO.C,R10*%
X95444500Y-93466742D02*
X95444500Y-93941258D01*
X96489500Y-93466742D02*
X96489500Y-93941258D01*
%TO.C,R19*%
X124146500Y-93466742D02*
X124146500Y-93941258D01*
X125191500Y-93466742D02*
X125191500Y-93941258D01*
%TO.C,R20*%
X122622500Y-93466742D02*
X122622500Y-93941258D01*
X123667500Y-93466742D02*
X123667500Y-93941258D01*
%TO.C,R7*%
X81474500Y-105784742D02*
X81474500Y-106259258D01*
X82519500Y-105784742D02*
X82519500Y-106259258D01*
%TO.C,R8*%
X82519500Y-103148758D02*
X82519500Y-102674242D01*
X81474500Y-103148758D02*
X81474500Y-102674242D01*
%TO.C,R11*%
X86554500Y-103879742D02*
X86554500Y-104354258D01*
X87599500Y-103879742D02*
X87599500Y-104354258D01*
%TO.C,R12*%
X86554500Y-100196742D02*
X86554500Y-100671258D01*
X87599500Y-100196742D02*
X87599500Y-100671258D01*
%TO.C,TP1*%
X88340500Y-108118000D02*
G75*
G03*
X88340500Y-108118000I-1200000J0D01*
G01*
D11*
%TO.C,U2*%
X108947000Y-96966000D02*
X107872000Y-96966000D01*
X108947000Y-100091000D02*
X112197000Y-100091000D01*
X108947000Y-96841000D02*
X112197000Y-96841000D01*
X108947000Y-100091000D02*
X108947000Y-99866000D01*
X112197000Y-100091000D02*
X112197000Y-99866000D01*
X112197000Y-96841000D02*
X112197000Y-97066000D01*
X108947000Y-96841000D02*
X108947000Y-96966000D01*
D10*
%TO.C,J1*%
X105940000Y-115798000D02*
X105940000Y-114468000D01*
X107270000Y-115798000D02*
X105940000Y-115798000D01*
X108540000Y-115798000D02*
X108540000Y-113138000D01*
X108540000Y-113138000D02*
X113680000Y-113138000D01*
X108540000Y-115798000D02*
X113680000Y-115798000D01*
X113680000Y-115798000D02*
X113680000Y-113138000D01*
%TO.C,K2*%
X115187000Y-95942000D02*
X115187000Y-97942000D01*
X115187000Y-95926000D02*
X117287000Y-95926000D01*
X125187000Y-95742000D02*
X115007000Y-95742000D01*
X115007000Y-95742000D02*
X115007000Y-115942000D01*
X115007000Y-115942000D02*
X125207000Y-115942000D01*
X125207000Y-115942000D02*
X125207000Y-95742000D01*
%TO.C,C8*%
X91114420Y-94785000D02*
X91395580Y-94785000D01*
X91114420Y-93765000D02*
X91395580Y-93765000D01*
%TO.C,C10*%
X90606420Y-103929000D02*
X90887580Y-103929000D01*
X90606420Y-102909000D02*
X90887580Y-102909000D01*
%TO.C,Q2*%
X102335000Y-91930500D02*
X103795000Y-91930500D01*
X102335000Y-95090500D02*
X104495000Y-95090500D01*
X102335000Y-95090500D02*
X102335000Y-94160500D01*
X102335000Y-91930500D02*
X102335000Y-92860500D01*
%TO.C,R16*%
X113954742Y-93019500D02*
X114429258Y-93019500D01*
X113954742Y-91974500D02*
X114429258Y-91974500D01*
%TO.C,U1*%
X93828000Y-98847000D02*
X93828000Y-95397000D01*
X93828000Y-98847000D02*
X93828000Y-100797000D01*
X88708000Y-98847000D02*
X88708000Y-96897000D01*
X88708000Y-98847000D02*
X88708000Y-100797000D01*
%TO.C,J2*%
X85366000Y-91570000D02*
X85366000Y-95683034D01*
X85256000Y-91570000D02*
X85256000Y-95578855D01*
X85146000Y-91570000D02*
X85146000Y-95508007D01*
X85036000Y-91570000D02*
X85036000Y-95460573D01*
X84926000Y-91570000D02*
X84926000Y-95432086D01*
X84816000Y-91570000D02*
X84816000Y-95420411D01*
X84706000Y-91570000D02*
X84706000Y-95424768D01*
X84596000Y-91570000D02*
X84596000Y-95445442D01*
X84486000Y-91570000D02*
X84486000Y-95483886D01*
X84376000Y-91570000D02*
X84376000Y-95543309D01*
X84266000Y-91570000D02*
X84266000Y-95630477D01*
X84156000Y-91570000D02*
X84156000Y-95762418D01*
X82886000Y-91570000D02*
X82886000Y-95762418D01*
X85486000Y-91570000D02*
X85486000Y-95872470D01*
X81556000Y-91570000D02*
X81556000Y-95872470D01*
X85486000Y-91570000D02*
X81556000Y-91570000D01*
X85551000Y-98210000D02*
X84791000Y-98210000D01*
X85551000Y-97450000D02*
X85551000Y-98210000D01*
%TO.C,Q6*%
X115911000Y-94320500D02*
X115911000Y-92860500D01*
X119071000Y-94320500D02*
X119071000Y-92160500D01*
X119071000Y-94320500D02*
X118141000Y-94320500D01*
X115911000Y-94320500D02*
X116841000Y-94320500D01*
%TO.C,R2*%
X106206742Y-94543500D02*
X106681258Y-94543500D01*
X106206742Y-93498500D02*
X106681258Y-93498500D01*
%TO.C,R4*%
X106681258Y-91974500D02*
X106206742Y-91974500D01*
X106681258Y-93019500D02*
X106206742Y-93019500D01*
%TO.C,R14*%
X113953742Y-94861000D02*
X114428258Y-94861000D01*
X113953742Y-93816000D02*
X114428258Y-93816000D01*
%TO.C,J2*%
X85551000Y-72450000D02*
X85551000Y-73210000D01*
X85551000Y-73210000D02*
X84791000Y-73210000D01*
X85486000Y-66570000D02*
X81556000Y-66570000D01*
X81556000Y-66570000D02*
X81556000Y-70872470D01*
X85486000Y-66570000D02*
X85486000Y-70872470D01*
X82886000Y-66570000D02*
X82886000Y-70762418D01*
X84156000Y-66570000D02*
X84156000Y-70762418D01*
X84266000Y-66570000D02*
X84266000Y-70630477D01*
X84376000Y-66570000D02*
X84376000Y-70543309D01*
X84486000Y-66570000D02*
X84486000Y-70483886D01*
X84596000Y-66570000D02*
X84596000Y-70445442D01*
X84706000Y-66570000D02*
X84706000Y-70424768D01*
X84816000Y-66570000D02*
X84816000Y-70420411D01*
X84926000Y-66570000D02*
X84926000Y-70432086D01*
X85036000Y-66570000D02*
X85036000Y-70460573D01*
X85146000Y-66570000D02*
X85146000Y-70508007D01*
X85256000Y-66570000D02*
X85256000Y-70578855D01*
X85366000Y-66570000D02*
X85366000Y-70683034D01*
%TO.C,U1*%
X88708000Y-73847000D02*
X88708000Y-75797000D01*
X88708000Y-73847000D02*
X88708000Y-71897000D01*
X93828000Y-73847000D02*
X93828000Y-75797000D01*
X93828000Y-73847000D02*
X93828000Y-70397000D01*
%TO.C,R16*%
X113954742Y-66974500D02*
X114429258Y-66974500D01*
X113954742Y-68019500D02*
X114429258Y-68019500D01*
%TO.C,R14*%
X113953742Y-68816000D02*
X114428258Y-68816000D01*
X113953742Y-69861000D02*
X114428258Y-69861000D01*
%TO.C,R4*%
X106681258Y-68019500D02*
X106206742Y-68019500D01*
X106681258Y-66974500D02*
X106206742Y-66974500D01*
%TO.C,R2*%
X106206742Y-68498500D02*
X106681258Y-68498500D01*
X106206742Y-69543500D02*
X106681258Y-69543500D01*
%TO.C,Q6*%
X115911000Y-69320500D02*
X116841000Y-69320500D01*
X119071000Y-69320500D02*
X118141000Y-69320500D01*
X119071000Y-69320500D02*
X119071000Y-67160500D01*
X115911000Y-69320500D02*
X115911000Y-67860500D01*
%TO.C,Q2*%
X102335000Y-66930500D02*
X102335000Y-67860500D01*
X102335000Y-70090500D02*
X102335000Y-69160500D01*
X102335000Y-70090500D02*
X104495000Y-70090500D01*
X102335000Y-66930500D02*
X103795000Y-66930500D01*
%TO.C,C10*%
X90606420Y-77909000D02*
X90887580Y-77909000D01*
X90606420Y-78929000D02*
X90887580Y-78929000D01*
%TO.C,C8*%
X91114420Y-68765000D02*
X91395580Y-68765000D01*
X91114420Y-69785000D02*
X91395580Y-69785000D01*
%TO.C,K2*%
X125207000Y-90942000D02*
X125207000Y-70742000D01*
X115007000Y-90942000D02*
X125207000Y-90942000D01*
X115007000Y-70742000D02*
X115007000Y-90942000D01*
X125187000Y-70742000D02*
X115007000Y-70742000D01*
X115187000Y-70926000D02*
X117287000Y-70926000D01*
X115187000Y-70942000D02*
X115187000Y-72942000D01*
%TO.C,J1*%
X113680000Y-90798000D02*
X113680000Y-88138000D01*
X108540000Y-90798000D02*
X113680000Y-90798000D01*
X108540000Y-88138000D02*
X113680000Y-88138000D01*
X108540000Y-90798000D02*
X108540000Y-88138000D01*
X107270000Y-90798000D02*
X105940000Y-90798000D01*
X105940000Y-90798000D02*
X105940000Y-89468000D01*
D11*
%TO.C,U2*%
X108947000Y-71841000D02*
X108947000Y-71966000D01*
X112197000Y-71841000D02*
X112197000Y-72066000D01*
X112197000Y-75091000D02*
X112197000Y-74866000D01*
X108947000Y-75091000D02*
X108947000Y-74866000D01*
X108947000Y-71841000D02*
X112197000Y-71841000D01*
X108947000Y-75091000D02*
X112197000Y-75091000D01*
X108947000Y-71966000D02*
X107872000Y-71966000D01*
D10*
%TO.C,TP1*%
X88340500Y-83118000D02*
G75*
G03*
X88340500Y-83118000I-1200000J0D01*
G01*
%TO.C,R12*%
X87599500Y-75196742D02*
X87599500Y-75671258D01*
X86554500Y-75196742D02*
X86554500Y-75671258D01*
%TO.C,R11*%
X87599500Y-78879742D02*
X87599500Y-79354258D01*
X86554500Y-78879742D02*
X86554500Y-79354258D01*
%TO.C,R8*%
X81474500Y-78148758D02*
X81474500Y-77674242D01*
X82519500Y-78148758D02*
X82519500Y-77674242D01*
%TO.C,R7*%
X82519500Y-80784742D02*
X82519500Y-81259258D01*
X81474500Y-80784742D02*
X81474500Y-81259258D01*
%TO.C,R20*%
X123667500Y-68466742D02*
X123667500Y-68941258D01*
X122622500Y-68466742D02*
X122622500Y-68941258D01*
%TO.C,R19*%
X125191500Y-68466742D02*
X125191500Y-68941258D01*
X124146500Y-68466742D02*
X124146500Y-68941258D01*
%TO.C,R10*%
X96489500Y-68466742D02*
X96489500Y-68941258D01*
X95444500Y-68466742D02*
X95444500Y-68941258D01*
%TO.C,R9*%
X98013500Y-68466742D02*
X98013500Y-68941258D01*
X96968500Y-68466742D02*
X96968500Y-68941258D01*
%TO.C,R18*%
X120558742Y-67355500D02*
X121033258Y-67355500D01*
X120558742Y-68400500D02*
X121033258Y-68400500D01*
%TO.C,R6*%
X100077258Y-68400500D02*
X99602742Y-68400500D01*
X100077258Y-67355500D02*
X99602742Y-67355500D01*
%TO.C,Q4*%
X83761000Y-73852000D02*
X83761000Y-74782000D01*
X83761000Y-77012000D02*
X83761000Y-76082000D01*
X83761000Y-77012000D02*
X85921000Y-77012000D01*
X83761000Y-73852000D02*
X85221000Y-73852000D01*
%TO.C,Q3*%
X83761000Y-77474000D02*
X83761000Y-78404000D01*
X83761000Y-80634000D02*
X83761000Y-79704000D01*
X83761000Y-80634000D02*
X85921000Y-80634000D01*
X83761000Y-77474000D02*
X85221000Y-77474000D01*
%TO.C,PS1*%
X81321000Y-84759000D02*
X93091000Y-84759000D01*
X81321000Y-84759000D02*
X81321000Y-91099000D01*
X81321000Y-91099000D02*
X93091000Y-91099000D01*
X93091000Y-84759000D02*
X93091000Y-91099000D01*
X81071000Y-90149000D02*
X81071000Y-91349000D01*
X81071000Y-91349000D02*
X82271000Y-91349000D01*
%TO.C,K1*%
X104633000Y-90942000D02*
X104633000Y-70742000D01*
X94433000Y-90942000D02*
X104633000Y-90942000D01*
X94433000Y-70742000D02*
X94433000Y-90942000D01*
X104613000Y-70742000D02*
X94433000Y-70742000D01*
X94613000Y-70926000D02*
X96713000Y-70926000D01*
X94613000Y-70942000D02*
X94613000Y-72942000D01*
%TO.C,JP1*%
X90871000Y-84354000D02*
X88871000Y-84354000D01*
X90871000Y-81554000D02*
X90871000Y-84354000D01*
X88871000Y-81554000D02*
X90871000Y-81554000D01*
X88871000Y-84354000D02*
X88871000Y-81554000D01*
%TO.C,C13*%
X111360580Y-71309000D02*
X111079420Y-71309000D01*
X111360580Y-70289000D02*
X111079420Y-70289000D01*
D11*
X107796142Y-96156142D02*
X107748523Y-96203761D01*
X107605666Y-96251380D01*
X107510428Y-96251380D01*
X107367571Y-96203761D01*
X107272333Y-96108523D01*
X107224714Y-96013285D01*
X107177095Y-95822809D01*
X107177095Y-95679952D01*
X107224714Y-95489476D01*
X107272333Y-95394238D01*
X107367571Y-95299000D01*
X107510428Y-95251380D01*
X107605666Y-95251380D01*
X107748523Y-95299000D01*
X107796142Y-95346619D01*
X108748523Y-96251380D02*
X108177095Y-96251380D01*
X108462809Y-96251380D02*
X108462809Y-95251380D01*
X108367571Y-95394238D01*
X108272333Y-95489476D01*
X108177095Y-95537095D01*
X109081857Y-95251380D02*
X109700904Y-95251380D01*
X109367571Y-95632333D01*
X109510428Y-95632333D01*
X109605666Y-95679952D01*
X109653285Y-95727571D01*
X109700904Y-95822809D01*
X109700904Y-96060904D01*
X109653285Y-96156142D01*
X109605666Y-96203761D01*
X109510428Y-96251380D01*
X109224714Y-96251380D01*
X109129476Y-96203761D01*
X109081857Y-96156142D01*
%TO.C,JP1*%
X91577666Y-107189380D02*
X91577666Y-107903666D01*
X91530047Y-108046523D01*
X91434809Y-108141761D01*
X91291952Y-108189380D01*
X91196714Y-108189380D01*
X92053857Y-108189380D02*
X92053857Y-107189380D01*
X92434809Y-107189380D01*
X92530047Y-107237000D01*
X92577666Y-107284619D01*
X92625285Y-107379857D01*
X92625285Y-107522714D01*
X92577666Y-107617952D01*
X92530047Y-107665571D01*
X92434809Y-107713190D01*
X92053857Y-107713190D01*
X93577666Y-108189380D02*
X93006238Y-108189380D01*
X93291952Y-108189380D02*
X93291952Y-107189380D01*
X93196714Y-107332238D01*
X93101476Y-107427476D01*
X93006238Y-107475095D01*
%TO.C,K1*%
X105261904Y-104252380D02*
X105261904Y-103252380D01*
X105833333Y-104252380D02*
X105404761Y-103680952D01*
X105833333Y-103252380D02*
X105261904Y-103823809D01*
X106785714Y-104252380D02*
X106214285Y-104252380D01*
X106500000Y-104252380D02*
X106500000Y-103252380D01*
X106404761Y-103395238D01*
X106309523Y-103490476D01*
X106214285Y-103538095D01*
%TO.C,PS1*%
X83068714Y-109332380D02*
X83068714Y-108332380D01*
X83449666Y-108332380D01*
X83544904Y-108380000D01*
X83592523Y-108427619D01*
X83640142Y-108522857D01*
X83640142Y-108665714D01*
X83592523Y-108760952D01*
X83544904Y-108808571D01*
X83449666Y-108856190D01*
X83068714Y-108856190D01*
X84021095Y-109284761D02*
X84163952Y-109332380D01*
X84402047Y-109332380D01*
X84497285Y-109284761D01*
X84544904Y-109237142D01*
X84592523Y-109141904D01*
X84592523Y-109046666D01*
X84544904Y-108951428D01*
X84497285Y-108903809D01*
X84402047Y-108856190D01*
X84211571Y-108808571D01*
X84116333Y-108760952D01*
X84068714Y-108713333D01*
X84021095Y-108618095D01*
X84021095Y-108522857D01*
X84068714Y-108427619D01*
X84116333Y-108380000D01*
X84211571Y-108332380D01*
X84449666Y-108332380D01*
X84592523Y-108380000D01*
X85544904Y-109332380D02*
X84973476Y-109332380D01*
X85259190Y-109332380D02*
X85259190Y-108332380D01*
X85163952Y-108475238D01*
X85068714Y-108570476D01*
X84973476Y-108618095D01*
%TO.C,Q3*%
X84441761Y-107014619D02*
X84346523Y-106967000D01*
X84251285Y-106871761D01*
X84108428Y-106728904D01*
X84013190Y-106681285D01*
X83917952Y-106681285D01*
X83965571Y-106919380D02*
X83870333Y-106871761D01*
X83775095Y-106776523D01*
X83727476Y-106586047D01*
X83727476Y-106252714D01*
X83775095Y-106062238D01*
X83870333Y-105967000D01*
X83965571Y-105919380D01*
X84156047Y-105919380D01*
X84251285Y-105967000D01*
X84346523Y-106062238D01*
X84394142Y-106252714D01*
X84394142Y-106586047D01*
X84346523Y-106776523D01*
X84251285Y-106871761D01*
X84156047Y-106919380D01*
X83965571Y-106919380D01*
X84727476Y-105919380D02*
X85346523Y-105919380D01*
X85013190Y-106300333D01*
X85156047Y-106300333D01*
X85251285Y-106347952D01*
X85298904Y-106395571D01*
X85346523Y-106490809D01*
X85346523Y-106728904D01*
X85298904Y-106824142D01*
X85251285Y-106871761D01*
X85156047Y-106919380D01*
X84870333Y-106919380D01*
X84775095Y-106871761D01*
X84727476Y-106824142D01*
%TO.C,Q4*%
X82536761Y-99394619D02*
X82441523Y-99347000D01*
X82346285Y-99251761D01*
X82203428Y-99108904D01*
X82108190Y-99061285D01*
X82012952Y-99061285D01*
X82060571Y-99299380D02*
X81965333Y-99251761D01*
X81870095Y-99156523D01*
X81822476Y-98966047D01*
X81822476Y-98632714D01*
X81870095Y-98442238D01*
X81965333Y-98347000D01*
X82060571Y-98299380D01*
X82251047Y-98299380D01*
X82346285Y-98347000D01*
X82441523Y-98442238D01*
X82489142Y-98632714D01*
X82489142Y-98966047D01*
X82441523Y-99156523D01*
X82346285Y-99251761D01*
X82251047Y-99299380D01*
X82060571Y-99299380D01*
X83346285Y-98632714D02*
X83346285Y-99299380D01*
X83108190Y-98251761D02*
X82870095Y-98966047D01*
X83489142Y-98966047D01*
%TO.C,R6*%
X99610333Y-94727380D02*
X99277000Y-94251190D01*
X99038904Y-94727380D02*
X99038904Y-93727380D01*
X99419857Y-93727380D01*
X99515095Y-93775000D01*
X99562714Y-93822619D01*
X99610333Y-93917857D01*
X99610333Y-94060714D01*
X99562714Y-94155952D01*
X99515095Y-94203571D01*
X99419857Y-94251190D01*
X99038904Y-94251190D01*
X100467476Y-93727380D02*
X100277000Y-93727380D01*
X100181761Y-93775000D01*
X100134142Y-93822619D01*
X100038904Y-93965476D01*
X99991285Y-94155952D01*
X99991285Y-94536904D01*
X100038904Y-94632142D01*
X100086523Y-94679761D01*
X100181761Y-94727380D01*
X100372238Y-94727380D01*
X100467476Y-94679761D01*
X100515095Y-94632142D01*
X100562714Y-94536904D01*
X100562714Y-94298809D01*
X100515095Y-94203571D01*
X100467476Y-94155952D01*
X100372238Y-94108333D01*
X100181761Y-94108333D01*
X100086523Y-94155952D01*
X100038904Y-94203571D01*
X99991285Y-94298809D01*
%TO.C,R18*%
X120152642Y-94727380D02*
X119819309Y-94251190D01*
X119581214Y-94727380D02*
X119581214Y-93727380D01*
X119962166Y-93727380D01*
X120057404Y-93775000D01*
X120105023Y-93822619D01*
X120152642Y-93917857D01*
X120152642Y-94060714D01*
X120105023Y-94155952D01*
X120057404Y-94203571D01*
X119962166Y-94251190D01*
X119581214Y-94251190D01*
X121105023Y-94727380D02*
X120533595Y-94727380D01*
X120819309Y-94727380D02*
X120819309Y-93727380D01*
X120724071Y-93870238D01*
X120628833Y-93965476D01*
X120533595Y-94013095D01*
X121676452Y-94155952D02*
X121581214Y-94108333D01*
X121533595Y-94060714D01*
X121485976Y-93965476D01*
X121485976Y-93917857D01*
X121533595Y-93822619D01*
X121581214Y-93775000D01*
X121676452Y-93727380D01*
X121866928Y-93727380D01*
X121962166Y-93775000D01*
X122009785Y-93822619D01*
X122057404Y-93917857D01*
X122057404Y-93965476D01*
X122009785Y-94060714D01*
X121962166Y-94108333D01*
X121866928Y-94155952D01*
X121676452Y-94155952D01*
X121581214Y-94203571D01*
X121533595Y-94251190D01*
X121485976Y-94346428D01*
X121485976Y-94536904D01*
X121533595Y-94632142D01*
X121581214Y-94679761D01*
X121676452Y-94727380D01*
X121866928Y-94727380D01*
X121962166Y-94679761D01*
X122009785Y-94632142D01*
X122057404Y-94536904D01*
X122057404Y-94346428D01*
X122009785Y-94251190D01*
X121962166Y-94203571D01*
X121866928Y-94155952D01*
%TO.C,R9*%
X95276380Y-93806666D02*
X94800190Y-94140000D01*
X95276380Y-94378095D02*
X94276380Y-94378095D01*
X94276380Y-93997142D01*
X94324000Y-93901904D01*
X94371619Y-93854285D01*
X94466857Y-93806666D01*
X94609714Y-93806666D01*
X94704952Y-93854285D01*
X94752571Y-93901904D01*
X94800190Y-93997142D01*
X94800190Y-94378095D01*
X95276380Y-93330476D02*
X95276380Y-93140000D01*
X95228761Y-93044761D01*
X95181142Y-92997142D01*
X95038285Y-92901904D01*
X94847809Y-92854285D01*
X94466857Y-92854285D01*
X94371619Y-92901904D01*
X94324000Y-92949523D01*
X94276380Y-93044761D01*
X94276380Y-93235238D01*
X94324000Y-93330476D01*
X94371619Y-93378095D01*
X94466857Y-93425714D01*
X94704952Y-93425714D01*
X94800190Y-93378095D01*
X94847809Y-93330476D01*
X94895428Y-93235238D01*
X94895428Y-93044761D01*
X94847809Y-92949523D01*
X94800190Y-92901904D01*
X94704952Y-92854285D01*
%TO.C,R10*%
X93879380Y-94282857D02*
X93403190Y-94616190D01*
X93879380Y-94854285D02*
X92879380Y-94854285D01*
X92879380Y-94473333D01*
X92927000Y-94378095D01*
X92974619Y-94330476D01*
X93069857Y-94282857D01*
X93212714Y-94282857D01*
X93307952Y-94330476D01*
X93355571Y-94378095D01*
X93403190Y-94473333D01*
X93403190Y-94854285D01*
X93879380Y-93330476D02*
X93879380Y-93901904D01*
X93879380Y-93616190D02*
X92879380Y-93616190D01*
X93022238Y-93711428D01*
X93117476Y-93806666D01*
X93165095Y-93901904D01*
X92879380Y-92711428D02*
X92879380Y-92616190D01*
X92927000Y-92520952D01*
X92974619Y-92473333D01*
X93069857Y-92425714D01*
X93260333Y-92378095D01*
X93498428Y-92378095D01*
X93688904Y-92425714D01*
X93784142Y-92473333D01*
X93831761Y-92520952D01*
X93879380Y-92616190D01*
X93879380Y-92711428D01*
X93831761Y-92806666D01*
X93784142Y-92854285D01*
X93688904Y-92901904D01*
X93498428Y-92949523D01*
X93260333Y-92949523D01*
X93069857Y-92901904D01*
X92974619Y-92854285D01*
X92927000Y-92806666D01*
X92879380Y-92711428D01*
%TO.C,R19*%
X128725142Y-93965380D02*
X128391809Y-93489190D01*
X128153714Y-93965380D02*
X128153714Y-92965380D01*
X128534666Y-92965380D01*
X128629904Y-93013000D01*
X128677523Y-93060619D01*
X128725142Y-93155857D01*
X128725142Y-93298714D01*
X128677523Y-93393952D01*
X128629904Y-93441571D01*
X128534666Y-93489190D01*
X128153714Y-93489190D01*
X129677523Y-93965380D02*
X129106095Y-93965380D01*
X129391809Y-93965380D02*
X129391809Y-92965380D01*
X129296571Y-93108238D01*
X129201333Y-93203476D01*
X129106095Y-93251095D01*
X130153714Y-93965380D02*
X130344190Y-93965380D01*
X130439428Y-93917761D01*
X130487047Y-93870142D01*
X130582285Y-93727285D01*
X130629904Y-93536809D01*
X130629904Y-93155857D01*
X130582285Y-93060619D01*
X130534666Y-93013000D01*
X130439428Y-92965380D01*
X130248952Y-92965380D01*
X130153714Y-93013000D01*
X130106095Y-93060619D01*
X130058476Y-93155857D01*
X130058476Y-93393952D01*
X130106095Y-93489190D01*
X130153714Y-93536809D01*
X130248952Y-93584428D01*
X130439428Y-93584428D01*
X130534666Y-93536809D01*
X130582285Y-93489190D01*
X130629904Y-93393952D01*
%TO.C,R20*%
X126185142Y-92822380D02*
X125851809Y-92346190D01*
X125613714Y-92822380D02*
X125613714Y-91822380D01*
X125994666Y-91822380D01*
X126089904Y-91870000D01*
X126137523Y-91917619D01*
X126185142Y-92012857D01*
X126185142Y-92155714D01*
X126137523Y-92250952D01*
X126089904Y-92298571D01*
X125994666Y-92346190D01*
X125613714Y-92346190D01*
X126566095Y-91917619D02*
X126613714Y-91870000D01*
X126708952Y-91822380D01*
X126947047Y-91822380D01*
X127042285Y-91870000D01*
X127089904Y-91917619D01*
X127137523Y-92012857D01*
X127137523Y-92108095D01*
X127089904Y-92250952D01*
X126518476Y-92822380D01*
X127137523Y-92822380D01*
X127756571Y-91822380D02*
X127851809Y-91822380D01*
X127947047Y-91870000D01*
X127994666Y-91917619D01*
X128042285Y-92012857D01*
X128089904Y-92203333D01*
X128089904Y-92441428D01*
X128042285Y-92631904D01*
X127994666Y-92727142D01*
X127947047Y-92774761D01*
X127851809Y-92822380D01*
X127756571Y-92822380D01*
X127661333Y-92774761D01*
X127613714Y-92727142D01*
X127566095Y-92631904D01*
X127518476Y-92441428D01*
X127518476Y-92203333D01*
X127566095Y-92012857D01*
X127613714Y-91917619D01*
X127661333Y-91870000D01*
X127756571Y-91822380D01*
%TO.C,R7*%
X82449380Y-108474666D02*
X81973190Y-108808000D01*
X82449380Y-109046095D02*
X81449380Y-109046095D01*
X81449380Y-108665142D01*
X81497000Y-108569904D01*
X81544619Y-108522285D01*
X81639857Y-108474666D01*
X81782714Y-108474666D01*
X81877952Y-108522285D01*
X81925571Y-108569904D01*
X81973190Y-108665142D01*
X81973190Y-109046095D01*
X81449380Y-108141333D02*
X81449380Y-107474666D01*
X82449380Y-107903238D01*
%TO.C,R8*%
X82449380Y-100665166D02*
X81973190Y-100998500D01*
X82449380Y-101236595D02*
X81449380Y-101236595D01*
X81449380Y-100855642D01*
X81497000Y-100760404D01*
X81544619Y-100712785D01*
X81639857Y-100665166D01*
X81782714Y-100665166D01*
X81877952Y-100712785D01*
X81925571Y-100760404D01*
X81973190Y-100855642D01*
X81973190Y-101236595D01*
X81877952Y-100093738D02*
X81830333Y-100188976D01*
X81782714Y-100236595D01*
X81687476Y-100284214D01*
X81639857Y-100284214D01*
X81544619Y-100236595D01*
X81497000Y-100188976D01*
X81449380Y-100093738D01*
X81449380Y-99903261D01*
X81497000Y-99808023D01*
X81544619Y-99760404D01*
X81639857Y-99712785D01*
X81687476Y-99712785D01*
X81782714Y-99760404D01*
X81830333Y-99808023D01*
X81877952Y-99903261D01*
X81877952Y-100093738D01*
X81925571Y-100188976D01*
X81973190Y-100236595D01*
X82068428Y-100284214D01*
X82258904Y-100284214D01*
X82354142Y-100236595D01*
X82401761Y-100188976D01*
X82449380Y-100093738D01*
X82449380Y-99903261D01*
X82401761Y-99808023D01*
X82354142Y-99760404D01*
X82258904Y-99712785D01*
X82068428Y-99712785D01*
X81973190Y-99760404D01*
X81925571Y-99808023D01*
X81877952Y-99903261D01*
%TO.C,R11*%
X88799380Y-104696857D02*
X88323190Y-105030190D01*
X88799380Y-105268285D02*
X87799380Y-105268285D01*
X87799380Y-104887333D01*
X87847000Y-104792095D01*
X87894619Y-104744476D01*
X87989857Y-104696857D01*
X88132714Y-104696857D01*
X88227952Y-104744476D01*
X88275571Y-104792095D01*
X88323190Y-104887333D01*
X88323190Y-105268285D01*
X88799380Y-103744476D02*
X88799380Y-104315904D01*
X88799380Y-104030190D02*
X87799380Y-104030190D01*
X87942238Y-104125428D01*
X88037476Y-104220666D01*
X88085095Y-104315904D01*
X88799380Y-102792095D02*
X88799380Y-103363523D01*
X88799380Y-103077809D02*
X87799380Y-103077809D01*
X87942238Y-103173047D01*
X88037476Y-103268285D01*
X88085095Y-103363523D01*
%TO.C,R12*%
X88672380Y-101013857D02*
X88196190Y-101347190D01*
X88672380Y-101585285D02*
X87672380Y-101585285D01*
X87672380Y-101204333D01*
X87720000Y-101109095D01*
X87767619Y-101061476D01*
X87862857Y-101013857D01*
X88005714Y-101013857D01*
X88100952Y-101061476D01*
X88148571Y-101109095D01*
X88196190Y-101204333D01*
X88196190Y-101585285D01*
X88672380Y-100061476D02*
X88672380Y-100632904D01*
X88672380Y-100347190D02*
X87672380Y-100347190D01*
X87815238Y-100442428D01*
X87910476Y-100537666D01*
X87958095Y-100632904D01*
X87767619Y-99680523D02*
X87720000Y-99632904D01*
X87672380Y-99537666D01*
X87672380Y-99299571D01*
X87720000Y-99204333D01*
X87767619Y-99156714D01*
X87862857Y-99109095D01*
X87958095Y-99109095D01*
X88100952Y-99156714D01*
X88672380Y-99728142D01*
X88672380Y-99109095D01*
%TO.C,TP1*%
X85942095Y-105665380D02*
X86513523Y-105665380D01*
X86227809Y-106665380D02*
X86227809Y-105665380D01*
X86846857Y-106665380D02*
X86846857Y-105665380D01*
X87227809Y-105665380D01*
X87323047Y-105713000D01*
X87370666Y-105760619D01*
X87418285Y-105855857D01*
X87418285Y-105998714D01*
X87370666Y-106093952D01*
X87323047Y-106141571D01*
X87227809Y-106189190D01*
X86846857Y-106189190D01*
X88370666Y-106665380D02*
X87799238Y-106665380D01*
X88084952Y-106665380D02*
X88084952Y-105665380D01*
X87989714Y-105808238D01*
X87894476Y-105903476D01*
X87799238Y-105951095D01*
%TO.C,U2*%
X109810095Y-100585380D02*
X109810095Y-101394904D01*
X109857714Y-101490142D01*
X109905333Y-101537761D01*
X110000571Y-101585380D01*
X110191047Y-101585380D01*
X110286285Y-101537761D01*
X110333904Y-101490142D01*
X110381523Y-101394904D01*
X110381523Y-100585380D01*
X110810095Y-100680619D02*
X110857714Y-100633000D01*
X110952952Y-100585380D01*
X111191047Y-100585380D01*
X111286285Y-100633000D01*
X111333904Y-100680619D01*
X111381523Y-100775857D01*
X111381523Y-100871095D01*
X111333904Y-101013952D01*
X110762476Y-101585380D01*
X111381523Y-101585380D01*
%TO.C,J1*%
X103547380Y-114801333D02*
X104261666Y-114801333D01*
X104404523Y-114848952D01*
X104499761Y-114944190D01*
X104547380Y-115087047D01*
X104547380Y-115182285D01*
X104547380Y-113801333D02*
X104547380Y-114372761D01*
X104547380Y-114087047D02*
X103547380Y-114087047D01*
X103690238Y-114182285D01*
X103785476Y-114277523D01*
X103833095Y-114372761D01*
%TO.C,K2*%
X125835904Y-104252380D02*
X125835904Y-103252380D01*
X126407333Y-104252380D02*
X125978761Y-103680952D01*
X126407333Y-103252380D02*
X125835904Y-103823809D01*
X126788285Y-103347619D02*
X126835904Y-103300000D01*
X126931142Y-103252380D01*
X127169238Y-103252380D01*
X127264476Y-103300000D01*
X127312095Y-103347619D01*
X127359714Y-103442857D01*
X127359714Y-103538095D01*
X127312095Y-103680952D01*
X126740666Y-104252380D01*
X127359714Y-104252380D01*
%TO.C,C8*%
X91101333Y-93235142D02*
X91053714Y-93282761D01*
X90910857Y-93330380D01*
X90815619Y-93330380D01*
X90672761Y-93282761D01*
X90577523Y-93187523D01*
X90529904Y-93092285D01*
X90482285Y-92901809D01*
X90482285Y-92758952D01*
X90529904Y-92568476D01*
X90577523Y-92473238D01*
X90672761Y-92378000D01*
X90815619Y-92330380D01*
X90910857Y-92330380D01*
X91053714Y-92378000D01*
X91101333Y-92425619D01*
X91672761Y-92758952D02*
X91577523Y-92711333D01*
X91529904Y-92663714D01*
X91482285Y-92568476D01*
X91482285Y-92520857D01*
X91529904Y-92425619D01*
X91577523Y-92378000D01*
X91672761Y-92330380D01*
X91863238Y-92330380D01*
X91958476Y-92378000D01*
X92006095Y-92425619D01*
X92053714Y-92520857D01*
X92053714Y-92568476D01*
X92006095Y-92663714D01*
X91958476Y-92711333D01*
X91863238Y-92758952D01*
X91672761Y-92758952D01*
X91577523Y-92806571D01*
X91529904Y-92854190D01*
X91482285Y-92949428D01*
X91482285Y-93139904D01*
X91529904Y-93235142D01*
X91577523Y-93282761D01*
X91672761Y-93330380D01*
X91863238Y-93330380D01*
X91958476Y-93282761D01*
X92006095Y-93235142D01*
X92053714Y-93139904D01*
X92053714Y-92949428D01*
X92006095Y-92854190D01*
X91958476Y-92806571D01*
X91863238Y-92758952D01*
%TO.C,C10*%
X90104142Y-105173142D02*
X90056523Y-105220761D01*
X89913666Y-105268380D01*
X89818428Y-105268380D01*
X89675571Y-105220761D01*
X89580333Y-105125523D01*
X89532714Y-105030285D01*
X89485095Y-104839809D01*
X89485095Y-104696952D01*
X89532714Y-104506476D01*
X89580333Y-104411238D01*
X89675571Y-104316000D01*
X89818428Y-104268380D01*
X89913666Y-104268380D01*
X90056523Y-104316000D01*
X90104142Y-104363619D01*
X91056523Y-105268380D02*
X90485095Y-105268380D01*
X90770809Y-105268380D02*
X90770809Y-104268380D01*
X90675571Y-104411238D01*
X90580333Y-104506476D01*
X90485095Y-104554095D01*
X91675571Y-104268380D02*
X91770809Y-104268380D01*
X91866047Y-104316000D01*
X91913666Y-104363619D01*
X91961285Y-104458857D01*
X92008904Y-104649333D01*
X92008904Y-104887428D01*
X91961285Y-105077904D01*
X91913666Y-105173142D01*
X91866047Y-105220761D01*
X91770809Y-105268380D01*
X91675571Y-105268380D01*
X91580333Y-105220761D01*
X91532714Y-105173142D01*
X91485095Y-105077904D01*
X91437476Y-104887428D01*
X91437476Y-104649333D01*
X91485095Y-104458857D01*
X91532714Y-104363619D01*
X91580333Y-104316000D01*
X91675571Y-104268380D01*
%TO.C,Q2*%
X105650761Y-95965619D02*
X105555523Y-95918000D01*
X105460285Y-95822761D01*
X105317428Y-95679904D01*
X105222190Y-95632285D01*
X105126952Y-95632285D01*
X105174571Y-95870380D02*
X105079333Y-95822761D01*
X104984095Y-95727523D01*
X104936476Y-95537047D01*
X104936476Y-95203714D01*
X104984095Y-95013238D01*
X105079333Y-94918000D01*
X105174571Y-94870380D01*
X105365047Y-94870380D01*
X105460285Y-94918000D01*
X105555523Y-95013238D01*
X105603142Y-95203714D01*
X105603142Y-95537047D01*
X105555523Y-95727523D01*
X105460285Y-95822761D01*
X105365047Y-95870380D01*
X105174571Y-95870380D01*
X105984095Y-94965619D02*
X106031714Y-94918000D01*
X106126952Y-94870380D01*
X106365047Y-94870380D01*
X106460285Y-94918000D01*
X106507904Y-94965619D01*
X106555523Y-95060857D01*
X106555523Y-95156095D01*
X106507904Y-95298952D01*
X105936476Y-95870380D01*
X106555523Y-95870380D01*
%TO.C,R16*%
X110691142Y-92949380D02*
X110357809Y-92473190D01*
X110119714Y-92949380D02*
X110119714Y-91949380D01*
X110500666Y-91949380D01*
X110595904Y-91997000D01*
X110643523Y-92044619D01*
X110691142Y-92139857D01*
X110691142Y-92282714D01*
X110643523Y-92377952D01*
X110595904Y-92425571D01*
X110500666Y-92473190D01*
X110119714Y-92473190D01*
X111643523Y-92949380D02*
X111072095Y-92949380D01*
X111357809Y-92949380D02*
X111357809Y-91949380D01*
X111262571Y-92092238D01*
X111167333Y-92187476D01*
X111072095Y-92235095D01*
X112500666Y-91949380D02*
X112310190Y-91949380D01*
X112214952Y-91997000D01*
X112167333Y-92044619D01*
X112072095Y-92187476D01*
X112024476Y-92377952D01*
X112024476Y-92758904D01*
X112072095Y-92854142D01*
X112119714Y-92901761D01*
X112214952Y-92949380D01*
X112405428Y-92949380D01*
X112500666Y-92901761D01*
X112548285Y-92854142D01*
X112595904Y-92758904D01*
X112595904Y-92520809D01*
X112548285Y-92425571D01*
X112500666Y-92377952D01*
X112405428Y-92330333D01*
X112214952Y-92330333D01*
X112119714Y-92377952D01*
X112072095Y-92425571D01*
X112024476Y-92520809D01*
%TO.C,U1*%
X88561380Y-94909904D02*
X89370904Y-94909904D01*
X89466142Y-94862285D01*
X89513761Y-94814666D01*
X89561380Y-94719428D01*
X89561380Y-94528952D01*
X89513761Y-94433714D01*
X89466142Y-94386095D01*
X89370904Y-94338476D01*
X88561380Y-94338476D01*
X89561380Y-93338476D02*
X89561380Y-93909904D01*
X89561380Y-93624190D02*
X88561380Y-93624190D01*
X88704238Y-93719428D01*
X88799476Y-93814666D01*
X88847095Y-93909904D01*
%TO.C,J2*%
X86378380Y-95190833D02*
X87092666Y-95190833D01*
X87235523Y-95238452D01*
X87330761Y-95333690D01*
X87378380Y-95476547D01*
X87378380Y-95571785D01*
X86473619Y-94762261D02*
X86426000Y-94714642D01*
X86378380Y-94619404D01*
X86378380Y-94381309D01*
X86426000Y-94286071D01*
X86473619Y-94238452D01*
X86568857Y-94190833D01*
X86664095Y-94190833D01*
X86806952Y-94238452D01*
X87378380Y-94809880D01*
X87378380Y-94190833D01*
%TO.C,Q6*%
X113651761Y-96219619D02*
X113556523Y-96172000D01*
X113461285Y-96076761D01*
X113318428Y-95933904D01*
X113223190Y-95886285D01*
X113127952Y-95886285D01*
X113175571Y-96124380D02*
X113080333Y-96076761D01*
X112985095Y-95981523D01*
X112937476Y-95791047D01*
X112937476Y-95457714D01*
X112985095Y-95267238D01*
X113080333Y-95172000D01*
X113175571Y-95124380D01*
X113366047Y-95124380D01*
X113461285Y-95172000D01*
X113556523Y-95267238D01*
X113604142Y-95457714D01*
X113604142Y-95791047D01*
X113556523Y-95981523D01*
X113461285Y-96076761D01*
X113366047Y-96124380D01*
X113175571Y-96124380D01*
X114461285Y-95124380D02*
X114270809Y-95124380D01*
X114175571Y-95172000D01*
X114127952Y-95219619D01*
X114032714Y-95362476D01*
X113985095Y-95552952D01*
X113985095Y-95933904D01*
X114032714Y-96029142D01*
X114080333Y-96076761D01*
X114175571Y-96124380D01*
X114366047Y-96124380D01*
X114461285Y-96076761D01*
X114508904Y-96029142D01*
X114556523Y-95933904D01*
X114556523Y-95695809D01*
X114508904Y-95600571D01*
X114461285Y-95552952D01*
X114366047Y-95505333D01*
X114175571Y-95505333D01*
X114080333Y-95552952D01*
X114032714Y-95600571D01*
X113985095Y-95695809D01*
%TO.C,R2*%
X108627333Y-94473380D02*
X108294000Y-93997190D01*
X108055904Y-94473380D02*
X108055904Y-93473380D01*
X108436857Y-93473380D01*
X108532095Y-93521000D01*
X108579714Y-93568619D01*
X108627333Y-93663857D01*
X108627333Y-93806714D01*
X108579714Y-93901952D01*
X108532095Y-93949571D01*
X108436857Y-93997190D01*
X108055904Y-93997190D01*
X109008285Y-93568619D02*
X109055904Y-93521000D01*
X109151142Y-93473380D01*
X109389238Y-93473380D01*
X109484476Y-93521000D01*
X109532095Y-93568619D01*
X109579714Y-93663857D01*
X109579714Y-93759095D01*
X109532095Y-93901952D01*
X108960666Y-94473380D01*
X109579714Y-94473380D01*
%TO.C,R4*%
X108627333Y-92949380D02*
X108294000Y-92473190D01*
X108055904Y-92949380D02*
X108055904Y-91949380D01*
X108436857Y-91949380D01*
X108532095Y-91997000D01*
X108579714Y-92044619D01*
X108627333Y-92139857D01*
X108627333Y-92282714D01*
X108579714Y-92377952D01*
X108532095Y-92425571D01*
X108436857Y-92473190D01*
X108055904Y-92473190D01*
X109484476Y-92282714D02*
X109484476Y-92949380D01*
X109246380Y-91901761D02*
X109008285Y-92616047D01*
X109627333Y-92616047D01*
%TO.C,R14*%
X110691142Y-94790880D02*
X110357809Y-94314690D01*
X110119714Y-94790880D02*
X110119714Y-93790880D01*
X110500666Y-93790880D01*
X110595904Y-93838500D01*
X110643523Y-93886119D01*
X110691142Y-93981357D01*
X110691142Y-94124214D01*
X110643523Y-94219452D01*
X110595904Y-94267071D01*
X110500666Y-94314690D01*
X110119714Y-94314690D01*
X111643523Y-94790880D02*
X111072095Y-94790880D01*
X111357809Y-94790880D02*
X111357809Y-93790880D01*
X111262571Y-93933738D01*
X111167333Y-94028976D01*
X111072095Y-94076595D01*
X112500666Y-94124214D02*
X112500666Y-94790880D01*
X112262571Y-93743261D02*
X112024476Y-94457547D01*
X112643523Y-94457547D01*
%TO.C,J2*%
X86378380Y-70190833D02*
X87092666Y-70190833D01*
X87235523Y-70238452D01*
X87330761Y-70333690D01*
X87378380Y-70476547D01*
X87378380Y-70571785D01*
X86473619Y-69762261D02*
X86426000Y-69714642D01*
X86378380Y-69619404D01*
X86378380Y-69381309D01*
X86426000Y-69286071D01*
X86473619Y-69238452D01*
X86568857Y-69190833D01*
X86664095Y-69190833D01*
X86806952Y-69238452D01*
X87378380Y-69809880D01*
X87378380Y-69190833D01*
%TO.C,U1*%
X88561380Y-69909904D02*
X89370904Y-69909904D01*
X89466142Y-69862285D01*
X89513761Y-69814666D01*
X89561380Y-69719428D01*
X89561380Y-69528952D01*
X89513761Y-69433714D01*
X89466142Y-69386095D01*
X89370904Y-69338476D01*
X88561380Y-69338476D01*
X89561380Y-68338476D02*
X89561380Y-68909904D01*
X89561380Y-68624190D02*
X88561380Y-68624190D01*
X88704238Y-68719428D01*
X88799476Y-68814666D01*
X88847095Y-68909904D01*
%TO.C,R16*%
X110691142Y-67949380D02*
X110357809Y-67473190D01*
X110119714Y-67949380D02*
X110119714Y-66949380D01*
X110500666Y-66949380D01*
X110595904Y-66997000D01*
X110643523Y-67044619D01*
X110691142Y-67139857D01*
X110691142Y-67282714D01*
X110643523Y-67377952D01*
X110595904Y-67425571D01*
X110500666Y-67473190D01*
X110119714Y-67473190D01*
X111643523Y-67949380D02*
X111072095Y-67949380D01*
X111357809Y-67949380D02*
X111357809Y-66949380D01*
X111262571Y-67092238D01*
X111167333Y-67187476D01*
X111072095Y-67235095D01*
X112500666Y-66949380D02*
X112310190Y-66949380D01*
X112214952Y-66997000D01*
X112167333Y-67044619D01*
X112072095Y-67187476D01*
X112024476Y-67377952D01*
X112024476Y-67758904D01*
X112072095Y-67854142D01*
X112119714Y-67901761D01*
X112214952Y-67949380D01*
X112405428Y-67949380D01*
X112500666Y-67901761D01*
X112548285Y-67854142D01*
X112595904Y-67758904D01*
X112595904Y-67520809D01*
X112548285Y-67425571D01*
X112500666Y-67377952D01*
X112405428Y-67330333D01*
X112214952Y-67330333D01*
X112119714Y-67377952D01*
X112072095Y-67425571D01*
X112024476Y-67520809D01*
%TO.C,R14*%
X110691142Y-69790880D02*
X110357809Y-69314690D01*
X110119714Y-69790880D02*
X110119714Y-68790880D01*
X110500666Y-68790880D01*
X110595904Y-68838500D01*
X110643523Y-68886119D01*
X110691142Y-68981357D01*
X110691142Y-69124214D01*
X110643523Y-69219452D01*
X110595904Y-69267071D01*
X110500666Y-69314690D01*
X110119714Y-69314690D01*
X111643523Y-69790880D02*
X111072095Y-69790880D01*
X111357809Y-69790880D02*
X111357809Y-68790880D01*
X111262571Y-68933738D01*
X111167333Y-69028976D01*
X111072095Y-69076595D01*
X112500666Y-69124214D02*
X112500666Y-69790880D01*
X112262571Y-68743261D02*
X112024476Y-69457547D01*
X112643523Y-69457547D01*
%TO.C,R4*%
X108627333Y-67949380D02*
X108294000Y-67473190D01*
X108055904Y-67949380D02*
X108055904Y-66949380D01*
X108436857Y-66949380D01*
X108532095Y-66997000D01*
X108579714Y-67044619D01*
X108627333Y-67139857D01*
X108627333Y-67282714D01*
X108579714Y-67377952D01*
X108532095Y-67425571D01*
X108436857Y-67473190D01*
X108055904Y-67473190D01*
X109484476Y-67282714D02*
X109484476Y-67949380D01*
X109246380Y-66901761D02*
X109008285Y-67616047D01*
X109627333Y-67616047D01*
%TO.C,R2*%
X108627333Y-69473380D02*
X108294000Y-68997190D01*
X108055904Y-69473380D02*
X108055904Y-68473380D01*
X108436857Y-68473380D01*
X108532095Y-68521000D01*
X108579714Y-68568619D01*
X108627333Y-68663857D01*
X108627333Y-68806714D01*
X108579714Y-68901952D01*
X108532095Y-68949571D01*
X108436857Y-68997190D01*
X108055904Y-68997190D01*
X109008285Y-68568619D02*
X109055904Y-68521000D01*
X109151142Y-68473380D01*
X109389238Y-68473380D01*
X109484476Y-68521000D01*
X109532095Y-68568619D01*
X109579714Y-68663857D01*
X109579714Y-68759095D01*
X109532095Y-68901952D01*
X108960666Y-69473380D01*
X109579714Y-69473380D01*
%TO.C,Q6*%
X113651761Y-71219619D02*
X113556523Y-71172000D01*
X113461285Y-71076761D01*
X113318428Y-70933904D01*
X113223190Y-70886285D01*
X113127952Y-70886285D01*
X113175571Y-71124380D02*
X113080333Y-71076761D01*
X112985095Y-70981523D01*
X112937476Y-70791047D01*
X112937476Y-70457714D01*
X112985095Y-70267238D01*
X113080333Y-70172000D01*
X113175571Y-70124380D01*
X113366047Y-70124380D01*
X113461285Y-70172000D01*
X113556523Y-70267238D01*
X113604142Y-70457714D01*
X113604142Y-70791047D01*
X113556523Y-70981523D01*
X113461285Y-71076761D01*
X113366047Y-71124380D01*
X113175571Y-71124380D01*
X114461285Y-70124380D02*
X114270809Y-70124380D01*
X114175571Y-70172000D01*
X114127952Y-70219619D01*
X114032714Y-70362476D01*
X113985095Y-70552952D01*
X113985095Y-70933904D01*
X114032714Y-71029142D01*
X114080333Y-71076761D01*
X114175571Y-71124380D01*
X114366047Y-71124380D01*
X114461285Y-71076761D01*
X114508904Y-71029142D01*
X114556523Y-70933904D01*
X114556523Y-70695809D01*
X114508904Y-70600571D01*
X114461285Y-70552952D01*
X114366047Y-70505333D01*
X114175571Y-70505333D01*
X114080333Y-70552952D01*
X114032714Y-70600571D01*
X113985095Y-70695809D01*
%TO.C,Q2*%
X105650761Y-70965619D02*
X105555523Y-70918000D01*
X105460285Y-70822761D01*
X105317428Y-70679904D01*
X105222190Y-70632285D01*
X105126952Y-70632285D01*
X105174571Y-70870380D02*
X105079333Y-70822761D01*
X104984095Y-70727523D01*
X104936476Y-70537047D01*
X104936476Y-70203714D01*
X104984095Y-70013238D01*
X105079333Y-69918000D01*
X105174571Y-69870380D01*
X105365047Y-69870380D01*
X105460285Y-69918000D01*
X105555523Y-70013238D01*
X105603142Y-70203714D01*
X105603142Y-70537047D01*
X105555523Y-70727523D01*
X105460285Y-70822761D01*
X105365047Y-70870380D01*
X105174571Y-70870380D01*
X105984095Y-69965619D02*
X106031714Y-69918000D01*
X106126952Y-69870380D01*
X106365047Y-69870380D01*
X106460285Y-69918000D01*
X106507904Y-69965619D01*
X106555523Y-70060857D01*
X106555523Y-70156095D01*
X106507904Y-70298952D01*
X105936476Y-70870380D01*
X106555523Y-70870380D01*
%TO.C,C10*%
X90104142Y-80173142D02*
X90056523Y-80220761D01*
X89913666Y-80268380D01*
X89818428Y-80268380D01*
X89675571Y-80220761D01*
X89580333Y-80125523D01*
X89532714Y-80030285D01*
X89485095Y-79839809D01*
X89485095Y-79696952D01*
X89532714Y-79506476D01*
X89580333Y-79411238D01*
X89675571Y-79316000D01*
X89818428Y-79268380D01*
X89913666Y-79268380D01*
X90056523Y-79316000D01*
X90104142Y-79363619D01*
X91056523Y-80268380D02*
X90485095Y-80268380D01*
X90770809Y-80268380D02*
X90770809Y-79268380D01*
X90675571Y-79411238D01*
X90580333Y-79506476D01*
X90485095Y-79554095D01*
X91675571Y-79268380D02*
X91770809Y-79268380D01*
X91866047Y-79316000D01*
X91913666Y-79363619D01*
X91961285Y-79458857D01*
X92008904Y-79649333D01*
X92008904Y-79887428D01*
X91961285Y-80077904D01*
X91913666Y-80173142D01*
X91866047Y-80220761D01*
X91770809Y-80268380D01*
X91675571Y-80268380D01*
X91580333Y-80220761D01*
X91532714Y-80173142D01*
X91485095Y-80077904D01*
X91437476Y-79887428D01*
X91437476Y-79649333D01*
X91485095Y-79458857D01*
X91532714Y-79363619D01*
X91580333Y-79316000D01*
X91675571Y-79268380D01*
%TO.C,C8*%
X91101333Y-68235142D02*
X91053714Y-68282761D01*
X90910857Y-68330380D01*
X90815619Y-68330380D01*
X90672761Y-68282761D01*
X90577523Y-68187523D01*
X90529904Y-68092285D01*
X90482285Y-67901809D01*
X90482285Y-67758952D01*
X90529904Y-67568476D01*
X90577523Y-67473238D01*
X90672761Y-67378000D01*
X90815619Y-67330380D01*
X90910857Y-67330380D01*
X91053714Y-67378000D01*
X91101333Y-67425619D01*
X91672761Y-67758952D02*
X91577523Y-67711333D01*
X91529904Y-67663714D01*
X91482285Y-67568476D01*
X91482285Y-67520857D01*
X91529904Y-67425619D01*
X91577523Y-67378000D01*
X91672761Y-67330380D01*
X91863238Y-67330380D01*
X91958476Y-67378000D01*
X92006095Y-67425619D01*
X92053714Y-67520857D01*
X92053714Y-67568476D01*
X92006095Y-67663714D01*
X91958476Y-67711333D01*
X91863238Y-67758952D01*
X91672761Y-67758952D01*
X91577523Y-67806571D01*
X91529904Y-67854190D01*
X91482285Y-67949428D01*
X91482285Y-68139904D01*
X91529904Y-68235142D01*
X91577523Y-68282761D01*
X91672761Y-68330380D01*
X91863238Y-68330380D01*
X91958476Y-68282761D01*
X92006095Y-68235142D01*
X92053714Y-68139904D01*
X92053714Y-67949428D01*
X92006095Y-67854190D01*
X91958476Y-67806571D01*
X91863238Y-67758952D01*
%TO.C,K2*%
X125835904Y-79252380D02*
X125835904Y-78252380D01*
X126407333Y-79252380D02*
X125978761Y-78680952D01*
X126407333Y-78252380D02*
X125835904Y-78823809D01*
X126788285Y-78347619D02*
X126835904Y-78300000D01*
X126931142Y-78252380D01*
X127169238Y-78252380D01*
X127264476Y-78300000D01*
X127312095Y-78347619D01*
X127359714Y-78442857D01*
X127359714Y-78538095D01*
X127312095Y-78680952D01*
X126740666Y-79252380D01*
X127359714Y-79252380D01*
%TO.C,J1*%
X103547380Y-89801333D02*
X104261666Y-89801333D01*
X104404523Y-89848952D01*
X104499761Y-89944190D01*
X104547380Y-90087047D01*
X104547380Y-90182285D01*
X104547380Y-88801333D02*
X104547380Y-89372761D01*
X104547380Y-89087047D02*
X103547380Y-89087047D01*
X103690238Y-89182285D01*
X103785476Y-89277523D01*
X103833095Y-89372761D01*
%TO.C,U2*%
X109810095Y-75585380D02*
X109810095Y-76394904D01*
X109857714Y-76490142D01*
X109905333Y-76537761D01*
X110000571Y-76585380D01*
X110191047Y-76585380D01*
X110286285Y-76537761D01*
X110333904Y-76490142D01*
X110381523Y-76394904D01*
X110381523Y-75585380D01*
X110810095Y-75680619D02*
X110857714Y-75633000D01*
X110952952Y-75585380D01*
X111191047Y-75585380D01*
X111286285Y-75633000D01*
X111333904Y-75680619D01*
X111381523Y-75775857D01*
X111381523Y-75871095D01*
X111333904Y-76013952D01*
X110762476Y-76585380D01*
X111381523Y-76585380D01*
%TO.C,TP1*%
X85942095Y-80665380D02*
X86513523Y-80665380D01*
X86227809Y-81665380D02*
X86227809Y-80665380D01*
X86846857Y-81665380D02*
X86846857Y-80665380D01*
X87227809Y-80665380D01*
X87323047Y-80713000D01*
X87370666Y-80760619D01*
X87418285Y-80855857D01*
X87418285Y-80998714D01*
X87370666Y-81093952D01*
X87323047Y-81141571D01*
X87227809Y-81189190D01*
X86846857Y-81189190D01*
X88370666Y-81665380D02*
X87799238Y-81665380D01*
X88084952Y-81665380D02*
X88084952Y-80665380D01*
X87989714Y-80808238D01*
X87894476Y-80903476D01*
X87799238Y-80951095D01*
%TO.C,R12*%
X88672380Y-76013857D02*
X88196190Y-76347190D01*
X88672380Y-76585285D02*
X87672380Y-76585285D01*
X87672380Y-76204333D01*
X87720000Y-76109095D01*
X87767619Y-76061476D01*
X87862857Y-76013857D01*
X88005714Y-76013857D01*
X88100952Y-76061476D01*
X88148571Y-76109095D01*
X88196190Y-76204333D01*
X88196190Y-76585285D01*
X88672380Y-75061476D02*
X88672380Y-75632904D01*
X88672380Y-75347190D02*
X87672380Y-75347190D01*
X87815238Y-75442428D01*
X87910476Y-75537666D01*
X87958095Y-75632904D01*
X87767619Y-74680523D02*
X87720000Y-74632904D01*
X87672380Y-74537666D01*
X87672380Y-74299571D01*
X87720000Y-74204333D01*
X87767619Y-74156714D01*
X87862857Y-74109095D01*
X87958095Y-74109095D01*
X88100952Y-74156714D01*
X88672380Y-74728142D01*
X88672380Y-74109095D01*
%TO.C,R11*%
X88799380Y-79696857D02*
X88323190Y-80030190D01*
X88799380Y-80268285D02*
X87799380Y-80268285D01*
X87799380Y-79887333D01*
X87847000Y-79792095D01*
X87894619Y-79744476D01*
X87989857Y-79696857D01*
X88132714Y-79696857D01*
X88227952Y-79744476D01*
X88275571Y-79792095D01*
X88323190Y-79887333D01*
X88323190Y-80268285D01*
X88799380Y-78744476D02*
X88799380Y-79315904D01*
X88799380Y-79030190D02*
X87799380Y-79030190D01*
X87942238Y-79125428D01*
X88037476Y-79220666D01*
X88085095Y-79315904D01*
X88799380Y-77792095D02*
X88799380Y-78363523D01*
X88799380Y-78077809D02*
X87799380Y-78077809D01*
X87942238Y-78173047D01*
X88037476Y-78268285D01*
X88085095Y-78363523D01*
%TO.C,R8*%
X82449380Y-75665166D02*
X81973190Y-75998500D01*
X82449380Y-76236595D02*
X81449380Y-76236595D01*
X81449380Y-75855642D01*
X81497000Y-75760404D01*
X81544619Y-75712785D01*
X81639857Y-75665166D01*
X81782714Y-75665166D01*
X81877952Y-75712785D01*
X81925571Y-75760404D01*
X81973190Y-75855642D01*
X81973190Y-76236595D01*
X81877952Y-75093738D02*
X81830333Y-75188976D01*
X81782714Y-75236595D01*
X81687476Y-75284214D01*
X81639857Y-75284214D01*
X81544619Y-75236595D01*
X81497000Y-75188976D01*
X81449380Y-75093738D01*
X81449380Y-74903261D01*
X81497000Y-74808023D01*
X81544619Y-74760404D01*
X81639857Y-74712785D01*
X81687476Y-74712785D01*
X81782714Y-74760404D01*
X81830333Y-74808023D01*
X81877952Y-74903261D01*
X81877952Y-75093738D01*
X81925571Y-75188976D01*
X81973190Y-75236595D01*
X82068428Y-75284214D01*
X82258904Y-75284214D01*
X82354142Y-75236595D01*
X82401761Y-75188976D01*
X82449380Y-75093738D01*
X82449380Y-74903261D01*
X82401761Y-74808023D01*
X82354142Y-74760404D01*
X82258904Y-74712785D01*
X82068428Y-74712785D01*
X81973190Y-74760404D01*
X81925571Y-74808023D01*
X81877952Y-74903261D01*
%TO.C,R7*%
X82449380Y-83474666D02*
X81973190Y-83808000D01*
X82449380Y-84046095D02*
X81449380Y-84046095D01*
X81449380Y-83665142D01*
X81497000Y-83569904D01*
X81544619Y-83522285D01*
X81639857Y-83474666D01*
X81782714Y-83474666D01*
X81877952Y-83522285D01*
X81925571Y-83569904D01*
X81973190Y-83665142D01*
X81973190Y-84046095D01*
X81449380Y-83141333D02*
X81449380Y-82474666D01*
X82449380Y-82903238D01*
%TO.C,R20*%
X126185142Y-67822380D02*
X125851809Y-67346190D01*
X125613714Y-67822380D02*
X125613714Y-66822380D01*
X125994666Y-66822380D01*
X126089904Y-66870000D01*
X126137523Y-66917619D01*
X126185142Y-67012857D01*
X126185142Y-67155714D01*
X126137523Y-67250952D01*
X126089904Y-67298571D01*
X125994666Y-67346190D01*
X125613714Y-67346190D01*
X126566095Y-66917619D02*
X126613714Y-66870000D01*
X126708952Y-66822380D01*
X126947047Y-66822380D01*
X127042285Y-66870000D01*
X127089904Y-66917619D01*
X127137523Y-67012857D01*
X127137523Y-67108095D01*
X127089904Y-67250952D01*
X126518476Y-67822380D01*
X127137523Y-67822380D01*
X127756571Y-66822380D02*
X127851809Y-66822380D01*
X127947047Y-66870000D01*
X127994666Y-66917619D01*
X128042285Y-67012857D01*
X128089904Y-67203333D01*
X128089904Y-67441428D01*
X128042285Y-67631904D01*
X127994666Y-67727142D01*
X127947047Y-67774761D01*
X127851809Y-67822380D01*
X127756571Y-67822380D01*
X127661333Y-67774761D01*
X127613714Y-67727142D01*
X127566095Y-67631904D01*
X127518476Y-67441428D01*
X127518476Y-67203333D01*
X127566095Y-67012857D01*
X127613714Y-66917619D01*
X127661333Y-66870000D01*
X127756571Y-66822380D01*
%TO.C,R19*%
X128725142Y-68965380D02*
X128391809Y-68489190D01*
X128153714Y-68965380D02*
X128153714Y-67965380D01*
X128534666Y-67965380D01*
X128629904Y-68013000D01*
X128677523Y-68060619D01*
X128725142Y-68155857D01*
X128725142Y-68298714D01*
X128677523Y-68393952D01*
X128629904Y-68441571D01*
X128534666Y-68489190D01*
X128153714Y-68489190D01*
X129677523Y-68965380D02*
X129106095Y-68965380D01*
X129391809Y-68965380D02*
X129391809Y-67965380D01*
X129296571Y-68108238D01*
X129201333Y-68203476D01*
X129106095Y-68251095D01*
X130153714Y-68965380D02*
X130344190Y-68965380D01*
X130439428Y-68917761D01*
X130487047Y-68870142D01*
X130582285Y-68727285D01*
X130629904Y-68536809D01*
X130629904Y-68155857D01*
X130582285Y-68060619D01*
X130534666Y-68013000D01*
X130439428Y-67965380D01*
X130248952Y-67965380D01*
X130153714Y-68013000D01*
X130106095Y-68060619D01*
X130058476Y-68155857D01*
X130058476Y-68393952D01*
X130106095Y-68489190D01*
X130153714Y-68536809D01*
X130248952Y-68584428D01*
X130439428Y-68584428D01*
X130534666Y-68536809D01*
X130582285Y-68489190D01*
X130629904Y-68393952D01*
%TO.C,R10*%
X93879380Y-69282857D02*
X93403190Y-69616190D01*
X93879380Y-69854285D02*
X92879380Y-69854285D01*
X92879380Y-69473333D01*
X92927000Y-69378095D01*
X92974619Y-69330476D01*
X93069857Y-69282857D01*
X93212714Y-69282857D01*
X93307952Y-69330476D01*
X93355571Y-69378095D01*
X93403190Y-69473333D01*
X93403190Y-69854285D01*
X93879380Y-68330476D02*
X93879380Y-68901904D01*
X93879380Y-68616190D02*
X92879380Y-68616190D01*
X93022238Y-68711428D01*
X93117476Y-68806666D01*
X93165095Y-68901904D01*
X92879380Y-67711428D02*
X92879380Y-67616190D01*
X92927000Y-67520952D01*
X92974619Y-67473333D01*
X93069857Y-67425714D01*
X93260333Y-67378095D01*
X93498428Y-67378095D01*
X93688904Y-67425714D01*
X93784142Y-67473333D01*
X93831761Y-67520952D01*
X93879380Y-67616190D01*
X93879380Y-67711428D01*
X93831761Y-67806666D01*
X93784142Y-67854285D01*
X93688904Y-67901904D01*
X93498428Y-67949523D01*
X93260333Y-67949523D01*
X93069857Y-67901904D01*
X92974619Y-67854285D01*
X92927000Y-67806666D01*
X92879380Y-67711428D01*
%TO.C,R9*%
X95276380Y-68806666D02*
X94800190Y-69140000D01*
X95276380Y-69378095D02*
X94276380Y-69378095D01*
X94276380Y-68997142D01*
X94324000Y-68901904D01*
X94371619Y-68854285D01*
X94466857Y-68806666D01*
X94609714Y-68806666D01*
X94704952Y-68854285D01*
X94752571Y-68901904D01*
X94800190Y-68997142D01*
X94800190Y-69378095D01*
X95276380Y-68330476D02*
X95276380Y-68140000D01*
X95228761Y-68044761D01*
X95181142Y-67997142D01*
X95038285Y-67901904D01*
X94847809Y-67854285D01*
X94466857Y-67854285D01*
X94371619Y-67901904D01*
X94324000Y-67949523D01*
X94276380Y-68044761D01*
X94276380Y-68235238D01*
X94324000Y-68330476D01*
X94371619Y-68378095D01*
X94466857Y-68425714D01*
X94704952Y-68425714D01*
X94800190Y-68378095D01*
X94847809Y-68330476D01*
X94895428Y-68235238D01*
X94895428Y-68044761D01*
X94847809Y-67949523D01*
X94800190Y-67901904D01*
X94704952Y-67854285D01*
%TO.C,R18*%
X120152642Y-69727380D02*
X119819309Y-69251190D01*
X119581214Y-69727380D02*
X119581214Y-68727380D01*
X119962166Y-68727380D01*
X120057404Y-68775000D01*
X120105023Y-68822619D01*
X120152642Y-68917857D01*
X120152642Y-69060714D01*
X120105023Y-69155952D01*
X120057404Y-69203571D01*
X119962166Y-69251190D01*
X119581214Y-69251190D01*
X121105023Y-69727380D02*
X120533595Y-69727380D01*
X120819309Y-69727380D02*
X120819309Y-68727380D01*
X120724071Y-68870238D01*
X120628833Y-68965476D01*
X120533595Y-69013095D01*
X121676452Y-69155952D02*
X121581214Y-69108333D01*
X121533595Y-69060714D01*
X121485976Y-68965476D01*
X121485976Y-68917857D01*
X121533595Y-68822619D01*
X121581214Y-68775000D01*
X121676452Y-68727380D01*
X121866928Y-68727380D01*
X121962166Y-68775000D01*
X122009785Y-68822619D01*
X122057404Y-68917857D01*
X122057404Y-68965476D01*
X122009785Y-69060714D01*
X121962166Y-69108333D01*
X121866928Y-69155952D01*
X121676452Y-69155952D01*
X121581214Y-69203571D01*
X121533595Y-69251190D01*
X121485976Y-69346428D01*
X121485976Y-69536904D01*
X121533595Y-69632142D01*
X121581214Y-69679761D01*
X121676452Y-69727380D01*
X121866928Y-69727380D01*
X121962166Y-69679761D01*
X122009785Y-69632142D01*
X122057404Y-69536904D01*
X122057404Y-69346428D01*
X122009785Y-69251190D01*
X121962166Y-69203571D01*
X121866928Y-69155952D01*
%TO.C,R6*%
X99610333Y-69727380D02*
X99277000Y-69251190D01*
X99038904Y-69727380D02*
X99038904Y-68727380D01*
X99419857Y-68727380D01*
X99515095Y-68775000D01*
X99562714Y-68822619D01*
X99610333Y-68917857D01*
X99610333Y-69060714D01*
X99562714Y-69155952D01*
X99515095Y-69203571D01*
X99419857Y-69251190D01*
X99038904Y-69251190D01*
X100467476Y-68727380D02*
X100277000Y-68727380D01*
X100181761Y-68775000D01*
X100134142Y-68822619D01*
X100038904Y-68965476D01*
X99991285Y-69155952D01*
X99991285Y-69536904D01*
X100038904Y-69632142D01*
X100086523Y-69679761D01*
X100181761Y-69727380D01*
X100372238Y-69727380D01*
X100467476Y-69679761D01*
X100515095Y-69632142D01*
X100562714Y-69536904D01*
X100562714Y-69298809D01*
X100515095Y-69203571D01*
X100467476Y-69155952D01*
X100372238Y-69108333D01*
X100181761Y-69108333D01*
X100086523Y-69155952D01*
X100038904Y-69203571D01*
X99991285Y-69298809D01*
%TO.C,Q4*%
X82536761Y-74394619D02*
X82441523Y-74347000D01*
X82346285Y-74251761D01*
X82203428Y-74108904D01*
X82108190Y-74061285D01*
X82012952Y-74061285D01*
X82060571Y-74299380D02*
X81965333Y-74251761D01*
X81870095Y-74156523D01*
X81822476Y-73966047D01*
X81822476Y-73632714D01*
X81870095Y-73442238D01*
X81965333Y-73347000D01*
X82060571Y-73299380D01*
X82251047Y-73299380D01*
X82346285Y-73347000D01*
X82441523Y-73442238D01*
X82489142Y-73632714D01*
X82489142Y-73966047D01*
X82441523Y-74156523D01*
X82346285Y-74251761D01*
X82251047Y-74299380D01*
X82060571Y-74299380D01*
X83346285Y-73632714D02*
X83346285Y-74299380D01*
X83108190Y-73251761D02*
X82870095Y-73966047D01*
X83489142Y-73966047D01*
%TO.C,Q3*%
X84441761Y-82014619D02*
X84346523Y-81967000D01*
X84251285Y-81871761D01*
X84108428Y-81728904D01*
X84013190Y-81681285D01*
X83917952Y-81681285D01*
X83965571Y-81919380D02*
X83870333Y-81871761D01*
X83775095Y-81776523D01*
X83727476Y-81586047D01*
X83727476Y-81252714D01*
X83775095Y-81062238D01*
X83870333Y-80967000D01*
X83965571Y-80919380D01*
X84156047Y-80919380D01*
X84251285Y-80967000D01*
X84346523Y-81062238D01*
X84394142Y-81252714D01*
X84394142Y-81586047D01*
X84346523Y-81776523D01*
X84251285Y-81871761D01*
X84156047Y-81919380D01*
X83965571Y-81919380D01*
X84727476Y-80919380D02*
X85346523Y-80919380D01*
X85013190Y-81300333D01*
X85156047Y-81300333D01*
X85251285Y-81347952D01*
X85298904Y-81395571D01*
X85346523Y-81490809D01*
X85346523Y-81728904D01*
X85298904Y-81824142D01*
X85251285Y-81871761D01*
X85156047Y-81919380D01*
X84870333Y-81919380D01*
X84775095Y-81871761D01*
X84727476Y-81824142D01*
%TO.C,PS1*%
X83068714Y-84332380D02*
X83068714Y-83332380D01*
X83449666Y-83332380D01*
X83544904Y-83380000D01*
X83592523Y-83427619D01*
X83640142Y-83522857D01*
X83640142Y-83665714D01*
X83592523Y-83760952D01*
X83544904Y-83808571D01*
X83449666Y-83856190D01*
X83068714Y-83856190D01*
X84021095Y-84284761D02*
X84163952Y-84332380D01*
X84402047Y-84332380D01*
X84497285Y-84284761D01*
X84544904Y-84237142D01*
X84592523Y-84141904D01*
X84592523Y-84046666D01*
X84544904Y-83951428D01*
X84497285Y-83903809D01*
X84402047Y-83856190D01*
X84211571Y-83808571D01*
X84116333Y-83760952D01*
X84068714Y-83713333D01*
X84021095Y-83618095D01*
X84021095Y-83522857D01*
X84068714Y-83427619D01*
X84116333Y-83380000D01*
X84211571Y-83332380D01*
X84449666Y-83332380D01*
X84592523Y-83380000D01*
X85544904Y-84332380D02*
X84973476Y-84332380D01*
X85259190Y-84332380D02*
X85259190Y-83332380D01*
X85163952Y-83475238D01*
X85068714Y-83570476D01*
X84973476Y-83618095D01*
%TO.C,K1*%
X105261904Y-79252380D02*
X105261904Y-78252380D01*
X105833333Y-79252380D02*
X105404761Y-78680952D01*
X105833333Y-78252380D02*
X105261904Y-78823809D01*
X106785714Y-79252380D02*
X106214285Y-79252380D01*
X106500000Y-79252380D02*
X106500000Y-78252380D01*
X106404761Y-78395238D01*
X106309523Y-78490476D01*
X106214285Y-78538095D01*
%TO.C,JP1*%
X91577666Y-82189380D02*
X91577666Y-82903666D01*
X91530047Y-83046523D01*
X91434809Y-83141761D01*
X91291952Y-83189380D01*
X91196714Y-83189380D01*
X92053857Y-83189380D02*
X92053857Y-82189380D01*
X92434809Y-82189380D01*
X92530047Y-82237000D01*
X92577666Y-82284619D01*
X92625285Y-82379857D01*
X92625285Y-82522714D01*
X92577666Y-82617952D01*
X92530047Y-82665571D01*
X92434809Y-82713190D01*
X92053857Y-82713190D01*
X93577666Y-83189380D02*
X93006238Y-83189380D01*
X93291952Y-83189380D02*
X93291952Y-82189380D01*
X93196714Y-82332238D01*
X93101476Y-82427476D01*
X93006238Y-82475095D01*
%TO.C,C13*%
X107796142Y-71156142D02*
X107748523Y-71203761D01*
X107605666Y-71251380D01*
X107510428Y-71251380D01*
X107367571Y-71203761D01*
X107272333Y-71108523D01*
X107224714Y-71013285D01*
X107177095Y-70822809D01*
X107177095Y-70679952D01*
X107224714Y-70489476D01*
X107272333Y-70394238D01*
X107367571Y-70299000D01*
X107510428Y-70251380D01*
X107605666Y-70251380D01*
X107748523Y-70299000D01*
X107796142Y-70346619D01*
X108748523Y-71251380D02*
X108177095Y-71251380D01*
X108462809Y-71251380D02*
X108462809Y-70251380D01*
X108367571Y-70394238D01*
X108272333Y-70489476D01*
X108177095Y-70537095D01*
X109081857Y-70251380D02*
X109700904Y-70251380D01*
X109367571Y-70632333D01*
X109510428Y-70632333D01*
X109605666Y-70679952D01*
X109653285Y-70727571D01*
X109700904Y-70822809D01*
X109700904Y-71060904D01*
X109653285Y-71156142D01*
X109605666Y-71203761D01*
X109510428Y-71251380D01*
X109224714Y-71251380D01*
X109129476Y-71203761D01*
X109081857Y-71156142D01*
%TD*%
%LPC*%
%TO.C,C13*%
G36*
G01*
X112445000Y-95549000D02*
X112445000Y-96049000D01*
G75*
G02*
X112220000Y-96274000I-225000J0D01*
G01*
X111770000Y-96274000D01*
G75*
G02*
X111545000Y-96049000I0J225000D01*
G01*
X111545000Y-95549000D01*
G75*
G02*
X111770000Y-95324000I225000J0D01*
G01*
X112220000Y-95324000D01*
G75*
G02*
X112445000Y-95549000I0J-225000D01*
G01*
G37*
G36*
G01*
X110895000Y-95549000D02*
X110895000Y-96049000D01*
G75*
G02*
X110670000Y-96274000I-225000J0D01*
G01*
X110220000Y-96274000D01*
G75*
G02*
X109995000Y-96049000I0J225000D01*
G01*
X109995000Y-95549000D01*
G75*
G02*
X110220000Y-95324000I225000J0D01*
G01*
X110670000Y-95324000D01*
G75*
G02*
X110895000Y-95549000I0J-225000D01*
G01*
G37*
%TD*%
D12*
%TO.C,C7*%
X129241000Y-95545000D03*
X129241000Y-113045000D03*
%TD*%
D13*
%TO.C,JP1*%
G36*
X90621000Y-106729000D02*
G01*
X90621000Y-107879000D01*
X89871000Y-107379000D01*
X89121000Y-107879000D01*
X89121000Y-106729000D01*
X90621000Y-106729000D01*
G37*
G36*
X89871000Y-107679000D02*
G01*
X90621000Y-108179000D01*
X90621000Y-109179000D01*
X89121000Y-109179000D01*
X89121000Y-108179000D01*
X89871000Y-107679000D01*
G37*
%TD*%
D14*
%TO.C,K1*%
X95713000Y-96942000D03*
D15*
X95713000Y-99482000D03*
X95713000Y-104562000D03*
X95713000Y-109642000D03*
X95713000Y-114722000D03*
X103333000Y-114722000D03*
X103333000Y-109642000D03*
X103333000Y-104562000D03*
X103333000Y-99482000D03*
X103333000Y-96942000D03*
%TD*%
D16*
%TO.C,PS1*%
X83521000Y-114849000D03*
D17*
X86061000Y-114849000D03*
X88601000Y-114849000D03*
X91141000Y-114849000D03*
%TD*%
D18*
%TO.C,Q3*%
X85521000Y-105004000D03*
X85521000Y-103104000D03*
X83521000Y-104054000D03*
%TD*%
%TO.C,Q4*%
X85521000Y-101382000D03*
X85521000Y-99482000D03*
X83521000Y-100432000D03*
%TD*%
%TO.C,R6*%
G36*
G01*
X101065000Y-92603000D02*
X101065000Y-93153000D01*
G75*
G02*
X100865000Y-93353000I-200000J0D01*
G01*
X100465000Y-93353000D01*
G75*
G02*
X100265000Y-93153000I0J200000D01*
G01*
X100265000Y-92603000D01*
G75*
G02*
X100465000Y-92403000I200000J0D01*
G01*
X100865000Y-92403000D01*
G75*
G02*
X101065000Y-92603000I0J-200000D01*
G01*
G37*
G36*
G01*
X99415000Y-92603000D02*
X99415000Y-93153000D01*
G75*
G02*
X99215000Y-93353000I-200000J0D01*
G01*
X98815000Y-93353000D01*
G75*
G02*
X98615000Y-93153000I0J200000D01*
G01*
X98615000Y-92603000D01*
G75*
G02*
X98815000Y-92403000I200000J0D01*
G01*
X99215000Y-92403000D01*
G75*
G02*
X99415000Y-92603000I0J-200000D01*
G01*
G37*
%TD*%
%TO.C,R18*%
G36*
G01*
X119571000Y-93153000D02*
X119571000Y-92603000D01*
G75*
G02*
X119771000Y-92403000I200000J0D01*
G01*
X120171000Y-92403000D01*
G75*
G02*
X120371000Y-92603000I0J-200000D01*
G01*
X120371000Y-93153000D01*
G75*
G02*
X120171000Y-93353000I-200000J0D01*
G01*
X119771000Y-93353000D01*
G75*
G02*
X119571000Y-93153000I0J200000D01*
G01*
G37*
G36*
G01*
X121221000Y-93153000D02*
X121221000Y-92603000D01*
G75*
G02*
X121421000Y-92403000I200000J0D01*
G01*
X121821000Y-92403000D01*
G75*
G02*
X122021000Y-92603000I0J-200000D01*
G01*
X122021000Y-93153000D01*
G75*
G02*
X121821000Y-93353000I-200000J0D01*
G01*
X121421000Y-93353000D01*
G75*
G02*
X121221000Y-93153000I0J200000D01*
G01*
G37*
%TD*%
%TO.C,R9*%
G36*
G01*
X97216000Y-92479000D02*
X97766000Y-92479000D01*
G75*
G02*
X97966000Y-92679000I0J-200000D01*
G01*
X97966000Y-93079000D01*
G75*
G02*
X97766000Y-93279000I-200000J0D01*
G01*
X97216000Y-93279000D01*
G75*
G02*
X97016000Y-93079000I0J200000D01*
G01*
X97016000Y-92679000D01*
G75*
G02*
X97216000Y-92479000I200000J0D01*
G01*
G37*
G36*
G01*
X97216000Y-94129000D02*
X97766000Y-94129000D01*
G75*
G02*
X97966000Y-94329000I0J-200000D01*
G01*
X97966000Y-94729000D01*
G75*
G02*
X97766000Y-94929000I-200000J0D01*
G01*
X97216000Y-94929000D01*
G75*
G02*
X97016000Y-94729000I0J200000D01*
G01*
X97016000Y-94329000D01*
G75*
G02*
X97216000Y-94129000I200000J0D01*
G01*
G37*
%TD*%
%TO.C,R10*%
G36*
G01*
X95692000Y-92479000D02*
X96242000Y-92479000D01*
G75*
G02*
X96442000Y-92679000I0J-200000D01*
G01*
X96442000Y-93079000D01*
G75*
G02*
X96242000Y-93279000I-200000J0D01*
G01*
X95692000Y-93279000D01*
G75*
G02*
X95492000Y-93079000I0J200000D01*
G01*
X95492000Y-92679000D01*
G75*
G02*
X95692000Y-92479000I200000J0D01*
G01*
G37*
G36*
G01*
X95692000Y-94129000D02*
X96242000Y-94129000D01*
G75*
G02*
X96442000Y-94329000I0J-200000D01*
G01*
X96442000Y-94729000D01*
G75*
G02*
X96242000Y-94929000I-200000J0D01*
G01*
X95692000Y-94929000D01*
G75*
G02*
X95492000Y-94729000I0J200000D01*
G01*
X95492000Y-94329000D01*
G75*
G02*
X95692000Y-94129000I200000J0D01*
G01*
G37*
%TD*%
%TO.C,R19*%
G36*
G01*
X124394000Y-92479000D02*
X124944000Y-92479000D01*
G75*
G02*
X125144000Y-92679000I0J-200000D01*
G01*
X125144000Y-93079000D01*
G75*
G02*
X124944000Y-93279000I-200000J0D01*
G01*
X124394000Y-93279000D01*
G75*
G02*
X124194000Y-93079000I0J200000D01*
G01*
X124194000Y-92679000D01*
G75*
G02*
X124394000Y-92479000I200000J0D01*
G01*
G37*
G36*
G01*
X124394000Y-94129000D02*
X124944000Y-94129000D01*
G75*
G02*
X125144000Y-94329000I0J-200000D01*
G01*
X125144000Y-94729000D01*
G75*
G02*
X124944000Y-94929000I-200000J0D01*
G01*
X124394000Y-94929000D01*
G75*
G02*
X124194000Y-94729000I0J200000D01*
G01*
X124194000Y-94329000D01*
G75*
G02*
X124394000Y-94129000I200000J0D01*
G01*
G37*
%TD*%
%TO.C,R20*%
G36*
G01*
X122870000Y-92479000D02*
X123420000Y-92479000D01*
G75*
G02*
X123620000Y-92679000I0J-200000D01*
G01*
X123620000Y-93079000D01*
G75*
G02*
X123420000Y-93279000I-200000J0D01*
G01*
X122870000Y-93279000D01*
G75*
G02*
X122670000Y-93079000I0J200000D01*
G01*
X122670000Y-92679000D01*
G75*
G02*
X122870000Y-92479000I200000J0D01*
G01*
G37*
G36*
G01*
X122870000Y-94129000D02*
X123420000Y-94129000D01*
G75*
G02*
X123620000Y-94329000I0J-200000D01*
G01*
X123620000Y-94729000D01*
G75*
G02*
X123420000Y-94929000I-200000J0D01*
G01*
X122870000Y-94929000D01*
G75*
G02*
X122670000Y-94729000I0J200000D01*
G01*
X122670000Y-94329000D01*
G75*
G02*
X122870000Y-94129000I200000J0D01*
G01*
G37*
%TD*%
%TO.C,R7*%
G36*
G01*
X81722000Y-104797000D02*
X82272000Y-104797000D01*
G75*
G02*
X82472000Y-104997000I0J-200000D01*
G01*
X82472000Y-105397000D01*
G75*
G02*
X82272000Y-105597000I-200000J0D01*
G01*
X81722000Y-105597000D01*
G75*
G02*
X81522000Y-105397000I0J200000D01*
G01*
X81522000Y-104997000D01*
G75*
G02*
X81722000Y-104797000I200000J0D01*
G01*
G37*
G36*
G01*
X81722000Y-106447000D02*
X82272000Y-106447000D01*
G75*
G02*
X82472000Y-106647000I0J-200000D01*
G01*
X82472000Y-107047000D01*
G75*
G02*
X82272000Y-107247000I-200000J0D01*
G01*
X81722000Y-107247000D01*
G75*
G02*
X81522000Y-107047000I0J200000D01*
G01*
X81522000Y-106647000D01*
G75*
G02*
X81722000Y-106447000I200000J0D01*
G01*
G37*
%TD*%
%TO.C,R8*%
G36*
G01*
X82272000Y-104136500D02*
X81722000Y-104136500D01*
G75*
G02*
X81522000Y-103936500I0J200000D01*
G01*
X81522000Y-103536500D01*
G75*
G02*
X81722000Y-103336500I200000J0D01*
G01*
X82272000Y-103336500D01*
G75*
G02*
X82472000Y-103536500I0J-200000D01*
G01*
X82472000Y-103936500D01*
G75*
G02*
X82272000Y-104136500I-200000J0D01*
G01*
G37*
G36*
G01*
X82272000Y-102486500D02*
X81722000Y-102486500D01*
G75*
G02*
X81522000Y-102286500I0J200000D01*
G01*
X81522000Y-101886500D01*
G75*
G02*
X81722000Y-101686500I200000J0D01*
G01*
X82272000Y-101686500D01*
G75*
G02*
X82472000Y-101886500I0J-200000D01*
G01*
X82472000Y-102286500D01*
G75*
G02*
X82272000Y-102486500I-200000J0D01*
G01*
G37*
%TD*%
%TO.C,R11*%
G36*
G01*
X86802000Y-102892000D02*
X87352000Y-102892000D01*
G75*
G02*
X87552000Y-103092000I0J-200000D01*
G01*
X87552000Y-103492000D01*
G75*
G02*
X87352000Y-103692000I-200000J0D01*
G01*
X86802000Y-103692000D01*
G75*
G02*
X86602000Y-103492000I0J200000D01*
G01*
X86602000Y-103092000D01*
G75*
G02*
X86802000Y-102892000I200000J0D01*
G01*
G37*
G36*
G01*
X86802000Y-104542000D02*
X87352000Y-104542000D01*
G75*
G02*
X87552000Y-104742000I0J-200000D01*
G01*
X87552000Y-105142000D01*
G75*
G02*
X87352000Y-105342000I-200000J0D01*
G01*
X86802000Y-105342000D01*
G75*
G02*
X86602000Y-105142000I0J200000D01*
G01*
X86602000Y-104742000D01*
G75*
G02*
X86802000Y-104542000I200000J0D01*
G01*
G37*
%TD*%
%TO.C,R12*%
G36*
G01*
X86802000Y-99209000D02*
X87352000Y-99209000D01*
G75*
G02*
X87552000Y-99409000I0J-200000D01*
G01*
X87552000Y-99809000D01*
G75*
G02*
X87352000Y-100009000I-200000J0D01*
G01*
X86802000Y-100009000D01*
G75*
G02*
X86602000Y-99809000I0J200000D01*
G01*
X86602000Y-99409000D01*
G75*
G02*
X86802000Y-99209000I200000J0D01*
G01*
G37*
G36*
G01*
X86802000Y-100859000D02*
X87352000Y-100859000D01*
G75*
G02*
X87552000Y-101059000I0J-200000D01*
G01*
X87552000Y-101459000D01*
G75*
G02*
X87352000Y-101659000I-200000J0D01*
G01*
X86802000Y-101659000D01*
G75*
G02*
X86602000Y-101459000I0J200000D01*
G01*
X86602000Y-101059000D01*
G75*
G02*
X86802000Y-100859000I200000J0D01*
G01*
G37*
%TD*%
D12*
%TO.C,TP1*%
X87140500Y-108118000D03*
%TD*%
D19*
%TO.C,U2*%
X108422000Y-97491000D03*
X108422000Y-98141000D03*
X108422000Y-98791000D03*
X108422000Y-99441000D03*
X112722000Y-99441000D03*
X112722000Y-98791000D03*
X112722000Y-98141000D03*
X112722000Y-97491000D03*
%TD*%
D20*
%TO.C,J1*%
X112350000Y-114468000D03*
X109810000Y-114468000D03*
D21*
X107270000Y-114468000D03*
%TD*%
D15*
%TO.C,K2*%
X123907000Y-96942000D03*
X123907000Y-99482000D03*
X123907000Y-104562000D03*
X123907000Y-109642000D03*
X123907000Y-114722000D03*
X116287000Y-114722000D03*
X116287000Y-109642000D03*
X116287000Y-104562000D03*
X116287000Y-99482000D03*
D14*
X116287000Y-96942000D03*
%TD*%
%TO.C,C8*%
G36*
G01*
X90030000Y-94525000D02*
X90030000Y-94025000D01*
G75*
G02*
X90255000Y-93800000I225000J0D01*
G01*
X90705000Y-93800000D01*
G75*
G02*
X90930000Y-94025000I0J-225000D01*
G01*
X90930000Y-94525000D01*
G75*
G02*
X90705000Y-94750000I-225000J0D01*
G01*
X90255000Y-94750000D01*
G75*
G02*
X90030000Y-94525000I0J225000D01*
G01*
G37*
G36*
G01*
X91580000Y-94525000D02*
X91580000Y-94025000D01*
G75*
G02*
X91805000Y-93800000I225000J0D01*
G01*
X92255000Y-93800000D01*
G75*
G02*
X92480000Y-94025000I0J-225000D01*
G01*
X92480000Y-94525000D01*
G75*
G02*
X92255000Y-94750000I-225000J0D01*
G01*
X91805000Y-94750000D01*
G75*
G02*
X91580000Y-94525000I0J225000D01*
G01*
G37*
%TD*%
%TO.C,C10*%
G36*
G01*
X89522000Y-103669000D02*
X89522000Y-103169000D01*
G75*
G02*
X89747000Y-102944000I225000J0D01*
G01*
X90197000Y-102944000D01*
G75*
G02*
X90422000Y-103169000I0J-225000D01*
G01*
X90422000Y-103669000D01*
G75*
G02*
X90197000Y-103894000I-225000J0D01*
G01*
X89747000Y-103894000D01*
G75*
G02*
X89522000Y-103669000I0J225000D01*
G01*
G37*
G36*
G01*
X91072000Y-103669000D02*
X91072000Y-103169000D01*
G75*
G02*
X91297000Y-102944000I225000J0D01*
G01*
X91747000Y-102944000D01*
G75*
G02*
X91972000Y-103169000I0J-225000D01*
G01*
X91972000Y-103669000D01*
G75*
G02*
X91747000Y-103894000I-225000J0D01*
G01*
X91297000Y-103894000D01*
G75*
G02*
X91072000Y-103669000I0J225000D01*
G01*
G37*
%TD*%
D18*
%TO.C,Q2*%
X104095000Y-94460500D03*
X104095000Y-92560500D03*
X102095000Y-93510500D03*
%TD*%
%TO.C,R16*%
G36*
G01*
X112967000Y-92772000D02*
X112967000Y-92222000D01*
G75*
G02*
X113167000Y-92022000I200000J0D01*
G01*
X113567000Y-92022000D01*
G75*
G02*
X113767000Y-92222000I0J-200000D01*
G01*
X113767000Y-92772000D01*
G75*
G02*
X113567000Y-92972000I-200000J0D01*
G01*
X113167000Y-92972000D01*
G75*
G02*
X112967000Y-92772000I0J200000D01*
G01*
G37*
G36*
G01*
X114617000Y-92772000D02*
X114617000Y-92222000D01*
G75*
G02*
X114817000Y-92022000I200000J0D01*
G01*
X115217000Y-92022000D01*
G75*
G02*
X115417000Y-92222000I0J-200000D01*
G01*
X115417000Y-92772000D01*
G75*
G02*
X115217000Y-92972000I-200000J0D01*
G01*
X114817000Y-92972000D01*
G75*
G02*
X114617000Y-92772000I0J200000D01*
G01*
G37*
%TD*%
%TO.C,U1*%
G36*
G01*
X93023000Y-95397000D02*
X93323000Y-95397000D01*
G75*
G02*
X93473000Y-95547000I0J-150000D01*
G01*
X93473000Y-97197000D01*
G75*
G02*
X93323000Y-97347000I-150000J0D01*
G01*
X93023000Y-97347000D01*
G75*
G02*
X92873000Y-97197000I0J150000D01*
G01*
X92873000Y-95547000D01*
G75*
G02*
X93023000Y-95397000I150000J0D01*
G01*
G37*
G36*
G01*
X91753000Y-95397000D02*
X92053000Y-95397000D01*
G75*
G02*
X92203000Y-95547000I0J-150000D01*
G01*
X92203000Y-97197000D01*
G75*
G02*
X92053000Y-97347000I-150000J0D01*
G01*
X91753000Y-97347000D01*
G75*
G02*
X91603000Y-97197000I0J150000D01*
G01*
X91603000Y-95547000D01*
G75*
G02*
X91753000Y-95397000I150000J0D01*
G01*
G37*
G36*
G01*
X90483000Y-95397000D02*
X90783000Y-95397000D01*
G75*
G02*
X90933000Y-95547000I0J-150000D01*
G01*
X90933000Y-97197000D01*
G75*
G02*
X90783000Y-97347000I-150000J0D01*
G01*
X90483000Y-97347000D01*
G75*
G02*
X90333000Y-97197000I0J150000D01*
G01*
X90333000Y-95547000D01*
G75*
G02*
X90483000Y-95397000I150000J0D01*
G01*
G37*
G36*
G01*
X89213000Y-95397000D02*
X89513000Y-95397000D01*
G75*
G02*
X89663000Y-95547000I0J-150000D01*
G01*
X89663000Y-97197000D01*
G75*
G02*
X89513000Y-97347000I-150000J0D01*
G01*
X89213000Y-97347000D01*
G75*
G02*
X89063000Y-97197000I0J150000D01*
G01*
X89063000Y-95547000D01*
G75*
G02*
X89213000Y-95397000I150000J0D01*
G01*
G37*
G36*
G01*
X89213000Y-100347000D02*
X89513000Y-100347000D01*
G75*
G02*
X89663000Y-100497000I0J-150000D01*
G01*
X89663000Y-102147000D01*
G75*
G02*
X89513000Y-102297000I-150000J0D01*
G01*
X89213000Y-102297000D01*
G75*
G02*
X89063000Y-102147000I0J150000D01*
G01*
X89063000Y-100497000D01*
G75*
G02*
X89213000Y-100347000I150000J0D01*
G01*
G37*
G36*
G01*
X90483000Y-100347000D02*
X90783000Y-100347000D01*
G75*
G02*
X90933000Y-100497000I0J-150000D01*
G01*
X90933000Y-102147000D01*
G75*
G02*
X90783000Y-102297000I-150000J0D01*
G01*
X90483000Y-102297000D01*
G75*
G02*
X90333000Y-102147000I0J150000D01*
G01*
X90333000Y-100497000D01*
G75*
G02*
X90483000Y-100347000I150000J0D01*
G01*
G37*
G36*
G01*
X91753000Y-100347000D02*
X92053000Y-100347000D01*
G75*
G02*
X92203000Y-100497000I0J-150000D01*
G01*
X92203000Y-102147000D01*
G75*
G02*
X92053000Y-102297000I-150000J0D01*
G01*
X91753000Y-102297000D01*
G75*
G02*
X91603000Y-102147000I0J150000D01*
G01*
X91603000Y-100497000D01*
G75*
G02*
X91753000Y-100347000I150000J0D01*
G01*
G37*
G36*
G01*
X93023000Y-100347000D02*
X93323000Y-100347000D01*
G75*
G02*
X93473000Y-100497000I0J-150000D01*
G01*
X93473000Y-102147000D01*
G75*
G02*
X93323000Y-102297000I-150000J0D01*
G01*
X93023000Y-102297000D01*
G75*
G02*
X92873000Y-102147000I0J150000D01*
G01*
X92873000Y-100497000D01*
G75*
G02*
X93023000Y-100347000I150000J0D01*
G01*
G37*
%TD*%
D12*
%TO.C,C5*%
X98613000Y-112182000D03*
X121113000Y-112182000D03*
%TD*%
D22*
%TO.C,J2*%
X84791000Y-97450000D03*
D23*
X84791000Y-96180000D03*
X83521000Y-97450000D03*
X83521000Y-96180000D03*
X82251000Y-97450000D03*
X82251000Y-96180000D03*
%TD*%
D24*
%TO.C,Q6*%
X118441000Y-92560500D03*
X116541000Y-92560500D03*
X117491000Y-94560500D03*
%TD*%
%TO.C,R2*%
G36*
G01*
X105219000Y-94296000D02*
X105219000Y-93746000D01*
G75*
G02*
X105419000Y-93546000I200000J0D01*
G01*
X105819000Y-93546000D01*
G75*
G02*
X106019000Y-93746000I0J-200000D01*
G01*
X106019000Y-94296000D01*
G75*
G02*
X105819000Y-94496000I-200000J0D01*
G01*
X105419000Y-94496000D01*
G75*
G02*
X105219000Y-94296000I0J200000D01*
G01*
G37*
G36*
G01*
X106869000Y-94296000D02*
X106869000Y-93746000D01*
G75*
G02*
X107069000Y-93546000I200000J0D01*
G01*
X107469000Y-93546000D01*
G75*
G02*
X107669000Y-93746000I0J-200000D01*
G01*
X107669000Y-94296000D01*
G75*
G02*
X107469000Y-94496000I-200000J0D01*
G01*
X107069000Y-94496000D01*
G75*
G02*
X106869000Y-94296000I0J200000D01*
G01*
G37*
%TD*%
%TO.C,R4*%
G36*
G01*
X107669000Y-92222000D02*
X107669000Y-92772000D01*
G75*
G02*
X107469000Y-92972000I-200000J0D01*
G01*
X107069000Y-92972000D01*
G75*
G02*
X106869000Y-92772000I0J200000D01*
G01*
X106869000Y-92222000D01*
G75*
G02*
X107069000Y-92022000I200000J0D01*
G01*
X107469000Y-92022000D01*
G75*
G02*
X107669000Y-92222000I0J-200000D01*
G01*
G37*
G36*
G01*
X106019000Y-92222000D02*
X106019000Y-92772000D01*
G75*
G02*
X105819000Y-92972000I-200000J0D01*
G01*
X105419000Y-92972000D01*
G75*
G02*
X105219000Y-92772000I0J200000D01*
G01*
X105219000Y-92222000D01*
G75*
G02*
X105419000Y-92022000I200000J0D01*
G01*
X105819000Y-92022000D01*
G75*
G02*
X106019000Y-92222000I0J-200000D01*
G01*
G37*
%TD*%
%TO.C,R14*%
G36*
G01*
X112966000Y-94613500D02*
X112966000Y-94063500D01*
G75*
G02*
X113166000Y-93863500I200000J0D01*
G01*
X113566000Y-93863500D01*
G75*
G02*
X113766000Y-94063500I0J-200000D01*
G01*
X113766000Y-94613500D01*
G75*
G02*
X113566000Y-94813500I-200000J0D01*
G01*
X113166000Y-94813500D01*
G75*
G02*
X112966000Y-94613500I0J200000D01*
G01*
G37*
G36*
G01*
X114616000Y-94613500D02*
X114616000Y-94063500D01*
G75*
G02*
X114816000Y-93863500I200000J0D01*
G01*
X115216000Y-93863500D01*
G75*
G02*
X115416000Y-94063500I0J-200000D01*
G01*
X115416000Y-94613500D01*
G75*
G02*
X115216000Y-94813500I-200000J0D01*
G01*
X114816000Y-94813500D01*
G75*
G02*
X114616000Y-94613500I0J200000D01*
G01*
G37*
%TD*%
D23*
%TO.C,J2*%
X82251000Y-71180000D03*
X82251000Y-72450000D03*
X83521000Y-71180000D03*
X83521000Y-72450000D03*
X84791000Y-71180000D03*
D22*
X84791000Y-72450000D03*
%TD*%
D12*
%TO.C,C5*%
X121113000Y-87182000D03*
X98613000Y-87182000D03*
%TD*%
%TO.C,U1*%
G36*
G01*
X93023000Y-75347000D02*
X93323000Y-75347000D01*
G75*
G02*
X93473000Y-75497000I0J-150000D01*
G01*
X93473000Y-77147000D01*
G75*
G02*
X93323000Y-77297000I-150000J0D01*
G01*
X93023000Y-77297000D01*
G75*
G02*
X92873000Y-77147000I0J150000D01*
G01*
X92873000Y-75497000D01*
G75*
G02*
X93023000Y-75347000I150000J0D01*
G01*
G37*
G36*
G01*
X91753000Y-75347000D02*
X92053000Y-75347000D01*
G75*
G02*
X92203000Y-75497000I0J-150000D01*
G01*
X92203000Y-77147000D01*
G75*
G02*
X92053000Y-77297000I-150000J0D01*
G01*
X91753000Y-77297000D01*
G75*
G02*
X91603000Y-77147000I0J150000D01*
G01*
X91603000Y-75497000D01*
G75*
G02*
X91753000Y-75347000I150000J0D01*
G01*
G37*
G36*
G01*
X90483000Y-75347000D02*
X90783000Y-75347000D01*
G75*
G02*
X90933000Y-75497000I0J-150000D01*
G01*
X90933000Y-77147000D01*
G75*
G02*
X90783000Y-77297000I-150000J0D01*
G01*
X90483000Y-77297000D01*
G75*
G02*
X90333000Y-77147000I0J150000D01*
G01*
X90333000Y-75497000D01*
G75*
G02*
X90483000Y-75347000I150000J0D01*
G01*
G37*
G36*
G01*
X89213000Y-75347000D02*
X89513000Y-75347000D01*
G75*
G02*
X89663000Y-75497000I0J-150000D01*
G01*
X89663000Y-77147000D01*
G75*
G02*
X89513000Y-77297000I-150000J0D01*
G01*
X89213000Y-77297000D01*
G75*
G02*
X89063000Y-77147000I0J150000D01*
G01*
X89063000Y-75497000D01*
G75*
G02*
X89213000Y-75347000I150000J0D01*
G01*
G37*
G36*
G01*
X89213000Y-70397000D02*
X89513000Y-70397000D01*
G75*
G02*
X89663000Y-70547000I0J-150000D01*
G01*
X89663000Y-72197000D01*
G75*
G02*
X89513000Y-72347000I-150000J0D01*
G01*
X89213000Y-72347000D01*
G75*
G02*
X89063000Y-72197000I0J150000D01*
G01*
X89063000Y-70547000D01*
G75*
G02*
X89213000Y-70397000I150000J0D01*
G01*
G37*
G36*
G01*
X90483000Y-70397000D02*
X90783000Y-70397000D01*
G75*
G02*
X90933000Y-70547000I0J-150000D01*
G01*
X90933000Y-72197000D01*
G75*
G02*
X90783000Y-72347000I-150000J0D01*
G01*
X90483000Y-72347000D01*
G75*
G02*
X90333000Y-72197000I0J150000D01*
G01*
X90333000Y-70547000D01*
G75*
G02*
X90483000Y-70397000I150000J0D01*
G01*
G37*
G36*
G01*
X91753000Y-70397000D02*
X92053000Y-70397000D01*
G75*
G02*
X92203000Y-70547000I0J-150000D01*
G01*
X92203000Y-72197000D01*
G75*
G02*
X92053000Y-72347000I-150000J0D01*
G01*
X91753000Y-72347000D01*
G75*
G02*
X91603000Y-72197000I0J150000D01*
G01*
X91603000Y-70547000D01*
G75*
G02*
X91753000Y-70397000I150000J0D01*
G01*
G37*
G36*
G01*
X93023000Y-70397000D02*
X93323000Y-70397000D01*
G75*
G02*
X93473000Y-70547000I0J-150000D01*
G01*
X93473000Y-72197000D01*
G75*
G02*
X93323000Y-72347000I-150000J0D01*
G01*
X93023000Y-72347000D01*
G75*
G02*
X92873000Y-72197000I0J150000D01*
G01*
X92873000Y-70547000D01*
G75*
G02*
X93023000Y-70397000I150000J0D01*
G01*
G37*
%TD*%
%TO.C,R16*%
G36*
G01*
X114617000Y-67772000D02*
X114617000Y-67222000D01*
G75*
G02*
X114817000Y-67022000I200000J0D01*
G01*
X115217000Y-67022000D01*
G75*
G02*
X115417000Y-67222000I0J-200000D01*
G01*
X115417000Y-67772000D01*
G75*
G02*
X115217000Y-67972000I-200000J0D01*
G01*
X114817000Y-67972000D01*
G75*
G02*
X114617000Y-67772000I0J200000D01*
G01*
G37*
G36*
G01*
X112967000Y-67772000D02*
X112967000Y-67222000D01*
G75*
G02*
X113167000Y-67022000I200000J0D01*
G01*
X113567000Y-67022000D01*
G75*
G02*
X113767000Y-67222000I0J-200000D01*
G01*
X113767000Y-67772000D01*
G75*
G02*
X113567000Y-67972000I-200000J0D01*
G01*
X113167000Y-67972000D01*
G75*
G02*
X112967000Y-67772000I0J200000D01*
G01*
G37*
%TD*%
%TO.C,R14*%
G36*
G01*
X114616000Y-69613500D02*
X114616000Y-69063500D01*
G75*
G02*
X114816000Y-68863500I200000J0D01*
G01*
X115216000Y-68863500D01*
G75*
G02*
X115416000Y-69063500I0J-200000D01*
G01*
X115416000Y-69613500D01*
G75*
G02*
X115216000Y-69813500I-200000J0D01*
G01*
X114816000Y-69813500D01*
G75*
G02*
X114616000Y-69613500I0J200000D01*
G01*
G37*
G36*
G01*
X112966000Y-69613500D02*
X112966000Y-69063500D01*
G75*
G02*
X113166000Y-68863500I200000J0D01*
G01*
X113566000Y-68863500D01*
G75*
G02*
X113766000Y-69063500I0J-200000D01*
G01*
X113766000Y-69613500D01*
G75*
G02*
X113566000Y-69813500I-200000J0D01*
G01*
X113166000Y-69813500D01*
G75*
G02*
X112966000Y-69613500I0J200000D01*
G01*
G37*
%TD*%
%TO.C,R4*%
G36*
G01*
X106019000Y-67222000D02*
X106019000Y-67772000D01*
G75*
G02*
X105819000Y-67972000I-200000J0D01*
G01*
X105419000Y-67972000D01*
G75*
G02*
X105219000Y-67772000I0J200000D01*
G01*
X105219000Y-67222000D01*
G75*
G02*
X105419000Y-67022000I200000J0D01*
G01*
X105819000Y-67022000D01*
G75*
G02*
X106019000Y-67222000I0J-200000D01*
G01*
G37*
G36*
G01*
X107669000Y-67222000D02*
X107669000Y-67772000D01*
G75*
G02*
X107469000Y-67972000I-200000J0D01*
G01*
X107069000Y-67972000D01*
G75*
G02*
X106869000Y-67772000I0J200000D01*
G01*
X106869000Y-67222000D01*
G75*
G02*
X107069000Y-67022000I200000J0D01*
G01*
X107469000Y-67022000D01*
G75*
G02*
X107669000Y-67222000I0J-200000D01*
G01*
G37*
%TD*%
%TO.C,R2*%
G36*
G01*
X106869000Y-69296000D02*
X106869000Y-68746000D01*
G75*
G02*
X107069000Y-68546000I200000J0D01*
G01*
X107469000Y-68546000D01*
G75*
G02*
X107669000Y-68746000I0J-200000D01*
G01*
X107669000Y-69296000D01*
G75*
G02*
X107469000Y-69496000I-200000J0D01*
G01*
X107069000Y-69496000D01*
G75*
G02*
X106869000Y-69296000I0J200000D01*
G01*
G37*
G36*
G01*
X105219000Y-69296000D02*
X105219000Y-68746000D01*
G75*
G02*
X105419000Y-68546000I200000J0D01*
G01*
X105819000Y-68546000D01*
G75*
G02*
X106019000Y-68746000I0J-200000D01*
G01*
X106019000Y-69296000D01*
G75*
G02*
X105819000Y-69496000I-200000J0D01*
G01*
X105419000Y-69496000D01*
G75*
G02*
X105219000Y-69296000I0J200000D01*
G01*
G37*
%TD*%
D24*
%TO.C,Q6*%
X117491000Y-69560500D03*
X116541000Y-67560500D03*
X118441000Y-67560500D03*
%TD*%
D18*
%TO.C,Q2*%
X102095000Y-68510500D03*
X104095000Y-67560500D03*
X104095000Y-69460500D03*
%TD*%
%TO.C,C10*%
G36*
G01*
X91072000Y-78669000D02*
X91072000Y-78169000D01*
G75*
G02*
X91297000Y-77944000I225000J0D01*
G01*
X91747000Y-77944000D01*
G75*
G02*
X91972000Y-78169000I0J-225000D01*
G01*
X91972000Y-78669000D01*
G75*
G02*
X91747000Y-78894000I-225000J0D01*
G01*
X91297000Y-78894000D01*
G75*
G02*
X91072000Y-78669000I0J225000D01*
G01*
G37*
G36*
G01*
X89522000Y-78669000D02*
X89522000Y-78169000D01*
G75*
G02*
X89747000Y-77944000I225000J0D01*
G01*
X90197000Y-77944000D01*
G75*
G02*
X90422000Y-78169000I0J-225000D01*
G01*
X90422000Y-78669000D01*
G75*
G02*
X90197000Y-78894000I-225000J0D01*
G01*
X89747000Y-78894000D01*
G75*
G02*
X89522000Y-78669000I0J225000D01*
G01*
G37*
%TD*%
%TO.C,C8*%
G36*
G01*
X91580000Y-69525000D02*
X91580000Y-69025000D01*
G75*
G02*
X91805000Y-68800000I225000J0D01*
G01*
X92255000Y-68800000D01*
G75*
G02*
X92480000Y-69025000I0J-225000D01*
G01*
X92480000Y-69525000D01*
G75*
G02*
X92255000Y-69750000I-225000J0D01*
G01*
X91805000Y-69750000D01*
G75*
G02*
X91580000Y-69525000I0J225000D01*
G01*
G37*
G36*
G01*
X90030000Y-69525000D02*
X90030000Y-69025000D01*
G75*
G02*
X90255000Y-68800000I225000J0D01*
G01*
X90705000Y-68800000D01*
G75*
G02*
X90930000Y-69025000I0J-225000D01*
G01*
X90930000Y-69525000D01*
G75*
G02*
X90705000Y-69750000I-225000J0D01*
G01*
X90255000Y-69750000D01*
G75*
G02*
X90030000Y-69525000I0J225000D01*
G01*
G37*
%TD*%
D14*
%TO.C,K2*%
X116287000Y-71942000D03*
D15*
X116287000Y-74482000D03*
X116287000Y-79562000D03*
X116287000Y-84642000D03*
X116287000Y-89722000D03*
X123907000Y-89722000D03*
X123907000Y-84642000D03*
X123907000Y-79562000D03*
X123907000Y-74482000D03*
X123907000Y-71942000D03*
%TD*%
D21*
%TO.C,J1*%
X107270000Y-89468000D03*
D20*
X109810000Y-89468000D03*
X112350000Y-89468000D03*
%TD*%
D19*
%TO.C,U2*%
X112722000Y-72491000D03*
X112722000Y-73141000D03*
X112722000Y-73791000D03*
X112722000Y-74441000D03*
X108422000Y-74441000D03*
X108422000Y-73791000D03*
X108422000Y-73141000D03*
X108422000Y-72491000D03*
%TD*%
D12*
%TO.C,TP1*%
X87140500Y-83118000D03*
%TD*%
%TO.C,R12*%
G36*
G01*
X86802000Y-75859000D02*
X87352000Y-75859000D01*
G75*
G02*
X87552000Y-76059000I0J-200000D01*
G01*
X87552000Y-76459000D01*
G75*
G02*
X87352000Y-76659000I-200000J0D01*
G01*
X86802000Y-76659000D01*
G75*
G02*
X86602000Y-76459000I0J200000D01*
G01*
X86602000Y-76059000D01*
G75*
G02*
X86802000Y-75859000I200000J0D01*
G01*
G37*
G36*
G01*
X86802000Y-74209000D02*
X87352000Y-74209000D01*
G75*
G02*
X87552000Y-74409000I0J-200000D01*
G01*
X87552000Y-74809000D01*
G75*
G02*
X87352000Y-75009000I-200000J0D01*
G01*
X86802000Y-75009000D01*
G75*
G02*
X86602000Y-74809000I0J200000D01*
G01*
X86602000Y-74409000D01*
G75*
G02*
X86802000Y-74209000I200000J0D01*
G01*
G37*
%TD*%
%TO.C,R11*%
G36*
G01*
X86802000Y-79542000D02*
X87352000Y-79542000D01*
G75*
G02*
X87552000Y-79742000I0J-200000D01*
G01*
X87552000Y-80142000D01*
G75*
G02*
X87352000Y-80342000I-200000J0D01*
G01*
X86802000Y-80342000D01*
G75*
G02*
X86602000Y-80142000I0J200000D01*
G01*
X86602000Y-79742000D01*
G75*
G02*
X86802000Y-79542000I200000J0D01*
G01*
G37*
G36*
G01*
X86802000Y-77892000D02*
X87352000Y-77892000D01*
G75*
G02*
X87552000Y-78092000I0J-200000D01*
G01*
X87552000Y-78492000D01*
G75*
G02*
X87352000Y-78692000I-200000J0D01*
G01*
X86802000Y-78692000D01*
G75*
G02*
X86602000Y-78492000I0J200000D01*
G01*
X86602000Y-78092000D01*
G75*
G02*
X86802000Y-77892000I200000J0D01*
G01*
G37*
%TD*%
%TO.C,R8*%
G36*
G01*
X82272000Y-77486500D02*
X81722000Y-77486500D01*
G75*
G02*
X81522000Y-77286500I0J200000D01*
G01*
X81522000Y-76886500D01*
G75*
G02*
X81722000Y-76686500I200000J0D01*
G01*
X82272000Y-76686500D01*
G75*
G02*
X82472000Y-76886500I0J-200000D01*
G01*
X82472000Y-77286500D01*
G75*
G02*
X82272000Y-77486500I-200000J0D01*
G01*
G37*
G36*
G01*
X82272000Y-79136500D02*
X81722000Y-79136500D01*
G75*
G02*
X81522000Y-78936500I0J200000D01*
G01*
X81522000Y-78536500D01*
G75*
G02*
X81722000Y-78336500I200000J0D01*
G01*
X82272000Y-78336500D01*
G75*
G02*
X82472000Y-78536500I0J-200000D01*
G01*
X82472000Y-78936500D01*
G75*
G02*
X82272000Y-79136500I-200000J0D01*
G01*
G37*
%TD*%
%TO.C,R7*%
G36*
G01*
X81722000Y-81447000D02*
X82272000Y-81447000D01*
G75*
G02*
X82472000Y-81647000I0J-200000D01*
G01*
X82472000Y-82047000D01*
G75*
G02*
X82272000Y-82247000I-200000J0D01*
G01*
X81722000Y-82247000D01*
G75*
G02*
X81522000Y-82047000I0J200000D01*
G01*
X81522000Y-81647000D01*
G75*
G02*
X81722000Y-81447000I200000J0D01*
G01*
G37*
G36*
G01*
X81722000Y-79797000D02*
X82272000Y-79797000D01*
G75*
G02*
X82472000Y-79997000I0J-200000D01*
G01*
X82472000Y-80397000D01*
G75*
G02*
X82272000Y-80597000I-200000J0D01*
G01*
X81722000Y-80597000D01*
G75*
G02*
X81522000Y-80397000I0J200000D01*
G01*
X81522000Y-79997000D01*
G75*
G02*
X81722000Y-79797000I200000J0D01*
G01*
G37*
%TD*%
%TO.C,R20*%
G36*
G01*
X122870000Y-69129000D02*
X123420000Y-69129000D01*
G75*
G02*
X123620000Y-69329000I0J-200000D01*
G01*
X123620000Y-69729000D01*
G75*
G02*
X123420000Y-69929000I-200000J0D01*
G01*
X122870000Y-69929000D01*
G75*
G02*
X122670000Y-69729000I0J200000D01*
G01*
X122670000Y-69329000D01*
G75*
G02*
X122870000Y-69129000I200000J0D01*
G01*
G37*
G36*
G01*
X122870000Y-67479000D02*
X123420000Y-67479000D01*
G75*
G02*
X123620000Y-67679000I0J-200000D01*
G01*
X123620000Y-68079000D01*
G75*
G02*
X123420000Y-68279000I-200000J0D01*
G01*
X122870000Y-68279000D01*
G75*
G02*
X122670000Y-68079000I0J200000D01*
G01*
X122670000Y-67679000D01*
G75*
G02*
X122870000Y-67479000I200000J0D01*
G01*
G37*
%TD*%
%TO.C,R19*%
G36*
G01*
X124394000Y-69129000D02*
X124944000Y-69129000D01*
G75*
G02*
X125144000Y-69329000I0J-200000D01*
G01*
X125144000Y-69729000D01*
G75*
G02*
X124944000Y-69929000I-200000J0D01*
G01*
X124394000Y-69929000D01*
G75*
G02*
X124194000Y-69729000I0J200000D01*
G01*
X124194000Y-69329000D01*
G75*
G02*
X124394000Y-69129000I200000J0D01*
G01*
G37*
G36*
G01*
X124394000Y-67479000D02*
X124944000Y-67479000D01*
G75*
G02*
X125144000Y-67679000I0J-200000D01*
G01*
X125144000Y-68079000D01*
G75*
G02*
X124944000Y-68279000I-200000J0D01*
G01*
X124394000Y-68279000D01*
G75*
G02*
X124194000Y-68079000I0J200000D01*
G01*
X124194000Y-67679000D01*
G75*
G02*
X124394000Y-67479000I200000J0D01*
G01*
G37*
%TD*%
%TO.C,R10*%
G36*
G01*
X95692000Y-69129000D02*
X96242000Y-69129000D01*
G75*
G02*
X96442000Y-69329000I0J-200000D01*
G01*
X96442000Y-69729000D01*
G75*
G02*
X96242000Y-69929000I-200000J0D01*
G01*
X95692000Y-69929000D01*
G75*
G02*
X95492000Y-69729000I0J200000D01*
G01*
X95492000Y-69329000D01*
G75*
G02*
X95692000Y-69129000I200000J0D01*
G01*
G37*
G36*
G01*
X95692000Y-67479000D02*
X96242000Y-67479000D01*
G75*
G02*
X96442000Y-67679000I0J-200000D01*
G01*
X96442000Y-68079000D01*
G75*
G02*
X96242000Y-68279000I-200000J0D01*
G01*
X95692000Y-68279000D01*
G75*
G02*
X95492000Y-68079000I0J200000D01*
G01*
X95492000Y-67679000D01*
G75*
G02*
X95692000Y-67479000I200000J0D01*
G01*
G37*
%TD*%
%TO.C,R9*%
G36*
G01*
X97216000Y-69129000D02*
X97766000Y-69129000D01*
G75*
G02*
X97966000Y-69329000I0J-200000D01*
G01*
X97966000Y-69729000D01*
G75*
G02*
X97766000Y-69929000I-200000J0D01*
G01*
X97216000Y-69929000D01*
G75*
G02*
X97016000Y-69729000I0J200000D01*
G01*
X97016000Y-69329000D01*
G75*
G02*
X97216000Y-69129000I200000J0D01*
G01*
G37*
G36*
G01*
X97216000Y-67479000D02*
X97766000Y-67479000D01*
G75*
G02*
X97966000Y-67679000I0J-200000D01*
G01*
X97966000Y-68079000D01*
G75*
G02*
X97766000Y-68279000I-200000J0D01*
G01*
X97216000Y-68279000D01*
G75*
G02*
X97016000Y-68079000I0J200000D01*
G01*
X97016000Y-67679000D01*
G75*
G02*
X97216000Y-67479000I200000J0D01*
G01*
G37*
%TD*%
%TO.C,R18*%
G36*
G01*
X121221000Y-68153000D02*
X121221000Y-67603000D01*
G75*
G02*
X121421000Y-67403000I200000J0D01*
G01*
X121821000Y-67403000D01*
G75*
G02*
X122021000Y-67603000I0J-200000D01*
G01*
X122021000Y-68153000D01*
G75*
G02*
X121821000Y-68353000I-200000J0D01*
G01*
X121421000Y-68353000D01*
G75*
G02*
X121221000Y-68153000I0J200000D01*
G01*
G37*
G36*
G01*
X119571000Y-68153000D02*
X119571000Y-67603000D01*
G75*
G02*
X119771000Y-67403000I200000J0D01*
G01*
X120171000Y-67403000D01*
G75*
G02*
X120371000Y-67603000I0J-200000D01*
G01*
X120371000Y-68153000D01*
G75*
G02*
X120171000Y-68353000I-200000J0D01*
G01*
X119771000Y-68353000D01*
G75*
G02*
X119571000Y-68153000I0J200000D01*
G01*
G37*
%TD*%
%TO.C,R6*%
G36*
G01*
X99415000Y-67603000D02*
X99415000Y-68153000D01*
G75*
G02*
X99215000Y-68353000I-200000J0D01*
G01*
X98815000Y-68353000D01*
G75*
G02*
X98615000Y-68153000I0J200000D01*
G01*
X98615000Y-67603000D01*
G75*
G02*
X98815000Y-67403000I200000J0D01*
G01*
X99215000Y-67403000D01*
G75*
G02*
X99415000Y-67603000I0J-200000D01*
G01*
G37*
G36*
G01*
X101065000Y-67603000D02*
X101065000Y-68153000D01*
G75*
G02*
X100865000Y-68353000I-200000J0D01*
G01*
X100465000Y-68353000D01*
G75*
G02*
X100265000Y-68153000I0J200000D01*
G01*
X100265000Y-67603000D01*
G75*
G02*
X100465000Y-67403000I200000J0D01*
G01*
X100865000Y-67403000D01*
G75*
G02*
X101065000Y-67603000I0J-200000D01*
G01*
G37*
%TD*%
D18*
%TO.C,Q4*%
X83521000Y-75432000D03*
X85521000Y-74482000D03*
X85521000Y-76382000D03*
%TD*%
%TO.C,Q3*%
X83521000Y-79054000D03*
X85521000Y-78104000D03*
X85521000Y-80004000D03*
%TD*%
D17*
%TO.C,PS1*%
X91141000Y-89849000D03*
X88601000Y-89849000D03*
X86061000Y-89849000D03*
D16*
X83521000Y-89849000D03*
%TD*%
D15*
%TO.C,K1*%
X103333000Y-71942000D03*
X103333000Y-74482000D03*
X103333000Y-79562000D03*
X103333000Y-84642000D03*
X103333000Y-89722000D03*
X95713000Y-89722000D03*
X95713000Y-84642000D03*
X95713000Y-79562000D03*
X95713000Y-74482000D03*
D14*
X95713000Y-71942000D03*
%TD*%
D13*
%TO.C,JP1*%
G36*
X89871000Y-82679000D02*
G01*
X90621000Y-83179000D01*
X90621000Y-84179000D01*
X89121000Y-84179000D01*
X89121000Y-83179000D01*
X89871000Y-82679000D01*
G37*
G36*
X90621000Y-81729000D02*
G01*
X90621000Y-82879000D01*
X89871000Y-82379000D01*
X89121000Y-82879000D01*
X89121000Y-81729000D01*
X90621000Y-81729000D01*
G37*
%TD*%
D12*
%TO.C,C7*%
X129241000Y-88045000D03*
X129241000Y-70545000D03*
%TD*%
%TO.C,C13*%
G36*
G01*
X110895000Y-70549000D02*
X110895000Y-71049000D01*
G75*
G02*
X110670000Y-71274000I-225000J0D01*
G01*
X110220000Y-71274000D01*
G75*
G02*
X109995000Y-71049000I0J225000D01*
G01*
X109995000Y-70549000D01*
G75*
G02*
X110220000Y-70324000I225000J0D01*
G01*
X110670000Y-70324000D01*
G75*
G02*
X110895000Y-70549000I0J-225000D01*
G01*
G37*
G36*
G01*
X112445000Y-70549000D02*
X112445000Y-71049000D01*
G75*
G02*
X112220000Y-71274000I-225000J0D01*
G01*
X111770000Y-71274000D01*
G75*
G02*
X111545000Y-71049000I0J225000D01*
G01*
X111545000Y-70549000D01*
G75*
G02*
X111770000Y-70324000I225000J0D01*
G01*
X112220000Y-70324000D01*
G75*
G02*
X112445000Y-70549000I0J-225000D01*
G01*
G37*
%TD*%
M02*
