M48
; DRILL file {KiCad (5.1.10)-1} date 01/18/22 18:11:09
; FORMAT={3:3/ absolute / metric / keep zeros}
; #@! TF.CreationDate,2022-01-18T18:11:09+07:00
; #@! TF.GenerationSoftware,Kicad,Pcbnew,(5.1.10)-1
; #@! TF.FileFunction,Plated,1,4,PTH
FMAT,2
METRIC
T1C0.400
T2C0.650
T3C0.700
T4C1.000
T5C1.075
T6C1.200
%
G90
G05
T1
X045497Y-050737
X045497Y-052197
X045497Y-075736
X045497Y-077197
X047021Y-047432
X047021Y-072432
X050577Y-048260
X050577Y-051943
X050577Y-073260
X050577Y-076943
X053472Y-050419
X053472Y-075419
X053980Y-041275
X053980Y-066275
X054133Y-046736
X054133Y-071736
X055403Y-046736
X055403Y-071736
X059467Y-039878
X059467Y-041529
X059467Y-064878
X059467Y-066529
X060991Y-039878
X060991Y-041529
X060991Y-064878
X060991Y-066529
X067595Y-039561
X067595Y-064560
X069119Y-039497
X069119Y-064497
X070897Y-043688
X070897Y-068688
X072997Y-045631
X072997Y-070631
X073945Y-042799
X073945Y-067799
X075116Y-046016
X075116Y-071016
X075116Y-044916
X075116Y-069916
X075495Y-042799
X075495Y-067799
X077333Y-046441
X077333Y-071441
X077755Y-042661
X077755Y-067661
X078517Y-039497
X078517Y-064497
X080041Y-039561
X080041Y-064560
X086645Y-039878
X086645Y-041529
X086645Y-064878
X086645Y-066529
X088169Y-039878
X088169Y-041529
X088169Y-064878
X088169Y-066529
T2
X045751Y-043180
X045751Y-044450
X045751Y-068180
X045751Y-069450
X047021Y-043180
X047021Y-044450
X047021Y-068180
X047021Y-069450
X048291Y-043180
X048291Y-044450
X048291Y-068180
X048291Y-069450
T3
X053371Y-057658
X053371Y-082658
X054895Y-053340
X054895Y-078340
T4
X050640Y-055118
X050640Y-080118
X059213Y-043942
X059213Y-046482
X059213Y-051562
X059213Y-056642
X059213Y-061722
X059213Y-068942
X059213Y-071482
X059213Y-076562
X059213Y-081642
X059213Y-086722
X066833Y-043942
X066833Y-046482
X066833Y-051562
X066833Y-056642
X066833Y-061722
X066833Y-068942
X066833Y-071482
X066833Y-076562
X066833Y-081642
X066833Y-086722
X070770Y-061468
X070770Y-086468
X073310Y-061468
X073310Y-086468
X075850Y-061468
X075850Y-086468
X079787Y-043942
X079787Y-046482
X079787Y-051562
X079787Y-056642
X079787Y-061722
X079787Y-068942
X079787Y-071482
X079787Y-076562
X079787Y-081642
X079787Y-086722
X087407Y-043942
X087407Y-046482
X087407Y-051562
X087407Y-056642
X087407Y-061722
X087407Y-068942
X087407Y-071482
X087407Y-076562
X087407Y-081642
X087407Y-086722
T5
X047021Y-061849
X047021Y-086849
X049561Y-061849
X049561Y-086849
X052101Y-061849
X052101Y-086849
X054641Y-061849
X054641Y-086849
T6
X062113Y-059182
X062113Y-084182
X084613Y-059182
X084613Y-084182
X092741Y-042545
X092741Y-060045
X092741Y-067545
X092741Y-085045
T0
M30
