%TF.GenerationSoftware,KiCad,Pcbnew,(5.1.10)-1*%
%TF.CreationDate,2022-01-17T19:26:08+07:00*%
%TF.ProjectId,Fan_controller_v3_pnlz1x2,46616e5f-636f-46e7-9472-6f6c6c65725f,rev?*%
%TF.SameCoordinates,Original*%
%TF.FileFunction,Copper,L1,Top*%
%TF.FilePolarity,Positive*%
%FSLAX46Y46*%
G04 Gerber Fmt 4.6, Leading zero omitted, Abs format (unit mm)*
G04 Created by KiCad (PCBNEW (5.1.10)-1) date 2022-01-17 19:26:08*
%MOMM*%
%LPD*%
G01*
G04 APERTURE LIST*
%TA.AperFunction,ComponentPad*%
%ADD10C,2.000000*%
%TD*%
%TA.AperFunction,SMDPad,CuDef*%
%ADD11C,0.020000*%
%TD*%
%TA.AperFunction,ComponentPad*%
%ADD12R,1.600000X1.600000*%
%TD*%
%TA.AperFunction,ComponentPad*%
%ADD13C,1.600000*%
%TD*%
%TA.AperFunction,ComponentPad*%
%ADD14R,1.750000X2.250000*%
%TD*%
%TA.AperFunction,ComponentPad*%
%ADD15O,1.750000X2.250000*%
%TD*%
%TA.AperFunction,SMDPad,CuDef*%
%ADD16R,0.900000X0.800000*%
%TD*%
%TA.AperFunction,SMDPad,CuDef*%
%ADD17R,1.100000X0.400000*%
%TD*%
%TA.AperFunction,ComponentPad*%
%ADD18O,1.700000X1.700000*%
%TD*%
%TA.AperFunction,ComponentPad*%
%ADD19R,1.700000X1.700000*%
%TD*%
%TA.AperFunction,ComponentPad*%
%ADD20R,1.000000X1.000000*%
%TD*%
%TA.AperFunction,ComponentPad*%
%ADD21O,1.000000X1.000000*%
%TD*%
%TA.AperFunction,SMDPad,CuDef*%
%ADD22R,0.800000X0.900000*%
%TD*%
%TA.AperFunction,ViaPad*%
%ADD23C,0.800000*%
%TD*%
%TA.AperFunction,ViaPad*%
%ADD24C,1.200000*%
%TD*%
%TA.AperFunction,Conductor*%
%ADD25C,0.500000*%
%TD*%
%TA.AperFunction,Conductor*%
%ADD26C,0.800000*%
%TD*%
%TA.AperFunction,Conductor*%
%ADD27C,0.300000*%
%TD*%
%TA.AperFunction,Conductor*%
%ADD28C,1.000000*%
%TD*%
%TA.AperFunction,Conductor*%
%ADD29C,0.600000*%
%TD*%
%TA.AperFunction,Conductor*%
%ADD30C,2.000000*%
%TD*%
%TA.AperFunction,Conductor*%
%ADD31C,0.400000*%
%TD*%
G04 APERTURE END LIST*
%TO.P,C13,1*%
%TO.N,+5VP*%
%TA.AperFunction,SMDPad,CuDef*%
G36*
G01*
X112445000Y-95549000D02*
X112445000Y-96049000D01*
G75*
G02*
X112220000Y-96274000I-225000J0D01*
G01*
X111770000Y-96274000D01*
G75*
G02*
X111545000Y-96049000I0J225000D01*
G01*
X111545000Y-95549000D01*
G75*
G02*
X111770000Y-95324000I225000J0D01*
G01*
X112220000Y-95324000D01*
G75*
G02*
X112445000Y-95549000I0J-225000D01*
G01*
G37*
%TD.AperFunction*%
%TO.P,C13,2*%
%TO.N,GND2*%
%TA.AperFunction,SMDPad,CuDef*%
G36*
G01*
X110895000Y-95549000D02*
X110895000Y-96049000D01*
G75*
G02*
X110670000Y-96274000I-225000J0D01*
G01*
X110220000Y-96274000D01*
G75*
G02*
X109995000Y-96049000I0J225000D01*
G01*
X109995000Y-95549000D01*
G75*
G02*
X110220000Y-95324000I225000J0D01*
G01*
X110670000Y-95324000D01*
G75*
G02*
X110895000Y-95549000I0J-225000D01*
G01*
G37*
%TD.AperFunction*%
%TD*%
D10*
%TO.P,C7,1*%
%TO.N,Net-(C7-Pad1)*%
X129241000Y-95545000D03*
%TO.P,C7,2*%
%TO.N,Net-(C5-Pad2)*%
X129241000Y-113045000D03*
%TD*%
%TA.AperFunction,SMDPad,CuDef*%
D11*
%TO.P,JP1,2*%
%TO.N,+5VP*%
G36*
X90621000Y-106729000D02*
G01*
X90621000Y-107879000D01*
X89871000Y-107379000D01*
X89121000Y-107879000D01*
X89121000Y-106729000D01*
X90621000Y-106729000D01*
G37*
%TD.AperFunction*%
%TA.AperFunction,SMDPad,CuDef*%
%TO.P,JP1,1*%
%TO.N,Net-(C6-Pad2)*%
G36*
X89871000Y-107679000D02*
G01*
X90621000Y-108179000D01*
X90621000Y-109179000D01*
X89121000Y-109179000D01*
X89121000Y-108179000D01*
X89871000Y-107679000D01*
G37*
%TD.AperFunction*%
%TD*%
D12*
%TO.P,K1,1*%
%TO.N,+5VP*%
X95713000Y-96942000D03*
D13*
%TO.P,K1,2*%
X95713000Y-99482000D03*
%TO.P,K1,4*%
%TO.N,Net-(C5-Pad1)*%
X95713000Y-104562000D03*
%TO.P,K1,6*%
%TO.N,Net-(C7-Pad1)*%
X95713000Y-109642000D03*
%TO.P,K1,8*%
%TO.N,Net-(K1-Pad8)*%
X95713000Y-114722000D03*
%TO.P,K1,9*%
X103333000Y-114722000D03*
%TO.P,K1,11*%
%TO.N,Net-(C5-Pad2)*%
X103333000Y-109642000D03*
%TO.P,K1,13*%
%TO.N,Net-(J1-Pad1)*%
X103333000Y-104562000D03*
%TO.P,K1,15*%
%TO.N,Net-(C4-Pad2)*%
X103333000Y-99482000D03*
%TO.P,K1,16*%
%TO.N,Net-(C3-Pad2)*%
X103333000Y-96942000D03*
%TD*%
D14*
%TO.P,PS1,1*%
%TO.N,GND1*%
X83521000Y-114849000D03*
D15*
%TO.P,PS1,2*%
%TO.N,+5P*%
X86061000Y-114849000D03*
%TO.P,PS1,3*%
%TO.N,GND2*%
X88601000Y-114849000D03*
%TO.P,PS1,4*%
%TO.N,Net-(C6-Pad2)*%
X91141000Y-114849000D03*
%TD*%
D16*
%TO.P,Q3,1*%
%TO.N,+5P*%
X85521000Y-105004000D03*
%TO.P,Q3,2*%
%TO.N,Net-(Q3-Pad2)*%
X85521000Y-103104000D03*
%TO.P,Q3,3*%
%TO.N,/sda0*%
X83521000Y-104054000D03*
%TD*%
%TO.P,Q4,1*%
%TO.N,+5P*%
X85521000Y-101382000D03*
%TO.P,Q4,2*%
%TO.N,Net-(Q4-Pad2)*%
X85521000Y-99482000D03*
%TO.P,Q4,3*%
%TO.N,/scl0*%
X83521000Y-100432000D03*
%TD*%
%TO.P,R6,1*%
%TO.N,Net-(Q2-Pad3)*%
%TA.AperFunction,SMDPad,CuDef*%
G36*
G01*
X101065000Y-92603000D02*
X101065000Y-93153000D01*
G75*
G02*
X100865000Y-93353000I-200000J0D01*
G01*
X100465000Y-93353000D01*
G75*
G02*
X100265000Y-93153000I0J200000D01*
G01*
X100265000Y-92603000D01*
G75*
G02*
X100465000Y-92403000I200000J0D01*
G01*
X100865000Y-92403000D01*
G75*
G02*
X101065000Y-92603000I0J-200000D01*
G01*
G37*
%TD.AperFunction*%
%TO.P,R6,2*%
%TO.N,Net-(C4-Pad1)*%
%TA.AperFunction,SMDPad,CuDef*%
G36*
G01*
X99415000Y-92603000D02*
X99415000Y-93153000D01*
G75*
G02*
X99215000Y-93353000I-200000J0D01*
G01*
X98815000Y-93353000D01*
G75*
G02*
X98615000Y-93153000I0J200000D01*
G01*
X98615000Y-92603000D01*
G75*
G02*
X98815000Y-92403000I200000J0D01*
G01*
X99215000Y-92403000D01*
G75*
G02*
X99415000Y-92603000I0J-200000D01*
G01*
G37*
%TD.AperFunction*%
%TD*%
%TO.P,R18,1*%
%TO.N,Net-(Q6-Pad3)*%
%TA.AperFunction,SMDPad,CuDef*%
G36*
G01*
X119571000Y-93153000D02*
X119571000Y-92603000D01*
G75*
G02*
X119771000Y-92403000I200000J0D01*
G01*
X120171000Y-92403000D01*
G75*
G02*
X120371000Y-92603000I0J-200000D01*
G01*
X120371000Y-93153000D01*
G75*
G02*
X120171000Y-93353000I-200000J0D01*
G01*
X119771000Y-93353000D01*
G75*
G02*
X119571000Y-93153000I0J200000D01*
G01*
G37*
%TD.AperFunction*%
%TO.P,R18,2*%
%TO.N,Net-(C12-Pad1)*%
%TA.AperFunction,SMDPad,CuDef*%
G36*
G01*
X121221000Y-93153000D02*
X121221000Y-92603000D01*
G75*
G02*
X121421000Y-92403000I200000J0D01*
G01*
X121821000Y-92403000D01*
G75*
G02*
X122021000Y-92603000I0J-200000D01*
G01*
X122021000Y-93153000D01*
G75*
G02*
X121821000Y-93353000I-200000J0D01*
G01*
X121421000Y-93353000D01*
G75*
G02*
X121221000Y-93153000I0J200000D01*
G01*
G37*
%TD.AperFunction*%
%TD*%
%TO.P,R9,1*%
%TO.N,Net-(C3-Pad1)*%
%TA.AperFunction,SMDPad,CuDef*%
G36*
G01*
X97216000Y-92479000D02*
X97766000Y-92479000D01*
G75*
G02*
X97966000Y-92679000I0J-200000D01*
G01*
X97966000Y-93079000D01*
G75*
G02*
X97766000Y-93279000I-200000J0D01*
G01*
X97216000Y-93279000D01*
G75*
G02*
X97016000Y-93079000I0J200000D01*
G01*
X97016000Y-92679000D01*
G75*
G02*
X97216000Y-92479000I200000J0D01*
G01*
G37*
%TD.AperFunction*%
%TO.P,R9,2*%
%TO.N,Net-(C3-Pad2)*%
%TA.AperFunction,SMDPad,CuDef*%
G36*
G01*
X97216000Y-94129000D02*
X97766000Y-94129000D01*
G75*
G02*
X97966000Y-94329000I0J-200000D01*
G01*
X97966000Y-94729000D01*
G75*
G02*
X97766000Y-94929000I-200000J0D01*
G01*
X97216000Y-94929000D01*
G75*
G02*
X97016000Y-94729000I0J200000D01*
G01*
X97016000Y-94329000D01*
G75*
G02*
X97216000Y-94129000I200000J0D01*
G01*
G37*
%TD.AperFunction*%
%TD*%
%TO.P,R10,1*%
%TO.N,Net-(C4-Pad1)*%
%TA.AperFunction,SMDPad,CuDef*%
G36*
G01*
X95692000Y-92479000D02*
X96242000Y-92479000D01*
G75*
G02*
X96442000Y-92679000I0J-200000D01*
G01*
X96442000Y-93079000D01*
G75*
G02*
X96242000Y-93279000I-200000J0D01*
G01*
X95692000Y-93279000D01*
G75*
G02*
X95492000Y-93079000I0J200000D01*
G01*
X95492000Y-92679000D01*
G75*
G02*
X95692000Y-92479000I200000J0D01*
G01*
G37*
%TD.AperFunction*%
%TO.P,R10,2*%
%TO.N,Net-(C4-Pad2)*%
%TA.AperFunction,SMDPad,CuDef*%
G36*
G01*
X95692000Y-94129000D02*
X96242000Y-94129000D01*
G75*
G02*
X96442000Y-94329000I0J-200000D01*
G01*
X96442000Y-94729000D01*
G75*
G02*
X96242000Y-94929000I-200000J0D01*
G01*
X95692000Y-94929000D01*
G75*
G02*
X95492000Y-94729000I0J200000D01*
G01*
X95492000Y-94329000D01*
G75*
G02*
X95692000Y-94129000I200000J0D01*
G01*
G37*
%TD.AperFunction*%
%TD*%
%TO.P,R19,1*%
%TO.N,Net-(C11-Pad1)*%
%TA.AperFunction,SMDPad,CuDef*%
G36*
G01*
X124394000Y-92479000D02*
X124944000Y-92479000D01*
G75*
G02*
X125144000Y-92679000I0J-200000D01*
G01*
X125144000Y-93079000D01*
G75*
G02*
X124944000Y-93279000I-200000J0D01*
G01*
X124394000Y-93279000D01*
G75*
G02*
X124194000Y-93079000I0J200000D01*
G01*
X124194000Y-92679000D01*
G75*
G02*
X124394000Y-92479000I200000J0D01*
G01*
G37*
%TD.AperFunction*%
%TO.P,R19,2*%
%TO.N,Net-(C11-Pad2)*%
%TA.AperFunction,SMDPad,CuDef*%
G36*
G01*
X124394000Y-94129000D02*
X124944000Y-94129000D01*
G75*
G02*
X125144000Y-94329000I0J-200000D01*
G01*
X125144000Y-94729000D01*
G75*
G02*
X124944000Y-94929000I-200000J0D01*
G01*
X124394000Y-94929000D01*
G75*
G02*
X124194000Y-94729000I0J200000D01*
G01*
X124194000Y-94329000D01*
G75*
G02*
X124394000Y-94129000I200000J0D01*
G01*
G37*
%TD.AperFunction*%
%TD*%
%TO.P,R20,1*%
%TO.N,Net-(C12-Pad1)*%
%TA.AperFunction,SMDPad,CuDef*%
G36*
G01*
X122870000Y-92479000D02*
X123420000Y-92479000D01*
G75*
G02*
X123620000Y-92679000I0J-200000D01*
G01*
X123620000Y-93079000D01*
G75*
G02*
X123420000Y-93279000I-200000J0D01*
G01*
X122870000Y-93279000D01*
G75*
G02*
X122670000Y-93079000I0J200000D01*
G01*
X122670000Y-92679000D01*
G75*
G02*
X122870000Y-92479000I200000J0D01*
G01*
G37*
%TD.AperFunction*%
%TO.P,R20,2*%
%TO.N,Net-(C12-Pad2)*%
%TA.AperFunction,SMDPad,CuDef*%
G36*
G01*
X122870000Y-94129000D02*
X123420000Y-94129000D01*
G75*
G02*
X123620000Y-94329000I0J-200000D01*
G01*
X123620000Y-94729000D01*
G75*
G02*
X123420000Y-94929000I-200000J0D01*
G01*
X122870000Y-94929000D01*
G75*
G02*
X122670000Y-94729000I0J200000D01*
G01*
X122670000Y-94329000D01*
G75*
G02*
X122870000Y-94129000I200000J0D01*
G01*
G37*
%TD.AperFunction*%
%TD*%
%TO.P,R7,1*%
%TO.N,/sda0*%
%TA.AperFunction,SMDPad,CuDef*%
G36*
G01*
X81722000Y-104797000D02*
X82272000Y-104797000D01*
G75*
G02*
X82472000Y-104997000I0J-200000D01*
G01*
X82472000Y-105397000D01*
G75*
G02*
X82272000Y-105597000I-200000J0D01*
G01*
X81722000Y-105597000D01*
G75*
G02*
X81522000Y-105397000I0J200000D01*
G01*
X81522000Y-104997000D01*
G75*
G02*
X81722000Y-104797000I200000J0D01*
G01*
G37*
%TD.AperFunction*%
%TO.P,R7,2*%
%TO.N,+5P*%
%TA.AperFunction,SMDPad,CuDef*%
G36*
G01*
X81722000Y-106447000D02*
X82272000Y-106447000D01*
G75*
G02*
X82472000Y-106647000I0J-200000D01*
G01*
X82472000Y-107047000D01*
G75*
G02*
X82272000Y-107247000I-200000J0D01*
G01*
X81722000Y-107247000D01*
G75*
G02*
X81522000Y-107047000I0J200000D01*
G01*
X81522000Y-106647000D01*
G75*
G02*
X81722000Y-106447000I200000J0D01*
G01*
G37*
%TD.AperFunction*%
%TD*%
%TO.P,R8,1*%
%TO.N,/scl0*%
%TA.AperFunction,SMDPad,CuDef*%
G36*
G01*
X82272000Y-104136500D02*
X81722000Y-104136500D01*
G75*
G02*
X81522000Y-103936500I0J200000D01*
G01*
X81522000Y-103536500D01*
G75*
G02*
X81722000Y-103336500I200000J0D01*
G01*
X82272000Y-103336500D01*
G75*
G02*
X82472000Y-103536500I0J-200000D01*
G01*
X82472000Y-103936500D01*
G75*
G02*
X82272000Y-104136500I-200000J0D01*
G01*
G37*
%TD.AperFunction*%
%TO.P,R8,2*%
%TO.N,+5P*%
%TA.AperFunction,SMDPad,CuDef*%
G36*
G01*
X82272000Y-102486500D02*
X81722000Y-102486500D01*
G75*
G02*
X81522000Y-102286500I0J200000D01*
G01*
X81522000Y-101886500D01*
G75*
G02*
X81722000Y-101686500I200000J0D01*
G01*
X82272000Y-101686500D01*
G75*
G02*
X82472000Y-101886500I0J-200000D01*
G01*
X82472000Y-102286500D01*
G75*
G02*
X82272000Y-102486500I-200000J0D01*
G01*
G37*
%TD.AperFunction*%
%TD*%
%TO.P,R11,1*%
%TO.N,Net-(Q3-Pad2)*%
%TA.AperFunction,SMDPad,CuDef*%
G36*
G01*
X86802000Y-102892000D02*
X87352000Y-102892000D01*
G75*
G02*
X87552000Y-103092000I0J-200000D01*
G01*
X87552000Y-103492000D01*
G75*
G02*
X87352000Y-103692000I-200000J0D01*
G01*
X86802000Y-103692000D01*
G75*
G02*
X86602000Y-103492000I0J200000D01*
G01*
X86602000Y-103092000D01*
G75*
G02*
X86802000Y-102892000I200000J0D01*
G01*
G37*
%TD.AperFunction*%
%TO.P,R11,2*%
%TO.N,+5P*%
%TA.AperFunction,SMDPad,CuDef*%
G36*
G01*
X86802000Y-104542000D02*
X87352000Y-104542000D01*
G75*
G02*
X87552000Y-104742000I0J-200000D01*
G01*
X87552000Y-105142000D01*
G75*
G02*
X87352000Y-105342000I-200000J0D01*
G01*
X86802000Y-105342000D01*
G75*
G02*
X86602000Y-105142000I0J200000D01*
G01*
X86602000Y-104742000D01*
G75*
G02*
X86802000Y-104542000I200000J0D01*
G01*
G37*
%TD.AperFunction*%
%TD*%
%TO.P,R12,1*%
%TO.N,Net-(Q4-Pad2)*%
%TA.AperFunction,SMDPad,CuDef*%
G36*
G01*
X86802000Y-99209000D02*
X87352000Y-99209000D01*
G75*
G02*
X87552000Y-99409000I0J-200000D01*
G01*
X87552000Y-99809000D01*
G75*
G02*
X87352000Y-100009000I-200000J0D01*
G01*
X86802000Y-100009000D01*
G75*
G02*
X86602000Y-99809000I0J200000D01*
G01*
X86602000Y-99409000D01*
G75*
G02*
X86802000Y-99209000I200000J0D01*
G01*
G37*
%TD.AperFunction*%
%TO.P,R12,2*%
%TO.N,+5P*%
%TA.AperFunction,SMDPad,CuDef*%
G36*
G01*
X86802000Y-100859000D02*
X87352000Y-100859000D01*
G75*
G02*
X87552000Y-101059000I0J-200000D01*
G01*
X87552000Y-101459000D01*
G75*
G02*
X87352000Y-101659000I-200000J0D01*
G01*
X86802000Y-101659000D01*
G75*
G02*
X86602000Y-101459000I0J200000D01*
G01*
X86602000Y-101059000D01*
G75*
G02*
X86802000Y-100859000I200000J0D01*
G01*
G37*
%TD.AperFunction*%
%TD*%
D10*
%TO.P,TP1,1*%
%TO.N,GND2*%
X87140500Y-108118000D03*
%TD*%
D17*
%TO.P,U2,1*%
%TO.N,/K1_rst*%
X108422000Y-97491000D03*
%TO.P,U2,2*%
%TO.N,/K1_set*%
X108422000Y-98141000D03*
%TO.P,U2,3*%
%TO.N,/K2_rst*%
X108422000Y-98791000D03*
%TO.P,U2,4*%
%TO.N,GND2*%
X108422000Y-99441000D03*
%TO.P,U2,5*%
%TO.N,/K2_set*%
X112722000Y-99441000D03*
%TO.P,U2,6*%
%TO.N,/I2C_SCL*%
X112722000Y-98791000D03*
%TO.P,U2,7*%
%TO.N,/I2C_SDA*%
X112722000Y-98141000D03*
%TO.P,U2,8*%
%TO.N,+5VP*%
X112722000Y-97491000D03*
%TD*%
D18*
%TO.P,J1,3*%
%TO.N,Net-(J1-Pad3)*%
X112350000Y-114468000D03*
%TO.P,J1,2*%
%TO.N,N/C*%
X109810000Y-114468000D03*
D19*
%TO.P,J1,1*%
%TO.N,Net-(J1-Pad1)*%
X107270000Y-114468000D03*
%TD*%
D13*
%TO.P,K2,16*%
%TO.N,Net-(C11-Pad2)*%
X123907000Y-96942000D03*
%TO.P,K2,15*%
%TO.N,Net-(C12-Pad2)*%
X123907000Y-99482000D03*
%TO.P,K2,13*%
%TO.N,Net-(C7-Pad1)*%
X123907000Y-104562000D03*
%TO.P,K2,11*%
%TO.N,Net-(C5-Pad2)*%
X123907000Y-109642000D03*
%TO.P,K2,9*%
%TO.N,Net-(K2-Pad8)*%
X123907000Y-114722000D03*
%TO.P,K2,8*%
X116287000Y-114722000D03*
%TO.P,K2,6*%
%TO.N,Net-(C7-Pad1)*%
X116287000Y-109642000D03*
%TO.P,K2,4*%
%TO.N,Net-(J1-Pad3)*%
X116287000Y-104562000D03*
%TO.P,K2,2*%
%TO.N,+5VP*%
X116287000Y-99482000D03*
D12*
%TO.P,K2,1*%
X116287000Y-96942000D03*
%TD*%
%TO.P,C8,1*%
%TO.N,GND1*%
%TA.AperFunction,SMDPad,CuDef*%
G36*
G01*
X90030000Y-94525000D02*
X90030000Y-94025000D01*
G75*
G02*
X90255000Y-93800000I225000J0D01*
G01*
X90705000Y-93800000D01*
G75*
G02*
X90930000Y-94025000I0J-225000D01*
G01*
X90930000Y-94525000D01*
G75*
G02*
X90705000Y-94750000I-225000J0D01*
G01*
X90255000Y-94750000D01*
G75*
G02*
X90030000Y-94525000I0J225000D01*
G01*
G37*
%TD.AperFunction*%
%TO.P,C8,2*%
%TO.N,+5P*%
%TA.AperFunction,SMDPad,CuDef*%
G36*
G01*
X91580000Y-94525000D02*
X91580000Y-94025000D01*
G75*
G02*
X91805000Y-93800000I225000J0D01*
G01*
X92255000Y-93800000D01*
G75*
G02*
X92480000Y-94025000I0J-225000D01*
G01*
X92480000Y-94525000D01*
G75*
G02*
X92255000Y-94750000I-225000J0D01*
G01*
X91805000Y-94750000D01*
G75*
G02*
X91580000Y-94525000I0J225000D01*
G01*
G37*
%TD.AperFunction*%
%TD*%
%TO.P,C10,1*%
%TO.N,GND2*%
%TA.AperFunction,SMDPad,CuDef*%
G36*
G01*
X89522000Y-103669000D02*
X89522000Y-103169000D01*
G75*
G02*
X89747000Y-102944000I225000J0D01*
G01*
X90197000Y-102944000D01*
G75*
G02*
X90422000Y-103169000I0J-225000D01*
G01*
X90422000Y-103669000D01*
G75*
G02*
X90197000Y-103894000I-225000J0D01*
G01*
X89747000Y-103894000D01*
G75*
G02*
X89522000Y-103669000I0J225000D01*
G01*
G37*
%TD.AperFunction*%
%TO.P,C10,2*%
%TO.N,+5VP*%
%TA.AperFunction,SMDPad,CuDef*%
G36*
G01*
X91072000Y-103669000D02*
X91072000Y-103169000D01*
G75*
G02*
X91297000Y-102944000I225000J0D01*
G01*
X91747000Y-102944000D01*
G75*
G02*
X91972000Y-103169000I0J-225000D01*
G01*
X91972000Y-103669000D01*
G75*
G02*
X91747000Y-103894000I-225000J0D01*
G01*
X91297000Y-103894000D01*
G75*
G02*
X91072000Y-103669000I0J225000D01*
G01*
G37*
%TD.AperFunction*%
%TD*%
D16*
%TO.P,Q2,1*%
%TO.N,Net-(Q2-Pad1)*%
X104095000Y-94460500D03*
%TO.P,Q2,2*%
%TO.N,GND2*%
X104095000Y-92560500D03*
%TO.P,Q2,3*%
%TO.N,Net-(Q2-Pad3)*%
X102095000Y-93510500D03*
%TD*%
%TO.P,R16,1*%
%TO.N,Net-(Q6-Pad1)*%
%TA.AperFunction,SMDPad,CuDef*%
G36*
G01*
X112967000Y-92772000D02*
X112967000Y-92222000D01*
G75*
G02*
X113167000Y-92022000I200000J0D01*
G01*
X113567000Y-92022000D01*
G75*
G02*
X113767000Y-92222000I0J-200000D01*
G01*
X113767000Y-92772000D01*
G75*
G02*
X113567000Y-92972000I-200000J0D01*
G01*
X113167000Y-92972000D01*
G75*
G02*
X112967000Y-92772000I0J200000D01*
G01*
G37*
%TD.AperFunction*%
%TO.P,R16,2*%
%TO.N,GND2*%
%TA.AperFunction,SMDPad,CuDef*%
G36*
G01*
X114617000Y-92772000D02*
X114617000Y-92222000D01*
G75*
G02*
X114817000Y-92022000I200000J0D01*
G01*
X115217000Y-92022000D01*
G75*
G02*
X115417000Y-92222000I0J-200000D01*
G01*
X115417000Y-92772000D01*
G75*
G02*
X115217000Y-92972000I-200000J0D01*
G01*
X114817000Y-92972000D01*
G75*
G02*
X114617000Y-92772000I0J200000D01*
G01*
G37*
%TD.AperFunction*%
%TD*%
%TO.P,U1,1*%
%TO.N,+5P*%
%TA.AperFunction,SMDPad,CuDef*%
G36*
G01*
X93023000Y-95397000D02*
X93323000Y-95397000D01*
G75*
G02*
X93473000Y-95547000I0J-150000D01*
G01*
X93473000Y-97197000D01*
G75*
G02*
X93323000Y-97347000I-150000J0D01*
G01*
X93023000Y-97347000D01*
G75*
G02*
X92873000Y-97197000I0J150000D01*
G01*
X92873000Y-95547000D01*
G75*
G02*
X93023000Y-95397000I150000J0D01*
G01*
G37*
%TD.AperFunction*%
%TO.P,U1,2*%
%TO.N,Net-(Q3-Pad2)*%
%TA.AperFunction,SMDPad,CuDef*%
G36*
G01*
X91753000Y-95397000D02*
X92053000Y-95397000D01*
G75*
G02*
X92203000Y-95547000I0J-150000D01*
G01*
X92203000Y-97197000D01*
G75*
G02*
X92053000Y-97347000I-150000J0D01*
G01*
X91753000Y-97347000D01*
G75*
G02*
X91603000Y-97197000I0J150000D01*
G01*
X91603000Y-95547000D01*
G75*
G02*
X91753000Y-95397000I150000J0D01*
G01*
G37*
%TD.AperFunction*%
%TO.P,U1,3*%
%TO.N,Net-(Q4-Pad2)*%
%TA.AperFunction,SMDPad,CuDef*%
G36*
G01*
X90483000Y-95397000D02*
X90783000Y-95397000D01*
G75*
G02*
X90933000Y-95547000I0J-150000D01*
G01*
X90933000Y-97197000D01*
G75*
G02*
X90783000Y-97347000I-150000J0D01*
G01*
X90483000Y-97347000D01*
G75*
G02*
X90333000Y-97197000I0J150000D01*
G01*
X90333000Y-95547000D01*
G75*
G02*
X90483000Y-95397000I150000J0D01*
G01*
G37*
%TD.AperFunction*%
%TO.P,U1,4*%
%TO.N,GND1*%
%TA.AperFunction,SMDPad,CuDef*%
G36*
G01*
X89213000Y-95397000D02*
X89513000Y-95397000D01*
G75*
G02*
X89663000Y-95547000I0J-150000D01*
G01*
X89663000Y-97197000D01*
G75*
G02*
X89513000Y-97347000I-150000J0D01*
G01*
X89213000Y-97347000D01*
G75*
G02*
X89063000Y-97197000I0J150000D01*
G01*
X89063000Y-95547000D01*
G75*
G02*
X89213000Y-95397000I150000J0D01*
G01*
G37*
%TD.AperFunction*%
%TO.P,U1,5*%
%TO.N,GND2*%
%TA.AperFunction,SMDPad,CuDef*%
G36*
G01*
X89213000Y-100347000D02*
X89513000Y-100347000D01*
G75*
G02*
X89663000Y-100497000I0J-150000D01*
G01*
X89663000Y-102147000D01*
G75*
G02*
X89513000Y-102297000I-150000J0D01*
G01*
X89213000Y-102297000D01*
G75*
G02*
X89063000Y-102147000I0J150000D01*
G01*
X89063000Y-100497000D01*
G75*
G02*
X89213000Y-100347000I150000J0D01*
G01*
G37*
%TD.AperFunction*%
%TO.P,U1,6*%
%TO.N,/I2C_SCL*%
%TA.AperFunction,SMDPad,CuDef*%
G36*
G01*
X90483000Y-100347000D02*
X90783000Y-100347000D01*
G75*
G02*
X90933000Y-100497000I0J-150000D01*
G01*
X90933000Y-102147000D01*
G75*
G02*
X90783000Y-102297000I-150000J0D01*
G01*
X90483000Y-102297000D01*
G75*
G02*
X90333000Y-102147000I0J150000D01*
G01*
X90333000Y-100497000D01*
G75*
G02*
X90483000Y-100347000I150000J0D01*
G01*
G37*
%TD.AperFunction*%
%TO.P,U1,7*%
%TO.N,/I2C_SDA*%
%TA.AperFunction,SMDPad,CuDef*%
G36*
G01*
X91753000Y-100347000D02*
X92053000Y-100347000D01*
G75*
G02*
X92203000Y-100497000I0J-150000D01*
G01*
X92203000Y-102147000D01*
G75*
G02*
X92053000Y-102297000I-150000J0D01*
G01*
X91753000Y-102297000D01*
G75*
G02*
X91603000Y-102147000I0J150000D01*
G01*
X91603000Y-100497000D01*
G75*
G02*
X91753000Y-100347000I150000J0D01*
G01*
G37*
%TD.AperFunction*%
%TO.P,U1,8*%
%TO.N,+5VP*%
%TA.AperFunction,SMDPad,CuDef*%
G36*
G01*
X93023000Y-100347000D02*
X93323000Y-100347000D01*
G75*
G02*
X93473000Y-100497000I0J-150000D01*
G01*
X93473000Y-102147000D01*
G75*
G02*
X93323000Y-102297000I-150000J0D01*
G01*
X93023000Y-102297000D01*
G75*
G02*
X92873000Y-102147000I0J150000D01*
G01*
X92873000Y-100497000D01*
G75*
G02*
X93023000Y-100347000I150000J0D01*
G01*
G37*
%TD.AperFunction*%
%TD*%
D10*
%TO.P,C5,1*%
%TO.N,Net-(C5-Pad1)*%
X98613000Y-112182000D03*
%TO.P,C5,2*%
%TO.N,Net-(C5-Pad2)*%
X121113000Y-112182000D03*
%TD*%
D20*
%TO.P,J2,1*%
%TO.N,+5P*%
X84791000Y-97450000D03*
D21*
%TO.P,J2,2*%
X84791000Y-96180000D03*
%TO.P,J2,3*%
%TO.N,GND1*%
X83521000Y-97450000D03*
%TO.P,J2,4*%
X83521000Y-96180000D03*
%TO.P,J2,5*%
%TO.N,/sda0*%
X82251000Y-97450000D03*
%TO.P,J2,6*%
%TO.N,/scl0*%
X82251000Y-96180000D03*
%TD*%
D22*
%TO.P,Q6,1*%
%TO.N,Net-(Q6-Pad1)*%
X118441000Y-92560500D03*
%TO.P,Q6,2*%
%TO.N,GND2*%
X116541000Y-92560500D03*
%TO.P,Q6,3*%
%TO.N,Net-(Q6-Pad3)*%
X117491000Y-94560500D03*
%TD*%
%TO.P,R2,1*%
%TO.N,Net-(Q2-Pad1)*%
%TA.AperFunction,SMDPad,CuDef*%
G36*
G01*
X105219000Y-94296000D02*
X105219000Y-93746000D01*
G75*
G02*
X105419000Y-93546000I200000J0D01*
G01*
X105819000Y-93546000D01*
G75*
G02*
X106019000Y-93746000I0J-200000D01*
G01*
X106019000Y-94296000D01*
G75*
G02*
X105819000Y-94496000I-200000J0D01*
G01*
X105419000Y-94496000D01*
G75*
G02*
X105219000Y-94296000I0J200000D01*
G01*
G37*
%TD.AperFunction*%
%TO.P,R2,2*%
%TO.N,/K1_rst*%
%TA.AperFunction,SMDPad,CuDef*%
G36*
G01*
X106869000Y-94296000D02*
X106869000Y-93746000D01*
G75*
G02*
X107069000Y-93546000I200000J0D01*
G01*
X107469000Y-93546000D01*
G75*
G02*
X107669000Y-93746000I0J-200000D01*
G01*
X107669000Y-94296000D01*
G75*
G02*
X107469000Y-94496000I-200000J0D01*
G01*
X107069000Y-94496000D01*
G75*
G02*
X106869000Y-94296000I0J200000D01*
G01*
G37*
%TD.AperFunction*%
%TD*%
%TO.P,R4,1*%
%TO.N,Net-(Q2-Pad1)*%
%TA.AperFunction,SMDPad,CuDef*%
G36*
G01*
X107669000Y-92222000D02*
X107669000Y-92772000D01*
G75*
G02*
X107469000Y-92972000I-200000J0D01*
G01*
X107069000Y-92972000D01*
G75*
G02*
X106869000Y-92772000I0J200000D01*
G01*
X106869000Y-92222000D01*
G75*
G02*
X107069000Y-92022000I200000J0D01*
G01*
X107469000Y-92022000D01*
G75*
G02*
X107669000Y-92222000I0J-200000D01*
G01*
G37*
%TD.AperFunction*%
%TO.P,R4,2*%
%TO.N,GND2*%
%TA.AperFunction,SMDPad,CuDef*%
G36*
G01*
X106019000Y-92222000D02*
X106019000Y-92772000D01*
G75*
G02*
X105819000Y-92972000I-200000J0D01*
G01*
X105419000Y-92972000D01*
G75*
G02*
X105219000Y-92772000I0J200000D01*
G01*
X105219000Y-92222000D01*
G75*
G02*
X105419000Y-92022000I200000J0D01*
G01*
X105819000Y-92022000D01*
G75*
G02*
X106019000Y-92222000I0J-200000D01*
G01*
G37*
%TD.AperFunction*%
%TD*%
%TO.P,R14,1*%
%TO.N,Net-(Q6-Pad1)*%
%TA.AperFunction,SMDPad,CuDef*%
G36*
G01*
X112966000Y-94613500D02*
X112966000Y-94063500D01*
G75*
G02*
X113166000Y-93863500I200000J0D01*
G01*
X113566000Y-93863500D01*
G75*
G02*
X113766000Y-94063500I0J-200000D01*
G01*
X113766000Y-94613500D01*
G75*
G02*
X113566000Y-94813500I-200000J0D01*
G01*
X113166000Y-94813500D01*
G75*
G02*
X112966000Y-94613500I0J200000D01*
G01*
G37*
%TD.AperFunction*%
%TO.P,R14,2*%
%TO.N,/K2_rst*%
%TA.AperFunction,SMDPad,CuDef*%
G36*
G01*
X114616000Y-94613500D02*
X114616000Y-94063500D01*
G75*
G02*
X114816000Y-93863500I200000J0D01*
G01*
X115216000Y-93863500D01*
G75*
G02*
X115416000Y-94063500I0J-200000D01*
G01*
X115416000Y-94613500D01*
G75*
G02*
X115216000Y-94813500I-200000J0D01*
G01*
X114816000Y-94813500D01*
G75*
G02*
X114616000Y-94613500I0J200000D01*
G01*
G37*
%TD.AperFunction*%
%TD*%
D21*
%TO.P,J2,6*%
%TO.N,/scl0*%
X82251000Y-71180000D03*
%TO.P,J2,5*%
%TO.N,/sda0*%
X82251000Y-72450000D03*
%TO.P,J2,4*%
%TO.N,GND1*%
X83521000Y-71180000D03*
%TO.P,J2,3*%
X83521000Y-72450000D03*
%TO.P,J2,2*%
%TO.N,+5P*%
X84791000Y-71180000D03*
D20*
%TO.P,J2,1*%
X84791000Y-72450000D03*
%TD*%
D10*
%TO.P,C5,2*%
%TO.N,Net-(C5-Pad2)*%
X121113000Y-87182000D03*
%TO.P,C5,1*%
%TO.N,Net-(C5-Pad1)*%
X98613000Y-87182000D03*
%TD*%
%TO.P,U1,8*%
%TO.N,+5VP*%
%TA.AperFunction,SMDPad,CuDef*%
G36*
G01*
X93023000Y-75347000D02*
X93323000Y-75347000D01*
G75*
G02*
X93473000Y-75497000I0J-150000D01*
G01*
X93473000Y-77147000D01*
G75*
G02*
X93323000Y-77297000I-150000J0D01*
G01*
X93023000Y-77297000D01*
G75*
G02*
X92873000Y-77147000I0J150000D01*
G01*
X92873000Y-75497000D01*
G75*
G02*
X93023000Y-75347000I150000J0D01*
G01*
G37*
%TD.AperFunction*%
%TO.P,U1,7*%
%TO.N,/I2C_SDA*%
%TA.AperFunction,SMDPad,CuDef*%
G36*
G01*
X91753000Y-75347000D02*
X92053000Y-75347000D01*
G75*
G02*
X92203000Y-75497000I0J-150000D01*
G01*
X92203000Y-77147000D01*
G75*
G02*
X92053000Y-77297000I-150000J0D01*
G01*
X91753000Y-77297000D01*
G75*
G02*
X91603000Y-77147000I0J150000D01*
G01*
X91603000Y-75497000D01*
G75*
G02*
X91753000Y-75347000I150000J0D01*
G01*
G37*
%TD.AperFunction*%
%TO.P,U1,6*%
%TO.N,/I2C_SCL*%
%TA.AperFunction,SMDPad,CuDef*%
G36*
G01*
X90483000Y-75347000D02*
X90783000Y-75347000D01*
G75*
G02*
X90933000Y-75497000I0J-150000D01*
G01*
X90933000Y-77147000D01*
G75*
G02*
X90783000Y-77297000I-150000J0D01*
G01*
X90483000Y-77297000D01*
G75*
G02*
X90333000Y-77147000I0J150000D01*
G01*
X90333000Y-75497000D01*
G75*
G02*
X90483000Y-75347000I150000J0D01*
G01*
G37*
%TD.AperFunction*%
%TO.P,U1,5*%
%TO.N,GND2*%
%TA.AperFunction,SMDPad,CuDef*%
G36*
G01*
X89213000Y-75347000D02*
X89513000Y-75347000D01*
G75*
G02*
X89663000Y-75497000I0J-150000D01*
G01*
X89663000Y-77147000D01*
G75*
G02*
X89513000Y-77297000I-150000J0D01*
G01*
X89213000Y-77297000D01*
G75*
G02*
X89063000Y-77147000I0J150000D01*
G01*
X89063000Y-75497000D01*
G75*
G02*
X89213000Y-75347000I150000J0D01*
G01*
G37*
%TD.AperFunction*%
%TO.P,U1,4*%
%TO.N,GND1*%
%TA.AperFunction,SMDPad,CuDef*%
G36*
G01*
X89213000Y-70397000D02*
X89513000Y-70397000D01*
G75*
G02*
X89663000Y-70547000I0J-150000D01*
G01*
X89663000Y-72197000D01*
G75*
G02*
X89513000Y-72347000I-150000J0D01*
G01*
X89213000Y-72347000D01*
G75*
G02*
X89063000Y-72197000I0J150000D01*
G01*
X89063000Y-70547000D01*
G75*
G02*
X89213000Y-70397000I150000J0D01*
G01*
G37*
%TD.AperFunction*%
%TO.P,U1,3*%
%TO.N,Net-(Q4-Pad2)*%
%TA.AperFunction,SMDPad,CuDef*%
G36*
G01*
X90483000Y-70397000D02*
X90783000Y-70397000D01*
G75*
G02*
X90933000Y-70547000I0J-150000D01*
G01*
X90933000Y-72197000D01*
G75*
G02*
X90783000Y-72347000I-150000J0D01*
G01*
X90483000Y-72347000D01*
G75*
G02*
X90333000Y-72197000I0J150000D01*
G01*
X90333000Y-70547000D01*
G75*
G02*
X90483000Y-70397000I150000J0D01*
G01*
G37*
%TD.AperFunction*%
%TO.P,U1,2*%
%TO.N,Net-(Q3-Pad2)*%
%TA.AperFunction,SMDPad,CuDef*%
G36*
G01*
X91753000Y-70397000D02*
X92053000Y-70397000D01*
G75*
G02*
X92203000Y-70547000I0J-150000D01*
G01*
X92203000Y-72197000D01*
G75*
G02*
X92053000Y-72347000I-150000J0D01*
G01*
X91753000Y-72347000D01*
G75*
G02*
X91603000Y-72197000I0J150000D01*
G01*
X91603000Y-70547000D01*
G75*
G02*
X91753000Y-70397000I150000J0D01*
G01*
G37*
%TD.AperFunction*%
%TO.P,U1,1*%
%TO.N,+5P*%
%TA.AperFunction,SMDPad,CuDef*%
G36*
G01*
X93023000Y-70397000D02*
X93323000Y-70397000D01*
G75*
G02*
X93473000Y-70547000I0J-150000D01*
G01*
X93473000Y-72197000D01*
G75*
G02*
X93323000Y-72347000I-150000J0D01*
G01*
X93023000Y-72347000D01*
G75*
G02*
X92873000Y-72197000I0J150000D01*
G01*
X92873000Y-70547000D01*
G75*
G02*
X93023000Y-70397000I150000J0D01*
G01*
G37*
%TD.AperFunction*%
%TD*%
%TO.P,R16,2*%
%TO.N,GND2*%
%TA.AperFunction,SMDPad,CuDef*%
G36*
G01*
X114617000Y-67772000D02*
X114617000Y-67222000D01*
G75*
G02*
X114817000Y-67022000I200000J0D01*
G01*
X115217000Y-67022000D01*
G75*
G02*
X115417000Y-67222000I0J-200000D01*
G01*
X115417000Y-67772000D01*
G75*
G02*
X115217000Y-67972000I-200000J0D01*
G01*
X114817000Y-67972000D01*
G75*
G02*
X114617000Y-67772000I0J200000D01*
G01*
G37*
%TD.AperFunction*%
%TO.P,R16,1*%
%TO.N,Net-(Q6-Pad1)*%
%TA.AperFunction,SMDPad,CuDef*%
G36*
G01*
X112967000Y-67772000D02*
X112967000Y-67222000D01*
G75*
G02*
X113167000Y-67022000I200000J0D01*
G01*
X113567000Y-67022000D01*
G75*
G02*
X113767000Y-67222000I0J-200000D01*
G01*
X113767000Y-67772000D01*
G75*
G02*
X113567000Y-67972000I-200000J0D01*
G01*
X113167000Y-67972000D01*
G75*
G02*
X112967000Y-67772000I0J200000D01*
G01*
G37*
%TD.AperFunction*%
%TD*%
%TO.P,R14,2*%
%TO.N,/K2_rst*%
%TA.AperFunction,SMDPad,CuDef*%
G36*
G01*
X114616000Y-69613500D02*
X114616000Y-69063500D01*
G75*
G02*
X114816000Y-68863500I200000J0D01*
G01*
X115216000Y-68863500D01*
G75*
G02*
X115416000Y-69063500I0J-200000D01*
G01*
X115416000Y-69613500D01*
G75*
G02*
X115216000Y-69813500I-200000J0D01*
G01*
X114816000Y-69813500D01*
G75*
G02*
X114616000Y-69613500I0J200000D01*
G01*
G37*
%TD.AperFunction*%
%TO.P,R14,1*%
%TO.N,Net-(Q6-Pad1)*%
%TA.AperFunction,SMDPad,CuDef*%
G36*
G01*
X112966000Y-69613500D02*
X112966000Y-69063500D01*
G75*
G02*
X113166000Y-68863500I200000J0D01*
G01*
X113566000Y-68863500D01*
G75*
G02*
X113766000Y-69063500I0J-200000D01*
G01*
X113766000Y-69613500D01*
G75*
G02*
X113566000Y-69813500I-200000J0D01*
G01*
X113166000Y-69813500D01*
G75*
G02*
X112966000Y-69613500I0J200000D01*
G01*
G37*
%TD.AperFunction*%
%TD*%
%TO.P,R4,2*%
%TO.N,GND2*%
%TA.AperFunction,SMDPad,CuDef*%
G36*
G01*
X106019000Y-67222000D02*
X106019000Y-67772000D01*
G75*
G02*
X105819000Y-67972000I-200000J0D01*
G01*
X105419000Y-67972000D01*
G75*
G02*
X105219000Y-67772000I0J200000D01*
G01*
X105219000Y-67222000D01*
G75*
G02*
X105419000Y-67022000I200000J0D01*
G01*
X105819000Y-67022000D01*
G75*
G02*
X106019000Y-67222000I0J-200000D01*
G01*
G37*
%TD.AperFunction*%
%TO.P,R4,1*%
%TO.N,Net-(Q2-Pad1)*%
%TA.AperFunction,SMDPad,CuDef*%
G36*
G01*
X107669000Y-67222000D02*
X107669000Y-67772000D01*
G75*
G02*
X107469000Y-67972000I-200000J0D01*
G01*
X107069000Y-67972000D01*
G75*
G02*
X106869000Y-67772000I0J200000D01*
G01*
X106869000Y-67222000D01*
G75*
G02*
X107069000Y-67022000I200000J0D01*
G01*
X107469000Y-67022000D01*
G75*
G02*
X107669000Y-67222000I0J-200000D01*
G01*
G37*
%TD.AperFunction*%
%TD*%
%TO.P,R2,2*%
%TO.N,/K1_rst*%
%TA.AperFunction,SMDPad,CuDef*%
G36*
G01*
X106869000Y-69296000D02*
X106869000Y-68746000D01*
G75*
G02*
X107069000Y-68546000I200000J0D01*
G01*
X107469000Y-68546000D01*
G75*
G02*
X107669000Y-68746000I0J-200000D01*
G01*
X107669000Y-69296000D01*
G75*
G02*
X107469000Y-69496000I-200000J0D01*
G01*
X107069000Y-69496000D01*
G75*
G02*
X106869000Y-69296000I0J200000D01*
G01*
G37*
%TD.AperFunction*%
%TO.P,R2,1*%
%TO.N,Net-(Q2-Pad1)*%
%TA.AperFunction,SMDPad,CuDef*%
G36*
G01*
X105219000Y-69296000D02*
X105219000Y-68746000D01*
G75*
G02*
X105419000Y-68546000I200000J0D01*
G01*
X105819000Y-68546000D01*
G75*
G02*
X106019000Y-68746000I0J-200000D01*
G01*
X106019000Y-69296000D01*
G75*
G02*
X105819000Y-69496000I-200000J0D01*
G01*
X105419000Y-69496000D01*
G75*
G02*
X105219000Y-69296000I0J200000D01*
G01*
G37*
%TD.AperFunction*%
%TD*%
D22*
%TO.P,Q6,3*%
%TO.N,Net-(Q6-Pad3)*%
X117491000Y-69560500D03*
%TO.P,Q6,2*%
%TO.N,GND2*%
X116541000Y-67560500D03*
%TO.P,Q6,1*%
%TO.N,Net-(Q6-Pad1)*%
X118441000Y-67560500D03*
%TD*%
D16*
%TO.P,Q2,3*%
%TO.N,Net-(Q2-Pad3)*%
X102095000Y-68510500D03*
%TO.P,Q2,2*%
%TO.N,GND2*%
X104095000Y-67560500D03*
%TO.P,Q2,1*%
%TO.N,Net-(Q2-Pad1)*%
X104095000Y-69460500D03*
%TD*%
%TO.P,C10,2*%
%TO.N,+5VP*%
%TA.AperFunction,SMDPad,CuDef*%
G36*
G01*
X91072000Y-78669000D02*
X91072000Y-78169000D01*
G75*
G02*
X91297000Y-77944000I225000J0D01*
G01*
X91747000Y-77944000D01*
G75*
G02*
X91972000Y-78169000I0J-225000D01*
G01*
X91972000Y-78669000D01*
G75*
G02*
X91747000Y-78894000I-225000J0D01*
G01*
X91297000Y-78894000D01*
G75*
G02*
X91072000Y-78669000I0J225000D01*
G01*
G37*
%TD.AperFunction*%
%TO.P,C10,1*%
%TO.N,GND2*%
%TA.AperFunction,SMDPad,CuDef*%
G36*
G01*
X89522000Y-78669000D02*
X89522000Y-78169000D01*
G75*
G02*
X89747000Y-77944000I225000J0D01*
G01*
X90197000Y-77944000D01*
G75*
G02*
X90422000Y-78169000I0J-225000D01*
G01*
X90422000Y-78669000D01*
G75*
G02*
X90197000Y-78894000I-225000J0D01*
G01*
X89747000Y-78894000D01*
G75*
G02*
X89522000Y-78669000I0J225000D01*
G01*
G37*
%TD.AperFunction*%
%TD*%
%TO.P,C8,2*%
%TO.N,+5P*%
%TA.AperFunction,SMDPad,CuDef*%
G36*
G01*
X91580000Y-69525000D02*
X91580000Y-69025000D01*
G75*
G02*
X91805000Y-68800000I225000J0D01*
G01*
X92255000Y-68800000D01*
G75*
G02*
X92480000Y-69025000I0J-225000D01*
G01*
X92480000Y-69525000D01*
G75*
G02*
X92255000Y-69750000I-225000J0D01*
G01*
X91805000Y-69750000D01*
G75*
G02*
X91580000Y-69525000I0J225000D01*
G01*
G37*
%TD.AperFunction*%
%TO.P,C8,1*%
%TO.N,GND1*%
%TA.AperFunction,SMDPad,CuDef*%
G36*
G01*
X90030000Y-69525000D02*
X90030000Y-69025000D01*
G75*
G02*
X90255000Y-68800000I225000J0D01*
G01*
X90705000Y-68800000D01*
G75*
G02*
X90930000Y-69025000I0J-225000D01*
G01*
X90930000Y-69525000D01*
G75*
G02*
X90705000Y-69750000I-225000J0D01*
G01*
X90255000Y-69750000D01*
G75*
G02*
X90030000Y-69525000I0J225000D01*
G01*
G37*
%TD.AperFunction*%
%TD*%
D12*
%TO.P,K2,1*%
%TO.N,+5VP*%
X116287000Y-71942000D03*
D13*
%TO.P,K2,2*%
X116287000Y-74482000D03*
%TO.P,K2,4*%
%TO.N,Net-(J1-Pad3)*%
X116287000Y-79562000D03*
%TO.P,K2,6*%
%TO.N,Net-(C7-Pad1)*%
X116287000Y-84642000D03*
%TO.P,K2,8*%
%TO.N,Net-(K2-Pad8)*%
X116287000Y-89722000D03*
%TO.P,K2,9*%
X123907000Y-89722000D03*
%TO.P,K2,11*%
%TO.N,Net-(C5-Pad2)*%
X123907000Y-84642000D03*
%TO.P,K2,13*%
%TO.N,Net-(C7-Pad1)*%
X123907000Y-79562000D03*
%TO.P,K2,15*%
%TO.N,Net-(C12-Pad2)*%
X123907000Y-74482000D03*
%TO.P,K2,16*%
%TO.N,Net-(C11-Pad2)*%
X123907000Y-71942000D03*
%TD*%
D19*
%TO.P,J1,1*%
%TO.N,Net-(J1-Pad1)*%
X107270000Y-89468000D03*
D18*
%TO.P,J1,2*%
%TO.N,N/C*%
X109810000Y-89468000D03*
%TO.P,J1,3*%
%TO.N,Net-(J1-Pad3)*%
X112350000Y-89468000D03*
%TD*%
D17*
%TO.P,U2,8*%
%TO.N,+5VP*%
X112722000Y-72491000D03*
%TO.P,U2,7*%
%TO.N,/I2C_SDA*%
X112722000Y-73141000D03*
%TO.P,U2,6*%
%TO.N,/I2C_SCL*%
X112722000Y-73791000D03*
%TO.P,U2,5*%
%TO.N,/K2_set*%
X112722000Y-74441000D03*
%TO.P,U2,4*%
%TO.N,GND2*%
X108422000Y-74441000D03*
%TO.P,U2,3*%
%TO.N,/K2_rst*%
X108422000Y-73791000D03*
%TO.P,U2,2*%
%TO.N,/K1_set*%
X108422000Y-73141000D03*
%TO.P,U2,1*%
%TO.N,/K1_rst*%
X108422000Y-72491000D03*
%TD*%
D10*
%TO.P,TP1,1*%
%TO.N,GND2*%
X87140500Y-83118000D03*
%TD*%
%TO.P,R12,2*%
%TO.N,+5P*%
%TA.AperFunction,SMDPad,CuDef*%
G36*
G01*
X86802000Y-75859000D02*
X87352000Y-75859000D01*
G75*
G02*
X87552000Y-76059000I0J-200000D01*
G01*
X87552000Y-76459000D01*
G75*
G02*
X87352000Y-76659000I-200000J0D01*
G01*
X86802000Y-76659000D01*
G75*
G02*
X86602000Y-76459000I0J200000D01*
G01*
X86602000Y-76059000D01*
G75*
G02*
X86802000Y-75859000I200000J0D01*
G01*
G37*
%TD.AperFunction*%
%TO.P,R12,1*%
%TO.N,Net-(Q4-Pad2)*%
%TA.AperFunction,SMDPad,CuDef*%
G36*
G01*
X86802000Y-74209000D02*
X87352000Y-74209000D01*
G75*
G02*
X87552000Y-74409000I0J-200000D01*
G01*
X87552000Y-74809000D01*
G75*
G02*
X87352000Y-75009000I-200000J0D01*
G01*
X86802000Y-75009000D01*
G75*
G02*
X86602000Y-74809000I0J200000D01*
G01*
X86602000Y-74409000D01*
G75*
G02*
X86802000Y-74209000I200000J0D01*
G01*
G37*
%TD.AperFunction*%
%TD*%
%TO.P,R11,2*%
%TO.N,+5P*%
%TA.AperFunction,SMDPad,CuDef*%
G36*
G01*
X86802000Y-79542000D02*
X87352000Y-79542000D01*
G75*
G02*
X87552000Y-79742000I0J-200000D01*
G01*
X87552000Y-80142000D01*
G75*
G02*
X87352000Y-80342000I-200000J0D01*
G01*
X86802000Y-80342000D01*
G75*
G02*
X86602000Y-80142000I0J200000D01*
G01*
X86602000Y-79742000D01*
G75*
G02*
X86802000Y-79542000I200000J0D01*
G01*
G37*
%TD.AperFunction*%
%TO.P,R11,1*%
%TO.N,Net-(Q3-Pad2)*%
%TA.AperFunction,SMDPad,CuDef*%
G36*
G01*
X86802000Y-77892000D02*
X87352000Y-77892000D01*
G75*
G02*
X87552000Y-78092000I0J-200000D01*
G01*
X87552000Y-78492000D01*
G75*
G02*
X87352000Y-78692000I-200000J0D01*
G01*
X86802000Y-78692000D01*
G75*
G02*
X86602000Y-78492000I0J200000D01*
G01*
X86602000Y-78092000D01*
G75*
G02*
X86802000Y-77892000I200000J0D01*
G01*
G37*
%TD.AperFunction*%
%TD*%
%TO.P,R8,2*%
%TO.N,+5P*%
%TA.AperFunction,SMDPad,CuDef*%
G36*
G01*
X82272000Y-77486500D02*
X81722000Y-77486500D01*
G75*
G02*
X81522000Y-77286500I0J200000D01*
G01*
X81522000Y-76886500D01*
G75*
G02*
X81722000Y-76686500I200000J0D01*
G01*
X82272000Y-76686500D01*
G75*
G02*
X82472000Y-76886500I0J-200000D01*
G01*
X82472000Y-77286500D01*
G75*
G02*
X82272000Y-77486500I-200000J0D01*
G01*
G37*
%TD.AperFunction*%
%TO.P,R8,1*%
%TO.N,/scl0*%
%TA.AperFunction,SMDPad,CuDef*%
G36*
G01*
X82272000Y-79136500D02*
X81722000Y-79136500D01*
G75*
G02*
X81522000Y-78936500I0J200000D01*
G01*
X81522000Y-78536500D01*
G75*
G02*
X81722000Y-78336500I200000J0D01*
G01*
X82272000Y-78336500D01*
G75*
G02*
X82472000Y-78536500I0J-200000D01*
G01*
X82472000Y-78936500D01*
G75*
G02*
X82272000Y-79136500I-200000J0D01*
G01*
G37*
%TD.AperFunction*%
%TD*%
%TO.P,R7,2*%
%TO.N,+5P*%
%TA.AperFunction,SMDPad,CuDef*%
G36*
G01*
X81722000Y-81447000D02*
X82272000Y-81447000D01*
G75*
G02*
X82472000Y-81647000I0J-200000D01*
G01*
X82472000Y-82047000D01*
G75*
G02*
X82272000Y-82247000I-200000J0D01*
G01*
X81722000Y-82247000D01*
G75*
G02*
X81522000Y-82047000I0J200000D01*
G01*
X81522000Y-81647000D01*
G75*
G02*
X81722000Y-81447000I200000J0D01*
G01*
G37*
%TD.AperFunction*%
%TO.P,R7,1*%
%TO.N,/sda0*%
%TA.AperFunction,SMDPad,CuDef*%
G36*
G01*
X81722000Y-79797000D02*
X82272000Y-79797000D01*
G75*
G02*
X82472000Y-79997000I0J-200000D01*
G01*
X82472000Y-80397000D01*
G75*
G02*
X82272000Y-80597000I-200000J0D01*
G01*
X81722000Y-80597000D01*
G75*
G02*
X81522000Y-80397000I0J200000D01*
G01*
X81522000Y-79997000D01*
G75*
G02*
X81722000Y-79797000I200000J0D01*
G01*
G37*
%TD.AperFunction*%
%TD*%
%TO.P,R20,2*%
%TO.N,Net-(C12-Pad2)*%
%TA.AperFunction,SMDPad,CuDef*%
G36*
G01*
X122870000Y-69129000D02*
X123420000Y-69129000D01*
G75*
G02*
X123620000Y-69329000I0J-200000D01*
G01*
X123620000Y-69729000D01*
G75*
G02*
X123420000Y-69929000I-200000J0D01*
G01*
X122870000Y-69929000D01*
G75*
G02*
X122670000Y-69729000I0J200000D01*
G01*
X122670000Y-69329000D01*
G75*
G02*
X122870000Y-69129000I200000J0D01*
G01*
G37*
%TD.AperFunction*%
%TO.P,R20,1*%
%TO.N,Net-(C12-Pad1)*%
%TA.AperFunction,SMDPad,CuDef*%
G36*
G01*
X122870000Y-67479000D02*
X123420000Y-67479000D01*
G75*
G02*
X123620000Y-67679000I0J-200000D01*
G01*
X123620000Y-68079000D01*
G75*
G02*
X123420000Y-68279000I-200000J0D01*
G01*
X122870000Y-68279000D01*
G75*
G02*
X122670000Y-68079000I0J200000D01*
G01*
X122670000Y-67679000D01*
G75*
G02*
X122870000Y-67479000I200000J0D01*
G01*
G37*
%TD.AperFunction*%
%TD*%
%TO.P,R19,2*%
%TO.N,Net-(C11-Pad2)*%
%TA.AperFunction,SMDPad,CuDef*%
G36*
G01*
X124394000Y-69129000D02*
X124944000Y-69129000D01*
G75*
G02*
X125144000Y-69329000I0J-200000D01*
G01*
X125144000Y-69729000D01*
G75*
G02*
X124944000Y-69929000I-200000J0D01*
G01*
X124394000Y-69929000D01*
G75*
G02*
X124194000Y-69729000I0J200000D01*
G01*
X124194000Y-69329000D01*
G75*
G02*
X124394000Y-69129000I200000J0D01*
G01*
G37*
%TD.AperFunction*%
%TO.P,R19,1*%
%TO.N,Net-(C11-Pad1)*%
%TA.AperFunction,SMDPad,CuDef*%
G36*
G01*
X124394000Y-67479000D02*
X124944000Y-67479000D01*
G75*
G02*
X125144000Y-67679000I0J-200000D01*
G01*
X125144000Y-68079000D01*
G75*
G02*
X124944000Y-68279000I-200000J0D01*
G01*
X124394000Y-68279000D01*
G75*
G02*
X124194000Y-68079000I0J200000D01*
G01*
X124194000Y-67679000D01*
G75*
G02*
X124394000Y-67479000I200000J0D01*
G01*
G37*
%TD.AperFunction*%
%TD*%
%TO.P,R10,2*%
%TO.N,Net-(C4-Pad2)*%
%TA.AperFunction,SMDPad,CuDef*%
G36*
G01*
X95692000Y-69129000D02*
X96242000Y-69129000D01*
G75*
G02*
X96442000Y-69329000I0J-200000D01*
G01*
X96442000Y-69729000D01*
G75*
G02*
X96242000Y-69929000I-200000J0D01*
G01*
X95692000Y-69929000D01*
G75*
G02*
X95492000Y-69729000I0J200000D01*
G01*
X95492000Y-69329000D01*
G75*
G02*
X95692000Y-69129000I200000J0D01*
G01*
G37*
%TD.AperFunction*%
%TO.P,R10,1*%
%TO.N,Net-(C4-Pad1)*%
%TA.AperFunction,SMDPad,CuDef*%
G36*
G01*
X95692000Y-67479000D02*
X96242000Y-67479000D01*
G75*
G02*
X96442000Y-67679000I0J-200000D01*
G01*
X96442000Y-68079000D01*
G75*
G02*
X96242000Y-68279000I-200000J0D01*
G01*
X95692000Y-68279000D01*
G75*
G02*
X95492000Y-68079000I0J200000D01*
G01*
X95492000Y-67679000D01*
G75*
G02*
X95692000Y-67479000I200000J0D01*
G01*
G37*
%TD.AperFunction*%
%TD*%
%TO.P,R9,2*%
%TO.N,Net-(C3-Pad2)*%
%TA.AperFunction,SMDPad,CuDef*%
G36*
G01*
X97216000Y-69129000D02*
X97766000Y-69129000D01*
G75*
G02*
X97966000Y-69329000I0J-200000D01*
G01*
X97966000Y-69729000D01*
G75*
G02*
X97766000Y-69929000I-200000J0D01*
G01*
X97216000Y-69929000D01*
G75*
G02*
X97016000Y-69729000I0J200000D01*
G01*
X97016000Y-69329000D01*
G75*
G02*
X97216000Y-69129000I200000J0D01*
G01*
G37*
%TD.AperFunction*%
%TO.P,R9,1*%
%TO.N,Net-(C3-Pad1)*%
%TA.AperFunction,SMDPad,CuDef*%
G36*
G01*
X97216000Y-67479000D02*
X97766000Y-67479000D01*
G75*
G02*
X97966000Y-67679000I0J-200000D01*
G01*
X97966000Y-68079000D01*
G75*
G02*
X97766000Y-68279000I-200000J0D01*
G01*
X97216000Y-68279000D01*
G75*
G02*
X97016000Y-68079000I0J200000D01*
G01*
X97016000Y-67679000D01*
G75*
G02*
X97216000Y-67479000I200000J0D01*
G01*
G37*
%TD.AperFunction*%
%TD*%
%TO.P,R18,2*%
%TO.N,Net-(C12-Pad1)*%
%TA.AperFunction,SMDPad,CuDef*%
G36*
G01*
X121221000Y-68153000D02*
X121221000Y-67603000D01*
G75*
G02*
X121421000Y-67403000I200000J0D01*
G01*
X121821000Y-67403000D01*
G75*
G02*
X122021000Y-67603000I0J-200000D01*
G01*
X122021000Y-68153000D01*
G75*
G02*
X121821000Y-68353000I-200000J0D01*
G01*
X121421000Y-68353000D01*
G75*
G02*
X121221000Y-68153000I0J200000D01*
G01*
G37*
%TD.AperFunction*%
%TO.P,R18,1*%
%TO.N,Net-(Q6-Pad3)*%
%TA.AperFunction,SMDPad,CuDef*%
G36*
G01*
X119571000Y-68153000D02*
X119571000Y-67603000D01*
G75*
G02*
X119771000Y-67403000I200000J0D01*
G01*
X120171000Y-67403000D01*
G75*
G02*
X120371000Y-67603000I0J-200000D01*
G01*
X120371000Y-68153000D01*
G75*
G02*
X120171000Y-68353000I-200000J0D01*
G01*
X119771000Y-68353000D01*
G75*
G02*
X119571000Y-68153000I0J200000D01*
G01*
G37*
%TD.AperFunction*%
%TD*%
%TO.P,R6,2*%
%TO.N,Net-(C4-Pad1)*%
%TA.AperFunction,SMDPad,CuDef*%
G36*
G01*
X99415000Y-67603000D02*
X99415000Y-68153000D01*
G75*
G02*
X99215000Y-68353000I-200000J0D01*
G01*
X98815000Y-68353000D01*
G75*
G02*
X98615000Y-68153000I0J200000D01*
G01*
X98615000Y-67603000D01*
G75*
G02*
X98815000Y-67403000I200000J0D01*
G01*
X99215000Y-67403000D01*
G75*
G02*
X99415000Y-67603000I0J-200000D01*
G01*
G37*
%TD.AperFunction*%
%TO.P,R6,1*%
%TO.N,Net-(Q2-Pad3)*%
%TA.AperFunction,SMDPad,CuDef*%
G36*
G01*
X101065000Y-67603000D02*
X101065000Y-68153000D01*
G75*
G02*
X100865000Y-68353000I-200000J0D01*
G01*
X100465000Y-68353000D01*
G75*
G02*
X100265000Y-68153000I0J200000D01*
G01*
X100265000Y-67603000D01*
G75*
G02*
X100465000Y-67403000I200000J0D01*
G01*
X100865000Y-67403000D01*
G75*
G02*
X101065000Y-67603000I0J-200000D01*
G01*
G37*
%TD.AperFunction*%
%TD*%
D16*
%TO.P,Q4,3*%
%TO.N,/scl0*%
X83521000Y-75432000D03*
%TO.P,Q4,2*%
%TO.N,Net-(Q4-Pad2)*%
X85521000Y-74482000D03*
%TO.P,Q4,1*%
%TO.N,+5P*%
X85521000Y-76382000D03*
%TD*%
%TO.P,Q3,3*%
%TO.N,/sda0*%
X83521000Y-79054000D03*
%TO.P,Q3,2*%
%TO.N,Net-(Q3-Pad2)*%
X85521000Y-78104000D03*
%TO.P,Q3,1*%
%TO.N,+5P*%
X85521000Y-80004000D03*
%TD*%
D15*
%TO.P,PS1,4*%
%TO.N,Net-(C6-Pad2)*%
X91141000Y-89849000D03*
%TO.P,PS1,3*%
%TO.N,GND2*%
X88601000Y-89849000D03*
%TO.P,PS1,2*%
%TO.N,+5P*%
X86061000Y-89849000D03*
D14*
%TO.P,PS1,1*%
%TO.N,GND1*%
X83521000Y-89849000D03*
%TD*%
D13*
%TO.P,K1,16*%
%TO.N,Net-(C3-Pad2)*%
X103333000Y-71942000D03*
%TO.P,K1,15*%
%TO.N,Net-(C4-Pad2)*%
X103333000Y-74482000D03*
%TO.P,K1,13*%
%TO.N,Net-(J1-Pad1)*%
X103333000Y-79562000D03*
%TO.P,K1,11*%
%TO.N,Net-(C5-Pad2)*%
X103333000Y-84642000D03*
%TO.P,K1,9*%
%TO.N,Net-(K1-Pad8)*%
X103333000Y-89722000D03*
%TO.P,K1,8*%
X95713000Y-89722000D03*
%TO.P,K1,6*%
%TO.N,Net-(C7-Pad1)*%
X95713000Y-84642000D03*
%TO.P,K1,4*%
%TO.N,Net-(C5-Pad1)*%
X95713000Y-79562000D03*
%TO.P,K1,2*%
%TO.N,+5VP*%
X95713000Y-74482000D03*
D12*
%TO.P,K1,1*%
X95713000Y-71942000D03*
%TD*%
%TA.AperFunction,SMDPad,CuDef*%
D11*
%TO.P,JP1,1*%
%TO.N,Net-(C6-Pad2)*%
G36*
X89871000Y-82679000D02*
G01*
X90621000Y-83179000D01*
X90621000Y-84179000D01*
X89121000Y-84179000D01*
X89121000Y-83179000D01*
X89871000Y-82679000D01*
G37*
%TD.AperFunction*%
%TA.AperFunction,SMDPad,CuDef*%
%TO.P,JP1,2*%
%TO.N,+5VP*%
G36*
X90621000Y-81729000D02*
G01*
X90621000Y-82879000D01*
X89871000Y-82379000D01*
X89121000Y-82879000D01*
X89121000Y-81729000D01*
X90621000Y-81729000D01*
G37*
%TD.AperFunction*%
%TD*%
D10*
%TO.P,C7,2*%
%TO.N,Net-(C5-Pad2)*%
X129241000Y-88045000D03*
%TO.P,C7,1*%
%TO.N,Net-(C7-Pad1)*%
X129241000Y-70545000D03*
%TD*%
%TO.P,C13,2*%
%TO.N,GND2*%
%TA.AperFunction,SMDPad,CuDef*%
G36*
G01*
X110895000Y-70549000D02*
X110895000Y-71049000D01*
G75*
G02*
X110670000Y-71274000I-225000J0D01*
G01*
X110220000Y-71274000D01*
G75*
G02*
X109995000Y-71049000I0J225000D01*
G01*
X109995000Y-70549000D01*
G75*
G02*
X110220000Y-70324000I225000J0D01*
G01*
X110670000Y-70324000D01*
G75*
G02*
X110895000Y-70549000I0J-225000D01*
G01*
G37*
%TD.AperFunction*%
%TO.P,C13,1*%
%TO.N,+5VP*%
%TA.AperFunction,SMDPad,CuDef*%
G36*
G01*
X112445000Y-70549000D02*
X112445000Y-71049000D01*
G75*
G02*
X112220000Y-71274000I-225000J0D01*
G01*
X111770000Y-71274000D01*
G75*
G02*
X111545000Y-71049000I0J225000D01*
G01*
X111545000Y-70549000D01*
G75*
G02*
X111770000Y-70324000I225000J0D01*
G01*
X112220000Y-70324000D01*
G75*
G02*
X112445000Y-70549000I0J-225000D01*
G01*
G37*
%TD.AperFunction*%
%TD*%
D23*
%TO.N,Net-(C3-Pad2)*%
X97491000Y-69529000D03*
X97491000Y-94529000D03*
%TO.N,Net-(C3-Pad1)*%
X97491000Y-67878000D03*
X97491000Y-92878000D03*
%TO.N,Net-(C4-Pad2)*%
X95967000Y-69529000D03*
X95967000Y-94529000D03*
%TO.N,Net-(C4-Pad1)*%
X95967000Y-67878000D03*
X95967000Y-92878000D03*
%TO.N,GND1*%
X90480000Y-69275000D03*
X90480000Y-94275000D03*
%TO.N,+5P*%
X87077000Y-79943000D03*
X87077000Y-104943000D03*
%TO.N,Net-(C11-Pad1)*%
X124669000Y-67878000D03*
X124669000Y-92878000D03*
%TO.N,GND2*%
X110445000Y-70799000D03*
X105619000Y-67497000D03*
X115017000Y-67497000D03*
X104095000Y-67560500D03*
X116541000Y-67560500D03*
X89972032Y-78419000D03*
X110445000Y-95799000D03*
X105619000Y-92497000D03*
X115017000Y-92497000D03*
X104095000Y-92560500D03*
X116541000Y-92560500D03*
X89972032Y-103419000D03*
%TO.N,+5VP*%
X111995000Y-70799000D03*
D24*
X91395006Y-81340000D03*
D23*
X111995000Y-95799000D03*
D24*
X91395006Y-106340000D03*
D23*
%TO.N,/scl0*%
X83521000Y-75432000D03*
X81997000Y-78736500D03*
X83521000Y-100432000D03*
X81997000Y-103736500D03*
%TO.N,/sda0*%
X81997000Y-80197000D03*
X81997000Y-105197000D03*
%TO.N,/I2C_SDA*%
X111615886Y-72916284D03*
X91903000Y-74736000D03*
X111615886Y-97916284D03*
X91903000Y-99736000D03*
%TO.N,/I2C_SCL*%
X111615814Y-74015892D03*
X90633000Y-74736000D03*
X111615814Y-99015892D03*
X90633000Y-99736000D03*
%TO.N,/K1_set*%
X107396992Y-71688000D03*
X107396992Y-96688000D03*
%TO.N,/K2_set*%
X113833000Y-74441000D03*
X113833000Y-99441000D03*
%TO.N,/K2_rst*%
X114255000Y-70661000D03*
X109497423Y-73630732D03*
X114255000Y-95661000D03*
X109497423Y-98630732D03*
D24*
%TO.N,Net-(C6-Pad2)*%
X89871000Y-85658000D03*
X89871000Y-110658000D03*
D23*
%TO.N,Net-(C11-Pad2)*%
X124669000Y-69529000D03*
X124669000Y-94529000D03*
%TO.N,Net-(C12-Pad2)*%
X123145000Y-69529000D03*
X123145000Y-94529000D03*
%TO.N,Net-(C12-Pad1)*%
X123145000Y-67878000D03*
X123145000Y-92878000D03*
%TD*%
D25*
%TO.N,Net-(C3-Pad2)*%
X99904000Y-71942000D02*
X97491000Y-69529000D01*
X103333000Y-71942000D02*
X99904000Y-71942000D01*
X99904000Y-96942000D02*
X97491000Y-94529000D01*
X103333000Y-96942000D02*
X99904000Y-96942000D01*
%TO.N,Net-(C4-Pad2)*%
X100920000Y-74482000D02*
X95967000Y-69529000D01*
X103333000Y-74482000D02*
X100920000Y-74482000D01*
X100920000Y-99482000D02*
X95967000Y-94529000D01*
X103333000Y-99482000D02*
X100920000Y-99482000D01*
%TO.N,Net-(C4-Pad1)*%
X96818001Y-67027999D02*
X95967000Y-67879000D01*
X98164999Y-67027999D02*
X96818001Y-67027999D01*
X99015000Y-67878000D02*
X98164999Y-67027999D01*
X98164999Y-92027999D02*
X96818001Y-92027999D01*
X99015000Y-92878000D02*
X98164999Y-92027999D01*
X96818001Y-92027999D02*
X95967000Y-92879000D01*
%TO.N,GND1*%
X89363000Y-70392000D02*
X90480000Y-69275000D01*
X89363000Y-71372000D02*
X89363000Y-70392000D01*
X89363000Y-95392000D02*
X90480000Y-94275000D01*
X89363000Y-96372000D02*
X89363000Y-95392000D01*
%TO.N,+5P*%
X93173000Y-70418000D02*
X92030000Y-69275000D01*
X93173000Y-71372000D02*
X93173000Y-70418000D01*
X87015000Y-80004000D02*
X87077000Y-79942000D01*
X85521000Y-80004000D02*
X87015000Y-80004000D01*
X83840000Y-80004000D02*
X81997000Y-81847000D01*
X85521000Y-80004000D02*
X83840000Y-80004000D01*
X85521000Y-76382000D02*
X86954000Y-76382000D01*
X86954000Y-76382000D02*
X87077000Y-76259000D01*
X82701500Y-76382000D02*
X81997000Y-77086500D01*
X85521000Y-76382000D02*
X82701500Y-76382000D01*
D26*
X87771010Y-68199990D02*
X84791000Y-71180000D01*
X91429990Y-68199990D02*
X87771010Y-68199990D01*
X92030000Y-68800000D02*
X91429990Y-68199990D01*
X92030000Y-69275000D02*
X92030000Y-68800000D01*
D25*
X85521000Y-105004000D02*
X87015000Y-105004000D01*
X83840000Y-105004000D02*
X81997000Y-106847000D01*
X85521000Y-105004000D02*
X83840000Y-105004000D01*
X85521000Y-101382000D02*
X86954000Y-101382000D01*
X86954000Y-101382000D02*
X87077000Y-101259000D01*
X82701500Y-101382000D02*
X81997000Y-102086500D01*
X85521000Y-101382000D02*
X82701500Y-101382000D01*
D26*
X87771010Y-93199990D02*
X84791000Y-96180000D01*
X91429990Y-93199990D02*
X87771010Y-93199990D01*
X92030000Y-93800000D02*
X91429990Y-93199990D01*
X92030000Y-94275000D02*
X92030000Y-93800000D01*
D25*
X93173000Y-95418000D02*
X92030000Y-94275000D01*
X93173000Y-96372000D02*
X93173000Y-95418000D01*
X87015000Y-105004000D02*
X87077000Y-104942000D01*
%TO.N,GND2*%
X89363000Y-77809968D02*
X89972032Y-78419000D01*
X89363000Y-76322000D02*
X89363000Y-77809968D01*
D27*
X110445000Y-73793157D02*
X110445000Y-70799000D01*
X109797157Y-74441000D02*
X110445000Y-73793157D01*
X108422000Y-74441000D02*
X109797157Y-74441000D01*
D25*
X89363000Y-102809968D02*
X89972032Y-103419000D01*
X89363000Y-101322000D02*
X89363000Y-102809968D01*
D27*
X110445000Y-98793157D02*
X110445000Y-95799000D01*
X109797157Y-99441000D02*
X110445000Y-98793157D01*
X108422000Y-99441000D02*
X109797157Y-99441000D01*
D28*
%TO.N,+5VP*%
X116287000Y-71942000D02*
X116287000Y-74482000D01*
X95713000Y-71942000D02*
X95713000Y-74482000D01*
D27*
X89871000Y-81721000D02*
X89871000Y-82229000D01*
D29*
X115906000Y-71561000D02*
X116287000Y-71942000D01*
X113493000Y-71561000D02*
X115906000Y-71561000D01*
X112731000Y-70799000D02*
X113493000Y-71561000D01*
X111995000Y-70799000D02*
X111995000Y-70799000D01*
D25*
X92051000Y-78419000D02*
X91522000Y-78419000D01*
X93173000Y-77297000D02*
X92051000Y-78419000D01*
X93173000Y-76322000D02*
X93173000Y-77297000D01*
D27*
X111995000Y-71764000D02*
X112722000Y-72491000D01*
X111995000Y-70799000D02*
X111995000Y-71764000D01*
D29*
X111995000Y-70799000D02*
X112731000Y-70799000D01*
D26*
X91522000Y-78419000D02*
X91522000Y-78894000D01*
X89871000Y-81721000D02*
X90252000Y-81340000D01*
X90252000Y-81340000D02*
X91395006Y-81340000D01*
X91522000Y-78894000D02*
X91395006Y-79020994D01*
X91395006Y-79020994D02*
X91395006Y-81340000D01*
D28*
X116287000Y-96942000D02*
X116287000Y-99482000D01*
X95713000Y-96942000D02*
X95713000Y-99482000D01*
D27*
X89871000Y-106721000D02*
X89871000Y-107229000D01*
D29*
X115906000Y-96561000D02*
X116287000Y-96942000D01*
X113493000Y-96561000D02*
X115906000Y-96561000D01*
X112731000Y-95799000D02*
X113493000Y-96561000D01*
X111995000Y-95799000D02*
X111995000Y-95799000D01*
D25*
X92051000Y-103419000D02*
X91522000Y-103419000D01*
X93173000Y-102297000D02*
X92051000Y-103419000D01*
X93173000Y-101322000D02*
X93173000Y-102297000D01*
D27*
X111995000Y-96764000D02*
X112722000Y-97491000D01*
X111995000Y-95799000D02*
X111995000Y-96764000D01*
D29*
X111995000Y-95799000D02*
X112731000Y-95799000D01*
D26*
X91522000Y-103419000D02*
X91522000Y-103894000D01*
X89871000Y-106721000D02*
X90252000Y-106340000D01*
X90252000Y-106340000D02*
X91395006Y-106340000D01*
X91522000Y-103894000D02*
X91395006Y-104020994D01*
X91395006Y-104020994D02*
X91395006Y-106340000D01*
D27*
%TO.N,/sda0*%
X83521000Y-79054000D02*
X83140000Y-79054000D01*
X83140000Y-79054000D02*
X81997000Y-80197000D01*
X83521000Y-104054000D02*
X83140000Y-104054000D01*
X83140000Y-104054000D02*
X81997000Y-105197000D01*
D30*
%TO.N,Net-(K1-Pad8)*%
X102805010Y-90249990D02*
X103333000Y-89722000D01*
X96240990Y-90249990D02*
X102805010Y-90249990D01*
X95713000Y-89722000D02*
X96240990Y-90249990D01*
X102805010Y-115249990D02*
X103333000Y-114722000D01*
X96240990Y-115249990D02*
X102805010Y-115249990D01*
X95713000Y-114722000D02*
X96240990Y-115249990D01*
D27*
%TO.N,/I2C_SDA*%
X112722000Y-73141000D02*
X111840602Y-73141000D01*
X111840602Y-73141000D02*
X111615886Y-72916284D01*
X91903000Y-76322000D02*
X91903000Y-74736000D01*
X112722000Y-98141000D02*
X111840602Y-98141000D01*
X111840602Y-98141000D02*
X111615886Y-97916284D01*
X91903000Y-101322000D02*
X91903000Y-99736000D01*
%TO.N,/I2C_SCL*%
X112722000Y-73791000D02*
X111840706Y-73791000D01*
X111840706Y-73791000D02*
X111615814Y-74015892D01*
X90633000Y-76322000D02*
X90633000Y-74736000D01*
X112722000Y-98791000D02*
X111840706Y-98791000D01*
X111840706Y-98791000D02*
X111615814Y-99015892D01*
X90633000Y-101322000D02*
X90633000Y-99736000D01*
D31*
%TO.N,Net-(Q6-Pad1)*%
X113367000Y-69337500D02*
X113366000Y-69338500D01*
X113381990Y-68463490D02*
X113367000Y-68448500D01*
X118441000Y-67560500D02*
X117538010Y-68463490D01*
X113367000Y-68448500D02*
X113367000Y-69337500D01*
X117538010Y-68463490D02*
X113381990Y-68463490D01*
X113367000Y-67497000D02*
X113367000Y-68448500D01*
X113367000Y-94337500D02*
X113366000Y-94338500D01*
X113381990Y-93463490D02*
X113367000Y-93448500D01*
X118441000Y-92560500D02*
X117538010Y-93463490D01*
X113367000Y-93448500D02*
X113367000Y-94337500D01*
X117538010Y-93463490D02*
X113381990Y-93463490D01*
X113367000Y-92497000D02*
X113367000Y-93448500D01*
D27*
%TO.N,/K1_set*%
X107396992Y-72782992D02*
X107396992Y-71688000D01*
X107755000Y-73141000D02*
X107396992Y-72782992D01*
X108422000Y-73141000D02*
X107755000Y-73141000D01*
X107396992Y-97782992D02*
X107396992Y-96688000D01*
X107755000Y-98141000D02*
X107396992Y-97782992D01*
X108422000Y-98141000D02*
X107755000Y-98141000D01*
%TO.N,/K1_rst*%
X108422000Y-72491000D02*
X108422000Y-70174000D01*
X108422000Y-70174000D02*
X107269000Y-69021000D01*
X108422000Y-97491000D02*
X108422000Y-95174000D01*
X108422000Y-95174000D02*
X107269000Y-94021000D01*
%TO.N,/K2_set*%
X112722000Y-74441000D02*
X113833000Y-74441000D01*
X112722000Y-99441000D02*
X113833000Y-99441000D01*
%TO.N,/K2_rst*%
X115016000Y-69900000D02*
X114255000Y-70661000D01*
X115016000Y-69338500D02*
X115016000Y-69900000D01*
X108422000Y-73791000D02*
X109337155Y-73791000D01*
X109337155Y-73791000D02*
X109497423Y-73630732D01*
X115016000Y-94900000D02*
X114255000Y-95661000D01*
X115016000Y-94338500D02*
X115016000Y-94900000D01*
X108422000Y-98791000D02*
X109337155Y-98791000D01*
X109337155Y-98791000D02*
X109497423Y-98630732D01*
D25*
%TO.N,Net-(Q6-Pad3)*%
X118288500Y-69560500D02*
X119971000Y-67878000D01*
X117491000Y-69560500D02*
X118288500Y-69560500D01*
X118288500Y-94560500D02*
X119971000Y-92878000D01*
X117491000Y-94560500D02*
X118288500Y-94560500D01*
D30*
%TO.N,Net-(C5-Pad2)*%
X114382000Y-87182000D02*
X121113000Y-87182000D01*
X113239000Y-86039000D02*
X114382000Y-87182000D01*
X104730000Y-86039000D02*
X113239000Y-86039000D01*
X103333000Y-84642000D02*
X104730000Y-86039000D01*
X122510000Y-84642000D02*
X123907000Y-84642000D01*
X121113000Y-86039000D02*
X122510000Y-84642000D01*
X121113000Y-87182000D02*
X121113000Y-86039000D01*
X128225000Y-84642000D02*
X123907000Y-84642000D01*
X129749990Y-86166990D02*
X128225000Y-84642000D01*
X129749990Y-87536010D02*
X129749990Y-86166990D01*
X129241000Y-88045000D02*
X129749990Y-87536010D01*
X114382000Y-112182000D02*
X121113000Y-112182000D01*
X113239000Y-111039000D02*
X114382000Y-112182000D01*
X104730000Y-111039000D02*
X113239000Y-111039000D01*
X103333000Y-109642000D02*
X104730000Y-111039000D01*
X122510000Y-109642000D02*
X123907000Y-109642000D01*
X121113000Y-111039000D02*
X122510000Y-109642000D01*
X121113000Y-112182000D02*
X121113000Y-111039000D01*
X128225000Y-109642000D02*
X123907000Y-109642000D01*
X129749990Y-111166990D02*
X128225000Y-109642000D01*
X129749990Y-112536010D02*
X129749990Y-111166990D01*
X129241000Y-113045000D02*
X129749990Y-112536010D01*
D28*
%TO.N,Net-(C6-Pad2)*%
X89871000Y-83679000D02*
X89871000Y-85658000D01*
X89871000Y-108679000D02*
X89871000Y-110658000D01*
D30*
%TO.N,Net-(C7-Pad1)*%
X123907000Y-79562000D02*
X121367000Y-79562000D01*
X117811000Y-83118000D02*
X121367000Y-79562000D01*
X116287000Y-84642000D02*
X116287000Y-83118000D01*
X116287000Y-83118000D02*
X117811000Y-83118000D01*
X114763000Y-83118000D02*
X116287000Y-83118000D01*
X113747000Y-82102000D02*
X114763000Y-83118000D01*
X98253000Y-82102000D02*
X113747000Y-82102000D01*
X95713000Y-84642000D02*
X98253000Y-82102000D01*
X124034000Y-79562000D02*
X121748000Y-79562000D01*
X127336000Y-79562000D02*
X123907000Y-79562000D01*
X129749990Y-77148010D02*
X127336000Y-79562000D01*
X129749990Y-71053990D02*
X129749990Y-77148010D01*
X129241000Y-70545000D02*
X129749990Y-71053990D01*
X123907000Y-104562000D02*
X121367000Y-104562000D01*
X117811000Y-108118000D02*
X121367000Y-104562000D01*
X116287000Y-109642000D02*
X116287000Y-108118000D01*
X116287000Y-108118000D02*
X117811000Y-108118000D01*
X114763000Y-108118000D02*
X116287000Y-108118000D01*
X113747000Y-107102000D02*
X114763000Y-108118000D01*
X98253000Y-107102000D02*
X113747000Y-107102000D01*
X95713000Y-109642000D02*
X98253000Y-107102000D01*
X124034000Y-104562000D02*
X121748000Y-104562000D01*
X127336000Y-104562000D02*
X123907000Y-104562000D01*
X129749990Y-102148010D02*
X127336000Y-104562000D01*
X129749990Y-96053990D02*
X129749990Y-102148010D01*
X129241000Y-95545000D02*
X129749990Y-96053990D01*
D25*
%TO.N,Net-(C11-Pad2)*%
X123907000Y-70291000D02*
X123907000Y-71942000D01*
X124669000Y-69529000D02*
X123907000Y-70291000D01*
X123907000Y-95291000D02*
X123907000Y-96942000D01*
X124669000Y-94529000D02*
X123907000Y-95291000D01*
%TO.N,Net-(C12-Pad2)*%
X123018000Y-69656000D02*
X123145000Y-69529000D01*
X122637000Y-70037000D02*
X123145000Y-69529000D01*
X122637000Y-73212000D02*
X122637000Y-70037000D01*
X123907000Y-74482000D02*
X122637000Y-73212000D01*
X123018000Y-94656000D02*
X123145000Y-94529000D01*
X122637000Y-95037000D02*
X123145000Y-94529000D01*
X122637000Y-98212000D02*
X122637000Y-95037000D01*
X123907000Y-99482000D02*
X122637000Y-98212000D01*
%TO.N,Net-(C12-Pad1)*%
X123144000Y-67878000D02*
X123145000Y-67879000D01*
X121621000Y-67878000D02*
X123144000Y-67878000D01*
X123144000Y-92878000D02*
X123145000Y-92879000D01*
X121621000Y-92878000D02*
X123144000Y-92878000D01*
%TO.N,Net-(Q2-Pad3)*%
X101297500Y-68510500D02*
X100665000Y-67878000D01*
X102095000Y-68510500D02*
X101297500Y-68510500D01*
X101297500Y-93510500D02*
X100665000Y-92878000D01*
X102095000Y-93510500D02*
X101297500Y-93510500D01*
%TO.N,Net-(Q2-Pad1)*%
X105179500Y-69460500D02*
X105619000Y-69021000D01*
X104095000Y-69460500D02*
X105179500Y-69460500D01*
X105745000Y-69021000D02*
X107269000Y-67497000D01*
X105619000Y-69021000D02*
X105745000Y-69021000D01*
X105179500Y-94460500D02*
X105619000Y-94021000D01*
X104095000Y-94460500D02*
X105179500Y-94460500D01*
X105745000Y-94021000D02*
X107269000Y-92497000D01*
X105619000Y-94021000D02*
X105745000Y-94021000D01*
D27*
%TO.N,Net-(Q3-Pad2)*%
X91903000Y-72069000D02*
X91903000Y-71372000D01*
X88712990Y-75259010D02*
X91903000Y-72069000D01*
X88712990Y-76256010D02*
X88712990Y-75259010D01*
X87077000Y-77892000D02*
X88712990Y-76256010D01*
X87077000Y-78292000D02*
X87077000Y-77892000D01*
X86889000Y-78104000D02*
X87077000Y-78292000D01*
X85521000Y-78104000D02*
X86889000Y-78104000D01*
X91903000Y-97069000D02*
X91903000Y-96372000D01*
X88712990Y-100259010D02*
X91903000Y-97069000D01*
X88712990Y-101256010D02*
X88712990Y-100259010D01*
X87077000Y-102892000D02*
X88712990Y-101256010D01*
X87077000Y-103292000D02*
X87077000Y-102892000D01*
X86889000Y-103104000D02*
X87077000Y-103292000D01*
X85521000Y-103104000D02*
X86889000Y-103104000D01*
%TO.N,Net-(Q4-Pad2)*%
X88093000Y-74609000D02*
X87077000Y-74609000D01*
X90633000Y-72069000D02*
X88093000Y-74609000D01*
X90633000Y-71372000D02*
X90633000Y-72069000D01*
X86950000Y-74482000D02*
X87077000Y-74609000D01*
X85521000Y-74482000D02*
X86950000Y-74482000D01*
X88093000Y-99609000D02*
X87077000Y-99609000D01*
X90633000Y-97069000D02*
X88093000Y-99609000D01*
X90633000Y-96372000D02*
X90633000Y-97069000D01*
X86950000Y-99482000D02*
X87077000Y-99609000D01*
X85521000Y-99482000D02*
X86950000Y-99482000D01*
%TD*%
M02*
