%TF.GenerationSoftware,KiCad,Pcbnew,(5.1.10)-1*%
%TF.CreationDate,2022-01-17T19:26:09+07:00*%
%TF.ProjectId,Fan_controller_v3_pnlz1x2,46616e5f-636f-46e7-9472-6f6c6c65725f,rev?*%
%TF.SameCoordinates,Original*%
%TF.FileFunction,Legend,Bot*%
%TF.FilePolarity,Positive*%
%FSLAX46Y46*%
G04 Gerber Fmt 4.6, Leading zero omitted, Abs format (unit mm)*
G04 Created by KiCad (PCBNEW (5.1.10)-1) date 2022-01-17 19:26:09*
%MOMM*%
%LPD*%
G01*
G04 APERTURE LIST*
%ADD10C,0.120000*%
%ADD11C,0.150000*%
%ADD12C,2.000000*%
%ADD13R,0.600000X0.450000*%
%ADD14R,1.600000X1.600000*%
%ADD15C,1.600000*%
%ADD16R,1.750000X2.250000*%
%ADD17O,1.750000X2.250000*%
%ADD18O,1.700000X1.700000*%
%ADD19R,1.700000X1.700000*%
%ADD20R,0.800000X0.900000*%
%ADD21R,0.900000X0.800000*%
%ADD22R,1.000000X1.000000*%
%ADD23O,1.000000X1.000000*%
G04 APERTURE END LIST*
D10*
%TO.C,C3*%
X98001000Y-93575920D02*
X98001000Y-93857080D01*
X96981000Y-93575920D02*
X96981000Y-93857080D01*
%TO.C,C4*%
X96477000Y-93575920D02*
X96477000Y-93857080D01*
X95457000Y-93575920D02*
X95457000Y-93857080D01*
%TO.C,C11*%
X125179000Y-93575920D02*
X125179000Y-93857080D01*
X124159000Y-93575920D02*
X124159000Y-93857080D01*
%TO.C,C12*%
X123655000Y-93575920D02*
X123655000Y-93857080D01*
X122635000Y-93575920D02*
X122635000Y-93857080D01*
%TO.C,C1*%
X82658000Y-112043000D02*
X82658000Y-103808000D01*
X87178000Y-112043000D02*
X82658000Y-112043000D01*
X87178000Y-103808000D02*
X87178000Y-112043000D01*
%TO.C,C2*%
X84650420Y-112307000D02*
X84931580Y-112307000D01*
X84650420Y-113327000D02*
X84931580Y-113327000D01*
%TO.C,C6*%
X89730420Y-112307000D02*
X90011580Y-112307000D01*
X89730420Y-113327000D02*
X90011580Y-113327000D01*
%TO.C,C7*%
X125121000Y-94175000D02*
X125121000Y-114415000D01*
X133361000Y-94175000D02*
X133361000Y-114415000D01*
X125121000Y-94175000D02*
X133361000Y-94175000D01*
X125121000Y-114415000D02*
X133361000Y-114415000D01*
%TO.C,C9*%
X87611000Y-112043000D02*
X87611000Y-103808000D01*
X92131000Y-112043000D02*
X87611000Y-112043000D01*
X92131000Y-103808000D02*
X92131000Y-112043000D01*
%TO.C,D1*%
X97549000Y-97792000D02*
X100099000Y-97792000D01*
X97549000Y-96092000D02*
X100099000Y-96092000D01*
X97549000Y-97792000D02*
X97549000Y-96092000D01*
%TO.C,D2*%
X97549000Y-100332000D02*
X100099000Y-100332000D01*
X97549000Y-98632000D02*
X100099000Y-98632000D01*
X97549000Y-100332000D02*
X97549000Y-98632000D01*
%TO.C,D3*%
X118123000Y-97792000D02*
X120673000Y-97792000D01*
X118123000Y-96092000D02*
X120673000Y-96092000D01*
X118123000Y-97792000D02*
X118123000Y-96092000D01*
%TO.C,D4*%
X118123000Y-100332000D02*
X120673000Y-100332000D01*
X118123000Y-98632000D02*
X120673000Y-98632000D01*
X118123000Y-100332000D02*
X118123000Y-98632000D01*
%TO.C,R5*%
X100077258Y-93400500D02*
X99602742Y-93400500D01*
X100077258Y-92355500D02*
X99602742Y-92355500D01*
%TO.C,R17*%
X120558742Y-92355500D02*
X121033258Y-92355500D01*
X120558742Y-93400500D02*
X121033258Y-93400500D01*
%TO.C,Q1*%
X104725000Y-94320500D02*
X104725000Y-92860500D01*
X101565000Y-94320500D02*
X101565000Y-92160500D01*
X101565000Y-94320500D02*
X102495000Y-94320500D01*
X104725000Y-94320500D02*
X103795000Y-94320500D01*
%TO.C,Q5*%
X118301000Y-91930500D02*
X116841000Y-91930500D01*
X118301000Y-95090500D02*
X116141000Y-95090500D01*
X118301000Y-95090500D02*
X118301000Y-94160500D01*
X118301000Y-91930500D02*
X118301000Y-92860500D01*
%TO.C,C5*%
X122983000Y-114052000D02*
X122983000Y-94529000D01*
X96743000Y-114052000D02*
X96743000Y-94529000D01*
X96743000Y-94529000D02*
X122983000Y-94529000D01*
X96743000Y-114052000D02*
X122983000Y-114052000D01*
%TO.C,R1*%
X106206742Y-93498500D02*
X106681258Y-93498500D01*
X106206742Y-94543500D02*
X106681258Y-94543500D01*
%TO.C,R3*%
X106681258Y-93019500D02*
X106206742Y-93019500D01*
X106681258Y-91974500D02*
X106206742Y-91974500D01*
%TO.C,R13*%
X113953742Y-93816000D02*
X114428258Y-93816000D01*
X113953742Y-94861000D02*
X114428258Y-94861000D01*
%TO.C,R15*%
X113954742Y-91974500D02*
X114429258Y-91974500D01*
X113954742Y-93019500D02*
X114429258Y-93019500D01*
%TO.C,C5*%
X96743000Y-89052000D02*
X122983000Y-89052000D01*
X96743000Y-69529000D02*
X122983000Y-69529000D01*
X96743000Y-89052000D02*
X96743000Y-69529000D01*
X122983000Y-89052000D02*
X122983000Y-69529000D01*
%TO.C,R15*%
X113954742Y-68019500D02*
X114429258Y-68019500D01*
X113954742Y-66974500D02*
X114429258Y-66974500D01*
%TO.C,R13*%
X113953742Y-69861000D02*
X114428258Y-69861000D01*
X113953742Y-68816000D02*
X114428258Y-68816000D01*
%TO.C,R3*%
X106681258Y-66974500D02*
X106206742Y-66974500D01*
X106681258Y-68019500D02*
X106206742Y-68019500D01*
%TO.C,R1*%
X106206742Y-69543500D02*
X106681258Y-69543500D01*
X106206742Y-68498500D02*
X106681258Y-68498500D01*
%TO.C,Q5*%
X118301000Y-66930500D02*
X118301000Y-67860500D01*
X118301000Y-70090500D02*
X118301000Y-69160500D01*
X118301000Y-70090500D02*
X116141000Y-70090500D01*
X118301000Y-66930500D02*
X116841000Y-66930500D01*
%TO.C,Q1*%
X104725000Y-69320500D02*
X103795000Y-69320500D01*
X101565000Y-69320500D02*
X102495000Y-69320500D01*
X101565000Y-69320500D02*
X101565000Y-67160500D01*
X104725000Y-69320500D02*
X104725000Y-67860500D01*
%TO.C,R17*%
X120558742Y-68400500D02*
X121033258Y-68400500D01*
X120558742Y-67355500D02*
X121033258Y-67355500D01*
%TO.C,R5*%
X100077258Y-67355500D02*
X99602742Y-67355500D01*
X100077258Y-68400500D02*
X99602742Y-68400500D01*
%TO.C,D4*%
X118123000Y-75332000D02*
X118123000Y-73632000D01*
X118123000Y-73632000D02*
X120673000Y-73632000D01*
X118123000Y-75332000D02*
X120673000Y-75332000D01*
%TO.C,D3*%
X118123000Y-72792000D02*
X118123000Y-71092000D01*
X118123000Y-71092000D02*
X120673000Y-71092000D01*
X118123000Y-72792000D02*
X120673000Y-72792000D01*
%TO.C,D2*%
X97549000Y-75332000D02*
X97549000Y-73632000D01*
X97549000Y-73632000D02*
X100099000Y-73632000D01*
X97549000Y-75332000D02*
X100099000Y-75332000D01*
%TO.C,D1*%
X97549000Y-72792000D02*
X97549000Y-71092000D01*
X97549000Y-71092000D02*
X100099000Y-71092000D01*
X97549000Y-72792000D02*
X100099000Y-72792000D01*
%TO.C,C9*%
X92131000Y-78808000D02*
X92131000Y-87043000D01*
X92131000Y-87043000D02*
X87611000Y-87043000D01*
X87611000Y-87043000D02*
X87611000Y-78808000D01*
%TO.C,C7*%
X125121000Y-89415000D02*
X133361000Y-89415000D01*
X125121000Y-69175000D02*
X133361000Y-69175000D01*
X133361000Y-69175000D02*
X133361000Y-89415000D01*
X125121000Y-69175000D02*
X125121000Y-89415000D01*
%TO.C,C6*%
X89730420Y-88327000D02*
X90011580Y-88327000D01*
X89730420Y-87307000D02*
X90011580Y-87307000D01*
%TO.C,C2*%
X84650420Y-88327000D02*
X84931580Y-88327000D01*
X84650420Y-87307000D02*
X84931580Y-87307000D01*
%TO.C,C1*%
X87178000Y-78808000D02*
X87178000Y-87043000D01*
X87178000Y-87043000D02*
X82658000Y-87043000D01*
X82658000Y-87043000D02*
X82658000Y-78808000D01*
%TO.C,C12*%
X122635000Y-68575920D02*
X122635000Y-68857080D01*
X123655000Y-68575920D02*
X123655000Y-68857080D01*
%TO.C,C11*%
X124159000Y-68575920D02*
X124159000Y-68857080D01*
X125179000Y-68575920D02*
X125179000Y-68857080D01*
%TO.C,C4*%
X95457000Y-68575920D02*
X95457000Y-68857080D01*
X96477000Y-68575920D02*
X96477000Y-68857080D01*
%TO.C,C3*%
X96981000Y-68575920D02*
X96981000Y-68857080D01*
X98001000Y-68575920D02*
X98001000Y-68857080D01*
D11*
X95181142Y-93473333D02*
X95228761Y-93425714D01*
X95276380Y-93282857D01*
X95276380Y-93187619D01*
X95228761Y-93044761D01*
X95133523Y-92949523D01*
X95038285Y-92901904D01*
X94847809Y-92854285D01*
X94704952Y-92854285D01*
X94514476Y-92901904D01*
X94419238Y-92949523D01*
X94324000Y-93044761D01*
X94276380Y-93187619D01*
X94276380Y-93282857D01*
X94324000Y-93425714D01*
X94371619Y-93473333D01*
X94276380Y-93806666D02*
X94276380Y-94425714D01*
X94657333Y-94092380D01*
X94657333Y-94235238D01*
X94704952Y-94330476D01*
X94752571Y-94378095D01*
X94847809Y-94425714D01*
X95085904Y-94425714D01*
X95181142Y-94378095D01*
X95228761Y-94330476D01*
X95276380Y-94235238D01*
X95276380Y-93949523D01*
X95228761Y-93854285D01*
X95181142Y-93806666D01*
%TO.C,C4*%
X93784142Y-93549833D02*
X93831761Y-93502214D01*
X93879380Y-93359357D01*
X93879380Y-93264119D01*
X93831761Y-93121261D01*
X93736523Y-93026023D01*
X93641285Y-92978404D01*
X93450809Y-92930785D01*
X93307952Y-92930785D01*
X93117476Y-92978404D01*
X93022238Y-93026023D01*
X92927000Y-93121261D01*
X92879380Y-93264119D01*
X92879380Y-93359357D01*
X92927000Y-93502214D01*
X92974619Y-93549833D01*
X93212714Y-94406976D02*
X93879380Y-94406976D01*
X92831761Y-94168880D02*
X93546047Y-93930785D01*
X93546047Y-94549833D01*
%TO.C,C11*%
X130010857Y-93870142D02*
X130058476Y-93917761D01*
X130201333Y-93965380D01*
X130296571Y-93965380D01*
X130439428Y-93917761D01*
X130534666Y-93822523D01*
X130582285Y-93727285D01*
X130629904Y-93536809D01*
X130629904Y-93393952D01*
X130582285Y-93203476D01*
X130534666Y-93108238D01*
X130439428Y-93013000D01*
X130296571Y-92965380D01*
X130201333Y-92965380D01*
X130058476Y-93013000D01*
X130010857Y-93060619D01*
X129058476Y-93965380D02*
X129629904Y-93965380D01*
X129344190Y-93965380D02*
X129344190Y-92965380D01*
X129439428Y-93108238D01*
X129534666Y-93203476D01*
X129629904Y-93251095D01*
X128106095Y-93965380D02*
X128677523Y-93965380D01*
X128391809Y-93965380D02*
X128391809Y-92965380D01*
X128487047Y-93108238D01*
X128582285Y-93203476D01*
X128677523Y-93251095D01*
%TO.C,C12*%
X127470857Y-92727142D02*
X127518476Y-92774761D01*
X127661333Y-92822380D01*
X127756571Y-92822380D01*
X127899428Y-92774761D01*
X127994666Y-92679523D01*
X128042285Y-92584285D01*
X128089904Y-92393809D01*
X128089904Y-92250952D01*
X128042285Y-92060476D01*
X127994666Y-91965238D01*
X127899428Y-91870000D01*
X127756571Y-91822380D01*
X127661333Y-91822380D01*
X127518476Y-91870000D01*
X127470857Y-91917619D01*
X126518476Y-92822380D02*
X127089904Y-92822380D01*
X126804190Y-92822380D02*
X126804190Y-91822380D01*
X126899428Y-91965238D01*
X126994666Y-92060476D01*
X127089904Y-92108095D01*
X126137523Y-91917619D02*
X126089904Y-91870000D01*
X125994666Y-91822380D01*
X125756571Y-91822380D01*
X125661333Y-91870000D01*
X125613714Y-91917619D01*
X125566095Y-92012857D01*
X125566095Y-92108095D01*
X125613714Y-92250952D01*
X126185142Y-92822380D01*
X125566095Y-92822380D01*
%TO.C,C1*%
X82227142Y-107062333D02*
X82274761Y-107014714D01*
X82322380Y-106871857D01*
X82322380Y-106776619D01*
X82274761Y-106633761D01*
X82179523Y-106538523D01*
X82084285Y-106490904D01*
X81893809Y-106443285D01*
X81750952Y-106443285D01*
X81560476Y-106490904D01*
X81465238Y-106538523D01*
X81370000Y-106633761D01*
X81322380Y-106776619D01*
X81322380Y-106871857D01*
X81370000Y-107014714D01*
X81417619Y-107062333D01*
X82322380Y-108014714D02*
X82322380Y-107443285D01*
X82322380Y-107729000D02*
X81322380Y-107729000D01*
X81465238Y-107633761D01*
X81560476Y-107538523D01*
X81608095Y-107443285D01*
%TO.C,C2*%
X82544666Y-113174142D02*
X82592285Y-113221761D01*
X82735142Y-113269380D01*
X82830380Y-113269380D01*
X82973238Y-113221761D01*
X83068476Y-113126523D01*
X83116095Y-113031285D01*
X83163714Y-112840809D01*
X83163714Y-112697952D01*
X83116095Y-112507476D01*
X83068476Y-112412238D01*
X82973238Y-112317000D01*
X82830380Y-112269380D01*
X82735142Y-112269380D01*
X82592285Y-112317000D01*
X82544666Y-112364619D01*
X82163714Y-112364619D02*
X82116095Y-112317000D01*
X82020857Y-112269380D01*
X81782761Y-112269380D01*
X81687523Y-112317000D01*
X81639904Y-112364619D01*
X81592285Y-112459857D01*
X81592285Y-112555095D01*
X81639904Y-112697952D01*
X82211333Y-113269380D01*
X81592285Y-113269380D01*
%TO.C,C6*%
X87624666Y-113174142D02*
X87672285Y-113221761D01*
X87815142Y-113269380D01*
X87910380Y-113269380D01*
X88053238Y-113221761D01*
X88148476Y-113126523D01*
X88196095Y-113031285D01*
X88243714Y-112840809D01*
X88243714Y-112697952D01*
X88196095Y-112507476D01*
X88148476Y-112412238D01*
X88053238Y-112317000D01*
X87910380Y-112269380D01*
X87815142Y-112269380D01*
X87672285Y-112317000D01*
X87624666Y-112364619D01*
X86767523Y-112269380D02*
X86958000Y-112269380D01*
X87053238Y-112317000D01*
X87100857Y-112364619D01*
X87196095Y-112507476D01*
X87243714Y-112697952D01*
X87243714Y-113078904D01*
X87196095Y-113174142D01*
X87148476Y-113221761D01*
X87053238Y-113269380D01*
X86862761Y-113269380D01*
X86767523Y-113221761D01*
X86719904Y-113174142D01*
X86672285Y-113078904D01*
X86672285Y-112840809D01*
X86719904Y-112745571D01*
X86767523Y-112697952D01*
X86862761Y-112650333D01*
X87053238Y-112650333D01*
X87148476Y-112697952D01*
X87196095Y-112745571D01*
X87243714Y-112840809D01*
%TO.C,C7*%
X129407666Y-115714142D02*
X129455285Y-115761761D01*
X129598142Y-115809380D01*
X129693380Y-115809380D01*
X129836238Y-115761761D01*
X129931476Y-115666523D01*
X129979095Y-115571285D01*
X130026714Y-115380809D01*
X130026714Y-115237952D01*
X129979095Y-115047476D01*
X129931476Y-114952238D01*
X129836238Y-114857000D01*
X129693380Y-114809380D01*
X129598142Y-114809380D01*
X129455285Y-114857000D01*
X129407666Y-114904619D01*
X129074333Y-114809380D02*
X128407666Y-114809380D01*
X128836238Y-115809380D01*
%TO.C,C9*%
X93403142Y-106808333D02*
X93450761Y-106760714D01*
X93498380Y-106617857D01*
X93498380Y-106522619D01*
X93450761Y-106379761D01*
X93355523Y-106284523D01*
X93260285Y-106236904D01*
X93069809Y-106189285D01*
X92926952Y-106189285D01*
X92736476Y-106236904D01*
X92641238Y-106284523D01*
X92546000Y-106379761D01*
X92498380Y-106522619D01*
X92498380Y-106617857D01*
X92546000Y-106760714D01*
X92593619Y-106808333D01*
X93498380Y-107284523D02*
X93498380Y-107475000D01*
X93450761Y-107570238D01*
X93403142Y-107617857D01*
X93260285Y-107713095D01*
X93069809Y-107760714D01*
X92688857Y-107760714D01*
X92593619Y-107713095D01*
X92546000Y-107665476D01*
X92498380Y-107570238D01*
X92498380Y-107379761D01*
X92546000Y-107284523D01*
X92593619Y-107236904D01*
X92688857Y-107189285D01*
X92926952Y-107189285D01*
X93022190Y-107236904D01*
X93069809Y-107284523D01*
X93117428Y-107379761D01*
X93117428Y-107570238D01*
X93069809Y-107665476D01*
X93022190Y-107713095D01*
X92926952Y-107760714D01*
%TO.C,D1*%
X101880380Y-96203904D02*
X100880380Y-96203904D01*
X100880380Y-96442000D01*
X100928000Y-96584857D01*
X101023238Y-96680095D01*
X101118476Y-96727714D01*
X101308952Y-96775333D01*
X101451809Y-96775333D01*
X101642285Y-96727714D01*
X101737523Y-96680095D01*
X101832761Y-96584857D01*
X101880380Y-96442000D01*
X101880380Y-96203904D01*
X101880380Y-97727714D02*
X101880380Y-97156285D01*
X101880380Y-97442000D02*
X100880380Y-97442000D01*
X101023238Y-97346761D01*
X101118476Y-97251523D01*
X101166095Y-97156285D01*
%TO.C,D2*%
X101880380Y-98743904D02*
X100880380Y-98743904D01*
X100880380Y-98982000D01*
X100928000Y-99124857D01*
X101023238Y-99220095D01*
X101118476Y-99267714D01*
X101308952Y-99315333D01*
X101451809Y-99315333D01*
X101642285Y-99267714D01*
X101737523Y-99220095D01*
X101832761Y-99124857D01*
X101880380Y-98982000D01*
X101880380Y-98743904D01*
X100975619Y-99696285D02*
X100928000Y-99743904D01*
X100880380Y-99839142D01*
X100880380Y-100077238D01*
X100928000Y-100172476D01*
X100975619Y-100220095D01*
X101070857Y-100267714D01*
X101166095Y-100267714D01*
X101308952Y-100220095D01*
X101880380Y-99648666D01*
X101880380Y-100267714D01*
%TO.C,D3*%
X122454380Y-96203904D02*
X121454380Y-96203904D01*
X121454380Y-96442000D01*
X121502000Y-96584857D01*
X121597238Y-96680095D01*
X121692476Y-96727714D01*
X121882952Y-96775333D01*
X122025809Y-96775333D01*
X122216285Y-96727714D01*
X122311523Y-96680095D01*
X122406761Y-96584857D01*
X122454380Y-96442000D01*
X122454380Y-96203904D01*
X121454380Y-97108666D02*
X121454380Y-97727714D01*
X121835333Y-97394380D01*
X121835333Y-97537238D01*
X121882952Y-97632476D01*
X121930571Y-97680095D01*
X122025809Y-97727714D01*
X122263904Y-97727714D01*
X122359142Y-97680095D01*
X122406761Y-97632476D01*
X122454380Y-97537238D01*
X122454380Y-97251523D01*
X122406761Y-97156285D01*
X122359142Y-97108666D01*
%TO.C,D4*%
X122454380Y-98743904D02*
X121454380Y-98743904D01*
X121454380Y-98982000D01*
X121502000Y-99124857D01*
X121597238Y-99220095D01*
X121692476Y-99267714D01*
X121882952Y-99315333D01*
X122025809Y-99315333D01*
X122216285Y-99267714D01*
X122311523Y-99220095D01*
X122406761Y-99124857D01*
X122454380Y-98982000D01*
X122454380Y-98743904D01*
X121787714Y-100172476D02*
X122454380Y-100172476D01*
X121406761Y-99934380D02*
X122121047Y-99696285D01*
X122121047Y-100315333D01*
%TO.C,R5*%
X99943666Y-94727380D02*
X100277000Y-94251190D01*
X100515095Y-94727380D02*
X100515095Y-93727380D01*
X100134142Y-93727380D01*
X100038904Y-93775000D01*
X99991285Y-93822619D01*
X99943666Y-93917857D01*
X99943666Y-94060714D01*
X99991285Y-94155952D01*
X100038904Y-94203571D01*
X100134142Y-94251190D01*
X100515095Y-94251190D01*
X99038904Y-93727380D02*
X99515095Y-93727380D01*
X99562714Y-94203571D01*
X99515095Y-94155952D01*
X99419857Y-94108333D01*
X99181761Y-94108333D01*
X99086523Y-94155952D01*
X99038904Y-94203571D01*
X98991285Y-94298809D01*
X98991285Y-94536904D01*
X99038904Y-94632142D01*
X99086523Y-94679761D01*
X99181761Y-94727380D01*
X99419857Y-94727380D01*
X99515095Y-94679761D01*
X99562714Y-94632142D01*
%TO.C,R17*%
X121501857Y-94727380D02*
X121835190Y-94251190D01*
X122073285Y-94727380D02*
X122073285Y-93727380D01*
X121692333Y-93727380D01*
X121597095Y-93775000D01*
X121549476Y-93822619D01*
X121501857Y-93917857D01*
X121501857Y-94060714D01*
X121549476Y-94155952D01*
X121597095Y-94203571D01*
X121692333Y-94251190D01*
X122073285Y-94251190D01*
X120549476Y-94727380D02*
X121120904Y-94727380D01*
X120835190Y-94727380D02*
X120835190Y-93727380D01*
X120930428Y-93870238D01*
X121025666Y-93965476D01*
X121120904Y-94013095D01*
X120216142Y-93727380D02*
X119549476Y-93727380D01*
X119978047Y-94727380D01*
%TO.C,Q1*%
X105841238Y-95965619D02*
X105936476Y-95918000D01*
X106031714Y-95822761D01*
X106174571Y-95679904D01*
X106269809Y-95632285D01*
X106365047Y-95632285D01*
X106317428Y-95870380D02*
X106412666Y-95822761D01*
X106507904Y-95727523D01*
X106555523Y-95537047D01*
X106555523Y-95203714D01*
X106507904Y-95013238D01*
X106412666Y-94918000D01*
X106317428Y-94870380D01*
X106126952Y-94870380D01*
X106031714Y-94918000D01*
X105936476Y-95013238D01*
X105888857Y-95203714D01*
X105888857Y-95537047D01*
X105936476Y-95727523D01*
X106031714Y-95822761D01*
X106126952Y-95870380D01*
X106317428Y-95870380D01*
X104936476Y-95870380D02*
X105507904Y-95870380D01*
X105222190Y-95870380D02*
X105222190Y-94870380D01*
X105317428Y-95013238D01*
X105412666Y-95108476D01*
X105507904Y-95156095D01*
%TO.C,Q5*%
X113842238Y-96219619D02*
X113937476Y-96172000D01*
X114032714Y-96076761D01*
X114175571Y-95933904D01*
X114270809Y-95886285D01*
X114366047Y-95886285D01*
X114318428Y-96124380D02*
X114413666Y-96076761D01*
X114508904Y-95981523D01*
X114556523Y-95791047D01*
X114556523Y-95457714D01*
X114508904Y-95267238D01*
X114413666Y-95172000D01*
X114318428Y-95124380D01*
X114127952Y-95124380D01*
X114032714Y-95172000D01*
X113937476Y-95267238D01*
X113889857Y-95457714D01*
X113889857Y-95791047D01*
X113937476Y-95981523D01*
X114032714Y-96076761D01*
X114127952Y-96124380D01*
X114318428Y-96124380D01*
X112985095Y-95124380D02*
X113461285Y-95124380D01*
X113508904Y-95600571D01*
X113461285Y-95552952D01*
X113366047Y-95505333D01*
X113127952Y-95505333D01*
X113032714Y-95552952D01*
X112985095Y-95600571D01*
X112937476Y-95695809D01*
X112937476Y-95933904D01*
X112985095Y-96029142D01*
X113032714Y-96076761D01*
X113127952Y-96124380D01*
X113366047Y-96124380D01*
X113461285Y-96076761D01*
X113508904Y-96029142D01*
%TO.C,C5*%
X98800666Y-115333142D02*
X98848285Y-115380761D01*
X98991142Y-115428380D01*
X99086380Y-115428380D01*
X99229238Y-115380761D01*
X99324476Y-115285523D01*
X99372095Y-115190285D01*
X99419714Y-114999809D01*
X99419714Y-114856952D01*
X99372095Y-114666476D01*
X99324476Y-114571238D01*
X99229238Y-114476000D01*
X99086380Y-114428380D01*
X98991142Y-114428380D01*
X98848285Y-114476000D01*
X98800666Y-114523619D01*
X97895904Y-114428380D02*
X98372095Y-114428380D01*
X98419714Y-114904571D01*
X98372095Y-114856952D01*
X98276857Y-114809333D01*
X98038761Y-114809333D01*
X97943523Y-114856952D01*
X97895904Y-114904571D01*
X97848285Y-114999809D01*
X97848285Y-115237904D01*
X97895904Y-115333142D01*
X97943523Y-115380761D01*
X98038761Y-115428380D01*
X98276857Y-115428380D01*
X98372095Y-115380761D01*
X98419714Y-115333142D01*
%TO.C,R1*%
X108960666Y-94473380D02*
X109294000Y-93997190D01*
X109532095Y-94473380D02*
X109532095Y-93473380D01*
X109151142Y-93473380D01*
X109055904Y-93521000D01*
X109008285Y-93568619D01*
X108960666Y-93663857D01*
X108960666Y-93806714D01*
X109008285Y-93901952D01*
X109055904Y-93949571D01*
X109151142Y-93997190D01*
X109532095Y-93997190D01*
X108008285Y-94473380D02*
X108579714Y-94473380D01*
X108294000Y-94473380D02*
X108294000Y-93473380D01*
X108389238Y-93616238D01*
X108484476Y-93711476D01*
X108579714Y-93759095D01*
%TO.C,R3*%
X108960666Y-92949380D02*
X109294000Y-92473190D01*
X109532095Y-92949380D02*
X109532095Y-91949380D01*
X109151142Y-91949380D01*
X109055904Y-91997000D01*
X109008285Y-92044619D01*
X108960666Y-92139857D01*
X108960666Y-92282714D01*
X109008285Y-92377952D01*
X109055904Y-92425571D01*
X109151142Y-92473190D01*
X109532095Y-92473190D01*
X108627333Y-91949380D02*
X108008285Y-91949380D01*
X108341619Y-92330333D01*
X108198761Y-92330333D01*
X108103523Y-92377952D01*
X108055904Y-92425571D01*
X108008285Y-92520809D01*
X108008285Y-92758904D01*
X108055904Y-92854142D01*
X108103523Y-92901761D01*
X108198761Y-92949380D01*
X108484476Y-92949380D01*
X108579714Y-92901761D01*
X108627333Y-92854142D01*
%TO.C,R13*%
X111976857Y-94790880D02*
X112310190Y-94314690D01*
X112548285Y-94790880D02*
X112548285Y-93790880D01*
X112167333Y-93790880D01*
X112072095Y-93838500D01*
X112024476Y-93886119D01*
X111976857Y-93981357D01*
X111976857Y-94124214D01*
X112024476Y-94219452D01*
X112072095Y-94267071D01*
X112167333Y-94314690D01*
X112548285Y-94314690D01*
X111024476Y-94790880D02*
X111595904Y-94790880D01*
X111310190Y-94790880D02*
X111310190Y-93790880D01*
X111405428Y-93933738D01*
X111500666Y-94028976D01*
X111595904Y-94076595D01*
X110691142Y-93790880D02*
X110072095Y-93790880D01*
X110405428Y-94171833D01*
X110262571Y-94171833D01*
X110167333Y-94219452D01*
X110119714Y-94267071D01*
X110072095Y-94362309D01*
X110072095Y-94600404D01*
X110119714Y-94695642D01*
X110167333Y-94743261D01*
X110262571Y-94790880D01*
X110548285Y-94790880D01*
X110643523Y-94743261D01*
X110691142Y-94695642D01*
%TO.C,R15*%
X111976857Y-92949380D02*
X112310190Y-92473190D01*
X112548285Y-92949380D02*
X112548285Y-91949380D01*
X112167333Y-91949380D01*
X112072095Y-91997000D01*
X112024476Y-92044619D01*
X111976857Y-92139857D01*
X111976857Y-92282714D01*
X112024476Y-92377952D01*
X112072095Y-92425571D01*
X112167333Y-92473190D01*
X112548285Y-92473190D01*
X111024476Y-92949380D02*
X111595904Y-92949380D01*
X111310190Y-92949380D02*
X111310190Y-91949380D01*
X111405428Y-92092238D01*
X111500666Y-92187476D01*
X111595904Y-92235095D01*
X110119714Y-91949380D02*
X110595904Y-91949380D01*
X110643523Y-92425571D01*
X110595904Y-92377952D01*
X110500666Y-92330333D01*
X110262571Y-92330333D01*
X110167333Y-92377952D01*
X110119714Y-92425571D01*
X110072095Y-92520809D01*
X110072095Y-92758904D01*
X110119714Y-92854142D01*
X110167333Y-92901761D01*
X110262571Y-92949380D01*
X110500666Y-92949380D01*
X110595904Y-92901761D01*
X110643523Y-92854142D01*
%TO.C,C5*%
X98800666Y-90333142D02*
X98848285Y-90380761D01*
X98991142Y-90428380D01*
X99086380Y-90428380D01*
X99229238Y-90380761D01*
X99324476Y-90285523D01*
X99372095Y-90190285D01*
X99419714Y-89999809D01*
X99419714Y-89856952D01*
X99372095Y-89666476D01*
X99324476Y-89571238D01*
X99229238Y-89476000D01*
X99086380Y-89428380D01*
X98991142Y-89428380D01*
X98848285Y-89476000D01*
X98800666Y-89523619D01*
X97895904Y-89428380D02*
X98372095Y-89428380D01*
X98419714Y-89904571D01*
X98372095Y-89856952D01*
X98276857Y-89809333D01*
X98038761Y-89809333D01*
X97943523Y-89856952D01*
X97895904Y-89904571D01*
X97848285Y-89999809D01*
X97848285Y-90237904D01*
X97895904Y-90333142D01*
X97943523Y-90380761D01*
X98038761Y-90428380D01*
X98276857Y-90428380D01*
X98372095Y-90380761D01*
X98419714Y-90333142D01*
%TO.C,R15*%
X111976857Y-67949380D02*
X112310190Y-67473190D01*
X112548285Y-67949380D02*
X112548285Y-66949380D01*
X112167333Y-66949380D01*
X112072095Y-66997000D01*
X112024476Y-67044619D01*
X111976857Y-67139857D01*
X111976857Y-67282714D01*
X112024476Y-67377952D01*
X112072095Y-67425571D01*
X112167333Y-67473190D01*
X112548285Y-67473190D01*
X111024476Y-67949380D02*
X111595904Y-67949380D01*
X111310190Y-67949380D02*
X111310190Y-66949380D01*
X111405428Y-67092238D01*
X111500666Y-67187476D01*
X111595904Y-67235095D01*
X110119714Y-66949380D02*
X110595904Y-66949380D01*
X110643523Y-67425571D01*
X110595904Y-67377952D01*
X110500666Y-67330333D01*
X110262571Y-67330333D01*
X110167333Y-67377952D01*
X110119714Y-67425571D01*
X110072095Y-67520809D01*
X110072095Y-67758904D01*
X110119714Y-67854142D01*
X110167333Y-67901761D01*
X110262571Y-67949380D01*
X110500666Y-67949380D01*
X110595904Y-67901761D01*
X110643523Y-67854142D01*
%TO.C,R13*%
X111976857Y-69790880D02*
X112310190Y-69314690D01*
X112548285Y-69790880D02*
X112548285Y-68790880D01*
X112167333Y-68790880D01*
X112072095Y-68838500D01*
X112024476Y-68886119D01*
X111976857Y-68981357D01*
X111976857Y-69124214D01*
X112024476Y-69219452D01*
X112072095Y-69267071D01*
X112167333Y-69314690D01*
X112548285Y-69314690D01*
X111024476Y-69790880D02*
X111595904Y-69790880D01*
X111310190Y-69790880D02*
X111310190Y-68790880D01*
X111405428Y-68933738D01*
X111500666Y-69028976D01*
X111595904Y-69076595D01*
X110691142Y-68790880D02*
X110072095Y-68790880D01*
X110405428Y-69171833D01*
X110262571Y-69171833D01*
X110167333Y-69219452D01*
X110119714Y-69267071D01*
X110072095Y-69362309D01*
X110072095Y-69600404D01*
X110119714Y-69695642D01*
X110167333Y-69743261D01*
X110262571Y-69790880D01*
X110548285Y-69790880D01*
X110643523Y-69743261D01*
X110691142Y-69695642D01*
%TO.C,R3*%
X108960666Y-67949380D02*
X109294000Y-67473190D01*
X109532095Y-67949380D02*
X109532095Y-66949380D01*
X109151142Y-66949380D01*
X109055904Y-66997000D01*
X109008285Y-67044619D01*
X108960666Y-67139857D01*
X108960666Y-67282714D01*
X109008285Y-67377952D01*
X109055904Y-67425571D01*
X109151142Y-67473190D01*
X109532095Y-67473190D01*
X108627333Y-66949380D02*
X108008285Y-66949380D01*
X108341619Y-67330333D01*
X108198761Y-67330333D01*
X108103523Y-67377952D01*
X108055904Y-67425571D01*
X108008285Y-67520809D01*
X108008285Y-67758904D01*
X108055904Y-67854142D01*
X108103523Y-67901761D01*
X108198761Y-67949380D01*
X108484476Y-67949380D01*
X108579714Y-67901761D01*
X108627333Y-67854142D01*
%TO.C,R1*%
X108960666Y-69473380D02*
X109294000Y-68997190D01*
X109532095Y-69473380D02*
X109532095Y-68473380D01*
X109151142Y-68473380D01*
X109055904Y-68521000D01*
X109008285Y-68568619D01*
X108960666Y-68663857D01*
X108960666Y-68806714D01*
X109008285Y-68901952D01*
X109055904Y-68949571D01*
X109151142Y-68997190D01*
X109532095Y-68997190D01*
X108008285Y-69473380D02*
X108579714Y-69473380D01*
X108294000Y-69473380D02*
X108294000Y-68473380D01*
X108389238Y-68616238D01*
X108484476Y-68711476D01*
X108579714Y-68759095D01*
%TO.C,Q5*%
X113842238Y-71219619D02*
X113937476Y-71172000D01*
X114032714Y-71076761D01*
X114175571Y-70933904D01*
X114270809Y-70886285D01*
X114366047Y-70886285D01*
X114318428Y-71124380D02*
X114413666Y-71076761D01*
X114508904Y-70981523D01*
X114556523Y-70791047D01*
X114556523Y-70457714D01*
X114508904Y-70267238D01*
X114413666Y-70172000D01*
X114318428Y-70124380D01*
X114127952Y-70124380D01*
X114032714Y-70172000D01*
X113937476Y-70267238D01*
X113889857Y-70457714D01*
X113889857Y-70791047D01*
X113937476Y-70981523D01*
X114032714Y-71076761D01*
X114127952Y-71124380D01*
X114318428Y-71124380D01*
X112985095Y-70124380D02*
X113461285Y-70124380D01*
X113508904Y-70600571D01*
X113461285Y-70552952D01*
X113366047Y-70505333D01*
X113127952Y-70505333D01*
X113032714Y-70552952D01*
X112985095Y-70600571D01*
X112937476Y-70695809D01*
X112937476Y-70933904D01*
X112985095Y-71029142D01*
X113032714Y-71076761D01*
X113127952Y-71124380D01*
X113366047Y-71124380D01*
X113461285Y-71076761D01*
X113508904Y-71029142D01*
%TO.C,Q1*%
X105841238Y-70965619D02*
X105936476Y-70918000D01*
X106031714Y-70822761D01*
X106174571Y-70679904D01*
X106269809Y-70632285D01*
X106365047Y-70632285D01*
X106317428Y-70870380D02*
X106412666Y-70822761D01*
X106507904Y-70727523D01*
X106555523Y-70537047D01*
X106555523Y-70203714D01*
X106507904Y-70013238D01*
X106412666Y-69918000D01*
X106317428Y-69870380D01*
X106126952Y-69870380D01*
X106031714Y-69918000D01*
X105936476Y-70013238D01*
X105888857Y-70203714D01*
X105888857Y-70537047D01*
X105936476Y-70727523D01*
X106031714Y-70822761D01*
X106126952Y-70870380D01*
X106317428Y-70870380D01*
X104936476Y-70870380D02*
X105507904Y-70870380D01*
X105222190Y-70870380D02*
X105222190Y-69870380D01*
X105317428Y-70013238D01*
X105412666Y-70108476D01*
X105507904Y-70156095D01*
%TO.C,R17*%
X121501857Y-69727380D02*
X121835190Y-69251190D01*
X122073285Y-69727380D02*
X122073285Y-68727380D01*
X121692333Y-68727380D01*
X121597095Y-68775000D01*
X121549476Y-68822619D01*
X121501857Y-68917857D01*
X121501857Y-69060714D01*
X121549476Y-69155952D01*
X121597095Y-69203571D01*
X121692333Y-69251190D01*
X122073285Y-69251190D01*
X120549476Y-69727380D02*
X121120904Y-69727380D01*
X120835190Y-69727380D02*
X120835190Y-68727380D01*
X120930428Y-68870238D01*
X121025666Y-68965476D01*
X121120904Y-69013095D01*
X120216142Y-68727380D02*
X119549476Y-68727380D01*
X119978047Y-69727380D01*
%TO.C,R5*%
X99943666Y-69727380D02*
X100277000Y-69251190D01*
X100515095Y-69727380D02*
X100515095Y-68727380D01*
X100134142Y-68727380D01*
X100038904Y-68775000D01*
X99991285Y-68822619D01*
X99943666Y-68917857D01*
X99943666Y-69060714D01*
X99991285Y-69155952D01*
X100038904Y-69203571D01*
X100134142Y-69251190D01*
X100515095Y-69251190D01*
X99038904Y-68727380D02*
X99515095Y-68727380D01*
X99562714Y-69203571D01*
X99515095Y-69155952D01*
X99419857Y-69108333D01*
X99181761Y-69108333D01*
X99086523Y-69155952D01*
X99038904Y-69203571D01*
X98991285Y-69298809D01*
X98991285Y-69536904D01*
X99038904Y-69632142D01*
X99086523Y-69679761D01*
X99181761Y-69727380D01*
X99419857Y-69727380D01*
X99515095Y-69679761D01*
X99562714Y-69632142D01*
%TO.C,D4*%
X122454380Y-73743904D02*
X121454380Y-73743904D01*
X121454380Y-73982000D01*
X121502000Y-74124857D01*
X121597238Y-74220095D01*
X121692476Y-74267714D01*
X121882952Y-74315333D01*
X122025809Y-74315333D01*
X122216285Y-74267714D01*
X122311523Y-74220095D01*
X122406761Y-74124857D01*
X122454380Y-73982000D01*
X122454380Y-73743904D01*
X121787714Y-75172476D02*
X122454380Y-75172476D01*
X121406761Y-74934380D02*
X122121047Y-74696285D01*
X122121047Y-75315333D01*
%TO.C,D3*%
X122454380Y-71203904D02*
X121454380Y-71203904D01*
X121454380Y-71442000D01*
X121502000Y-71584857D01*
X121597238Y-71680095D01*
X121692476Y-71727714D01*
X121882952Y-71775333D01*
X122025809Y-71775333D01*
X122216285Y-71727714D01*
X122311523Y-71680095D01*
X122406761Y-71584857D01*
X122454380Y-71442000D01*
X122454380Y-71203904D01*
X121454380Y-72108666D02*
X121454380Y-72727714D01*
X121835333Y-72394380D01*
X121835333Y-72537238D01*
X121882952Y-72632476D01*
X121930571Y-72680095D01*
X122025809Y-72727714D01*
X122263904Y-72727714D01*
X122359142Y-72680095D01*
X122406761Y-72632476D01*
X122454380Y-72537238D01*
X122454380Y-72251523D01*
X122406761Y-72156285D01*
X122359142Y-72108666D01*
%TO.C,D2*%
X101880380Y-73743904D02*
X100880380Y-73743904D01*
X100880380Y-73982000D01*
X100928000Y-74124857D01*
X101023238Y-74220095D01*
X101118476Y-74267714D01*
X101308952Y-74315333D01*
X101451809Y-74315333D01*
X101642285Y-74267714D01*
X101737523Y-74220095D01*
X101832761Y-74124857D01*
X101880380Y-73982000D01*
X101880380Y-73743904D01*
X100975619Y-74696285D02*
X100928000Y-74743904D01*
X100880380Y-74839142D01*
X100880380Y-75077238D01*
X100928000Y-75172476D01*
X100975619Y-75220095D01*
X101070857Y-75267714D01*
X101166095Y-75267714D01*
X101308952Y-75220095D01*
X101880380Y-74648666D01*
X101880380Y-75267714D01*
%TO.C,D1*%
X101880380Y-71203904D02*
X100880380Y-71203904D01*
X100880380Y-71442000D01*
X100928000Y-71584857D01*
X101023238Y-71680095D01*
X101118476Y-71727714D01*
X101308952Y-71775333D01*
X101451809Y-71775333D01*
X101642285Y-71727714D01*
X101737523Y-71680095D01*
X101832761Y-71584857D01*
X101880380Y-71442000D01*
X101880380Y-71203904D01*
X101880380Y-72727714D02*
X101880380Y-72156285D01*
X101880380Y-72442000D02*
X100880380Y-72442000D01*
X101023238Y-72346761D01*
X101118476Y-72251523D01*
X101166095Y-72156285D01*
%TO.C,C9*%
X93403142Y-81808333D02*
X93450761Y-81760714D01*
X93498380Y-81617857D01*
X93498380Y-81522619D01*
X93450761Y-81379761D01*
X93355523Y-81284523D01*
X93260285Y-81236904D01*
X93069809Y-81189285D01*
X92926952Y-81189285D01*
X92736476Y-81236904D01*
X92641238Y-81284523D01*
X92546000Y-81379761D01*
X92498380Y-81522619D01*
X92498380Y-81617857D01*
X92546000Y-81760714D01*
X92593619Y-81808333D01*
X93498380Y-82284523D02*
X93498380Y-82475000D01*
X93450761Y-82570238D01*
X93403142Y-82617857D01*
X93260285Y-82713095D01*
X93069809Y-82760714D01*
X92688857Y-82760714D01*
X92593619Y-82713095D01*
X92546000Y-82665476D01*
X92498380Y-82570238D01*
X92498380Y-82379761D01*
X92546000Y-82284523D01*
X92593619Y-82236904D01*
X92688857Y-82189285D01*
X92926952Y-82189285D01*
X93022190Y-82236904D01*
X93069809Y-82284523D01*
X93117428Y-82379761D01*
X93117428Y-82570238D01*
X93069809Y-82665476D01*
X93022190Y-82713095D01*
X92926952Y-82760714D01*
%TO.C,C7*%
X129407666Y-90714142D02*
X129455285Y-90761761D01*
X129598142Y-90809380D01*
X129693380Y-90809380D01*
X129836238Y-90761761D01*
X129931476Y-90666523D01*
X129979095Y-90571285D01*
X130026714Y-90380809D01*
X130026714Y-90237952D01*
X129979095Y-90047476D01*
X129931476Y-89952238D01*
X129836238Y-89857000D01*
X129693380Y-89809380D01*
X129598142Y-89809380D01*
X129455285Y-89857000D01*
X129407666Y-89904619D01*
X129074333Y-89809380D02*
X128407666Y-89809380D01*
X128836238Y-90809380D01*
%TO.C,C6*%
X87624666Y-88174142D02*
X87672285Y-88221761D01*
X87815142Y-88269380D01*
X87910380Y-88269380D01*
X88053238Y-88221761D01*
X88148476Y-88126523D01*
X88196095Y-88031285D01*
X88243714Y-87840809D01*
X88243714Y-87697952D01*
X88196095Y-87507476D01*
X88148476Y-87412238D01*
X88053238Y-87317000D01*
X87910380Y-87269380D01*
X87815142Y-87269380D01*
X87672285Y-87317000D01*
X87624666Y-87364619D01*
X86767523Y-87269380D02*
X86958000Y-87269380D01*
X87053238Y-87317000D01*
X87100857Y-87364619D01*
X87196095Y-87507476D01*
X87243714Y-87697952D01*
X87243714Y-88078904D01*
X87196095Y-88174142D01*
X87148476Y-88221761D01*
X87053238Y-88269380D01*
X86862761Y-88269380D01*
X86767523Y-88221761D01*
X86719904Y-88174142D01*
X86672285Y-88078904D01*
X86672285Y-87840809D01*
X86719904Y-87745571D01*
X86767523Y-87697952D01*
X86862761Y-87650333D01*
X87053238Y-87650333D01*
X87148476Y-87697952D01*
X87196095Y-87745571D01*
X87243714Y-87840809D01*
%TO.C,C2*%
X82544666Y-88174142D02*
X82592285Y-88221761D01*
X82735142Y-88269380D01*
X82830380Y-88269380D01*
X82973238Y-88221761D01*
X83068476Y-88126523D01*
X83116095Y-88031285D01*
X83163714Y-87840809D01*
X83163714Y-87697952D01*
X83116095Y-87507476D01*
X83068476Y-87412238D01*
X82973238Y-87317000D01*
X82830380Y-87269380D01*
X82735142Y-87269380D01*
X82592285Y-87317000D01*
X82544666Y-87364619D01*
X82163714Y-87364619D02*
X82116095Y-87317000D01*
X82020857Y-87269380D01*
X81782761Y-87269380D01*
X81687523Y-87317000D01*
X81639904Y-87364619D01*
X81592285Y-87459857D01*
X81592285Y-87555095D01*
X81639904Y-87697952D01*
X82211333Y-88269380D01*
X81592285Y-88269380D01*
%TO.C,C1*%
X82227142Y-82062333D02*
X82274761Y-82014714D01*
X82322380Y-81871857D01*
X82322380Y-81776619D01*
X82274761Y-81633761D01*
X82179523Y-81538523D01*
X82084285Y-81490904D01*
X81893809Y-81443285D01*
X81750952Y-81443285D01*
X81560476Y-81490904D01*
X81465238Y-81538523D01*
X81370000Y-81633761D01*
X81322380Y-81776619D01*
X81322380Y-81871857D01*
X81370000Y-82014714D01*
X81417619Y-82062333D01*
X82322380Y-83014714D02*
X82322380Y-82443285D01*
X82322380Y-82729000D02*
X81322380Y-82729000D01*
X81465238Y-82633761D01*
X81560476Y-82538523D01*
X81608095Y-82443285D01*
%TO.C,C12*%
X127470857Y-67727142D02*
X127518476Y-67774761D01*
X127661333Y-67822380D01*
X127756571Y-67822380D01*
X127899428Y-67774761D01*
X127994666Y-67679523D01*
X128042285Y-67584285D01*
X128089904Y-67393809D01*
X128089904Y-67250952D01*
X128042285Y-67060476D01*
X127994666Y-66965238D01*
X127899428Y-66870000D01*
X127756571Y-66822380D01*
X127661333Y-66822380D01*
X127518476Y-66870000D01*
X127470857Y-66917619D01*
X126518476Y-67822380D02*
X127089904Y-67822380D01*
X126804190Y-67822380D02*
X126804190Y-66822380D01*
X126899428Y-66965238D01*
X126994666Y-67060476D01*
X127089904Y-67108095D01*
X126137523Y-66917619D02*
X126089904Y-66870000D01*
X125994666Y-66822380D01*
X125756571Y-66822380D01*
X125661333Y-66870000D01*
X125613714Y-66917619D01*
X125566095Y-67012857D01*
X125566095Y-67108095D01*
X125613714Y-67250952D01*
X126185142Y-67822380D01*
X125566095Y-67822380D01*
%TO.C,C11*%
X130010857Y-68870142D02*
X130058476Y-68917761D01*
X130201333Y-68965380D01*
X130296571Y-68965380D01*
X130439428Y-68917761D01*
X130534666Y-68822523D01*
X130582285Y-68727285D01*
X130629904Y-68536809D01*
X130629904Y-68393952D01*
X130582285Y-68203476D01*
X130534666Y-68108238D01*
X130439428Y-68013000D01*
X130296571Y-67965380D01*
X130201333Y-67965380D01*
X130058476Y-68013000D01*
X130010857Y-68060619D01*
X129058476Y-68965380D02*
X129629904Y-68965380D01*
X129344190Y-68965380D02*
X129344190Y-67965380D01*
X129439428Y-68108238D01*
X129534666Y-68203476D01*
X129629904Y-68251095D01*
X128106095Y-68965380D02*
X128677523Y-68965380D01*
X128391809Y-68965380D02*
X128391809Y-67965380D01*
X128487047Y-68108238D01*
X128582285Y-68203476D01*
X128677523Y-68251095D01*
%TO.C,C4*%
X93784142Y-68549833D02*
X93831761Y-68502214D01*
X93879380Y-68359357D01*
X93879380Y-68264119D01*
X93831761Y-68121261D01*
X93736523Y-68026023D01*
X93641285Y-67978404D01*
X93450809Y-67930785D01*
X93307952Y-67930785D01*
X93117476Y-67978404D01*
X93022238Y-68026023D01*
X92927000Y-68121261D01*
X92879380Y-68264119D01*
X92879380Y-68359357D01*
X92927000Y-68502214D01*
X92974619Y-68549833D01*
X93212714Y-69406976D02*
X93879380Y-69406976D01*
X92831761Y-69168880D02*
X93546047Y-68930785D01*
X93546047Y-69549833D01*
%TO.C,C3*%
X95181142Y-68473333D02*
X95228761Y-68425714D01*
X95276380Y-68282857D01*
X95276380Y-68187619D01*
X95228761Y-68044761D01*
X95133523Y-67949523D01*
X95038285Y-67901904D01*
X94847809Y-67854285D01*
X94704952Y-67854285D01*
X94514476Y-67901904D01*
X94419238Y-67949523D01*
X94324000Y-68044761D01*
X94276380Y-68187619D01*
X94276380Y-68282857D01*
X94324000Y-68425714D01*
X94371619Y-68473333D01*
X94276380Y-68806666D02*
X94276380Y-69425714D01*
X94657333Y-69092380D01*
X94657333Y-69235238D01*
X94704952Y-69330476D01*
X94752571Y-69378095D01*
X94847809Y-69425714D01*
X95085904Y-69425714D01*
X95181142Y-69378095D01*
X95228761Y-69330476D01*
X95276380Y-69235238D01*
X95276380Y-68949523D01*
X95228761Y-68854285D01*
X95181142Y-68806666D01*
%TD*%
%LPC*%
%TO.C,C3*%
G36*
G01*
X97241000Y-92491500D02*
X97741000Y-92491500D01*
G75*
G02*
X97966000Y-92716500I0J-225000D01*
G01*
X97966000Y-93166500D01*
G75*
G02*
X97741000Y-93391500I-225000J0D01*
G01*
X97241000Y-93391500D01*
G75*
G02*
X97016000Y-93166500I0J225000D01*
G01*
X97016000Y-92716500D01*
G75*
G02*
X97241000Y-92491500I225000J0D01*
G01*
G37*
G36*
G01*
X97241000Y-94041500D02*
X97741000Y-94041500D01*
G75*
G02*
X97966000Y-94266500I0J-225000D01*
G01*
X97966000Y-94716500D01*
G75*
G02*
X97741000Y-94941500I-225000J0D01*
G01*
X97241000Y-94941500D01*
G75*
G02*
X97016000Y-94716500I0J225000D01*
G01*
X97016000Y-94266500D01*
G75*
G02*
X97241000Y-94041500I225000J0D01*
G01*
G37*
%TD*%
%TO.C,C4*%
G36*
G01*
X95717000Y-92491500D02*
X96217000Y-92491500D01*
G75*
G02*
X96442000Y-92716500I0J-225000D01*
G01*
X96442000Y-93166500D01*
G75*
G02*
X96217000Y-93391500I-225000J0D01*
G01*
X95717000Y-93391500D01*
G75*
G02*
X95492000Y-93166500I0J225000D01*
G01*
X95492000Y-92716500D01*
G75*
G02*
X95717000Y-92491500I225000J0D01*
G01*
G37*
G36*
G01*
X95717000Y-94041500D02*
X96217000Y-94041500D01*
G75*
G02*
X96442000Y-94266500I0J-225000D01*
G01*
X96442000Y-94716500D01*
G75*
G02*
X96217000Y-94941500I-225000J0D01*
G01*
X95717000Y-94941500D01*
G75*
G02*
X95492000Y-94716500I0J225000D01*
G01*
X95492000Y-94266500D01*
G75*
G02*
X95717000Y-94041500I225000J0D01*
G01*
G37*
%TD*%
%TO.C,C11*%
G36*
G01*
X124419000Y-92491500D02*
X124919000Y-92491500D01*
G75*
G02*
X125144000Y-92716500I0J-225000D01*
G01*
X125144000Y-93166500D01*
G75*
G02*
X124919000Y-93391500I-225000J0D01*
G01*
X124419000Y-93391500D01*
G75*
G02*
X124194000Y-93166500I0J225000D01*
G01*
X124194000Y-92716500D01*
G75*
G02*
X124419000Y-92491500I225000J0D01*
G01*
G37*
G36*
G01*
X124419000Y-94041500D02*
X124919000Y-94041500D01*
G75*
G02*
X125144000Y-94266500I0J-225000D01*
G01*
X125144000Y-94716500D01*
G75*
G02*
X124919000Y-94941500I-225000J0D01*
G01*
X124419000Y-94941500D01*
G75*
G02*
X124194000Y-94716500I0J225000D01*
G01*
X124194000Y-94266500D01*
G75*
G02*
X124419000Y-94041500I225000J0D01*
G01*
G37*
%TD*%
%TO.C,C12*%
G36*
G01*
X122895000Y-92491500D02*
X123395000Y-92491500D01*
G75*
G02*
X123620000Y-92716500I0J-225000D01*
G01*
X123620000Y-93166500D01*
G75*
G02*
X123395000Y-93391500I-225000J0D01*
G01*
X122895000Y-93391500D01*
G75*
G02*
X122670000Y-93166500I0J225000D01*
G01*
X122670000Y-92716500D01*
G75*
G02*
X122895000Y-92491500I225000J0D01*
G01*
G37*
G36*
G01*
X122895000Y-94041500D02*
X123395000Y-94041500D01*
G75*
G02*
X123620000Y-94266500I0J-225000D01*
G01*
X123620000Y-94716500D01*
G75*
G02*
X123395000Y-94941500I-225000J0D01*
G01*
X122895000Y-94941500D01*
G75*
G02*
X122670000Y-94716500I0J225000D01*
G01*
X122670000Y-94266500D01*
G75*
G02*
X122895000Y-94041500I225000J0D01*
G01*
G37*
%TD*%
%TO.C,C1*%
G36*
G01*
X85943001Y-111783000D02*
X83892999Y-111783000D01*
G75*
G02*
X83643000Y-111533001I0J249999D01*
G01*
X83643000Y-109782999D01*
G75*
G02*
X83892999Y-109533000I249999J0D01*
G01*
X85943001Y-109533000D01*
G75*
G02*
X86193000Y-109782999I0J-249999D01*
G01*
X86193000Y-111533001D01*
G75*
G02*
X85943001Y-111783000I-249999J0D01*
G01*
G37*
G36*
G01*
X85943001Y-105383000D02*
X83892999Y-105383000D01*
G75*
G02*
X83643000Y-105133001I0J249999D01*
G01*
X83643000Y-103382999D01*
G75*
G02*
X83892999Y-103133000I249999J0D01*
G01*
X85943001Y-103133000D01*
G75*
G02*
X86193000Y-103382999I0J-249999D01*
G01*
X86193000Y-105133001D01*
G75*
G02*
X85943001Y-105383000I-249999J0D01*
G01*
G37*
%TD*%
%TO.C,C2*%
G36*
G01*
X83566000Y-113067000D02*
X83566000Y-112567000D01*
G75*
G02*
X83791000Y-112342000I225000J0D01*
G01*
X84241000Y-112342000D01*
G75*
G02*
X84466000Y-112567000I0J-225000D01*
G01*
X84466000Y-113067000D01*
G75*
G02*
X84241000Y-113292000I-225000J0D01*
G01*
X83791000Y-113292000D01*
G75*
G02*
X83566000Y-113067000I0J225000D01*
G01*
G37*
G36*
G01*
X85116000Y-113067000D02*
X85116000Y-112567000D01*
G75*
G02*
X85341000Y-112342000I225000J0D01*
G01*
X85791000Y-112342000D01*
G75*
G02*
X86016000Y-112567000I0J-225000D01*
G01*
X86016000Y-113067000D01*
G75*
G02*
X85791000Y-113292000I-225000J0D01*
G01*
X85341000Y-113292000D01*
G75*
G02*
X85116000Y-113067000I0J225000D01*
G01*
G37*
%TD*%
%TO.C,C6*%
G36*
G01*
X88646000Y-113067000D02*
X88646000Y-112567000D01*
G75*
G02*
X88871000Y-112342000I225000J0D01*
G01*
X89321000Y-112342000D01*
G75*
G02*
X89546000Y-112567000I0J-225000D01*
G01*
X89546000Y-113067000D01*
G75*
G02*
X89321000Y-113292000I-225000J0D01*
G01*
X88871000Y-113292000D01*
G75*
G02*
X88646000Y-113067000I0J225000D01*
G01*
G37*
G36*
G01*
X90196000Y-113067000D02*
X90196000Y-112567000D01*
G75*
G02*
X90421000Y-112342000I225000J0D01*
G01*
X90871000Y-112342000D01*
G75*
G02*
X91096000Y-112567000I0J-225000D01*
G01*
X91096000Y-113067000D01*
G75*
G02*
X90871000Y-113292000I-225000J0D01*
G01*
X90421000Y-113292000D01*
G75*
G02*
X90196000Y-113067000I0J225000D01*
G01*
G37*
%TD*%
D12*
%TO.C,C7*%
X129241000Y-95545000D03*
X129241000Y-113045000D03*
%TD*%
%TO.C,C9*%
G36*
G01*
X90896001Y-111783000D02*
X88845999Y-111783000D01*
G75*
G02*
X88596000Y-111533001I0J249999D01*
G01*
X88596000Y-109782999D01*
G75*
G02*
X88845999Y-109533000I249999J0D01*
G01*
X90896001Y-109533000D01*
G75*
G02*
X91146000Y-109782999I0J-249999D01*
G01*
X91146000Y-111533001D01*
G75*
G02*
X90896001Y-111783000I-249999J0D01*
G01*
G37*
G36*
G01*
X90896001Y-105383000D02*
X88845999Y-105383000D01*
G75*
G02*
X88596000Y-105133001I0J249999D01*
G01*
X88596000Y-103382999D01*
G75*
G02*
X88845999Y-103133000I249999J0D01*
G01*
X90896001Y-103133000D01*
G75*
G02*
X91146000Y-103382999I0J-249999D01*
G01*
X91146000Y-105133001D01*
G75*
G02*
X90896001Y-105383000I-249999J0D01*
G01*
G37*
%TD*%
D13*
%TO.C,D1*%
X97999000Y-96942000D03*
X100099000Y-96942000D03*
%TD*%
%TO.C,D2*%
X97999000Y-99482000D03*
X100099000Y-99482000D03*
%TD*%
%TO.C,D3*%
X118573000Y-96942000D03*
X120673000Y-96942000D03*
%TD*%
%TO.C,D4*%
X118573000Y-99482000D03*
X120673000Y-99482000D03*
%TD*%
D14*
%TO.C,K1*%
X95713000Y-96942000D03*
D15*
X95713000Y-99482000D03*
X95713000Y-104562000D03*
X95713000Y-109642000D03*
X95713000Y-114722000D03*
X103333000Y-114722000D03*
X103333000Y-109642000D03*
X103333000Y-104562000D03*
X103333000Y-99482000D03*
X103333000Y-96942000D03*
%TD*%
D16*
%TO.C,PS1*%
X83521000Y-114849000D03*
D17*
X86061000Y-114849000D03*
X88601000Y-114849000D03*
X91141000Y-114849000D03*
%TD*%
%TO.C,R5*%
G36*
G01*
X101065000Y-92603000D02*
X101065000Y-93153000D01*
G75*
G02*
X100865000Y-93353000I-200000J0D01*
G01*
X100465000Y-93353000D01*
G75*
G02*
X100265000Y-93153000I0J200000D01*
G01*
X100265000Y-92603000D01*
G75*
G02*
X100465000Y-92403000I200000J0D01*
G01*
X100865000Y-92403000D01*
G75*
G02*
X101065000Y-92603000I0J-200000D01*
G01*
G37*
G36*
G01*
X99415000Y-92603000D02*
X99415000Y-93153000D01*
G75*
G02*
X99215000Y-93353000I-200000J0D01*
G01*
X98815000Y-93353000D01*
G75*
G02*
X98615000Y-93153000I0J200000D01*
G01*
X98615000Y-92603000D01*
G75*
G02*
X98815000Y-92403000I200000J0D01*
G01*
X99215000Y-92403000D01*
G75*
G02*
X99415000Y-92603000I0J-200000D01*
G01*
G37*
%TD*%
%TO.C,R17*%
G36*
G01*
X119571000Y-93153000D02*
X119571000Y-92603000D01*
G75*
G02*
X119771000Y-92403000I200000J0D01*
G01*
X120171000Y-92403000D01*
G75*
G02*
X120371000Y-92603000I0J-200000D01*
G01*
X120371000Y-93153000D01*
G75*
G02*
X120171000Y-93353000I-200000J0D01*
G01*
X119771000Y-93353000D01*
G75*
G02*
X119571000Y-93153000I0J200000D01*
G01*
G37*
G36*
G01*
X121221000Y-93153000D02*
X121221000Y-92603000D01*
G75*
G02*
X121421000Y-92403000I200000J0D01*
G01*
X121821000Y-92403000D01*
G75*
G02*
X122021000Y-92603000I0J-200000D01*
G01*
X122021000Y-93153000D01*
G75*
G02*
X121821000Y-93353000I-200000J0D01*
G01*
X121421000Y-93353000D01*
G75*
G02*
X121221000Y-93153000I0J200000D01*
G01*
G37*
%TD*%
D12*
%TO.C,TP1*%
X87140500Y-108118000D03*
%TD*%
D18*
%TO.C,J1*%
X112350000Y-114468000D03*
X109810000Y-114468000D03*
D19*
X107270000Y-114468000D03*
%TD*%
D15*
%TO.C,K2*%
X123907000Y-96942000D03*
X123907000Y-99482000D03*
X123907000Y-104562000D03*
X123907000Y-109642000D03*
X123907000Y-114722000D03*
X116287000Y-114722000D03*
X116287000Y-109642000D03*
X116287000Y-104562000D03*
X116287000Y-99482000D03*
D14*
X116287000Y-96942000D03*
%TD*%
D20*
%TO.C,Q1*%
X102195000Y-92560500D03*
X104095000Y-92560500D03*
X103145000Y-94560500D03*
%TD*%
D21*
%TO.C,Q5*%
X116541000Y-94460500D03*
X116541000Y-92560500D03*
X118541000Y-93510500D03*
%TD*%
D12*
%TO.C,C5*%
X98613000Y-112182000D03*
X121113000Y-112182000D03*
%TD*%
D22*
%TO.C,J2*%
X84791000Y-97450000D03*
D23*
X84791000Y-96180000D03*
X83521000Y-97450000D03*
X83521000Y-96180000D03*
X82251000Y-97450000D03*
X82251000Y-96180000D03*
%TD*%
%TO.C,R1*%
G36*
G01*
X105219000Y-94296000D02*
X105219000Y-93746000D01*
G75*
G02*
X105419000Y-93546000I200000J0D01*
G01*
X105819000Y-93546000D01*
G75*
G02*
X106019000Y-93746000I0J-200000D01*
G01*
X106019000Y-94296000D01*
G75*
G02*
X105819000Y-94496000I-200000J0D01*
G01*
X105419000Y-94496000D01*
G75*
G02*
X105219000Y-94296000I0J200000D01*
G01*
G37*
G36*
G01*
X106869000Y-94296000D02*
X106869000Y-93746000D01*
G75*
G02*
X107069000Y-93546000I200000J0D01*
G01*
X107469000Y-93546000D01*
G75*
G02*
X107669000Y-93746000I0J-200000D01*
G01*
X107669000Y-94296000D01*
G75*
G02*
X107469000Y-94496000I-200000J0D01*
G01*
X107069000Y-94496000D01*
G75*
G02*
X106869000Y-94296000I0J200000D01*
G01*
G37*
%TD*%
%TO.C,R3*%
G36*
G01*
X107669000Y-92222000D02*
X107669000Y-92772000D01*
G75*
G02*
X107469000Y-92972000I-200000J0D01*
G01*
X107069000Y-92972000D01*
G75*
G02*
X106869000Y-92772000I0J200000D01*
G01*
X106869000Y-92222000D01*
G75*
G02*
X107069000Y-92022000I200000J0D01*
G01*
X107469000Y-92022000D01*
G75*
G02*
X107669000Y-92222000I0J-200000D01*
G01*
G37*
G36*
G01*
X106019000Y-92222000D02*
X106019000Y-92772000D01*
G75*
G02*
X105819000Y-92972000I-200000J0D01*
G01*
X105419000Y-92972000D01*
G75*
G02*
X105219000Y-92772000I0J200000D01*
G01*
X105219000Y-92222000D01*
G75*
G02*
X105419000Y-92022000I200000J0D01*
G01*
X105819000Y-92022000D01*
G75*
G02*
X106019000Y-92222000I0J-200000D01*
G01*
G37*
%TD*%
%TO.C,R13*%
G36*
G01*
X112966000Y-94613500D02*
X112966000Y-94063500D01*
G75*
G02*
X113166000Y-93863500I200000J0D01*
G01*
X113566000Y-93863500D01*
G75*
G02*
X113766000Y-94063500I0J-200000D01*
G01*
X113766000Y-94613500D01*
G75*
G02*
X113566000Y-94813500I-200000J0D01*
G01*
X113166000Y-94813500D01*
G75*
G02*
X112966000Y-94613500I0J200000D01*
G01*
G37*
G36*
G01*
X114616000Y-94613500D02*
X114616000Y-94063500D01*
G75*
G02*
X114816000Y-93863500I200000J0D01*
G01*
X115216000Y-93863500D01*
G75*
G02*
X115416000Y-94063500I0J-200000D01*
G01*
X115416000Y-94613500D01*
G75*
G02*
X115216000Y-94813500I-200000J0D01*
G01*
X114816000Y-94813500D01*
G75*
G02*
X114616000Y-94613500I0J200000D01*
G01*
G37*
%TD*%
%TO.C,R15*%
G36*
G01*
X112967000Y-92772000D02*
X112967000Y-92222000D01*
G75*
G02*
X113167000Y-92022000I200000J0D01*
G01*
X113567000Y-92022000D01*
G75*
G02*
X113767000Y-92222000I0J-200000D01*
G01*
X113767000Y-92772000D01*
G75*
G02*
X113567000Y-92972000I-200000J0D01*
G01*
X113167000Y-92972000D01*
G75*
G02*
X112967000Y-92772000I0J200000D01*
G01*
G37*
G36*
G01*
X114617000Y-92772000D02*
X114617000Y-92222000D01*
G75*
G02*
X114817000Y-92022000I200000J0D01*
G01*
X115217000Y-92022000D01*
G75*
G02*
X115417000Y-92222000I0J-200000D01*
G01*
X115417000Y-92772000D01*
G75*
G02*
X115217000Y-92972000I-200000J0D01*
G01*
X114817000Y-92972000D01*
G75*
G02*
X114617000Y-92772000I0J200000D01*
G01*
G37*
%TD*%
%TO.C,J2*%
X82251000Y-71180000D03*
X82251000Y-72450000D03*
X83521000Y-71180000D03*
X83521000Y-72450000D03*
X84791000Y-71180000D03*
D22*
X84791000Y-72450000D03*
%TD*%
D12*
%TO.C,C5*%
X121113000Y-87182000D03*
X98613000Y-87182000D03*
%TD*%
%TO.C,R15*%
G36*
G01*
X114617000Y-67772000D02*
X114617000Y-67222000D01*
G75*
G02*
X114817000Y-67022000I200000J0D01*
G01*
X115217000Y-67022000D01*
G75*
G02*
X115417000Y-67222000I0J-200000D01*
G01*
X115417000Y-67772000D01*
G75*
G02*
X115217000Y-67972000I-200000J0D01*
G01*
X114817000Y-67972000D01*
G75*
G02*
X114617000Y-67772000I0J200000D01*
G01*
G37*
G36*
G01*
X112967000Y-67772000D02*
X112967000Y-67222000D01*
G75*
G02*
X113167000Y-67022000I200000J0D01*
G01*
X113567000Y-67022000D01*
G75*
G02*
X113767000Y-67222000I0J-200000D01*
G01*
X113767000Y-67772000D01*
G75*
G02*
X113567000Y-67972000I-200000J0D01*
G01*
X113167000Y-67972000D01*
G75*
G02*
X112967000Y-67772000I0J200000D01*
G01*
G37*
%TD*%
%TO.C,R13*%
G36*
G01*
X114616000Y-69613500D02*
X114616000Y-69063500D01*
G75*
G02*
X114816000Y-68863500I200000J0D01*
G01*
X115216000Y-68863500D01*
G75*
G02*
X115416000Y-69063500I0J-200000D01*
G01*
X115416000Y-69613500D01*
G75*
G02*
X115216000Y-69813500I-200000J0D01*
G01*
X114816000Y-69813500D01*
G75*
G02*
X114616000Y-69613500I0J200000D01*
G01*
G37*
G36*
G01*
X112966000Y-69613500D02*
X112966000Y-69063500D01*
G75*
G02*
X113166000Y-68863500I200000J0D01*
G01*
X113566000Y-68863500D01*
G75*
G02*
X113766000Y-69063500I0J-200000D01*
G01*
X113766000Y-69613500D01*
G75*
G02*
X113566000Y-69813500I-200000J0D01*
G01*
X113166000Y-69813500D01*
G75*
G02*
X112966000Y-69613500I0J200000D01*
G01*
G37*
%TD*%
%TO.C,R3*%
G36*
G01*
X106019000Y-67222000D02*
X106019000Y-67772000D01*
G75*
G02*
X105819000Y-67972000I-200000J0D01*
G01*
X105419000Y-67972000D01*
G75*
G02*
X105219000Y-67772000I0J200000D01*
G01*
X105219000Y-67222000D01*
G75*
G02*
X105419000Y-67022000I200000J0D01*
G01*
X105819000Y-67022000D01*
G75*
G02*
X106019000Y-67222000I0J-200000D01*
G01*
G37*
G36*
G01*
X107669000Y-67222000D02*
X107669000Y-67772000D01*
G75*
G02*
X107469000Y-67972000I-200000J0D01*
G01*
X107069000Y-67972000D01*
G75*
G02*
X106869000Y-67772000I0J200000D01*
G01*
X106869000Y-67222000D01*
G75*
G02*
X107069000Y-67022000I200000J0D01*
G01*
X107469000Y-67022000D01*
G75*
G02*
X107669000Y-67222000I0J-200000D01*
G01*
G37*
%TD*%
%TO.C,R1*%
G36*
G01*
X106869000Y-69296000D02*
X106869000Y-68746000D01*
G75*
G02*
X107069000Y-68546000I200000J0D01*
G01*
X107469000Y-68546000D01*
G75*
G02*
X107669000Y-68746000I0J-200000D01*
G01*
X107669000Y-69296000D01*
G75*
G02*
X107469000Y-69496000I-200000J0D01*
G01*
X107069000Y-69496000D01*
G75*
G02*
X106869000Y-69296000I0J200000D01*
G01*
G37*
G36*
G01*
X105219000Y-69296000D02*
X105219000Y-68746000D01*
G75*
G02*
X105419000Y-68546000I200000J0D01*
G01*
X105819000Y-68546000D01*
G75*
G02*
X106019000Y-68746000I0J-200000D01*
G01*
X106019000Y-69296000D01*
G75*
G02*
X105819000Y-69496000I-200000J0D01*
G01*
X105419000Y-69496000D01*
G75*
G02*
X105219000Y-69296000I0J200000D01*
G01*
G37*
%TD*%
D21*
%TO.C,Q5*%
X118541000Y-68510500D03*
X116541000Y-67560500D03*
X116541000Y-69460500D03*
%TD*%
D20*
%TO.C,Q1*%
X103145000Y-69560500D03*
X104095000Y-67560500D03*
X102195000Y-67560500D03*
%TD*%
D14*
%TO.C,K2*%
X116287000Y-71942000D03*
D15*
X116287000Y-74482000D03*
X116287000Y-79562000D03*
X116287000Y-84642000D03*
X116287000Y-89722000D03*
X123907000Y-89722000D03*
X123907000Y-84642000D03*
X123907000Y-79562000D03*
X123907000Y-74482000D03*
X123907000Y-71942000D03*
%TD*%
D19*
%TO.C,J1*%
X107270000Y-89468000D03*
D18*
X109810000Y-89468000D03*
X112350000Y-89468000D03*
%TD*%
D12*
%TO.C,TP1*%
X87140500Y-83118000D03*
%TD*%
%TO.C,R17*%
G36*
G01*
X121221000Y-68153000D02*
X121221000Y-67603000D01*
G75*
G02*
X121421000Y-67403000I200000J0D01*
G01*
X121821000Y-67403000D01*
G75*
G02*
X122021000Y-67603000I0J-200000D01*
G01*
X122021000Y-68153000D01*
G75*
G02*
X121821000Y-68353000I-200000J0D01*
G01*
X121421000Y-68353000D01*
G75*
G02*
X121221000Y-68153000I0J200000D01*
G01*
G37*
G36*
G01*
X119571000Y-68153000D02*
X119571000Y-67603000D01*
G75*
G02*
X119771000Y-67403000I200000J0D01*
G01*
X120171000Y-67403000D01*
G75*
G02*
X120371000Y-67603000I0J-200000D01*
G01*
X120371000Y-68153000D01*
G75*
G02*
X120171000Y-68353000I-200000J0D01*
G01*
X119771000Y-68353000D01*
G75*
G02*
X119571000Y-68153000I0J200000D01*
G01*
G37*
%TD*%
%TO.C,R5*%
G36*
G01*
X99415000Y-67603000D02*
X99415000Y-68153000D01*
G75*
G02*
X99215000Y-68353000I-200000J0D01*
G01*
X98815000Y-68353000D01*
G75*
G02*
X98615000Y-68153000I0J200000D01*
G01*
X98615000Y-67603000D01*
G75*
G02*
X98815000Y-67403000I200000J0D01*
G01*
X99215000Y-67403000D01*
G75*
G02*
X99415000Y-67603000I0J-200000D01*
G01*
G37*
G36*
G01*
X101065000Y-67603000D02*
X101065000Y-68153000D01*
G75*
G02*
X100865000Y-68353000I-200000J0D01*
G01*
X100465000Y-68353000D01*
G75*
G02*
X100265000Y-68153000I0J200000D01*
G01*
X100265000Y-67603000D01*
G75*
G02*
X100465000Y-67403000I200000J0D01*
G01*
X100865000Y-67403000D01*
G75*
G02*
X101065000Y-67603000I0J-200000D01*
G01*
G37*
%TD*%
D17*
%TO.C,PS1*%
X91141000Y-89849000D03*
X88601000Y-89849000D03*
X86061000Y-89849000D03*
D16*
X83521000Y-89849000D03*
%TD*%
D15*
%TO.C,K1*%
X103333000Y-71942000D03*
X103333000Y-74482000D03*
X103333000Y-79562000D03*
X103333000Y-84642000D03*
X103333000Y-89722000D03*
X95713000Y-89722000D03*
X95713000Y-84642000D03*
X95713000Y-79562000D03*
X95713000Y-74482000D03*
D14*
X95713000Y-71942000D03*
%TD*%
D13*
%TO.C,D4*%
X120673000Y-74482000D03*
X118573000Y-74482000D03*
%TD*%
%TO.C,D3*%
X120673000Y-71942000D03*
X118573000Y-71942000D03*
%TD*%
%TO.C,D2*%
X100099000Y-74482000D03*
X97999000Y-74482000D03*
%TD*%
%TO.C,D1*%
X100099000Y-71942000D03*
X97999000Y-71942000D03*
%TD*%
%TO.C,C9*%
G36*
G01*
X90896001Y-80383000D02*
X88845999Y-80383000D01*
G75*
G02*
X88596000Y-80133001I0J249999D01*
G01*
X88596000Y-78382999D01*
G75*
G02*
X88845999Y-78133000I249999J0D01*
G01*
X90896001Y-78133000D01*
G75*
G02*
X91146000Y-78382999I0J-249999D01*
G01*
X91146000Y-80133001D01*
G75*
G02*
X90896001Y-80383000I-249999J0D01*
G01*
G37*
G36*
G01*
X90896001Y-86783000D02*
X88845999Y-86783000D01*
G75*
G02*
X88596000Y-86533001I0J249999D01*
G01*
X88596000Y-84782999D01*
G75*
G02*
X88845999Y-84533000I249999J0D01*
G01*
X90896001Y-84533000D01*
G75*
G02*
X91146000Y-84782999I0J-249999D01*
G01*
X91146000Y-86533001D01*
G75*
G02*
X90896001Y-86783000I-249999J0D01*
G01*
G37*
%TD*%
D12*
%TO.C,C7*%
X129241000Y-88045000D03*
X129241000Y-70545000D03*
%TD*%
%TO.C,C6*%
G36*
G01*
X90196000Y-88067000D02*
X90196000Y-87567000D01*
G75*
G02*
X90421000Y-87342000I225000J0D01*
G01*
X90871000Y-87342000D01*
G75*
G02*
X91096000Y-87567000I0J-225000D01*
G01*
X91096000Y-88067000D01*
G75*
G02*
X90871000Y-88292000I-225000J0D01*
G01*
X90421000Y-88292000D01*
G75*
G02*
X90196000Y-88067000I0J225000D01*
G01*
G37*
G36*
G01*
X88646000Y-88067000D02*
X88646000Y-87567000D01*
G75*
G02*
X88871000Y-87342000I225000J0D01*
G01*
X89321000Y-87342000D01*
G75*
G02*
X89546000Y-87567000I0J-225000D01*
G01*
X89546000Y-88067000D01*
G75*
G02*
X89321000Y-88292000I-225000J0D01*
G01*
X88871000Y-88292000D01*
G75*
G02*
X88646000Y-88067000I0J225000D01*
G01*
G37*
%TD*%
%TO.C,C2*%
G36*
G01*
X85116000Y-88067000D02*
X85116000Y-87567000D01*
G75*
G02*
X85341000Y-87342000I225000J0D01*
G01*
X85791000Y-87342000D01*
G75*
G02*
X86016000Y-87567000I0J-225000D01*
G01*
X86016000Y-88067000D01*
G75*
G02*
X85791000Y-88292000I-225000J0D01*
G01*
X85341000Y-88292000D01*
G75*
G02*
X85116000Y-88067000I0J225000D01*
G01*
G37*
G36*
G01*
X83566000Y-88067000D02*
X83566000Y-87567000D01*
G75*
G02*
X83791000Y-87342000I225000J0D01*
G01*
X84241000Y-87342000D01*
G75*
G02*
X84466000Y-87567000I0J-225000D01*
G01*
X84466000Y-88067000D01*
G75*
G02*
X84241000Y-88292000I-225000J0D01*
G01*
X83791000Y-88292000D01*
G75*
G02*
X83566000Y-88067000I0J225000D01*
G01*
G37*
%TD*%
%TO.C,C1*%
G36*
G01*
X85943001Y-80383000D02*
X83892999Y-80383000D01*
G75*
G02*
X83643000Y-80133001I0J249999D01*
G01*
X83643000Y-78382999D01*
G75*
G02*
X83892999Y-78133000I249999J0D01*
G01*
X85943001Y-78133000D01*
G75*
G02*
X86193000Y-78382999I0J-249999D01*
G01*
X86193000Y-80133001D01*
G75*
G02*
X85943001Y-80383000I-249999J0D01*
G01*
G37*
G36*
G01*
X85943001Y-86783000D02*
X83892999Y-86783000D01*
G75*
G02*
X83643000Y-86533001I0J249999D01*
G01*
X83643000Y-84782999D01*
G75*
G02*
X83892999Y-84533000I249999J0D01*
G01*
X85943001Y-84533000D01*
G75*
G02*
X86193000Y-84782999I0J-249999D01*
G01*
X86193000Y-86533001D01*
G75*
G02*
X85943001Y-86783000I-249999J0D01*
G01*
G37*
%TD*%
%TO.C,C12*%
G36*
G01*
X122895000Y-69041500D02*
X123395000Y-69041500D01*
G75*
G02*
X123620000Y-69266500I0J-225000D01*
G01*
X123620000Y-69716500D01*
G75*
G02*
X123395000Y-69941500I-225000J0D01*
G01*
X122895000Y-69941500D01*
G75*
G02*
X122670000Y-69716500I0J225000D01*
G01*
X122670000Y-69266500D01*
G75*
G02*
X122895000Y-69041500I225000J0D01*
G01*
G37*
G36*
G01*
X122895000Y-67491500D02*
X123395000Y-67491500D01*
G75*
G02*
X123620000Y-67716500I0J-225000D01*
G01*
X123620000Y-68166500D01*
G75*
G02*
X123395000Y-68391500I-225000J0D01*
G01*
X122895000Y-68391500D01*
G75*
G02*
X122670000Y-68166500I0J225000D01*
G01*
X122670000Y-67716500D01*
G75*
G02*
X122895000Y-67491500I225000J0D01*
G01*
G37*
%TD*%
%TO.C,C11*%
G36*
G01*
X124419000Y-69041500D02*
X124919000Y-69041500D01*
G75*
G02*
X125144000Y-69266500I0J-225000D01*
G01*
X125144000Y-69716500D01*
G75*
G02*
X124919000Y-69941500I-225000J0D01*
G01*
X124419000Y-69941500D01*
G75*
G02*
X124194000Y-69716500I0J225000D01*
G01*
X124194000Y-69266500D01*
G75*
G02*
X124419000Y-69041500I225000J0D01*
G01*
G37*
G36*
G01*
X124419000Y-67491500D02*
X124919000Y-67491500D01*
G75*
G02*
X125144000Y-67716500I0J-225000D01*
G01*
X125144000Y-68166500D01*
G75*
G02*
X124919000Y-68391500I-225000J0D01*
G01*
X124419000Y-68391500D01*
G75*
G02*
X124194000Y-68166500I0J225000D01*
G01*
X124194000Y-67716500D01*
G75*
G02*
X124419000Y-67491500I225000J0D01*
G01*
G37*
%TD*%
%TO.C,C4*%
G36*
G01*
X95717000Y-69041500D02*
X96217000Y-69041500D01*
G75*
G02*
X96442000Y-69266500I0J-225000D01*
G01*
X96442000Y-69716500D01*
G75*
G02*
X96217000Y-69941500I-225000J0D01*
G01*
X95717000Y-69941500D01*
G75*
G02*
X95492000Y-69716500I0J225000D01*
G01*
X95492000Y-69266500D01*
G75*
G02*
X95717000Y-69041500I225000J0D01*
G01*
G37*
G36*
G01*
X95717000Y-67491500D02*
X96217000Y-67491500D01*
G75*
G02*
X96442000Y-67716500I0J-225000D01*
G01*
X96442000Y-68166500D01*
G75*
G02*
X96217000Y-68391500I-225000J0D01*
G01*
X95717000Y-68391500D01*
G75*
G02*
X95492000Y-68166500I0J225000D01*
G01*
X95492000Y-67716500D01*
G75*
G02*
X95717000Y-67491500I225000J0D01*
G01*
G37*
%TD*%
%TO.C,C3*%
G36*
G01*
X97241000Y-69041500D02*
X97741000Y-69041500D01*
G75*
G02*
X97966000Y-69266500I0J-225000D01*
G01*
X97966000Y-69716500D01*
G75*
G02*
X97741000Y-69941500I-225000J0D01*
G01*
X97241000Y-69941500D01*
G75*
G02*
X97016000Y-69716500I0J225000D01*
G01*
X97016000Y-69266500D01*
G75*
G02*
X97241000Y-69041500I225000J0D01*
G01*
G37*
G36*
G01*
X97241000Y-67491500D02*
X97741000Y-67491500D01*
G75*
G02*
X97966000Y-67716500I0J-225000D01*
G01*
X97966000Y-68166500D01*
G75*
G02*
X97741000Y-68391500I-225000J0D01*
G01*
X97241000Y-68391500D01*
G75*
G02*
X97016000Y-68166500I0J225000D01*
G01*
X97016000Y-67716500D01*
G75*
G02*
X97241000Y-67491500I225000J0D01*
G01*
G37*
%TD*%
M02*
