%TF.GenerationSoftware,KiCad,Pcbnew,(5.1.10)-1*%
%TF.CreationDate,2022-01-18T18:11:06+07:00*%
%TF.ProjectId,Fan_controller_v3_pnlz1x2,46616e5f-636f-46e7-9472-6f6c6c65725f,rev?*%
%TF.SameCoordinates,Original*%
%TF.FileFunction,Copper,L4,Bot*%
%TF.FilePolarity,Positive*%
%FSLAX46Y46*%
G04 Gerber Fmt 4.6, Leading zero omitted, Abs format (unit mm)*
G04 Created by KiCad (PCBNEW (5.1.10)-1) date 2022-01-18 18:11:06*
%MOMM*%
%LPD*%
G01*
G04 APERTURE LIST*
%TA.AperFunction,NonConductor*%
%ADD10C,0.300000*%
%TD*%
%TA.AperFunction,ComponentPad*%
%ADD11C,2.000000*%
%TD*%
%TA.AperFunction,SMDPad,CuDef*%
%ADD12R,0.600000X0.450000*%
%TD*%
%TA.AperFunction,ComponentPad*%
%ADD13R,1.600000X1.600000*%
%TD*%
%TA.AperFunction,ComponentPad*%
%ADD14C,1.600000*%
%TD*%
%TA.AperFunction,ComponentPad*%
%ADD15R,1.750000X2.250000*%
%TD*%
%TA.AperFunction,ComponentPad*%
%ADD16O,1.750000X2.250000*%
%TD*%
%TA.AperFunction,ComponentPad*%
%ADD17R,1.000000X1.000000*%
%TD*%
%TA.AperFunction,ComponentPad*%
%ADD18O,1.000000X1.000000*%
%TD*%
%TA.AperFunction,ComponentPad*%
%ADD19O,1.700000X1.700000*%
%TD*%
%TA.AperFunction,ComponentPad*%
%ADD20R,1.700000X1.700000*%
%TD*%
%TA.AperFunction,SMDPad,CuDef*%
%ADD21R,0.800000X0.900000*%
%TD*%
%TA.AperFunction,SMDPad,CuDef*%
%ADD22R,0.900000X0.800000*%
%TD*%
%TA.AperFunction,ViaPad*%
%ADD23C,0.800000*%
%TD*%
%TA.AperFunction,ViaPad*%
%ADD24C,1.200000*%
%TD*%
%TA.AperFunction,Conductor*%
%ADD25C,0.400000*%
%TD*%
%TA.AperFunction,Conductor*%
%ADD26C,0.500000*%
%TD*%
%TA.AperFunction,Conductor*%
%ADD27C,0.800000*%
%TD*%
%TA.AperFunction,Conductor*%
%ADD28C,0.300000*%
%TD*%
%TA.AperFunction,Conductor*%
%ADD29C,2.000000*%
%TD*%
G04 APERTURE END LIST*
D10*
X47457428Y-64810571D02*
X47100285Y-65810571D01*
X46743142Y-64810571D01*
X46314571Y-64310571D02*
X45386000Y-64310571D01*
X45886000Y-64882000D01*
X45671714Y-64882000D01*
X45528857Y-64953428D01*
X45457428Y-65024857D01*
X45386000Y-65167714D01*
X45386000Y-65524857D01*
X45457428Y-65667714D01*
X45528857Y-65739142D01*
X45671714Y-65810571D01*
X46100285Y-65810571D01*
X46243142Y-65739142D01*
X46314571Y-65667714D01*
X47457428Y-39810571D02*
X47100285Y-40810571D01*
X46743142Y-39810571D01*
X46314571Y-39310571D02*
X45386000Y-39310571D01*
X45886000Y-39882000D01*
X45671714Y-39882000D01*
X45528857Y-39953428D01*
X45457428Y-40024857D01*
X45386000Y-40167714D01*
X45386000Y-40524857D01*
X45457428Y-40667714D01*
X45528857Y-40739142D01*
X45671714Y-40810571D01*
X46100285Y-40810571D01*
X46243142Y-40739142D01*
X46314571Y-40667714D01*
%TO.P,C3,1*%
%TO.N,Net-(C3-Pad1)*%
%TA.AperFunction,SMDPad,CuDef*%
G36*
G01*
X60741000Y-64491500D02*
X61241000Y-64491500D01*
G75*
G02*
X61466000Y-64716500I0J-225000D01*
G01*
X61466000Y-65166500D01*
G75*
G02*
X61241000Y-65391500I-225000J0D01*
G01*
X60741000Y-65391500D01*
G75*
G02*
X60516000Y-65166500I0J225000D01*
G01*
X60516000Y-64716500D01*
G75*
G02*
X60741000Y-64491500I225000J0D01*
G01*
G37*
%TD.AperFunction*%
%TO.P,C3,2*%
%TO.N,Net-(C3-Pad2)*%
%TA.AperFunction,SMDPad,CuDef*%
G36*
G01*
X60741000Y-66041500D02*
X61241000Y-66041500D01*
G75*
G02*
X61466000Y-66266500I0J-225000D01*
G01*
X61466000Y-66716500D01*
G75*
G02*
X61241000Y-66941500I-225000J0D01*
G01*
X60741000Y-66941500D01*
G75*
G02*
X60516000Y-66716500I0J225000D01*
G01*
X60516000Y-66266500D01*
G75*
G02*
X60741000Y-66041500I225000J0D01*
G01*
G37*
%TD.AperFunction*%
%TD*%
%TO.P,C4,1*%
%TO.N,Net-(C4-Pad1)*%
%TA.AperFunction,SMDPad,CuDef*%
G36*
G01*
X59217000Y-64491500D02*
X59717000Y-64491500D01*
G75*
G02*
X59942000Y-64716500I0J-225000D01*
G01*
X59942000Y-65166500D01*
G75*
G02*
X59717000Y-65391500I-225000J0D01*
G01*
X59217000Y-65391500D01*
G75*
G02*
X58992000Y-65166500I0J225000D01*
G01*
X58992000Y-64716500D01*
G75*
G02*
X59217000Y-64491500I225000J0D01*
G01*
G37*
%TD.AperFunction*%
%TO.P,C4,2*%
%TO.N,Net-(C4-Pad2)*%
%TA.AperFunction,SMDPad,CuDef*%
G36*
G01*
X59217000Y-66041500D02*
X59717000Y-66041500D01*
G75*
G02*
X59942000Y-66266500I0J-225000D01*
G01*
X59942000Y-66716500D01*
G75*
G02*
X59717000Y-66941500I-225000J0D01*
G01*
X59217000Y-66941500D01*
G75*
G02*
X58992000Y-66716500I0J225000D01*
G01*
X58992000Y-66266500D01*
G75*
G02*
X59217000Y-66041500I225000J0D01*
G01*
G37*
%TD.AperFunction*%
%TD*%
%TO.P,C11,1*%
%TO.N,Net-(C11-Pad1)*%
%TA.AperFunction,SMDPad,CuDef*%
G36*
G01*
X87919000Y-64491500D02*
X88419000Y-64491500D01*
G75*
G02*
X88644000Y-64716500I0J-225000D01*
G01*
X88644000Y-65166500D01*
G75*
G02*
X88419000Y-65391500I-225000J0D01*
G01*
X87919000Y-65391500D01*
G75*
G02*
X87694000Y-65166500I0J225000D01*
G01*
X87694000Y-64716500D01*
G75*
G02*
X87919000Y-64491500I225000J0D01*
G01*
G37*
%TD.AperFunction*%
%TO.P,C11,2*%
%TO.N,Net-(C11-Pad2)*%
%TA.AperFunction,SMDPad,CuDef*%
G36*
G01*
X87919000Y-66041500D02*
X88419000Y-66041500D01*
G75*
G02*
X88644000Y-66266500I0J-225000D01*
G01*
X88644000Y-66716500D01*
G75*
G02*
X88419000Y-66941500I-225000J0D01*
G01*
X87919000Y-66941500D01*
G75*
G02*
X87694000Y-66716500I0J225000D01*
G01*
X87694000Y-66266500D01*
G75*
G02*
X87919000Y-66041500I225000J0D01*
G01*
G37*
%TD.AperFunction*%
%TD*%
%TO.P,C12,1*%
%TO.N,Net-(C12-Pad1)*%
%TA.AperFunction,SMDPad,CuDef*%
G36*
G01*
X86395000Y-64491500D02*
X86895000Y-64491500D01*
G75*
G02*
X87120000Y-64716500I0J-225000D01*
G01*
X87120000Y-65166500D01*
G75*
G02*
X86895000Y-65391500I-225000J0D01*
G01*
X86395000Y-65391500D01*
G75*
G02*
X86170000Y-65166500I0J225000D01*
G01*
X86170000Y-64716500D01*
G75*
G02*
X86395000Y-64491500I225000J0D01*
G01*
G37*
%TD.AperFunction*%
%TO.P,C12,2*%
%TO.N,Net-(C12-Pad2)*%
%TA.AperFunction,SMDPad,CuDef*%
G36*
G01*
X86395000Y-66041500D02*
X86895000Y-66041500D01*
G75*
G02*
X87120000Y-66266500I0J-225000D01*
G01*
X87120000Y-66716500D01*
G75*
G02*
X86895000Y-66941500I-225000J0D01*
G01*
X86395000Y-66941500D01*
G75*
G02*
X86170000Y-66716500I0J225000D01*
G01*
X86170000Y-66266500D01*
G75*
G02*
X86395000Y-66041500I225000J0D01*
G01*
G37*
%TD.AperFunction*%
%TD*%
%TO.P,C1,1*%
%TO.N,+5P*%
%TA.AperFunction,SMDPad,CuDef*%
G36*
G01*
X49443001Y-83783000D02*
X47392999Y-83783000D01*
G75*
G02*
X47143000Y-83533001I0J249999D01*
G01*
X47143000Y-81782999D01*
G75*
G02*
X47392999Y-81533000I249999J0D01*
G01*
X49443001Y-81533000D01*
G75*
G02*
X49693000Y-81782999I0J-249999D01*
G01*
X49693000Y-83533001D01*
G75*
G02*
X49443001Y-83783000I-249999J0D01*
G01*
G37*
%TD.AperFunction*%
%TO.P,C1,2*%
%TO.N,GND1*%
%TA.AperFunction,SMDPad,CuDef*%
G36*
G01*
X49443001Y-77383000D02*
X47392999Y-77383000D01*
G75*
G02*
X47143000Y-77133001I0J249999D01*
G01*
X47143000Y-75382999D01*
G75*
G02*
X47392999Y-75133000I249999J0D01*
G01*
X49443001Y-75133000D01*
G75*
G02*
X49693000Y-75382999I0J-249999D01*
G01*
X49693000Y-77133001D01*
G75*
G02*
X49443001Y-77383000I-249999J0D01*
G01*
G37*
%TD.AperFunction*%
%TD*%
%TO.P,C2,1*%
%TO.N,GND1*%
%TA.AperFunction,SMDPad,CuDef*%
G36*
G01*
X47066000Y-85067000D02*
X47066000Y-84567000D01*
G75*
G02*
X47291000Y-84342000I225000J0D01*
G01*
X47741000Y-84342000D01*
G75*
G02*
X47966000Y-84567000I0J-225000D01*
G01*
X47966000Y-85067000D01*
G75*
G02*
X47741000Y-85292000I-225000J0D01*
G01*
X47291000Y-85292000D01*
G75*
G02*
X47066000Y-85067000I0J225000D01*
G01*
G37*
%TD.AperFunction*%
%TO.P,C2,2*%
%TO.N,+5P*%
%TA.AperFunction,SMDPad,CuDef*%
G36*
G01*
X48616000Y-85067000D02*
X48616000Y-84567000D01*
G75*
G02*
X48841000Y-84342000I225000J0D01*
G01*
X49291000Y-84342000D01*
G75*
G02*
X49516000Y-84567000I0J-225000D01*
G01*
X49516000Y-85067000D01*
G75*
G02*
X49291000Y-85292000I-225000J0D01*
G01*
X48841000Y-85292000D01*
G75*
G02*
X48616000Y-85067000I0J225000D01*
G01*
G37*
%TD.AperFunction*%
%TD*%
%TO.P,C6,1*%
%TO.N,GND2*%
%TA.AperFunction,SMDPad,CuDef*%
G36*
G01*
X52146000Y-85067000D02*
X52146000Y-84567000D01*
G75*
G02*
X52371000Y-84342000I225000J0D01*
G01*
X52821000Y-84342000D01*
G75*
G02*
X53046000Y-84567000I0J-225000D01*
G01*
X53046000Y-85067000D01*
G75*
G02*
X52821000Y-85292000I-225000J0D01*
G01*
X52371000Y-85292000D01*
G75*
G02*
X52146000Y-85067000I0J225000D01*
G01*
G37*
%TD.AperFunction*%
%TO.P,C6,2*%
%TO.N,Net-(C6-Pad2)*%
%TA.AperFunction,SMDPad,CuDef*%
G36*
G01*
X53696000Y-85067000D02*
X53696000Y-84567000D01*
G75*
G02*
X53921000Y-84342000I225000J0D01*
G01*
X54371000Y-84342000D01*
G75*
G02*
X54596000Y-84567000I0J-225000D01*
G01*
X54596000Y-85067000D01*
G75*
G02*
X54371000Y-85292000I-225000J0D01*
G01*
X53921000Y-85292000D01*
G75*
G02*
X53696000Y-85067000I0J225000D01*
G01*
G37*
%TD.AperFunction*%
%TD*%
D11*
%TO.P,C7,1*%
%TO.N,Net-(C7-Pad1)*%
X92741000Y-67545000D03*
%TO.P,C7,2*%
%TO.N,Net-(C5-Pad2)*%
X92741000Y-85045000D03*
%TD*%
%TO.P,C9,1*%
%TO.N,Net-(C6-Pad2)*%
%TA.AperFunction,SMDPad,CuDef*%
G36*
G01*
X54396001Y-83783000D02*
X52345999Y-83783000D01*
G75*
G02*
X52096000Y-83533001I0J249999D01*
G01*
X52096000Y-81782999D01*
G75*
G02*
X52345999Y-81533000I249999J0D01*
G01*
X54396001Y-81533000D01*
G75*
G02*
X54646000Y-81782999I0J-249999D01*
G01*
X54646000Y-83533001D01*
G75*
G02*
X54396001Y-83783000I-249999J0D01*
G01*
G37*
%TD.AperFunction*%
%TO.P,C9,2*%
%TO.N,GND2*%
%TA.AperFunction,SMDPad,CuDef*%
G36*
G01*
X54396001Y-77383000D02*
X52345999Y-77383000D01*
G75*
G02*
X52096000Y-77133001I0J249999D01*
G01*
X52096000Y-75382999D01*
G75*
G02*
X52345999Y-75133000I249999J0D01*
G01*
X54396001Y-75133000D01*
G75*
G02*
X54646000Y-75382999I0J-249999D01*
G01*
X54646000Y-77133001D01*
G75*
G02*
X54396001Y-77383000I-249999J0D01*
G01*
G37*
%TD.AperFunction*%
%TD*%
D12*
%TO.P,D1,1*%
%TO.N,+5VP*%
X61499000Y-68942000D03*
%TO.P,D1,2*%
%TO.N,Net-(C3-Pad2)*%
X63599000Y-68942000D03*
%TD*%
%TO.P,D2,1*%
%TO.N,+5VP*%
X61499000Y-71482000D03*
%TO.P,D2,2*%
%TO.N,Net-(C4-Pad2)*%
X63599000Y-71482000D03*
%TD*%
%TO.P,D3,1*%
%TO.N,+5VP*%
X82073000Y-68942000D03*
%TO.P,D3,2*%
%TO.N,Net-(C11-Pad2)*%
X84173000Y-68942000D03*
%TD*%
%TO.P,D4,1*%
%TO.N,+5VP*%
X82073000Y-71482000D03*
%TO.P,D4,2*%
%TO.N,Net-(C12-Pad2)*%
X84173000Y-71482000D03*
%TD*%
D13*
%TO.P,K1,1*%
%TO.N,+5VP*%
X59213000Y-68942000D03*
D14*
%TO.P,K1,2*%
X59213000Y-71482000D03*
%TO.P,K1,4*%
%TO.N,Net-(C5-Pad1)*%
X59213000Y-76562000D03*
%TO.P,K1,6*%
%TO.N,Net-(C7-Pad1)*%
X59213000Y-81642000D03*
%TO.P,K1,8*%
%TO.N,Net-(K1-Pad8)*%
X59213000Y-86722000D03*
%TO.P,K1,9*%
X66833000Y-86722000D03*
%TO.P,K1,11*%
%TO.N,Net-(C5-Pad2)*%
X66833000Y-81642000D03*
%TO.P,K1,13*%
%TO.N,Net-(J1-Pad1)*%
X66833000Y-76562000D03*
%TO.P,K1,15*%
%TO.N,Net-(C4-Pad2)*%
X66833000Y-71482000D03*
%TO.P,K1,16*%
%TO.N,Net-(C3-Pad2)*%
X66833000Y-68942000D03*
%TD*%
D15*
%TO.P,PS1,1*%
%TO.N,GND1*%
X47021000Y-86849000D03*
D16*
%TO.P,PS1,2*%
%TO.N,+5P*%
X49561000Y-86849000D03*
%TO.P,PS1,3*%
%TO.N,GND2*%
X52101000Y-86849000D03*
%TO.P,PS1,4*%
%TO.N,Net-(C6-Pad2)*%
X54641000Y-86849000D03*
%TD*%
%TO.P,R5,1*%
%TO.N,Net-(Q1-Pad3)*%
%TA.AperFunction,SMDPad,CuDef*%
G36*
G01*
X64565000Y-64603000D02*
X64565000Y-65153000D01*
G75*
G02*
X64365000Y-65353000I-200000J0D01*
G01*
X63965000Y-65353000D01*
G75*
G02*
X63765000Y-65153000I0J200000D01*
G01*
X63765000Y-64603000D01*
G75*
G02*
X63965000Y-64403000I200000J0D01*
G01*
X64365000Y-64403000D01*
G75*
G02*
X64565000Y-64603000I0J-200000D01*
G01*
G37*
%TD.AperFunction*%
%TO.P,R5,2*%
%TO.N,Net-(C3-Pad1)*%
%TA.AperFunction,SMDPad,CuDef*%
G36*
G01*
X62915000Y-64603000D02*
X62915000Y-65153000D01*
G75*
G02*
X62715000Y-65353000I-200000J0D01*
G01*
X62315000Y-65353000D01*
G75*
G02*
X62115000Y-65153000I0J200000D01*
G01*
X62115000Y-64603000D01*
G75*
G02*
X62315000Y-64403000I200000J0D01*
G01*
X62715000Y-64403000D01*
G75*
G02*
X62915000Y-64603000I0J-200000D01*
G01*
G37*
%TD.AperFunction*%
%TD*%
%TO.P,R17,1*%
%TO.N,Net-(Q5-Pad3)*%
%TA.AperFunction,SMDPad,CuDef*%
G36*
G01*
X83071000Y-65153000D02*
X83071000Y-64603000D01*
G75*
G02*
X83271000Y-64403000I200000J0D01*
G01*
X83671000Y-64403000D01*
G75*
G02*
X83871000Y-64603000I0J-200000D01*
G01*
X83871000Y-65153000D01*
G75*
G02*
X83671000Y-65353000I-200000J0D01*
G01*
X83271000Y-65353000D01*
G75*
G02*
X83071000Y-65153000I0J200000D01*
G01*
G37*
%TD.AperFunction*%
%TO.P,R17,2*%
%TO.N,Net-(C11-Pad1)*%
%TA.AperFunction,SMDPad,CuDef*%
G36*
G01*
X84721000Y-65153000D02*
X84721000Y-64603000D01*
G75*
G02*
X84921000Y-64403000I200000J0D01*
G01*
X85321000Y-64403000D01*
G75*
G02*
X85521000Y-64603000I0J-200000D01*
G01*
X85521000Y-65153000D01*
G75*
G02*
X85321000Y-65353000I-200000J0D01*
G01*
X84921000Y-65353000D01*
G75*
G02*
X84721000Y-65153000I0J200000D01*
G01*
G37*
%TD.AperFunction*%
%TD*%
%TO.P,R1,1*%
%TO.N,Net-(Q1-Pad1)*%
%TA.AperFunction,SMDPad,CuDef*%
G36*
G01*
X68719000Y-66296000D02*
X68719000Y-65746000D01*
G75*
G02*
X68919000Y-65546000I200000J0D01*
G01*
X69319000Y-65546000D01*
G75*
G02*
X69519000Y-65746000I0J-200000D01*
G01*
X69519000Y-66296000D01*
G75*
G02*
X69319000Y-66496000I-200000J0D01*
G01*
X68919000Y-66496000D01*
G75*
G02*
X68719000Y-66296000I0J200000D01*
G01*
G37*
%TD.AperFunction*%
%TO.P,R1,2*%
%TO.N,/K1_set*%
%TA.AperFunction,SMDPad,CuDef*%
G36*
G01*
X70369000Y-66296000D02*
X70369000Y-65746000D01*
G75*
G02*
X70569000Y-65546000I200000J0D01*
G01*
X70969000Y-65546000D01*
G75*
G02*
X71169000Y-65746000I0J-200000D01*
G01*
X71169000Y-66296000D01*
G75*
G02*
X70969000Y-66496000I-200000J0D01*
G01*
X70569000Y-66496000D01*
G75*
G02*
X70369000Y-66296000I0J200000D01*
G01*
G37*
%TD.AperFunction*%
%TD*%
%TO.P,R3,1*%
%TO.N,Net-(Q1-Pad1)*%
%TA.AperFunction,SMDPad,CuDef*%
G36*
G01*
X71169000Y-64222000D02*
X71169000Y-64772000D01*
G75*
G02*
X70969000Y-64972000I-200000J0D01*
G01*
X70569000Y-64972000D01*
G75*
G02*
X70369000Y-64772000I0J200000D01*
G01*
X70369000Y-64222000D01*
G75*
G02*
X70569000Y-64022000I200000J0D01*
G01*
X70969000Y-64022000D01*
G75*
G02*
X71169000Y-64222000I0J-200000D01*
G01*
G37*
%TD.AperFunction*%
%TO.P,R3,2*%
%TO.N,GND2*%
%TA.AperFunction,SMDPad,CuDef*%
G36*
G01*
X69519000Y-64222000D02*
X69519000Y-64772000D01*
G75*
G02*
X69319000Y-64972000I-200000J0D01*
G01*
X68919000Y-64972000D01*
G75*
G02*
X68719000Y-64772000I0J200000D01*
G01*
X68719000Y-64222000D01*
G75*
G02*
X68919000Y-64022000I200000J0D01*
G01*
X69319000Y-64022000D01*
G75*
G02*
X69519000Y-64222000I0J-200000D01*
G01*
G37*
%TD.AperFunction*%
%TD*%
%TO.P,R13,1*%
%TO.N,Net-(Q5-Pad1)*%
%TA.AperFunction,SMDPad,CuDef*%
G36*
G01*
X76466000Y-66613500D02*
X76466000Y-66063500D01*
G75*
G02*
X76666000Y-65863500I200000J0D01*
G01*
X77066000Y-65863500D01*
G75*
G02*
X77266000Y-66063500I0J-200000D01*
G01*
X77266000Y-66613500D01*
G75*
G02*
X77066000Y-66813500I-200000J0D01*
G01*
X76666000Y-66813500D01*
G75*
G02*
X76466000Y-66613500I0J200000D01*
G01*
G37*
%TD.AperFunction*%
%TO.P,R13,2*%
%TO.N,/K2_set*%
%TA.AperFunction,SMDPad,CuDef*%
G36*
G01*
X78116000Y-66613500D02*
X78116000Y-66063500D01*
G75*
G02*
X78316000Y-65863500I200000J0D01*
G01*
X78716000Y-65863500D01*
G75*
G02*
X78916000Y-66063500I0J-200000D01*
G01*
X78916000Y-66613500D01*
G75*
G02*
X78716000Y-66813500I-200000J0D01*
G01*
X78316000Y-66813500D01*
G75*
G02*
X78116000Y-66613500I0J200000D01*
G01*
G37*
%TD.AperFunction*%
%TD*%
%TO.P,R15,1*%
%TO.N,Net-(Q5-Pad1)*%
%TA.AperFunction,SMDPad,CuDef*%
G36*
G01*
X76467000Y-64772000D02*
X76467000Y-64222000D01*
G75*
G02*
X76667000Y-64022000I200000J0D01*
G01*
X77067000Y-64022000D01*
G75*
G02*
X77267000Y-64222000I0J-200000D01*
G01*
X77267000Y-64772000D01*
G75*
G02*
X77067000Y-64972000I-200000J0D01*
G01*
X76667000Y-64972000D01*
G75*
G02*
X76467000Y-64772000I0J200000D01*
G01*
G37*
%TD.AperFunction*%
%TO.P,R15,2*%
%TO.N,GND2*%
%TA.AperFunction,SMDPad,CuDef*%
G36*
G01*
X78117000Y-64772000D02*
X78117000Y-64222000D01*
G75*
G02*
X78317000Y-64022000I200000J0D01*
G01*
X78717000Y-64022000D01*
G75*
G02*
X78917000Y-64222000I0J-200000D01*
G01*
X78917000Y-64772000D01*
G75*
G02*
X78717000Y-64972000I-200000J0D01*
G01*
X78317000Y-64972000D01*
G75*
G02*
X78117000Y-64772000I0J200000D01*
G01*
G37*
%TD.AperFunction*%
%TD*%
D11*
%TO.P,TP1,1*%
%TO.N,GND2*%
X50640500Y-80118000D03*
%TD*%
%TO.P,C5,1*%
%TO.N,Net-(C5-Pad1)*%
X62113000Y-84182000D03*
%TO.P,C5,2*%
%TO.N,Net-(C5-Pad2)*%
X84613000Y-84182000D03*
%TD*%
D17*
%TO.P,J2,1*%
%TO.N,+5P*%
X48291000Y-69450000D03*
D18*
%TO.P,J2,2*%
X48291000Y-68180000D03*
%TO.P,J2,3*%
%TO.N,GND1*%
X47021000Y-69450000D03*
%TO.P,J2,4*%
X47021000Y-68180000D03*
%TO.P,J2,5*%
%TO.N,/sda0*%
X45751000Y-69450000D03*
%TO.P,J2,6*%
%TO.N,/scl0*%
X45751000Y-68180000D03*
%TD*%
D19*
%TO.P,J1,3*%
%TO.N,Net-(J1-Pad3)*%
X75850000Y-86468000D03*
%TO.P,J1,2*%
%TO.N,N/C*%
X73310000Y-86468000D03*
D20*
%TO.P,J1,1*%
%TO.N,Net-(J1-Pad1)*%
X70770000Y-86468000D03*
%TD*%
D14*
%TO.P,K2,16*%
%TO.N,Net-(C11-Pad2)*%
X87407000Y-68942000D03*
%TO.P,K2,15*%
%TO.N,Net-(C12-Pad2)*%
X87407000Y-71482000D03*
%TO.P,K2,13*%
%TO.N,Net-(C7-Pad1)*%
X87407000Y-76562000D03*
%TO.P,K2,11*%
%TO.N,Net-(C5-Pad2)*%
X87407000Y-81642000D03*
%TO.P,K2,9*%
%TO.N,Net-(K2-Pad8)*%
X87407000Y-86722000D03*
%TO.P,K2,8*%
X79787000Y-86722000D03*
%TO.P,K2,6*%
%TO.N,Net-(C7-Pad1)*%
X79787000Y-81642000D03*
%TO.P,K2,4*%
%TO.N,Net-(J1-Pad3)*%
X79787000Y-76562000D03*
%TO.P,K2,2*%
%TO.N,+5VP*%
X79787000Y-71482000D03*
D13*
%TO.P,K2,1*%
X79787000Y-68942000D03*
%TD*%
D21*
%TO.P,Q1,1*%
%TO.N,Net-(Q1-Pad1)*%
X65695000Y-64560500D03*
%TO.P,Q1,2*%
%TO.N,GND2*%
X67595000Y-64560500D03*
%TO.P,Q1,3*%
%TO.N,Net-(Q1-Pad3)*%
X66645000Y-66560500D03*
%TD*%
D22*
%TO.P,Q5,1*%
%TO.N,Net-(Q5-Pad1)*%
X80041000Y-66460500D03*
%TO.P,Q5,2*%
%TO.N,GND2*%
X80041000Y-64560500D03*
%TO.P,Q5,3*%
%TO.N,Net-(Q5-Pad3)*%
X82041000Y-65510500D03*
%TD*%
D18*
%TO.P,J2,6*%
%TO.N,/scl0*%
X45751000Y-43180000D03*
%TO.P,J2,5*%
%TO.N,/sda0*%
X45751000Y-44450000D03*
%TO.P,J2,4*%
%TO.N,GND1*%
X47021000Y-43180000D03*
%TO.P,J2,3*%
X47021000Y-44450000D03*
%TO.P,J2,2*%
%TO.N,+5P*%
X48291000Y-43180000D03*
D17*
%TO.P,J2,1*%
X48291000Y-44450000D03*
%TD*%
D11*
%TO.P,C5,2*%
%TO.N,Net-(C5-Pad2)*%
X84613000Y-59182000D03*
%TO.P,C5,1*%
%TO.N,Net-(C5-Pad1)*%
X62113000Y-59182000D03*
%TD*%
%TO.P,R15,2*%
%TO.N,GND2*%
%TA.AperFunction,SMDPad,CuDef*%
G36*
G01*
X78117000Y-39772000D02*
X78117000Y-39222000D01*
G75*
G02*
X78317000Y-39022000I200000J0D01*
G01*
X78717000Y-39022000D01*
G75*
G02*
X78917000Y-39222000I0J-200000D01*
G01*
X78917000Y-39772000D01*
G75*
G02*
X78717000Y-39972000I-200000J0D01*
G01*
X78317000Y-39972000D01*
G75*
G02*
X78117000Y-39772000I0J200000D01*
G01*
G37*
%TD.AperFunction*%
%TO.P,R15,1*%
%TO.N,Net-(Q5-Pad1)*%
%TA.AperFunction,SMDPad,CuDef*%
G36*
G01*
X76467000Y-39772000D02*
X76467000Y-39222000D01*
G75*
G02*
X76667000Y-39022000I200000J0D01*
G01*
X77067000Y-39022000D01*
G75*
G02*
X77267000Y-39222000I0J-200000D01*
G01*
X77267000Y-39772000D01*
G75*
G02*
X77067000Y-39972000I-200000J0D01*
G01*
X76667000Y-39972000D01*
G75*
G02*
X76467000Y-39772000I0J200000D01*
G01*
G37*
%TD.AperFunction*%
%TD*%
%TO.P,R13,2*%
%TO.N,/K2_set*%
%TA.AperFunction,SMDPad,CuDef*%
G36*
G01*
X78116000Y-41613500D02*
X78116000Y-41063500D01*
G75*
G02*
X78316000Y-40863500I200000J0D01*
G01*
X78716000Y-40863500D01*
G75*
G02*
X78916000Y-41063500I0J-200000D01*
G01*
X78916000Y-41613500D01*
G75*
G02*
X78716000Y-41813500I-200000J0D01*
G01*
X78316000Y-41813500D01*
G75*
G02*
X78116000Y-41613500I0J200000D01*
G01*
G37*
%TD.AperFunction*%
%TO.P,R13,1*%
%TO.N,Net-(Q5-Pad1)*%
%TA.AperFunction,SMDPad,CuDef*%
G36*
G01*
X76466000Y-41613500D02*
X76466000Y-41063500D01*
G75*
G02*
X76666000Y-40863500I200000J0D01*
G01*
X77066000Y-40863500D01*
G75*
G02*
X77266000Y-41063500I0J-200000D01*
G01*
X77266000Y-41613500D01*
G75*
G02*
X77066000Y-41813500I-200000J0D01*
G01*
X76666000Y-41813500D01*
G75*
G02*
X76466000Y-41613500I0J200000D01*
G01*
G37*
%TD.AperFunction*%
%TD*%
%TO.P,R3,2*%
%TO.N,GND2*%
%TA.AperFunction,SMDPad,CuDef*%
G36*
G01*
X69519000Y-39222000D02*
X69519000Y-39772000D01*
G75*
G02*
X69319000Y-39972000I-200000J0D01*
G01*
X68919000Y-39972000D01*
G75*
G02*
X68719000Y-39772000I0J200000D01*
G01*
X68719000Y-39222000D01*
G75*
G02*
X68919000Y-39022000I200000J0D01*
G01*
X69319000Y-39022000D01*
G75*
G02*
X69519000Y-39222000I0J-200000D01*
G01*
G37*
%TD.AperFunction*%
%TO.P,R3,1*%
%TO.N,Net-(Q1-Pad1)*%
%TA.AperFunction,SMDPad,CuDef*%
G36*
G01*
X71169000Y-39222000D02*
X71169000Y-39772000D01*
G75*
G02*
X70969000Y-39972000I-200000J0D01*
G01*
X70569000Y-39972000D01*
G75*
G02*
X70369000Y-39772000I0J200000D01*
G01*
X70369000Y-39222000D01*
G75*
G02*
X70569000Y-39022000I200000J0D01*
G01*
X70969000Y-39022000D01*
G75*
G02*
X71169000Y-39222000I0J-200000D01*
G01*
G37*
%TD.AperFunction*%
%TD*%
%TO.P,R1,2*%
%TO.N,/K1_set*%
%TA.AperFunction,SMDPad,CuDef*%
G36*
G01*
X70369000Y-41296000D02*
X70369000Y-40746000D01*
G75*
G02*
X70569000Y-40546000I200000J0D01*
G01*
X70969000Y-40546000D01*
G75*
G02*
X71169000Y-40746000I0J-200000D01*
G01*
X71169000Y-41296000D01*
G75*
G02*
X70969000Y-41496000I-200000J0D01*
G01*
X70569000Y-41496000D01*
G75*
G02*
X70369000Y-41296000I0J200000D01*
G01*
G37*
%TD.AperFunction*%
%TO.P,R1,1*%
%TO.N,Net-(Q1-Pad1)*%
%TA.AperFunction,SMDPad,CuDef*%
G36*
G01*
X68719000Y-41296000D02*
X68719000Y-40746000D01*
G75*
G02*
X68919000Y-40546000I200000J0D01*
G01*
X69319000Y-40546000D01*
G75*
G02*
X69519000Y-40746000I0J-200000D01*
G01*
X69519000Y-41296000D01*
G75*
G02*
X69319000Y-41496000I-200000J0D01*
G01*
X68919000Y-41496000D01*
G75*
G02*
X68719000Y-41296000I0J200000D01*
G01*
G37*
%TD.AperFunction*%
%TD*%
D22*
%TO.P,Q5,3*%
%TO.N,Net-(Q5-Pad3)*%
X82041000Y-40510500D03*
%TO.P,Q5,2*%
%TO.N,GND2*%
X80041000Y-39560500D03*
%TO.P,Q5,1*%
%TO.N,Net-(Q5-Pad1)*%
X80041000Y-41460500D03*
%TD*%
D21*
%TO.P,Q1,3*%
%TO.N,Net-(Q1-Pad3)*%
X66645000Y-41560500D03*
%TO.P,Q1,2*%
%TO.N,GND2*%
X67595000Y-39560500D03*
%TO.P,Q1,1*%
%TO.N,Net-(Q1-Pad1)*%
X65695000Y-39560500D03*
%TD*%
D13*
%TO.P,K2,1*%
%TO.N,+5VP*%
X79787000Y-43942000D03*
D14*
%TO.P,K2,2*%
X79787000Y-46482000D03*
%TO.P,K2,4*%
%TO.N,Net-(J1-Pad3)*%
X79787000Y-51562000D03*
%TO.P,K2,6*%
%TO.N,Net-(C7-Pad1)*%
X79787000Y-56642000D03*
%TO.P,K2,8*%
%TO.N,Net-(K2-Pad8)*%
X79787000Y-61722000D03*
%TO.P,K2,9*%
X87407000Y-61722000D03*
%TO.P,K2,11*%
%TO.N,Net-(C5-Pad2)*%
X87407000Y-56642000D03*
%TO.P,K2,13*%
%TO.N,Net-(C7-Pad1)*%
X87407000Y-51562000D03*
%TO.P,K2,15*%
%TO.N,Net-(C12-Pad2)*%
X87407000Y-46482000D03*
%TO.P,K2,16*%
%TO.N,Net-(C11-Pad2)*%
X87407000Y-43942000D03*
%TD*%
D20*
%TO.P,J1,1*%
%TO.N,Net-(J1-Pad1)*%
X70770000Y-61468000D03*
D19*
%TO.P,J1,2*%
%TO.N,N/C*%
X73310000Y-61468000D03*
%TO.P,J1,3*%
%TO.N,Net-(J1-Pad3)*%
X75850000Y-61468000D03*
%TD*%
D11*
%TO.P,TP1,1*%
%TO.N,GND2*%
X50640500Y-55118000D03*
%TD*%
%TO.P,R17,2*%
%TO.N,Net-(C11-Pad1)*%
%TA.AperFunction,SMDPad,CuDef*%
G36*
G01*
X84721000Y-40153000D02*
X84721000Y-39603000D01*
G75*
G02*
X84921000Y-39403000I200000J0D01*
G01*
X85321000Y-39403000D01*
G75*
G02*
X85521000Y-39603000I0J-200000D01*
G01*
X85521000Y-40153000D01*
G75*
G02*
X85321000Y-40353000I-200000J0D01*
G01*
X84921000Y-40353000D01*
G75*
G02*
X84721000Y-40153000I0J200000D01*
G01*
G37*
%TD.AperFunction*%
%TO.P,R17,1*%
%TO.N,Net-(Q5-Pad3)*%
%TA.AperFunction,SMDPad,CuDef*%
G36*
G01*
X83071000Y-40153000D02*
X83071000Y-39603000D01*
G75*
G02*
X83271000Y-39403000I200000J0D01*
G01*
X83671000Y-39403000D01*
G75*
G02*
X83871000Y-39603000I0J-200000D01*
G01*
X83871000Y-40153000D01*
G75*
G02*
X83671000Y-40353000I-200000J0D01*
G01*
X83271000Y-40353000D01*
G75*
G02*
X83071000Y-40153000I0J200000D01*
G01*
G37*
%TD.AperFunction*%
%TD*%
%TO.P,R5,2*%
%TO.N,Net-(C3-Pad1)*%
%TA.AperFunction,SMDPad,CuDef*%
G36*
G01*
X62915000Y-39603000D02*
X62915000Y-40153000D01*
G75*
G02*
X62715000Y-40353000I-200000J0D01*
G01*
X62315000Y-40353000D01*
G75*
G02*
X62115000Y-40153000I0J200000D01*
G01*
X62115000Y-39603000D01*
G75*
G02*
X62315000Y-39403000I200000J0D01*
G01*
X62715000Y-39403000D01*
G75*
G02*
X62915000Y-39603000I0J-200000D01*
G01*
G37*
%TD.AperFunction*%
%TO.P,R5,1*%
%TO.N,Net-(Q1-Pad3)*%
%TA.AperFunction,SMDPad,CuDef*%
G36*
G01*
X64565000Y-39603000D02*
X64565000Y-40153000D01*
G75*
G02*
X64365000Y-40353000I-200000J0D01*
G01*
X63965000Y-40353000D01*
G75*
G02*
X63765000Y-40153000I0J200000D01*
G01*
X63765000Y-39603000D01*
G75*
G02*
X63965000Y-39403000I200000J0D01*
G01*
X64365000Y-39403000D01*
G75*
G02*
X64565000Y-39603000I0J-200000D01*
G01*
G37*
%TD.AperFunction*%
%TD*%
D16*
%TO.P,PS1,4*%
%TO.N,Net-(C6-Pad2)*%
X54641000Y-61849000D03*
%TO.P,PS1,3*%
%TO.N,GND2*%
X52101000Y-61849000D03*
%TO.P,PS1,2*%
%TO.N,+5P*%
X49561000Y-61849000D03*
D15*
%TO.P,PS1,1*%
%TO.N,GND1*%
X47021000Y-61849000D03*
%TD*%
D14*
%TO.P,K1,16*%
%TO.N,Net-(C3-Pad2)*%
X66833000Y-43942000D03*
%TO.P,K1,15*%
%TO.N,Net-(C4-Pad2)*%
X66833000Y-46482000D03*
%TO.P,K1,13*%
%TO.N,Net-(J1-Pad1)*%
X66833000Y-51562000D03*
%TO.P,K1,11*%
%TO.N,Net-(C5-Pad2)*%
X66833000Y-56642000D03*
%TO.P,K1,9*%
%TO.N,Net-(K1-Pad8)*%
X66833000Y-61722000D03*
%TO.P,K1,8*%
X59213000Y-61722000D03*
%TO.P,K1,6*%
%TO.N,Net-(C7-Pad1)*%
X59213000Y-56642000D03*
%TO.P,K1,4*%
%TO.N,Net-(C5-Pad1)*%
X59213000Y-51562000D03*
%TO.P,K1,2*%
%TO.N,+5VP*%
X59213000Y-46482000D03*
D13*
%TO.P,K1,1*%
X59213000Y-43942000D03*
%TD*%
D12*
%TO.P,D4,2*%
%TO.N,Net-(C12-Pad2)*%
X84173000Y-46482000D03*
%TO.P,D4,1*%
%TO.N,+5VP*%
X82073000Y-46482000D03*
%TD*%
%TO.P,D3,2*%
%TO.N,Net-(C11-Pad2)*%
X84173000Y-43942000D03*
%TO.P,D3,1*%
%TO.N,+5VP*%
X82073000Y-43942000D03*
%TD*%
%TO.P,D2,2*%
%TO.N,Net-(C4-Pad2)*%
X63599000Y-46482000D03*
%TO.P,D2,1*%
%TO.N,+5VP*%
X61499000Y-46482000D03*
%TD*%
%TO.P,D1,2*%
%TO.N,Net-(C3-Pad2)*%
X63599000Y-43942000D03*
%TO.P,D1,1*%
%TO.N,+5VP*%
X61499000Y-43942000D03*
%TD*%
%TO.P,C9,2*%
%TO.N,GND2*%
%TA.AperFunction,SMDPad,CuDef*%
G36*
G01*
X54396001Y-52383000D02*
X52345999Y-52383000D01*
G75*
G02*
X52096000Y-52133001I0J249999D01*
G01*
X52096000Y-50382999D01*
G75*
G02*
X52345999Y-50133000I249999J0D01*
G01*
X54396001Y-50133000D01*
G75*
G02*
X54646000Y-50382999I0J-249999D01*
G01*
X54646000Y-52133001D01*
G75*
G02*
X54396001Y-52383000I-249999J0D01*
G01*
G37*
%TD.AperFunction*%
%TO.P,C9,1*%
%TO.N,Net-(C6-Pad2)*%
%TA.AperFunction,SMDPad,CuDef*%
G36*
G01*
X54396001Y-58783000D02*
X52345999Y-58783000D01*
G75*
G02*
X52096000Y-58533001I0J249999D01*
G01*
X52096000Y-56782999D01*
G75*
G02*
X52345999Y-56533000I249999J0D01*
G01*
X54396001Y-56533000D01*
G75*
G02*
X54646000Y-56782999I0J-249999D01*
G01*
X54646000Y-58533001D01*
G75*
G02*
X54396001Y-58783000I-249999J0D01*
G01*
G37*
%TD.AperFunction*%
%TD*%
D11*
%TO.P,C7,2*%
%TO.N,Net-(C5-Pad2)*%
X92741000Y-60045000D03*
%TO.P,C7,1*%
%TO.N,Net-(C7-Pad1)*%
X92741000Y-42545000D03*
%TD*%
%TO.P,C6,2*%
%TO.N,Net-(C6-Pad2)*%
%TA.AperFunction,SMDPad,CuDef*%
G36*
G01*
X53696000Y-60067000D02*
X53696000Y-59567000D01*
G75*
G02*
X53921000Y-59342000I225000J0D01*
G01*
X54371000Y-59342000D01*
G75*
G02*
X54596000Y-59567000I0J-225000D01*
G01*
X54596000Y-60067000D01*
G75*
G02*
X54371000Y-60292000I-225000J0D01*
G01*
X53921000Y-60292000D01*
G75*
G02*
X53696000Y-60067000I0J225000D01*
G01*
G37*
%TD.AperFunction*%
%TO.P,C6,1*%
%TO.N,GND2*%
%TA.AperFunction,SMDPad,CuDef*%
G36*
G01*
X52146000Y-60067000D02*
X52146000Y-59567000D01*
G75*
G02*
X52371000Y-59342000I225000J0D01*
G01*
X52821000Y-59342000D01*
G75*
G02*
X53046000Y-59567000I0J-225000D01*
G01*
X53046000Y-60067000D01*
G75*
G02*
X52821000Y-60292000I-225000J0D01*
G01*
X52371000Y-60292000D01*
G75*
G02*
X52146000Y-60067000I0J225000D01*
G01*
G37*
%TD.AperFunction*%
%TD*%
%TO.P,C2,2*%
%TO.N,+5P*%
%TA.AperFunction,SMDPad,CuDef*%
G36*
G01*
X48616000Y-60067000D02*
X48616000Y-59567000D01*
G75*
G02*
X48841000Y-59342000I225000J0D01*
G01*
X49291000Y-59342000D01*
G75*
G02*
X49516000Y-59567000I0J-225000D01*
G01*
X49516000Y-60067000D01*
G75*
G02*
X49291000Y-60292000I-225000J0D01*
G01*
X48841000Y-60292000D01*
G75*
G02*
X48616000Y-60067000I0J225000D01*
G01*
G37*
%TD.AperFunction*%
%TO.P,C2,1*%
%TO.N,GND1*%
%TA.AperFunction,SMDPad,CuDef*%
G36*
G01*
X47066000Y-60067000D02*
X47066000Y-59567000D01*
G75*
G02*
X47291000Y-59342000I225000J0D01*
G01*
X47741000Y-59342000D01*
G75*
G02*
X47966000Y-59567000I0J-225000D01*
G01*
X47966000Y-60067000D01*
G75*
G02*
X47741000Y-60292000I-225000J0D01*
G01*
X47291000Y-60292000D01*
G75*
G02*
X47066000Y-60067000I0J225000D01*
G01*
G37*
%TD.AperFunction*%
%TD*%
%TO.P,C1,2*%
%TO.N,GND1*%
%TA.AperFunction,SMDPad,CuDef*%
G36*
G01*
X49443001Y-52383000D02*
X47392999Y-52383000D01*
G75*
G02*
X47143000Y-52133001I0J249999D01*
G01*
X47143000Y-50382999D01*
G75*
G02*
X47392999Y-50133000I249999J0D01*
G01*
X49443001Y-50133000D01*
G75*
G02*
X49693000Y-50382999I0J-249999D01*
G01*
X49693000Y-52133001D01*
G75*
G02*
X49443001Y-52383000I-249999J0D01*
G01*
G37*
%TD.AperFunction*%
%TO.P,C1,1*%
%TO.N,+5P*%
%TA.AperFunction,SMDPad,CuDef*%
G36*
G01*
X49443001Y-58783000D02*
X47392999Y-58783000D01*
G75*
G02*
X47143000Y-58533001I0J249999D01*
G01*
X47143000Y-56782999D01*
G75*
G02*
X47392999Y-56533000I249999J0D01*
G01*
X49443001Y-56533000D01*
G75*
G02*
X49693000Y-56782999I0J-249999D01*
G01*
X49693000Y-58533001D01*
G75*
G02*
X49443001Y-58783000I-249999J0D01*
G01*
G37*
%TD.AperFunction*%
%TD*%
%TO.P,C12,2*%
%TO.N,Net-(C12-Pad2)*%
%TA.AperFunction,SMDPad,CuDef*%
G36*
G01*
X86395000Y-41041500D02*
X86895000Y-41041500D01*
G75*
G02*
X87120000Y-41266500I0J-225000D01*
G01*
X87120000Y-41716500D01*
G75*
G02*
X86895000Y-41941500I-225000J0D01*
G01*
X86395000Y-41941500D01*
G75*
G02*
X86170000Y-41716500I0J225000D01*
G01*
X86170000Y-41266500D01*
G75*
G02*
X86395000Y-41041500I225000J0D01*
G01*
G37*
%TD.AperFunction*%
%TO.P,C12,1*%
%TO.N,Net-(C12-Pad1)*%
%TA.AperFunction,SMDPad,CuDef*%
G36*
G01*
X86395000Y-39491500D02*
X86895000Y-39491500D01*
G75*
G02*
X87120000Y-39716500I0J-225000D01*
G01*
X87120000Y-40166500D01*
G75*
G02*
X86895000Y-40391500I-225000J0D01*
G01*
X86395000Y-40391500D01*
G75*
G02*
X86170000Y-40166500I0J225000D01*
G01*
X86170000Y-39716500D01*
G75*
G02*
X86395000Y-39491500I225000J0D01*
G01*
G37*
%TD.AperFunction*%
%TD*%
%TO.P,C11,2*%
%TO.N,Net-(C11-Pad2)*%
%TA.AperFunction,SMDPad,CuDef*%
G36*
G01*
X87919000Y-41041500D02*
X88419000Y-41041500D01*
G75*
G02*
X88644000Y-41266500I0J-225000D01*
G01*
X88644000Y-41716500D01*
G75*
G02*
X88419000Y-41941500I-225000J0D01*
G01*
X87919000Y-41941500D01*
G75*
G02*
X87694000Y-41716500I0J225000D01*
G01*
X87694000Y-41266500D01*
G75*
G02*
X87919000Y-41041500I225000J0D01*
G01*
G37*
%TD.AperFunction*%
%TO.P,C11,1*%
%TO.N,Net-(C11-Pad1)*%
%TA.AperFunction,SMDPad,CuDef*%
G36*
G01*
X87919000Y-39491500D02*
X88419000Y-39491500D01*
G75*
G02*
X88644000Y-39716500I0J-225000D01*
G01*
X88644000Y-40166500D01*
G75*
G02*
X88419000Y-40391500I-225000J0D01*
G01*
X87919000Y-40391500D01*
G75*
G02*
X87694000Y-40166500I0J225000D01*
G01*
X87694000Y-39716500D01*
G75*
G02*
X87919000Y-39491500I225000J0D01*
G01*
G37*
%TD.AperFunction*%
%TD*%
%TO.P,C4,2*%
%TO.N,Net-(C4-Pad2)*%
%TA.AperFunction,SMDPad,CuDef*%
G36*
G01*
X59217000Y-41041500D02*
X59717000Y-41041500D01*
G75*
G02*
X59942000Y-41266500I0J-225000D01*
G01*
X59942000Y-41716500D01*
G75*
G02*
X59717000Y-41941500I-225000J0D01*
G01*
X59217000Y-41941500D01*
G75*
G02*
X58992000Y-41716500I0J225000D01*
G01*
X58992000Y-41266500D01*
G75*
G02*
X59217000Y-41041500I225000J0D01*
G01*
G37*
%TD.AperFunction*%
%TO.P,C4,1*%
%TO.N,Net-(C4-Pad1)*%
%TA.AperFunction,SMDPad,CuDef*%
G36*
G01*
X59217000Y-39491500D02*
X59717000Y-39491500D01*
G75*
G02*
X59942000Y-39716500I0J-225000D01*
G01*
X59942000Y-40166500D01*
G75*
G02*
X59717000Y-40391500I-225000J0D01*
G01*
X59217000Y-40391500D01*
G75*
G02*
X58992000Y-40166500I0J225000D01*
G01*
X58992000Y-39716500D01*
G75*
G02*
X59217000Y-39491500I225000J0D01*
G01*
G37*
%TD.AperFunction*%
%TD*%
%TO.P,C3,2*%
%TO.N,Net-(C3-Pad2)*%
%TA.AperFunction,SMDPad,CuDef*%
G36*
G01*
X60741000Y-41041500D02*
X61241000Y-41041500D01*
G75*
G02*
X61466000Y-41266500I0J-225000D01*
G01*
X61466000Y-41716500D01*
G75*
G02*
X61241000Y-41941500I-225000J0D01*
G01*
X60741000Y-41941500D01*
G75*
G02*
X60516000Y-41716500I0J225000D01*
G01*
X60516000Y-41266500D01*
G75*
G02*
X60741000Y-41041500I225000J0D01*
G01*
G37*
%TD.AperFunction*%
%TO.P,C3,1*%
%TO.N,Net-(C3-Pad1)*%
%TA.AperFunction,SMDPad,CuDef*%
G36*
G01*
X60741000Y-39491500D02*
X61241000Y-39491500D01*
G75*
G02*
X61466000Y-39716500I0J-225000D01*
G01*
X61466000Y-40166500D01*
G75*
G02*
X61241000Y-40391500I-225000J0D01*
G01*
X60741000Y-40391500D01*
G75*
G02*
X60516000Y-40166500I0J225000D01*
G01*
X60516000Y-39716500D01*
G75*
G02*
X60741000Y-39491500I225000J0D01*
G01*
G37*
%TD.AperFunction*%
%TD*%
D23*
%TO.N,Net-(C3-Pad2)*%
X60991000Y-41529000D03*
X60991000Y-66529000D03*
%TO.N,Net-(C3-Pad1)*%
X60991000Y-39878000D03*
X60991000Y-64878000D03*
%TO.N,Net-(C4-Pad2)*%
X59467000Y-41529000D03*
X59467000Y-66529000D03*
%TO.N,Net-(C4-Pad1)*%
X59467000Y-39878000D03*
X59467000Y-64878000D03*
%TO.N,GND1*%
X53980000Y-41275000D03*
X53980000Y-66275000D03*
%TO.N,+5P*%
X50577000Y-51943000D03*
X50577000Y-48260000D03*
X50577000Y-76943000D03*
X50577000Y-73260000D03*
%TO.N,Net-(C11-Pad1)*%
X88169000Y-39878000D03*
X88169000Y-64878000D03*
%TO.N,GND2*%
X73945000Y-42799000D03*
X69119000Y-39497000D03*
X78517000Y-39497000D03*
X67595000Y-39560500D03*
X80041000Y-39560500D03*
X53472032Y-50419000D03*
X73945000Y-67799000D03*
X69119000Y-64497000D03*
X78517000Y-64497000D03*
X67595000Y-64560500D03*
X80041000Y-64560500D03*
X53472032Y-75419000D03*
%TO.N,+5VP*%
X75495000Y-42799000D03*
D24*
X54895006Y-53340000D03*
D23*
X75495000Y-67799000D03*
D24*
X54895006Y-78340000D03*
D23*
%TO.N,/scl0*%
X47021000Y-47432000D03*
X45497000Y-50736500D03*
X47021000Y-72432000D03*
X45497000Y-75736500D03*
%TO.N,/sda0*%
X45497000Y-52197000D03*
X45497000Y-77197000D03*
%TO.N,/I2C_SDA*%
X75115886Y-44916284D03*
X55403000Y-46736000D03*
X75115886Y-69916284D03*
X55403000Y-71736000D03*
%TO.N,/I2C_SCL*%
X75115814Y-46015892D03*
X54133000Y-46736000D03*
X75115814Y-71015892D03*
X54133000Y-71736000D03*
%TO.N,/K1_set*%
X70896992Y-43688000D03*
X70896992Y-68688000D03*
%TO.N,/K2_set*%
X77333000Y-46441000D03*
X77333000Y-71441000D03*
%TO.N,/K2_rst*%
X77755000Y-42661000D03*
X72997423Y-45630732D03*
X77755000Y-67661000D03*
X72997423Y-70630732D03*
D24*
%TO.N,Net-(C6-Pad2)*%
X53371000Y-57658000D03*
X53371000Y-82658000D03*
D23*
%TO.N,Net-(C11-Pad2)*%
X88169000Y-41529000D03*
X88169000Y-66529000D03*
%TO.N,Net-(C12-Pad2)*%
X86645000Y-41529000D03*
X86645000Y-66529000D03*
%TO.N,Net-(C12-Pad1)*%
X86645000Y-39878000D03*
X86645000Y-64878000D03*
%TD*%
D25*
%TO.N,Net-(C3-Pad2)*%
X63599000Y-43942000D02*
X66833000Y-43942000D01*
X63599000Y-68942000D02*
X66833000Y-68942000D01*
D26*
%TO.N,Net-(C3-Pad1)*%
X62515000Y-39878000D02*
X60991000Y-39878000D01*
X62515000Y-64878000D02*
X60991000Y-64878000D01*
D25*
%TO.N,Net-(C4-Pad2)*%
X63599000Y-46482000D02*
X66833000Y-46482000D01*
X63599000Y-71482000D02*
X66833000Y-71482000D01*
D27*
%TO.N,GND1*%
X46542990Y-53133010D02*
X48418000Y-51258000D01*
X46542990Y-59293990D02*
X46542990Y-53133010D01*
X47066000Y-59817000D02*
X46542990Y-59293990D01*
X47516000Y-59817000D02*
X47066000Y-59817000D01*
X47516000Y-61354000D02*
X47021000Y-61849000D01*
X47516000Y-59817000D02*
X47516000Y-61354000D01*
D28*
X46894000Y-44450000D02*
X47021000Y-44577000D01*
D27*
X47021000Y-43180000D02*
X47021000Y-44450000D01*
X47021000Y-42821998D02*
X47021000Y-43180000D01*
X48567998Y-41275000D02*
X47021000Y-42821998D01*
X53980000Y-41275000D02*
X48567998Y-41275000D01*
X48521011Y-51154989D02*
X48418000Y-51258000D01*
X48521011Y-46760014D02*
X48521011Y-51154989D01*
X47021000Y-45260003D02*
X48521011Y-46760014D01*
X47021000Y-44450000D02*
X47021000Y-45260003D01*
X48567998Y-66275000D02*
X47021000Y-67821998D01*
X53980000Y-66275000D02*
X48567998Y-66275000D01*
X48521011Y-76154989D02*
X48418000Y-76258000D01*
X48521011Y-71760014D02*
X48521011Y-76154989D01*
X47021000Y-70260003D02*
X48521011Y-71760014D01*
X47021000Y-69450000D02*
X47021000Y-70260003D01*
X46542990Y-78133010D02*
X48418000Y-76258000D01*
X46542990Y-84293990D02*
X46542990Y-78133010D01*
X47066000Y-84817000D02*
X46542990Y-84293990D01*
X47516000Y-84817000D02*
X47066000Y-84817000D01*
X47516000Y-86354000D02*
X47021000Y-86849000D01*
X47516000Y-84817000D02*
X47516000Y-86354000D01*
D28*
X46894000Y-69450000D02*
X47021000Y-69577000D01*
D27*
X47021000Y-68180000D02*
X47021000Y-69450000D01*
X47021000Y-67821998D02*
X47021000Y-68180000D01*
%TO.N,+5P*%
X49561000Y-60312000D02*
X49066000Y-59817000D01*
X49561000Y-61849000D02*
X49561000Y-60312000D01*
X49066000Y-58306000D02*
X48418000Y-57658000D01*
X49066000Y-59817000D02*
X49066000Y-58306000D01*
X50577000Y-52201098D02*
X50577000Y-51943000D01*
X49795088Y-52983010D02*
X50577000Y-52201098D01*
X48418000Y-54356000D02*
X49790990Y-52983010D01*
X49790990Y-52983010D02*
X49795088Y-52983010D01*
X48418000Y-57658000D02*
X48418000Y-54356000D01*
X48291000Y-44450000D02*
X48291000Y-43180000D01*
X50577000Y-46736000D02*
X48291000Y-44450000D01*
X50577000Y-51943000D02*
X50577000Y-48260000D01*
X50577000Y-48260000D02*
X50577000Y-46736000D01*
X49561000Y-85312000D02*
X49066000Y-84817000D01*
X49561000Y-86849000D02*
X49561000Y-85312000D01*
X49066000Y-83306000D02*
X48418000Y-82658000D01*
X49066000Y-84817000D02*
X49066000Y-83306000D01*
X50577000Y-77201098D02*
X50577000Y-76943000D01*
X49795088Y-77983010D02*
X50577000Y-77201098D01*
X48418000Y-79356000D02*
X49790990Y-77983010D01*
X49790990Y-77983010D02*
X49795088Y-77983010D01*
X48418000Y-82658000D02*
X48418000Y-79356000D01*
X48291000Y-69450000D02*
X48291000Y-68180000D01*
X50577000Y-71736000D02*
X48291000Y-69450000D01*
X50577000Y-76943000D02*
X50577000Y-73260000D01*
X50577000Y-73260000D02*
X50577000Y-71736000D01*
D26*
%TO.N,Net-(C11-Pad1)*%
X85971001Y-39027999D02*
X85121000Y-39878000D01*
X87255499Y-39027999D02*
X85971001Y-39027999D01*
X88169000Y-39941500D02*
X87255499Y-39027999D01*
X85971001Y-64027999D02*
X85121000Y-64878000D01*
X87255499Y-64027999D02*
X85971001Y-64027999D01*
X88169000Y-64941500D02*
X87255499Y-64027999D01*
D27*
%TO.N,GND2*%
X52596000Y-61354000D02*
X52101000Y-61849000D01*
X52596000Y-59817000D02*
X52596000Y-61354000D01*
D26*
X78580500Y-39560500D02*
X78517000Y-39497000D01*
X80041000Y-39560500D02*
X78580500Y-39560500D01*
X69055500Y-39560500D02*
X69119000Y-39497000D01*
X67595000Y-39560500D02*
X69055500Y-39560500D01*
D27*
X53371000Y-51258000D02*
X53371000Y-51258000D01*
X53472032Y-51156968D02*
X53371000Y-51258000D01*
X53472032Y-50419000D02*
X53472032Y-51156968D01*
X52146000Y-59817000D02*
X51495990Y-59166990D01*
X52596000Y-59817000D02*
X52146000Y-59817000D01*
X51466000Y-55118000D02*
X51495990Y-55147990D01*
X50640500Y-55118000D02*
X51466000Y-55118000D01*
X51495990Y-59166990D02*
X51495990Y-55147990D01*
X53371000Y-51943000D02*
X53371000Y-51258000D01*
X51495990Y-53818010D02*
X53371000Y-51943000D01*
X51495990Y-55147990D02*
X51495990Y-53818010D01*
X52596000Y-86354000D02*
X52101000Y-86849000D01*
X52596000Y-84817000D02*
X52596000Y-86354000D01*
D26*
X78580500Y-64560500D02*
X78517000Y-64497000D01*
X80041000Y-64560500D02*
X78580500Y-64560500D01*
X69055500Y-64560500D02*
X69119000Y-64497000D01*
X67595000Y-64560500D02*
X69055500Y-64560500D01*
D27*
X53371000Y-76258000D02*
X53371000Y-76258000D01*
X53472032Y-76156968D02*
X53371000Y-76258000D01*
X53472032Y-75419000D02*
X53472032Y-76156968D01*
X52146000Y-84817000D02*
X51495990Y-84166990D01*
X52596000Y-84817000D02*
X52146000Y-84817000D01*
X51466000Y-80118000D02*
X51495990Y-80147990D01*
X50640500Y-80118000D02*
X51466000Y-80118000D01*
X51495990Y-84166990D02*
X51495990Y-80147990D01*
X53371000Y-76943000D02*
X53371000Y-76258000D01*
X51495990Y-78818010D02*
X53371000Y-76943000D01*
X51495990Y-80147990D02*
X51495990Y-78818010D01*
D25*
%TO.N,+5VP*%
X82073000Y-46482000D02*
X79787000Y-46482000D01*
X82073000Y-43942000D02*
X79787000Y-43942000D01*
X61499000Y-43942000D02*
X59213000Y-43942000D01*
X61499000Y-46482000D02*
X59213000Y-46482000D01*
X82073000Y-71482000D02*
X79787000Y-71482000D01*
X82073000Y-68942000D02*
X79787000Y-68942000D01*
X61499000Y-68942000D02*
X59213000Y-68942000D01*
X61499000Y-71482000D02*
X59213000Y-71482000D01*
D29*
%TO.N,Net-(J1-Pad1)*%
X70770000Y-55499000D02*
X66833000Y-51562000D01*
X70770000Y-61468000D02*
X70770000Y-55499000D01*
X70770000Y-80499000D02*
X66833000Y-76562000D01*
X70770000Y-86468000D02*
X70770000Y-80499000D01*
D28*
%TO.N,/scl0*%
X45497000Y-49403000D02*
X45497000Y-50736500D01*
X47021000Y-47879000D02*
X45497000Y-49403000D01*
X47021000Y-47432000D02*
X47021000Y-47879000D01*
X44900999Y-45311999D02*
X44900999Y-44030001D01*
X47021000Y-47432000D02*
X44900999Y-45311999D01*
X44900999Y-44030001D02*
X45751000Y-43180000D01*
X45497000Y-74403000D02*
X45497000Y-75736500D01*
X47021000Y-72879000D02*
X45497000Y-74403000D01*
X47021000Y-72432000D02*
X47021000Y-72879000D01*
X44900999Y-70311999D02*
X44900999Y-69030001D01*
X47021000Y-72432000D02*
X44900999Y-70311999D01*
X44900999Y-69030001D02*
X45751000Y-68180000D01*
%TO.N,/sda0*%
X45497000Y-52197000D02*
X46513000Y-51181000D01*
X47771001Y-47070678D02*
X45751000Y-45050677D01*
X47771001Y-48017999D02*
X47771001Y-47070678D01*
X46513000Y-49276000D02*
X47771001Y-48017999D01*
X45751000Y-45050677D02*
X45751000Y-44450000D01*
X46513000Y-51181000D02*
X46513000Y-49276000D01*
X45497000Y-77197000D02*
X46513000Y-76181000D01*
X47771001Y-72070678D02*
X45751000Y-70050677D01*
X47771001Y-73017999D02*
X47771001Y-72070678D01*
X46513000Y-74276000D02*
X47771001Y-73017999D01*
X45751000Y-70050677D02*
X45751000Y-69450000D01*
X46513000Y-76181000D02*
X46513000Y-74276000D01*
D29*
%TO.N,Net-(K2-Pad8)*%
X86879010Y-62249990D02*
X87407000Y-61722000D01*
X80314990Y-62249990D02*
X86879010Y-62249990D01*
X79787000Y-61722000D02*
X80314990Y-62249990D01*
X86879010Y-87249990D02*
X87407000Y-86722000D01*
X80314990Y-87249990D02*
X86879010Y-87249990D01*
X79787000Y-86722000D02*
X80314990Y-87249990D01*
D28*
%TO.N,/I2C_SDA*%
X73651437Y-46380733D02*
X75115886Y-44916284D01*
X71588688Y-45331999D02*
X72637422Y-46380733D01*
X56807001Y-45331999D02*
X71588688Y-45331999D01*
X72637422Y-46380733D02*
X73651437Y-46380733D01*
X55403000Y-46736000D02*
X56807001Y-45331999D01*
X73651437Y-71380733D02*
X75115886Y-69916284D01*
X71588688Y-70331999D02*
X72637422Y-71380733D01*
X56807001Y-70331999D02*
X71588688Y-70331999D01*
X72637422Y-71380733D02*
X73651437Y-71380733D01*
X55403000Y-71736000D02*
X56807001Y-70331999D01*
D25*
%TO.N,Net-(Q5-Pad1)*%
X76867000Y-40512000D02*
X76867000Y-41337500D01*
X76945490Y-40399990D02*
X76867000Y-40321500D01*
X78980490Y-40399990D02*
X76945490Y-40399990D01*
X80041000Y-41460500D02*
X78980490Y-40399990D01*
X76867000Y-40321500D02*
X76867000Y-40512000D01*
X76867000Y-39497000D02*
X76867000Y-40321500D01*
X76867000Y-41337500D02*
X76866000Y-41338500D01*
X78951544Y-40450500D02*
X76867000Y-40450500D01*
X79961544Y-41460500D02*
X78951544Y-40450500D01*
X80041000Y-41460500D02*
X79961544Y-41460500D01*
X76867000Y-40450500D02*
X76867000Y-41337500D01*
X76867000Y-39497000D02*
X76867000Y-40450500D01*
X76867000Y-65512000D02*
X76867000Y-66337500D01*
X76945490Y-65399990D02*
X76867000Y-65321500D01*
X78980490Y-65399990D02*
X76945490Y-65399990D01*
X80041000Y-66460500D02*
X78980490Y-65399990D01*
X76867000Y-65321500D02*
X76867000Y-65512000D01*
X76867000Y-64497000D02*
X76867000Y-65321500D01*
X76867000Y-66337500D02*
X76866000Y-66338500D01*
X78951544Y-65450500D02*
X76867000Y-65450500D01*
X79961544Y-66460500D02*
X78951544Y-65450500D01*
X80041000Y-66460500D02*
X79961544Y-66460500D01*
X76867000Y-65450500D02*
X76867000Y-66337500D01*
X76867000Y-64497000D02*
X76867000Y-65450500D01*
D28*
%TO.N,/K1_set*%
X70897000Y-43687992D02*
X70896992Y-43688000D01*
X70897000Y-41149000D02*
X70897000Y-43687992D01*
X70769000Y-41021000D02*
X70897000Y-41149000D01*
X70897000Y-68687992D02*
X70896992Y-68688000D01*
X70897000Y-66149000D02*
X70897000Y-68687992D01*
X70769000Y-66021000D02*
X70897000Y-66149000D01*
%TO.N,/K2_set*%
X77333000Y-44237000D02*
X77333000Y-46441000D01*
X78516000Y-43054000D02*
X77333000Y-44237000D01*
X78516000Y-41338500D02*
X78516000Y-43054000D01*
X77333000Y-69237000D02*
X77333000Y-71441000D01*
X78516000Y-68054000D02*
X77333000Y-69237000D01*
X78516000Y-66338500D02*
X78516000Y-68054000D01*
%TO.N,/K2_rst*%
X74686155Y-43942000D02*
X72997423Y-45630732D01*
X76474000Y-43942000D02*
X74686155Y-43942000D01*
X77755000Y-42661000D02*
X76474000Y-43942000D01*
X74686155Y-68942000D02*
X72997423Y-70630732D01*
X76474000Y-68942000D02*
X74686155Y-68942000D01*
X77755000Y-67661000D02*
X76474000Y-68942000D01*
D29*
%TO.N,Net-(J1-Pad3)*%
X75850000Y-55499000D02*
X79787000Y-51562000D01*
X75850000Y-61468000D02*
X75850000Y-55499000D01*
X75850000Y-80499000D02*
X79787000Y-76562000D01*
X75850000Y-86468000D02*
X75850000Y-80499000D01*
D26*
%TO.N,Net-(Q5-Pad3)*%
X82838500Y-40510500D02*
X83471000Y-39878000D01*
X82041000Y-40510500D02*
X82838500Y-40510500D01*
X82838500Y-65510500D02*
X83471000Y-64878000D01*
X82041000Y-65510500D02*
X82838500Y-65510500D01*
D29*
%TO.N,Net-(C5-Pad1)*%
X60610000Y-51562000D02*
X59213000Y-51562000D01*
X63023000Y-58293000D02*
X63023000Y-53975000D01*
X62134000Y-59182000D02*
X63023000Y-58293000D01*
X63023000Y-53975000D02*
X60610000Y-51562000D01*
X62113000Y-59182000D02*
X62134000Y-59182000D01*
X60610000Y-76562000D02*
X59213000Y-76562000D01*
X63023000Y-83293000D02*
X63023000Y-78975000D01*
X62134000Y-84182000D02*
X63023000Y-83293000D01*
X63023000Y-78975000D02*
X60610000Y-76562000D01*
X62113000Y-84182000D02*
X62134000Y-84182000D01*
D27*
%TO.N,Net-(C6-Pad2)*%
X54641000Y-60312000D02*
X54146000Y-59817000D01*
X54641000Y-61849000D02*
X54641000Y-60312000D01*
X54146000Y-58433000D02*
X53371000Y-57658000D01*
X54146000Y-59817000D02*
X54146000Y-58433000D01*
X53371000Y-57658000D02*
X53371000Y-57658000D01*
X54641000Y-85312000D02*
X54146000Y-84817000D01*
X54641000Y-86849000D02*
X54641000Y-85312000D01*
X54146000Y-83433000D02*
X53371000Y-82658000D01*
X54146000Y-84817000D02*
X54146000Y-83433000D01*
X53371000Y-82658000D02*
X53371000Y-82658000D01*
D25*
%TO.N,Net-(C11-Pad2)*%
X84173000Y-43942000D02*
X87407000Y-43942000D01*
X84173000Y-68942000D02*
X87407000Y-68942000D01*
%TO.N,Net-(C12-Pad2)*%
X84173000Y-46482000D02*
X87407000Y-46482000D01*
X84173000Y-71482000D02*
X87407000Y-71482000D01*
D26*
%TO.N,Net-(Q1-Pad3)*%
X65847500Y-41560500D02*
X64165000Y-39878000D01*
X66645000Y-41560500D02*
X65847500Y-41560500D01*
X65847500Y-66560500D02*
X64165000Y-64878000D01*
X66645000Y-66560500D02*
X65847500Y-66560500D01*
%TO.N,Net-(Q1-Pad1)*%
X68558501Y-40460501D02*
X69119000Y-41021000D01*
X66595001Y-40460501D02*
X68558501Y-40460501D01*
X65695000Y-39560500D02*
X66595001Y-40460501D01*
X70643000Y-39497000D02*
X69119000Y-41021000D01*
X70769000Y-39497000D02*
X70643000Y-39497000D01*
X68558501Y-65460501D02*
X69119000Y-66021000D01*
X66595001Y-65460501D02*
X68558501Y-65460501D01*
X65695000Y-64560500D02*
X66595001Y-65460501D01*
X70643000Y-64497000D02*
X69119000Y-66021000D01*
X70769000Y-64497000D02*
X70643000Y-64497000D01*
%TD*%
M02*
