%TF.GenerationSoftware,KiCad,Pcbnew,(5.1.10)-1*%
%TF.CreationDate,2022-01-17T19:26:09+07:00*%
%TF.ProjectId,Fan_controller_v3_pnlz1x2,46616e5f-636f-46e7-9472-6f6c6c65725f,rev?*%
%TF.SameCoordinates,Original*%
%TF.FileFunction,Profile,NP*%
%FSLAX46Y46*%
G04 Gerber Fmt 4.6, Leading zero omitted, Abs format (unit mm)*
G04 Created by KiCad (PCBNEW (5.1.10)-1) date 2022-01-17 19:26:09*
%MOMM*%
%LPD*%
G01*
G04 APERTURE LIST*
%TA.AperFunction,Profile*%
%ADD10C,0.100000*%
%TD*%
G04 APERTURE END LIST*
D10*
X127717000Y-97450000D02*
G75*
G02*
X125431000Y-97450000I-1143000J0D01*
G01*
X127717000Y-94275000D02*
X127717000Y-97450000D01*
X125431000Y-97450000D02*
X125431000Y-94275000D01*
X123145000Y-103165000D02*
G75*
G02*
X123145000Y-100879000I0J1143000D01*
G01*
X124669000Y-100879000D02*
G75*
G02*
X124669000Y-103165000I0J-1143000D01*
G01*
X123145000Y-100879000D02*
X124669000Y-100879000D01*
X123145000Y-103165000D02*
X124669000Y-103165000D01*
X115525000Y-100879000D02*
X117049000Y-100879000D01*
X115525000Y-103165000D02*
X117049000Y-103165000D01*
X115525000Y-103165000D02*
G75*
G02*
X115525000Y-100879000I0J1143000D01*
G01*
X117049000Y-100879000D02*
G75*
G02*
X117049000Y-103165000I0J-1143000D01*
G01*
X81000000Y-91500000D02*
X131000000Y-91500000D01*
X131000000Y-91500000D02*
X131000000Y-116500000D01*
X81000000Y-116500000D02*
X131000000Y-116500000D01*
X81000000Y-91500000D02*
X81000000Y-116500000D01*
X125431000Y-94275000D02*
G75*
G02*
X127717000Y-94275000I1143000J0D01*
G01*
X102571000Y-103165000D02*
X104095000Y-103165000D01*
X102571000Y-103165000D02*
G75*
G02*
X102571000Y-100879000I0J1143000D01*
G01*
X104095000Y-100879000D02*
G75*
G02*
X104095000Y-103165000I0J-1143000D01*
G01*
X102571000Y-100879000D02*
X104095000Y-100879000D01*
X94951000Y-103165000D02*
X96475000Y-103165000D01*
X94951000Y-103165000D02*
G75*
G02*
X94951000Y-100879000I0J1143000D01*
G01*
X96475000Y-100879000D02*
G75*
G02*
X96475000Y-103165000I0J-1143000D01*
G01*
X94951000Y-100879000D02*
X96475000Y-100879000D01*
X94443000Y-104435000D02*
G75*
G03*
X94443000Y-104435000I-1143000J0D01*
G01*
X94443000Y-109642000D02*
G75*
G03*
X94443000Y-109642000I-1143000J0D01*
G01*
X94443000Y-114849000D02*
G75*
G03*
X94443000Y-114849000I-1143000J0D01*
G01*
X94443000Y-89849000D02*
G75*
G03*
X94443000Y-89849000I-1143000J0D01*
G01*
X94443000Y-84642000D02*
G75*
G03*
X94443000Y-84642000I-1143000J0D01*
G01*
X94443000Y-79435000D02*
G75*
G03*
X94443000Y-79435000I-1143000J0D01*
G01*
X94951000Y-75879000D02*
X96475000Y-75879000D01*
X96475000Y-75879000D02*
G75*
G02*
X96475000Y-78165000I0J-1143000D01*
G01*
X94951000Y-78165000D02*
G75*
G02*
X94951000Y-75879000I0J1143000D01*
G01*
X94951000Y-78165000D02*
X96475000Y-78165000D01*
X102571000Y-75879000D02*
X104095000Y-75879000D01*
X104095000Y-75879000D02*
G75*
G02*
X104095000Y-78165000I0J-1143000D01*
G01*
X102571000Y-78165000D02*
G75*
G02*
X102571000Y-75879000I0J1143000D01*
G01*
X102571000Y-78165000D02*
X104095000Y-78165000D01*
X117049000Y-75879000D02*
G75*
G02*
X117049000Y-78165000I0J-1143000D01*
G01*
X115525000Y-78165000D02*
G75*
G02*
X115525000Y-75879000I0J1143000D01*
G01*
X115525000Y-78165000D02*
X117049000Y-78165000D01*
X115525000Y-75879000D02*
X117049000Y-75879000D01*
X123145000Y-78165000D02*
X124669000Y-78165000D01*
X123145000Y-75879000D02*
X124669000Y-75879000D01*
X124669000Y-75879000D02*
G75*
G02*
X124669000Y-78165000I0J-1143000D01*
G01*
X123145000Y-78165000D02*
G75*
G02*
X123145000Y-75879000I0J1143000D01*
G01*
X125431000Y-72450000D02*
X125431000Y-69275000D01*
X127717000Y-69275000D02*
X127717000Y-72450000D01*
X127717000Y-72450000D02*
G75*
G02*
X125431000Y-72450000I-1143000J0D01*
G01*
X125431000Y-69275000D02*
G75*
G02*
X127717000Y-69275000I1143000J0D01*
G01*
X81000000Y-66500000D02*
X81000000Y-91500000D01*
X81000000Y-91500000D02*
X131000000Y-91500000D01*
X131000000Y-66500000D02*
X131000000Y-91500000D01*
X81000000Y-66500000D02*
X131000000Y-66500000D01*
M02*
