%TF.GenerationSoftware,KiCad,Pcbnew,(5.1.10)-1*%
%TF.CreationDate,2022-01-17T19:26:08+07:00*%
%TF.ProjectId,Fan_controller_v3_pnlz1x2,46616e5f-636f-46e7-9472-6f6c6c65725f,rev?*%
%TF.SameCoordinates,Original*%
%TF.FileFunction,Copper,L3,Inr*%
%TF.FilePolarity,Positive*%
%FSLAX46Y46*%
G04 Gerber Fmt 4.6, Leading zero omitted, Abs format (unit mm)*
G04 Created by KiCad (PCBNEW (5.1.10)-1) date 2022-01-17 19:26:08*
%MOMM*%
%LPD*%
G01*
G04 APERTURE LIST*
%TA.AperFunction,ComponentPad*%
%ADD10C,2.000000*%
%TD*%
%TA.AperFunction,ComponentPad*%
%ADD11R,1.600000X1.600000*%
%TD*%
%TA.AperFunction,ComponentPad*%
%ADD12C,1.600000*%
%TD*%
%TA.AperFunction,ComponentPad*%
%ADD13R,1.750000X2.250000*%
%TD*%
%TA.AperFunction,ComponentPad*%
%ADD14O,1.750000X2.250000*%
%TD*%
%TA.AperFunction,ComponentPad*%
%ADD15O,1.700000X1.700000*%
%TD*%
%TA.AperFunction,ComponentPad*%
%ADD16R,1.700000X1.700000*%
%TD*%
%TA.AperFunction,ComponentPad*%
%ADD17R,1.000000X1.000000*%
%TD*%
%TA.AperFunction,ComponentPad*%
%ADD18O,1.000000X1.000000*%
%TD*%
%TA.AperFunction,ViaPad*%
%ADD19C,0.800000*%
%TD*%
%TA.AperFunction,ViaPad*%
%ADD20C,1.200000*%
%TD*%
%TA.AperFunction,Conductor*%
%ADD21C,0.300000*%
%TD*%
%TA.AperFunction,Conductor*%
%ADD22C,0.254000*%
%TD*%
%TA.AperFunction,Conductor*%
%ADD23C,0.020000*%
%TD*%
G04 APERTURE END LIST*
D10*
%TO.N,Net-(C7-Pad1)*%
%TO.C,C7*%
X129241000Y-95545000D03*
%TO.N,Net-(C5-Pad2)*%
X129241000Y-113045000D03*
%TD*%
D11*
%TO.N,+5VP*%
%TO.C,K1*%
X95713000Y-96942000D03*
D12*
X95713000Y-99482000D03*
%TO.N,Net-(C5-Pad1)*%
X95713000Y-104562000D03*
%TO.N,Net-(C7-Pad1)*%
X95713000Y-109642000D03*
%TO.N,Net-(K1-Pad8)*%
X95713000Y-114722000D03*
X103333000Y-114722000D03*
%TO.N,Net-(C5-Pad2)*%
X103333000Y-109642000D03*
%TO.N,Net-(J1-Pad1)*%
X103333000Y-104562000D03*
%TO.N,Net-(C4-Pad2)*%
X103333000Y-99482000D03*
%TO.N,Net-(C3-Pad2)*%
X103333000Y-96942000D03*
%TD*%
D13*
%TO.N,GND1*%
%TO.C,PS1*%
X83521000Y-114849000D03*
D14*
%TO.N,+5P*%
X86061000Y-114849000D03*
%TO.N,GND2*%
X88601000Y-114849000D03*
%TO.N,Net-(C6-Pad2)*%
X91141000Y-114849000D03*
%TD*%
D10*
%TO.N,GND2*%
%TO.C,TP1*%
X87140500Y-108118000D03*
%TD*%
D15*
%TO.N,Net-(J1-Pad3)*%
%TO.C,J1*%
X112350000Y-114468000D03*
%TO.N,N/C*%
X109810000Y-114468000D03*
D16*
%TO.N,Net-(J1-Pad1)*%
X107270000Y-114468000D03*
%TD*%
D12*
%TO.N,Net-(C11-Pad2)*%
%TO.C,K2*%
X123907000Y-96942000D03*
%TO.N,Net-(C12-Pad2)*%
X123907000Y-99482000D03*
%TO.N,Net-(C7-Pad1)*%
X123907000Y-104562000D03*
%TO.N,Net-(C5-Pad2)*%
X123907000Y-109642000D03*
%TO.N,Net-(K2-Pad8)*%
X123907000Y-114722000D03*
X116287000Y-114722000D03*
%TO.N,Net-(C7-Pad1)*%
X116287000Y-109642000D03*
%TO.N,Net-(J1-Pad3)*%
X116287000Y-104562000D03*
%TO.N,+5VP*%
X116287000Y-99482000D03*
D11*
X116287000Y-96942000D03*
%TD*%
D10*
%TO.N,Net-(C5-Pad1)*%
%TO.C,C5*%
X98613000Y-112182000D03*
%TO.N,Net-(C5-Pad2)*%
X121113000Y-112182000D03*
%TD*%
D17*
%TO.N,+5P*%
%TO.C,J2*%
X84791000Y-97450000D03*
D18*
X84791000Y-96180000D03*
%TO.N,GND1*%
X83521000Y-97450000D03*
X83521000Y-96180000D03*
%TO.N,/sda0*%
X82251000Y-97450000D03*
%TO.N,/scl0*%
X82251000Y-96180000D03*
%TD*%
%TO.N,/scl0*%
%TO.C,J2*%
X82251000Y-71180000D03*
%TO.N,/sda0*%
X82251000Y-72450000D03*
%TO.N,GND1*%
X83521000Y-71180000D03*
X83521000Y-72450000D03*
%TO.N,+5P*%
X84791000Y-71180000D03*
D17*
X84791000Y-72450000D03*
%TD*%
D10*
%TO.N,Net-(C5-Pad2)*%
%TO.C,C5*%
X121113000Y-87182000D03*
%TO.N,Net-(C5-Pad1)*%
X98613000Y-87182000D03*
%TD*%
D11*
%TO.N,+5VP*%
%TO.C,K2*%
X116287000Y-71942000D03*
D12*
X116287000Y-74482000D03*
%TO.N,Net-(J1-Pad3)*%
X116287000Y-79562000D03*
%TO.N,Net-(C7-Pad1)*%
X116287000Y-84642000D03*
%TO.N,Net-(K2-Pad8)*%
X116287000Y-89722000D03*
X123907000Y-89722000D03*
%TO.N,Net-(C5-Pad2)*%
X123907000Y-84642000D03*
%TO.N,Net-(C7-Pad1)*%
X123907000Y-79562000D03*
%TO.N,Net-(C12-Pad2)*%
X123907000Y-74482000D03*
%TO.N,Net-(C11-Pad2)*%
X123907000Y-71942000D03*
%TD*%
D16*
%TO.N,Net-(J1-Pad1)*%
%TO.C,J1*%
X107270000Y-89468000D03*
D15*
%TO.N,N/C*%
X109810000Y-89468000D03*
%TO.N,Net-(J1-Pad3)*%
X112350000Y-89468000D03*
%TD*%
D10*
%TO.N,GND2*%
%TO.C,TP1*%
X87140500Y-83118000D03*
%TD*%
D14*
%TO.N,Net-(C6-Pad2)*%
%TO.C,PS1*%
X91141000Y-89849000D03*
%TO.N,GND2*%
X88601000Y-89849000D03*
%TO.N,+5P*%
X86061000Y-89849000D03*
D13*
%TO.N,GND1*%
X83521000Y-89849000D03*
%TD*%
D12*
%TO.N,Net-(C3-Pad2)*%
%TO.C,K1*%
X103333000Y-71942000D03*
%TO.N,Net-(C4-Pad2)*%
X103333000Y-74482000D03*
%TO.N,Net-(J1-Pad1)*%
X103333000Y-79562000D03*
%TO.N,Net-(C5-Pad2)*%
X103333000Y-84642000D03*
%TO.N,Net-(K1-Pad8)*%
X103333000Y-89722000D03*
X95713000Y-89722000D03*
%TO.N,Net-(C7-Pad1)*%
X95713000Y-84642000D03*
%TO.N,Net-(C5-Pad1)*%
X95713000Y-79562000D03*
%TO.N,+5VP*%
X95713000Y-74482000D03*
D11*
X95713000Y-71942000D03*
%TD*%
D10*
%TO.N,Net-(C5-Pad2)*%
%TO.C,C7*%
X129241000Y-88045000D03*
%TO.N,Net-(C7-Pad1)*%
X129241000Y-70545000D03*
%TD*%
D19*
%TO.N,Net-(C3-Pad2)*%
X97491000Y-69529000D03*
X97491000Y-94529000D03*
%TO.N,Net-(C3-Pad1)*%
X97491000Y-67878000D03*
X97491000Y-92878000D03*
%TO.N,Net-(C4-Pad2)*%
X95967000Y-69529000D03*
X95967000Y-94529000D03*
%TO.N,Net-(C4-Pad1)*%
X95967000Y-67878000D03*
X95967000Y-92878000D03*
%TO.N,GND1*%
X90480000Y-69275000D03*
X90480000Y-94275000D03*
%TO.N,+5P*%
X87077000Y-79943000D03*
X87077000Y-104943000D03*
%TO.N,Net-(C11-Pad1)*%
X124669000Y-67878000D03*
X124669000Y-92878000D03*
%TO.N,GND2*%
X110445000Y-70799000D03*
X105619000Y-67497000D03*
X115017000Y-67497000D03*
X104095000Y-67560500D03*
X116541000Y-67560500D03*
X89972032Y-78419000D03*
X110445000Y-95799000D03*
X105619000Y-92497000D03*
X115017000Y-92497000D03*
X104095000Y-92560500D03*
X116541000Y-92560500D03*
X89972032Y-103419000D03*
%TO.N,+5VP*%
X111995000Y-70799000D03*
D20*
X91395006Y-81340000D03*
D19*
X111995000Y-95799000D03*
D20*
X91395006Y-106340000D03*
D19*
%TO.N,/scl0*%
X83521000Y-75432000D03*
X81997000Y-78736500D03*
X83521000Y-100432000D03*
X81997000Y-103736500D03*
%TO.N,/sda0*%
X81997000Y-80197000D03*
X81997000Y-105197000D03*
%TO.N,/I2C_SDA*%
X111615886Y-72916284D03*
X91903000Y-74736000D03*
X111615886Y-97916284D03*
X91903000Y-99736000D03*
%TO.N,/I2C_SCL*%
X111615814Y-74015892D03*
X90633000Y-74736000D03*
X111615814Y-99015892D03*
X90633000Y-99736000D03*
%TO.N,/K1_set*%
X107396992Y-71688000D03*
X107396992Y-96688000D03*
%TO.N,/K2_set*%
X113833000Y-74441000D03*
X113833000Y-99441000D03*
%TO.N,/K2_rst*%
X114255000Y-70661000D03*
X109497423Y-73630732D03*
X114255000Y-95661000D03*
X109497423Y-98630732D03*
D20*
%TO.N,Net-(C6-Pad2)*%
X89871000Y-85658000D03*
X89871000Y-110658000D03*
D19*
%TO.N,Net-(C11-Pad2)*%
X124669000Y-69529000D03*
X124669000Y-94529000D03*
%TO.N,Net-(C12-Pad2)*%
X123145000Y-69529000D03*
X123145000Y-94529000D03*
%TO.N,Net-(C12-Pad1)*%
X123145000Y-67878000D03*
X123145000Y-92878000D03*
%TD*%
D21*
%TO.N,/I2C_SCL*%
X111250973Y-74380733D02*
X111615814Y-74015892D01*
X109137422Y-74380733D02*
X111250973Y-74380733D01*
X108088688Y-73331999D02*
X109137422Y-74380733D01*
X92037001Y-73331999D02*
X108088688Y-73331999D01*
X90633000Y-74736000D02*
X92037001Y-73331999D01*
X111250973Y-74380733D02*
X111615814Y-74015892D01*
X109137422Y-74380733D02*
X111250973Y-74380733D01*
X108088688Y-73331999D02*
X109137422Y-74380733D01*
X92037001Y-73331999D02*
X108088688Y-73331999D01*
X90633000Y-74736000D02*
X92037001Y-73331999D01*
X111250973Y-99380733D02*
X111615814Y-99015892D01*
X109137422Y-99380733D02*
X111250973Y-99380733D01*
X108088688Y-98331999D02*
X109137422Y-99380733D01*
X92037001Y-98331999D02*
X108088688Y-98331999D01*
X90633000Y-99736000D02*
X92037001Y-98331999D01*
%TD*%
D22*
%TO.N,GND2*%
X125177000Y-67281499D02*
X125166859Y-67271358D01*
X125038942Y-67185887D01*
X124896809Y-67127013D01*
X124745922Y-67097000D01*
X124592078Y-67097000D01*
X124441191Y-67127013D01*
X124299058Y-67185887D01*
X124171141Y-67271358D01*
X124062358Y-67380141D01*
X123976887Y-67508058D01*
X123918013Y-67650191D01*
X123907000Y-67705558D01*
X123895987Y-67650191D01*
X123837113Y-67508058D01*
X123751642Y-67380141D01*
X123642859Y-67271358D01*
X123514942Y-67185887D01*
X123372809Y-67127013D01*
X123221922Y-67097000D01*
X123068078Y-67097000D01*
X122917191Y-67127013D01*
X122775058Y-67185887D01*
X122647141Y-67271358D01*
X122538358Y-67380141D01*
X122452887Y-67508058D01*
X122394013Y-67650191D01*
X122364000Y-67801078D01*
X122364000Y-67954922D01*
X122394013Y-68105809D01*
X122452887Y-68247942D01*
X122538358Y-68375859D01*
X122647141Y-68484642D01*
X122775058Y-68570113D01*
X122917191Y-68628987D01*
X123068078Y-68659000D01*
X123221922Y-68659000D01*
X123372809Y-68628987D01*
X123514942Y-68570113D01*
X123642859Y-68484642D01*
X123751642Y-68375859D01*
X123837113Y-68247942D01*
X123895987Y-68105809D01*
X123907000Y-68050442D01*
X123918013Y-68105809D01*
X123976887Y-68247942D01*
X124062358Y-68375859D01*
X124171141Y-68484642D01*
X124299058Y-68570113D01*
X124441191Y-68628987D01*
X124592078Y-68659000D01*
X124745922Y-68659000D01*
X124896809Y-68628987D01*
X125038942Y-68570113D01*
X125166859Y-68484642D01*
X125177000Y-68474501D01*
X125177000Y-68561289D01*
X125136693Y-68637096D01*
X125121817Y-68673188D01*
X125106419Y-68709114D01*
X125104640Y-68714863D01*
X125062954Y-68852931D01*
X125038942Y-68836887D01*
X124896809Y-68778013D01*
X124745922Y-68748000D01*
X124592078Y-68748000D01*
X124441191Y-68778013D01*
X124299058Y-68836887D01*
X124171141Y-68922358D01*
X124062358Y-69031141D01*
X123976887Y-69159058D01*
X123918013Y-69301191D01*
X123907000Y-69356558D01*
X123895987Y-69301191D01*
X123837113Y-69159058D01*
X123751642Y-69031141D01*
X123642859Y-68922358D01*
X123514942Y-68836887D01*
X123372809Y-68778013D01*
X123221922Y-68748000D01*
X123068078Y-68748000D01*
X122917191Y-68778013D01*
X122775058Y-68836887D01*
X122647141Y-68922358D01*
X122538358Y-69031141D01*
X122452887Y-69159058D01*
X122394013Y-69301191D01*
X122364000Y-69452078D01*
X122364000Y-69605922D01*
X122394013Y-69756809D01*
X122452887Y-69898942D01*
X122538358Y-70026859D01*
X122647141Y-70135642D01*
X122775058Y-70221113D01*
X122917191Y-70279987D01*
X123068078Y-70310000D01*
X123221922Y-70310000D01*
X123372809Y-70279987D01*
X123514942Y-70221113D01*
X123642859Y-70135642D01*
X123751642Y-70026859D01*
X123837113Y-69898942D01*
X123895987Y-69756809D01*
X123907000Y-69701442D01*
X123918013Y-69756809D01*
X123976887Y-69898942D01*
X124062358Y-70026859D01*
X124171141Y-70135642D01*
X124299058Y-70221113D01*
X124441191Y-70279987D01*
X124592078Y-70310000D01*
X124745922Y-70310000D01*
X124896809Y-70279987D01*
X125000001Y-70237243D01*
X125000000Y-71494636D01*
X124953588Y-71382587D01*
X124824342Y-71189157D01*
X124659843Y-71024658D01*
X124466413Y-70895412D01*
X124251485Y-70806386D01*
X124023318Y-70761000D01*
X123790682Y-70761000D01*
X123562515Y-70806386D01*
X123347587Y-70895412D01*
X123154157Y-71024658D01*
X122989658Y-71189157D01*
X122860412Y-71382587D01*
X122771386Y-71597515D01*
X122726000Y-71825682D01*
X122726000Y-72058318D01*
X122771386Y-72286485D01*
X122860412Y-72501413D01*
X122989658Y-72694843D01*
X123154157Y-72859342D01*
X123347587Y-72988588D01*
X123562515Y-73077614D01*
X123790682Y-73123000D01*
X124023318Y-73123000D01*
X124251485Y-73077614D01*
X124466413Y-72988588D01*
X124659843Y-72859342D01*
X124824342Y-72694843D01*
X124953588Y-72501413D01*
X125000000Y-72389364D01*
X125000000Y-72471167D01*
X125002168Y-72493178D01*
X125002168Y-72508017D01*
X125002797Y-72514002D01*
X125027663Y-72735686D01*
X125035784Y-72773890D01*
X125043372Y-72812215D01*
X125045152Y-72817964D01*
X125112603Y-73030597D01*
X125127989Y-73066495D01*
X125142878Y-73102619D01*
X125145735Y-73107903D01*
X125145739Y-73107912D01*
X125145744Y-73107919D01*
X125177000Y-73164774D01*
X125177000Y-75536899D01*
X125015584Y-75488164D01*
X124977298Y-75480583D01*
X124939053Y-75472454D01*
X124933070Y-75471825D01*
X124933068Y-75471825D01*
X124711058Y-75450057D01*
X124711052Y-75450057D01*
X124690168Y-75448000D01*
X124587021Y-75448000D01*
X124659843Y-75399342D01*
X124824342Y-75234843D01*
X124953588Y-75041413D01*
X125042614Y-74826485D01*
X125088000Y-74598318D01*
X125088000Y-74365682D01*
X125042614Y-74137515D01*
X124953588Y-73922587D01*
X124824342Y-73729157D01*
X124659843Y-73564658D01*
X124466413Y-73435412D01*
X124251485Y-73346386D01*
X124023318Y-73301000D01*
X123790682Y-73301000D01*
X123562515Y-73346386D01*
X123347587Y-73435412D01*
X123154157Y-73564658D01*
X122989658Y-73729157D01*
X122860412Y-73922587D01*
X122771386Y-74137515D01*
X122726000Y-74365682D01*
X122726000Y-74598318D01*
X122771386Y-74826485D01*
X122860412Y-75041413D01*
X122989658Y-75234843D01*
X123154157Y-75399342D01*
X123226979Y-75448000D01*
X123123832Y-75448000D01*
X123101821Y-75450168D01*
X123086983Y-75450168D01*
X123080997Y-75450797D01*
X122859314Y-75475663D01*
X122821110Y-75483784D01*
X122782785Y-75491372D01*
X122777038Y-75493151D01*
X122777032Y-75493153D01*
X122564403Y-75560603D01*
X122528493Y-75575994D01*
X122492381Y-75590878D01*
X122487097Y-75593735D01*
X122487088Y-75593739D01*
X122487081Y-75593744D01*
X122291607Y-75701207D01*
X122259402Y-75723258D01*
X122226838Y-75744894D01*
X122222201Y-75748730D01*
X122218304Y-75752000D01*
X117973586Y-75752000D01*
X117953932Y-75735971D01*
X117921433Y-75714378D01*
X117889162Y-75692282D01*
X117883868Y-75689420D01*
X117686904Y-75584693D01*
X117650812Y-75569817D01*
X117614886Y-75554419D01*
X117609137Y-75552640D01*
X117609139Y-75552640D01*
X117609131Y-75552638D01*
X117395584Y-75488164D01*
X117357298Y-75480583D01*
X117319053Y-75472454D01*
X117313070Y-75471825D01*
X117313068Y-75471825D01*
X117091058Y-75450057D01*
X117091052Y-75450057D01*
X117070168Y-75448000D01*
X116967021Y-75448000D01*
X117039843Y-75399342D01*
X117204342Y-75234843D01*
X117333588Y-75041413D01*
X117422614Y-74826485D01*
X117468000Y-74598318D01*
X117468000Y-74365682D01*
X117422614Y-74137515D01*
X117333588Y-73922587D01*
X117204342Y-73729157D01*
X117039843Y-73564658D01*
X116846413Y-73435412D01*
X116631485Y-73346386D01*
X116403318Y-73301000D01*
X116170682Y-73301000D01*
X115942515Y-73346386D01*
X115727587Y-73435412D01*
X115534157Y-73564658D01*
X115369658Y-73729157D01*
X115240412Y-73922587D01*
X115151386Y-74137515D01*
X115106000Y-74365682D01*
X115106000Y-74598318D01*
X115151386Y-74826485D01*
X115240412Y-75041413D01*
X115369658Y-75234843D01*
X115534157Y-75399342D01*
X115606979Y-75448000D01*
X115503832Y-75448000D01*
X115481821Y-75450168D01*
X115466983Y-75450168D01*
X115460997Y-75450797D01*
X115239314Y-75475663D01*
X115201110Y-75483784D01*
X115162785Y-75491372D01*
X115157038Y-75493151D01*
X115157032Y-75493153D01*
X114944403Y-75560603D01*
X114908493Y-75575994D01*
X114872381Y-75590878D01*
X114867097Y-75593735D01*
X114867088Y-75593739D01*
X114867081Y-75593744D01*
X114671607Y-75701207D01*
X114639402Y-75723258D01*
X114606838Y-75744894D01*
X114602201Y-75748730D01*
X114598304Y-75752000D01*
X105019586Y-75752000D01*
X104999932Y-75735971D01*
X104967433Y-75714378D01*
X104935162Y-75692282D01*
X104929868Y-75689420D01*
X104732904Y-75584693D01*
X104696812Y-75569817D01*
X104660886Y-75554419D01*
X104655137Y-75552640D01*
X104655139Y-75552640D01*
X104655131Y-75552638D01*
X104441584Y-75488164D01*
X104403298Y-75480583D01*
X104365053Y-75472454D01*
X104359070Y-75471825D01*
X104359068Y-75471825D01*
X104137058Y-75450057D01*
X104137052Y-75450057D01*
X104116168Y-75448000D01*
X104013021Y-75448000D01*
X104085843Y-75399342D01*
X104250342Y-75234843D01*
X104379588Y-75041413D01*
X104468614Y-74826485D01*
X104514000Y-74598318D01*
X104514000Y-74365682D01*
X104468614Y-74137515D01*
X104379588Y-73922587D01*
X104339773Y-73862999D01*
X107868742Y-73862999D01*
X108743505Y-74737763D01*
X108760132Y-74758023D01*
X108780392Y-74774650D01*
X108840986Y-74824379D01*
X108933234Y-74873686D01*
X109033328Y-74904050D01*
X109111338Y-74911733D01*
X109111348Y-74911733D01*
X109137422Y-74914301D01*
X109163496Y-74911733D01*
X111224899Y-74911733D01*
X111250973Y-74914301D01*
X111277047Y-74911733D01*
X111277057Y-74911733D01*
X111355067Y-74904050D01*
X111455161Y-74873686D01*
X111547408Y-74824379D01*
X111580901Y-74796892D01*
X111692736Y-74796892D01*
X111843623Y-74766879D01*
X111985756Y-74708005D01*
X112113673Y-74622534D01*
X112222456Y-74513751D01*
X112307927Y-74385834D01*
X112316938Y-74364078D01*
X113052000Y-74364078D01*
X113052000Y-74517922D01*
X113082013Y-74668809D01*
X113140887Y-74810942D01*
X113226358Y-74938859D01*
X113335141Y-75047642D01*
X113463058Y-75133113D01*
X113605191Y-75191987D01*
X113756078Y-75222000D01*
X113909922Y-75222000D01*
X114060809Y-75191987D01*
X114202942Y-75133113D01*
X114330859Y-75047642D01*
X114439642Y-74938859D01*
X114525113Y-74810942D01*
X114583987Y-74668809D01*
X114614000Y-74517922D01*
X114614000Y-74364078D01*
X114583987Y-74213191D01*
X114525113Y-74071058D01*
X114439642Y-73943141D01*
X114330859Y-73834358D01*
X114202942Y-73748887D01*
X114060809Y-73690013D01*
X113909922Y-73660000D01*
X113756078Y-73660000D01*
X113605191Y-73690013D01*
X113463058Y-73748887D01*
X113335141Y-73834358D01*
X113226358Y-73943141D01*
X113140887Y-74071058D01*
X113082013Y-74213191D01*
X113052000Y-74364078D01*
X112316938Y-74364078D01*
X112366801Y-74243701D01*
X112396814Y-74092814D01*
X112396814Y-73938970D01*
X112366801Y-73788083D01*
X112307927Y-73645950D01*
X112222456Y-73518033D01*
X112170547Y-73466124D01*
X112222528Y-73414143D01*
X112307999Y-73286226D01*
X112366873Y-73144093D01*
X112396886Y-72993206D01*
X112396886Y-72839362D01*
X112366873Y-72688475D01*
X112307999Y-72546342D01*
X112222528Y-72418425D01*
X112113745Y-72309642D01*
X111985828Y-72224171D01*
X111843695Y-72165297D01*
X111692808Y-72135284D01*
X111538964Y-72135284D01*
X111388077Y-72165297D01*
X111245944Y-72224171D01*
X111118027Y-72309642D01*
X111009244Y-72418425D01*
X110923773Y-72546342D01*
X110864899Y-72688475D01*
X110834886Y-72839362D01*
X110834886Y-72993206D01*
X110864899Y-73144093D01*
X110923773Y-73286226D01*
X111009244Y-73414143D01*
X111061153Y-73466052D01*
X111009172Y-73518033D01*
X110923701Y-73645950D01*
X110864827Y-73788083D01*
X110852564Y-73849733D01*
X110250162Y-73849733D01*
X110278423Y-73707654D01*
X110278423Y-73553810D01*
X110248410Y-73402923D01*
X110189536Y-73260790D01*
X110104065Y-73132873D01*
X109995282Y-73024090D01*
X109867365Y-72938619D01*
X109725232Y-72879745D01*
X109574345Y-72849732D01*
X109420501Y-72849732D01*
X109269614Y-72879745D01*
X109127481Y-72938619D01*
X108999564Y-73024090D01*
X108890781Y-73132873D01*
X108805310Y-73260790D01*
X108794507Y-73286871D01*
X108482609Y-72974974D01*
X108465978Y-72954709D01*
X108385123Y-72888353D01*
X108292876Y-72839046D01*
X108192782Y-72808682D01*
X108114772Y-72800999D01*
X108114762Y-72800999D01*
X108088688Y-72798431D01*
X108062614Y-72800999D01*
X104144186Y-72800999D01*
X104250342Y-72694843D01*
X104379588Y-72501413D01*
X104468614Y-72286485D01*
X104514000Y-72058318D01*
X104514000Y-71825682D01*
X104471312Y-71611078D01*
X106615992Y-71611078D01*
X106615992Y-71764922D01*
X106646005Y-71915809D01*
X106704879Y-72057942D01*
X106790350Y-72185859D01*
X106899133Y-72294642D01*
X107027050Y-72380113D01*
X107169183Y-72438987D01*
X107320070Y-72469000D01*
X107473914Y-72469000D01*
X107624801Y-72438987D01*
X107766934Y-72380113D01*
X107894851Y-72294642D01*
X108003634Y-72185859D01*
X108089105Y-72057942D01*
X108147979Y-71915809D01*
X108177992Y-71764922D01*
X108177992Y-71611078D01*
X108147979Y-71460191D01*
X108089105Y-71318058D01*
X108003634Y-71190141D01*
X107894851Y-71081358D01*
X107766934Y-70995887D01*
X107624801Y-70937013D01*
X107473914Y-70907000D01*
X107320070Y-70907000D01*
X107169183Y-70937013D01*
X107027050Y-70995887D01*
X106899133Y-71081358D01*
X106790350Y-71190141D01*
X106704879Y-71318058D01*
X106646005Y-71460191D01*
X106615992Y-71611078D01*
X104471312Y-71611078D01*
X104468614Y-71597515D01*
X104379588Y-71382587D01*
X104250342Y-71189157D01*
X104085843Y-71024658D01*
X103892413Y-70895412D01*
X103677485Y-70806386D01*
X103449318Y-70761000D01*
X103216682Y-70761000D01*
X102988515Y-70806386D01*
X102773587Y-70895412D01*
X102580157Y-71024658D01*
X102415658Y-71189157D01*
X102286412Y-71382587D01*
X102197386Y-71597515D01*
X102152000Y-71825682D01*
X102152000Y-72058318D01*
X102197386Y-72286485D01*
X102286412Y-72501413D01*
X102415658Y-72694843D01*
X102521814Y-72800999D01*
X96890032Y-72800999D01*
X96895843Y-72742000D01*
X96895843Y-71142000D01*
X96888487Y-71067311D01*
X96866701Y-70995492D01*
X96831322Y-70929304D01*
X96783711Y-70871289D01*
X96725696Y-70823678D01*
X96659508Y-70788299D01*
X96587689Y-70766513D01*
X96513000Y-70759157D01*
X94913000Y-70759157D01*
X94838311Y-70766513D01*
X94766492Y-70788299D01*
X94700304Y-70823678D01*
X94642289Y-70871289D01*
X94594678Y-70929304D01*
X94559299Y-70995492D01*
X94537513Y-71067311D01*
X94530157Y-71142000D01*
X94530157Y-72742000D01*
X94535968Y-72800999D01*
X92063074Y-72800999D01*
X92037000Y-72798431D01*
X92010926Y-72800999D01*
X92010917Y-72800999D01*
X91932907Y-72808682D01*
X91832813Y-72839046D01*
X91772697Y-72871178D01*
X91740565Y-72888353D01*
X91684276Y-72934549D01*
X91659711Y-72954709D01*
X91643084Y-72974969D01*
X90663054Y-73955000D01*
X90556078Y-73955000D01*
X90405191Y-73985013D01*
X90263058Y-74043887D01*
X90135141Y-74129358D01*
X90026358Y-74238141D01*
X89940887Y-74366058D01*
X89882013Y-74508191D01*
X89852000Y-74659078D01*
X89852000Y-74812922D01*
X89882013Y-74963809D01*
X89940887Y-75105942D01*
X90026358Y-75233859D01*
X90135141Y-75342642D01*
X90263058Y-75428113D01*
X90405191Y-75486987D01*
X90556078Y-75517000D01*
X90709922Y-75517000D01*
X90860809Y-75486987D01*
X91002942Y-75428113D01*
X91130859Y-75342642D01*
X91239642Y-75233859D01*
X91268000Y-75191418D01*
X91296358Y-75233859D01*
X91405141Y-75342642D01*
X91533058Y-75428113D01*
X91675191Y-75486987D01*
X91826078Y-75517000D01*
X91979922Y-75517000D01*
X92130809Y-75486987D01*
X92272942Y-75428113D01*
X92400859Y-75342642D01*
X92509642Y-75233859D01*
X92595113Y-75105942D01*
X92653987Y-74963809D01*
X92684000Y-74812922D01*
X92684000Y-74659078D01*
X92653987Y-74508191D01*
X92595113Y-74366058D01*
X92509642Y-74238141D01*
X92400859Y-74129358D01*
X92272942Y-74043887D01*
X92133726Y-73986221D01*
X92256948Y-73862999D01*
X94706227Y-73862999D01*
X94666412Y-73922587D01*
X94577386Y-74137515D01*
X94532000Y-74365682D01*
X94532000Y-74598318D01*
X94577386Y-74826485D01*
X94666412Y-75041413D01*
X94795658Y-75234843D01*
X94960157Y-75399342D01*
X95032979Y-75448000D01*
X94929832Y-75448000D01*
X94907821Y-75450168D01*
X94892983Y-75450168D01*
X94886997Y-75450797D01*
X94665314Y-75475663D01*
X94627110Y-75483784D01*
X94588785Y-75491372D01*
X94583038Y-75493151D01*
X94583032Y-75493153D01*
X94370403Y-75560603D01*
X94334493Y-75575994D01*
X94298381Y-75590878D01*
X94293097Y-75593735D01*
X94293088Y-75593739D01*
X94293081Y-75593744D01*
X94097607Y-75701207D01*
X94065402Y-75723258D01*
X94032838Y-75744894D01*
X94028201Y-75748730D01*
X94024304Y-75752000D01*
X92284000Y-75752000D01*
X92259224Y-75754440D01*
X92235399Y-75761667D01*
X92213443Y-75773403D01*
X92194197Y-75789197D01*
X92178403Y-75808443D01*
X92166667Y-75830399D01*
X92159440Y-75854224D01*
X92157000Y-75879000D01*
X92157000Y-78334598D01*
X92067821Y-78423777D01*
X91894218Y-78683594D01*
X91774637Y-78972286D01*
X91713676Y-79278761D01*
X91713676Y-79591239D01*
X91774637Y-79897714D01*
X91894218Y-80186406D01*
X92067821Y-80446223D01*
X92157000Y-80535402D01*
X92157000Y-80714650D01*
X92020357Y-80578007D01*
X91859684Y-80470649D01*
X91681153Y-80396699D01*
X91491626Y-80359000D01*
X91298386Y-80359000D01*
X91108859Y-80396699D01*
X90930328Y-80470649D01*
X90769655Y-80578007D01*
X90633013Y-80714649D01*
X90525655Y-80875322D01*
X90451705Y-81053853D01*
X90414006Y-81243380D01*
X90414006Y-81436620D01*
X90451705Y-81626147D01*
X90525655Y-81804678D01*
X90633013Y-81965351D01*
X90769655Y-82101993D01*
X90930328Y-82209351D01*
X91108859Y-82283301D01*
X91298386Y-82321000D01*
X91491626Y-82321000D01*
X91681153Y-82283301D01*
X91859684Y-82209351D01*
X92020357Y-82101993D01*
X92157000Y-81965350D01*
X92157000Y-83541598D01*
X92067821Y-83630777D01*
X91894218Y-83890594D01*
X91774637Y-84179286D01*
X91713676Y-84485761D01*
X91713676Y-84515000D01*
X85553000Y-84515000D01*
X85553000Y-84076021D01*
X86272989Y-84076021D01*
X86377486Y-84277082D01*
X86618273Y-84403666D01*
X86879129Y-84480844D01*
X87150029Y-84505649D01*
X87420563Y-84477126D01*
X87680334Y-84396373D01*
X87903514Y-84277082D01*
X88008011Y-84076021D01*
X87140500Y-83208510D01*
X86272989Y-84076021D01*
X85553000Y-84076021D01*
X85553000Y-83127529D01*
X85752851Y-83127529D01*
X85781374Y-83398063D01*
X85862127Y-83657834D01*
X85981418Y-83881014D01*
X86182479Y-83985511D01*
X87049990Y-83118000D01*
X87231010Y-83118000D01*
X88098521Y-83985511D01*
X88299582Y-83881014D01*
X88426166Y-83640227D01*
X88503344Y-83379371D01*
X88528149Y-83108471D01*
X88499626Y-82837937D01*
X88418873Y-82578166D01*
X88299582Y-82354986D01*
X88098521Y-82250489D01*
X87231010Y-83118000D01*
X87049990Y-83118000D01*
X86182479Y-82250489D01*
X85981418Y-82354986D01*
X85854834Y-82595773D01*
X85777656Y-82856629D01*
X85752851Y-83127529D01*
X85553000Y-83127529D01*
X85553000Y-82662606D01*
X86055627Y-82159979D01*
X86272989Y-82159979D01*
X87140500Y-83027490D01*
X88008011Y-82159979D01*
X87903514Y-81958918D01*
X87662727Y-81832334D01*
X87401871Y-81755156D01*
X87130971Y-81730351D01*
X86860437Y-81758874D01*
X86600666Y-81839627D01*
X86377486Y-81958918D01*
X86272989Y-82159979D01*
X86055627Y-82159979D01*
X88055803Y-80159803D01*
X88071597Y-80140557D01*
X88083333Y-80118601D01*
X88090560Y-80094776D01*
X88093000Y-80070000D01*
X88093000Y-70722078D01*
X111214000Y-70722078D01*
X111214000Y-70875922D01*
X111244013Y-71026809D01*
X111302887Y-71168942D01*
X111388358Y-71296859D01*
X111497141Y-71405642D01*
X111625058Y-71491113D01*
X111767191Y-71549987D01*
X111918078Y-71580000D01*
X112071922Y-71580000D01*
X112222809Y-71549987D01*
X112364942Y-71491113D01*
X112492859Y-71405642D01*
X112601642Y-71296859D01*
X112687113Y-71168942D01*
X112745987Y-71026809D01*
X112776000Y-70875922D01*
X112776000Y-70722078D01*
X112748551Y-70584078D01*
X113474000Y-70584078D01*
X113474000Y-70737922D01*
X113504013Y-70888809D01*
X113562887Y-71030942D01*
X113648358Y-71158859D01*
X113757141Y-71267642D01*
X113885058Y-71353113D01*
X114027191Y-71411987D01*
X114178078Y-71442000D01*
X114331922Y-71442000D01*
X114482809Y-71411987D01*
X114624942Y-71353113D01*
X114752859Y-71267642D01*
X114861642Y-71158859D01*
X114872906Y-71142000D01*
X115104157Y-71142000D01*
X115104157Y-72742000D01*
X115111513Y-72816689D01*
X115133299Y-72888508D01*
X115168678Y-72954696D01*
X115216289Y-73012711D01*
X115274304Y-73060322D01*
X115340492Y-73095701D01*
X115412311Y-73117487D01*
X115487000Y-73124843D01*
X117087000Y-73124843D01*
X117161689Y-73117487D01*
X117233508Y-73095701D01*
X117299696Y-73060322D01*
X117357711Y-73012711D01*
X117405322Y-72954696D01*
X117440701Y-72888508D01*
X117462487Y-72816689D01*
X117469843Y-72742000D01*
X117469843Y-71142000D01*
X117462487Y-71067311D01*
X117440701Y-70995492D01*
X117405322Y-70929304D01*
X117357711Y-70871289D01*
X117299696Y-70823678D01*
X117233508Y-70788299D01*
X117161689Y-70766513D01*
X117087000Y-70759157D01*
X115487000Y-70759157D01*
X115412311Y-70766513D01*
X115340492Y-70788299D01*
X115274304Y-70823678D01*
X115216289Y-70871289D01*
X115168678Y-70929304D01*
X115133299Y-70995492D01*
X115111513Y-71067311D01*
X115104157Y-71142000D01*
X114872906Y-71142000D01*
X114947113Y-71030942D01*
X115005987Y-70888809D01*
X115036000Y-70737922D01*
X115036000Y-70584078D01*
X115005987Y-70433191D01*
X114947113Y-70291058D01*
X114861642Y-70163141D01*
X114752859Y-70054358D01*
X114624942Y-69968887D01*
X114482809Y-69910013D01*
X114331922Y-69880000D01*
X114178078Y-69880000D01*
X114027191Y-69910013D01*
X113885058Y-69968887D01*
X113757141Y-70054358D01*
X113648358Y-70163141D01*
X113562887Y-70291058D01*
X113504013Y-70433191D01*
X113474000Y-70584078D01*
X112748551Y-70584078D01*
X112745987Y-70571191D01*
X112687113Y-70429058D01*
X112601642Y-70301141D01*
X112492859Y-70192358D01*
X112364942Y-70106887D01*
X112222809Y-70048013D01*
X112071922Y-70018000D01*
X111918078Y-70018000D01*
X111767191Y-70048013D01*
X111625058Y-70106887D01*
X111497141Y-70192358D01*
X111388358Y-70301141D01*
X111302887Y-70429058D01*
X111244013Y-70571191D01*
X111214000Y-70722078D01*
X88093000Y-70722078D01*
X88093000Y-69198078D01*
X89699000Y-69198078D01*
X89699000Y-69351922D01*
X89729013Y-69502809D01*
X89787887Y-69644942D01*
X89873358Y-69772859D01*
X89982141Y-69881642D01*
X90110058Y-69967113D01*
X90252191Y-70025987D01*
X90403078Y-70056000D01*
X90556922Y-70056000D01*
X90707809Y-70025987D01*
X90849942Y-69967113D01*
X90977859Y-69881642D01*
X91086642Y-69772859D01*
X91172113Y-69644942D01*
X91230987Y-69502809D01*
X91241077Y-69452078D01*
X95186000Y-69452078D01*
X95186000Y-69605922D01*
X95216013Y-69756809D01*
X95274887Y-69898942D01*
X95360358Y-70026859D01*
X95469141Y-70135642D01*
X95597058Y-70221113D01*
X95739191Y-70279987D01*
X95890078Y-70310000D01*
X96043922Y-70310000D01*
X96194809Y-70279987D01*
X96336942Y-70221113D01*
X96464859Y-70135642D01*
X96573642Y-70026859D01*
X96659113Y-69898942D01*
X96717987Y-69756809D01*
X96729000Y-69701442D01*
X96740013Y-69756809D01*
X96798887Y-69898942D01*
X96884358Y-70026859D01*
X96993141Y-70135642D01*
X97121058Y-70221113D01*
X97263191Y-70279987D01*
X97414078Y-70310000D01*
X97567922Y-70310000D01*
X97718809Y-70279987D01*
X97860942Y-70221113D01*
X97988859Y-70135642D01*
X98097642Y-70026859D01*
X98183113Y-69898942D01*
X98241987Y-69756809D01*
X98272000Y-69605922D01*
X98272000Y-69452078D01*
X98241987Y-69301191D01*
X98183113Y-69159058D01*
X98097642Y-69031141D01*
X97988859Y-68922358D01*
X97860942Y-68836887D01*
X97718809Y-68778013D01*
X97567922Y-68748000D01*
X97414078Y-68748000D01*
X97263191Y-68778013D01*
X97121058Y-68836887D01*
X96993141Y-68922358D01*
X96884358Y-69031141D01*
X96798887Y-69159058D01*
X96740013Y-69301191D01*
X96729000Y-69356558D01*
X96717987Y-69301191D01*
X96659113Y-69159058D01*
X96573642Y-69031141D01*
X96464859Y-68922358D01*
X96336942Y-68836887D01*
X96194809Y-68778013D01*
X96043922Y-68748000D01*
X95890078Y-68748000D01*
X95739191Y-68778013D01*
X95597058Y-68836887D01*
X95469141Y-68922358D01*
X95360358Y-69031141D01*
X95274887Y-69159058D01*
X95216013Y-69301191D01*
X95186000Y-69452078D01*
X91241077Y-69452078D01*
X91261000Y-69351922D01*
X91261000Y-69198078D01*
X91230987Y-69047191D01*
X91172113Y-68905058D01*
X91086642Y-68777141D01*
X90977859Y-68668358D01*
X90849942Y-68582887D01*
X90707809Y-68524013D01*
X90556922Y-68494000D01*
X90403078Y-68494000D01*
X90252191Y-68524013D01*
X90110058Y-68582887D01*
X89982141Y-68668358D01*
X89873358Y-68777141D01*
X89787887Y-68905058D01*
X89729013Y-69047191D01*
X89699000Y-69198078D01*
X88093000Y-69198078D01*
X88093000Y-67801078D01*
X95186000Y-67801078D01*
X95186000Y-67954922D01*
X95216013Y-68105809D01*
X95274887Y-68247942D01*
X95360358Y-68375859D01*
X95469141Y-68484642D01*
X95597058Y-68570113D01*
X95739191Y-68628987D01*
X95890078Y-68659000D01*
X96043922Y-68659000D01*
X96194809Y-68628987D01*
X96336942Y-68570113D01*
X96464859Y-68484642D01*
X96573642Y-68375859D01*
X96659113Y-68247942D01*
X96717987Y-68105809D01*
X96729000Y-68050442D01*
X96740013Y-68105809D01*
X96798887Y-68247942D01*
X96884358Y-68375859D01*
X96993141Y-68484642D01*
X97121058Y-68570113D01*
X97263191Y-68628987D01*
X97414078Y-68659000D01*
X97567922Y-68659000D01*
X97718809Y-68628987D01*
X97860942Y-68570113D01*
X97988859Y-68484642D01*
X98097642Y-68375859D01*
X98183113Y-68247942D01*
X98241987Y-68105809D01*
X98272000Y-67954922D01*
X98272000Y-67801078D01*
X98241987Y-67650191D01*
X98183113Y-67508058D01*
X98097642Y-67380141D01*
X97988859Y-67271358D01*
X97860942Y-67185887D01*
X97718809Y-67127013D01*
X97567922Y-67097000D01*
X97414078Y-67097000D01*
X97263191Y-67127013D01*
X97121058Y-67185887D01*
X96993141Y-67271358D01*
X96884358Y-67380141D01*
X96798887Y-67508058D01*
X96740013Y-67650191D01*
X96729000Y-67705558D01*
X96717987Y-67650191D01*
X96659113Y-67508058D01*
X96573642Y-67380141D01*
X96464859Y-67271358D01*
X96336942Y-67185887D01*
X96194809Y-67127013D01*
X96043922Y-67097000D01*
X95890078Y-67097000D01*
X95739191Y-67127013D01*
X95597058Y-67185887D01*
X95469141Y-67271358D01*
X95360358Y-67380141D01*
X95274887Y-67508058D01*
X95216013Y-67650191D01*
X95186000Y-67801078D01*
X88093000Y-67801078D01*
X88093000Y-66931000D01*
X125177000Y-66931000D01*
X125177000Y-67281499D01*
%TA.AperFunction,Conductor*%
D23*
G36*
X125177000Y-67281499D02*
G01*
X125166859Y-67271358D01*
X125038942Y-67185887D01*
X124896809Y-67127013D01*
X124745922Y-67097000D01*
X124592078Y-67097000D01*
X124441191Y-67127013D01*
X124299058Y-67185887D01*
X124171141Y-67271358D01*
X124062358Y-67380141D01*
X123976887Y-67508058D01*
X123918013Y-67650191D01*
X123907000Y-67705558D01*
X123895987Y-67650191D01*
X123837113Y-67508058D01*
X123751642Y-67380141D01*
X123642859Y-67271358D01*
X123514942Y-67185887D01*
X123372809Y-67127013D01*
X123221922Y-67097000D01*
X123068078Y-67097000D01*
X122917191Y-67127013D01*
X122775058Y-67185887D01*
X122647141Y-67271358D01*
X122538358Y-67380141D01*
X122452887Y-67508058D01*
X122394013Y-67650191D01*
X122364000Y-67801078D01*
X122364000Y-67954922D01*
X122394013Y-68105809D01*
X122452887Y-68247942D01*
X122538358Y-68375859D01*
X122647141Y-68484642D01*
X122775058Y-68570113D01*
X122917191Y-68628987D01*
X123068078Y-68659000D01*
X123221922Y-68659000D01*
X123372809Y-68628987D01*
X123514942Y-68570113D01*
X123642859Y-68484642D01*
X123751642Y-68375859D01*
X123837113Y-68247942D01*
X123895987Y-68105809D01*
X123907000Y-68050442D01*
X123918013Y-68105809D01*
X123976887Y-68247942D01*
X124062358Y-68375859D01*
X124171141Y-68484642D01*
X124299058Y-68570113D01*
X124441191Y-68628987D01*
X124592078Y-68659000D01*
X124745922Y-68659000D01*
X124896809Y-68628987D01*
X125038942Y-68570113D01*
X125166859Y-68484642D01*
X125177000Y-68474501D01*
X125177000Y-68561289D01*
X125136693Y-68637096D01*
X125121817Y-68673188D01*
X125106419Y-68709114D01*
X125104640Y-68714863D01*
X125062954Y-68852931D01*
X125038942Y-68836887D01*
X124896809Y-68778013D01*
X124745922Y-68748000D01*
X124592078Y-68748000D01*
X124441191Y-68778013D01*
X124299058Y-68836887D01*
X124171141Y-68922358D01*
X124062358Y-69031141D01*
X123976887Y-69159058D01*
X123918013Y-69301191D01*
X123907000Y-69356558D01*
X123895987Y-69301191D01*
X123837113Y-69159058D01*
X123751642Y-69031141D01*
X123642859Y-68922358D01*
X123514942Y-68836887D01*
X123372809Y-68778013D01*
X123221922Y-68748000D01*
X123068078Y-68748000D01*
X122917191Y-68778013D01*
X122775058Y-68836887D01*
X122647141Y-68922358D01*
X122538358Y-69031141D01*
X122452887Y-69159058D01*
X122394013Y-69301191D01*
X122364000Y-69452078D01*
X122364000Y-69605922D01*
X122394013Y-69756809D01*
X122452887Y-69898942D01*
X122538358Y-70026859D01*
X122647141Y-70135642D01*
X122775058Y-70221113D01*
X122917191Y-70279987D01*
X123068078Y-70310000D01*
X123221922Y-70310000D01*
X123372809Y-70279987D01*
X123514942Y-70221113D01*
X123642859Y-70135642D01*
X123751642Y-70026859D01*
X123837113Y-69898942D01*
X123895987Y-69756809D01*
X123907000Y-69701442D01*
X123918013Y-69756809D01*
X123976887Y-69898942D01*
X124062358Y-70026859D01*
X124171141Y-70135642D01*
X124299058Y-70221113D01*
X124441191Y-70279987D01*
X124592078Y-70310000D01*
X124745922Y-70310000D01*
X124896809Y-70279987D01*
X125000001Y-70237243D01*
X125000000Y-71494636D01*
X124953588Y-71382587D01*
X124824342Y-71189157D01*
X124659843Y-71024658D01*
X124466413Y-70895412D01*
X124251485Y-70806386D01*
X124023318Y-70761000D01*
X123790682Y-70761000D01*
X123562515Y-70806386D01*
X123347587Y-70895412D01*
X123154157Y-71024658D01*
X122989658Y-71189157D01*
X122860412Y-71382587D01*
X122771386Y-71597515D01*
X122726000Y-71825682D01*
X122726000Y-72058318D01*
X122771386Y-72286485D01*
X122860412Y-72501413D01*
X122989658Y-72694843D01*
X123154157Y-72859342D01*
X123347587Y-72988588D01*
X123562515Y-73077614D01*
X123790682Y-73123000D01*
X124023318Y-73123000D01*
X124251485Y-73077614D01*
X124466413Y-72988588D01*
X124659843Y-72859342D01*
X124824342Y-72694843D01*
X124953588Y-72501413D01*
X125000000Y-72389364D01*
X125000000Y-72471167D01*
X125002168Y-72493178D01*
X125002168Y-72508017D01*
X125002797Y-72514002D01*
X125027663Y-72735686D01*
X125035784Y-72773890D01*
X125043372Y-72812215D01*
X125045152Y-72817964D01*
X125112603Y-73030597D01*
X125127989Y-73066495D01*
X125142878Y-73102619D01*
X125145735Y-73107903D01*
X125145739Y-73107912D01*
X125145744Y-73107919D01*
X125177000Y-73164774D01*
X125177000Y-75536899D01*
X125015584Y-75488164D01*
X124977298Y-75480583D01*
X124939053Y-75472454D01*
X124933070Y-75471825D01*
X124933068Y-75471825D01*
X124711058Y-75450057D01*
X124711052Y-75450057D01*
X124690168Y-75448000D01*
X124587021Y-75448000D01*
X124659843Y-75399342D01*
X124824342Y-75234843D01*
X124953588Y-75041413D01*
X125042614Y-74826485D01*
X125088000Y-74598318D01*
X125088000Y-74365682D01*
X125042614Y-74137515D01*
X124953588Y-73922587D01*
X124824342Y-73729157D01*
X124659843Y-73564658D01*
X124466413Y-73435412D01*
X124251485Y-73346386D01*
X124023318Y-73301000D01*
X123790682Y-73301000D01*
X123562515Y-73346386D01*
X123347587Y-73435412D01*
X123154157Y-73564658D01*
X122989658Y-73729157D01*
X122860412Y-73922587D01*
X122771386Y-74137515D01*
X122726000Y-74365682D01*
X122726000Y-74598318D01*
X122771386Y-74826485D01*
X122860412Y-75041413D01*
X122989658Y-75234843D01*
X123154157Y-75399342D01*
X123226979Y-75448000D01*
X123123832Y-75448000D01*
X123101821Y-75450168D01*
X123086983Y-75450168D01*
X123080997Y-75450797D01*
X122859314Y-75475663D01*
X122821110Y-75483784D01*
X122782785Y-75491372D01*
X122777038Y-75493151D01*
X122777032Y-75493153D01*
X122564403Y-75560603D01*
X122528493Y-75575994D01*
X122492381Y-75590878D01*
X122487097Y-75593735D01*
X122487088Y-75593739D01*
X122487081Y-75593744D01*
X122291607Y-75701207D01*
X122259402Y-75723258D01*
X122226838Y-75744894D01*
X122222201Y-75748730D01*
X122218304Y-75752000D01*
X117973586Y-75752000D01*
X117953932Y-75735971D01*
X117921433Y-75714378D01*
X117889162Y-75692282D01*
X117883868Y-75689420D01*
X117686904Y-75584693D01*
X117650812Y-75569817D01*
X117614886Y-75554419D01*
X117609137Y-75552640D01*
X117609139Y-75552640D01*
X117609131Y-75552638D01*
X117395584Y-75488164D01*
X117357298Y-75480583D01*
X117319053Y-75472454D01*
X117313070Y-75471825D01*
X117313068Y-75471825D01*
X117091058Y-75450057D01*
X117091052Y-75450057D01*
X117070168Y-75448000D01*
X116967021Y-75448000D01*
X117039843Y-75399342D01*
X117204342Y-75234843D01*
X117333588Y-75041413D01*
X117422614Y-74826485D01*
X117468000Y-74598318D01*
X117468000Y-74365682D01*
X117422614Y-74137515D01*
X117333588Y-73922587D01*
X117204342Y-73729157D01*
X117039843Y-73564658D01*
X116846413Y-73435412D01*
X116631485Y-73346386D01*
X116403318Y-73301000D01*
X116170682Y-73301000D01*
X115942515Y-73346386D01*
X115727587Y-73435412D01*
X115534157Y-73564658D01*
X115369658Y-73729157D01*
X115240412Y-73922587D01*
X115151386Y-74137515D01*
X115106000Y-74365682D01*
X115106000Y-74598318D01*
X115151386Y-74826485D01*
X115240412Y-75041413D01*
X115369658Y-75234843D01*
X115534157Y-75399342D01*
X115606979Y-75448000D01*
X115503832Y-75448000D01*
X115481821Y-75450168D01*
X115466983Y-75450168D01*
X115460997Y-75450797D01*
X115239314Y-75475663D01*
X115201110Y-75483784D01*
X115162785Y-75491372D01*
X115157038Y-75493151D01*
X115157032Y-75493153D01*
X114944403Y-75560603D01*
X114908493Y-75575994D01*
X114872381Y-75590878D01*
X114867097Y-75593735D01*
X114867088Y-75593739D01*
X114867081Y-75593744D01*
X114671607Y-75701207D01*
X114639402Y-75723258D01*
X114606838Y-75744894D01*
X114602201Y-75748730D01*
X114598304Y-75752000D01*
X105019586Y-75752000D01*
X104999932Y-75735971D01*
X104967433Y-75714378D01*
X104935162Y-75692282D01*
X104929868Y-75689420D01*
X104732904Y-75584693D01*
X104696812Y-75569817D01*
X104660886Y-75554419D01*
X104655137Y-75552640D01*
X104655139Y-75552640D01*
X104655131Y-75552638D01*
X104441584Y-75488164D01*
X104403298Y-75480583D01*
X104365053Y-75472454D01*
X104359070Y-75471825D01*
X104359068Y-75471825D01*
X104137058Y-75450057D01*
X104137052Y-75450057D01*
X104116168Y-75448000D01*
X104013021Y-75448000D01*
X104085843Y-75399342D01*
X104250342Y-75234843D01*
X104379588Y-75041413D01*
X104468614Y-74826485D01*
X104514000Y-74598318D01*
X104514000Y-74365682D01*
X104468614Y-74137515D01*
X104379588Y-73922587D01*
X104339773Y-73862999D01*
X107868742Y-73862999D01*
X108743505Y-74737763D01*
X108760132Y-74758023D01*
X108780392Y-74774650D01*
X108840986Y-74824379D01*
X108933234Y-74873686D01*
X109033328Y-74904050D01*
X109111338Y-74911733D01*
X109111348Y-74911733D01*
X109137422Y-74914301D01*
X109163496Y-74911733D01*
X111224899Y-74911733D01*
X111250973Y-74914301D01*
X111277047Y-74911733D01*
X111277057Y-74911733D01*
X111355067Y-74904050D01*
X111455161Y-74873686D01*
X111547408Y-74824379D01*
X111580901Y-74796892D01*
X111692736Y-74796892D01*
X111843623Y-74766879D01*
X111985756Y-74708005D01*
X112113673Y-74622534D01*
X112222456Y-74513751D01*
X112307927Y-74385834D01*
X112316938Y-74364078D01*
X113052000Y-74364078D01*
X113052000Y-74517922D01*
X113082013Y-74668809D01*
X113140887Y-74810942D01*
X113226358Y-74938859D01*
X113335141Y-75047642D01*
X113463058Y-75133113D01*
X113605191Y-75191987D01*
X113756078Y-75222000D01*
X113909922Y-75222000D01*
X114060809Y-75191987D01*
X114202942Y-75133113D01*
X114330859Y-75047642D01*
X114439642Y-74938859D01*
X114525113Y-74810942D01*
X114583987Y-74668809D01*
X114614000Y-74517922D01*
X114614000Y-74364078D01*
X114583987Y-74213191D01*
X114525113Y-74071058D01*
X114439642Y-73943141D01*
X114330859Y-73834358D01*
X114202942Y-73748887D01*
X114060809Y-73690013D01*
X113909922Y-73660000D01*
X113756078Y-73660000D01*
X113605191Y-73690013D01*
X113463058Y-73748887D01*
X113335141Y-73834358D01*
X113226358Y-73943141D01*
X113140887Y-74071058D01*
X113082013Y-74213191D01*
X113052000Y-74364078D01*
X112316938Y-74364078D01*
X112366801Y-74243701D01*
X112396814Y-74092814D01*
X112396814Y-73938970D01*
X112366801Y-73788083D01*
X112307927Y-73645950D01*
X112222456Y-73518033D01*
X112170547Y-73466124D01*
X112222528Y-73414143D01*
X112307999Y-73286226D01*
X112366873Y-73144093D01*
X112396886Y-72993206D01*
X112396886Y-72839362D01*
X112366873Y-72688475D01*
X112307999Y-72546342D01*
X112222528Y-72418425D01*
X112113745Y-72309642D01*
X111985828Y-72224171D01*
X111843695Y-72165297D01*
X111692808Y-72135284D01*
X111538964Y-72135284D01*
X111388077Y-72165297D01*
X111245944Y-72224171D01*
X111118027Y-72309642D01*
X111009244Y-72418425D01*
X110923773Y-72546342D01*
X110864899Y-72688475D01*
X110834886Y-72839362D01*
X110834886Y-72993206D01*
X110864899Y-73144093D01*
X110923773Y-73286226D01*
X111009244Y-73414143D01*
X111061153Y-73466052D01*
X111009172Y-73518033D01*
X110923701Y-73645950D01*
X110864827Y-73788083D01*
X110852564Y-73849733D01*
X110250162Y-73849733D01*
X110278423Y-73707654D01*
X110278423Y-73553810D01*
X110248410Y-73402923D01*
X110189536Y-73260790D01*
X110104065Y-73132873D01*
X109995282Y-73024090D01*
X109867365Y-72938619D01*
X109725232Y-72879745D01*
X109574345Y-72849732D01*
X109420501Y-72849732D01*
X109269614Y-72879745D01*
X109127481Y-72938619D01*
X108999564Y-73024090D01*
X108890781Y-73132873D01*
X108805310Y-73260790D01*
X108794507Y-73286871D01*
X108482609Y-72974974D01*
X108465978Y-72954709D01*
X108385123Y-72888353D01*
X108292876Y-72839046D01*
X108192782Y-72808682D01*
X108114772Y-72800999D01*
X108114762Y-72800999D01*
X108088688Y-72798431D01*
X108062614Y-72800999D01*
X104144186Y-72800999D01*
X104250342Y-72694843D01*
X104379588Y-72501413D01*
X104468614Y-72286485D01*
X104514000Y-72058318D01*
X104514000Y-71825682D01*
X104471312Y-71611078D01*
X106615992Y-71611078D01*
X106615992Y-71764922D01*
X106646005Y-71915809D01*
X106704879Y-72057942D01*
X106790350Y-72185859D01*
X106899133Y-72294642D01*
X107027050Y-72380113D01*
X107169183Y-72438987D01*
X107320070Y-72469000D01*
X107473914Y-72469000D01*
X107624801Y-72438987D01*
X107766934Y-72380113D01*
X107894851Y-72294642D01*
X108003634Y-72185859D01*
X108089105Y-72057942D01*
X108147979Y-71915809D01*
X108177992Y-71764922D01*
X108177992Y-71611078D01*
X108147979Y-71460191D01*
X108089105Y-71318058D01*
X108003634Y-71190141D01*
X107894851Y-71081358D01*
X107766934Y-70995887D01*
X107624801Y-70937013D01*
X107473914Y-70907000D01*
X107320070Y-70907000D01*
X107169183Y-70937013D01*
X107027050Y-70995887D01*
X106899133Y-71081358D01*
X106790350Y-71190141D01*
X106704879Y-71318058D01*
X106646005Y-71460191D01*
X106615992Y-71611078D01*
X104471312Y-71611078D01*
X104468614Y-71597515D01*
X104379588Y-71382587D01*
X104250342Y-71189157D01*
X104085843Y-71024658D01*
X103892413Y-70895412D01*
X103677485Y-70806386D01*
X103449318Y-70761000D01*
X103216682Y-70761000D01*
X102988515Y-70806386D01*
X102773587Y-70895412D01*
X102580157Y-71024658D01*
X102415658Y-71189157D01*
X102286412Y-71382587D01*
X102197386Y-71597515D01*
X102152000Y-71825682D01*
X102152000Y-72058318D01*
X102197386Y-72286485D01*
X102286412Y-72501413D01*
X102415658Y-72694843D01*
X102521814Y-72800999D01*
X96890032Y-72800999D01*
X96895843Y-72742000D01*
X96895843Y-71142000D01*
X96888487Y-71067311D01*
X96866701Y-70995492D01*
X96831322Y-70929304D01*
X96783711Y-70871289D01*
X96725696Y-70823678D01*
X96659508Y-70788299D01*
X96587689Y-70766513D01*
X96513000Y-70759157D01*
X94913000Y-70759157D01*
X94838311Y-70766513D01*
X94766492Y-70788299D01*
X94700304Y-70823678D01*
X94642289Y-70871289D01*
X94594678Y-70929304D01*
X94559299Y-70995492D01*
X94537513Y-71067311D01*
X94530157Y-71142000D01*
X94530157Y-72742000D01*
X94535968Y-72800999D01*
X92063074Y-72800999D01*
X92037000Y-72798431D01*
X92010926Y-72800999D01*
X92010917Y-72800999D01*
X91932907Y-72808682D01*
X91832813Y-72839046D01*
X91772697Y-72871178D01*
X91740565Y-72888353D01*
X91684276Y-72934549D01*
X91659711Y-72954709D01*
X91643084Y-72974969D01*
X90663054Y-73955000D01*
X90556078Y-73955000D01*
X90405191Y-73985013D01*
X90263058Y-74043887D01*
X90135141Y-74129358D01*
X90026358Y-74238141D01*
X89940887Y-74366058D01*
X89882013Y-74508191D01*
X89852000Y-74659078D01*
X89852000Y-74812922D01*
X89882013Y-74963809D01*
X89940887Y-75105942D01*
X90026358Y-75233859D01*
X90135141Y-75342642D01*
X90263058Y-75428113D01*
X90405191Y-75486987D01*
X90556078Y-75517000D01*
X90709922Y-75517000D01*
X90860809Y-75486987D01*
X91002942Y-75428113D01*
X91130859Y-75342642D01*
X91239642Y-75233859D01*
X91268000Y-75191418D01*
X91296358Y-75233859D01*
X91405141Y-75342642D01*
X91533058Y-75428113D01*
X91675191Y-75486987D01*
X91826078Y-75517000D01*
X91979922Y-75517000D01*
X92130809Y-75486987D01*
X92272942Y-75428113D01*
X92400859Y-75342642D01*
X92509642Y-75233859D01*
X92595113Y-75105942D01*
X92653987Y-74963809D01*
X92684000Y-74812922D01*
X92684000Y-74659078D01*
X92653987Y-74508191D01*
X92595113Y-74366058D01*
X92509642Y-74238141D01*
X92400859Y-74129358D01*
X92272942Y-74043887D01*
X92133726Y-73986221D01*
X92256948Y-73862999D01*
X94706227Y-73862999D01*
X94666412Y-73922587D01*
X94577386Y-74137515D01*
X94532000Y-74365682D01*
X94532000Y-74598318D01*
X94577386Y-74826485D01*
X94666412Y-75041413D01*
X94795658Y-75234843D01*
X94960157Y-75399342D01*
X95032979Y-75448000D01*
X94929832Y-75448000D01*
X94907821Y-75450168D01*
X94892983Y-75450168D01*
X94886997Y-75450797D01*
X94665314Y-75475663D01*
X94627110Y-75483784D01*
X94588785Y-75491372D01*
X94583038Y-75493151D01*
X94583032Y-75493153D01*
X94370403Y-75560603D01*
X94334493Y-75575994D01*
X94298381Y-75590878D01*
X94293097Y-75593735D01*
X94293088Y-75593739D01*
X94293081Y-75593744D01*
X94097607Y-75701207D01*
X94065402Y-75723258D01*
X94032838Y-75744894D01*
X94028201Y-75748730D01*
X94024304Y-75752000D01*
X92284000Y-75752000D01*
X92259224Y-75754440D01*
X92235399Y-75761667D01*
X92213443Y-75773403D01*
X92194197Y-75789197D01*
X92178403Y-75808443D01*
X92166667Y-75830399D01*
X92159440Y-75854224D01*
X92157000Y-75879000D01*
X92157000Y-78334598D01*
X92067821Y-78423777D01*
X91894218Y-78683594D01*
X91774637Y-78972286D01*
X91713676Y-79278761D01*
X91713676Y-79591239D01*
X91774637Y-79897714D01*
X91894218Y-80186406D01*
X92067821Y-80446223D01*
X92157000Y-80535402D01*
X92157000Y-80714650D01*
X92020357Y-80578007D01*
X91859684Y-80470649D01*
X91681153Y-80396699D01*
X91491626Y-80359000D01*
X91298386Y-80359000D01*
X91108859Y-80396699D01*
X90930328Y-80470649D01*
X90769655Y-80578007D01*
X90633013Y-80714649D01*
X90525655Y-80875322D01*
X90451705Y-81053853D01*
X90414006Y-81243380D01*
X90414006Y-81436620D01*
X90451705Y-81626147D01*
X90525655Y-81804678D01*
X90633013Y-81965351D01*
X90769655Y-82101993D01*
X90930328Y-82209351D01*
X91108859Y-82283301D01*
X91298386Y-82321000D01*
X91491626Y-82321000D01*
X91681153Y-82283301D01*
X91859684Y-82209351D01*
X92020357Y-82101993D01*
X92157000Y-81965350D01*
X92157000Y-83541598D01*
X92067821Y-83630777D01*
X91894218Y-83890594D01*
X91774637Y-84179286D01*
X91713676Y-84485761D01*
X91713676Y-84515000D01*
X85553000Y-84515000D01*
X85553000Y-84076021D01*
X86272989Y-84076021D01*
X86377486Y-84277082D01*
X86618273Y-84403666D01*
X86879129Y-84480844D01*
X87150029Y-84505649D01*
X87420563Y-84477126D01*
X87680334Y-84396373D01*
X87903514Y-84277082D01*
X88008011Y-84076021D01*
X87140500Y-83208510D01*
X86272989Y-84076021D01*
X85553000Y-84076021D01*
X85553000Y-83127529D01*
X85752851Y-83127529D01*
X85781374Y-83398063D01*
X85862127Y-83657834D01*
X85981418Y-83881014D01*
X86182479Y-83985511D01*
X87049990Y-83118000D01*
X87231010Y-83118000D01*
X88098521Y-83985511D01*
X88299582Y-83881014D01*
X88426166Y-83640227D01*
X88503344Y-83379371D01*
X88528149Y-83108471D01*
X88499626Y-82837937D01*
X88418873Y-82578166D01*
X88299582Y-82354986D01*
X88098521Y-82250489D01*
X87231010Y-83118000D01*
X87049990Y-83118000D01*
X86182479Y-82250489D01*
X85981418Y-82354986D01*
X85854834Y-82595773D01*
X85777656Y-82856629D01*
X85752851Y-83127529D01*
X85553000Y-83127529D01*
X85553000Y-82662606D01*
X86055627Y-82159979D01*
X86272989Y-82159979D01*
X87140500Y-83027490D01*
X88008011Y-82159979D01*
X87903514Y-81958918D01*
X87662727Y-81832334D01*
X87401871Y-81755156D01*
X87130971Y-81730351D01*
X86860437Y-81758874D01*
X86600666Y-81839627D01*
X86377486Y-81958918D01*
X86272989Y-82159979D01*
X86055627Y-82159979D01*
X88055803Y-80159803D01*
X88071597Y-80140557D01*
X88083333Y-80118601D01*
X88090560Y-80094776D01*
X88093000Y-80070000D01*
X88093000Y-70722078D01*
X111214000Y-70722078D01*
X111214000Y-70875922D01*
X111244013Y-71026809D01*
X111302887Y-71168942D01*
X111388358Y-71296859D01*
X111497141Y-71405642D01*
X111625058Y-71491113D01*
X111767191Y-71549987D01*
X111918078Y-71580000D01*
X112071922Y-71580000D01*
X112222809Y-71549987D01*
X112364942Y-71491113D01*
X112492859Y-71405642D01*
X112601642Y-71296859D01*
X112687113Y-71168942D01*
X112745987Y-71026809D01*
X112776000Y-70875922D01*
X112776000Y-70722078D01*
X112748551Y-70584078D01*
X113474000Y-70584078D01*
X113474000Y-70737922D01*
X113504013Y-70888809D01*
X113562887Y-71030942D01*
X113648358Y-71158859D01*
X113757141Y-71267642D01*
X113885058Y-71353113D01*
X114027191Y-71411987D01*
X114178078Y-71442000D01*
X114331922Y-71442000D01*
X114482809Y-71411987D01*
X114624942Y-71353113D01*
X114752859Y-71267642D01*
X114861642Y-71158859D01*
X114872906Y-71142000D01*
X115104157Y-71142000D01*
X115104157Y-72742000D01*
X115111513Y-72816689D01*
X115133299Y-72888508D01*
X115168678Y-72954696D01*
X115216289Y-73012711D01*
X115274304Y-73060322D01*
X115340492Y-73095701D01*
X115412311Y-73117487D01*
X115487000Y-73124843D01*
X117087000Y-73124843D01*
X117161689Y-73117487D01*
X117233508Y-73095701D01*
X117299696Y-73060322D01*
X117357711Y-73012711D01*
X117405322Y-72954696D01*
X117440701Y-72888508D01*
X117462487Y-72816689D01*
X117469843Y-72742000D01*
X117469843Y-71142000D01*
X117462487Y-71067311D01*
X117440701Y-70995492D01*
X117405322Y-70929304D01*
X117357711Y-70871289D01*
X117299696Y-70823678D01*
X117233508Y-70788299D01*
X117161689Y-70766513D01*
X117087000Y-70759157D01*
X115487000Y-70759157D01*
X115412311Y-70766513D01*
X115340492Y-70788299D01*
X115274304Y-70823678D01*
X115216289Y-70871289D01*
X115168678Y-70929304D01*
X115133299Y-70995492D01*
X115111513Y-71067311D01*
X115104157Y-71142000D01*
X114872906Y-71142000D01*
X114947113Y-71030942D01*
X115005987Y-70888809D01*
X115036000Y-70737922D01*
X115036000Y-70584078D01*
X115005987Y-70433191D01*
X114947113Y-70291058D01*
X114861642Y-70163141D01*
X114752859Y-70054358D01*
X114624942Y-69968887D01*
X114482809Y-69910013D01*
X114331922Y-69880000D01*
X114178078Y-69880000D01*
X114027191Y-69910013D01*
X113885058Y-69968887D01*
X113757141Y-70054358D01*
X113648358Y-70163141D01*
X113562887Y-70291058D01*
X113504013Y-70433191D01*
X113474000Y-70584078D01*
X112748551Y-70584078D01*
X112745987Y-70571191D01*
X112687113Y-70429058D01*
X112601642Y-70301141D01*
X112492859Y-70192358D01*
X112364942Y-70106887D01*
X112222809Y-70048013D01*
X112071922Y-70018000D01*
X111918078Y-70018000D01*
X111767191Y-70048013D01*
X111625058Y-70106887D01*
X111497141Y-70192358D01*
X111388358Y-70301141D01*
X111302887Y-70429058D01*
X111244013Y-70571191D01*
X111214000Y-70722078D01*
X88093000Y-70722078D01*
X88093000Y-69198078D01*
X89699000Y-69198078D01*
X89699000Y-69351922D01*
X89729013Y-69502809D01*
X89787887Y-69644942D01*
X89873358Y-69772859D01*
X89982141Y-69881642D01*
X90110058Y-69967113D01*
X90252191Y-70025987D01*
X90403078Y-70056000D01*
X90556922Y-70056000D01*
X90707809Y-70025987D01*
X90849942Y-69967113D01*
X90977859Y-69881642D01*
X91086642Y-69772859D01*
X91172113Y-69644942D01*
X91230987Y-69502809D01*
X91241077Y-69452078D01*
X95186000Y-69452078D01*
X95186000Y-69605922D01*
X95216013Y-69756809D01*
X95274887Y-69898942D01*
X95360358Y-70026859D01*
X95469141Y-70135642D01*
X95597058Y-70221113D01*
X95739191Y-70279987D01*
X95890078Y-70310000D01*
X96043922Y-70310000D01*
X96194809Y-70279987D01*
X96336942Y-70221113D01*
X96464859Y-70135642D01*
X96573642Y-70026859D01*
X96659113Y-69898942D01*
X96717987Y-69756809D01*
X96729000Y-69701442D01*
X96740013Y-69756809D01*
X96798887Y-69898942D01*
X96884358Y-70026859D01*
X96993141Y-70135642D01*
X97121058Y-70221113D01*
X97263191Y-70279987D01*
X97414078Y-70310000D01*
X97567922Y-70310000D01*
X97718809Y-70279987D01*
X97860942Y-70221113D01*
X97988859Y-70135642D01*
X98097642Y-70026859D01*
X98183113Y-69898942D01*
X98241987Y-69756809D01*
X98272000Y-69605922D01*
X98272000Y-69452078D01*
X98241987Y-69301191D01*
X98183113Y-69159058D01*
X98097642Y-69031141D01*
X97988859Y-68922358D01*
X97860942Y-68836887D01*
X97718809Y-68778013D01*
X97567922Y-68748000D01*
X97414078Y-68748000D01*
X97263191Y-68778013D01*
X97121058Y-68836887D01*
X96993141Y-68922358D01*
X96884358Y-69031141D01*
X96798887Y-69159058D01*
X96740013Y-69301191D01*
X96729000Y-69356558D01*
X96717987Y-69301191D01*
X96659113Y-69159058D01*
X96573642Y-69031141D01*
X96464859Y-68922358D01*
X96336942Y-68836887D01*
X96194809Y-68778013D01*
X96043922Y-68748000D01*
X95890078Y-68748000D01*
X95739191Y-68778013D01*
X95597058Y-68836887D01*
X95469141Y-68922358D01*
X95360358Y-69031141D01*
X95274887Y-69159058D01*
X95216013Y-69301191D01*
X95186000Y-69452078D01*
X91241077Y-69452078D01*
X91261000Y-69351922D01*
X91261000Y-69198078D01*
X91230987Y-69047191D01*
X91172113Y-68905058D01*
X91086642Y-68777141D01*
X90977859Y-68668358D01*
X90849942Y-68582887D01*
X90707809Y-68524013D01*
X90556922Y-68494000D01*
X90403078Y-68494000D01*
X90252191Y-68524013D01*
X90110058Y-68582887D01*
X89982141Y-68668358D01*
X89873358Y-68777141D01*
X89787887Y-68905058D01*
X89729013Y-69047191D01*
X89699000Y-69198078D01*
X88093000Y-69198078D01*
X88093000Y-67801078D01*
X95186000Y-67801078D01*
X95186000Y-67954922D01*
X95216013Y-68105809D01*
X95274887Y-68247942D01*
X95360358Y-68375859D01*
X95469141Y-68484642D01*
X95597058Y-68570113D01*
X95739191Y-68628987D01*
X95890078Y-68659000D01*
X96043922Y-68659000D01*
X96194809Y-68628987D01*
X96336942Y-68570113D01*
X96464859Y-68484642D01*
X96573642Y-68375859D01*
X96659113Y-68247942D01*
X96717987Y-68105809D01*
X96729000Y-68050442D01*
X96740013Y-68105809D01*
X96798887Y-68247942D01*
X96884358Y-68375859D01*
X96993141Y-68484642D01*
X97121058Y-68570113D01*
X97263191Y-68628987D01*
X97414078Y-68659000D01*
X97567922Y-68659000D01*
X97718809Y-68628987D01*
X97860942Y-68570113D01*
X97988859Y-68484642D01*
X98097642Y-68375859D01*
X98183113Y-68247942D01*
X98241987Y-68105809D01*
X98272000Y-67954922D01*
X98272000Y-67801078D01*
X98241987Y-67650191D01*
X98183113Y-67508058D01*
X98097642Y-67380141D01*
X97988859Y-67271358D01*
X97860942Y-67185887D01*
X97718809Y-67127013D01*
X97567922Y-67097000D01*
X97414078Y-67097000D01*
X97263191Y-67127013D01*
X97121058Y-67185887D01*
X96993141Y-67271358D01*
X96884358Y-67380141D01*
X96798887Y-67508058D01*
X96740013Y-67650191D01*
X96729000Y-67705558D01*
X96717987Y-67650191D01*
X96659113Y-67508058D01*
X96573642Y-67380141D01*
X96464859Y-67271358D01*
X96336942Y-67185887D01*
X96194809Y-67127013D01*
X96043922Y-67097000D01*
X95890078Y-67097000D01*
X95739191Y-67127013D01*
X95597058Y-67185887D01*
X95469141Y-67271358D01*
X95360358Y-67380141D01*
X95274887Y-67508058D01*
X95216013Y-67650191D01*
X95186000Y-67801078D01*
X88093000Y-67801078D01*
X88093000Y-66931000D01*
X125177000Y-66931000D01*
X125177000Y-67281499D01*
G37*
%TD.AperFunction*%
%TD*%
D22*
%TO.N,GND2*%
X125177000Y-67281499D02*
X125166859Y-67271358D01*
X125038942Y-67185887D01*
X124896809Y-67127013D01*
X124745922Y-67097000D01*
X124592078Y-67097000D01*
X124441191Y-67127013D01*
X124299058Y-67185887D01*
X124171141Y-67271358D01*
X124062358Y-67380141D01*
X123976887Y-67508058D01*
X123918013Y-67650191D01*
X123907000Y-67705558D01*
X123895987Y-67650191D01*
X123837113Y-67508058D01*
X123751642Y-67380141D01*
X123642859Y-67271358D01*
X123514942Y-67185887D01*
X123372809Y-67127013D01*
X123221922Y-67097000D01*
X123068078Y-67097000D01*
X122917191Y-67127013D01*
X122775058Y-67185887D01*
X122647141Y-67271358D01*
X122538358Y-67380141D01*
X122452887Y-67508058D01*
X122394013Y-67650191D01*
X122364000Y-67801078D01*
X122364000Y-67954922D01*
X122394013Y-68105809D01*
X122452887Y-68247942D01*
X122538358Y-68375859D01*
X122647141Y-68484642D01*
X122775058Y-68570113D01*
X122917191Y-68628987D01*
X123068078Y-68659000D01*
X123221922Y-68659000D01*
X123372809Y-68628987D01*
X123514942Y-68570113D01*
X123642859Y-68484642D01*
X123751642Y-68375859D01*
X123837113Y-68247942D01*
X123895987Y-68105809D01*
X123907000Y-68050442D01*
X123918013Y-68105809D01*
X123976887Y-68247942D01*
X124062358Y-68375859D01*
X124171141Y-68484642D01*
X124299058Y-68570113D01*
X124441191Y-68628987D01*
X124592078Y-68659000D01*
X124745922Y-68659000D01*
X124896809Y-68628987D01*
X125038942Y-68570113D01*
X125166859Y-68484642D01*
X125177000Y-68474501D01*
X125177000Y-68561289D01*
X125136693Y-68637096D01*
X125121817Y-68673188D01*
X125106419Y-68709114D01*
X125104640Y-68714863D01*
X125062954Y-68852931D01*
X125038942Y-68836887D01*
X124896809Y-68778013D01*
X124745922Y-68748000D01*
X124592078Y-68748000D01*
X124441191Y-68778013D01*
X124299058Y-68836887D01*
X124171141Y-68922358D01*
X124062358Y-69031141D01*
X123976887Y-69159058D01*
X123918013Y-69301191D01*
X123907000Y-69356558D01*
X123895987Y-69301191D01*
X123837113Y-69159058D01*
X123751642Y-69031141D01*
X123642859Y-68922358D01*
X123514942Y-68836887D01*
X123372809Y-68778013D01*
X123221922Y-68748000D01*
X123068078Y-68748000D01*
X122917191Y-68778013D01*
X122775058Y-68836887D01*
X122647141Y-68922358D01*
X122538358Y-69031141D01*
X122452887Y-69159058D01*
X122394013Y-69301191D01*
X122364000Y-69452078D01*
X122364000Y-69605922D01*
X122394013Y-69756809D01*
X122452887Y-69898942D01*
X122538358Y-70026859D01*
X122647141Y-70135642D01*
X122775058Y-70221113D01*
X122917191Y-70279987D01*
X123068078Y-70310000D01*
X123221922Y-70310000D01*
X123372809Y-70279987D01*
X123514942Y-70221113D01*
X123642859Y-70135642D01*
X123751642Y-70026859D01*
X123837113Y-69898942D01*
X123895987Y-69756809D01*
X123907000Y-69701442D01*
X123918013Y-69756809D01*
X123976887Y-69898942D01*
X124062358Y-70026859D01*
X124171141Y-70135642D01*
X124299058Y-70221113D01*
X124441191Y-70279987D01*
X124592078Y-70310000D01*
X124745922Y-70310000D01*
X124896809Y-70279987D01*
X125000001Y-70237243D01*
X125000000Y-71494636D01*
X124953588Y-71382587D01*
X124824342Y-71189157D01*
X124659843Y-71024658D01*
X124466413Y-70895412D01*
X124251485Y-70806386D01*
X124023318Y-70761000D01*
X123790682Y-70761000D01*
X123562515Y-70806386D01*
X123347587Y-70895412D01*
X123154157Y-71024658D01*
X122989658Y-71189157D01*
X122860412Y-71382587D01*
X122771386Y-71597515D01*
X122726000Y-71825682D01*
X122726000Y-72058318D01*
X122771386Y-72286485D01*
X122860412Y-72501413D01*
X122989658Y-72694843D01*
X123154157Y-72859342D01*
X123347587Y-72988588D01*
X123562515Y-73077614D01*
X123790682Y-73123000D01*
X124023318Y-73123000D01*
X124251485Y-73077614D01*
X124466413Y-72988588D01*
X124659843Y-72859342D01*
X124824342Y-72694843D01*
X124953588Y-72501413D01*
X125000000Y-72389364D01*
X125000000Y-72471167D01*
X125002168Y-72493178D01*
X125002168Y-72508017D01*
X125002797Y-72514002D01*
X125027663Y-72735686D01*
X125035784Y-72773890D01*
X125043372Y-72812215D01*
X125045152Y-72817964D01*
X125112603Y-73030597D01*
X125127989Y-73066495D01*
X125142878Y-73102619D01*
X125145735Y-73107903D01*
X125145739Y-73107912D01*
X125145744Y-73107919D01*
X125177000Y-73164774D01*
X125177000Y-75536899D01*
X125015584Y-75488164D01*
X124977298Y-75480583D01*
X124939053Y-75472454D01*
X124933070Y-75471825D01*
X124933068Y-75471825D01*
X124711058Y-75450057D01*
X124711052Y-75450057D01*
X124690168Y-75448000D01*
X124587021Y-75448000D01*
X124659843Y-75399342D01*
X124824342Y-75234843D01*
X124953588Y-75041413D01*
X125042614Y-74826485D01*
X125088000Y-74598318D01*
X125088000Y-74365682D01*
X125042614Y-74137515D01*
X124953588Y-73922587D01*
X124824342Y-73729157D01*
X124659843Y-73564658D01*
X124466413Y-73435412D01*
X124251485Y-73346386D01*
X124023318Y-73301000D01*
X123790682Y-73301000D01*
X123562515Y-73346386D01*
X123347587Y-73435412D01*
X123154157Y-73564658D01*
X122989658Y-73729157D01*
X122860412Y-73922587D01*
X122771386Y-74137515D01*
X122726000Y-74365682D01*
X122726000Y-74598318D01*
X122771386Y-74826485D01*
X122860412Y-75041413D01*
X122989658Y-75234843D01*
X123154157Y-75399342D01*
X123226979Y-75448000D01*
X123123832Y-75448000D01*
X123101821Y-75450168D01*
X123086983Y-75450168D01*
X123080997Y-75450797D01*
X122859314Y-75475663D01*
X122821110Y-75483784D01*
X122782785Y-75491372D01*
X122777038Y-75493151D01*
X122777032Y-75493153D01*
X122564403Y-75560603D01*
X122528493Y-75575994D01*
X122492381Y-75590878D01*
X122487097Y-75593735D01*
X122487088Y-75593739D01*
X122487081Y-75593744D01*
X122291607Y-75701207D01*
X122259402Y-75723258D01*
X122226838Y-75744894D01*
X122222201Y-75748730D01*
X122218304Y-75752000D01*
X117973586Y-75752000D01*
X117953932Y-75735971D01*
X117921433Y-75714378D01*
X117889162Y-75692282D01*
X117883868Y-75689420D01*
X117686904Y-75584693D01*
X117650812Y-75569817D01*
X117614886Y-75554419D01*
X117609137Y-75552640D01*
X117609139Y-75552640D01*
X117609131Y-75552638D01*
X117395584Y-75488164D01*
X117357298Y-75480583D01*
X117319053Y-75472454D01*
X117313070Y-75471825D01*
X117313068Y-75471825D01*
X117091058Y-75450057D01*
X117091052Y-75450057D01*
X117070168Y-75448000D01*
X116967021Y-75448000D01*
X117039843Y-75399342D01*
X117204342Y-75234843D01*
X117333588Y-75041413D01*
X117422614Y-74826485D01*
X117468000Y-74598318D01*
X117468000Y-74365682D01*
X117422614Y-74137515D01*
X117333588Y-73922587D01*
X117204342Y-73729157D01*
X117039843Y-73564658D01*
X116846413Y-73435412D01*
X116631485Y-73346386D01*
X116403318Y-73301000D01*
X116170682Y-73301000D01*
X115942515Y-73346386D01*
X115727587Y-73435412D01*
X115534157Y-73564658D01*
X115369658Y-73729157D01*
X115240412Y-73922587D01*
X115151386Y-74137515D01*
X115106000Y-74365682D01*
X115106000Y-74598318D01*
X115151386Y-74826485D01*
X115240412Y-75041413D01*
X115369658Y-75234843D01*
X115534157Y-75399342D01*
X115606979Y-75448000D01*
X115503832Y-75448000D01*
X115481821Y-75450168D01*
X115466983Y-75450168D01*
X115460997Y-75450797D01*
X115239314Y-75475663D01*
X115201110Y-75483784D01*
X115162785Y-75491372D01*
X115157038Y-75493151D01*
X115157032Y-75493153D01*
X114944403Y-75560603D01*
X114908493Y-75575994D01*
X114872381Y-75590878D01*
X114867097Y-75593735D01*
X114867088Y-75593739D01*
X114867081Y-75593744D01*
X114671607Y-75701207D01*
X114639402Y-75723258D01*
X114606838Y-75744894D01*
X114602201Y-75748730D01*
X114598304Y-75752000D01*
X105019586Y-75752000D01*
X104999932Y-75735971D01*
X104967433Y-75714378D01*
X104935162Y-75692282D01*
X104929868Y-75689420D01*
X104732904Y-75584693D01*
X104696812Y-75569817D01*
X104660886Y-75554419D01*
X104655137Y-75552640D01*
X104655139Y-75552640D01*
X104655131Y-75552638D01*
X104441584Y-75488164D01*
X104403298Y-75480583D01*
X104365053Y-75472454D01*
X104359070Y-75471825D01*
X104359068Y-75471825D01*
X104137058Y-75450057D01*
X104137052Y-75450057D01*
X104116168Y-75448000D01*
X104013021Y-75448000D01*
X104085843Y-75399342D01*
X104250342Y-75234843D01*
X104379588Y-75041413D01*
X104468614Y-74826485D01*
X104514000Y-74598318D01*
X104514000Y-74365682D01*
X104468614Y-74137515D01*
X104379588Y-73922587D01*
X104339773Y-73862999D01*
X107868742Y-73862999D01*
X108743505Y-74737763D01*
X108760132Y-74758023D01*
X108780392Y-74774650D01*
X108840986Y-74824379D01*
X108933234Y-74873686D01*
X109033328Y-74904050D01*
X109111338Y-74911733D01*
X109111348Y-74911733D01*
X109137422Y-74914301D01*
X109163496Y-74911733D01*
X111224899Y-74911733D01*
X111250973Y-74914301D01*
X111277047Y-74911733D01*
X111277057Y-74911733D01*
X111355067Y-74904050D01*
X111455161Y-74873686D01*
X111547408Y-74824379D01*
X111580901Y-74796892D01*
X111692736Y-74796892D01*
X111843623Y-74766879D01*
X111985756Y-74708005D01*
X112113673Y-74622534D01*
X112222456Y-74513751D01*
X112307927Y-74385834D01*
X112316938Y-74364078D01*
X113052000Y-74364078D01*
X113052000Y-74517922D01*
X113082013Y-74668809D01*
X113140887Y-74810942D01*
X113226358Y-74938859D01*
X113335141Y-75047642D01*
X113463058Y-75133113D01*
X113605191Y-75191987D01*
X113756078Y-75222000D01*
X113909922Y-75222000D01*
X114060809Y-75191987D01*
X114202942Y-75133113D01*
X114330859Y-75047642D01*
X114439642Y-74938859D01*
X114525113Y-74810942D01*
X114583987Y-74668809D01*
X114614000Y-74517922D01*
X114614000Y-74364078D01*
X114583987Y-74213191D01*
X114525113Y-74071058D01*
X114439642Y-73943141D01*
X114330859Y-73834358D01*
X114202942Y-73748887D01*
X114060809Y-73690013D01*
X113909922Y-73660000D01*
X113756078Y-73660000D01*
X113605191Y-73690013D01*
X113463058Y-73748887D01*
X113335141Y-73834358D01*
X113226358Y-73943141D01*
X113140887Y-74071058D01*
X113082013Y-74213191D01*
X113052000Y-74364078D01*
X112316938Y-74364078D01*
X112366801Y-74243701D01*
X112396814Y-74092814D01*
X112396814Y-73938970D01*
X112366801Y-73788083D01*
X112307927Y-73645950D01*
X112222456Y-73518033D01*
X112170547Y-73466124D01*
X112222528Y-73414143D01*
X112307999Y-73286226D01*
X112366873Y-73144093D01*
X112396886Y-72993206D01*
X112396886Y-72839362D01*
X112366873Y-72688475D01*
X112307999Y-72546342D01*
X112222528Y-72418425D01*
X112113745Y-72309642D01*
X111985828Y-72224171D01*
X111843695Y-72165297D01*
X111692808Y-72135284D01*
X111538964Y-72135284D01*
X111388077Y-72165297D01*
X111245944Y-72224171D01*
X111118027Y-72309642D01*
X111009244Y-72418425D01*
X110923773Y-72546342D01*
X110864899Y-72688475D01*
X110834886Y-72839362D01*
X110834886Y-72993206D01*
X110864899Y-73144093D01*
X110923773Y-73286226D01*
X111009244Y-73414143D01*
X111061153Y-73466052D01*
X111009172Y-73518033D01*
X110923701Y-73645950D01*
X110864827Y-73788083D01*
X110852564Y-73849733D01*
X110250162Y-73849733D01*
X110278423Y-73707654D01*
X110278423Y-73553810D01*
X110248410Y-73402923D01*
X110189536Y-73260790D01*
X110104065Y-73132873D01*
X109995282Y-73024090D01*
X109867365Y-72938619D01*
X109725232Y-72879745D01*
X109574345Y-72849732D01*
X109420501Y-72849732D01*
X109269614Y-72879745D01*
X109127481Y-72938619D01*
X108999564Y-73024090D01*
X108890781Y-73132873D01*
X108805310Y-73260790D01*
X108794507Y-73286871D01*
X108482609Y-72974974D01*
X108465978Y-72954709D01*
X108385123Y-72888353D01*
X108292876Y-72839046D01*
X108192782Y-72808682D01*
X108114772Y-72800999D01*
X108114762Y-72800999D01*
X108088688Y-72798431D01*
X108062614Y-72800999D01*
X104144186Y-72800999D01*
X104250342Y-72694843D01*
X104379588Y-72501413D01*
X104468614Y-72286485D01*
X104514000Y-72058318D01*
X104514000Y-71825682D01*
X104471312Y-71611078D01*
X106615992Y-71611078D01*
X106615992Y-71764922D01*
X106646005Y-71915809D01*
X106704879Y-72057942D01*
X106790350Y-72185859D01*
X106899133Y-72294642D01*
X107027050Y-72380113D01*
X107169183Y-72438987D01*
X107320070Y-72469000D01*
X107473914Y-72469000D01*
X107624801Y-72438987D01*
X107766934Y-72380113D01*
X107894851Y-72294642D01*
X108003634Y-72185859D01*
X108089105Y-72057942D01*
X108147979Y-71915809D01*
X108177992Y-71764922D01*
X108177992Y-71611078D01*
X108147979Y-71460191D01*
X108089105Y-71318058D01*
X108003634Y-71190141D01*
X107894851Y-71081358D01*
X107766934Y-70995887D01*
X107624801Y-70937013D01*
X107473914Y-70907000D01*
X107320070Y-70907000D01*
X107169183Y-70937013D01*
X107027050Y-70995887D01*
X106899133Y-71081358D01*
X106790350Y-71190141D01*
X106704879Y-71318058D01*
X106646005Y-71460191D01*
X106615992Y-71611078D01*
X104471312Y-71611078D01*
X104468614Y-71597515D01*
X104379588Y-71382587D01*
X104250342Y-71189157D01*
X104085843Y-71024658D01*
X103892413Y-70895412D01*
X103677485Y-70806386D01*
X103449318Y-70761000D01*
X103216682Y-70761000D01*
X102988515Y-70806386D01*
X102773587Y-70895412D01*
X102580157Y-71024658D01*
X102415658Y-71189157D01*
X102286412Y-71382587D01*
X102197386Y-71597515D01*
X102152000Y-71825682D01*
X102152000Y-72058318D01*
X102197386Y-72286485D01*
X102286412Y-72501413D01*
X102415658Y-72694843D01*
X102521814Y-72800999D01*
X96890032Y-72800999D01*
X96895843Y-72742000D01*
X96895843Y-71142000D01*
X96888487Y-71067311D01*
X96866701Y-70995492D01*
X96831322Y-70929304D01*
X96783711Y-70871289D01*
X96725696Y-70823678D01*
X96659508Y-70788299D01*
X96587689Y-70766513D01*
X96513000Y-70759157D01*
X94913000Y-70759157D01*
X94838311Y-70766513D01*
X94766492Y-70788299D01*
X94700304Y-70823678D01*
X94642289Y-70871289D01*
X94594678Y-70929304D01*
X94559299Y-70995492D01*
X94537513Y-71067311D01*
X94530157Y-71142000D01*
X94530157Y-72742000D01*
X94535968Y-72800999D01*
X92063074Y-72800999D01*
X92037000Y-72798431D01*
X92010926Y-72800999D01*
X92010917Y-72800999D01*
X91932907Y-72808682D01*
X91832813Y-72839046D01*
X91772697Y-72871178D01*
X91740565Y-72888353D01*
X91684276Y-72934549D01*
X91659711Y-72954709D01*
X91643084Y-72974969D01*
X90663054Y-73955000D01*
X90556078Y-73955000D01*
X90405191Y-73985013D01*
X90263058Y-74043887D01*
X90135141Y-74129358D01*
X90026358Y-74238141D01*
X89940887Y-74366058D01*
X89882013Y-74508191D01*
X89852000Y-74659078D01*
X89852000Y-74812922D01*
X89882013Y-74963809D01*
X89940887Y-75105942D01*
X90026358Y-75233859D01*
X90135141Y-75342642D01*
X90263058Y-75428113D01*
X90405191Y-75486987D01*
X90556078Y-75517000D01*
X90709922Y-75517000D01*
X90860809Y-75486987D01*
X91002942Y-75428113D01*
X91130859Y-75342642D01*
X91239642Y-75233859D01*
X91268000Y-75191418D01*
X91296358Y-75233859D01*
X91405141Y-75342642D01*
X91533058Y-75428113D01*
X91675191Y-75486987D01*
X91826078Y-75517000D01*
X91979922Y-75517000D01*
X92130809Y-75486987D01*
X92272942Y-75428113D01*
X92400859Y-75342642D01*
X92509642Y-75233859D01*
X92595113Y-75105942D01*
X92653987Y-74963809D01*
X92684000Y-74812922D01*
X92684000Y-74659078D01*
X92653987Y-74508191D01*
X92595113Y-74366058D01*
X92509642Y-74238141D01*
X92400859Y-74129358D01*
X92272942Y-74043887D01*
X92133726Y-73986221D01*
X92256948Y-73862999D01*
X94706227Y-73862999D01*
X94666412Y-73922587D01*
X94577386Y-74137515D01*
X94532000Y-74365682D01*
X94532000Y-74598318D01*
X94577386Y-74826485D01*
X94666412Y-75041413D01*
X94795658Y-75234843D01*
X94960157Y-75399342D01*
X95032979Y-75448000D01*
X94929832Y-75448000D01*
X94907821Y-75450168D01*
X94892983Y-75450168D01*
X94886997Y-75450797D01*
X94665314Y-75475663D01*
X94627110Y-75483784D01*
X94588785Y-75491372D01*
X94583038Y-75493151D01*
X94583032Y-75493153D01*
X94370403Y-75560603D01*
X94334493Y-75575994D01*
X94298381Y-75590878D01*
X94293097Y-75593735D01*
X94293088Y-75593739D01*
X94293081Y-75593744D01*
X94097607Y-75701207D01*
X94065402Y-75723258D01*
X94032838Y-75744894D01*
X94028201Y-75748730D01*
X94024304Y-75752000D01*
X92284000Y-75752000D01*
X92259224Y-75754440D01*
X92235399Y-75761667D01*
X92213443Y-75773403D01*
X92194197Y-75789197D01*
X92178403Y-75808443D01*
X92166667Y-75830399D01*
X92159440Y-75854224D01*
X92157000Y-75879000D01*
X92157000Y-78334598D01*
X92067821Y-78423777D01*
X91894218Y-78683594D01*
X91774637Y-78972286D01*
X91713676Y-79278761D01*
X91713676Y-79591239D01*
X91774637Y-79897714D01*
X91894218Y-80186406D01*
X92067821Y-80446223D01*
X92157000Y-80535402D01*
X92157000Y-80714650D01*
X92020357Y-80578007D01*
X91859684Y-80470649D01*
X91681153Y-80396699D01*
X91491626Y-80359000D01*
X91298386Y-80359000D01*
X91108859Y-80396699D01*
X90930328Y-80470649D01*
X90769655Y-80578007D01*
X90633013Y-80714649D01*
X90525655Y-80875322D01*
X90451705Y-81053853D01*
X90414006Y-81243380D01*
X90414006Y-81436620D01*
X90451705Y-81626147D01*
X90525655Y-81804678D01*
X90633013Y-81965351D01*
X90769655Y-82101993D01*
X90930328Y-82209351D01*
X91108859Y-82283301D01*
X91298386Y-82321000D01*
X91491626Y-82321000D01*
X91681153Y-82283301D01*
X91859684Y-82209351D01*
X92020357Y-82101993D01*
X92157000Y-81965350D01*
X92157000Y-83541598D01*
X92067821Y-83630777D01*
X91894218Y-83890594D01*
X91774637Y-84179286D01*
X91713676Y-84485761D01*
X91713676Y-84515000D01*
X85553000Y-84515000D01*
X85553000Y-84076021D01*
X86272989Y-84076021D01*
X86377486Y-84277082D01*
X86618273Y-84403666D01*
X86879129Y-84480844D01*
X87150029Y-84505649D01*
X87420563Y-84477126D01*
X87680334Y-84396373D01*
X87903514Y-84277082D01*
X88008011Y-84076021D01*
X87140500Y-83208510D01*
X86272989Y-84076021D01*
X85553000Y-84076021D01*
X85553000Y-83127529D01*
X85752851Y-83127529D01*
X85781374Y-83398063D01*
X85862127Y-83657834D01*
X85981418Y-83881014D01*
X86182479Y-83985511D01*
X87049990Y-83118000D01*
X87231010Y-83118000D01*
X88098521Y-83985511D01*
X88299582Y-83881014D01*
X88426166Y-83640227D01*
X88503344Y-83379371D01*
X88528149Y-83108471D01*
X88499626Y-82837937D01*
X88418873Y-82578166D01*
X88299582Y-82354986D01*
X88098521Y-82250489D01*
X87231010Y-83118000D01*
X87049990Y-83118000D01*
X86182479Y-82250489D01*
X85981418Y-82354986D01*
X85854834Y-82595773D01*
X85777656Y-82856629D01*
X85752851Y-83127529D01*
X85553000Y-83127529D01*
X85553000Y-82662606D01*
X86055627Y-82159979D01*
X86272989Y-82159979D01*
X87140500Y-83027490D01*
X88008011Y-82159979D01*
X87903514Y-81958918D01*
X87662727Y-81832334D01*
X87401871Y-81755156D01*
X87130971Y-81730351D01*
X86860437Y-81758874D01*
X86600666Y-81839627D01*
X86377486Y-81958918D01*
X86272989Y-82159979D01*
X86055627Y-82159979D01*
X88055803Y-80159803D01*
X88071597Y-80140557D01*
X88083333Y-80118601D01*
X88090560Y-80094776D01*
X88093000Y-80070000D01*
X88093000Y-70722078D01*
X111214000Y-70722078D01*
X111214000Y-70875922D01*
X111244013Y-71026809D01*
X111302887Y-71168942D01*
X111388358Y-71296859D01*
X111497141Y-71405642D01*
X111625058Y-71491113D01*
X111767191Y-71549987D01*
X111918078Y-71580000D01*
X112071922Y-71580000D01*
X112222809Y-71549987D01*
X112364942Y-71491113D01*
X112492859Y-71405642D01*
X112601642Y-71296859D01*
X112687113Y-71168942D01*
X112745987Y-71026809D01*
X112776000Y-70875922D01*
X112776000Y-70722078D01*
X112748551Y-70584078D01*
X113474000Y-70584078D01*
X113474000Y-70737922D01*
X113504013Y-70888809D01*
X113562887Y-71030942D01*
X113648358Y-71158859D01*
X113757141Y-71267642D01*
X113885058Y-71353113D01*
X114027191Y-71411987D01*
X114178078Y-71442000D01*
X114331922Y-71442000D01*
X114482809Y-71411987D01*
X114624942Y-71353113D01*
X114752859Y-71267642D01*
X114861642Y-71158859D01*
X114872906Y-71142000D01*
X115104157Y-71142000D01*
X115104157Y-72742000D01*
X115111513Y-72816689D01*
X115133299Y-72888508D01*
X115168678Y-72954696D01*
X115216289Y-73012711D01*
X115274304Y-73060322D01*
X115340492Y-73095701D01*
X115412311Y-73117487D01*
X115487000Y-73124843D01*
X117087000Y-73124843D01*
X117161689Y-73117487D01*
X117233508Y-73095701D01*
X117299696Y-73060322D01*
X117357711Y-73012711D01*
X117405322Y-72954696D01*
X117440701Y-72888508D01*
X117462487Y-72816689D01*
X117469843Y-72742000D01*
X117469843Y-71142000D01*
X117462487Y-71067311D01*
X117440701Y-70995492D01*
X117405322Y-70929304D01*
X117357711Y-70871289D01*
X117299696Y-70823678D01*
X117233508Y-70788299D01*
X117161689Y-70766513D01*
X117087000Y-70759157D01*
X115487000Y-70759157D01*
X115412311Y-70766513D01*
X115340492Y-70788299D01*
X115274304Y-70823678D01*
X115216289Y-70871289D01*
X115168678Y-70929304D01*
X115133299Y-70995492D01*
X115111513Y-71067311D01*
X115104157Y-71142000D01*
X114872906Y-71142000D01*
X114947113Y-71030942D01*
X115005987Y-70888809D01*
X115036000Y-70737922D01*
X115036000Y-70584078D01*
X115005987Y-70433191D01*
X114947113Y-70291058D01*
X114861642Y-70163141D01*
X114752859Y-70054358D01*
X114624942Y-69968887D01*
X114482809Y-69910013D01*
X114331922Y-69880000D01*
X114178078Y-69880000D01*
X114027191Y-69910013D01*
X113885058Y-69968887D01*
X113757141Y-70054358D01*
X113648358Y-70163141D01*
X113562887Y-70291058D01*
X113504013Y-70433191D01*
X113474000Y-70584078D01*
X112748551Y-70584078D01*
X112745987Y-70571191D01*
X112687113Y-70429058D01*
X112601642Y-70301141D01*
X112492859Y-70192358D01*
X112364942Y-70106887D01*
X112222809Y-70048013D01*
X112071922Y-70018000D01*
X111918078Y-70018000D01*
X111767191Y-70048013D01*
X111625058Y-70106887D01*
X111497141Y-70192358D01*
X111388358Y-70301141D01*
X111302887Y-70429058D01*
X111244013Y-70571191D01*
X111214000Y-70722078D01*
X88093000Y-70722078D01*
X88093000Y-69198078D01*
X89699000Y-69198078D01*
X89699000Y-69351922D01*
X89729013Y-69502809D01*
X89787887Y-69644942D01*
X89873358Y-69772859D01*
X89982141Y-69881642D01*
X90110058Y-69967113D01*
X90252191Y-70025987D01*
X90403078Y-70056000D01*
X90556922Y-70056000D01*
X90707809Y-70025987D01*
X90849942Y-69967113D01*
X90977859Y-69881642D01*
X91086642Y-69772859D01*
X91172113Y-69644942D01*
X91230987Y-69502809D01*
X91241077Y-69452078D01*
X95186000Y-69452078D01*
X95186000Y-69605922D01*
X95216013Y-69756809D01*
X95274887Y-69898942D01*
X95360358Y-70026859D01*
X95469141Y-70135642D01*
X95597058Y-70221113D01*
X95739191Y-70279987D01*
X95890078Y-70310000D01*
X96043922Y-70310000D01*
X96194809Y-70279987D01*
X96336942Y-70221113D01*
X96464859Y-70135642D01*
X96573642Y-70026859D01*
X96659113Y-69898942D01*
X96717987Y-69756809D01*
X96729000Y-69701442D01*
X96740013Y-69756809D01*
X96798887Y-69898942D01*
X96884358Y-70026859D01*
X96993141Y-70135642D01*
X97121058Y-70221113D01*
X97263191Y-70279987D01*
X97414078Y-70310000D01*
X97567922Y-70310000D01*
X97718809Y-70279987D01*
X97860942Y-70221113D01*
X97988859Y-70135642D01*
X98097642Y-70026859D01*
X98183113Y-69898942D01*
X98241987Y-69756809D01*
X98272000Y-69605922D01*
X98272000Y-69452078D01*
X98241987Y-69301191D01*
X98183113Y-69159058D01*
X98097642Y-69031141D01*
X97988859Y-68922358D01*
X97860942Y-68836887D01*
X97718809Y-68778013D01*
X97567922Y-68748000D01*
X97414078Y-68748000D01*
X97263191Y-68778013D01*
X97121058Y-68836887D01*
X96993141Y-68922358D01*
X96884358Y-69031141D01*
X96798887Y-69159058D01*
X96740013Y-69301191D01*
X96729000Y-69356558D01*
X96717987Y-69301191D01*
X96659113Y-69159058D01*
X96573642Y-69031141D01*
X96464859Y-68922358D01*
X96336942Y-68836887D01*
X96194809Y-68778013D01*
X96043922Y-68748000D01*
X95890078Y-68748000D01*
X95739191Y-68778013D01*
X95597058Y-68836887D01*
X95469141Y-68922358D01*
X95360358Y-69031141D01*
X95274887Y-69159058D01*
X95216013Y-69301191D01*
X95186000Y-69452078D01*
X91241077Y-69452078D01*
X91261000Y-69351922D01*
X91261000Y-69198078D01*
X91230987Y-69047191D01*
X91172113Y-68905058D01*
X91086642Y-68777141D01*
X90977859Y-68668358D01*
X90849942Y-68582887D01*
X90707809Y-68524013D01*
X90556922Y-68494000D01*
X90403078Y-68494000D01*
X90252191Y-68524013D01*
X90110058Y-68582887D01*
X89982141Y-68668358D01*
X89873358Y-68777141D01*
X89787887Y-68905058D01*
X89729013Y-69047191D01*
X89699000Y-69198078D01*
X88093000Y-69198078D01*
X88093000Y-67801078D01*
X95186000Y-67801078D01*
X95186000Y-67954922D01*
X95216013Y-68105809D01*
X95274887Y-68247942D01*
X95360358Y-68375859D01*
X95469141Y-68484642D01*
X95597058Y-68570113D01*
X95739191Y-68628987D01*
X95890078Y-68659000D01*
X96043922Y-68659000D01*
X96194809Y-68628987D01*
X96336942Y-68570113D01*
X96464859Y-68484642D01*
X96573642Y-68375859D01*
X96659113Y-68247942D01*
X96717987Y-68105809D01*
X96729000Y-68050442D01*
X96740013Y-68105809D01*
X96798887Y-68247942D01*
X96884358Y-68375859D01*
X96993141Y-68484642D01*
X97121058Y-68570113D01*
X97263191Y-68628987D01*
X97414078Y-68659000D01*
X97567922Y-68659000D01*
X97718809Y-68628987D01*
X97860942Y-68570113D01*
X97988859Y-68484642D01*
X98097642Y-68375859D01*
X98183113Y-68247942D01*
X98241987Y-68105809D01*
X98272000Y-67954922D01*
X98272000Y-67801078D01*
X98241987Y-67650191D01*
X98183113Y-67508058D01*
X98097642Y-67380141D01*
X97988859Y-67271358D01*
X97860942Y-67185887D01*
X97718809Y-67127013D01*
X97567922Y-67097000D01*
X97414078Y-67097000D01*
X97263191Y-67127013D01*
X97121058Y-67185887D01*
X96993141Y-67271358D01*
X96884358Y-67380141D01*
X96798887Y-67508058D01*
X96740013Y-67650191D01*
X96729000Y-67705558D01*
X96717987Y-67650191D01*
X96659113Y-67508058D01*
X96573642Y-67380141D01*
X96464859Y-67271358D01*
X96336942Y-67185887D01*
X96194809Y-67127013D01*
X96043922Y-67097000D01*
X95890078Y-67097000D01*
X95739191Y-67127013D01*
X95597058Y-67185887D01*
X95469141Y-67271358D01*
X95360358Y-67380141D01*
X95274887Y-67508058D01*
X95216013Y-67650191D01*
X95186000Y-67801078D01*
X88093000Y-67801078D01*
X88093000Y-66931000D01*
X125177000Y-66931000D01*
X125177000Y-67281499D01*
%TA.AperFunction,Conductor*%
D23*
G36*
X125177000Y-67281499D02*
G01*
X125166859Y-67271358D01*
X125038942Y-67185887D01*
X124896809Y-67127013D01*
X124745922Y-67097000D01*
X124592078Y-67097000D01*
X124441191Y-67127013D01*
X124299058Y-67185887D01*
X124171141Y-67271358D01*
X124062358Y-67380141D01*
X123976887Y-67508058D01*
X123918013Y-67650191D01*
X123907000Y-67705558D01*
X123895987Y-67650191D01*
X123837113Y-67508058D01*
X123751642Y-67380141D01*
X123642859Y-67271358D01*
X123514942Y-67185887D01*
X123372809Y-67127013D01*
X123221922Y-67097000D01*
X123068078Y-67097000D01*
X122917191Y-67127013D01*
X122775058Y-67185887D01*
X122647141Y-67271358D01*
X122538358Y-67380141D01*
X122452887Y-67508058D01*
X122394013Y-67650191D01*
X122364000Y-67801078D01*
X122364000Y-67954922D01*
X122394013Y-68105809D01*
X122452887Y-68247942D01*
X122538358Y-68375859D01*
X122647141Y-68484642D01*
X122775058Y-68570113D01*
X122917191Y-68628987D01*
X123068078Y-68659000D01*
X123221922Y-68659000D01*
X123372809Y-68628987D01*
X123514942Y-68570113D01*
X123642859Y-68484642D01*
X123751642Y-68375859D01*
X123837113Y-68247942D01*
X123895987Y-68105809D01*
X123907000Y-68050442D01*
X123918013Y-68105809D01*
X123976887Y-68247942D01*
X124062358Y-68375859D01*
X124171141Y-68484642D01*
X124299058Y-68570113D01*
X124441191Y-68628987D01*
X124592078Y-68659000D01*
X124745922Y-68659000D01*
X124896809Y-68628987D01*
X125038942Y-68570113D01*
X125166859Y-68484642D01*
X125177000Y-68474501D01*
X125177000Y-68561289D01*
X125136693Y-68637096D01*
X125121817Y-68673188D01*
X125106419Y-68709114D01*
X125104640Y-68714863D01*
X125062954Y-68852931D01*
X125038942Y-68836887D01*
X124896809Y-68778013D01*
X124745922Y-68748000D01*
X124592078Y-68748000D01*
X124441191Y-68778013D01*
X124299058Y-68836887D01*
X124171141Y-68922358D01*
X124062358Y-69031141D01*
X123976887Y-69159058D01*
X123918013Y-69301191D01*
X123907000Y-69356558D01*
X123895987Y-69301191D01*
X123837113Y-69159058D01*
X123751642Y-69031141D01*
X123642859Y-68922358D01*
X123514942Y-68836887D01*
X123372809Y-68778013D01*
X123221922Y-68748000D01*
X123068078Y-68748000D01*
X122917191Y-68778013D01*
X122775058Y-68836887D01*
X122647141Y-68922358D01*
X122538358Y-69031141D01*
X122452887Y-69159058D01*
X122394013Y-69301191D01*
X122364000Y-69452078D01*
X122364000Y-69605922D01*
X122394013Y-69756809D01*
X122452887Y-69898942D01*
X122538358Y-70026859D01*
X122647141Y-70135642D01*
X122775058Y-70221113D01*
X122917191Y-70279987D01*
X123068078Y-70310000D01*
X123221922Y-70310000D01*
X123372809Y-70279987D01*
X123514942Y-70221113D01*
X123642859Y-70135642D01*
X123751642Y-70026859D01*
X123837113Y-69898942D01*
X123895987Y-69756809D01*
X123907000Y-69701442D01*
X123918013Y-69756809D01*
X123976887Y-69898942D01*
X124062358Y-70026859D01*
X124171141Y-70135642D01*
X124299058Y-70221113D01*
X124441191Y-70279987D01*
X124592078Y-70310000D01*
X124745922Y-70310000D01*
X124896809Y-70279987D01*
X125000001Y-70237243D01*
X125000000Y-71494636D01*
X124953588Y-71382587D01*
X124824342Y-71189157D01*
X124659843Y-71024658D01*
X124466413Y-70895412D01*
X124251485Y-70806386D01*
X124023318Y-70761000D01*
X123790682Y-70761000D01*
X123562515Y-70806386D01*
X123347587Y-70895412D01*
X123154157Y-71024658D01*
X122989658Y-71189157D01*
X122860412Y-71382587D01*
X122771386Y-71597515D01*
X122726000Y-71825682D01*
X122726000Y-72058318D01*
X122771386Y-72286485D01*
X122860412Y-72501413D01*
X122989658Y-72694843D01*
X123154157Y-72859342D01*
X123347587Y-72988588D01*
X123562515Y-73077614D01*
X123790682Y-73123000D01*
X124023318Y-73123000D01*
X124251485Y-73077614D01*
X124466413Y-72988588D01*
X124659843Y-72859342D01*
X124824342Y-72694843D01*
X124953588Y-72501413D01*
X125000000Y-72389364D01*
X125000000Y-72471167D01*
X125002168Y-72493178D01*
X125002168Y-72508017D01*
X125002797Y-72514002D01*
X125027663Y-72735686D01*
X125035784Y-72773890D01*
X125043372Y-72812215D01*
X125045152Y-72817964D01*
X125112603Y-73030597D01*
X125127989Y-73066495D01*
X125142878Y-73102619D01*
X125145735Y-73107903D01*
X125145739Y-73107912D01*
X125145744Y-73107919D01*
X125177000Y-73164774D01*
X125177000Y-75536899D01*
X125015584Y-75488164D01*
X124977298Y-75480583D01*
X124939053Y-75472454D01*
X124933070Y-75471825D01*
X124933068Y-75471825D01*
X124711058Y-75450057D01*
X124711052Y-75450057D01*
X124690168Y-75448000D01*
X124587021Y-75448000D01*
X124659843Y-75399342D01*
X124824342Y-75234843D01*
X124953588Y-75041413D01*
X125042614Y-74826485D01*
X125088000Y-74598318D01*
X125088000Y-74365682D01*
X125042614Y-74137515D01*
X124953588Y-73922587D01*
X124824342Y-73729157D01*
X124659843Y-73564658D01*
X124466413Y-73435412D01*
X124251485Y-73346386D01*
X124023318Y-73301000D01*
X123790682Y-73301000D01*
X123562515Y-73346386D01*
X123347587Y-73435412D01*
X123154157Y-73564658D01*
X122989658Y-73729157D01*
X122860412Y-73922587D01*
X122771386Y-74137515D01*
X122726000Y-74365682D01*
X122726000Y-74598318D01*
X122771386Y-74826485D01*
X122860412Y-75041413D01*
X122989658Y-75234843D01*
X123154157Y-75399342D01*
X123226979Y-75448000D01*
X123123832Y-75448000D01*
X123101821Y-75450168D01*
X123086983Y-75450168D01*
X123080997Y-75450797D01*
X122859314Y-75475663D01*
X122821110Y-75483784D01*
X122782785Y-75491372D01*
X122777038Y-75493151D01*
X122777032Y-75493153D01*
X122564403Y-75560603D01*
X122528493Y-75575994D01*
X122492381Y-75590878D01*
X122487097Y-75593735D01*
X122487088Y-75593739D01*
X122487081Y-75593744D01*
X122291607Y-75701207D01*
X122259402Y-75723258D01*
X122226838Y-75744894D01*
X122222201Y-75748730D01*
X122218304Y-75752000D01*
X117973586Y-75752000D01*
X117953932Y-75735971D01*
X117921433Y-75714378D01*
X117889162Y-75692282D01*
X117883868Y-75689420D01*
X117686904Y-75584693D01*
X117650812Y-75569817D01*
X117614886Y-75554419D01*
X117609137Y-75552640D01*
X117609139Y-75552640D01*
X117609131Y-75552638D01*
X117395584Y-75488164D01*
X117357298Y-75480583D01*
X117319053Y-75472454D01*
X117313070Y-75471825D01*
X117313068Y-75471825D01*
X117091058Y-75450057D01*
X117091052Y-75450057D01*
X117070168Y-75448000D01*
X116967021Y-75448000D01*
X117039843Y-75399342D01*
X117204342Y-75234843D01*
X117333588Y-75041413D01*
X117422614Y-74826485D01*
X117468000Y-74598318D01*
X117468000Y-74365682D01*
X117422614Y-74137515D01*
X117333588Y-73922587D01*
X117204342Y-73729157D01*
X117039843Y-73564658D01*
X116846413Y-73435412D01*
X116631485Y-73346386D01*
X116403318Y-73301000D01*
X116170682Y-73301000D01*
X115942515Y-73346386D01*
X115727587Y-73435412D01*
X115534157Y-73564658D01*
X115369658Y-73729157D01*
X115240412Y-73922587D01*
X115151386Y-74137515D01*
X115106000Y-74365682D01*
X115106000Y-74598318D01*
X115151386Y-74826485D01*
X115240412Y-75041413D01*
X115369658Y-75234843D01*
X115534157Y-75399342D01*
X115606979Y-75448000D01*
X115503832Y-75448000D01*
X115481821Y-75450168D01*
X115466983Y-75450168D01*
X115460997Y-75450797D01*
X115239314Y-75475663D01*
X115201110Y-75483784D01*
X115162785Y-75491372D01*
X115157038Y-75493151D01*
X115157032Y-75493153D01*
X114944403Y-75560603D01*
X114908493Y-75575994D01*
X114872381Y-75590878D01*
X114867097Y-75593735D01*
X114867088Y-75593739D01*
X114867081Y-75593744D01*
X114671607Y-75701207D01*
X114639402Y-75723258D01*
X114606838Y-75744894D01*
X114602201Y-75748730D01*
X114598304Y-75752000D01*
X105019586Y-75752000D01*
X104999932Y-75735971D01*
X104967433Y-75714378D01*
X104935162Y-75692282D01*
X104929868Y-75689420D01*
X104732904Y-75584693D01*
X104696812Y-75569817D01*
X104660886Y-75554419D01*
X104655137Y-75552640D01*
X104655139Y-75552640D01*
X104655131Y-75552638D01*
X104441584Y-75488164D01*
X104403298Y-75480583D01*
X104365053Y-75472454D01*
X104359070Y-75471825D01*
X104359068Y-75471825D01*
X104137058Y-75450057D01*
X104137052Y-75450057D01*
X104116168Y-75448000D01*
X104013021Y-75448000D01*
X104085843Y-75399342D01*
X104250342Y-75234843D01*
X104379588Y-75041413D01*
X104468614Y-74826485D01*
X104514000Y-74598318D01*
X104514000Y-74365682D01*
X104468614Y-74137515D01*
X104379588Y-73922587D01*
X104339773Y-73862999D01*
X107868742Y-73862999D01*
X108743505Y-74737763D01*
X108760132Y-74758023D01*
X108780392Y-74774650D01*
X108840986Y-74824379D01*
X108933234Y-74873686D01*
X109033328Y-74904050D01*
X109111338Y-74911733D01*
X109111348Y-74911733D01*
X109137422Y-74914301D01*
X109163496Y-74911733D01*
X111224899Y-74911733D01*
X111250973Y-74914301D01*
X111277047Y-74911733D01*
X111277057Y-74911733D01*
X111355067Y-74904050D01*
X111455161Y-74873686D01*
X111547408Y-74824379D01*
X111580901Y-74796892D01*
X111692736Y-74796892D01*
X111843623Y-74766879D01*
X111985756Y-74708005D01*
X112113673Y-74622534D01*
X112222456Y-74513751D01*
X112307927Y-74385834D01*
X112316938Y-74364078D01*
X113052000Y-74364078D01*
X113052000Y-74517922D01*
X113082013Y-74668809D01*
X113140887Y-74810942D01*
X113226358Y-74938859D01*
X113335141Y-75047642D01*
X113463058Y-75133113D01*
X113605191Y-75191987D01*
X113756078Y-75222000D01*
X113909922Y-75222000D01*
X114060809Y-75191987D01*
X114202942Y-75133113D01*
X114330859Y-75047642D01*
X114439642Y-74938859D01*
X114525113Y-74810942D01*
X114583987Y-74668809D01*
X114614000Y-74517922D01*
X114614000Y-74364078D01*
X114583987Y-74213191D01*
X114525113Y-74071058D01*
X114439642Y-73943141D01*
X114330859Y-73834358D01*
X114202942Y-73748887D01*
X114060809Y-73690013D01*
X113909922Y-73660000D01*
X113756078Y-73660000D01*
X113605191Y-73690013D01*
X113463058Y-73748887D01*
X113335141Y-73834358D01*
X113226358Y-73943141D01*
X113140887Y-74071058D01*
X113082013Y-74213191D01*
X113052000Y-74364078D01*
X112316938Y-74364078D01*
X112366801Y-74243701D01*
X112396814Y-74092814D01*
X112396814Y-73938970D01*
X112366801Y-73788083D01*
X112307927Y-73645950D01*
X112222456Y-73518033D01*
X112170547Y-73466124D01*
X112222528Y-73414143D01*
X112307999Y-73286226D01*
X112366873Y-73144093D01*
X112396886Y-72993206D01*
X112396886Y-72839362D01*
X112366873Y-72688475D01*
X112307999Y-72546342D01*
X112222528Y-72418425D01*
X112113745Y-72309642D01*
X111985828Y-72224171D01*
X111843695Y-72165297D01*
X111692808Y-72135284D01*
X111538964Y-72135284D01*
X111388077Y-72165297D01*
X111245944Y-72224171D01*
X111118027Y-72309642D01*
X111009244Y-72418425D01*
X110923773Y-72546342D01*
X110864899Y-72688475D01*
X110834886Y-72839362D01*
X110834886Y-72993206D01*
X110864899Y-73144093D01*
X110923773Y-73286226D01*
X111009244Y-73414143D01*
X111061153Y-73466052D01*
X111009172Y-73518033D01*
X110923701Y-73645950D01*
X110864827Y-73788083D01*
X110852564Y-73849733D01*
X110250162Y-73849733D01*
X110278423Y-73707654D01*
X110278423Y-73553810D01*
X110248410Y-73402923D01*
X110189536Y-73260790D01*
X110104065Y-73132873D01*
X109995282Y-73024090D01*
X109867365Y-72938619D01*
X109725232Y-72879745D01*
X109574345Y-72849732D01*
X109420501Y-72849732D01*
X109269614Y-72879745D01*
X109127481Y-72938619D01*
X108999564Y-73024090D01*
X108890781Y-73132873D01*
X108805310Y-73260790D01*
X108794507Y-73286871D01*
X108482609Y-72974974D01*
X108465978Y-72954709D01*
X108385123Y-72888353D01*
X108292876Y-72839046D01*
X108192782Y-72808682D01*
X108114772Y-72800999D01*
X108114762Y-72800999D01*
X108088688Y-72798431D01*
X108062614Y-72800999D01*
X104144186Y-72800999D01*
X104250342Y-72694843D01*
X104379588Y-72501413D01*
X104468614Y-72286485D01*
X104514000Y-72058318D01*
X104514000Y-71825682D01*
X104471312Y-71611078D01*
X106615992Y-71611078D01*
X106615992Y-71764922D01*
X106646005Y-71915809D01*
X106704879Y-72057942D01*
X106790350Y-72185859D01*
X106899133Y-72294642D01*
X107027050Y-72380113D01*
X107169183Y-72438987D01*
X107320070Y-72469000D01*
X107473914Y-72469000D01*
X107624801Y-72438987D01*
X107766934Y-72380113D01*
X107894851Y-72294642D01*
X108003634Y-72185859D01*
X108089105Y-72057942D01*
X108147979Y-71915809D01*
X108177992Y-71764922D01*
X108177992Y-71611078D01*
X108147979Y-71460191D01*
X108089105Y-71318058D01*
X108003634Y-71190141D01*
X107894851Y-71081358D01*
X107766934Y-70995887D01*
X107624801Y-70937013D01*
X107473914Y-70907000D01*
X107320070Y-70907000D01*
X107169183Y-70937013D01*
X107027050Y-70995887D01*
X106899133Y-71081358D01*
X106790350Y-71190141D01*
X106704879Y-71318058D01*
X106646005Y-71460191D01*
X106615992Y-71611078D01*
X104471312Y-71611078D01*
X104468614Y-71597515D01*
X104379588Y-71382587D01*
X104250342Y-71189157D01*
X104085843Y-71024658D01*
X103892413Y-70895412D01*
X103677485Y-70806386D01*
X103449318Y-70761000D01*
X103216682Y-70761000D01*
X102988515Y-70806386D01*
X102773587Y-70895412D01*
X102580157Y-71024658D01*
X102415658Y-71189157D01*
X102286412Y-71382587D01*
X102197386Y-71597515D01*
X102152000Y-71825682D01*
X102152000Y-72058318D01*
X102197386Y-72286485D01*
X102286412Y-72501413D01*
X102415658Y-72694843D01*
X102521814Y-72800999D01*
X96890032Y-72800999D01*
X96895843Y-72742000D01*
X96895843Y-71142000D01*
X96888487Y-71067311D01*
X96866701Y-70995492D01*
X96831322Y-70929304D01*
X96783711Y-70871289D01*
X96725696Y-70823678D01*
X96659508Y-70788299D01*
X96587689Y-70766513D01*
X96513000Y-70759157D01*
X94913000Y-70759157D01*
X94838311Y-70766513D01*
X94766492Y-70788299D01*
X94700304Y-70823678D01*
X94642289Y-70871289D01*
X94594678Y-70929304D01*
X94559299Y-70995492D01*
X94537513Y-71067311D01*
X94530157Y-71142000D01*
X94530157Y-72742000D01*
X94535968Y-72800999D01*
X92063074Y-72800999D01*
X92037000Y-72798431D01*
X92010926Y-72800999D01*
X92010917Y-72800999D01*
X91932907Y-72808682D01*
X91832813Y-72839046D01*
X91772697Y-72871178D01*
X91740565Y-72888353D01*
X91684276Y-72934549D01*
X91659711Y-72954709D01*
X91643084Y-72974969D01*
X90663054Y-73955000D01*
X90556078Y-73955000D01*
X90405191Y-73985013D01*
X90263058Y-74043887D01*
X90135141Y-74129358D01*
X90026358Y-74238141D01*
X89940887Y-74366058D01*
X89882013Y-74508191D01*
X89852000Y-74659078D01*
X89852000Y-74812922D01*
X89882013Y-74963809D01*
X89940887Y-75105942D01*
X90026358Y-75233859D01*
X90135141Y-75342642D01*
X90263058Y-75428113D01*
X90405191Y-75486987D01*
X90556078Y-75517000D01*
X90709922Y-75517000D01*
X90860809Y-75486987D01*
X91002942Y-75428113D01*
X91130859Y-75342642D01*
X91239642Y-75233859D01*
X91268000Y-75191418D01*
X91296358Y-75233859D01*
X91405141Y-75342642D01*
X91533058Y-75428113D01*
X91675191Y-75486987D01*
X91826078Y-75517000D01*
X91979922Y-75517000D01*
X92130809Y-75486987D01*
X92272942Y-75428113D01*
X92400859Y-75342642D01*
X92509642Y-75233859D01*
X92595113Y-75105942D01*
X92653987Y-74963809D01*
X92684000Y-74812922D01*
X92684000Y-74659078D01*
X92653987Y-74508191D01*
X92595113Y-74366058D01*
X92509642Y-74238141D01*
X92400859Y-74129358D01*
X92272942Y-74043887D01*
X92133726Y-73986221D01*
X92256948Y-73862999D01*
X94706227Y-73862999D01*
X94666412Y-73922587D01*
X94577386Y-74137515D01*
X94532000Y-74365682D01*
X94532000Y-74598318D01*
X94577386Y-74826485D01*
X94666412Y-75041413D01*
X94795658Y-75234843D01*
X94960157Y-75399342D01*
X95032979Y-75448000D01*
X94929832Y-75448000D01*
X94907821Y-75450168D01*
X94892983Y-75450168D01*
X94886997Y-75450797D01*
X94665314Y-75475663D01*
X94627110Y-75483784D01*
X94588785Y-75491372D01*
X94583038Y-75493151D01*
X94583032Y-75493153D01*
X94370403Y-75560603D01*
X94334493Y-75575994D01*
X94298381Y-75590878D01*
X94293097Y-75593735D01*
X94293088Y-75593739D01*
X94293081Y-75593744D01*
X94097607Y-75701207D01*
X94065402Y-75723258D01*
X94032838Y-75744894D01*
X94028201Y-75748730D01*
X94024304Y-75752000D01*
X92284000Y-75752000D01*
X92259224Y-75754440D01*
X92235399Y-75761667D01*
X92213443Y-75773403D01*
X92194197Y-75789197D01*
X92178403Y-75808443D01*
X92166667Y-75830399D01*
X92159440Y-75854224D01*
X92157000Y-75879000D01*
X92157000Y-78334598D01*
X92067821Y-78423777D01*
X91894218Y-78683594D01*
X91774637Y-78972286D01*
X91713676Y-79278761D01*
X91713676Y-79591239D01*
X91774637Y-79897714D01*
X91894218Y-80186406D01*
X92067821Y-80446223D01*
X92157000Y-80535402D01*
X92157000Y-80714650D01*
X92020357Y-80578007D01*
X91859684Y-80470649D01*
X91681153Y-80396699D01*
X91491626Y-80359000D01*
X91298386Y-80359000D01*
X91108859Y-80396699D01*
X90930328Y-80470649D01*
X90769655Y-80578007D01*
X90633013Y-80714649D01*
X90525655Y-80875322D01*
X90451705Y-81053853D01*
X90414006Y-81243380D01*
X90414006Y-81436620D01*
X90451705Y-81626147D01*
X90525655Y-81804678D01*
X90633013Y-81965351D01*
X90769655Y-82101993D01*
X90930328Y-82209351D01*
X91108859Y-82283301D01*
X91298386Y-82321000D01*
X91491626Y-82321000D01*
X91681153Y-82283301D01*
X91859684Y-82209351D01*
X92020357Y-82101993D01*
X92157000Y-81965350D01*
X92157000Y-83541598D01*
X92067821Y-83630777D01*
X91894218Y-83890594D01*
X91774637Y-84179286D01*
X91713676Y-84485761D01*
X91713676Y-84515000D01*
X85553000Y-84515000D01*
X85553000Y-84076021D01*
X86272989Y-84076021D01*
X86377486Y-84277082D01*
X86618273Y-84403666D01*
X86879129Y-84480844D01*
X87150029Y-84505649D01*
X87420563Y-84477126D01*
X87680334Y-84396373D01*
X87903514Y-84277082D01*
X88008011Y-84076021D01*
X87140500Y-83208510D01*
X86272989Y-84076021D01*
X85553000Y-84076021D01*
X85553000Y-83127529D01*
X85752851Y-83127529D01*
X85781374Y-83398063D01*
X85862127Y-83657834D01*
X85981418Y-83881014D01*
X86182479Y-83985511D01*
X87049990Y-83118000D01*
X87231010Y-83118000D01*
X88098521Y-83985511D01*
X88299582Y-83881014D01*
X88426166Y-83640227D01*
X88503344Y-83379371D01*
X88528149Y-83108471D01*
X88499626Y-82837937D01*
X88418873Y-82578166D01*
X88299582Y-82354986D01*
X88098521Y-82250489D01*
X87231010Y-83118000D01*
X87049990Y-83118000D01*
X86182479Y-82250489D01*
X85981418Y-82354986D01*
X85854834Y-82595773D01*
X85777656Y-82856629D01*
X85752851Y-83127529D01*
X85553000Y-83127529D01*
X85553000Y-82662606D01*
X86055627Y-82159979D01*
X86272989Y-82159979D01*
X87140500Y-83027490D01*
X88008011Y-82159979D01*
X87903514Y-81958918D01*
X87662727Y-81832334D01*
X87401871Y-81755156D01*
X87130971Y-81730351D01*
X86860437Y-81758874D01*
X86600666Y-81839627D01*
X86377486Y-81958918D01*
X86272989Y-82159979D01*
X86055627Y-82159979D01*
X88055803Y-80159803D01*
X88071597Y-80140557D01*
X88083333Y-80118601D01*
X88090560Y-80094776D01*
X88093000Y-80070000D01*
X88093000Y-70722078D01*
X111214000Y-70722078D01*
X111214000Y-70875922D01*
X111244013Y-71026809D01*
X111302887Y-71168942D01*
X111388358Y-71296859D01*
X111497141Y-71405642D01*
X111625058Y-71491113D01*
X111767191Y-71549987D01*
X111918078Y-71580000D01*
X112071922Y-71580000D01*
X112222809Y-71549987D01*
X112364942Y-71491113D01*
X112492859Y-71405642D01*
X112601642Y-71296859D01*
X112687113Y-71168942D01*
X112745987Y-71026809D01*
X112776000Y-70875922D01*
X112776000Y-70722078D01*
X112748551Y-70584078D01*
X113474000Y-70584078D01*
X113474000Y-70737922D01*
X113504013Y-70888809D01*
X113562887Y-71030942D01*
X113648358Y-71158859D01*
X113757141Y-71267642D01*
X113885058Y-71353113D01*
X114027191Y-71411987D01*
X114178078Y-71442000D01*
X114331922Y-71442000D01*
X114482809Y-71411987D01*
X114624942Y-71353113D01*
X114752859Y-71267642D01*
X114861642Y-71158859D01*
X114872906Y-71142000D01*
X115104157Y-71142000D01*
X115104157Y-72742000D01*
X115111513Y-72816689D01*
X115133299Y-72888508D01*
X115168678Y-72954696D01*
X115216289Y-73012711D01*
X115274304Y-73060322D01*
X115340492Y-73095701D01*
X115412311Y-73117487D01*
X115487000Y-73124843D01*
X117087000Y-73124843D01*
X117161689Y-73117487D01*
X117233508Y-73095701D01*
X117299696Y-73060322D01*
X117357711Y-73012711D01*
X117405322Y-72954696D01*
X117440701Y-72888508D01*
X117462487Y-72816689D01*
X117469843Y-72742000D01*
X117469843Y-71142000D01*
X117462487Y-71067311D01*
X117440701Y-70995492D01*
X117405322Y-70929304D01*
X117357711Y-70871289D01*
X117299696Y-70823678D01*
X117233508Y-70788299D01*
X117161689Y-70766513D01*
X117087000Y-70759157D01*
X115487000Y-70759157D01*
X115412311Y-70766513D01*
X115340492Y-70788299D01*
X115274304Y-70823678D01*
X115216289Y-70871289D01*
X115168678Y-70929304D01*
X115133299Y-70995492D01*
X115111513Y-71067311D01*
X115104157Y-71142000D01*
X114872906Y-71142000D01*
X114947113Y-71030942D01*
X115005987Y-70888809D01*
X115036000Y-70737922D01*
X115036000Y-70584078D01*
X115005987Y-70433191D01*
X114947113Y-70291058D01*
X114861642Y-70163141D01*
X114752859Y-70054358D01*
X114624942Y-69968887D01*
X114482809Y-69910013D01*
X114331922Y-69880000D01*
X114178078Y-69880000D01*
X114027191Y-69910013D01*
X113885058Y-69968887D01*
X113757141Y-70054358D01*
X113648358Y-70163141D01*
X113562887Y-70291058D01*
X113504013Y-70433191D01*
X113474000Y-70584078D01*
X112748551Y-70584078D01*
X112745987Y-70571191D01*
X112687113Y-70429058D01*
X112601642Y-70301141D01*
X112492859Y-70192358D01*
X112364942Y-70106887D01*
X112222809Y-70048013D01*
X112071922Y-70018000D01*
X111918078Y-70018000D01*
X111767191Y-70048013D01*
X111625058Y-70106887D01*
X111497141Y-70192358D01*
X111388358Y-70301141D01*
X111302887Y-70429058D01*
X111244013Y-70571191D01*
X111214000Y-70722078D01*
X88093000Y-70722078D01*
X88093000Y-69198078D01*
X89699000Y-69198078D01*
X89699000Y-69351922D01*
X89729013Y-69502809D01*
X89787887Y-69644942D01*
X89873358Y-69772859D01*
X89982141Y-69881642D01*
X90110058Y-69967113D01*
X90252191Y-70025987D01*
X90403078Y-70056000D01*
X90556922Y-70056000D01*
X90707809Y-70025987D01*
X90849942Y-69967113D01*
X90977859Y-69881642D01*
X91086642Y-69772859D01*
X91172113Y-69644942D01*
X91230987Y-69502809D01*
X91241077Y-69452078D01*
X95186000Y-69452078D01*
X95186000Y-69605922D01*
X95216013Y-69756809D01*
X95274887Y-69898942D01*
X95360358Y-70026859D01*
X95469141Y-70135642D01*
X95597058Y-70221113D01*
X95739191Y-70279987D01*
X95890078Y-70310000D01*
X96043922Y-70310000D01*
X96194809Y-70279987D01*
X96336942Y-70221113D01*
X96464859Y-70135642D01*
X96573642Y-70026859D01*
X96659113Y-69898942D01*
X96717987Y-69756809D01*
X96729000Y-69701442D01*
X96740013Y-69756809D01*
X96798887Y-69898942D01*
X96884358Y-70026859D01*
X96993141Y-70135642D01*
X97121058Y-70221113D01*
X97263191Y-70279987D01*
X97414078Y-70310000D01*
X97567922Y-70310000D01*
X97718809Y-70279987D01*
X97860942Y-70221113D01*
X97988859Y-70135642D01*
X98097642Y-70026859D01*
X98183113Y-69898942D01*
X98241987Y-69756809D01*
X98272000Y-69605922D01*
X98272000Y-69452078D01*
X98241987Y-69301191D01*
X98183113Y-69159058D01*
X98097642Y-69031141D01*
X97988859Y-68922358D01*
X97860942Y-68836887D01*
X97718809Y-68778013D01*
X97567922Y-68748000D01*
X97414078Y-68748000D01*
X97263191Y-68778013D01*
X97121058Y-68836887D01*
X96993141Y-68922358D01*
X96884358Y-69031141D01*
X96798887Y-69159058D01*
X96740013Y-69301191D01*
X96729000Y-69356558D01*
X96717987Y-69301191D01*
X96659113Y-69159058D01*
X96573642Y-69031141D01*
X96464859Y-68922358D01*
X96336942Y-68836887D01*
X96194809Y-68778013D01*
X96043922Y-68748000D01*
X95890078Y-68748000D01*
X95739191Y-68778013D01*
X95597058Y-68836887D01*
X95469141Y-68922358D01*
X95360358Y-69031141D01*
X95274887Y-69159058D01*
X95216013Y-69301191D01*
X95186000Y-69452078D01*
X91241077Y-69452078D01*
X91261000Y-69351922D01*
X91261000Y-69198078D01*
X91230987Y-69047191D01*
X91172113Y-68905058D01*
X91086642Y-68777141D01*
X90977859Y-68668358D01*
X90849942Y-68582887D01*
X90707809Y-68524013D01*
X90556922Y-68494000D01*
X90403078Y-68494000D01*
X90252191Y-68524013D01*
X90110058Y-68582887D01*
X89982141Y-68668358D01*
X89873358Y-68777141D01*
X89787887Y-68905058D01*
X89729013Y-69047191D01*
X89699000Y-69198078D01*
X88093000Y-69198078D01*
X88093000Y-67801078D01*
X95186000Y-67801078D01*
X95186000Y-67954922D01*
X95216013Y-68105809D01*
X95274887Y-68247942D01*
X95360358Y-68375859D01*
X95469141Y-68484642D01*
X95597058Y-68570113D01*
X95739191Y-68628987D01*
X95890078Y-68659000D01*
X96043922Y-68659000D01*
X96194809Y-68628987D01*
X96336942Y-68570113D01*
X96464859Y-68484642D01*
X96573642Y-68375859D01*
X96659113Y-68247942D01*
X96717987Y-68105809D01*
X96729000Y-68050442D01*
X96740013Y-68105809D01*
X96798887Y-68247942D01*
X96884358Y-68375859D01*
X96993141Y-68484642D01*
X97121058Y-68570113D01*
X97263191Y-68628987D01*
X97414078Y-68659000D01*
X97567922Y-68659000D01*
X97718809Y-68628987D01*
X97860942Y-68570113D01*
X97988859Y-68484642D01*
X98097642Y-68375859D01*
X98183113Y-68247942D01*
X98241987Y-68105809D01*
X98272000Y-67954922D01*
X98272000Y-67801078D01*
X98241987Y-67650191D01*
X98183113Y-67508058D01*
X98097642Y-67380141D01*
X97988859Y-67271358D01*
X97860942Y-67185887D01*
X97718809Y-67127013D01*
X97567922Y-67097000D01*
X97414078Y-67097000D01*
X97263191Y-67127013D01*
X97121058Y-67185887D01*
X96993141Y-67271358D01*
X96884358Y-67380141D01*
X96798887Y-67508058D01*
X96740013Y-67650191D01*
X96729000Y-67705558D01*
X96717987Y-67650191D01*
X96659113Y-67508058D01*
X96573642Y-67380141D01*
X96464859Y-67271358D01*
X96336942Y-67185887D01*
X96194809Y-67127013D01*
X96043922Y-67097000D01*
X95890078Y-67097000D01*
X95739191Y-67127013D01*
X95597058Y-67185887D01*
X95469141Y-67271358D01*
X95360358Y-67380141D01*
X95274887Y-67508058D01*
X95216013Y-67650191D01*
X95186000Y-67801078D01*
X88093000Y-67801078D01*
X88093000Y-66931000D01*
X125177000Y-66931000D01*
X125177000Y-67281499D01*
G37*
%TD.AperFunction*%
%TD*%
D22*
%TO.N,GND2*%
X125177000Y-92281499D02*
X125166859Y-92271358D01*
X125038942Y-92185887D01*
X124896809Y-92127013D01*
X124745922Y-92097000D01*
X124592078Y-92097000D01*
X124441191Y-92127013D01*
X124299058Y-92185887D01*
X124171141Y-92271358D01*
X124062358Y-92380141D01*
X123976887Y-92508058D01*
X123918013Y-92650191D01*
X123907000Y-92705558D01*
X123895987Y-92650191D01*
X123837113Y-92508058D01*
X123751642Y-92380141D01*
X123642859Y-92271358D01*
X123514942Y-92185887D01*
X123372809Y-92127013D01*
X123221922Y-92097000D01*
X123068078Y-92097000D01*
X122917191Y-92127013D01*
X122775058Y-92185887D01*
X122647141Y-92271358D01*
X122538358Y-92380141D01*
X122452887Y-92508058D01*
X122394013Y-92650191D01*
X122364000Y-92801078D01*
X122364000Y-92954922D01*
X122394013Y-93105809D01*
X122452887Y-93247942D01*
X122538358Y-93375859D01*
X122647141Y-93484642D01*
X122775058Y-93570113D01*
X122917191Y-93628987D01*
X123068078Y-93659000D01*
X123221922Y-93659000D01*
X123372809Y-93628987D01*
X123514942Y-93570113D01*
X123642859Y-93484642D01*
X123751642Y-93375859D01*
X123837113Y-93247942D01*
X123895987Y-93105809D01*
X123907000Y-93050442D01*
X123918013Y-93105809D01*
X123976887Y-93247942D01*
X124062358Y-93375859D01*
X124171141Y-93484642D01*
X124299058Y-93570113D01*
X124441191Y-93628987D01*
X124592078Y-93659000D01*
X124745922Y-93659000D01*
X124896809Y-93628987D01*
X125038942Y-93570113D01*
X125166859Y-93484642D01*
X125177000Y-93474501D01*
X125177000Y-93561289D01*
X125136693Y-93637096D01*
X125121817Y-93673188D01*
X125106419Y-93709114D01*
X125104640Y-93714863D01*
X125062954Y-93852931D01*
X125038942Y-93836887D01*
X124896809Y-93778013D01*
X124745922Y-93748000D01*
X124592078Y-93748000D01*
X124441191Y-93778013D01*
X124299058Y-93836887D01*
X124171141Y-93922358D01*
X124062358Y-94031141D01*
X123976887Y-94159058D01*
X123918013Y-94301191D01*
X123907000Y-94356558D01*
X123895987Y-94301191D01*
X123837113Y-94159058D01*
X123751642Y-94031141D01*
X123642859Y-93922358D01*
X123514942Y-93836887D01*
X123372809Y-93778013D01*
X123221922Y-93748000D01*
X123068078Y-93748000D01*
X122917191Y-93778013D01*
X122775058Y-93836887D01*
X122647141Y-93922358D01*
X122538358Y-94031141D01*
X122452887Y-94159058D01*
X122394013Y-94301191D01*
X122364000Y-94452078D01*
X122364000Y-94605922D01*
X122394013Y-94756809D01*
X122452887Y-94898942D01*
X122538358Y-95026859D01*
X122647141Y-95135642D01*
X122775058Y-95221113D01*
X122917191Y-95279987D01*
X123068078Y-95310000D01*
X123221922Y-95310000D01*
X123372809Y-95279987D01*
X123514942Y-95221113D01*
X123642859Y-95135642D01*
X123751642Y-95026859D01*
X123837113Y-94898942D01*
X123895987Y-94756809D01*
X123907000Y-94701442D01*
X123918013Y-94756809D01*
X123976887Y-94898942D01*
X124062358Y-95026859D01*
X124171141Y-95135642D01*
X124299058Y-95221113D01*
X124441191Y-95279987D01*
X124592078Y-95310000D01*
X124745922Y-95310000D01*
X124896809Y-95279987D01*
X125000001Y-95237243D01*
X125000000Y-96494636D01*
X124953588Y-96382587D01*
X124824342Y-96189157D01*
X124659843Y-96024658D01*
X124466413Y-95895412D01*
X124251485Y-95806386D01*
X124023318Y-95761000D01*
X123790682Y-95761000D01*
X123562515Y-95806386D01*
X123347587Y-95895412D01*
X123154157Y-96024658D01*
X122989658Y-96189157D01*
X122860412Y-96382587D01*
X122771386Y-96597515D01*
X122726000Y-96825682D01*
X122726000Y-97058318D01*
X122771386Y-97286485D01*
X122860412Y-97501413D01*
X122989658Y-97694843D01*
X123154157Y-97859342D01*
X123347587Y-97988588D01*
X123562515Y-98077614D01*
X123790682Y-98123000D01*
X124023318Y-98123000D01*
X124251485Y-98077614D01*
X124466413Y-97988588D01*
X124659843Y-97859342D01*
X124824342Y-97694843D01*
X124953588Y-97501413D01*
X125000000Y-97389364D01*
X125000000Y-97471167D01*
X125002168Y-97493178D01*
X125002168Y-97508017D01*
X125002797Y-97514002D01*
X125027663Y-97735686D01*
X125035784Y-97773890D01*
X125043372Y-97812215D01*
X125045152Y-97817964D01*
X125112603Y-98030597D01*
X125127989Y-98066495D01*
X125142878Y-98102619D01*
X125145735Y-98107903D01*
X125145739Y-98107912D01*
X125145744Y-98107919D01*
X125177000Y-98164774D01*
X125177000Y-100536899D01*
X125015584Y-100488164D01*
X124977298Y-100480583D01*
X124939053Y-100472454D01*
X124933070Y-100471825D01*
X124933068Y-100471825D01*
X124711058Y-100450057D01*
X124711052Y-100450057D01*
X124690168Y-100448000D01*
X124587021Y-100448000D01*
X124659843Y-100399342D01*
X124824342Y-100234843D01*
X124953588Y-100041413D01*
X125042614Y-99826485D01*
X125088000Y-99598318D01*
X125088000Y-99365682D01*
X125042614Y-99137515D01*
X124953588Y-98922587D01*
X124824342Y-98729157D01*
X124659843Y-98564658D01*
X124466413Y-98435412D01*
X124251485Y-98346386D01*
X124023318Y-98301000D01*
X123790682Y-98301000D01*
X123562515Y-98346386D01*
X123347587Y-98435412D01*
X123154157Y-98564658D01*
X122989658Y-98729157D01*
X122860412Y-98922587D01*
X122771386Y-99137515D01*
X122726000Y-99365682D01*
X122726000Y-99598318D01*
X122771386Y-99826485D01*
X122860412Y-100041413D01*
X122989658Y-100234843D01*
X123154157Y-100399342D01*
X123226979Y-100448000D01*
X123123832Y-100448000D01*
X123101821Y-100450168D01*
X123086983Y-100450168D01*
X123080997Y-100450797D01*
X122859314Y-100475663D01*
X122821110Y-100483784D01*
X122782785Y-100491372D01*
X122777038Y-100493151D01*
X122777032Y-100493153D01*
X122564403Y-100560603D01*
X122528493Y-100575994D01*
X122492381Y-100590878D01*
X122487097Y-100593735D01*
X122487088Y-100593739D01*
X122487081Y-100593744D01*
X122291607Y-100701207D01*
X122259402Y-100723258D01*
X122226838Y-100744894D01*
X122222201Y-100748730D01*
X122218304Y-100752000D01*
X117973586Y-100752000D01*
X117953932Y-100735971D01*
X117921433Y-100714378D01*
X117889162Y-100692282D01*
X117883868Y-100689420D01*
X117686904Y-100584693D01*
X117650812Y-100569817D01*
X117614886Y-100554419D01*
X117609137Y-100552640D01*
X117609139Y-100552640D01*
X117609131Y-100552638D01*
X117395584Y-100488164D01*
X117357298Y-100480583D01*
X117319053Y-100472454D01*
X117313070Y-100471825D01*
X117313068Y-100471825D01*
X117091058Y-100450057D01*
X117091052Y-100450057D01*
X117070168Y-100448000D01*
X116967021Y-100448000D01*
X117039843Y-100399342D01*
X117204342Y-100234843D01*
X117333588Y-100041413D01*
X117422614Y-99826485D01*
X117468000Y-99598318D01*
X117468000Y-99365682D01*
X117422614Y-99137515D01*
X117333588Y-98922587D01*
X117204342Y-98729157D01*
X117039843Y-98564658D01*
X116846413Y-98435412D01*
X116631485Y-98346386D01*
X116403318Y-98301000D01*
X116170682Y-98301000D01*
X115942515Y-98346386D01*
X115727587Y-98435412D01*
X115534157Y-98564658D01*
X115369658Y-98729157D01*
X115240412Y-98922587D01*
X115151386Y-99137515D01*
X115106000Y-99365682D01*
X115106000Y-99598318D01*
X115151386Y-99826485D01*
X115240412Y-100041413D01*
X115369658Y-100234843D01*
X115534157Y-100399342D01*
X115606979Y-100448000D01*
X115503832Y-100448000D01*
X115481821Y-100450168D01*
X115466983Y-100450168D01*
X115460997Y-100450797D01*
X115239314Y-100475663D01*
X115201110Y-100483784D01*
X115162785Y-100491372D01*
X115157038Y-100493151D01*
X115157032Y-100493153D01*
X114944403Y-100560603D01*
X114908493Y-100575994D01*
X114872381Y-100590878D01*
X114867097Y-100593735D01*
X114867088Y-100593739D01*
X114867081Y-100593744D01*
X114671607Y-100701207D01*
X114639402Y-100723258D01*
X114606838Y-100744894D01*
X114602201Y-100748730D01*
X114598304Y-100752000D01*
X105019586Y-100752000D01*
X104999932Y-100735971D01*
X104967433Y-100714378D01*
X104935162Y-100692282D01*
X104929868Y-100689420D01*
X104732904Y-100584693D01*
X104696812Y-100569817D01*
X104660886Y-100554419D01*
X104655137Y-100552640D01*
X104655139Y-100552640D01*
X104655131Y-100552638D01*
X104441584Y-100488164D01*
X104403298Y-100480583D01*
X104365053Y-100472454D01*
X104359070Y-100471825D01*
X104359068Y-100471825D01*
X104137058Y-100450057D01*
X104137052Y-100450057D01*
X104116168Y-100448000D01*
X104013021Y-100448000D01*
X104085843Y-100399342D01*
X104250342Y-100234843D01*
X104379588Y-100041413D01*
X104468614Y-99826485D01*
X104514000Y-99598318D01*
X104514000Y-99365682D01*
X104468614Y-99137515D01*
X104379588Y-98922587D01*
X104339773Y-98862999D01*
X107868742Y-98862999D01*
X108743505Y-99737763D01*
X108760132Y-99758023D01*
X108780392Y-99774650D01*
X108840986Y-99824379D01*
X108933234Y-99873686D01*
X109033328Y-99904050D01*
X109111338Y-99911733D01*
X109111348Y-99911733D01*
X109137422Y-99914301D01*
X109163496Y-99911733D01*
X111224899Y-99911733D01*
X111250973Y-99914301D01*
X111277047Y-99911733D01*
X111277057Y-99911733D01*
X111355067Y-99904050D01*
X111455161Y-99873686D01*
X111547408Y-99824379D01*
X111580901Y-99796892D01*
X111692736Y-99796892D01*
X111843623Y-99766879D01*
X111985756Y-99708005D01*
X112113673Y-99622534D01*
X112222456Y-99513751D01*
X112307927Y-99385834D01*
X112316938Y-99364078D01*
X113052000Y-99364078D01*
X113052000Y-99517922D01*
X113082013Y-99668809D01*
X113140887Y-99810942D01*
X113226358Y-99938859D01*
X113335141Y-100047642D01*
X113463058Y-100133113D01*
X113605191Y-100191987D01*
X113756078Y-100222000D01*
X113909922Y-100222000D01*
X114060809Y-100191987D01*
X114202942Y-100133113D01*
X114330859Y-100047642D01*
X114439642Y-99938859D01*
X114525113Y-99810942D01*
X114583987Y-99668809D01*
X114614000Y-99517922D01*
X114614000Y-99364078D01*
X114583987Y-99213191D01*
X114525113Y-99071058D01*
X114439642Y-98943141D01*
X114330859Y-98834358D01*
X114202942Y-98748887D01*
X114060809Y-98690013D01*
X113909922Y-98660000D01*
X113756078Y-98660000D01*
X113605191Y-98690013D01*
X113463058Y-98748887D01*
X113335141Y-98834358D01*
X113226358Y-98943141D01*
X113140887Y-99071058D01*
X113082013Y-99213191D01*
X113052000Y-99364078D01*
X112316938Y-99364078D01*
X112366801Y-99243701D01*
X112396814Y-99092814D01*
X112396814Y-98938970D01*
X112366801Y-98788083D01*
X112307927Y-98645950D01*
X112222456Y-98518033D01*
X112170547Y-98466124D01*
X112222528Y-98414143D01*
X112307999Y-98286226D01*
X112366873Y-98144093D01*
X112396886Y-97993206D01*
X112396886Y-97839362D01*
X112366873Y-97688475D01*
X112307999Y-97546342D01*
X112222528Y-97418425D01*
X112113745Y-97309642D01*
X111985828Y-97224171D01*
X111843695Y-97165297D01*
X111692808Y-97135284D01*
X111538964Y-97135284D01*
X111388077Y-97165297D01*
X111245944Y-97224171D01*
X111118027Y-97309642D01*
X111009244Y-97418425D01*
X110923773Y-97546342D01*
X110864899Y-97688475D01*
X110834886Y-97839362D01*
X110834886Y-97993206D01*
X110864899Y-98144093D01*
X110923773Y-98286226D01*
X111009244Y-98414143D01*
X111061153Y-98466052D01*
X111009172Y-98518033D01*
X110923701Y-98645950D01*
X110864827Y-98788083D01*
X110852564Y-98849733D01*
X110250162Y-98849733D01*
X110278423Y-98707654D01*
X110278423Y-98553810D01*
X110248410Y-98402923D01*
X110189536Y-98260790D01*
X110104065Y-98132873D01*
X109995282Y-98024090D01*
X109867365Y-97938619D01*
X109725232Y-97879745D01*
X109574345Y-97849732D01*
X109420501Y-97849732D01*
X109269614Y-97879745D01*
X109127481Y-97938619D01*
X108999564Y-98024090D01*
X108890781Y-98132873D01*
X108805310Y-98260790D01*
X108794507Y-98286871D01*
X108482609Y-97974974D01*
X108465978Y-97954709D01*
X108385123Y-97888353D01*
X108292876Y-97839046D01*
X108192782Y-97808682D01*
X108114772Y-97800999D01*
X108114762Y-97800999D01*
X108088688Y-97798431D01*
X108062614Y-97800999D01*
X104144186Y-97800999D01*
X104250342Y-97694843D01*
X104379588Y-97501413D01*
X104468614Y-97286485D01*
X104514000Y-97058318D01*
X104514000Y-96825682D01*
X104471312Y-96611078D01*
X106615992Y-96611078D01*
X106615992Y-96764922D01*
X106646005Y-96915809D01*
X106704879Y-97057942D01*
X106790350Y-97185859D01*
X106899133Y-97294642D01*
X107027050Y-97380113D01*
X107169183Y-97438987D01*
X107320070Y-97469000D01*
X107473914Y-97469000D01*
X107624801Y-97438987D01*
X107766934Y-97380113D01*
X107894851Y-97294642D01*
X108003634Y-97185859D01*
X108089105Y-97057942D01*
X108147979Y-96915809D01*
X108177992Y-96764922D01*
X108177992Y-96611078D01*
X108147979Y-96460191D01*
X108089105Y-96318058D01*
X108003634Y-96190141D01*
X107894851Y-96081358D01*
X107766934Y-95995887D01*
X107624801Y-95937013D01*
X107473914Y-95907000D01*
X107320070Y-95907000D01*
X107169183Y-95937013D01*
X107027050Y-95995887D01*
X106899133Y-96081358D01*
X106790350Y-96190141D01*
X106704879Y-96318058D01*
X106646005Y-96460191D01*
X106615992Y-96611078D01*
X104471312Y-96611078D01*
X104468614Y-96597515D01*
X104379588Y-96382587D01*
X104250342Y-96189157D01*
X104085843Y-96024658D01*
X103892413Y-95895412D01*
X103677485Y-95806386D01*
X103449318Y-95761000D01*
X103216682Y-95761000D01*
X102988515Y-95806386D01*
X102773587Y-95895412D01*
X102580157Y-96024658D01*
X102415658Y-96189157D01*
X102286412Y-96382587D01*
X102197386Y-96597515D01*
X102152000Y-96825682D01*
X102152000Y-97058318D01*
X102197386Y-97286485D01*
X102286412Y-97501413D01*
X102415658Y-97694843D01*
X102521814Y-97800999D01*
X96890032Y-97800999D01*
X96895843Y-97742000D01*
X96895843Y-96142000D01*
X96888487Y-96067311D01*
X96866701Y-95995492D01*
X96831322Y-95929304D01*
X96783711Y-95871289D01*
X96725696Y-95823678D01*
X96659508Y-95788299D01*
X96587689Y-95766513D01*
X96513000Y-95759157D01*
X94913000Y-95759157D01*
X94838311Y-95766513D01*
X94766492Y-95788299D01*
X94700304Y-95823678D01*
X94642289Y-95871289D01*
X94594678Y-95929304D01*
X94559299Y-95995492D01*
X94537513Y-96067311D01*
X94530157Y-96142000D01*
X94530157Y-97742000D01*
X94535968Y-97800999D01*
X92063074Y-97800999D01*
X92037000Y-97798431D01*
X92010926Y-97800999D01*
X92010917Y-97800999D01*
X91932907Y-97808682D01*
X91832813Y-97839046D01*
X91772697Y-97871178D01*
X91740565Y-97888353D01*
X91684276Y-97934549D01*
X91659711Y-97954709D01*
X91643084Y-97974969D01*
X90663054Y-98955000D01*
X90556078Y-98955000D01*
X90405191Y-98985013D01*
X90263058Y-99043887D01*
X90135141Y-99129358D01*
X90026358Y-99238141D01*
X89940887Y-99366058D01*
X89882013Y-99508191D01*
X89852000Y-99659078D01*
X89852000Y-99812922D01*
X89882013Y-99963809D01*
X89940887Y-100105942D01*
X90026358Y-100233859D01*
X90135141Y-100342642D01*
X90263058Y-100428113D01*
X90405191Y-100486987D01*
X90556078Y-100517000D01*
X90709922Y-100517000D01*
X90860809Y-100486987D01*
X91002942Y-100428113D01*
X91130859Y-100342642D01*
X91239642Y-100233859D01*
X91268000Y-100191418D01*
X91296358Y-100233859D01*
X91405141Y-100342642D01*
X91533058Y-100428113D01*
X91675191Y-100486987D01*
X91826078Y-100517000D01*
X91979922Y-100517000D01*
X92130809Y-100486987D01*
X92272942Y-100428113D01*
X92400859Y-100342642D01*
X92509642Y-100233859D01*
X92595113Y-100105942D01*
X92653987Y-99963809D01*
X92684000Y-99812922D01*
X92684000Y-99659078D01*
X92653987Y-99508191D01*
X92595113Y-99366058D01*
X92509642Y-99238141D01*
X92400859Y-99129358D01*
X92272942Y-99043887D01*
X92133726Y-98986221D01*
X92256948Y-98862999D01*
X94706227Y-98862999D01*
X94666412Y-98922587D01*
X94577386Y-99137515D01*
X94532000Y-99365682D01*
X94532000Y-99598318D01*
X94577386Y-99826485D01*
X94666412Y-100041413D01*
X94795658Y-100234843D01*
X94960157Y-100399342D01*
X95032979Y-100448000D01*
X94929832Y-100448000D01*
X94907821Y-100450168D01*
X94892983Y-100450168D01*
X94886997Y-100450797D01*
X94665314Y-100475663D01*
X94627110Y-100483784D01*
X94588785Y-100491372D01*
X94583038Y-100493151D01*
X94583032Y-100493153D01*
X94370403Y-100560603D01*
X94334493Y-100575994D01*
X94298381Y-100590878D01*
X94293097Y-100593735D01*
X94293088Y-100593739D01*
X94293081Y-100593744D01*
X94097607Y-100701207D01*
X94065402Y-100723258D01*
X94032838Y-100744894D01*
X94028201Y-100748730D01*
X94024304Y-100752000D01*
X92284000Y-100752000D01*
X92259224Y-100754440D01*
X92235399Y-100761667D01*
X92213443Y-100773403D01*
X92194197Y-100789197D01*
X92178403Y-100808443D01*
X92166667Y-100830399D01*
X92159440Y-100854224D01*
X92157000Y-100879000D01*
X92157000Y-103334598D01*
X92067821Y-103423777D01*
X91894218Y-103683594D01*
X91774637Y-103972286D01*
X91713676Y-104278761D01*
X91713676Y-104591239D01*
X91774637Y-104897714D01*
X91894218Y-105186406D01*
X92067821Y-105446223D01*
X92157000Y-105535402D01*
X92157000Y-105714650D01*
X92020357Y-105578007D01*
X91859684Y-105470649D01*
X91681153Y-105396699D01*
X91491626Y-105359000D01*
X91298386Y-105359000D01*
X91108859Y-105396699D01*
X90930328Y-105470649D01*
X90769655Y-105578007D01*
X90633013Y-105714649D01*
X90525655Y-105875322D01*
X90451705Y-106053853D01*
X90414006Y-106243380D01*
X90414006Y-106436620D01*
X90451705Y-106626147D01*
X90525655Y-106804678D01*
X90633013Y-106965351D01*
X90769655Y-107101993D01*
X90930328Y-107209351D01*
X91108859Y-107283301D01*
X91298386Y-107321000D01*
X91491626Y-107321000D01*
X91681153Y-107283301D01*
X91859684Y-107209351D01*
X92020357Y-107101993D01*
X92157000Y-106965350D01*
X92157000Y-108541598D01*
X92067821Y-108630777D01*
X91894218Y-108890594D01*
X91774637Y-109179286D01*
X91713676Y-109485761D01*
X91713676Y-109515000D01*
X85553000Y-109515000D01*
X85553000Y-109076021D01*
X86272989Y-109076021D01*
X86377486Y-109277082D01*
X86618273Y-109403666D01*
X86879129Y-109480844D01*
X87150029Y-109505649D01*
X87420563Y-109477126D01*
X87680334Y-109396373D01*
X87903514Y-109277082D01*
X88008011Y-109076021D01*
X87140500Y-108208510D01*
X86272989Y-109076021D01*
X85553000Y-109076021D01*
X85553000Y-108127529D01*
X85752851Y-108127529D01*
X85781374Y-108398063D01*
X85862127Y-108657834D01*
X85981418Y-108881014D01*
X86182479Y-108985511D01*
X87049990Y-108118000D01*
X87231010Y-108118000D01*
X88098521Y-108985511D01*
X88299582Y-108881014D01*
X88426166Y-108640227D01*
X88503344Y-108379371D01*
X88528149Y-108108471D01*
X88499626Y-107837937D01*
X88418873Y-107578166D01*
X88299582Y-107354986D01*
X88098521Y-107250489D01*
X87231010Y-108118000D01*
X87049990Y-108118000D01*
X86182479Y-107250489D01*
X85981418Y-107354986D01*
X85854834Y-107595773D01*
X85777656Y-107856629D01*
X85752851Y-108127529D01*
X85553000Y-108127529D01*
X85553000Y-107662606D01*
X86055627Y-107159979D01*
X86272989Y-107159979D01*
X87140500Y-108027490D01*
X88008011Y-107159979D01*
X87903514Y-106958918D01*
X87662727Y-106832334D01*
X87401871Y-106755156D01*
X87130971Y-106730351D01*
X86860437Y-106758874D01*
X86600666Y-106839627D01*
X86377486Y-106958918D01*
X86272989Y-107159979D01*
X86055627Y-107159979D01*
X88055803Y-105159803D01*
X88071597Y-105140557D01*
X88083333Y-105118601D01*
X88090560Y-105094776D01*
X88093000Y-105070000D01*
X88093000Y-95722078D01*
X111214000Y-95722078D01*
X111214000Y-95875922D01*
X111244013Y-96026809D01*
X111302887Y-96168942D01*
X111388358Y-96296859D01*
X111497141Y-96405642D01*
X111625058Y-96491113D01*
X111767191Y-96549987D01*
X111918078Y-96580000D01*
X112071922Y-96580000D01*
X112222809Y-96549987D01*
X112364942Y-96491113D01*
X112492859Y-96405642D01*
X112601642Y-96296859D01*
X112687113Y-96168942D01*
X112745987Y-96026809D01*
X112776000Y-95875922D01*
X112776000Y-95722078D01*
X112748551Y-95584078D01*
X113474000Y-95584078D01*
X113474000Y-95737922D01*
X113504013Y-95888809D01*
X113562887Y-96030942D01*
X113648358Y-96158859D01*
X113757141Y-96267642D01*
X113885058Y-96353113D01*
X114027191Y-96411987D01*
X114178078Y-96442000D01*
X114331922Y-96442000D01*
X114482809Y-96411987D01*
X114624942Y-96353113D01*
X114752859Y-96267642D01*
X114861642Y-96158859D01*
X114872906Y-96142000D01*
X115104157Y-96142000D01*
X115104157Y-97742000D01*
X115111513Y-97816689D01*
X115133299Y-97888508D01*
X115168678Y-97954696D01*
X115216289Y-98012711D01*
X115274304Y-98060322D01*
X115340492Y-98095701D01*
X115412311Y-98117487D01*
X115487000Y-98124843D01*
X117087000Y-98124843D01*
X117161689Y-98117487D01*
X117233508Y-98095701D01*
X117299696Y-98060322D01*
X117357711Y-98012711D01*
X117405322Y-97954696D01*
X117440701Y-97888508D01*
X117462487Y-97816689D01*
X117469843Y-97742000D01*
X117469843Y-96142000D01*
X117462487Y-96067311D01*
X117440701Y-95995492D01*
X117405322Y-95929304D01*
X117357711Y-95871289D01*
X117299696Y-95823678D01*
X117233508Y-95788299D01*
X117161689Y-95766513D01*
X117087000Y-95759157D01*
X115487000Y-95759157D01*
X115412311Y-95766513D01*
X115340492Y-95788299D01*
X115274304Y-95823678D01*
X115216289Y-95871289D01*
X115168678Y-95929304D01*
X115133299Y-95995492D01*
X115111513Y-96067311D01*
X115104157Y-96142000D01*
X114872906Y-96142000D01*
X114947113Y-96030942D01*
X115005987Y-95888809D01*
X115036000Y-95737922D01*
X115036000Y-95584078D01*
X115005987Y-95433191D01*
X114947113Y-95291058D01*
X114861642Y-95163141D01*
X114752859Y-95054358D01*
X114624942Y-94968887D01*
X114482809Y-94910013D01*
X114331922Y-94880000D01*
X114178078Y-94880000D01*
X114027191Y-94910013D01*
X113885058Y-94968887D01*
X113757141Y-95054358D01*
X113648358Y-95163141D01*
X113562887Y-95291058D01*
X113504013Y-95433191D01*
X113474000Y-95584078D01*
X112748551Y-95584078D01*
X112745987Y-95571191D01*
X112687113Y-95429058D01*
X112601642Y-95301141D01*
X112492859Y-95192358D01*
X112364942Y-95106887D01*
X112222809Y-95048013D01*
X112071922Y-95018000D01*
X111918078Y-95018000D01*
X111767191Y-95048013D01*
X111625058Y-95106887D01*
X111497141Y-95192358D01*
X111388358Y-95301141D01*
X111302887Y-95429058D01*
X111244013Y-95571191D01*
X111214000Y-95722078D01*
X88093000Y-95722078D01*
X88093000Y-94198078D01*
X89699000Y-94198078D01*
X89699000Y-94351922D01*
X89729013Y-94502809D01*
X89787887Y-94644942D01*
X89873358Y-94772859D01*
X89982141Y-94881642D01*
X90110058Y-94967113D01*
X90252191Y-95025987D01*
X90403078Y-95056000D01*
X90556922Y-95056000D01*
X90707809Y-95025987D01*
X90849942Y-94967113D01*
X90977859Y-94881642D01*
X91086642Y-94772859D01*
X91172113Y-94644942D01*
X91230987Y-94502809D01*
X91241077Y-94452078D01*
X95186000Y-94452078D01*
X95186000Y-94605922D01*
X95216013Y-94756809D01*
X95274887Y-94898942D01*
X95360358Y-95026859D01*
X95469141Y-95135642D01*
X95597058Y-95221113D01*
X95739191Y-95279987D01*
X95890078Y-95310000D01*
X96043922Y-95310000D01*
X96194809Y-95279987D01*
X96336942Y-95221113D01*
X96464859Y-95135642D01*
X96573642Y-95026859D01*
X96659113Y-94898942D01*
X96717987Y-94756809D01*
X96729000Y-94701442D01*
X96740013Y-94756809D01*
X96798887Y-94898942D01*
X96884358Y-95026859D01*
X96993141Y-95135642D01*
X97121058Y-95221113D01*
X97263191Y-95279987D01*
X97414078Y-95310000D01*
X97567922Y-95310000D01*
X97718809Y-95279987D01*
X97860942Y-95221113D01*
X97988859Y-95135642D01*
X98097642Y-95026859D01*
X98183113Y-94898942D01*
X98241987Y-94756809D01*
X98272000Y-94605922D01*
X98272000Y-94452078D01*
X98241987Y-94301191D01*
X98183113Y-94159058D01*
X98097642Y-94031141D01*
X97988859Y-93922358D01*
X97860942Y-93836887D01*
X97718809Y-93778013D01*
X97567922Y-93748000D01*
X97414078Y-93748000D01*
X97263191Y-93778013D01*
X97121058Y-93836887D01*
X96993141Y-93922358D01*
X96884358Y-94031141D01*
X96798887Y-94159058D01*
X96740013Y-94301191D01*
X96729000Y-94356558D01*
X96717987Y-94301191D01*
X96659113Y-94159058D01*
X96573642Y-94031141D01*
X96464859Y-93922358D01*
X96336942Y-93836887D01*
X96194809Y-93778013D01*
X96043922Y-93748000D01*
X95890078Y-93748000D01*
X95739191Y-93778013D01*
X95597058Y-93836887D01*
X95469141Y-93922358D01*
X95360358Y-94031141D01*
X95274887Y-94159058D01*
X95216013Y-94301191D01*
X95186000Y-94452078D01*
X91241077Y-94452078D01*
X91261000Y-94351922D01*
X91261000Y-94198078D01*
X91230987Y-94047191D01*
X91172113Y-93905058D01*
X91086642Y-93777141D01*
X90977859Y-93668358D01*
X90849942Y-93582887D01*
X90707809Y-93524013D01*
X90556922Y-93494000D01*
X90403078Y-93494000D01*
X90252191Y-93524013D01*
X90110058Y-93582887D01*
X89982141Y-93668358D01*
X89873358Y-93777141D01*
X89787887Y-93905058D01*
X89729013Y-94047191D01*
X89699000Y-94198078D01*
X88093000Y-94198078D01*
X88093000Y-92801078D01*
X95186000Y-92801078D01*
X95186000Y-92954922D01*
X95216013Y-93105809D01*
X95274887Y-93247942D01*
X95360358Y-93375859D01*
X95469141Y-93484642D01*
X95597058Y-93570113D01*
X95739191Y-93628987D01*
X95890078Y-93659000D01*
X96043922Y-93659000D01*
X96194809Y-93628987D01*
X96336942Y-93570113D01*
X96464859Y-93484642D01*
X96573642Y-93375859D01*
X96659113Y-93247942D01*
X96717987Y-93105809D01*
X96729000Y-93050442D01*
X96740013Y-93105809D01*
X96798887Y-93247942D01*
X96884358Y-93375859D01*
X96993141Y-93484642D01*
X97121058Y-93570113D01*
X97263191Y-93628987D01*
X97414078Y-93659000D01*
X97567922Y-93659000D01*
X97718809Y-93628987D01*
X97860942Y-93570113D01*
X97988859Y-93484642D01*
X98097642Y-93375859D01*
X98183113Y-93247942D01*
X98241987Y-93105809D01*
X98272000Y-92954922D01*
X98272000Y-92801078D01*
X98241987Y-92650191D01*
X98183113Y-92508058D01*
X98097642Y-92380141D01*
X97988859Y-92271358D01*
X97860942Y-92185887D01*
X97718809Y-92127013D01*
X97567922Y-92097000D01*
X97414078Y-92097000D01*
X97263191Y-92127013D01*
X97121058Y-92185887D01*
X96993141Y-92271358D01*
X96884358Y-92380141D01*
X96798887Y-92508058D01*
X96740013Y-92650191D01*
X96729000Y-92705558D01*
X96717987Y-92650191D01*
X96659113Y-92508058D01*
X96573642Y-92380141D01*
X96464859Y-92271358D01*
X96336942Y-92185887D01*
X96194809Y-92127013D01*
X96043922Y-92097000D01*
X95890078Y-92097000D01*
X95739191Y-92127013D01*
X95597058Y-92185887D01*
X95469141Y-92271358D01*
X95360358Y-92380141D01*
X95274887Y-92508058D01*
X95216013Y-92650191D01*
X95186000Y-92801078D01*
X88093000Y-92801078D01*
X88093000Y-91931000D01*
X125177000Y-91931000D01*
X125177000Y-92281499D01*
%TA.AperFunction,Conductor*%
D23*
G36*
X125177000Y-92281499D02*
G01*
X125166859Y-92271358D01*
X125038942Y-92185887D01*
X124896809Y-92127013D01*
X124745922Y-92097000D01*
X124592078Y-92097000D01*
X124441191Y-92127013D01*
X124299058Y-92185887D01*
X124171141Y-92271358D01*
X124062358Y-92380141D01*
X123976887Y-92508058D01*
X123918013Y-92650191D01*
X123907000Y-92705558D01*
X123895987Y-92650191D01*
X123837113Y-92508058D01*
X123751642Y-92380141D01*
X123642859Y-92271358D01*
X123514942Y-92185887D01*
X123372809Y-92127013D01*
X123221922Y-92097000D01*
X123068078Y-92097000D01*
X122917191Y-92127013D01*
X122775058Y-92185887D01*
X122647141Y-92271358D01*
X122538358Y-92380141D01*
X122452887Y-92508058D01*
X122394013Y-92650191D01*
X122364000Y-92801078D01*
X122364000Y-92954922D01*
X122394013Y-93105809D01*
X122452887Y-93247942D01*
X122538358Y-93375859D01*
X122647141Y-93484642D01*
X122775058Y-93570113D01*
X122917191Y-93628987D01*
X123068078Y-93659000D01*
X123221922Y-93659000D01*
X123372809Y-93628987D01*
X123514942Y-93570113D01*
X123642859Y-93484642D01*
X123751642Y-93375859D01*
X123837113Y-93247942D01*
X123895987Y-93105809D01*
X123907000Y-93050442D01*
X123918013Y-93105809D01*
X123976887Y-93247942D01*
X124062358Y-93375859D01*
X124171141Y-93484642D01*
X124299058Y-93570113D01*
X124441191Y-93628987D01*
X124592078Y-93659000D01*
X124745922Y-93659000D01*
X124896809Y-93628987D01*
X125038942Y-93570113D01*
X125166859Y-93484642D01*
X125177000Y-93474501D01*
X125177000Y-93561289D01*
X125136693Y-93637096D01*
X125121817Y-93673188D01*
X125106419Y-93709114D01*
X125104640Y-93714863D01*
X125062954Y-93852931D01*
X125038942Y-93836887D01*
X124896809Y-93778013D01*
X124745922Y-93748000D01*
X124592078Y-93748000D01*
X124441191Y-93778013D01*
X124299058Y-93836887D01*
X124171141Y-93922358D01*
X124062358Y-94031141D01*
X123976887Y-94159058D01*
X123918013Y-94301191D01*
X123907000Y-94356558D01*
X123895987Y-94301191D01*
X123837113Y-94159058D01*
X123751642Y-94031141D01*
X123642859Y-93922358D01*
X123514942Y-93836887D01*
X123372809Y-93778013D01*
X123221922Y-93748000D01*
X123068078Y-93748000D01*
X122917191Y-93778013D01*
X122775058Y-93836887D01*
X122647141Y-93922358D01*
X122538358Y-94031141D01*
X122452887Y-94159058D01*
X122394013Y-94301191D01*
X122364000Y-94452078D01*
X122364000Y-94605922D01*
X122394013Y-94756809D01*
X122452887Y-94898942D01*
X122538358Y-95026859D01*
X122647141Y-95135642D01*
X122775058Y-95221113D01*
X122917191Y-95279987D01*
X123068078Y-95310000D01*
X123221922Y-95310000D01*
X123372809Y-95279987D01*
X123514942Y-95221113D01*
X123642859Y-95135642D01*
X123751642Y-95026859D01*
X123837113Y-94898942D01*
X123895987Y-94756809D01*
X123907000Y-94701442D01*
X123918013Y-94756809D01*
X123976887Y-94898942D01*
X124062358Y-95026859D01*
X124171141Y-95135642D01*
X124299058Y-95221113D01*
X124441191Y-95279987D01*
X124592078Y-95310000D01*
X124745922Y-95310000D01*
X124896809Y-95279987D01*
X125000001Y-95237243D01*
X125000000Y-96494636D01*
X124953588Y-96382587D01*
X124824342Y-96189157D01*
X124659843Y-96024658D01*
X124466413Y-95895412D01*
X124251485Y-95806386D01*
X124023318Y-95761000D01*
X123790682Y-95761000D01*
X123562515Y-95806386D01*
X123347587Y-95895412D01*
X123154157Y-96024658D01*
X122989658Y-96189157D01*
X122860412Y-96382587D01*
X122771386Y-96597515D01*
X122726000Y-96825682D01*
X122726000Y-97058318D01*
X122771386Y-97286485D01*
X122860412Y-97501413D01*
X122989658Y-97694843D01*
X123154157Y-97859342D01*
X123347587Y-97988588D01*
X123562515Y-98077614D01*
X123790682Y-98123000D01*
X124023318Y-98123000D01*
X124251485Y-98077614D01*
X124466413Y-97988588D01*
X124659843Y-97859342D01*
X124824342Y-97694843D01*
X124953588Y-97501413D01*
X125000000Y-97389364D01*
X125000000Y-97471167D01*
X125002168Y-97493178D01*
X125002168Y-97508017D01*
X125002797Y-97514002D01*
X125027663Y-97735686D01*
X125035784Y-97773890D01*
X125043372Y-97812215D01*
X125045152Y-97817964D01*
X125112603Y-98030597D01*
X125127989Y-98066495D01*
X125142878Y-98102619D01*
X125145735Y-98107903D01*
X125145739Y-98107912D01*
X125145744Y-98107919D01*
X125177000Y-98164774D01*
X125177000Y-100536899D01*
X125015584Y-100488164D01*
X124977298Y-100480583D01*
X124939053Y-100472454D01*
X124933070Y-100471825D01*
X124933068Y-100471825D01*
X124711058Y-100450057D01*
X124711052Y-100450057D01*
X124690168Y-100448000D01*
X124587021Y-100448000D01*
X124659843Y-100399342D01*
X124824342Y-100234843D01*
X124953588Y-100041413D01*
X125042614Y-99826485D01*
X125088000Y-99598318D01*
X125088000Y-99365682D01*
X125042614Y-99137515D01*
X124953588Y-98922587D01*
X124824342Y-98729157D01*
X124659843Y-98564658D01*
X124466413Y-98435412D01*
X124251485Y-98346386D01*
X124023318Y-98301000D01*
X123790682Y-98301000D01*
X123562515Y-98346386D01*
X123347587Y-98435412D01*
X123154157Y-98564658D01*
X122989658Y-98729157D01*
X122860412Y-98922587D01*
X122771386Y-99137515D01*
X122726000Y-99365682D01*
X122726000Y-99598318D01*
X122771386Y-99826485D01*
X122860412Y-100041413D01*
X122989658Y-100234843D01*
X123154157Y-100399342D01*
X123226979Y-100448000D01*
X123123832Y-100448000D01*
X123101821Y-100450168D01*
X123086983Y-100450168D01*
X123080997Y-100450797D01*
X122859314Y-100475663D01*
X122821110Y-100483784D01*
X122782785Y-100491372D01*
X122777038Y-100493151D01*
X122777032Y-100493153D01*
X122564403Y-100560603D01*
X122528493Y-100575994D01*
X122492381Y-100590878D01*
X122487097Y-100593735D01*
X122487088Y-100593739D01*
X122487081Y-100593744D01*
X122291607Y-100701207D01*
X122259402Y-100723258D01*
X122226838Y-100744894D01*
X122222201Y-100748730D01*
X122218304Y-100752000D01*
X117973586Y-100752000D01*
X117953932Y-100735971D01*
X117921433Y-100714378D01*
X117889162Y-100692282D01*
X117883868Y-100689420D01*
X117686904Y-100584693D01*
X117650812Y-100569817D01*
X117614886Y-100554419D01*
X117609137Y-100552640D01*
X117609139Y-100552640D01*
X117609131Y-100552638D01*
X117395584Y-100488164D01*
X117357298Y-100480583D01*
X117319053Y-100472454D01*
X117313070Y-100471825D01*
X117313068Y-100471825D01*
X117091058Y-100450057D01*
X117091052Y-100450057D01*
X117070168Y-100448000D01*
X116967021Y-100448000D01*
X117039843Y-100399342D01*
X117204342Y-100234843D01*
X117333588Y-100041413D01*
X117422614Y-99826485D01*
X117468000Y-99598318D01*
X117468000Y-99365682D01*
X117422614Y-99137515D01*
X117333588Y-98922587D01*
X117204342Y-98729157D01*
X117039843Y-98564658D01*
X116846413Y-98435412D01*
X116631485Y-98346386D01*
X116403318Y-98301000D01*
X116170682Y-98301000D01*
X115942515Y-98346386D01*
X115727587Y-98435412D01*
X115534157Y-98564658D01*
X115369658Y-98729157D01*
X115240412Y-98922587D01*
X115151386Y-99137515D01*
X115106000Y-99365682D01*
X115106000Y-99598318D01*
X115151386Y-99826485D01*
X115240412Y-100041413D01*
X115369658Y-100234843D01*
X115534157Y-100399342D01*
X115606979Y-100448000D01*
X115503832Y-100448000D01*
X115481821Y-100450168D01*
X115466983Y-100450168D01*
X115460997Y-100450797D01*
X115239314Y-100475663D01*
X115201110Y-100483784D01*
X115162785Y-100491372D01*
X115157038Y-100493151D01*
X115157032Y-100493153D01*
X114944403Y-100560603D01*
X114908493Y-100575994D01*
X114872381Y-100590878D01*
X114867097Y-100593735D01*
X114867088Y-100593739D01*
X114867081Y-100593744D01*
X114671607Y-100701207D01*
X114639402Y-100723258D01*
X114606838Y-100744894D01*
X114602201Y-100748730D01*
X114598304Y-100752000D01*
X105019586Y-100752000D01*
X104999932Y-100735971D01*
X104967433Y-100714378D01*
X104935162Y-100692282D01*
X104929868Y-100689420D01*
X104732904Y-100584693D01*
X104696812Y-100569817D01*
X104660886Y-100554419D01*
X104655137Y-100552640D01*
X104655139Y-100552640D01*
X104655131Y-100552638D01*
X104441584Y-100488164D01*
X104403298Y-100480583D01*
X104365053Y-100472454D01*
X104359070Y-100471825D01*
X104359068Y-100471825D01*
X104137058Y-100450057D01*
X104137052Y-100450057D01*
X104116168Y-100448000D01*
X104013021Y-100448000D01*
X104085843Y-100399342D01*
X104250342Y-100234843D01*
X104379588Y-100041413D01*
X104468614Y-99826485D01*
X104514000Y-99598318D01*
X104514000Y-99365682D01*
X104468614Y-99137515D01*
X104379588Y-98922587D01*
X104339773Y-98862999D01*
X107868742Y-98862999D01*
X108743505Y-99737763D01*
X108760132Y-99758023D01*
X108780392Y-99774650D01*
X108840986Y-99824379D01*
X108933234Y-99873686D01*
X109033328Y-99904050D01*
X109111338Y-99911733D01*
X109111348Y-99911733D01*
X109137422Y-99914301D01*
X109163496Y-99911733D01*
X111224899Y-99911733D01*
X111250973Y-99914301D01*
X111277047Y-99911733D01*
X111277057Y-99911733D01*
X111355067Y-99904050D01*
X111455161Y-99873686D01*
X111547408Y-99824379D01*
X111580901Y-99796892D01*
X111692736Y-99796892D01*
X111843623Y-99766879D01*
X111985756Y-99708005D01*
X112113673Y-99622534D01*
X112222456Y-99513751D01*
X112307927Y-99385834D01*
X112316938Y-99364078D01*
X113052000Y-99364078D01*
X113052000Y-99517922D01*
X113082013Y-99668809D01*
X113140887Y-99810942D01*
X113226358Y-99938859D01*
X113335141Y-100047642D01*
X113463058Y-100133113D01*
X113605191Y-100191987D01*
X113756078Y-100222000D01*
X113909922Y-100222000D01*
X114060809Y-100191987D01*
X114202942Y-100133113D01*
X114330859Y-100047642D01*
X114439642Y-99938859D01*
X114525113Y-99810942D01*
X114583987Y-99668809D01*
X114614000Y-99517922D01*
X114614000Y-99364078D01*
X114583987Y-99213191D01*
X114525113Y-99071058D01*
X114439642Y-98943141D01*
X114330859Y-98834358D01*
X114202942Y-98748887D01*
X114060809Y-98690013D01*
X113909922Y-98660000D01*
X113756078Y-98660000D01*
X113605191Y-98690013D01*
X113463058Y-98748887D01*
X113335141Y-98834358D01*
X113226358Y-98943141D01*
X113140887Y-99071058D01*
X113082013Y-99213191D01*
X113052000Y-99364078D01*
X112316938Y-99364078D01*
X112366801Y-99243701D01*
X112396814Y-99092814D01*
X112396814Y-98938970D01*
X112366801Y-98788083D01*
X112307927Y-98645950D01*
X112222456Y-98518033D01*
X112170547Y-98466124D01*
X112222528Y-98414143D01*
X112307999Y-98286226D01*
X112366873Y-98144093D01*
X112396886Y-97993206D01*
X112396886Y-97839362D01*
X112366873Y-97688475D01*
X112307999Y-97546342D01*
X112222528Y-97418425D01*
X112113745Y-97309642D01*
X111985828Y-97224171D01*
X111843695Y-97165297D01*
X111692808Y-97135284D01*
X111538964Y-97135284D01*
X111388077Y-97165297D01*
X111245944Y-97224171D01*
X111118027Y-97309642D01*
X111009244Y-97418425D01*
X110923773Y-97546342D01*
X110864899Y-97688475D01*
X110834886Y-97839362D01*
X110834886Y-97993206D01*
X110864899Y-98144093D01*
X110923773Y-98286226D01*
X111009244Y-98414143D01*
X111061153Y-98466052D01*
X111009172Y-98518033D01*
X110923701Y-98645950D01*
X110864827Y-98788083D01*
X110852564Y-98849733D01*
X110250162Y-98849733D01*
X110278423Y-98707654D01*
X110278423Y-98553810D01*
X110248410Y-98402923D01*
X110189536Y-98260790D01*
X110104065Y-98132873D01*
X109995282Y-98024090D01*
X109867365Y-97938619D01*
X109725232Y-97879745D01*
X109574345Y-97849732D01*
X109420501Y-97849732D01*
X109269614Y-97879745D01*
X109127481Y-97938619D01*
X108999564Y-98024090D01*
X108890781Y-98132873D01*
X108805310Y-98260790D01*
X108794507Y-98286871D01*
X108482609Y-97974974D01*
X108465978Y-97954709D01*
X108385123Y-97888353D01*
X108292876Y-97839046D01*
X108192782Y-97808682D01*
X108114772Y-97800999D01*
X108114762Y-97800999D01*
X108088688Y-97798431D01*
X108062614Y-97800999D01*
X104144186Y-97800999D01*
X104250342Y-97694843D01*
X104379588Y-97501413D01*
X104468614Y-97286485D01*
X104514000Y-97058318D01*
X104514000Y-96825682D01*
X104471312Y-96611078D01*
X106615992Y-96611078D01*
X106615992Y-96764922D01*
X106646005Y-96915809D01*
X106704879Y-97057942D01*
X106790350Y-97185859D01*
X106899133Y-97294642D01*
X107027050Y-97380113D01*
X107169183Y-97438987D01*
X107320070Y-97469000D01*
X107473914Y-97469000D01*
X107624801Y-97438987D01*
X107766934Y-97380113D01*
X107894851Y-97294642D01*
X108003634Y-97185859D01*
X108089105Y-97057942D01*
X108147979Y-96915809D01*
X108177992Y-96764922D01*
X108177992Y-96611078D01*
X108147979Y-96460191D01*
X108089105Y-96318058D01*
X108003634Y-96190141D01*
X107894851Y-96081358D01*
X107766934Y-95995887D01*
X107624801Y-95937013D01*
X107473914Y-95907000D01*
X107320070Y-95907000D01*
X107169183Y-95937013D01*
X107027050Y-95995887D01*
X106899133Y-96081358D01*
X106790350Y-96190141D01*
X106704879Y-96318058D01*
X106646005Y-96460191D01*
X106615992Y-96611078D01*
X104471312Y-96611078D01*
X104468614Y-96597515D01*
X104379588Y-96382587D01*
X104250342Y-96189157D01*
X104085843Y-96024658D01*
X103892413Y-95895412D01*
X103677485Y-95806386D01*
X103449318Y-95761000D01*
X103216682Y-95761000D01*
X102988515Y-95806386D01*
X102773587Y-95895412D01*
X102580157Y-96024658D01*
X102415658Y-96189157D01*
X102286412Y-96382587D01*
X102197386Y-96597515D01*
X102152000Y-96825682D01*
X102152000Y-97058318D01*
X102197386Y-97286485D01*
X102286412Y-97501413D01*
X102415658Y-97694843D01*
X102521814Y-97800999D01*
X96890032Y-97800999D01*
X96895843Y-97742000D01*
X96895843Y-96142000D01*
X96888487Y-96067311D01*
X96866701Y-95995492D01*
X96831322Y-95929304D01*
X96783711Y-95871289D01*
X96725696Y-95823678D01*
X96659508Y-95788299D01*
X96587689Y-95766513D01*
X96513000Y-95759157D01*
X94913000Y-95759157D01*
X94838311Y-95766513D01*
X94766492Y-95788299D01*
X94700304Y-95823678D01*
X94642289Y-95871289D01*
X94594678Y-95929304D01*
X94559299Y-95995492D01*
X94537513Y-96067311D01*
X94530157Y-96142000D01*
X94530157Y-97742000D01*
X94535968Y-97800999D01*
X92063074Y-97800999D01*
X92037000Y-97798431D01*
X92010926Y-97800999D01*
X92010917Y-97800999D01*
X91932907Y-97808682D01*
X91832813Y-97839046D01*
X91772697Y-97871178D01*
X91740565Y-97888353D01*
X91684276Y-97934549D01*
X91659711Y-97954709D01*
X91643084Y-97974969D01*
X90663054Y-98955000D01*
X90556078Y-98955000D01*
X90405191Y-98985013D01*
X90263058Y-99043887D01*
X90135141Y-99129358D01*
X90026358Y-99238141D01*
X89940887Y-99366058D01*
X89882013Y-99508191D01*
X89852000Y-99659078D01*
X89852000Y-99812922D01*
X89882013Y-99963809D01*
X89940887Y-100105942D01*
X90026358Y-100233859D01*
X90135141Y-100342642D01*
X90263058Y-100428113D01*
X90405191Y-100486987D01*
X90556078Y-100517000D01*
X90709922Y-100517000D01*
X90860809Y-100486987D01*
X91002942Y-100428113D01*
X91130859Y-100342642D01*
X91239642Y-100233859D01*
X91268000Y-100191418D01*
X91296358Y-100233859D01*
X91405141Y-100342642D01*
X91533058Y-100428113D01*
X91675191Y-100486987D01*
X91826078Y-100517000D01*
X91979922Y-100517000D01*
X92130809Y-100486987D01*
X92272942Y-100428113D01*
X92400859Y-100342642D01*
X92509642Y-100233859D01*
X92595113Y-100105942D01*
X92653987Y-99963809D01*
X92684000Y-99812922D01*
X92684000Y-99659078D01*
X92653987Y-99508191D01*
X92595113Y-99366058D01*
X92509642Y-99238141D01*
X92400859Y-99129358D01*
X92272942Y-99043887D01*
X92133726Y-98986221D01*
X92256948Y-98862999D01*
X94706227Y-98862999D01*
X94666412Y-98922587D01*
X94577386Y-99137515D01*
X94532000Y-99365682D01*
X94532000Y-99598318D01*
X94577386Y-99826485D01*
X94666412Y-100041413D01*
X94795658Y-100234843D01*
X94960157Y-100399342D01*
X95032979Y-100448000D01*
X94929832Y-100448000D01*
X94907821Y-100450168D01*
X94892983Y-100450168D01*
X94886997Y-100450797D01*
X94665314Y-100475663D01*
X94627110Y-100483784D01*
X94588785Y-100491372D01*
X94583038Y-100493151D01*
X94583032Y-100493153D01*
X94370403Y-100560603D01*
X94334493Y-100575994D01*
X94298381Y-100590878D01*
X94293097Y-100593735D01*
X94293088Y-100593739D01*
X94293081Y-100593744D01*
X94097607Y-100701207D01*
X94065402Y-100723258D01*
X94032838Y-100744894D01*
X94028201Y-100748730D01*
X94024304Y-100752000D01*
X92284000Y-100752000D01*
X92259224Y-100754440D01*
X92235399Y-100761667D01*
X92213443Y-100773403D01*
X92194197Y-100789197D01*
X92178403Y-100808443D01*
X92166667Y-100830399D01*
X92159440Y-100854224D01*
X92157000Y-100879000D01*
X92157000Y-103334598D01*
X92067821Y-103423777D01*
X91894218Y-103683594D01*
X91774637Y-103972286D01*
X91713676Y-104278761D01*
X91713676Y-104591239D01*
X91774637Y-104897714D01*
X91894218Y-105186406D01*
X92067821Y-105446223D01*
X92157000Y-105535402D01*
X92157000Y-105714650D01*
X92020357Y-105578007D01*
X91859684Y-105470649D01*
X91681153Y-105396699D01*
X91491626Y-105359000D01*
X91298386Y-105359000D01*
X91108859Y-105396699D01*
X90930328Y-105470649D01*
X90769655Y-105578007D01*
X90633013Y-105714649D01*
X90525655Y-105875322D01*
X90451705Y-106053853D01*
X90414006Y-106243380D01*
X90414006Y-106436620D01*
X90451705Y-106626147D01*
X90525655Y-106804678D01*
X90633013Y-106965351D01*
X90769655Y-107101993D01*
X90930328Y-107209351D01*
X91108859Y-107283301D01*
X91298386Y-107321000D01*
X91491626Y-107321000D01*
X91681153Y-107283301D01*
X91859684Y-107209351D01*
X92020357Y-107101993D01*
X92157000Y-106965350D01*
X92157000Y-108541598D01*
X92067821Y-108630777D01*
X91894218Y-108890594D01*
X91774637Y-109179286D01*
X91713676Y-109485761D01*
X91713676Y-109515000D01*
X85553000Y-109515000D01*
X85553000Y-109076021D01*
X86272989Y-109076021D01*
X86377486Y-109277082D01*
X86618273Y-109403666D01*
X86879129Y-109480844D01*
X87150029Y-109505649D01*
X87420563Y-109477126D01*
X87680334Y-109396373D01*
X87903514Y-109277082D01*
X88008011Y-109076021D01*
X87140500Y-108208510D01*
X86272989Y-109076021D01*
X85553000Y-109076021D01*
X85553000Y-108127529D01*
X85752851Y-108127529D01*
X85781374Y-108398063D01*
X85862127Y-108657834D01*
X85981418Y-108881014D01*
X86182479Y-108985511D01*
X87049990Y-108118000D01*
X87231010Y-108118000D01*
X88098521Y-108985511D01*
X88299582Y-108881014D01*
X88426166Y-108640227D01*
X88503344Y-108379371D01*
X88528149Y-108108471D01*
X88499626Y-107837937D01*
X88418873Y-107578166D01*
X88299582Y-107354986D01*
X88098521Y-107250489D01*
X87231010Y-108118000D01*
X87049990Y-108118000D01*
X86182479Y-107250489D01*
X85981418Y-107354986D01*
X85854834Y-107595773D01*
X85777656Y-107856629D01*
X85752851Y-108127529D01*
X85553000Y-108127529D01*
X85553000Y-107662606D01*
X86055627Y-107159979D01*
X86272989Y-107159979D01*
X87140500Y-108027490D01*
X88008011Y-107159979D01*
X87903514Y-106958918D01*
X87662727Y-106832334D01*
X87401871Y-106755156D01*
X87130971Y-106730351D01*
X86860437Y-106758874D01*
X86600666Y-106839627D01*
X86377486Y-106958918D01*
X86272989Y-107159979D01*
X86055627Y-107159979D01*
X88055803Y-105159803D01*
X88071597Y-105140557D01*
X88083333Y-105118601D01*
X88090560Y-105094776D01*
X88093000Y-105070000D01*
X88093000Y-95722078D01*
X111214000Y-95722078D01*
X111214000Y-95875922D01*
X111244013Y-96026809D01*
X111302887Y-96168942D01*
X111388358Y-96296859D01*
X111497141Y-96405642D01*
X111625058Y-96491113D01*
X111767191Y-96549987D01*
X111918078Y-96580000D01*
X112071922Y-96580000D01*
X112222809Y-96549987D01*
X112364942Y-96491113D01*
X112492859Y-96405642D01*
X112601642Y-96296859D01*
X112687113Y-96168942D01*
X112745987Y-96026809D01*
X112776000Y-95875922D01*
X112776000Y-95722078D01*
X112748551Y-95584078D01*
X113474000Y-95584078D01*
X113474000Y-95737922D01*
X113504013Y-95888809D01*
X113562887Y-96030942D01*
X113648358Y-96158859D01*
X113757141Y-96267642D01*
X113885058Y-96353113D01*
X114027191Y-96411987D01*
X114178078Y-96442000D01*
X114331922Y-96442000D01*
X114482809Y-96411987D01*
X114624942Y-96353113D01*
X114752859Y-96267642D01*
X114861642Y-96158859D01*
X114872906Y-96142000D01*
X115104157Y-96142000D01*
X115104157Y-97742000D01*
X115111513Y-97816689D01*
X115133299Y-97888508D01*
X115168678Y-97954696D01*
X115216289Y-98012711D01*
X115274304Y-98060322D01*
X115340492Y-98095701D01*
X115412311Y-98117487D01*
X115487000Y-98124843D01*
X117087000Y-98124843D01*
X117161689Y-98117487D01*
X117233508Y-98095701D01*
X117299696Y-98060322D01*
X117357711Y-98012711D01*
X117405322Y-97954696D01*
X117440701Y-97888508D01*
X117462487Y-97816689D01*
X117469843Y-97742000D01*
X117469843Y-96142000D01*
X117462487Y-96067311D01*
X117440701Y-95995492D01*
X117405322Y-95929304D01*
X117357711Y-95871289D01*
X117299696Y-95823678D01*
X117233508Y-95788299D01*
X117161689Y-95766513D01*
X117087000Y-95759157D01*
X115487000Y-95759157D01*
X115412311Y-95766513D01*
X115340492Y-95788299D01*
X115274304Y-95823678D01*
X115216289Y-95871289D01*
X115168678Y-95929304D01*
X115133299Y-95995492D01*
X115111513Y-96067311D01*
X115104157Y-96142000D01*
X114872906Y-96142000D01*
X114947113Y-96030942D01*
X115005987Y-95888809D01*
X115036000Y-95737922D01*
X115036000Y-95584078D01*
X115005987Y-95433191D01*
X114947113Y-95291058D01*
X114861642Y-95163141D01*
X114752859Y-95054358D01*
X114624942Y-94968887D01*
X114482809Y-94910013D01*
X114331922Y-94880000D01*
X114178078Y-94880000D01*
X114027191Y-94910013D01*
X113885058Y-94968887D01*
X113757141Y-95054358D01*
X113648358Y-95163141D01*
X113562887Y-95291058D01*
X113504013Y-95433191D01*
X113474000Y-95584078D01*
X112748551Y-95584078D01*
X112745987Y-95571191D01*
X112687113Y-95429058D01*
X112601642Y-95301141D01*
X112492859Y-95192358D01*
X112364942Y-95106887D01*
X112222809Y-95048013D01*
X112071922Y-95018000D01*
X111918078Y-95018000D01*
X111767191Y-95048013D01*
X111625058Y-95106887D01*
X111497141Y-95192358D01*
X111388358Y-95301141D01*
X111302887Y-95429058D01*
X111244013Y-95571191D01*
X111214000Y-95722078D01*
X88093000Y-95722078D01*
X88093000Y-94198078D01*
X89699000Y-94198078D01*
X89699000Y-94351922D01*
X89729013Y-94502809D01*
X89787887Y-94644942D01*
X89873358Y-94772859D01*
X89982141Y-94881642D01*
X90110058Y-94967113D01*
X90252191Y-95025987D01*
X90403078Y-95056000D01*
X90556922Y-95056000D01*
X90707809Y-95025987D01*
X90849942Y-94967113D01*
X90977859Y-94881642D01*
X91086642Y-94772859D01*
X91172113Y-94644942D01*
X91230987Y-94502809D01*
X91241077Y-94452078D01*
X95186000Y-94452078D01*
X95186000Y-94605922D01*
X95216013Y-94756809D01*
X95274887Y-94898942D01*
X95360358Y-95026859D01*
X95469141Y-95135642D01*
X95597058Y-95221113D01*
X95739191Y-95279987D01*
X95890078Y-95310000D01*
X96043922Y-95310000D01*
X96194809Y-95279987D01*
X96336942Y-95221113D01*
X96464859Y-95135642D01*
X96573642Y-95026859D01*
X96659113Y-94898942D01*
X96717987Y-94756809D01*
X96729000Y-94701442D01*
X96740013Y-94756809D01*
X96798887Y-94898942D01*
X96884358Y-95026859D01*
X96993141Y-95135642D01*
X97121058Y-95221113D01*
X97263191Y-95279987D01*
X97414078Y-95310000D01*
X97567922Y-95310000D01*
X97718809Y-95279987D01*
X97860942Y-95221113D01*
X97988859Y-95135642D01*
X98097642Y-95026859D01*
X98183113Y-94898942D01*
X98241987Y-94756809D01*
X98272000Y-94605922D01*
X98272000Y-94452078D01*
X98241987Y-94301191D01*
X98183113Y-94159058D01*
X98097642Y-94031141D01*
X97988859Y-93922358D01*
X97860942Y-93836887D01*
X97718809Y-93778013D01*
X97567922Y-93748000D01*
X97414078Y-93748000D01*
X97263191Y-93778013D01*
X97121058Y-93836887D01*
X96993141Y-93922358D01*
X96884358Y-94031141D01*
X96798887Y-94159058D01*
X96740013Y-94301191D01*
X96729000Y-94356558D01*
X96717987Y-94301191D01*
X96659113Y-94159058D01*
X96573642Y-94031141D01*
X96464859Y-93922358D01*
X96336942Y-93836887D01*
X96194809Y-93778013D01*
X96043922Y-93748000D01*
X95890078Y-93748000D01*
X95739191Y-93778013D01*
X95597058Y-93836887D01*
X95469141Y-93922358D01*
X95360358Y-94031141D01*
X95274887Y-94159058D01*
X95216013Y-94301191D01*
X95186000Y-94452078D01*
X91241077Y-94452078D01*
X91261000Y-94351922D01*
X91261000Y-94198078D01*
X91230987Y-94047191D01*
X91172113Y-93905058D01*
X91086642Y-93777141D01*
X90977859Y-93668358D01*
X90849942Y-93582887D01*
X90707809Y-93524013D01*
X90556922Y-93494000D01*
X90403078Y-93494000D01*
X90252191Y-93524013D01*
X90110058Y-93582887D01*
X89982141Y-93668358D01*
X89873358Y-93777141D01*
X89787887Y-93905058D01*
X89729013Y-94047191D01*
X89699000Y-94198078D01*
X88093000Y-94198078D01*
X88093000Y-92801078D01*
X95186000Y-92801078D01*
X95186000Y-92954922D01*
X95216013Y-93105809D01*
X95274887Y-93247942D01*
X95360358Y-93375859D01*
X95469141Y-93484642D01*
X95597058Y-93570113D01*
X95739191Y-93628987D01*
X95890078Y-93659000D01*
X96043922Y-93659000D01*
X96194809Y-93628987D01*
X96336942Y-93570113D01*
X96464859Y-93484642D01*
X96573642Y-93375859D01*
X96659113Y-93247942D01*
X96717987Y-93105809D01*
X96729000Y-93050442D01*
X96740013Y-93105809D01*
X96798887Y-93247942D01*
X96884358Y-93375859D01*
X96993141Y-93484642D01*
X97121058Y-93570113D01*
X97263191Y-93628987D01*
X97414078Y-93659000D01*
X97567922Y-93659000D01*
X97718809Y-93628987D01*
X97860942Y-93570113D01*
X97988859Y-93484642D01*
X98097642Y-93375859D01*
X98183113Y-93247942D01*
X98241987Y-93105809D01*
X98272000Y-92954922D01*
X98272000Y-92801078D01*
X98241987Y-92650191D01*
X98183113Y-92508058D01*
X98097642Y-92380141D01*
X97988859Y-92271358D01*
X97860942Y-92185887D01*
X97718809Y-92127013D01*
X97567922Y-92097000D01*
X97414078Y-92097000D01*
X97263191Y-92127013D01*
X97121058Y-92185887D01*
X96993141Y-92271358D01*
X96884358Y-92380141D01*
X96798887Y-92508058D01*
X96740013Y-92650191D01*
X96729000Y-92705558D01*
X96717987Y-92650191D01*
X96659113Y-92508058D01*
X96573642Y-92380141D01*
X96464859Y-92271358D01*
X96336942Y-92185887D01*
X96194809Y-92127013D01*
X96043922Y-92097000D01*
X95890078Y-92097000D01*
X95739191Y-92127013D01*
X95597058Y-92185887D01*
X95469141Y-92271358D01*
X95360358Y-92380141D01*
X95274887Y-92508058D01*
X95216013Y-92650191D01*
X95186000Y-92801078D01*
X88093000Y-92801078D01*
X88093000Y-91931000D01*
X125177000Y-91931000D01*
X125177000Y-92281499D01*
G37*
%TD.AperFunction*%
%TD*%
M02*
