%TF.GenerationSoftware,KiCad,Pcbnew,(5.1.10)-1*%
%TF.CreationDate,2022-01-19T08:45:22+07:00*%
%TF.ProjectId,PCB_4x_pnlz1_3,5043425f-3478-45f7-906e-6c7a315f332e,rev?*%
%TF.SameCoordinates,Original*%
%TF.FileFunction,Copper,L2,Inr*%
%TF.FilePolarity,Positive*%
%FSLAX46Y46*%
G04 Gerber Fmt 4.6, Leading zero omitted, Abs format (unit mm)*
G04 Created by KiCad (PCBNEW (5.1.10)-1) date 2022-01-19 08:45:22*
%MOMM*%
%LPD*%
G01*
G04 APERTURE LIST*
%TA.AperFunction,ComponentPad*%
%ADD10R,1.000000X1.000000*%
%TD*%
%TA.AperFunction,ComponentPad*%
%ADD11O,1.000000X1.000000*%
%TD*%
%TA.AperFunction,ComponentPad*%
%ADD12C,1.000000*%
%TD*%
%TA.AperFunction,ComponentPad*%
%ADD13C,1.600000*%
%TD*%
%TA.AperFunction,ComponentPad*%
%ADD14R,1.600000X1.600000*%
%TD*%
%TA.AperFunction,ComponentPad*%
%ADD15R,2.400000X1.700000*%
%TD*%
%TA.AperFunction,ComponentPad*%
%ADD16O,2.400000X1.700000*%
%TD*%
%TA.AperFunction,ComponentPad*%
%ADD17O,1.700000X1.700000*%
%TD*%
%TA.AperFunction,ComponentPad*%
%ADD18R,1.900000X2.700000*%
%TD*%
%TA.AperFunction,ComponentPad*%
%ADD19C,1.500000*%
%TD*%
%TA.AperFunction,ComponentPad*%
%ADD20O,1.600000X1.600000*%
%TD*%
%TA.AperFunction,ComponentPad*%
%ADD21C,2.000000*%
%TD*%
%TA.AperFunction,ComponentPad*%
%ADD22C,1.800000*%
%TD*%
%TA.AperFunction,ComponentPad*%
%ADD23R,1.800000X1.800000*%
%TD*%
%TA.AperFunction,ComponentPad*%
%ADD24R,1.700000X1.700000*%
%TD*%
%TA.AperFunction,ComponentPad*%
%ADD25O,1.750000X2.250000*%
%TD*%
%TA.AperFunction,ComponentPad*%
%ADD26R,1.750000X2.250000*%
%TD*%
%TA.AperFunction,ViaPad*%
%ADD27C,0.800000*%
%TD*%
%TA.AperFunction,ViaPad*%
%ADD28C,1.200000*%
%TD*%
%TA.AperFunction,ViaPad*%
%ADD29C,1.000000*%
%TD*%
%TA.AperFunction,ViaPad*%
%ADD30C,1.100000*%
%TD*%
%TA.AperFunction,Conductor*%
%ADD31C,1.000000*%
%TD*%
%TA.AperFunction,Conductor*%
%ADD32C,2.000000*%
%TD*%
%TA.AperFunction,Conductor*%
%ADD33C,0.800000*%
%TD*%
%TA.AperFunction,Conductor*%
%ADD34C,0.300000*%
%TD*%
%TA.AperFunction,Conductor*%
%ADD35C,0.250000*%
%TD*%
%TA.AperFunction,Conductor*%
%ADD36C,0.254000*%
%TD*%
%TA.AperFunction,Conductor*%
%ADD37C,0.020000*%
%TD*%
G04 APERTURE END LIST*
D10*
%TO.N,VCCQ*%
%TO.C,J2*%
X94544000Y-124536000D03*
D11*
%TO.N,GND2*%
X95814000Y-124536000D03*
%TO.N,/SDAq*%
X94544000Y-125806000D03*
%TO.N,/SCLq*%
X95814000Y-125806000D03*
%TO.N,/outa*%
X94544000Y-127076000D03*
%TO.N,/inb*%
X95814000Y-127076000D03*
%TD*%
D10*
%TO.N,VCCQ*%
%TO.C,J2*%
X82044000Y-124536000D03*
D11*
%TO.N,GND2*%
X83314000Y-124536000D03*
%TO.N,/SDAq*%
X82044000Y-125806000D03*
%TO.N,/SCLq*%
X83314000Y-125806000D03*
%TO.N,/outa*%
X82044000Y-127076000D03*
%TO.N,/inb*%
X83314000Y-127076000D03*
%TD*%
D10*
%TO.N,VCCQ*%
%TO.C,J2*%
X69544000Y-124536000D03*
D11*
%TO.N,GND2*%
X70814000Y-124536000D03*
%TO.N,/SDAq*%
X69544000Y-125806000D03*
%TO.N,/SCLq*%
X70814000Y-125806000D03*
%TO.N,/outa*%
X69544000Y-127076000D03*
%TO.N,/inb*%
X70814000Y-127076000D03*
%TD*%
D10*
%TO.N,/ina*%
%TO.C,J1*%
X94544000Y-104724000D03*
D11*
%TO.N,/outb*%
X95814000Y-104724000D03*
%TO.N,/SDA*%
X94544000Y-105994000D03*
%TO.N,/SCL*%
X95814000Y-105994000D03*
%TO.N,VCC*%
X94544000Y-107264000D03*
%TO.N,GND*%
X95814000Y-107264000D03*
%TD*%
D10*
%TO.N,/ina*%
%TO.C,J1*%
X82044000Y-104724000D03*
D11*
%TO.N,/outb*%
X83314000Y-104724000D03*
%TO.N,/SDA*%
X82044000Y-105994000D03*
%TO.N,/SCL*%
X83314000Y-105994000D03*
%TO.N,VCC*%
X82044000Y-107264000D03*
%TO.N,GND*%
X83314000Y-107264000D03*
%TD*%
D10*
%TO.N,/ina*%
%TO.C,J1*%
X69544000Y-104724000D03*
D11*
%TO.N,/outb*%
X70814000Y-104724000D03*
%TO.N,/SDA*%
X69544000Y-105994000D03*
%TO.N,/SCL*%
X70814000Y-105994000D03*
%TO.N,VCC*%
X69544000Y-107264000D03*
%TO.N,GND*%
X70814000Y-107264000D03*
%TD*%
D12*
%TO.N,/Int*%
%TO.C,U7*%
X77291000Y-62287000D03*
%TO.N,/+5V_valid*%
X77291000Y-61017000D03*
%TO.N,/I2C_SCL*%
X76021000Y-62287000D03*
%TO.N,/I2C_SDA*%
X76021000Y-61017000D03*
%TO.N,GNDPWR*%
X74751000Y-62287000D03*
D10*
%TO.N,+3.3VP*%
X74751000Y-61017000D03*
D12*
%TO.N,GND1*%
X57479000Y-62287000D03*
%TO.N,+5P*%
X57479000Y-61017000D03*
%TO.N,/scl0*%
X56209000Y-62287000D03*
%TO.N,/sda0*%
X56209000Y-61017000D03*
%TO.N,/I2C_Int*%
X54939000Y-62287000D03*
D10*
%TO.N,/+5V_state*%
X54939000Y-61017000D03*
%TD*%
D13*
%TO.N,Net-(JP6-Pad1)*%
%TO.C,U4*%
X60527000Y-71558000D03*
%TO.N,GNDPWR*%
X60527000Y-69018000D03*
%TO.N,Net-(JP5-Pad1)*%
X60536500Y-66478000D03*
%TO.N,/+5V_state*%
X60527000Y-61398000D03*
%TO.N,+5P*%
X60527000Y-58858000D03*
%TO.N,GND1*%
X60527000Y-56318000D03*
D14*
%TO.N,Net-(C6-Pad2)*%
X60527000Y-53778000D03*
%TD*%
D15*
%TO.N,Net-(J1-Pad1)*%
%TO.C,U1*%
X54558000Y-74733000D03*
D16*
%TO.N,Net-(J1-Pad3)*%
X54558000Y-69653000D03*
%TO.N,+5V*%
X54558000Y-56953000D03*
%TO.N,GND1*%
X54558000Y-54413000D03*
%TD*%
D17*
%TO.N,/Load2N*%
%TO.C,J4*%
X91642000Y-75622000D03*
%TO.N,N/C*%
X94182000Y-75622000D03*
D18*
%TO.N,Net-(J4-Pad1)*%
X96722000Y-75114000D03*
%TD*%
D17*
%TO.N,/Load1N*%
%TO.C,J3*%
X81736000Y-75622000D03*
%TO.N,N/C*%
X84276000Y-75622000D03*
D18*
%TO.N,Net-(J3-Pad1)*%
X86816000Y-75114000D03*
%TD*%
D17*
%TO.N,Net-(J1-Pad3)*%
%TO.C,J1*%
X49478000Y-75622000D03*
%TO.N,N/C*%
X52018000Y-75622000D03*
D18*
%TO.N,Net-(J1-Pad1)*%
X54558000Y-75114000D03*
%TD*%
D11*
%TO.N,/nRst*%
%TO.C,JP4*%
X76910000Y-55302000D03*
%TO.N,GNDPWR*%
X76910000Y-54032000D03*
%TO.N,Net-(JP4-Pad2)*%
X75640000Y-55302000D03*
D10*
%TO.N,GNDPWR*%
X75640000Y-54032000D03*
%TD*%
D11*
%TO.N,/sda0*%
%TO.C,J6*%
X62559000Y-57080000D03*
%TO.N,/scl0*%
X62559000Y-58350000D03*
%TO.N,GND1*%
X63829000Y-57080000D03*
X63829000Y-58350000D03*
%TO.N,/I2C_Int*%
X65099000Y-57080000D03*
D10*
%TO.N,/+5V_state*%
X65099000Y-58350000D03*
%TD*%
D19*
%TO.N,Net-(KP1-Pad1)*%
%TO.C,KP1*%
X62305000Y-63557000D03*
%TD*%
D20*
%TO.N,Net-(F1-Pad2)*%
%TO.C,F1*%
X85800000Y-62922000D03*
D13*
%TO.N,AC*%
X85800000Y-70542000D03*
%TD*%
D21*
%TO.N,GND1*%
%TO.C,GND1*%
X51637000Y-64065000D03*
%TD*%
D22*
%TO.N,Net-(D3-Pad2)*%
%TO.C,U2*%
X86816000Y-54540000D03*
%TO.N,+5VP*%
X86816000Y-57080000D03*
%TO.N,Net-(F1-Pad2)*%
X86816000Y-67240000D03*
D23*
%TO.N,Net-(J3-Pad1)*%
X86816000Y-74860000D03*
%TD*%
D22*
%TO.N,Net-(D4-Pad2)*%
%TO.C,U3*%
X96722000Y-54540000D03*
%TO.N,+5VP*%
X96722000Y-57080000D03*
%TO.N,Net-(F2-Pad2)*%
X96722000Y-67240000D03*
D23*
%TO.N,Net-(J4-Pad1)*%
X96722000Y-74860000D03*
%TD*%
D11*
%TO.N,+5V*%
%TO.C,J2*%
X49351000Y-57080000D03*
X49351000Y-58350000D03*
%TO.N,GND1*%
X50621000Y-57080000D03*
X50621000Y-58350000D03*
%TO.N,+5P*%
X51891000Y-57080000D03*
D10*
X51891000Y-58350000D03*
%TD*%
D20*
%TO.N,Net-(F2-Pad2)*%
%TO.C,F2*%
X95833000Y-62922000D03*
D13*
%TO.N,AC*%
X95833000Y-70542000D03*
%TD*%
D11*
%TO.N,/scl0*%
%TO.C,J2*%
X49351000Y-82580000D03*
%TO.N,/sda0*%
X49351000Y-83850000D03*
%TO.N,GND1*%
X50621000Y-82580000D03*
X50621000Y-83850000D03*
%TO.N,+5P*%
X51891000Y-82580000D03*
D10*
X51891000Y-83850000D03*
%TD*%
D21*
%TO.N,Net-(C5-Pad2)*%
%TO.C,C5*%
X88213000Y-98582000D03*
%TO.N,Net-(C5-Pad1)*%
X65713000Y-98582000D03*
%TD*%
D14*
%TO.N,+5VP*%
%TO.C,K2*%
X83387000Y-83342000D03*
D13*
X83387000Y-85882000D03*
%TO.N,Net-(J1-Pad3)*%
X83387000Y-90962000D03*
%TO.N,Net-(C7-Pad1)*%
X83387000Y-96042000D03*
%TO.N,Net-(K2-Pad8)*%
X83387000Y-101122000D03*
X91007000Y-101122000D03*
%TO.N,Net-(C5-Pad2)*%
X91007000Y-96042000D03*
%TO.N,Net-(C7-Pad1)*%
X91007000Y-90962000D03*
%TO.N,Net-(C12-Pad2)*%
X91007000Y-85882000D03*
%TO.N,Net-(C11-Pad2)*%
X91007000Y-83342000D03*
%TD*%
D24*
%TO.N,Net-(J1-Pad1)*%
%TO.C,J1*%
X74370000Y-100868000D03*
D17*
%TO.N,N/C*%
X76910000Y-100868000D03*
%TO.N,Net-(J1-Pad3)*%
X79450000Y-100868000D03*
%TD*%
D21*
%TO.N,GND2*%
%TO.C,TP1*%
X54240500Y-94518000D03*
%TD*%
D25*
%TO.N,Net-(C6-Pad2)*%
%TO.C,PS1*%
X58241000Y-101249000D03*
%TO.N,GND2*%
X55701000Y-101249000D03*
%TO.N,+5P*%
X53161000Y-101249000D03*
D26*
%TO.N,GND1*%
X50621000Y-101249000D03*
%TD*%
D13*
%TO.N,Net-(C3-Pad2)*%
%TO.C,K1*%
X70433000Y-83342000D03*
%TO.N,Net-(C4-Pad2)*%
X70433000Y-85882000D03*
%TO.N,Net-(J1-Pad1)*%
X70433000Y-90962000D03*
%TO.N,Net-(C5-Pad2)*%
X70433000Y-96042000D03*
%TO.N,Net-(K1-Pad8)*%
X70433000Y-101122000D03*
X62813000Y-101122000D03*
%TO.N,Net-(C7-Pad1)*%
X62813000Y-96042000D03*
%TO.N,Net-(C5-Pad1)*%
X62813000Y-90962000D03*
%TO.N,+5VP*%
X62813000Y-85882000D03*
D14*
X62813000Y-83342000D03*
%TD*%
D21*
%TO.N,Net-(C5-Pad2)*%
%TO.C,C7*%
X96341000Y-99445000D03*
%TO.N,Net-(C7-Pad1)*%
X96341000Y-81945000D03*
%TD*%
D11*
%TO.N,GND*%
%TO.C,J1*%
X58314000Y-107264000D03*
%TO.N,VCC*%
X57044000Y-107264000D03*
%TO.N,/SCL*%
X58314000Y-105994000D03*
%TO.N,/SDA*%
X57044000Y-105994000D03*
%TO.N,/outb*%
X58314000Y-104724000D03*
D10*
%TO.N,/ina*%
X57044000Y-104724000D03*
%TD*%
D11*
%TO.N,/inb*%
%TO.C,J2*%
X58314000Y-127076000D03*
%TO.N,/outa*%
X57044000Y-127076000D03*
%TO.N,/SCLq*%
X58314000Y-125806000D03*
%TO.N,/SDAq*%
X57044000Y-125806000D03*
%TO.N,GND2*%
X58314000Y-124536000D03*
D10*
%TO.N,VCCQ*%
X57044000Y-124536000D03*
%TD*%
D27*
%TO.N,+5P*%
X54177000Y-91343000D03*
X54177000Y-87660000D03*
%TO.N,GND1*%
X57580000Y-80675000D03*
%TO.N,GNDPWR*%
X90118000Y-58477000D03*
D28*
X91769000Y-68510000D03*
X81863000Y-68510000D03*
D27*
X68274000Y-53905000D03*
X80212000Y-58477000D03*
X71830000Y-53905000D03*
X91689000Y-65081000D03*
X81783000Y-65081000D03*
X49224000Y-66097000D03*
X74060945Y-72463065D03*
X70157425Y-71155425D03*
X63829000Y-61525022D03*
X67078402Y-70674063D03*
D28*
%TO.N,+5VP*%
X62432000Y-68129000D03*
D27*
X79095000Y-82199000D03*
D28*
X58495006Y-92740000D03*
%TO.N,AC*%
X60019000Y-76130000D03*
D27*
%TO.N,/scl0*%
X50621000Y-86832000D03*
X49097000Y-90136500D03*
%TO.N,/sda0*%
X49097000Y-91597000D03*
D28*
%TO.N,+3.3VP*%
X64357678Y-71660868D03*
D27*
X75386000Y-65234000D03*
X67512000Y-71685000D03*
D29*
X72387627Y-70471744D03*
D27*
X77164000Y-59112000D03*
%TO.N,Net-(C9-Pad2)*%
X76671824Y-69541826D03*
%TO.N,Net-(C10-Pad1)*%
X79963013Y-67112998D03*
%TO.N,Net-(C11-Pad2)*%
X83382337Y-67752659D03*
X91769000Y-80929000D03*
%TO.N,Net-(C12-Pad1)*%
X89864000Y-67113000D03*
X90245000Y-79278000D03*
%TO.N,/L1_o1_nEn*%
X80212000Y-60001000D03*
X65988000Y-64900679D03*
%TO.N,/L1_o2_nEn*%
X66877000Y-62160000D03*
X83260000Y-59873998D03*
%TO.N,/SPI_MOSI*%
X64461034Y-66240237D03*
%TO.N,/SPI_MISO*%
X64864927Y-67928876D03*
%TO.N,/SPI_SCLK*%
X64060803Y-67282612D03*
%TO.N,/SPI_SSEL*%
X68036969Y-66373799D03*
%TO.N,/Int*%
X73762621Y-64572012D03*
X66999241Y-64890007D03*
%TO.N,Net-(C1-Pad1)*%
X80783500Y-54921000D03*
%TO.N,Net-(C2-Pad1)*%
X90689500Y-54959100D03*
%TO.N,Net-(D1-Pad1)*%
X80275500Y-53397000D03*
%TO.N,Net-(D2-Pad1)*%
X90181500Y-53397000D03*
%TO.N,+5V*%
X52525000Y-61779000D03*
%TO.N,Net-(C4-Pad1)*%
X63067000Y-79278000D03*
D28*
%TO.N,Net-(C6-Pad2)*%
X56971000Y-97058000D03*
D27*
%TO.N,Net-(C17-Pad2)*%
X66162000Y-71685000D03*
X65379000Y-61525020D03*
%TO.N,Net-(R27-Pad2)*%
X70837978Y-66773021D03*
X80196675Y-63032675D03*
%TO.N,/I2C_SDA*%
X69169875Y-67854535D03*
X78715886Y-84316284D03*
X59003000Y-86136000D03*
%TO.N,/I2C_SCL*%
X72124357Y-64711990D03*
X68130639Y-67902033D03*
X78715814Y-85415892D03*
X57733000Y-86136000D03*
%TO.N,/+5V_valid*%
X66877002Y-67875002D03*
%TO.N,Net-(C3-Pad2)*%
X64591000Y-80929000D03*
%TO.N,Net-(C3-Pad1)*%
X64591000Y-79278000D03*
%TO.N,Net-(C4-Pad2)*%
X63067000Y-80929000D03*
%TO.N,Net-(C11-Pad1)*%
X91769000Y-79278000D03*
%TO.N,GND2*%
X77545000Y-82199000D03*
X72719000Y-78897000D03*
X82117000Y-78897000D03*
X71195000Y-78960500D03*
X83641000Y-78960500D03*
X57072032Y-89819000D03*
X58441000Y-121107000D03*
X70941000Y-121107000D03*
X83441000Y-121107000D03*
X95941000Y-121107000D03*
%TO.N,/K1_set*%
X74496992Y-83088000D03*
%TO.N,/K2_set*%
X80933000Y-85841000D03*
%TO.N,/K2_rst*%
X81355000Y-82061000D03*
X76597423Y-85030732D03*
%TO.N,Net-(C12-Pad2)*%
X90245000Y-80929000D03*
%TO.N,Net-(Q3-Pad2)*%
X57171000Y-111836000D03*
X53869000Y-107899006D03*
X69671000Y-111836000D03*
X82171000Y-111836000D03*
X94671000Y-111836000D03*
X66369000Y-107899006D03*
X78869000Y-107899006D03*
X91369000Y-107899006D03*
%TO.N,Net-(Q4-Pad2)*%
X59203000Y-111836000D03*
X51521996Y-105685189D03*
X71703000Y-111836000D03*
X84203000Y-111836000D03*
X96703000Y-111836000D03*
X64021996Y-105685189D03*
X76521996Y-105685189D03*
X89021996Y-105685189D03*
%TO.N,VCC*%
X56891000Y-110693000D03*
D30*
X51456000Y-109169000D03*
D27*
X69391000Y-110693000D03*
X81891000Y-110693000D03*
X94391000Y-110693000D03*
D30*
X63956000Y-109169000D03*
X76456000Y-109169000D03*
X88956000Y-109169000D03*
D27*
%TO.N,GND*%
X58441000Y-110693000D03*
X70941000Y-110693000D03*
X83441000Y-110693000D03*
X95941000Y-110693000D03*
%TO.N,VCCQ*%
X56891000Y-121107000D03*
D30*
X51456000Y-122631000D03*
D27*
X69391000Y-121107000D03*
X81891000Y-121107000D03*
X94391000Y-121107000D03*
D30*
X63956000Y-122631000D03*
X76456000Y-122631000D03*
X88956000Y-122631000D03*
D27*
%TO.N,/SCL*%
X52979953Y-113996581D03*
X65479953Y-113996581D03*
X77979953Y-113996581D03*
X90479953Y-113996581D03*
%TO.N,/SDA*%
X53009645Y-112997010D03*
X65509645Y-112997010D03*
X78009645Y-112997010D03*
X90509645Y-112997010D03*
%TO.N,/SCLq*%
X50190919Y-117789860D03*
X62690919Y-117789860D03*
X75190919Y-117789860D03*
X87690919Y-117789860D03*
%TO.N,/SDAq*%
X50175469Y-118789753D03*
X62675469Y-118789753D03*
X75175469Y-118789753D03*
X87675469Y-118789753D03*
%TO.N,Net-(Q1-Pad2)*%
X56155000Y-111836000D03*
X54123004Y-110597102D03*
X68655000Y-111836000D03*
X81155000Y-111836000D03*
X93655000Y-111836000D03*
X66623004Y-110597102D03*
X79123004Y-110597102D03*
X91623004Y-110597102D03*
%TO.N,Net-(Q2-Pad2)*%
X58187000Y-111836000D03*
X51519496Y-112658467D03*
X70687000Y-111836000D03*
X83187000Y-111836000D03*
X95687000Y-111836000D03*
X64019496Y-112658467D03*
X76519496Y-112658467D03*
X89019496Y-112658467D03*
%TO.N,Net-(Q5-Pad2)*%
X54860265Y-121245990D03*
X56161379Y-119942295D03*
X67360265Y-121245990D03*
X79860265Y-121245990D03*
X92360265Y-121245990D03*
X68661379Y-119942295D03*
X81161379Y-119942295D03*
X93661379Y-119942295D03*
%TO.N,Net-(Q6-Pad2)*%
X58187000Y-119964000D03*
X51710000Y-118948000D03*
X70687000Y-119964000D03*
X83187000Y-119964000D03*
X95687000Y-119964000D03*
X64210000Y-118948000D03*
X76710000Y-118948000D03*
X89210000Y-118948000D03*
%TO.N,Net-(Q7-Pad2)*%
X51582726Y-126115423D03*
X57171000Y-119964000D03*
X64082726Y-126115423D03*
X76582726Y-126115423D03*
X89082726Y-126115423D03*
X69671000Y-119964000D03*
X82171000Y-119964000D03*
X94671000Y-119964000D03*
%TO.N,Net-(Q8-Pad2)*%
X59232135Y-119964043D03*
X55266000Y-125552000D03*
X71732135Y-119964043D03*
X84232135Y-119964043D03*
X96732135Y-119964043D03*
X67766000Y-125552000D03*
X80266000Y-125552000D03*
X92766000Y-125552000D03*
%TD*%
D31*
%TO.N,+5VP*%
X95960000Y-56318000D02*
X96722000Y-57080000D01*
X87578000Y-56318000D02*
X95960000Y-56318000D01*
X86816000Y-57080000D02*
X87578000Y-56318000D01*
X86816000Y-58352792D02*
X86816000Y-57080000D01*
X80976792Y-64192000D02*
X86816000Y-58352792D01*
X80466000Y-64192000D02*
X80976792Y-64192000D01*
X75391991Y-69266009D02*
X80466000Y-64192000D01*
X63569009Y-69266009D02*
X75391991Y-69266009D01*
X62432000Y-68129000D02*
X63569009Y-69266009D01*
X95960000Y-56318000D02*
X96722000Y-57080000D01*
X87578000Y-56318000D02*
X95960000Y-56318000D01*
X86816000Y-57080000D02*
X87578000Y-56318000D01*
X86816000Y-58352792D02*
X86816000Y-57080000D01*
X80976792Y-64192000D02*
X86816000Y-58352792D01*
X80466000Y-64192000D02*
X80976792Y-64192000D01*
X75391991Y-69266009D02*
X80466000Y-64192000D01*
X63569009Y-69266009D02*
X75391991Y-69266009D01*
X62432000Y-68129000D02*
X63569009Y-69266009D01*
D32*
%TO.N,Net-(F1-Pad2)*%
X85800000Y-66224000D02*
X86816000Y-67240000D01*
X85800000Y-62922000D02*
X85800000Y-66224000D01*
X85800000Y-66224000D02*
X86816000Y-67240000D01*
X85800000Y-62922000D02*
X85800000Y-66224000D01*
%TO.N,AC*%
X95325000Y-71050000D02*
X95833000Y-70542000D01*
X86308000Y-71050000D02*
X95325000Y-71050000D01*
X85800000Y-70542000D02*
X86308000Y-71050000D01*
X85292000Y-71050000D02*
X85800000Y-70542000D01*
X80847000Y-71050000D02*
X85292000Y-71050000D01*
X75767000Y-76130000D02*
X80847000Y-71050000D01*
X60019000Y-76130000D02*
X75767000Y-76130000D01*
X95325000Y-71050000D02*
X95833000Y-70542000D01*
X86308000Y-71050000D02*
X95325000Y-71050000D01*
X85800000Y-70542000D02*
X86308000Y-71050000D01*
X85292000Y-71050000D02*
X85800000Y-70542000D01*
X80847000Y-71050000D02*
X85292000Y-71050000D01*
X75767000Y-76130000D02*
X80847000Y-71050000D01*
X60019000Y-76130000D02*
X75767000Y-76130000D01*
%TO.N,Net-(F2-Pad2)*%
X95833000Y-66351000D02*
X96722000Y-67240000D01*
X95833000Y-62922000D02*
X95833000Y-66351000D01*
X95833000Y-66351000D02*
X96722000Y-67240000D01*
X95833000Y-62922000D02*
X95833000Y-66351000D01*
D31*
%TO.N,+3.3VP*%
X64357678Y-71660868D02*
X65651810Y-72955000D01*
X67512000Y-72828000D02*
X67639000Y-72955000D01*
X67512000Y-71685000D02*
X67512000Y-72828000D01*
X65651810Y-72955000D02*
X67639000Y-72955000D01*
X72387627Y-70480874D02*
X72387627Y-70471744D01*
X67639000Y-72955000D02*
X69913501Y-72955000D01*
X69913501Y-72955000D02*
X72387627Y-70480874D01*
D33*
X74751000Y-61017000D02*
X74392998Y-61017000D01*
X73650999Y-62980388D02*
X75386000Y-64715389D01*
X73650999Y-61758999D02*
X73650999Y-62980388D01*
X75386000Y-64715389D02*
X75386000Y-65234000D01*
X74392998Y-61017000D02*
X73650999Y-61758999D01*
D31*
X64357678Y-71660868D02*
X65651810Y-72955000D01*
X67512000Y-72828000D02*
X67639000Y-72955000D01*
X67512000Y-71685000D02*
X67512000Y-72828000D01*
X65651810Y-72955000D02*
X67639000Y-72955000D01*
X72387627Y-70480874D02*
X72387627Y-70471744D01*
X67639000Y-72955000D02*
X69913501Y-72955000D01*
X69913501Y-72955000D02*
X72387627Y-70480874D01*
D33*
X74751000Y-61017000D02*
X74392998Y-61017000D01*
X73650999Y-62980388D02*
X75386000Y-64715389D01*
X73650999Y-61758999D02*
X73650999Y-62980388D01*
X75386000Y-64715389D02*
X75386000Y-65234000D01*
X74392998Y-61017000D02*
X73650999Y-61758999D01*
D34*
%TO.N,/L1_o2_nEn*%
X82382997Y-60751001D02*
X83260000Y-59873998D01*
X78375000Y-60751001D02*
X82382997Y-60751001D01*
X77751999Y-60128000D02*
X78375000Y-60751001D01*
X74052500Y-60128000D02*
X77751999Y-60128000D01*
X72020500Y-62160000D02*
X74052500Y-60128000D01*
X66877000Y-62160000D02*
X72020500Y-62160000D01*
X82382997Y-60751001D02*
X83260000Y-59873998D01*
X78375000Y-60751001D02*
X82382997Y-60751001D01*
X77751999Y-60128000D02*
X78375000Y-60751001D01*
X74052500Y-60128000D02*
X77751999Y-60128000D01*
X72020500Y-62160000D02*
X74052500Y-60128000D01*
X66877000Y-62160000D02*
X72020500Y-62160000D01*
D35*
%TO.N,/+5V_valid*%
X67653199Y-67098805D02*
X66877002Y-67875002D01*
X68796195Y-67098805D02*
X67653199Y-67098805D01*
X69846989Y-66048011D02*
X68796195Y-67098805D01*
X78116001Y-63747999D02*
X75815989Y-66048011D01*
X75815989Y-66048011D02*
X69846989Y-66048011D01*
X78116001Y-61842001D02*
X78116001Y-63747999D01*
X77291000Y-61017000D02*
X78116001Y-61842001D01*
X67653199Y-67098805D02*
X66877002Y-67875002D01*
X68796195Y-67098805D02*
X67653199Y-67098805D01*
X69846989Y-66048011D02*
X68796195Y-67098805D01*
X78116001Y-63747999D02*
X75815989Y-66048011D01*
X75815989Y-66048011D02*
X69846989Y-66048011D01*
X78116001Y-61842001D02*
X78116001Y-63747999D01*
X77291000Y-61017000D02*
X78116001Y-61842001D01*
D34*
%TO.N,/SCL*%
X59164001Y-106844001D02*
X58314000Y-105994000D01*
X59164001Y-107672001D02*
X59164001Y-106844001D01*
X58352999Y-108114001D02*
X58722001Y-108114001D01*
X55393000Y-111074000D02*
X58352999Y-108114001D01*
X58722001Y-108114001D02*
X59164001Y-107672001D01*
X55393000Y-112149219D02*
X55393000Y-111074000D01*
X53545638Y-113996581D02*
X55393000Y-112149219D01*
X52979953Y-113996581D02*
X53545638Y-113996581D01*
X67893000Y-111074000D02*
X70852999Y-108114001D01*
X80393000Y-111074000D02*
X83352999Y-108114001D01*
X92893000Y-111074000D02*
X95852999Y-108114001D01*
X71664001Y-107672001D02*
X71664001Y-106844001D01*
X84164001Y-107672001D02*
X84164001Y-106844001D01*
X96664001Y-107672001D02*
X96664001Y-106844001D01*
X71222001Y-108114001D02*
X71664001Y-107672001D01*
X83722001Y-108114001D02*
X84164001Y-107672001D01*
X96222001Y-108114001D02*
X96664001Y-107672001D01*
X66045638Y-113996581D02*
X67893000Y-112149219D01*
X78545638Y-113996581D02*
X80393000Y-112149219D01*
X91045638Y-113996581D02*
X92893000Y-112149219D01*
X71664001Y-106844001D02*
X70814000Y-105994000D01*
X84164001Y-106844001D02*
X83314000Y-105994000D01*
X96664001Y-106844001D02*
X95814000Y-105994000D01*
X67893000Y-112149219D02*
X67893000Y-111074000D01*
X80393000Y-112149219D02*
X80393000Y-111074000D01*
X92893000Y-112149219D02*
X92893000Y-111074000D01*
X70852999Y-108114001D02*
X71222001Y-108114001D01*
X83352999Y-108114001D02*
X83722001Y-108114001D01*
X95852999Y-108114001D02*
X96222001Y-108114001D01*
X65479953Y-113996581D02*
X66045638Y-113996581D01*
X77979953Y-113996581D02*
X78545638Y-113996581D01*
X90479953Y-113996581D02*
X91045638Y-113996581D01*
%TO.N,/SDA*%
X53723990Y-112997010D02*
X53009645Y-112997010D01*
X54892990Y-111828010D02*
X53723990Y-112997010D01*
X54892990Y-110812010D02*
X54892990Y-111828010D01*
X56155000Y-109550000D02*
X54892990Y-110812010D01*
X56155000Y-106883000D02*
X56155000Y-109550000D01*
X57044000Y-105994000D02*
X56155000Y-106883000D01*
X66223990Y-112997010D02*
X65509645Y-112997010D01*
X78723990Y-112997010D02*
X78009645Y-112997010D01*
X91223990Y-112997010D02*
X90509645Y-112997010D01*
X68655000Y-106883000D02*
X68655000Y-109550000D01*
X81155000Y-106883000D02*
X81155000Y-109550000D01*
X93655000Y-106883000D02*
X93655000Y-109550000D01*
X67392990Y-111828010D02*
X66223990Y-112997010D01*
X79892990Y-111828010D02*
X78723990Y-112997010D01*
X92392990Y-111828010D02*
X91223990Y-112997010D01*
X69544000Y-105994000D02*
X68655000Y-106883000D01*
X82044000Y-105994000D02*
X81155000Y-106883000D01*
X94544000Y-105994000D02*
X93655000Y-106883000D01*
X67392990Y-110812010D02*
X67392990Y-111828010D01*
X79892990Y-110812010D02*
X79892990Y-111828010D01*
X92392990Y-110812010D02*
X92392990Y-111828010D01*
X68655000Y-109550000D02*
X67392990Y-110812010D01*
X81155000Y-109550000D02*
X79892990Y-110812010D01*
X93655000Y-109550000D02*
X92392990Y-110812010D01*
%TO.N,/SCLq*%
X59164001Y-124955999D02*
X58314000Y-125806000D01*
X59164001Y-124127999D02*
X59164001Y-124955999D01*
X58314000Y-125794002D02*
X59164001Y-124944001D01*
X59164001Y-124944001D02*
X59164001Y-124127999D01*
X58314000Y-125806000D02*
X58314000Y-125794002D01*
X50285578Y-117789860D02*
X50190919Y-117789860D01*
X50925470Y-118429752D02*
X50285578Y-117789860D01*
X55298998Y-123647000D02*
X50925470Y-119273472D01*
X50925470Y-119273472D02*
X50925470Y-118429752D01*
X58683002Y-123647000D02*
X55298998Y-123647000D01*
X59164001Y-124127999D02*
X58683002Y-123647000D01*
X71664001Y-124944001D02*
X71664001Y-124127999D01*
X84164001Y-124944001D02*
X84164001Y-124127999D01*
X96664001Y-124944001D02*
X96664001Y-124127999D01*
X62785578Y-117789860D02*
X62690919Y-117789860D01*
X75285578Y-117789860D02*
X75190919Y-117789860D01*
X87785578Y-117789860D02*
X87690919Y-117789860D01*
X63425470Y-118429752D02*
X62785578Y-117789860D01*
X75925470Y-118429752D02*
X75285578Y-117789860D01*
X88425470Y-118429752D02*
X87785578Y-117789860D01*
X71664001Y-124955999D02*
X70814000Y-125806000D01*
X84164001Y-124955999D02*
X83314000Y-125806000D01*
X96664001Y-124955999D02*
X95814000Y-125806000D01*
X67798998Y-123647000D02*
X63425470Y-119273472D01*
X80298998Y-123647000D02*
X75925470Y-119273472D01*
X92798998Y-123647000D02*
X88425470Y-119273472D01*
X71664001Y-124127999D02*
X71664001Y-124955999D01*
X84164001Y-124127999D02*
X84164001Y-124955999D01*
X96664001Y-124127999D02*
X96664001Y-124955999D01*
X70814000Y-125794002D02*
X71664001Y-124944001D01*
X83314000Y-125794002D02*
X84164001Y-124944001D01*
X95814000Y-125794002D02*
X96664001Y-124944001D01*
X70814000Y-125806000D02*
X70814000Y-125794002D01*
X83314000Y-125806000D02*
X83314000Y-125794002D01*
X95814000Y-125806000D02*
X95814000Y-125794002D01*
X71664001Y-124127999D02*
X71183002Y-123647000D01*
X84164001Y-124127999D02*
X83683002Y-123647000D01*
X96664001Y-124127999D02*
X96183002Y-123647000D01*
X63425470Y-119273472D02*
X63425470Y-118429752D01*
X75925470Y-119273472D02*
X75925470Y-118429752D01*
X88425470Y-119273472D02*
X88425470Y-118429752D01*
X71183002Y-123647000D02*
X67798998Y-123647000D01*
X83683002Y-123647000D02*
X80298998Y-123647000D01*
X96183002Y-123647000D02*
X92798998Y-123647000D01*
%TO.N,/SDAq*%
X50175469Y-119355438D02*
X50175469Y-118789753D01*
X56626032Y-125806000D02*
X50175469Y-119355438D01*
X57044000Y-125806000D02*
X56626032Y-125806000D01*
X69126032Y-125806000D02*
X62675469Y-119355438D01*
X81626032Y-125806000D02*
X75175469Y-119355438D01*
X94126032Y-125806000D02*
X87675469Y-119355438D01*
X62675469Y-119355438D02*
X62675469Y-118789753D01*
X75175469Y-119355438D02*
X75175469Y-118789753D01*
X87675469Y-119355438D02*
X87675469Y-118789753D01*
X69544000Y-125806000D02*
X69126032Y-125806000D01*
X82044000Y-125806000D02*
X81626032Y-125806000D01*
X94544000Y-125806000D02*
X94126032Y-125806000D01*
%TD*%
D36*
%TO.N,+5VP*%
X92277000Y-78681499D02*
X92266859Y-78671358D01*
X92138942Y-78585887D01*
X91996809Y-78527013D01*
X91845922Y-78497000D01*
X91692078Y-78497000D01*
X91541191Y-78527013D01*
X91399058Y-78585887D01*
X91271141Y-78671358D01*
X91162358Y-78780141D01*
X91076887Y-78908058D01*
X91018013Y-79050191D01*
X91007000Y-79105558D01*
X90995987Y-79050191D01*
X90937113Y-78908058D01*
X90851642Y-78780141D01*
X90742859Y-78671358D01*
X90614942Y-78585887D01*
X90472809Y-78527013D01*
X90321922Y-78497000D01*
X90168078Y-78497000D01*
X90017191Y-78527013D01*
X89875058Y-78585887D01*
X89747141Y-78671358D01*
X89638358Y-78780141D01*
X89552887Y-78908058D01*
X89494013Y-79050191D01*
X89464000Y-79201078D01*
X89464000Y-79354922D01*
X89494013Y-79505809D01*
X89552887Y-79647942D01*
X89638358Y-79775859D01*
X89747141Y-79884642D01*
X89875058Y-79970113D01*
X90017191Y-80028987D01*
X90168078Y-80059000D01*
X90321922Y-80059000D01*
X90472809Y-80028987D01*
X90614942Y-79970113D01*
X90742859Y-79884642D01*
X90851642Y-79775859D01*
X90937113Y-79647942D01*
X90995987Y-79505809D01*
X91007000Y-79450442D01*
X91018013Y-79505809D01*
X91076887Y-79647942D01*
X91162358Y-79775859D01*
X91271141Y-79884642D01*
X91399058Y-79970113D01*
X91541191Y-80028987D01*
X91692078Y-80059000D01*
X91845922Y-80059000D01*
X91996809Y-80028987D01*
X92138942Y-79970113D01*
X92266859Y-79884642D01*
X92277000Y-79874501D01*
X92277000Y-80332499D01*
X92266859Y-80322358D01*
X92138942Y-80236887D01*
X91996809Y-80178013D01*
X91845922Y-80148000D01*
X91692078Y-80148000D01*
X91541191Y-80178013D01*
X91399058Y-80236887D01*
X91271141Y-80322358D01*
X91162358Y-80431141D01*
X91076887Y-80559058D01*
X91018013Y-80701191D01*
X91007000Y-80756558D01*
X90995987Y-80701191D01*
X90937113Y-80559058D01*
X90851642Y-80431141D01*
X90742859Y-80322358D01*
X90614942Y-80236887D01*
X90472809Y-80178013D01*
X90321922Y-80148000D01*
X90168078Y-80148000D01*
X90017191Y-80178013D01*
X89875058Y-80236887D01*
X89747141Y-80322358D01*
X89638358Y-80431141D01*
X89552887Y-80559058D01*
X89494013Y-80701191D01*
X89464000Y-80852078D01*
X89464000Y-81005922D01*
X89494013Y-81156809D01*
X89552887Y-81298942D01*
X89638358Y-81426859D01*
X89747141Y-81535642D01*
X89875058Y-81621113D01*
X90017191Y-81679987D01*
X90168078Y-81710000D01*
X90321922Y-81710000D01*
X90472809Y-81679987D01*
X90614942Y-81621113D01*
X90742859Y-81535642D01*
X90851642Y-81426859D01*
X90937113Y-81298942D01*
X90995987Y-81156809D01*
X91007000Y-81101442D01*
X91018013Y-81156809D01*
X91076887Y-81298942D01*
X91162358Y-81426859D01*
X91271141Y-81535642D01*
X91399058Y-81621113D01*
X91541191Y-81679987D01*
X91692078Y-81710000D01*
X91845922Y-81710000D01*
X91996809Y-81679987D01*
X92138942Y-81621113D01*
X92266859Y-81535642D01*
X92277000Y-81525501D01*
X92277000Y-87152000D01*
X59384000Y-87152000D01*
X59359224Y-87154440D01*
X59335399Y-87161667D01*
X59313443Y-87173403D01*
X59294197Y-87189197D01*
X59278403Y-87208443D01*
X59266667Y-87230399D01*
X59259440Y-87254224D01*
X59257000Y-87279000D01*
X59257000Y-93629000D01*
X55828000Y-93629000D01*
X55828000Y-89742078D01*
X56291032Y-89742078D01*
X56291032Y-89895922D01*
X56321045Y-90046809D01*
X56379919Y-90188942D01*
X56465390Y-90316859D01*
X56574173Y-90425642D01*
X56702090Y-90511113D01*
X56844223Y-90569987D01*
X56995110Y-90600000D01*
X57148954Y-90600000D01*
X57299841Y-90569987D01*
X57441974Y-90511113D01*
X57569891Y-90425642D01*
X57678674Y-90316859D01*
X57764145Y-90188942D01*
X57823019Y-90046809D01*
X57853032Y-89895922D01*
X57853032Y-89742078D01*
X57823019Y-89591191D01*
X57764145Y-89449058D01*
X57678674Y-89321141D01*
X57569891Y-89212358D01*
X57441974Y-89126887D01*
X57299841Y-89068013D01*
X57148954Y-89038000D01*
X56995110Y-89038000D01*
X56844223Y-89068013D01*
X56702090Y-89126887D01*
X56574173Y-89212358D01*
X56465390Y-89321141D01*
X56379919Y-89449058D01*
X56321045Y-89591191D01*
X56291032Y-89742078D01*
X55828000Y-89742078D01*
X55828000Y-86059078D01*
X56952000Y-86059078D01*
X56952000Y-86212922D01*
X56982013Y-86363809D01*
X57040887Y-86505942D01*
X57126358Y-86633859D01*
X57235141Y-86742642D01*
X57363058Y-86828113D01*
X57505191Y-86886987D01*
X57656078Y-86917000D01*
X57809922Y-86917000D01*
X57960809Y-86886987D01*
X58102942Y-86828113D01*
X58230859Y-86742642D01*
X58339642Y-86633859D01*
X58368000Y-86591418D01*
X58396358Y-86633859D01*
X58505141Y-86742642D01*
X58633058Y-86828113D01*
X58775191Y-86886987D01*
X58926078Y-86917000D01*
X59079922Y-86917000D01*
X59230809Y-86886987D01*
X59372942Y-86828113D01*
X59500859Y-86742642D01*
X59545793Y-86697708D01*
X62087801Y-86697708D01*
X62168259Y-86878293D01*
X62375015Y-86984932D01*
X62598602Y-87049186D01*
X62830429Y-87068586D01*
X63061586Y-87042386D01*
X63283189Y-86971592D01*
X63457741Y-86878293D01*
X63538199Y-86697708D01*
X62813000Y-85972510D01*
X62087801Y-86697708D01*
X59545793Y-86697708D01*
X59609642Y-86633859D01*
X59695113Y-86505942D01*
X59753987Y-86363809D01*
X59784000Y-86212922D01*
X59784000Y-86059078D01*
X59753987Y-85908191D01*
X59750358Y-85899429D01*
X61626414Y-85899429D01*
X61652614Y-86130586D01*
X61723408Y-86352189D01*
X61816707Y-86526741D01*
X61997292Y-86607199D01*
X62722490Y-85882000D01*
X62903510Y-85882000D01*
X63628708Y-86607199D01*
X63809293Y-86526741D01*
X63915932Y-86319985D01*
X63980186Y-86096398D01*
X63999586Y-85864571D01*
X63988378Y-85765682D01*
X69252000Y-85765682D01*
X69252000Y-85998318D01*
X69297386Y-86226485D01*
X69386412Y-86441413D01*
X69515658Y-86634843D01*
X69680157Y-86799342D01*
X69873587Y-86928588D01*
X70088515Y-87017614D01*
X70316682Y-87063000D01*
X70549318Y-87063000D01*
X70777485Y-87017614D01*
X70992413Y-86928588D01*
X71185843Y-86799342D01*
X71287477Y-86697708D01*
X82661801Y-86697708D01*
X82742259Y-86878293D01*
X82949015Y-86984932D01*
X83172602Y-87049186D01*
X83404429Y-87068586D01*
X83635586Y-87042386D01*
X83857189Y-86971592D01*
X84031741Y-86878293D01*
X84112199Y-86697708D01*
X83387000Y-85972510D01*
X82661801Y-86697708D01*
X71287477Y-86697708D01*
X71350342Y-86634843D01*
X71479588Y-86441413D01*
X71568614Y-86226485D01*
X71614000Y-85998318D01*
X71614000Y-85765682D01*
X71568614Y-85537515D01*
X71479588Y-85322587D01*
X71350342Y-85129157D01*
X71185843Y-84964658D01*
X71169608Y-84953810D01*
X75816423Y-84953810D01*
X75816423Y-85107654D01*
X75846436Y-85258541D01*
X75905310Y-85400674D01*
X75990781Y-85528591D01*
X76099564Y-85637374D01*
X76227481Y-85722845D01*
X76369614Y-85781719D01*
X76520501Y-85811732D01*
X76674345Y-85811732D01*
X76825232Y-85781719D01*
X76967365Y-85722845D01*
X77095282Y-85637374D01*
X77204065Y-85528591D01*
X77289536Y-85400674D01*
X77315094Y-85338970D01*
X77934814Y-85338970D01*
X77934814Y-85492814D01*
X77964827Y-85643701D01*
X78023701Y-85785834D01*
X78109172Y-85913751D01*
X78217955Y-86022534D01*
X78345872Y-86108005D01*
X78488005Y-86166879D01*
X78638892Y-86196892D01*
X78792736Y-86196892D01*
X78943623Y-86166879D01*
X79085756Y-86108005D01*
X79213673Y-86022534D01*
X79322456Y-85913751D01*
X79407927Y-85785834D01*
X79416938Y-85764078D01*
X80152000Y-85764078D01*
X80152000Y-85917922D01*
X80182013Y-86068809D01*
X80240887Y-86210942D01*
X80326358Y-86338859D01*
X80435141Y-86447642D01*
X80563058Y-86533113D01*
X80705191Y-86591987D01*
X80856078Y-86622000D01*
X81009922Y-86622000D01*
X81160809Y-86591987D01*
X81302942Y-86533113D01*
X81430859Y-86447642D01*
X81539642Y-86338859D01*
X81625113Y-86210942D01*
X81683987Y-86068809D01*
X81714000Y-85917922D01*
X81714000Y-85899429D01*
X82200414Y-85899429D01*
X82226614Y-86130586D01*
X82297408Y-86352189D01*
X82390707Y-86526741D01*
X82571292Y-86607199D01*
X83296490Y-85882000D01*
X83477510Y-85882000D01*
X84202708Y-86607199D01*
X84383293Y-86526741D01*
X84489932Y-86319985D01*
X84554186Y-86096398D01*
X84573586Y-85864571D01*
X84562378Y-85765682D01*
X89826000Y-85765682D01*
X89826000Y-85998318D01*
X89871386Y-86226485D01*
X89960412Y-86441413D01*
X90089658Y-86634843D01*
X90254157Y-86799342D01*
X90447587Y-86928588D01*
X90662515Y-87017614D01*
X90890682Y-87063000D01*
X91123318Y-87063000D01*
X91351485Y-87017614D01*
X91566413Y-86928588D01*
X91759843Y-86799342D01*
X91924342Y-86634843D01*
X92053588Y-86441413D01*
X92142614Y-86226485D01*
X92188000Y-85998318D01*
X92188000Y-85765682D01*
X92142614Y-85537515D01*
X92053588Y-85322587D01*
X91924342Y-85129157D01*
X91759843Y-84964658D01*
X91566413Y-84835412D01*
X91351485Y-84746386D01*
X91123318Y-84701000D01*
X90890682Y-84701000D01*
X90662515Y-84746386D01*
X90447587Y-84835412D01*
X90254157Y-84964658D01*
X90089658Y-85129157D01*
X89960412Y-85322587D01*
X89871386Y-85537515D01*
X89826000Y-85765682D01*
X84562378Y-85765682D01*
X84547386Y-85633414D01*
X84476592Y-85411811D01*
X84383293Y-85237259D01*
X84202708Y-85156801D01*
X83477510Y-85882000D01*
X83296490Y-85882000D01*
X82571292Y-85156801D01*
X82390707Y-85237259D01*
X82284068Y-85444015D01*
X82219814Y-85667602D01*
X82200414Y-85899429D01*
X81714000Y-85899429D01*
X81714000Y-85764078D01*
X81683987Y-85613191D01*
X81625113Y-85471058D01*
X81539642Y-85343141D01*
X81430859Y-85234358D01*
X81302942Y-85148887D01*
X81160809Y-85090013D01*
X81041555Y-85066292D01*
X82661801Y-85066292D01*
X83387000Y-85791490D01*
X84112199Y-85066292D01*
X84031741Y-84885707D01*
X83824985Y-84779068D01*
X83601398Y-84714814D01*
X83369571Y-84695414D01*
X83138414Y-84721614D01*
X82916811Y-84792408D01*
X82742259Y-84885707D01*
X82661801Y-85066292D01*
X81041555Y-85066292D01*
X81009922Y-85060000D01*
X80856078Y-85060000D01*
X80705191Y-85090013D01*
X80563058Y-85148887D01*
X80435141Y-85234358D01*
X80326358Y-85343141D01*
X80240887Y-85471058D01*
X80182013Y-85613191D01*
X80152000Y-85764078D01*
X79416938Y-85764078D01*
X79466801Y-85643701D01*
X79496814Y-85492814D01*
X79496814Y-85338970D01*
X79466801Y-85188083D01*
X79407927Y-85045950D01*
X79322456Y-84918033D01*
X79270547Y-84866124D01*
X79322528Y-84814143D01*
X79407999Y-84686226D01*
X79466873Y-84544093D01*
X79496886Y-84393206D01*
X79496886Y-84239362D01*
X79477520Y-84142000D01*
X82204157Y-84142000D01*
X82211513Y-84216689D01*
X82233299Y-84288508D01*
X82268678Y-84354696D01*
X82316289Y-84412711D01*
X82374304Y-84460322D01*
X82440492Y-84495701D01*
X82512311Y-84517487D01*
X82587000Y-84524843D01*
X83227750Y-84523000D01*
X83323000Y-84427750D01*
X83323000Y-83406000D01*
X83451000Y-83406000D01*
X83451000Y-84427750D01*
X83546250Y-84523000D01*
X84187000Y-84524843D01*
X84261689Y-84517487D01*
X84333508Y-84495701D01*
X84399696Y-84460322D01*
X84457711Y-84412711D01*
X84505322Y-84354696D01*
X84540701Y-84288508D01*
X84562487Y-84216689D01*
X84569843Y-84142000D01*
X84568000Y-83501250D01*
X84472750Y-83406000D01*
X83451000Y-83406000D01*
X83323000Y-83406000D01*
X82301250Y-83406000D01*
X82206000Y-83501250D01*
X82204157Y-84142000D01*
X79477520Y-84142000D01*
X79466873Y-84088475D01*
X79407999Y-83946342D01*
X79322528Y-83818425D01*
X79213745Y-83709642D01*
X79085828Y-83624171D01*
X78943695Y-83565297D01*
X78792808Y-83535284D01*
X78638964Y-83535284D01*
X78488077Y-83565297D01*
X78345944Y-83624171D01*
X78218027Y-83709642D01*
X78109244Y-83818425D01*
X78023773Y-83946342D01*
X77964899Y-84088475D01*
X77934886Y-84239362D01*
X77934886Y-84393206D01*
X77964899Y-84544093D01*
X78023773Y-84686226D01*
X78109244Y-84814143D01*
X78161153Y-84866052D01*
X78109172Y-84918033D01*
X78023701Y-85045950D01*
X77964827Y-85188083D01*
X77934814Y-85338970D01*
X77315094Y-85338970D01*
X77348410Y-85258541D01*
X77378423Y-85107654D01*
X77378423Y-84953810D01*
X77348410Y-84802923D01*
X77289536Y-84660790D01*
X77204065Y-84532873D01*
X77095282Y-84424090D01*
X76967365Y-84338619D01*
X76825232Y-84279745D01*
X76674345Y-84249732D01*
X76520501Y-84249732D01*
X76369614Y-84279745D01*
X76227481Y-84338619D01*
X76099564Y-84424090D01*
X75990781Y-84532873D01*
X75905310Y-84660790D01*
X75846436Y-84802923D01*
X75816423Y-84953810D01*
X71169608Y-84953810D01*
X70992413Y-84835412D01*
X70777485Y-84746386D01*
X70549318Y-84701000D01*
X70316682Y-84701000D01*
X70088515Y-84746386D01*
X69873587Y-84835412D01*
X69680157Y-84964658D01*
X69515658Y-85129157D01*
X69386412Y-85322587D01*
X69297386Y-85537515D01*
X69252000Y-85765682D01*
X63988378Y-85765682D01*
X63973386Y-85633414D01*
X63902592Y-85411811D01*
X63809293Y-85237259D01*
X63628708Y-85156801D01*
X62903510Y-85882000D01*
X62722490Y-85882000D01*
X61997292Y-85156801D01*
X61816707Y-85237259D01*
X61710068Y-85444015D01*
X61645814Y-85667602D01*
X61626414Y-85899429D01*
X59750358Y-85899429D01*
X59695113Y-85766058D01*
X59609642Y-85638141D01*
X59500859Y-85529358D01*
X59372942Y-85443887D01*
X59230809Y-85385013D01*
X59079922Y-85355000D01*
X58926078Y-85355000D01*
X58775191Y-85385013D01*
X58633058Y-85443887D01*
X58505141Y-85529358D01*
X58396358Y-85638141D01*
X58368000Y-85680582D01*
X58339642Y-85638141D01*
X58230859Y-85529358D01*
X58102942Y-85443887D01*
X57960809Y-85385013D01*
X57809922Y-85355000D01*
X57656078Y-85355000D01*
X57505191Y-85385013D01*
X57363058Y-85443887D01*
X57235141Y-85529358D01*
X57126358Y-85638141D01*
X57040887Y-85766058D01*
X56982013Y-85908191D01*
X56952000Y-86059078D01*
X55828000Y-86059078D01*
X55828000Y-85066292D01*
X62087801Y-85066292D01*
X62813000Y-85791490D01*
X63538199Y-85066292D01*
X63457741Y-84885707D01*
X63250985Y-84779068D01*
X63027398Y-84714814D01*
X62795571Y-84695414D01*
X62564414Y-84721614D01*
X62342811Y-84792408D01*
X62168259Y-84885707D01*
X62087801Y-85066292D01*
X55828000Y-85066292D01*
X55828000Y-84142000D01*
X61630157Y-84142000D01*
X61637513Y-84216689D01*
X61659299Y-84288508D01*
X61694678Y-84354696D01*
X61742289Y-84412711D01*
X61800304Y-84460322D01*
X61866492Y-84495701D01*
X61938311Y-84517487D01*
X62013000Y-84524843D01*
X62653750Y-84523000D01*
X62749000Y-84427750D01*
X62749000Y-83406000D01*
X62877000Y-83406000D01*
X62877000Y-84427750D01*
X62972250Y-84523000D01*
X63613000Y-84524843D01*
X63687689Y-84517487D01*
X63759508Y-84495701D01*
X63825696Y-84460322D01*
X63883711Y-84412711D01*
X63931322Y-84354696D01*
X63966701Y-84288508D01*
X63988487Y-84216689D01*
X63995843Y-84142000D01*
X63994000Y-83501250D01*
X63898750Y-83406000D01*
X62877000Y-83406000D01*
X62749000Y-83406000D01*
X61727250Y-83406000D01*
X61632000Y-83501250D01*
X61630157Y-84142000D01*
X55828000Y-84142000D01*
X55828000Y-82542000D01*
X61630157Y-82542000D01*
X61632000Y-83182750D01*
X61727250Y-83278000D01*
X62749000Y-83278000D01*
X62749000Y-82256250D01*
X62877000Y-82256250D01*
X62877000Y-83278000D01*
X63898750Y-83278000D01*
X63951068Y-83225682D01*
X69252000Y-83225682D01*
X69252000Y-83458318D01*
X69297386Y-83686485D01*
X69386412Y-83901413D01*
X69515658Y-84094843D01*
X69680157Y-84259342D01*
X69873587Y-84388588D01*
X70088515Y-84477614D01*
X70316682Y-84523000D01*
X70549318Y-84523000D01*
X70777485Y-84477614D01*
X70992413Y-84388588D01*
X71185843Y-84259342D01*
X71350342Y-84094843D01*
X71479588Y-83901413D01*
X71568614Y-83686485D01*
X71614000Y-83458318D01*
X71614000Y-83225682D01*
X71571312Y-83011078D01*
X73715992Y-83011078D01*
X73715992Y-83164922D01*
X73746005Y-83315809D01*
X73804879Y-83457942D01*
X73890350Y-83585859D01*
X73999133Y-83694642D01*
X74127050Y-83780113D01*
X74269183Y-83838987D01*
X74420070Y-83869000D01*
X74573914Y-83869000D01*
X74724801Y-83838987D01*
X74866934Y-83780113D01*
X74994851Y-83694642D01*
X75103634Y-83585859D01*
X75189105Y-83457942D01*
X75247979Y-83315809D01*
X75277992Y-83164922D01*
X75277992Y-83011078D01*
X75247979Y-82860191D01*
X75189105Y-82718058D01*
X75103634Y-82590141D01*
X74994851Y-82481358D01*
X74866934Y-82395887D01*
X74724801Y-82337013D01*
X74573914Y-82307000D01*
X74420070Y-82307000D01*
X74269183Y-82337013D01*
X74127050Y-82395887D01*
X73999133Y-82481358D01*
X73890350Y-82590141D01*
X73804879Y-82718058D01*
X73746005Y-82860191D01*
X73715992Y-83011078D01*
X71571312Y-83011078D01*
X71568614Y-82997515D01*
X71479588Y-82782587D01*
X71350342Y-82589157D01*
X71185843Y-82424658D01*
X70992413Y-82295412D01*
X70777485Y-82206386D01*
X70549318Y-82161000D01*
X70316682Y-82161000D01*
X70088515Y-82206386D01*
X69873587Y-82295412D01*
X69680157Y-82424658D01*
X69515658Y-82589157D01*
X69386412Y-82782587D01*
X69297386Y-82997515D01*
X69252000Y-83225682D01*
X63951068Y-83225682D01*
X63994000Y-83182750D01*
X63995843Y-82542000D01*
X63988487Y-82467311D01*
X63966701Y-82395492D01*
X63931322Y-82329304D01*
X63883711Y-82271289D01*
X63825696Y-82223678D01*
X63759508Y-82188299D01*
X63687689Y-82166513D01*
X63613000Y-82159157D01*
X62972250Y-82161000D01*
X62877000Y-82256250D01*
X62749000Y-82256250D01*
X62653750Y-82161000D01*
X62013000Y-82159157D01*
X61938311Y-82166513D01*
X61866492Y-82188299D01*
X61800304Y-82223678D01*
X61742289Y-82271289D01*
X61694678Y-82329304D01*
X61659299Y-82395492D01*
X61637513Y-82467311D01*
X61630157Y-82542000D01*
X55828000Y-82542000D01*
X55828000Y-82122078D01*
X76764000Y-82122078D01*
X76764000Y-82275922D01*
X76794013Y-82426809D01*
X76852887Y-82568942D01*
X76938358Y-82696859D01*
X77047141Y-82805642D01*
X77175058Y-82891113D01*
X77317191Y-82949987D01*
X77468078Y-82980000D01*
X77621922Y-82980000D01*
X77772809Y-82949987D01*
X77914942Y-82891113D01*
X78042859Y-82805642D01*
X78151642Y-82696859D01*
X78237113Y-82568942D01*
X78295987Y-82426809D01*
X78326000Y-82275922D01*
X78326000Y-82122078D01*
X78298551Y-81984078D01*
X80574000Y-81984078D01*
X80574000Y-82137922D01*
X80604013Y-82288809D01*
X80662887Y-82430942D01*
X80748358Y-82558859D01*
X80857141Y-82667642D01*
X80985058Y-82753113D01*
X81127191Y-82811987D01*
X81278078Y-82842000D01*
X81431922Y-82842000D01*
X81582809Y-82811987D01*
X81724942Y-82753113D01*
X81852859Y-82667642D01*
X81961642Y-82558859D01*
X81972906Y-82542000D01*
X82204157Y-82542000D01*
X82206000Y-83182750D01*
X82301250Y-83278000D01*
X83323000Y-83278000D01*
X83323000Y-82256250D01*
X83451000Y-82256250D01*
X83451000Y-83278000D01*
X84472750Y-83278000D01*
X84525068Y-83225682D01*
X89826000Y-83225682D01*
X89826000Y-83458318D01*
X89871386Y-83686485D01*
X89960412Y-83901413D01*
X90089658Y-84094843D01*
X90254157Y-84259342D01*
X90447587Y-84388588D01*
X90662515Y-84477614D01*
X90890682Y-84523000D01*
X91123318Y-84523000D01*
X91351485Y-84477614D01*
X91566413Y-84388588D01*
X91759843Y-84259342D01*
X91924342Y-84094843D01*
X92053588Y-83901413D01*
X92142614Y-83686485D01*
X92188000Y-83458318D01*
X92188000Y-83225682D01*
X92142614Y-82997515D01*
X92053588Y-82782587D01*
X91924342Y-82589157D01*
X91759843Y-82424658D01*
X91566413Y-82295412D01*
X91351485Y-82206386D01*
X91123318Y-82161000D01*
X90890682Y-82161000D01*
X90662515Y-82206386D01*
X90447587Y-82295412D01*
X90254157Y-82424658D01*
X90089658Y-82589157D01*
X89960412Y-82782587D01*
X89871386Y-82997515D01*
X89826000Y-83225682D01*
X84525068Y-83225682D01*
X84568000Y-83182750D01*
X84569843Y-82542000D01*
X84562487Y-82467311D01*
X84540701Y-82395492D01*
X84505322Y-82329304D01*
X84457711Y-82271289D01*
X84399696Y-82223678D01*
X84333508Y-82188299D01*
X84261689Y-82166513D01*
X84187000Y-82159157D01*
X83546250Y-82161000D01*
X83451000Y-82256250D01*
X83323000Y-82256250D01*
X83227750Y-82161000D01*
X82587000Y-82159157D01*
X82512311Y-82166513D01*
X82440492Y-82188299D01*
X82374304Y-82223678D01*
X82316289Y-82271289D01*
X82268678Y-82329304D01*
X82233299Y-82395492D01*
X82211513Y-82467311D01*
X82204157Y-82542000D01*
X81972906Y-82542000D01*
X82047113Y-82430942D01*
X82105987Y-82288809D01*
X82136000Y-82137922D01*
X82136000Y-81984078D01*
X82105987Y-81833191D01*
X82047113Y-81691058D01*
X81961642Y-81563141D01*
X81852859Y-81454358D01*
X81724942Y-81368887D01*
X81582809Y-81310013D01*
X81431922Y-81280000D01*
X81278078Y-81280000D01*
X81127191Y-81310013D01*
X80985058Y-81368887D01*
X80857141Y-81454358D01*
X80748358Y-81563141D01*
X80662887Y-81691058D01*
X80604013Y-81833191D01*
X80574000Y-81984078D01*
X78298551Y-81984078D01*
X78295987Y-81971191D01*
X78237113Y-81829058D01*
X78151642Y-81701141D01*
X78042859Y-81592358D01*
X77914942Y-81506887D01*
X77772809Y-81448013D01*
X77621922Y-81418000D01*
X77468078Y-81418000D01*
X77317191Y-81448013D01*
X77175058Y-81506887D01*
X77047141Y-81592358D01*
X76938358Y-81701141D01*
X76852887Y-81829058D01*
X76794013Y-81971191D01*
X76764000Y-82122078D01*
X55828000Y-82122078D01*
X55828000Y-80598078D01*
X56799000Y-80598078D01*
X56799000Y-80751922D01*
X56829013Y-80902809D01*
X56887887Y-81044942D01*
X56973358Y-81172859D01*
X57082141Y-81281642D01*
X57210058Y-81367113D01*
X57352191Y-81425987D01*
X57503078Y-81456000D01*
X57656922Y-81456000D01*
X57807809Y-81425987D01*
X57949942Y-81367113D01*
X58077859Y-81281642D01*
X58186642Y-81172859D01*
X58272113Y-81044942D01*
X58330987Y-80902809D01*
X58341077Y-80852078D01*
X62286000Y-80852078D01*
X62286000Y-81005922D01*
X62316013Y-81156809D01*
X62374887Y-81298942D01*
X62460358Y-81426859D01*
X62569141Y-81535642D01*
X62697058Y-81621113D01*
X62839191Y-81679987D01*
X62990078Y-81710000D01*
X63143922Y-81710000D01*
X63294809Y-81679987D01*
X63436942Y-81621113D01*
X63564859Y-81535642D01*
X63673642Y-81426859D01*
X63759113Y-81298942D01*
X63817987Y-81156809D01*
X63829000Y-81101442D01*
X63840013Y-81156809D01*
X63898887Y-81298942D01*
X63984358Y-81426859D01*
X64093141Y-81535642D01*
X64221058Y-81621113D01*
X64363191Y-81679987D01*
X64514078Y-81710000D01*
X64667922Y-81710000D01*
X64818809Y-81679987D01*
X64960942Y-81621113D01*
X65088859Y-81535642D01*
X65197642Y-81426859D01*
X65283113Y-81298942D01*
X65341987Y-81156809D01*
X65372000Y-81005922D01*
X65372000Y-80852078D01*
X65341987Y-80701191D01*
X65283113Y-80559058D01*
X65197642Y-80431141D01*
X65088859Y-80322358D01*
X64960942Y-80236887D01*
X64818809Y-80178013D01*
X64667922Y-80148000D01*
X64514078Y-80148000D01*
X64363191Y-80178013D01*
X64221058Y-80236887D01*
X64093141Y-80322358D01*
X63984358Y-80431141D01*
X63898887Y-80559058D01*
X63840013Y-80701191D01*
X63829000Y-80756558D01*
X63817987Y-80701191D01*
X63759113Y-80559058D01*
X63673642Y-80431141D01*
X63564859Y-80322358D01*
X63436942Y-80236887D01*
X63294809Y-80178013D01*
X63143922Y-80148000D01*
X62990078Y-80148000D01*
X62839191Y-80178013D01*
X62697058Y-80236887D01*
X62569141Y-80322358D01*
X62460358Y-80431141D01*
X62374887Y-80559058D01*
X62316013Y-80701191D01*
X62286000Y-80852078D01*
X58341077Y-80852078D01*
X58361000Y-80751922D01*
X58361000Y-80598078D01*
X58330987Y-80447191D01*
X58272113Y-80305058D01*
X58186642Y-80177141D01*
X58077859Y-80068358D01*
X57949942Y-79982887D01*
X57807809Y-79924013D01*
X57656922Y-79894000D01*
X57503078Y-79894000D01*
X57352191Y-79924013D01*
X57210058Y-79982887D01*
X57082141Y-80068358D01*
X56973358Y-80177141D01*
X56887887Y-80305058D01*
X56829013Y-80447191D01*
X56799000Y-80598078D01*
X55828000Y-80598078D01*
X55828000Y-79201078D01*
X62286000Y-79201078D01*
X62286000Y-79354922D01*
X62316013Y-79505809D01*
X62374887Y-79647942D01*
X62460358Y-79775859D01*
X62569141Y-79884642D01*
X62697058Y-79970113D01*
X62839191Y-80028987D01*
X62990078Y-80059000D01*
X63143922Y-80059000D01*
X63294809Y-80028987D01*
X63436942Y-79970113D01*
X63564859Y-79884642D01*
X63673642Y-79775859D01*
X63759113Y-79647942D01*
X63817987Y-79505809D01*
X63829000Y-79450442D01*
X63840013Y-79505809D01*
X63898887Y-79647942D01*
X63984358Y-79775859D01*
X64093141Y-79884642D01*
X64221058Y-79970113D01*
X64363191Y-80028987D01*
X64514078Y-80059000D01*
X64667922Y-80059000D01*
X64818809Y-80028987D01*
X64960942Y-79970113D01*
X65088859Y-79884642D01*
X65197642Y-79775859D01*
X65283113Y-79647942D01*
X65341987Y-79505809D01*
X65372000Y-79354922D01*
X65372000Y-79201078D01*
X65341987Y-79050191D01*
X65283113Y-78908058D01*
X65266757Y-78883578D01*
X70414000Y-78883578D01*
X70414000Y-79037422D01*
X70444013Y-79188309D01*
X70502887Y-79330442D01*
X70588358Y-79458359D01*
X70697141Y-79567142D01*
X70825058Y-79652613D01*
X70967191Y-79711487D01*
X71118078Y-79741500D01*
X71271922Y-79741500D01*
X71422809Y-79711487D01*
X71564942Y-79652613D01*
X71692859Y-79567142D01*
X71801642Y-79458359D01*
X71887113Y-79330442D01*
X71945987Y-79188309D01*
X71963315Y-79101192D01*
X71968013Y-79124809D01*
X72026887Y-79266942D01*
X72112358Y-79394859D01*
X72221141Y-79503642D01*
X72349058Y-79589113D01*
X72491191Y-79647987D01*
X72642078Y-79678000D01*
X72795922Y-79678000D01*
X72946809Y-79647987D01*
X73088942Y-79589113D01*
X73216859Y-79503642D01*
X73325642Y-79394859D01*
X73411113Y-79266942D01*
X73469987Y-79124809D01*
X73500000Y-78973922D01*
X73500000Y-78820078D01*
X81336000Y-78820078D01*
X81336000Y-78973922D01*
X81366013Y-79124809D01*
X81424887Y-79266942D01*
X81510358Y-79394859D01*
X81619141Y-79503642D01*
X81747058Y-79589113D01*
X81889191Y-79647987D01*
X82040078Y-79678000D01*
X82193922Y-79678000D01*
X82344809Y-79647987D01*
X82486942Y-79589113D01*
X82614859Y-79503642D01*
X82723642Y-79394859D01*
X82809113Y-79266942D01*
X82867987Y-79124809D01*
X82872685Y-79101192D01*
X82890013Y-79188309D01*
X82948887Y-79330442D01*
X83034358Y-79458359D01*
X83143141Y-79567142D01*
X83271058Y-79652613D01*
X83413191Y-79711487D01*
X83564078Y-79741500D01*
X83717922Y-79741500D01*
X83868809Y-79711487D01*
X84010942Y-79652613D01*
X84138859Y-79567142D01*
X84247642Y-79458359D01*
X84333113Y-79330442D01*
X84391987Y-79188309D01*
X84422000Y-79037422D01*
X84422000Y-78883578D01*
X84391987Y-78732691D01*
X84333113Y-78590558D01*
X84247642Y-78462641D01*
X84138859Y-78353858D01*
X84010942Y-78268387D01*
X83868809Y-78209513D01*
X83717922Y-78179500D01*
X83564078Y-78179500D01*
X83413191Y-78209513D01*
X83271058Y-78268387D01*
X83143141Y-78353858D01*
X83034358Y-78462641D01*
X82948887Y-78590558D01*
X82890013Y-78732691D01*
X82885315Y-78756308D01*
X82867987Y-78669191D01*
X82809113Y-78527058D01*
X82723642Y-78399141D01*
X82614859Y-78290358D01*
X82486942Y-78204887D01*
X82344809Y-78146013D01*
X82193922Y-78116000D01*
X82040078Y-78116000D01*
X81889191Y-78146013D01*
X81747058Y-78204887D01*
X81619141Y-78290358D01*
X81510358Y-78399141D01*
X81424887Y-78527058D01*
X81366013Y-78669191D01*
X81336000Y-78820078D01*
X73500000Y-78820078D01*
X73469987Y-78669191D01*
X73411113Y-78527058D01*
X73325642Y-78399141D01*
X73216859Y-78290358D01*
X73088942Y-78204887D01*
X72946809Y-78146013D01*
X72795922Y-78116000D01*
X72642078Y-78116000D01*
X72491191Y-78146013D01*
X72349058Y-78204887D01*
X72221141Y-78290358D01*
X72112358Y-78399141D01*
X72026887Y-78527058D01*
X71968013Y-78669191D01*
X71950685Y-78756308D01*
X71945987Y-78732691D01*
X71887113Y-78590558D01*
X71801642Y-78462641D01*
X71692859Y-78353858D01*
X71564942Y-78268387D01*
X71422809Y-78209513D01*
X71271922Y-78179500D01*
X71118078Y-78179500D01*
X70967191Y-78209513D01*
X70825058Y-78268387D01*
X70697141Y-78353858D01*
X70588358Y-78462641D01*
X70502887Y-78590558D01*
X70444013Y-78732691D01*
X70414000Y-78883578D01*
X65266757Y-78883578D01*
X65197642Y-78780141D01*
X65088859Y-78671358D01*
X64960942Y-78585887D01*
X64818809Y-78527013D01*
X64667922Y-78497000D01*
X64514078Y-78497000D01*
X64363191Y-78527013D01*
X64221058Y-78585887D01*
X64093141Y-78671358D01*
X63984358Y-78780141D01*
X63898887Y-78908058D01*
X63840013Y-79050191D01*
X63829000Y-79105558D01*
X63817987Y-79050191D01*
X63759113Y-78908058D01*
X63673642Y-78780141D01*
X63564859Y-78671358D01*
X63436942Y-78585887D01*
X63294809Y-78527013D01*
X63143922Y-78497000D01*
X62990078Y-78497000D01*
X62839191Y-78527013D01*
X62697058Y-78585887D01*
X62569141Y-78671358D01*
X62460358Y-78780141D01*
X62374887Y-78908058D01*
X62316013Y-79050191D01*
X62286000Y-79201078D01*
X55828000Y-79201078D01*
X55828000Y-78008000D01*
X92277000Y-78008000D01*
X92277000Y-78681499D01*
%TA.AperFunction,Conductor*%
D37*
G36*
X92277000Y-78681499D02*
G01*
X92266859Y-78671358D01*
X92138942Y-78585887D01*
X91996809Y-78527013D01*
X91845922Y-78497000D01*
X91692078Y-78497000D01*
X91541191Y-78527013D01*
X91399058Y-78585887D01*
X91271141Y-78671358D01*
X91162358Y-78780141D01*
X91076887Y-78908058D01*
X91018013Y-79050191D01*
X91007000Y-79105558D01*
X90995987Y-79050191D01*
X90937113Y-78908058D01*
X90851642Y-78780141D01*
X90742859Y-78671358D01*
X90614942Y-78585887D01*
X90472809Y-78527013D01*
X90321922Y-78497000D01*
X90168078Y-78497000D01*
X90017191Y-78527013D01*
X89875058Y-78585887D01*
X89747141Y-78671358D01*
X89638358Y-78780141D01*
X89552887Y-78908058D01*
X89494013Y-79050191D01*
X89464000Y-79201078D01*
X89464000Y-79354922D01*
X89494013Y-79505809D01*
X89552887Y-79647942D01*
X89638358Y-79775859D01*
X89747141Y-79884642D01*
X89875058Y-79970113D01*
X90017191Y-80028987D01*
X90168078Y-80059000D01*
X90321922Y-80059000D01*
X90472809Y-80028987D01*
X90614942Y-79970113D01*
X90742859Y-79884642D01*
X90851642Y-79775859D01*
X90937113Y-79647942D01*
X90995987Y-79505809D01*
X91007000Y-79450442D01*
X91018013Y-79505809D01*
X91076887Y-79647942D01*
X91162358Y-79775859D01*
X91271141Y-79884642D01*
X91399058Y-79970113D01*
X91541191Y-80028987D01*
X91692078Y-80059000D01*
X91845922Y-80059000D01*
X91996809Y-80028987D01*
X92138942Y-79970113D01*
X92266859Y-79884642D01*
X92277000Y-79874501D01*
X92277000Y-80332499D01*
X92266859Y-80322358D01*
X92138942Y-80236887D01*
X91996809Y-80178013D01*
X91845922Y-80148000D01*
X91692078Y-80148000D01*
X91541191Y-80178013D01*
X91399058Y-80236887D01*
X91271141Y-80322358D01*
X91162358Y-80431141D01*
X91076887Y-80559058D01*
X91018013Y-80701191D01*
X91007000Y-80756558D01*
X90995987Y-80701191D01*
X90937113Y-80559058D01*
X90851642Y-80431141D01*
X90742859Y-80322358D01*
X90614942Y-80236887D01*
X90472809Y-80178013D01*
X90321922Y-80148000D01*
X90168078Y-80148000D01*
X90017191Y-80178013D01*
X89875058Y-80236887D01*
X89747141Y-80322358D01*
X89638358Y-80431141D01*
X89552887Y-80559058D01*
X89494013Y-80701191D01*
X89464000Y-80852078D01*
X89464000Y-81005922D01*
X89494013Y-81156809D01*
X89552887Y-81298942D01*
X89638358Y-81426859D01*
X89747141Y-81535642D01*
X89875058Y-81621113D01*
X90017191Y-81679987D01*
X90168078Y-81710000D01*
X90321922Y-81710000D01*
X90472809Y-81679987D01*
X90614942Y-81621113D01*
X90742859Y-81535642D01*
X90851642Y-81426859D01*
X90937113Y-81298942D01*
X90995987Y-81156809D01*
X91007000Y-81101442D01*
X91018013Y-81156809D01*
X91076887Y-81298942D01*
X91162358Y-81426859D01*
X91271141Y-81535642D01*
X91399058Y-81621113D01*
X91541191Y-81679987D01*
X91692078Y-81710000D01*
X91845922Y-81710000D01*
X91996809Y-81679987D01*
X92138942Y-81621113D01*
X92266859Y-81535642D01*
X92277000Y-81525501D01*
X92277000Y-87152000D01*
X59384000Y-87152000D01*
X59359224Y-87154440D01*
X59335399Y-87161667D01*
X59313443Y-87173403D01*
X59294197Y-87189197D01*
X59278403Y-87208443D01*
X59266667Y-87230399D01*
X59259440Y-87254224D01*
X59257000Y-87279000D01*
X59257000Y-93629000D01*
X55828000Y-93629000D01*
X55828000Y-89742078D01*
X56291032Y-89742078D01*
X56291032Y-89895922D01*
X56321045Y-90046809D01*
X56379919Y-90188942D01*
X56465390Y-90316859D01*
X56574173Y-90425642D01*
X56702090Y-90511113D01*
X56844223Y-90569987D01*
X56995110Y-90600000D01*
X57148954Y-90600000D01*
X57299841Y-90569987D01*
X57441974Y-90511113D01*
X57569891Y-90425642D01*
X57678674Y-90316859D01*
X57764145Y-90188942D01*
X57823019Y-90046809D01*
X57853032Y-89895922D01*
X57853032Y-89742078D01*
X57823019Y-89591191D01*
X57764145Y-89449058D01*
X57678674Y-89321141D01*
X57569891Y-89212358D01*
X57441974Y-89126887D01*
X57299841Y-89068013D01*
X57148954Y-89038000D01*
X56995110Y-89038000D01*
X56844223Y-89068013D01*
X56702090Y-89126887D01*
X56574173Y-89212358D01*
X56465390Y-89321141D01*
X56379919Y-89449058D01*
X56321045Y-89591191D01*
X56291032Y-89742078D01*
X55828000Y-89742078D01*
X55828000Y-86059078D01*
X56952000Y-86059078D01*
X56952000Y-86212922D01*
X56982013Y-86363809D01*
X57040887Y-86505942D01*
X57126358Y-86633859D01*
X57235141Y-86742642D01*
X57363058Y-86828113D01*
X57505191Y-86886987D01*
X57656078Y-86917000D01*
X57809922Y-86917000D01*
X57960809Y-86886987D01*
X58102942Y-86828113D01*
X58230859Y-86742642D01*
X58339642Y-86633859D01*
X58368000Y-86591418D01*
X58396358Y-86633859D01*
X58505141Y-86742642D01*
X58633058Y-86828113D01*
X58775191Y-86886987D01*
X58926078Y-86917000D01*
X59079922Y-86917000D01*
X59230809Y-86886987D01*
X59372942Y-86828113D01*
X59500859Y-86742642D01*
X59545793Y-86697708D01*
X62087801Y-86697708D01*
X62168259Y-86878293D01*
X62375015Y-86984932D01*
X62598602Y-87049186D01*
X62830429Y-87068586D01*
X63061586Y-87042386D01*
X63283189Y-86971592D01*
X63457741Y-86878293D01*
X63538199Y-86697708D01*
X62813000Y-85972510D01*
X62087801Y-86697708D01*
X59545793Y-86697708D01*
X59609642Y-86633859D01*
X59695113Y-86505942D01*
X59753987Y-86363809D01*
X59784000Y-86212922D01*
X59784000Y-86059078D01*
X59753987Y-85908191D01*
X59750358Y-85899429D01*
X61626414Y-85899429D01*
X61652614Y-86130586D01*
X61723408Y-86352189D01*
X61816707Y-86526741D01*
X61997292Y-86607199D01*
X62722490Y-85882000D01*
X62903510Y-85882000D01*
X63628708Y-86607199D01*
X63809293Y-86526741D01*
X63915932Y-86319985D01*
X63980186Y-86096398D01*
X63999586Y-85864571D01*
X63988378Y-85765682D01*
X69252000Y-85765682D01*
X69252000Y-85998318D01*
X69297386Y-86226485D01*
X69386412Y-86441413D01*
X69515658Y-86634843D01*
X69680157Y-86799342D01*
X69873587Y-86928588D01*
X70088515Y-87017614D01*
X70316682Y-87063000D01*
X70549318Y-87063000D01*
X70777485Y-87017614D01*
X70992413Y-86928588D01*
X71185843Y-86799342D01*
X71287477Y-86697708D01*
X82661801Y-86697708D01*
X82742259Y-86878293D01*
X82949015Y-86984932D01*
X83172602Y-87049186D01*
X83404429Y-87068586D01*
X83635586Y-87042386D01*
X83857189Y-86971592D01*
X84031741Y-86878293D01*
X84112199Y-86697708D01*
X83387000Y-85972510D01*
X82661801Y-86697708D01*
X71287477Y-86697708D01*
X71350342Y-86634843D01*
X71479588Y-86441413D01*
X71568614Y-86226485D01*
X71614000Y-85998318D01*
X71614000Y-85765682D01*
X71568614Y-85537515D01*
X71479588Y-85322587D01*
X71350342Y-85129157D01*
X71185843Y-84964658D01*
X71169608Y-84953810D01*
X75816423Y-84953810D01*
X75816423Y-85107654D01*
X75846436Y-85258541D01*
X75905310Y-85400674D01*
X75990781Y-85528591D01*
X76099564Y-85637374D01*
X76227481Y-85722845D01*
X76369614Y-85781719D01*
X76520501Y-85811732D01*
X76674345Y-85811732D01*
X76825232Y-85781719D01*
X76967365Y-85722845D01*
X77095282Y-85637374D01*
X77204065Y-85528591D01*
X77289536Y-85400674D01*
X77315094Y-85338970D01*
X77934814Y-85338970D01*
X77934814Y-85492814D01*
X77964827Y-85643701D01*
X78023701Y-85785834D01*
X78109172Y-85913751D01*
X78217955Y-86022534D01*
X78345872Y-86108005D01*
X78488005Y-86166879D01*
X78638892Y-86196892D01*
X78792736Y-86196892D01*
X78943623Y-86166879D01*
X79085756Y-86108005D01*
X79213673Y-86022534D01*
X79322456Y-85913751D01*
X79407927Y-85785834D01*
X79416938Y-85764078D01*
X80152000Y-85764078D01*
X80152000Y-85917922D01*
X80182013Y-86068809D01*
X80240887Y-86210942D01*
X80326358Y-86338859D01*
X80435141Y-86447642D01*
X80563058Y-86533113D01*
X80705191Y-86591987D01*
X80856078Y-86622000D01*
X81009922Y-86622000D01*
X81160809Y-86591987D01*
X81302942Y-86533113D01*
X81430859Y-86447642D01*
X81539642Y-86338859D01*
X81625113Y-86210942D01*
X81683987Y-86068809D01*
X81714000Y-85917922D01*
X81714000Y-85899429D01*
X82200414Y-85899429D01*
X82226614Y-86130586D01*
X82297408Y-86352189D01*
X82390707Y-86526741D01*
X82571292Y-86607199D01*
X83296490Y-85882000D01*
X83477510Y-85882000D01*
X84202708Y-86607199D01*
X84383293Y-86526741D01*
X84489932Y-86319985D01*
X84554186Y-86096398D01*
X84573586Y-85864571D01*
X84562378Y-85765682D01*
X89826000Y-85765682D01*
X89826000Y-85998318D01*
X89871386Y-86226485D01*
X89960412Y-86441413D01*
X90089658Y-86634843D01*
X90254157Y-86799342D01*
X90447587Y-86928588D01*
X90662515Y-87017614D01*
X90890682Y-87063000D01*
X91123318Y-87063000D01*
X91351485Y-87017614D01*
X91566413Y-86928588D01*
X91759843Y-86799342D01*
X91924342Y-86634843D01*
X92053588Y-86441413D01*
X92142614Y-86226485D01*
X92188000Y-85998318D01*
X92188000Y-85765682D01*
X92142614Y-85537515D01*
X92053588Y-85322587D01*
X91924342Y-85129157D01*
X91759843Y-84964658D01*
X91566413Y-84835412D01*
X91351485Y-84746386D01*
X91123318Y-84701000D01*
X90890682Y-84701000D01*
X90662515Y-84746386D01*
X90447587Y-84835412D01*
X90254157Y-84964658D01*
X90089658Y-85129157D01*
X89960412Y-85322587D01*
X89871386Y-85537515D01*
X89826000Y-85765682D01*
X84562378Y-85765682D01*
X84547386Y-85633414D01*
X84476592Y-85411811D01*
X84383293Y-85237259D01*
X84202708Y-85156801D01*
X83477510Y-85882000D01*
X83296490Y-85882000D01*
X82571292Y-85156801D01*
X82390707Y-85237259D01*
X82284068Y-85444015D01*
X82219814Y-85667602D01*
X82200414Y-85899429D01*
X81714000Y-85899429D01*
X81714000Y-85764078D01*
X81683987Y-85613191D01*
X81625113Y-85471058D01*
X81539642Y-85343141D01*
X81430859Y-85234358D01*
X81302942Y-85148887D01*
X81160809Y-85090013D01*
X81041555Y-85066292D01*
X82661801Y-85066292D01*
X83387000Y-85791490D01*
X84112199Y-85066292D01*
X84031741Y-84885707D01*
X83824985Y-84779068D01*
X83601398Y-84714814D01*
X83369571Y-84695414D01*
X83138414Y-84721614D01*
X82916811Y-84792408D01*
X82742259Y-84885707D01*
X82661801Y-85066292D01*
X81041555Y-85066292D01*
X81009922Y-85060000D01*
X80856078Y-85060000D01*
X80705191Y-85090013D01*
X80563058Y-85148887D01*
X80435141Y-85234358D01*
X80326358Y-85343141D01*
X80240887Y-85471058D01*
X80182013Y-85613191D01*
X80152000Y-85764078D01*
X79416938Y-85764078D01*
X79466801Y-85643701D01*
X79496814Y-85492814D01*
X79496814Y-85338970D01*
X79466801Y-85188083D01*
X79407927Y-85045950D01*
X79322456Y-84918033D01*
X79270547Y-84866124D01*
X79322528Y-84814143D01*
X79407999Y-84686226D01*
X79466873Y-84544093D01*
X79496886Y-84393206D01*
X79496886Y-84239362D01*
X79477520Y-84142000D01*
X82204157Y-84142000D01*
X82211513Y-84216689D01*
X82233299Y-84288508D01*
X82268678Y-84354696D01*
X82316289Y-84412711D01*
X82374304Y-84460322D01*
X82440492Y-84495701D01*
X82512311Y-84517487D01*
X82587000Y-84524843D01*
X83227750Y-84523000D01*
X83323000Y-84427750D01*
X83323000Y-83406000D01*
X83451000Y-83406000D01*
X83451000Y-84427750D01*
X83546250Y-84523000D01*
X84187000Y-84524843D01*
X84261689Y-84517487D01*
X84333508Y-84495701D01*
X84399696Y-84460322D01*
X84457711Y-84412711D01*
X84505322Y-84354696D01*
X84540701Y-84288508D01*
X84562487Y-84216689D01*
X84569843Y-84142000D01*
X84568000Y-83501250D01*
X84472750Y-83406000D01*
X83451000Y-83406000D01*
X83323000Y-83406000D01*
X82301250Y-83406000D01*
X82206000Y-83501250D01*
X82204157Y-84142000D01*
X79477520Y-84142000D01*
X79466873Y-84088475D01*
X79407999Y-83946342D01*
X79322528Y-83818425D01*
X79213745Y-83709642D01*
X79085828Y-83624171D01*
X78943695Y-83565297D01*
X78792808Y-83535284D01*
X78638964Y-83535284D01*
X78488077Y-83565297D01*
X78345944Y-83624171D01*
X78218027Y-83709642D01*
X78109244Y-83818425D01*
X78023773Y-83946342D01*
X77964899Y-84088475D01*
X77934886Y-84239362D01*
X77934886Y-84393206D01*
X77964899Y-84544093D01*
X78023773Y-84686226D01*
X78109244Y-84814143D01*
X78161153Y-84866052D01*
X78109172Y-84918033D01*
X78023701Y-85045950D01*
X77964827Y-85188083D01*
X77934814Y-85338970D01*
X77315094Y-85338970D01*
X77348410Y-85258541D01*
X77378423Y-85107654D01*
X77378423Y-84953810D01*
X77348410Y-84802923D01*
X77289536Y-84660790D01*
X77204065Y-84532873D01*
X77095282Y-84424090D01*
X76967365Y-84338619D01*
X76825232Y-84279745D01*
X76674345Y-84249732D01*
X76520501Y-84249732D01*
X76369614Y-84279745D01*
X76227481Y-84338619D01*
X76099564Y-84424090D01*
X75990781Y-84532873D01*
X75905310Y-84660790D01*
X75846436Y-84802923D01*
X75816423Y-84953810D01*
X71169608Y-84953810D01*
X70992413Y-84835412D01*
X70777485Y-84746386D01*
X70549318Y-84701000D01*
X70316682Y-84701000D01*
X70088515Y-84746386D01*
X69873587Y-84835412D01*
X69680157Y-84964658D01*
X69515658Y-85129157D01*
X69386412Y-85322587D01*
X69297386Y-85537515D01*
X69252000Y-85765682D01*
X63988378Y-85765682D01*
X63973386Y-85633414D01*
X63902592Y-85411811D01*
X63809293Y-85237259D01*
X63628708Y-85156801D01*
X62903510Y-85882000D01*
X62722490Y-85882000D01*
X61997292Y-85156801D01*
X61816707Y-85237259D01*
X61710068Y-85444015D01*
X61645814Y-85667602D01*
X61626414Y-85899429D01*
X59750358Y-85899429D01*
X59695113Y-85766058D01*
X59609642Y-85638141D01*
X59500859Y-85529358D01*
X59372942Y-85443887D01*
X59230809Y-85385013D01*
X59079922Y-85355000D01*
X58926078Y-85355000D01*
X58775191Y-85385013D01*
X58633058Y-85443887D01*
X58505141Y-85529358D01*
X58396358Y-85638141D01*
X58368000Y-85680582D01*
X58339642Y-85638141D01*
X58230859Y-85529358D01*
X58102942Y-85443887D01*
X57960809Y-85385013D01*
X57809922Y-85355000D01*
X57656078Y-85355000D01*
X57505191Y-85385013D01*
X57363058Y-85443887D01*
X57235141Y-85529358D01*
X57126358Y-85638141D01*
X57040887Y-85766058D01*
X56982013Y-85908191D01*
X56952000Y-86059078D01*
X55828000Y-86059078D01*
X55828000Y-85066292D01*
X62087801Y-85066292D01*
X62813000Y-85791490D01*
X63538199Y-85066292D01*
X63457741Y-84885707D01*
X63250985Y-84779068D01*
X63027398Y-84714814D01*
X62795571Y-84695414D01*
X62564414Y-84721614D01*
X62342811Y-84792408D01*
X62168259Y-84885707D01*
X62087801Y-85066292D01*
X55828000Y-85066292D01*
X55828000Y-84142000D01*
X61630157Y-84142000D01*
X61637513Y-84216689D01*
X61659299Y-84288508D01*
X61694678Y-84354696D01*
X61742289Y-84412711D01*
X61800304Y-84460322D01*
X61866492Y-84495701D01*
X61938311Y-84517487D01*
X62013000Y-84524843D01*
X62653750Y-84523000D01*
X62749000Y-84427750D01*
X62749000Y-83406000D01*
X62877000Y-83406000D01*
X62877000Y-84427750D01*
X62972250Y-84523000D01*
X63613000Y-84524843D01*
X63687689Y-84517487D01*
X63759508Y-84495701D01*
X63825696Y-84460322D01*
X63883711Y-84412711D01*
X63931322Y-84354696D01*
X63966701Y-84288508D01*
X63988487Y-84216689D01*
X63995843Y-84142000D01*
X63994000Y-83501250D01*
X63898750Y-83406000D01*
X62877000Y-83406000D01*
X62749000Y-83406000D01*
X61727250Y-83406000D01*
X61632000Y-83501250D01*
X61630157Y-84142000D01*
X55828000Y-84142000D01*
X55828000Y-82542000D01*
X61630157Y-82542000D01*
X61632000Y-83182750D01*
X61727250Y-83278000D01*
X62749000Y-83278000D01*
X62749000Y-82256250D01*
X62877000Y-82256250D01*
X62877000Y-83278000D01*
X63898750Y-83278000D01*
X63951068Y-83225682D01*
X69252000Y-83225682D01*
X69252000Y-83458318D01*
X69297386Y-83686485D01*
X69386412Y-83901413D01*
X69515658Y-84094843D01*
X69680157Y-84259342D01*
X69873587Y-84388588D01*
X70088515Y-84477614D01*
X70316682Y-84523000D01*
X70549318Y-84523000D01*
X70777485Y-84477614D01*
X70992413Y-84388588D01*
X71185843Y-84259342D01*
X71350342Y-84094843D01*
X71479588Y-83901413D01*
X71568614Y-83686485D01*
X71614000Y-83458318D01*
X71614000Y-83225682D01*
X71571312Y-83011078D01*
X73715992Y-83011078D01*
X73715992Y-83164922D01*
X73746005Y-83315809D01*
X73804879Y-83457942D01*
X73890350Y-83585859D01*
X73999133Y-83694642D01*
X74127050Y-83780113D01*
X74269183Y-83838987D01*
X74420070Y-83869000D01*
X74573914Y-83869000D01*
X74724801Y-83838987D01*
X74866934Y-83780113D01*
X74994851Y-83694642D01*
X75103634Y-83585859D01*
X75189105Y-83457942D01*
X75247979Y-83315809D01*
X75277992Y-83164922D01*
X75277992Y-83011078D01*
X75247979Y-82860191D01*
X75189105Y-82718058D01*
X75103634Y-82590141D01*
X74994851Y-82481358D01*
X74866934Y-82395887D01*
X74724801Y-82337013D01*
X74573914Y-82307000D01*
X74420070Y-82307000D01*
X74269183Y-82337013D01*
X74127050Y-82395887D01*
X73999133Y-82481358D01*
X73890350Y-82590141D01*
X73804879Y-82718058D01*
X73746005Y-82860191D01*
X73715992Y-83011078D01*
X71571312Y-83011078D01*
X71568614Y-82997515D01*
X71479588Y-82782587D01*
X71350342Y-82589157D01*
X71185843Y-82424658D01*
X70992413Y-82295412D01*
X70777485Y-82206386D01*
X70549318Y-82161000D01*
X70316682Y-82161000D01*
X70088515Y-82206386D01*
X69873587Y-82295412D01*
X69680157Y-82424658D01*
X69515658Y-82589157D01*
X69386412Y-82782587D01*
X69297386Y-82997515D01*
X69252000Y-83225682D01*
X63951068Y-83225682D01*
X63994000Y-83182750D01*
X63995843Y-82542000D01*
X63988487Y-82467311D01*
X63966701Y-82395492D01*
X63931322Y-82329304D01*
X63883711Y-82271289D01*
X63825696Y-82223678D01*
X63759508Y-82188299D01*
X63687689Y-82166513D01*
X63613000Y-82159157D01*
X62972250Y-82161000D01*
X62877000Y-82256250D01*
X62749000Y-82256250D01*
X62653750Y-82161000D01*
X62013000Y-82159157D01*
X61938311Y-82166513D01*
X61866492Y-82188299D01*
X61800304Y-82223678D01*
X61742289Y-82271289D01*
X61694678Y-82329304D01*
X61659299Y-82395492D01*
X61637513Y-82467311D01*
X61630157Y-82542000D01*
X55828000Y-82542000D01*
X55828000Y-82122078D01*
X76764000Y-82122078D01*
X76764000Y-82275922D01*
X76794013Y-82426809D01*
X76852887Y-82568942D01*
X76938358Y-82696859D01*
X77047141Y-82805642D01*
X77175058Y-82891113D01*
X77317191Y-82949987D01*
X77468078Y-82980000D01*
X77621922Y-82980000D01*
X77772809Y-82949987D01*
X77914942Y-82891113D01*
X78042859Y-82805642D01*
X78151642Y-82696859D01*
X78237113Y-82568942D01*
X78295987Y-82426809D01*
X78326000Y-82275922D01*
X78326000Y-82122078D01*
X78298551Y-81984078D01*
X80574000Y-81984078D01*
X80574000Y-82137922D01*
X80604013Y-82288809D01*
X80662887Y-82430942D01*
X80748358Y-82558859D01*
X80857141Y-82667642D01*
X80985058Y-82753113D01*
X81127191Y-82811987D01*
X81278078Y-82842000D01*
X81431922Y-82842000D01*
X81582809Y-82811987D01*
X81724942Y-82753113D01*
X81852859Y-82667642D01*
X81961642Y-82558859D01*
X81972906Y-82542000D01*
X82204157Y-82542000D01*
X82206000Y-83182750D01*
X82301250Y-83278000D01*
X83323000Y-83278000D01*
X83323000Y-82256250D01*
X83451000Y-82256250D01*
X83451000Y-83278000D01*
X84472750Y-83278000D01*
X84525068Y-83225682D01*
X89826000Y-83225682D01*
X89826000Y-83458318D01*
X89871386Y-83686485D01*
X89960412Y-83901413D01*
X90089658Y-84094843D01*
X90254157Y-84259342D01*
X90447587Y-84388588D01*
X90662515Y-84477614D01*
X90890682Y-84523000D01*
X91123318Y-84523000D01*
X91351485Y-84477614D01*
X91566413Y-84388588D01*
X91759843Y-84259342D01*
X91924342Y-84094843D01*
X92053588Y-83901413D01*
X92142614Y-83686485D01*
X92188000Y-83458318D01*
X92188000Y-83225682D01*
X92142614Y-82997515D01*
X92053588Y-82782587D01*
X91924342Y-82589157D01*
X91759843Y-82424658D01*
X91566413Y-82295412D01*
X91351485Y-82206386D01*
X91123318Y-82161000D01*
X90890682Y-82161000D01*
X90662515Y-82206386D01*
X90447587Y-82295412D01*
X90254157Y-82424658D01*
X90089658Y-82589157D01*
X89960412Y-82782587D01*
X89871386Y-82997515D01*
X89826000Y-83225682D01*
X84525068Y-83225682D01*
X84568000Y-83182750D01*
X84569843Y-82542000D01*
X84562487Y-82467311D01*
X84540701Y-82395492D01*
X84505322Y-82329304D01*
X84457711Y-82271289D01*
X84399696Y-82223678D01*
X84333508Y-82188299D01*
X84261689Y-82166513D01*
X84187000Y-82159157D01*
X83546250Y-82161000D01*
X83451000Y-82256250D01*
X83323000Y-82256250D01*
X83227750Y-82161000D01*
X82587000Y-82159157D01*
X82512311Y-82166513D01*
X82440492Y-82188299D01*
X82374304Y-82223678D01*
X82316289Y-82271289D01*
X82268678Y-82329304D01*
X82233299Y-82395492D01*
X82211513Y-82467311D01*
X82204157Y-82542000D01*
X81972906Y-82542000D01*
X82047113Y-82430942D01*
X82105987Y-82288809D01*
X82136000Y-82137922D01*
X82136000Y-81984078D01*
X82105987Y-81833191D01*
X82047113Y-81691058D01*
X81961642Y-81563141D01*
X81852859Y-81454358D01*
X81724942Y-81368887D01*
X81582809Y-81310013D01*
X81431922Y-81280000D01*
X81278078Y-81280000D01*
X81127191Y-81310013D01*
X80985058Y-81368887D01*
X80857141Y-81454358D01*
X80748358Y-81563141D01*
X80662887Y-81691058D01*
X80604013Y-81833191D01*
X80574000Y-81984078D01*
X78298551Y-81984078D01*
X78295987Y-81971191D01*
X78237113Y-81829058D01*
X78151642Y-81701141D01*
X78042859Y-81592358D01*
X77914942Y-81506887D01*
X77772809Y-81448013D01*
X77621922Y-81418000D01*
X77468078Y-81418000D01*
X77317191Y-81448013D01*
X77175058Y-81506887D01*
X77047141Y-81592358D01*
X76938358Y-81701141D01*
X76852887Y-81829058D01*
X76794013Y-81971191D01*
X76764000Y-82122078D01*
X55828000Y-82122078D01*
X55828000Y-80598078D01*
X56799000Y-80598078D01*
X56799000Y-80751922D01*
X56829013Y-80902809D01*
X56887887Y-81044942D01*
X56973358Y-81172859D01*
X57082141Y-81281642D01*
X57210058Y-81367113D01*
X57352191Y-81425987D01*
X57503078Y-81456000D01*
X57656922Y-81456000D01*
X57807809Y-81425987D01*
X57949942Y-81367113D01*
X58077859Y-81281642D01*
X58186642Y-81172859D01*
X58272113Y-81044942D01*
X58330987Y-80902809D01*
X58341077Y-80852078D01*
X62286000Y-80852078D01*
X62286000Y-81005922D01*
X62316013Y-81156809D01*
X62374887Y-81298942D01*
X62460358Y-81426859D01*
X62569141Y-81535642D01*
X62697058Y-81621113D01*
X62839191Y-81679987D01*
X62990078Y-81710000D01*
X63143922Y-81710000D01*
X63294809Y-81679987D01*
X63436942Y-81621113D01*
X63564859Y-81535642D01*
X63673642Y-81426859D01*
X63759113Y-81298942D01*
X63817987Y-81156809D01*
X63829000Y-81101442D01*
X63840013Y-81156809D01*
X63898887Y-81298942D01*
X63984358Y-81426859D01*
X64093141Y-81535642D01*
X64221058Y-81621113D01*
X64363191Y-81679987D01*
X64514078Y-81710000D01*
X64667922Y-81710000D01*
X64818809Y-81679987D01*
X64960942Y-81621113D01*
X65088859Y-81535642D01*
X65197642Y-81426859D01*
X65283113Y-81298942D01*
X65341987Y-81156809D01*
X65372000Y-81005922D01*
X65372000Y-80852078D01*
X65341987Y-80701191D01*
X65283113Y-80559058D01*
X65197642Y-80431141D01*
X65088859Y-80322358D01*
X64960942Y-80236887D01*
X64818809Y-80178013D01*
X64667922Y-80148000D01*
X64514078Y-80148000D01*
X64363191Y-80178013D01*
X64221058Y-80236887D01*
X64093141Y-80322358D01*
X63984358Y-80431141D01*
X63898887Y-80559058D01*
X63840013Y-80701191D01*
X63829000Y-80756558D01*
X63817987Y-80701191D01*
X63759113Y-80559058D01*
X63673642Y-80431141D01*
X63564859Y-80322358D01*
X63436942Y-80236887D01*
X63294809Y-80178013D01*
X63143922Y-80148000D01*
X62990078Y-80148000D01*
X62839191Y-80178013D01*
X62697058Y-80236887D01*
X62569141Y-80322358D01*
X62460358Y-80431141D01*
X62374887Y-80559058D01*
X62316013Y-80701191D01*
X62286000Y-80852078D01*
X58341077Y-80852078D01*
X58361000Y-80751922D01*
X58361000Y-80598078D01*
X58330987Y-80447191D01*
X58272113Y-80305058D01*
X58186642Y-80177141D01*
X58077859Y-80068358D01*
X57949942Y-79982887D01*
X57807809Y-79924013D01*
X57656922Y-79894000D01*
X57503078Y-79894000D01*
X57352191Y-79924013D01*
X57210058Y-79982887D01*
X57082141Y-80068358D01*
X56973358Y-80177141D01*
X56887887Y-80305058D01*
X56829013Y-80447191D01*
X56799000Y-80598078D01*
X55828000Y-80598078D01*
X55828000Y-79201078D01*
X62286000Y-79201078D01*
X62286000Y-79354922D01*
X62316013Y-79505809D01*
X62374887Y-79647942D01*
X62460358Y-79775859D01*
X62569141Y-79884642D01*
X62697058Y-79970113D01*
X62839191Y-80028987D01*
X62990078Y-80059000D01*
X63143922Y-80059000D01*
X63294809Y-80028987D01*
X63436942Y-79970113D01*
X63564859Y-79884642D01*
X63673642Y-79775859D01*
X63759113Y-79647942D01*
X63817987Y-79505809D01*
X63829000Y-79450442D01*
X63840013Y-79505809D01*
X63898887Y-79647942D01*
X63984358Y-79775859D01*
X64093141Y-79884642D01*
X64221058Y-79970113D01*
X64363191Y-80028987D01*
X64514078Y-80059000D01*
X64667922Y-80059000D01*
X64818809Y-80028987D01*
X64960942Y-79970113D01*
X65088859Y-79884642D01*
X65197642Y-79775859D01*
X65283113Y-79647942D01*
X65341987Y-79505809D01*
X65372000Y-79354922D01*
X65372000Y-79201078D01*
X65341987Y-79050191D01*
X65283113Y-78908058D01*
X65266757Y-78883578D01*
X70414000Y-78883578D01*
X70414000Y-79037422D01*
X70444013Y-79188309D01*
X70502887Y-79330442D01*
X70588358Y-79458359D01*
X70697141Y-79567142D01*
X70825058Y-79652613D01*
X70967191Y-79711487D01*
X71118078Y-79741500D01*
X71271922Y-79741500D01*
X71422809Y-79711487D01*
X71564942Y-79652613D01*
X71692859Y-79567142D01*
X71801642Y-79458359D01*
X71887113Y-79330442D01*
X71945987Y-79188309D01*
X71963315Y-79101192D01*
X71968013Y-79124809D01*
X72026887Y-79266942D01*
X72112358Y-79394859D01*
X72221141Y-79503642D01*
X72349058Y-79589113D01*
X72491191Y-79647987D01*
X72642078Y-79678000D01*
X72795922Y-79678000D01*
X72946809Y-79647987D01*
X73088942Y-79589113D01*
X73216859Y-79503642D01*
X73325642Y-79394859D01*
X73411113Y-79266942D01*
X73469987Y-79124809D01*
X73500000Y-78973922D01*
X73500000Y-78820078D01*
X81336000Y-78820078D01*
X81336000Y-78973922D01*
X81366013Y-79124809D01*
X81424887Y-79266942D01*
X81510358Y-79394859D01*
X81619141Y-79503642D01*
X81747058Y-79589113D01*
X81889191Y-79647987D01*
X82040078Y-79678000D01*
X82193922Y-79678000D01*
X82344809Y-79647987D01*
X82486942Y-79589113D01*
X82614859Y-79503642D01*
X82723642Y-79394859D01*
X82809113Y-79266942D01*
X82867987Y-79124809D01*
X82872685Y-79101192D01*
X82890013Y-79188309D01*
X82948887Y-79330442D01*
X83034358Y-79458359D01*
X83143141Y-79567142D01*
X83271058Y-79652613D01*
X83413191Y-79711487D01*
X83564078Y-79741500D01*
X83717922Y-79741500D01*
X83868809Y-79711487D01*
X84010942Y-79652613D01*
X84138859Y-79567142D01*
X84247642Y-79458359D01*
X84333113Y-79330442D01*
X84391987Y-79188309D01*
X84422000Y-79037422D01*
X84422000Y-78883578D01*
X84391987Y-78732691D01*
X84333113Y-78590558D01*
X84247642Y-78462641D01*
X84138859Y-78353858D01*
X84010942Y-78268387D01*
X83868809Y-78209513D01*
X83717922Y-78179500D01*
X83564078Y-78179500D01*
X83413191Y-78209513D01*
X83271058Y-78268387D01*
X83143141Y-78353858D01*
X83034358Y-78462641D01*
X82948887Y-78590558D01*
X82890013Y-78732691D01*
X82885315Y-78756308D01*
X82867987Y-78669191D01*
X82809113Y-78527058D01*
X82723642Y-78399141D01*
X82614859Y-78290358D01*
X82486942Y-78204887D01*
X82344809Y-78146013D01*
X82193922Y-78116000D01*
X82040078Y-78116000D01*
X81889191Y-78146013D01*
X81747058Y-78204887D01*
X81619141Y-78290358D01*
X81510358Y-78399141D01*
X81424887Y-78527058D01*
X81366013Y-78669191D01*
X81336000Y-78820078D01*
X73500000Y-78820078D01*
X73469987Y-78669191D01*
X73411113Y-78527058D01*
X73325642Y-78399141D01*
X73216859Y-78290358D01*
X73088942Y-78204887D01*
X72946809Y-78146013D01*
X72795922Y-78116000D01*
X72642078Y-78116000D01*
X72491191Y-78146013D01*
X72349058Y-78204887D01*
X72221141Y-78290358D01*
X72112358Y-78399141D01*
X72026887Y-78527058D01*
X71968013Y-78669191D01*
X71950685Y-78756308D01*
X71945987Y-78732691D01*
X71887113Y-78590558D01*
X71801642Y-78462641D01*
X71692859Y-78353858D01*
X71564942Y-78268387D01*
X71422809Y-78209513D01*
X71271922Y-78179500D01*
X71118078Y-78179500D01*
X70967191Y-78209513D01*
X70825058Y-78268387D01*
X70697141Y-78353858D01*
X70588358Y-78462641D01*
X70502887Y-78590558D01*
X70444013Y-78732691D01*
X70414000Y-78883578D01*
X65266757Y-78883578D01*
X65197642Y-78780141D01*
X65088859Y-78671358D01*
X64960942Y-78585887D01*
X64818809Y-78527013D01*
X64667922Y-78497000D01*
X64514078Y-78497000D01*
X64363191Y-78527013D01*
X64221058Y-78585887D01*
X64093141Y-78671358D01*
X63984358Y-78780141D01*
X63898887Y-78908058D01*
X63840013Y-79050191D01*
X63829000Y-79105558D01*
X63817987Y-79050191D01*
X63759113Y-78908058D01*
X63673642Y-78780141D01*
X63564859Y-78671358D01*
X63436942Y-78585887D01*
X63294809Y-78527013D01*
X63143922Y-78497000D01*
X62990078Y-78497000D01*
X62839191Y-78527013D01*
X62697058Y-78585887D01*
X62569141Y-78671358D01*
X62460358Y-78780141D01*
X62374887Y-78908058D01*
X62316013Y-79050191D01*
X62286000Y-79201078D01*
X55828000Y-79201078D01*
X55828000Y-78008000D01*
X92277000Y-78008000D01*
X92277000Y-78681499D01*
G37*
%TD.AperFunction*%
%TD*%
M02*
