%TF.GenerationSoftware,KiCad,Pcbnew,(5.1.10)-1*%
%TF.CreationDate,2022-01-20T20:18:55+07:00*%
%TF.ProjectId,PCB_4x_pnlz1_3,5043425f-3478-45f7-906e-6c7a315f332e,rev?*%
%TF.SameCoordinates,Original*%
%TF.FileFunction,Copper,L2,Inr*%
%TF.FilePolarity,Positive*%
%FSLAX46Y46*%
G04 Gerber Fmt 4.6, Leading zero omitted, Abs format (unit mm)*
G04 Created by KiCad (PCBNEW (5.1.10)-1) date 2022-01-20 20:18:55*
%MOMM*%
%LPD*%
G01*
G04 APERTURE LIST*
%TA.AperFunction,ComponentPad*%
%ADD10R,1.000000X1.000000*%
%TD*%
%TA.AperFunction,ComponentPad*%
%ADD11O,1.000000X1.000000*%
%TD*%
%TA.AperFunction,ComponentPad*%
%ADD12C,1.000000*%
%TD*%
%TA.AperFunction,ComponentPad*%
%ADD13C,1.600000*%
%TD*%
%TA.AperFunction,ComponentPad*%
%ADD14R,1.600000X1.600000*%
%TD*%
%TA.AperFunction,ComponentPad*%
%ADD15R,2.400000X1.700000*%
%TD*%
%TA.AperFunction,ComponentPad*%
%ADD16O,2.400000X1.700000*%
%TD*%
%TA.AperFunction,ComponentPad*%
%ADD17O,1.700000X1.700000*%
%TD*%
%TA.AperFunction,ComponentPad*%
%ADD18R,1.900000X2.700000*%
%TD*%
%TA.AperFunction,ComponentPad*%
%ADD19C,1.500000*%
%TD*%
%TA.AperFunction,ComponentPad*%
%ADD20O,1.600000X1.600000*%
%TD*%
%TA.AperFunction,ComponentPad*%
%ADD21C,2.000000*%
%TD*%
%TA.AperFunction,ComponentPad*%
%ADD22C,1.800000*%
%TD*%
%TA.AperFunction,ComponentPad*%
%ADD23R,1.800000X1.800000*%
%TD*%
%TA.AperFunction,ComponentPad*%
%ADD24R,1.700000X1.700000*%
%TD*%
%TA.AperFunction,ComponentPad*%
%ADD25O,1.750000X2.250000*%
%TD*%
%TA.AperFunction,ComponentPad*%
%ADD26R,1.750000X2.250000*%
%TD*%
%TA.AperFunction,ViaPad*%
%ADD27C,0.800000*%
%TD*%
%TA.AperFunction,ViaPad*%
%ADD28C,1.200000*%
%TD*%
%TA.AperFunction,ViaPad*%
%ADD29C,1.000000*%
%TD*%
%TA.AperFunction,ViaPad*%
%ADD30C,1.100000*%
%TD*%
%TA.AperFunction,Conductor*%
%ADD31C,1.000000*%
%TD*%
%TA.AperFunction,Conductor*%
%ADD32C,2.000000*%
%TD*%
%TA.AperFunction,Conductor*%
%ADD33C,0.800000*%
%TD*%
%TA.AperFunction,Conductor*%
%ADD34C,0.300000*%
%TD*%
%TA.AperFunction,Conductor*%
%ADD35C,0.250000*%
%TD*%
%TA.AperFunction,Conductor*%
%ADD36C,0.254000*%
%TD*%
%TA.AperFunction,Conductor*%
%ADD37C,0.020000*%
%TD*%
G04 APERTURE END LIST*
D10*
%TO.N,VCCQ*%
%TO.C,J2*%
X105944000Y-125536000D03*
D11*
%TO.N,GND2*%
X107214000Y-125536000D03*
%TO.N,/SDAq*%
X105944000Y-126806000D03*
%TO.N,/SCLq*%
X107214000Y-126806000D03*
%TO.N,/outa*%
X105944000Y-128076000D03*
%TO.N,/inb*%
X107214000Y-128076000D03*
%TD*%
D10*
%TO.N,VCCQ*%
%TO.C,J2*%
X93444000Y-125536000D03*
D11*
%TO.N,GND2*%
X94714000Y-125536000D03*
%TO.N,/SDAq*%
X93444000Y-126806000D03*
%TO.N,/SCLq*%
X94714000Y-126806000D03*
%TO.N,/outa*%
X93444000Y-128076000D03*
%TO.N,/inb*%
X94714000Y-128076000D03*
%TD*%
D10*
%TO.N,VCCQ*%
%TO.C,J2*%
X80944000Y-125536000D03*
D11*
%TO.N,GND2*%
X82214000Y-125536000D03*
%TO.N,/SDAq*%
X80944000Y-126806000D03*
%TO.N,/SCLq*%
X82214000Y-126806000D03*
%TO.N,/outa*%
X80944000Y-128076000D03*
%TO.N,/inb*%
X82214000Y-128076000D03*
%TD*%
D10*
%TO.N,/ina*%
%TO.C,J1*%
X105944000Y-105724000D03*
D11*
%TO.N,/outb*%
X107214000Y-105724000D03*
%TO.N,/SDA*%
X105944000Y-106994000D03*
%TO.N,/SCL*%
X107214000Y-106994000D03*
%TO.N,VCC*%
X105944000Y-108264000D03*
%TO.N,GND*%
X107214000Y-108264000D03*
%TD*%
D10*
%TO.N,/ina*%
%TO.C,J1*%
X93444000Y-105724000D03*
D11*
%TO.N,/outb*%
X94714000Y-105724000D03*
%TO.N,/SDA*%
X93444000Y-106994000D03*
%TO.N,/SCL*%
X94714000Y-106994000D03*
%TO.N,VCC*%
X93444000Y-108264000D03*
%TO.N,GND*%
X94714000Y-108264000D03*
%TD*%
D10*
%TO.N,/ina*%
%TO.C,J1*%
X80944000Y-105724000D03*
D11*
%TO.N,/outb*%
X82214000Y-105724000D03*
%TO.N,/SDA*%
X80944000Y-106994000D03*
%TO.N,/SCL*%
X82214000Y-106994000D03*
%TO.N,VCC*%
X80944000Y-108264000D03*
%TO.N,GND*%
X82214000Y-108264000D03*
%TD*%
D12*
%TO.N,/Int*%
%TO.C,U7*%
X88691000Y-63287000D03*
%TO.N,/+5V_valid*%
X88691000Y-62017000D03*
%TO.N,/I2C_SCL*%
X87421000Y-63287000D03*
%TO.N,/I2C_SDA*%
X87421000Y-62017000D03*
%TO.N,GNDPWR*%
X86151000Y-63287000D03*
D10*
%TO.N,+3.3VP*%
X86151000Y-62017000D03*
D12*
%TO.N,GND1*%
X68879000Y-63287000D03*
%TO.N,+5P*%
X68879000Y-62017000D03*
%TO.N,/scl0*%
X67609000Y-63287000D03*
%TO.N,/sda0*%
X67609000Y-62017000D03*
%TO.N,/I2C_Int*%
X66339000Y-63287000D03*
D10*
%TO.N,/+5V_state*%
X66339000Y-62017000D03*
%TD*%
D13*
%TO.N,Net-(JP6-Pad1)*%
%TO.C,U4*%
X71927000Y-72558000D03*
%TO.N,GNDPWR*%
X71927000Y-70018000D03*
%TO.N,Net-(JP5-Pad1)*%
X71936500Y-67478000D03*
%TO.N,/+5V_state*%
X71927000Y-62398000D03*
%TO.N,+5P*%
X71927000Y-59858000D03*
%TO.N,GND1*%
X71927000Y-57318000D03*
D14*
%TO.N,Net-(C6-Pad2)*%
X71927000Y-54778000D03*
%TD*%
D15*
%TO.N,Net-(J1-Pad1)*%
%TO.C,U1*%
X65958000Y-75733000D03*
D16*
%TO.N,Net-(J1-Pad3)*%
X65958000Y-70653000D03*
%TO.N,+5V*%
X65958000Y-57953000D03*
%TO.N,GND1*%
X65958000Y-55413000D03*
%TD*%
D17*
%TO.N,/Load2N*%
%TO.C,J4*%
X103042000Y-76622000D03*
%TO.N,N/C*%
X105582000Y-76622000D03*
D18*
%TO.N,Net-(J4-Pad1)*%
X108122000Y-76114000D03*
%TD*%
D17*
%TO.N,/Load1N*%
%TO.C,J3*%
X93136000Y-76622000D03*
%TO.N,N/C*%
X95676000Y-76622000D03*
D18*
%TO.N,Net-(J3-Pad1)*%
X98216000Y-76114000D03*
%TD*%
D17*
%TO.N,Net-(J1-Pad3)*%
%TO.C,J1*%
X60878000Y-76622000D03*
%TO.N,N/C*%
X63418000Y-76622000D03*
D18*
%TO.N,Net-(J1-Pad1)*%
X65958000Y-76114000D03*
%TD*%
D11*
%TO.N,/nRst*%
%TO.C,JP4*%
X88310000Y-56302000D03*
%TO.N,GNDPWR*%
X88310000Y-55032000D03*
%TO.N,Net-(JP4-Pad2)*%
X87040000Y-56302000D03*
D10*
%TO.N,GNDPWR*%
X87040000Y-55032000D03*
%TD*%
D11*
%TO.N,/sda0*%
%TO.C,J6*%
X73959000Y-58080000D03*
%TO.N,/scl0*%
X73959000Y-59350000D03*
%TO.N,GND1*%
X75229000Y-58080000D03*
X75229000Y-59350000D03*
%TO.N,/I2C_Int*%
X76499000Y-58080000D03*
D10*
%TO.N,/+5V_state*%
X76499000Y-59350000D03*
%TD*%
D19*
%TO.N,Net-(KP1-Pad1)*%
%TO.C,KP1*%
X73705000Y-64557000D03*
%TD*%
D20*
%TO.N,Net-(F1-Pad2)*%
%TO.C,F1*%
X97200000Y-63922000D03*
D13*
%TO.N,AC*%
X97200000Y-71542000D03*
%TD*%
D21*
%TO.N,GND1*%
%TO.C,GND1*%
X63037000Y-65065000D03*
%TD*%
D22*
%TO.N,Net-(D3-Pad2)*%
%TO.C,U2*%
X98216000Y-55540000D03*
%TO.N,+5VP*%
X98216000Y-58080000D03*
%TO.N,Net-(F1-Pad2)*%
X98216000Y-68240000D03*
D23*
%TO.N,Net-(J3-Pad1)*%
X98216000Y-75860000D03*
%TD*%
D22*
%TO.N,Net-(D4-Pad2)*%
%TO.C,U3*%
X108122000Y-55540000D03*
%TO.N,+5VP*%
X108122000Y-58080000D03*
%TO.N,Net-(F2-Pad2)*%
X108122000Y-68240000D03*
D23*
%TO.N,Net-(J4-Pad1)*%
X108122000Y-75860000D03*
%TD*%
D11*
%TO.N,+5V*%
%TO.C,J2*%
X60751000Y-58080000D03*
X60751000Y-59350000D03*
%TO.N,GND1*%
X62021000Y-58080000D03*
X62021000Y-59350000D03*
%TO.N,+5P*%
X63291000Y-58080000D03*
D10*
X63291000Y-59350000D03*
%TD*%
D20*
%TO.N,Net-(F2-Pad2)*%
%TO.C,F2*%
X107233000Y-63922000D03*
D13*
%TO.N,AC*%
X107233000Y-71542000D03*
%TD*%
D11*
%TO.N,/scl0*%
%TO.C,J2*%
X60751000Y-83580000D03*
%TO.N,/sda0*%
X60751000Y-84850000D03*
%TO.N,GND1*%
X62021000Y-83580000D03*
X62021000Y-84850000D03*
%TO.N,+5P*%
X63291000Y-83580000D03*
D10*
X63291000Y-84850000D03*
%TD*%
D21*
%TO.N,Net-(C5-Pad2)*%
%TO.C,C5*%
X99613000Y-99582000D03*
%TO.N,Net-(C5-Pad1)*%
X77113000Y-99582000D03*
%TD*%
D14*
%TO.N,+5VP*%
%TO.C,K2*%
X94787000Y-84342000D03*
D13*
X94787000Y-86882000D03*
%TO.N,Net-(J1-Pad3)*%
X94787000Y-91962000D03*
%TO.N,Net-(C7-Pad1)*%
X94787000Y-97042000D03*
%TO.N,Net-(K2-Pad8)*%
X94787000Y-102122000D03*
X102407000Y-102122000D03*
%TO.N,Net-(C5-Pad2)*%
X102407000Y-97042000D03*
%TO.N,Net-(C7-Pad1)*%
X102407000Y-91962000D03*
%TO.N,Net-(C12-Pad2)*%
X102407000Y-86882000D03*
%TO.N,Net-(C11-Pad2)*%
X102407000Y-84342000D03*
%TD*%
D24*
%TO.N,Net-(J1-Pad1)*%
%TO.C,J1*%
X85770000Y-101868000D03*
D17*
%TO.N,N/C*%
X88310000Y-101868000D03*
%TO.N,Net-(J1-Pad3)*%
X90850000Y-101868000D03*
%TD*%
D21*
%TO.N,GND2*%
%TO.C,TP1*%
X65640500Y-95518000D03*
%TD*%
D25*
%TO.N,Net-(C6-Pad2)*%
%TO.C,PS1*%
X69641000Y-102249000D03*
%TO.N,GND2*%
X67101000Y-102249000D03*
%TO.N,+5P*%
X64561000Y-102249000D03*
D26*
%TO.N,GND1*%
X62021000Y-102249000D03*
%TD*%
D13*
%TO.N,Net-(C3-Pad2)*%
%TO.C,K1*%
X81833000Y-84342000D03*
%TO.N,Net-(C4-Pad2)*%
X81833000Y-86882000D03*
%TO.N,Net-(J1-Pad1)*%
X81833000Y-91962000D03*
%TO.N,Net-(C5-Pad2)*%
X81833000Y-97042000D03*
%TO.N,Net-(K1-Pad8)*%
X81833000Y-102122000D03*
X74213000Y-102122000D03*
%TO.N,Net-(C7-Pad1)*%
X74213000Y-97042000D03*
%TO.N,Net-(C5-Pad1)*%
X74213000Y-91962000D03*
%TO.N,+5VP*%
X74213000Y-86882000D03*
D14*
X74213000Y-84342000D03*
%TD*%
D21*
%TO.N,Net-(C5-Pad2)*%
%TO.C,C7*%
X107741000Y-100445000D03*
%TO.N,Net-(C7-Pad1)*%
X107741000Y-82945000D03*
%TD*%
D11*
%TO.N,GND*%
%TO.C,J1*%
X69714000Y-108264000D03*
%TO.N,VCC*%
X68444000Y-108264000D03*
%TO.N,/SCL*%
X69714000Y-106994000D03*
%TO.N,/SDA*%
X68444000Y-106994000D03*
%TO.N,/outb*%
X69714000Y-105724000D03*
D10*
%TO.N,/ina*%
X68444000Y-105724000D03*
%TD*%
D11*
%TO.N,/inb*%
%TO.C,J2*%
X69714000Y-128076000D03*
%TO.N,/outa*%
X68444000Y-128076000D03*
%TO.N,/SCLq*%
X69714000Y-126806000D03*
%TO.N,/SDAq*%
X68444000Y-126806000D03*
%TO.N,GND2*%
X69714000Y-125536000D03*
D10*
%TO.N,VCCQ*%
X68444000Y-125536000D03*
%TD*%
D27*
%TO.N,+5P*%
X65577000Y-92343000D03*
X65577000Y-88660000D03*
%TO.N,GND1*%
X68980000Y-81675000D03*
%TO.N,GNDPWR*%
X101518000Y-59477000D03*
D28*
X103169000Y-69510000D03*
X93263000Y-69510000D03*
D27*
X79674000Y-54905000D03*
X91612000Y-59477000D03*
X83230000Y-54905000D03*
X103089000Y-66081000D03*
X93183000Y-66081000D03*
X60624000Y-67097000D03*
X85460945Y-73463065D03*
X81557425Y-72155425D03*
X75229000Y-62525022D03*
X78478402Y-71674063D03*
D28*
%TO.N,+5VP*%
X73832000Y-69129000D03*
D27*
X90495000Y-83199000D03*
D28*
X69895006Y-93740000D03*
%TO.N,AC*%
X71419000Y-77130000D03*
D27*
%TO.N,/scl0*%
X62021000Y-87832000D03*
X60497000Y-91136500D03*
%TO.N,/sda0*%
X60497000Y-92597000D03*
D28*
%TO.N,+3.3VP*%
X75757678Y-72660868D03*
D27*
X86786000Y-66234000D03*
X78912000Y-72685000D03*
D29*
X83787627Y-71471744D03*
D27*
X88564000Y-60112000D03*
%TO.N,Net-(C9-Pad2)*%
X88071824Y-70541826D03*
%TO.N,Net-(C10-Pad1)*%
X91363013Y-68112998D03*
%TO.N,Net-(C11-Pad2)*%
X94782337Y-68752659D03*
X103169000Y-81929000D03*
%TO.N,Net-(C12-Pad1)*%
X101264000Y-68113000D03*
X101645000Y-80278000D03*
%TO.N,/L1_o1_nEn*%
X91612000Y-61001000D03*
X77388000Y-65900679D03*
%TO.N,/L1_o2_nEn*%
X78277000Y-63160000D03*
X94660000Y-60873998D03*
%TO.N,/SPI_MOSI*%
X75861034Y-67240237D03*
%TO.N,/SPI_MISO*%
X76264927Y-68928876D03*
%TO.N,/SPI_SCLK*%
X75460803Y-68282612D03*
%TO.N,/SPI_SSEL*%
X79436969Y-67373799D03*
%TO.N,/Int*%
X85162621Y-65572012D03*
X78399241Y-65890007D03*
%TO.N,Net-(C1-Pad1)*%
X92183500Y-55921000D03*
%TO.N,Net-(C2-Pad1)*%
X102089500Y-55959100D03*
%TO.N,Net-(D1-Pad1)*%
X91675500Y-54397000D03*
%TO.N,Net-(D2-Pad1)*%
X101581500Y-54397000D03*
%TO.N,+5V*%
X63925000Y-62779000D03*
%TO.N,Net-(C4-Pad1)*%
X74467000Y-80278000D03*
D28*
%TO.N,Net-(C6-Pad2)*%
X68371000Y-98058000D03*
D27*
%TO.N,Net-(C17-Pad2)*%
X77562000Y-72685000D03*
X76779000Y-62525020D03*
%TO.N,Net-(R27-Pad2)*%
X82237978Y-67773021D03*
X91596675Y-64032675D03*
%TO.N,/I2C_SDA*%
X80569875Y-68854535D03*
X90115886Y-85316284D03*
X70403000Y-87136000D03*
%TO.N,/I2C_SCL*%
X83524357Y-65711990D03*
X79530639Y-68902033D03*
X90115814Y-86415892D03*
X69133000Y-87136000D03*
%TO.N,/+5V_valid*%
X78277002Y-68875002D03*
%TO.N,VCC*%
X68291000Y-111693000D03*
D30*
X62856000Y-110169000D03*
D27*
X80791000Y-111693000D03*
X93291000Y-111693000D03*
X105791000Y-111693000D03*
D30*
X75356000Y-110169000D03*
X87856000Y-110169000D03*
X100356000Y-110169000D03*
D27*
%TO.N,GND*%
X69841000Y-111693000D03*
X82341000Y-111693000D03*
X94841000Y-111693000D03*
X107341000Y-111693000D03*
%TO.N,VCCQ*%
X68291000Y-122107000D03*
D30*
X62856000Y-123631000D03*
D27*
%TO.N,GND2*%
X88945000Y-83199000D03*
X84119000Y-79897000D03*
X93517000Y-79897000D03*
X82595000Y-79960500D03*
X95041000Y-79960500D03*
X68472032Y-90819000D03*
X69841000Y-122107000D03*
%TO.N,/SCL*%
X64379953Y-114996581D03*
%TO.N,/SDA*%
X64409645Y-113997010D03*
%TO.N,/SCLq*%
X61590919Y-118789860D03*
%TO.N,/SDAq*%
X61575469Y-119789753D03*
%TO.N,Net-(Q1-Pad2)*%
X67555000Y-112836000D03*
X65523004Y-111597102D03*
%TO.N,Net-(Q2-Pad2)*%
X69587000Y-112836000D03*
X62919496Y-113658467D03*
%TO.N,Net-(Q3-Pad2)*%
X68571000Y-112836000D03*
X65269000Y-108899006D03*
%TO.N,VCCQ*%
X80791000Y-122107000D03*
X93291000Y-122107000D03*
X105791000Y-122107000D03*
D30*
X75356000Y-123631000D03*
X87856000Y-123631000D03*
X100356000Y-123631000D03*
D27*
%TO.N,GND2*%
X82341000Y-122107000D03*
X94841000Y-122107000D03*
X107341000Y-122107000D03*
%TO.N,/SCL*%
X76879953Y-114996581D03*
X89379953Y-114996581D03*
X101879953Y-114996581D03*
%TO.N,/SDA*%
X76909645Y-113997010D03*
X89409645Y-113997010D03*
X101909645Y-113997010D03*
%TO.N,/SCLq*%
X74090919Y-118789860D03*
X86590919Y-118789860D03*
X99090919Y-118789860D03*
%TO.N,/SDAq*%
X74075469Y-119789753D03*
X86575469Y-119789753D03*
X99075469Y-119789753D03*
%TO.N,Net-(Q1-Pad2)*%
X80055000Y-112836000D03*
X92555000Y-112836000D03*
X105055000Y-112836000D03*
X78023004Y-111597102D03*
X90523004Y-111597102D03*
X103023004Y-111597102D03*
%TO.N,Net-(Q2-Pad2)*%
X82087000Y-112836000D03*
X94587000Y-112836000D03*
X107087000Y-112836000D03*
X75419496Y-113658467D03*
X87919496Y-113658467D03*
X100419496Y-113658467D03*
%TO.N,Net-(Q3-Pad2)*%
X81071000Y-112836000D03*
X93571000Y-112836000D03*
X106071000Y-112836000D03*
X77769000Y-108899006D03*
X90269000Y-108899006D03*
X102769000Y-108899006D03*
%TO.N,Net-(Q4-Pad2)*%
X70603000Y-112836000D03*
X62921996Y-106685189D03*
X83103000Y-112836000D03*
X95603000Y-112836000D03*
X108103000Y-112836000D03*
X75421996Y-106685189D03*
X87921996Y-106685189D03*
X100421996Y-106685189D03*
%TO.N,Net-(Q5-Pad2)*%
X66260265Y-122245990D03*
X67561379Y-120942295D03*
X78760265Y-122245990D03*
X91260265Y-122245990D03*
X103760265Y-122245990D03*
X80061379Y-120942295D03*
X92561379Y-120942295D03*
X105061379Y-120942295D03*
%TO.N,Net-(Q6-Pad2)*%
X69587000Y-120964000D03*
X63110000Y-119948000D03*
X82087000Y-120964000D03*
X94587000Y-120964000D03*
X107087000Y-120964000D03*
X75610000Y-119948000D03*
X88110000Y-119948000D03*
X100610000Y-119948000D03*
%TO.N,Net-(Q7-Pad2)*%
X62982726Y-127115423D03*
X68571000Y-120964000D03*
X75482726Y-127115423D03*
X87982726Y-127115423D03*
X100482726Y-127115423D03*
X81071000Y-120964000D03*
X93571000Y-120964000D03*
X106071000Y-120964000D03*
%TO.N,Net-(Q8-Pad2)*%
X70632135Y-120964043D03*
X66666000Y-126552000D03*
X83132135Y-120964043D03*
X95632135Y-120964043D03*
X108132135Y-120964043D03*
X79166000Y-126552000D03*
X91666000Y-126552000D03*
X104166000Y-126552000D03*
%TO.N,Net-(C3-Pad2)*%
X75991000Y-81929000D03*
%TO.N,Net-(C3-Pad1)*%
X75991000Y-80278000D03*
%TO.N,Net-(C4-Pad2)*%
X74467000Y-81929000D03*
%TO.N,Net-(C11-Pad1)*%
X103169000Y-80278000D03*
%TO.N,/K1_set*%
X85896992Y-84088000D03*
%TO.N,/K2_set*%
X92333000Y-86841000D03*
%TO.N,/K2_rst*%
X92755000Y-83061000D03*
X87997423Y-86030732D03*
%TO.N,Net-(C12-Pad2)*%
X101645000Y-81929000D03*
%TD*%
D31*
%TO.N,+5VP*%
X107360000Y-57318000D02*
X108122000Y-58080000D01*
X98978000Y-57318000D02*
X107360000Y-57318000D01*
X98216000Y-58080000D02*
X98978000Y-57318000D01*
X98216000Y-59352792D02*
X98216000Y-58080000D01*
X92376792Y-65192000D02*
X98216000Y-59352792D01*
X91866000Y-65192000D02*
X92376792Y-65192000D01*
X86791991Y-70266009D02*
X91866000Y-65192000D01*
X74969009Y-70266009D02*
X86791991Y-70266009D01*
X73832000Y-69129000D02*
X74969009Y-70266009D01*
X107360000Y-57318000D02*
X108122000Y-58080000D01*
X98978000Y-57318000D02*
X107360000Y-57318000D01*
X98216000Y-58080000D02*
X98978000Y-57318000D01*
X98216000Y-59352792D02*
X98216000Y-58080000D01*
X92376792Y-65192000D02*
X98216000Y-59352792D01*
X91866000Y-65192000D02*
X92376792Y-65192000D01*
X86791991Y-70266009D02*
X91866000Y-65192000D01*
X74969009Y-70266009D02*
X86791991Y-70266009D01*
X73832000Y-69129000D02*
X74969009Y-70266009D01*
D32*
%TO.N,Net-(F1-Pad2)*%
X97200000Y-67224000D02*
X98216000Y-68240000D01*
X97200000Y-63922000D02*
X97200000Y-67224000D01*
X97200000Y-67224000D02*
X98216000Y-68240000D01*
X97200000Y-63922000D02*
X97200000Y-67224000D01*
%TO.N,AC*%
X106725000Y-72050000D02*
X107233000Y-71542000D01*
X97708000Y-72050000D02*
X106725000Y-72050000D01*
X97200000Y-71542000D02*
X97708000Y-72050000D01*
X96692000Y-72050000D02*
X97200000Y-71542000D01*
X92247000Y-72050000D02*
X96692000Y-72050000D01*
X87167000Y-77130000D02*
X92247000Y-72050000D01*
X71419000Y-77130000D02*
X87167000Y-77130000D01*
X106725000Y-72050000D02*
X107233000Y-71542000D01*
X97708000Y-72050000D02*
X106725000Y-72050000D01*
X97200000Y-71542000D02*
X97708000Y-72050000D01*
X96692000Y-72050000D02*
X97200000Y-71542000D01*
X92247000Y-72050000D02*
X96692000Y-72050000D01*
X87167000Y-77130000D02*
X92247000Y-72050000D01*
X71419000Y-77130000D02*
X87167000Y-77130000D01*
%TO.N,Net-(F2-Pad2)*%
X107233000Y-67351000D02*
X108122000Y-68240000D01*
X107233000Y-63922000D02*
X107233000Y-67351000D01*
X107233000Y-67351000D02*
X108122000Y-68240000D01*
X107233000Y-63922000D02*
X107233000Y-67351000D01*
D31*
%TO.N,+3.3VP*%
X75757678Y-72660868D02*
X77051810Y-73955000D01*
X78912000Y-73828000D02*
X79039000Y-73955000D01*
X78912000Y-72685000D02*
X78912000Y-73828000D01*
X77051810Y-73955000D02*
X79039000Y-73955000D01*
X83787627Y-71480874D02*
X83787627Y-71471744D01*
X79039000Y-73955000D02*
X81313501Y-73955000D01*
X81313501Y-73955000D02*
X83787627Y-71480874D01*
D33*
X86151000Y-62017000D02*
X85792998Y-62017000D01*
X85050999Y-63980388D02*
X86786000Y-65715389D01*
X85050999Y-62758999D02*
X85050999Y-63980388D01*
X86786000Y-65715389D02*
X86786000Y-66234000D01*
X85792998Y-62017000D02*
X85050999Y-62758999D01*
D31*
X75757678Y-72660868D02*
X77051810Y-73955000D01*
X78912000Y-73828000D02*
X79039000Y-73955000D01*
X78912000Y-72685000D02*
X78912000Y-73828000D01*
X77051810Y-73955000D02*
X79039000Y-73955000D01*
X83787627Y-71480874D02*
X83787627Y-71471744D01*
X79039000Y-73955000D02*
X81313501Y-73955000D01*
X81313501Y-73955000D02*
X83787627Y-71480874D01*
D33*
X86151000Y-62017000D02*
X85792998Y-62017000D01*
X85050999Y-63980388D02*
X86786000Y-65715389D01*
X85050999Y-62758999D02*
X85050999Y-63980388D01*
X86786000Y-65715389D02*
X86786000Y-66234000D01*
X85792998Y-62017000D02*
X85050999Y-62758999D01*
D34*
%TO.N,/L1_o2_nEn*%
X93782997Y-61751001D02*
X94660000Y-60873998D01*
X89775000Y-61751001D02*
X93782997Y-61751001D01*
X89151999Y-61128000D02*
X89775000Y-61751001D01*
X85452500Y-61128000D02*
X89151999Y-61128000D01*
X83420500Y-63160000D02*
X85452500Y-61128000D01*
X78277000Y-63160000D02*
X83420500Y-63160000D01*
X93782997Y-61751001D02*
X94660000Y-60873998D01*
X89775000Y-61751001D02*
X93782997Y-61751001D01*
X89151999Y-61128000D02*
X89775000Y-61751001D01*
X85452500Y-61128000D02*
X89151999Y-61128000D01*
X83420500Y-63160000D02*
X85452500Y-61128000D01*
X78277000Y-63160000D02*
X83420500Y-63160000D01*
D35*
%TO.N,/+5V_valid*%
X79053199Y-68098805D02*
X78277002Y-68875002D01*
X80196195Y-68098805D02*
X79053199Y-68098805D01*
X81246989Y-67048011D02*
X80196195Y-68098805D01*
X89516001Y-64747999D02*
X87215989Y-67048011D01*
X87215989Y-67048011D02*
X81246989Y-67048011D01*
X89516001Y-62842001D02*
X89516001Y-64747999D01*
X88691000Y-62017000D02*
X89516001Y-62842001D01*
X79053199Y-68098805D02*
X78277002Y-68875002D01*
X80196195Y-68098805D02*
X79053199Y-68098805D01*
X81246989Y-67048011D02*
X80196195Y-68098805D01*
X89516001Y-64747999D02*
X87215989Y-67048011D01*
X87215989Y-67048011D02*
X81246989Y-67048011D01*
X89516001Y-62842001D02*
X89516001Y-64747999D01*
X88691000Y-62017000D02*
X89516001Y-62842001D01*
D34*
%TO.N,/SCL*%
X72664001Y-128144001D02*
X71814000Y-127294000D01*
X72664001Y-128972001D02*
X72664001Y-128144001D01*
X71852999Y-129414001D02*
X72222001Y-129414001D01*
X68893000Y-132374000D02*
X71852999Y-129414001D01*
X72222001Y-129414001D02*
X72664001Y-128972001D01*
X68893000Y-133449219D02*
X68893000Y-132374000D01*
X67045638Y-135296581D02*
X68893000Y-133449219D01*
X66479953Y-135296581D02*
X67045638Y-135296581D01*
%TO.N,VCCQ*%
X103766001Y-119486001D02*
X102916000Y-118636000D01*
X103766001Y-120314001D02*
X103766001Y-119486001D01*
X102954999Y-120756001D02*
X103324001Y-120756001D01*
X99995000Y-123716000D02*
X102954999Y-120756001D01*
X103324001Y-120756001D02*
X103766001Y-120314001D01*
X99995000Y-124791219D02*
X99995000Y-123716000D01*
X98147638Y-126638581D02*
X99995000Y-124791219D01*
X97581953Y-126638581D02*
X98147638Y-126638581D01*
%TO.N,/SCL*%
X23366001Y-112486001D02*
X22516000Y-111636000D01*
X23366001Y-113314001D02*
X23366001Y-112486001D01*
X22554999Y-113756001D02*
X22924001Y-113756001D01*
X19595000Y-116716000D02*
X22554999Y-113756001D01*
X22924001Y-113756001D02*
X23366001Y-113314001D01*
X19595000Y-117791219D02*
X19595000Y-116716000D01*
X17747638Y-119638581D02*
X19595000Y-117791219D01*
X17181953Y-119638581D02*
X17747638Y-119638581D01*
%TO.N,/inb*%
X67223990Y-134297010D02*
X66509645Y-134297010D01*
X68392990Y-133128010D02*
X67223990Y-134297010D01*
X68392990Y-132112010D02*
X68392990Y-133128010D01*
X69655000Y-130850000D02*
X68392990Y-132112010D01*
X69655000Y-128183000D02*
X69655000Y-130850000D01*
X70544000Y-127294000D02*
X69655000Y-128183000D01*
%TO.N,Net-(Q6-Pad2)*%
X98325990Y-125639010D02*
X97611645Y-125639010D01*
X99494990Y-124470010D02*
X98325990Y-125639010D01*
X99494990Y-123454010D02*
X99494990Y-124470010D01*
X100757000Y-122192000D02*
X99494990Y-123454010D01*
X100757000Y-119525000D02*
X100757000Y-122192000D01*
X101646000Y-118636000D02*
X100757000Y-119525000D01*
%TO.N,/SDA*%
X17925990Y-118639010D02*
X17211645Y-118639010D01*
X19094990Y-117470010D02*
X17925990Y-118639010D01*
X19094990Y-116454010D02*
X19094990Y-117470010D01*
X20357000Y-115192000D02*
X19094990Y-116454010D01*
X20357000Y-112525000D02*
X20357000Y-115192000D01*
X21246000Y-111636000D02*
X20357000Y-112525000D01*
%TO.N,/SCLq*%
X72664001Y-146255999D02*
X71814000Y-147106000D01*
X72664001Y-145427999D02*
X72664001Y-146255999D01*
X71814000Y-147094002D02*
X72664001Y-146244001D01*
X72664001Y-146244001D02*
X72664001Y-145427999D01*
X71814000Y-147106000D02*
X71814000Y-147094002D01*
X63785578Y-139089860D02*
X63690919Y-139089860D01*
X64425470Y-139729752D02*
X63785578Y-139089860D01*
X68798998Y-144947000D02*
X64425470Y-140573472D01*
X64425470Y-140573472D02*
X64425470Y-139729752D01*
X72183002Y-144947000D02*
X68798998Y-144947000D01*
X72664001Y-145427999D02*
X72183002Y-144947000D01*
X103766001Y-137597999D02*
X102916000Y-138448000D01*
X103766001Y-136769999D02*
X103766001Y-137597999D01*
X102916000Y-138436002D02*
X103766001Y-137586001D01*
X103766001Y-137586001D02*
X103766001Y-136769999D01*
X102916000Y-138448000D02*
X102916000Y-138436002D01*
X94887578Y-130431860D02*
X94792919Y-130431860D01*
X95527470Y-131071752D02*
X94887578Y-130431860D01*
X99900998Y-136289000D02*
X95527470Y-131915472D01*
X95527470Y-131915472D02*
X95527470Y-131071752D01*
X103285002Y-136289000D02*
X99900998Y-136289000D01*
X103766001Y-136769999D02*
X103285002Y-136289000D01*
X23366001Y-130597999D02*
X22516000Y-131448000D01*
X23366001Y-129769999D02*
X23366001Y-130597999D01*
X22516000Y-131436002D02*
X23366001Y-130586001D01*
X23366001Y-130586001D02*
X23366001Y-129769999D01*
X22516000Y-131448000D02*
X22516000Y-131436002D01*
X14487578Y-123431860D02*
X14392919Y-123431860D01*
X15127470Y-124071752D02*
X14487578Y-123431860D01*
X19500998Y-129289000D02*
X15127470Y-124915472D01*
X15127470Y-124915472D02*
X15127470Y-124071752D01*
X22885002Y-129289000D02*
X19500998Y-129289000D01*
X23366001Y-129769999D02*
X22885002Y-129289000D01*
%TO.N,/SDAq*%
X63675469Y-140655438D02*
X63675469Y-140089753D01*
X70126032Y-147106000D02*
X63675469Y-140655438D01*
X70544000Y-147106000D02*
X70126032Y-147106000D01*
X94777469Y-131997438D02*
X94777469Y-131431753D01*
X101228032Y-138448000D02*
X94777469Y-131997438D01*
X101646000Y-138448000D02*
X101228032Y-138448000D01*
X14377469Y-124997438D02*
X14377469Y-124431753D01*
X20828032Y-131448000D02*
X14377469Y-124997438D01*
X21246000Y-131448000D02*
X20828032Y-131448000D01*
%TD*%
D36*
%TO.N,+5VP*%
X103677000Y-79681499D02*
X103666859Y-79671358D01*
X103538942Y-79585887D01*
X103396809Y-79527013D01*
X103245922Y-79497000D01*
X103092078Y-79497000D01*
X102941191Y-79527013D01*
X102799058Y-79585887D01*
X102671141Y-79671358D01*
X102562358Y-79780141D01*
X102476887Y-79908058D01*
X102418013Y-80050191D01*
X102407000Y-80105558D01*
X102395987Y-80050191D01*
X102337113Y-79908058D01*
X102251642Y-79780141D01*
X102142859Y-79671358D01*
X102014942Y-79585887D01*
X101872809Y-79527013D01*
X101721922Y-79497000D01*
X101568078Y-79497000D01*
X101417191Y-79527013D01*
X101275058Y-79585887D01*
X101147141Y-79671358D01*
X101038358Y-79780141D01*
X100952887Y-79908058D01*
X100894013Y-80050191D01*
X100864000Y-80201078D01*
X100864000Y-80354922D01*
X100894013Y-80505809D01*
X100952887Y-80647942D01*
X101038358Y-80775859D01*
X101147141Y-80884642D01*
X101275058Y-80970113D01*
X101417191Y-81028987D01*
X101568078Y-81059000D01*
X101721922Y-81059000D01*
X101872809Y-81028987D01*
X102014942Y-80970113D01*
X102142859Y-80884642D01*
X102251642Y-80775859D01*
X102337113Y-80647942D01*
X102395987Y-80505809D01*
X102407000Y-80450442D01*
X102418013Y-80505809D01*
X102476887Y-80647942D01*
X102562358Y-80775859D01*
X102671141Y-80884642D01*
X102799058Y-80970113D01*
X102941191Y-81028987D01*
X103092078Y-81059000D01*
X103245922Y-81059000D01*
X103396809Y-81028987D01*
X103538942Y-80970113D01*
X103666859Y-80884642D01*
X103677000Y-80874501D01*
X103677000Y-81332499D01*
X103666859Y-81322358D01*
X103538942Y-81236887D01*
X103396809Y-81178013D01*
X103245922Y-81148000D01*
X103092078Y-81148000D01*
X102941191Y-81178013D01*
X102799058Y-81236887D01*
X102671141Y-81322358D01*
X102562358Y-81431141D01*
X102476887Y-81559058D01*
X102418013Y-81701191D01*
X102407000Y-81756558D01*
X102395987Y-81701191D01*
X102337113Y-81559058D01*
X102251642Y-81431141D01*
X102142859Y-81322358D01*
X102014942Y-81236887D01*
X101872809Y-81178013D01*
X101721922Y-81148000D01*
X101568078Y-81148000D01*
X101417191Y-81178013D01*
X101275058Y-81236887D01*
X101147141Y-81322358D01*
X101038358Y-81431141D01*
X100952887Y-81559058D01*
X100894013Y-81701191D01*
X100864000Y-81852078D01*
X100864000Y-82005922D01*
X100894013Y-82156809D01*
X100952887Y-82298942D01*
X101038358Y-82426859D01*
X101147141Y-82535642D01*
X101275058Y-82621113D01*
X101417191Y-82679987D01*
X101568078Y-82710000D01*
X101721922Y-82710000D01*
X101872809Y-82679987D01*
X102014942Y-82621113D01*
X102142859Y-82535642D01*
X102251642Y-82426859D01*
X102337113Y-82298942D01*
X102395987Y-82156809D01*
X102407000Y-82101442D01*
X102418013Y-82156809D01*
X102476887Y-82298942D01*
X102562358Y-82426859D01*
X102671141Y-82535642D01*
X102799058Y-82621113D01*
X102941191Y-82679987D01*
X103092078Y-82710000D01*
X103245922Y-82710000D01*
X103396809Y-82679987D01*
X103538942Y-82621113D01*
X103666859Y-82535642D01*
X103675000Y-82527501D01*
X103675001Y-84922460D01*
X103677000Y-84942756D01*
X103677000Y-87982042D01*
X103466148Y-87918081D01*
X103241960Y-87896000D01*
X103015184Y-87896000D01*
X103159843Y-87799342D01*
X103324342Y-87634843D01*
X103453588Y-87441413D01*
X103542614Y-87226485D01*
X103588000Y-86998318D01*
X103588000Y-86765682D01*
X103542614Y-86537515D01*
X103453588Y-86322587D01*
X103324342Y-86129157D01*
X103159843Y-85964658D01*
X102966413Y-85835412D01*
X102751485Y-85746386D01*
X102523318Y-85701000D01*
X102290682Y-85701000D01*
X102062515Y-85746386D01*
X101847587Y-85835412D01*
X101654157Y-85964658D01*
X101489658Y-86129157D01*
X101360412Y-86322587D01*
X101271386Y-86537515D01*
X101226000Y-86765682D01*
X101226000Y-86998318D01*
X101271386Y-87226485D01*
X101360412Y-87441413D01*
X101489658Y-87634843D01*
X101654157Y-87799342D01*
X101798816Y-87896000D01*
X101572040Y-87896000D01*
X101347852Y-87918081D01*
X101060200Y-88005339D01*
X100795098Y-88147039D01*
X100789053Y-88152000D01*
X96404947Y-88152000D01*
X96398902Y-88147039D01*
X96133800Y-88005339D01*
X95846148Y-87918081D01*
X95621960Y-87896000D01*
X95398613Y-87896000D01*
X95431741Y-87878293D01*
X95512199Y-87697708D01*
X94787000Y-86972510D01*
X94061801Y-87697708D01*
X94142259Y-87878293D01*
X94176590Y-87896000D01*
X93952040Y-87896000D01*
X93727852Y-87918081D01*
X93440200Y-88005339D01*
X93175098Y-88147039D01*
X93169053Y-88152000D01*
X83450947Y-88152000D01*
X83444902Y-88147039D01*
X83179800Y-88005339D01*
X82892148Y-87918081D01*
X82667960Y-87896000D01*
X82441184Y-87896000D01*
X82585843Y-87799342D01*
X82750342Y-87634843D01*
X82879588Y-87441413D01*
X82968614Y-87226485D01*
X83014000Y-86998318D01*
X83014000Y-86765682D01*
X82968614Y-86537515D01*
X82879588Y-86322587D01*
X82750342Y-86129157D01*
X82585843Y-85964658D01*
X82569608Y-85953810D01*
X87216423Y-85953810D01*
X87216423Y-86107654D01*
X87246436Y-86258541D01*
X87305310Y-86400674D01*
X87390781Y-86528591D01*
X87499564Y-86637374D01*
X87627481Y-86722845D01*
X87769614Y-86781719D01*
X87920501Y-86811732D01*
X88074345Y-86811732D01*
X88225232Y-86781719D01*
X88367365Y-86722845D01*
X88495282Y-86637374D01*
X88604065Y-86528591D01*
X88689536Y-86400674D01*
X88715094Y-86338970D01*
X89334814Y-86338970D01*
X89334814Y-86492814D01*
X89364827Y-86643701D01*
X89423701Y-86785834D01*
X89509172Y-86913751D01*
X89617955Y-87022534D01*
X89745872Y-87108005D01*
X89888005Y-87166879D01*
X90038892Y-87196892D01*
X90192736Y-87196892D01*
X90343623Y-87166879D01*
X90485756Y-87108005D01*
X90613673Y-87022534D01*
X90722456Y-86913751D01*
X90807927Y-86785834D01*
X90816938Y-86764078D01*
X91552000Y-86764078D01*
X91552000Y-86917922D01*
X91582013Y-87068809D01*
X91640887Y-87210942D01*
X91726358Y-87338859D01*
X91835141Y-87447642D01*
X91963058Y-87533113D01*
X92105191Y-87591987D01*
X92256078Y-87622000D01*
X92409922Y-87622000D01*
X92560809Y-87591987D01*
X92702942Y-87533113D01*
X92830859Y-87447642D01*
X92939642Y-87338859D01*
X93025113Y-87210942D01*
X93083987Y-87068809D01*
X93114000Y-86917922D01*
X93114000Y-86899429D01*
X93600414Y-86899429D01*
X93626614Y-87130586D01*
X93697408Y-87352189D01*
X93790707Y-87526741D01*
X93971292Y-87607199D01*
X94696490Y-86882000D01*
X94877510Y-86882000D01*
X95602708Y-87607199D01*
X95783293Y-87526741D01*
X95889932Y-87319985D01*
X95954186Y-87096398D01*
X95973586Y-86864571D01*
X95947386Y-86633414D01*
X95876592Y-86411811D01*
X95783293Y-86237259D01*
X95602708Y-86156801D01*
X94877510Y-86882000D01*
X94696490Y-86882000D01*
X93971292Y-86156801D01*
X93790707Y-86237259D01*
X93684068Y-86444015D01*
X93619814Y-86667602D01*
X93600414Y-86899429D01*
X93114000Y-86899429D01*
X93114000Y-86764078D01*
X93083987Y-86613191D01*
X93025113Y-86471058D01*
X92939642Y-86343141D01*
X92830859Y-86234358D01*
X92702942Y-86148887D01*
X92560809Y-86090013D01*
X92441555Y-86066292D01*
X94061801Y-86066292D01*
X94787000Y-86791490D01*
X95512199Y-86066292D01*
X95431741Y-85885707D01*
X95224985Y-85779068D01*
X95001398Y-85714814D01*
X94769571Y-85695414D01*
X94538414Y-85721614D01*
X94316811Y-85792408D01*
X94142259Y-85885707D01*
X94061801Y-86066292D01*
X92441555Y-86066292D01*
X92409922Y-86060000D01*
X92256078Y-86060000D01*
X92105191Y-86090013D01*
X91963058Y-86148887D01*
X91835141Y-86234358D01*
X91726358Y-86343141D01*
X91640887Y-86471058D01*
X91582013Y-86613191D01*
X91552000Y-86764078D01*
X90816938Y-86764078D01*
X90866801Y-86643701D01*
X90896814Y-86492814D01*
X90896814Y-86338970D01*
X90866801Y-86188083D01*
X90807927Y-86045950D01*
X90722456Y-85918033D01*
X90670547Y-85866124D01*
X90722528Y-85814143D01*
X90807999Y-85686226D01*
X90866873Y-85544093D01*
X90896886Y-85393206D01*
X90896886Y-85239362D01*
X90877520Y-85142000D01*
X93604157Y-85142000D01*
X93611513Y-85216689D01*
X93633299Y-85288508D01*
X93668678Y-85354696D01*
X93716289Y-85412711D01*
X93774304Y-85460322D01*
X93840492Y-85495701D01*
X93912311Y-85517487D01*
X93987000Y-85524843D01*
X94627750Y-85523000D01*
X94723000Y-85427750D01*
X94723000Y-84406000D01*
X94851000Y-84406000D01*
X94851000Y-85427750D01*
X94946250Y-85523000D01*
X95587000Y-85524843D01*
X95661689Y-85517487D01*
X95733508Y-85495701D01*
X95799696Y-85460322D01*
X95857711Y-85412711D01*
X95905322Y-85354696D01*
X95940701Y-85288508D01*
X95962487Y-85216689D01*
X95969843Y-85142000D01*
X95968000Y-84501250D01*
X95872750Y-84406000D01*
X94851000Y-84406000D01*
X94723000Y-84406000D01*
X93701250Y-84406000D01*
X93606000Y-84501250D01*
X93604157Y-85142000D01*
X90877520Y-85142000D01*
X90866873Y-85088475D01*
X90807999Y-84946342D01*
X90722528Y-84818425D01*
X90613745Y-84709642D01*
X90485828Y-84624171D01*
X90343695Y-84565297D01*
X90192808Y-84535284D01*
X90038964Y-84535284D01*
X89888077Y-84565297D01*
X89745944Y-84624171D01*
X89618027Y-84709642D01*
X89509244Y-84818425D01*
X89423773Y-84946342D01*
X89364899Y-85088475D01*
X89334886Y-85239362D01*
X89334886Y-85393206D01*
X89364899Y-85544093D01*
X89423773Y-85686226D01*
X89509244Y-85814143D01*
X89561153Y-85866052D01*
X89509172Y-85918033D01*
X89423701Y-86045950D01*
X89364827Y-86188083D01*
X89334814Y-86338970D01*
X88715094Y-86338970D01*
X88748410Y-86258541D01*
X88778423Y-86107654D01*
X88778423Y-85953810D01*
X88748410Y-85802923D01*
X88689536Y-85660790D01*
X88604065Y-85532873D01*
X88495282Y-85424090D01*
X88367365Y-85338619D01*
X88225232Y-85279745D01*
X88074345Y-85249732D01*
X87920501Y-85249732D01*
X87769614Y-85279745D01*
X87627481Y-85338619D01*
X87499564Y-85424090D01*
X87390781Y-85532873D01*
X87305310Y-85660790D01*
X87246436Y-85802923D01*
X87216423Y-85953810D01*
X82569608Y-85953810D01*
X82392413Y-85835412D01*
X82177485Y-85746386D01*
X81949318Y-85701000D01*
X81716682Y-85701000D01*
X81488515Y-85746386D01*
X81273587Y-85835412D01*
X81080157Y-85964658D01*
X80915658Y-86129157D01*
X80786412Y-86322587D01*
X80697386Y-86537515D01*
X80652000Y-86765682D01*
X80652000Y-86998318D01*
X80697386Y-87226485D01*
X80786412Y-87441413D01*
X80915658Y-87634843D01*
X81080157Y-87799342D01*
X81224816Y-87896000D01*
X80998040Y-87896000D01*
X80773852Y-87918081D01*
X80486200Y-88005339D01*
X80221098Y-88147039D01*
X80215053Y-88152000D01*
X75894447Y-88152000D01*
X75888402Y-88147039D01*
X75623300Y-88005339D01*
X75335648Y-87918081D01*
X75111460Y-87896000D01*
X74824613Y-87896000D01*
X74857741Y-87878293D01*
X74938199Y-87697708D01*
X74213000Y-86972510D01*
X73487801Y-87697708D01*
X73568259Y-87878293D01*
X73602590Y-87896000D01*
X73441540Y-87896000D01*
X73217352Y-87918081D01*
X72929700Y-88005339D01*
X72664598Y-88147039D01*
X72658553Y-88152000D01*
X70784000Y-88152000D01*
X70759224Y-88154440D01*
X70735399Y-88161667D01*
X70713443Y-88173403D01*
X70694197Y-88189197D01*
X70678403Y-88208443D01*
X70666667Y-88230399D01*
X70659440Y-88254224D01*
X70657000Y-88279000D01*
X70657000Y-91059886D01*
X70576174Y-91180851D01*
X70472071Y-91432177D01*
X70419000Y-91698983D01*
X70419000Y-91971017D01*
X70472071Y-92237823D01*
X70576174Y-92489149D01*
X70657000Y-92610114D01*
X70657000Y-94629000D01*
X67228000Y-94629000D01*
X67228000Y-90742078D01*
X67691032Y-90742078D01*
X67691032Y-90895922D01*
X67721045Y-91046809D01*
X67779919Y-91188942D01*
X67865390Y-91316859D01*
X67974173Y-91425642D01*
X68102090Y-91511113D01*
X68244223Y-91569987D01*
X68395110Y-91600000D01*
X68548954Y-91600000D01*
X68699841Y-91569987D01*
X68841974Y-91511113D01*
X68969891Y-91425642D01*
X69078674Y-91316859D01*
X69164145Y-91188942D01*
X69223019Y-91046809D01*
X69253032Y-90895922D01*
X69253032Y-90742078D01*
X69223019Y-90591191D01*
X69164145Y-90449058D01*
X69078674Y-90321141D01*
X68969891Y-90212358D01*
X68841974Y-90126887D01*
X68699841Y-90068013D01*
X68548954Y-90038000D01*
X68395110Y-90038000D01*
X68244223Y-90068013D01*
X68102090Y-90126887D01*
X67974173Y-90212358D01*
X67865390Y-90321141D01*
X67779919Y-90449058D01*
X67721045Y-90591191D01*
X67691032Y-90742078D01*
X67228000Y-90742078D01*
X67228000Y-87059078D01*
X68352000Y-87059078D01*
X68352000Y-87212922D01*
X68382013Y-87363809D01*
X68440887Y-87505942D01*
X68526358Y-87633859D01*
X68635141Y-87742642D01*
X68763058Y-87828113D01*
X68905191Y-87886987D01*
X69056078Y-87917000D01*
X69209922Y-87917000D01*
X69360809Y-87886987D01*
X69502942Y-87828113D01*
X69630859Y-87742642D01*
X69739642Y-87633859D01*
X69768000Y-87591418D01*
X69796358Y-87633859D01*
X69905141Y-87742642D01*
X70033058Y-87828113D01*
X70175191Y-87886987D01*
X70326078Y-87917000D01*
X70479922Y-87917000D01*
X70630809Y-87886987D01*
X70772942Y-87828113D01*
X70900859Y-87742642D01*
X71009642Y-87633859D01*
X71095113Y-87505942D01*
X71153987Y-87363809D01*
X71184000Y-87212922D01*
X71184000Y-87059078D01*
X71153987Y-86908191D01*
X71150358Y-86899429D01*
X73026414Y-86899429D01*
X73052614Y-87130586D01*
X73123408Y-87352189D01*
X73216707Y-87526741D01*
X73397292Y-87607199D01*
X74122490Y-86882000D01*
X74303510Y-86882000D01*
X75028708Y-87607199D01*
X75209293Y-87526741D01*
X75315932Y-87319985D01*
X75380186Y-87096398D01*
X75399586Y-86864571D01*
X75373386Y-86633414D01*
X75302592Y-86411811D01*
X75209293Y-86237259D01*
X75028708Y-86156801D01*
X74303510Y-86882000D01*
X74122490Y-86882000D01*
X73397292Y-86156801D01*
X73216707Y-86237259D01*
X73110068Y-86444015D01*
X73045814Y-86667602D01*
X73026414Y-86899429D01*
X71150358Y-86899429D01*
X71095113Y-86766058D01*
X71009642Y-86638141D01*
X70900859Y-86529358D01*
X70772942Y-86443887D01*
X70630809Y-86385013D01*
X70479922Y-86355000D01*
X70326078Y-86355000D01*
X70175191Y-86385013D01*
X70033058Y-86443887D01*
X69905141Y-86529358D01*
X69796358Y-86638141D01*
X69768000Y-86680582D01*
X69739642Y-86638141D01*
X69630859Y-86529358D01*
X69502942Y-86443887D01*
X69360809Y-86385013D01*
X69209922Y-86355000D01*
X69056078Y-86355000D01*
X68905191Y-86385013D01*
X68763058Y-86443887D01*
X68635141Y-86529358D01*
X68526358Y-86638141D01*
X68440887Y-86766058D01*
X68382013Y-86908191D01*
X68352000Y-87059078D01*
X67228000Y-87059078D01*
X67228000Y-86066292D01*
X73487801Y-86066292D01*
X74213000Y-86791490D01*
X74938199Y-86066292D01*
X74857741Y-85885707D01*
X74650985Y-85779068D01*
X74427398Y-85714814D01*
X74195571Y-85695414D01*
X73964414Y-85721614D01*
X73742811Y-85792408D01*
X73568259Y-85885707D01*
X73487801Y-86066292D01*
X67228000Y-86066292D01*
X67228000Y-85142000D01*
X73030157Y-85142000D01*
X73037513Y-85216689D01*
X73059299Y-85288508D01*
X73094678Y-85354696D01*
X73142289Y-85412711D01*
X73200304Y-85460322D01*
X73266492Y-85495701D01*
X73338311Y-85517487D01*
X73413000Y-85524843D01*
X74053750Y-85523000D01*
X74149000Y-85427750D01*
X74149000Y-84406000D01*
X74277000Y-84406000D01*
X74277000Y-85427750D01*
X74372250Y-85523000D01*
X75013000Y-85524843D01*
X75087689Y-85517487D01*
X75159508Y-85495701D01*
X75225696Y-85460322D01*
X75283711Y-85412711D01*
X75331322Y-85354696D01*
X75366701Y-85288508D01*
X75388487Y-85216689D01*
X75395843Y-85142000D01*
X75394000Y-84501250D01*
X75298750Y-84406000D01*
X74277000Y-84406000D01*
X74149000Y-84406000D01*
X73127250Y-84406000D01*
X73032000Y-84501250D01*
X73030157Y-85142000D01*
X67228000Y-85142000D01*
X67228000Y-83542000D01*
X73030157Y-83542000D01*
X73032000Y-84182750D01*
X73127250Y-84278000D01*
X74149000Y-84278000D01*
X74149000Y-83256250D01*
X74277000Y-83256250D01*
X74277000Y-84278000D01*
X75298750Y-84278000D01*
X75351068Y-84225682D01*
X80652000Y-84225682D01*
X80652000Y-84458318D01*
X80697386Y-84686485D01*
X80786412Y-84901413D01*
X80915658Y-85094843D01*
X81080157Y-85259342D01*
X81273587Y-85388588D01*
X81488515Y-85477614D01*
X81716682Y-85523000D01*
X81949318Y-85523000D01*
X82177485Y-85477614D01*
X82392413Y-85388588D01*
X82585843Y-85259342D01*
X82750342Y-85094843D01*
X82879588Y-84901413D01*
X82968614Y-84686485D01*
X83014000Y-84458318D01*
X83014000Y-84225682D01*
X82971312Y-84011078D01*
X85115992Y-84011078D01*
X85115992Y-84164922D01*
X85146005Y-84315809D01*
X85204879Y-84457942D01*
X85290350Y-84585859D01*
X85399133Y-84694642D01*
X85527050Y-84780113D01*
X85669183Y-84838987D01*
X85820070Y-84869000D01*
X85973914Y-84869000D01*
X86124801Y-84838987D01*
X86266934Y-84780113D01*
X86394851Y-84694642D01*
X86503634Y-84585859D01*
X86589105Y-84457942D01*
X86647979Y-84315809D01*
X86677992Y-84164922D01*
X86677992Y-84011078D01*
X86647979Y-83860191D01*
X86589105Y-83718058D01*
X86503634Y-83590141D01*
X86394851Y-83481358D01*
X86266934Y-83395887D01*
X86124801Y-83337013D01*
X85973914Y-83307000D01*
X85820070Y-83307000D01*
X85669183Y-83337013D01*
X85527050Y-83395887D01*
X85399133Y-83481358D01*
X85290350Y-83590141D01*
X85204879Y-83718058D01*
X85146005Y-83860191D01*
X85115992Y-84011078D01*
X82971312Y-84011078D01*
X82968614Y-83997515D01*
X82879588Y-83782587D01*
X82750342Y-83589157D01*
X82585843Y-83424658D01*
X82392413Y-83295412D01*
X82177485Y-83206386D01*
X81949318Y-83161000D01*
X81716682Y-83161000D01*
X81488515Y-83206386D01*
X81273587Y-83295412D01*
X81080157Y-83424658D01*
X80915658Y-83589157D01*
X80786412Y-83782587D01*
X80697386Y-83997515D01*
X80652000Y-84225682D01*
X75351068Y-84225682D01*
X75394000Y-84182750D01*
X75395843Y-83542000D01*
X75388487Y-83467311D01*
X75366701Y-83395492D01*
X75331322Y-83329304D01*
X75283711Y-83271289D01*
X75225696Y-83223678D01*
X75159508Y-83188299D01*
X75087689Y-83166513D01*
X75013000Y-83159157D01*
X74372250Y-83161000D01*
X74277000Y-83256250D01*
X74149000Y-83256250D01*
X74053750Y-83161000D01*
X73413000Y-83159157D01*
X73338311Y-83166513D01*
X73266492Y-83188299D01*
X73200304Y-83223678D01*
X73142289Y-83271289D01*
X73094678Y-83329304D01*
X73059299Y-83395492D01*
X73037513Y-83467311D01*
X73030157Y-83542000D01*
X67228000Y-83542000D01*
X67228000Y-83122078D01*
X88164000Y-83122078D01*
X88164000Y-83275922D01*
X88194013Y-83426809D01*
X88252887Y-83568942D01*
X88338358Y-83696859D01*
X88447141Y-83805642D01*
X88575058Y-83891113D01*
X88717191Y-83949987D01*
X88868078Y-83980000D01*
X89021922Y-83980000D01*
X89172809Y-83949987D01*
X89314942Y-83891113D01*
X89442859Y-83805642D01*
X89551642Y-83696859D01*
X89637113Y-83568942D01*
X89695987Y-83426809D01*
X89726000Y-83275922D01*
X89726000Y-83122078D01*
X89698551Y-82984078D01*
X91974000Y-82984078D01*
X91974000Y-83137922D01*
X92004013Y-83288809D01*
X92062887Y-83430942D01*
X92148358Y-83558859D01*
X92257141Y-83667642D01*
X92385058Y-83753113D01*
X92527191Y-83811987D01*
X92678078Y-83842000D01*
X92831922Y-83842000D01*
X92982809Y-83811987D01*
X93124942Y-83753113D01*
X93252859Y-83667642D01*
X93361642Y-83558859D01*
X93372906Y-83542000D01*
X93604157Y-83542000D01*
X93606000Y-84182750D01*
X93701250Y-84278000D01*
X94723000Y-84278000D01*
X94723000Y-83256250D01*
X94851000Y-83256250D01*
X94851000Y-84278000D01*
X95872750Y-84278000D01*
X95925068Y-84225682D01*
X101226000Y-84225682D01*
X101226000Y-84458318D01*
X101271386Y-84686485D01*
X101360412Y-84901413D01*
X101489658Y-85094843D01*
X101654157Y-85259342D01*
X101847587Y-85388588D01*
X102062515Y-85477614D01*
X102290682Y-85523000D01*
X102523318Y-85523000D01*
X102751485Y-85477614D01*
X102966413Y-85388588D01*
X103159843Y-85259342D01*
X103324342Y-85094843D01*
X103453588Y-84901413D01*
X103542614Y-84686485D01*
X103588000Y-84458318D01*
X103588000Y-84225682D01*
X103542614Y-83997515D01*
X103453588Y-83782587D01*
X103324342Y-83589157D01*
X103159843Y-83424658D01*
X102966413Y-83295412D01*
X102751485Y-83206386D01*
X102523318Y-83161000D01*
X102290682Y-83161000D01*
X102062515Y-83206386D01*
X101847587Y-83295412D01*
X101654157Y-83424658D01*
X101489658Y-83589157D01*
X101360412Y-83782587D01*
X101271386Y-83997515D01*
X101226000Y-84225682D01*
X95925068Y-84225682D01*
X95968000Y-84182750D01*
X95969843Y-83542000D01*
X95962487Y-83467311D01*
X95940701Y-83395492D01*
X95905322Y-83329304D01*
X95857711Y-83271289D01*
X95799696Y-83223678D01*
X95733508Y-83188299D01*
X95661689Y-83166513D01*
X95587000Y-83159157D01*
X94946250Y-83161000D01*
X94851000Y-83256250D01*
X94723000Y-83256250D01*
X94627750Y-83161000D01*
X93987000Y-83159157D01*
X93912311Y-83166513D01*
X93840492Y-83188299D01*
X93774304Y-83223678D01*
X93716289Y-83271289D01*
X93668678Y-83329304D01*
X93633299Y-83395492D01*
X93611513Y-83467311D01*
X93604157Y-83542000D01*
X93372906Y-83542000D01*
X93447113Y-83430942D01*
X93505987Y-83288809D01*
X93536000Y-83137922D01*
X93536000Y-82984078D01*
X93505987Y-82833191D01*
X93447113Y-82691058D01*
X93361642Y-82563141D01*
X93252859Y-82454358D01*
X93124942Y-82368887D01*
X92982809Y-82310013D01*
X92831922Y-82280000D01*
X92678078Y-82280000D01*
X92527191Y-82310013D01*
X92385058Y-82368887D01*
X92257141Y-82454358D01*
X92148358Y-82563141D01*
X92062887Y-82691058D01*
X92004013Y-82833191D01*
X91974000Y-82984078D01*
X89698551Y-82984078D01*
X89695987Y-82971191D01*
X89637113Y-82829058D01*
X89551642Y-82701141D01*
X89442859Y-82592358D01*
X89314942Y-82506887D01*
X89172809Y-82448013D01*
X89021922Y-82418000D01*
X88868078Y-82418000D01*
X88717191Y-82448013D01*
X88575058Y-82506887D01*
X88447141Y-82592358D01*
X88338358Y-82701141D01*
X88252887Y-82829058D01*
X88194013Y-82971191D01*
X88164000Y-83122078D01*
X67228000Y-83122078D01*
X67228000Y-81598078D01*
X68199000Y-81598078D01*
X68199000Y-81751922D01*
X68229013Y-81902809D01*
X68287887Y-82044942D01*
X68373358Y-82172859D01*
X68482141Y-82281642D01*
X68610058Y-82367113D01*
X68752191Y-82425987D01*
X68903078Y-82456000D01*
X69056922Y-82456000D01*
X69207809Y-82425987D01*
X69349942Y-82367113D01*
X69477859Y-82281642D01*
X69586642Y-82172859D01*
X69672113Y-82044942D01*
X69730987Y-81902809D01*
X69741077Y-81852078D01*
X73686000Y-81852078D01*
X73686000Y-82005922D01*
X73716013Y-82156809D01*
X73774887Y-82298942D01*
X73860358Y-82426859D01*
X73969141Y-82535642D01*
X74097058Y-82621113D01*
X74239191Y-82679987D01*
X74390078Y-82710000D01*
X74543922Y-82710000D01*
X74694809Y-82679987D01*
X74836942Y-82621113D01*
X74964859Y-82535642D01*
X75073642Y-82426859D01*
X75159113Y-82298942D01*
X75217987Y-82156809D01*
X75229000Y-82101442D01*
X75240013Y-82156809D01*
X75298887Y-82298942D01*
X75384358Y-82426859D01*
X75493141Y-82535642D01*
X75621058Y-82621113D01*
X75763191Y-82679987D01*
X75914078Y-82710000D01*
X76067922Y-82710000D01*
X76218809Y-82679987D01*
X76360942Y-82621113D01*
X76488859Y-82535642D01*
X76597642Y-82426859D01*
X76683113Y-82298942D01*
X76741987Y-82156809D01*
X76772000Y-82005922D01*
X76772000Y-81852078D01*
X76741987Y-81701191D01*
X76683113Y-81559058D01*
X76597642Y-81431141D01*
X76488859Y-81322358D01*
X76360942Y-81236887D01*
X76218809Y-81178013D01*
X76067922Y-81148000D01*
X75914078Y-81148000D01*
X75763191Y-81178013D01*
X75621058Y-81236887D01*
X75493141Y-81322358D01*
X75384358Y-81431141D01*
X75298887Y-81559058D01*
X75240013Y-81701191D01*
X75229000Y-81756558D01*
X75217987Y-81701191D01*
X75159113Y-81559058D01*
X75073642Y-81431141D01*
X74964859Y-81322358D01*
X74836942Y-81236887D01*
X74694809Y-81178013D01*
X74543922Y-81148000D01*
X74390078Y-81148000D01*
X74239191Y-81178013D01*
X74097058Y-81236887D01*
X73969141Y-81322358D01*
X73860358Y-81431141D01*
X73774887Y-81559058D01*
X73716013Y-81701191D01*
X73686000Y-81852078D01*
X69741077Y-81852078D01*
X69761000Y-81751922D01*
X69761000Y-81598078D01*
X69730987Y-81447191D01*
X69672113Y-81305058D01*
X69586642Y-81177141D01*
X69477859Y-81068358D01*
X69349942Y-80982887D01*
X69207809Y-80924013D01*
X69056922Y-80894000D01*
X68903078Y-80894000D01*
X68752191Y-80924013D01*
X68610058Y-80982887D01*
X68482141Y-81068358D01*
X68373358Y-81177141D01*
X68287887Y-81305058D01*
X68229013Y-81447191D01*
X68199000Y-81598078D01*
X67228000Y-81598078D01*
X67228000Y-80201078D01*
X73686000Y-80201078D01*
X73686000Y-80354922D01*
X73716013Y-80505809D01*
X73774887Y-80647942D01*
X73860358Y-80775859D01*
X73969141Y-80884642D01*
X74097058Y-80970113D01*
X74239191Y-81028987D01*
X74390078Y-81059000D01*
X74543922Y-81059000D01*
X74694809Y-81028987D01*
X74836942Y-80970113D01*
X74964859Y-80884642D01*
X75073642Y-80775859D01*
X75159113Y-80647942D01*
X75217987Y-80505809D01*
X75229000Y-80450442D01*
X75240013Y-80505809D01*
X75298887Y-80647942D01*
X75384358Y-80775859D01*
X75493141Y-80884642D01*
X75621058Y-80970113D01*
X75763191Y-81028987D01*
X75914078Y-81059000D01*
X76067922Y-81059000D01*
X76218809Y-81028987D01*
X76360942Y-80970113D01*
X76488859Y-80884642D01*
X76597642Y-80775859D01*
X76683113Y-80647942D01*
X76741987Y-80505809D01*
X76772000Y-80354922D01*
X76772000Y-80201078D01*
X76741987Y-80050191D01*
X76683113Y-79908058D01*
X76666757Y-79883578D01*
X81814000Y-79883578D01*
X81814000Y-80037422D01*
X81844013Y-80188309D01*
X81902887Y-80330442D01*
X81988358Y-80458359D01*
X82097141Y-80567142D01*
X82225058Y-80652613D01*
X82367191Y-80711487D01*
X82518078Y-80741500D01*
X82671922Y-80741500D01*
X82822809Y-80711487D01*
X82964942Y-80652613D01*
X83092859Y-80567142D01*
X83201642Y-80458359D01*
X83287113Y-80330442D01*
X83345987Y-80188309D01*
X83363315Y-80101192D01*
X83368013Y-80124809D01*
X83426887Y-80266942D01*
X83512358Y-80394859D01*
X83621141Y-80503642D01*
X83749058Y-80589113D01*
X83891191Y-80647987D01*
X84042078Y-80678000D01*
X84195922Y-80678000D01*
X84346809Y-80647987D01*
X84488942Y-80589113D01*
X84616859Y-80503642D01*
X84725642Y-80394859D01*
X84811113Y-80266942D01*
X84869987Y-80124809D01*
X84900000Y-79973922D01*
X84900000Y-79820078D01*
X92736000Y-79820078D01*
X92736000Y-79973922D01*
X92766013Y-80124809D01*
X92824887Y-80266942D01*
X92910358Y-80394859D01*
X93019141Y-80503642D01*
X93147058Y-80589113D01*
X93289191Y-80647987D01*
X93440078Y-80678000D01*
X93593922Y-80678000D01*
X93744809Y-80647987D01*
X93886942Y-80589113D01*
X94014859Y-80503642D01*
X94123642Y-80394859D01*
X94209113Y-80266942D01*
X94267987Y-80124809D01*
X94272685Y-80101192D01*
X94290013Y-80188309D01*
X94348887Y-80330442D01*
X94434358Y-80458359D01*
X94543141Y-80567142D01*
X94671058Y-80652613D01*
X94813191Y-80711487D01*
X94964078Y-80741500D01*
X95117922Y-80741500D01*
X95268809Y-80711487D01*
X95410942Y-80652613D01*
X95538859Y-80567142D01*
X95647642Y-80458359D01*
X95733113Y-80330442D01*
X95791987Y-80188309D01*
X95822000Y-80037422D01*
X95822000Y-79883578D01*
X95791987Y-79732691D01*
X95733113Y-79590558D01*
X95647642Y-79462641D01*
X95538859Y-79353858D01*
X95410942Y-79268387D01*
X95268809Y-79209513D01*
X95117922Y-79179500D01*
X94964078Y-79179500D01*
X94813191Y-79209513D01*
X94671058Y-79268387D01*
X94543141Y-79353858D01*
X94434358Y-79462641D01*
X94348887Y-79590558D01*
X94290013Y-79732691D01*
X94285315Y-79756308D01*
X94267987Y-79669191D01*
X94209113Y-79527058D01*
X94123642Y-79399141D01*
X94014859Y-79290358D01*
X93886942Y-79204887D01*
X93744809Y-79146013D01*
X93593922Y-79116000D01*
X93440078Y-79116000D01*
X93289191Y-79146013D01*
X93147058Y-79204887D01*
X93019141Y-79290358D01*
X92910358Y-79399141D01*
X92824887Y-79527058D01*
X92766013Y-79669191D01*
X92736000Y-79820078D01*
X84900000Y-79820078D01*
X84869987Y-79669191D01*
X84811113Y-79527058D01*
X84725642Y-79399141D01*
X84616859Y-79290358D01*
X84488942Y-79204887D01*
X84346809Y-79146013D01*
X84195922Y-79116000D01*
X84042078Y-79116000D01*
X83891191Y-79146013D01*
X83749058Y-79204887D01*
X83621141Y-79290358D01*
X83512358Y-79399141D01*
X83426887Y-79527058D01*
X83368013Y-79669191D01*
X83350685Y-79756308D01*
X83345987Y-79732691D01*
X83287113Y-79590558D01*
X83201642Y-79462641D01*
X83092859Y-79353858D01*
X82964942Y-79268387D01*
X82822809Y-79209513D01*
X82671922Y-79179500D01*
X82518078Y-79179500D01*
X82367191Y-79209513D01*
X82225058Y-79268387D01*
X82097141Y-79353858D01*
X81988358Y-79462641D01*
X81902887Y-79590558D01*
X81844013Y-79732691D01*
X81814000Y-79883578D01*
X76666757Y-79883578D01*
X76597642Y-79780141D01*
X76488859Y-79671358D01*
X76360942Y-79585887D01*
X76218809Y-79527013D01*
X76067922Y-79497000D01*
X75914078Y-79497000D01*
X75763191Y-79527013D01*
X75621058Y-79585887D01*
X75493141Y-79671358D01*
X75384358Y-79780141D01*
X75298887Y-79908058D01*
X75240013Y-80050191D01*
X75229000Y-80105558D01*
X75217987Y-80050191D01*
X75159113Y-79908058D01*
X75073642Y-79780141D01*
X74964859Y-79671358D01*
X74836942Y-79585887D01*
X74694809Y-79527013D01*
X74543922Y-79497000D01*
X74390078Y-79497000D01*
X74239191Y-79527013D01*
X74097058Y-79585887D01*
X73969141Y-79671358D01*
X73860358Y-79780141D01*
X73774887Y-79908058D01*
X73716013Y-80050191D01*
X73686000Y-80201078D01*
X67228000Y-80201078D01*
X67228000Y-79008000D01*
X103677000Y-79008000D01*
X103677000Y-79681499D01*
%TA.AperFunction,Conductor*%
D37*
G36*
X103677000Y-79681499D02*
G01*
X103666859Y-79671358D01*
X103538942Y-79585887D01*
X103396809Y-79527013D01*
X103245922Y-79497000D01*
X103092078Y-79497000D01*
X102941191Y-79527013D01*
X102799058Y-79585887D01*
X102671141Y-79671358D01*
X102562358Y-79780141D01*
X102476887Y-79908058D01*
X102418013Y-80050191D01*
X102407000Y-80105558D01*
X102395987Y-80050191D01*
X102337113Y-79908058D01*
X102251642Y-79780141D01*
X102142859Y-79671358D01*
X102014942Y-79585887D01*
X101872809Y-79527013D01*
X101721922Y-79497000D01*
X101568078Y-79497000D01*
X101417191Y-79527013D01*
X101275058Y-79585887D01*
X101147141Y-79671358D01*
X101038358Y-79780141D01*
X100952887Y-79908058D01*
X100894013Y-80050191D01*
X100864000Y-80201078D01*
X100864000Y-80354922D01*
X100894013Y-80505809D01*
X100952887Y-80647942D01*
X101038358Y-80775859D01*
X101147141Y-80884642D01*
X101275058Y-80970113D01*
X101417191Y-81028987D01*
X101568078Y-81059000D01*
X101721922Y-81059000D01*
X101872809Y-81028987D01*
X102014942Y-80970113D01*
X102142859Y-80884642D01*
X102251642Y-80775859D01*
X102337113Y-80647942D01*
X102395987Y-80505809D01*
X102407000Y-80450442D01*
X102418013Y-80505809D01*
X102476887Y-80647942D01*
X102562358Y-80775859D01*
X102671141Y-80884642D01*
X102799058Y-80970113D01*
X102941191Y-81028987D01*
X103092078Y-81059000D01*
X103245922Y-81059000D01*
X103396809Y-81028987D01*
X103538942Y-80970113D01*
X103666859Y-80884642D01*
X103677000Y-80874501D01*
X103677000Y-81332499D01*
X103666859Y-81322358D01*
X103538942Y-81236887D01*
X103396809Y-81178013D01*
X103245922Y-81148000D01*
X103092078Y-81148000D01*
X102941191Y-81178013D01*
X102799058Y-81236887D01*
X102671141Y-81322358D01*
X102562358Y-81431141D01*
X102476887Y-81559058D01*
X102418013Y-81701191D01*
X102407000Y-81756558D01*
X102395987Y-81701191D01*
X102337113Y-81559058D01*
X102251642Y-81431141D01*
X102142859Y-81322358D01*
X102014942Y-81236887D01*
X101872809Y-81178013D01*
X101721922Y-81148000D01*
X101568078Y-81148000D01*
X101417191Y-81178013D01*
X101275058Y-81236887D01*
X101147141Y-81322358D01*
X101038358Y-81431141D01*
X100952887Y-81559058D01*
X100894013Y-81701191D01*
X100864000Y-81852078D01*
X100864000Y-82005922D01*
X100894013Y-82156809D01*
X100952887Y-82298942D01*
X101038358Y-82426859D01*
X101147141Y-82535642D01*
X101275058Y-82621113D01*
X101417191Y-82679987D01*
X101568078Y-82710000D01*
X101721922Y-82710000D01*
X101872809Y-82679987D01*
X102014942Y-82621113D01*
X102142859Y-82535642D01*
X102251642Y-82426859D01*
X102337113Y-82298942D01*
X102395987Y-82156809D01*
X102407000Y-82101442D01*
X102418013Y-82156809D01*
X102476887Y-82298942D01*
X102562358Y-82426859D01*
X102671141Y-82535642D01*
X102799058Y-82621113D01*
X102941191Y-82679987D01*
X103092078Y-82710000D01*
X103245922Y-82710000D01*
X103396809Y-82679987D01*
X103538942Y-82621113D01*
X103666859Y-82535642D01*
X103675000Y-82527501D01*
X103675001Y-84922460D01*
X103677000Y-84942756D01*
X103677000Y-87982042D01*
X103466148Y-87918081D01*
X103241960Y-87896000D01*
X103015184Y-87896000D01*
X103159843Y-87799342D01*
X103324342Y-87634843D01*
X103453588Y-87441413D01*
X103542614Y-87226485D01*
X103588000Y-86998318D01*
X103588000Y-86765682D01*
X103542614Y-86537515D01*
X103453588Y-86322587D01*
X103324342Y-86129157D01*
X103159843Y-85964658D01*
X102966413Y-85835412D01*
X102751485Y-85746386D01*
X102523318Y-85701000D01*
X102290682Y-85701000D01*
X102062515Y-85746386D01*
X101847587Y-85835412D01*
X101654157Y-85964658D01*
X101489658Y-86129157D01*
X101360412Y-86322587D01*
X101271386Y-86537515D01*
X101226000Y-86765682D01*
X101226000Y-86998318D01*
X101271386Y-87226485D01*
X101360412Y-87441413D01*
X101489658Y-87634843D01*
X101654157Y-87799342D01*
X101798816Y-87896000D01*
X101572040Y-87896000D01*
X101347852Y-87918081D01*
X101060200Y-88005339D01*
X100795098Y-88147039D01*
X100789053Y-88152000D01*
X96404947Y-88152000D01*
X96398902Y-88147039D01*
X96133800Y-88005339D01*
X95846148Y-87918081D01*
X95621960Y-87896000D01*
X95398613Y-87896000D01*
X95431741Y-87878293D01*
X95512199Y-87697708D01*
X94787000Y-86972510D01*
X94061801Y-87697708D01*
X94142259Y-87878293D01*
X94176590Y-87896000D01*
X93952040Y-87896000D01*
X93727852Y-87918081D01*
X93440200Y-88005339D01*
X93175098Y-88147039D01*
X93169053Y-88152000D01*
X83450947Y-88152000D01*
X83444902Y-88147039D01*
X83179800Y-88005339D01*
X82892148Y-87918081D01*
X82667960Y-87896000D01*
X82441184Y-87896000D01*
X82585843Y-87799342D01*
X82750342Y-87634843D01*
X82879588Y-87441413D01*
X82968614Y-87226485D01*
X83014000Y-86998318D01*
X83014000Y-86765682D01*
X82968614Y-86537515D01*
X82879588Y-86322587D01*
X82750342Y-86129157D01*
X82585843Y-85964658D01*
X82569608Y-85953810D01*
X87216423Y-85953810D01*
X87216423Y-86107654D01*
X87246436Y-86258541D01*
X87305310Y-86400674D01*
X87390781Y-86528591D01*
X87499564Y-86637374D01*
X87627481Y-86722845D01*
X87769614Y-86781719D01*
X87920501Y-86811732D01*
X88074345Y-86811732D01*
X88225232Y-86781719D01*
X88367365Y-86722845D01*
X88495282Y-86637374D01*
X88604065Y-86528591D01*
X88689536Y-86400674D01*
X88715094Y-86338970D01*
X89334814Y-86338970D01*
X89334814Y-86492814D01*
X89364827Y-86643701D01*
X89423701Y-86785834D01*
X89509172Y-86913751D01*
X89617955Y-87022534D01*
X89745872Y-87108005D01*
X89888005Y-87166879D01*
X90038892Y-87196892D01*
X90192736Y-87196892D01*
X90343623Y-87166879D01*
X90485756Y-87108005D01*
X90613673Y-87022534D01*
X90722456Y-86913751D01*
X90807927Y-86785834D01*
X90816938Y-86764078D01*
X91552000Y-86764078D01*
X91552000Y-86917922D01*
X91582013Y-87068809D01*
X91640887Y-87210942D01*
X91726358Y-87338859D01*
X91835141Y-87447642D01*
X91963058Y-87533113D01*
X92105191Y-87591987D01*
X92256078Y-87622000D01*
X92409922Y-87622000D01*
X92560809Y-87591987D01*
X92702942Y-87533113D01*
X92830859Y-87447642D01*
X92939642Y-87338859D01*
X93025113Y-87210942D01*
X93083987Y-87068809D01*
X93114000Y-86917922D01*
X93114000Y-86899429D01*
X93600414Y-86899429D01*
X93626614Y-87130586D01*
X93697408Y-87352189D01*
X93790707Y-87526741D01*
X93971292Y-87607199D01*
X94696490Y-86882000D01*
X94877510Y-86882000D01*
X95602708Y-87607199D01*
X95783293Y-87526741D01*
X95889932Y-87319985D01*
X95954186Y-87096398D01*
X95973586Y-86864571D01*
X95947386Y-86633414D01*
X95876592Y-86411811D01*
X95783293Y-86237259D01*
X95602708Y-86156801D01*
X94877510Y-86882000D01*
X94696490Y-86882000D01*
X93971292Y-86156801D01*
X93790707Y-86237259D01*
X93684068Y-86444015D01*
X93619814Y-86667602D01*
X93600414Y-86899429D01*
X93114000Y-86899429D01*
X93114000Y-86764078D01*
X93083987Y-86613191D01*
X93025113Y-86471058D01*
X92939642Y-86343141D01*
X92830859Y-86234358D01*
X92702942Y-86148887D01*
X92560809Y-86090013D01*
X92441555Y-86066292D01*
X94061801Y-86066292D01*
X94787000Y-86791490D01*
X95512199Y-86066292D01*
X95431741Y-85885707D01*
X95224985Y-85779068D01*
X95001398Y-85714814D01*
X94769571Y-85695414D01*
X94538414Y-85721614D01*
X94316811Y-85792408D01*
X94142259Y-85885707D01*
X94061801Y-86066292D01*
X92441555Y-86066292D01*
X92409922Y-86060000D01*
X92256078Y-86060000D01*
X92105191Y-86090013D01*
X91963058Y-86148887D01*
X91835141Y-86234358D01*
X91726358Y-86343141D01*
X91640887Y-86471058D01*
X91582013Y-86613191D01*
X91552000Y-86764078D01*
X90816938Y-86764078D01*
X90866801Y-86643701D01*
X90896814Y-86492814D01*
X90896814Y-86338970D01*
X90866801Y-86188083D01*
X90807927Y-86045950D01*
X90722456Y-85918033D01*
X90670547Y-85866124D01*
X90722528Y-85814143D01*
X90807999Y-85686226D01*
X90866873Y-85544093D01*
X90896886Y-85393206D01*
X90896886Y-85239362D01*
X90877520Y-85142000D01*
X93604157Y-85142000D01*
X93611513Y-85216689D01*
X93633299Y-85288508D01*
X93668678Y-85354696D01*
X93716289Y-85412711D01*
X93774304Y-85460322D01*
X93840492Y-85495701D01*
X93912311Y-85517487D01*
X93987000Y-85524843D01*
X94627750Y-85523000D01*
X94723000Y-85427750D01*
X94723000Y-84406000D01*
X94851000Y-84406000D01*
X94851000Y-85427750D01*
X94946250Y-85523000D01*
X95587000Y-85524843D01*
X95661689Y-85517487D01*
X95733508Y-85495701D01*
X95799696Y-85460322D01*
X95857711Y-85412711D01*
X95905322Y-85354696D01*
X95940701Y-85288508D01*
X95962487Y-85216689D01*
X95969843Y-85142000D01*
X95968000Y-84501250D01*
X95872750Y-84406000D01*
X94851000Y-84406000D01*
X94723000Y-84406000D01*
X93701250Y-84406000D01*
X93606000Y-84501250D01*
X93604157Y-85142000D01*
X90877520Y-85142000D01*
X90866873Y-85088475D01*
X90807999Y-84946342D01*
X90722528Y-84818425D01*
X90613745Y-84709642D01*
X90485828Y-84624171D01*
X90343695Y-84565297D01*
X90192808Y-84535284D01*
X90038964Y-84535284D01*
X89888077Y-84565297D01*
X89745944Y-84624171D01*
X89618027Y-84709642D01*
X89509244Y-84818425D01*
X89423773Y-84946342D01*
X89364899Y-85088475D01*
X89334886Y-85239362D01*
X89334886Y-85393206D01*
X89364899Y-85544093D01*
X89423773Y-85686226D01*
X89509244Y-85814143D01*
X89561153Y-85866052D01*
X89509172Y-85918033D01*
X89423701Y-86045950D01*
X89364827Y-86188083D01*
X89334814Y-86338970D01*
X88715094Y-86338970D01*
X88748410Y-86258541D01*
X88778423Y-86107654D01*
X88778423Y-85953810D01*
X88748410Y-85802923D01*
X88689536Y-85660790D01*
X88604065Y-85532873D01*
X88495282Y-85424090D01*
X88367365Y-85338619D01*
X88225232Y-85279745D01*
X88074345Y-85249732D01*
X87920501Y-85249732D01*
X87769614Y-85279745D01*
X87627481Y-85338619D01*
X87499564Y-85424090D01*
X87390781Y-85532873D01*
X87305310Y-85660790D01*
X87246436Y-85802923D01*
X87216423Y-85953810D01*
X82569608Y-85953810D01*
X82392413Y-85835412D01*
X82177485Y-85746386D01*
X81949318Y-85701000D01*
X81716682Y-85701000D01*
X81488515Y-85746386D01*
X81273587Y-85835412D01*
X81080157Y-85964658D01*
X80915658Y-86129157D01*
X80786412Y-86322587D01*
X80697386Y-86537515D01*
X80652000Y-86765682D01*
X80652000Y-86998318D01*
X80697386Y-87226485D01*
X80786412Y-87441413D01*
X80915658Y-87634843D01*
X81080157Y-87799342D01*
X81224816Y-87896000D01*
X80998040Y-87896000D01*
X80773852Y-87918081D01*
X80486200Y-88005339D01*
X80221098Y-88147039D01*
X80215053Y-88152000D01*
X75894447Y-88152000D01*
X75888402Y-88147039D01*
X75623300Y-88005339D01*
X75335648Y-87918081D01*
X75111460Y-87896000D01*
X74824613Y-87896000D01*
X74857741Y-87878293D01*
X74938199Y-87697708D01*
X74213000Y-86972510D01*
X73487801Y-87697708D01*
X73568259Y-87878293D01*
X73602590Y-87896000D01*
X73441540Y-87896000D01*
X73217352Y-87918081D01*
X72929700Y-88005339D01*
X72664598Y-88147039D01*
X72658553Y-88152000D01*
X70784000Y-88152000D01*
X70759224Y-88154440D01*
X70735399Y-88161667D01*
X70713443Y-88173403D01*
X70694197Y-88189197D01*
X70678403Y-88208443D01*
X70666667Y-88230399D01*
X70659440Y-88254224D01*
X70657000Y-88279000D01*
X70657000Y-91059886D01*
X70576174Y-91180851D01*
X70472071Y-91432177D01*
X70419000Y-91698983D01*
X70419000Y-91971017D01*
X70472071Y-92237823D01*
X70576174Y-92489149D01*
X70657000Y-92610114D01*
X70657000Y-94629000D01*
X67228000Y-94629000D01*
X67228000Y-90742078D01*
X67691032Y-90742078D01*
X67691032Y-90895922D01*
X67721045Y-91046809D01*
X67779919Y-91188942D01*
X67865390Y-91316859D01*
X67974173Y-91425642D01*
X68102090Y-91511113D01*
X68244223Y-91569987D01*
X68395110Y-91600000D01*
X68548954Y-91600000D01*
X68699841Y-91569987D01*
X68841974Y-91511113D01*
X68969891Y-91425642D01*
X69078674Y-91316859D01*
X69164145Y-91188942D01*
X69223019Y-91046809D01*
X69253032Y-90895922D01*
X69253032Y-90742078D01*
X69223019Y-90591191D01*
X69164145Y-90449058D01*
X69078674Y-90321141D01*
X68969891Y-90212358D01*
X68841974Y-90126887D01*
X68699841Y-90068013D01*
X68548954Y-90038000D01*
X68395110Y-90038000D01*
X68244223Y-90068013D01*
X68102090Y-90126887D01*
X67974173Y-90212358D01*
X67865390Y-90321141D01*
X67779919Y-90449058D01*
X67721045Y-90591191D01*
X67691032Y-90742078D01*
X67228000Y-90742078D01*
X67228000Y-87059078D01*
X68352000Y-87059078D01*
X68352000Y-87212922D01*
X68382013Y-87363809D01*
X68440887Y-87505942D01*
X68526358Y-87633859D01*
X68635141Y-87742642D01*
X68763058Y-87828113D01*
X68905191Y-87886987D01*
X69056078Y-87917000D01*
X69209922Y-87917000D01*
X69360809Y-87886987D01*
X69502942Y-87828113D01*
X69630859Y-87742642D01*
X69739642Y-87633859D01*
X69768000Y-87591418D01*
X69796358Y-87633859D01*
X69905141Y-87742642D01*
X70033058Y-87828113D01*
X70175191Y-87886987D01*
X70326078Y-87917000D01*
X70479922Y-87917000D01*
X70630809Y-87886987D01*
X70772942Y-87828113D01*
X70900859Y-87742642D01*
X71009642Y-87633859D01*
X71095113Y-87505942D01*
X71153987Y-87363809D01*
X71184000Y-87212922D01*
X71184000Y-87059078D01*
X71153987Y-86908191D01*
X71150358Y-86899429D01*
X73026414Y-86899429D01*
X73052614Y-87130586D01*
X73123408Y-87352189D01*
X73216707Y-87526741D01*
X73397292Y-87607199D01*
X74122490Y-86882000D01*
X74303510Y-86882000D01*
X75028708Y-87607199D01*
X75209293Y-87526741D01*
X75315932Y-87319985D01*
X75380186Y-87096398D01*
X75399586Y-86864571D01*
X75373386Y-86633414D01*
X75302592Y-86411811D01*
X75209293Y-86237259D01*
X75028708Y-86156801D01*
X74303510Y-86882000D01*
X74122490Y-86882000D01*
X73397292Y-86156801D01*
X73216707Y-86237259D01*
X73110068Y-86444015D01*
X73045814Y-86667602D01*
X73026414Y-86899429D01*
X71150358Y-86899429D01*
X71095113Y-86766058D01*
X71009642Y-86638141D01*
X70900859Y-86529358D01*
X70772942Y-86443887D01*
X70630809Y-86385013D01*
X70479922Y-86355000D01*
X70326078Y-86355000D01*
X70175191Y-86385013D01*
X70033058Y-86443887D01*
X69905141Y-86529358D01*
X69796358Y-86638141D01*
X69768000Y-86680582D01*
X69739642Y-86638141D01*
X69630859Y-86529358D01*
X69502942Y-86443887D01*
X69360809Y-86385013D01*
X69209922Y-86355000D01*
X69056078Y-86355000D01*
X68905191Y-86385013D01*
X68763058Y-86443887D01*
X68635141Y-86529358D01*
X68526358Y-86638141D01*
X68440887Y-86766058D01*
X68382013Y-86908191D01*
X68352000Y-87059078D01*
X67228000Y-87059078D01*
X67228000Y-86066292D01*
X73487801Y-86066292D01*
X74213000Y-86791490D01*
X74938199Y-86066292D01*
X74857741Y-85885707D01*
X74650985Y-85779068D01*
X74427398Y-85714814D01*
X74195571Y-85695414D01*
X73964414Y-85721614D01*
X73742811Y-85792408D01*
X73568259Y-85885707D01*
X73487801Y-86066292D01*
X67228000Y-86066292D01*
X67228000Y-85142000D01*
X73030157Y-85142000D01*
X73037513Y-85216689D01*
X73059299Y-85288508D01*
X73094678Y-85354696D01*
X73142289Y-85412711D01*
X73200304Y-85460322D01*
X73266492Y-85495701D01*
X73338311Y-85517487D01*
X73413000Y-85524843D01*
X74053750Y-85523000D01*
X74149000Y-85427750D01*
X74149000Y-84406000D01*
X74277000Y-84406000D01*
X74277000Y-85427750D01*
X74372250Y-85523000D01*
X75013000Y-85524843D01*
X75087689Y-85517487D01*
X75159508Y-85495701D01*
X75225696Y-85460322D01*
X75283711Y-85412711D01*
X75331322Y-85354696D01*
X75366701Y-85288508D01*
X75388487Y-85216689D01*
X75395843Y-85142000D01*
X75394000Y-84501250D01*
X75298750Y-84406000D01*
X74277000Y-84406000D01*
X74149000Y-84406000D01*
X73127250Y-84406000D01*
X73032000Y-84501250D01*
X73030157Y-85142000D01*
X67228000Y-85142000D01*
X67228000Y-83542000D01*
X73030157Y-83542000D01*
X73032000Y-84182750D01*
X73127250Y-84278000D01*
X74149000Y-84278000D01*
X74149000Y-83256250D01*
X74277000Y-83256250D01*
X74277000Y-84278000D01*
X75298750Y-84278000D01*
X75351068Y-84225682D01*
X80652000Y-84225682D01*
X80652000Y-84458318D01*
X80697386Y-84686485D01*
X80786412Y-84901413D01*
X80915658Y-85094843D01*
X81080157Y-85259342D01*
X81273587Y-85388588D01*
X81488515Y-85477614D01*
X81716682Y-85523000D01*
X81949318Y-85523000D01*
X82177485Y-85477614D01*
X82392413Y-85388588D01*
X82585843Y-85259342D01*
X82750342Y-85094843D01*
X82879588Y-84901413D01*
X82968614Y-84686485D01*
X83014000Y-84458318D01*
X83014000Y-84225682D01*
X82971312Y-84011078D01*
X85115992Y-84011078D01*
X85115992Y-84164922D01*
X85146005Y-84315809D01*
X85204879Y-84457942D01*
X85290350Y-84585859D01*
X85399133Y-84694642D01*
X85527050Y-84780113D01*
X85669183Y-84838987D01*
X85820070Y-84869000D01*
X85973914Y-84869000D01*
X86124801Y-84838987D01*
X86266934Y-84780113D01*
X86394851Y-84694642D01*
X86503634Y-84585859D01*
X86589105Y-84457942D01*
X86647979Y-84315809D01*
X86677992Y-84164922D01*
X86677992Y-84011078D01*
X86647979Y-83860191D01*
X86589105Y-83718058D01*
X86503634Y-83590141D01*
X86394851Y-83481358D01*
X86266934Y-83395887D01*
X86124801Y-83337013D01*
X85973914Y-83307000D01*
X85820070Y-83307000D01*
X85669183Y-83337013D01*
X85527050Y-83395887D01*
X85399133Y-83481358D01*
X85290350Y-83590141D01*
X85204879Y-83718058D01*
X85146005Y-83860191D01*
X85115992Y-84011078D01*
X82971312Y-84011078D01*
X82968614Y-83997515D01*
X82879588Y-83782587D01*
X82750342Y-83589157D01*
X82585843Y-83424658D01*
X82392413Y-83295412D01*
X82177485Y-83206386D01*
X81949318Y-83161000D01*
X81716682Y-83161000D01*
X81488515Y-83206386D01*
X81273587Y-83295412D01*
X81080157Y-83424658D01*
X80915658Y-83589157D01*
X80786412Y-83782587D01*
X80697386Y-83997515D01*
X80652000Y-84225682D01*
X75351068Y-84225682D01*
X75394000Y-84182750D01*
X75395843Y-83542000D01*
X75388487Y-83467311D01*
X75366701Y-83395492D01*
X75331322Y-83329304D01*
X75283711Y-83271289D01*
X75225696Y-83223678D01*
X75159508Y-83188299D01*
X75087689Y-83166513D01*
X75013000Y-83159157D01*
X74372250Y-83161000D01*
X74277000Y-83256250D01*
X74149000Y-83256250D01*
X74053750Y-83161000D01*
X73413000Y-83159157D01*
X73338311Y-83166513D01*
X73266492Y-83188299D01*
X73200304Y-83223678D01*
X73142289Y-83271289D01*
X73094678Y-83329304D01*
X73059299Y-83395492D01*
X73037513Y-83467311D01*
X73030157Y-83542000D01*
X67228000Y-83542000D01*
X67228000Y-83122078D01*
X88164000Y-83122078D01*
X88164000Y-83275922D01*
X88194013Y-83426809D01*
X88252887Y-83568942D01*
X88338358Y-83696859D01*
X88447141Y-83805642D01*
X88575058Y-83891113D01*
X88717191Y-83949987D01*
X88868078Y-83980000D01*
X89021922Y-83980000D01*
X89172809Y-83949987D01*
X89314942Y-83891113D01*
X89442859Y-83805642D01*
X89551642Y-83696859D01*
X89637113Y-83568942D01*
X89695987Y-83426809D01*
X89726000Y-83275922D01*
X89726000Y-83122078D01*
X89698551Y-82984078D01*
X91974000Y-82984078D01*
X91974000Y-83137922D01*
X92004013Y-83288809D01*
X92062887Y-83430942D01*
X92148358Y-83558859D01*
X92257141Y-83667642D01*
X92385058Y-83753113D01*
X92527191Y-83811987D01*
X92678078Y-83842000D01*
X92831922Y-83842000D01*
X92982809Y-83811987D01*
X93124942Y-83753113D01*
X93252859Y-83667642D01*
X93361642Y-83558859D01*
X93372906Y-83542000D01*
X93604157Y-83542000D01*
X93606000Y-84182750D01*
X93701250Y-84278000D01*
X94723000Y-84278000D01*
X94723000Y-83256250D01*
X94851000Y-83256250D01*
X94851000Y-84278000D01*
X95872750Y-84278000D01*
X95925068Y-84225682D01*
X101226000Y-84225682D01*
X101226000Y-84458318D01*
X101271386Y-84686485D01*
X101360412Y-84901413D01*
X101489658Y-85094843D01*
X101654157Y-85259342D01*
X101847587Y-85388588D01*
X102062515Y-85477614D01*
X102290682Y-85523000D01*
X102523318Y-85523000D01*
X102751485Y-85477614D01*
X102966413Y-85388588D01*
X103159843Y-85259342D01*
X103324342Y-85094843D01*
X103453588Y-84901413D01*
X103542614Y-84686485D01*
X103588000Y-84458318D01*
X103588000Y-84225682D01*
X103542614Y-83997515D01*
X103453588Y-83782587D01*
X103324342Y-83589157D01*
X103159843Y-83424658D01*
X102966413Y-83295412D01*
X102751485Y-83206386D01*
X102523318Y-83161000D01*
X102290682Y-83161000D01*
X102062515Y-83206386D01*
X101847587Y-83295412D01*
X101654157Y-83424658D01*
X101489658Y-83589157D01*
X101360412Y-83782587D01*
X101271386Y-83997515D01*
X101226000Y-84225682D01*
X95925068Y-84225682D01*
X95968000Y-84182750D01*
X95969843Y-83542000D01*
X95962487Y-83467311D01*
X95940701Y-83395492D01*
X95905322Y-83329304D01*
X95857711Y-83271289D01*
X95799696Y-83223678D01*
X95733508Y-83188299D01*
X95661689Y-83166513D01*
X95587000Y-83159157D01*
X94946250Y-83161000D01*
X94851000Y-83256250D01*
X94723000Y-83256250D01*
X94627750Y-83161000D01*
X93987000Y-83159157D01*
X93912311Y-83166513D01*
X93840492Y-83188299D01*
X93774304Y-83223678D01*
X93716289Y-83271289D01*
X93668678Y-83329304D01*
X93633299Y-83395492D01*
X93611513Y-83467311D01*
X93604157Y-83542000D01*
X93372906Y-83542000D01*
X93447113Y-83430942D01*
X93505987Y-83288809D01*
X93536000Y-83137922D01*
X93536000Y-82984078D01*
X93505987Y-82833191D01*
X93447113Y-82691058D01*
X93361642Y-82563141D01*
X93252859Y-82454358D01*
X93124942Y-82368887D01*
X92982809Y-82310013D01*
X92831922Y-82280000D01*
X92678078Y-82280000D01*
X92527191Y-82310013D01*
X92385058Y-82368887D01*
X92257141Y-82454358D01*
X92148358Y-82563141D01*
X92062887Y-82691058D01*
X92004013Y-82833191D01*
X91974000Y-82984078D01*
X89698551Y-82984078D01*
X89695987Y-82971191D01*
X89637113Y-82829058D01*
X89551642Y-82701141D01*
X89442859Y-82592358D01*
X89314942Y-82506887D01*
X89172809Y-82448013D01*
X89021922Y-82418000D01*
X88868078Y-82418000D01*
X88717191Y-82448013D01*
X88575058Y-82506887D01*
X88447141Y-82592358D01*
X88338358Y-82701141D01*
X88252887Y-82829058D01*
X88194013Y-82971191D01*
X88164000Y-83122078D01*
X67228000Y-83122078D01*
X67228000Y-81598078D01*
X68199000Y-81598078D01*
X68199000Y-81751922D01*
X68229013Y-81902809D01*
X68287887Y-82044942D01*
X68373358Y-82172859D01*
X68482141Y-82281642D01*
X68610058Y-82367113D01*
X68752191Y-82425987D01*
X68903078Y-82456000D01*
X69056922Y-82456000D01*
X69207809Y-82425987D01*
X69349942Y-82367113D01*
X69477859Y-82281642D01*
X69586642Y-82172859D01*
X69672113Y-82044942D01*
X69730987Y-81902809D01*
X69741077Y-81852078D01*
X73686000Y-81852078D01*
X73686000Y-82005922D01*
X73716013Y-82156809D01*
X73774887Y-82298942D01*
X73860358Y-82426859D01*
X73969141Y-82535642D01*
X74097058Y-82621113D01*
X74239191Y-82679987D01*
X74390078Y-82710000D01*
X74543922Y-82710000D01*
X74694809Y-82679987D01*
X74836942Y-82621113D01*
X74964859Y-82535642D01*
X75073642Y-82426859D01*
X75159113Y-82298942D01*
X75217987Y-82156809D01*
X75229000Y-82101442D01*
X75240013Y-82156809D01*
X75298887Y-82298942D01*
X75384358Y-82426859D01*
X75493141Y-82535642D01*
X75621058Y-82621113D01*
X75763191Y-82679987D01*
X75914078Y-82710000D01*
X76067922Y-82710000D01*
X76218809Y-82679987D01*
X76360942Y-82621113D01*
X76488859Y-82535642D01*
X76597642Y-82426859D01*
X76683113Y-82298942D01*
X76741987Y-82156809D01*
X76772000Y-82005922D01*
X76772000Y-81852078D01*
X76741987Y-81701191D01*
X76683113Y-81559058D01*
X76597642Y-81431141D01*
X76488859Y-81322358D01*
X76360942Y-81236887D01*
X76218809Y-81178013D01*
X76067922Y-81148000D01*
X75914078Y-81148000D01*
X75763191Y-81178013D01*
X75621058Y-81236887D01*
X75493141Y-81322358D01*
X75384358Y-81431141D01*
X75298887Y-81559058D01*
X75240013Y-81701191D01*
X75229000Y-81756558D01*
X75217987Y-81701191D01*
X75159113Y-81559058D01*
X75073642Y-81431141D01*
X74964859Y-81322358D01*
X74836942Y-81236887D01*
X74694809Y-81178013D01*
X74543922Y-81148000D01*
X74390078Y-81148000D01*
X74239191Y-81178013D01*
X74097058Y-81236887D01*
X73969141Y-81322358D01*
X73860358Y-81431141D01*
X73774887Y-81559058D01*
X73716013Y-81701191D01*
X73686000Y-81852078D01*
X69741077Y-81852078D01*
X69761000Y-81751922D01*
X69761000Y-81598078D01*
X69730987Y-81447191D01*
X69672113Y-81305058D01*
X69586642Y-81177141D01*
X69477859Y-81068358D01*
X69349942Y-80982887D01*
X69207809Y-80924013D01*
X69056922Y-80894000D01*
X68903078Y-80894000D01*
X68752191Y-80924013D01*
X68610058Y-80982887D01*
X68482141Y-81068358D01*
X68373358Y-81177141D01*
X68287887Y-81305058D01*
X68229013Y-81447191D01*
X68199000Y-81598078D01*
X67228000Y-81598078D01*
X67228000Y-80201078D01*
X73686000Y-80201078D01*
X73686000Y-80354922D01*
X73716013Y-80505809D01*
X73774887Y-80647942D01*
X73860358Y-80775859D01*
X73969141Y-80884642D01*
X74097058Y-80970113D01*
X74239191Y-81028987D01*
X74390078Y-81059000D01*
X74543922Y-81059000D01*
X74694809Y-81028987D01*
X74836942Y-80970113D01*
X74964859Y-80884642D01*
X75073642Y-80775859D01*
X75159113Y-80647942D01*
X75217987Y-80505809D01*
X75229000Y-80450442D01*
X75240013Y-80505809D01*
X75298887Y-80647942D01*
X75384358Y-80775859D01*
X75493141Y-80884642D01*
X75621058Y-80970113D01*
X75763191Y-81028987D01*
X75914078Y-81059000D01*
X76067922Y-81059000D01*
X76218809Y-81028987D01*
X76360942Y-80970113D01*
X76488859Y-80884642D01*
X76597642Y-80775859D01*
X76683113Y-80647942D01*
X76741987Y-80505809D01*
X76772000Y-80354922D01*
X76772000Y-80201078D01*
X76741987Y-80050191D01*
X76683113Y-79908058D01*
X76666757Y-79883578D01*
X81814000Y-79883578D01*
X81814000Y-80037422D01*
X81844013Y-80188309D01*
X81902887Y-80330442D01*
X81988358Y-80458359D01*
X82097141Y-80567142D01*
X82225058Y-80652613D01*
X82367191Y-80711487D01*
X82518078Y-80741500D01*
X82671922Y-80741500D01*
X82822809Y-80711487D01*
X82964942Y-80652613D01*
X83092859Y-80567142D01*
X83201642Y-80458359D01*
X83287113Y-80330442D01*
X83345987Y-80188309D01*
X83363315Y-80101192D01*
X83368013Y-80124809D01*
X83426887Y-80266942D01*
X83512358Y-80394859D01*
X83621141Y-80503642D01*
X83749058Y-80589113D01*
X83891191Y-80647987D01*
X84042078Y-80678000D01*
X84195922Y-80678000D01*
X84346809Y-80647987D01*
X84488942Y-80589113D01*
X84616859Y-80503642D01*
X84725642Y-80394859D01*
X84811113Y-80266942D01*
X84869987Y-80124809D01*
X84900000Y-79973922D01*
X84900000Y-79820078D01*
X92736000Y-79820078D01*
X92736000Y-79973922D01*
X92766013Y-80124809D01*
X92824887Y-80266942D01*
X92910358Y-80394859D01*
X93019141Y-80503642D01*
X93147058Y-80589113D01*
X93289191Y-80647987D01*
X93440078Y-80678000D01*
X93593922Y-80678000D01*
X93744809Y-80647987D01*
X93886942Y-80589113D01*
X94014859Y-80503642D01*
X94123642Y-80394859D01*
X94209113Y-80266942D01*
X94267987Y-80124809D01*
X94272685Y-80101192D01*
X94290013Y-80188309D01*
X94348887Y-80330442D01*
X94434358Y-80458359D01*
X94543141Y-80567142D01*
X94671058Y-80652613D01*
X94813191Y-80711487D01*
X94964078Y-80741500D01*
X95117922Y-80741500D01*
X95268809Y-80711487D01*
X95410942Y-80652613D01*
X95538859Y-80567142D01*
X95647642Y-80458359D01*
X95733113Y-80330442D01*
X95791987Y-80188309D01*
X95822000Y-80037422D01*
X95822000Y-79883578D01*
X95791987Y-79732691D01*
X95733113Y-79590558D01*
X95647642Y-79462641D01*
X95538859Y-79353858D01*
X95410942Y-79268387D01*
X95268809Y-79209513D01*
X95117922Y-79179500D01*
X94964078Y-79179500D01*
X94813191Y-79209513D01*
X94671058Y-79268387D01*
X94543141Y-79353858D01*
X94434358Y-79462641D01*
X94348887Y-79590558D01*
X94290013Y-79732691D01*
X94285315Y-79756308D01*
X94267987Y-79669191D01*
X94209113Y-79527058D01*
X94123642Y-79399141D01*
X94014859Y-79290358D01*
X93886942Y-79204887D01*
X93744809Y-79146013D01*
X93593922Y-79116000D01*
X93440078Y-79116000D01*
X93289191Y-79146013D01*
X93147058Y-79204887D01*
X93019141Y-79290358D01*
X92910358Y-79399141D01*
X92824887Y-79527058D01*
X92766013Y-79669191D01*
X92736000Y-79820078D01*
X84900000Y-79820078D01*
X84869987Y-79669191D01*
X84811113Y-79527058D01*
X84725642Y-79399141D01*
X84616859Y-79290358D01*
X84488942Y-79204887D01*
X84346809Y-79146013D01*
X84195922Y-79116000D01*
X84042078Y-79116000D01*
X83891191Y-79146013D01*
X83749058Y-79204887D01*
X83621141Y-79290358D01*
X83512358Y-79399141D01*
X83426887Y-79527058D01*
X83368013Y-79669191D01*
X83350685Y-79756308D01*
X83345987Y-79732691D01*
X83287113Y-79590558D01*
X83201642Y-79462641D01*
X83092859Y-79353858D01*
X82964942Y-79268387D01*
X82822809Y-79209513D01*
X82671922Y-79179500D01*
X82518078Y-79179500D01*
X82367191Y-79209513D01*
X82225058Y-79268387D01*
X82097141Y-79353858D01*
X81988358Y-79462641D01*
X81902887Y-79590558D01*
X81844013Y-79732691D01*
X81814000Y-79883578D01*
X76666757Y-79883578D01*
X76597642Y-79780141D01*
X76488859Y-79671358D01*
X76360942Y-79585887D01*
X76218809Y-79527013D01*
X76067922Y-79497000D01*
X75914078Y-79497000D01*
X75763191Y-79527013D01*
X75621058Y-79585887D01*
X75493141Y-79671358D01*
X75384358Y-79780141D01*
X75298887Y-79908058D01*
X75240013Y-80050191D01*
X75229000Y-80105558D01*
X75217987Y-80050191D01*
X75159113Y-79908058D01*
X75073642Y-79780141D01*
X74964859Y-79671358D01*
X74836942Y-79585887D01*
X74694809Y-79527013D01*
X74543922Y-79497000D01*
X74390078Y-79497000D01*
X74239191Y-79527013D01*
X74097058Y-79585887D01*
X73969141Y-79671358D01*
X73860358Y-79780141D01*
X73774887Y-79908058D01*
X73716013Y-80050191D01*
X73686000Y-80201078D01*
X67228000Y-80201078D01*
X67228000Y-79008000D01*
X103677000Y-79008000D01*
X103677000Y-79681499D01*
G37*
%TD.AperFunction*%
%TD*%
M02*
