%TF.GenerationSoftware,KiCad,Pcbnew,(5.1.10)-1*%
%TF.CreationDate,2022-01-19T08:42:29+07:00*%
%TF.ProjectId,PCB_2x_pnlz1_4,5043425f-3278-45f7-906e-6c7a315f342e,rev?*%
%TF.SameCoordinates,Original*%
%TF.FileFunction,Paste,Bot*%
%TF.FilePolarity,Positive*%
%FSLAX46Y46*%
G04 Gerber Fmt 4.6, Leading zero omitted, Abs format (unit mm)*
G04 Created by KiCad (PCBNEW (5.1.10)-1) date 2022-01-19 08:42:29*
%MOMM*%
%LPD*%
G01*
G04 APERTURE LIST*
%ADD10R,0.800000X0.900000*%
%ADD11R,0.950000X0.450000*%
G04 APERTURE END LIST*
%TO.C,C3*%
G36*
G01*
X111395000Y-127020000D02*
X111395000Y-127520000D01*
G75*
G02*
X111170000Y-127745000I-225000J0D01*
G01*
X110720000Y-127745000D01*
G75*
G02*
X110495000Y-127520000I0J225000D01*
G01*
X110495000Y-127020000D01*
G75*
G02*
X110720000Y-126795000I225000J0D01*
G01*
X111170000Y-126795000D01*
G75*
G02*
X111395000Y-127020000I0J-225000D01*
G01*
G37*
G36*
G01*
X112945000Y-127020000D02*
X112945000Y-127520000D01*
G75*
G02*
X112720000Y-127745000I-225000J0D01*
G01*
X112270000Y-127745000D01*
G75*
G02*
X112045000Y-127520000I0J225000D01*
G01*
X112045000Y-127020000D01*
G75*
G02*
X112270000Y-126795000I225000J0D01*
G01*
X112720000Y-126795000D01*
G75*
G02*
X112945000Y-127020000I0J-225000D01*
G01*
G37*
%TD*%
%TO.C,C2*%
G36*
G01*
X115119000Y-122821000D02*
X115119000Y-122321000D01*
G75*
G02*
X115344000Y-122096000I225000J0D01*
G01*
X115794000Y-122096000D01*
G75*
G02*
X116019000Y-122321000I0J-225000D01*
G01*
X116019000Y-122821000D01*
G75*
G02*
X115794000Y-123046000I-225000J0D01*
G01*
X115344000Y-123046000D01*
G75*
G02*
X115119000Y-122821000I0J225000D01*
G01*
G37*
G36*
G01*
X113569000Y-122821000D02*
X113569000Y-122321000D01*
G75*
G02*
X113794000Y-122096000I225000J0D01*
G01*
X114244000Y-122096000D01*
G75*
G02*
X114469000Y-122321000I0J-225000D01*
G01*
X114469000Y-122821000D01*
G75*
G02*
X114244000Y-123046000I-225000J0D01*
G01*
X113794000Y-123046000D01*
G75*
G02*
X113569000Y-122821000I0J225000D01*
G01*
G37*
%TD*%
%TO.C,C1*%
G36*
G01*
X111395000Y-128671000D02*
X111395000Y-129171000D01*
G75*
G02*
X111170000Y-129396000I-225000J0D01*
G01*
X110720000Y-129396000D01*
G75*
G02*
X110495000Y-129171000I0J225000D01*
G01*
X110495000Y-128671000D01*
G75*
G02*
X110720000Y-128446000I225000J0D01*
G01*
X111170000Y-128446000D01*
G75*
G02*
X111395000Y-128671000I0J-225000D01*
G01*
G37*
G36*
G01*
X112945000Y-128671000D02*
X112945000Y-129171000D01*
G75*
G02*
X112720000Y-129396000I-225000J0D01*
G01*
X112270000Y-129396000D01*
G75*
G02*
X112045000Y-129171000I0J225000D01*
G01*
X112045000Y-128671000D01*
G75*
G02*
X112270000Y-128446000I225000J0D01*
G01*
X112720000Y-128446000D01*
G75*
G02*
X112945000Y-128671000I0J-225000D01*
G01*
G37*
%TD*%
%TO.C,C10*%
G36*
G01*
X76416000Y-122821000D02*
X76416000Y-122321000D01*
G75*
G02*
X76641000Y-122096000I225000J0D01*
G01*
X77091000Y-122096000D01*
G75*
G02*
X77316000Y-122321000I0J-225000D01*
G01*
X77316000Y-122821000D01*
G75*
G02*
X77091000Y-123046000I-225000J0D01*
G01*
X76641000Y-123046000D01*
G75*
G02*
X76416000Y-122821000I0J225000D01*
G01*
G37*
G36*
G01*
X77966000Y-122821000D02*
X77966000Y-122321000D01*
G75*
G02*
X78191000Y-122096000I225000J0D01*
G01*
X78641000Y-122096000D01*
G75*
G02*
X78866000Y-122321000I0J-225000D01*
G01*
X78866000Y-122821000D01*
G75*
G02*
X78641000Y-123046000I-225000J0D01*
G01*
X78191000Y-123046000D01*
G75*
G02*
X77966000Y-122821000I0J225000D01*
G01*
G37*
%TD*%
D10*
%TO.C,Q1*%
X73148000Y-126540000D03*
X75048000Y-126540000D03*
X74098000Y-128540000D03*
%TD*%
%TO.C,R1*%
G36*
G01*
X72745500Y-125259000D02*
X72745500Y-124709000D01*
G75*
G02*
X72945500Y-124509000I200000J0D01*
G01*
X73345500Y-124509000D01*
G75*
G02*
X73545500Y-124709000I0J-200000D01*
G01*
X73545500Y-125259000D01*
G75*
G02*
X73345500Y-125459000I-200000J0D01*
G01*
X72945500Y-125459000D01*
G75*
G02*
X72745500Y-125259000I0J200000D01*
G01*
G37*
G36*
G01*
X74395500Y-125259000D02*
X74395500Y-124709000D01*
G75*
G02*
X74595500Y-124509000I200000J0D01*
G01*
X74995500Y-124509000D01*
G75*
G02*
X75195500Y-124709000I0J-200000D01*
G01*
X75195500Y-125259000D01*
G75*
G02*
X74995500Y-125459000I-200000J0D01*
G01*
X74595500Y-125459000D01*
G75*
G02*
X74395500Y-125259000I0J200000D01*
G01*
G37*
%TD*%
%TO.C,R2*%
G36*
G01*
X76913000Y-128940000D02*
X76363000Y-128940000D01*
G75*
G02*
X76163000Y-128740000I0J200000D01*
G01*
X76163000Y-128340000D01*
G75*
G02*
X76363000Y-128140000I200000J0D01*
G01*
X76913000Y-128140000D01*
G75*
G02*
X77113000Y-128340000I0J-200000D01*
G01*
X77113000Y-128740000D01*
G75*
G02*
X76913000Y-128940000I-200000J0D01*
G01*
G37*
G36*
G01*
X76913000Y-127290000D02*
X76363000Y-127290000D01*
G75*
G02*
X76163000Y-127090000I0J200000D01*
G01*
X76163000Y-126690000D01*
G75*
G02*
X76363000Y-126490000I200000J0D01*
G01*
X76913000Y-126490000D01*
G75*
G02*
X77113000Y-126690000I0J-200000D01*
G01*
X77113000Y-127090000D01*
G75*
G02*
X76913000Y-127290000I-200000J0D01*
G01*
G37*
%TD*%
%TO.C,C10*%
G36*
G01*
X121316000Y-122821000D02*
X121316000Y-122321000D01*
G75*
G02*
X121541000Y-122096000I225000J0D01*
G01*
X121991000Y-122096000D01*
G75*
G02*
X122216000Y-122321000I0J-225000D01*
G01*
X122216000Y-122821000D01*
G75*
G02*
X121991000Y-123046000I-225000J0D01*
G01*
X121541000Y-123046000D01*
G75*
G02*
X121316000Y-122821000I0J225000D01*
G01*
G37*
G36*
G01*
X119766000Y-122821000D02*
X119766000Y-122321000D01*
G75*
G02*
X119991000Y-122096000I225000J0D01*
G01*
X120441000Y-122096000D01*
G75*
G02*
X120666000Y-122321000I0J-225000D01*
G01*
X120666000Y-122821000D01*
G75*
G02*
X120441000Y-123046000I-225000J0D01*
G01*
X119991000Y-123046000D01*
G75*
G02*
X119766000Y-122821000I0J225000D01*
G01*
G37*
%TD*%
%TO.C,C9*%
G36*
G01*
X121316000Y-121170000D02*
X121316000Y-120670000D01*
G75*
G02*
X121541000Y-120445000I225000J0D01*
G01*
X121991000Y-120445000D01*
G75*
G02*
X122216000Y-120670000I0J-225000D01*
G01*
X122216000Y-121170000D01*
G75*
G02*
X121991000Y-121395000I-225000J0D01*
G01*
X121541000Y-121395000D01*
G75*
G02*
X121316000Y-121170000I0J225000D01*
G01*
G37*
G36*
G01*
X119766000Y-121170000D02*
X119766000Y-120670000D01*
G75*
G02*
X119991000Y-120445000I225000J0D01*
G01*
X120441000Y-120445000D01*
G75*
G02*
X120666000Y-120670000I0J-225000D01*
G01*
X120666000Y-121170000D01*
G75*
G02*
X120441000Y-121395000I-225000J0D01*
G01*
X119991000Y-121395000D01*
G75*
G02*
X119766000Y-121170000I0J225000D01*
G01*
G37*
%TD*%
%TO.C,C6*%
G36*
G01*
X111408000Y-121051000D02*
X111408000Y-121551000D01*
G75*
G02*
X111183000Y-121776000I-225000J0D01*
G01*
X110733000Y-121776000D01*
G75*
G02*
X110508000Y-121551000I0J225000D01*
G01*
X110508000Y-121051000D01*
G75*
G02*
X110733000Y-120826000I225000J0D01*
G01*
X111183000Y-120826000D01*
G75*
G02*
X111408000Y-121051000I0J-225000D01*
G01*
G37*
G36*
G01*
X112958000Y-121051000D02*
X112958000Y-121551000D01*
G75*
G02*
X112733000Y-121776000I-225000J0D01*
G01*
X112283000Y-121776000D01*
G75*
G02*
X112058000Y-121551000I0J225000D01*
G01*
X112058000Y-121051000D01*
G75*
G02*
X112283000Y-120826000I225000J0D01*
G01*
X112733000Y-120826000D01*
G75*
G02*
X112958000Y-121051000I0J-225000D01*
G01*
G37*
%TD*%
%TO.C,C5*%
G36*
G01*
X111395000Y-122702000D02*
X111395000Y-123202000D01*
G75*
G02*
X111170000Y-123427000I-225000J0D01*
G01*
X110720000Y-123427000D01*
G75*
G02*
X110495000Y-123202000I0J225000D01*
G01*
X110495000Y-122702000D01*
G75*
G02*
X110720000Y-122477000I225000J0D01*
G01*
X111170000Y-122477000D01*
G75*
G02*
X111395000Y-122702000I0J-225000D01*
G01*
G37*
G36*
G01*
X112945000Y-122702000D02*
X112945000Y-123202000D01*
G75*
G02*
X112720000Y-123427000I-225000J0D01*
G01*
X112270000Y-123427000D01*
G75*
G02*
X112045000Y-123202000I0J225000D01*
G01*
X112045000Y-122702000D01*
G75*
G02*
X112270000Y-122477000I225000J0D01*
G01*
X112720000Y-122477000D01*
G75*
G02*
X112945000Y-122702000I0J-225000D01*
G01*
G37*
%TD*%
%TO.C,C4*%
G36*
G01*
X115119000Y-121170000D02*
X115119000Y-120670000D01*
G75*
G02*
X115344000Y-120445000I225000J0D01*
G01*
X115794000Y-120445000D01*
G75*
G02*
X116019000Y-120670000I0J-225000D01*
G01*
X116019000Y-121170000D01*
G75*
G02*
X115794000Y-121395000I-225000J0D01*
G01*
X115344000Y-121395000D01*
G75*
G02*
X115119000Y-121170000I0J225000D01*
G01*
G37*
G36*
G01*
X113569000Y-121170000D02*
X113569000Y-120670000D01*
G75*
G02*
X113794000Y-120445000I225000J0D01*
G01*
X114244000Y-120445000D01*
G75*
G02*
X114469000Y-120670000I0J-225000D01*
G01*
X114469000Y-121170000D01*
G75*
G02*
X114244000Y-121395000I-225000J0D01*
G01*
X113794000Y-121395000D01*
G75*
G02*
X113569000Y-121170000I0J225000D01*
G01*
G37*
%TD*%
%TO.C,C13*%
G36*
G01*
X126000000Y-120670000D02*
X126000000Y-121170000D01*
G75*
G02*
X125775000Y-121395000I-225000J0D01*
G01*
X125325000Y-121395000D01*
G75*
G02*
X125100000Y-121170000I0J225000D01*
G01*
X125100000Y-120670000D01*
G75*
G02*
X125325000Y-120445000I225000J0D01*
G01*
X125775000Y-120445000D01*
G75*
G02*
X126000000Y-120670000I0J-225000D01*
G01*
G37*
G36*
G01*
X127550000Y-120670000D02*
X127550000Y-121170000D01*
G75*
G02*
X127325000Y-121395000I-225000J0D01*
G01*
X126875000Y-121395000D01*
G75*
G02*
X126650000Y-121170000I0J225000D01*
G01*
X126650000Y-120670000D01*
G75*
G02*
X126875000Y-120445000I225000J0D01*
G01*
X127325000Y-120445000D01*
G75*
G02*
X127550000Y-120670000I0J-225000D01*
G01*
G37*
%TD*%
%TO.C,C14*%
G36*
G01*
X126000000Y-122321000D02*
X126000000Y-122821000D01*
G75*
G02*
X125775000Y-123046000I-225000J0D01*
G01*
X125325000Y-123046000D01*
G75*
G02*
X125100000Y-122821000I0J225000D01*
G01*
X125100000Y-122321000D01*
G75*
G02*
X125325000Y-122096000I225000J0D01*
G01*
X125775000Y-122096000D01*
G75*
G02*
X126000000Y-122321000I0J-225000D01*
G01*
G37*
G36*
G01*
X127550000Y-122321000D02*
X127550000Y-122821000D01*
G75*
G02*
X127325000Y-123046000I-225000J0D01*
G01*
X126875000Y-123046000D01*
G75*
G02*
X126650000Y-122821000I0J225000D01*
G01*
X126650000Y-122321000D01*
G75*
G02*
X126875000Y-122096000I225000J0D01*
G01*
X127325000Y-122096000D01*
G75*
G02*
X127550000Y-122321000I0J-225000D01*
G01*
G37*
%TD*%
%TO.C,R2*%
G36*
G01*
X120263000Y-127290000D02*
X119713000Y-127290000D01*
G75*
G02*
X119513000Y-127090000I0J200000D01*
G01*
X119513000Y-126690000D01*
G75*
G02*
X119713000Y-126490000I200000J0D01*
G01*
X120263000Y-126490000D01*
G75*
G02*
X120463000Y-126690000I0J-200000D01*
G01*
X120463000Y-127090000D01*
G75*
G02*
X120263000Y-127290000I-200000J0D01*
G01*
G37*
G36*
G01*
X120263000Y-128940000D02*
X119713000Y-128940000D01*
G75*
G02*
X119513000Y-128740000I0J200000D01*
G01*
X119513000Y-128340000D01*
G75*
G02*
X119713000Y-128140000I200000J0D01*
G01*
X120263000Y-128140000D01*
G75*
G02*
X120463000Y-128340000I0J-200000D01*
G01*
X120463000Y-128740000D01*
G75*
G02*
X120263000Y-128940000I-200000J0D01*
G01*
G37*
%TD*%
%TO.C,R1*%
G36*
G01*
X117745500Y-125259000D02*
X117745500Y-124709000D01*
G75*
G02*
X117945500Y-124509000I200000J0D01*
G01*
X118345500Y-124509000D01*
G75*
G02*
X118545500Y-124709000I0J-200000D01*
G01*
X118545500Y-125259000D01*
G75*
G02*
X118345500Y-125459000I-200000J0D01*
G01*
X117945500Y-125459000D01*
G75*
G02*
X117745500Y-125259000I0J200000D01*
G01*
G37*
G36*
G01*
X116095500Y-125259000D02*
X116095500Y-124709000D01*
G75*
G02*
X116295500Y-124509000I200000J0D01*
G01*
X116695500Y-124509000D01*
G75*
G02*
X116895500Y-124709000I0J-200000D01*
G01*
X116895500Y-125259000D01*
G75*
G02*
X116695500Y-125459000I-200000J0D01*
G01*
X116295500Y-125459000D01*
G75*
G02*
X116095500Y-125259000I0J200000D01*
G01*
G37*
%TD*%
%TO.C,Q1*%
X117448000Y-128540000D03*
X118398000Y-126540000D03*
X116498000Y-126540000D03*
%TD*%
D11*
%TO.C,D1*%
X113171000Y-125761000D03*
X113171000Y-125111000D03*
X113171000Y-124461000D03*
X110971000Y-124461000D03*
X110971000Y-125111000D03*
X110971000Y-125761000D03*
%TD*%
%TO.C,C12*%
G36*
G01*
X128921000Y-116865000D02*
X128921000Y-114815000D01*
G75*
G02*
X129171000Y-114565000I250000J0D01*
G01*
X130746000Y-114565000D01*
G75*
G02*
X130996000Y-114815000I0J-250000D01*
G01*
X130996000Y-116865000D01*
G75*
G02*
X130746000Y-117115000I-250000J0D01*
G01*
X129171000Y-117115000D01*
G75*
G02*
X128921000Y-116865000I0J250000D01*
G01*
G37*
G36*
G01*
X122696000Y-116865000D02*
X122696000Y-114815000D01*
G75*
G02*
X122946000Y-114565000I250000J0D01*
G01*
X124521000Y-114565000D01*
G75*
G02*
X124771000Y-114815000I0J-250000D01*
G01*
X124771000Y-116865000D01*
G75*
G02*
X124521000Y-117115000I-250000J0D01*
G01*
X122946000Y-117115000D01*
G75*
G02*
X122696000Y-116865000I0J250000D01*
G01*
G37*
%TD*%
%TO.C,C11*%
G36*
G01*
X116537500Y-116865000D02*
X116537500Y-114815000D01*
G75*
G02*
X116787500Y-114565000I250000J0D01*
G01*
X118362500Y-114565000D01*
G75*
G02*
X118612500Y-114815000I0J-250000D01*
G01*
X118612500Y-116865000D01*
G75*
G02*
X118362500Y-117115000I-250000J0D01*
G01*
X116787500Y-117115000D01*
G75*
G02*
X116537500Y-116865000I0J250000D01*
G01*
G37*
G36*
G01*
X110312500Y-116865000D02*
X110312500Y-114815000D01*
G75*
G02*
X110562500Y-114565000I250000J0D01*
G01*
X112137500Y-114565000D01*
G75*
G02*
X112387500Y-114815000I0J-250000D01*
G01*
X112387500Y-116865000D01*
G75*
G02*
X112137500Y-117115000I-250000J0D01*
G01*
X110562500Y-117115000D01*
G75*
G02*
X110312500Y-116865000I0J250000D01*
G01*
G37*
%TD*%
%TO.C,C1*%
G36*
G01*
X69595000Y-128671000D02*
X69595000Y-129171000D01*
G75*
G02*
X69370000Y-129396000I-225000J0D01*
G01*
X68920000Y-129396000D01*
G75*
G02*
X68695000Y-129171000I0J225000D01*
G01*
X68695000Y-128671000D01*
G75*
G02*
X68920000Y-128446000I225000J0D01*
G01*
X69370000Y-128446000D01*
G75*
G02*
X69595000Y-128671000I0J-225000D01*
G01*
G37*
G36*
G01*
X68045000Y-128671000D02*
X68045000Y-129171000D01*
G75*
G02*
X67820000Y-129396000I-225000J0D01*
G01*
X67370000Y-129396000D01*
G75*
G02*
X67145000Y-129171000I0J225000D01*
G01*
X67145000Y-128671000D01*
G75*
G02*
X67370000Y-128446000I225000J0D01*
G01*
X67820000Y-128446000D01*
G75*
G02*
X68045000Y-128671000I0J-225000D01*
G01*
G37*
%TD*%
%TO.C,C2*%
G36*
G01*
X70219000Y-122821000D02*
X70219000Y-122321000D01*
G75*
G02*
X70444000Y-122096000I225000J0D01*
G01*
X70894000Y-122096000D01*
G75*
G02*
X71119000Y-122321000I0J-225000D01*
G01*
X71119000Y-122821000D01*
G75*
G02*
X70894000Y-123046000I-225000J0D01*
G01*
X70444000Y-123046000D01*
G75*
G02*
X70219000Y-122821000I0J225000D01*
G01*
G37*
G36*
G01*
X71769000Y-122821000D02*
X71769000Y-122321000D01*
G75*
G02*
X71994000Y-122096000I225000J0D01*
G01*
X72444000Y-122096000D01*
G75*
G02*
X72669000Y-122321000I0J-225000D01*
G01*
X72669000Y-122821000D01*
G75*
G02*
X72444000Y-123046000I-225000J0D01*
G01*
X71994000Y-123046000D01*
G75*
G02*
X71769000Y-122821000I0J225000D01*
G01*
G37*
%TD*%
%TO.C,C3*%
G36*
G01*
X69595000Y-127020000D02*
X69595000Y-127520000D01*
G75*
G02*
X69370000Y-127745000I-225000J0D01*
G01*
X68920000Y-127745000D01*
G75*
G02*
X68695000Y-127520000I0J225000D01*
G01*
X68695000Y-127020000D01*
G75*
G02*
X68920000Y-126795000I225000J0D01*
G01*
X69370000Y-126795000D01*
G75*
G02*
X69595000Y-127020000I0J-225000D01*
G01*
G37*
G36*
G01*
X68045000Y-127020000D02*
X68045000Y-127520000D01*
G75*
G02*
X67820000Y-127745000I-225000J0D01*
G01*
X67370000Y-127745000D01*
G75*
G02*
X67145000Y-127520000I0J225000D01*
G01*
X67145000Y-127020000D01*
G75*
G02*
X67370000Y-126795000I225000J0D01*
G01*
X67820000Y-126795000D01*
G75*
G02*
X68045000Y-127020000I0J-225000D01*
G01*
G37*
%TD*%
%TO.C,C4*%
G36*
G01*
X70219000Y-121170000D02*
X70219000Y-120670000D01*
G75*
G02*
X70444000Y-120445000I225000J0D01*
G01*
X70894000Y-120445000D01*
G75*
G02*
X71119000Y-120670000I0J-225000D01*
G01*
X71119000Y-121170000D01*
G75*
G02*
X70894000Y-121395000I-225000J0D01*
G01*
X70444000Y-121395000D01*
G75*
G02*
X70219000Y-121170000I0J225000D01*
G01*
G37*
G36*
G01*
X71769000Y-121170000D02*
X71769000Y-120670000D01*
G75*
G02*
X71994000Y-120445000I225000J0D01*
G01*
X72444000Y-120445000D01*
G75*
G02*
X72669000Y-120670000I0J-225000D01*
G01*
X72669000Y-121170000D01*
G75*
G02*
X72444000Y-121395000I-225000J0D01*
G01*
X71994000Y-121395000D01*
G75*
G02*
X71769000Y-121170000I0J225000D01*
G01*
G37*
%TD*%
%TO.C,C5*%
G36*
G01*
X69595000Y-122702000D02*
X69595000Y-123202000D01*
G75*
G02*
X69370000Y-123427000I-225000J0D01*
G01*
X68920000Y-123427000D01*
G75*
G02*
X68695000Y-123202000I0J225000D01*
G01*
X68695000Y-122702000D01*
G75*
G02*
X68920000Y-122477000I225000J0D01*
G01*
X69370000Y-122477000D01*
G75*
G02*
X69595000Y-122702000I0J-225000D01*
G01*
G37*
G36*
G01*
X68045000Y-122702000D02*
X68045000Y-123202000D01*
G75*
G02*
X67820000Y-123427000I-225000J0D01*
G01*
X67370000Y-123427000D01*
G75*
G02*
X67145000Y-123202000I0J225000D01*
G01*
X67145000Y-122702000D01*
G75*
G02*
X67370000Y-122477000I225000J0D01*
G01*
X67820000Y-122477000D01*
G75*
G02*
X68045000Y-122702000I0J-225000D01*
G01*
G37*
%TD*%
%TO.C,C6*%
G36*
G01*
X69608000Y-121051000D02*
X69608000Y-121551000D01*
G75*
G02*
X69383000Y-121776000I-225000J0D01*
G01*
X68933000Y-121776000D01*
G75*
G02*
X68708000Y-121551000I0J225000D01*
G01*
X68708000Y-121051000D01*
G75*
G02*
X68933000Y-120826000I225000J0D01*
G01*
X69383000Y-120826000D01*
G75*
G02*
X69608000Y-121051000I0J-225000D01*
G01*
G37*
G36*
G01*
X68058000Y-121051000D02*
X68058000Y-121551000D01*
G75*
G02*
X67833000Y-121776000I-225000J0D01*
G01*
X67383000Y-121776000D01*
G75*
G02*
X67158000Y-121551000I0J225000D01*
G01*
X67158000Y-121051000D01*
G75*
G02*
X67383000Y-120826000I225000J0D01*
G01*
X67833000Y-120826000D01*
G75*
G02*
X68058000Y-121051000I0J-225000D01*
G01*
G37*
%TD*%
%TO.C,C9*%
G36*
G01*
X76416000Y-121170000D02*
X76416000Y-120670000D01*
G75*
G02*
X76641000Y-120445000I225000J0D01*
G01*
X77091000Y-120445000D01*
G75*
G02*
X77316000Y-120670000I0J-225000D01*
G01*
X77316000Y-121170000D01*
G75*
G02*
X77091000Y-121395000I-225000J0D01*
G01*
X76641000Y-121395000D01*
G75*
G02*
X76416000Y-121170000I0J225000D01*
G01*
G37*
G36*
G01*
X77966000Y-121170000D02*
X77966000Y-120670000D01*
G75*
G02*
X78191000Y-120445000I225000J0D01*
G01*
X78641000Y-120445000D01*
G75*
G02*
X78866000Y-120670000I0J-225000D01*
G01*
X78866000Y-121170000D01*
G75*
G02*
X78641000Y-121395000I-225000J0D01*
G01*
X78191000Y-121395000D01*
G75*
G02*
X77966000Y-121170000I0J225000D01*
G01*
G37*
%TD*%
%TO.C,C14*%
G36*
G01*
X105900000Y-122321000D02*
X105900000Y-122821000D01*
G75*
G02*
X105675000Y-123046000I-225000J0D01*
G01*
X105225000Y-123046000D01*
G75*
G02*
X105000000Y-122821000I0J225000D01*
G01*
X105000000Y-122321000D01*
G75*
G02*
X105225000Y-122096000I225000J0D01*
G01*
X105675000Y-122096000D01*
G75*
G02*
X105900000Y-122321000I0J-225000D01*
G01*
G37*
G36*
G01*
X104350000Y-122321000D02*
X104350000Y-122821000D01*
G75*
G02*
X104125000Y-123046000I-225000J0D01*
G01*
X103675000Y-123046000D01*
G75*
G02*
X103450000Y-122821000I0J225000D01*
G01*
X103450000Y-122321000D01*
G75*
G02*
X103675000Y-122096000I225000J0D01*
G01*
X104125000Y-122096000D01*
G75*
G02*
X104350000Y-122321000I0J-225000D01*
G01*
G37*
%TD*%
%TO.C,C13*%
G36*
G01*
X105900000Y-120670000D02*
X105900000Y-121170000D01*
G75*
G02*
X105675000Y-121395000I-225000J0D01*
G01*
X105225000Y-121395000D01*
G75*
G02*
X105000000Y-121170000I0J225000D01*
G01*
X105000000Y-120670000D01*
G75*
G02*
X105225000Y-120445000I225000J0D01*
G01*
X105675000Y-120445000D01*
G75*
G02*
X105900000Y-120670000I0J-225000D01*
G01*
G37*
G36*
G01*
X104350000Y-120670000D02*
X104350000Y-121170000D01*
G75*
G02*
X104125000Y-121395000I-225000J0D01*
G01*
X103675000Y-121395000D01*
G75*
G02*
X103450000Y-121170000I0J225000D01*
G01*
X103450000Y-120670000D01*
G75*
G02*
X103675000Y-120445000I225000J0D01*
G01*
X104125000Y-120445000D01*
G75*
G02*
X104350000Y-120670000I0J-225000D01*
G01*
G37*
%TD*%
%TO.C,D1*%
X89321000Y-125761000D03*
X89321000Y-125111000D03*
X89321000Y-124461000D03*
X91521000Y-124461000D03*
X91521000Y-125111000D03*
X91521000Y-125761000D03*
%TD*%
%TO.C,C12*%
G36*
G01*
X101046000Y-116865000D02*
X101046000Y-114815000D01*
G75*
G02*
X101296000Y-114565000I250000J0D01*
G01*
X102871000Y-114565000D01*
G75*
G02*
X103121000Y-114815000I0J-250000D01*
G01*
X103121000Y-116865000D01*
G75*
G02*
X102871000Y-117115000I-250000J0D01*
G01*
X101296000Y-117115000D01*
G75*
G02*
X101046000Y-116865000I0J250000D01*
G01*
G37*
G36*
G01*
X107271000Y-116865000D02*
X107271000Y-114815000D01*
G75*
G02*
X107521000Y-114565000I250000J0D01*
G01*
X109096000Y-114565000D01*
G75*
G02*
X109346000Y-114815000I0J-250000D01*
G01*
X109346000Y-116865000D01*
G75*
G02*
X109096000Y-117115000I-250000J0D01*
G01*
X107521000Y-117115000D01*
G75*
G02*
X107271000Y-116865000I0J250000D01*
G01*
G37*
%TD*%
%TO.C,C11*%
G36*
G01*
X88662500Y-116865000D02*
X88662500Y-114815000D01*
G75*
G02*
X88912500Y-114565000I250000J0D01*
G01*
X90487500Y-114565000D01*
G75*
G02*
X90737500Y-114815000I0J-250000D01*
G01*
X90737500Y-116865000D01*
G75*
G02*
X90487500Y-117115000I-250000J0D01*
G01*
X88912500Y-117115000D01*
G75*
G02*
X88662500Y-116865000I0J250000D01*
G01*
G37*
G36*
G01*
X94887500Y-116865000D02*
X94887500Y-114815000D01*
G75*
G02*
X95137500Y-114565000I250000J0D01*
G01*
X96712500Y-114565000D01*
G75*
G02*
X96962500Y-114815000I0J-250000D01*
G01*
X96962500Y-116865000D01*
G75*
G02*
X96712500Y-117115000I-250000J0D01*
G01*
X95137500Y-117115000D01*
G75*
G02*
X94887500Y-116865000I0J250000D01*
G01*
G37*
%TD*%
%TO.C,C14*%
G36*
G01*
X62550000Y-122321000D02*
X62550000Y-122821000D01*
G75*
G02*
X62325000Y-123046000I-225000J0D01*
G01*
X61875000Y-123046000D01*
G75*
G02*
X61650000Y-122821000I0J225000D01*
G01*
X61650000Y-122321000D01*
G75*
G02*
X61875000Y-122096000I225000J0D01*
G01*
X62325000Y-122096000D01*
G75*
G02*
X62550000Y-122321000I0J-225000D01*
G01*
G37*
G36*
G01*
X61000000Y-122321000D02*
X61000000Y-122821000D01*
G75*
G02*
X60775000Y-123046000I-225000J0D01*
G01*
X60325000Y-123046000D01*
G75*
G02*
X60100000Y-122821000I0J225000D01*
G01*
X60100000Y-122321000D01*
G75*
G02*
X60325000Y-122096000I225000J0D01*
G01*
X60775000Y-122096000D01*
G75*
G02*
X61000000Y-122321000I0J-225000D01*
G01*
G37*
%TD*%
%TO.C,C13*%
G36*
G01*
X62550000Y-120670000D02*
X62550000Y-121170000D01*
G75*
G02*
X62325000Y-121395000I-225000J0D01*
G01*
X61875000Y-121395000D01*
G75*
G02*
X61650000Y-121170000I0J225000D01*
G01*
X61650000Y-120670000D01*
G75*
G02*
X61875000Y-120445000I225000J0D01*
G01*
X62325000Y-120445000D01*
G75*
G02*
X62550000Y-120670000I0J-225000D01*
G01*
G37*
G36*
G01*
X61000000Y-120670000D02*
X61000000Y-121170000D01*
G75*
G02*
X60775000Y-121395000I-225000J0D01*
G01*
X60325000Y-121395000D01*
G75*
G02*
X60100000Y-121170000I0J225000D01*
G01*
X60100000Y-120670000D01*
G75*
G02*
X60325000Y-120445000I225000J0D01*
G01*
X60775000Y-120445000D01*
G75*
G02*
X61000000Y-120670000I0J-225000D01*
G01*
G37*
%TD*%
%TO.C,D1*%
X45971000Y-125761000D03*
X45971000Y-125111000D03*
X45971000Y-124461000D03*
X48171000Y-124461000D03*
X48171000Y-125111000D03*
X48171000Y-125761000D03*
%TD*%
%TO.C,C12*%
G36*
G01*
X57696000Y-116865000D02*
X57696000Y-114815000D01*
G75*
G02*
X57946000Y-114565000I250000J0D01*
G01*
X59521000Y-114565000D01*
G75*
G02*
X59771000Y-114815000I0J-250000D01*
G01*
X59771000Y-116865000D01*
G75*
G02*
X59521000Y-117115000I-250000J0D01*
G01*
X57946000Y-117115000D01*
G75*
G02*
X57696000Y-116865000I0J250000D01*
G01*
G37*
G36*
G01*
X63921000Y-116865000D02*
X63921000Y-114815000D01*
G75*
G02*
X64171000Y-114565000I250000J0D01*
G01*
X65746000Y-114565000D01*
G75*
G02*
X65996000Y-114815000I0J-250000D01*
G01*
X65996000Y-116865000D01*
G75*
G02*
X65746000Y-117115000I-250000J0D01*
G01*
X64171000Y-117115000D01*
G75*
G02*
X63921000Y-116865000I0J250000D01*
G01*
G37*
%TD*%
%TO.C,C11*%
G36*
G01*
X45312500Y-116865000D02*
X45312500Y-114815000D01*
G75*
G02*
X45562500Y-114565000I250000J0D01*
G01*
X47137500Y-114565000D01*
G75*
G02*
X47387500Y-114815000I0J-250000D01*
G01*
X47387500Y-116865000D01*
G75*
G02*
X47137500Y-117115000I-250000J0D01*
G01*
X45562500Y-117115000D01*
G75*
G02*
X45312500Y-116865000I0J250000D01*
G01*
G37*
G36*
G01*
X51537500Y-116865000D02*
X51537500Y-114815000D01*
G75*
G02*
X51787500Y-114565000I250000J0D01*
G01*
X53362500Y-114565000D01*
G75*
G02*
X53612500Y-114815000I0J-250000D01*
G01*
X53612500Y-116865000D01*
G75*
G02*
X53362500Y-117115000I-250000J0D01*
G01*
X51787500Y-117115000D01*
G75*
G02*
X51537500Y-116865000I0J250000D01*
G01*
G37*
%TD*%
%TO.C,C10*%
G36*
G01*
X54766000Y-122821000D02*
X54766000Y-122321000D01*
G75*
G02*
X54991000Y-122096000I225000J0D01*
G01*
X55441000Y-122096000D01*
G75*
G02*
X55666000Y-122321000I0J-225000D01*
G01*
X55666000Y-122821000D01*
G75*
G02*
X55441000Y-123046000I-225000J0D01*
G01*
X54991000Y-123046000D01*
G75*
G02*
X54766000Y-122821000I0J225000D01*
G01*
G37*
G36*
G01*
X56316000Y-122821000D02*
X56316000Y-122321000D01*
G75*
G02*
X56541000Y-122096000I225000J0D01*
G01*
X56991000Y-122096000D01*
G75*
G02*
X57216000Y-122321000I0J-225000D01*
G01*
X57216000Y-122821000D01*
G75*
G02*
X56991000Y-123046000I-225000J0D01*
G01*
X56541000Y-123046000D01*
G75*
G02*
X56316000Y-122821000I0J225000D01*
G01*
G37*
%TD*%
D10*
%TO.C,Q1*%
X51498000Y-126540000D03*
X53398000Y-126540000D03*
X52448000Y-128540000D03*
%TD*%
%TO.C,R1*%
G36*
G01*
X51095500Y-125259000D02*
X51095500Y-124709000D01*
G75*
G02*
X51295500Y-124509000I200000J0D01*
G01*
X51695500Y-124509000D01*
G75*
G02*
X51895500Y-124709000I0J-200000D01*
G01*
X51895500Y-125259000D01*
G75*
G02*
X51695500Y-125459000I-200000J0D01*
G01*
X51295500Y-125459000D01*
G75*
G02*
X51095500Y-125259000I0J200000D01*
G01*
G37*
G36*
G01*
X52745500Y-125259000D02*
X52745500Y-124709000D01*
G75*
G02*
X52945500Y-124509000I200000J0D01*
G01*
X53345500Y-124509000D01*
G75*
G02*
X53545500Y-124709000I0J-200000D01*
G01*
X53545500Y-125259000D01*
G75*
G02*
X53345500Y-125459000I-200000J0D01*
G01*
X52945500Y-125459000D01*
G75*
G02*
X52745500Y-125259000I0J200000D01*
G01*
G37*
%TD*%
%TO.C,R2*%
G36*
G01*
X55263000Y-128940000D02*
X54713000Y-128940000D01*
G75*
G02*
X54513000Y-128740000I0J200000D01*
G01*
X54513000Y-128340000D01*
G75*
G02*
X54713000Y-128140000I200000J0D01*
G01*
X55263000Y-128140000D01*
G75*
G02*
X55463000Y-128340000I0J-200000D01*
G01*
X55463000Y-128740000D01*
G75*
G02*
X55263000Y-128940000I-200000J0D01*
G01*
G37*
G36*
G01*
X55263000Y-127290000D02*
X54713000Y-127290000D01*
G75*
G02*
X54513000Y-127090000I0J200000D01*
G01*
X54513000Y-126690000D01*
G75*
G02*
X54713000Y-126490000I200000J0D01*
G01*
X55263000Y-126490000D01*
G75*
G02*
X55463000Y-126690000I0J-200000D01*
G01*
X55463000Y-127090000D01*
G75*
G02*
X55263000Y-127290000I-200000J0D01*
G01*
G37*
%TD*%
%TO.C,C14*%
G36*
G01*
X84200000Y-122321000D02*
X84200000Y-122821000D01*
G75*
G02*
X83975000Y-123046000I-225000J0D01*
G01*
X83525000Y-123046000D01*
G75*
G02*
X83300000Y-122821000I0J225000D01*
G01*
X83300000Y-122321000D01*
G75*
G02*
X83525000Y-122096000I225000J0D01*
G01*
X83975000Y-122096000D01*
G75*
G02*
X84200000Y-122321000I0J-225000D01*
G01*
G37*
G36*
G01*
X82650000Y-122321000D02*
X82650000Y-122821000D01*
G75*
G02*
X82425000Y-123046000I-225000J0D01*
G01*
X81975000Y-123046000D01*
G75*
G02*
X81750000Y-122821000I0J225000D01*
G01*
X81750000Y-122321000D01*
G75*
G02*
X81975000Y-122096000I225000J0D01*
G01*
X82425000Y-122096000D01*
G75*
G02*
X82650000Y-122321000I0J-225000D01*
G01*
G37*
%TD*%
%TO.C,C13*%
G36*
G01*
X84200000Y-120670000D02*
X84200000Y-121170000D01*
G75*
G02*
X83975000Y-121395000I-225000J0D01*
G01*
X83525000Y-121395000D01*
G75*
G02*
X83300000Y-121170000I0J225000D01*
G01*
X83300000Y-120670000D01*
G75*
G02*
X83525000Y-120445000I225000J0D01*
G01*
X83975000Y-120445000D01*
G75*
G02*
X84200000Y-120670000I0J-225000D01*
G01*
G37*
G36*
G01*
X82650000Y-120670000D02*
X82650000Y-121170000D01*
G75*
G02*
X82425000Y-121395000I-225000J0D01*
G01*
X81975000Y-121395000D01*
G75*
G02*
X81750000Y-121170000I0J225000D01*
G01*
X81750000Y-120670000D01*
G75*
G02*
X81975000Y-120445000I225000J0D01*
G01*
X82425000Y-120445000D01*
G75*
G02*
X82650000Y-120670000I0J-225000D01*
G01*
G37*
%TD*%
D11*
%TO.C,D1*%
X67621000Y-125761000D03*
X67621000Y-125111000D03*
X67621000Y-124461000D03*
X69821000Y-124461000D03*
X69821000Y-125111000D03*
X69821000Y-125761000D03*
%TD*%
%TO.C,C12*%
G36*
G01*
X79346000Y-116865000D02*
X79346000Y-114815000D01*
G75*
G02*
X79596000Y-114565000I250000J0D01*
G01*
X81171000Y-114565000D01*
G75*
G02*
X81421000Y-114815000I0J-250000D01*
G01*
X81421000Y-116865000D01*
G75*
G02*
X81171000Y-117115000I-250000J0D01*
G01*
X79596000Y-117115000D01*
G75*
G02*
X79346000Y-116865000I0J250000D01*
G01*
G37*
G36*
G01*
X85571000Y-116865000D02*
X85571000Y-114815000D01*
G75*
G02*
X85821000Y-114565000I250000J0D01*
G01*
X87396000Y-114565000D01*
G75*
G02*
X87646000Y-114815000I0J-250000D01*
G01*
X87646000Y-116865000D01*
G75*
G02*
X87396000Y-117115000I-250000J0D01*
G01*
X85821000Y-117115000D01*
G75*
G02*
X85571000Y-116865000I0J250000D01*
G01*
G37*
%TD*%
%TO.C,C11*%
G36*
G01*
X66962500Y-116865000D02*
X66962500Y-114815000D01*
G75*
G02*
X67212500Y-114565000I250000J0D01*
G01*
X68787500Y-114565000D01*
G75*
G02*
X69037500Y-114815000I0J-250000D01*
G01*
X69037500Y-116865000D01*
G75*
G02*
X68787500Y-117115000I-250000J0D01*
G01*
X67212500Y-117115000D01*
G75*
G02*
X66962500Y-116865000I0J250000D01*
G01*
G37*
G36*
G01*
X73187500Y-116865000D02*
X73187500Y-114815000D01*
G75*
G02*
X73437500Y-114565000I250000J0D01*
G01*
X75012500Y-114565000D01*
G75*
G02*
X75262500Y-114815000I0J-250000D01*
G01*
X75262500Y-116865000D01*
G75*
G02*
X75012500Y-117115000I-250000J0D01*
G01*
X73437500Y-117115000D01*
G75*
G02*
X73187500Y-116865000I0J250000D01*
G01*
G37*
%TD*%
%TO.C,R2*%
G36*
G01*
X98613000Y-128940000D02*
X98063000Y-128940000D01*
G75*
G02*
X97863000Y-128740000I0J200000D01*
G01*
X97863000Y-128340000D01*
G75*
G02*
X98063000Y-128140000I200000J0D01*
G01*
X98613000Y-128140000D01*
G75*
G02*
X98813000Y-128340000I0J-200000D01*
G01*
X98813000Y-128740000D01*
G75*
G02*
X98613000Y-128940000I-200000J0D01*
G01*
G37*
G36*
G01*
X98613000Y-127290000D02*
X98063000Y-127290000D01*
G75*
G02*
X97863000Y-127090000I0J200000D01*
G01*
X97863000Y-126690000D01*
G75*
G02*
X98063000Y-126490000I200000J0D01*
G01*
X98613000Y-126490000D01*
G75*
G02*
X98813000Y-126690000I0J-200000D01*
G01*
X98813000Y-127090000D01*
G75*
G02*
X98613000Y-127290000I-200000J0D01*
G01*
G37*
%TD*%
%TO.C,R1*%
G36*
G01*
X94445500Y-125259000D02*
X94445500Y-124709000D01*
G75*
G02*
X94645500Y-124509000I200000J0D01*
G01*
X95045500Y-124509000D01*
G75*
G02*
X95245500Y-124709000I0J-200000D01*
G01*
X95245500Y-125259000D01*
G75*
G02*
X95045500Y-125459000I-200000J0D01*
G01*
X94645500Y-125459000D01*
G75*
G02*
X94445500Y-125259000I0J200000D01*
G01*
G37*
G36*
G01*
X96095500Y-125259000D02*
X96095500Y-124709000D01*
G75*
G02*
X96295500Y-124509000I200000J0D01*
G01*
X96695500Y-124509000D01*
G75*
G02*
X96895500Y-124709000I0J-200000D01*
G01*
X96895500Y-125259000D01*
G75*
G02*
X96695500Y-125459000I-200000J0D01*
G01*
X96295500Y-125459000D01*
G75*
G02*
X96095500Y-125259000I0J200000D01*
G01*
G37*
%TD*%
D10*
%TO.C,Q1*%
X94848000Y-126540000D03*
X96748000Y-126540000D03*
X95798000Y-128540000D03*
%TD*%
%TO.C,C10*%
G36*
G01*
X98116000Y-122821000D02*
X98116000Y-122321000D01*
G75*
G02*
X98341000Y-122096000I225000J0D01*
G01*
X98791000Y-122096000D01*
G75*
G02*
X99016000Y-122321000I0J-225000D01*
G01*
X99016000Y-122821000D01*
G75*
G02*
X98791000Y-123046000I-225000J0D01*
G01*
X98341000Y-123046000D01*
G75*
G02*
X98116000Y-122821000I0J225000D01*
G01*
G37*
G36*
G01*
X99666000Y-122821000D02*
X99666000Y-122321000D01*
G75*
G02*
X99891000Y-122096000I225000J0D01*
G01*
X100341000Y-122096000D01*
G75*
G02*
X100566000Y-122321000I0J-225000D01*
G01*
X100566000Y-122821000D01*
G75*
G02*
X100341000Y-123046000I-225000J0D01*
G01*
X99891000Y-123046000D01*
G75*
G02*
X99666000Y-122821000I0J225000D01*
G01*
G37*
%TD*%
%TO.C,C9*%
G36*
G01*
X98116000Y-121170000D02*
X98116000Y-120670000D01*
G75*
G02*
X98341000Y-120445000I225000J0D01*
G01*
X98791000Y-120445000D01*
G75*
G02*
X99016000Y-120670000I0J-225000D01*
G01*
X99016000Y-121170000D01*
G75*
G02*
X98791000Y-121395000I-225000J0D01*
G01*
X98341000Y-121395000D01*
G75*
G02*
X98116000Y-121170000I0J225000D01*
G01*
G37*
G36*
G01*
X99666000Y-121170000D02*
X99666000Y-120670000D01*
G75*
G02*
X99891000Y-120445000I225000J0D01*
G01*
X100341000Y-120445000D01*
G75*
G02*
X100566000Y-120670000I0J-225000D01*
G01*
X100566000Y-121170000D01*
G75*
G02*
X100341000Y-121395000I-225000J0D01*
G01*
X99891000Y-121395000D01*
G75*
G02*
X99666000Y-121170000I0J225000D01*
G01*
G37*
%TD*%
%TO.C,C6*%
G36*
G01*
X91308000Y-121051000D02*
X91308000Y-121551000D01*
G75*
G02*
X91083000Y-121776000I-225000J0D01*
G01*
X90633000Y-121776000D01*
G75*
G02*
X90408000Y-121551000I0J225000D01*
G01*
X90408000Y-121051000D01*
G75*
G02*
X90633000Y-120826000I225000J0D01*
G01*
X91083000Y-120826000D01*
G75*
G02*
X91308000Y-121051000I0J-225000D01*
G01*
G37*
G36*
G01*
X89758000Y-121051000D02*
X89758000Y-121551000D01*
G75*
G02*
X89533000Y-121776000I-225000J0D01*
G01*
X89083000Y-121776000D01*
G75*
G02*
X88858000Y-121551000I0J225000D01*
G01*
X88858000Y-121051000D01*
G75*
G02*
X89083000Y-120826000I225000J0D01*
G01*
X89533000Y-120826000D01*
G75*
G02*
X89758000Y-121051000I0J-225000D01*
G01*
G37*
%TD*%
%TO.C,C5*%
G36*
G01*
X91295000Y-122702000D02*
X91295000Y-123202000D01*
G75*
G02*
X91070000Y-123427000I-225000J0D01*
G01*
X90620000Y-123427000D01*
G75*
G02*
X90395000Y-123202000I0J225000D01*
G01*
X90395000Y-122702000D01*
G75*
G02*
X90620000Y-122477000I225000J0D01*
G01*
X91070000Y-122477000D01*
G75*
G02*
X91295000Y-122702000I0J-225000D01*
G01*
G37*
G36*
G01*
X89745000Y-122702000D02*
X89745000Y-123202000D01*
G75*
G02*
X89520000Y-123427000I-225000J0D01*
G01*
X89070000Y-123427000D01*
G75*
G02*
X88845000Y-123202000I0J225000D01*
G01*
X88845000Y-122702000D01*
G75*
G02*
X89070000Y-122477000I225000J0D01*
G01*
X89520000Y-122477000D01*
G75*
G02*
X89745000Y-122702000I0J-225000D01*
G01*
G37*
%TD*%
%TO.C,C4*%
G36*
G01*
X91919000Y-121170000D02*
X91919000Y-120670000D01*
G75*
G02*
X92144000Y-120445000I225000J0D01*
G01*
X92594000Y-120445000D01*
G75*
G02*
X92819000Y-120670000I0J-225000D01*
G01*
X92819000Y-121170000D01*
G75*
G02*
X92594000Y-121395000I-225000J0D01*
G01*
X92144000Y-121395000D01*
G75*
G02*
X91919000Y-121170000I0J225000D01*
G01*
G37*
G36*
G01*
X93469000Y-121170000D02*
X93469000Y-120670000D01*
G75*
G02*
X93694000Y-120445000I225000J0D01*
G01*
X94144000Y-120445000D01*
G75*
G02*
X94369000Y-120670000I0J-225000D01*
G01*
X94369000Y-121170000D01*
G75*
G02*
X94144000Y-121395000I-225000J0D01*
G01*
X93694000Y-121395000D01*
G75*
G02*
X93469000Y-121170000I0J225000D01*
G01*
G37*
%TD*%
%TO.C,C3*%
G36*
G01*
X91295000Y-127020000D02*
X91295000Y-127520000D01*
G75*
G02*
X91070000Y-127745000I-225000J0D01*
G01*
X90620000Y-127745000D01*
G75*
G02*
X90395000Y-127520000I0J225000D01*
G01*
X90395000Y-127020000D01*
G75*
G02*
X90620000Y-126795000I225000J0D01*
G01*
X91070000Y-126795000D01*
G75*
G02*
X91295000Y-127020000I0J-225000D01*
G01*
G37*
G36*
G01*
X89745000Y-127020000D02*
X89745000Y-127520000D01*
G75*
G02*
X89520000Y-127745000I-225000J0D01*
G01*
X89070000Y-127745000D01*
G75*
G02*
X88845000Y-127520000I0J225000D01*
G01*
X88845000Y-127020000D01*
G75*
G02*
X89070000Y-126795000I225000J0D01*
G01*
X89520000Y-126795000D01*
G75*
G02*
X89745000Y-127020000I0J-225000D01*
G01*
G37*
%TD*%
%TO.C,C2*%
G36*
G01*
X91919000Y-122821000D02*
X91919000Y-122321000D01*
G75*
G02*
X92144000Y-122096000I225000J0D01*
G01*
X92594000Y-122096000D01*
G75*
G02*
X92819000Y-122321000I0J-225000D01*
G01*
X92819000Y-122821000D01*
G75*
G02*
X92594000Y-123046000I-225000J0D01*
G01*
X92144000Y-123046000D01*
G75*
G02*
X91919000Y-122821000I0J225000D01*
G01*
G37*
G36*
G01*
X93469000Y-122821000D02*
X93469000Y-122321000D01*
G75*
G02*
X93694000Y-122096000I225000J0D01*
G01*
X94144000Y-122096000D01*
G75*
G02*
X94369000Y-122321000I0J-225000D01*
G01*
X94369000Y-122821000D01*
G75*
G02*
X94144000Y-123046000I-225000J0D01*
G01*
X93694000Y-123046000D01*
G75*
G02*
X93469000Y-122821000I0J225000D01*
G01*
G37*
%TD*%
%TO.C,C1*%
G36*
G01*
X91295000Y-128671000D02*
X91295000Y-129171000D01*
G75*
G02*
X91070000Y-129396000I-225000J0D01*
G01*
X90620000Y-129396000D01*
G75*
G02*
X90395000Y-129171000I0J225000D01*
G01*
X90395000Y-128671000D01*
G75*
G02*
X90620000Y-128446000I225000J0D01*
G01*
X91070000Y-128446000D01*
G75*
G02*
X91295000Y-128671000I0J-225000D01*
G01*
G37*
G36*
G01*
X89745000Y-128671000D02*
X89745000Y-129171000D01*
G75*
G02*
X89520000Y-129396000I-225000J0D01*
G01*
X89070000Y-129396000D01*
G75*
G02*
X88845000Y-129171000I0J225000D01*
G01*
X88845000Y-128671000D01*
G75*
G02*
X89070000Y-128446000I225000J0D01*
G01*
X89520000Y-128446000D01*
G75*
G02*
X89745000Y-128671000I0J-225000D01*
G01*
G37*
%TD*%
%TO.C,C1*%
G36*
G01*
X47945000Y-128671000D02*
X47945000Y-129171000D01*
G75*
G02*
X47720000Y-129396000I-225000J0D01*
G01*
X47270000Y-129396000D01*
G75*
G02*
X47045000Y-129171000I0J225000D01*
G01*
X47045000Y-128671000D01*
G75*
G02*
X47270000Y-128446000I225000J0D01*
G01*
X47720000Y-128446000D01*
G75*
G02*
X47945000Y-128671000I0J-225000D01*
G01*
G37*
G36*
G01*
X46395000Y-128671000D02*
X46395000Y-129171000D01*
G75*
G02*
X46170000Y-129396000I-225000J0D01*
G01*
X45720000Y-129396000D01*
G75*
G02*
X45495000Y-129171000I0J225000D01*
G01*
X45495000Y-128671000D01*
G75*
G02*
X45720000Y-128446000I225000J0D01*
G01*
X46170000Y-128446000D01*
G75*
G02*
X46395000Y-128671000I0J-225000D01*
G01*
G37*
%TD*%
%TO.C,C2*%
G36*
G01*
X48569000Y-122821000D02*
X48569000Y-122321000D01*
G75*
G02*
X48794000Y-122096000I225000J0D01*
G01*
X49244000Y-122096000D01*
G75*
G02*
X49469000Y-122321000I0J-225000D01*
G01*
X49469000Y-122821000D01*
G75*
G02*
X49244000Y-123046000I-225000J0D01*
G01*
X48794000Y-123046000D01*
G75*
G02*
X48569000Y-122821000I0J225000D01*
G01*
G37*
G36*
G01*
X50119000Y-122821000D02*
X50119000Y-122321000D01*
G75*
G02*
X50344000Y-122096000I225000J0D01*
G01*
X50794000Y-122096000D01*
G75*
G02*
X51019000Y-122321000I0J-225000D01*
G01*
X51019000Y-122821000D01*
G75*
G02*
X50794000Y-123046000I-225000J0D01*
G01*
X50344000Y-123046000D01*
G75*
G02*
X50119000Y-122821000I0J225000D01*
G01*
G37*
%TD*%
%TO.C,C3*%
G36*
G01*
X47945000Y-127020000D02*
X47945000Y-127520000D01*
G75*
G02*
X47720000Y-127745000I-225000J0D01*
G01*
X47270000Y-127745000D01*
G75*
G02*
X47045000Y-127520000I0J225000D01*
G01*
X47045000Y-127020000D01*
G75*
G02*
X47270000Y-126795000I225000J0D01*
G01*
X47720000Y-126795000D01*
G75*
G02*
X47945000Y-127020000I0J-225000D01*
G01*
G37*
G36*
G01*
X46395000Y-127020000D02*
X46395000Y-127520000D01*
G75*
G02*
X46170000Y-127745000I-225000J0D01*
G01*
X45720000Y-127745000D01*
G75*
G02*
X45495000Y-127520000I0J225000D01*
G01*
X45495000Y-127020000D01*
G75*
G02*
X45720000Y-126795000I225000J0D01*
G01*
X46170000Y-126795000D01*
G75*
G02*
X46395000Y-127020000I0J-225000D01*
G01*
G37*
%TD*%
%TO.C,C4*%
G36*
G01*
X48569000Y-121170000D02*
X48569000Y-120670000D01*
G75*
G02*
X48794000Y-120445000I225000J0D01*
G01*
X49244000Y-120445000D01*
G75*
G02*
X49469000Y-120670000I0J-225000D01*
G01*
X49469000Y-121170000D01*
G75*
G02*
X49244000Y-121395000I-225000J0D01*
G01*
X48794000Y-121395000D01*
G75*
G02*
X48569000Y-121170000I0J225000D01*
G01*
G37*
G36*
G01*
X50119000Y-121170000D02*
X50119000Y-120670000D01*
G75*
G02*
X50344000Y-120445000I225000J0D01*
G01*
X50794000Y-120445000D01*
G75*
G02*
X51019000Y-120670000I0J-225000D01*
G01*
X51019000Y-121170000D01*
G75*
G02*
X50794000Y-121395000I-225000J0D01*
G01*
X50344000Y-121395000D01*
G75*
G02*
X50119000Y-121170000I0J225000D01*
G01*
G37*
%TD*%
%TO.C,C5*%
G36*
G01*
X47945000Y-122702000D02*
X47945000Y-123202000D01*
G75*
G02*
X47720000Y-123427000I-225000J0D01*
G01*
X47270000Y-123427000D01*
G75*
G02*
X47045000Y-123202000I0J225000D01*
G01*
X47045000Y-122702000D01*
G75*
G02*
X47270000Y-122477000I225000J0D01*
G01*
X47720000Y-122477000D01*
G75*
G02*
X47945000Y-122702000I0J-225000D01*
G01*
G37*
G36*
G01*
X46395000Y-122702000D02*
X46395000Y-123202000D01*
G75*
G02*
X46170000Y-123427000I-225000J0D01*
G01*
X45720000Y-123427000D01*
G75*
G02*
X45495000Y-123202000I0J225000D01*
G01*
X45495000Y-122702000D01*
G75*
G02*
X45720000Y-122477000I225000J0D01*
G01*
X46170000Y-122477000D01*
G75*
G02*
X46395000Y-122702000I0J-225000D01*
G01*
G37*
%TD*%
%TO.C,C6*%
G36*
G01*
X47958000Y-121051000D02*
X47958000Y-121551000D01*
G75*
G02*
X47733000Y-121776000I-225000J0D01*
G01*
X47283000Y-121776000D01*
G75*
G02*
X47058000Y-121551000I0J225000D01*
G01*
X47058000Y-121051000D01*
G75*
G02*
X47283000Y-120826000I225000J0D01*
G01*
X47733000Y-120826000D01*
G75*
G02*
X47958000Y-121051000I0J-225000D01*
G01*
G37*
G36*
G01*
X46408000Y-121051000D02*
X46408000Y-121551000D01*
G75*
G02*
X46183000Y-121776000I-225000J0D01*
G01*
X45733000Y-121776000D01*
G75*
G02*
X45508000Y-121551000I0J225000D01*
G01*
X45508000Y-121051000D01*
G75*
G02*
X45733000Y-120826000I225000J0D01*
G01*
X46183000Y-120826000D01*
G75*
G02*
X46408000Y-121051000I0J-225000D01*
G01*
G37*
%TD*%
%TO.C,C9*%
G36*
G01*
X54766000Y-121170000D02*
X54766000Y-120670000D01*
G75*
G02*
X54991000Y-120445000I225000J0D01*
G01*
X55441000Y-120445000D01*
G75*
G02*
X55666000Y-120670000I0J-225000D01*
G01*
X55666000Y-121170000D01*
G75*
G02*
X55441000Y-121395000I-225000J0D01*
G01*
X54991000Y-121395000D01*
G75*
G02*
X54766000Y-121170000I0J225000D01*
G01*
G37*
G36*
G01*
X56316000Y-121170000D02*
X56316000Y-120670000D01*
G75*
G02*
X56541000Y-120445000I225000J0D01*
G01*
X56991000Y-120445000D01*
G75*
G02*
X57216000Y-120670000I0J-225000D01*
G01*
X57216000Y-121170000D01*
G75*
G02*
X56991000Y-121395000I-225000J0D01*
G01*
X56541000Y-121395000D01*
G75*
G02*
X56316000Y-121170000I0J225000D01*
G01*
G37*
%TD*%
M02*
