%TF.GenerationSoftware,KiCad,Pcbnew,(5.1.10)-1*%
%TF.CreationDate,2022-01-20T20:18:56+07:00*%
%TF.ProjectId,PCB_4x_pnlz1_3,5043425f-3478-45f7-906e-6c7a315f332e,rev?*%
%TF.SameCoordinates,Original*%
%TF.FileFunction,Copper,L4,Bot*%
%TF.FilePolarity,Positive*%
%FSLAX46Y46*%
G04 Gerber Fmt 4.6, Leading zero omitted, Abs format (unit mm)*
G04 Created by KiCad (PCBNEW (5.1.10)-1) date 2022-01-20 20:18:56*
%MOMM*%
%LPD*%
G01*
G04 APERTURE LIST*
%TA.AperFunction,NonConductor*%
%ADD10C,0.300000*%
%TD*%
%TA.AperFunction,SMDPad,CuDef*%
%ADD11R,0.800000X0.900000*%
%TD*%
%TA.AperFunction,ComponentPad*%
%ADD12R,1.000000X1.000000*%
%TD*%
%TA.AperFunction,ComponentPad*%
%ADD13O,1.000000X1.000000*%
%TD*%
%TA.AperFunction,ComponentPad*%
%ADD14C,1.000000*%
%TD*%
%TA.AperFunction,ComponentPad*%
%ADD15C,1.600000*%
%TD*%
%TA.AperFunction,ComponentPad*%
%ADD16R,1.600000X1.600000*%
%TD*%
%TA.AperFunction,ComponentPad*%
%ADD17R,2.400000X1.700000*%
%TD*%
%TA.AperFunction,ComponentPad*%
%ADD18O,2.400000X1.700000*%
%TD*%
%TA.AperFunction,ComponentPad*%
%ADD19O,1.700000X1.700000*%
%TD*%
%TA.AperFunction,ComponentPad*%
%ADD20R,1.900000X2.700000*%
%TD*%
%TA.AperFunction,ComponentPad*%
%ADD21C,1.500000*%
%TD*%
%TA.AperFunction,ComponentPad*%
%ADD22O,1.600000X1.600000*%
%TD*%
%TA.AperFunction,ComponentPad*%
%ADD23C,2.000000*%
%TD*%
%TA.AperFunction,SMDPad,CuDef*%
%ADD24R,0.400000X3.200000*%
%TD*%
%TA.AperFunction,SMDPad,CuDef*%
%ADD25R,0.400000X1.000000*%
%TD*%
%TA.AperFunction,ComponentPad*%
%ADD26C,1.800000*%
%TD*%
%TA.AperFunction,ComponentPad*%
%ADD27R,1.800000X1.800000*%
%TD*%
%TA.AperFunction,SMDPad,CuDef*%
%ADD28R,1.800000X1.500000*%
%TD*%
%TA.AperFunction,SMDPad,CuDef*%
%ADD29R,0.900000X0.800000*%
%TD*%
%TA.AperFunction,ComponentPad*%
%ADD30R,1.700000X1.700000*%
%TD*%
%TA.AperFunction,ComponentPad*%
%ADD31O,1.750000X2.250000*%
%TD*%
%TA.AperFunction,ComponentPad*%
%ADD32R,1.750000X2.250000*%
%TD*%
%TA.AperFunction,SMDPad,CuDef*%
%ADD33R,0.600000X0.450000*%
%TD*%
%TA.AperFunction,ViaPad*%
%ADD34C,0.800000*%
%TD*%
%TA.AperFunction,ViaPad*%
%ADD35C,1.200000*%
%TD*%
%TA.AperFunction,ViaPad*%
%ADD36C,1.000000*%
%TD*%
%TA.AperFunction,ViaPad*%
%ADD37C,1.100000*%
%TD*%
%TA.AperFunction,Conductor*%
%ADD38C,1.000000*%
%TD*%
%TA.AperFunction,Conductor*%
%ADD39C,0.800000*%
%TD*%
%TA.AperFunction,Conductor*%
%ADD40C,0.400000*%
%TD*%
%TA.AperFunction,Conductor*%
%ADD41C,0.300000*%
%TD*%
%TA.AperFunction,Conductor*%
%ADD42C,1.400000*%
%TD*%
%TA.AperFunction,Conductor*%
%ADD43C,0.250000*%
%TD*%
%TA.AperFunction,Conductor*%
%ADD44C,0.600000*%
%TD*%
%TA.AperFunction,Conductor*%
%ADD45C,2.000000*%
%TD*%
%TA.AperFunction,Conductor*%
%ADD46C,0.500000*%
%TD*%
G04 APERTURE END LIST*
D10*
X90651428Y-76300571D02*
X90294285Y-77300571D01*
X89937142Y-76300571D01*
X89508571Y-75800571D02*
X88580000Y-75800571D01*
X89080000Y-76372000D01*
X88865714Y-76372000D01*
X88722857Y-76443428D01*
X88651428Y-76514857D01*
X88580000Y-76657714D01*
X88580000Y-77014857D01*
X88651428Y-77157714D01*
X88722857Y-77229142D01*
X88865714Y-77300571D01*
X89294285Y-77300571D01*
X89437142Y-77229142D01*
X89508571Y-77157714D01*
X62457428Y-80210571D02*
X62100285Y-81210571D01*
X61743142Y-80210571D01*
X61314571Y-79710571D02*
X60386000Y-79710571D01*
X60886000Y-80282000D01*
X60671714Y-80282000D01*
X60528857Y-80353428D01*
X60457428Y-80424857D01*
X60386000Y-80567714D01*
X60386000Y-80924857D01*
X60457428Y-81067714D01*
X60528857Y-81139142D01*
X60671714Y-81210571D01*
X61100285Y-81210571D01*
X61243142Y-81139142D01*
X61314571Y-81067714D01*
%TO.P,C1,1*%
%TO.N,GND*%
%TA.AperFunction,SMDPad,CuDef*%
G36*
G01*
X107791000Y-109919000D02*
X107791000Y-110419000D01*
G75*
G02*
X107566000Y-110644000I-225000J0D01*
G01*
X107116000Y-110644000D01*
G75*
G02*
X106891000Y-110419000I0J225000D01*
G01*
X106891000Y-109919000D01*
G75*
G02*
X107116000Y-109694000I225000J0D01*
G01*
X107566000Y-109694000D01*
G75*
G02*
X107791000Y-109919000I0J-225000D01*
G01*
G37*
%TD.AperFunction*%
%TO.P,C1,2*%
%TO.N,VCC*%
%TA.AperFunction,SMDPad,CuDef*%
G36*
G01*
X106241000Y-109919000D02*
X106241000Y-110419000D01*
G75*
G02*
X106016000Y-110644000I-225000J0D01*
G01*
X105566000Y-110644000D01*
G75*
G02*
X105341000Y-110419000I0J225000D01*
G01*
X105341000Y-109919000D01*
G75*
G02*
X105566000Y-109694000I225000J0D01*
G01*
X106016000Y-109694000D01*
G75*
G02*
X106241000Y-109919000I0J-225000D01*
G01*
G37*
%TD.AperFunction*%
%TD*%
%TO.P,C1,1*%
%TO.N,GND*%
%TA.AperFunction,SMDPad,CuDef*%
G36*
G01*
X95291000Y-109919000D02*
X95291000Y-110419000D01*
G75*
G02*
X95066000Y-110644000I-225000J0D01*
G01*
X94616000Y-110644000D01*
G75*
G02*
X94391000Y-110419000I0J225000D01*
G01*
X94391000Y-109919000D01*
G75*
G02*
X94616000Y-109694000I225000J0D01*
G01*
X95066000Y-109694000D01*
G75*
G02*
X95291000Y-109919000I0J-225000D01*
G01*
G37*
%TD.AperFunction*%
%TO.P,C1,2*%
%TO.N,VCC*%
%TA.AperFunction,SMDPad,CuDef*%
G36*
G01*
X93741000Y-109919000D02*
X93741000Y-110419000D01*
G75*
G02*
X93516000Y-110644000I-225000J0D01*
G01*
X93066000Y-110644000D01*
G75*
G02*
X92841000Y-110419000I0J225000D01*
G01*
X92841000Y-109919000D01*
G75*
G02*
X93066000Y-109694000I225000J0D01*
G01*
X93516000Y-109694000D01*
G75*
G02*
X93741000Y-109919000I0J-225000D01*
G01*
G37*
%TD.AperFunction*%
%TD*%
%TO.P,C1,1*%
%TO.N,GND*%
%TA.AperFunction,SMDPad,CuDef*%
G36*
G01*
X82791000Y-109919000D02*
X82791000Y-110419000D01*
G75*
G02*
X82566000Y-110644000I-225000J0D01*
G01*
X82116000Y-110644000D01*
G75*
G02*
X81891000Y-110419000I0J225000D01*
G01*
X81891000Y-109919000D01*
G75*
G02*
X82116000Y-109694000I225000J0D01*
G01*
X82566000Y-109694000D01*
G75*
G02*
X82791000Y-109919000I0J-225000D01*
G01*
G37*
%TD.AperFunction*%
%TO.P,C1,2*%
%TO.N,VCC*%
%TA.AperFunction,SMDPad,CuDef*%
G36*
G01*
X81241000Y-109919000D02*
X81241000Y-110419000D01*
G75*
G02*
X81016000Y-110644000I-225000J0D01*
G01*
X80566000Y-110644000D01*
G75*
G02*
X80341000Y-110419000I0J225000D01*
G01*
X80341000Y-109919000D01*
G75*
G02*
X80566000Y-109694000I225000J0D01*
G01*
X81016000Y-109694000D01*
G75*
G02*
X81241000Y-109919000I0J-225000D01*
G01*
G37*
%TD.AperFunction*%
%TD*%
%TO.P,C2,1*%
%TO.N,GND*%
%TA.AperFunction,SMDPad,CuDef*%
G36*
G01*
X107791000Y-111443000D02*
X107791000Y-111943000D01*
G75*
G02*
X107566000Y-112168000I-225000J0D01*
G01*
X107116000Y-112168000D01*
G75*
G02*
X106891000Y-111943000I0J225000D01*
G01*
X106891000Y-111443000D01*
G75*
G02*
X107116000Y-111218000I225000J0D01*
G01*
X107566000Y-111218000D01*
G75*
G02*
X107791000Y-111443000I0J-225000D01*
G01*
G37*
%TD.AperFunction*%
%TO.P,C2,2*%
%TO.N,VCC*%
%TA.AperFunction,SMDPad,CuDef*%
G36*
G01*
X106241000Y-111443000D02*
X106241000Y-111943000D01*
G75*
G02*
X106016000Y-112168000I-225000J0D01*
G01*
X105566000Y-112168000D01*
G75*
G02*
X105341000Y-111943000I0J225000D01*
G01*
X105341000Y-111443000D01*
G75*
G02*
X105566000Y-111218000I225000J0D01*
G01*
X106016000Y-111218000D01*
G75*
G02*
X106241000Y-111443000I0J-225000D01*
G01*
G37*
%TD.AperFunction*%
%TD*%
%TO.P,C2,1*%
%TO.N,GND*%
%TA.AperFunction,SMDPad,CuDef*%
G36*
G01*
X95291000Y-111443000D02*
X95291000Y-111943000D01*
G75*
G02*
X95066000Y-112168000I-225000J0D01*
G01*
X94616000Y-112168000D01*
G75*
G02*
X94391000Y-111943000I0J225000D01*
G01*
X94391000Y-111443000D01*
G75*
G02*
X94616000Y-111218000I225000J0D01*
G01*
X95066000Y-111218000D01*
G75*
G02*
X95291000Y-111443000I0J-225000D01*
G01*
G37*
%TD.AperFunction*%
%TO.P,C2,2*%
%TO.N,VCC*%
%TA.AperFunction,SMDPad,CuDef*%
G36*
G01*
X93741000Y-111443000D02*
X93741000Y-111943000D01*
G75*
G02*
X93516000Y-112168000I-225000J0D01*
G01*
X93066000Y-112168000D01*
G75*
G02*
X92841000Y-111943000I0J225000D01*
G01*
X92841000Y-111443000D01*
G75*
G02*
X93066000Y-111218000I225000J0D01*
G01*
X93516000Y-111218000D01*
G75*
G02*
X93741000Y-111443000I0J-225000D01*
G01*
G37*
%TD.AperFunction*%
%TD*%
%TO.P,C2,1*%
%TO.N,GND*%
%TA.AperFunction,SMDPad,CuDef*%
G36*
G01*
X82791000Y-111443000D02*
X82791000Y-111943000D01*
G75*
G02*
X82566000Y-112168000I-225000J0D01*
G01*
X82116000Y-112168000D01*
G75*
G02*
X81891000Y-111943000I0J225000D01*
G01*
X81891000Y-111443000D01*
G75*
G02*
X82116000Y-111218000I225000J0D01*
G01*
X82566000Y-111218000D01*
G75*
G02*
X82791000Y-111443000I0J-225000D01*
G01*
G37*
%TD.AperFunction*%
%TO.P,C2,2*%
%TO.N,VCC*%
%TA.AperFunction,SMDPad,CuDef*%
G36*
G01*
X81241000Y-111443000D02*
X81241000Y-111943000D01*
G75*
G02*
X81016000Y-112168000I-225000J0D01*
G01*
X80566000Y-112168000D01*
G75*
G02*
X80341000Y-111943000I0J225000D01*
G01*
X80341000Y-111443000D01*
G75*
G02*
X80566000Y-111218000I225000J0D01*
G01*
X81016000Y-111218000D01*
G75*
G02*
X81241000Y-111443000I0J-225000D01*
G01*
G37*
%TD.AperFunction*%
%TD*%
%TO.P,C4,1*%
%TO.N,GND2*%
%TA.AperFunction,SMDPad,CuDef*%
G36*
G01*
X107791000Y-121857000D02*
X107791000Y-122357000D01*
G75*
G02*
X107566000Y-122582000I-225000J0D01*
G01*
X107116000Y-122582000D01*
G75*
G02*
X106891000Y-122357000I0J225000D01*
G01*
X106891000Y-121857000D01*
G75*
G02*
X107116000Y-121632000I225000J0D01*
G01*
X107566000Y-121632000D01*
G75*
G02*
X107791000Y-121857000I0J-225000D01*
G01*
G37*
%TD.AperFunction*%
%TO.P,C4,2*%
%TO.N,VCCQ*%
%TA.AperFunction,SMDPad,CuDef*%
G36*
G01*
X106241000Y-121857000D02*
X106241000Y-122357000D01*
G75*
G02*
X106016000Y-122582000I-225000J0D01*
G01*
X105566000Y-122582000D01*
G75*
G02*
X105341000Y-122357000I0J225000D01*
G01*
X105341000Y-121857000D01*
G75*
G02*
X105566000Y-121632000I225000J0D01*
G01*
X106016000Y-121632000D01*
G75*
G02*
X106241000Y-121857000I0J-225000D01*
G01*
G37*
%TD.AperFunction*%
%TD*%
%TO.P,C4,1*%
%TO.N,GND2*%
%TA.AperFunction,SMDPad,CuDef*%
G36*
G01*
X95291000Y-121857000D02*
X95291000Y-122357000D01*
G75*
G02*
X95066000Y-122582000I-225000J0D01*
G01*
X94616000Y-122582000D01*
G75*
G02*
X94391000Y-122357000I0J225000D01*
G01*
X94391000Y-121857000D01*
G75*
G02*
X94616000Y-121632000I225000J0D01*
G01*
X95066000Y-121632000D01*
G75*
G02*
X95291000Y-121857000I0J-225000D01*
G01*
G37*
%TD.AperFunction*%
%TO.P,C4,2*%
%TO.N,VCCQ*%
%TA.AperFunction,SMDPad,CuDef*%
G36*
G01*
X93741000Y-121857000D02*
X93741000Y-122357000D01*
G75*
G02*
X93516000Y-122582000I-225000J0D01*
G01*
X93066000Y-122582000D01*
G75*
G02*
X92841000Y-122357000I0J225000D01*
G01*
X92841000Y-121857000D01*
G75*
G02*
X93066000Y-121632000I225000J0D01*
G01*
X93516000Y-121632000D01*
G75*
G02*
X93741000Y-121857000I0J-225000D01*
G01*
G37*
%TD.AperFunction*%
%TD*%
%TO.P,C4,1*%
%TO.N,GND2*%
%TA.AperFunction,SMDPad,CuDef*%
G36*
G01*
X82791000Y-121857000D02*
X82791000Y-122357000D01*
G75*
G02*
X82566000Y-122582000I-225000J0D01*
G01*
X82116000Y-122582000D01*
G75*
G02*
X81891000Y-122357000I0J225000D01*
G01*
X81891000Y-121857000D01*
G75*
G02*
X82116000Y-121632000I225000J0D01*
G01*
X82566000Y-121632000D01*
G75*
G02*
X82791000Y-121857000I0J-225000D01*
G01*
G37*
%TD.AperFunction*%
%TO.P,C4,2*%
%TO.N,VCCQ*%
%TA.AperFunction,SMDPad,CuDef*%
G36*
G01*
X81241000Y-121857000D02*
X81241000Y-122357000D01*
G75*
G02*
X81016000Y-122582000I-225000J0D01*
G01*
X80566000Y-122582000D01*
G75*
G02*
X80341000Y-122357000I0J225000D01*
G01*
X80341000Y-121857000D01*
G75*
G02*
X80566000Y-121632000I225000J0D01*
G01*
X81016000Y-121632000D01*
G75*
G02*
X81241000Y-121857000I0J-225000D01*
G01*
G37*
%TD.AperFunction*%
%TD*%
%TO.P,C6,1*%
%TO.N,GND2*%
%TA.AperFunction,SMDPad,CuDef*%
G36*
G01*
X107804000Y-123381000D02*
X107804000Y-123881000D01*
G75*
G02*
X107579000Y-124106000I-225000J0D01*
G01*
X107129000Y-124106000D01*
G75*
G02*
X106904000Y-123881000I0J225000D01*
G01*
X106904000Y-123381000D01*
G75*
G02*
X107129000Y-123156000I225000J0D01*
G01*
X107579000Y-123156000D01*
G75*
G02*
X107804000Y-123381000I0J-225000D01*
G01*
G37*
%TD.AperFunction*%
%TO.P,C6,2*%
%TO.N,VCCQ*%
%TA.AperFunction,SMDPad,CuDef*%
G36*
G01*
X106254000Y-123381000D02*
X106254000Y-123881000D01*
G75*
G02*
X106029000Y-124106000I-225000J0D01*
G01*
X105579000Y-124106000D01*
G75*
G02*
X105354000Y-123881000I0J225000D01*
G01*
X105354000Y-123381000D01*
G75*
G02*
X105579000Y-123156000I225000J0D01*
G01*
X106029000Y-123156000D01*
G75*
G02*
X106254000Y-123381000I0J-225000D01*
G01*
G37*
%TD.AperFunction*%
%TD*%
%TO.P,C6,1*%
%TO.N,GND2*%
%TA.AperFunction,SMDPad,CuDef*%
G36*
G01*
X95304000Y-123381000D02*
X95304000Y-123881000D01*
G75*
G02*
X95079000Y-124106000I-225000J0D01*
G01*
X94629000Y-124106000D01*
G75*
G02*
X94404000Y-123881000I0J225000D01*
G01*
X94404000Y-123381000D01*
G75*
G02*
X94629000Y-123156000I225000J0D01*
G01*
X95079000Y-123156000D01*
G75*
G02*
X95304000Y-123381000I0J-225000D01*
G01*
G37*
%TD.AperFunction*%
%TO.P,C6,2*%
%TO.N,VCCQ*%
%TA.AperFunction,SMDPad,CuDef*%
G36*
G01*
X93754000Y-123381000D02*
X93754000Y-123881000D01*
G75*
G02*
X93529000Y-124106000I-225000J0D01*
G01*
X93079000Y-124106000D01*
G75*
G02*
X92854000Y-123881000I0J225000D01*
G01*
X92854000Y-123381000D01*
G75*
G02*
X93079000Y-123156000I225000J0D01*
G01*
X93529000Y-123156000D01*
G75*
G02*
X93754000Y-123381000I0J-225000D01*
G01*
G37*
%TD.AperFunction*%
%TD*%
%TO.P,C6,1*%
%TO.N,GND2*%
%TA.AperFunction,SMDPad,CuDef*%
G36*
G01*
X82804000Y-123381000D02*
X82804000Y-123881000D01*
G75*
G02*
X82579000Y-124106000I-225000J0D01*
G01*
X82129000Y-124106000D01*
G75*
G02*
X81904000Y-123881000I0J225000D01*
G01*
X81904000Y-123381000D01*
G75*
G02*
X82129000Y-123156000I225000J0D01*
G01*
X82579000Y-123156000D01*
G75*
G02*
X82804000Y-123381000I0J-225000D01*
G01*
G37*
%TD.AperFunction*%
%TO.P,C6,2*%
%TO.N,VCCQ*%
%TA.AperFunction,SMDPad,CuDef*%
G36*
G01*
X81254000Y-123381000D02*
X81254000Y-123881000D01*
G75*
G02*
X81029000Y-124106000I-225000J0D01*
G01*
X80579000Y-124106000D01*
G75*
G02*
X80354000Y-123881000I0J225000D01*
G01*
X80354000Y-123381000D01*
G75*
G02*
X80579000Y-123156000I225000J0D01*
G01*
X81029000Y-123156000D01*
G75*
G02*
X81254000Y-123381000I0J-225000D01*
G01*
G37*
%TD.AperFunction*%
%TD*%
D11*
%TO.P,Q1,1*%
%TO.N,VCC*%
X99472000Y-112963000D03*
%TO.P,Q1,2*%
%TO.N,Net-(Q1-Pad2)*%
X101372000Y-112963000D03*
%TO.P,Q1,3*%
%TO.N,/SDA*%
X100422000Y-114963000D03*
%TD*%
%TO.P,Q1,1*%
%TO.N,VCC*%
X86972000Y-112963000D03*
%TO.P,Q1,2*%
%TO.N,Net-(Q1-Pad2)*%
X88872000Y-112963000D03*
%TO.P,Q1,3*%
%TO.N,/SDA*%
X87922000Y-114963000D03*
%TD*%
%TO.P,Q1,1*%
%TO.N,VCC*%
X74472000Y-112963000D03*
%TO.P,Q1,2*%
%TO.N,Net-(Q1-Pad2)*%
X76372000Y-112963000D03*
%TO.P,Q1,3*%
%TO.N,/SDA*%
X75422000Y-114963000D03*
%TD*%
%TO.P,Q4,1*%
%TO.N,VCC*%
X101372000Y-107375000D03*
%TO.P,Q4,2*%
%TO.N,Net-(Q4-Pad2)*%
X99472000Y-107375000D03*
%TO.P,Q4,3*%
%TO.N,/outb*%
X100422000Y-105375000D03*
%TD*%
%TO.P,Q4,1*%
%TO.N,VCC*%
X88872000Y-107375000D03*
%TO.P,Q4,2*%
%TO.N,Net-(Q4-Pad2)*%
X86972000Y-107375000D03*
%TO.P,Q4,3*%
%TO.N,/outb*%
X87922000Y-105375000D03*
%TD*%
%TO.P,Q4,1*%
%TO.N,VCC*%
X76372000Y-107375000D03*
%TO.P,Q4,2*%
%TO.N,Net-(Q4-Pad2)*%
X74472000Y-107375000D03*
%TO.P,Q4,3*%
%TO.N,/outb*%
X75422000Y-105375000D03*
%TD*%
%TO.P,Q6,1*%
%TO.N,VCCQ*%
X101433000Y-120837000D03*
%TO.P,Q6,2*%
%TO.N,Net-(Q6-Pad2)*%
X99533000Y-120837000D03*
%TO.P,Q6,3*%
%TO.N,/SCLq*%
X100483000Y-118837000D03*
%TD*%
%TO.P,Q6,1*%
%TO.N,VCCQ*%
X88933000Y-120837000D03*
%TO.P,Q6,2*%
%TO.N,Net-(Q6-Pad2)*%
X87033000Y-120837000D03*
%TO.P,Q6,3*%
%TO.N,/SCLq*%
X87983000Y-118837000D03*
%TD*%
%TO.P,Q6,1*%
%TO.N,VCCQ*%
X76433000Y-120837000D03*
%TO.P,Q6,2*%
%TO.N,Net-(Q6-Pad2)*%
X74533000Y-120837000D03*
%TO.P,Q6,3*%
%TO.N,/SCLq*%
X75483000Y-118837000D03*
%TD*%
%TO.P,Q8,1*%
%TO.N,VCCQ*%
X99533000Y-126425000D03*
%TO.P,Q8,2*%
%TO.N,Net-(Q8-Pad2)*%
X101433000Y-126425000D03*
%TO.P,Q8,3*%
%TO.N,/inb*%
X100483000Y-128425000D03*
%TD*%
%TO.P,Q8,1*%
%TO.N,VCCQ*%
X87033000Y-126425000D03*
%TO.P,Q8,2*%
%TO.N,Net-(Q8-Pad2)*%
X88933000Y-126425000D03*
%TO.P,Q8,3*%
%TO.N,/inb*%
X87983000Y-128425000D03*
%TD*%
%TO.P,Q8,1*%
%TO.N,VCCQ*%
X74533000Y-126425000D03*
%TO.P,Q8,2*%
%TO.N,Net-(Q8-Pad2)*%
X76433000Y-126425000D03*
%TO.P,Q8,3*%
%TO.N,/inb*%
X75483000Y-128425000D03*
%TD*%
%TO.P,R1,1*%
%TO.N,/SDA*%
%TA.AperFunction,SMDPad,CuDef*%
G36*
G01*
X98091000Y-115013000D02*
X97541000Y-115013000D01*
G75*
G02*
X97341000Y-114813000I0J200000D01*
G01*
X97341000Y-114413000D01*
G75*
G02*
X97541000Y-114213000I200000J0D01*
G01*
X98091000Y-114213000D01*
G75*
G02*
X98291000Y-114413000I0J-200000D01*
G01*
X98291000Y-114813000D01*
G75*
G02*
X98091000Y-115013000I-200000J0D01*
G01*
G37*
%TD.AperFunction*%
%TO.P,R1,2*%
%TO.N,VCC*%
%TA.AperFunction,SMDPad,CuDef*%
G36*
G01*
X98091000Y-113363000D02*
X97541000Y-113363000D01*
G75*
G02*
X97341000Y-113163000I0J200000D01*
G01*
X97341000Y-112763000D01*
G75*
G02*
X97541000Y-112563000I200000J0D01*
G01*
X98091000Y-112563000D01*
G75*
G02*
X98291000Y-112763000I0J-200000D01*
G01*
X98291000Y-113163000D01*
G75*
G02*
X98091000Y-113363000I-200000J0D01*
G01*
G37*
%TD.AperFunction*%
%TD*%
%TO.P,R1,1*%
%TO.N,/SDA*%
%TA.AperFunction,SMDPad,CuDef*%
G36*
G01*
X85591000Y-115013000D02*
X85041000Y-115013000D01*
G75*
G02*
X84841000Y-114813000I0J200000D01*
G01*
X84841000Y-114413000D01*
G75*
G02*
X85041000Y-114213000I200000J0D01*
G01*
X85591000Y-114213000D01*
G75*
G02*
X85791000Y-114413000I0J-200000D01*
G01*
X85791000Y-114813000D01*
G75*
G02*
X85591000Y-115013000I-200000J0D01*
G01*
G37*
%TD.AperFunction*%
%TO.P,R1,2*%
%TO.N,VCC*%
%TA.AperFunction,SMDPad,CuDef*%
G36*
G01*
X85591000Y-113363000D02*
X85041000Y-113363000D01*
G75*
G02*
X84841000Y-113163000I0J200000D01*
G01*
X84841000Y-112763000D01*
G75*
G02*
X85041000Y-112563000I200000J0D01*
G01*
X85591000Y-112563000D01*
G75*
G02*
X85791000Y-112763000I0J-200000D01*
G01*
X85791000Y-113163000D01*
G75*
G02*
X85591000Y-113363000I-200000J0D01*
G01*
G37*
%TD.AperFunction*%
%TD*%
%TO.P,R1,1*%
%TO.N,/SDA*%
%TA.AperFunction,SMDPad,CuDef*%
G36*
G01*
X73091000Y-115013000D02*
X72541000Y-115013000D01*
G75*
G02*
X72341000Y-114813000I0J200000D01*
G01*
X72341000Y-114413000D01*
G75*
G02*
X72541000Y-114213000I200000J0D01*
G01*
X73091000Y-114213000D01*
G75*
G02*
X73291000Y-114413000I0J-200000D01*
G01*
X73291000Y-114813000D01*
G75*
G02*
X73091000Y-115013000I-200000J0D01*
G01*
G37*
%TD.AperFunction*%
%TO.P,R1,2*%
%TO.N,VCC*%
%TA.AperFunction,SMDPad,CuDef*%
G36*
G01*
X73091000Y-113363000D02*
X72541000Y-113363000D01*
G75*
G02*
X72341000Y-113163000I0J200000D01*
G01*
X72341000Y-112763000D01*
G75*
G02*
X72541000Y-112563000I200000J0D01*
G01*
X73091000Y-112563000D01*
G75*
G02*
X73291000Y-112763000I0J-200000D01*
G01*
X73291000Y-113163000D01*
G75*
G02*
X73091000Y-113363000I-200000J0D01*
G01*
G37*
%TD.AperFunction*%
%TD*%
%TO.P,R4,1*%
%TO.N,/outb*%
%TA.AperFunction,SMDPad,CuDef*%
G36*
G01*
X102748000Y-105325000D02*
X103298000Y-105325000D01*
G75*
G02*
X103498000Y-105525000I0J-200000D01*
G01*
X103498000Y-105925000D01*
G75*
G02*
X103298000Y-106125000I-200000J0D01*
G01*
X102748000Y-106125000D01*
G75*
G02*
X102548000Y-105925000I0J200000D01*
G01*
X102548000Y-105525000D01*
G75*
G02*
X102748000Y-105325000I200000J0D01*
G01*
G37*
%TD.AperFunction*%
%TO.P,R4,2*%
%TO.N,VCC*%
%TA.AperFunction,SMDPad,CuDef*%
G36*
G01*
X102748000Y-106975000D02*
X103298000Y-106975000D01*
G75*
G02*
X103498000Y-107175000I0J-200000D01*
G01*
X103498000Y-107575000D01*
G75*
G02*
X103298000Y-107775000I-200000J0D01*
G01*
X102748000Y-107775000D01*
G75*
G02*
X102548000Y-107575000I0J200000D01*
G01*
X102548000Y-107175000D01*
G75*
G02*
X102748000Y-106975000I200000J0D01*
G01*
G37*
%TD.AperFunction*%
%TD*%
%TO.P,R4,1*%
%TO.N,/outb*%
%TA.AperFunction,SMDPad,CuDef*%
G36*
G01*
X90248000Y-105325000D02*
X90798000Y-105325000D01*
G75*
G02*
X90998000Y-105525000I0J-200000D01*
G01*
X90998000Y-105925000D01*
G75*
G02*
X90798000Y-106125000I-200000J0D01*
G01*
X90248000Y-106125000D01*
G75*
G02*
X90048000Y-105925000I0J200000D01*
G01*
X90048000Y-105525000D01*
G75*
G02*
X90248000Y-105325000I200000J0D01*
G01*
G37*
%TD.AperFunction*%
%TO.P,R4,2*%
%TO.N,VCC*%
%TA.AperFunction,SMDPad,CuDef*%
G36*
G01*
X90248000Y-106975000D02*
X90798000Y-106975000D01*
G75*
G02*
X90998000Y-107175000I0J-200000D01*
G01*
X90998000Y-107575000D01*
G75*
G02*
X90798000Y-107775000I-200000J0D01*
G01*
X90248000Y-107775000D01*
G75*
G02*
X90048000Y-107575000I0J200000D01*
G01*
X90048000Y-107175000D01*
G75*
G02*
X90248000Y-106975000I200000J0D01*
G01*
G37*
%TD.AperFunction*%
%TD*%
%TO.P,R4,1*%
%TO.N,/outb*%
%TA.AperFunction,SMDPad,CuDef*%
G36*
G01*
X77748000Y-105325000D02*
X78298000Y-105325000D01*
G75*
G02*
X78498000Y-105525000I0J-200000D01*
G01*
X78498000Y-105925000D01*
G75*
G02*
X78298000Y-106125000I-200000J0D01*
G01*
X77748000Y-106125000D01*
G75*
G02*
X77548000Y-105925000I0J200000D01*
G01*
X77548000Y-105525000D01*
G75*
G02*
X77748000Y-105325000I200000J0D01*
G01*
G37*
%TD.AperFunction*%
%TO.P,R4,2*%
%TO.N,VCC*%
%TA.AperFunction,SMDPad,CuDef*%
G36*
G01*
X77748000Y-106975000D02*
X78298000Y-106975000D01*
G75*
G02*
X78498000Y-107175000I0J-200000D01*
G01*
X78498000Y-107575000D01*
G75*
G02*
X78298000Y-107775000I-200000J0D01*
G01*
X77748000Y-107775000D01*
G75*
G02*
X77548000Y-107575000I0J200000D01*
G01*
X77548000Y-107175000D01*
G75*
G02*
X77748000Y-106975000I200000J0D01*
G01*
G37*
%TD.AperFunction*%
%TD*%
%TO.P,R5,1*%
%TO.N,Net-(Q1-Pad2)*%
%TA.AperFunction,SMDPad,CuDef*%
G36*
G01*
X102748000Y-112563000D02*
X103298000Y-112563000D01*
G75*
G02*
X103498000Y-112763000I0J-200000D01*
G01*
X103498000Y-113163000D01*
G75*
G02*
X103298000Y-113363000I-200000J0D01*
G01*
X102748000Y-113363000D01*
G75*
G02*
X102548000Y-113163000I0J200000D01*
G01*
X102548000Y-112763000D01*
G75*
G02*
X102748000Y-112563000I200000J0D01*
G01*
G37*
%TD.AperFunction*%
%TO.P,R5,2*%
%TO.N,/SDA*%
%TA.AperFunction,SMDPad,CuDef*%
G36*
G01*
X102748000Y-114213000D02*
X103298000Y-114213000D01*
G75*
G02*
X103498000Y-114413000I0J-200000D01*
G01*
X103498000Y-114813000D01*
G75*
G02*
X103298000Y-115013000I-200000J0D01*
G01*
X102748000Y-115013000D01*
G75*
G02*
X102548000Y-114813000I0J200000D01*
G01*
X102548000Y-114413000D01*
G75*
G02*
X102748000Y-114213000I200000J0D01*
G01*
G37*
%TD.AperFunction*%
%TD*%
%TO.P,R5,1*%
%TO.N,Net-(Q1-Pad2)*%
%TA.AperFunction,SMDPad,CuDef*%
G36*
G01*
X90248000Y-112563000D02*
X90798000Y-112563000D01*
G75*
G02*
X90998000Y-112763000I0J-200000D01*
G01*
X90998000Y-113163000D01*
G75*
G02*
X90798000Y-113363000I-200000J0D01*
G01*
X90248000Y-113363000D01*
G75*
G02*
X90048000Y-113163000I0J200000D01*
G01*
X90048000Y-112763000D01*
G75*
G02*
X90248000Y-112563000I200000J0D01*
G01*
G37*
%TD.AperFunction*%
%TO.P,R5,2*%
%TO.N,/SDA*%
%TA.AperFunction,SMDPad,CuDef*%
G36*
G01*
X90248000Y-114213000D02*
X90798000Y-114213000D01*
G75*
G02*
X90998000Y-114413000I0J-200000D01*
G01*
X90998000Y-114813000D01*
G75*
G02*
X90798000Y-115013000I-200000J0D01*
G01*
X90248000Y-115013000D01*
G75*
G02*
X90048000Y-114813000I0J200000D01*
G01*
X90048000Y-114413000D01*
G75*
G02*
X90248000Y-114213000I200000J0D01*
G01*
G37*
%TD.AperFunction*%
%TD*%
%TO.P,R5,1*%
%TO.N,Net-(Q1-Pad2)*%
%TA.AperFunction,SMDPad,CuDef*%
G36*
G01*
X77748000Y-112563000D02*
X78298000Y-112563000D01*
G75*
G02*
X78498000Y-112763000I0J-200000D01*
G01*
X78498000Y-113163000D01*
G75*
G02*
X78298000Y-113363000I-200000J0D01*
G01*
X77748000Y-113363000D01*
G75*
G02*
X77548000Y-113163000I0J200000D01*
G01*
X77548000Y-112763000D01*
G75*
G02*
X77748000Y-112563000I200000J0D01*
G01*
G37*
%TD.AperFunction*%
%TO.P,R5,2*%
%TO.N,/SDA*%
%TA.AperFunction,SMDPad,CuDef*%
G36*
G01*
X77748000Y-114213000D02*
X78298000Y-114213000D01*
G75*
G02*
X78498000Y-114413000I0J-200000D01*
G01*
X78498000Y-114813000D01*
G75*
G02*
X78298000Y-115013000I-200000J0D01*
G01*
X77748000Y-115013000D01*
G75*
G02*
X77548000Y-114813000I0J200000D01*
G01*
X77548000Y-114413000D01*
G75*
G02*
X77748000Y-114213000I200000J0D01*
G01*
G37*
%TD.AperFunction*%
%TD*%
%TO.P,R8,1*%
%TO.N,Net-(Q4-Pad2)*%
%TA.AperFunction,SMDPad,CuDef*%
G36*
G01*
X98091000Y-107774000D02*
X97541000Y-107774000D01*
G75*
G02*
X97341000Y-107574000I0J200000D01*
G01*
X97341000Y-107174000D01*
G75*
G02*
X97541000Y-106974000I200000J0D01*
G01*
X98091000Y-106974000D01*
G75*
G02*
X98291000Y-107174000I0J-200000D01*
G01*
X98291000Y-107574000D01*
G75*
G02*
X98091000Y-107774000I-200000J0D01*
G01*
G37*
%TD.AperFunction*%
%TO.P,R8,2*%
%TO.N,/outb*%
%TA.AperFunction,SMDPad,CuDef*%
G36*
G01*
X98091000Y-106124000D02*
X97541000Y-106124000D01*
G75*
G02*
X97341000Y-105924000I0J200000D01*
G01*
X97341000Y-105524000D01*
G75*
G02*
X97541000Y-105324000I200000J0D01*
G01*
X98091000Y-105324000D01*
G75*
G02*
X98291000Y-105524000I0J-200000D01*
G01*
X98291000Y-105924000D01*
G75*
G02*
X98091000Y-106124000I-200000J0D01*
G01*
G37*
%TD.AperFunction*%
%TD*%
%TO.P,R8,1*%
%TO.N,Net-(Q4-Pad2)*%
%TA.AperFunction,SMDPad,CuDef*%
G36*
G01*
X85591000Y-107774000D02*
X85041000Y-107774000D01*
G75*
G02*
X84841000Y-107574000I0J200000D01*
G01*
X84841000Y-107174000D01*
G75*
G02*
X85041000Y-106974000I200000J0D01*
G01*
X85591000Y-106974000D01*
G75*
G02*
X85791000Y-107174000I0J-200000D01*
G01*
X85791000Y-107574000D01*
G75*
G02*
X85591000Y-107774000I-200000J0D01*
G01*
G37*
%TD.AperFunction*%
%TO.P,R8,2*%
%TO.N,/outb*%
%TA.AperFunction,SMDPad,CuDef*%
G36*
G01*
X85591000Y-106124000D02*
X85041000Y-106124000D01*
G75*
G02*
X84841000Y-105924000I0J200000D01*
G01*
X84841000Y-105524000D01*
G75*
G02*
X85041000Y-105324000I200000J0D01*
G01*
X85591000Y-105324000D01*
G75*
G02*
X85791000Y-105524000I0J-200000D01*
G01*
X85791000Y-105924000D01*
G75*
G02*
X85591000Y-106124000I-200000J0D01*
G01*
G37*
%TD.AperFunction*%
%TD*%
%TO.P,R8,1*%
%TO.N,Net-(Q4-Pad2)*%
%TA.AperFunction,SMDPad,CuDef*%
G36*
G01*
X73091000Y-107774000D02*
X72541000Y-107774000D01*
G75*
G02*
X72341000Y-107574000I0J200000D01*
G01*
X72341000Y-107174000D01*
G75*
G02*
X72541000Y-106974000I200000J0D01*
G01*
X73091000Y-106974000D01*
G75*
G02*
X73291000Y-107174000I0J-200000D01*
G01*
X73291000Y-107574000D01*
G75*
G02*
X73091000Y-107774000I-200000J0D01*
G01*
G37*
%TD.AperFunction*%
%TO.P,R8,2*%
%TO.N,/outb*%
%TA.AperFunction,SMDPad,CuDef*%
G36*
G01*
X73091000Y-106124000D02*
X72541000Y-106124000D01*
G75*
G02*
X72341000Y-105924000I0J200000D01*
G01*
X72341000Y-105524000D01*
G75*
G02*
X72541000Y-105324000I200000J0D01*
G01*
X73091000Y-105324000D01*
G75*
G02*
X73291000Y-105524000I0J-200000D01*
G01*
X73291000Y-105924000D01*
G75*
G02*
X73091000Y-106124000I-200000J0D01*
G01*
G37*
%TD.AperFunction*%
%TD*%
%TO.P,R9,1*%
%TO.N,VCC*%
%TA.AperFunction,SMDPad,CuDef*%
G36*
G01*
X99194000Y-111714000D02*
X99194000Y-111164000D01*
G75*
G02*
X99394000Y-110964000I200000J0D01*
G01*
X99794000Y-110964000D01*
G75*
G02*
X99994000Y-111164000I0J-200000D01*
G01*
X99994000Y-111714000D01*
G75*
G02*
X99794000Y-111914000I-200000J0D01*
G01*
X99394000Y-111914000D01*
G75*
G02*
X99194000Y-111714000I0J200000D01*
G01*
G37*
%TD.AperFunction*%
%TO.P,R9,2*%
%TO.N,Net-(Q1-Pad2)*%
%TA.AperFunction,SMDPad,CuDef*%
G36*
G01*
X100844000Y-111714000D02*
X100844000Y-111164000D01*
G75*
G02*
X101044000Y-110964000I200000J0D01*
G01*
X101444000Y-110964000D01*
G75*
G02*
X101644000Y-111164000I0J-200000D01*
G01*
X101644000Y-111714000D01*
G75*
G02*
X101444000Y-111914000I-200000J0D01*
G01*
X101044000Y-111914000D01*
G75*
G02*
X100844000Y-111714000I0J200000D01*
G01*
G37*
%TD.AperFunction*%
%TD*%
%TO.P,R9,1*%
%TO.N,VCC*%
%TA.AperFunction,SMDPad,CuDef*%
G36*
G01*
X86694000Y-111714000D02*
X86694000Y-111164000D01*
G75*
G02*
X86894000Y-110964000I200000J0D01*
G01*
X87294000Y-110964000D01*
G75*
G02*
X87494000Y-111164000I0J-200000D01*
G01*
X87494000Y-111714000D01*
G75*
G02*
X87294000Y-111914000I-200000J0D01*
G01*
X86894000Y-111914000D01*
G75*
G02*
X86694000Y-111714000I0J200000D01*
G01*
G37*
%TD.AperFunction*%
%TO.P,R9,2*%
%TO.N,Net-(Q1-Pad2)*%
%TA.AperFunction,SMDPad,CuDef*%
G36*
G01*
X88344000Y-111714000D02*
X88344000Y-111164000D01*
G75*
G02*
X88544000Y-110964000I200000J0D01*
G01*
X88944000Y-110964000D01*
G75*
G02*
X89144000Y-111164000I0J-200000D01*
G01*
X89144000Y-111714000D01*
G75*
G02*
X88944000Y-111914000I-200000J0D01*
G01*
X88544000Y-111914000D01*
G75*
G02*
X88344000Y-111714000I0J200000D01*
G01*
G37*
%TD.AperFunction*%
%TD*%
%TO.P,R9,1*%
%TO.N,VCC*%
%TA.AperFunction,SMDPad,CuDef*%
G36*
G01*
X74194000Y-111714000D02*
X74194000Y-111164000D01*
G75*
G02*
X74394000Y-110964000I200000J0D01*
G01*
X74794000Y-110964000D01*
G75*
G02*
X74994000Y-111164000I0J-200000D01*
G01*
X74994000Y-111714000D01*
G75*
G02*
X74794000Y-111914000I-200000J0D01*
G01*
X74394000Y-111914000D01*
G75*
G02*
X74194000Y-111714000I0J200000D01*
G01*
G37*
%TD.AperFunction*%
%TO.P,R9,2*%
%TO.N,Net-(Q1-Pad2)*%
%TA.AperFunction,SMDPad,CuDef*%
G36*
G01*
X75844000Y-111714000D02*
X75844000Y-111164000D01*
G75*
G02*
X76044000Y-110964000I200000J0D01*
G01*
X76444000Y-110964000D01*
G75*
G02*
X76644000Y-111164000I0J-200000D01*
G01*
X76644000Y-111714000D01*
G75*
G02*
X76444000Y-111914000I-200000J0D01*
G01*
X76044000Y-111914000D01*
G75*
G02*
X75844000Y-111714000I0J200000D01*
G01*
G37*
%TD.AperFunction*%
%TD*%
%TO.P,R12,1*%
%TO.N,VCC*%
%TA.AperFunction,SMDPad,CuDef*%
G36*
G01*
X101645000Y-108624000D02*
X101645000Y-109174000D01*
G75*
G02*
X101445000Y-109374000I-200000J0D01*
G01*
X101045000Y-109374000D01*
G75*
G02*
X100845000Y-109174000I0J200000D01*
G01*
X100845000Y-108624000D01*
G75*
G02*
X101045000Y-108424000I200000J0D01*
G01*
X101445000Y-108424000D01*
G75*
G02*
X101645000Y-108624000I0J-200000D01*
G01*
G37*
%TD.AperFunction*%
%TO.P,R12,2*%
%TO.N,Net-(Q4-Pad2)*%
%TA.AperFunction,SMDPad,CuDef*%
G36*
G01*
X99995000Y-108624000D02*
X99995000Y-109174000D01*
G75*
G02*
X99795000Y-109374000I-200000J0D01*
G01*
X99395000Y-109374000D01*
G75*
G02*
X99195000Y-109174000I0J200000D01*
G01*
X99195000Y-108624000D01*
G75*
G02*
X99395000Y-108424000I200000J0D01*
G01*
X99795000Y-108424000D01*
G75*
G02*
X99995000Y-108624000I0J-200000D01*
G01*
G37*
%TD.AperFunction*%
%TD*%
%TO.P,R12,1*%
%TO.N,VCC*%
%TA.AperFunction,SMDPad,CuDef*%
G36*
G01*
X89145000Y-108624000D02*
X89145000Y-109174000D01*
G75*
G02*
X88945000Y-109374000I-200000J0D01*
G01*
X88545000Y-109374000D01*
G75*
G02*
X88345000Y-109174000I0J200000D01*
G01*
X88345000Y-108624000D01*
G75*
G02*
X88545000Y-108424000I200000J0D01*
G01*
X88945000Y-108424000D01*
G75*
G02*
X89145000Y-108624000I0J-200000D01*
G01*
G37*
%TD.AperFunction*%
%TO.P,R12,2*%
%TO.N,Net-(Q4-Pad2)*%
%TA.AperFunction,SMDPad,CuDef*%
G36*
G01*
X87495000Y-108624000D02*
X87495000Y-109174000D01*
G75*
G02*
X87295000Y-109374000I-200000J0D01*
G01*
X86895000Y-109374000D01*
G75*
G02*
X86695000Y-109174000I0J200000D01*
G01*
X86695000Y-108624000D01*
G75*
G02*
X86895000Y-108424000I200000J0D01*
G01*
X87295000Y-108424000D01*
G75*
G02*
X87495000Y-108624000I0J-200000D01*
G01*
G37*
%TD.AperFunction*%
%TD*%
%TO.P,R12,1*%
%TO.N,VCC*%
%TA.AperFunction,SMDPad,CuDef*%
G36*
G01*
X76645000Y-108624000D02*
X76645000Y-109174000D01*
G75*
G02*
X76445000Y-109374000I-200000J0D01*
G01*
X76045000Y-109374000D01*
G75*
G02*
X75845000Y-109174000I0J200000D01*
G01*
X75845000Y-108624000D01*
G75*
G02*
X76045000Y-108424000I200000J0D01*
G01*
X76445000Y-108424000D01*
G75*
G02*
X76645000Y-108624000I0J-200000D01*
G01*
G37*
%TD.AperFunction*%
%TO.P,R12,2*%
%TO.N,Net-(Q4-Pad2)*%
%TA.AperFunction,SMDPad,CuDef*%
G36*
G01*
X74995000Y-108624000D02*
X74995000Y-109174000D01*
G75*
G02*
X74795000Y-109374000I-200000J0D01*
G01*
X74395000Y-109374000D01*
G75*
G02*
X74195000Y-109174000I0J200000D01*
G01*
X74195000Y-108624000D01*
G75*
G02*
X74395000Y-108424000I200000J0D01*
G01*
X74795000Y-108424000D01*
G75*
G02*
X74995000Y-108624000I0J-200000D01*
G01*
G37*
%TD.AperFunction*%
%TD*%
%TO.P,R14,1*%
%TO.N,VCCQ*%
%TA.AperFunction,SMDPad,CuDef*%
G36*
G01*
X101644000Y-122086000D02*
X101644000Y-122636000D01*
G75*
G02*
X101444000Y-122836000I-200000J0D01*
G01*
X101044000Y-122836000D01*
G75*
G02*
X100844000Y-122636000I0J200000D01*
G01*
X100844000Y-122086000D01*
G75*
G02*
X101044000Y-121886000I200000J0D01*
G01*
X101444000Y-121886000D01*
G75*
G02*
X101644000Y-122086000I0J-200000D01*
G01*
G37*
%TD.AperFunction*%
%TO.P,R14,2*%
%TO.N,Net-(Q6-Pad2)*%
%TA.AperFunction,SMDPad,CuDef*%
G36*
G01*
X99994000Y-122086000D02*
X99994000Y-122636000D01*
G75*
G02*
X99794000Y-122836000I-200000J0D01*
G01*
X99394000Y-122836000D01*
G75*
G02*
X99194000Y-122636000I0J200000D01*
G01*
X99194000Y-122086000D01*
G75*
G02*
X99394000Y-121886000I200000J0D01*
G01*
X99794000Y-121886000D01*
G75*
G02*
X99994000Y-122086000I0J-200000D01*
G01*
G37*
%TD.AperFunction*%
%TD*%
%TO.P,R14,1*%
%TO.N,VCCQ*%
%TA.AperFunction,SMDPad,CuDef*%
G36*
G01*
X89144000Y-122086000D02*
X89144000Y-122636000D01*
G75*
G02*
X88944000Y-122836000I-200000J0D01*
G01*
X88544000Y-122836000D01*
G75*
G02*
X88344000Y-122636000I0J200000D01*
G01*
X88344000Y-122086000D01*
G75*
G02*
X88544000Y-121886000I200000J0D01*
G01*
X88944000Y-121886000D01*
G75*
G02*
X89144000Y-122086000I0J-200000D01*
G01*
G37*
%TD.AperFunction*%
%TO.P,R14,2*%
%TO.N,Net-(Q6-Pad2)*%
%TA.AperFunction,SMDPad,CuDef*%
G36*
G01*
X87494000Y-122086000D02*
X87494000Y-122636000D01*
G75*
G02*
X87294000Y-122836000I-200000J0D01*
G01*
X86894000Y-122836000D01*
G75*
G02*
X86694000Y-122636000I0J200000D01*
G01*
X86694000Y-122086000D01*
G75*
G02*
X86894000Y-121886000I200000J0D01*
G01*
X87294000Y-121886000D01*
G75*
G02*
X87494000Y-122086000I0J-200000D01*
G01*
G37*
%TD.AperFunction*%
%TD*%
%TO.P,R14,1*%
%TO.N,VCCQ*%
%TA.AperFunction,SMDPad,CuDef*%
G36*
G01*
X76644000Y-122086000D02*
X76644000Y-122636000D01*
G75*
G02*
X76444000Y-122836000I-200000J0D01*
G01*
X76044000Y-122836000D01*
G75*
G02*
X75844000Y-122636000I0J200000D01*
G01*
X75844000Y-122086000D01*
G75*
G02*
X76044000Y-121886000I200000J0D01*
G01*
X76444000Y-121886000D01*
G75*
G02*
X76644000Y-122086000I0J-200000D01*
G01*
G37*
%TD.AperFunction*%
%TO.P,R14,2*%
%TO.N,Net-(Q6-Pad2)*%
%TA.AperFunction,SMDPad,CuDef*%
G36*
G01*
X74994000Y-122086000D02*
X74994000Y-122636000D01*
G75*
G02*
X74794000Y-122836000I-200000J0D01*
G01*
X74394000Y-122836000D01*
G75*
G02*
X74194000Y-122636000I0J200000D01*
G01*
X74194000Y-122086000D01*
G75*
G02*
X74394000Y-121886000I200000J0D01*
G01*
X74794000Y-121886000D01*
G75*
G02*
X74994000Y-122086000I0J-200000D01*
G01*
G37*
%TD.AperFunction*%
%TD*%
%TO.P,R16,1*%
%TO.N,VCCQ*%
%TA.AperFunction,SMDPad,CuDef*%
G36*
G01*
X99194000Y-125176000D02*
X99194000Y-124626000D01*
G75*
G02*
X99394000Y-124426000I200000J0D01*
G01*
X99794000Y-124426000D01*
G75*
G02*
X99994000Y-124626000I0J-200000D01*
G01*
X99994000Y-125176000D01*
G75*
G02*
X99794000Y-125376000I-200000J0D01*
G01*
X99394000Y-125376000D01*
G75*
G02*
X99194000Y-125176000I0J200000D01*
G01*
G37*
%TD.AperFunction*%
%TO.P,R16,2*%
%TO.N,Net-(Q8-Pad2)*%
%TA.AperFunction,SMDPad,CuDef*%
G36*
G01*
X100844000Y-125176000D02*
X100844000Y-124626000D01*
G75*
G02*
X101044000Y-124426000I200000J0D01*
G01*
X101444000Y-124426000D01*
G75*
G02*
X101644000Y-124626000I0J-200000D01*
G01*
X101644000Y-125176000D01*
G75*
G02*
X101444000Y-125376000I-200000J0D01*
G01*
X101044000Y-125376000D01*
G75*
G02*
X100844000Y-125176000I0J200000D01*
G01*
G37*
%TD.AperFunction*%
%TD*%
%TO.P,R16,1*%
%TO.N,VCCQ*%
%TA.AperFunction,SMDPad,CuDef*%
G36*
G01*
X86694000Y-125176000D02*
X86694000Y-124626000D01*
G75*
G02*
X86894000Y-124426000I200000J0D01*
G01*
X87294000Y-124426000D01*
G75*
G02*
X87494000Y-124626000I0J-200000D01*
G01*
X87494000Y-125176000D01*
G75*
G02*
X87294000Y-125376000I-200000J0D01*
G01*
X86894000Y-125376000D01*
G75*
G02*
X86694000Y-125176000I0J200000D01*
G01*
G37*
%TD.AperFunction*%
%TO.P,R16,2*%
%TO.N,Net-(Q8-Pad2)*%
%TA.AperFunction,SMDPad,CuDef*%
G36*
G01*
X88344000Y-125176000D02*
X88344000Y-124626000D01*
G75*
G02*
X88544000Y-124426000I200000J0D01*
G01*
X88944000Y-124426000D01*
G75*
G02*
X89144000Y-124626000I0J-200000D01*
G01*
X89144000Y-125176000D01*
G75*
G02*
X88944000Y-125376000I-200000J0D01*
G01*
X88544000Y-125376000D01*
G75*
G02*
X88344000Y-125176000I0J200000D01*
G01*
G37*
%TD.AperFunction*%
%TD*%
%TO.P,R16,1*%
%TO.N,VCCQ*%
%TA.AperFunction,SMDPad,CuDef*%
G36*
G01*
X74194000Y-125176000D02*
X74194000Y-124626000D01*
G75*
G02*
X74394000Y-124426000I200000J0D01*
G01*
X74794000Y-124426000D01*
G75*
G02*
X74994000Y-124626000I0J-200000D01*
G01*
X74994000Y-125176000D01*
G75*
G02*
X74794000Y-125376000I-200000J0D01*
G01*
X74394000Y-125376000D01*
G75*
G02*
X74194000Y-125176000I0J200000D01*
G01*
G37*
%TD.AperFunction*%
%TO.P,R16,2*%
%TO.N,Net-(Q8-Pad2)*%
%TA.AperFunction,SMDPad,CuDef*%
G36*
G01*
X75844000Y-125176000D02*
X75844000Y-124626000D01*
G75*
G02*
X76044000Y-124426000I200000J0D01*
G01*
X76444000Y-124426000D01*
G75*
G02*
X76644000Y-124626000I0J-200000D01*
G01*
X76644000Y-125176000D01*
G75*
G02*
X76444000Y-125376000I-200000J0D01*
G01*
X76044000Y-125376000D01*
G75*
G02*
X75844000Y-125176000I0J200000D01*
G01*
G37*
%TD.AperFunction*%
%TD*%
%TO.P,R18,1*%
%TO.N,/SCLq*%
%TA.AperFunction,SMDPad,CuDef*%
G36*
G01*
X97668000Y-118787000D02*
X98218000Y-118787000D01*
G75*
G02*
X98418000Y-118987000I0J-200000D01*
G01*
X98418000Y-119387000D01*
G75*
G02*
X98218000Y-119587000I-200000J0D01*
G01*
X97668000Y-119587000D01*
G75*
G02*
X97468000Y-119387000I0J200000D01*
G01*
X97468000Y-118987000D01*
G75*
G02*
X97668000Y-118787000I200000J0D01*
G01*
G37*
%TD.AperFunction*%
%TO.P,R18,2*%
%TO.N,Net-(Q6-Pad2)*%
%TA.AperFunction,SMDPad,CuDef*%
G36*
G01*
X97668000Y-120437000D02*
X98218000Y-120437000D01*
G75*
G02*
X98418000Y-120637000I0J-200000D01*
G01*
X98418000Y-121037000D01*
G75*
G02*
X98218000Y-121237000I-200000J0D01*
G01*
X97668000Y-121237000D01*
G75*
G02*
X97468000Y-121037000I0J200000D01*
G01*
X97468000Y-120637000D01*
G75*
G02*
X97668000Y-120437000I200000J0D01*
G01*
G37*
%TD.AperFunction*%
%TD*%
%TO.P,R18,1*%
%TO.N,/SCLq*%
%TA.AperFunction,SMDPad,CuDef*%
G36*
G01*
X85168000Y-118787000D02*
X85718000Y-118787000D01*
G75*
G02*
X85918000Y-118987000I0J-200000D01*
G01*
X85918000Y-119387000D01*
G75*
G02*
X85718000Y-119587000I-200000J0D01*
G01*
X85168000Y-119587000D01*
G75*
G02*
X84968000Y-119387000I0J200000D01*
G01*
X84968000Y-118987000D01*
G75*
G02*
X85168000Y-118787000I200000J0D01*
G01*
G37*
%TD.AperFunction*%
%TO.P,R18,2*%
%TO.N,Net-(Q6-Pad2)*%
%TA.AperFunction,SMDPad,CuDef*%
G36*
G01*
X85168000Y-120437000D02*
X85718000Y-120437000D01*
G75*
G02*
X85918000Y-120637000I0J-200000D01*
G01*
X85918000Y-121037000D01*
G75*
G02*
X85718000Y-121237000I-200000J0D01*
G01*
X85168000Y-121237000D01*
G75*
G02*
X84968000Y-121037000I0J200000D01*
G01*
X84968000Y-120637000D01*
G75*
G02*
X85168000Y-120437000I200000J0D01*
G01*
G37*
%TD.AperFunction*%
%TD*%
%TO.P,R18,1*%
%TO.N,/SCLq*%
%TA.AperFunction,SMDPad,CuDef*%
G36*
G01*
X72668000Y-118787000D02*
X73218000Y-118787000D01*
G75*
G02*
X73418000Y-118987000I0J-200000D01*
G01*
X73418000Y-119387000D01*
G75*
G02*
X73218000Y-119587000I-200000J0D01*
G01*
X72668000Y-119587000D01*
G75*
G02*
X72468000Y-119387000I0J200000D01*
G01*
X72468000Y-118987000D01*
G75*
G02*
X72668000Y-118787000I200000J0D01*
G01*
G37*
%TD.AperFunction*%
%TO.P,R18,2*%
%TO.N,Net-(Q6-Pad2)*%
%TA.AperFunction,SMDPad,CuDef*%
G36*
G01*
X72668000Y-120437000D02*
X73218000Y-120437000D01*
G75*
G02*
X73418000Y-120637000I0J-200000D01*
G01*
X73418000Y-121037000D01*
G75*
G02*
X73218000Y-121237000I-200000J0D01*
G01*
X72668000Y-121237000D01*
G75*
G02*
X72468000Y-121037000I0J200000D01*
G01*
X72468000Y-120637000D01*
G75*
G02*
X72668000Y-120437000I200000J0D01*
G01*
G37*
%TD.AperFunction*%
%TD*%
%TO.P,R20,1*%
%TO.N,/inb*%
%TA.AperFunction,SMDPad,CuDef*%
G36*
G01*
X103298000Y-128475000D02*
X102748000Y-128475000D01*
G75*
G02*
X102548000Y-128275000I0J200000D01*
G01*
X102548000Y-127875000D01*
G75*
G02*
X102748000Y-127675000I200000J0D01*
G01*
X103298000Y-127675000D01*
G75*
G02*
X103498000Y-127875000I0J-200000D01*
G01*
X103498000Y-128275000D01*
G75*
G02*
X103298000Y-128475000I-200000J0D01*
G01*
G37*
%TD.AperFunction*%
%TO.P,R20,2*%
%TO.N,Net-(Q8-Pad2)*%
%TA.AperFunction,SMDPad,CuDef*%
G36*
G01*
X103298000Y-126825000D02*
X102748000Y-126825000D01*
G75*
G02*
X102548000Y-126625000I0J200000D01*
G01*
X102548000Y-126225000D01*
G75*
G02*
X102748000Y-126025000I200000J0D01*
G01*
X103298000Y-126025000D01*
G75*
G02*
X103498000Y-126225000I0J-200000D01*
G01*
X103498000Y-126625000D01*
G75*
G02*
X103298000Y-126825000I-200000J0D01*
G01*
G37*
%TD.AperFunction*%
%TD*%
%TO.P,R20,1*%
%TO.N,/inb*%
%TA.AperFunction,SMDPad,CuDef*%
G36*
G01*
X90798000Y-128475000D02*
X90248000Y-128475000D01*
G75*
G02*
X90048000Y-128275000I0J200000D01*
G01*
X90048000Y-127875000D01*
G75*
G02*
X90248000Y-127675000I200000J0D01*
G01*
X90798000Y-127675000D01*
G75*
G02*
X90998000Y-127875000I0J-200000D01*
G01*
X90998000Y-128275000D01*
G75*
G02*
X90798000Y-128475000I-200000J0D01*
G01*
G37*
%TD.AperFunction*%
%TO.P,R20,2*%
%TO.N,Net-(Q8-Pad2)*%
%TA.AperFunction,SMDPad,CuDef*%
G36*
G01*
X90798000Y-126825000D02*
X90248000Y-126825000D01*
G75*
G02*
X90048000Y-126625000I0J200000D01*
G01*
X90048000Y-126225000D01*
G75*
G02*
X90248000Y-126025000I200000J0D01*
G01*
X90798000Y-126025000D01*
G75*
G02*
X90998000Y-126225000I0J-200000D01*
G01*
X90998000Y-126625000D01*
G75*
G02*
X90798000Y-126825000I-200000J0D01*
G01*
G37*
%TD.AperFunction*%
%TD*%
%TO.P,R20,1*%
%TO.N,/inb*%
%TA.AperFunction,SMDPad,CuDef*%
G36*
G01*
X78298000Y-128475000D02*
X77748000Y-128475000D01*
G75*
G02*
X77548000Y-128275000I0J200000D01*
G01*
X77548000Y-127875000D01*
G75*
G02*
X77748000Y-127675000I200000J0D01*
G01*
X78298000Y-127675000D01*
G75*
G02*
X78498000Y-127875000I0J-200000D01*
G01*
X78498000Y-128275000D01*
G75*
G02*
X78298000Y-128475000I-200000J0D01*
G01*
G37*
%TD.AperFunction*%
%TO.P,R20,2*%
%TO.N,Net-(Q8-Pad2)*%
%TA.AperFunction,SMDPad,CuDef*%
G36*
G01*
X78298000Y-126825000D02*
X77748000Y-126825000D01*
G75*
G02*
X77548000Y-126625000I0J200000D01*
G01*
X77548000Y-126225000D01*
G75*
G02*
X77748000Y-126025000I200000J0D01*
G01*
X78298000Y-126025000D01*
G75*
G02*
X78498000Y-126225000I0J-200000D01*
G01*
X78498000Y-126625000D01*
G75*
G02*
X78298000Y-126825000I-200000J0D01*
G01*
G37*
%TD.AperFunction*%
%TD*%
%TO.P,R22,1*%
%TO.N,/SCLq*%
%TA.AperFunction,SMDPad,CuDef*%
G36*
G01*
X102748000Y-118787000D02*
X103298000Y-118787000D01*
G75*
G02*
X103498000Y-118987000I0J-200000D01*
G01*
X103498000Y-119387000D01*
G75*
G02*
X103298000Y-119587000I-200000J0D01*
G01*
X102748000Y-119587000D01*
G75*
G02*
X102548000Y-119387000I0J200000D01*
G01*
X102548000Y-118987000D01*
G75*
G02*
X102748000Y-118787000I200000J0D01*
G01*
G37*
%TD.AperFunction*%
%TO.P,R22,2*%
%TO.N,VCCQ*%
%TA.AperFunction,SMDPad,CuDef*%
G36*
G01*
X102748000Y-120437000D02*
X103298000Y-120437000D01*
G75*
G02*
X103498000Y-120637000I0J-200000D01*
G01*
X103498000Y-121037000D01*
G75*
G02*
X103298000Y-121237000I-200000J0D01*
G01*
X102748000Y-121237000D01*
G75*
G02*
X102548000Y-121037000I0J200000D01*
G01*
X102548000Y-120637000D01*
G75*
G02*
X102748000Y-120437000I200000J0D01*
G01*
G37*
%TD.AperFunction*%
%TD*%
%TO.P,R22,1*%
%TO.N,/SCLq*%
%TA.AperFunction,SMDPad,CuDef*%
G36*
G01*
X90248000Y-118787000D02*
X90798000Y-118787000D01*
G75*
G02*
X90998000Y-118987000I0J-200000D01*
G01*
X90998000Y-119387000D01*
G75*
G02*
X90798000Y-119587000I-200000J0D01*
G01*
X90248000Y-119587000D01*
G75*
G02*
X90048000Y-119387000I0J200000D01*
G01*
X90048000Y-118987000D01*
G75*
G02*
X90248000Y-118787000I200000J0D01*
G01*
G37*
%TD.AperFunction*%
%TO.P,R22,2*%
%TO.N,VCCQ*%
%TA.AperFunction,SMDPad,CuDef*%
G36*
G01*
X90248000Y-120437000D02*
X90798000Y-120437000D01*
G75*
G02*
X90998000Y-120637000I0J-200000D01*
G01*
X90998000Y-121037000D01*
G75*
G02*
X90798000Y-121237000I-200000J0D01*
G01*
X90248000Y-121237000D01*
G75*
G02*
X90048000Y-121037000I0J200000D01*
G01*
X90048000Y-120637000D01*
G75*
G02*
X90248000Y-120437000I200000J0D01*
G01*
G37*
%TD.AperFunction*%
%TD*%
%TO.P,R22,1*%
%TO.N,/SCLq*%
%TA.AperFunction,SMDPad,CuDef*%
G36*
G01*
X77748000Y-118787000D02*
X78298000Y-118787000D01*
G75*
G02*
X78498000Y-118987000I0J-200000D01*
G01*
X78498000Y-119387000D01*
G75*
G02*
X78298000Y-119587000I-200000J0D01*
G01*
X77748000Y-119587000D01*
G75*
G02*
X77548000Y-119387000I0J200000D01*
G01*
X77548000Y-118987000D01*
G75*
G02*
X77748000Y-118787000I200000J0D01*
G01*
G37*
%TD.AperFunction*%
%TO.P,R22,2*%
%TO.N,VCCQ*%
%TA.AperFunction,SMDPad,CuDef*%
G36*
G01*
X77748000Y-120437000D02*
X78298000Y-120437000D01*
G75*
G02*
X78498000Y-120637000I0J-200000D01*
G01*
X78498000Y-121037000D01*
G75*
G02*
X78298000Y-121237000I-200000J0D01*
G01*
X77748000Y-121237000D01*
G75*
G02*
X77548000Y-121037000I0J200000D01*
G01*
X77548000Y-120637000D01*
G75*
G02*
X77748000Y-120437000I200000J0D01*
G01*
G37*
%TD.AperFunction*%
%TD*%
%TO.P,R24,1*%
%TO.N,/inb*%
%TA.AperFunction,SMDPad,CuDef*%
G36*
G01*
X98218000Y-128475000D02*
X97668000Y-128475000D01*
G75*
G02*
X97468000Y-128275000I0J200000D01*
G01*
X97468000Y-127875000D01*
G75*
G02*
X97668000Y-127675000I200000J0D01*
G01*
X98218000Y-127675000D01*
G75*
G02*
X98418000Y-127875000I0J-200000D01*
G01*
X98418000Y-128275000D01*
G75*
G02*
X98218000Y-128475000I-200000J0D01*
G01*
G37*
%TD.AperFunction*%
%TO.P,R24,2*%
%TO.N,VCCQ*%
%TA.AperFunction,SMDPad,CuDef*%
G36*
G01*
X98218000Y-126825000D02*
X97668000Y-126825000D01*
G75*
G02*
X97468000Y-126625000I0J200000D01*
G01*
X97468000Y-126225000D01*
G75*
G02*
X97668000Y-126025000I200000J0D01*
G01*
X98218000Y-126025000D01*
G75*
G02*
X98418000Y-126225000I0J-200000D01*
G01*
X98418000Y-126625000D01*
G75*
G02*
X98218000Y-126825000I-200000J0D01*
G01*
G37*
%TD.AperFunction*%
%TD*%
%TO.P,R24,1*%
%TO.N,/inb*%
%TA.AperFunction,SMDPad,CuDef*%
G36*
G01*
X85718000Y-128475000D02*
X85168000Y-128475000D01*
G75*
G02*
X84968000Y-128275000I0J200000D01*
G01*
X84968000Y-127875000D01*
G75*
G02*
X85168000Y-127675000I200000J0D01*
G01*
X85718000Y-127675000D01*
G75*
G02*
X85918000Y-127875000I0J-200000D01*
G01*
X85918000Y-128275000D01*
G75*
G02*
X85718000Y-128475000I-200000J0D01*
G01*
G37*
%TD.AperFunction*%
%TO.P,R24,2*%
%TO.N,VCCQ*%
%TA.AperFunction,SMDPad,CuDef*%
G36*
G01*
X85718000Y-126825000D02*
X85168000Y-126825000D01*
G75*
G02*
X84968000Y-126625000I0J200000D01*
G01*
X84968000Y-126225000D01*
G75*
G02*
X85168000Y-126025000I200000J0D01*
G01*
X85718000Y-126025000D01*
G75*
G02*
X85918000Y-126225000I0J-200000D01*
G01*
X85918000Y-126625000D01*
G75*
G02*
X85718000Y-126825000I-200000J0D01*
G01*
G37*
%TD.AperFunction*%
%TD*%
%TO.P,R24,1*%
%TO.N,/inb*%
%TA.AperFunction,SMDPad,CuDef*%
G36*
G01*
X73218000Y-128475000D02*
X72668000Y-128475000D01*
G75*
G02*
X72468000Y-128275000I0J200000D01*
G01*
X72468000Y-127875000D01*
G75*
G02*
X72668000Y-127675000I200000J0D01*
G01*
X73218000Y-127675000D01*
G75*
G02*
X73418000Y-127875000I0J-200000D01*
G01*
X73418000Y-128275000D01*
G75*
G02*
X73218000Y-128475000I-200000J0D01*
G01*
G37*
%TD.AperFunction*%
%TO.P,R24,2*%
%TO.N,VCCQ*%
%TA.AperFunction,SMDPad,CuDef*%
G36*
G01*
X73218000Y-126825000D02*
X72668000Y-126825000D01*
G75*
G02*
X72468000Y-126625000I0J200000D01*
G01*
X72468000Y-126225000D01*
G75*
G02*
X72668000Y-126025000I200000J0D01*
G01*
X73218000Y-126025000D01*
G75*
G02*
X73418000Y-126225000I0J-200000D01*
G01*
X73418000Y-126625000D01*
G75*
G02*
X73218000Y-126825000I-200000J0D01*
G01*
G37*
%TD.AperFunction*%
%TD*%
%TO.P,U1,1*%
%TO.N,VCC*%
%TA.AperFunction,SMDPad,CuDef*%
G36*
G01*
X104524000Y-113450000D02*
X104824000Y-113450000D01*
G75*
G02*
X104974000Y-113600000I0J-150000D01*
G01*
X104974000Y-115250000D01*
G75*
G02*
X104824000Y-115400000I-150000J0D01*
G01*
X104524000Y-115400000D01*
G75*
G02*
X104374000Y-115250000I0J150000D01*
G01*
X104374000Y-113600000D01*
G75*
G02*
X104524000Y-113450000I150000J0D01*
G01*
G37*
%TD.AperFunction*%
%TO.P,U1,2*%
%TO.N,Net-(Q1-Pad2)*%
%TA.AperFunction,SMDPad,CuDef*%
G36*
G01*
X105794000Y-113450000D02*
X106094000Y-113450000D01*
G75*
G02*
X106244000Y-113600000I0J-150000D01*
G01*
X106244000Y-115250000D01*
G75*
G02*
X106094000Y-115400000I-150000J0D01*
G01*
X105794000Y-115400000D01*
G75*
G02*
X105644000Y-115250000I0J150000D01*
G01*
X105644000Y-113600000D01*
G75*
G02*
X105794000Y-113450000I150000J0D01*
G01*
G37*
%TD.AperFunction*%
%TO.P,U1,3*%
%TO.N,Net-(Q2-Pad2)*%
%TA.AperFunction,SMDPad,CuDef*%
G36*
G01*
X107064000Y-113450000D02*
X107364000Y-113450000D01*
G75*
G02*
X107514000Y-113600000I0J-150000D01*
G01*
X107514000Y-115250000D01*
G75*
G02*
X107364000Y-115400000I-150000J0D01*
G01*
X107064000Y-115400000D01*
G75*
G02*
X106914000Y-115250000I0J150000D01*
G01*
X106914000Y-113600000D01*
G75*
G02*
X107064000Y-113450000I150000J0D01*
G01*
G37*
%TD.AperFunction*%
%TO.P,U1,4*%
%TO.N,GND*%
%TA.AperFunction,SMDPad,CuDef*%
G36*
G01*
X108334000Y-113450000D02*
X108634000Y-113450000D01*
G75*
G02*
X108784000Y-113600000I0J-150000D01*
G01*
X108784000Y-115250000D01*
G75*
G02*
X108634000Y-115400000I-150000J0D01*
G01*
X108334000Y-115400000D01*
G75*
G02*
X108184000Y-115250000I0J150000D01*
G01*
X108184000Y-113600000D01*
G75*
G02*
X108334000Y-113450000I150000J0D01*
G01*
G37*
%TD.AperFunction*%
%TO.P,U1,5*%
%TO.N,GND2*%
%TA.AperFunction,SMDPad,CuDef*%
G36*
G01*
X108334000Y-118400000D02*
X108634000Y-118400000D01*
G75*
G02*
X108784000Y-118550000I0J-150000D01*
G01*
X108784000Y-120200000D01*
G75*
G02*
X108634000Y-120350000I-150000J0D01*
G01*
X108334000Y-120350000D01*
G75*
G02*
X108184000Y-120200000I0J150000D01*
G01*
X108184000Y-118550000D01*
G75*
G02*
X108334000Y-118400000I150000J0D01*
G01*
G37*
%TD.AperFunction*%
%TO.P,U1,6*%
%TO.N,Net-(Q6-Pad2)*%
%TA.AperFunction,SMDPad,CuDef*%
G36*
G01*
X107064000Y-118400000D02*
X107364000Y-118400000D01*
G75*
G02*
X107514000Y-118550000I0J-150000D01*
G01*
X107514000Y-120200000D01*
G75*
G02*
X107364000Y-120350000I-150000J0D01*
G01*
X107064000Y-120350000D01*
G75*
G02*
X106914000Y-120200000I0J150000D01*
G01*
X106914000Y-118550000D01*
G75*
G02*
X107064000Y-118400000I150000J0D01*
G01*
G37*
%TD.AperFunction*%
%TO.P,U1,7*%
%TO.N,Net-(Q5-Pad2)*%
%TA.AperFunction,SMDPad,CuDef*%
G36*
G01*
X105794000Y-118400000D02*
X106094000Y-118400000D01*
G75*
G02*
X106244000Y-118550000I0J-150000D01*
G01*
X106244000Y-120200000D01*
G75*
G02*
X106094000Y-120350000I-150000J0D01*
G01*
X105794000Y-120350000D01*
G75*
G02*
X105644000Y-120200000I0J150000D01*
G01*
X105644000Y-118550000D01*
G75*
G02*
X105794000Y-118400000I150000J0D01*
G01*
G37*
%TD.AperFunction*%
%TO.P,U1,8*%
%TO.N,VCCQ*%
%TA.AperFunction,SMDPad,CuDef*%
G36*
G01*
X104524000Y-118400000D02*
X104824000Y-118400000D01*
G75*
G02*
X104974000Y-118550000I0J-150000D01*
G01*
X104974000Y-120200000D01*
G75*
G02*
X104824000Y-120350000I-150000J0D01*
G01*
X104524000Y-120350000D01*
G75*
G02*
X104374000Y-120200000I0J150000D01*
G01*
X104374000Y-118550000D01*
G75*
G02*
X104524000Y-118400000I150000J0D01*
G01*
G37*
%TD.AperFunction*%
%TD*%
%TO.P,U1,1*%
%TO.N,VCC*%
%TA.AperFunction,SMDPad,CuDef*%
G36*
G01*
X92024000Y-113450000D02*
X92324000Y-113450000D01*
G75*
G02*
X92474000Y-113600000I0J-150000D01*
G01*
X92474000Y-115250000D01*
G75*
G02*
X92324000Y-115400000I-150000J0D01*
G01*
X92024000Y-115400000D01*
G75*
G02*
X91874000Y-115250000I0J150000D01*
G01*
X91874000Y-113600000D01*
G75*
G02*
X92024000Y-113450000I150000J0D01*
G01*
G37*
%TD.AperFunction*%
%TO.P,U1,2*%
%TO.N,Net-(Q1-Pad2)*%
%TA.AperFunction,SMDPad,CuDef*%
G36*
G01*
X93294000Y-113450000D02*
X93594000Y-113450000D01*
G75*
G02*
X93744000Y-113600000I0J-150000D01*
G01*
X93744000Y-115250000D01*
G75*
G02*
X93594000Y-115400000I-150000J0D01*
G01*
X93294000Y-115400000D01*
G75*
G02*
X93144000Y-115250000I0J150000D01*
G01*
X93144000Y-113600000D01*
G75*
G02*
X93294000Y-113450000I150000J0D01*
G01*
G37*
%TD.AperFunction*%
%TO.P,U1,3*%
%TO.N,Net-(Q2-Pad2)*%
%TA.AperFunction,SMDPad,CuDef*%
G36*
G01*
X94564000Y-113450000D02*
X94864000Y-113450000D01*
G75*
G02*
X95014000Y-113600000I0J-150000D01*
G01*
X95014000Y-115250000D01*
G75*
G02*
X94864000Y-115400000I-150000J0D01*
G01*
X94564000Y-115400000D01*
G75*
G02*
X94414000Y-115250000I0J150000D01*
G01*
X94414000Y-113600000D01*
G75*
G02*
X94564000Y-113450000I150000J0D01*
G01*
G37*
%TD.AperFunction*%
%TO.P,U1,4*%
%TO.N,GND*%
%TA.AperFunction,SMDPad,CuDef*%
G36*
G01*
X95834000Y-113450000D02*
X96134000Y-113450000D01*
G75*
G02*
X96284000Y-113600000I0J-150000D01*
G01*
X96284000Y-115250000D01*
G75*
G02*
X96134000Y-115400000I-150000J0D01*
G01*
X95834000Y-115400000D01*
G75*
G02*
X95684000Y-115250000I0J150000D01*
G01*
X95684000Y-113600000D01*
G75*
G02*
X95834000Y-113450000I150000J0D01*
G01*
G37*
%TD.AperFunction*%
%TO.P,U1,5*%
%TO.N,GND2*%
%TA.AperFunction,SMDPad,CuDef*%
G36*
G01*
X95834000Y-118400000D02*
X96134000Y-118400000D01*
G75*
G02*
X96284000Y-118550000I0J-150000D01*
G01*
X96284000Y-120200000D01*
G75*
G02*
X96134000Y-120350000I-150000J0D01*
G01*
X95834000Y-120350000D01*
G75*
G02*
X95684000Y-120200000I0J150000D01*
G01*
X95684000Y-118550000D01*
G75*
G02*
X95834000Y-118400000I150000J0D01*
G01*
G37*
%TD.AperFunction*%
%TO.P,U1,6*%
%TO.N,Net-(Q6-Pad2)*%
%TA.AperFunction,SMDPad,CuDef*%
G36*
G01*
X94564000Y-118400000D02*
X94864000Y-118400000D01*
G75*
G02*
X95014000Y-118550000I0J-150000D01*
G01*
X95014000Y-120200000D01*
G75*
G02*
X94864000Y-120350000I-150000J0D01*
G01*
X94564000Y-120350000D01*
G75*
G02*
X94414000Y-120200000I0J150000D01*
G01*
X94414000Y-118550000D01*
G75*
G02*
X94564000Y-118400000I150000J0D01*
G01*
G37*
%TD.AperFunction*%
%TO.P,U1,7*%
%TO.N,Net-(Q5-Pad2)*%
%TA.AperFunction,SMDPad,CuDef*%
G36*
G01*
X93294000Y-118400000D02*
X93594000Y-118400000D01*
G75*
G02*
X93744000Y-118550000I0J-150000D01*
G01*
X93744000Y-120200000D01*
G75*
G02*
X93594000Y-120350000I-150000J0D01*
G01*
X93294000Y-120350000D01*
G75*
G02*
X93144000Y-120200000I0J150000D01*
G01*
X93144000Y-118550000D01*
G75*
G02*
X93294000Y-118400000I150000J0D01*
G01*
G37*
%TD.AperFunction*%
%TO.P,U1,8*%
%TO.N,VCCQ*%
%TA.AperFunction,SMDPad,CuDef*%
G36*
G01*
X92024000Y-118400000D02*
X92324000Y-118400000D01*
G75*
G02*
X92474000Y-118550000I0J-150000D01*
G01*
X92474000Y-120200000D01*
G75*
G02*
X92324000Y-120350000I-150000J0D01*
G01*
X92024000Y-120350000D01*
G75*
G02*
X91874000Y-120200000I0J150000D01*
G01*
X91874000Y-118550000D01*
G75*
G02*
X92024000Y-118400000I150000J0D01*
G01*
G37*
%TD.AperFunction*%
%TD*%
%TO.P,U1,1*%
%TO.N,VCC*%
%TA.AperFunction,SMDPad,CuDef*%
G36*
G01*
X79524000Y-113450000D02*
X79824000Y-113450000D01*
G75*
G02*
X79974000Y-113600000I0J-150000D01*
G01*
X79974000Y-115250000D01*
G75*
G02*
X79824000Y-115400000I-150000J0D01*
G01*
X79524000Y-115400000D01*
G75*
G02*
X79374000Y-115250000I0J150000D01*
G01*
X79374000Y-113600000D01*
G75*
G02*
X79524000Y-113450000I150000J0D01*
G01*
G37*
%TD.AperFunction*%
%TO.P,U1,2*%
%TO.N,Net-(Q1-Pad2)*%
%TA.AperFunction,SMDPad,CuDef*%
G36*
G01*
X80794000Y-113450000D02*
X81094000Y-113450000D01*
G75*
G02*
X81244000Y-113600000I0J-150000D01*
G01*
X81244000Y-115250000D01*
G75*
G02*
X81094000Y-115400000I-150000J0D01*
G01*
X80794000Y-115400000D01*
G75*
G02*
X80644000Y-115250000I0J150000D01*
G01*
X80644000Y-113600000D01*
G75*
G02*
X80794000Y-113450000I150000J0D01*
G01*
G37*
%TD.AperFunction*%
%TO.P,U1,3*%
%TO.N,Net-(Q2-Pad2)*%
%TA.AperFunction,SMDPad,CuDef*%
G36*
G01*
X82064000Y-113450000D02*
X82364000Y-113450000D01*
G75*
G02*
X82514000Y-113600000I0J-150000D01*
G01*
X82514000Y-115250000D01*
G75*
G02*
X82364000Y-115400000I-150000J0D01*
G01*
X82064000Y-115400000D01*
G75*
G02*
X81914000Y-115250000I0J150000D01*
G01*
X81914000Y-113600000D01*
G75*
G02*
X82064000Y-113450000I150000J0D01*
G01*
G37*
%TD.AperFunction*%
%TO.P,U1,4*%
%TO.N,GND*%
%TA.AperFunction,SMDPad,CuDef*%
G36*
G01*
X83334000Y-113450000D02*
X83634000Y-113450000D01*
G75*
G02*
X83784000Y-113600000I0J-150000D01*
G01*
X83784000Y-115250000D01*
G75*
G02*
X83634000Y-115400000I-150000J0D01*
G01*
X83334000Y-115400000D01*
G75*
G02*
X83184000Y-115250000I0J150000D01*
G01*
X83184000Y-113600000D01*
G75*
G02*
X83334000Y-113450000I150000J0D01*
G01*
G37*
%TD.AperFunction*%
%TO.P,U1,5*%
%TO.N,GND2*%
%TA.AperFunction,SMDPad,CuDef*%
G36*
G01*
X83334000Y-118400000D02*
X83634000Y-118400000D01*
G75*
G02*
X83784000Y-118550000I0J-150000D01*
G01*
X83784000Y-120200000D01*
G75*
G02*
X83634000Y-120350000I-150000J0D01*
G01*
X83334000Y-120350000D01*
G75*
G02*
X83184000Y-120200000I0J150000D01*
G01*
X83184000Y-118550000D01*
G75*
G02*
X83334000Y-118400000I150000J0D01*
G01*
G37*
%TD.AperFunction*%
%TO.P,U1,6*%
%TO.N,Net-(Q6-Pad2)*%
%TA.AperFunction,SMDPad,CuDef*%
G36*
G01*
X82064000Y-118400000D02*
X82364000Y-118400000D01*
G75*
G02*
X82514000Y-118550000I0J-150000D01*
G01*
X82514000Y-120200000D01*
G75*
G02*
X82364000Y-120350000I-150000J0D01*
G01*
X82064000Y-120350000D01*
G75*
G02*
X81914000Y-120200000I0J150000D01*
G01*
X81914000Y-118550000D01*
G75*
G02*
X82064000Y-118400000I150000J0D01*
G01*
G37*
%TD.AperFunction*%
%TO.P,U1,7*%
%TO.N,Net-(Q5-Pad2)*%
%TA.AperFunction,SMDPad,CuDef*%
G36*
G01*
X80794000Y-118400000D02*
X81094000Y-118400000D01*
G75*
G02*
X81244000Y-118550000I0J-150000D01*
G01*
X81244000Y-120200000D01*
G75*
G02*
X81094000Y-120350000I-150000J0D01*
G01*
X80794000Y-120350000D01*
G75*
G02*
X80644000Y-120200000I0J150000D01*
G01*
X80644000Y-118550000D01*
G75*
G02*
X80794000Y-118400000I150000J0D01*
G01*
G37*
%TD.AperFunction*%
%TO.P,U1,8*%
%TO.N,VCCQ*%
%TA.AperFunction,SMDPad,CuDef*%
G36*
G01*
X79524000Y-118400000D02*
X79824000Y-118400000D01*
G75*
G02*
X79974000Y-118550000I0J-150000D01*
G01*
X79974000Y-120200000D01*
G75*
G02*
X79824000Y-120350000I-150000J0D01*
G01*
X79524000Y-120350000D01*
G75*
G02*
X79374000Y-120200000I0J150000D01*
G01*
X79374000Y-118550000D01*
G75*
G02*
X79524000Y-118400000I150000J0D01*
G01*
G37*
%TD.AperFunction*%
%TD*%
D12*
%TO.P,J2,1*%
%TO.N,VCCQ*%
X105944000Y-125536000D03*
D13*
%TO.P,J2,2*%
%TO.N,GND2*%
X107214000Y-125536000D03*
%TO.P,J2,3*%
%TO.N,/SDAq*%
X105944000Y-126806000D03*
%TO.P,J2,4*%
%TO.N,/SCLq*%
X107214000Y-126806000D03*
%TO.P,J2,5*%
%TO.N,/outa*%
X105944000Y-128076000D03*
%TO.P,J2,6*%
%TO.N,/inb*%
X107214000Y-128076000D03*
%TD*%
D12*
%TO.P,J2,1*%
%TO.N,VCCQ*%
X93444000Y-125536000D03*
D13*
%TO.P,J2,2*%
%TO.N,GND2*%
X94714000Y-125536000D03*
%TO.P,J2,3*%
%TO.N,/SDAq*%
X93444000Y-126806000D03*
%TO.P,J2,4*%
%TO.N,/SCLq*%
X94714000Y-126806000D03*
%TO.P,J2,5*%
%TO.N,/outa*%
X93444000Y-128076000D03*
%TO.P,J2,6*%
%TO.N,/inb*%
X94714000Y-128076000D03*
%TD*%
D12*
%TO.P,J2,1*%
%TO.N,VCCQ*%
X80944000Y-125536000D03*
D13*
%TO.P,J2,2*%
%TO.N,GND2*%
X82214000Y-125536000D03*
%TO.P,J2,3*%
%TO.N,/SDAq*%
X80944000Y-126806000D03*
%TO.P,J2,4*%
%TO.N,/SCLq*%
X82214000Y-126806000D03*
%TO.P,J2,5*%
%TO.N,/outa*%
X80944000Y-128076000D03*
%TO.P,J2,6*%
%TO.N,/inb*%
X82214000Y-128076000D03*
%TD*%
D12*
%TO.P,J1,1*%
%TO.N,/ina*%
X105944000Y-105724000D03*
D13*
%TO.P,J1,2*%
%TO.N,/outb*%
X107214000Y-105724000D03*
%TO.P,J1,3*%
%TO.N,/SDA*%
X105944000Y-106994000D03*
%TO.P,J1,4*%
%TO.N,/SCL*%
X107214000Y-106994000D03*
%TO.P,J1,5*%
%TO.N,VCC*%
X105944000Y-108264000D03*
%TO.P,J1,6*%
%TO.N,GND*%
X107214000Y-108264000D03*
%TD*%
D12*
%TO.P,J1,1*%
%TO.N,/ina*%
X93444000Y-105724000D03*
D13*
%TO.P,J1,2*%
%TO.N,/outb*%
X94714000Y-105724000D03*
%TO.P,J1,3*%
%TO.N,/SDA*%
X93444000Y-106994000D03*
%TO.P,J1,4*%
%TO.N,/SCL*%
X94714000Y-106994000D03*
%TO.P,J1,5*%
%TO.N,VCC*%
X93444000Y-108264000D03*
%TO.P,J1,6*%
%TO.N,GND*%
X94714000Y-108264000D03*
%TD*%
D12*
%TO.P,J1,1*%
%TO.N,/ina*%
X80944000Y-105724000D03*
D13*
%TO.P,J1,2*%
%TO.N,/outb*%
X82214000Y-105724000D03*
%TO.P,J1,3*%
%TO.N,/SDA*%
X80944000Y-106994000D03*
%TO.P,J1,4*%
%TO.N,/SCL*%
X82214000Y-106994000D03*
%TO.P,J1,5*%
%TO.N,VCC*%
X80944000Y-108264000D03*
%TO.P,J1,6*%
%TO.N,GND*%
X82214000Y-108264000D03*
%TD*%
D14*
%TO.P,U7,B6*%
%TO.N,/Int*%
X88691000Y-63287000D03*
%TO.P,U7,B5*%
%TO.N,/+5V_valid*%
X88691000Y-62017000D03*
%TO.P,U7,B4*%
%TO.N,/I2C_SCL*%
X87421000Y-63287000D03*
%TO.P,U7,B3*%
%TO.N,/I2C_SDA*%
X87421000Y-62017000D03*
%TO.P,U7,B2*%
%TO.N,GNDPWR*%
X86151000Y-63287000D03*
D12*
%TO.P,U7,B1*%
%TO.N,+3.3VP*%
X86151000Y-62017000D03*
D14*
%TO.P,U7,A6*%
%TO.N,GND1*%
X68879000Y-63287000D03*
%TO.P,U7,A5*%
%TO.N,+5P*%
X68879000Y-62017000D03*
%TO.P,U7,A4*%
%TO.N,/scl0*%
X67609000Y-63287000D03*
%TO.P,U7,A3*%
%TO.N,/sda0*%
X67609000Y-62017000D03*
%TO.P,U7,A2*%
%TO.N,/I2C_Int*%
X66339000Y-63287000D03*
D12*
%TO.P,U7,A1*%
%TO.N,/+5V_state*%
X66339000Y-62017000D03*
%TD*%
D15*
%TO.P,U4,7*%
%TO.N,Net-(JP6-Pad1)*%
X71927000Y-72558000D03*
%TO.P,U4,6*%
%TO.N,GNDPWR*%
X71927000Y-70018000D03*
%TO.P,U4,5*%
%TO.N,Net-(JP5-Pad1)*%
X71936500Y-67478000D03*
%TO.P,U4,4*%
%TO.N,/+5V_state*%
X71927000Y-62398000D03*
%TO.P,U4,3*%
%TO.N,+5P*%
X71927000Y-59858000D03*
%TO.P,U4,2*%
%TO.N,GND1*%
X71927000Y-57318000D03*
D16*
%TO.P,U4,1*%
%TO.N,Net-(C6-Pad2)*%
X71927000Y-54778000D03*
%TD*%
D17*
%TO.P,U1,1*%
%TO.N,Net-(J1-Pad1)*%
X65958000Y-75733000D03*
D18*
%TO.P,U1,2*%
%TO.N,Net-(J1-Pad3)*%
X65958000Y-70653000D03*
%TO.P,U1,3*%
%TO.N,+5V*%
X65958000Y-57953000D03*
%TO.P,U1,4*%
%TO.N,GND1*%
X65958000Y-55413000D03*
%TD*%
D19*
%TO.P,J4,3*%
%TO.N,/Load2N*%
X103042000Y-76622000D03*
%TO.P,J4,2*%
%TO.N,N/C*%
X105582000Y-76622000D03*
D20*
%TO.P,J4,1*%
%TO.N,Net-(J4-Pad1)*%
X108122000Y-76114000D03*
%TD*%
D19*
%TO.P,J3,3*%
%TO.N,/Load1N*%
X93136000Y-76622000D03*
%TO.P,J3,2*%
%TO.N,N/C*%
X95676000Y-76622000D03*
D20*
%TO.P,J3,1*%
%TO.N,Net-(J3-Pad1)*%
X98216000Y-76114000D03*
%TD*%
D19*
%TO.P,J1,3*%
%TO.N,Net-(J1-Pad3)*%
X60878000Y-76622000D03*
%TO.P,J1,2*%
%TO.N,N/C*%
X63418000Y-76622000D03*
D20*
%TO.P,J1,1*%
%TO.N,Net-(J1-Pad1)*%
X65958000Y-76114000D03*
%TD*%
D13*
%TO.P,JP4,4*%
%TO.N,/nRst*%
X88310000Y-56302000D03*
%TO.P,JP4,3*%
%TO.N,GNDPWR*%
X88310000Y-55032000D03*
%TO.P,JP4,2*%
%TO.N,Net-(JP4-Pad2)*%
X87040000Y-56302000D03*
D12*
%TO.P,JP4,1*%
%TO.N,GNDPWR*%
X87040000Y-55032000D03*
%TD*%
D13*
%TO.P,J6,6*%
%TO.N,/sda0*%
X73959000Y-58080000D03*
%TO.P,J6,5*%
%TO.N,/scl0*%
X73959000Y-59350000D03*
%TO.P,J6,4*%
%TO.N,GND1*%
X75229000Y-58080000D03*
%TO.P,J6,3*%
X75229000Y-59350000D03*
%TO.P,J6,2*%
%TO.N,/I2C_Int*%
X76499000Y-58080000D03*
D12*
%TO.P,J6,1*%
%TO.N,/+5V_state*%
X76499000Y-59350000D03*
%TD*%
D21*
%TO.P,KP1,1*%
%TO.N,Net-(KP1-Pad1)*%
X73705000Y-64557000D03*
%TD*%
D22*
%TO.P,F1,2*%
%TO.N,Net-(F1-Pad2)*%
X97200000Y-63922000D03*
D15*
%TO.P,F1,1*%
%TO.N,AC*%
X97200000Y-71542000D03*
%TD*%
%TO.P,R27,2*%
%TO.N,Net-(R27-Pad2)*%
%TA.AperFunction,SMDPad,CuDef*%
G36*
G01*
X91337000Y-63648000D02*
X91887000Y-63648000D01*
G75*
G02*
X92087000Y-63848000I0J-200000D01*
G01*
X92087000Y-64248000D01*
G75*
G02*
X91887000Y-64448000I-200000J0D01*
G01*
X91337000Y-64448000D01*
G75*
G02*
X91137000Y-64248000I0J200000D01*
G01*
X91137000Y-63848000D01*
G75*
G02*
X91337000Y-63648000I200000J0D01*
G01*
G37*
%TD.AperFunction*%
%TO.P,R27,1*%
%TO.N,+3.3VP*%
%TA.AperFunction,SMDPad,CuDef*%
G36*
G01*
X91337000Y-61998000D02*
X91887000Y-61998000D01*
G75*
G02*
X92087000Y-62198000I0J-200000D01*
G01*
X92087000Y-62598000D01*
G75*
G02*
X91887000Y-62798000I-200000J0D01*
G01*
X91337000Y-62798000D01*
G75*
G02*
X91137000Y-62598000I0J200000D01*
G01*
X91137000Y-62198000D01*
G75*
G02*
X91337000Y-61998000I200000J0D01*
G01*
G37*
%TD.AperFunction*%
%TD*%
%TO.P,L1,2*%
%TO.N,Net-(C17-Pad2)*%
%TA.AperFunction,SMDPad,CuDef*%
G36*
G01*
X77049500Y-73135001D02*
X77049500Y-72234999D01*
G75*
G02*
X77299499Y-71985000I249999J0D01*
G01*
X77824501Y-71985000D01*
G75*
G02*
X78074500Y-72234999I0J-249999D01*
G01*
X78074500Y-73135001D01*
G75*
G02*
X77824501Y-73385000I-249999J0D01*
G01*
X77299499Y-73385000D01*
G75*
G02*
X77049500Y-73135001I0J249999D01*
G01*
G37*
%TD.AperFunction*%
%TO.P,L1,1*%
%TO.N,+3.3VP*%
%TA.AperFunction,SMDPad,CuDef*%
G36*
G01*
X75224500Y-73135001D02*
X75224500Y-72234999D01*
G75*
G02*
X75474499Y-71985000I249999J0D01*
G01*
X75999501Y-71985000D01*
G75*
G02*
X76249500Y-72234999I0J-249999D01*
G01*
X76249500Y-73135001D01*
G75*
G02*
X75999501Y-73385000I-249999J0D01*
G01*
X75474499Y-73385000D01*
G75*
G02*
X75224500Y-73135001I0J249999D01*
G01*
G37*
%TD.AperFunction*%
%TD*%
%TO.P,C16,2*%
%TO.N,+3.3VP*%
%TA.AperFunction,SMDPad,CuDef*%
G36*
G01*
X86536000Y-65784000D02*
X87036000Y-65784000D01*
G75*
G02*
X87261000Y-66009000I0J-225000D01*
G01*
X87261000Y-66459000D01*
G75*
G02*
X87036000Y-66684000I-225000J0D01*
G01*
X86536000Y-66684000D01*
G75*
G02*
X86311000Y-66459000I0J225000D01*
G01*
X86311000Y-66009000D01*
G75*
G02*
X86536000Y-65784000I225000J0D01*
G01*
G37*
%TD.AperFunction*%
%TO.P,C16,1*%
%TO.N,GNDPWR*%
%TA.AperFunction,SMDPad,CuDef*%
G36*
G01*
X86536000Y-64234000D02*
X87036000Y-64234000D01*
G75*
G02*
X87261000Y-64459000I0J-225000D01*
G01*
X87261000Y-64909000D01*
G75*
G02*
X87036000Y-65134000I-225000J0D01*
G01*
X86536000Y-65134000D01*
G75*
G02*
X86311000Y-64909000I0J225000D01*
G01*
X86311000Y-64459000D01*
G75*
G02*
X86536000Y-64234000I225000J0D01*
G01*
G37*
%TD.AperFunction*%
%TD*%
%TO.P,C14,2*%
%TO.N,Net-(C14-Pad2)*%
%TA.AperFunction,SMDPad,CuDef*%
G36*
G01*
X80479000Y-71927000D02*
X80479000Y-72427000D01*
G75*
G02*
X80254000Y-72652000I-225000J0D01*
G01*
X79804000Y-72652000D01*
G75*
G02*
X79579000Y-72427000I0J225000D01*
G01*
X79579000Y-71927000D01*
G75*
G02*
X79804000Y-71702000I225000J0D01*
G01*
X80254000Y-71702000D01*
G75*
G02*
X80479000Y-71927000I0J-225000D01*
G01*
G37*
%TD.AperFunction*%
%TO.P,C14,1*%
%TO.N,GNDPWR*%
%TA.AperFunction,SMDPad,CuDef*%
G36*
G01*
X82029000Y-71927000D02*
X82029000Y-72427000D01*
G75*
G02*
X81804000Y-72652000I-225000J0D01*
G01*
X81354000Y-72652000D01*
G75*
G02*
X81129000Y-72427000I0J225000D01*
G01*
X81129000Y-71927000D01*
G75*
G02*
X81354000Y-71702000I225000J0D01*
G01*
X81804000Y-71702000D01*
G75*
G02*
X82029000Y-71927000I0J-225000D01*
G01*
G37*
%TD.AperFunction*%
%TD*%
D23*
%TO.P,GND1,1*%
%TO.N,GND1*%
X63037000Y-65065000D03*
%TD*%
D24*
%TO.P,Y2,3*%
%TO.N,N/C*%
X84430000Y-58715000D03*
%TO.P,Y2,2*%
%TO.N,Net-(C18-Pad2)*%
X83230000Y-58715000D03*
%TO.P,Y2,1*%
%TO.N,Net-(C19-Pad2)*%
X82030000Y-58715000D03*
%TD*%
D25*
%TO.P,U6,16*%
%TO.N,+3.3VP*%
X85307000Y-64472000D03*
%TO.P,U6,15*%
%TO.N,/Int*%
X84657000Y-64472000D03*
%TO.P,U6,14*%
%TO.N,Net-(R26-Pad1)*%
X84007000Y-64472000D03*
%TO.P,U6,13*%
%TO.N,Net-(C18-Pad2)*%
X83357000Y-64472000D03*
%TO.P,U6,12*%
%TO.N,Net-(R27-Pad2)*%
X82707000Y-64472000D03*
%TO.P,U6,11*%
%TO.N,/SPI_SSEL*%
X82057000Y-64472000D03*
%TO.P,U6,10*%
%TO.N,/SPI_SCLK*%
X81407000Y-64472000D03*
%TO.P,U6,9*%
%TO.N,/SPI_MOSI*%
X80757000Y-64472000D03*
%TO.P,U6,8*%
%TO.N,/SPI_MISO*%
X80757000Y-70272000D03*
%TO.P,U6,7*%
%TO.N,Net-(C14-Pad2)*%
X81407000Y-70272000D03*
%TO.P,U6,6*%
%TO.N,GNDPWR*%
X82057000Y-70272000D03*
%TO.P,U6,5*%
%TO.N,Net-(C13-Pad2)*%
X82707000Y-70272000D03*
%TO.P,U6,4*%
%TO.N,Net-(C12-Pad1)*%
X83357000Y-70272000D03*
%TO.P,U6,3*%
%TO.N,Net-(C11-Pad2)*%
X84007000Y-70272000D03*
%TO.P,U6,2*%
%TO.N,Net-(C10-Pad1)*%
X84657000Y-70272000D03*
%TO.P,U6,1*%
%TO.N,Net-(C9-Pad2)*%
X85307000Y-70272000D03*
%TD*%
%TO.P,R26,2*%
%TO.N,Net-(C19-Pad2)*%
%TA.AperFunction,SMDPad,CuDef*%
G36*
G01*
X82868000Y-61107000D02*
X82868000Y-61657000D01*
G75*
G02*
X82668000Y-61857000I-200000J0D01*
G01*
X82268000Y-61857000D01*
G75*
G02*
X82068000Y-61657000I0J200000D01*
G01*
X82068000Y-61107000D01*
G75*
G02*
X82268000Y-60907000I200000J0D01*
G01*
X82668000Y-60907000D01*
G75*
G02*
X82868000Y-61107000I0J-200000D01*
G01*
G37*
%TD.AperFunction*%
%TO.P,R26,1*%
%TO.N,Net-(R26-Pad1)*%
%TA.AperFunction,SMDPad,CuDef*%
G36*
G01*
X84518000Y-61107000D02*
X84518000Y-61657000D01*
G75*
G02*
X84318000Y-61857000I-200000J0D01*
G01*
X83918000Y-61857000D01*
G75*
G02*
X83718000Y-61657000I0J200000D01*
G01*
X83718000Y-61107000D01*
G75*
G02*
X83918000Y-60907000I200000J0D01*
G01*
X84318000Y-60907000D01*
G75*
G02*
X84518000Y-61107000I0J-200000D01*
G01*
G37*
%TD.AperFunction*%
%TD*%
%TO.P,R22,2*%
%TO.N,GNDPWR*%
%TA.AperFunction,SMDPad,CuDef*%
G36*
G01*
X85003500Y-75548001D02*
X85003500Y-74647999D01*
G75*
G02*
X85253499Y-74398000I249999J0D01*
G01*
X85778501Y-74398000D01*
G75*
G02*
X86028500Y-74647999I0J-249999D01*
G01*
X86028500Y-75548001D01*
G75*
G02*
X85778501Y-75798000I-249999J0D01*
G01*
X85253499Y-75798000D01*
G75*
G02*
X85003500Y-75548001I0J249999D01*
G01*
G37*
%TD.AperFunction*%
%TO.P,R22,1*%
%TO.N,Net-(C13-Pad2)*%
%TA.AperFunction,SMDPad,CuDef*%
G36*
G01*
X83178500Y-75548001D02*
X83178500Y-74647999D01*
G75*
G02*
X83428499Y-74398000I249999J0D01*
G01*
X83953501Y-74398000D01*
G75*
G02*
X84203500Y-74647999I0J-249999D01*
G01*
X84203500Y-75548001D01*
G75*
G02*
X83953501Y-75798000I-249999J0D01*
G01*
X83428499Y-75798000D01*
G75*
G02*
X83178500Y-75548001I0J249999D01*
G01*
G37*
%TD.AperFunction*%
%TD*%
%TO.P,R17,2*%
%TO.N,Net-(R11-Pad1)*%
%TA.AperFunction,SMDPad,CuDef*%
G36*
G01*
X80567500Y-74647999D02*
X80567500Y-75548001D01*
G75*
G02*
X80317501Y-75798000I-249999J0D01*
G01*
X79792499Y-75798000D01*
G75*
G02*
X79542500Y-75548001I0J249999D01*
G01*
X79542500Y-74647999D01*
G75*
G02*
X79792499Y-74398000I249999J0D01*
G01*
X80317501Y-74398000D01*
G75*
G02*
X80567500Y-74647999I0J-249999D01*
G01*
G37*
%TD.AperFunction*%
%TO.P,R17,1*%
%TO.N,Net-(C13-Pad2)*%
%TA.AperFunction,SMDPad,CuDef*%
G36*
G01*
X82392500Y-74647999D02*
X82392500Y-75548001D01*
G75*
G02*
X82142501Y-75798000I-249999J0D01*
G01*
X81617499Y-75798000D01*
G75*
G02*
X81367500Y-75548001I0J249999D01*
G01*
X81367500Y-74647999D01*
G75*
G02*
X81617499Y-74398000I249999J0D01*
G01*
X82142501Y-74398000D01*
G75*
G02*
X82392500Y-74647999I0J-249999D01*
G01*
G37*
%TD.AperFunction*%
%TD*%
%TO.P,R12,2*%
%TO.N,AC*%
%TA.AperFunction,SMDPad,CuDef*%
G36*
G01*
X73455500Y-76679999D02*
X73455500Y-77580001D01*
G75*
G02*
X73205501Y-77830000I-249999J0D01*
G01*
X72680499Y-77830000D01*
G75*
G02*
X72430500Y-77580001I0J249999D01*
G01*
X72430500Y-76679999D01*
G75*
G02*
X72680499Y-76430000I249999J0D01*
G01*
X73205501Y-76430000D01*
G75*
G02*
X73455500Y-76679999I0J-249999D01*
G01*
G37*
%TD.AperFunction*%
%TO.P,R12,1*%
%TO.N,Net-(R11-Pad2)*%
%TA.AperFunction,SMDPad,CuDef*%
G36*
G01*
X75280500Y-76679999D02*
X75280500Y-77580001D01*
G75*
G02*
X75030501Y-77830000I-249999J0D01*
G01*
X74505499Y-77830000D01*
G75*
G02*
X74255500Y-77580001I0J249999D01*
G01*
X74255500Y-76679999D01*
G75*
G02*
X74505499Y-76430000I249999J0D01*
G01*
X75030501Y-76430000D01*
G75*
G02*
X75280500Y-76679999I0J-249999D01*
G01*
G37*
%TD.AperFunction*%
%TD*%
%TO.P,R11,2*%
%TO.N,Net-(R11-Pad2)*%
%TA.AperFunction,SMDPad,CuDef*%
G36*
G01*
X77011500Y-75409999D02*
X77011500Y-76310001D01*
G75*
G02*
X76761501Y-76560000I-249999J0D01*
G01*
X76236499Y-76560000D01*
G75*
G02*
X75986500Y-76310001I0J249999D01*
G01*
X75986500Y-75409999D01*
G75*
G02*
X76236499Y-75160000I249999J0D01*
G01*
X76761501Y-75160000D01*
G75*
G02*
X77011500Y-75409999I0J-249999D01*
G01*
G37*
%TD.AperFunction*%
%TO.P,R11,1*%
%TO.N,Net-(R11-Pad1)*%
%TA.AperFunction,SMDPad,CuDef*%
G36*
G01*
X78836500Y-75409999D02*
X78836500Y-76310001D01*
G75*
G02*
X78586501Y-76560000I-249999J0D01*
G01*
X78061499Y-76560000D01*
G75*
G02*
X77811500Y-76310001I0J249999D01*
G01*
X77811500Y-75409999D01*
G75*
G02*
X78061499Y-75160000I249999J0D01*
G01*
X78586501Y-75160000D01*
G75*
G02*
X78836500Y-75409999I0J-249999D01*
G01*
G37*
%TD.AperFunction*%
%TD*%
%TO.P,R7,2*%
%TO.N,GNDPWR*%
%TA.AperFunction,SMDPad,CuDef*%
G36*
G01*
X92013000Y-59202000D02*
X92013000Y-59752000D01*
G75*
G02*
X91813000Y-59952000I-200000J0D01*
G01*
X91413000Y-59952000D01*
G75*
G02*
X91213000Y-59752000I0J200000D01*
G01*
X91213000Y-59202000D01*
G75*
G02*
X91413000Y-59002000I200000J0D01*
G01*
X91813000Y-59002000D01*
G75*
G02*
X92013000Y-59202000I0J-200000D01*
G01*
G37*
%TD.AperFunction*%
%TO.P,R7,1*%
%TO.N,Net-(Q1-Pad1)*%
%TA.AperFunction,SMDPad,CuDef*%
G36*
G01*
X93663000Y-59202000D02*
X93663000Y-59752000D01*
G75*
G02*
X93463000Y-59952000I-200000J0D01*
G01*
X93063000Y-59952000D01*
G75*
G02*
X92863000Y-59752000I0J200000D01*
G01*
X92863000Y-59202000D01*
G75*
G02*
X93063000Y-59002000I200000J0D01*
G01*
X93463000Y-59002000D01*
G75*
G02*
X93663000Y-59202000I0J-200000D01*
G01*
G37*
%TD.AperFunction*%
%TD*%
%TO.P,R3,2*%
%TO.N,/L1_o1_nEn*%
%TA.AperFunction,SMDPad,CuDef*%
G36*
G01*
X92013000Y-60726000D02*
X92013000Y-61276000D01*
G75*
G02*
X91813000Y-61476000I-200000J0D01*
G01*
X91413000Y-61476000D01*
G75*
G02*
X91213000Y-61276000I0J200000D01*
G01*
X91213000Y-60726000D01*
G75*
G02*
X91413000Y-60526000I200000J0D01*
G01*
X91813000Y-60526000D01*
G75*
G02*
X92013000Y-60726000I0J-200000D01*
G01*
G37*
%TD.AperFunction*%
%TO.P,R3,1*%
%TO.N,Net-(Q1-Pad1)*%
%TA.AperFunction,SMDPad,CuDef*%
G36*
G01*
X93663000Y-60726000D02*
X93663000Y-61276000D01*
G75*
G02*
X93463000Y-61476000I-200000J0D01*
G01*
X93063000Y-61476000D01*
G75*
G02*
X92863000Y-61276000I0J200000D01*
G01*
X92863000Y-60726000D01*
G75*
G02*
X93063000Y-60526000I200000J0D01*
G01*
X93463000Y-60526000D01*
G75*
G02*
X93663000Y-60726000I0J-200000D01*
G01*
G37*
%TD.AperFunction*%
%TD*%
D11*
%TO.P,Q1,3*%
%TO.N,Net-(C1-Pad1)*%
X92186000Y-55921000D03*
%TO.P,Q1,2*%
%TO.N,GNDPWR*%
X91236000Y-57921000D03*
%TO.P,Q1,1*%
%TO.N,Net-(Q1-Pad1)*%
X93136000Y-57921000D03*
%TD*%
%TO.P,C19,2*%
%TO.N,Net-(C19-Pad2)*%
%TA.AperFunction,SMDPad,CuDef*%
G36*
G01*
X81964000Y-55598000D02*
X82464000Y-55598000D01*
G75*
G02*
X82689000Y-55823000I0J-225000D01*
G01*
X82689000Y-56273000D01*
G75*
G02*
X82464000Y-56498000I-225000J0D01*
G01*
X81964000Y-56498000D01*
G75*
G02*
X81739000Y-56273000I0J225000D01*
G01*
X81739000Y-55823000D01*
G75*
G02*
X81964000Y-55598000I225000J0D01*
G01*
G37*
%TD.AperFunction*%
%TO.P,C19,1*%
%TO.N,GNDPWR*%
%TA.AperFunction,SMDPad,CuDef*%
G36*
G01*
X81964000Y-54048000D02*
X82464000Y-54048000D01*
G75*
G02*
X82689000Y-54273000I0J-225000D01*
G01*
X82689000Y-54723000D01*
G75*
G02*
X82464000Y-54948000I-225000J0D01*
G01*
X81964000Y-54948000D01*
G75*
G02*
X81739000Y-54723000I0J225000D01*
G01*
X81739000Y-54273000D01*
G75*
G02*
X81964000Y-54048000I225000J0D01*
G01*
G37*
%TD.AperFunction*%
%TD*%
%TO.P,C18,2*%
%TO.N,Net-(C18-Pad2)*%
%TA.AperFunction,SMDPad,CuDef*%
G36*
G01*
X83996000Y-55598000D02*
X84496000Y-55598000D01*
G75*
G02*
X84721000Y-55823000I0J-225000D01*
G01*
X84721000Y-56273000D01*
G75*
G02*
X84496000Y-56498000I-225000J0D01*
G01*
X83996000Y-56498000D01*
G75*
G02*
X83771000Y-56273000I0J225000D01*
G01*
X83771000Y-55823000D01*
G75*
G02*
X83996000Y-55598000I225000J0D01*
G01*
G37*
%TD.AperFunction*%
%TO.P,C18,1*%
%TO.N,GNDPWR*%
%TA.AperFunction,SMDPad,CuDef*%
G36*
G01*
X83996000Y-54048000D02*
X84496000Y-54048000D01*
G75*
G02*
X84721000Y-54273000I0J-225000D01*
G01*
X84721000Y-54723000D01*
G75*
G02*
X84496000Y-54948000I-225000J0D01*
G01*
X83996000Y-54948000D01*
G75*
G02*
X83771000Y-54723000I0J225000D01*
G01*
X83771000Y-54273000D01*
G75*
G02*
X83996000Y-54048000I225000J0D01*
G01*
G37*
%TD.AperFunction*%
%TD*%
%TO.P,C13,2*%
%TO.N,Net-(C13-Pad2)*%
%TA.AperFunction,SMDPad,CuDef*%
G36*
G01*
X84116000Y-72464000D02*
X84116000Y-73414000D01*
G75*
G02*
X83866000Y-73664000I-250000J0D01*
G01*
X83366000Y-73664000D01*
G75*
G02*
X83116000Y-73414000I0J250000D01*
G01*
X83116000Y-72464000D01*
G75*
G02*
X83366000Y-72214000I250000J0D01*
G01*
X83866000Y-72214000D01*
G75*
G02*
X84116000Y-72464000I0J-250000D01*
G01*
G37*
%TD.AperFunction*%
%TO.P,C13,1*%
%TO.N,GNDPWR*%
%TA.AperFunction,SMDPad,CuDef*%
G36*
G01*
X86016000Y-72464000D02*
X86016000Y-73414000D01*
G75*
G02*
X85766000Y-73664000I-250000J0D01*
G01*
X85266000Y-73664000D01*
G75*
G02*
X85016000Y-73414000I0J250000D01*
G01*
X85016000Y-72464000D01*
G75*
G02*
X85266000Y-72214000I250000J0D01*
G01*
X85766000Y-72214000D01*
G75*
G02*
X86016000Y-72464000I0J-250000D01*
G01*
G37*
%TD.AperFunction*%
%TD*%
%TO.P,C8,2*%
%TO.N,Net-(C6-Pad2)*%
%TA.AperFunction,SMDPad,CuDef*%
G36*
G01*
X68468000Y-55837000D02*
X67968000Y-55837000D01*
G75*
G02*
X67743000Y-55612000I0J225000D01*
G01*
X67743000Y-55162000D01*
G75*
G02*
X67968000Y-54937000I225000J0D01*
G01*
X68468000Y-54937000D01*
G75*
G02*
X68693000Y-55162000I0J-225000D01*
G01*
X68693000Y-55612000D01*
G75*
G02*
X68468000Y-55837000I-225000J0D01*
G01*
G37*
%TD.AperFunction*%
%TO.P,C8,1*%
%TO.N,GND1*%
%TA.AperFunction,SMDPad,CuDef*%
G36*
G01*
X68468000Y-57387000D02*
X67968000Y-57387000D01*
G75*
G02*
X67743000Y-57162000I0J225000D01*
G01*
X67743000Y-56712000D01*
G75*
G02*
X67968000Y-56487000I225000J0D01*
G01*
X68468000Y-56487000D01*
G75*
G02*
X68693000Y-56712000I0J-225000D01*
G01*
X68693000Y-57162000D01*
G75*
G02*
X68468000Y-57387000I-225000J0D01*
G01*
G37*
%TD.AperFunction*%
%TD*%
%TO.P,C6,2*%
%TO.N,Net-(C6-Pad2)*%
%TA.AperFunction,SMDPad,CuDef*%
G36*
G01*
X70018000Y-55837000D02*
X69518000Y-55837000D01*
G75*
G02*
X69293000Y-55612000I0J225000D01*
G01*
X69293000Y-55162000D01*
G75*
G02*
X69518000Y-54937000I225000J0D01*
G01*
X70018000Y-54937000D01*
G75*
G02*
X70243000Y-55162000I0J-225000D01*
G01*
X70243000Y-55612000D01*
G75*
G02*
X70018000Y-55837000I-225000J0D01*
G01*
G37*
%TD.AperFunction*%
%TO.P,C6,1*%
%TO.N,GND1*%
%TA.AperFunction,SMDPad,CuDef*%
G36*
G01*
X70018000Y-57387000D02*
X69518000Y-57387000D01*
G75*
G02*
X69293000Y-57162000I0J225000D01*
G01*
X69293000Y-56712000D01*
G75*
G02*
X69518000Y-56487000I225000J0D01*
G01*
X70018000Y-56487000D01*
G75*
G02*
X70243000Y-56712000I0J-225000D01*
G01*
X70243000Y-57162000D01*
G75*
G02*
X70018000Y-57387000I-225000J0D01*
G01*
G37*
%TD.AperFunction*%
%TD*%
%TO.P,R4,2*%
%TO.N,/L1_o2_nEn*%
%TA.AperFunction,SMDPad,CuDef*%
G36*
G01*
X101919000Y-60726000D02*
X101919000Y-61276000D01*
G75*
G02*
X101719000Y-61476000I-200000J0D01*
G01*
X101319000Y-61476000D01*
G75*
G02*
X101119000Y-61276000I0J200000D01*
G01*
X101119000Y-60726000D01*
G75*
G02*
X101319000Y-60526000I200000J0D01*
G01*
X101719000Y-60526000D01*
G75*
G02*
X101919000Y-60726000I0J-200000D01*
G01*
G37*
%TD.AperFunction*%
%TO.P,R4,1*%
%TO.N,Net-(Q2-Pad1)*%
%TA.AperFunction,SMDPad,CuDef*%
G36*
G01*
X103569000Y-60726000D02*
X103569000Y-61276000D01*
G75*
G02*
X103369000Y-61476000I-200000J0D01*
G01*
X102969000Y-61476000D01*
G75*
G02*
X102769000Y-61276000I0J200000D01*
G01*
X102769000Y-60726000D01*
G75*
G02*
X102969000Y-60526000I200000J0D01*
G01*
X103369000Y-60526000D01*
G75*
G02*
X103569000Y-60726000I0J-200000D01*
G01*
G37*
%TD.AperFunction*%
%TD*%
%TO.P,R10,2*%
%TO.N,GNDPWR*%
%TA.AperFunction,SMDPad,CuDef*%
G36*
G01*
X101919000Y-59202000D02*
X101919000Y-59752000D01*
G75*
G02*
X101719000Y-59952000I-200000J0D01*
G01*
X101319000Y-59952000D01*
G75*
G02*
X101119000Y-59752000I0J200000D01*
G01*
X101119000Y-59202000D01*
G75*
G02*
X101319000Y-59002000I200000J0D01*
G01*
X101719000Y-59002000D01*
G75*
G02*
X101919000Y-59202000I0J-200000D01*
G01*
G37*
%TD.AperFunction*%
%TO.P,R10,1*%
%TO.N,Net-(Q2-Pad1)*%
%TA.AperFunction,SMDPad,CuDef*%
G36*
G01*
X103569000Y-59202000D02*
X103569000Y-59752000D01*
G75*
G02*
X103369000Y-59952000I-200000J0D01*
G01*
X102969000Y-59952000D01*
G75*
G02*
X102769000Y-59752000I0J200000D01*
G01*
X102769000Y-59202000D01*
G75*
G02*
X102969000Y-59002000I200000J0D01*
G01*
X103369000Y-59002000D01*
G75*
G02*
X103569000Y-59202000I0J-200000D01*
G01*
G37*
%TD.AperFunction*%
%TD*%
%TO.P,Q2,3*%
%TO.N,Net-(C2-Pad1)*%
X102092000Y-55953000D03*
%TO.P,Q2,2*%
%TO.N,GNDPWR*%
X101142000Y-57953000D03*
%TO.P,Q2,1*%
%TO.N,Net-(Q2-Pad1)*%
X103042000Y-57953000D03*
%TD*%
%TO.P,R14,2*%
%TO.N,+3.3VP*%
%TA.AperFunction,SMDPad,CuDef*%
G36*
G01*
X63653000Y-68896000D02*
X63653000Y-68346000D01*
G75*
G02*
X63853000Y-68146000I200000J0D01*
G01*
X64253000Y-68146000D01*
G75*
G02*
X64453000Y-68346000I0J-200000D01*
G01*
X64453000Y-68896000D01*
G75*
G02*
X64253000Y-69096000I-200000J0D01*
G01*
X63853000Y-69096000D01*
G75*
G02*
X63653000Y-68896000I0J200000D01*
G01*
G37*
%TD.AperFunction*%
%TO.P,R14,1*%
%TO.N,Net-(D6-Pad2)*%
%TA.AperFunction,SMDPad,CuDef*%
G36*
G01*
X62003000Y-68896000D02*
X62003000Y-68346000D01*
G75*
G02*
X62203000Y-68146000I200000J0D01*
G01*
X62603000Y-68146000D01*
G75*
G02*
X62803000Y-68346000I0J-200000D01*
G01*
X62803000Y-68896000D01*
G75*
G02*
X62603000Y-69096000I-200000J0D01*
G01*
X62203000Y-69096000D01*
G75*
G02*
X62003000Y-68896000I0J200000D01*
G01*
G37*
%TD.AperFunction*%
%TD*%
%TO.P,D6,2*%
%TO.N,Net-(D6-Pad2)*%
%TA.AperFunction,SMDPad,CuDef*%
G36*
G01*
X60367750Y-68234500D02*
X60880250Y-68234500D01*
G75*
G02*
X61099000Y-68453250I0J-218750D01*
G01*
X61099000Y-68890750D01*
G75*
G02*
X60880250Y-69109500I-218750J0D01*
G01*
X60367750Y-69109500D01*
G75*
G02*
X60149000Y-68890750I0J218750D01*
G01*
X60149000Y-68453250D01*
G75*
G02*
X60367750Y-68234500I218750J0D01*
G01*
G37*
%TD.AperFunction*%
%TO.P,D6,1*%
%TO.N,GNDPWR*%
%TA.AperFunction,SMDPad,CuDef*%
G36*
G01*
X60367750Y-66659500D02*
X60880250Y-66659500D01*
G75*
G02*
X61099000Y-66878250I0J-218750D01*
G01*
X61099000Y-67315750D01*
G75*
G02*
X60880250Y-67534500I-218750J0D01*
G01*
X60367750Y-67534500D01*
G75*
G02*
X60149000Y-67315750I0J218750D01*
G01*
X60149000Y-66878250D01*
G75*
G02*
X60367750Y-66659500I218750J0D01*
G01*
G37*
%TD.AperFunction*%
%TD*%
D26*
%TO.P,U2,4*%
%TO.N,Net-(D3-Pad2)*%
X98216000Y-55540000D03*
%TO.P,U2,3*%
%TO.N,+5VP*%
X98216000Y-58080000D03*
%TO.P,U2,2*%
%TO.N,Net-(F1-Pad2)*%
X98216000Y-68240000D03*
D27*
%TO.P,U2,1*%
%TO.N,Net-(J3-Pad1)*%
X98216000Y-75860000D03*
%TD*%
D28*
%TO.P,R16,2*%
%TO.N,GNDPWR*%
X102661000Y-70272000D03*
%TO.P,R16,1*%
%TO.N,/Load2N*%
X102661000Y-73272000D03*
%TD*%
%TO.P,R15,2*%
%TO.N,GNDPWR*%
X92882000Y-70272000D03*
%TO.P,R15,1*%
%TO.N,/Load1N*%
X92882000Y-73272000D03*
%TD*%
%TO.P,D2,2*%
%TO.N,+5VP*%
%TA.AperFunction,SMDPad,CuDef*%
G36*
G01*
X102719000Y-54653250D02*
X102719000Y-54140750D01*
G75*
G02*
X102937750Y-53922000I218750J0D01*
G01*
X103375250Y-53922000D01*
G75*
G02*
X103594000Y-54140750I0J-218750D01*
G01*
X103594000Y-54653250D01*
G75*
G02*
X103375250Y-54872000I-218750J0D01*
G01*
X102937750Y-54872000D01*
G75*
G02*
X102719000Y-54653250I0J218750D01*
G01*
G37*
%TD.AperFunction*%
%TO.P,D2,1*%
%TO.N,Net-(D2-Pad1)*%
%TA.AperFunction,SMDPad,CuDef*%
G36*
G01*
X101144000Y-54653250D02*
X101144000Y-54140750D01*
G75*
G02*
X101362750Y-53922000I218750J0D01*
G01*
X101800250Y-53922000D01*
G75*
G02*
X102019000Y-54140750I0J-218750D01*
G01*
X102019000Y-54653250D01*
G75*
G02*
X101800250Y-54872000I-218750J0D01*
G01*
X101362750Y-54872000D01*
G75*
G02*
X101144000Y-54653250I0J218750D01*
G01*
G37*
%TD.AperFunction*%
%TD*%
%TO.P,D1,2*%
%TO.N,+5VP*%
%TA.AperFunction,SMDPad,CuDef*%
G36*
G01*
X92813000Y-54653250D02*
X92813000Y-54140750D01*
G75*
G02*
X93031750Y-53922000I218750J0D01*
G01*
X93469250Y-53922000D01*
G75*
G02*
X93688000Y-54140750I0J-218750D01*
G01*
X93688000Y-54653250D01*
G75*
G02*
X93469250Y-54872000I-218750J0D01*
G01*
X93031750Y-54872000D01*
G75*
G02*
X92813000Y-54653250I0J218750D01*
G01*
G37*
%TD.AperFunction*%
%TO.P,D1,1*%
%TO.N,Net-(D1-Pad1)*%
%TA.AperFunction,SMDPad,CuDef*%
G36*
G01*
X91238000Y-54653250D02*
X91238000Y-54140750D01*
G75*
G02*
X91456750Y-53922000I218750J0D01*
G01*
X91894250Y-53922000D01*
G75*
G02*
X92113000Y-54140750I0J-218750D01*
G01*
X92113000Y-54653250D01*
G75*
G02*
X91894250Y-54872000I-218750J0D01*
G01*
X91456750Y-54872000D01*
G75*
G02*
X91238000Y-54653250I0J218750D01*
G01*
G37*
%TD.AperFunction*%
%TD*%
%TO.P,R13,2*%
%TO.N,+5V*%
%TA.AperFunction,SMDPad,CuDef*%
G36*
G01*
X63525000Y-63054000D02*
X63525000Y-62504000D01*
G75*
G02*
X63725000Y-62304000I200000J0D01*
G01*
X64125000Y-62304000D01*
G75*
G02*
X64325000Y-62504000I0J-200000D01*
G01*
X64325000Y-63054000D01*
G75*
G02*
X64125000Y-63254000I-200000J0D01*
G01*
X63725000Y-63254000D01*
G75*
G02*
X63525000Y-63054000I0J200000D01*
G01*
G37*
%TD.AperFunction*%
%TO.P,R13,1*%
%TO.N,Net-(D5-Pad2)*%
%TA.AperFunction,SMDPad,CuDef*%
G36*
G01*
X61875000Y-63054000D02*
X61875000Y-62504000D01*
G75*
G02*
X62075000Y-62304000I200000J0D01*
G01*
X62475000Y-62304000D01*
G75*
G02*
X62675000Y-62504000I0J-200000D01*
G01*
X62675000Y-63054000D01*
G75*
G02*
X62475000Y-63254000I-200000J0D01*
G01*
X62075000Y-63254000D01*
G75*
G02*
X61875000Y-63054000I0J200000D01*
G01*
G37*
%TD.AperFunction*%
%TD*%
%TO.P,D5,2*%
%TO.N,Net-(D5-Pad2)*%
%TA.AperFunction,SMDPad,CuDef*%
G36*
G01*
X60367750Y-62341500D02*
X60880250Y-62341500D01*
G75*
G02*
X61099000Y-62560250I0J-218750D01*
G01*
X61099000Y-62997750D01*
G75*
G02*
X60880250Y-63216500I-218750J0D01*
G01*
X60367750Y-63216500D01*
G75*
G02*
X60149000Y-62997750I0J218750D01*
G01*
X60149000Y-62560250D01*
G75*
G02*
X60367750Y-62341500I218750J0D01*
G01*
G37*
%TD.AperFunction*%
%TO.P,D5,1*%
%TO.N,GND1*%
%TA.AperFunction,SMDPad,CuDef*%
G36*
G01*
X60367750Y-60766500D02*
X60880250Y-60766500D01*
G75*
G02*
X61099000Y-60985250I0J-218750D01*
G01*
X61099000Y-61422750D01*
G75*
G02*
X60880250Y-61641500I-218750J0D01*
G01*
X60367750Y-61641500D01*
G75*
G02*
X60149000Y-61422750I0J218750D01*
G01*
X60149000Y-60985250D01*
G75*
G02*
X60367750Y-60766500I218750J0D01*
G01*
G37*
%TD.AperFunction*%
%TD*%
D26*
%TO.P,U3,4*%
%TO.N,Net-(D4-Pad2)*%
X108122000Y-55540000D03*
%TO.P,U3,3*%
%TO.N,+5VP*%
X108122000Y-58080000D03*
%TO.P,U3,2*%
%TO.N,Net-(F2-Pad2)*%
X108122000Y-68240000D03*
D27*
%TO.P,U3,1*%
%TO.N,Net-(J4-Pad1)*%
X108122000Y-75860000D03*
%TD*%
D13*
%TO.P,J2,6*%
%TO.N,+5V*%
X60751000Y-58080000D03*
%TO.P,J2,5*%
X60751000Y-59350000D03*
%TO.P,J2,4*%
%TO.N,GND1*%
X62021000Y-58080000D03*
%TO.P,J2,3*%
X62021000Y-59350000D03*
%TO.P,J2,2*%
%TO.N,+5P*%
X63291000Y-58080000D03*
D12*
%TO.P,J2,1*%
X63291000Y-59350000D03*
%TD*%
D22*
%TO.P,F2,2*%
%TO.N,Net-(F2-Pad2)*%
X107233000Y-63922000D03*
D15*
%TO.P,F2,1*%
%TO.N,AC*%
X107233000Y-71542000D03*
%TD*%
D13*
%TO.P,J2,6*%
%TO.N,/scl0*%
X60751000Y-83580000D03*
%TO.P,J2,5*%
%TO.N,/sda0*%
X60751000Y-84850000D03*
%TO.P,J2,4*%
%TO.N,GND1*%
X62021000Y-83580000D03*
%TO.P,J2,3*%
X62021000Y-84850000D03*
%TO.P,J2,2*%
%TO.N,+5P*%
X63291000Y-83580000D03*
D12*
%TO.P,J2,1*%
X63291000Y-84850000D03*
%TD*%
D23*
%TO.P,C5,2*%
%TO.N,Net-(C5-Pad2)*%
X99613000Y-99582000D03*
%TO.P,C5,1*%
%TO.N,Net-(C5-Pad1)*%
X77113000Y-99582000D03*
%TD*%
%TO.P,R15,2*%
%TO.N,GND2*%
%TA.AperFunction,SMDPad,CuDef*%
G36*
G01*
X93117000Y-80172000D02*
X93117000Y-79622000D01*
G75*
G02*
X93317000Y-79422000I200000J0D01*
G01*
X93717000Y-79422000D01*
G75*
G02*
X93917000Y-79622000I0J-200000D01*
G01*
X93917000Y-80172000D01*
G75*
G02*
X93717000Y-80372000I-200000J0D01*
G01*
X93317000Y-80372000D01*
G75*
G02*
X93117000Y-80172000I0J200000D01*
G01*
G37*
%TD.AperFunction*%
%TO.P,R15,1*%
%TO.N,Net-(Q5-Pad1)*%
%TA.AperFunction,SMDPad,CuDef*%
G36*
G01*
X91467000Y-80172000D02*
X91467000Y-79622000D01*
G75*
G02*
X91667000Y-79422000I200000J0D01*
G01*
X92067000Y-79422000D01*
G75*
G02*
X92267000Y-79622000I0J-200000D01*
G01*
X92267000Y-80172000D01*
G75*
G02*
X92067000Y-80372000I-200000J0D01*
G01*
X91667000Y-80372000D01*
G75*
G02*
X91467000Y-80172000I0J200000D01*
G01*
G37*
%TD.AperFunction*%
%TD*%
%TO.P,R13,2*%
%TO.N,/K2_set*%
%TA.AperFunction,SMDPad,CuDef*%
G36*
G01*
X93116000Y-82013500D02*
X93116000Y-81463500D01*
G75*
G02*
X93316000Y-81263500I200000J0D01*
G01*
X93716000Y-81263500D01*
G75*
G02*
X93916000Y-81463500I0J-200000D01*
G01*
X93916000Y-82013500D01*
G75*
G02*
X93716000Y-82213500I-200000J0D01*
G01*
X93316000Y-82213500D01*
G75*
G02*
X93116000Y-82013500I0J200000D01*
G01*
G37*
%TD.AperFunction*%
%TO.P,R13,1*%
%TO.N,Net-(Q5-Pad1)*%
%TA.AperFunction,SMDPad,CuDef*%
G36*
G01*
X91466000Y-82013500D02*
X91466000Y-81463500D01*
G75*
G02*
X91666000Y-81263500I200000J0D01*
G01*
X92066000Y-81263500D01*
G75*
G02*
X92266000Y-81463500I0J-200000D01*
G01*
X92266000Y-82013500D01*
G75*
G02*
X92066000Y-82213500I-200000J0D01*
G01*
X91666000Y-82213500D01*
G75*
G02*
X91466000Y-82013500I0J200000D01*
G01*
G37*
%TD.AperFunction*%
%TD*%
%TO.P,R3,2*%
%TO.N,GND2*%
%TA.AperFunction,SMDPad,CuDef*%
G36*
G01*
X84519000Y-79622000D02*
X84519000Y-80172000D01*
G75*
G02*
X84319000Y-80372000I-200000J0D01*
G01*
X83919000Y-80372000D01*
G75*
G02*
X83719000Y-80172000I0J200000D01*
G01*
X83719000Y-79622000D01*
G75*
G02*
X83919000Y-79422000I200000J0D01*
G01*
X84319000Y-79422000D01*
G75*
G02*
X84519000Y-79622000I0J-200000D01*
G01*
G37*
%TD.AperFunction*%
%TO.P,R3,1*%
%TO.N,Net-(Q1-Pad1)*%
%TA.AperFunction,SMDPad,CuDef*%
G36*
G01*
X86169000Y-79622000D02*
X86169000Y-80172000D01*
G75*
G02*
X85969000Y-80372000I-200000J0D01*
G01*
X85569000Y-80372000D01*
G75*
G02*
X85369000Y-80172000I0J200000D01*
G01*
X85369000Y-79622000D01*
G75*
G02*
X85569000Y-79422000I200000J0D01*
G01*
X85969000Y-79422000D01*
G75*
G02*
X86169000Y-79622000I0J-200000D01*
G01*
G37*
%TD.AperFunction*%
%TD*%
%TO.P,R1,2*%
%TO.N,/K1_set*%
%TA.AperFunction,SMDPad,CuDef*%
G36*
G01*
X85369000Y-81696000D02*
X85369000Y-81146000D01*
G75*
G02*
X85569000Y-80946000I200000J0D01*
G01*
X85969000Y-80946000D01*
G75*
G02*
X86169000Y-81146000I0J-200000D01*
G01*
X86169000Y-81696000D01*
G75*
G02*
X85969000Y-81896000I-200000J0D01*
G01*
X85569000Y-81896000D01*
G75*
G02*
X85369000Y-81696000I0J200000D01*
G01*
G37*
%TD.AperFunction*%
%TO.P,R1,1*%
%TO.N,Net-(Q1-Pad1)*%
%TA.AperFunction,SMDPad,CuDef*%
G36*
G01*
X83719000Y-81696000D02*
X83719000Y-81146000D01*
G75*
G02*
X83919000Y-80946000I200000J0D01*
G01*
X84319000Y-80946000D01*
G75*
G02*
X84519000Y-81146000I0J-200000D01*
G01*
X84519000Y-81696000D01*
G75*
G02*
X84319000Y-81896000I-200000J0D01*
G01*
X83919000Y-81896000D01*
G75*
G02*
X83719000Y-81696000I0J200000D01*
G01*
G37*
%TD.AperFunction*%
%TD*%
D29*
%TO.P,Q5,3*%
%TO.N,Net-(Q5-Pad3)*%
X97041000Y-80910500D03*
%TO.P,Q5,2*%
%TO.N,GND2*%
X95041000Y-79960500D03*
%TO.P,Q5,1*%
%TO.N,Net-(Q5-Pad1)*%
X95041000Y-81860500D03*
%TD*%
D11*
%TO.P,Q1,3*%
%TO.N,Net-(Q1-Pad3)*%
X81645000Y-81960500D03*
%TO.P,Q1,2*%
%TO.N,GND2*%
X82595000Y-79960500D03*
%TO.P,Q1,1*%
%TO.N,Net-(Q1-Pad1)*%
X80695000Y-79960500D03*
%TD*%
D16*
%TO.P,K2,1*%
%TO.N,+5VP*%
X94787000Y-84342000D03*
D15*
%TO.P,K2,2*%
X94787000Y-86882000D03*
%TO.P,K2,4*%
%TO.N,Net-(J1-Pad3)*%
X94787000Y-91962000D03*
%TO.P,K2,6*%
%TO.N,Net-(C7-Pad1)*%
X94787000Y-97042000D03*
%TO.P,K2,8*%
%TO.N,Net-(K2-Pad8)*%
X94787000Y-102122000D03*
%TO.P,K2,9*%
X102407000Y-102122000D03*
%TO.P,K2,11*%
%TO.N,Net-(C5-Pad2)*%
X102407000Y-97042000D03*
%TO.P,K2,13*%
%TO.N,Net-(C7-Pad1)*%
X102407000Y-91962000D03*
%TO.P,K2,15*%
%TO.N,Net-(C12-Pad2)*%
X102407000Y-86882000D03*
%TO.P,K2,16*%
%TO.N,Net-(C11-Pad2)*%
X102407000Y-84342000D03*
%TD*%
D30*
%TO.P,J1,1*%
%TO.N,Net-(J1-Pad1)*%
X85770000Y-101868000D03*
D19*
%TO.P,J1,2*%
%TO.N,N/C*%
X88310000Y-101868000D03*
%TO.P,J1,3*%
%TO.N,Net-(J1-Pad3)*%
X90850000Y-101868000D03*
%TD*%
D23*
%TO.P,TP1,1*%
%TO.N,GND2*%
X65640500Y-95518000D03*
%TD*%
%TO.P,R17,2*%
%TO.N,Net-(C11-Pad1)*%
%TA.AperFunction,SMDPad,CuDef*%
G36*
G01*
X99721000Y-80553000D02*
X99721000Y-80003000D01*
G75*
G02*
X99921000Y-79803000I200000J0D01*
G01*
X100321000Y-79803000D01*
G75*
G02*
X100521000Y-80003000I0J-200000D01*
G01*
X100521000Y-80553000D01*
G75*
G02*
X100321000Y-80753000I-200000J0D01*
G01*
X99921000Y-80753000D01*
G75*
G02*
X99721000Y-80553000I0J200000D01*
G01*
G37*
%TD.AperFunction*%
%TO.P,R17,1*%
%TO.N,Net-(Q5-Pad3)*%
%TA.AperFunction,SMDPad,CuDef*%
G36*
G01*
X98071000Y-80553000D02*
X98071000Y-80003000D01*
G75*
G02*
X98271000Y-79803000I200000J0D01*
G01*
X98671000Y-79803000D01*
G75*
G02*
X98871000Y-80003000I0J-200000D01*
G01*
X98871000Y-80553000D01*
G75*
G02*
X98671000Y-80753000I-200000J0D01*
G01*
X98271000Y-80753000D01*
G75*
G02*
X98071000Y-80553000I0J200000D01*
G01*
G37*
%TD.AperFunction*%
%TD*%
%TO.P,R5,2*%
%TO.N,Net-(C3-Pad1)*%
%TA.AperFunction,SMDPad,CuDef*%
G36*
G01*
X77915000Y-80003000D02*
X77915000Y-80553000D01*
G75*
G02*
X77715000Y-80753000I-200000J0D01*
G01*
X77315000Y-80753000D01*
G75*
G02*
X77115000Y-80553000I0J200000D01*
G01*
X77115000Y-80003000D01*
G75*
G02*
X77315000Y-79803000I200000J0D01*
G01*
X77715000Y-79803000D01*
G75*
G02*
X77915000Y-80003000I0J-200000D01*
G01*
G37*
%TD.AperFunction*%
%TO.P,R5,1*%
%TO.N,Net-(Q1-Pad3)*%
%TA.AperFunction,SMDPad,CuDef*%
G36*
G01*
X79565000Y-80003000D02*
X79565000Y-80553000D01*
G75*
G02*
X79365000Y-80753000I-200000J0D01*
G01*
X78965000Y-80753000D01*
G75*
G02*
X78765000Y-80553000I0J200000D01*
G01*
X78765000Y-80003000D01*
G75*
G02*
X78965000Y-79803000I200000J0D01*
G01*
X79365000Y-79803000D01*
G75*
G02*
X79565000Y-80003000I0J-200000D01*
G01*
G37*
%TD.AperFunction*%
%TD*%
D31*
%TO.P,PS1,4*%
%TO.N,Net-(C6-Pad2)*%
X69641000Y-102249000D03*
%TO.P,PS1,3*%
%TO.N,GND2*%
X67101000Y-102249000D03*
%TO.P,PS1,2*%
%TO.N,+5P*%
X64561000Y-102249000D03*
D32*
%TO.P,PS1,1*%
%TO.N,GND1*%
X62021000Y-102249000D03*
%TD*%
D15*
%TO.P,K1,16*%
%TO.N,Net-(C3-Pad2)*%
X81833000Y-84342000D03*
%TO.P,K1,15*%
%TO.N,Net-(C4-Pad2)*%
X81833000Y-86882000D03*
%TO.P,K1,13*%
%TO.N,Net-(J1-Pad1)*%
X81833000Y-91962000D03*
%TO.P,K1,11*%
%TO.N,Net-(C5-Pad2)*%
X81833000Y-97042000D03*
%TO.P,K1,9*%
%TO.N,Net-(K1-Pad8)*%
X81833000Y-102122000D03*
%TO.P,K1,8*%
X74213000Y-102122000D03*
%TO.P,K1,6*%
%TO.N,Net-(C7-Pad1)*%
X74213000Y-97042000D03*
%TO.P,K1,4*%
%TO.N,Net-(C5-Pad1)*%
X74213000Y-91962000D03*
%TO.P,K1,2*%
%TO.N,+5VP*%
X74213000Y-86882000D03*
D16*
%TO.P,K1,1*%
X74213000Y-84342000D03*
%TD*%
D33*
%TO.P,D4,2*%
%TO.N,Net-(C12-Pad2)*%
X99173000Y-86882000D03*
%TO.P,D4,1*%
%TO.N,+5VP*%
X97073000Y-86882000D03*
%TD*%
%TO.P,D3,2*%
%TO.N,Net-(C11-Pad2)*%
X99173000Y-84342000D03*
%TO.P,D3,1*%
%TO.N,+5VP*%
X97073000Y-84342000D03*
%TD*%
%TO.P,D2,2*%
%TO.N,Net-(C4-Pad2)*%
X78599000Y-86882000D03*
%TO.P,D2,1*%
%TO.N,+5VP*%
X76499000Y-86882000D03*
%TD*%
%TO.P,D1,2*%
%TO.N,Net-(C3-Pad2)*%
X78599000Y-84342000D03*
%TO.P,D1,1*%
%TO.N,+5VP*%
X76499000Y-84342000D03*
%TD*%
%TO.P,C9,2*%
%TO.N,GND2*%
%TA.AperFunction,SMDPad,CuDef*%
G36*
G01*
X69396001Y-92783000D02*
X67345999Y-92783000D01*
G75*
G02*
X67096000Y-92533001I0J249999D01*
G01*
X67096000Y-90782999D01*
G75*
G02*
X67345999Y-90533000I249999J0D01*
G01*
X69396001Y-90533000D01*
G75*
G02*
X69646000Y-90782999I0J-249999D01*
G01*
X69646000Y-92533001D01*
G75*
G02*
X69396001Y-92783000I-249999J0D01*
G01*
G37*
%TD.AperFunction*%
%TO.P,C9,1*%
%TO.N,Net-(C6-Pad2)*%
%TA.AperFunction,SMDPad,CuDef*%
G36*
G01*
X69396001Y-99183000D02*
X67345999Y-99183000D01*
G75*
G02*
X67096000Y-98933001I0J249999D01*
G01*
X67096000Y-97182999D01*
G75*
G02*
X67345999Y-96933000I249999J0D01*
G01*
X69396001Y-96933000D01*
G75*
G02*
X69646000Y-97182999I0J-249999D01*
G01*
X69646000Y-98933001D01*
G75*
G02*
X69396001Y-99183000I-249999J0D01*
G01*
G37*
%TD.AperFunction*%
%TD*%
D23*
%TO.P,C7,2*%
%TO.N,Net-(C5-Pad2)*%
X107741000Y-100445000D03*
%TO.P,C7,1*%
%TO.N,Net-(C7-Pad1)*%
X107741000Y-82945000D03*
%TD*%
%TO.P,C6,2*%
%TO.N,Net-(C6-Pad2)*%
%TA.AperFunction,SMDPad,CuDef*%
G36*
G01*
X68696000Y-100467000D02*
X68696000Y-99967000D01*
G75*
G02*
X68921000Y-99742000I225000J0D01*
G01*
X69371000Y-99742000D01*
G75*
G02*
X69596000Y-99967000I0J-225000D01*
G01*
X69596000Y-100467000D01*
G75*
G02*
X69371000Y-100692000I-225000J0D01*
G01*
X68921000Y-100692000D01*
G75*
G02*
X68696000Y-100467000I0J225000D01*
G01*
G37*
%TD.AperFunction*%
%TO.P,C6,1*%
%TO.N,GND2*%
%TA.AperFunction,SMDPad,CuDef*%
G36*
G01*
X67146000Y-100467000D02*
X67146000Y-99967000D01*
G75*
G02*
X67371000Y-99742000I225000J0D01*
G01*
X67821000Y-99742000D01*
G75*
G02*
X68046000Y-99967000I0J-225000D01*
G01*
X68046000Y-100467000D01*
G75*
G02*
X67821000Y-100692000I-225000J0D01*
G01*
X67371000Y-100692000D01*
G75*
G02*
X67146000Y-100467000I0J225000D01*
G01*
G37*
%TD.AperFunction*%
%TD*%
%TO.P,C2,2*%
%TO.N,+5P*%
%TA.AperFunction,SMDPad,CuDef*%
G36*
G01*
X63616000Y-100467000D02*
X63616000Y-99967000D01*
G75*
G02*
X63841000Y-99742000I225000J0D01*
G01*
X64291000Y-99742000D01*
G75*
G02*
X64516000Y-99967000I0J-225000D01*
G01*
X64516000Y-100467000D01*
G75*
G02*
X64291000Y-100692000I-225000J0D01*
G01*
X63841000Y-100692000D01*
G75*
G02*
X63616000Y-100467000I0J225000D01*
G01*
G37*
%TD.AperFunction*%
%TO.P,C2,1*%
%TO.N,GND1*%
%TA.AperFunction,SMDPad,CuDef*%
G36*
G01*
X62066000Y-100467000D02*
X62066000Y-99967000D01*
G75*
G02*
X62291000Y-99742000I225000J0D01*
G01*
X62741000Y-99742000D01*
G75*
G02*
X62966000Y-99967000I0J-225000D01*
G01*
X62966000Y-100467000D01*
G75*
G02*
X62741000Y-100692000I-225000J0D01*
G01*
X62291000Y-100692000D01*
G75*
G02*
X62066000Y-100467000I0J225000D01*
G01*
G37*
%TD.AperFunction*%
%TD*%
%TO.P,C1,2*%
%TO.N,GND1*%
%TA.AperFunction,SMDPad,CuDef*%
G36*
G01*
X64443001Y-92783000D02*
X62392999Y-92783000D01*
G75*
G02*
X62143000Y-92533001I0J249999D01*
G01*
X62143000Y-90782999D01*
G75*
G02*
X62392999Y-90533000I249999J0D01*
G01*
X64443001Y-90533000D01*
G75*
G02*
X64693000Y-90782999I0J-249999D01*
G01*
X64693000Y-92533001D01*
G75*
G02*
X64443001Y-92783000I-249999J0D01*
G01*
G37*
%TD.AperFunction*%
%TO.P,C1,1*%
%TO.N,+5P*%
%TA.AperFunction,SMDPad,CuDef*%
G36*
G01*
X64443001Y-99183000D02*
X62392999Y-99183000D01*
G75*
G02*
X62143000Y-98933001I0J249999D01*
G01*
X62143000Y-97182999D01*
G75*
G02*
X62392999Y-96933000I249999J0D01*
G01*
X64443001Y-96933000D01*
G75*
G02*
X64693000Y-97182999I0J-249999D01*
G01*
X64693000Y-98933001D01*
G75*
G02*
X64443001Y-99183000I-249999J0D01*
G01*
G37*
%TD.AperFunction*%
%TD*%
%TO.P,C12,2*%
%TO.N,Net-(C12-Pad2)*%
%TA.AperFunction,SMDPad,CuDef*%
G36*
G01*
X101395000Y-81441500D02*
X101895000Y-81441500D01*
G75*
G02*
X102120000Y-81666500I0J-225000D01*
G01*
X102120000Y-82116500D01*
G75*
G02*
X101895000Y-82341500I-225000J0D01*
G01*
X101395000Y-82341500D01*
G75*
G02*
X101170000Y-82116500I0J225000D01*
G01*
X101170000Y-81666500D01*
G75*
G02*
X101395000Y-81441500I225000J0D01*
G01*
G37*
%TD.AperFunction*%
%TO.P,C12,1*%
%TO.N,Net-(C12-Pad1)*%
%TA.AperFunction,SMDPad,CuDef*%
G36*
G01*
X101395000Y-79891500D02*
X101895000Y-79891500D01*
G75*
G02*
X102120000Y-80116500I0J-225000D01*
G01*
X102120000Y-80566500D01*
G75*
G02*
X101895000Y-80791500I-225000J0D01*
G01*
X101395000Y-80791500D01*
G75*
G02*
X101170000Y-80566500I0J225000D01*
G01*
X101170000Y-80116500D01*
G75*
G02*
X101395000Y-79891500I225000J0D01*
G01*
G37*
%TD.AperFunction*%
%TD*%
%TO.P,C11,2*%
%TO.N,Net-(C11-Pad2)*%
%TA.AperFunction,SMDPad,CuDef*%
G36*
G01*
X102919000Y-81441500D02*
X103419000Y-81441500D01*
G75*
G02*
X103644000Y-81666500I0J-225000D01*
G01*
X103644000Y-82116500D01*
G75*
G02*
X103419000Y-82341500I-225000J0D01*
G01*
X102919000Y-82341500D01*
G75*
G02*
X102694000Y-82116500I0J225000D01*
G01*
X102694000Y-81666500D01*
G75*
G02*
X102919000Y-81441500I225000J0D01*
G01*
G37*
%TD.AperFunction*%
%TO.P,C11,1*%
%TO.N,Net-(C11-Pad1)*%
%TA.AperFunction,SMDPad,CuDef*%
G36*
G01*
X102919000Y-79891500D02*
X103419000Y-79891500D01*
G75*
G02*
X103644000Y-80116500I0J-225000D01*
G01*
X103644000Y-80566500D01*
G75*
G02*
X103419000Y-80791500I-225000J0D01*
G01*
X102919000Y-80791500D01*
G75*
G02*
X102694000Y-80566500I0J225000D01*
G01*
X102694000Y-80116500D01*
G75*
G02*
X102919000Y-79891500I225000J0D01*
G01*
G37*
%TD.AperFunction*%
%TD*%
%TO.P,C4,2*%
%TO.N,Net-(C4-Pad2)*%
%TA.AperFunction,SMDPad,CuDef*%
G36*
G01*
X74217000Y-81441500D02*
X74717000Y-81441500D01*
G75*
G02*
X74942000Y-81666500I0J-225000D01*
G01*
X74942000Y-82116500D01*
G75*
G02*
X74717000Y-82341500I-225000J0D01*
G01*
X74217000Y-82341500D01*
G75*
G02*
X73992000Y-82116500I0J225000D01*
G01*
X73992000Y-81666500D01*
G75*
G02*
X74217000Y-81441500I225000J0D01*
G01*
G37*
%TD.AperFunction*%
%TO.P,C4,1*%
%TO.N,Net-(C4-Pad1)*%
%TA.AperFunction,SMDPad,CuDef*%
G36*
G01*
X74217000Y-79891500D02*
X74717000Y-79891500D01*
G75*
G02*
X74942000Y-80116500I0J-225000D01*
G01*
X74942000Y-80566500D01*
G75*
G02*
X74717000Y-80791500I-225000J0D01*
G01*
X74217000Y-80791500D01*
G75*
G02*
X73992000Y-80566500I0J225000D01*
G01*
X73992000Y-80116500D01*
G75*
G02*
X74217000Y-79891500I225000J0D01*
G01*
G37*
%TD.AperFunction*%
%TD*%
%TO.P,C3,2*%
%TO.N,Net-(C3-Pad2)*%
%TA.AperFunction,SMDPad,CuDef*%
G36*
G01*
X75741000Y-81441500D02*
X76241000Y-81441500D01*
G75*
G02*
X76466000Y-81666500I0J-225000D01*
G01*
X76466000Y-82116500D01*
G75*
G02*
X76241000Y-82341500I-225000J0D01*
G01*
X75741000Y-82341500D01*
G75*
G02*
X75516000Y-82116500I0J225000D01*
G01*
X75516000Y-81666500D01*
G75*
G02*
X75741000Y-81441500I225000J0D01*
G01*
G37*
%TD.AperFunction*%
%TO.P,C3,1*%
%TO.N,Net-(C3-Pad1)*%
%TA.AperFunction,SMDPad,CuDef*%
G36*
G01*
X75741000Y-79891500D02*
X76241000Y-79891500D01*
G75*
G02*
X76466000Y-80116500I0J-225000D01*
G01*
X76466000Y-80566500D01*
G75*
G02*
X76241000Y-80791500I-225000J0D01*
G01*
X75741000Y-80791500D01*
G75*
G02*
X75516000Y-80566500I0J225000D01*
G01*
X75516000Y-80116500D01*
G75*
G02*
X75741000Y-79891500I225000J0D01*
G01*
G37*
%TD.AperFunction*%
%TD*%
D13*
%TO.P,J1,6*%
%TO.N,GND*%
X69714000Y-108264000D03*
%TO.P,J1,5*%
%TO.N,VCC*%
X68444000Y-108264000D03*
%TO.P,J1,4*%
%TO.N,/SCL*%
X69714000Y-106994000D03*
%TO.P,J1,3*%
%TO.N,/SDA*%
X68444000Y-106994000D03*
%TO.P,J1,2*%
%TO.N,/outb*%
X69714000Y-105724000D03*
D12*
%TO.P,J1,1*%
%TO.N,/ina*%
X68444000Y-105724000D03*
%TD*%
D13*
%TO.P,J2,6*%
%TO.N,/inb*%
X69714000Y-128076000D03*
%TO.P,J2,5*%
%TO.N,/outa*%
X68444000Y-128076000D03*
%TO.P,J2,4*%
%TO.N,/SCLq*%
X69714000Y-126806000D03*
%TO.P,J2,3*%
%TO.N,/SDAq*%
X68444000Y-126806000D03*
%TO.P,J2,2*%
%TO.N,GND2*%
X69714000Y-125536000D03*
D12*
%TO.P,J2,1*%
%TO.N,VCCQ*%
X68444000Y-125536000D03*
%TD*%
%TO.P,U1,8*%
%TO.N,VCCQ*%
%TA.AperFunction,SMDPad,CuDef*%
G36*
G01*
X67024000Y-118400000D02*
X67324000Y-118400000D01*
G75*
G02*
X67474000Y-118550000I0J-150000D01*
G01*
X67474000Y-120200000D01*
G75*
G02*
X67324000Y-120350000I-150000J0D01*
G01*
X67024000Y-120350000D01*
G75*
G02*
X66874000Y-120200000I0J150000D01*
G01*
X66874000Y-118550000D01*
G75*
G02*
X67024000Y-118400000I150000J0D01*
G01*
G37*
%TD.AperFunction*%
%TO.P,U1,7*%
%TO.N,Net-(Q5-Pad2)*%
%TA.AperFunction,SMDPad,CuDef*%
G36*
G01*
X68294000Y-118400000D02*
X68594000Y-118400000D01*
G75*
G02*
X68744000Y-118550000I0J-150000D01*
G01*
X68744000Y-120200000D01*
G75*
G02*
X68594000Y-120350000I-150000J0D01*
G01*
X68294000Y-120350000D01*
G75*
G02*
X68144000Y-120200000I0J150000D01*
G01*
X68144000Y-118550000D01*
G75*
G02*
X68294000Y-118400000I150000J0D01*
G01*
G37*
%TD.AperFunction*%
%TO.P,U1,6*%
%TO.N,Net-(Q6-Pad2)*%
%TA.AperFunction,SMDPad,CuDef*%
G36*
G01*
X69564000Y-118400000D02*
X69864000Y-118400000D01*
G75*
G02*
X70014000Y-118550000I0J-150000D01*
G01*
X70014000Y-120200000D01*
G75*
G02*
X69864000Y-120350000I-150000J0D01*
G01*
X69564000Y-120350000D01*
G75*
G02*
X69414000Y-120200000I0J150000D01*
G01*
X69414000Y-118550000D01*
G75*
G02*
X69564000Y-118400000I150000J0D01*
G01*
G37*
%TD.AperFunction*%
%TO.P,U1,5*%
%TO.N,GND2*%
%TA.AperFunction,SMDPad,CuDef*%
G36*
G01*
X70834000Y-118400000D02*
X71134000Y-118400000D01*
G75*
G02*
X71284000Y-118550000I0J-150000D01*
G01*
X71284000Y-120200000D01*
G75*
G02*
X71134000Y-120350000I-150000J0D01*
G01*
X70834000Y-120350000D01*
G75*
G02*
X70684000Y-120200000I0J150000D01*
G01*
X70684000Y-118550000D01*
G75*
G02*
X70834000Y-118400000I150000J0D01*
G01*
G37*
%TD.AperFunction*%
%TO.P,U1,4*%
%TO.N,GND*%
%TA.AperFunction,SMDPad,CuDef*%
G36*
G01*
X70834000Y-113450000D02*
X71134000Y-113450000D01*
G75*
G02*
X71284000Y-113600000I0J-150000D01*
G01*
X71284000Y-115250000D01*
G75*
G02*
X71134000Y-115400000I-150000J0D01*
G01*
X70834000Y-115400000D01*
G75*
G02*
X70684000Y-115250000I0J150000D01*
G01*
X70684000Y-113600000D01*
G75*
G02*
X70834000Y-113450000I150000J0D01*
G01*
G37*
%TD.AperFunction*%
%TO.P,U1,3*%
%TO.N,Net-(Q2-Pad2)*%
%TA.AperFunction,SMDPad,CuDef*%
G36*
G01*
X69564000Y-113450000D02*
X69864000Y-113450000D01*
G75*
G02*
X70014000Y-113600000I0J-150000D01*
G01*
X70014000Y-115250000D01*
G75*
G02*
X69864000Y-115400000I-150000J0D01*
G01*
X69564000Y-115400000D01*
G75*
G02*
X69414000Y-115250000I0J150000D01*
G01*
X69414000Y-113600000D01*
G75*
G02*
X69564000Y-113450000I150000J0D01*
G01*
G37*
%TD.AperFunction*%
%TO.P,U1,2*%
%TO.N,Net-(Q1-Pad2)*%
%TA.AperFunction,SMDPad,CuDef*%
G36*
G01*
X68294000Y-113450000D02*
X68594000Y-113450000D01*
G75*
G02*
X68744000Y-113600000I0J-150000D01*
G01*
X68744000Y-115250000D01*
G75*
G02*
X68594000Y-115400000I-150000J0D01*
G01*
X68294000Y-115400000D01*
G75*
G02*
X68144000Y-115250000I0J150000D01*
G01*
X68144000Y-113600000D01*
G75*
G02*
X68294000Y-113450000I150000J0D01*
G01*
G37*
%TD.AperFunction*%
%TO.P,U1,1*%
%TO.N,VCC*%
%TA.AperFunction,SMDPad,CuDef*%
G36*
G01*
X67024000Y-113450000D02*
X67324000Y-113450000D01*
G75*
G02*
X67474000Y-113600000I0J-150000D01*
G01*
X67474000Y-115250000D01*
G75*
G02*
X67324000Y-115400000I-150000J0D01*
G01*
X67024000Y-115400000D01*
G75*
G02*
X66874000Y-115250000I0J150000D01*
G01*
X66874000Y-113600000D01*
G75*
G02*
X67024000Y-113450000I150000J0D01*
G01*
G37*
%TD.AperFunction*%
%TD*%
%TO.P,R24,2*%
%TO.N,VCCQ*%
%TA.AperFunction,SMDPad,CuDef*%
G36*
G01*
X60718000Y-126825000D02*
X60168000Y-126825000D01*
G75*
G02*
X59968000Y-126625000I0J200000D01*
G01*
X59968000Y-126225000D01*
G75*
G02*
X60168000Y-126025000I200000J0D01*
G01*
X60718000Y-126025000D01*
G75*
G02*
X60918000Y-126225000I0J-200000D01*
G01*
X60918000Y-126625000D01*
G75*
G02*
X60718000Y-126825000I-200000J0D01*
G01*
G37*
%TD.AperFunction*%
%TO.P,R24,1*%
%TO.N,/inb*%
%TA.AperFunction,SMDPad,CuDef*%
G36*
G01*
X60718000Y-128475000D02*
X60168000Y-128475000D01*
G75*
G02*
X59968000Y-128275000I0J200000D01*
G01*
X59968000Y-127875000D01*
G75*
G02*
X60168000Y-127675000I200000J0D01*
G01*
X60718000Y-127675000D01*
G75*
G02*
X60918000Y-127875000I0J-200000D01*
G01*
X60918000Y-128275000D01*
G75*
G02*
X60718000Y-128475000I-200000J0D01*
G01*
G37*
%TD.AperFunction*%
%TD*%
%TO.P,R22,2*%
%TO.N,VCCQ*%
%TA.AperFunction,SMDPad,CuDef*%
G36*
G01*
X65248000Y-120437000D02*
X65798000Y-120437000D01*
G75*
G02*
X65998000Y-120637000I0J-200000D01*
G01*
X65998000Y-121037000D01*
G75*
G02*
X65798000Y-121237000I-200000J0D01*
G01*
X65248000Y-121237000D01*
G75*
G02*
X65048000Y-121037000I0J200000D01*
G01*
X65048000Y-120637000D01*
G75*
G02*
X65248000Y-120437000I200000J0D01*
G01*
G37*
%TD.AperFunction*%
%TO.P,R22,1*%
%TO.N,/SCLq*%
%TA.AperFunction,SMDPad,CuDef*%
G36*
G01*
X65248000Y-118787000D02*
X65798000Y-118787000D01*
G75*
G02*
X65998000Y-118987000I0J-200000D01*
G01*
X65998000Y-119387000D01*
G75*
G02*
X65798000Y-119587000I-200000J0D01*
G01*
X65248000Y-119587000D01*
G75*
G02*
X65048000Y-119387000I0J200000D01*
G01*
X65048000Y-118987000D01*
G75*
G02*
X65248000Y-118787000I200000J0D01*
G01*
G37*
%TD.AperFunction*%
%TD*%
%TO.P,R20,2*%
%TO.N,Net-(Q8-Pad2)*%
%TA.AperFunction,SMDPad,CuDef*%
G36*
G01*
X65798000Y-126825000D02*
X65248000Y-126825000D01*
G75*
G02*
X65048000Y-126625000I0J200000D01*
G01*
X65048000Y-126225000D01*
G75*
G02*
X65248000Y-126025000I200000J0D01*
G01*
X65798000Y-126025000D01*
G75*
G02*
X65998000Y-126225000I0J-200000D01*
G01*
X65998000Y-126625000D01*
G75*
G02*
X65798000Y-126825000I-200000J0D01*
G01*
G37*
%TD.AperFunction*%
%TO.P,R20,1*%
%TO.N,/inb*%
%TA.AperFunction,SMDPad,CuDef*%
G36*
G01*
X65798000Y-128475000D02*
X65248000Y-128475000D01*
G75*
G02*
X65048000Y-128275000I0J200000D01*
G01*
X65048000Y-127875000D01*
G75*
G02*
X65248000Y-127675000I200000J0D01*
G01*
X65798000Y-127675000D01*
G75*
G02*
X65998000Y-127875000I0J-200000D01*
G01*
X65998000Y-128275000D01*
G75*
G02*
X65798000Y-128475000I-200000J0D01*
G01*
G37*
%TD.AperFunction*%
%TD*%
%TO.P,R18,2*%
%TO.N,Net-(Q6-Pad2)*%
%TA.AperFunction,SMDPad,CuDef*%
G36*
G01*
X60168000Y-120437000D02*
X60718000Y-120437000D01*
G75*
G02*
X60918000Y-120637000I0J-200000D01*
G01*
X60918000Y-121037000D01*
G75*
G02*
X60718000Y-121237000I-200000J0D01*
G01*
X60168000Y-121237000D01*
G75*
G02*
X59968000Y-121037000I0J200000D01*
G01*
X59968000Y-120637000D01*
G75*
G02*
X60168000Y-120437000I200000J0D01*
G01*
G37*
%TD.AperFunction*%
%TO.P,R18,1*%
%TO.N,/SCLq*%
%TA.AperFunction,SMDPad,CuDef*%
G36*
G01*
X60168000Y-118787000D02*
X60718000Y-118787000D01*
G75*
G02*
X60918000Y-118987000I0J-200000D01*
G01*
X60918000Y-119387000D01*
G75*
G02*
X60718000Y-119587000I-200000J0D01*
G01*
X60168000Y-119587000D01*
G75*
G02*
X59968000Y-119387000I0J200000D01*
G01*
X59968000Y-118987000D01*
G75*
G02*
X60168000Y-118787000I200000J0D01*
G01*
G37*
%TD.AperFunction*%
%TD*%
%TO.P,R16,2*%
%TO.N,Net-(Q8-Pad2)*%
%TA.AperFunction,SMDPad,CuDef*%
G36*
G01*
X63344000Y-125176000D02*
X63344000Y-124626000D01*
G75*
G02*
X63544000Y-124426000I200000J0D01*
G01*
X63944000Y-124426000D01*
G75*
G02*
X64144000Y-124626000I0J-200000D01*
G01*
X64144000Y-125176000D01*
G75*
G02*
X63944000Y-125376000I-200000J0D01*
G01*
X63544000Y-125376000D01*
G75*
G02*
X63344000Y-125176000I0J200000D01*
G01*
G37*
%TD.AperFunction*%
%TO.P,R16,1*%
%TO.N,VCCQ*%
%TA.AperFunction,SMDPad,CuDef*%
G36*
G01*
X61694000Y-125176000D02*
X61694000Y-124626000D01*
G75*
G02*
X61894000Y-124426000I200000J0D01*
G01*
X62294000Y-124426000D01*
G75*
G02*
X62494000Y-124626000I0J-200000D01*
G01*
X62494000Y-125176000D01*
G75*
G02*
X62294000Y-125376000I-200000J0D01*
G01*
X61894000Y-125376000D01*
G75*
G02*
X61694000Y-125176000I0J200000D01*
G01*
G37*
%TD.AperFunction*%
%TD*%
%TO.P,R14,2*%
%TO.N,Net-(Q6-Pad2)*%
%TA.AperFunction,SMDPad,CuDef*%
G36*
G01*
X62494000Y-122086000D02*
X62494000Y-122636000D01*
G75*
G02*
X62294000Y-122836000I-200000J0D01*
G01*
X61894000Y-122836000D01*
G75*
G02*
X61694000Y-122636000I0J200000D01*
G01*
X61694000Y-122086000D01*
G75*
G02*
X61894000Y-121886000I200000J0D01*
G01*
X62294000Y-121886000D01*
G75*
G02*
X62494000Y-122086000I0J-200000D01*
G01*
G37*
%TD.AperFunction*%
%TO.P,R14,1*%
%TO.N,VCCQ*%
%TA.AperFunction,SMDPad,CuDef*%
G36*
G01*
X64144000Y-122086000D02*
X64144000Y-122636000D01*
G75*
G02*
X63944000Y-122836000I-200000J0D01*
G01*
X63544000Y-122836000D01*
G75*
G02*
X63344000Y-122636000I0J200000D01*
G01*
X63344000Y-122086000D01*
G75*
G02*
X63544000Y-121886000I200000J0D01*
G01*
X63944000Y-121886000D01*
G75*
G02*
X64144000Y-122086000I0J-200000D01*
G01*
G37*
%TD.AperFunction*%
%TD*%
%TO.P,R12,2*%
%TO.N,Net-(Q4-Pad2)*%
%TA.AperFunction,SMDPad,CuDef*%
G36*
G01*
X62495000Y-108624000D02*
X62495000Y-109174000D01*
G75*
G02*
X62295000Y-109374000I-200000J0D01*
G01*
X61895000Y-109374000D01*
G75*
G02*
X61695000Y-109174000I0J200000D01*
G01*
X61695000Y-108624000D01*
G75*
G02*
X61895000Y-108424000I200000J0D01*
G01*
X62295000Y-108424000D01*
G75*
G02*
X62495000Y-108624000I0J-200000D01*
G01*
G37*
%TD.AperFunction*%
%TO.P,R12,1*%
%TO.N,VCC*%
%TA.AperFunction,SMDPad,CuDef*%
G36*
G01*
X64145000Y-108624000D02*
X64145000Y-109174000D01*
G75*
G02*
X63945000Y-109374000I-200000J0D01*
G01*
X63545000Y-109374000D01*
G75*
G02*
X63345000Y-109174000I0J200000D01*
G01*
X63345000Y-108624000D01*
G75*
G02*
X63545000Y-108424000I200000J0D01*
G01*
X63945000Y-108424000D01*
G75*
G02*
X64145000Y-108624000I0J-200000D01*
G01*
G37*
%TD.AperFunction*%
%TD*%
%TO.P,R9,2*%
%TO.N,Net-(Q1-Pad2)*%
%TA.AperFunction,SMDPad,CuDef*%
G36*
G01*
X63344000Y-111714000D02*
X63344000Y-111164000D01*
G75*
G02*
X63544000Y-110964000I200000J0D01*
G01*
X63944000Y-110964000D01*
G75*
G02*
X64144000Y-111164000I0J-200000D01*
G01*
X64144000Y-111714000D01*
G75*
G02*
X63944000Y-111914000I-200000J0D01*
G01*
X63544000Y-111914000D01*
G75*
G02*
X63344000Y-111714000I0J200000D01*
G01*
G37*
%TD.AperFunction*%
%TO.P,R9,1*%
%TO.N,VCC*%
%TA.AperFunction,SMDPad,CuDef*%
G36*
G01*
X61694000Y-111714000D02*
X61694000Y-111164000D01*
G75*
G02*
X61894000Y-110964000I200000J0D01*
G01*
X62294000Y-110964000D01*
G75*
G02*
X62494000Y-111164000I0J-200000D01*
G01*
X62494000Y-111714000D01*
G75*
G02*
X62294000Y-111914000I-200000J0D01*
G01*
X61894000Y-111914000D01*
G75*
G02*
X61694000Y-111714000I0J200000D01*
G01*
G37*
%TD.AperFunction*%
%TD*%
%TO.P,R8,2*%
%TO.N,/outb*%
%TA.AperFunction,SMDPad,CuDef*%
G36*
G01*
X60591000Y-106124000D02*
X60041000Y-106124000D01*
G75*
G02*
X59841000Y-105924000I0J200000D01*
G01*
X59841000Y-105524000D01*
G75*
G02*
X60041000Y-105324000I200000J0D01*
G01*
X60591000Y-105324000D01*
G75*
G02*
X60791000Y-105524000I0J-200000D01*
G01*
X60791000Y-105924000D01*
G75*
G02*
X60591000Y-106124000I-200000J0D01*
G01*
G37*
%TD.AperFunction*%
%TO.P,R8,1*%
%TO.N,Net-(Q4-Pad2)*%
%TA.AperFunction,SMDPad,CuDef*%
G36*
G01*
X60591000Y-107774000D02*
X60041000Y-107774000D01*
G75*
G02*
X59841000Y-107574000I0J200000D01*
G01*
X59841000Y-107174000D01*
G75*
G02*
X60041000Y-106974000I200000J0D01*
G01*
X60591000Y-106974000D01*
G75*
G02*
X60791000Y-107174000I0J-200000D01*
G01*
X60791000Y-107574000D01*
G75*
G02*
X60591000Y-107774000I-200000J0D01*
G01*
G37*
%TD.AperFunction*%
%TD*%
%TO.P,R5,2*%
%TO.N,/SDA*%
%TA.AperFunction,SMDPad,CuDef*%
G36*
G01*
X65248000Y-114213000D02*
X65798000Y-114213000D01*
G75*
G02*
X65998000Y-114413000I0J-200000D01*
G01*
X65998000Y-114813000D01*
G75*
G02*
X65798000Y-115013000I-200000J0D01*
G01*
X65248000Y-115013000D01*
G75*
G02*
X65048000Y-114813000I0J200000D01*
G01*
X65048000Y-114413000D01*
G75*
G02*
X65248000Y-114213000I200000J0D01*
G01*
G37*
%TD.AperFunction*%
%TO.P,R5,1*%
%TO.N,Net-(Q1-Pad2)*%
%TA.AperFunction,SMDPad,CuDef*%
G36*
G01*
X65248000Y-112563000D02*
X65798000Y-112563000D01*
G75*
G02*
X65998000Y-112763000I0J-200000D01*
G01*
X65998000Y-113163000D01*
G75*
G02*
X65798000Y-113363000I-200000J0D01*
G01*
X65248000Y-113363000D01*
G75*
G02*
X65048000Y-113163000I0J200000D01*
G01*
X65048000Y-112763000D01*
G75*
G02*
X65248000Y-112563000I200000J0D01*
G01*
G37*
%TD.AperFunction*%
%TD*%
%TO.P,R4,2*%
%TO.N,VCC*%
%TA.AperFunction,SMDPad,CuDef*%
G36*
G01*
X65248000Y-106975000D02*
X65798000Y-106975000D01*
G75*
G02*
X65998000Y-107175000I0J-200000D01*
G01*
X65998000Y-107575000D01*
G75*
G02*
X65798000Y-107775000I-200000J0D01*
G01*
X65248000Y-107775000D01*
G75*
G02*
X65048000Y-107575000I0J200000D01*
G01*
X65048000Y-107175000D01*
G75*
G02*
X65248000Y-106975000I200000J0D01*
G01*
G37*
%TD.AperFunction*%
%TO.P,R4,1*%
%TO.N,/outb*%
%TA.AperFunction,SMDPad,CuDef*%
G36*
G01*
X65248000Y-105325000D02*
X65798000Y-105325000D01*
G75*
G02*
X65998000Y-105525000I0J-200000D01*
G01*
X65998000Y-105925000D01*
G75*
G02*
X65798000Y-106125000I-200000J0D01*
G01*
X65248000Y-106125000D01*
G75*
G02*
X65048000Y-105925000I0J200000D01*
G01*
X65048000Y-105525000D01*
G75*
G02*
X65248000Y-105325000I200000J0D01*
G01*
G37*
%TD.AperFunction*%
%TD*%
%TO.P,R1,2*%
%TO.N,VCC*%
%TA.AperFunction,SMDPad,CuDef*%
G36*
G01*
X60591000Y-113363000D02*
X60041000Y-113363000D01*
G75*
G02*
X59841000Y-113163000I0J200000D01*
G01*
X59841000Y-112763000D01*
G75*
G02*
X60041000Y-112563000I200000J0D01*
G01*
X60591000Y-112563000D01*
G75*
G02*
X60791000Y-112763000I0J-200000D01*
G01*
X60791000Y-113163000D01*
G75*
G02*
X60591000Y-113363000I-200000J0D01*
G01*
G37*
%TD.AperFunction*%
%TO.P,R1,1*%
%TO.N,/SDA*%
%TA.AperFunction,SMDPad,CuDef*%
G36*
G01*
X60591000Y-115013000D02*
X60041000Y-115013000D01*
G75*
G02*
X59841000Y-114813000I0J200000D01*
G01*
X59841000Y-114413000D01*
G75*
G02*
X60041000Y-114213000I200000J0D01*
G01*
X60591000Y-114213000D01*
G75*
G02*
X60791000Y-114413000I0J-200000D01*
G01*
X60791000Y-114813000D01*
G75*
G02*
X60591000Y-115013000I-200000J0D01*
G01*
G37*
%TD.AperFunction*%
%TD*%
D11*
%TO.P,Q8,3*%
%TO.N,/inb*%
X62983000Y-128425000D03*
%TO.P,Q8,2*%
%TO.N,Net-(Q8-Pad2)*%
X63933000Y-126425000D03*
%TO.P,Q8,1*%
%TO.N,VCCQ*%
X62033000Y-126425000D03*
%TD*%
%TO.P,Q6,3*%
%TO.N,/SCLq*%
X62983000Y-118837000D03*
%TO.P,Q6,2*%
%TO.N,Net-(Q6-Pad2)*%
X62033000Y-120837000D03*
%TO.P,Q6,1*%
%TO.N,VCCQ*%
X63933000Y-120837000D03*
%TD*%
%TO.P,Q4,3*%
%TO.N,/outb*%
X62922000Y-105375000D03*
%TO.P,Q4,2*%
%TO.N,Net-(Q4-Pad2)*%
X61972000Y-107375000D03*
%TO.P,Q4,1*%
%TO.N,VCC*%
X63872000Y-107375000D03*
%TD*%
%TO.P,Q1,3*%
%TO.N,/SDA*%
X62922000Y-114963000D03*
%TO.P,Q1,2*%
%TO.N,Net-(Q1-Pad2)*%
X63872000Y-112963000D03*
%TO.P,Q1,1*%
%TO.N,VCC*%
X61972000Y-112963000D03*
%TD*%
%TO.P,C6,2*%
%TO.N,VCCQ*%
%TA.AperFunction,SMDPad,CuDef*%
G36*
G01*
X68754000Y-123381000D02*
X68754000Y-123881000D01*
G75*
G02*
X68529000Y-124106000I-225000J0D01*
G01*
X68079000Y-124106000D01*
G75*
G02*
X67854000Y-123881000I0J225000D01*
G01*
X67854000Y-123381000D01*
G75*
G02*
X68079000Y-123156000I225000J0D01*
G01*
X68529000Y-123156000D01*
G75*
G02*
X68754000Y-123381000I0J-225000D01*
G01*
G37*
%TD.AperFunction*%
%TO.P,C6,1*%
%TO.N,GND2*%
%TA.AperFunction,SMDPad,CuDef*%
G36*
G01*
X70304000Y-123381000D02*
X70304000Y-123881000D01*
G75*
G02*
X70079000Y-124106000I-225000J0D01*
G01*
X69629000Y-124106000D01*
G75*
G02*
X69404000Y-123881000I0J225000D01*
G01*
X69404000Y-123381000D01*
G75*
G02*
X69629000Y-123156000I225000J0D01*
G01*
X70079000Y-123156000D01*
G75*
G02*
X70304000Y-123381000I0J-225000D01*
G01*
G37*
%TD.AperFunction*%
%TD*%
%TO.P,C4,2*%
%TO.N,VCCQ*%
%TA.AperFunction,SMDPad,CuDef*%
G36*
G01*
X68741000Y-121857000D02*
X68741000Y-122357000D01*
G75*
G02*
X68516000Y-122582000I-225000J0D01*
G01*
X68066000Y-122582000D01*
G75*
G02*
X67841000Y-122357000I0J225000D01*
G01*
X67841000Y-121857000D01*
G75*
G02*
X68066000Y-121632000I225000J0D01*
G01*
X68516000Y-121632000D01*
G75*
G02*
X68741000Y-121857000I0J-225000D01*
G01*
G37*
%TD.AperFunction*%
%TO.P,C4,1*%
%TO.N,GND2*%
%TA.AperFunction,SMDPad,CuDef*%
G36*
G01*
X70291000Y-121857000D02*
X70291000Y-122357000D01*
G75*
G02*
X70066000Y-122582000I-225000J0D01*
G01*
X69616000Y-122582000D01*
G75*
G02*
X69391000Y-122357000I0J225000D01*
G01*
X69391000Y-121857000D01*
G75*
G02*
X69616000Y-121632000I225000J0D01*
G01*
X70066000Y-121632000D01*
G75*
G02*
X70291000Y-121857000I0J-225000D01*
G01*
G37*
%TD.AperFunction*%
%TD*%
%TO.P,C2,2*%
%TO.N,VCC*%
%TA.AperFunction,SMDPad,CuDef*%
G36*
G01*
X68741000Y-111443000D02*
X68741000Y-111943000D01*
G75*
G02*
X68516000Y-112168000I-225000J0D01*
G01*
X68066000Y-112168000D01*
G75*
G02*
X67841000Y-111943000I0J225000D01*
G01*
X67841000Y-111443000D01*
G75*
G02*
X68066000Y-111218000I225000J0D01*
G01*
X68516000Y-111218000D01*
G75*
G02*
X68741000Y-111443000I0J-225000D01*
G01*
G37*
%TD.AperFunction*%
%TO.P,C2,1*%
%TO.N,GND*%
%TA.AperFunction,SMDPad,CuDef*%
G36*
G01*
X70291000Y-111443000D02*
X70291000Y-111943000D01*
G75*
G02*
X70066000Y-112168000I-225000J0D01*
G01*
X69616000Y-112168000D01*
G75*
G02*
X69391000Y-111943000I0J225000D01*
G01*
X69391000Y-111443000D01*
G75*
G02*
X69616000Y-111218000I225000J0D01*
G01*
X70066000Y-111218000D01*
G75*
G02*
X70291000Y-111443000I0J-225000D01*
G01*
G37*
%TD.AperFunction*%
%TD*%
%TO.P,C1,2*%
%TO.N,VCC*%
%TA.AperFunction,SMDPad,CuDef*%
G36*
G01*
X68741000Y-109919000D02*
X68741000Y-110419000D01*
G75*
G02*
X68516000Y-110644000I-225000J0D01*
G01*
X68066000Y-110644000D01*
G75*
G02*
X67841000Y-110419000I0J225000D01*
G01*
X67841000Y-109919000D01*
G75*
G02*
X68066000Y-109694000I225000J0D01*
G01*
X68516000Y-109694000D01*
G75*
G02*
X68741000Y-109919000I0J-225000D01*
G01*
G37*
%TD.AperFunction*%
%TO.P,C1,1*%
%TO.N,GND*%
%TA.AperFunction,SMDPad,CuDef*%
G36*
G01*
X70291000Y-109919000D02*
X70291000Y-110419000D01*
G75*
G02*
X70066000Y-110644000I-225000J0D01*
G01*
X69616000Y-110644000D01*
G75*
G02*
X69391000Y-110419000I0J225000D01*
G01*
X69391000Y-109919000D01*
G75*
G02*
X69616000Y-109694000I225000J0D01*
G01*
X70066000Y-109694000D01*
G75*
G02*
X70291000Y-109919000I0J-225000D01*
G01*
G37*
%TD.AperFunction*%
%TD*%
D34*
%TO.N,+5P*%
X65577000Y-92343000D03*
X65577000Y-88660000D03*
%TO.N,GND1*%
X68980000Y-81675000D03*
%TO.N,GNDPWR*%
X101518000Y-59477000D03*
D35*
X103169000Y-69510000D03*
X93263000Y-69510000D03*
D34*
X79674000Y-54905000D03*
X91612000Y-59477000D03*
X83230000Y-54905000D03*
X103089000Y-66081000D03*
X93183000Y-66081000D03*
X60624000Y-67097000D03*
X85460945Y-73463065D03*
X81557425Y-72155425D03*
X75229000Y-62525022D03*
X78478402Y-71674063D03*
D35*
%TO.N,+5VP*%
X73832000Y-69129000D03*
D34*
X90495000Y-83199000D03*
D35*
X69895006Y-93740000D03*
%TO.N,AC*%
X71419000Y-77130000D03*
D34*
%TO.N,/scl0*%
X62021000Y-87832000D03*
X60497000Y-91136500D03*
%TO.N,/sda0*%
X60497000Y-92597000D03*
D35*
%TO.N,+3.3VP*%
X75757678Y-72660868D03*
D34*
X86786000Y-66234000D03*
X78912000Y-72685000D03*
D36*
X83787627Y-71471744D03*
D34*
X88564000Y-60112000D03*
%TO.N,Net-(C9-Pad2)*%
X88071824Y-70541826D03*
%TO.N,Net-(C10-Pad1)*%
X91363013Y-68112998D03*
%TO.N,Net-(C11-Pad2)*%
X94782337Y-68752659D03*
X103169000Y-81929000D03*
%TO.N,Net-(C12-Pad1)*%
X101264000Y-68113000D03*
X101645000Y-80278000D03*
%TO.N,/L1_o1_nEn*%
X91612000Y-61001000D03*
X77388000Y-65900679D03*
%TO.N,/L1_o2_nEn*%
X78277000Y-63160000D03*
X94660000Y-60873998D03*
%TO.N,/SPI_MOSI*%
X75861034Y-67240237D03*
%TO.N,/SPI_MISO*%
X76264927Y-68928876D03*
%TO.N,/SPI_SCLK*%
X75460803Y-68282612D03*
%TO.N,/SPI_SSEL*%
X79436969Y-67373799D03*
%TO.N,/Int*%
X85162621Y-65572012D03*
X78399241Y-65890007D03*
%TO.N,Net-(C1-Pad1)*%
X92183500Y-55921000D03*
%TO.N,Net-(C2-Pad1)*%
X102089500Y-55959100D03*
%TO.N,Net-(D1-Pad1)*%
X91675500Y-54397000D03*
%TO.N,Net-(D2-Pad1)*%
X101581500Y-54397000D03*
%TO.N,+5V*%
X63925000Y-62779000D03*
%TO.N,Net-(C4-Pad1)*%
X74467000Y-80278000D03*
D35*
%TO.N,Net-(C6-Pad2)*%
X68371000Y-98058000D03*
D34*
%TO.N,Net-(C17-Pad2)*%
X77562000Y-72685000D03*
X76779000Y-62525020D03*
%TO.N,Net-(R27-Pad2)*%
X82237978Y-67773021D03*
X91596675Y-64032675D03*
%TO.N,/I2C_SDA*%
X80569875Y-68854535D03*
X90115886Y-85316284D03*
X70403000Y-87136000D03*
%TO.N,/I2C_SCL*%
X83524357Y-65711990D03*
X79530639Y-68902033D03*
X90115814Y-86415892D03*
X69133000Y-87136000D03*
%TO.N,/+5V_valid*%
X78277002Y-68875002D03*
%TO.N,VCC*%
X68291000Y-111693000D03*
D37*
X62856000Y-110169000D03*
D34*
X80791000Y-111693000D03*
X93291000Y-111693000D03*
X105791000Y-111693000D03*
D37*
X75356000Y-110169000D03*
X87856000Y-110169000D03*
X100356000Y-110169000D03*
D34*
%TO.N,GND*%
X69841000Y-111693000D03*
X82341000Y-111693000D03*
X94841000Y-111693000D03*
X107341000Y-111693000D03*
%TO.N,VCCQ*%
X68291000Y-122107000D03*
D37*
X62856000Y-123631000D03*
D34*
%TO.N,GND2*%
X88945000Y-83199000D03*
X84119000Y-79897000D03*
X93517000Y-79897000D03*
X82595000Y-79960500D03*
X95041000Y-79960500D03*
X68472032Y-90819000D03*
X69841000Y-122107000D03*
%TO.N,/SCL*%
X64379953Y-114996581D03*
%TO.N,/SDA*%
X64409645Y-113997010D03*
%TO.N,/SCLq*%
X61590919Y-118789860D03*
%TO.N,/SDAq*%
X61575469Y-119789753D03*
%TO.N,Net-(Q1-Pad2)*%
X67555000Y-112836000D03*
X65523004Y-111597102D03*
%TO.N,Net-(Q2-Pad2)*%
X69587000Y-112836000D03*
X62919496Y-113658467D03*
%TO.N,Net-(Q3-Pad2)*%
X68571000Y-112836000D03*
X65269000Y-108899006D03*
%TO.N,VCCQ*%
X80791000Y-122107000D03*
X93291000Y-122107000D03*
X105791000Y-122107000D03*
D37*
X75356000Y-123631000D03*
X87856000Y-123631000D03*
X100356000Y-123631000D03*
D34*
%TO.N,GND2*%
X82341000Y-122107000D03*
X94841000Y-122107000D03*
X107341000Y-122107000D03*
%TO.N,/SCL*%
X76879953Y-114996581D03*
X89379953Y-114996581D03*
X101879953Y-114996581D03*
%TO.N,/SDA*%
X76909645Y-113997010D03*
X89409645Y-113997010D03*
X101909645Y-113997010D03*
%TO.N,/SCLq*%
X74090919Y-118789860D03*
X86590919Y-118789860D03*
X99090919Y-118789860D03*
%TO.N,/SDAq*%
X74075469Y-119789753D03*
X86575469Y-119789753D03*
X99075469Y-119789753D03*
%TO.N,Net-(Q1-Pad2)*%
X80055000Y-112836000D03*
X92555000Y-112836000D03*
X105055000Y-112836000D03*
X78023004Y-111597102D03*
X90523004Y-111597102D03*
X103023004Y-111597102D03*
%TO.N,Net-(Q2-Pad2)*%
X82087000Y-112836000D03*
X94587000Y-112836000D03*
X107087000Y-112836000D03*
X75419496Y-113658467D03*
X87919496Y-113658467D03*
X100419496Y-113658467D03*
%TO.N,Net-(Q3-Pad2)*%
X81071000Y-112836000D03*
X93571000Y-112836000D03*
X106071000Y-112836000D03*
X77769000Y-108899006D03*
X90269000Y-108899006D03*
X102769000Y-108899006D03*
%TO.N,Net-(Q4-Pad2)*%
X70603000Y-112836000D03*
X62921996Y-106685189D03*
X83103000Y-112836000D03*
X95603000Y-112836000D03*
X108103000Y-112836000D03*
X75421996Y-106685189D03*
X87921996Y-106685189D03*
X100421996Y-106685189D03*
%TO.N,Net-(Q5-Pad2)*%
X66260265Y-122245990D03*
X67561379Y-120942295D03*
X78760265Y-122245990D03*
X91260265Y-122245990D03*
X103760265Y-122245990D03*
X80061379Y-120942295D03*
X92561379Y-120942295D03*
X105061379Y-120942295D03*
%TO.N,Net-(Q6-Pad2)*%
X69587000Y-120964000D03*
X63110000Y-119948000D03*
X82087000Y-120964000D03*
X94587000Y-120964000D03*
X107087000Y-120964000D03*
X75610000Y-119948000D03*
X88110000Y-119948000D03*
X100610000Y-119948000D03*
%TO.N,Net-(Q7-Pad2)*%
X62982726Y-127115423D03*
X68571000Y-120964000D03*
X75482726Y-127115423D03*
X87982726Y-127115423D03*
X100482726Y-127115423D03*
X81071000Y-120964000D03*
X93571000Y-120964000D03*
X106071000Y-120964000D03*
%TO.N,Net-(Q8-Pad2)*%
X70632135Y-120964043D03*
X66666000Y-126552000D03*
X83132135Y-120964043D03*
X95632135Y-120964043D03*
X108132135Y-120964043D03*
X79166000Y-126552000D03*
X91666000Y-126552000D03*
X104166000Y-126552000D03*
%TO.N,Net-(C3-Pad2)*%
X75991000Y-81929000D03*
%TO.N,Net-(C3-Pad1)*%
X75991000Y-80278000D03*
%TO.N,Net-(C4-Pad2)*%
X74467000Y-81929000D03*
%TO.N,Net-(C11-Pad1)*%
X103169000Y-80278000D03*
%TO.N,/K1_set*%
X85896992Y-84088000D03*
%TO.N,/K2_set*%
X92333000Y-86841000D03*
%TO.N,/K2_rst*%
X92755000Y-83061000D03*
X87997423Y-86030732D03*
%TO.N,Net-(C12-Pad2)*%
X101645000Y-81929000D03*
%TD*%
D38*
%TO.N,+5P*%
X63291000Y-58080000D02*
X63291000Y-59350000D01*
X70911000Y-59858000D02*
X71927000Y-59858000D01*
X70403000Y-60366000D02*
X70911000Y-59858000D01*
X63291000Y-59350000D02*
X64307000Y-60366000D01*
X68879000Y-61890000D02*
X68879000Y-60366000D01*
X68879000Y-62017000D02*
X68879000Y-61890000D01*
X68879000Y-60366000D02*
X70403000Y-60366000D01*
X64307000Y-60366000D02*
X68879000Y-60366000D01*
D39*
X64561000Y-100712000D02*
X64066000Y-100217000D01*
X64561000Y-102249000D02*
X64561000Y-100712000D01*
X64066000Y-98706000D02*
X63418000Y-98058000D01*
X64066000Y-100217000D02*
X64066000Y-98706000D01*
X65577000Y-92601098D02*
X65577000Y-92343000D01*
X64795088Y-93383010D02*
X65577000Y-92601098D01*
X63418000Y-94756000D02*
X64790990Y-93383010D01*
X64790990Y-93383010D02*
X64795088Y-93383010D01*
X63418000Y-98058000D02*
X63418000Y-94756000D01*
X63291000Y-84850000D02*
X63291000Y-83580000D01*
X65577000Y-87136000D02*
X63291000Y-84850000D01*
X65577000Y-92343000D02*
X65577000Y-88660000D01*
X65577000Y-88660000D02*
X65577000Y-87136000D01*
%TO.N,GND1*%
X67482000Y-56937000D02*
X65958000Y-55413000D01*
X68218000Y-56937000D02*
X67482000Y-56937000D01*
X68218000Y-56937000D02*
X69768000Y-56937000D01*
X71546000Y-56937000D02*
X71927000Y-57318000D01*
X69768000Y-56937000D02*
X71546000Y-56937000D01*
D38*
X62021000Y-57064000D02*
X63672000Y-55413000D01*
X62021000Y-58080000D02*
X62021000Y-57064000D01*
X65958000Y-55413000D02*
X63672000Y-55413000D01*
X62021000Y-58080000D02*
X62021000Y-59350000D01*
D40*
X62021000Y-59807000D02*
X60624000Y-61204000D01*
X62021000Y-59350000D02*
X62021000Y-59807000D01*
D39*
X61542990Y-93533010D02*
X63418000Y-91658000D01*
X61542990Y-99693990D02*
X61542990Y-93533010D01*
X62066000Y-100217000D02*
X61542990Y-99693990D01*
X62516000Y-100217000D02*
X62066000Y-100217000D01*
X62516000Y-101754000D02*
X62021000Y-102249000D01*
X62516000Y-100217000D02*
X62516000Y-101754000D01*
D41*
X61894000Y-84850000D02*
X62021000Y-84977000D01*
D39*
X62021000Y-83580000D02*
X62021000Y-84850000D01*
X62021000Y-83221998D02*
X62021000Y-83580000D01*
X63567998Y-81675000D02*
X62021000Y-83221998D01*
X68980000Y-81675000D02*
X63567998Y-81675000D01*
X63521011Y-91554989D02*
X63418000Y-91658000D01*
X63521011Y-87160014D02*
X63521011Y-91554989D01*
X62021000Y-85660003D02*
X63521011Y-87160014D01*
X62021000Y-84850000D02*
X62021000Y-85660003D01*
D42*
%TO.N,GNDPWR*%
X102661000Y-70018000D02*
X103169000Y-69510000D01*
X102661000Y-70272000D02*
X102661000Y-70018000D01*
D43*
X82214000Y-54498000D02*
X82823000Y-54498000D01*
X82823000Y-54498000D02*
X83230000Y-54905000D01*
X83637000Y-54498000D02*
X83230000Y-54905000D01*
X84246000Y-54498000D02*
X83637000Y-54498000D01*
D42*
X92882000Y-70272000D02*
X92882000Y-69891000D01*
X92882000Y-69891000D02*
X93263000Y-69510000D01*
D44*
X91236000Y-59101000D02*
X91612000Y-59477000D01*
X91236000Y-57921000D02*
X91236000Y-59101000D01*
X101142000Y-59101000D02*
X101518000Y-59477000D01*
X101142000Y-57953000D02*
X101142000Y-59101000D01*
X86151000Y-64049000D02*
X86151000Y-63287000D01*
X86786000Y-64684000D02*
X86151000Y-64049000D01*
D40*
X85516000Y-73518120D02*
X85460945Y-73463065D01*
X85516000Y-75098000D02*
X85516000Y-73518120D01*
D41*
X82057000Y-71655850D02*
X81557425Y-72155425D01*
X82057000Y-70272000D02*
X82057000Y-71655850D01*
D44*
%TO.N,+5VP*%
X96933500Y-58080000D02*
X93250500Y-54397000D01*
X98216000Y-58080000D02*
X96933500Y-58080000D01*
X106839500Y-58080000D02*
X103156500Y-54397000D01*
X108122000Y-58080000D02*
X106839500Y-58080000D01*
D40*
X97073000Y-86882000D02*
X94787000Y-86882000D01*
X97073000Y-84342000D02*
X94787000Y-84342000D01*
X76499000Y-84342000D02*
X74213000Y-84342000D01*
X76499000Y-86882000D02*
X74213000Y-86882000D01*
%TO.N,AC*%
X72943000Y-77130000D02*
X71419000Y-77130000D01*
D42*
%TO.N,/Load1N*%
X92882000Y-73272000D02*
X92882000Y-74971000D01*
D45*
X92882000Y-76368000D02*
X93136000Y-76622000D01*
X92882000Y-74971000D02*
X92882000Y-76368000D01*
D42*
%TO.N,/Load2N*%
X102661000Y-73272000D02*
X102661000Y-74971000D01*
D45*
X102661000Y-76241000D02*
X103042000Y-76622000D01*
X102661000Y-74971000D02*
X102661000Y-76241000D01*
D41*
%TO.N,/I2C_Int*%
X73077001Y-60511500D02*
X73077001Y-57703997D01*
X72460501Y-61128000D02*
X73077001Y-60511500D01*
X71292000Y-61128000D02*
X72460501Y-61128000D01*
X70530000Y-61890000D02*
X71292000Y-61128000D01*
X70530000Y-62894002D02*
X70530000Y-61890000D01*
X69287001Y-64137001D02*
X70530000Y-62894002D01*
X67189001Y-64137001D02*
X69287001Y-64137001D01*
X66339000Y-63287000D02*
X67189001Y-64137001D01*
X73550999Y-57229999D02*
X73077001Y-57703997D01*
X75648999Y-57229999D02*
X73550999Y-57229999D01*
X76499000Y-58080000D02*
X75648999Y-57229999D01*
%TO.N,/scl0*%
X60497000Y-89803000D02*
X60497000Y-91136500D01*
X62021000Y-88279000D02*
X60497000Y-89803000D01*
X62021000Y-87832000D02*
X62021000Y-88279000D01*
X59900999Y-85711999D02*
X59900999Y-84430001D01*
X62021000Y-87832000D02*
X59900999Y-85711999D01*
X59900999Y-84430001D02*
X60751000Y-83580000D01*
%TO.N,/sda0*%
X60497000Y-92597000D02*
X61513000Y-91581000D01*
X62771001Y-87470678D02*
X60751000Y-85450677D01*
X62771001Y-88417999D02*
X62771001Y-87470678D01*
X61513000Y-89676000D02*
X62771001Y-88417999D01*
X60751000Y-85450677D02*
X60751000Y-84850000D01*
X61513000Y-91581000D02*
X61513000Y-89676000D01*
%TO.N,/+5V_state*%
X76372000Y-59350000D02*
X76372000Y-59604000D01*
X69687989Y-64637011D02*
X71927000Y-62398000D01*
X66431009Y-64637011D02*
X69687989Y-64637011D01*
X65488999Y-63695001D02*
X66431009Y-64637011D01*
X65488999Y-62867001D02*
X65488999Y-63695001D01*
X66339000Y-62017000D02*
X65488999Y-62867001D01*
X74086000Y-60239000D02*
X71927000Y-62398000D01*
X75610000Y-60239000D02*
X74086000Y-60239000D01*
X76499000Y-59350000D02*
X75610000Y-60239000D01*
D45*
%TO.N,Net-(J1-Pad1)*%
X85770000Y-95899000D02*
X81833000Y-91962000D01*
X85770000Y-101868000D02*
X85770000Y-95899000D01*
D46*
%TO.N,+3.3VP*%
X68752000Y-68621000D02*
X64053000Y-68621000D01*
X71438999Y-71307999D02*
X68752000Y-68621000D01*
X74404809Y-71307999D02*
X71438999Y-71307999D01*
X75757678Y-72660868D02*
X74404809Y-71307999D01*
D40*
X86786000Y-66234000D02*
X86786000Y-66234000D01*
X85307000Y-64532389D02*
X85962622Y-65188011D01*
X85307000Y-64472000D02*
X85307000Y-64532389D01*
X85962622Y-65188011D02*
X85962622Y-65410622D01*
X85962622Y-65410622D02*
X86786000Y-66234000D01*
D44*
X88963254Y-60112000D02*
X88564000Y-60112000D01*
X91249254Y-62398000D02*
X88963254Y-60112000D01*
X91612000Y-62398000D02*
X91249254Y-62398000D01*
D40*
%TO.N,Net-(D5-Pad2)*%
X62275000Y-62779000D02*
X60624000Y-62779000D01*
D45*
%TO.N,Net-(C5-Pad1)*%
X75610000Y-91962000D02*
X74213000Y-91962000D01*
X78023000Y-98693000D02*
X78023000Y-94375000D01*
X77134000Y-99582000D02*
X78023000Y-98693000D01*
X78023000Y-94375000D02*
X75610000Y-91962000D01*
X77113000Y-99582000D02*
X77134000Y-99582000D01*
D41*
%TO.N,Net-(C9-Pad2)*%
X85307000Y-70272000D02*
X87801998Y-70272000D01*
X87801998Y-70272000D02*
X88071824Y-70541826D01*
D43*
%TO.N,Net-(C10-Pad1)*%
X91109015Y-67859000D02*
X91363013Y-68112998D01*
X88437000Y-67859000D02*
X91109015Y-67859000D01*
X87167000Y-69129000D02*
X88437000Y-67859000D01*
X85050000Y-69129000D02*
X87167000Y-69129000D01*
X84657000Y-69522000D02*
X85050000Y-69129000D01*
X84657000Y-70272000D02*
X84657000Y-69522000D01*
%TO.N,Net-(C11-Pad2)*%
X88271602Y-67387988D02*
X93417666Y-67387988D01*
X93417666Y-67387988D02*
X94782337Y-68752659D01*
X84861187Y-68678989D02*
X86980601Y-68678989D01*
X86980601Y-68678989D02*
X88271602Y-67387988D01*
X84007000Y-69533176D02*
X84861187Y-68678989D01*
X84007000Y-70272000D02*
X84007000Y-69533176D01*
D40*
X99173000Y-84342000D02*
X102407000Y-84342000D01*
D43*
%TO.N,Net-(C12-Pad1)*%
X83357000Y-69546766D02*
X83357000Y-70272000D01*
X84674787Y-68228978D02*
X83357000Y-69546766D01*
X86794201Y-68228978D02*
X84674787Y-68228978D01*
X88085202Y-66937977D02*
X86794201Y-68228978D01*
X94119977Y-66937977D02*
X88085202Y-66937977D01*
X100121000Y-69891000D02*
X97073000Y-69891000D01*
X97073000Y-69891000D02*
X94119977Y-66937977D01*
X101264000Y-68748000D02*
X100121000Y-69891000D01*
X101264000Y-68113000D02*
X101264000Y-68748000D01*
D40*
%TO.N,Net-(C13-Pad2)*%
X83691000Y-75098000D02*
X81880000Y-75098000D01*
X83616000Y-75023000D02*
X83691000Y-75098000D01*
X83616000Y-72939000D02*
X83616000Y-75023000D01*
D41*
X82707000Y-72030000D02*
X83616000Y-72939000D01*
X82707000Y-70272000D02*
X82707000Y-72030000D01*
D43*
%TO.N,Net-(C18-Pad2)*%
X83230000Y-57064000D02*
X84246000Y-56048000D01*
X83230000Y-58715000D02*
X83230000Y-57064000D01*
X83357000Y-64472000D02*
X83432003Y-64396997D01*
X83432003Y-64396997D02*
X83432003Y-63226635D01*
X83230000Y-63024632D02*
X83230000Y-58715000D01*
X83432003Y-63226635D02*
X83230000Y-63024632D01*
D41*
%TO.N,/L1_o2_nEn*%
X94660000Y-60874000D02*
X94660000Y-60873998D01*
X101392000Y-60874000D02*
X94660000Y-60874000D01*
X101519000Y-61001000D02*
X101392000Y-60874000D01*
%TO.N,/SPI_MOSI*%
X75861034Y-66105285D02*
X75861034Y-67240237D01*
X77494319Y-64472000D02*
X75861034Y-66105285D01*
X80757000Y-64472000D02*
X77494319Y-64472000D01*
%TO.N,/SPI_MISO*%
X80757000Y-70272000D02*
X77608051Y-70272000D01*
X77608051Y-70272000D02*
X76264927Y-68928876D01*
%TO.N,/SPI_SCLK*%
X81407000Y-64472000D02*
X81407000Y-65037878D01*
X81407000Y-65037878D02*
X79970880Y-66473998D01*
X79970880Y-66473998D02*
X79059998Y-66473998D01*
X77420996Y-68113000D02*
X75630415Y-68113000D01*
X79059998Y-66473998D02*
X77420996Y-68113000D01*
X75630415Y-68113000D02*
X75460803Y-68282612D01*
%TO.N,/SPI_SSEL*%
X82057000Y-65272000D02*
X79955201Y-67373799D01*
X82057000Y-64472000D02*
X82057000Y-65272000D01*
X79955201Y-67373799D02*
X79436969Y-67373799D01*
%TO.N,/Int*%
X84657000Y-64472000D02*
X84657000Y-65066391D01*
X84657000Y-65066391D02*
X85162621Y-65572012D01*
%TO.N,Net-(Q1-Pad1)*%
X93263000Y-58842000D02*
X93136000Y-58715000D01*
X93263000Y-59477000D02*
X93263000Y-58842000D01*
X93136000Y-57921000D02*
X93136000Y-58715000D01*
X93263000Y-61001000D02*
X93263000Y-59477000D01*
D46*
X83558501Y-80860501D02*
X84119000Y-81421000D01*
X81595001Y-80860501D02*
X83558501Y-80860501D01*
X80695000Y-79960500D02*
X81595001Y-80860501D01*
X85643000Y-79897000D02*
X84119000Y-81421000D01*
X85769000Y-79897000D02*
X85643000Y-79897000D01*
D41*
%TO.N,Net-(Q2-Pad1)*%
X103169000Y-58842000D02*
X103042000Y-58715000D01*
X103169000Y-59477000D02*
X103169000Y-58842000D01*
X103042000Y-57953000D02*
X103042000Y-58715000D01*
X103169000Y-59477000D02*
X103169000Y-61001000D01*
D39*
%TO.N,Net-(C6-Pad2)*%
X68218000Y-55387000D02*
X69768000Y-55387000D01*
X71318000Y-55387000D02*
X71927000Y-54778000D01*
X69768000Y-55387000D02*
X71318000Y-55387000D01*
X69641000Y-100712000D02*
X69146000Y-100217000D01*
X69641000Y-102249000D02*
X69641000Y-100712000D01*
X69146000Y-98833000D02*
X68371000Y-98058000D01*
X69146000Y-100217000D02*
X69146000Y-98833000D01*
X68371000Y-98058000D02*
X68371000Y-98058000D01*
D41*
%TO.N,Net-(C14-Pad2)*%
X80182002Y-72177000D02*
X80029000Y-72177000D01*
X81407000Y-70952002D02*
X80182002Y-72177000D01*
X81407000Y-70272000D02*
X81407000Y-70952002D01*
D40*
%TO.N,Net-(D6-Pad2)*%
X62352000Y-68672000D02*
X62403000Y-68621000D01*
X60624000Y-68672000D02*
X62352000Y-68672000D01*
D45*
%TO.N,Net-(J1-Pad3)*%
X90850000Y-95899000D02*
X94787000Y-91962000D01*
X90850000Y-101868000D02*
X90850000Y-95899000D01*
D40*
%TO.N,Net-(R11-Pad2)*%
X74768000Y-77130000D02*
X74768000Y-76194000D01*
X75102000Y-75860000D02*
X76499000Y-75860000D01*
X74768000Y-76194000D02*
X75102000Y-75860000D01*
%TO.N,Net-(R11-Pad1)*%
X79086000Y-75098000D02*
X78324000Y-75860000D01*
X80055000Y-75098000D02*
X79086000Y-75098000D01*
D43*
%TO.N,Net-(R26-Pad1)*%
X84078000Y-61422000D02*
X84118000Y-61382000D01*
X84007000Y-61493000D02*
X84118000Y-61382000D01*
X84007000Y-64472000D02*
X84007000Y-61493000D01*
D41*
%TO.N,Net-(R27-Pad2)*%
X82214000Y-67749043D02*
X82237978Y-67773021D01*
X82214000Y-66081000D02*
X82214000Y-67749043D01*
X82707000Y-65588000D02*
X82214000Y-66081000D01*
X82707000Y-64472000D02*
X82707000Y-65588000D01*
%TO.N,/I2C_SDA*%
X80590340Y-68875000D02*
X80569875Y-68854535D01*
X83357000Y-68875000D02*
X80590340Y-68875000D01*
X86541949Y-67744146D02*
X84487854Y-67744146D01*
X87252085Y-67034010D02*
X86541949Y-67744146D01*
X87274180Y-67034010D02*
X87252085Y-67034010D01*
X87611010Y-66697180D02*
X87274180Y-67034010D01*
X87611010Y-66675085D02*
X87611010Y-66697180D01*
X89541001Y-64745094D02*
X87611010Y-66675085D01*
X89541001Y-61608999D02*
X89541001Y-64745094D01*
X89099001Y-61166999D02*
X89541001Y-61608999D01*
X88271001Y-61166999D02*
X89099001Y-61166999D01*
X84487854Y-67744146D02*
X83357000Y-68875000D01*
X87421000Y-62017000D02*
X88271001Y-61166999D01*
X88651437Y-86780733D02*
X90115886Y-85316284D01*
X86588688Y-85731999D02*
X87637422Y-86780733D01*
X71807001Y-85731999D02*
X86588688Y-85731999D01*
X87637422Y-86780733D02*
X88651437Y-86780733D01*
X70403000Y-87136000D02*
X71807001Y-85731999D01*
D43*
%TO.N,Net-(C19-Pad2)*%
X82030000Y-60944000D02*
X82468000Y-61382000D01*
X82030000Y-58715000D02*
X82030000Y-60944000D01*
X82030000Y-56232000D02*
X82214000Y-56048000D01*
X82030000Y-58715000D02*
X82030000Y-56232000D01*
D39*
%TO.N,VCC*%
X68291000Y-110169000D02*
X68291000Y-111693000D01*
D44*
X67174000Y-113787002D02*
X67174000Y-114425000D01*
X66654999Y-113268001D02*
X67174000Y-113787002D01*
X66654999Y-113268001D02*
X66888999Y-113502001D01*
X66654999Y-112403999D02*
X66654999Y-113268001D01*
X67365998Y-111693000D02*
X66654999Y-112403999D01*
X68291000Y-111693000D02*
X67365998Y-111693000D01*
D39*
X68291000Y-108417000D02*
X68444000Y-108264000D01*
X68291000Y-110169000D02*
X68291000Y-108417000D01*
D44*
X61972000Y-111561000D02*
X62094000Y-111439000D01*
X61972000Y-112963000D02*
X61972000Y-111561000D01*
X61972000Y-112963000D02*
X60316000Y-112963000D01*
X63872000Y-107375000D02*
X65523000Y-107375000D01*
X63872000Y-107375000D02*
X63745000Y-107502000D01*
X63745000Y-107502000D02*
X63745000Y-108899000D01*
D39*
X68291000Y-110169000D02*
X62856000Y-110169000D01*
D44*
X62094000Y-110931000D02*
X62856000Y-110169000D01*
X62094000Y-111439000D02*
X62094000Y-110931000D01*
X63745000Y-109280000D02*
X62856000Y-110169000D01*
X63745000Y-108899000D02*
X63745000Y-109280000D01*
X76372000Y-107375000D02*
X78023000Y-107375000D01*
X88872000Y-107375000D02*
X90523000Y-107375000D01*
X101372000Y-107375000D02*
X103023000Y-107375000D01*
X76245000Y-109280000D02*
X75356000Y-110169000D01*
X88745000Y-109280000D02*
X87856000Y-110169000D01*
X101245000Y-109280000D02*
X100356000Y-110169000D01*
X79154999Y-112403999D02*
X79154999Y-113268001D01*
X91654999Y-112403999D02*
X91654999Y-113268001D01*
X104154999Y-112403999D02*
X104154999Y-113268001D01*
X80791000Y-111693000D02*
X79865998Y-111693000D01*
X93291000Y-111693000D02*
X92365998Y-111693000D01*
X105791000Y-111693000D02*
X104865998Y-111693000D01*
X74472000Y-112963000D02*
X74472000Y-111561000D01*
X86972000Y-112963000D02*
X86972000Y-111561000D01*
X99472000Y-112963000D02*
X99472000Y-111561000D01*
X79674000Y-113787002D02*
X79674000Y-114425000D01*
X92174000Y-113787002D02*
X92174000Y-114425000D01*
X104674000Y-113787002D02*
X104674000Y-114425000D01*
X74594000Y-111439000D02*
X74594000Y-110931000D01*
X87094000Y-111439000D02*
X87094000Y-110931000D01*
X99594000Y-111439000D02*
X99594000Y-110931000D01*
X79865998Y-111693000D02*
X79154999Y-112403999D01*
X92365998Y-111693000D02*
X91654999Y-112403999D01*
X104865998Y-111693000D02*
X104154999Y-112403999D01*
X74472000Y-112963000D02*
X72816000Y-112963000D01*
X86972000Y-112963000D02*
X85316000Y-112963000D01*
X99472000Y-112963000D02*
X97816000Y-112963000D01*
X79154999Y-113268001D02*
X79674000Y-113787002D01*
X91654999Y-113268001D02*
X92174000Y-113787002D01*
X104154999Y-113268001D02*
X104674000Y-113787002D01*
X76372000Y-107375000D02*
X76245000Y-107502000D01*
X88872000Y-107375000D02*
X88745000Y-107502000D01*
X101372000Y-107375000D02*
X101245000Y-107502000D01*
X74472000Y-111561000D02*
X74594000Y-111439000D01*
X86972000Y-111561000D02*
X87094000Y-111439000D01*
X99472000Y-111561000D02*
X99594000Y-111439000D01*
D39*
X80791000Y-110169000D02*
X80791000Y-111693000D01*
X93291000Y-110169000D02*
X93291000Y-111693000D01*
X105791000Y-110169000D02*
X105791000Y-111693000D01*
X80791000Y-108417000D02*
X80944000Y-108264000D01*
X93291000Y-108417000D02*
X93444000Y-108264000D01*
X105791000Y-108417000D02*
X105944000Y-108264000D01*
X80791000Y-110169000D02*
X75356000Y-110169000D01*
X93291000Y-110169000D02*
X87856000Y-110169000D01*
X105791000Y-110169000D02*
X100356000Y-110169000D01*
D44*
X74594000Y-110931000D02*
X75356000Y-110169000D01*
X87094000Y-110931000D02*
X87856000Y-110169000D01*
X99594000Y-110931000D02*
X100356000Y-110169000D01*
X79154999Y-113268001D02*
X79388999Y-113502001D01*
X91654999Y-113268001D02*
X91888999Y-113502001D01*
X104154999Y-113268001D02*
X104388999Y-113502001D01*
X76245000Y-108899000D02*
X76245000Y-109280000D01*
X88745000Y-108899000D02*
X88745000Y-109280000D01*
X101245000Y-108899000D02*
X101245000Y-109280000D01*
X76245000Y-107502000D02*
X76245000Y-108899000D01*
X88745000Y-107502000D02*
X88745000Y-108899000D01*
X101245000Y-107502000D02*
X101245000Y-108899000D01*
D39*
X80791000Y-110169000D02*
X80791000Y-108417000D01*
X93291000Y-110169000D02*
X93291000Y-108417000D01*
X105791000Y-110169000D02*
X105791000Y-108417000D01*
%TO.N,GND*%
X69841000Y-110169000D02*
X69841000Y-111693000D01*
X69841000Y-108391000D02*
X69714000Y-108264000D01*
X69841000Y-110169000D02*
X69841000Y-108391000D01*
D46*
X70718002Y-111693000D02*
X69841000Y-111693000D01*
X71453001Y-112427999D02*
X70718002Y-111693000D01*
X71453001Y-112427999D02*
X71453001Y-113244001D01*
X70984000Y-113713002D02*
X70984000Y-114425000D01*
X71453001Y-113244001D02*
X70984000Y-113713002D01*
X83484000Y-113713002D02*
X83484000Y-114425000D01*
X95984000Y-113713002D02*
X95984000Y-114425000D01*
X108484000Y-113713002D02*
X108484000Y-114425000D01*
D39*
X82341000Y-110169000D02*
X82341000Y-108391000D01*
X94841000Y-110169000D02*
X94841000Y-108391000D01*
X107341000Y-110169000D02*
X107341000Y-108391000D01*
D46*
X83953001Y-112427999D02*
X83218002Y-111693000D01*
X96453001Y-112427999D02*
X95718002Y-111693000D01*
X108953001Y-112427999D02*
X108218002Y-111693000D01*
X83218002Y-111693000D02*
X82341000Y-111693000D01*
X95718002Y-111693000D02*
X94841000Y-111693000D01*
X108218002Y-111693000D02*
X107341000Y-111693000D01*
X83953001Y-113244001D02*
X83484000Y-113713002D01*
X96453001Y-113244001D02*
X95984000Y-113713002D01*
X108953001Y-113244001D02*
X108484000Y-113713002D01*
D39*
X82341000Y-108391000D02*
X82214000Y-108264000D01*
X94841000Y-108391000D02*
X94714000Y-108264000D01*
X107341000Y-108391000D02*
X107214000Y-108264000D01*
X82341000Y-110169000D02*
X82341000Y-111693000D01*
X94841000Y-110169000D02*
X94841000Y-111693000D01*
X107341000Y-110169000D02*
X107341000Y-111693000D01*
D46*
X83953001Y-112427999D02*
X83953001Y-113244001D01*
X96453001Y-112427999D02*
X96453001Y-113244001D01*
X108953001Y-112427999D02*
X108953001Y-113244001D01*
D39*
%TO.N,VCCQ*%
X68304000Y-122120000D02*
X68291000Y-122107000D01*
X68304000Y-123631000D02*
X68304000Y-122120000D01*
X68304000Y-125396000D02*
X68444000Y-125536000D01*
X68304000Y-123631000D02*
X68304000Y-125396000D01*
D44*
X62033000Y-126425000D02*
X60443000Y-126425000D01*
X62033000Y-124962000D02*
X62094000Y-124901000D01*
X62033000Y-126425000D02*
X62033000Y-124962000D01*
X63933000Y-122300000D02*
X63872000Y-122361000D01*
X63933000Y-120837000D02*
X63933000Y-122300000D01*
X63933000Y-120837000D02*
X65523000Y-120837000D01*
D39*
X68304000Y-123631000D02*
X62856000Y-123631000D01*
D44*
X62094000Y-124393000D02*
X62856000Y-123631000D01*
X62094000Y-124901000D02*
X62094000Y-124393000D01*
X63872000Y-122615000D02*
X62856000Y-123631000D01*
X63872000Y-122361000D02*
X63872000Y-122615000D01*
X66654999Y-121345989D02*
X66654999Y-119894001D01*
X66654999Y-119894001D02*
X67174000Y-119375000D01*
X67416010Y-122107000D02*
X66654999Y-121345989D01*
X68291000Y-122107000D02*
X67416010Y-122107000D01*
X63933000Y-122172000D02*
X63744000Y-122361000D01*
X63933000Y-120837000D02*
X63933000Y-122172000D01*
D39*
%TO.N,GND2*%
X67596000Y-101754000D02*
X67101000Y-102249000D01*
X67596000Y-100217000D02*
X67596000Y-101754000D01*
D46*
X93580500Y-79960500D02*
X93517000Y-79897000D01*
X95041000Y-79960500D02*
X93580500Y-79960500D01*
X84055500Y-79960500D02*
X84119000Y-79897000D01*
X82595000Y-79960500D02*
X84055500Y-79960500D01*
D39*
X68371000Y-91658000D02*
X68371000Y-91658000D01*
X68472032Y-91556968D02*
X68371000Y-91658000D01*
X68472032Y-90819000D02*
X68472032Y-91556968D01*
X67146000Y-100217000D02*
X66495990Y-99566990D01*
X67596000Y-100217000D02*
X67146000Y-100217000D01*
X66466000Y-95518000D02*
X66495990Y-95547990D01*
X65640500Y-95518000D02*
X66466000Y-95518000D01*
X66495990Y-99566990D02*
X66495990Y-95547990D01*
X68371000Y-92343000D02*
X68371000Y-91658000D01*
X66495990Y-94218010D02*
X68371000Y-92343000D01*
X66495990Y-95547990D02*
X66495990Y-94218010D01*
X69854000Y-122120000D02*
X69841000Y-122107000D01*
X69854000Y-123631000D02*
X69854000Y-122120000D01*
X69854000Y-125396000D02*
X69714000Y-125536000D01*
X69854000Y-123631000D02*
X69854000Y-125396000D01*
D46*
X71482136Y-121372044D02*
X71482136Y-120556042D01*
X70747180Y-122107000D02*
X71482136Y-121372044D01*
X69841000Y-122107000D02*
X70747180Y-122107000D01*
X70984000Y-120057906D02*
X70984000Y-119375000D01*
X71482136Y-120556042D02*
X70984000Y-120057906D01*
D41*
%TO.N,/inb*%
X60793000Y-128425000D02*
X60443000Y-128075000D01*
X62983000Y-128425000D02*
X60793000Y-128425000D01*
X65173000Y-128425000D02*
X65523000Y-128075000D01*
X62983000Y-128425000D02*
X65173000Y-128425000D01*
X68863999Y-128926001D02*
X69714000Y-128076000D01*
X66374001Y-128926001D02*
X68863999Y-128926001D01*
X65523000Y-128075000D02*
X66374001Y-128926001D01*
%TO.N,/SDA*%
X60666000Y-114963000D02*
X60316000Y-114613000D01*
X62922000Y-114963000D02*
X60666000Y-114963000D01*
X63887990Y-113997010D02*
X62922000Y-114963000D01*
X64409645Y-113997010D02*
X63887990Y-113997010D01*
X64907010Y-113997010D02*
X65523000Y-114613000D01*
X64409645Y-113997010D02*
X64907010Y-113997010D01*
%TO.N,/outb*%
X65173000Y-105375000D02*
X65523000Y-105725000D01*
X62922000Y-105375000D02*
X65173000Y-105375000D01*
X66374001Y-104873999D02*
X65523000Y-105725000D01*
X69714000Y-105470000D02*
X69117999Y-104873999D01*
X69714000Y-105724000D02*
X69714000Y-105470000D01*
X69117999Y-104873999D02*
X66374001Y-104873999D01*
X62553484Y-105006484D02*
X61033516Y-105006484D01*
X61033516Y-105006484D02*
X60316000Y-105724000D01*
X62922000Y-105375000D02*
X62553484Y-105006484D01*
%TO.N,/SCLq*%
X65173000Y-118837000D02*
X65523000Y-119187000D01*
X62983000Y-118837000D02*
X65173000Y-118837000D01*
X61638059Y-118837000D02*
X61590919Y-118789860D01*
X62983000Y-118837000D02*
X61638059Y-118837000D01*
X60443000Y-119187000D02*
X60840140Y-118789860D01*
X60840140Y-118789860D02*
X61590919Y-118789860D01*
%TO.N,Net-(Q1-Pad2)*%
X68444000Y-114425000D02*
X67824010Y-113805010D01*
X67824010Y-113105010D02*
X67555000Y-112836000D01*
X67824010Y-113805010D02*
X67824010Y-113105010D01*
X63872000Y-112963000D02*
X65523000Y-112963000D01*
X63872000Y-111567000D02*
X63744000Y-111439000D01*
X63872000Y-112963000D02*
X63872000Y-111567000D01*
X65523000Y-112963000D02*
X65523000Y-111597106D01*
X65523000Y-111597106D02*
X65523004Y-111597102D01*
%TO.N,Net-(Q2-Pad2)*%
X69714000Y-112963000D02*
X69587000Y-112836000D01*
X69714000Y-114425000D02*
X69714000Y-112963000D01*
D44*
%TO.N,VCCQ*%
X74594000Y-124393000D02*
X75356000Y-123631000D01*
X87094000Y-124393000D02*
X87856000Y-123631000D01*
X99594000Y-124393000D02*
X100356000Y-123631000D01*
D39*
X80804000Y-123631000D02*
X80804000Y-122120000D01*
X93304000Y-123631000D02*
X93304000Y-122120000D01*
X105804000Y-123631000D02*
X105804000Y-122120000D01*
D44*
X74594000Y-124901000D02*
X74594000Y-124393000D01*
X87094000Y-124901000D02*
X87094000Y-124393000D01*
X99594000Y-124901000D02*
X99594000Y-124393000D01*
D39*
X80804000Y-122120000D02*
X80791000Y-122107000D01*
X93304000Y-122120000D02*
X93291000Y-122107000D01*
X105804000Y-122120000D02*
X105791000Y-122107000D01*
D44*
X76372000Y-122615000D02*
X75356000Y-123631000D01*
X88872000Y-122615000D02*
X87856000Y-123631000D01*
X101372000Y-122615000D02*
X100356000Y-123631000D01*
D39*
X80804000Y-123631000D02*
X80804000Y-125396000D01*
X93304000Y-123631000D02*
X93304000Y-125396000D01*
X105804000Y-123631000D02*
X105804000Y-125396000D01*
D44*
X76433000Y-122172000D02*
X76244000Y-122361000D01*
X88933000Y-122172000D02*
X88744000Y-122361000D01*
X101433000Y-122172000D02*
X101244000Y-122361000D01*
X79154999Y-121345989D02*
X79154999Y-119894001D01*
X91654999Y-121345989D02*
X91654999Y-119894001D01*
X104154999Y-121345989D02*
X104154999Y-119894001D01*
X76433000Y-122300000D02*
X76372000Y-122361000D01*
X88933000Y-122300000D02*
X88872000Y-122361000D01*
X101433000Y-122300000D02*
X101372000Y-122361000D01*
D39*
X80804000Y-123631000D02*
X75356000Y-123631000D01*
X93304000Y-123631000D02*
X87856000Y-123631000D01*
X105804000Y-123631000D02*
X100356000Y-123631000D01*
D44*
X74533000Y-124962000D02*
X74594000Y-124901000D01*
X87033000Y-124962000D02*
X87094000Y-124901000D01*
X99533000Y-124962000D02*
X99594000Y-124901000D01*
X76433000Y-120837000D02*
X76433000Y-122300000D01*
X88933000Y-120837000D02*
X88933000Y-122300000D01*
X101433000Y-120837000D02*
X101433000Y-122300000D01*
X76372000Y-122361000D02*
X76372000Y-122615000D01*
X88872000Y-122361000D02*
X88872000Y-122615000D01*
X101372000Y-122361000D02*
X101372000Y-122615000D01*
X74533000Y-126425000D02*
X74533000Y-124962000D01*
X87033000Y-126425000D02*
X87033000Y-124962000D01*
X99533000Y-126425000D02*
X99533000Y-124962000D01*
X76433000Y-120837000D02*
X78023000Y-120837000D01*
X88933000Y-120837000D02*
X90523000Y-120837000D01*
X101433000Y-120837000D02*
X103023000Y-120837000D01*
D39*
X80804000Y-125396000D02*
X80944000Y-125536000D01*
X93304000Y-125396000D02*
X93444000Y-125536000D01*
X105804000Y-125396000D02*
X105944000Y-125536000D01*
D44*
X74533000Y-126425000D02*
X72943000Y-126425000D01*
X87033000Y-126425000D02*
X85443000Y-126425000D01*
X99533000Y-126425000D02*
X97943000Y-126425000D01*
X79154999Y-119894001D02*
X79674000Y-119375000D01*
X91654999Y-119894001D02*
X92174000Y-119375000D01*
X104154999Y-119894001D02*
X104674000Y-119375000D01*
X80791000Y-122107000D02*
X79916010Y-122107000D01*
X93291000Y-122107000D02*
X92416010Y-122107000D01*
X105791000Y-122107000D02*
X104916010Y-122107000D01*
X76433000Y-120837000D02*
X76433000Y-122172000D01*
X88933000Y-120837000D02*
X88933000Y-122172000D01*
X101433000Y-120837000D02*
X101433000Y-122172000D01*
X79916010Y-122107000D02*
X79154999Y-121345989D01*
X92416010Y-122107000D02*
X91654999Y-121345989D01*
X104916010Y-122107000D02*
X104154999Y-121345989D01*
D46*
%TO.N,GND2*%
X83484000Y-120057906D02*
X83484000Y-119375000D01*
X95984000Y-120057906D02*
X95984000Y-119375000D01*
X108484000Y-120057906D02*
X108484000Y-119375000D01*
D39*
X82354000Y-123631000D02*
X82354000Y-125396000D01*
X94854000Y-123631000D02*
X94854000Y-125396000D01*
X107354000Y-123631000D02*
X107354000Y-125396000D01*
X82354000Y-122120000D02*
X82341000Y-122107000D01*
X94854000Y-122120000D02*
X94841000Y-122107000D01*
X107354000Y-122120000D02*
X107341000Y-122107000D01*
D46*
X83982136Y-121372044D02*
X83982136Y-120556042D01*
X96482136Y-121372044D02*
X96482136Y-120556042D01*
X108982136Y-121372044D02*
X108982136Y-120556042D01*
X82341000Y-122107000D02*
X83247180Y-122107000D01*
X94841000Y-122107000D02*
X95747180Y-122107000D01*
X107341000Y-122107000D02*
X108247180Y-122107000D01*
X83247180Y-122107000D02*
X83982136Y-121372044D01*
X95747180Y-122107000D02*
X96482136Y-121372044D01*
X108247180Y-122107000D02*
X108982136Y-121372044D01*
D39*
X82354000Y-125396000D02*
X82214000Y-125536000D01*
X94854000Y-125396000D02*
X94714000Y-125536000D01*
X107354000Y-125396000D02*
X107214000Y-125536000D01*
X82354000Y-123631000D02*
X82354000Y-122120000D01*
X94854000Y-123631000D02*
X94854000Y-122120000D01*
X107354000Y-123631000D02*
X107354000Y-122120000D01*
D46*
X83982136Y-120556042D02*
X83484000Y-120057906D01*
X96482136Y-120556042D02*
X95984000Y-120057906D01*
X108982136Y-120556042D02*
X108484000Y-120057906D01*
D41*
%TO.N,/inb*%
X73293000Y-128425000D02*
X72943000Y-128075000D01*
X85793000Y-128425000D02*
X85443000Y-128075000D01*
X98293000Y-128425000D02*
X97943000Y-128075000D01*
X75483000Y-128425000D02*
X73293000Y-128425000D01*
X87983000Y-128425000D02*
X85793000Y-128425000D01*
X100483000Y-128425000D02*
X98293000Y-128425000D01*
X77673000Y-128425000D02*
X78023000Y-128075000D01*
X90173000Y-128425000D02*
X90523000Y-128075000D01*
X102673000Y-128425000D02*
X103023000Y-128075000D01*
X75483000Y-128425000D02*
X77673000Y-128425000D01*
X87983000Y-128425000D02*
X90173000Y-128425000D01*
X100483000Y-128425000D02*
X102673000Y-128425000D01*
X81363999Y-128926001D02*
X82214000Y-128076000D01*
X93863999Y-128926001D02*
X94714000Y-128076000D01*
X106363999Y-128926001D02*
X107214000Y-128076000D01*
X78874001Y-128926001D02*
X81363999Y-128926001D01*
X91374001Y-128926001D02*
X93863999Y-128926001D01*
X103874001Y-128926001D02*
X106363999Y-128926001D01*
X78023000Y-128075000D02*
X78874001Y-128926001D01*
X90523000Y-128075000D02*
X91374001Y-128926001D01*
X103023000Y-128075000D02*
X103874001Y-128926001D01*
%TO.N,/SDA*%
X73166000Y-114963000D02*
X72816000Y-114613000D01*
X85666000Y-114963000D02*
X85316000Y-114613000D01*
X98166000Y-114963000D02*
X97816000Y-114613000D01*
X75422000Y-114963000D02*
X73166000Y-114963000D01*
X87922000Y-114963000D02*
X85666000Y-114963000D01*
X100422000Y-114963000D02*
X98166000Y-114963000D01*
X76387990Y-113997010D02*
X75422000Y-114963000D01*
X88887990Y-113997010D02*
X87922000Y-114963000D01*
X101387990Y-113997010D02*
X100422000Y-114963000D01*
X76909645Y-113997010D02*
X76387990Y-113997010D01*
X89409645Y-113997010D02*
X88887990Y-113997010D01*
X101909645Y-113997010D02*
X101387990Y-113997010D01*
X77407010Y-113997010D02*
X78023000Y-114613000D01*
X89907010Y-113997010D02*
X90523000Y-114613000D01*
X102407010Y-113997010D02*
X103023000Y-114613000D01*
X76909645Y-113997010D02*
X77407010Y-113997010D01*
X89409645Y-113997010D02*
X89907010Y-113997010D01*
X101909645Y-113997010D02*
X102407010Y-113997010D01*
%TO.N,/outb*%
X77673000Y-105375000D02*
X78023000Y-105725000D01*
X90173000Y-105375000D02*
X90523000Y-105725000D01*
X102673000Y-105375000D02*
X103023000Y-105725000D01*
X75422000Y-105375000D02*
X77673000Y-105375000D01*
X87922000Y-105375000D02*
X90173000Y-105375000D01*
X100422000Y-105375000D02*
X102673000Y-105375000D01*
X78874001Y-104873999D02*
X78023000Y-105725000D01*
X91374001Y-104873999D02*
X90523000Y-105725000D01*
X103874001Y-104873999D02*
X103023000Y-105725000D01*
X82214000Y-105470000D02*
X81617999Y-104873999D01*
X94714000Y-105470000D02*
X94117999Y-104873999D01*
X107214000Y-105470000D02*
X106617999Y-104873999D01*
X82214000Y-105724000D02*
X82214000Y-105470000D01*
X94714000Y-105724000D02*
X94714000Y-105470000D01*
X107214000Y-105724000D02*
X107214000Y-105470000D01*
X81617999Y-104873999D02*
X78874001Y-104873999D01*
X94117999Y-104873999D02*
X91374001Y-104873999D01*
X106617999Y-104873999D02*
X103874001Y-104873999D01*
X75053484Y-105006484D02*
X73533516Y-105006484D01*
X87553484Y-105006484D02*
X86033516Y-105006484D01*
X100053484Y-105006484D02*
X98533516Y-105006484D01*
X73533516Y-105006484D02*
X72816000Y-105724000D01*
X86033516Y-105006484D02*
X85316000Y-105724000D01*
X98533516Y-105006484D02*
X97816000Y-105724000D01*
X75422000Y-105375000D02*
X75053484Y-105006484D01*
X87922000Y-105375000D02*
X87553484Y-105006484D01*
X100422000Y-105375000D02*
X100053484Y-105006484D01*
%TO.N,/SCLq*%
X77673000Y-118837000D02*
X78023000Y-119187000D01*
X90173000Y-118837000D02*
X90523000Y-119187000D01*
X102673000Y-118837000D02*
X103023000Y-119187000D01*
X75483000Y-118837000D02*
X77673000Y-118837000D01*
X87983000Y-118837000D02*
X90173000Y-118837000D01*
X100483000Y-118837000D02*
X102673000Y-118837000D01*
X74138059Y-118837000D02*
X74090919Y-118789860D01*
X86638059Y-118837000D02*
X86590919Y-118789860D01*
X99138059Y-118837000D02*
X99090919Y-118789860D01*
X75483000Y-118837000D02*
X74138059Y-118837000D01*
X87983000Y-118837000D02*
X86638059Y-118837000D01*
X100483000Y-118837000D02*
X99138059Y-118837000D01*
X72943000Y-119187000D02*
X73340140Y-118789860D01*
X85443000Y-119187000D02*
X85840140Y-118789860D01*
X97943000Y-119187000D02*
X98340140Y-118789860D01*
X73340140Y-118789860D02*
X74090919Y-118789860D01*
X85840140Y-118789860D02*
X86590919Y-118789860D01*
X98340140Y-118789860D02*
X99090919Y-118789860D01*
%TO.N,Net-(Q1-Pad2)*%
X80944000Y-114425000D02*
X80324010Y-113805010D01*
X93444000Y-114425000D02*
X92824010Y-113805010D01*
X105944000Y-114425000D02*
X105324010Y-113805010D01*
X80324010Y-113105010D02*
X80055000Y-112836000D01*
X92824010Y-113105010D02*
X92555000Y-112836000D01*
X105324010Y-113105010D02*
X105055000Y-112836000D01*
X80324010Y-113805010D02*
X80324010Y-113105010D01*
X92824010Y-113805010D02*
X92824010Y-113105010D01*
X105324010Y-113805010D02*
X105324010Y-113105010D01*
X76372000Y-112963000D02*
X78023000Y-112963000D01*
X88872000Y-112963000D02*
X90523000Y-112963000D01*
X101372000Y-112963000D02*
X103023000Y-112963000D01*
X76372000Y-111567000D02*
X76244000Y-111439000D01*
X88872000Y-111567000D02*
X88744000Y-111439000D01*
X101372000Y-111567000D02*
X101244000Y-111439000D01*
X76372000Y-112963000D02*
X76372000Y-111567000D01*
X88872000Y-112963000D02*
X88872000Y-111567000D01*
X101372000Y-112963000D02*
X101372000Y-111567000D01*
X78023000Y-112963000D02*
X78023000Y-111597106D01*
X90523000Y-112963000D02*
X90523000Y-111597106D01*
X103023000Y-112963000D02*
X103023000Y-111597106D01*
X78023000Y-111597106D02*
X78023004Y-111597102D01*
X90523000Y-111597106D02*
X90523004Y-111597102D01*
X103023000Y-111597106D02*
X103023004Y-111597102D01*
%TO.N,Net-(Q2-Pad2)*%
X82214000Y-112963000D02*
X82087000Y-112836000D01*
X94714000Y-112963000D02*
X94587000Y-112836000D01*
X107214000Y-112963000D02*
X107087000Y-112836000D01*
X82214000Y-114425000D02*
X82214000Y-112963000D01*
X94714000Y-114425000D02*
X94714000Y-112963000D01*
X107214000Y-114425000D02*
X107214000Y-112963000D01*
%TO.N,Net-(Q4-Pad2)*%
X60317000Y-107375000D02*
X60316000Y-107374000D01*
X61972000Y-107375000D02*
X60317000Y-107375000D01*
X61972000Y-107375000D02*
X61972000Y-108776000D01*
X61972000Y-108776000D02*
X62095000Y-108899000D01*
X62095000Y-107258950D02*
X62668761Y-106685189D01*
X62661811Y-106685189D02*
X62921996Y-106685189D01*
X62668761Y-106685189D02*
X62921996Y-106685189D01*
X61972000Y-107375000D02*
X62661811Y-106685189D01*
X72817000Y-107375000D02*
X72816000Y-107374000D01*
X85317000Y-107375000D02*
X85316000Y-107374000D01*
X97817000Y-107375000D02*
X97816000Y-107374000D01*
X74472000Y-107375000D02*
X72817000Y-107375000D01*
X86972000Y-107375000D02*
X85317000Y-107375000D01*
X99472000Y-107375000D02*
X97817000Y-107375000D01*
X74472000Y-107375000D02*
X74472000Y-108776000D01*
X86972000Y-107375000D02*
X86972000Y-108776000D01*
X99472000Y-107375000D02*
X99472000Y-108776000D01*
X74472000Y-108776000D02*
X74595000Y-108899000D01*
X86972000Y-108776000D02*
X87095000Y-108899000D01*
X99472000Y-108776000D02*
X99595000Y-108899000D01*
X74595000Y-107258950D02*
X75168761Y-106685189D01*
X87095000Y-107258950D02*
X87668761Y-106685189D01*
X99595000Y-107258950D02*
X100168761Y-106685189D01*
X75161811Y-106685189D02*
X75421996Y-106685189D01*
X87661811Y-106685189D02*
X87921996Y-106685189D01*
X100161811Y-106685189D02*
X100421996Y-106685189D01*
X75168761Y-106685189D02*
X75421996Y-106685189D01*
X87668761Y-106685189D02*
X87921996Y-106685189D01*
X100168761Y-106685189D02*
X100421996Y-106685189D01*
X74472000Y-107375000D02*
X75161811Y-106685189D01*
X86972000Y-107375000D02*
X87661811Y-106685189D01*
X99472000Y-107375000D02*
X100161811Y-106685189D01*
%TO.N,Net-(Q5-Pad2)*%
X67824010Y-120679664D02*
X67561379Y-120942295D01*
X67824010Y-119994990D02*
X67824010Y-120679664D01*
X68444000Y-119375000D02*
X67824010Y-119994990D01*
X80324010Y-120679664D02*
X80061379Y-120942295D01*
X92824010Y-120679664D02*
X92561379Y-120942295D01*
X105324010Y-120679664D02*
X105061379Y-120942295D01*
X80324010Y-119994990D02*
X80324010Y-120679664D01*
X92824010Y-119994990D02*
X92824010Y-120679664D01*
X105324010Y-119994990D02*
X105324010Y-120679664D01*
X80944000Y-119375000D02*
X80324010Y-119994990D01*
X93444000Y-119375000D02*
X92824010Y-119994990D01*
X105944000Y-119375000D02*
X105324010Y-119994990D01*
%TO.N,Net-(Q6-Pad2)*%
X69714000Y-120837000D02*
X69587000Y-120964000D01*
X69714000Y-119375000D02*
X69714000Y-120837000D01*
X62033000Y-122172000D02*
X62222000Y-122361000D01*
X62033000Y-120837000D02*
X62033000Y-122172000D01*
X62033000Y-120837000D02*
X60443000Y-120837000D01*
X62221000Y-120837000D02*
X63110000Y-119948000D01*
X62033000Y-120837000D02*
X62221000Y-120837000D01*
X62033000Y-122300000D02*
X62094000Y-122361000D01*
X62033000Y-120837000D02*
X62033000Y-122300000D01*
X82214000Y-120837000D02*
X82087000Y-120964000D01*
X94714000Y-120837000D02*
X94587000Y-120964000D01*
X107214000Y-120837000D02*
X107087000Y-120964000D01*
X82214000Y-119375000D02*
X82214000Y-120837000D01*
X94714000Y-119375000D02*
X94714000Y-120837000D01*
X107214000Y-119375000D02*
X107214000Y-120837000D01*
X74533000Y-122172000D02*
X74722000Y-122361000D01*
X87033000Y-122172000D02*
X87222000Y-122361000D01*
X99533000Y-122172000D02*
X99722000Y-122361000D01*
X74533000Y-120837000D02*
X74533000Y-122172000D01*
X87033000Y-120837000D02*
X87033000Y-122172000D01*
X99533000Y-120837000D02*
X99533000Y-122172000D01*
X74533000Y-120837000D02*
X72943000Y-120837000D01*
X87033000Y-120837000D02*
X85443000Y-120837000D01*
X99533000Y-120837000D02*
X97943000Y-120837000D01*
X74721000Y-120837000D02*
X75610000Y-119948000D01*
X87221000Y-120837000D02*
X88110000Y-119948000D01*
X99721000Y-120837000D02*
X100610000Y-119948000D01*
X74533000Y-120837000D02*
X74721000Y-120837000D01*
X87033000Y-120837000D02*
X87221000Y-120837000D01*
X99533000Y-120837000D02*
X99721000Y-120837000D01*
X74533000Y-122300000D02*
X74594000Y-122361000D01*
X87033000Y-122300000D02*
X87094000Y-122361000D01*
X99533000Y-122300000D02*
X99594000Y-122361000D01*
X74533000Y-120837000D02*
X74533000Y-122300000D01*
X87033000Y-120837000D02*
X87033000Y-122300000D01*
X99533000Y-120837000D02*
X99533000Y-122300000D01*
%TO.N,Net-(Q8-Pad2)*%
X63933000Y-126425000D02*
X65523000Y-126425000D01*
X63933000Y-125090000D02*
X63744000Y-124901000D01*
X63933000Y-126425000D02*
X63933000Y-125090000D01*
X66539000Y-126425000D02*
X66666000Y-126552000D01*
X65523000Y-126425000D02*
X66539000Y-126425000D01*
X76433000Y-125090000D02*
X76244000Y-124901000D01*
X88933000Y-125090000D02*
X88744000Y-124901000D01*
X101433000Y-125090000D02*
X101244000Y-124901000D01*
X76433000Y-126425000D02*
X78023000Y-126425000D01*
X88933000Y-126425000D02*
X90523000Y-126425000D01*
X101433000Y-126425000D02*
X103023000Y-126425000D01*
X76433000Y-126425000D02*
X76433000Y-125090000D01*
X88933000Y-126425000D02*
X88933000Y-125090000D01*
X101433000Y-126425000D02*
X101433000Y-125090000D01*
X79039000Y-126425000D02*
X79166000Y-126552000D01*
X91539000Y-126425000D02*
X91666000Y-126552000D01*
X104039000Y-126425000D02*
X104166000Y-126552000D01*
X78023000Y-126425000D02*
X79039000Y-126425000D01*
X90523000Y-126425000D02*
X91539000Y-126425000D01*
X103023000Y-126425000D02*
X104039000Y-126425000D01*
D40*
%TO.N,Net-(C3-Pad2)*%
X78599000Y-84342000D02*
X81833000Y-84342000D01*
D46*
%TO.N,Net-(C3-Pad1)*%
X77515000Y-80278000D02*
X75991000Y-80278000D01*
D40*
%TO.N,Net-(C4-Pad2)*%
X78599000Y-86882000D02*
X81833000Y-86882000D01*
D46*
%TO.N,Net-(C11-Pad1)*%
X100971001Y-79427999D02*
X100121000Y-80278000D01*
X102255499Y-79427999D02*
X100971001Y-79427999D01*
X103169000Y-80341500D02*
X102255499Y-79427999D01*
D45*
%TO.N,Net-(K2-Pad8)*%
X101879010Y-102649990D02*
X102407000Y-102122000D01*
X95314990Y-102649990D02*
X101879010Y-102649990D01*
X94787000Y-102122000D02*
X95314990Y-102649990D01*
D40*
%TO.N,Net-(Q5-Pad1)*%
X91867000Y-80912000D02*
X91867000Y-81737500D01*
X91945490Y-80799990D02*
X91867000Y-80721500D01*
X93980490Y-80799990D02*
X91945490Y-80799990D01*
X95041000Y-81860500D02*
X93980490Y-80799990D01*
X91867000Y-80721500D02*
X91867000Y-80912000D01*
X91867000Y-79897000D02*
X91867000Y-80721500D01*
X91867000Y-81737500D02*
X91866000Y-81738500D01*
X93951544Y-80850500D02*
X91867000Y-80850500D01*
X94961544Y-81860500D02*
X93951544Y-80850500D01*
X95041000Y-81860500D02*
X94961544Y-81860500D01*
X91867000Y-80850500D02*
X91867000Y-81737500D01*
X91867000Y-79897000D02*
X91867000Y-80850500D01*
D41*
%TO.N,/K1_set*%
X85897000Y-84087992D02*
X85896992Y-84088000D01*
X85897000Y-81549000D02*
X85897000Y-84087992D01*
X85769000Y-81421000D02*
X85897000Y-81549000D01*
%TO.N,/K2_set*%
X92333000Y-84637000D02*
X92333000Y-86841000D01*
X93516000Y-83454000D02*
X92333000Y-84637000D01*
X93516000Y-81738500D02*
X93516000Y-83454000D01*
%TO.N,/K2_rst*%
X89686155Y-84342000D02*
X87997423Y-86030732D01*
X91474000Y-84342000D02*
X89686155Y-84342000D01*
X92755000Y-83061000D02*
X91474000Y-84342000D01*
D46*
%TO.N,Net-(Q5-Pad3)*%
X97838500Y-80910500D02*
X98471000Y-80278000D01*
X97041000Y-80910500D02*
X97838500Y-80910500D01*
D40*
%TO.N,Net-(C12-Pad2)*%
X99173000Y-86882000D02*
X102407000Y-86882000D01*
D46*
%TO.N,Net-(Q1-Pad3)*%
X80847500Y-81960500D02*
X79165000Y-80278000D01*
X81645000Y-81960500D02*
X80847500Y-81960500D01*
%TD*%
M02*
