%TF.GenerationSoftware,KiCad,Pcbnew,(5.1.10)-1*%
%TF.CreationDate,2022-01-20T20:18:56+07:00*%
%TF.ProjectId,PCB_4x_pnlz1_3,5043425f-3478-45f7-906e-6c7a315f332e,rev?*%
%TF.SameCoordinates,Original*%
%TF.FileFunction,Paste,Bot*%
%TF.FilePolarity,Positive*%
%FSLAX46Y46*%
G04 Gerber Fmt 4.6, Leading zero omitted, Abs format (unit mm)*
G04 Created by KiCad (PCBNEW (5.1.10)-1) date 2022-01-20 20:18:56*
%MOMM*%
%LPD*%
G01*
G04 APERTURE LIST*
%ADD10R,0.800000X0.900000*%
%ADD11R,0.400000X3.200000*%
%ADD12R,0.400000X1.000000*%
%ADD13R,1.800000X1.500000*%
%ADD14R,0.900000X0.800000*%
%ADD15R,0.600000X0.450000*%
G04 APERTURE END LIST*
%TO.C,C1*%
G36*
G01*
X107791000Y-109919000D02*
X107791000Y-110419000D01*
G75*
G02*
X107566000Y-110644000I-225000J0D01*
G01*
X107116000Y-110644000D01*
G75*
G02*
X106891000Y-110419000I0J225000D01*
G01*
X106891000Y-109919000D01*
G75*
G02*
X107116000Y-109694000I225000J0D01*
G01*
X107566000Y-109694000D01*
G75*
G02*
X107791000Y-109919000I0J-225000D01*
G01*
G37*
G36*
G01*
X106241000Y-109919000D02*
X106241000Y-110419000D01*
G75*
G02*
X106016000Y-110644000I-225000J0D01*
G01*
X105566000Y-110644000D01*
G75*
G02*
X105341000Y-110419000I0J225000D01*
G01*
X105341000Y-109919000D01*
G75*
G02*
X105566000Y-109694000I225000J0D01*
G01*
X106016000Y-109694000D01*
G75*
G02*
X106241000Y-109919000I0J-225000D01*
G01*
G37*
%TD*%
%TO.C,C1*%
G36*
G01*
X95291000Y-109919000D02*
X95291000Y-110419000D01*
G75*
G02*
X95066000Y-110644000I-225000J0D01*
G01*
X94616000Y-110644000D01*
G75*
G02*
X94391000Y-110419000I0J225000D01*
G01*
X94391000Y-109919000D01*
G75*
G02*
X94616000Y-109694000I225000J0D01*
G01*
X95066000Y-109694000D01*
G75*
G02*
X95291000Y-109919000I0J-225000D01*
G01*
G37*
G36*
G01*
X93741000Y-109919000D02*
X93741000Y-110419000D01*
G75*
G02*
X93516000Y-110644000I-225000J0D01*
G01*
X93066000Y-110644000D01*
G75*
G02*
X92841000Y-110419000I0J225000D01*
G01*
X92841000Y-109919000D01*
G75*
G02*
X93066000Y-109694000I225000J0D01*
G01*
X93516000Y-109694000D01*
G75*
G02*
X93741000Y-109919000I0J-225000D01*
G01*
G37*
%TD*%
%TO.C,C1*%
G36*
G01*
X82791000Y-109919000D02*
X82791000Y-110419000D01*
G75*
G02*
X82566000Y-110644000I-225000J0D01*
G01*
X82116000Y-110644000D01*
G75*
G02*
X81891000Y-110419000I0J225000D01*
G01*
X81891000Y-109919000D01*
G75*
G02*
X82116000Y-109694000I225000J0D01*
G01*
X82566000Y-109694000D01*
G75*
G02*
X82791000Y-109919000I0J-225000D01*
G01*
G37*
G36*
G01*
X81241000Y-109919000D02*
X81241000Y-110419000D01*
G75*
G02*
X81016000Y-110644000I-225000J0D01*
G01*
X80566000Y-110644000D01*
G75*
G02*
X80341000Y-110419000I0J225000D01*
G01*
X80341000Y-109919000D01*
G75*
G02*
X80566000Y-109694000I225000J0D01*
G01*
X81016000Y-109694000D01*
G75*
G02*
X81241000Y-109919000I0J-225000D01*
G01*
G37*
%TD*%
%TO.C,C2*%
G36*
G01*
X107791000Y-111443000D02*
X107791000Y-111943000D01*
G75*
G02*
X107566000Y-112168000I-225000J0D01*
G01*
X107116000Y-112168000D01*
G75*
G02*
X106891000Y-111943000I0J225000D01*
G01*
X106891000Y-111443000D01*
G75*
G02*
X107116000Y-111218000I225000J0D01*
G01*
X107566000Y-111218000D01*
G75*
G02*
X107791000Y-111443000I0J-225000D01*
G01*
G37*
G36*
G01*
X106241000Y-111443000D02*
X106241000Y-111943000D01*
G75*
G02*
X106016000Y-112168000I-225000J0D01*
G01*
X105566000Y-112168000D01*
G75*
G02*
X105341000Y-111943000I0J225000D01*
G01*
X105341000Y-111443000D01*
G75*
G02*
X105566000Y-111218000I225000J0D01*
G01*
X106016000Y-111218000D01*
G75*
G02*
X106241000Y-111443000I0J-225000D01*
G01*
G37*
%TD*%
%TO.C,C2*%
G36*
G01*
X95291000Y-111443000D02*
X95291000Y-111943000D01*
G75*
G02*
X95066000Y-112168000I-225000J0D01*
G01*
X94616000Y-112168000D01*
G75*
G02*
X94391000Y-111943000I0J225000D01*
G01*
X94391000Y-111443000D01*
G75*
G02*
X94616000Y-111218000I225000J0D01*
G01*
X95066000Y-111218000D01*
G75*
G02*
X95291000Y-111443000I0J-225000D01*
G01*
G37*
G36*
G01*
X93741000Y-111443000D02*
X93741000Y-111943000D01*
G75*
G02*
X93516000Y-112168000I-225000J0D01*
G01*
X93066000Y-112168000D01*
G75*
G02*
X92841000Y-111943000I0J225000D01*
G01*
X92841000Y-111443000D01*
G75*
G02*
X93066000Y-111218000I225000J0D01*
G01*
X93516000Y-111218000D01*
G75*
G02*
X93741000Y-111443000I0J-225000D01*
G01*
G37*
%TD*%
%TO.C,C2*%
G36*
G01*
X82791000Y-111443000D02*
X82791000Y-111943000D01*
G75*
G02*
X82566000Y-112168000I-225000J0D01*
G01*
X82116000Y-112168000D01*
G75*
G02*
X81891000Y-111943000I0J225000D01*
G01*
X81891000Y-111443000D01*
G75*
G02*
X82116000Y-111218000I225000J0D01*
G01*
X82566000Y-111218000D01*
G75*
G02*
X82791000Y-111443000I0J-225000D01*
G01*
G37*
G36*
G01*
X81241000Y-111443000D02*
X81241000Y-111943000D01*
G75*
G02*
X81016000Y-112168000I-225000J0D01*
G01*
X80566000Y-112168000D01*
G75*
G02*
X80341000Y-111943000I0J225000D01*
G01*
X80341000Y-111443000D01*
G75*
G02*
X80566000Y-111218000I225000J0D01*
G01*
X81016000Y-111218000D01*
G75*
G02*
X81241000Y-111443000I0J-225000D01*
G01*
G37*
%TD*%
%TO.C,C4*%
G36*
G01*
X107791000Y-121857000D02*
X107791000Y-122357000D01*
G75*
G02*
X107566000Y-122582000I-225000J0D01*
G01*
X107116000Y-122582000D01*
G75*
G02*
X106891000Y-122357000I0J225000D01*
G01*
X106891000Y-121857000D01*
G75*
G02*
X107116000Y-121632000I225000J0D01*
G01*
X107566000Y-121632000D01*
G75*
G02*
X107791000Y-121857000I0J-225000D01*
G01*
G37*
G36*
G01*
X106241000Y-121857000D02*
X106241000Y-122357000D01*
G75*
G02*
X106016000Y-122582000I-225000J0D01*
G01*
X105566000Y-122582000D01*
G75*
G02*
X105341000Y-122357000I0J225000D01*
G01*
X105341000Y-121857000D01*
G75*
G02*
X105566000Y-121632000I225000J0D01*
G01*
X106016000Y-121632000D01*
G75*
G02*
X106241000Y-121857000I0J-225000D01*
G01*
G37*
%TD*%
%TO.C,C4*%
G36*
G01*
X95291000Y-121857000D02*
X95291000Y-122357000D01*
G75*
G02*
X95066000Y-122582000I-225000J0D01*
G01*
X94616000Y-122582000D01*
G75*
G02*
X94391000Y-122357000I0J225000D01*
G01*
X94391000Y-121857000D01*
G75*
G02*
X94616000Y-121632000I225000J0D01*
G01*
X95066000Y-121632000D01*
G75*
G02*
X95291000Y-121857000I0J-225000D01*
G01*
G37*
G36*
G01*
X93741000Y-121857000D02*
X93741000Y-122357000D01*
G75*
G02*
X93516000Y-122582000I-225000J0D01*
G01*
X93066000Y-122582000D01*
G75*
G02*
X92841000Y-122357000I0J225000D01*
G01*
X92841000Y-121857000D01*
G75*
G02*
X93066000Y-121632000I225000J0D01*
G01*
X93516000Y-121632000D01*
G75*
G02*
X93741000Y-121857000I0J-225000D01*
G01*
G37*
%TD*%
%TO.C,C4*%
G36*
G01*
X82791000Y-121857000D02*
X82791000Y-122357000D01*
G75*
G02*
X82566000Y-122582000I-225000J0D01*
G01*
X82116000Y-122582000D01*
G75*
G02*
X81891000Y-122357000I0J225000D01*
G01*
X81891000Y-121857000D01*
G75*
G02*
X82116000Y-121632000I225000J0D01*
G01*
X82566000Y-121632000D01*
G75*
G02*
X82791000Y-121857000I0J-225000D01*
G01*
G37*
G36*
G01*
X81241000Y-121857000D02*
X81241000Y-122357000D01*
G75*
G02*
X81016000Y-122582000I-225000J0D01*
G01*
X80566000Y-122582000D01*
G75*
G02*
X80341000Y-122357000I0J225000D01*
G01*
X80341000Y-121857000D01*
G75*
G02*
X80566000Y-121632000I225000J0D01*
G01*
X81016000Y-121632000D01*
G75*
G02*
X81241000Y-121857000I0J-225000D01*
G01*
G37*
%TD*%
%TO.C,C6*%
G36*
G01*
X107804000Y-123381000D02*
X107804000Y-123881000D01*
G75*
G02*
X107579000Y-124106000I-225000J0D01*
G01*
X107129000Y-124106000D01*
G75*
G02*
X106904000Y-123881000I0J225000D01*
G01*
X106904000Y-123381000D01*
G75*
G02*
X107129000Y-123156000I225000J0D01*
G01*
X107579000Y-123156000D01*
G75*
G02*
X107804000Y-123381000I0J-225000D01*
G01*
G37*
G36*
G01*
X106254000Y-123381000D02*
X106254000Y-123881000D01*
G75*
G02*
X106029000Y-124106000I-225000J0D01*
G01*
X105579000Y-124106000D01*
G75*
G02*
X105354000Y-123881000I0J225000D01*
G01*
X105354000Y-123381000D01*
G75*
G02*
X105579000Y-123156000I225000J0D01*
G01*
X106029000Y-123156000D01*
G75*
G02*
X106254000Y-123381000I0J-225000D01*
G01*
G37*
%TD*%
%TO.C,C6*%
G36*
G01*
X95304000Y-123381000D02*
X95304000Y-123881000D01*
G75*
G02*
X95079000Y-124106000I-225000J0D01*
G01*
X94629000Y-124106000D01*
G75*
G02*
X94404000Y-123881000I0J225000D01*
G01*
X94404000Y-123381000D01*
G75*
G02*
X94629000Y-123156000I225000J0D01*
G01*
X95079000Y-123156000D01*
G75*
G02*
X95304000Y-123381000I0J-225000D01*
G01*
G37*
G36*
G01*
X93754000Y-123381000D02*
X93754000Y-123881000D01*
G75*
G02*
X93529000Y-124106000I-225000J0D01*
G01*
X93079000Y-124106000D01*
G75*
G02*
X92854000Y-123881000I0J225000D01*
G01*
X92854000Y-123381000D01*
G75*
G02*
X93079000Y-123156000I225000J0D01*
G01*
X93529000Y-123156000D01*
G75*
G02*
X93754000Y-123381000I0J-225000D01*
G01*
G37*
%TD*%
%TO.C,C6*%
G36*
G01*
X82804000Y-123381000D02*
X82804000Y-123881000D01*
G75*
G02*
X82579000Y-124106000I-225000J0D01*
G01*
X82129000Y-124106000D01*
G75*
G02*
X81904000Y-123881000I0J225000D01*
G01*
X81904000Y-123381000D01*
G75*
G02*
X82129000Y-123156000I225000J0D01*
G01*
X82579000Y-123156000D01*
G75*
G02*
X82804000Y-123381000I0J-225000D01*
G01*
G37*
G36*
G01*
X81254000Y-123381000D02*
X81254000Y-123881000D01*
G75*
G02*
X81029000Y-124106000I-225000J0D01*
G01*
X80579000Y-124106000D01*
G75*
G02*
X80354000Y-123881000I0J225000D01*
G01*
X80354000Y-123381000D01*
G75*
G02*
X80579000Y-123156000I225000J0D01*
G01*
X81029000Y-123156000D01*
G75*
G02*
X81254000Y-123381000I0J-225000D01*
G01*
G37*
%TD*%
D10*
%TO.C,Q1*%
X99472000Y-112963000D03*
X101372000Y-112963000D03*
X100422000Y-114963000D03*
%TD*%
%TO.C,Q1*%
X86972000Y-112963000D03*
X88872000Y-112963000D03*
X87922000Y-114963000D03*
%TD*%
%TO.C,Q1*%
X74472000Y-112963000D03*
X76372000Y-112963000D03*
X75422000Y-114963000D03*
%TD*%
%TO.C,Q4*%
X101372000Y-107375000D03*
X99472000Y-107375000D03*
X100422000Y-105375000D03*
%TD*%
%TO.C,Q4*%
X88872000Y-107375000D03*
X86972000Y-107375000D03*
X87922000Y-105375000D03*
%TD*%
%TO.C,Q4*%
X76372000Y-107375000D03*
X74472000Y-107375000D03*
X75422000Y-105375000D03*
%TD*%
%TO.C,Q6*%
X101433000Y-120837000D03*
X99533000Y-120837000D03*
X100483000Y-118837000D03*
%TD*%
%TO.C,Q6*%
X88933000Y-120837000D03*
X87033000Y-120837000D03*
X87983000Y-118837000D03*
%TD*%
%TO.C,Q6*%
X76433000Y-120837000D03*
X74533000Y-120837000D03*
X75483000Y-118837000D03*
%TD*%
%TO.C,Q8*%
X99533000Y-126425000D03*
X101433000Y-126425000D03*
X100483000Y-128425000D03*
%TD*%
%TO.C,Q8*%
X87033000Y-126425000D03*
X88933000Y-126425000D03*
X87983000Y-128425000D03*
%TD*%
%TO.C,Q8*%
X74533000Y-126425000D03*
X76433000Y-126425000D03*
X75483000Y-128425000D03*
%TD*%
%TO.C,R1*%
G36*
G01*
X98091000Y-115013000D02*
X97541000Y-115013000D01*
G75*
G02*
X97341000Y-114813000I0J200000D01*
G01*
X97341000Y-114413000D01*
G75*
G02*
X97541000Y-114213000I200000J0D01*
G01*
X98091000Y-114213000D01*
G75*
G02*
X98291000Y-114413000I0J-200000D01*
G01*
X98291000Y-114813000D01*
G75*
G02*
X98091000Y-115013000I-200000J0D01*
G01*
G37*
G36*
G01*
X98091000Y-113363000D02*
X97541000Y-113363000D01*
G75*
G02*
X97341000Y-113163000I0J200000D01*
G01*
X97341000Y-112763000D01*
G75*
G02*
X97541000Y-112563000I200000J0D01*
G01*
X98091000Y-112563000D01*
G75*
G02*
X98291000Y-112763000I0J-200000D01*
G01*
X98291000Y-113163000D01*
G75*
G02*
X98091000Y-113363000I-200000J0D01*
G01*
G37*
%TD*%
%TO.C,R1*%
G36*
G01*
X85591000Y-115013000D02*
X85041000Y-115013000D01*
G75*
G02*
X84841000Y-114813000I0J200000D01*
G01*
X84841000Y-114413000D01*
G75*
G02*
X85041000Y-114213000I200000J0D01*
G01*
X85591000Y-114213000D01*
G75*
G02*
X85791000Y-114413000I0J-200000D01*
G01*
X85791000Y-114813000D01*
G75*
G02*
X85591000Y-115013000I-200000J0D01*
G01*
G37*
G36*
G01*
X85591000Y-113363000D02*
X85041000Y-113363000D01*
G75*
G02*
X84841000Y-113163000I0J200000D01*
G01*
X84841000Y-112763000D01*
G75*
G02*
X85041000Y-112563000I200000J0D01*
G01*
X85591000Y-112563000D01*
G75*
G02*
X85791000Y-112763000I0J-200000D01*
G01*
X85791000Y-113163000D01*
G75*
G02*
X85591000Y-113363000I-200000J0D01*
G01*
G37*
%TD*%
%TO.C,R1*%
G36*
G01*
X73091000Y-115013000D02*
X72541000Y-115013000D01*
G75*
G02*
X72341000Y-114813000I0J200000D01*
G01*
X72341000Y-114413000D01*
G75*
G02*
X72541000Y-114213000I200000J0D01*
G01*
X73091000Y-114213000D01*
G75*
G02*
X73291000Y-114413000I0J-200000D01*
G01*
X73291000Y-114813000D01*
G75*
G02*
X73091000Y-115013000I-200000J0D01*
G01*
G37*
G36*
G01*
X73091000Y-113363000D02*
X72541000Y-113363000D01*
G75*
G02*
X72341000Y-113163000I0J200000D01*
G01*
X72341000Y-112763000D01*
G75*
G02*
X72541000Y-112563000I200000J0D01*
G01*
X73091000Y-112563000D01*
G75*
G02*
X73291000Y-112763000I0J-200000D01*
G01*
X73291000Y-113163000D01*
G75*
G02*
X73091000Y-113363000I-200000J0D01*
G01*
G37*
%TD*%
%TO.C,R4*%
G36*
G01*
X102748000Y-105325000D02*
X103298000Y-105325000D01*
G75*
G02*
X103498000Y-105525000I0J-200000D01*
G01*
X103498000Y-105925000D01*
G75*
G02*
X103298000Y-106125000I-200000J0D01*
G01*
X102748000Y-106125000D01*
G75*
G02*
X102548000Y-105925000I0J200000D01*
G01*
X102548000Y-105525000D01*
G75*
G02*
X102748000Y-105325000I200000J0D01*
G01*
G37*
G36*
G01*
X102748000Y-106975000D02*
X103298000Y-106975000D01*
G75*
G02*
X103498000Y-107175000I0J-200000D01*
G01*
X103498000Y-107575000D01*
G75*
G02*
X103298000Y-107775000I-200000J0D01*
G01*
X102748000Y-107775000D01*
G75*
G02*
X102548000Y-107575000I0J200000D01*
G01*
X102548000Y-107175000D01*
G75*
G02*
X102748000Y-106975000I200000J0D01*
G01*
G37*
%TD*%
%TO.C,R4*%
G36*
G01*
X90248000Y-105325000D02*
X90798000Y-105325000D01*
G75*
G02*
X90998000Y-105525000I0J-200000D01*
G01*
X90998000Y-105925000D01*
G75*
G02*
X90798000Y-106125000I-200000J0D01*
G01*
X90248000Y-106125000D01*
G75*
G02*
X90048000Y-105925000I0J200000D01*
G01*
X90048000Y-105525000D01*
G75*
G02*
X90248000Y-105325000I200000J0D01*
G01*
G37*
G36*
G01*
X90248000Y-106975000D02*
X90798000Y-106975000D01*
G75*
G02*
X90998000Y-107175000I0J-200000D01*
G01*
X90998000Y-107575000D01*
G75*
G02*
X90798000Y-107775000I-200000J0D01*
G01*
X90248000Y-107775000D01*
G75*
G02*
X90048000Y-107575000I0J200000D01*
G01*
X90048000Y-107175000D01*
G75*
G02*
X90248000Y-106975000I200000J0D01*
G01*
G37*
%TD*%
%TO.C,R4*%
G36*
G01*
X77748000Y-105325000D02*
X78298000Y-105325000D01*
G75*
G02*
X78498000Y-105525000I0J-200000D01*
G01*
X78498000Y-105925000D01*
G75*
G02*
X78298000Y-106125000I-200000J0D01*
G01*
X77748000Y-106125000D01*
G75*
G02*
X77548000Y-105925000I0J200000D01*
G01*
X77548000Y-105525000D01*
G75*
G02*
X77748000Y-105325000I200000J0D01*
G01*
G37*
G36*
G01*
X77748000Y-106975000D02*
X78298000Y-106975000D01*
G75*
G02*
X78498000Y-107175000I0J-200000D01*
G01*
X78498000Y-107575000D01*
G75*
G02*
X78298000Y-107775000I-200000J0D01*
G01*
X77748000Y-107775000D01*
G75*
G02*
X77548000Y-107575000I0J200000D01*
G01*
X77548000Y-107175000D01*
G75*
G02*
X77748000Y-106975000I200000J0D01*
G01*
G37*
%TD*%
%TO.C,R5*%
G36*
G01*
X102748000Y-112563000D02*
X103298000Y-112563000D01*
G75*
G02*
X103498000Y-112763000I0J-200000D01*
G01*
X103498000Y-113163000D01*
G75*
G02*
X103298000Y-113363000I-200000J0D01*
G01*
X102748000Y-113363000D01*
G75*
G02*
X102548000Y-113163000I0J200000D01*
G01*
X102548000Y-112763000D01*
G75*
G02*
X102748000Y-112563000I200000J0D01*
G01*
G37*
G36*
G01*
X102748000Y-114213000D02*
X103298000Y-114213000D01*
G75*
G02*
X103498000Y-114413000I0J-200000D01*
G01*
X103498000Y-114813000D01*
G75*
G02*
X103298000Y-115013000I-200000J0D01*
G01*
X102748000Y-115013000D01*
G75*
G02*
X102548000Y-114813000I0J200000D01*
G01*
X102548000Y-114413000D01*
G75*
G02*
X102748000Y-114213000I200000J0D01*
G01*
G37*
%TD*%
%TO.C,R5*%
G36*
G01*
X90248000Y-112563000D02*
X90798000Y-112563000D01*
G75*
G02*
X90998000Y-112763000I0J-200000D01*
G01*
X90998000Y-113163000D01*
G75*
G02*
X90798000Y-113363000I-200000J0D01*
G01*
X90248000Y-113363000D01*
G75*
G02*
X90048000Y-113163000I0J200000D01*
G01*
X90048000Y-112763000D01*
G75*
G02*
X90248000Y-112563000I200000J0D01*
G01*
G37*
G36*
G01*
X90248000Y-114213000D02*
X90798000Y-114213000D01*
G75*
G02*
X90998000Y-114413000I0J-200000D01*
G01*
X90998000Y-114813000D01*
G75*
G02*
X90798000Y-115013000I-200000J0D01*
G01*
X90248000Y-115013000D01*
G75*
G02*
X90048000Y-114813000I0J200000D01*
G01*
X90048000Y-114413000D01*
G75*
G02*
X90248000Y-114213000I200000J0D01*
G01*
G37*
%TD*%
%TO.C,R5*%
G36*
G01*
X77748000Y-112563000D02*
X78298000Y-112563000D01*
G75*
G02*
X78498000Y-112763000I0J-200000D01*
G01*
X78498000Y-113163000D01*
G75*
G02*
X78298000Y-113363000I-200000J0D01*
G01*
X77748000Y-113363000D01*
G75*
G02*
X77548000Y-113163000I0J200000D01*
G01*
X77548000Y-112763000D01*
G75*
G02*
X77748000Y-112563000I200000J0D01*
G01*
G37*
G36*
G01*
X77748000Y-114213000D02*
X78298000Y-114213000D01*
G75*
G02*
X78498000Y-114413000I0J-200000D01*
G01*
X78498000Y-114813000D01*
G75*
G02*
X78298000Y-115013000I-200000J0D01*
G01*
X77748000Y-115013000D01*
G75*
G02*
X77548000Y-114813000I0J200000D01*
G01*
X77548000Y-114413000D01*
G75*
G02*
X77748000Y-114213000I200000J0D01*
G01*
G37*
%TD*%
%TO.C,R8*%
G36*
G01*
X98091000Y-107774000D02*
X97541000Y-107774000D01*
G75*
G02*
X97341000Y-107574000I0J200000D01*
G01*
X97341000Y-107174000D01*
G75*
G02*
X97541000Y-106974000I200000J0D01*
G01*
X98091000Y-106974000D01*
G75*
G02*
X98291000Y-107174000I0J-200000D01*
G01*
X98291000Y-107574000D01*
G75*
G02*
X98091000Y-107774000I-200000J0D01*
G01*
G37*
G36*
G01*
X98091000Y-106124000D02*
X97541000Y-106124000D01*
G75*
G02*
X97341000Y-105924000I0J200000D01*
G01*
X97341000Y-105524000D01*
G75*
G02*
X97541000Y-105324000I200000J0D01*
G01*
X98091000Y-105324000D01*
G75*
G02*
X98291000Y-105524000I0J-200000D01*
G01*
X98291000Y-105924000D01*
G75*
G02*
X98091000Y-106124000I-200000J0D01*
G01*
G37*
%TD*%
%TO.C,R8*%
G36*
G01*
X85591000Y-107774000D02*
X85041000Y-107774000D01*
G75*
G02*
X84841000Y-107574000I0J200000D01*
G01*
X84841000Y-107174000D01*
G75*
G02*
X85041000Y-106974000I200000J0D01*
G01*
X85591000Y-106974000D01*
G75*
G02*
X85791000Y-107174000I0J-200000D01*
G01*
X85791000Y-107574000D01*
G75*
G02*
X85591000Y-107774000I-200000J0D01*
G01*
G37*
G36*
G01*
X85591000Y-106124000D02*
X85041000Y-106124000D01*
G75*
G02*
X84841000Y-105924000I0J200000D01*
G01*
X84841000Y-105524000D01*
G75*
G02*
X85041000Y-105324000I200000J0D01*
G01*
X85591000Y-105324000D01*
G75*
G02*
X85791000Y-105524000I0J-200000D01*
G01*
X85791000Y-105924000D01*
G75*
G02*
X85591000Y-106124000I-200000J0D01*
G01*
G37*
%TD*%
%TO.C,R8*%
G36*
G01*
X73091000Y-107774000D02*
X72541000Y-107774000D01*
G75*
G02*
X72341000Y-107574000I0J200000D01*
G01*
X72341000Y-107174000D01*
G75*
G02*
X72541000Y-106974000I200000J0D01*
G01*
X73091000Y-106974000D01*
G75*
G02*
X73291000Y-107174000I0J-200000D01*
G01*
X73291000Y-107574000D01*
G75*
G02*
X73091000Y-107774000I-200000J0D01*
G01*
G37*
G36*
G01*
X73091000Y-106124000D02*
X72541000Y-106124000D01*
G75*
G02*
X72341000Y-105924000I0J200000D01*
G01*
X72341000Y-105524000D01*
G75*
G02*
X72541000Y-105324000I200000J0D01*
G01*
X73091000Y-105324000D01*
G75*
G02*
X73291000Y-105524000I0J-200000D01*
G01*
X73291000Y-105924000D01*
G75*
G02*
X73091000Y-106124000I-200000J0D01*
G01*
G37*
%TD*%
%TO.C,R9*%
G36*
G01*
X99194000Y-111714000D02*
X99194000Y-111164000D01*
G75*
G02*
X99394000Y-110964000I200000J0D01*
G01*
X99794000Y-110964000D01*
G75*
G02*
X99994000Y-111164000I0J-200000D01*
G01*
X99994000Y-111714000D01*
G75*
G02*
X99794000Y-111914000I-200000J0D01*
G01*
X99394000Y-111914000D01*
G75*
G02*
X99194000Y-111714000I0J200000D01*
G01*
G37*
G36*
G01*
X100844000Y-111714000D02*
X100844000Y-111164000D01*
G75*
G02*
X101044000Y-110964000I200000J0D01*
G01*
X101444000Y-110964000D01*
G75*
G02*
X101644000Y-111164000I0J-200000D01*
G01*
X101644000Y-111714000D01*
G75*
G02*
X101444000Y-111914000I-200000J0D01*
G01*
X101044000Y-111914000D01*
G75*
G02*
X100844000Y-111714000I0J200000D01*
G01*
G37*
%TD*%
%TO.C,R9*%
G36*
G01*
X86694000Y-111714000D02*
X86694000Y-111164000D01*
G75*
G02*
X86894000Y-110964000I200000J0D01*
G01*
X87294000Y-110964000D01*
G75*
G02*
X87494000Y-111164000I0J-200000D01*
G01*
X87494000Y-111714000D01*
G75*
G02*
X87294000Y-111914000I-200000J0D01*
G01*
X86894000Y-111914000D01*
G75*
G02*
X86694000Y-111714000I0J200000D01*
G01*
G37*
G36*
G01*
X88344000Y-111714000D02*
X88344000Y-111164000D01*
G75*
G02*
X88544000Y-110964000I200000J0D01*
G01*
X88944000Y-110964000D01*
G75*
G02*
X89144000Y-111164000I0J-200000D01*
G01*
X89144000Y-111714000D01*
G75*
G02*
X88944000Y-111914000I-200000J0D01*
G01*
X88544000Y-111914000D01*
G75*
G02*
X88344000Y-111714000I0J200000D01*
G01*
G37*
%TD*%
%TO.C,R9*%
G36*
G01*
X74194000Y-111714000D02*
X74194000Y-111164000D01*
G75*
G02*
X74394000Y-110964000I200000J0D01*
G01*
X74794000Y-110964000D01*
G75*
G02*
X74994000Y-111164000I0J-200000D01*
G01*
X74994000Y-111714000D01*
G75*
G02*
X74794000Y-111914000I-200000J0D01*
G01*
X74394000Y-111914000D01*
G75*
G02*
X74194000Y-111714000I0J200000D01*
G01*
G37*
G36*
G01*
X75844000Y-111714000D02*
X75844000Y-111164000D01*
G75*
G02*
X76044000Y-110964000I200000J0D01*
G01*
X76444000Y-110964000D01*
G75*
G02*
X76644000Y-111164000I0J-200000D01*
G01*
X76644000Y-111714000D01*
G75*
G02*
X76444000Y-111914000I-200000J0D01*
G01*
X76044000Y-111914000D01*
G75*
G02*
X75844000Y-111714000I0J200000D01*
G01*
G37*
%TD*%
%TO.C,R12*%
G36*
G01*
X101645000Y-108624000D02*
X101645000Y-109174000D01*
G75*
G02*
X101445000Y-109374000I-200000J0D01*
G01*
X101045000Y-109374000D01*
G75*
G02*
X100845000Y-109174000I0J200000D01*
G01*
X100845000Y-108624000D01*
G75*
G02*
X101045000Y-108424000I200000J0D01*
G01*
X101445000Y-108424000D01*
G75*
G02*
X101645000Y-108624000I0J-200000D01*
G01*
G37*
G36*
G01*
X99995000Y-108624000D02*
X99995000Y-109174000D01*
G75*
G02*
X99795000Y-109374000I-200000J0D01*
G01*
X99395000Y-109374000D01*
G75*
G02*
X99195000Y-109174000I0J200000D01*
G01*
X99195000Y-108624000D01*
G75*
G02*
X99395000Y-108424000I200000J0D01*
G01*
X99795000Y-108424000D01*
G75*
G02*
X99995000Y-108624000I0J-200000D01*
G01*
G37*
%TD*%
%TO.C,R12*%
G36*
G01*
X89145000Y-108624000D02*
X89145000Y-109174000D01*
G75*
G02*
X88945000Y-109374000I-200000J0D01*
G01*
X88545000Y-109374000D01*
G75*
G02*
X88345000Y-109174000I0J200000D01*
G01*
X88345000Y-108624000D01*
G75*
G02*
X88545000Y-108424000I200000J0D01*
G01*
X88945000Y-108424000D01*
G75*
G02*
X89145000Y-108624000I0J-200000D01*
G01*
G37*
G36*
G01*
X87495000Y-108624000D02*
X87495000Y-109174000D01*
G75*
G02*
X87295000Y-109374000I-200000J0D01*
G01*
X86895000Y-109374000D01*
G75*
G02*
X86695000Y-109174000I0J200000D01*
G01*
X86695000Y-108624000D01*
G75*
G02*
X86895000Y-108424000I200000J0D01*
G01*
X87295000Y-108424000D01*
G75*
G02*
X87495000Y-108624000I0J-200000D01*
G01*
G37*
%TD*%
%TO.C,R12*%
G36*
G01*
X76645000Y-108624000D02*
X76645000Y-109174000D01*
G75*
G02*
X76445000Y-109374000I-200000J0D01*
G01*
X76045000Y-109374000D01*
G75*
G02*
X75845000Y-109174000I0J200000D01*
G01*
X75845000Y-108624000D01*
G75*
G02*
X76045000Y-108424000I200000J0D01*
G01*
X76445000Y-108424000D01*
G75*
G02*
X76645000Y-108624000I0J-200000D01*
G01*
G37*
G36*
G01*
X74995000Y-108624000D02*
X74995000Y-109174000D01*
G75*
G02*
X74795000Y-109374000I-200000J0D01*
G01*
X74395000Y-109374000D01*
G75*
G02*
X74195000Y-109174000I0J200000D01*
G01*
X74195000Y-108624000D01*
G75*
G02*
X74395000Y-108424000I200000J0D01*
G01*
X74795000Y-108424000D01*
G75*
G02*
X74995000Y-108624000I0J-200000D01*
G01*
G37*
%TD*%
%TO.C,R14*%
G36*
G01*
X101644000Y-122086000D02*
X101644000Y-122636000D01*
G75*
G02*
X101444000Y-122836000I-200000J0D01*
G01*
X101044000Y-122836000D01*
G75*
G02*
X100844000Y-122636000I0J200000D01*
G01*
X100844000Y-122086000D01*
G75*
G02*
X101044000Y-121886000I200000J0D01*
G01*
X101444000Y-121886000D01*
G75*
G02*
X101644000Y-122086000I0J-200000D01*
G01*
G37*
G36*
G01*
X99994000Y-122086000D02*
X99994000Y-122636000D01*
G75*
G02*
X99794000Y-122836000I-200000J0D01*
G01*
X99394000Y-122836000D01*
G75*
G02*
X99194000Y-122636000I0J200000D01*
G01*
X99194000Y-122086000D01*
G75*
G02*
X99394000Y-121886000I200000J0D01*
G01*
X99794000Y-121886000D01*
G75*
G02*
X99994000Y-122086000I0J-200000D01*
G01*
G37*
%TD*%
%TO.C,R14*%
G36*
G01*
X89144000Y-122086000D02*
X89144000Y-122636000D01*
G75*
G02*
X88944000Y-122836000I-200000J0D01*
G01*
X88544000Y-122836000D01*
G75*
G02*
X88344000Y-122636000I0J200000D01*
G01*
X88344000Y-122086000D01*
G75*
G02*
X88544000Y-121886000I200000J0D01*
G01*
X88944000Y-121886000D01*
G75*
G02*
X89144000Y-122086000I0J-200000D01*
G01*
G37*
G36*
G01*
X87494000Y-122086000D02*
X87494000Y-122636000D01*
G75*
G02*
X87294000Y-122836000I-200000J0D01*
G01*
X86894000Y-122836000D01*
G75*
G02*
X86694000Y-122636000I0J200000D01*
G01*
X86694000Y-122086000D01*
G75*
G02*
X86894000Y-121886000I200000J0D01*
G01*
X87294000Y-121886000D01*
G75*
G02*
X87494000Y-122086000I0J-200000D01*
G01*
G37*
%TD*%
%TO.C,R14*%
G36*
G01*
X76644000Y-122086000D02*
X76644000Y-122636000D01*
G75*
G02*
X76444000Y-122836000I-200000J0D01*
G01*
X76044000Y-122836000D01*
G75*
G02*
X75844000Y-122636000I0J200000D01*
G01*
X75844000Y-122086000D01*
G75*
G02*
X76044000Y-121886000I200000J0D01*
G01*
X76444000Y-121886000D01*
G75*
G02*
X76644000Y-122086000I0J-200000D01*
G01*
G37*
G36*
G01*
X74994000Y-122086000D02*
X74994000Y-122636000D01*
G75*
G02*
X74794000Y-122836000I-200000J0D01*
G01*
X74394000Y-122836000D01*
G75*
G02*
X74194000Y-122636000I0J200000D01*
G01*
X74194000Y-122086000D01*
G75*
G02*
X74394000Y-121886000I200000J0D01*
G01*
X74794000Y-121886000D01*
G75*
G02*
X74994000Y-122086000I0J-200000D01*
G01*
G37*
%TD*%
%TO.C,R16*%
G36*
G01*
X99194000Y-125176000D02*
X99194000Y-124626000D01*
G75*
G02*
X99394000Y-124426000I200000J0D01*
G01*
X99794000Y-124426000D01*
G75*
G02*
X99994000Y-124626000I0J-200000D01*
G01*
X99994000Y-125176000D01*
G75*
G02*
X99794000Y-125376000I-200000J0D01*
G01*
X99394000Y-125376000D01*
G75*
G02*
X99194000Y-125176000I0J200000D01*
G01*
G37*
G36*
G01*
X100844000Y-125176000D02*
X100844000Y-124626000D01*
G75*
G02*
X101044000Y-124426000I200000J0D01*
G01*
X101444000Y-124426000D01*
G75*
G02*
X101644000Y-124626000I0J-200000D01*
G01*
X101644000Y-125176000D01*
G75*
G02*
X101444000Y-125376000I-200000J0D01*
G01*
X101044000Y-125376000D01*
G75*
G02*
X100844000Y-125176000I0J200000D01*
G01*
G37*
%TD*%
%TO.C,R16*%
G36*
G01*
X86694000Y-125176000D02*
X86694000Y-124626000D01*
G75*
G02*
X86894000Y-124426000I200000J0D01*
G01*
X87294000Y-124426000D01*
G75*
G02*
X87494000Y-124626000I0J-200000D01*
G01*
X87494000Y-125176000D01*
G75*
G02*
X87294000Y-125376000I-200000J0D01*
G01*
X86894000Y-125376000D01*
G75*
G02*
X86694000Y-125176000I0J200000D01*
G01*
G37*
G36*
G01*
X88344000Y-125176000D02*
X88344000Y-124626000D01*
G75*
G02*
X88544000Y-124426000I200000J0D01*
G01*
X88944000Y-124426000D01*
G75*
G02*
X89144000Y-124626000I0J-200000D01*
G01*
X89144000Y-125176000D01*
G75*
G02*
X88944000Y-125376000I-200000J0D01*
G01*
X88544000Y-125376000D01*
G75*
G02*
X88344000Y-125176000I0J200000D01*
G01*
G37*
%TD*%
%TO.C,R16*%
G36*
G01*
X74194000Y-125176000D02*
X74194000Y-124626000D01*
G75*
G02*
X74394000Y-124426000I200000J0D01*
G01*
X74794000Y-124426000D01*
G75*
G02*
X74994000Y-124626000I0J-200000D01*
G01*
X74994000Y-125176000D01*
G75*
G02*
X74794000Y-125376000I-200000J0D01*
G01*
X74394000Y-125376000D01*
G75*
G02*
X74194000Y-125176000I0J200000D01*
G01*
G37*
G36*
G01*
X75844000Y-125176000D02*
X75844000Y-124626000D01*
G75*
G02*
X76044000Y-124426000I200000J0D01*
G01*
X76444000Y-124426000D01*
G75*
G02*
X76644000Y-124626000I0J-200000D01*
G01*
X76644000Y-125176000D01*
G75*
G02*
X76444000Y-125376000I-200000J0D01*
G01*
X76044000Y-125376000D01*
G75*
G02*
X75844000Y-125176000I0J200000D01*
G01*
G37*
%TD*%
%TO.C,R18*%
G36*
G01*
X97668000Y-118787000D02*
X98218000Y-118787000D01*
G75*
G02*
X98418000Y-118987000I0J-200000D01*
G01*
X98418000Y-119387000D01*
G75*
G02*
X98218000Y-119587000I-200000J0D01*
G01*
X97668000Y-119587000D01*
G75*
G02*
X97468000Y-119387000I0J200000D01*
G01*
X97468000Y-118987000D01*
G75*
G02*
X97668000Y-118787000I200000J0D01*
G01*
G37*
G36*
G01*
X97668000Y-120437000D02*
X98218000Y-120437000D01*
G75*
G02*
X98418000Y-120637000I0J-200000D01*
G01*
X98418000Y-121037000D01*
G75*
G02*
X98218000Y-121237000I-200000J0D01*
G01*
X97668000Y-121237000D01*
G75*
G02*
X97468000Y-121037000I0J200000D01*
G01*
X97468000Y-120637000D01*
G75*
G02*
X97668000Y-120437000I200000J0D01*
G01*
G37*
%TD*%
%TO.C,R18*%
G36*
G01*
X85168000Y-118787000D02*
X85718000Y-118787000D01*
G75*
G02*
X85918000Y-118987000I0J-200000D01*
G01*
X85918000Y-119387000D01*
G75*
G02*
X85718000Y-119587000I-200000J0D01*
G01*
X85168000Y-119587000D01*
G75*
G02*
X84968000Y-119387000I0J200000D01*
G01*
X84968000Y-118987000D01*
G75*
G02*
X85168000Y-118787000I200000J0D01*
G01*
G37*
G36*
G01*
X85168000Y-120437000D02*
X85718000Y-120437000D01*
G75*
G02*
X85918000Y-120637000I0J-200000D01*
G01*
X85918000Y-121037000D01*
G75*
G02*
X85718000Y-121237000I-200000J0D01*
G01*
X85168000Y-121237000D01*
G75*
G02*
X84968000Y-121037000I0J200000D01*
G01*
X84968000Y-120637000D01*
G75*
G02*
X85168000Y-120437000I200000J0D01*
G01*
G37*
%TD*%
%TO.C,R18*%
G36*
G01*
X72668000Y-118787000D02*
X73218000Y-118787000D01*
G75*
G02*
X73418000Y-118987000I0J-200000D01*
G01*
X73418000Y-119387000D01*
G75*
G02*
X73218000Y-119587000I-200000J0D01*
G01*
X72668000Y-119587000D01*
G75*
G02*
X72468000Y-119387000I0J200000D01*
G01*
X72468000Y-118987000D01*
G75*
G02*
X72668000Y-118787000I200000J0D01*
G01*
G37*
G36*
G01*
X72668000Y-120437000D02*
X73218000Y-120437000D01*
G75*
G02*
X73418000Y-120637000I0J-200000D01*
G01*
X73418000Y-121037000D01*
G75*
G02*
X73218000Y-121237000I-200000J0D01*
G01*
X72668000Y-121237000D01*
G75*
G02*
X72468000Y-121037000I0J200000D01*
G01*
X72468000Y-120637000D01*
G75*
G02*
X72668000Y-120437000I200000J0D01*
G01*
G37*
%TD*%
%TO.C,R20*%
G36*
G01*
X103298000Y-128475000D02*
X102748000Y-128475000D01*
G75*
G02*
X102548000Y-128275000I0J200000D01*
G01*
X102548000Y-127875000D01*
G75*
G02*
X102748000Y-127675000I200000J0D01*
G01*
X103298000Y-127675000D01*
G75*
G02*
X103498000Y-127875000I0J-200000D01*
G01*
X103498000Y-128275000D01*
G75*
G02*
X103298000Y-128475000I-200000J0D01*
G01*
G37*
G36*
G01*
X103298000Y-126825000D02*
X102748000Y-126825000D01*
G75*
G02*
X102548000Y-126625000I0J200000D01*
G01*
X102548000Y-126225000D01*
G75*
G02*
X102748000Y-126025000I200000J0D01*
G01*
X103298000Y-126025000D01*
G75*
G02*
X103498000Y-126225000I0J-200000D01*
G01*
X103498000Y-126625000D01*
G75*
G02*
X103298000Y-126825000I-200000J0D01*
G01*
G37*
%TD*%
%TO.C,R20*%
G36*
G01*
X90798000Y-128475000D02*
X90248000Y-128475000D01*
G75*
G02*
X90048000Y-128275000I0J200000D01*
G01*
X90048000Y-127875000D01*
G75*
G02*
X90248000Y-127675000I200000J0D01*
G01*
X90798000Y-127675000D01*
G75*
G02*
X90998000Y-127875000I0J-200000D01*
G01*
X90998000Y-128275000D01*
G75*
G02*
X90798000Y-128475000I-200000J0D01*
G01*
G37*
G36*
G01*
X90798000Y-126825000D02*
X90248000Y-126825000D01*
G75*
G02*
X90048000Y-126625000I0J200000D01*
G01*
X90048000Y-126225000D01*
G75*
G02*
X90248000Y-126025000I200000J0D01*
G01*
X90798000Y-126025000D01*
G75*
G02*
X90998000Y-126225000I0J-200000D01*
G01*
X90998000Y-126625000D01*
G75*
G02*
X90798000Y-126825000I-200000J0D01*
G01*
G37*
%TD*%
%TO.C,R20*%
G36*
G01*
X78298000Y-128475000D02*
X77748000Y-128475000D01*
G75*
G02*
X77548000Y-128275000I0J200000D01*
G01*
X77548000Y-127875000D01*
G75*
G02*
X77748000Y-127675000I200000J0D01*
G01*
X78298000Y-127675000D01*
G75*
G02*
X78498000Y-127875000I0J-200000D01*
G01*
X78498000Y-128275000D01*
G75*
G02*
X78298000Y-128475000I-200000J0D01*
G01*
G37*
G36*
G01*
X78298000Y-126825000D02*
X77748000Y-126825000D01*
G75*
G02*
X77548000Y-126625000I0J200000D01*
G01*
X77548000Y-126225000D01*
G75*
G02*
X77748000Y-126025000I200000J0D01*
G01*
X78298000Y-126025000D01*
G75*
G02*
X78498000Y-126225000I0J-200000D01*
G01*
X78498000Y-126625000D01*
G75*
G02*
X78298000Y-126825000I-200000J0D01*
G01*
G37*
%TD*%
%TO.C,R22*%
G36*
G01*
X102748000Y-118787000D02*
X103298000Y-118787000D01*
G75*
G02*
X103498000Y-118987000I0J-200000D01*
G01*
X103498000Y-119387000D01*
G75*
G02*
X103298000Y-119587000I-200000J0D01*
G01*
X102748000Y-119587000D01*
G75*
G02*
X102548000Y-119387000I0J200000D01*
G01*
X102548000Y-118987000D01*
G75*
G02*
X102748000Y-118787000I200000J0D01*
G01*
G37*
G36*
G01*
X102748000Y-120437000D02*
X103298000Y-120437000D01*
G75*
G02*
X103498000Y-120637000I0J-200000D01*
G01*
X103498000Y-121037000D01*
G75*
G02*
X103298000Y-121237000I-200000J0D01*
G01*
X102748000Y-121237000D01*
G75*
G02*
X102548000Y-121037000I0J200000D01*
G01*
X102548000Y-120637000D01*
G75*
G02*
X102748000Y-120437000I200000J0D01*
G01*
G37*
%TD*%
%TO.C,R22*%
G36*
G01*
X90248000Y-118787000D02*
X90798000Y-118787000D01*
G75*
G02*
X90998000Y-118987000I0J-200000D01*
G01*
X90998000Y-119387000D01*
G75*
G02*
X90798000Y-119587000I-200000J0D01*
G01*
X90248000Y-119587000D01*
G75*
G02*
X90048000Y-119387000I0J200000D01*
G01*
X90048000Y-118987000D01*
G75*
G02*
X90248000Y-118787000I200000J0D01*
G01*
G37*
G36*
G01*
X90248000Y-120437000D02*
X90798000Y-120437000D01*
G75*
G02*
X90998000Y-120637000I0J-200000D01*
G01*
X90998000Y-121037000D01*
G75*
G02*
X90798000Y-121237000I-200000J0D01*
G01*
X90248000Y-121237000D01*
G75*
G02*
X90048000Y-121037000I0J200000D01*
G01*
X90048000Y-120637000D01*
G75*
G02*
X90248000Y-120437000I200000J0D01*
G01*
G37*
%TD*%
%TO.C,R22*%
G36*
G01*
X77748000Y-118787000D02*
X78298000Y-118787000D01*
G75*
G02*
X78498000Y-118987000I0J-200000D01*
G01*
X78498000Y-119387000D01*
G75*
G02*
X78298000Y-119587000I-200000J0D01*
G01*
X77748000Y-119587000D01*
G75*
G02*
X77548000Y-119387000I0J200000D01*
G01*
X77548000Y-118987000D01*
G75*
G02*
X77748000Y-118787000I200000J0D01*
G01*
G37*
G36*
G01*
X77748000Y-120437000D02*
X78298000Y-120437000D01*
G75*
G02*
X78498000Y-120637000I0J-200000D01*
G01*
X78498000Y-121037000D01*
G75*
G02*
X78298000Y-121237000I-200000J0D01*
G01*
X77748000Y-121237000D01*
G75*
G02*
X77548000Y-121037000I0J200000D01*
G01*
X77548000Y-120637000D01*
G75*
G02*
X77748000Y-120437000I200000J0D01*
G01*
G37*
%TD*%
%TO.C,R24*%
G36*
G01*
X98218000Y-128475000D02*
X97668000Y-128475000D01*
G75*
G02*
X97468000Y-128275000I0J200000D01*
G01*
X97468000Y-127875000D01*
G75*
G02*
X97668000Y-127675000I200000J0D01*
G01*
X98218000Y-127675000D01*
G75*
G02*
X98418000Y-127875000I0J-200000D01*
G01*
X98418000Y-128275000D01*
G75*
G02*
X98218000Y-128475000I-200000J0D01*
G01*
G37*
G36*
G01*
X98218000Y-126825000D02*
X97668000Y-126825000D01*
G75*
G02*
X97468000Y-126625000I0J200000D01*
G01*
X97468000Y-126225000D01*
G75*
G02*
X97668000Y-126025000I200000J0D01*
G01*
X98218000Y-126025000D01*
G75*
G02*
X98418000Y-126225000I0J-200000D01*
G01*
X98418000Y-126625000D01*
G75*
G02*
X98218000Y-126825000I-200000J0D01*
G01*
G37*
%TD*%
%TO.C,R24*%
G36*
G01*
X85718000Y-128475000D02*
X85168000Y-128475000D01*
G75*
G02*
X84968000Y-128275000I0J200000D01*
G01*
X84968000Y-127875000D01*
G75*
G02*
X85168000Y-127675000I200000J0D01*
G01*
X85718000Y-127675000D01*
G75*
G02*
X85918000Y-127875000I0J-200000D01*
G01*
X85918000Y-128275000D01*
G75*
G02*
X85718000Y-128475000I-200000J0D01*
G01*
G37*
G36*
G01*
X85718000Y-126825000D02*
X85168000Y-126825000D01*
G75*
G02*
X84968000Y-126625000I0J200000D01*
G01*
X84968000Y-126225000D01*
G75*
G02*
X85168000Y-126025000I200000J0D01*
G01*
X85718000Y-126025000D01*
G75*
G02*
X85918000Y-126225000I0J-200000D01*
G01*
X85918000Y-126625000D01*
G75*
G02*
X85718000Y-126825000I-200000J0D01*
G01*
G37*
%TD*%
%TO.C,R24*%
G36*
G01*
X73218000Y-128475000D02*
X72668000Y-128475000D01*
G75*
G02*
X72468000Y-128275000I0J200000D01*
G01*
X72468000Y-127875000D01*
G75*
G02*
X72668000Y-127675000I200000J0D01*
G01*
X73218000Y-127675000D01*
G75*
G02*
X73418000Y-127875000I0J-200000D01*
G01*
X73418000Y-128275000D01*
G75*
G02*
X73218000Y-128475000I-200000J0D01*
G01*
G37*
G36*
G01*
X73218000Y-126825000D02*
X72668000Y-126825000D01*
G75*
G02*
X72468000Y-126625000I0J200000D01*
G01*
X72468000Y-126225000D01*
G75*
G02*
X72668000Y-126025000I200000J0D01*
G01*
X73218000Y-126025000D01*
G75*
G02*
X73418000Y-126225000I0J-200000D01*
G01*
X73418000Y-126625000D01*
G75*
G02*
X73218000Y-126825000I-200000J0D01*
G01*
G37*
%TD*%
%TO.C,U1*%
G36*
G01*
X104524000Y-113450000D02*
X104824000Y-113450000D01*
G75*
G02*
X104974000Y-113600000I0J-150000D01*
G01*
X104974000Y-115250000D01*
G75*
G02*
X104824000Y-115400000I-150000J0D01*
G01*
X104524000Y-115400000D01*
G75*
G02*
X104374000Y-115250000I0J150000D01*
G01*
X104374000Y-113600000D01*
G75*
G02*
X104524000Y-113450000I150000J0D01*
G01*
G37*
G36*
G01*
X105794000Y-113450000D02*
X106094000Y-113450000D01*
G75*
G02*
X106244000Y-113600000I0J-150000D01*
G01*
X106244000Y-115250000D01*
G75*
G02*
X106094000Y-115400000I-150000J0D01*
G01*
X105794000Y-115400000D01*
G75*
G02*
X105644000Y-115250000I0J150000D01*
G01*
X105644000Y-113600000D01*
G75*
G02*
X105794000Y-113450000I150000J0D01*
G01*
G37*
G36*
G01*
X107064000Y-113450000D02*
X107364000Y-113450000D01*
G75*
G02*
X107514000Y-113600000I0J-150000D01*
G01*
X107514000Y-115250000D01*
G75*
G02*
X107364000Y-115400000I-150000J0D01*
G01*
X107064000Y-115400000D01*
G75*
G02*
X106914000Y-115250000I0J150000D01*
G01*
X106914000Y-113600000D01*
G75*
G02*
X107064000Y-113450000I150000J0D01*
G01*
G37*
G36*
G01*
X108334000Y-113450000D02*
X108634000Y-113450000D01*
G75*
G02*
X108784000Y-113600000I0J-150000D01*
G01*
X108784000Y-115250000D01*
G75*
G02*
X108634000Y-115400000I-150000J0D01*
G01*
X108334000Y-115400000D01*
G75*
G02*
X108184000Y-115250000I0J150000D01*
G01*
X108184000Y-113600000D01*
G75*
G02*
X108334000Y-113450000I150000J0D01*
G01*
G37*
G36*
G01*
X108334000Y-118400000D02*
X108634000Y-118400000D01*
G75*
G02*
X108784000Y-118550000I0J-150000D01*
G01*
X108784000Y-120200000D01*
G75*
G02*
X108634000Y-120350000I-150000J0D01*
G01*
X108334000Y-120350000D01*
G75*
G02*
X108184000Y-120200000I0J150000D01*
G01*
X108184000Y-118550000D01*
G75*
G02*
X108334000Y-118400000I150000J0D01*
G01*
G37*
G36*
G01*
X107064000Y-118400000D02*
X107364000Y-118400000D01*
G75*
G02*
X107514000Y-118550000I0J-150000D01*
G01*
X107514000Y-120200000D01*
G75*
G02*
X107364000Y-120350000I-150000J0D01*
G01*
X107064000Y-120350000D01*
G75*
G02*
X106914000Y-120200000I0J150000D01*
G01*
X106914000Y-118550000D01*
G75*
G02*
X107064000Y-118400000I150000J0D01*
G01*
G37*
G36*
G01*
X105794000Y-118400000D02*
X106094000Y-118400000D01*
G75*
G02*
X106244000Y-118550000I0J-150000D01*
G01*
X106244000Y-120200000D01*
G75*
G02*
X106094000Y-120350000I-150000J0D01*
G01*
X105794000Y-120350000D01*
G75*
G02*
X105644000Y-120200000I0J150000D01*
G01*
X105644000Y-118550000D01*
G75*
G02*
X105794000Y-118400000I150000J0D01*
G01*
G37*
G36*
G01*
X104524000Y-118400000D02*
X104824000Y-118400000D01*
G75*
G02*
X104974000Y-118550000I0J-150000D01*
G01*
X104974000Y-120200000D01*
G75*
G02*
X104824000Y-120350000I-150000J0D01*
G01*
X104524000Y-120350000D01*
G75*
G02*
X104374000Y-120200000I0J150000D01*
G01*
X104374000Y-118550000D01*
G75*
G02*
X104524000Y-118400000I150000J0D01*
G01*
G37*
%TD*%
%TO.C,U1*%
G36*
G01*
X92024000Y-113450000D02*
X92324000Y-113450000D01*
G75*
G02*
X92474000Y-113600000I0J-150000D01*
G01*
X92474000Y-115250000D01*
G75*
G02*
X92324000Y-115400000I-150000J0D01*
G01*
X92024000Y-115400000D01*
G75*
G02*
X91874000Y-115250000I0J150000D01*
G01*
X91874000Y-113600000D01*
G75*
G02*
X92024000Y-113450000I150000J0D01*
G01*
G37*
G36*
G01*
X93294000Y-113450000D02*
X93594000Y-113450000D01*
G75*
G02*
X93744000Y-113600000I0J-150000D01*
G01*
X93744000Y-115250000D01*
G75*
G02*
X93594000Y-115400000I-150000J0D01*
G01*
X93294000Y-115400000D01*
G75*
G02*
X93144000Y-115250000I0J150000D01*
G01*
X93144000Y-113600000D01*
G75*
G02*
X93294000Y-113450000I150000J0D01*
G01*
G37*
G36*
G01*
X94564000Y-113450000D02*
X94864000Y-113450000D01*
G75*
G02*
X95014000Y-113600000I0J-150000D01*
G01*
X95014000Y-115250000D01*
G75*
G02*
X94864000Y-115400000I-150000J0D01*
G01*
X94564000Y-115400000D01*
G75*
G02*
X94414000Y-115250000I0J150000D01*
G01*
X94414000Y-113600000D01*
G75*
G02*
X94564000Y-113450000I150000J0D01*
G01*
G37*
G36*
G01*
X95834000Y-113450000D02*
X96134000Y-113450000D01*
G75*
G02*
X96284000Y-113600000I0J-150000D01*
G01*
X96284000Y-115250000D01*
G75*
G02*
X96134000Y-115400000I-150000J0D01*
G01*
X95834000Y-115400000D01*
G75*
G02*
X95684000Y-115250000I0J150000D01*
G01*
X95684000Y-113600000D01*
G75*
G02*
X95834000Y-113450000I150000J0D01*
G01*
G37*
G36*
G01*
X95834000Y-118400000D02*
X96134000Y-118400000D01*
G75*
G02*
X96284000Y-118550000I0J-150000D01*
G01*
X96284000Y-120200000D01*
G75*
G02*
X96134000Y-120350000I-150000J0D01*
G01*
X95834000Y-120350000D01*
G75*
G02*
X95684000Y-120200000I0J150000D01*
G01*
X95684000Y-118550000D01*
G75*
G02*
X95834000Y-118400000I150000J0D01*
G01*
G37*
G36*
G01*
X94564000Y-118400000D02*
X94864000Y-118400000D01*
G75*
G02*
X95014000Y-118550000I0J-150000D01*
G01*
X95014000Y-120200000D01*
G75*
G02*
X94864000Y-120350000I-150000J0D01*
G01*
X94564000Y-120350000D01*
G75*
G02*
X94414000Y-120200000I0J150000D01*
G01*
X94414000Y-118550000D01*
G75*
G02*
X94564000Y-118400000I150000J0D01*
G01*
G37*
G36*
G01*
X93294000Y-118400000D02*
X93594000Y-118400000D01*
G75*
G02*
X93744000Y-118550000I0J-150000D01*
G01*
X93744000Y-120200000D01*
G75*
G02*
X93594000Y-120350000I-150000J0D01*
G01*
X93294000Y-120350000D01*
G75*
G02*
X93144000Y-120200000I0J150000D01*
G01*
X93144000Y-118550000D01*
G75*
G02*
X93294000Y-118400000I150000J0D01*
G01*
G37*
G36*
G01*
X92024000Y-118400000D02*
X92324000Y-118400000D01*
G75*
G02*
X92474000Y-118550000I0J-150000D01*
G01*
X92474000Y-120200000D01*
G75*
G02*
X92324000Y-120350000I-150000J0D01*
G01*
X92024000Y-120350000D01*
G75*
G02*
X91874000Y-120200000I0J150000D01*
G01*
X91874000Y-118550000D01*
G75*
G02*
X92024000Y-118400000I150000J0D01*
G01*
G37*
%TD*%
%TO.C,U1*%
G36*
G01*
X79524000Y-113450000D02*
X79824000Y-113450000D01*
G75*
G02*
X79974000Y-113600000I0J-150000D01*
G01*
X79974000Y-115250000D01*
G75*
G02*
X79824000Y-115400000I-150000J0D01*
G01*
X79524000Y-115400000D01*
G75*
G02*
X79374000Y-115250000I0J150000D01*
G01*
X79374000Y-113600000D01*
G75*
G02*
X79524000Y-113450000I150000J0D01*
G01*
G37*
G36*
G01*
X80794000Y-113450000D02*
X81094000Y-113450000D01*
G75*
G02*
X81244000Y-113600000I0J-150000D01*
G01*
X81244000Y-115250000D01*
G75*
G02*
X81094000Y-115400000I-150000J0D01*
G01*
X80794000Y-115400000D01*
G75*
G02*
X80644000Y-115250000I0J150000D01*
G01*
X80644000Y-113600000D01*
G75*
G02*
X80794000Y-113450000I150000J0D01*
G01*
G37*
G36*
G01*
X82064000Y-113450000D02*
X82364000Y-113450000D01*
G75*
G02*
X82514000Y-113600000I0J-150000D01*
G01*
X82514000Y-115250000D01*
G75*
G02*
X82364000Y-115400000I-150000J0D01*
G01*
X82064000Y-115400000D01*
G75*
G02*
X81914000Y-115250000I0J150000D01*
G01*
X81914000Y-113600000D01*
G75*
G02*
X82064000Y-113450000I150000J0D01*
G01*
G37*
G36*
G01*
X83334000Y-113450000D02*
X83634000Y-113450000D01*
G75*
G02*
X83784000Y-113600000I0J-150000D01*
G01*
X83784000Y-115250000D01*
G75*
G02*
X83634000Y-115400000I-150000J0D01*
G01*
X83334000Y-115400000D01*
G75*
G02*
X83184000Y-115250000I0J150000D01*
G01*
X83184000Y-113600000D01*
G75*
G02*
X83334000Y-113450000I150000J0D01*
G01*
G37*
G36*
G01*
X83334000Y-118400000D02*
X83634000Y-118400000D01*
G75*
G02*
X83784000Y-118550000I0J-150000D01*
G01*
X83784000Y-120200000D01*
G75*
G02*
X83634000Y-120350000I-150000J0D01*
G01*
X83334000Y-120350000D01*
G75*
G02*
X83184000Y-120200000I0J150000D01*
G01*
X83184000Y-118550000D01*
G75*
G02*
X83334000Y-118400000I150000J0D01*
G01*
G37*
G36*
G01*
X82064000Y-118400000D02*
X82364000Y-118400000D01*
G75*
G02*
X82514000Y-118550000I0J-150000D01*
G01*
X82514000Y-120200000D01*
G75*
G02*
X82364000Y-120350000I-150000J0D01*
G01*
X82064000Y-120350000D01*
G75*
G02*
X81914000Y-120200000I0J150000D01*
G01*
X81914000Y-118550000D01*
G75*
G02*
X82064000Y-118400000I150000J0D01*
G01*
G37*
G36*
G01*
X80794000Y-118400000D02*
X81094000Y-118400000D01*
G75*
G02*
X81244000Y-118550000I0J-150000D01*
G01*
X81244000Y-120200000D01*
G75*
G02*
X81094000Y-120350000I-150000J0D01*
G01*
X80794000Y-120350000D01*
G75*
G02*
X80644000Y-120200000I0J150000D01*
G01*
X80644000Y-118550000D01*
G75*
G02*
X80794000Y-118400000I150000J0D01*
G01*
G37*
G36*
G01*
X79524000Y-118400000D02*
X79824000Y-118400000D01*
G75*
G02*
X79974000Y-118550000I0J-150000D01*
G01*
X79974000Y-120200000D01*
G75*
G02*
X79824000Y-120350000I-150000J0D01*
G01*
X79524000Y-120350000D01*
G75*
G02*
X79374000Y-120200000I0J150000D01*
G01*
X79374000Y-118550000D01*
G75*
G02*
X79524000Y-118400000I150000J0D01*
G01*
G37*
%TD*%
%TO.C,R27*%
G36*
G01*
X91337000Y-63648000D02*
X91887000Y-63648000D01*
G75*
G02*
X92087000Y-63848000I0J-200000D01*
G01*
X92087000Y-64248000D01*
G75*
G02*
X91887000Y-64448000I-200000J0D01*
G01*
X91337000Y-64448000D01*
G75*
G02*
X91137000Y-64248000I0J200000D01*
G01*
X91137000Y-63848000D01*
G75*
G02*
X91337000Y-63648000I200000J0D01*
G01*
G37*
G36*
G01*
X91337000Y-61998000D02*
X91887000Y-61998000D01*
G75*
G02*
X92087000Y-62198000I0J-200000D01*
G01*
X92087000Y-62598000D01*
G75*
G02*
X91887000Y-62798000I-200000J0D01*
G01*
X91337000Y-62798000D01*
G75*
G02*
X91137000Y-62598000I0J200000D01*
G01*
X91137000Y-62198000D01*
G75*
G02*
X91337000Y-61998000I200000J0D01*
G01*
G37*
%TD*%
%TO.C,L1*%
G36*
G01*
X77049500Y-73135001D02*
X77049500Y-72234999D01*
G75*
G02*
X77299499Y-71985000I249999J0D01*
G01*
X77824501Y-71985000D01*
G75*
G02*
X78074500Y-72234999I0J-249999D01*
G01*
X78074500Y-73135001D01*
G75*
G02*
X77824501Y-73385000I-249999J0D01*
G01*
X77299499Y-73385000D01*
G75*
G02*
X77049500Y-73135001I0J249999D01*
G01*
G37*
G36*
G01*
X75224500Y-73135001D02*
X75224500Y-72234999D01*
G75*
G02*
X75474499Y-71985000I249999J0D01*
G01*
X75999501Y-71985000D01*
G75*
G02*
X76249500Y-72234999I0J-249999D01*
G01*
X76249500Y-73135001D01*
G75*
G02*
X75999501Y-73385000I-249999J0D01*
G01*
X75474499Y-73385000D01*
G75*
G02*
X75224500Y-73135001I0J249999D01*
G01*
G37*
%TD*%
%TO.C,C16*%
G36*
G01*
X86536000Y-65784000D02*
X87036000Y-65784000D01*
G75*
G02*
X87261000Y-66009000I0J-225000D01*
G01*
X87261000Y-66459000D01*
G75*
G02*
X87036000Y-66684000I-225000J0D01*
G01*
X86536000Y-66684000D01*
G75*
G02*
X86311000Y-66459000I0J225000D01*
G01*
X86311000Y-66009000D01*
G75*
G02*
X86536000Y-65784000I225000J0D01*
G01*
G37*
G36*
G01*
X86536000Y-64234000D02*
X87036000Y-64234000D01*
G75*
G02*
X87261000Y-64459000I0J-225000D01*
G01*
X87261000Y-64909000D01*
G75*
G02*
X87036000Y-65134000I-225000J0D01*
G01*
X86536000Y-65134000D01*
G75*
G02*
X86311000Y-64909000I0J225000D01*
G01*
X86311000Y-64459000D01*
G75*
G02*
X86536000Y-64234000I225000J0D01*
G01*
G37*
%TD*%
%TO.C,C14*%
G36*
G01*
X80479000Y-71927000D02*
X80479000Y-72427000D01*
G75*
G02*
X80254000Y-72652000I-225000J0D01*
G01*
X79804000Y-72652000D01*
G75*
G02*
X79579000Y-72427000I0J225000D01*
G01*
X79579000Y-71927000D01*
G75*
G02*
X79804000Y-71702000I225000J0D01*
G01*
X80254000Y-71702000D01*
G75*
G02*
X80479000Y-71927000I0J-225000D01*
G01*
G37*
G36*
G01*
X82029000Y-71927000D02*
X82029000Y-72427000D01*
G75*
G02*
X81804000Y-72652000I-225000J0D01*
G01*
X81354000Y-72652000D01*
G75*
G02*
X81129000Y-72427000I0J225000D01*
G01*
X81129000Y-71927000D01*
G75*
G02*
X81354000Y-71702000I225000J0D01*
G01*
X81804000Y-71702000D01*
G75*
G02*
X82029000Y-71927000I0J-225000D01*
G01*
G37*
%TD*%
D11*
%TO.C,Y2*%
X84430000Y-58715000D03*
X83230000Y-58715000D03*
X82030000Y-58715000D03*
%TD*%
D12*
%TO.C,U6*%
X85307000Y-64472000D03*
X84657000Y-64472000D03*
X84007000Y-64472000D03*
X83357000Y-64472000D03*
X82707000Y-64472000D03*
X82057000Y-64472000D03*
X81407000Y-64472000D03*
X80757000Y-64472000D03*
X80757000Y-70272000D03*
X81407000Y-70272000D03*
X82057000Y-70272000D03*
X82707000Y-70272000D03*
X83357000Y-70272000D03*
X84007000Y-70272000D03*
X84657000Y-70272000D03*
X85307000Y-70272000D03*
%TD*%
%TO.C,R26*%
G36*
G01*
X82868000Y-61107000D02*
X82868000Y-61657000D01*
G75*
G02*
X82668000Y-61857000I-200000J0D01*
G01*
X82268000Y-61857000D01*
G75*
G02*
X82068000Y-61657000I0J200000D01*
G01*
X82068000Y-61107000D01*
G75*
G02*
X82268000Y-60907000I200000J0D01*
G01*
X82668000Y-60907000D01*
G75*
G02*
X82868000Y-61107000I0J-200000D01*
G01*
G37*
G36*
G01*
X84518000Y-61107000D02*
X84518000Y-61657000D01*
G75*
G02*
X84318000Y-61857000I-200000J0D01*
G01*
X83918000Y-61857000D01*
G75*
G02*
X83718000Y-61657000I0J200000D01*
G01*
X83718000Y-61107000D01*
G75*
G02*
X83918000Y-60907000I200000J0D01*
G01*
X84318000Y-60907000D01*
G75*
G02*
X84518000Y-61107000I0J-200000D01*
G01*
G37*
%TD*%
%TO.C,R22*%
G36*
G01*
X85003500Y-75548001D02*
X85003500Y-74647999D01*
G75*
G02*
X85253499Y-74398000I249999J0D01*
G01*
X85778501Y-74398000D01*
G75*
G02*
X86028500Y-74647999I0J-249999D01*
G01*
X86028500Y-75548001D01*
G75*
G02*
X85778501Y-75798000I-249999J0D01*
G01*
X85253499Y-75798000D01*
G75*
G02*
X85003500Y-75548001I0J249999D01*
G01*
G37*
G36*
G01*
X83178500Y-75548001D02*
X83178500Y-74647999D01*
G75*
G02*
X83428499Y-74398000I249999J0D01*
G01*
X83953501Y-74398000D01*
G75*
G02*
X84203500Y-74647999I0J-249999D01*
G01*
X84203500Y-75548001D01*
G75*
G02*
X83953501Y-75798000I-249999J0D01*
G01*
X83428499Y-75798000D01*
G75*
G02*
X83178500Y-75548001I0J249999D01*
G01*
G37*
%TD*%
%TO.C,R17*%
G36*
G01*
X80567500Y-74647999D02*
X80567500Y-75548001D01*
G75*
G02*
X80317501Y-75798000I-249999J0D01*
G01*
X79792499Y-75798000D01*
G75*
G02*
X79542500Y-75548001I0J249999D01*
G01*
X79542500Y-74647999D01*
G75*
G02*
X79792499Y-74398000I249999J0D01*
G01*
X80317501Y-74398000D01*
G75*
G02*
X80567500Y-74647999I0J-249999D01*
G01*
G37*
G36*
G01*
X82392500Y-74647999D02*
X82392500Y-75548001D01*
G75*
G02*
X82142501Y-75798000I-249999J0D01*
G01*
X81617499Y-75798000D01*
G75*
G02*
X81367500Y-75548001I0J249999D01*
G01*
X81367500Y-74647999D01*
G75*
G02*
X81617499Y-74398000I249999J0D01*
G01*
X82142501Y-74398000D01*
G75*
G02*
X82392500Y-74647999I0J-249999D01*
G01*
G37*
%TD*%
%TO.C,R12*%
G36*
G01*
X73455500Y-76679999D02*
X73455500Y-77580001D01*
G75*
G02*
X73205501Y-77830000I-249999J0D01*
G01*
X72680499Y-77830000D01*
G75*
G02*
X72430500Y-77580001I0J249999D01*
G01*
X72430500Y-76679999D01*
G75*
G02*
X72680499Y-76430000I249999J0D01*
G01*
X73205501Y-76430000D01*
G75*
G02*
X73455500Y-76679999I0J-249999D01*
G01*
G37*
G36*
G01*
X75280500Y-76679999D02*
X75280500Y-77580001D01*
G75*
G02*
X75030501Y-77830000I-249999J0D01*
G01*
X74505499Y-77830000D01*
G75*
G02*
X74255500Y-77580001I0J249999D01*
G01*
X74255500Y-76679999D01*
G75*
G02*
X74505499Y-76430000I249999J0D01*
G01*
X75030501Y-76430000D01*
G75*
G02*
X75280500Y-76679999I0J-249999D01*
G01*
G37*
%TD*%
%TO.C,R11*%
G36*
G01*
X77011500Y-75409999D02*
X77011500Y-76310001D01*
G75*
G02*
X76761501Y-76560000I-249999J0D01*
G01*
X76236499Y-76560000D01*
G75*
G02*
X75986500Y-76310001I0J249999D01*
G01*
X75986500Y-75409999D01*
G75*
G02*
X76236499Y-75160000I249999J0D01*
G01*
X76761501Y-75160000D01*
G75*
G02*
X77011500Y-75409999I0J-249999D01*
G01*
G37*
G36*
G01*
X78836500Y-75409999D02*
X78836500Y-76310001D01*
G75*
G02*
X78586501Y-76560000I-249999J0D01*
G01*
X78061499Y-76560000D01*
G75*
G02*
X77811500Y-76310001I0J249999D01*
G01*
X77811500Y-75409999D01*
G75*
G02*
X78061499Y-75160000I249999J0D01*
G01*
X78586501Y-75160000D01*
G75*
G02*
X78836500Y-75409999I0J-249999D01*
G01*
G37*
%TD*%
%TO.C,R7*%
G36*
G01*
X92013000Y-59202000D02*
X92013000Y-59752000D01*
G75*
G02*
X91813000Y-59952000I-200000J0D01*
G01*
X91413000Y-59952000D01*
G75*
G02*
X91213000Y-59752000I0J200000D01*
G01*
X91213000Y-59202000D01*
G75*
G02*
X91413000Y-59002000I200000J0D01*
G01*
X91813000Y-59002000D01*
G75*
G02*
X92013000Y-59202000I0J-200000D01*
G01*
G37*
G36*
G01*
X93663000Y-59202000D02*
X93663000Y-59752000D01*
G75*
G02*
X93463000Y-59952000I-200000J0D01*
G01*
X93063000Y-59952000D01*
G75*
G02*
X92863000Y-59752000I0J200000D01*
G01*
X92863000Y-59202000D01*
G75*
G02*
X93063000Y-59002000I200000J0D01*
G01*
X93463000Y-59002000D01*
G75*
G02*
X93663000Y-59202000I0J-200000D01*
G01*
G37*
%TD*%
%TO.C,R3*%
G36*
G01*
X92013000Y-60726000D02*
X92013000Y-61276000D01*
G75*
G02*
X91813000Y-61476000I-200000J0D01*
G01*
X91413000Y-61476000D01*
G75*
G02*
X91213000Y-61276000I0J200000D01*
G01*
X91213000Y-60726000D01*
G75*
G02*
X91413000Y-60526000I200000J0D01*
G01*
X91813000Y-60526000D01*
G75*
G02*
X92013000Y-60726000I0J-200000D01*
G01*
G37*
G36*
G01*
X93663000Y-60726000D02*
X93663000Y-61276000D01*
G75*
G02*
X93463000Y-61476000I-200000J0D01*
G01*
X93063000Y-61476000D01*
G75*
G02*
X92863000Y-61276000I0J200000D01*
G01*
X92863000Y-60726000D01*
G75*
G02*
X93063000Y-60526000I200000J0D01*
G01*
X93463000Y-60526000D01*
G75*
G02*
X93663000Y-60726000I0J-200000D01*
G01*
G37*
%TD*%
D10*
%TO.C,Q1*%
X92186000Y-55921000D03*
X91236000Y-57921000D03*
X93136000Y-57921000D03*
%TD*%
%TO.C,C19*%
G36*
G01*
X81964000Y-55598000D02*
X82464000Y-55598000D01*
G75*
G02*
X82689000Y-55823000I0J-225000D01*
G01*
X82689000Y-56273000D01*
G75*
G02*
X82464000Y-56498000I-225000J0D01*
G01*
X81964000Y-56498000D01*
G75*
G02*
X81739000Y-56273000I0J225000D01*
G01*
X81739000Y-55823000D01*
G75*
G02*
X81964000Y-55598000I225000J0D01*
G01*
G37*
G36*
G01*
X81964000Y-54048000D02*
X82464000Y-54048000D01*
G75*
G02*
X82689000Y-54273000I0J-225000D01*
G01*
X82689000Y-54723000D01*
G75*
G02*
X82464000Y-54948000I-225000J0D01*
G01*
X81964000Y-54948000D01*
G75*
G02*
X81739000Y-54723000I0J225000D01*
G01*
X81739000Y-54273000D01*
G75*
G02*
X81964000Y-54048000I225000J0D01*
G01*
G37*
%TD*%
%TO.C,C18*%
G36*
G01*
X83996000Y-55598000D02*
X84496000Y-55598000D01*
G75*
G02*
X84721000Y-55823000I0J-225000D01*
G01*
X84721000Y-56273000D01*
G75*
G02*
X84496000Y-56498000I-225000J0D01*
G01*
X83996000Y-56498000D01*
G75*
G02*
X83771000Y-56273000I0J225000D01*
G01*
X83771000Y-55823000D01*
G75*
G02*
X83996000Y-55598000I225000J0D01*
G01*
G37*
G36*
G01*
X83996000Y-54048000D02*
X84496000Y-54048000D01*
G75*
G02*
X84721000Y-54273000I0J-225000D01*
G01*
X84721000Y-54723000D01*
G75*
G02*
X84496000Y-54948000I-225000J0D01*
G01*
X83996000Y-54948000D01*
G75*
G02*
X83771000Y-54723000I0J225000D01*
G01*
X83771000Y-54273000D01*
G75*
G02*
X83996000Y-54048000I225000J0D01*
G01*
G37*
%TD*%
%TO.C,C13*%
G36*
G01*
X84116000Y-72464000D02*
X84116000Y-73414000D01*
G75*
G02*
X83866000Y-73664000I-250000J0D01*
G01*
X83366000Y-73664000D01*
G75*
G02*
X83116000Y-73414000I0J250000D01*
G01*
X83116000Y-72464000D01*
G75*
G02*
X83366000Y-72214000I250000J0D01*
G01*
X83866000Y-72214000D01*
G75*
G02*
X84116000Y-72464000I0J-250000D01*
G01*
G37*
G36*
G01*
X86016000Y-72464000D02*
X86016000Y-73414000D01*
G75*
G02*
X85766000Y-73664000I-250000J0D01*
G01*
X85266000Y-73664000D01*
G75*
G02*
X85016000Y-73414000I0J250000D01*
G01*
X85016000Y-72464000D01*
G75*
G02*
X85266000Y-72214000I250000J0D01*
G01*
X85766000Y-72214000D01*
G75*
G02*
X86016000Y-72464000I0J-250000D01*
G01*
G37*
%TD*%
%TO.C,C8*%
G36*
G01*
X68468000Y-55837000D02*
X67968000Y-55837000D01*
G75*
G02*
X67743000Y-55612000I0J225000D01*
G01*
X67743000Y-55162000D01*
G75*
G02*
X67968000Y-54937000I225000J0D01*
G01*
X68468000Y-54937000D01*
G75*
G02*
X68693000Y-55162000I0J-225000D01*
G01*
X68693000Y-55612000D01*
G75*
G02*
X68468000Y-55837000I-225000J0D01*
G01*
G37*
G36*
G01*
X68468000Y-57387000D02*
X67968000Y-57387000D01*
G75*
G02*
X67743000Y-57162000I0J225000D01*
G01*
X67743000Y-56712000D01*
G75*
G02*
X67968000Y-56487000I225000J0D01*
G01*
X68468000Y-56487000D01*
G75*
G02*
X68693000Y-56712000I0J-225000D01*
G01*
X68693000Y-57162000D01*
G75*
G02*
X68468000Y-57387000I-225000J0D01*
G01*
G37*
%TD*%
%TO.C,C6*%
G36*
G01*
X70018000Y-55837000D02*
X69518000Y-55837000D01*
G75*
G02*
X69293000Y-55612000I0J225000D01*
G01*
X69293000Y-55162000D01*
G75*
G02*
X69518000Y-54937000I225000J0D01*
G01*
X70018000Y-54937000D01*
G75*
G02*
X70243000Y-55162000I0J-225000D01*
G01*
X70243000Y-55612000D01*
G75*
G02*
X70018000Y-55837000I-225000J0D01*
G01*
G37*
G36*
G01*
X70018000Y-57387000D02*
X69518000Y-57387000D01*
G75*
G02*
X69293000Y-57162000I0J225000D01*
G01*
X69293000Y-56712000D01*
G75*
G02*
X69518000Y-56487000I225000J0D01*
G01*
X70018000Y-56487000D01*
G75*
G02*
X70243000Y-56712000I0J-225000D01*
G01*
X70243000Y-57162000D01*
G75*
G02*
X70018000Y-57387000I-225000J0D01*
G01*
G37*
%TD*%
%TO.C,R4*%
G36*
G01*
X101919000Y-60726000D02*
X101919000Y-61276000D01*
G75*
G02*
X101719000Y-61476000I-200000J0D01*
G01*
X101319000Y-61476000D01*
G75*
G02*
X101119000Y-61276000I0J200000D01*
G01*
X101119000Y-60726000D01*
G75*
G02*
X101319000Y-60526000I200000J0D01*
G01*
X101719000Y-60526000D01*
G75*
G02*
X101919000Y-60726000I0J-200000D01*
G01*
G37*
G36*
G01*
X103569000Y-60726000D02*
X103569000Y-61276000D01*
G75*
G02*
X103369000Y-61476000I-200000J0D01*
G01*
X102969000Y-61476000D01*
G75*
G02*
X102769000Y-61276000I0J200000D01*
G01*
X102769000Y-60726000D01*
G75*
G02*
X102969000Y-60526000I200000J0D01*
G01*
X103369000Y-60526000D01*
G75*
G02*
X103569000Y-60726000I0J-200000D01*
G01*
G37*
%TD*%
%TO.C,R10*%
G36*
G01*
X101919000Y-59202000D02*
X101919000Y-59752000D01*
G75*
G02*
X101719000Y-59952000I-200000J0D01*
G01*
X101319000Y-59952000D01*
G75*
G02*
X101119000Y-59752000I0J200000D01*
G01*
X101119000Y-59202000D01*
G75*
G02*
X101319000Y-59002000I200000J0D01*
G01*
X101719000Y-59002000D01*
G75*
G02*
X101919000Y-59202000I0J-200000D01*
G01*
G37*
G36*
G01*
X103569000Y-59202000D02*
X103569000Y-59752000D01*
G75*
G02*
X103369000Y-59952000I-200000J0D01*
G01*
X102969000Y-59952000D01*
G75*
G02*
X102769000Y-59752000I0J200000D01*
G01*
X102769000Y-59202000D01*
G75*
G02*
X102969000Y-59002000I200000J0D01*
G01*
X103369000Y-59002000D01*
G75*
G02*
X103569000Y-59202000I0J-200000D01*
G01*
G37*
%TD*%
%TO.C,Q2*%
X102092000Y-55953000D03*
X101142000Y-57953000D03*
X103042000Y-57953000D03*
%TD*%
%TO.C,R14*%
G36*
G01*
X63653000Y-68896000D02*
X63653000Y-68346000D01*
G75*
G02*
X63853000Y-68146000I200000J0D01*
G01*
X64253000Y-68146000D01*
G75*
G02*
X64453000Y-68346000I0J-200000D01*
G01*
X64453000Y-68896000D01*
G75*
G02*
X64253000Y-69096000I-200000J0D01*
G01*
X63853000Y-69096000D01*
G75*
G02*
X63653000Y-68896000I0J200000D01*
G01*
G37*
G36*
G01*
X62003000Y-68896000D02*
X62003000Y-68346000D01*
G75*
G02*
X62203000Y-68146000I200000J0D01*
G01*
X62603000Y-68146000D01*
G75*
G02*
X62803000Y-68346000I0J-200000D01*
G01*
X62803000Y-68896000D01*
G75*
G02*
X62603000Y-69096000I-200000J0D01*
G01*
X62203000Y-69096000D01*
G75*
G02*
X62003000Y-68896000I0J200000D01*
G01*
G37*
%TD*%
%TO.C,D6*%
G36*
G01*
X60367750Y-68234500D02*
X60880250Y-68234500D01*
G75*
G02*
X61099000Y-68453250I0J-218750D01*
G01*
X61099000Y-68890750D01*
G75*
G02*
X60880250Y-69109500I-218750J0D01*
G01*
X60367750Y-69109500D01*
G75*
G02*
X60149000Y-68890750I0J218750D01*
G01*
X60149000Y-68453250D01*
G75*
G02*
X60367750Y-68234500I218750J0D01*
G01*
G37*
G36*
G01*
X60367750Y-66659500D02*
X60880250Y-66659500D01*
G75*
G02*
X61099000Y-66878250I0J-218750D01*
G01*
X61099000Y-67315750D01*
G75*
G02*
X60880250Y-67534500I-218750J0D01*
G01*
X60367750Y-67534500D01*
G75*
G02*
X60149000Y-67315750I0J218750D01*
G01*
X60149000Y-66878250D01*
G75*
G02*
X60367750Y-66659500I218750J0D01*
G01*
G37*
%TD*%
D13*
%TO.C,R16*%
X102661000Y-70272000D03*
X102661000Y-73272000D03*
%TD*%
%TO.C,R15*%
X92882000Y-70272000D03*
X92882000Y-73272000D03*
%TD*%
%TO.C,D2*%
G36*
G01*
X102719000Y-54653250D02*
X102719000Y-54140750D01*
G75*
G02*
X102937750Y-53922000I218750J0D01*
G01*
X103375250Y-53922000D01*
G75*
G02*
X103594000Y-54140750I0J-218750D01*
G01*
X103594000Y-54653250D01*
G75*
G02*
X103375250Y-54872000I-218750J0D01*
G01*
X102937750Y-54872000D01*
G75*
G02*
X102719000Y-54653250I0J218750D01*
G01*
G37*
G36*
G01*
X101144000Y-54653250D02*
X101144000Y-54140750D01*
G75*
G02*
X101362750Y-53922000I218750J0D01*
G01*
X101800250Y-53922000D01*
G75*
G02*
X102019000Y-54140750I0J-218750D01*
G01*
X102019000Y-54653250D01*
G75*
G02*
X101800250Y-54872000I-218750J0D01*
G01*
X101362750Y-54872000D01*
G75*
G02*
X101144000Y-54653250I0J218750D01*
G01*
G37*
%TD*%
%TO.C,D1*%
G36*
G01*
X92813000Y-54653250D02*
X92813000Y-54140750D01*
G75*
G02*
X93031750Y-53922000I218750J0D01*
G01*
X93469250Y-53922000D01*
G75*
G02*
X93688000Y-54140750I0J-218750D01*
G01*
X93688000Y-54653250D01*
G75*
G02*
X93469250Y-54872000I-218750J0D01*
G01*
X93031750Y-54872000D01*
G75*
G02*
X92813000Y-54653250I0J218750D01*
G01*
G37*
G36*
G01*
X91238000Y-54653250D02*
X91238000Y-54140750D01*
G75*
G02*
X91456750Y-53922000I218750J0D01*
G01*
X91894250Y-53922000D01*
G75*
G02*
X92113000Y-54140750I0J-218750D01*
G01*
X92113000Y-54653250D01*
G75*
G02*
X91894250Y-54872000I-218750J0D01*
G01*
X91456750Y-54872000D01*
G75*
G02*
X91238000Y-54653250I0J218750D01*
G01*
G37*
%TD*%
%TO.C,R13*%
G36*
G01*
X63525000Y-63054000D02*
X63525000Y-62504000D01*
G75*
G02*
X63725000Y-62304000I200000J0D01*
G01*
X64125000Y-62304000D01*
G75*
G02*
X64325000Y-62504000I0J-200000D01*
G01*
X64325000Y-63054000D01*
G75*
G02*
X64125000Y-63254000I-200000J0D01*
G01*
X63725000Y-63254000D01*
G75*
G02*
X63525000Y-63054000I0J200000D01*
G01*
G37*
G36*
G01*
X61875000Y-63054000D02*
X61875000Y-62504000D01*
G75*
G02*
X62075000Y-62304000I200000J0D01*
G01*
X62475000Y-62304000D01*
G75*
G02*
X62675000Y-62504000I0J-200000D01*
G01*
X62675000Y-63054000D01*
G75*
G02*
X62475000Y-63254000I-200000J0D01*
G01*
X62075000Y-63254000D01*
G75*
G02*
X61875000Y-63054000I0J200000D01*
G01*
G37*
%TD*%
%TO.C,D5*%
G36*
G01*
X60367750Y-62341500D02*
X60880250Y-62341500D01*
G75*
G02*
X61099000Y-62560250I0J-218750D01*
G01*
X61099000Y-62997750D01*
G75*
G02*
X60880250Y-63216500I-218750J0D01*
G01*
X60367750Y-63216500D01*
G75*
G02*
X60149000Y-62997750I0J218750D01*
G01*
X60149000Y-62560250D01*
G75*
G02*
X60367750Y-62341500I218750J0D01*
G01*
G37*
G36*
G01*
X60367750Y-60766500D02*
X60880250Y-60766500D01*
G75*
G02*
X61099000Y-60985250I0J-218750D01*
G01*
X61099000Y-61422750D01*
G75*
G02*
X60880250Y-61641500I-218750J0D01*
G01*
X60367750Y-61641500D01*
G75*
G02*
X60149000Y-61422750I0J218750D01*
G01*
X60149000Y-60985250D01*
G75*
G02*
X60367750Y-60766500I218750J0D01*
G01*
G37*
%TD*%
%TO.C,R15*%
G36*
G01*
X93117000Y-80172000D02*
X93117000Y-79622000D01*
G75*
G02*
X93317000Y-79422000I200000J0D01*
G01*
X93717000Y-79422000D01*
G75*
G02*
X93917000Y-79622000I0J-200000D01*
G01*
X93917000Y-80172000D01*
G75*
G02*
X93717000Y-80372000I-200000J0D01*
G01*
X93317000Y-80372000D01*
G75*
G02*
X93117000Y-80172000I0J200000D01*
G01*
G37*
G36*
G01*
X91467000Y-80172000D02*
X91467000Y-79622000D01*
G75*
G02*
X91667000Y-79422000I200000J0D01*
G01*
X92067000Y-79422000D01*
G75*
G02*
X92267000Y-79622000I0J-200000D01*
G01*
X92267000Y-80172000D01*
G75*
G02*
X92067000Y-80372000I-200000J0D01*
G01*
X91667000Y-80372000D01*
G75*
G02*
X91467000Y-80172000I0J200000D01*
G01*
G37*
%TD*%
%TO.C,R13*%
G36*
G01*
X93116000Y-82013500D02*
X93116000Y-81463500D01*
G75*
G02*
X93316000Y-81263500I200000J0D01*
G01*
X93716000Y-81263500D01*
G75*
G02*
X93916000Y-81463500I0J-200000D01*
G01*
X93916000Y-82013500D01*
G75*
G02*
X93716000Y-82213500I-200000J0D01*
G01*
X93316000Y-82213500D01*
G75*
G02*
X93116000Y-82013500I0J200000D01*
G01*
G37*
G36*
G01*
X91466000Y-82013500D02*
X91466000Y-81463500D01*
G75*
G02*
X91666000Y-81263500I200000J0D01*
G01*
X92066000Y-81263500D01*
G75*
G02*
X92266000Y-81463500I0J-200000D01*
G01*
X92266000Y-82013500D01*
G75*
G02*
X92066000Y-82213500I-200000J0D01*
G01*
X91666000Y-82213500D01*
G75*
G02*
X91466000Y-82013500I0J200000D01*
G01*
G37*
%TD*%
%TO.C,R3*%
G36*
G01*
X84519000Y-79622000D02*
X84519000Y-80172000D01*
G75*
G02*
X84319000Y-80372000I-200000J0D01*
G01*
X83919000Y-80372000D01*
G75*
G02*
X83719000Y-80172000I0J200000D01*
G01*
X83719000Y-79622000D01*
G75*
G02*
X83919000Y-79422000I200000J0D01*
G01*
X84319000Y-79422000D01*
G75*
G02*
X84519000Y-79622000I0J-200000D01*
G01*
G37*
G36*
G01*
X86169000Y-79622000D02*
X86169000Y-80172000D01*
G75*
G02*
X85969000Y-80372000I-200000J0D01*
G01*
X85569000Y-80372000D01*
G75*
G02*
X85369000Y-80172000I0J200000D01*
G01*
X85369000Y-79622000D01*
G75*
G02*
X85569000Y-79422000I200000J0D01*
G01*
X85969000Y-79422000D01*
G75*
G02*
X86169000Y-79622000I0J-200000D01*
G01*
G37*
%TD*%
%TO.C,R1*%
G36*
G01*
X85369000Y-81696000D02*
X85369000Y-81146000D01*
G75*
G02*
X85569000Y-80946000I200000J0D01*
G01*
X85969000Y-80946000D01*
G75*
G02*
X86169000Y-81146000I0J-200000D01*
G01*
X86169000Y-81696000D01*
G75*
G02*
X85969000Y-81896000I-200000J0D01*
G01*
X85569000Y-81896000D01*
G75*
G02*
X85369000Y-81696000I0J200000D01*
G01*
G37*
G36*
G01*
X83719000Y-81696000D02*
X83719000Y-81146000D01*
G75*
G02*
X83919000Y-80946000I200000J0D01*
G01*
X84319000Y-80946000D01*
G75*
G02*
X84519000Y-81146000I0J-200000D01*
G01*
X84519000Y-81696000D01*
G75*
G02*
X84319000Y-81896000I-200000J0D01*
G01*
X83919000Y-81896000D01*
G75*
G02*
X83719000Y-81696000I0J200000D01*
G01*
G37*
%TD*%
D14*
%TO.C,Q5*%
X97041000Y-80910500D03*
X95041000Y-79960500D03*
X95041000Y-81860500D03*
%TD*%
D10*
%TO.C,Q1*%
X81645000Y-81960500D03*
X82595000Y-79960500D03*
X80695000Y-79960500D03*
%TD*%
%TO.C,R17*%
G36*
G01*
X99721000Y-80553000D02*
X99721000Y-80003000D01*
G75*
G02*
X99921000Y-79803000I200000J0D01*
G01*
X100321000Y-79803000D01*
G75*
G02*
X100521000Y-80003000I0J-200000D01*
G01*
X100521000Y-80553000D01*
G75*
G02*
X100321000Y-80753000I-200000J0D01*
G01*
X99921000Y-80753000D01*
G75*
G02*
X99721000Y-80553000I0J200000D01*
G01*
G37*
G36*
G01*
X98071000Y-80553000D02*
X98071000Y-80003000D01*
G75*
G02*
X98271000Y-79803000I200000J0D01*
G01*
X98671000Y-79803000D01*
G75*
G02*
X98871000Y-80003000I0J-200000D01*
G01*
X98871000Y-80553000D01*
G75*
G02*
X98671000Y-80753000I-200000J0D01*
G01*
X98271000Y-80753000D01*
G75*
G02*
X98071000Y-80553000I0J200000D01*
G01*
G37*
%TD*%
%TO.C,R5*%
G36*
G01*
X77915000Y-80003000D02*
X77915000Y-80553000D01*
G75*
G02*
X77715000Y-80753000I-200000J0D01*
G01*
X77315000Y-80753000D01*
G75*
G02*
X77115000Y-80553000I0J200000D01*
G01*
X77115000Y-80003000D01*
G75*
G02*
X77315000Y-79803000I200000J0D01*
G01*
X77715000Y-79803000D01*
G75*
G02*
X77915000Y-80003000I0J-200000D01*
G01*
G37*
G36*
G01*
X79565000Y-80003000D02*
X79565000Y-80553000D01*
G75*
G02*
X79365000Y-80753000I-200000J0D01*
G01*
X78965000Y-80753000D01*
G75*
G02*
X78765000Y-80553000I0J200000D01*
G01*
X78765000Y-80003000D01*
G75*
G02*
X78965000Y-79803000I200000J0D01*
G01*
X79365000Y-79803000D01*
G75*
G02*
X79565000Y-80003000I0J-200000D01*
G01*
G37*
%TD*%
D15*
%TO.C,D4*%
X99173000Y-86882000D03*
X97073000Y-86882000D03*
%TD*%
%TO.C,D3*%
X99173000Y-84342000D03*
X97073000Y-84342000D03*
%TD*%
%TO.C,D2*%
X78599000Y-86882000D03*
X76499000Y-86882000D03*
%TD*%
%TO.C,D1*%
X78599000Y-84342000D03*
X76499000Y-84342000D03*
%TD*%
%TO.C,C9*%
G36*
G01*
X69396001Y-92783000D02*
X67345999Y-92783000D01*
G75*
G02*
X67096000Y-92533001I0J249999D01*
G01*
X67096000Y-90782999D01*
G75*
G02*
X67345999Y-90533000I249999J0D01*
G01*
X69396001Y-90533000D01*
G75*
G02*
X69646000Y-90782999I0J-249999D01*
G01*
X69646000Y-92533001D01*
G75*
G02*
X69396001Y-92783000I-249999J0D01*
G01*
G37*
G36*
G01*
X69396001Y-99183000D02*
X67345999Y-99183000D01*
G75*
G02*
X67096000Y-98933001I0J249999D01*
G01*
X67096000Y-97182999D01*
G75*
G02*
X67345999Y-96933000I249999J0D01*
G01*
X69396001Y-96933000D01*
G75*
G02*
X69646000Y-97182999I0J-249999D01*
G01*
X69646000Y-98933001D01*
G75*
G02*
X69396001Y-99183000I-249999J0D01*
G01*
G37*
%TD*%
%TO.C,C6*%
G36*
G01*
X68696000Y-100467000D02*
X68696000Y-99967000D01*
G75*
G02*
X68921000Y-99742000I225000J0D01*
G01*
X69371000Y-99742000D01*
G75*
G02*
X69596000Y-99967000I0J-225000D01*
G01*
X69596000Y-100467000D01*
G75*
G02*
X69371000Y-100692000I-225000J0D01*
G01*
X68921000Y-100692000D01*
G75*
G02*
X68696000Y-100467000I0J225000D01*
G01*
G37*
G36*
G01*
X67146000Y-100467000D02*
X67146000Y-99967000D01*
G75*
G02*
X67371000Y-99742000I225000J0D01*
G01*
X67821000Y-99742000D01*
G75*
G02*
X68046000Y-99967000I0J-225000D01*
G01*
X68046000Y-100467000D01*
G75*
G02*
X67821000Y-100692000I-225000J0D01*
G01*
X67371000Y-100692000D01*
G75*
G02*
X67146000Y-100467000I0J225000D01*
G01*
G37*
%TD*%
%TO.C,C2*%
G36*
G01*
X63616000Y-100467000D02*
X63616000Y-99967000D01*
G75*
G02*
X63841000Y-99742000I225000J0D01*
G01*
X64291000Y-99742000D01*
G75*
G02*
X64516000Y-99967000I0J-225000D01*
G01*
X64516000Y-100467000D01*
G75*
G02*
X64291000Y-100692000I-225000J0D01*
G01*
X63841000Y-100692000D01*
G75*
G02*
X63616000Y-100467000I0J225000D01*
G01*
G37*
G36*
G01*
X62066000Y-100467000D02*
X62066000Y-99967000D01*
G75*
G02*
X62291000Y-99742000I225000J0D01*
G01*
X62741000Y-99742000D01*
G75*
G02*
X62966000Y-99967000I0J-225000D01*
G01*
X62966000Y-100467000D01*
G75*
G02*
X62741000Y-100692000I-225000J0D01*
G01*
X62291000Y-100692000D01*
G75*
G02*
X62066000Y-100467000I0J225000D01*
G01*
G37*
%TD*%
%TO.C,C1*%
G36*
G01*
X64443001Y-92783000D02*
X62392999Y-92783000D01*
G75*
G02*
X62143000Y-92533001I0J249999D01*
G01*
X62143000Y-90782999D01*
G75*
G02*
X62392999Y-90533000I249999J0D01*
G01*
X64443001Y-90533000D01*
G75*
G02*
X64693000Y-90782999I0J-249999D01*
G01*
X64693000Y-92533001D01*
G75*
G02*
X64443001Y-92783000I-249999J0D01*
G01*
G37*
G36*
G01*
X64443001Y-99183000D02*
X62392999Y-99183000D01*
G75*
G02*
X62143000Y-98933001I0J249999D01*
G01*
X62143000Y-97182999D01*
G75*
G02*
X62392999Y-96933000I249999J0D01*
G01*
X64443001Y-96933000D01*
G75*
G02*
X64693000Y-97182999I0J-249999D01*
G01*
X64693000Y-98933001D01*
G75*
G02*
X64443001Y-99183000I-249999J0D01*
G01*
G37*
%TD*%
%TO.C,C12*%
G36*
G01*
X101395000Y-81441500D02*
X101895000Y-81441500D01*
G75*
G02*
X102120000Y-81666500I0J-225000D01*
G01*
X102120000Y-82116500D01*
G75*
G02*
X101895000Y-82341500I-225000J0D01*
G01*
X101395000Y-82341500D01*
G75*
G02*
X101170000Y-82116500I0J225000D01*
G01*
X101170000Y-81666500D01*
G75*
G02*
X101395000Y-81441500I225000J0D01*
G01*
G37*
G36*
G01*
X101395000Y-79891500D02*
X101895000Y-79891500D01*
G75*
G02*
X102120000Y-80116500I0J-225000D01*
G01*
X102120000Y-80566500D01*
G75*
G02*
X101895000Y-80791500I-225000J0D01*
G01*
X101395000Y-80791500D01*
G75*
G02*
X101170000Y-80566500I0J225000D01*
G01*
X101170000Y-80116500D01*
G75*
G02*
X101395000Y-79891500I225000J0D01*
G01*
G37*
%TD*%
%TO.C,C11*%
G36*
G01*
X102919000Y-81441500D02*
X103419000Y-81441500D01*
G75*
G02*
X103644000Y-81666500I0J-225000D01*
G01*
X103644000Y-82116500D01*
G75*
G02*
X103419000Y-82341500I-225000J0D01*
G01*
X102919000Y-82341500D01*
G75*
G02*
X102694000Y-82116500I0J225000D01*
G01*
X102694000Y-81666500D01*
G75*
G02*
X102919000Y-81441500I225000J0D01*
G01*
G37*
G36*
G01*
X102919000Y-79891500D02*
X103419000Y-79891500D01*
G75*
G02*
X103644000Y-80116500I0J-225000D01*
G01*
X103644000Y-80566500D01*
G75*
G02*
X103419000Y-80791500I-225000J0D01*
G01*
X102919000Y-80791500D01*
G75*
G02*
X102694000Y-80566500I0J225000D01*
G01*
X102694000Y-80116500D01*
G75*
G02*
X102919000Y-79891500I225000J0D01*
G01*
G37*
%TD*%
%TO.C,C4*%
G36*
G01*
X74217000Y-81441500D02*
X74717000Y-81441500D01*
G75*
G02*
X74942000Y-81666500I0J-225000D01*
G01*
X74942000Y-82116500D01*
G75*
G02*
X74717000Y-82341500I-225000J0D01*
G01*
X74217000Y-82341500D01*
G75*
G02*
X73992000Y-82116500I0J225000D01*
G01*
X73992000Y-81666500D01*
G75*
G02*
X74217000Y-81441500I225000J0D01*
G01*
G37*
G36*
G01*
X74217000Y-79891500D02*
X74717000Y-79891500D01*
G75*
G02*
X74942000Y-80116500I0J-225000D01*
G01*
X74942000Y-80566500D01*
G75*
G02*
X74717000Y-80791500I-225000J0D01*
G01*
X74217000Y-80791500D01*
G75*
G02*
X73992000Y-80566500I0J225000D01*
G01*
X73992000Y-80116500D01*
G75*
G02*
X74217000Y-79891500I225000J0D01*
G01*
G37*
%TD*%
%TO.C,C3*%
G36*
G01*
X75741000Y-81441500D02*
X76241000Y-81441500D01*
G75*
G02*
X76466000Y-81666500I0J-225000D01*
G01*
X76466000Y-82116500D01*
G75*
G02*
X76241000Y-82341500I-225000J0D01*
G01*
X75741000Y-82341500D01*
G75*
G02*
X75516000Y-82116500I0J225000D01*
G01*
X75516000Y-81666500D01*
G75*
G02*
X75741000Y-81441500I225000J0D01*
G01*
G37*
G36*
G01*
X75741000Y-79891500D02*
X76241000Y-79891500D01*
G75*
G02*
X76466000Y-80116500I0J-225000D01*
G01*
X76466000Y-80566500D01*
G75*
G02*
X76241000Y-80791500I-225000J0D01*
G01*
X75741000Y-80791500D01*
G75*
G02*
X75516000Y-80566500I0J225000D01*
G01*
X75516000Y-80116500D01*
G75*
G02*
X75741000Y-79891500I225000J0D01*
G01*
G37*
%TD*%
%TO.C,U1*%
G36*
G01*
X67024000Y-118400000D02*
X67324000Y-118400000D01*
G75*
G02*
X67474000Y-118550000I0J-150000D01*
G01*
X67474000Y-120200000D01*
G75*
G02*
X67324000Y-120350000I-150000J0D01*
G01*
X67024000Y-120350000D01*
G75*
G02*
X66874000Y-120200000I0J150000D01*
G01*
X66874000Y-118550000D01*
G75*
G02*
X67024000Y-118400000I150000J0D01*
G01*
G37*
G36*
G01*
X68294000Y-118400000D02*
X68594000Y-118400000D01*
G75*
G02*
X68744000Y-118550000I0J-150000D01*
G01*
X68744000Y-120200000D01*
G75*
G02*
X68594000Y-120350000I-150000J0D01*
G01*
X68294000Y-120350000D01*
G75*
G02*
X68144000Y-120200000I0J150000D01*
G01*
X68144000Y-118550000D01*
G75*
G02*
X68294000Y-118400000I150000J0D01*
G01*
G37*
G36*
G01*
X69564000Y-118400000D02*
X69864000Y-118400000D01*
G75*
G02*
X70014000Y-118550000I0J-150000D01*
G01*
X70014000Y-120200000D01*
G75*
G02*
X69864000Y-120350000I-150000J0D01*
G01*
X69564000Y-120350000D01*
G75*
G02*
X69414000Y-120200000I0J150000D01*
G01*
X69414000Y-118550000D01*
G75*
G02*
X69564000Y-118400000I150000J0D01*
G01*
G37*
G36*
G01*
X70834000Y-118400000D02*
X71134000Y-118400000D01*
G75*
G02*
X71284000Y-118550000I0J-150000D01*
G01*
X71284000Y-120200000D01*
G75*
G02*
X71134000Y-120350000I-150000J0D01*
G01*
X70834000Y-120350000D01*
G75*
G02*
X70684000Y-120200000I0J150000D01*
G01*
X70684000Y-118550000D01*
G75*
G02*
X70834000Y-118400000I150000J0D01*
G01*
G37*
G36*
G01*
X70834000Y-113450000D02*
X71134000Y-113450000D01*
G75*
G02*
X71284000Y-113600000I0J-150000D01*
G01*
X71284000Y-115250000D01*
G75*
G02*
X71134000Y-115400000I-150000J0D01*
G01*
X70834000Y-115400000D01*
G75*
G02*
X70684000Y-115250000I0J150000D01*
G01*
X70684000Y-113600000D01*
G75*
G02*
X70834000Y-113450000I150000J0D01*
G01*
G37*
G36*
G01*
X69564000Y-113450000D02*
X69864000Y-113450000D01*
G75*
G02*
X70014000Y-113600000I0J-150000D01*
G01*
X70014000Y-115250000D01*
G75*
G02*
X69864000Y-115400000I-150000J0D01*
G01*
X69564000Y-115400000D01*
G75*
G02*
X69414000Y-115250000I0J150000D01*
G01*
X69414000Y-113600000D01*
G75*
G02*
X69564000Y-113450000I150000J0D01*
G01*
G37*
G36*
G01*
X68294000Y-113450000D02*
X68594000Y-113450000D01*
G75*
G02*
X68744000Y-113600000I0J-150000D01*
G01*
X68744000Y-115250000D01*
G75*
G02*
X68594000Y-115400000I-150000J0D01*
G01*
X68294000Y-115400000D01*
G75*
G02*
X68144000Y-115250000I0J150000D01*
G01*
X68144000Y-113600000D01*
G75*
G02*
X68294000Y-113450000I150000J0D01*
G01*
G37*
G36*
G01*
X67024000Y-113450000D02*
X67324000Y-113450000D01*
G75*
G02*
X67474000Y-113600000I0J-150000D01*
G01*
X67474000Y-115250000D01*
G75*
G02*
X67324000Y-115400000I-150000J0D01*
G01*
X67024000Y-115400000D01*
G75*
G02*
X66874000Y-115250000I0J150000D01*
G01*
X66874000Y-113600000D01*
G75*
G02*
X67024000Y-113450000I150000J0D01*
G01*
G37*
%TD*%
%TO.C,R24*%
G36*
G01*
X60718000Y-126825000D02*
X60168000Y-126825000D01*
G75*
G02*
X59968000Y-126625000I0J200000D01*
G01*
X59968000Y-126225000D01*
G75*
G02*
X60168000Y-126025000I200000J0D01*
G01*
X60718000Y-126025000D01*
G75*
G02*
X60918000Y-126225000I0J-200000D01*
G01*
X60918000Y-126625000D01*
G75*
G02*
X60718000Y-126825000I-200000J0D01*
G01*
G37*
G36*
G01*
X60718000Y-128475000D02*
X60168000Y-128475000D01*
G75*
G02*
X59968000Y-128275000I0J200000D01*
G01*
X59968000Y-127875000D01*
G75*
G02*
X60168000Y-127675000I200000J0D01*
G01*
X60718000Y-127675000D01*
G75*
G02*
X60918000Y-127875000I0J-200000D01*
G01*
X60918000Y-128275000D01*
G75*
G02*
X60718000Y-128475000I-200000J0D01*
G01*
G37*
%TD*%
%TO.C,R22*%
G36*
G01*
X65248000Y-120437000D02*
X65798000Y-120437000D01*
G75*
G02*
X65998000Y-120637000I0J-200000D01*
G01*
X65998000Y-121037000D01*
G75*
G02*
X65798000Y-121237000I-200000J0D01*
G01*
X65248000Y-121237000D01*
G75*
G02*
X65048000Y-121037000I0J200000D01*
G01*
X65048000Y-120637000D01*
G75*
G02*
X65248000Y-120437000I200000J0D01*
G01*
G37*
G36*
G01*
X65248000Y-118787000D02*
X65798000Y-118787000D01*
G75*
G02*
X65998000Y-118987000I0J-200000D01*
G01*
X65998000Y-119387000D01*
G75*
G02*
X65798000Y-119587000I-200000J0D01*
G01*
X65248000Y-119587000D01*
G75*
G02*
X65048000Y-119387000I0J200000D01*
G01*
X65048000Y-118987000D01*
G75*
G02*
X65248000Y-118787000I200000J0D01*
G01*
G37*
%TD*%
%TO.C,R20*%
G36*
G01*
X65798000Y-126825000D02*
X65248000Y-126825000D01*
G75*
G02*
X65048000Y-126625000I0J200000D01*
G01*
X65048000Y-126225000D01*
G75*
G02*
X65248000Y-126025000I200000J0D01*
G01*
X65798000Y-126025000D01*
G75*
G02*
X65998000Y-126225000I0J-200000D01*
G01*
X65998000Y-126625000D01*
G75*
G02*
X65798000Y-126825000I-200000J0D01*
G01*
G37*
G36*
G01*
X65798000Y-128475000D02*
X65248000Y-128475000D01*
G75*
G02*
X65048000Y-128275000I0J200000D01*
G01*
X65048000Y-127875000D01*
G75*
G02*
X65248000Y-127675000I200000J0D01*
G01*
X65798000Y-127675000D01*
G75*
G02*
X65998000Y-127875000I0J-200000D01*
G01*
X65998000Y-128275000D01*
G75*
G02*
X65798000Y-128475000I-200000J0D01*
G01*
G37*
%TD*%
%TO.C,R18*%
G36*
G01*
X60168000Y-120437000D02*
X60718000Y-120437000D01*
G75*
G02*
X60918000Y-120637000I0J-200000D01*
G01*
X60918000Y-121037000D01*
G75*
G02*
X60718000Y-121237000I-200000J0D01*
G01*
X60168000Y-121237000D01*
G75*
G02*
X59968000Y-121037000I0J200000D01*
G01*
X59968000Y-120637000D01*
G75*
G02*
X60168000Y-120437000I200000J0D01*
G01*
G37*
G36*
G01*
X60168000Y-118787000D02*
X60718000Y-118787000D01*
G75*
G02*
X60918000Y-118987000I0J-200000D01*
G01*
X60918000Y-119387000D01*
G75*
G02*
X60718000Y-119587000I-200000J0D01*
G01*
X60168000Y-119587000D01*
G75*
G02*
X59968000Y-119387000I0J200000D01*
G01*
X59968000Y-118987000D01*
G75*
G02*
X60168000Y-118787000I200000J0D01*
G01*
G37*
%TD*%
%TO.C,R16*%
G36*
G01*
X63344000Y-125176000D02*
X63344000Y-124626000D01*
G75*
G02*
X63544000Y-124426000I200000J0D01*
G01*
X63944000Y-124426000D01*
G75*
G02*
X64144000Y-124626000I0J-200000D01*
G01*
X64144000Y-125176000D01*
G75*
G02*
X63944000Y-125376000I-200000J0D01*
G01*
X63544000Y-125376000D01*
G75*
G02*
X63344000Y-125176000I0J200000D01*
G01*
G37*
G36*
G01*
X61694000Y-125176000D02*
X61694000Y-124626000D01*
G75*
G02*
X61894000Y-124426000I200000J0D01*
G01*
X62294000Y-124426000D01*
G75*
G02*
X62494000Y-124626000I0J-200000D01*
G01*
X62494000Y-125176000D01*
G75*
G02*
X62294000Y-125376000I-200000J0D01*
G01*
X61894000Y-125376000D01*
G75*
G02*
X61694000Y-125176000I0J200000D01*
G01*
G37*
%TD*%
%TO.C,R14*%
G36*
G01*
X62494000Y-122086000D02*
X62494000Y-122636000D01*
G75*
G02*
X62294000Y-122836000I-200000J0D01*
G01*
X61894000Y-122836000D01*
G75*
G02*
X61694000Y-122636000I0J200000D01*
G01*
X61694000Y-122086000D01*
G75*
G02*
X61894000Y-121886000I200000J0D01*
G01*
X62294000Y-121886000D01*
G75*
G02*
X62494000Y-122086000I0J-200000D01*
G01*
G37*
G36*
G01*
X64144000Y-122086000D02*
X64144000Y-122636000D01*
G75*
G02*
X63944000Y-122836000I-200000J0D01*
G01*
X63544000Y-122836000D01*
G75*
G02*
X63344000Y-122636000I0J200000D01*
G01*
X63344000Y-122086000D01*
G75*
G02*
X63544000Y-121886000I200000J0D01*
G01*
X63944000Y-121886000D01*
G75*
G02*
X64144000Y-122086000I0J-200000D01*
G01*
G37*
%TD*%
%TO.C,R12*%
G36*
G01*
X62495000Y-108624000D02*
X62495000Y-109174000D01*
G75*
G02*
X62295000Y-109374000I-200000J0D01*
G01*
X61895000Y-109374000D01*
G75*
G02*
X61695000Y-109174000I0J200000D01*
G01*
X61695000Y-108624000D01*
G75*
G02*
X61895000Y-108424000I200000J0D01*
G01*
X62295000Y-108424000D01*
G75*
G02*
X62495000Y-108624000I0J-200000D01*
G01*
G37*
G36*
G01*
X64145000Y-108624000D02*
X64145000Y-109174000D01*
G75*
G02*
X63945000Y-109374000I-200000J0D01*
G01*
X63545000Y-109374000D01*
G75*
G02*
X63345000Y-109174000I0J200000D01*
G01*
X63345000Y-108624000D01*
G75*
G02*
X63545000Y-108424000I200000J0D01*
G01*
X63945000Y-108424000D01*
G75*
G02*
X64145000Y-108624000I0J-200000D01*
G01*
G37*
%TD*%
%TO.C,R9*%
G36*
G01*
X63344000Y-111714000D02*
X63344000Y-111164000D01*
G75*
G02*
X63544000Y-110964000I200000J0D01*
G01*
X63944000Y-110964000D01*
G75*
G02*
X64144000Y-111164000I0J-200000D01*
G01*
X64144000Y-111714000D01*
G75*
G02*
X63944000Y-111914000I-200000J0D01*
G01*
X63544000Y-111914000D01*
G75*
G02*
X63344000Y-111714000I0J200000D01*
G01*
G37*
G36*
G01*
X61694000Y-111714000D02*
X61694000Y-111164000D01*
G75*
G02*
X61894000Y-110964000I200000J0D01*
G01*
X62294000Y-110964000D01*
G75*
G02*
X62494000Y-111164000I0J-200000D01*
G01*
X62494000Y-111714000D01*
G75*
G02*
X62294000Y-111914000I-200000J0D01*
G01*
X61894000Y-111914000D01*
G75*
G02*
X61694000Y-111714000I0J200000D01*
G01*
G37*
%TD*%
%TO.C,R8*%
G36*
G01*
X60591000Y-106124000D02*
X60041000Y-106124000D01*
G75*
G02*
X59841000Y-105924000I0J200000D01*
G01*
X59841000Y-105524000D01*
G75*
G02*
X60041000Y-105324000I200000J0D01*
G01*
X60591000Y-105324000D01*
G75*
G02*
X60791000Y-105524000I0J-200000D01*
G01*
X60791000Y-105924000D01*
G75*
G02*
X60591000Y-106124000I-200000J0D01*
G01*
G37*
G36*
G01*
X60591000Y-107774000D02*
X60041000Y-107774000D01*
G75*
G02*
X59841000Y-107574000I0J200000D01*
G01*
X59841000Y-107174000D01*
G75*
G02*
X60041000Y-106974000I200000J0D01*
G01*
X60591000Y-106974000D01*
G75*
G02*
X60791000Y-107174000I0J-200000D01*
G01*
X60791000Y-107574000D01*
G75*
G02*
X60591000Y-107774000I-200000J0D01*
G01*
G37*
%TD*%
%TO.C,R5*%
G36*
G01*
X65248000Y-114213000D02*
X65798000Y-114213000D01*
G75*
G02*
X65998000Y-114413000I0J-200000D01*
G01*
X65998000Y-114813000D01*
G75*
G02*
X65798000Y-115013000I-200000J0D01*
G01*
X65248000Y-115013000D01*
G75*
G02*
X65048000Y-114813000I0J200000D01*
G01*
X65048000Y-114413000D01*
G75*
G02*
X65248000Y-114213000I200000J0D01*
G01*
G37*
G36*
G01*
X65248000Y-112563000D02*
X65798000Y-112563000D01*
G75*
G02*
X65998000Y-112763000I0J-200000D01*
G01*
X65998000Y-113163000D01*
G75*
G02*
X65798000Y-113363000I-200000J0D01*
G01*
X65248000Y-113363000D01*
G75*
G02*
X65048000Y-113163000I0J200000D01*
G01*
X65048000Y-112763000D01*
G75*
G02*
X65248000Y-112563000I200000J0D01*
G01*
G37*
%TD*%
%TO.C,R4*%
G36*
G01*
X65248000Y-106975000D02*
X65798000Y-106975000D01*
G75*
G02*
X65998000Y-107175000I0J-200000D01*
G01*
X65998000Y-107575000D01*
G75*
G02*
X65798000Y-107775000I-200000J0D01*
G01*
X65248000Y-107775000D01*
G75*
G02*
X65048000Y-107575000I0J200000D01*
G01*
X65048000Y-107175000D01*
G75*
G02*
X65248000Y-106975000I200000J0D01*
G01*
G37*
G36*
G01*
X65248000Y-105325000D02*
X65798000Y-105325000D01*
G75*
G02*
X65998000Y-105525000I0J-200000D01*
G01*
X65998000Y-105925000D01*
G75*
G02*
X65798000Y-106125000I-200000J0D01*
G01*
X65248000Y-106125000D01*
G75*
G02*
X65048000Y-105925000I0J200000D01*
G01*
X65048000Y-105525000D01*
G75*
G02*
X65248000Y-105325000I200000J0D01*
G01*
G37*
%TD*%
%TO.C,R1*%
G36*
G01*
X60591000Y-113363000D02*
X60041000Y-113363000D01*
G75*
G02*
X59841000Y-113163000I0J200000D01*
G01*
X59841000Y-112763000D01*
G75*
G02*
X60041000Y-112563000I200000J0D01*
G01*
X60591000Y-112563000D01*
G75*
G02*
X60791000Y-112763000I0J-200000D01*
G01*
X60791000Y-113163000D01*
G75*
G02*
X60591000Y-113363000I-200000J0D01*
G01*
G37*
G36*
G01*
X60591000Y-115013000D02*
X60041000Y-115013000D01*
G75*
G02*
X59841000Y-114813000I0J200000D01*
G01*
X59841000Y-114413000D01*
G75*
G02*
X60041000Y-114213000I200000J0D01*
G01*
X60591000Y-114213000D01*
G75*
G02*
X60791000Y-114413000I0J-200000D01*
G01*
X60791000Y-114813000D01*
G75*
G02*
X60591000Y-115013000I-200000J0D01*
G01*
G37*
%TD*%
D10*
%TO.C,Q8*%
X62983000Y-128425000D03*
X63933000Y-126425000D03*
X62033000Y-126425000D03*
%TD*%
%TO.C,Q6*%
X62983000Y-118837000D03*
X62033000Y-120837000D03*
X63933000Y-120837000D03*
%TD*%
%TO.C,Q4*%
X62922000Y-105375000D03*
X61972000Y-107375000D03*
X63872000Y-107375000D03*
%TD*%
%TO.C,Q1*%
X62922000Y-114963000D03*
X63872000Y-112963000D03*
X61972000Y-112963000D03*
%TD*%
%TO.C,C6*%
G36*
G01*
X68754000Y-123381000D02*
X68754000Y-123881000D01*
G75*
G02*
X68529000Y-124106000I-225000J0D01*
G01*
X68079000Y-124106000D01*
G75*
G02*
X67854000Y-123881000I0J225000D01*
G01*
X67854000Y-123381000D01*
G75*
G02*
X68079000Y-123156000I225000J0D01*
G01*
X68529000Y-123156000D01*
G75*
G02*
X68754000Y-123381000I0J-225000D01*
G01*
G37*
G36*
G01*
X70304000Y-123381000D02*
X70304000Y-123881000D01*
G75*
G02*
X70079000Y-124106000I-225000J0D01*
G01*
X69629000Y-124106000D01*
G75*
G02*
X69404000Y-123881000I0J225000D01*
G01*
X69404000Y-123381000D01*
G75*
G02*
X69629000Y-123156000I225000J0D01*
G01*
X70079000Y-123156000D01*
G75*
G02*
X70304000Y-123381000I0J-225000D01*
G01*
G37*
%TD*%
%TO.C,C4*%
G36*
G01*
X68741000Y-121857000D02*
X68741000Y-122357000D01*
G75*
G02*
X68516000Y-122582000I-225000J0D01*
G01*
X68066000Y-122582000D01*
G75*
G02*
X67841000Y-122357000I0J225000D01*
G01*
X67841000Y-121857000D01*
G75*
G02*
X68066000Y-121632000I225000J0D01*
G01*
X68516000Y-121632000D01*
G75*
G02*
X68741000Y-121857000I0J-225000D01*
G01*
G37*
G36*
G01*
X70291000Y-121857000D02*
X70291000Y-122357000D01*
G75*
G02*
X70066000Y-122582000I-225000J0D01*
G01*
X69616000Y-122582000D01*
G75*
G02*
X69391000Y-122357000I0J225000D01*
G01*
X69391000Y-121857000D01*
G75*
G02*
X69616000Y-121632000I225000J0D01*
G01*
X70066000Y-121632000D01*
G75*
G02*
X70291000Y-121857000I0J-225000D01*
G01*
G37*
%TD*%
%TO.C,C2*%
G36*
G01*
X68741000Y-111443000D02*
X68741000Y-111943000D01*
G75*
G02*
X68516000Y-112168000I-225000J0D01*
G01*
X68066000Y-112168000D01*
G75*
G02*
X67841000Y-111943000I0J225000D01*
G01*
X67841000Y-111443000D01*
G75*
G02*
X68066000Y-111218000I225000J0D01*
G01*
X68516000Y-111218000D01*
G75*
G02*
X68741000Y-111443000I0J-225000D01*
G01*
G37*
G36*
G01*
X70291000Y-111443000D02*
X70291000Y-111943000D01*
G75*
G02*
X70066000Y-112168000I-225000J0D01*
G01*
X69616000Y-112168000D01*
G75*
G02*
X69391000Y-111943000I0J225000D01*
G01*
X69391000Y-111443000D01*
G75*
G02*
X69616000Y-111218000I225000J0D01*
G01*
X70066000Y-111218000D01*
G75*
G02*
X70291000Y-111443000I0J-225000D01*
G01*
G37*
%TD*%
%TO.C,C1*%
G36*
G01*
X68741000Y-109919000D02*
X68741000Y-110419000D01*
G75*
G02*
X68516000Y-110644000I-225000J0D01*
G01*
X68066000Y-110644000D01*
G75*
G02*
X67841000Y-110419000I0J225000D01*
G01*
X67841000Y-109919000D01*
G75*
G02*
X68066000Y-109694000I225000J0D01*
G01*
X68516000Y-109694000D01*
G75*
G02*
X68741000Y-109919000I0J-225000D01*
G01*
G37*
G36*
G01*
X70291000Y-109919000D02*
X70291000Y-110419000D01*
G75*
G02*
X70066000Y-110644000I-225000J0D01*
G01*
X69616000Y-110644000D01*
G75*
G02*
X69391000Y-110419000I0J225000D01*
G01*
X69391000Y-109919000D01*
G75*
G02*
X69616000Y-109694000I225000J0D01*
G01*
X70066000Y-109694000D01*
G75*
G02*
X70291000Y-109919000I0J-225000D01*
G01*
G37*
%TD*%
M02*
