%TF.GenerationSoftware,KiCad,Pcbnew,(5.1.10)-1*%
%TF.CreationDate,2022-01-20T20:18:56+07:00*%
%TF.ProjectId,PCB_4x_pnlz1_3,5043425f-3478-45f7-906e-6c7a315f332e,rev?*%
%TF.SameCoordinates,Original*%
%TF.FileFunction,Soldermask,Top*%
%TF.FilePolarity,Negative*%
%FSLAX46Y46*%
G04 Gerber Fmt 4.6, Leading zero omitted, Abs format (unit mm)*
G04 Created by KiCad (PCBNEW (5.1.10)-1) date 2022-01-20 20:18:56*
%MOMM*%
%LPD*%
G01*
G04 APERTURE LIST*
%ADD10R,0.800000X0.900000*%
%ADD11R,1.000000X1.000000*%
%ADD12O,1.000000X1.000000*%
%ADD13C,1.524000*%
%ADD14R,1.800000X0.650000*%
%ADD15C,1.000000*%
%ADD16C,1.600000*%
%ADD17R,1.600000X1.600000*%
%ADD18R,2.400000X1.700000*%
%ADD19O,2.400000X1.700000*%
%ADD20O,1.700000X1.700000*%
%ADD21R,1.900000X2.700000*%
%ADD22C,1.500000*%
%ADD23O,1.600000X1.600000*%
%ADD24R,0.400000X3.200000*%
%ADD25C,2.000000*%
%ADD26C,0.020000*%
%ADD27C,1.800000*%
%ADD28R,1.800000X1.800000*%
%ADD29R,0.450000X0.600000*%
%ADD30O,2.290000X5.460000*%
%ADD31O,3.810000X2.290000*%
%ADD32R,0.900000X0.800000*%
%ADD33R,1.700000X1.700000*%
%ADD34R,1.100000X0.400000*%
%ADD35O,1.750000X2.250000*%
%ADD36R,1.750000X2.250000*%
G04 APERTURE END LIST*
%TO.C,C3*%
G36*
G01*
X107791000Y-111443000D02*
X107791000Y-111943000D01*
G75*
G02*
X107566000Y-112168000I-225000J0D01*
G01*
X107116000Y-112168000D01*
G75*
G02*
X106891000Y-111943000I0J225000D01*
G01*
X106891000Y-111443000D01*
G75*
G02*
X107116000Y-111218000I225000J0D01*
G01*
X107566000Y-111218000D01*
G75*
G02*
X107791000Y-111443000I0J-225000D01*
G01*
G37*
G36*
G01*
X106241000Y-111443000D02*
X106241000Y-111943000D01*
G75*
G02*
X106016000Y-112168000I-225000J0D01*
G01*
X105566000Y-112168000D01*
G75*
G02*
X105341000Y-111943000I0J225000D01*
G01*
X105341000Y-111443000D01*
G75*
G02*
X105566000Y-111218000I225000J0D01*
G01*
X106016000Y-111218000D01*
G75*
G02*
X106241000Y-111443000I0J-225000D01*
G01*
G37*
%TD*%
%TO.C,C3*%
G36*
G01*
X95291000Y-111443000D02*
X95291000Y-111943000D01*
G75*
G02*
X95066000Y-112168000I-225000J0D01*
G01*
X94616000Y-112168000D01*
G75*
G02*
X94391000Y-111943000I0J225000D01*
G01*
X94391000Y-111443000D01*
G75*
G02*
X94616000Y-111218000I225000J0D01*
G01*
X95066000Y-111218000D01*
G75*
G02*
X95291000Y-111443000I0J-225000D01*
G01*
G37*
G36*
G01*
X93741000Y-111443000D02*
X93741000Y-111943000D01*
G75*
G02*
X93516000Y-112168000I-225000J0D01*
G01*
X93066000Y-112168000D01*
G75*
G02*
X92841000Y-111943000I0J225000D01*
G01*
X92841000Y-111443000D01*
G75*
G02*
X93066000Y-111218000I225000J0D01*
G01*
X93516000Y-111218000D01*
G75*
G02*
X93741000Y-111443000I0J-225000D01*
G01*
G37*
%TD*%
%TO.C,C3*%
G36*
G01*
X82791000Y-111443000D02*
X82791000Y-111943000D01*
G75*
G02*
X82566000Y-112168000I-225000J0D01*
G01*
X82116000Y-112168000D01*
G75*
G02*
X81891000Y-111943000I0J225000D01*
G01*
X81891000Y-111443000D01*
G75*
G02*
X82116000Y-111218000I225000J0D01*
G01*
X82566000Y-111218000D01*
G75*
G02*
X82791000Y-111443000I0J-225000D01*
G01*
G37*
G36*
G01*
X81241000Y-111443000D02*
X81241000Y-111943000D01*
G75*
G02*
X81016000Y-112168000I-225000J0D01*
G01*
X80566000Y-112168000D01*
G75*
G02*
X80341000Y-111943000I0J225000D01*
G01*
X80341000Y-111443000D01*
G75*
G02*
X80566000Y-111218000I225000J0D01*
G01*
X81016000Y-111218000D01*
G75*
G02*
X81241000Y-111443000I0J-225000D01*
G01*
G37*
%TD*%
%TO.C,C5*%
G36*
G01*
X107791000Y-121857000D02*
X107791000Y-122357000D01*
G75*
G02*
X107566000Y-122582000I-225000J0D01*
G01*
X107116000Y-122582000D01*
G75*
G02*
X106891000Y-122357000I0J225000D01*
G01*
X106891000Y-121857000D01*
G75*
G02*
X107116000Y-121632000I225000J0D01*
G01*
X107566000Y-121632000D01*
G75*
G02*
X107791000Y-121857000I0J-225000D01*
G01*
G37*
G36*
G01*
X106241000Y-121857000D02*
X106241000Y-122357000D01*
G75*
G02*
X106016000Y-122582000I-225000J0D01*
G01*
X105566000Y-122582000D01*
G75*
G02*
X105341000Y-122357000I0J225000D01*
G01*
X105341000Y-121857000D01*
G75*
G02*
X105566000Y-121632000I225000J0D01*
G01*
X106016000Y-121632000D01*
G75*
G02*
X106241000Y-121857000I0J-225000D01*
G01*
G37*
%TD*%
%TO.C,C5*%
G36*
G01*
X95291000Y-121857000D02*
X95291000Y-122357000D01*
G75*
G02*
X95066000Y-122582000I-225000J0D01*
G01*
X94616000Y-122582000D01*
G75*
G02*
X94391000Y-122357000I0J225000D01*
G01*
X94391000Y-121857000D01*
G75*
G02*
X94616000Y-121632000I225000J0D01*
G01*
X95066000Y-121632000D01*
G75*
G02*
X95291000Y-121857000I0J-225000D01*
G01*
G37*
G36*
G01*
X93741000Y-121857000D02*
X93741000Y-122357000D01*
G75*
G02*
X93516000Y-122582000I-225000J0D01*
G01*
X93066000Y-122582000D01*
G75*
G02*
X92841000Y-122357000I0J225000D01*
G01*
X92841000Y-121857000D01*
G75*
G02*
X93066000Y-121632000I225000J0D01*
G01*
X93516000Y-121632000D01*
G75*
G02*
X93741000Y-121857000I0J-225000D01*
G01*
G37*
%TD*%
%TO.C,C5*%
G36*
G01*
X82791000Y-121857000D02*
X82791000Y-122357000D01*
G75*
G02*
X82566000Y-122582000I-225000J0D01*
G01*
X82116000Y-122582000D01*
G75*
G02*
X81891000Y-122357000I0J225000D01*
G01*
X81891000Y-121857000D01*
G75*
G02*
X82116000Y-121632000I225000J0D01*
G01*
X82566000Y-121632000D01*
G75*
G02*
X82791000Y-121857000I0J-225000D01*
G01*
G37*
G36*
G01*
X81241000Y-121857000D02*
X81241000Y-122357000D01*
G75*
G02*
X81016000Y-122582000I-225000J0D01*
G01*
X80566000Y-122582000D01*
G75*
G02*
X80341000Y-122357000I0J225000D01*
G01*
X80341000Y-121857000D01*
G75*
G02*
X80566000Y-121632000I225000J0D01*
G01*
X81016000Y-121632000D01*
G75*
G02*
X81241000Y-121857000I0J-225000D01*
G01*
G37*
%TD*%
D10*
%TO.C,Q2*%
X101367000Y-112963000D03*
X99467000Y-112963000D03*
X100417000Y-114963000D03*
%TD*%
%TO.C,Q2*%
X88867000Y-112963000D03*
X86967000Y-112963000D03*
X87917000Y-114963000D03*
%TD*%
%TO.C,Q2*%
X76367000Y-112963000D03*
X74467000Y-112963000D03*
X75417000Y-114963000D03*
%TD*%
%TO.C,Q3*%
X99472000Y-107375000D03*
X101372000Y-107375000D03*
X100422000Y-105375000D03*
%TD*%
%TO.C,Q3*%
X86972000Y-107375000D03*
X88872000Y-107375000D03*
X87922000Y-105375000D03*
%TD*%
%TO.C,Q3*%
X74472000Y-107375000D03*
X76372000Y-107375000D03*
X75422000Y-105375000D03*
%TD*%
%TO.C,Q5*%
X99533000Y-120837000D03*
X101433000Y-120837000D03*
X100483000Y-118837000D03*
%TD*%
%TO.C,Q5*%
X87033000Y-120837000D03*
X88933000Y-120837000D03*
X87983000Y-118837000D03*
%TD*%
%TO.C,Q5*%
X74533000Y-120837000D03*
X76433000Y-120837000D03*
X75483000Y-118837000D03*
%TD*%
%TO.C,Q7*%
X100483000Y-128425000D03*
X99533000Y-126425000D03*
X101433000Y-126425000D03*
%TD*%
%TO.C,Q7*%
X87983000Y-128425000D03*
X87033000Y-126425000D03*
X88933000Y-126425000D03*
%TD*%
%TO.C,Q7*%
X75483000Y-128425000D03*
X74533000Y-126425000D03*
X76433000Y-126425000D03*
%TD*%
%TO.C,R2*%
G36*
G01*
X103298000Y-115013000D02*
X102748000Y-115013000D01*
G75*
G02*
X102548000Y-114813000I0J200000D01*
G01*
X102548000Y-114413000D01*
G75*
G02*
X102748000Y-114213000I200000J0D01*
G01*
X103298000Y-114213000D01*
G75*
G02*
X103498000Y-114413000I0J-200000D01*
G01*
X103498000Y-114813000D01*
G75*
G02*
X103298000Y-115013000I-200000J0D01*
G01*
G37*
G36*
G01*
X103298000Y-113363000D02*
X102748000Y-113363000D01*
G75*
G02*
X102548000Y-113163000I0J200000D01*
G01*
X102548000Y-112763000D01*
G75*
G02*
X102748000Y-112563000I200000J0D01*
G01*
X103298000Y-112563000D01*
G75*
G02*
X103498000Y-112763000I0J-200000D01*
G01*
X103498000Y-113163000D01*
G75*
G02*
X103298000Y-113363000I-200000J0D01*
G01*
G37*
%TD*%
%TO.C,R2*%
G36*
G01*
X90798000Y-115013000D02*
X90248000Y-115013000D01*
G75*
G02*
X90048000Y-114813000I0J200000D01*
G01*
X90048000Y-114413000D01*
G75*
G02*
X90248000Y-114213000I200000J0D01*
G01*
X90798000Y-114213000D01*
G75*
G02*
X90998000Y-114413000I0J-200000D01*
G01*
X90998000Y-114813000D01*
G75*
G02*
X90798000Y-115013000I-200000J0D01*
G01*
G37*
G36*
G01*
X90798000Y-113363000D02*
X90248000Y-113363000D01*
G75*
G02*
X90048000Y-113163000I0J200000D01*
G01*
X90048000Y-112763000D01*
G75*
G02*
X90248000Y-112563000I200000J0D01*
G01*
X90798000Y-112563000D01*
G75*
G02*
X90998000Y-112763000I0J-200000D01*
G01*
X90998000Y-113163000D01*
G75*
G02*
X90798000Y-113363000I-200000J0D01*
G01*
G37*
%TD*%
%TO.C,R2*%
G36*
G01*
X78298000Y-115013000D02*
X77748000Y-115013000D01*
G75*
G02*
X77548000Y-114813000I0J200000D01*
G01*
X77548000Y-114413000D01*
G75*
G02*
X77748000Y-114213000I200000J0D01*
G01*
X78298000Y-114213000D01*
G75*
G02*
X78498000Y-114413000I0J-200000D01*
G01*
X78498000Y-114813000D01*
G75*
G02*
X78298000Y-115013000I-200000J0D01*
G01*
G37*
G36*
G01*
X78298000Y-113363000D02*
X77748000Y-113363000D01*
G75*
G02*
X77548000Y-113163000I0J200000D01*
G01*
X77548000Y-112763000D01*
G75*
G02*
X77748000Y-112563000I200000J0D01*
G01*
X78298000Y-112563000D01*
G75*
G02*
X78498000Y-112763000I0J-200000D01*
G01*
X78498000Y-113163000D01*
G75*
G02*
X78298000Y-113363000I-200000J0D01*
G01*
G37*
%TD*%
%TO.C,R3*%
G36*
G01*
X97541000Y-105325000D02*
X98091000Y-105325000D01*
G75*
G02*
X98291000Y-105525000I0J-200000D01*
G01*
X98291000Y-105925000D01*
G75*
G02*
X98091000Y-106125000I-200000J0D01*
G01*
X97541000Y-106125000D01*
G75*
G02*
X97341000Y-105925000I0J200000D01*
G01*
X97341000Y-105525000D01*
G75*
G02*
X97541000Y-105325000I200000J0D01*
G01*
G37*
G36*
G01*
X97541000Y-106975000D02*
X98091000Y-106975000D01*
G75*
G02*
X98291000Y-107175000I0J-200000D01*
G01*
X98291000Y-107575000D01*
G75*
G02*
X98091000Y-107775000I-200000J0D01*
G01*
X97541000Y-107775000D01*
G75*
G02*
X97341000Y-107575000I0J200000D01*
G01*
X97341000Y-107175000D01*
G75*
G02*
X97541000Y-106975000I200000J0D01*
G01*
G37*
%TD*%
%TO.C,R3*%
G36*
G01*
X85041000Y-105325000D02*
X85591000Y-105325000D01*
G75*
G02*
X85791000Y-105525000I0J-200000D01*
G01*
X85791000Y-105925000D01*
G75*
G02*
X85591000Y-106125000I-200000J0D01*
G01*
X85041000Y-106125000D01*
G75*
G02*
X84841000Y-105925000I0J200000D01*
G01*
X84841000Y-105525000D01*
G75*
G02*
X85041000Y-105325000I200000J0D01*
G01*
G37*
G36*
G01*
X85041000Y-106975000D02*
X85591000Y-106975000D01*
G75*
G02*
X85791000Y-107175000I0J-200000D01*
G01*
X85791000Y-107575000D01*
G75*
G02*
X85591000Y-107775000I-200000J0D01*
G01*
X85041000Y-107775000D01*
G75*
G02*
X84841000Y-107575000I0J200000D01*
G01*
X84841000Y-107175000D01*
G75*
G02*
X85041000Y-106975000I200000J0D01*
G01*
G37*
%TD*%
%TO.C,R3*%
G36*
G01*
X72541000Y-105325000D02*
X73091000Y-105325000D01*
G75*
G02*
X73291000Y-105525000I0J-200000D01*
G01*
X73291000Y-105925000D01*
G75*
G02*
X73091000Y-106125000I-200000J0D01*
G01*
X72541000Y-106125000D01*
G75*
G02*
X72341000Y-105925000I0J200000D01*
G01*
X72341000Y-105525000D01*
G75*
G02*
X72541000Y-105325000I200000J0D01*
G01*
G37*
G36*
G01*
X72541000Y-106975000D02*
X73091000Y-106975000D01*
G75*
G02*
X73291000Y-107175000I0J-200000D01*
G01*
X73291000Y-107575000D01*
G75*
G02*
X73091000Y-107775000I-200000J0D01*
G01*
X72541000Y-107775000D01*
G75*
G02*
X72341000Y-107575000I0J200000D01*
G01*
X72341000Y-107175000D01*
G75*
G02*
X72541000Y-106975000I200000J0D01*
G01*
G37*
%TD*%
%TO.C,R6*%
G36*
G01*
X97541000Y-112563000D02*
X98091000Y-112563000D01*
G75*
G02*
X98291000Y-112763000I0J-200000D01*
G01*
X98291000Y-113163000D01*
G75*
G02*
X98091000Y-113363000I-200000J0D01*
G01*
X97541000Y-113363000D01*
G75*
G02*
X97341000Y-113163000I0J200000D01*
G01*
X97341000Y-112763000D01*
G75*
G02*
X97541000Y-112563000I200000J0D01*
G01*
G37*
G36*
G01*
X97541000Y-114213000D02*
X98091000Y-114213000D01*
G75*
G02*
X98291000Y-114413000I0J-200000D01*
G01*
X98291000Y-114813000D01*
G75*
G02*
X98091000Y-115013000I-200000J0D01*
G01*
X97541000Y-115013000D01*
G75*
G02*
X97341000Y-114813000I0J200000D01*
G01*
X97341000Y-114413000D01*
G75*
G02*
X97541000Y-114213000I200000J0D01*
G01*
G37*
%TD*%
%TO.C,R6*%
G36*
G01*
X85041000Y-112563000D02*
X85591000Y-112563000D01*
G75*
G02*
X85791000Y-112763000I0J-200000D01*
G01*
X85791000Y-113163000D01*
G75*
G02*
X85591000Y-113363000I-200000J0D01*
G01*
X85041000Y-113363000D01*
G75*
G02*
X84841000Y-113163000I0J200000D01*
G01*
X84841000Y-112763000D01*
G75*
G02*
X85041000Y-112563000I200000J0D01*
G01*
G37*
G36*
G01*
X85041000Y-114213000D02*
X85591000Y-114213000D01*
G75*
G02*
X85791000Y-114413000I0J-200000D01*
G01*
X85791000Y-114813000D01*
G75*
G02*
X85591000Y-115013000I-200000J0D01*
G01*
X85041000Y-115013000D01*
G75*
G02*
X84841000Y-114813000I0J200000D01*
G01*
X84841000Y-114413000D01*
G75*
G02*
X85041000Y-114213000I200000J0D01*
G01*
G37*
%TD*%
%TO.C,R6*%
G36*
G01*
X72541000Y-112563000D02*
X73091000Y-112563000D01*
G75*
G02*
X73291000Y-112763000I0J-200000D01*
G01*
X73291000Y-113163000D01*
G75*
G02*
X73091000Y-113363000I-200000J0D01*
G01*
X72541000Y-113363000D01*
G75*
G02*
X72341000Y-113163000I0J200000D01*
G01*
X72341000Y-112763000D01*
G75*
G02*
X72541000Y-112563000I200000J0D01*
G01*
G37*
G36*
G01*
X72541000Y-114213000D02*
X73091000Y-114213000D01*
G75*
G02*
X73291000Y-114413000I0J-200000D01*
G01*
X73291000Y-114813000D01*
G75*
G02*
X73091000Y-115013000I-200000J0D01*
G01*
X72541000Y-115013000D01*
G75*
G02*
X72341000Y-114813000I0J200000D01*
G01*
X72341000Y-114413000D01*
G75*
G02*
X72541000Y-114213000I200000J0D01*
G01*
G37*
%TD*%
%TO.C,R7*%
G36*
G01*
X103298000Y-107774000D02*
X102748000Y-107774000D01*
G75*
G02*
X102548000Y-107574000I0J200000D01*
G01*
X102548000Y-107174000D01*
G75*
G02*
X102748000Y-106974000I200000J0D01*
G01*
X103298000Y-106974000D01*
G75*
G02*
X103498000Y-107174000I0J-200000D01*
G01*
X103498000Y-107574000D01*
G75*
G02*
X103298000Y-107774000I-200000J0D01*
G01*
G37*
G36*
G01*
X103298000Y-106124000D02*
X102748000Y-106124000D01*
G75*
G02*
X102548000Y-105924000I0J200000D01*
G01*
X102548000Y-105524000D01*
G75*
G02*
X102748000Y-105324000I200000J0D01*
G01*
X103298000Y-105324000D01*
G75*
G02*
X103498000Y-105524000I0J-200000D01*
G01*
X103498000Y-105924000D01*
G75*
G02*
X103298000Y-106124000I-200000J0D01*
G01*
G37*
%TD*%
%TO.C,R7*%
G36*
G01*
X90798000Y-107774000D02*
X90248000Y-107774000D01*
G75*
G02*
X90048000Y-107574000I0J200000D01*
G01*
X90048000Y-107174000D01*
G75*
G02*
X90248000Y-106974000I200000J0D01*
G01*
X90798000Y-106974000D01*
G75*
G02*
X90998000Y-107174000I0J-200000D01*
G01*
X90998000Y-107574000D01*
G75*
G02*
X90798000Y-107774000I-200000J0D01*
G01*
G37*
G36*
G01*
X90798000Y-106124000D02*
X90248000Y-106124000D01*
G75*
G02*
X90048000Y-105924000I0J200000D01*
G01*
X90048000Y-105524000D01*
G75*
G02*
X90248000Y-105324000I200000J0D01*
G01*
X90798000Y-105324000D01*
G75*
G02*
X90998000Y-105524000I0J-200000D01*
G01*
X90998000Y-105924000D01*
G75*
G02*
X90798000Y-106124000I-200000J0D01*
G01*
G37*
%TD*%
%TO.C,R7*%
G36*
G01*
X78298000Y-107774000D02*
X77748000Y-107774000D01*
G75*
G02*
X77548000Y-107574000I0J200000D01*
G01*
X77548000Y-107174000D01*
G75*
G02*
X77748000Y-106974000I200000J0D01*
G01*
X78298000Y-106974000D01*
G75*
G02*
X78498000Y-107174000I0J-200000D01*
G01*
X78498000Y-107574000D01*
G75*
G02*
X78298000Y-107774000I-200000J0D01*
G01*
G37*
G36*
G01*
X78298000Y-106124000D02*
X77748000Y-106124000D01*
G75*
G02*
X77548000Y-105924000I0J200000D01*
G01*
X77548000Y-105524000D01*
G75*
G02*
X77748000Y-105324000I200000J0D01*
G01*
X78298000Y-105324000D01*
G75*
G02*
X78498000Y-105524000I0J-200000D01*
G01*
X78498000Y-105924000D01*
G75*
G02*
X78298000Y-106124000I-200000J0D01*
G01*
G37*
%TD*%
%TO.C,R10*%
G36*
G01*
X101645000Y-111164000D02*
X101645000Y-111714000D01*
G75*
G02*
X101445000Y-111914000I-200000J0D01*
G01*
X101045000Y-111914000D01*
G75*
G02*
X100845000Y-111714000I0J200000D01*
G01*
X100845000Y-111164000D01*
G75*
G02*
X101045000Y-110964000I200000J0D01*
G01*
X101445000Y-110964000D01*
G75*
G02*
X101645000Y-111164000I0J-200000D01*
G01*
G37*
G36*
G01*
X99995000Y-111164000D02*
X99995000Y-111714000D01*
G75*
G02*
X99795000Y-111914000I-200000J0D01*
G01*
X99395000Y-111914000D01*
G75*
G02*
X99195000Y-111714000I0J200000D01*
G01*
X99195000Y-111164000D01*
G75*
G02*
X99395000Y-110964000I200000J0D01*
G01*
X99795000Y-110964000D01*
G75*
G02*
X99995000Y-111164000I0J-200000D01*
G01*
G37*
%TD*%
%TO.C,R10*%
G36*
G01*
X89145000Y-111164000D02*
X89145000Y-111714000D01*
G75*
G02*
X88945000Y-111914000I-200000J0D01*
G01*
X88545000Y-111914000D01*
G75*
G02*
X88345000Y-111714000I0J200000D01*
G01*
X88345000Y-111164000D01*
G75*
G02*
X88545000Y-110964000I200000J0D01*
G01*
X88945000Y-110964000D01*
G75*
G02*
X89145000Y-111164000I0J-200000D01*
G01*
G37*
G36*
G01*
X87495000Y-111164000D02*
X87495000Y-111714000D01*
G75*
G02*
X87295000Y-111914000I-200000J0D01*
G01*
X86895000Y-111914000D01*
G75*
G02*
X86695000Y-111714000I0J200000D01*
G01*
X86695000Y-111164000D01*
G75*
G02*
X86895000Y-110964000I200000J0D01*
G01*
X87295000Y-110964000D01*
G75*
G02*
X87495000Y-111164000I0J-200000D01*
G01*
G37*
%TD*%
%TO.C,R10*%
G36*
G01*
X76645000Y-111164000D02*
X76645000Y-111714000D01*
G75*
G02*
X76445000Y-111914000I-200000J0D01*
G01*
X76045000Y-111914000D01*
G75*
G02*
X75845000Y-111714000I0J200000D01*
G01*
X75845000Y-111164000D01*
G75*
G02*
X76045000Y-110964000I200000J0D01*
G01*
X76445000Y-110964000D01*
G75*
G02*
X76645000Y-111164000I0J-200000D01*
G01*
G37*
G36*
G01*
X74995000Y-111164000D02*
X74995000Y-111714000D01*
G75*
G02*
X74795000Y-111914000I-200000J0D01*
G01*
X74395000Y-111914000D01*
G75*
G02*
X74195000Y-111714000I0J200000D01*
G01*
X74195000Y-111164000D01*
G75*
G02*
X74395000Y-110964000I200000J0D01*
G01*
X74795000Y-110964000D01*
G75*
G02*
X74995000Y-111164000I0J-200000D01*
G01*
G37*
%TD*%
%TO.C,R11*%
G36*
G01*
X99195000Y-109174000D02*
X99195000Y-108624000D01*
G75*
G02*
X99395000Y-108424000I200000J0D01*
G01*
X99795000Y-108424000D01*
G75*
G02*
X99995000Y-108624000I0J-200000D01*
G01*
X99995000Y-109174000D01*
G75*
G02*
X99795000Y-109374000I-200000J0D01*
G01*
X99395000Y-109374000D01*
G75*
G02*
X99195000Y-109174000I0J200000D01*
G01*
G37*
G36*
G01*
X100845000Y-109174000D02*
X100845000Y-108624000D01*
G75*
G02*
X101045000Y-108424000I200000J0D01*
G01*
X101445000Y-108424000D01*
G75*
G02*
X101645000Y-108624000I0J-200000D01*
G01*
X101645000Y-109174000D01*
G75*
G02*
X101445000Y-109374000I-200000J0D01*
G01*
X101045000Y-109374000D01*
G75*
G02*
X100845000Y-109174000I0J200000D01*
G01*
G37*
%TD*%
%TO.C,R11*%
G36*
G01*
X86695000Y-109174000D02*
X86695000Y-108624000D01*
G75*
G02*
X86895000Y-108424000I200000J0D01*
G01*
X87295000Y-108424000D01*
G75*
G02*
X87495000Y-108624000I0J-200000D01*
G01*
X87495000Y-109174000D01*
G75*
G02*
X87295000Y-109374000I-200000J0D01*
G01*
X86895000Y-109374000D01*
G75*
G02*
X86695000Y-109174000I0J200000D01*
G01*
G37*
G36*
G01*
X88345000Y-109174000D02*
X88345000Y-108624000D01*
G75*
G02*
X88545000Y-108424000I200000J0D01*
G01*
X88945000Y-108424000D01*
G75*
G02*
X89145000Y-108624000I0J-200000D01*
G01*
X89145000Y-109174000D01*
G75*
G02*
X88945000Y-109374000I-200000J0D01*
G01*
X88545000Y-109374000D01*
G75*
G02*
X88345000Y-109174000I0J200000D01*
G01*
G37*
%TD*%
%TO.C,R11*%
G36*
G01*
X74195000Y-109174000D02*
X74195000Y-108624000D01*
G75*
G02*
X74395000Y-108424000I200000J0D01*
G01*
X74795000Y-108424000D01*
G75*
G02*
X74995000Y-108624000I0J-200000D01*
G01*
X74995000Y-109174000D01*
G75*
G02*
X74795000Y-109374000I-200000J0D01*
G01*
X74395000Y-109374000D01*
G75*
G02*
X74195000Y-109174000I0J200000D01*
G01*
G37*
G36*
G01*
X75845000Y-109174000D02*
X75845000Y-108624000D01*
G75*
G02*
X76045000Y-108424000I200000J0D01*
G01*
X76445000Y-108424000D01*
G75*
G02*
X76645000Y-108624000I0J-200000D01*
G01*
X76645000Y-109174000D01*
G75*
G02*
X76445000Y-109374000I-200000J0D01*
G01*
X76045000Y-109374000D01*
G75*
G02*
X75845000Y-109174000I0J200000D01*
G01*
G37*
%TD*%
%TO.C,R13*%
G36*
G01*
X99194000Y-122636000D02*
X99194000Y-122086000D01*
G75*
G02*
X99394000Y-121886000I200000J0D01*
G01*
X99794000Y-121886000D01*
G75*
G02*
X99994000Y-122086000I0J-200000D01*
G01*
X99994000Y-122636000D01*
G75*
G02*
X99794000Y-122836000I-200000J0D01*
G01*
X99394000Y-122836000D01*
G75*
G02*
X99194000Y-122636000I0J200000D01*
G01*
G37*
G36*
G01*
X100844000Y-122636000D02*
X100844000Y-122086000D01*
G75*
G02*
X101044000Y-121886000I200000J0D01*
G01*
X101444000Y-121886000D01*
G75*
G02*
X101644000Y-122086000I0J-200000D01*
G01*
X101644000Y-122636000D01*
G75*
G02*
X101444000Y-122836000I-200000J0D01*
G01*
X101044000Y-122836000D01*
G75*
G02*
X100844000Y-122636000I0J200000D01*
G01*
G37*
%TD*%
%TO.C,R13*%
G36*
G01*
X86694000Y-122636000D02*
X86694000Y-122086000D01*
G75*
G02*
X86894000Y-121886000I200000J0D01*
G01*
X87294000Y-121886000D01*
G75*
G02*
X87494000Y-122086000I0J-200000D01*
G01*
X87494000Y-122636000D01*
G75*
G02*
X87294000Y-122836000I-200000J0D01*
G01*
X86894000Y-122836000D01*
G75*
G02*
X86694000Y-122636000I0J200000D01*
G01*
G37*
G36*
G01*
X88344000Y-122636000D02*
X88344000Y-122086000D01*
G75*
G02*
X88544000Y-121886000I200000J0D01*
G01*
X88944000Y-121886000D01*
G75*
G02*
X89144000Y-122086000I0J-200000D01*
G01*
X89144000Y-122636000D01*
G75*
G02*
X88944000Y-122836000I-200000J0D01*
G01*
X88544000Y-122836000D01*
G75*
G02*
X88344000Y-122636000I0J200000D01*
G01*
G37*
%TD*%
%TO.C,R13*%
G36*
G01*
X74194000Y-122636000D02*
X74194000Y-122086000D01*
G75*
G02*
X74394000Y-121886000I200000J0D01*
G01*
X74794000Y-121886000D01*
G75*
G02*
X74994000Y-122086000I0J-200000D01*
G01*
X74994000Y-122636000D01*
G75*
G02*
X74794000Y-122836000I-200000J0D01*
G01*
X74394000Y-122836000D01*
G75*
G02*
X74194000Y-122636000I0J200000D01*
G01*
G37*
G36*
G01*
X75844000Y-122636000D02*
X75844000Y-122086000D01*
G75*
G02*
X76044000Y-121886000I200000J0D01*
G01*
X76444000Y-121886000D01*
G75*
G02*
X76644000Y-122086000I0J-200000D01*
G01*
X76644000Y-122636000D01*
G75*
G02*
X76444000Y-122836000I-200000J0D01*
G01*
X76044000Y-122836000D01*
G75*
G02*
X75844000Y-122636000I0J200000D01*
G01*
G37*
%TD*%
%TO.C,R15*%
G36*
G01*
X99995000Y-124626000D02*
X99995000Y-125176000D01*
G75*
G02*
X99795000Y-125376000I-200000J0D01*
G01*
X99395000Y-125376000D01*
G75*
G02*
X99195000Y-125176000I0J200000D01*
G01*
X99195000Y-124626000D01*
G75*
G02*
X99395000Y-124426000I200000J0D01*
G01*
X99795000Y-124426000D01*
G75*
G02*
X99995000Y-124626000I0J-200000D01*
G01*
G37*
G36*
G01*
X101645000Y-124626000D02*
X101645000Y-125176000D01*
G75*
G02*
X101445000Y-125376000I-200000J0D01*
G01*
X101045000Y-125376000D01*
G75*
G02*
X100845000Y-125176000I0J200000D01*
G01*
X100845000Y-124626000D01*
G75*
G02*
X101045000Y-124426000I200000J0D01*
G01*
X101445000Y-124426000D01*
G75*
G02*
X101645000Y-124626000I0J-200000D01*
G01*
G37*
%TD*%
%TO.C,R15*%
G36*
G01*
X87495000Y-124626000D02*
X87495000Y-125176000D01*
G75*
G02*
X87295000Y-125376000I-200000J0D01*
G01*
X86895000Y-125376000D01*
G75*
G02*
X86695000Y-125176000I0J200000D01*
G01*
X86695000Y-124626000D01*
G75*
G02*
X86895000Y-124426000I200000J0D01*
G01*
X87295000Y-124426000D01*
G75*
G02*
X87495000Y-124626000I0J-200000D01*
G01*
G37*
G36*
G01*
X89145000Y-124626000D02*
X89145000Y-125176000D01*
G75*
G02*
X88945000Y-125376000I-200000J0D01*
G01*
X88545000Y-125376000D01*
G75*
G02*
X88345000Y-125176000I0J200000D01*
G01*
X88345000Y-124626000D01*
G75*
G02*
X88545000Y-124426000I200000J0D01*
G01*
X88945000Y-124426000D01*
G75*
G02*
X89145000Y-124626000I0J-200000D01*
G01*
G37*
%TD*%
%TO.C,R15*%
G36*
G01*
X74995000Y-124626000D02*
X74995000Y-125176000D01*
G75*
G02*
X74795000Y-125376000I-200000J0D01*
G01*
X74395000Y-125376000D01*
G75*
G02*
X74195000Y-125176000I0J200000D01*
G01*
X74195000Y-124626000D01*
G75*
G02*
X74395000Y-124426000I200000J0D01*
G01*
X74795000Y-124426000D01*
G75*
G02*
X74995000Y-124626000I0J-200000D01*
G01*
G37*
G36*
G01*
X76645000Y-124626000D02*
X76645000Y-125176000D01*
G75*
G02*
X76445000Y-125376000I-200000J0D01*
G01*
X76045000Y-125376000D01*
G75*
G02*
X75845000Y-125176000I0J200000D01*
G01*
X75845000Y-124626000D01*
G75*
G02*
X76045000Y-124426000I200000J0D01*
G01*
X76445000Y-124426000D01*
G75*
G02*
X76645000Y-124626000I0J-200000D01*
G01*
G37*
%TD*%
%TO.C,R17*%
G36*
G01*
X102748000Y-118787000D02*
X103298000Y-118787000D01*
G75*
G02*
X103498000Y-118987000I0J-200000D01*
G01*
X103498000Y-119387000D01*
G75*
G02*
X103298000Y-119587000I-200000J0D01*
G01*
X102748000Y-119587000D01*
G75*
G02*
X102548000Y-119387000I0J200000D01*
G01*
X102548000Y-118987000D01*
G75*
G02*
X102748000Y-118787000I200000J0D01*
G01*
G37*
G36*
G01*
X102748000Y-120437000D02*
X103298000Y-120437000D01*
G75*
G02*
X103498000Y-120637000I0J-200000D01*
G01*
X103498000Y-121037000D01*
G75*
G02*
X103298000Y-121237000I-200000J0D01*
G01*
X102748000Y-121237000D01*
G75*
G02*
X102548000Y-121037000I0J200000D01*
G01*
X102548000Y-120637000D01*
G75*
G02*
X102748000Y-120437000I200000J0D01*
G01*
G37*
%TD*%
%TO.C,R17*%
G36*
G01*
X90248000Y-118787000D02*
X90798000Y-118787000D01*
G75*
G02*
X90998000Y-118987000I0J-200000D01*
G01*
X90998000Y-119387000D01*
G75*
G02*
X90798000Y-119587000I-200000J0D01*
G01*
X90248000Y-119587000D01*
G75*
G02*
X90048000Y-119387000I0J200000D01*
G01*
X90048000Y-118987000D01*
G75*
G02*
X90248000Y-118787000I200000J0D01*
G01*
G37*
G36*
G01*
X90248000Y-120437000D02*
X90798000Y-120437000D01*
G75*
G02*
X90998000Y-120637000I0J-200000D01*
G01*
X90998000Y-121037000D01*
G75*
G02*
X90798000Y-121237000I-200000J0D01*
G01*
X90248000Y-121237000D01*
G75*
G02*
X90048000Y-121037000I0J200000D01*
G01*
X90048000Y-120637000D01*
G75*
G02*
X90248000Y-120437000I200000J0D01*
G01*
G37*
%TD*%
%TO.C,R17*%
G36*
G01*
X77748000Y-118787000D02*
X78298000Y-118787000D01*
G75*
G02*
X78498000Y-118987000I0J-200000D01*
G01*
X78498000Y-119387000D01*
G75*
G02*
X78298000Y-119587000I-200000J0D01*
G01*
X77748000Y-119587000D01*
G75*
G02*
X77548000Y-119387000I0J200000D01*
G01*
X77548000Y-118987000D01*
G75*
G02*
X77748000Y-118787000I200000J0D01*
G01*
G37*
G36*
G01*
X77748000Y-120437000D02*
X78298000Y-120437000D01*
G75*
G02*
X78498000Y-120637000I0J-200000D01*
G01*
X78498000Y-121037000D01*
G75*
G02*
X78298000Y-121237000I-200000J0D01*
G01*
X77748000Y-121237000D01*
G75*
G02*
X77548000Y-121037000I0J200000D01*
G01*
X77548000Y-120637000D01*
G75*
G02*
X77748000Y-120437000I200000J0D01*
G01*
G37*
%TD*%
%TO.C,R19*%
G36*
G01*
X98218000Y-126826000D02*
X97668000Y-126826000D01*
G75*
G02*
X97468000Y-126626000I0J200000D01*
G01*
X97468000Y-126226000D01*
G75*
G02*
X97668000Y-126026000I200000J0D01*
G01*
X98218000Y-126026000D01*
G75*
G02*
X98418000Y-126226000I0J-200000D01*
G01*
X98418000Y-126626000D01*
G75*
G02*
X98218000Y-126826000I-200000J0D01*
G01*
G37*
G36*
G01*
X98218000Y-128476000D02*
X97668000Y-128476000D01*
G75*
G02*
X97468000Y-128276000I0J200000D01*
G01*
X97468000Y-127876000D01*
G75*
G02*
X97668000Y-127676000I200000J0D01*
G01*
X98218000Y-127676000D01*
G75*
G02*
X98418000Y-127876000I0J-200000D01*
G01*
X98418000Y-128276000D01*
G75*
G02*
X98218000Y-128476000I-200000J0D01*
G01*
G37*
%TD*%
%TO.C,R19*%
G36*
G01*
X85718000Y-126826000D02*
X85168000Y-126826000D01*
G75*
G02*
X84968000Y-126626000I0J200000D01*
G01*
X84968000Y-126226000D01*
G75*
G02*
X85168000Y-126026000I200000J0D01*
G01*
X85718000Y-126026000D01*
G75*
G02*
X85918000Y-126226000I0J-200000D01*
G01*
X85918000Y-126626000D01*
G75*
G02*
X85718000Y-126826000I-200000J0D01*
G01*
G37*
G36*
G01*
X85718000Y-128476000D02*
X85168000Y-128476000D01*
G75*
G02*
X84968000Y-128276000I0J200000D01*
G01*
X84968000Y-127876000D01*
G75*
G02*
X85168000Y-127676000I200000J0D01*
G01*
X85718000Y-127676000D01*
G75*
G02*
X85918000Y-127876000I0J-200000D01*
G01*
X85918000Y-128276000D01*
G75*
G02*
X85718000Y-128476000I-200000J0D01*
G01*
G37*
%TD*%
%TO.C,R19*%
G36*
G01*
X73218000Y-126826000D02*
X72668000Y-126826000D01*
G75*
G02*
X72468000Y-126626000I0J200000D01*
G01*
X72468000Y-126226000D01*
G75*
G02*
X72668000Y-126026000I200000J0D01*
G01*
X73218000Y-126026000D01*
G75*
G02*
X73418000Y-126226000I0J-200000D01*
G01*
X73418000Y-126626000D01*
G75*
G02*
X73218000Y-126826000I-200000J0D01*
G01*
G37*
G36*
G01*
X73218000Y-128476000D02*
X72668000Y-128476000D01*
G75*
G02*
X72468000Y-128276000I0J200000D01*
G01*
X72468000Y-127876000D01*
G75*
G02*
X72668000Y-127676000I200000J0D01*
G01*
X73218000Y-127676000D01*
G75*
G02*
X73418000Y-127876000I0J-200000D01*
G01*
X73418000Y-128276000D01*
G75*
G02*
X73218000Y-128476000I-200000J0D01*
G01*
G37*
%TD*%
%TO.C,R21*%
G36*
G01*
X97668000Y-118787000D02*
X98218000Y-118787000D01*
G75*
G02*
X98418000Y-118987000I0J-200000D01*
G01*
X98418000Y-119387000D01*
G75*
G02*
X98218000Y-119587000I-200000J0D01*
G01*
X97668000Y-119587000D01*
G75*
G02*
X97468000Y-119387000I0J200000D01*
G01*
X97468000Y-118987000D01*
G75*
G02*
X97668000Y-118787000I200000J0D01*
G01*
G37*
G36*
G01*
X97668000Y-120437000D02*
X98218000Y-120437000D01*
G75*
G02*
X98418000Y-120637000I0J-200000D01*
G01*
X98418000Y-121037000D01*
G75*
G02*
X98218000Y-121237000I-200000J0D01*
G01*
X97668000Y-121237000D01*
G75*
G02*
X97468000Y-121037000I0J200000D01*
G01*
X97468000Y-120637000D01*
G75*
G02*
X97668000Y-120437000I200000J0D01*
G01*
G37*
%TD*%
%TO.C,R21*%
G36*
G01*
X85168000Y-118787000D02*
X85718000Y-118787000D01*
G75*
G02*
X85918000Y-118987000I0J-200000D01*
G01*
X85918000Y-119387000D01*
G75*
G02*
X85718000Y-119587000I-200000J0D01*
G01*
X85168000Y-119587000D01*
G75*
G02*
X84968000Y-119387000I0J200000D01*
G01*
X84968000Y-118987000D01*
G75*
G02*
X85168000Y-118787000I200000J0D01*
G01*
G37*
G36*
G01*
X85168000Y-120437000D02*
X85718000Y-120437000D01*
G75*
G02*
X85918000Y-120637000I0J-200000D01*
G01*
X85918000Y-121037000D01*
G75*
G02*
X85718000Y-121237000I-200000J0D01*
G01*
X85168000Y-121237000D01*
G75*
G02*
X84968000Y-121037000I0J200000D01*
G01*
X84968000Y-120637000D01*
G75*
G02*
X85168000Y-120437000I200000J0D01*
G01*
G37*
%TD*%
%TO.C,R21*%
G36*
G01*
X72668000Y-118787000D02*
X73218000Y-118787000D01*
G75*
G02*
X73418000Y-118987000I0J-200000D01*
G01*
X73418000Y-119387000D01*
G75*
G02*
X73218000Y-119587000I-200000J0D01*
G01*
X72668000Y-119587000D01*
G75*
G02*
X72468000Y-119387000I0J200000D01*
G01*
X72468000Y-118987000D01*
G75*
G02*
X72668000Y-118787000I200000J0D01*
G01*
G37*
G36*
G01*
X72668000Y-120437000D02*
X73218000Y-120437000D01*
G75*
G02*
X73418000Y-120637000I0J-200000D01*
G01*
X73418000Y-121037000D01*
G75*
G02*
X73218000Y-121237000I-200000J0D01*
G01*
X72668000Y-121237000D01*
G75*
G02*
X72468000Y-121037000I0J200000D01*
G01*
X72468000Y-120637000D01*
G75*
G02*
X72668000Y-120437000I200000J0D01*
G01*
G37*
%TD*%
%TO.C,R23*%
G36*
G01*
X103298000Y-126825000D02*
X102748000Y-126825000D01*
G75*
G02*
X102548000Y-126625000I0J200000D01*
G01*
X102548000Y-126225000D01*
G75*
G02*
X102748000Y-126025000I200000J0D01*
G01*
X103298000Y-126025000D01*
G75*
G02*
X103498000Y-126225000I0J-200000D01*
G01*
X103498000Y-126625000D01*
G75*
G02*
X103298000Y-126825000I-200000J0D01*
G01*
G37*
G36*
G01*
X103298000Y-128475000D02*
X102748000Y-128475000D01*
G75*
G02*
X102548000Y-128275000I0J200000D01*
G01*
X102548000Y-127875000D01*
G75*
G02*
X102748000Y-127675000I200000J0D01*
G01*
X103298000Y-127675000D01*
G75*
G02*
X103498000Y-127875000I0J-200000D01*
G01*
X103498000Y-128275000D01*
G75*
G02*
X103298000Y-128475000I-200000J0D01*
G01*
G37*
%TD*%
%TO.C,R23*%
G36*
G01*
X90798000Y-126825000D02*
X90248000Y-126825000D01*
G75*
G02*
X90048000Y-126625000I0J200000D01*
G01*
X90048000Y-126225000D01*
G75*
G02*
X90248000Y-126025000I200000J0D01*
G01*
X90798000Y-126025000D01*
G75*
G02*
X90998000Y-126225000I0J-200000D01*
G01*
X90998000Y-126625000D01*
G75*
G02*
X90798000Y-126825000I-200000J0D01*
G01*
G37*
G36*
G01*
X90798000Y-128475000D02*
X90248000Y-128475000D01*
G75*
G02*
X90048000Y-128275000I0J200000D01*
G01*
X90048000Y-127875000D01*
G75*
G02*
X90248000Y-127675000I200000J0D01*
G01*
X90798000Y-127675000D01*
G75*
G02*
X90998000Y-127875000I0J-200000D01*
G01*
X90998000Y-128275000D01*
G75*
G02*
X90798000Y-128475000I-200000J0D01*
G01*
G37*
%TD*%
%TO.C,R23*%
G36*
G01*
X78298000Y-126825000D02*
X77748000Y-126825000D01*
G75*
G02*
X77548000Y-126625000I0J200000D01*
G01*
X77548000Y-126225000D01*
G75*
G02*
X77748000Y-126025000I200000J0D01*
G01*
X78298000Y-126025000D01*
G75*
G02*
X78498000Y-126225000I0J-200000D01*
G01*
X78498000Y-126625000D01*
G75*
G02*
X78298000Y-126825000I-200000J0D01*
G01*
G37*
G36*
G01*
X78298000Y-128475000D02*
X77748000Y-128475000D01*
G75*
G02*
X77548000Y-128275000I0J200000D01*
G01*
X77548000Y-127875000D01*
G75*
G02*
X77748000Y-127675000I200000J0D01*
G01*
X78298000Y-127675000D01*
G75*
G02*
X78498000Y-127875000I0J-200000D01*
G01*
X78498000Y-128275000D01*
G75*
G02*
X78298000Y-128475000I-200000J0D01*
G01*
G37*
%TD*%
%TO.C,U2*%
G36*
G01*
X108334000Y-113450000D02*
X108634000Y-113450000D01*
G75*
G02*
X108784000Y-113600000I0J-150000D01*
G01*
X108784000Y-115250000D01*
G75*
G02*
X108634000Y-115400000I-150000J0D01*
G01*
X108334000Y-115400000D01*
G75*
G02*
X108184000Y-115250000I0J150000D01*
G01*
X108184000Y-113600000D01*
G75*
G02*
X108334000Y-113450000I150000J0D01*
G01*
G37*
G36*
G01*
X107064000Y-113450000D02*
X107364000Y-113450000D01*
G75*
G02*
X107514000Y-113600000I0J-150000D01*
G01*
X107514000Y-115250000D01*
G75*
G02*
X107364000Y-115400000I-150000J0D01*
G01*
X107064000Y-115400000D01*
G75*
G02*
X106914000Y-115250000I0J150000D01*
G01*
X106914000Y-113600000D01*
G75*
G02*
X107064000Y-113450000I150000J0D01*
G01*
G37*
G36*
G01*
X105794000Y-113450000D02*
X106094000Y-113450000D01*
G75*
G02*
X106244000Y-113600000I0J-150000D01*
G01*
X106244000Y-115250000D01*
G75*
G02*
X106094000Y-115400000I-150000J0D01*
G01*
X105794000Y-115400000D01*
G75*
G02*
X105644000Y-115250000I0J150000D01*
G01*
X105644000Y-113600000D01*
G75*
G02*
X105794000Y-113450000I150000J0D01*
G01*
G37*
G36*
G01*
X104524000Y-113450000D02*
X104824000Y-113450000D01*
G75*
G02*
X104974000Y-113600000I0J-150000D01*
G01*
X104974000Y-115250000D01*
G75*
G02*
X104824000Y-115400000I-150000J0D01*
G01*
X104524000Y-115400000D01*
G75*
G02*
X104374000Y-115250000I0J150000D01*
G01*
X104374000Y-113600000D01*
G75*
G02*
X104524000Y-113450000I150000J0D01*
G01*
G37*
G36*
G01*
X104524000Y-118400000D02*
X104824000Y-118400000D01*
G75*
G02*
X104974000Y-118550000I0J-150000D01*
G01*
X104974000Y-120200000D01*
G75*
G02*
X104824000Y-120350000I-150000J0D01*
G01*
X104524000Y-120350000D01*
G75*
G02*
X104374000Y-120200000I0J150000D01*
G01*
X104374000Y-118550000D01*
G75*
G02*
X104524000Y-118400000I150000J0D01*
G01*
G37*
G36*
G01*
X105794000Y-118400000D02*
X106094000Y-118400000D01*
G75*
G02*
X106244000Y-118550000I0J-150000D01*
G01*
X106244000Y-120200000D01*
G75*
G02*
X106094000Y-120350000I-150000J0D01*
G01*
X105794000Y-120350000D01*
G75*
G02*
X105644000Y-120200000I0J150000D01*
G01*
X105644000Y-118550000D01*
G75*
G02*
X105794000Y-118400000I150000J0D01*
G01*
G37*
G36*
G01*
X107064000Y-118400000D02*
X107364000Y-118400000D01*
G75*
G02*
X107514000Y-118550000I0J-150000D01*
G01*
X107514000Y-120200000D01*
G75*
G02*
X107364000Y-120350000I-150000J0D01*
G01*
X107064000Y-120350000D01*
G75*
G02*
X106914000Y-120200000I0J150000D01*
G01*
X106914000Y-118550000D01*
G75*
G02*
X107064000Y-118400000I150000J0D01*
G01*
G37*
G36*
G01*
X108334000Y-118400000D02*
X108634000Y-118400000D01*
G75*
G02*
X108784000Y-118550000I0J-150000D01*
G01*
X108784000Y-120200000D01*
G75*
G02*
X108634000Y-120350000I-150000J0D01*
G01*
X108334000Y-120350000D01*
G75*
G02*
X108184000Y-120200000I0J150000D01*
G01*
X108184000Y-118550000D01*
G75*
G02*
X108334000Y-118400000I150000J0D01*
G01*
G37*
%TD*%
%TO.C,U2*%
G36*
G01*
X95834000Y-113450000D02*
X96134000Y-113450000D01*
G75*
G02*
X96284000Y-113600000I0J-150000D01*
G01*
X96284000Y-115250000D01*
G75*
G02*
X96134000Y-115400000I-150000J0D01*
G01*
X95834000Y-115400000D01*
G75*
G02*
X95684000Y-115250000I0J150000D01*
G01*
X95684000Y-113600000D01*
G75*
G02*
X95834000Y-113450000I150000J0D01*
G01*
G37*
G36*
G01*
X94564000Y-113450000D02*
X94864000Y-113450000D01*
G75*
G02*
X95014000Y-113600000I0J-150000D01*
G01*
X95014000Y-115250000D01*
G75*
G02*
X94864000Y-115400000I-150000J0D01*
G01*
X94564000Y-115400000D01*
G75*
G02*
X94414000Y-115250000I0J150000D01*
G01*
X94414000Y-113600000D01*
G75*
G02*
X94564000Y-113450000I150000J0D01*
G01*
G37*
G36*
G01*
X93294000Y-113450000D02*
X93594000Y-113450000D01*
G75*
G02*
X93744000Y-113600000I0J-150000D01*
G01*
X93744000Y-115250000D01*
G75*
G02*
X93594000Y-115400000I-150000J0D01*
G01*
X93294000Y-115400000D01*
G75*
G02*
X93144000Y-115250000I0J150000D01*
G01*
X93144000Y-113600000D01*
G75*
G02*
X93294000Y-113450000I150000J0D01*
G01*
G37*
G36*
G01*
X92024000Y-113450000D02*
X92324000Y-113450000D01*
G75*
G02*
X92474000Y-113600000I0J-150000D01*
G01*
X92474000Y-115250000D01*
G75*
G02*
X92324000Y-115400000I-150000J0D01*
G01*
X92024000Y-115400000D01*
G75*
G02*
X91874000Y-115250000I0J150000D01*
G01*
X91874000Y-113600000D01*
G75*
G02*
X92024000Y-113450000I150000J0D01*
G01*
G37*
G36*
G01*
X92024000Y-118400000D02*
X92324000Y-118400000D01*
G75*
G02*
X92474000Y-118550000I0J-150000D01*
G01*
X92474000Y-120200000D01*
G75*
G02*
X92324000Y-120350000I-150000J0D01*
G01*
X92024000Y-120350000D01*
G75*
G02*
X91874000Y-120200000I0J150000D01*
G01*
X91874000Y-118550000D01*
G75*
G02*
X92024000Y-118400000I150000J0D01*
G01*
G37*
G36*
G01*
X93294000Y-118400000D02*
X93594000Y-118400000D01*
G75*
G02*
X93744000Y-118550000I0J-150000D01*
G01*
X93744000Y-120200000D01*
G75*
G02*
X93594000Y-120350000I-150000J0D01*
G01*
X93294000Y-120350000D01*
G75*
G02*
X93144000Y-120200000I0J150000D01*
G01*
X93144000Y-118550000D01*
G75*
G02*
X93294000Y-118400000I150000J0D01*
G01*
G37*
G36*
G01*
X94564000Y-118400000D02*
X94864000Y-118400000D01*
G75*
G02*
X95014000Y-118550000I0J-150000D01*
G01*
X95014000Y-120200000D01*
G75*
G02*
X94864000Y-120350000I-150000J0D01*
G01*
X94564000Y-120350000D01*
G75*
G02*
X94414000Y-120200000I0J150000D01*
G01*
X94414000Y-118550000D01*
G75*
G02*
X94564000Y-118400000I150000J0D01*
G01*
G37*
G36*
G01*
X95834000Y-118400000D02*
X96134000Y-118400000D01*
G75*
G02*
X96284000Y-118550000I0J-150000D01*
G01*
X96284000Y-120200000D01*
G75*
G02*
X96134000Y-120350000I-150000J0D01*
G01*
X95834000Y-120350000D01*
G75*
G02*
X95684000Y-120200000I0J150000D01*
G01*
X95684000Y-118550000D01*
G75*
G02*
X95834000Y-118400000I150000J0D01*
G01*
G37*
%TD*%
%TO.C,U2*%
G36*
G01*
X83334000Y-113450000D02*
X83634000Y-113450000D01*
G75*
G02*
X83784000Y-113600000I0J-150000D01*
G01*
X83784000Y-115250000D01*
G75*
G02*
X83634000Y-115400000I-150000J0D01*
G01*
X83334000Y-115400000D01*
G75*
G02*
X83184000Y-115250000I0J150000D01*
G01*
X83184000Y-113600000D01*
G75*
G02*
X83334000Y-113450000I150000J0D01*
G01*
G37*
G36*
G01*
X82064000Y-113450000D02*
X82364000Y-113450000D01*
G75*
G02*
X82514000Y-113600000I0J-150000D01*
G01*
X82514000Y-115250000D01*
G75*
G02*
X82364000Y-115400000I-150000J0D01*
G01*
X82064000Y-115400000D01*
G75*
G02*
X81914000Y-115250000I0J150000D01*
G01*
X81914000Y-113600000D01*
G75*
G02*
X82064000Y-113450000I150000J0D01*
G01*
G37*
G36*
G01*
X80794000Y-113450000D02*
X81094000Y-113450000D01*
G75*
G02*
X81244000Y-113600000I0J-150000D01*
G01*
X81244000Y-115250000D01*
G75*
G02*
X81094000Y-115400000I-150000J0D01*
G01*
X80794000Y-115400000D01*
G75*
G02*
X80644000Y-115250000I0J150000D01*
G01*
X80644000Y-113600000D01*
G75*
G02*
X80794000Y-113450000I150000J0D01*
G01*
G37*
G36*
G01*
X79524000Y-113450000D02*
X79824000Y-113450000D01*
G75*
G02*
X79974000Y-113600000I0J-150000D01*
G01*
X79974000Y-115250000D01*
G75*
G02*
X79824000Y-115400000I-150000J0D01*
G01*
X79524000Y-115400000D01*
G75*
G02*
X79374000Y-115250000I0J150000D01*
G01*
X79374000Y-113600000D01*
G75*
G02*
X79524000Y-113450000I150000J0D01*
G01*
G37*
G36*
G01*
X79524000Y-118400000D02*
X79824000Y-118400000D01*
G75*
G02*
X79974000Y-118550000I0J-150000D01*
G01*
X79974000Y-120200000D01*
G75*
G02*
X79824000Y-120350000I-150000J0D01*
G01*
X79524000Y-120350000D01*
G75*
G02*
X79374000Y-120200000I0J150000D01*
G01*
X79374000Y-118550000D01*
G75*
G02*
X79524000Y-118400000I150000J0D01*
G01*
G37*
G36*
G01*
X80794000Y-118400000D02*
X81094000Y-118400000D01*
G75*
G02*
X81244000Y-118550000I0J-150000D01*
G01*
X81244000Y-120200000D01*
G75*
G02*
X81094000Y-120350000I-150000J0D01*
G01*
X80794000Y-120350000D01*
G75*
G02*
X80644000Y-120200000I0J150000D01*
G01*
X80644000Y-118550000D01*
G75*
G02*
X80794000Y-118400000I150000J0D01*
G01*
G37*
G36*
G01*
X82064000Y-118400000D02*
X82364000Y-118400000D01*
G75*
G02*
X82514000Y-118550000I0J-150000D01*
G01*
X82514000Y-120200000D01*
G75*
G02*
X82364000Y-120350000I-150000J0D01*
G01*
X82064000Y-120350000D01*
G75*
G02*
X81914000Y-120200000I0J150000D01*
G01*
X81914000Y-118550000D01*
G75*
G02*
X82064000Y-118400000I150000J0D01*
G01*
G37*
G36*
G01*
X83334000Y-118400000D02*
X83634000Y-118400000D01*
G75*
G02*
X83784000Y-118550000I0J-150000D01*
G01*
X83784000Y-120200000D01*
G75*
G02*
X83634000Y-120350000I-150000J0D01*
G01*
X83334000Y-120350000D01*
G75*
G02*
X83184000Y-120200000I0J150000D01*
G01*
X83184000Y-118550000D01*
G75*
G02*
X83334000Y-118400000I150000J0D01*
G01*
G37*
%TD*%
D11*
%TO.C,J2*%
X105944000Y-125536000D03*
D12*
X107214000Y-125536000D03*
X105944000Y-126806000D03*
X107214000Y-126806000D03*
X105944000Y-128076000D03*
X107214000Y-128076000D03*
%TD*%
D11*
%TO.C,J2*%
X93444000Y-125536000D03*
D12*
X94714000Y-125536000D03*
X93444000Y-126806000D03*
X94714000Y-126806000D03*
X93444000Y-128076000D03*
X94714000Y-128076000D03*
%TD*%
D11*
%TO.C,J2*%
X80944000Y-125536000D03*
D12*
X82214000Y-125536000D03*
X80944000Y-126806000D03*
X82214000Y-126806000D03*
X80944000Y-128076000D03*
X82214000Y-128076000D03*
%TD*%
D13*
%TO.C,REF\u002A\u002A*%
X105436000Y-116900000D03*
%TD*%
%TO.C,REF\u002A\u002A*%
X92936000Y-116900000D03*
%TD*%
%TO.C,REF\u002A\u002A*%
X80436000Y-116900000D03*
%TD*%
%TO.C,REF\u002A\u002A*%
X107722000Y-116900000D03*
%TD*%
%TO.C,REF\u002A\u002A*%
X95222000Y-116900000D03*
%TD*%
%TO.C,REF\u002A\u002A*%
X82722000Y-116900000D03*
%TD*%
D11*
%TO.C,J1*%
X105944000Y-105724000D03*
D12*
X107214000Y-105724000D03*
X105944000Y-106994000D03*
X107214000Y-106994000D03*
X105944000Y-108264000D03*
X107214000Y-108264000D03*
%TD*%
D11*
%TO.C,J1*%
X93444000Y-105724000D03*
D12*
X94714000Y-105724000D03*
X93444000Y-106994000D03*
X94714000Y-106994000D03*
X93444000Y-108264000D03*
X94714000Y-108264000D03*
%TD*%
D11*
%TO.C,J1*%
X80944000Y-105724000D03*
D12*
X82214000Y-105724000D03*
X80944000Y-106994000D03*
X82214000Y-106994000D03*
X80944000Y-108264000D03*
X82214000Y-108264000D03*
%TD*%
D14*
%TO.C,J5*%
X83738000Y-67478000D03*
X83738000Y-70018000D03*
X83738000Y-72558000D03*
X86438000Y-68748000D03*
X86438000Y-71288000D03*
%TD*%
D15*
%TO.C,U7*%
X88691000Y-63287000D03*
X88691000Y-62017000D03*
X87421000Y-63287000D03*
X87421000Y-62017000D03*
X86151000Y-63287000D03*
D11*
X86151000Y-62017000D03*
D15*
X68879000Y-63287000D03*
X68879000Y-62017000D03*
X67609000Y-63287000D03*
X67609000Y-62017000D03*
X66339000Y-63287000D03*
D11*
X66339000Y-62017000D03*
%TD*%
D16*
%TO.C,U4*%
X71927000Y-72558000D03*
X71927000Y-70018000D03*
X71936500Y-67478000D03*
X71927000Y-62398000D03*
X71927000Y-59858000D03*
X71927000Y-57318000D03*
D17*
X71927000Y-54778000D03*
%TD*%
D18*
%TO.C,U1*%
X65958000Y-75733000D03*
D19*
X65958000Y-70653000D03*
X65958000Y-57953000D03*
X65958000Y-55413000D03*
%TD*%
D20*
%TO.C,J4*%
X103042000Y-76622000D03*
X105582000Y-76622000D03*
D21*
X108122000Y-76114000D03*
%TD*%
D20*
%TO.C,J3*%
X93136000Y-76622000D03*
X95676000Y-76622000D03*
D21*
X98216000Y-76114000D03*
%TD*%
D20*
%TO.C,J1*%
X60878000Y-76622000D03*
X63418000Y-76622000D03*
D21*
X65958000Y-76114000D03*
%TD*%
D12*
%TO.C,JP4*%
X88310000Y-56302000D03*
X88310000Y-55032000D03*
X87040000Y-56302000D03*
D11*
X87040000Y-55032000D03*
%TD*%
D12*
%TO.C,J6*%
X73959000Y-58080000D03*
X73959000Y-59350000D03*
X75229000Y-58080000D03*
X75229000Y-59350000D03*
X76499000Y-58080000D03*
D11*
X76499000Y-59350000D03*
%TD*%
%TO.C,C17*%
G36*
G01*
X76329000Y-62775000D02*
X76329000Y-62275000D01*
G75*
G02*
X76554000Y-62050000I225000J0D01*
G01*
X77004000Y-62050000D01*
G75*
G02*
X77229000Y-62275000I0J-225000D01*
G01*
X77229000Y-62775000D01*
G75*
G02*
X77004000Y-63000000I-225000J0D01*
G01*
X76554000Y-63000000D01*
G75*
G02*
X76329000Y-62775000I0J225000D01*
G01*
G37*
G36*
G01*
X74779000Y-62775000D02*
X74779000Y-62275000D01*
G75*
G02*
X75004000Y-62050000I225000J0D01*
G01*
X75454000Y-62050000D01*
G75*
G02*
X75679000Y-62275000I0J-225000D01*
G01*
X75679000Y-62775000D01*
G75*
G02*
X75454000Y-63000000I-225000J0D01*
G01*
X75004000Y-63000000D01*
G75*
G02*
X74779000Y-62775000I0J225000D01*
G01*
G37*
%TD*%
D22*
%TO.C,KP1*%
X73705000Y-64557000D03*
%TD*%
D23*
%TO.C,F1*%
X97200000Y-63922000D03*
D16*
X97200000Y-71542000D03*
%TD*%
%TO.C,R25*%
G36*
G01*
X88839000Y-58862000D02*
X88289000Y-58862000D01*
G75*
G02*
X88089000Y-58662000I0J200000D01*
G01*
X88089000Y-58262000D01*
G75*
G02*
X88289000Y-58062000I200000J0D01*
G01*
X88839000Y-58062000D01*
G75*
G02*
X89039000Y-58262000I0J-200000D01*
G01*
X89039000Y-58662000D01*
G75*
G02*
X88839000Y-58862000I-200000J0D01*
G01*
G37*
G36*
G01*
X88839000Y-60512000D02*
X88289000Y-60512000D01*
G75*
G02*
X88089000Y-60312000I0J200000D01*
G01*
X88089000Y-59912000D01*
G75*
G02*
X88289000Y-59712000I200000J0D01*
G01*
X88839000Y-59712000D01*
G75*
G02*
X89039000Y-59912000I0J-200000D01*
G01*
X89039000Y-60312000D01*
G75*
G02*
X88839000Y-60512000I-200000J0D01*
G01*
G37*
%TD*%
%TO.C,R23*%
G36*
G01*
X86638000Y-59711000D02*
X87188000Y-59711000D01*
G75*
G02*
X87388000Y-59911000I0J-200000D01*
G01*
X87388000Y-60311000D01*
G75*
G02*
X87188000Y-60511000I-200000J0D01*
G01*
X86638000Y-60511000D01*
G75*
G02*
X86438000Y-60311000I0J200000D01*
G01*
X86438000Y-59911000D01*
G75*
G02*
X86638000Y-59711000I200000J0D01*
G01*
G37*
G36*
G01*
X86638000Y-58061000D02*
X87188000Y-58061000D01*
G75*
G02*
X87388000Y-58261000I0J-200000D01*
G01*
X87388000Y-58661000D01*
G75*
G02*
X87188000Y-58861000I-200000J0D01*
G01*
X86638000Y-58861000D01*
G75*
G02*
X86438000Y-58661000I0J200000D01*
G01*
X86438000Y-58261000D01*
G75*
G02*
X86638000Y-58061000I200000J0D01*
G01*
G37*
%TD*%
%TO.C,C15*%
G36*
G01*
X81142000Y-72427000D02*
X81142000Y-71927000D01*
G75*
G02*
X81367000Y-71702000I225000J0D01*
G01*
X81817000Y-71702000D01*
G75*
G02*
X82042000Y-71927000I0J-225000D01*
G01*
X82042000Y-72427000D01*
G75*
G02*
X81817000Y-72652000I-225000J0D01*
G01*
X81367000Y-72652000D01*
G75*
G02*
X81142000Y-72427000I0J225000D01*
G01*
G37*
G36*
G01*
X79592000Y-72427000D02*
X79592000Y-71927000D01*
G75*
G02*
X79817000Y-71702000I225000J0D01*
G01*
X80267000Y-71702000D01*
G75*
G02*
X80492000Y-71927000I0J-225000D01*
G01*
X80492000Y-72427000D01*
G75*
G02*
X80267000Y-72652000I-225000J0D01*
G01*
X79817000Y-72652000D01*
G75*
G02*
X79592000Y-72427000I0J225000D01*
G01*
G37*
%TD*%
%TO.C,C7*%
G36*
G01*
X91162000Y-59727000D02*
X91162000Y-59227000D01*
G75*
G02*
X91387000Y-59002000I225000J0D01*
G01*
X91837000Y-59002000D01*
G75*
G02*
X92062000Y-59227000I0J-225000D01*
G01*
X92062000Y-59727000D01*
G75*
G02*
X91837000Y-59952000I-225000J0D01*
G01*
X91387000Y-59952000D01*
G75*
G02*
X91162000Y-59727000I0J225000D01*
G01*
G37*
G36*
G01*
X89612000Y-59727000D02*
X89612000Y-59227000D01*
G75*
G02*
X89837000Y-59002000I225000J0D01*
G01*
X90287000Y-59002000D01*
G75*
G02*
X90512000Y-59227000I0J-225000D01*
G01*
X90512000Y-59727000D01*
G75*
G02*
X90287000Y-59952000I-225000J0D01*
G01*
X89837000Y-59952000D01*
G75*
G02*
X89612000Y-59727000I0J225000D01*
G01*
G37*
%TD*%
D24*
%TO.C,Y1*%
X78474000Y-58715000D03*
X79674000Y-58715000D03*
X80874000Y-58715000D03*
%TD*%
%TO.C,U5*%
G36*
G01*
X81487000Y-69534500D02*
X81687000Y-69534500D01*
G75*
G02*
X81787000Y-69634500I0J-100000D01*
G01*
X81787000Y-70909500D01*
G75*
G02*
X81687000Y-71009500I-100000J0D01*
G01*
X81487000Y-71009500D01*
G75*
G02*
X81387000Y-70909500I0J100000D01*
G01*
X81387000Y-69634500D01*
G75*
G02*
X81487000Y-69534500I100000J0D01*
G01*
G37*
G36*
G01*
X80837000Y-69534500D02*
X81037000Y-69534500D01*
G75*
G02*
X81137000Y-69634500I0J-100000D01*
G01*
X81137000Y-70909500D01*
G75*
G02*
X81037000Y-71009500I-100000J0D01*
G01*
X80837000Y-71009500D01*
G75*
G02*
X80737000Y-70909500I0J100000D01*
G01*
X80737000Y-69634500D01*
G75*
G02*
X80837000Y-69534500I100000J0D01*
G01*
G37*
G36*
G01*
X80187000Y-69534500D02*
X80387000Y-69534500D01*
G75*
G02*
X80487000Y-69634500I0J-100000D01*
G01*
X80487000Y-70909500D01*
G75*
G02*
X80387000Y-71009500I-100000J0D01*
G01*
X80187000Y-71009500D01*
G75*
G02*
X80087000Y-70909500I0J100000D01*
G01*
X80087000Y-69634500D01*
G75*
G02*
X80187000Y-69534500I100000J0D01*
G01*
G37*
G36*
G01*
X79537000Y-69534500D02*
X79737000Y-69534500D01*
G75*
G02*
X79837000Y-69634500I0J-100000D01*
G01*
X79837000Y-70909500D01*
G75*
G02*
X79737000Y-71009500I-100000J0D01*
G01*
X79537000Y-71009500D01*
G75*
G02*
X79437000Y-70909500I0J100000D01*
G01*
X79437000Y-69634500D01*
G75*
G02*
X79537000Y-69534500I100000J0D01*
G01*
G37*
G36*
G01*
X78887000Y-69534500D02*
X79087000Y-69534500D01*
G75*
G02*
X79187000Y-69634500I0J-100000D01*
G01*
X79187000Y-70909500D01*
G75*
G02*
X79087000Y-71009500I-100000J0D01*
G01*
X78887000Y-71009500D01*
G75*
G02*
X78787000Y-70909500I0J100000D01*
G01*
X78787000Y-69634500D01*
G75*
G02*
X78887000Y-69534500I100000J0D01*
G01*
G37*
G36*
G01*
X78237000Y-69534500D02*
X78437000Y-69534500D01*
G75*
G02*
X78537000Y-69634500I0J-100000D01*
G01*
X78537000Y-70909500D01*
G75*
G02*
X78437000Y-71009500I-100000J0D01*
G01*
X78237000Y-71009500D01*
G75*
G02*
X78137000Y-70909500I0J100000D01*
G01*
X78137000Y-69634500D01*
G75*
G02*
X78237000Y-69534500I100000J0D01*
G01*
G37*
G36*
G01*
X77587000Y-69534500D02*
X77787000Y-69534500D01*
G75*
G02*
X77887000Y-69634500I0J-100000D01*
G01*
X77887000Y-70909500D01*
G75*
G02*
X77787000Y-71009500I-100000J0D01*
G01*
X77587000Y-71009500D01*
G75*
G02*
X77487000Y-70909500I0J100000D01*
G01*
X77487000Y-69634500D01*
G75*
G02*
X77587000Y-69534500I100000J0D01*
G01*
G37*
G36*
G01*
X76937000Y-69534500D02*
X77137000Y-69534500D01*
G75*
G02*
X77237000Y-69634500I0J-100000D01*
G01*
X77237000Y-70909500D01*
G75*
G02*
X77137000Y-71009500I-100000J0D01*
G01*
X76937000Y-71009500D01*
G75*
G02*
X76837000Y-70909500I0J100000D01*
G01*
X76837000Y-69634500D01*
G75*
G02*
X76937000Y-69534500I100000J0D01*
G01*
G37*
G36*
G01*
X76287000Y-69534500D02*
X76487000Y-69534500D01*
G75*
G02*
X76587000Y-69634500I0J-100000D01*
G01*
X76587000Y-70909500D01*
G75*
G02*
X76487000Y-71009500I-100000J0D01*
G01*
X76287000Y-71009500D01*
G75*
G02*
X76187000Y-70909500I0J100000D01*
G01*
X76187000Y-69634500D01*
G75*
G02*
X76287000Y-69534500I100000J0D01*
G01*
G37*
G36*
G01*
X75637000Y-69534500D02*
X75837000Y-69534500D01*
G75*
G02*
X75937000Y-69634500I0J-100000D01*
G01*
X75937000Y-70909500D01*
G75*
G02*
X75837000Y-71009500I-100000J0D01*
G01*
X75637000Y-71009500D01*
G75*
G02*
X75537000Y-70909500I0J100000D01*
G01*
X75537000Y-69634500D01*
G75*
G02*
X75637000Y-69534500I100000J0D01*
G01*
G37*
G36*
G01*
X75637000Y-63809500D02*
X75837000Y-63809500D01*
G75*
G02*
X75937000Y-63909500I0J-100000D01*
G01*
X75937000Y-65184500D01*
G75*
G02*
X75837000Y-65284500I-100000J0D01*
G01*
X75637000Y-65284500D01*
G75*
G02*
X75537000Y-65184500I0J100000D01*
G01*
X75537000Y-63909500D01*
G75*
G02*
X75637000Y-63809500I100000J0D01*
G01*
G37*
G36*
G01*
X76287000Y-63809500D02*
X76487000Y-63809500D01*
G75*
G02*
X76587000Y-63909500I0J-100000D01*
G01*
X76587000Y-65184500D01*
G75*
G02*
X76487000Y-65284500I-100000J0D01*
G01*
X76287000Y-65284500D01*
G75*
G02*
X76187000Y-65184500I0J100000D01*
G01*
X76187000Y-63909500D01*
G75*
G02*
X76287000Y-63809500I100000J0D01*
G01*
G37*
G36*
G01*
X76937000Y-63809500D02*
X77137000Y-63809500D01*
G75*
G02*
X77237000Y-63909500I0J-100000D01*
G01*
X77237000Y-65184500D01*
G75*
G02*
X77137000Y-65284500I-100000J0D01*
G01*
X76937000Y-65284500D01*
G75*
G02*
X76837000Y-65184500I0J100000D01*
G01*
X76837000Y-63909500D01*
G75*
G02*
X76937000Y-63809500I100000J0D01*
G01*
G37*
G36*
G01*
X77587000Y-63809500D02*
X77787000Y-63809500D01*
G75*
G02*
X77887000Y-63909500I0J-100000D01*
G01*
X77887000Y-65184500D01*
G75*
G02*
X77787000Y-65284500I-100000J0D01*
G01*
X77587000Y-65284500D01*
G75*
G02*
X77487000Y-65184500I0J100000D01*
G01*
X77487000Y-63909500D01*
G75*
G02*
X77587000Y-63809500I100000J0D01*
G01*
G37*
G36*
G01*
X78237000Y-63809500D02*
X78437000Y-63809500D01*
G75*
G02*
X78537000Y-63909500I0J-100000D01*
G01*
X78537000Y-65184500D01*
G75*
G02*
X78437000Y-65284500I-100000J0D01*
G01*
X78237000Y-65284500D01*
G75*
G02*
X78137000Y-65184500I0J100000D01*
G01*
X78137000Y-63909500D01*
G75*
G02*
X78237000Y-63809500I100000J0D01*
G01*
G37*
G36*
G01*
X78887000Y-63809500D02*
X79087000Y-63809500D01*
G75*
G02*
X79187000Y-63909500I0J-100000D01*
G01*
X79187000Y-65184500D01*
G75*
G02*
X79087000Y-65284500I-100000J0D01*
G01*
X78887000Y-65284500D01*
G75*
G02*
X78787000Y-65184500I0J100000D01*
G01*
X78787000Y-63909500D01*
G75*
G02*
X78887000Y-63809500I100000J0D01*
G01*
G37*
G36*
G01*
X79537000Y-63809500D02*
X79737000Y-63809500D01*
G75*
G02*
X79837000Y-63909500I0J-100000D01*
G01*
X79837000Y-65184500D01*
G75*
G02*
X79737000Y-65284500I-100000J0D01*
G01*
X79537000Y-65284500D01*
G75*
G02*
X79437000Y-65184500I0J100000D01*
G01*
X79437000Y-63909500D01*
G75*
G02*
X79537000Y-63809500I100000J0D01*
G01*
G37*
G36*
G01*
X80187000Y-63809500D02*
X80387000Y-63809500D01*
G75*
G02*
X80487000Y-63909500I0J-100000D01*
G01*
X80487000Y-65184500D01*
G75*
G02*
X80387000Y-65284500I-100000J0D01*
G01*
X80187000Y-65284500D01*
G75*
G02*
X80087000Y-65184500I0J100000D01*
G01*
X80087000Y-63909500D01*
G75*
G02*
X80187000Y-63809500I100000J0D01*
G01*
G37*
G36*
G01*
X80837000Y-63809500D02*
X81037000Y-63809500D01*
G75*
G02*
X81137000Y-63909500I0J-100000D01*
G01*
X81137000Y-65184500D01*
G75*
G02*
X81037000Y-65284500I-100000J0D01*
G01*
X80837000Y-65284500D01*
G75*
G02*
X80737000Y-65184500I0J100000D01*
G01*
X80737000Y-63909500D01*
G75*
G02*
X80837000Y-63809500I100000J0D01*
G01*
G37*
G36*
G01*
X81487000Y-63809500D02*
X81687000Y-63809500D01*
G75*
G02*
X81787000Y-63909500I0J-100000D01*
G01*
X81787000Y-65184500D01*
G75*
G02*
X81687000Y-65284500I-100000J0D01*
G01*
X81487000Y-65284500D01*
G75*
G02*
X81387000Y-65184500I0J100000D01*
G01*
X81387000Y-63909500D01*
G75*
G02*
X81487000Y-63809500I100000J0D01*
G01*
G37*
%TD*%
%TO.C,R24*%
G36*
G01*
X79845000Y-61657000D02*
X79845000Y-61107000D01*
G75*
G02*
X80045000Y-60907000I200000J0D01*
G01*
X80445000Y-60907000D01*
G75*
G02*
X80645000Y-61107000I0J-200000D01*
G01*
X80645000Y-61657000D01*
G75*
G02*
X80445000Y-61857000I-200000J0D01*
G01*
X80045000Y-61857000D01*
G75*
G02*
X79845000Y-61657000I0J200000D01*
G01*
G37*
G36*
G01*
X78195000Y-61657000D02*
X78195000Y-61107000D01*
G75*
G02*
X78395000Y-60907000I200000J0D01*
G01*
X78795000Y-60907000D01*
G75*
G02*
X78995000Y-61107000I0J-200000D01*
G01*
X78995000Y-61657000D01*
G75*
G02*
X78795000Y-61857000I-200000J0D01*
G01*
X78395000Y-61857000D01*
G75*
G02*
X78195000Y-61657000I0J200000D01*
G01*
G37*
%TD*%
%TO.C,C5*%
G36*
G01*
X78908000Y-54948000D02*
X78408000Y-54948000D01*
G75*
G02*
X78183000Y-54723000I0J225000D01*
G01*
X78183000Y-54273000D01*
G75*
G02*
X78408000Y-54048000I225000J0D01*
G01*
X78908000Y-54048000D01*
G75*
G02*
X79133000Y-54273000I0J-225000D01*
G01*
X79133000Y-54723000D01*
G75*
G02*
X78908000Y-54948000I-225000J0D01*
G01*
G37*
G36*
G01*
X78908000Y-56498000D02*
X78408000Y-56498000D01*
G75*
G02*
X78183000Y-56273000I0J225000D01*
G01*
X78183000Y-55823000D01*
G75*
G02*
X78408000Y-55598000I225000J0D01*
G01*
X78908000Y-55598000D01*
G75*
G02*
X79133000Y-55823000I0J-225000D01*
G01*
X79133000Y-56273000D01*
G75*
G02*
X78908000Y-56498000I-225000J0D01*
G01*
G37*
%TD*%
%TO.C,C4*%
G36*
G01*
X80940000Y-54948000D02*
X80440000Y-54948000D01*
G75*
G02*
X80215000Y-54723000I0J225000D01*
G01*
X80215000Y-54273000D01*
G75*
G02*
X80440000Y-54048000I225000J0D01*
G01*
X80940000Y-54048000D01*
G75*
G02*
X81165000Y-54273000I0J-225000D01*
G01*
X81165000Y-54723000D01*
G75*
G02*
X80940000Y-54948000I-225000J0D01*
G01*
G37*
G36*
G01*
X80940000Y-56498000D02*
X80440000Y-56498000D01*
G75*
G02*
X80215000Y-56273000I0J225000D01*
G01*
X80215000Y-55823000D01*
G75*
G02*
X80440000Y-55598000I225000J0D01*
G01*
X80940000Y-55598000D01*
G75*
G02*
X81165000Y-55823000I0J-225000D01*
G01*
X81165000Y-56273000D01*
G75*
G02*
X80940000Y-56498000I-225000J0D01*
G01*
G37*
%TD*%
D25*
%TO.C,GND1*%
X63037000Y-65065000D03*
%TD*%
D26*
%TO.C,JP6*%
G36*
X74832000Y-72558000D02*
G01*
X74332000Y-73308000D01*
X73332000Y-73308000D01*
X73332000Y-71808000D01*
X74332000Y-71808000D01*
X74832000Y-72558000D01*
G37*
G36*
X75782000Y-73308000D02*
G01*
X74632000Y-73308000D01*
X75132000Y-72558000D01*
X74632000Y-71808000D01*
X75782000Y-71808000D01*
X75782000Y-73308000D01*
G37*
%TD*%
%TO.C,JP5*%
G36*
X73832000Y-68224000D02*
G01*
X73082000Y-67724000D01*
X73082000Y-66724000D01*
X74582000Y-66724000D01*
X74582000Y-67724000D01*
X73832000Y-68224000D01*
G37*
G36*
X73082000Y-69174000D02*
G01*
X73082000Y-68024000D01*
X73832000Y-68524000D01*
X74582000Y-68024000D01*
X74582000Y-69174000D01*
X73082000Y-69174000D01*
G37*
%TD*%
%TO.C,JP3*%
G36*
X68752000Y-55101000D02*
G01*
X69502000Y-55601000D01*
X69502000Y-56601000D01*
X68002000Y-56601000D01*
X68002000Y-55601000D01*
X68752000Y-55101000D01*
G37*
G36*
X69502000Y-54151000D02*
G01*
X69502000Y-55301000D01*
X68752000Y-54801000D01*
X68002000Y-55301000D01*
X68002000Y-54151000D01*
X69502000Y-54151000D01*
G37*
%TD*%
%TO.C,JP2*%
G36*
X69371000Y-70018000D02*
G01*
X68871000Y-70768000D01*
X67871000Y-70768000D01*
X67871000Y-69268000D01*
X68871000Y-69268000D01*
X69371000Y-70018000D01*
G37*
G36*
X70321000Y-70768000D02*
G01*
X69171000Y-70768000D01*
X69671000Y-70018000D01*
X69171000Y-69268000D01*
X70321000Y-69268000D01*
X70321000Y-70768000D01*
G37*
%TD*%
D27*
%TO.C,U2*%
X98216000Y-55540000D03*
X98216000Y-58080000D03*
X98216000Y-68240000D03*
D28*
X98216000Y-75860000D03*
%TD*%
%TO.C,R21*%
G36*
G01*
X101776500Y-65630999D02*
X101776500Y-66531001D01*
G75*
G02*
X101526501Y-66781000I-249999J0D01*
G01*
X101001499Y-66781000D01*
G75*
G02*
X100751500Y-66531001I0J249999D01*
G01*
X100751500Y-65630999D01*
G75*
G02*
X101001499Y-65381000I249999J0D01*
G01*
X101526501Y-65381000D01*
G75*
G02*
X101776500Y-65630999I0J-249999D01*
G01*
G37*
G36*
G01*
X103601500Y-65630999D02*
X103601500Y-66531001D01*
G75*
G02*
X103351501Y-66781000I-249999J0D01*
G01*
X102826499Y-66781000D01*
G75*
G02*
X102576500Y-66531001I0J249999D01*
G01*
X102576500Y-65630999D01*
G75*
G02*
X102826499Y-65381000I249999J0D01*
G01*
X103351501Y-65381000D01*
G75*
G02*
X103601500Y-65630999I0J-249999D01*
G01*
G37*
%TD*%
%TO.C,R20*%
G36*
G01*
X103601500Y-72615999D02*
X103601500Y-73516001D01*
G75*
G02*
X103351501Y-73766000I-249999J0D01*
G01*
X102826499Y-73766000D01*
G75*
G02*
X102576500Y-73516001I0J249999D01*
G01*
X102576500Y-72615999D01*
G75*
G02*
X102826499Y-72366000I249999J0D01*
G01*
X103351501Y-72366000D01*
G75*
G02*
X103601500Y-72615999I0J-249999D01*
G01*
G37*
G36*
G01*
X101776500Y-72615999D02*
X101776500Y-73516001D01*
G75*
G02*
X101526501Y-73766000I-249999J0D01*
G01*
X101001499Y-73766000D01*
G75*
G02*
X100751500Y-73516001I0J249999D01*
G01*
X100751500Y-72615999D01*
G75*
G02*
X101001499Y-72366000I249999J0D01*
G01*
X101526501Y-72366000D01*
G75*
G02*
X101776500Y-72615999I0J-249999D01*
G01*
G37*
%TD*%
%TO.C,R19*%
G36*
G01*
X91870500Y-65630999D02*
X91870500Y-66531001D01*
G75*
G02*
X91620501Y-66781000I-249999J0D01*
G01*
X91095499Y-66781000D01*
G75*
G02*
X90845500Y-66531001I0J249999D01*
G01*
X90845500Y-65630999D01*
G75*
G02*
X91095499Y-65381000I249999J0D01*
G01*
X91620501Y-65381000D01*
G75*
G02*
X91870500Y-65630999I0J-249999D01*
G01*
G37*
G36*
G01*
X93695500Y-65630999D02*
X93695500Y-66531001D01*
G75*
G02*
X93445501Y-66781000I-249999J0D01*
G01*
X92920499Y-66781000D01*
G75*
G02*
X92670500Y-66531001I0J249999D01*
G01*
X92670500Y-65630999D01*
G75*
G02*
X92920499Y-65381000I249999J0D01*
G01*
X93445501Y-65381000D01*
G75*
G02*
X93695500Y-65630999I0J-249999D01*
G01*
G37*
%TD*%
%TO.C,R18*%
G36*
G01*
X91743500Y-72615999D02*
X91743500Y-73516001D01*
G75*
G02*
X91493501Y-73766000I-249999J0D01*
G01*
X90968499Y-73766000D01*
G75*
G02*
X90718500Y-73516001I0J249999D01*
G01*
X90718500Y-72615999D01*
G75*
G02*
X90968499Y-72366000I249999J0D01*
G01*
X91493501Y-72366000D01*
G75*
G02*
X91743500Y-72615999I0J-249999D01*
G01*
G37*
G36*
G01*
X93568500Y-72615999D02*
X93568500Y-73516001D01*
G75*
G02*
X93318501Y-73766000I-249999J0D01*
G01*
X92793499Y-73766000D01*
G75*
G02*
X92543500Y-73516001I0J249999D01*
G01*
X92543500Y-72615999D01*
G75*
G02*
X92793499Y-72366000I249999J0D01*
G01*
X93318501Y-72366000D01*
G75*
G02*
X93568500Y-72615999I0J-249999D01*
G01*
G37*
%TD*%
%TO.C,C12*%
G36*
G01*
X102664000Y-68588000D02*
X102664000Y-67638000D01*
G75*
G02*
X102914000Y-67388000I250000J0D01*
G01*
X103414000Y-67388000D01*
G75*
G02*
X103664000Y-67638000I0J-250000D01*
G01*
X103664000Y-68588000D01*
G75*
G02*
X103414000Y-68838000I-250000J0D01*
G01*
X102914000Y-68838000D01*
G75*
G02*
X102664000Y-68588000I0J250000D01*
G01*
G37*
G36*
G01*
X100764000Y-68588000D02*
X100764000Y-67638000D01*
G75*
G02*
X101014000Y-67388000I250000J0D01*
G01*
X101514000Y-67388000D01*
G75*
G02*
X101764000Y-67638000I0J-250000D01*
G01*
X101764000Y-68588000D01*
G75*
G02*
X101514000Y-68838000I-250000J0D01*
G01*
X101014000Y-68838000D01*
G75*
G02*
X100764000Y-68588000I0J250000D01*
G01*
G37*
%TD*%
%TO.C,C11*%
G36*
G01*
X101769000Y-70559000D02*
X101769000Y-71509000D01*
G75*
G02*
X101519000Y-71759000I-250000J0D01*
G01*
X101019000Y-71759000D01*
G75*
G02*
X100769000Y-71509000I0J250000D01*
G01*
X100769000Y-70559000D01*
G75*
G02*
X101019000Y-70309000I250000J0D01*
G01*
X101519000Y-70309000D01*
G75*
G02*
X101769000Y-70559000I0J-250000D01*
G01*
G37*
G36*
G01*
X103669000Y-70559000D02*
X103669000Y-71509000D01*
G75*
G02*
X103419000Y-71759000I-250000J0D01*
G01*
X102919000Y-71759000D01*
G75*
G02*
X102669000Y-71509000I0J250000D01*
G01*
X102669000Y-70559000D01*
G75*
G02*
X102919000Y-70309000I250000J0D01*
G01*
X103419000Y-70309000D01*
G75*
G02*
X103669000Y-70559000I0J-250000D01*
G01*
G37*
%TD*%
%TO.C,C10*%
G36*
G01*
X92763000Y-68588000D02*
X92763000Y-67638000D01*
G75*
G02*
X93013000Y-67388000I250000J0D01*
G01*
X93513000Y-67388000D01*
G75*
G02*
X93763000Y-67638000I0J-250000D01*
G01*
X93763000Y-68588000D01*
G75*
G02*
X93513000Y-68838000I-250000J0D01*
G01*
X93013000Y-68838000D01*
G75*
G02*
X92763000Y-68588000I0J250000D01*
G01*
G37*
G36*
G01*
X90863000Y-68588000D02*
X90863000Y-67638000D01*
G75*
G02*
X91113000Y-67388000I250000J0D01*
G01*
X91613000Y-67388000D01*
G75*
G02*
X91863000Y-67638000I0J-250000D01*
G01*
X91863000Y-68588000D01*
G75*
G02*
X91613000Y-68838000I-250000J0D01*
G01*
X91113000Y-68838000D01*
G75*
G02*
X90863000Y-68588000I0J250000D01*
G01*
G37*
%TD*%
%TO.C,C9*%
G36*
G01*
X91731000Y-70559000D02*
X91731000Y-71509000D01*
G75*
G02*
X91481000Y-71759000I-250000J0D01*
G01*
X90981000Y-71759000D01*
G75*
G02*
X90731000Y-71509000I0J250000D01*
G01*
X90731000Y-70559000D01*
G75*
G02*
X90981000Y-70309000I250000J0D01*
G01*
X91481000Y-70309000D01*
G75*
G02*
X91731000Y-70559000I0J-250000D01*
G01*
G37*
G36*
G01*
X93631000Y-70559000D02*
X93631000Y-71509000D01*
G75*
G02*
X93381000Y-71759000I-250000J0D01*
G01*
X92881000Y-71759000D01*
G75*
G02*
X92631000Y-71509000I0J250000D01*
G01*
X92631000Y-70559000D01*
G75*
G02*
X92881000Y-70309000I250000J0D01*
G01*
X93381000Y-70309000D01*
G75*
G02*
X93631000Y-70559000I0J-250000D01*
G01*
G37*
%TD*%
%TO.C,R9*%
G36*
G01*
X102489500Y-55684100D02*
X102489500Y-56234100D01*
G75*
G02*
X102289500Y-56434100I-200000J0D01*
G01*
X101889500Y-56434100D01*
G75*
G02*
X101689500Y-56234100I0J200000D01*
G01*
X101689500Y-55684100D01*
G75*
G02*
X101889500Y-55484100I200000J0D01*
G01*
X102289500Y-55484100D01*
G75*
G02*
X102489500Y-55684100I0J-200000D01*
G01*
G37*
G36*
G01*
X104139500Y-55684100D02*
X104139500Y-56234100D01*
G75*
G02*
X103939500Y-56434100I-200000J0D01*
G01*
X103539500Y-56434100D01*
G75*
G02*
X103339500Y-56234100I0J200000D01*
G01*
X103339500Y-55684100D01*
G75*
G02*
X103539500Y-55484100I200000J0D01*
G01*
X103939500Y-55484100D01*
G75*
G02*
X104139500Y-55684100I0J-200000D01*
G01*
G37*
%TD*%
%TO.C,R8*%
G36*
G01*
X105943000Y-54672000D02*
X105943000Y-54122000D01*
G75*
G02*
X106143000Y-53922000I200000J0D01*
G01*
X106543000Y-53922000D01*
G75*
G02*
X106743000Y-54122000I0J-200000D01*
G01*
X106743000Y-54672000D01*
G75*
G02*
X106543000Y-54872000I-200000J0D01*
G01*
X106143000Y-54872000D01*
G75*
G02*
X105943000Y-54672000I0J200000D01*
G01*
G37*
G36*
G01*
X104293000Y-54672000D02*
X104293000Y-54122000D01*
G75*
G02*
X104493000Y-53922000I200000J0D01*
G01*
X104893000Y-53922000D01*
G75*
G02*
X105093000Y-54122000I0J-200000D01*
G01*
X105093000Y-54672000D01*
G75*
G02*
X104893000Y-54872000I-200000J0D01*
G01*
X104493000Y-54872000D01*
G75*
G02*
X104293000Y-54672000I0J200000D01*
G01*
G37*
%TD*%
%TO.C,R6*%
G36*
G01*
X92583500Y-55646000D02*
X92583500Y-56196000D01*
G75*
G02*
X92383500Y-56396000I-200000J0D01*
G01*
X91983500Y-56396000D01*
G75*
G02*
X91783500Y-56196000I0J200000D01*
G01*
X91783500Y-55646000D01*
G75*
G02*
X91983500Y-55446000I200000J0D01*
G01*
X92383500Y-55446000D01*
G75*
G02*
X92583500Y-55646000I0J-200000D01*
G01*
G37*
G36*
G01*
X94233500Y-55646000D02*
X94233500Y-56196000D01*
G75*
G02*
X94033500Y-56396000I-200000J0D01*
G01*
X93633500Y-56396000D01*
G75*
G02*
X93433500Y-56196000I0J200000D01*
G01*
X93433500Y-55646000D01*
G75*
G02*
X93633500Y-55446000I200000J0D01*
G01*
X94033500Y-55446000D01*
G75*
G02*
X94233500Y-55646000I0J-200000D01*
G01*
G37*
%TD*%
%TO.C,R5*%
G36*
G01*
X96037000Y-54672000D02*
X96037000Y-54122000D01*
G75*
G02*
X96237000Y-53922000I200000J0D01*
G01*
X96637000Y-53922000D01*
G75*
G02*
X96837000Y-54122000I0J-200000D01*
G01*
X96837000Y-54672000D01*
G75*
G02*
X96637000Y-54872000I-200000J0D01*
G01*
X96237000Y-54872000D01*
G75*
G02*
X96037000Y-54672000I0J200000D01*
G01*
G37*
G36*
G01*
X94387000Y-54672000D02*
X94387000Y-54122000D01*
G75*
G02*
X94587000Y-53922000I200000J0D01*
G01*
X94987000Y-53922000D01*
G75*
G02*
X95187000Y-54122000I0J-200000D01*
G01*
X95187000Y-54672000D01*
G75*
G02*
X94987000Y-54872000I-200000J0D01*
G01*
X94587000Y-54872000D01*
G75*
G02*
X94387000Y-54672000I0J200000D01*
G01*
G37*
%TD*%
%TO.C,R2*%
G36*
G01*
X101981500Y-54122000D02*
X101981500Y-54672000D01*
G75*
G02*
X101781500Y-54872000I-200000J0D01*
G01*
X101381500Y-54872000D01*
G75*
G02*
X101181500Y-54672000I0J200000D01*
G01*
X101181500Y-54122000D01*
G75*
G02*
X101381500Y-53922000I200000J0D01*
G01*
X101781500Y-53922000D01*
G75*
G02*
X101981500Y-54122000I0J-200000D01*
G01*
G37*
G36*
G01*
X103631500Y-54122000D02*
X103631500Y-54672000D01*
G75*
G02*
X103431500Y-54872000I-200000J0D01*
G01*
X103031500Y-54872000D01*
G75*
G02*
X102831500Y-54672000I0J200000D01*
G01*
X102831500Y-54122000D01*
G75*
G02*
X103031500Y-53922000I200000J0D01*
G01*
X103431500Y-53922000D01*
G75*
G02*
X103631500Y-54122000I0J-200000D01*
G01*
G37*
%TD*%
%TO.C,R1*%
G36*
G01*
X92075500Y-54122000D02*
X92075500Y-54672000D01*
G75*
G02*
X91875500Y-54872000I-200000J0D01*
G01*
X91475500Y-54872000D01*
G75*
G02*
X91275500Y-54672000I0J200000D01*
G01*
X91275500Y-54122000D01*
G75*
G02*
X91475500Y-53922000I200000J0D01*
G01*
X91875500Y-53922000D01*
G75*
G02*
X92075500Y-54122000I0J-200000D01*
G01*
G37*
G36*
G01*
X93725500Y-54122000D02*
X93725500Y-54672000D01*
G75*
G02*
X93525500Y-54872000I-200000J0D01*
G01*
X93125500Y-54872000D01*
G75*
G02*
X92925500Y-54672000I0J200000D01*
G01*
X92925500Y-54122000D01*
G75*
G02*
X93125500Y-53922000I200000J0D01*
G01*
X93525500Y-53922000D01*
G75*
G02*
X93725500Y-54122000I0J-200000D01*
G01*
G37*
%TD*%
D29*
%TO.C,D4*%
X105963000Y-55794000D03*
X105963000Y-57894000D03*
%TD*%
%TO.C,D3*%
X96057000Y-55794000D03*
X96057000Y-57894000D03*
%TD*%
%TO.C,C2*%
G36*
G01*
X103253000Y-57822000D02*
X103253000Y-57322000D01*
G75*
G02*
X103478000Y-57097000I225000J0D01*
G01*
X103928000Y-57097000D01*
G75*
G02*
X104153000Y-57322000I0J-225000D01*
G01*
X104153000Y-57822000D01*
G75*
G02*
X103928000Y-58047000I-225000J0D01*
G01*
X103478000Y-58047000D01*
G75*
G02*
X103253000Y-57822000I0J225000D01*
G01*
G37*
G36*
G01*
X101703000Y-57822000D02*
X101703000Y-57322000D01*
G75*
G02*
X101928000Y-57097000I225000J0D01*
G01*
X102378000Y-57097000D01*
G75*
G02*
X102603000Y-57322000I0J-225000D01*
G01*
X102603000Y-57822000D01*
G75*
G02*
X102378000Y-58047000I-225000J0D01*
G01*
X101928000Y-58047000D01*
G75*
G02*
X101703000Y-57822000I0J225000D01*
G01*
G37*
%TD*%
%TO.C,C1*%
G36*
G01*
X93347000Y-57822000D02*
X93347000Y-57322000D01*
G75*
G02*
X93572000Y-57097000I225000J0D01*
G01*
X94022000Y-57097000D01*
G75*
G02*
X94247000Y-57322000I0J-225000D01*
G01*
X94247000Y-57822000D01*
G75*
G02*
X94022000Y-58047000I-225000J0D01*
G01*
X93572000Y-58047000D01*
G75*
G02*
X93347000Y-57822000I0J225000D01*
G01*
G37*
G36*
G01*
X91797000Y-57822000D02*
X91797000Y-57322000D01*
G75*
G02*
X92022000Y-57097000I225000J0D01*
G01*
X92472000Y-57097000D01*
G75*
G02*
X92697000Y-57322000I0J-225000D01*
G01*
X92697000Y-57822000D01*
G75*
G02*
X92472000Y-58047000I-225000J0D01*
G01*
X92022000Y-58047000D01*
G75*
G02*
X91797000Y-57822000I0J225000D01*
G01*
G37*
%TD*%
%TO.C,C3*%
G36*
G01*
X68541000Y-57576000D02*
X68541000Y-58076000D01*
G75*
G02*
X68316000Y-58301000I-225000J0D01*
G01*
X67866000Y-58301000D01*
G75*
G02*
X67641000Y-58076000I0J225000D01*
G01*
X67641000Y-57576000D01*
G75*
G02*
X67866000Y-57351000I225000J0D01*
G01*
X68316000Y-57351000D01*
G75*
G02*
X68541000Y-57576000I0J-225000D01*
G01*
G37*
G36*
G01*
X70091000Y-57576000D02*
X70091000Y-58076000D01*
G75*
G02*
X69866000Y-58301000I-225000J0D01*
G01*
X69416000Y-58301000D01*
G75*
G02*
X69191000Y-58076000I0J225000D01*
G01*
X69191000Y-57576000D01*
G75*
G02*
X69416000Y-57351000I225000J0D01*
G01*
X69866000Y-57351000D01*
G75*
G02*
X70091000Y-57576000I0J-225000D01*
G01*
G37*
%TD*%
D27*
%TO.C,U3*%
X108122000Y-55540000D03*
X108122000Y-58080000D03*
X108122000Y-68240000D03*
D28*
X108122000Y-75860000D03*
%TD*%
D26*
%TO.C,JP1*%
G36*
X69371000Y-77003000D02*
G01*
X68871000Y-77753000D01*
X67871000Y-77753000D01*
X67871000Y-76253000D01*
X68871000Y-76253000D01*
X69371000Y-77003000D01*
G37*
G36*
X70321000Y-77753000D02*
G01*
X69171000Y-77753000D01*
X69671000Y-77003000D01*
X69171000Y-76253000D01*
X70321000Y-76253000D01*
X70321000Y-77753000D01*
G37*
%TD*%
D12*
%TO.C,J2*%
X60751000Y-58080000D03*
X60751000Y-59350000D03*
X62021000Y-58080000D03*
X62021000Y-59350000D03*
X63291000Y-58080000D03*
D11*
X63291000Y-59350000D03*
%TD*%
D23*
%TO.C,F2*%
X107233000Y-63922000D03*
D16*
X107233000Y-71542000D03*
%TD*%
D30*
%TO.C,REF\u002A\u002A*%
X105201000Y-83262500D03*
%TD*%
D31*
%TO.C,REF\u002A\u002A*%
X102407000Y-89422000D03*
%TD*%
%TO.C,REF\u002A\u002A*%
X94787000Y-89422000D03*
%TD*%
%TO.C,REF\u002A\u002A*%
X81833000Y-89422000D03*
%TD*%
%TO.C,REF\u002A\u002A*%
X74276500Y-89422000D03*
%TD*%
D25*
%TO.C,REF\u002A\u002A*%
X71800000Y-91835000D03*
%TD*%
%TO.C,REF\u002A\u002A*%
X71800000Y-97042000D03*
%TD*%
%TO.C,REF\u002A\u002A*%
X71927000Y-102249000D03*
%TD*%
D12*
%TO.C,J2*%
X60751000Y-83580000D03*
X60751000Y-84850000D03*
X62021000Y-83580000D03*
X62021000Y-84850000D03*
X63291000Y-83580000D03*
D11*
X63291000Y-84850000D03*
%TD*%
D25*
%TO.C,C5*%
X99613000Y-99582000D03*
X77113000Y-99582000D03*
%TD*%
%TO.C,U1*%
G36*
G01*
X71523000Y-87747000D02*
X71823000Y-87747000D01*
G75*
G02*
X71973000Y-87897000I0J-150000D01*
G01*
X71973000Y-89547000D01*
G75*
G02*
X71823000Y-89697000I-150000J0D01*
G01*
X71523000Y-89697000D01*
G75*
G02*
X71373000Y-89547000I0J150000D01*
G01*
X71373000Y-87897000D01*
G75*
G02*
X71523000Y-87747000I150000J0D01*
G01*
G37*
G36*
G01*
X70253000Y-87747000D02*
X70553000Y-87747000D01*
G75*
G02*
X70703000Y-87897000I0J-150000D01*
G01*
X70703000Y-89547000D01*
G75*
G02*
X70553000Y-89697000I-150000J0D01*
G01*
X70253000Y-89697000D01*
G75*
G02*
X70103000Y-89547000I0J150000D01*
G01*
X70103000Y-87897000D01*
G75*
G02*
X70253000Y-87747000I150000J0D01*
G01*
G37*
G36*
G01*
X68983000Y-87747000D02*
X69283000Y-87747000D01*
G75*
G02*
X69433000Y-87897000I0J-150000D01*
G01*
X69433000Y-89547000D01*
G75*
G02*
X69283000Y-89697000I-150000J0D01*
G01*
X68983000Y-89697000D01*
G75*
G02*
X68833000Y-89547000I0J150000D01*
G01*
X68833000Y-87897000D01*
G75*
G02*
X68983000Y-87747000I150000J0D01*
G01*
G37*
G36*
G01*
X67713000Y-87747000D02*
X68013000Y-87747000D01*
G75*
G02*
X68163000Y-87897000I0J-150000D01*
G01*
X68163000Y-89547000D01*
G75*
G02*
X68013000Y-89697000I-150000J0D01*
G01*
X67713000Y-89697000D01*
G75*
G02*
X67563000Y-89547000I0J150000D01*
G01*
X67563000Y-87897000D01*
G75*
G02*
X67713000Y-87747000I150000J0D01*
G01*
G37*
G36*
G01*
X67713000Y-82797000D02*
X68013000Y-82797000D01*
G75*
G02*
X68163000Y-82947000I0J-150000D01*
G01*
X68163000Y-84597000D01*
G75*
G02*
X68013000Y-84747000I-150000J0D01*
G01*
X67713000Y-84747000D01*
G75*
G02*
X67563000Y-84597000I0J150000D01*
G01*
X67563000Y-82947000D01*
G75*
G02*
X67713000Y-82797000I150000J0D01*
G01*
G37*
G36*
G01*
X68983000Y-82797000D02*
X69283000Y-82797000D01*
G75*
G02*
X69433000Y-82947000I0J-150000D01*
G01*
X69433000Y-84597000D01*
G75*
G02*
X69283000Y-84747000I-150000J0D01*
G01*
X68983000Y-84747000D01*
G75*
G02*
X68833000Y-84597000I0J150000D01*
G01*
X68833000Y-82947000D01*
G75*
G02*
X68983000Y-82797000I150000J0D01*
G01*
G37*
G36*
G01*
X70253000Y-82797000D02*
X70553000Y-82797000D01*
G75*
G02*
X70703000Y-82947000I0J-150000D01*
G01*
X70703000Y-84597000D01*
G75*
G02*
X70553000Y-84747000I-150000J0D01*
G01*
X70253000Y-84747000D01*
G75*
G02*
X70103000Y-84597000I0J150000D01*
G01*
X70103000Y-82947000D01*
G75*
G02*
X70253000Y-82797000I150000J0D01*
G01*
G37*
G36*
G01*
X71523000Y-82797000D02*
X71823000Y-82797000D01*
G75*
G02*
X71973000Y-82947000I0J-150000D01*
G01*
X71973000Y-84597000D01*
G75*
G02*
X71823000Y-84747000I-150000J0D01*
G01*
X71523000Y-84747000D01*
G75*
G02*
X71373000Y-84597000I0J150000D01*
G01*
X71373000Y-82947000D01*
G75*
G02*
X71523000Y-82797000I150000J0D01*
G01*
G37*
%TD*%
%TO.C,R16*%
G36*
G01*
X93117000Y-80172000D02*
X93117000Y-79622000D01*
G75*
G02*
X93317000Y-79422000I200000J0D01*
G01*
X93717000Y-79422000D01*
G75*
G02*
X93917000Y-79622000I0J-200000D01*
G01*
X93917000Y-80172000D01*
G75*
G02*
X93717000Y-80372000I-200000J0D01*
G01*
X93317000Y-80372000D01*
G75*
G02*
X93117000Y-80172000I0J200000D01*
G01*
G37*
G36*
G01*
X91467000Y-80172000D02*
X91467000Y-79622000D01*
G75*
G02*
X91667000Y-79422000I200000J0D01*
G01*
X92067000Y-79422000D01*
G75*
G02*
X92267000Y-79622000I0J-200000D01*
G01*
X92267000Y-80172000D01*
G75*
G02*
X92067000Y-80372000I-200000J0D01*
G01*
X91667000Y-80372000D01*
G75*
G02*
X91467000Y-80172000I0J200000D01*
G01*
G37*
%TD*%
%TO.C,R14*%
G36*
G01*
X93116000Y-82013500D02*
X93116000Y-81463500D01*
G75*
G02*
X93316000Y-81263500I200000J0D01*
G01*
X93716000Y-81263500D01*
G75*
G02*
X93916000Y-81463500I0J-200000D01*
G01*
X93916000Y-82013500D01*
G75*
G02*
X93716000Y-82213500I-200000J0D01*
G01*
X93316000Y-82213500D01*
G75*
G02*
X93116000Y-82013500I0J200000D01*
G01*
G37*
G36*
G01*
X91466000Y-82013500D02*
X91466000Y-81463500D01*
G75*
G02*
X91666000Y-81263500I200000J0D01*
G01*
X92066000Y-81263500D01*
G75*
G02*
X92266000Y-81463500I0J-200000D01*
G01*
X92266000Y-82013500D01*
G75*
G02*
X92066000Y-82213500I-200000J0D01*
G01*
X91666000Y-82213500D01*
G75*
G02*
X91466000Y-82013500I0J200000D01*
G01*
G37*
%TD*%
%TO.C,R4*%
G36*
G01*
X84519000Y-79622000D02*
X84519000Y-80172000D01*
G75*
G02*
X84319000Y-80372000I-200000J0D01*
G01*
X83919000Y-80372000D01*
G75*
G02*
X83719000Y-80172000I0J200000D01*
G01*
X83719000Y-79622000D01*
G75*
G02*
X83919000Y-79422000I200000J0D01*
G01*
X84319000Y-79422000D01*
G75*
G02*
X84519000Y-79622000I0J-200000D01*
G01*
G37*
G36*
G01*
X86169000Y-79622000D02*
X86169000Y-80172000D01*
G75*
G02*
X85969000Y-80372000I-200000J0D01*
G01*
X85569000Y-80372000D01*
G75*
G02*
X85369000Y-80172000I0J200000D01*
G01*
X85369000Y-79622000D01*
G75*
G02*
X85569000Y-79422000I200000J0D01*
G01*
X85969000Y-79422000D01*
G75*
G02*
X86169000Y-79622000I0J-200000D01*
G01*
G37*
%TD*%
%TO.C,R2*%
G36*
G01*
X85369000Y-81696000D02*
X85369000Y-81146000D01*
G75*
G02*
X85569000Y-80946000I200000J0D01*
G01*
X85969000Y-80946000D01*
G75*
G02*
X86169000Y-81146000I0J-200000D01*
G01*
X86169000Y-81696000D01*
G75*
G02*
X85969000Y-81896000I-200000J0D01*
G01*
X85569000Y-81896000D01*
G75*
G02*
X85369000Y-81696000I0J200000D01*
G01*
G37*
G36*
G01*
X83719000Y-81696000D02*
X83719000Y-81146000D01*
G75*
G02*
X83919000Y-80946000I200000J0D01*
G01*
X84319000Y-80946000D01*
G75*
G02*
X84519000Y-81146000I0J-200000D01*
G01*
X84519000Y-81696000D01*
G75*
G02*
X84319000Y-81896000I-200000J0D01*
G01*
X83919000Y-81896000D01*
G75*
G02*
X83719000Y-81696000I0J200000D01*
G01*
G37*
%TD*%
D10*
%TO.C,Q6*%
X95991000Y-81960500D03*
X95041000Y-79960500D03*
X96941000Y-79960500D03*
%TD*%
D32*
%TO.C,Q2*%
X80595000Y-80910500D03*
X82595000Y-79960500D03*
X82595000Y-81860500D03*
%TD*%
%TO.C,C10*%
G36*
G01*
X69572000Y-91069000D02*
X69572000Y-90569000D01*
G75*
G02*
X69797000Y-90344000I225000J0D01*
G01*
X70247000Y-90344000D01*
G75*
G02*
X70472000Y-90569000I0J-225000D01*
G01*
X70472000Y-91069000D01*
G75*
G02*
X70247000Y-91294000I-225000J0D01*
G01*
X69797000Y-91294000D01*
G75*
G02*
X69572000Y-91069000I0J225000D01*
G01*
G37*
G36*
G01*
X68022000Y-91069000D02*
X68022000Y-90569000D01*
G75*
G02*
X68247000Y-90344000I225000J0D01*
G01*
X68697000Y-90344000D01*
G75*
G02*
X68922000Y-90569000I0J-225000D01*
G01*
X68922000Y-91069000D01*
G75*
G02*
X68697000Y-91294000I-225000J0D01*
G01*
X68247000Y-91294000D01*
G75*
G02*
X68022000Y-91069000I0J225000D01*
G01*
G37*
%TD*%
%TO.C,C8*%
G36*
G01*
X70080000Y-81925000D02*
X70080000Y-81425000D01*
G75*
G02*
X70305000Y-81200000I225000J0D01*
G01*
X70755000Y-81200000D01*
G75*
G02*
X70980000Y-81425000I0J-225000D01*
G01*
X70980000Y-81925000D01*
G75*
G02*
X70755000Y-82150000I-225000J0D01*
G01*
X70305000Y-82150000D01*
G75*
G02*
X70080000Y-81925000I0J225000D01*
G01*
G37*
G36*
G01*
X68530000Y-81925000D02*
X68530000Y-81425000D01*
G75*
G02*
X68755000Y-81200000I225000J0D01*
G01*
X69205000Y-81200000D01*
G75*
G02*
X69430000Y-81425000I0J-225000D01*
G01*
X69430000Y-81925000D01*
G75*
G02*
X69205000Y-82150000I-225000J0D01*
G01*
X68755000Y-82150000D01*
G75*
G02*
X68530000Y-81925000I0J225000D01*
G01*
G37*
%TD*%
D17*
%TO.C,K2*%
X94787000Y-84342000D03*
D16*
X94787000Y-86882000D03*
X94787000Y-91962000D03*
X94787000Y-97042000D03*
X94787000Y-102122000D03*
X102407000Y-102122000D03*
X102407000Y-97042000D03*
X102407000Y-91962000D03*
X102407000Y-86882000D03*
X102407000Y-84342000D03*
%TD*%
D33*
%TO.C,J1*%
X85770000Y-101868000D03*
D20*
X88310000Y-101868000D03*
X90850000Y-101868000D03*
%TD*%
D34*
%TO.C,U2*%
X91222000Y-84891000D03*
X91222000Y-85541000D03*
X91222000Y-86191000D03*
X91222000Y-86841000D03*
X86922000Y-86841000D03*
X86922000Y-86191000D03*
X86922000Y-85541000D03*
X86922000Y-84891000D03*
%TD*%
D25*
%TO.C,TP1*%
X65640500Y-95518000D03*
%TD*%
%TO.C,R12*%
G36*
G01*
X65302000Y-88259000D02*
X65852000Y-88259000D01*
G75*
G02*
X66052000Y-88459000I0J-200000D01*
G01*
X66052000Y-88859000D01*
G75*
G02*
X65852000Y-89059000I-200000J0D01*
G01*
X65302000Y-89059000D01*
G75*
G02*
X65102000Y-88859000I0J200000D01*
G01*
X65102000Y-88459000D01*
G75*
G02*
X65302000Y-88259000I200000J0D01*
G01*
G37*
G36*
G01*
X65302000Y-86609000D02*
X65852000Y-86609000D01*
G75*
G02*
X66052000Y-86809000I0J-200000D01*
G01*
X66052000Y-87209000D01*
G75*
G02*
X65852000Y-87409000I-200000J0D01*
G01*
X65302000Y-87409000D01*
G75*
G02*
X65102000Y-87209000I0J200000D01*
G01*
X65102000Y-86809000D01*
G75*
G02*
X65302000Y-86609000I200000J0D01*
G01*
G37*
%TD*%
%TO.C,R11*%
G36*
G01*
X65302000Y-91942000D02*
X65852000Y-91942000D01*
G75*
G02*
X66052000Y-92142000I0J-200000D01*
G01*
X66052000Y-92542000D01*
G75*
G02*
X65852000Y-92742000I-200000J0D01*
G01*
X65302000Y-92742000D01*
G75*
G02*
X65102000Y-92542000I0J200000D01*
G01*
X65102000Y-92142000D01*
G75*
G02*
X65302000Y-91942000I200000J0D01*
G01*
G37*
G36*
G01*
X65302000Y-90292000D02*
X65852000Y-90292000D01*
G75*
G02*
X66052000Y-90492000I0J-200000D01*
G01*
X66052000Y-90892000D01*
G75*
G02*
X65852000Y-91092000I-200000J0D01*
G01*
X65302000Y-91092000D01*
G75*
G02*
X65102000Y-90892000I0J200000D01*
G01*
X65102000Y-90492000D01*
G75*
G02*
X65302000Y-90292000I200000J0D01*
G01*
G37*
%TD*%
%TO.C,R8*%
G36*
G01*
X60772000Y-89886500D02*
X60222000Y-89886500D01*
G75*
G02*
X60022000Y-89686500I0J200000D01*
G01*
X60022000Y-89286500D01*
G75*
G02*
X60222000Y-89086500I200000J0D01*
G01*
X60772000Y-89086500D01*
G75*
G02*
X60972000Y-89286500I0J-200000D01*
G01*
X60972000Y-89686500D01*
G75*
G02*
X60772000Y-89886500I-200000J0D01*
G01*
G37*
G36*
G01*
X60772000Y-91536500D02*
X60222000Y-91536500D01*
G75*
G02*
X60022000Y-91336500I0J200000D01*
G01*
X60022000Y-90936500D01*
G75*
G02*
X60222000Y-90736500I200000J0D01*
G01*
X60772000Y-90736500D01*
G75*
G02*
X60972000Y-90936500I0J-200000D01*
G01*
X60972000Y-91336500D01*
G75*
G02*
X60772000Y-91536500I-200000J0D01*
G01*
G37*
%TD*%
%TO.C,R7*%
G36*
G01*
X60222000Y-93847000D02*
X60772000Y-93847000D01*
G75*
G02*
X60972000Y-94047000I0J-200000D01*
G01*
X60972000Y-94447000D01*
G75*
G02*
X60772000Y-94647000I-200000J0D01*
G01*
X60222000Y-94647000D01*
G75*
G02*
X60022000Y-94447000I0J200000D01*
G01*
X60022000Y-94047000D01*
G75*
G02*
X60222000Y-93847000I200000J0D01*
G01*
G37*
G36*
G01*
X60222000Y-92197000D02*
X60772000Y-92197000D01*
G75*
G02*
X60972000Y-92397000I0J-200000D01*
G01*
X60972000Y-92797000D01*
G75*
G02*
X60772000Y-92997000I-200000J0D01*
G01*
X60222000Y-92997000D01*
G75*
G02*
X60022000Y-92797000I0J200000D01*
G01*
X60022000Y-92397000D01*
G75*
G02*
X60222000Y-92197000I200000J0D01*
G01*
G37*
%TD*%
%TO.C,R20*%
G36*
G01*
X101370000Y-81529000D02*
X101920000Y-81529000D01*
G75*
G02*
X102120000Y-81729000I0J-200000D01*
G01*
X102120000Y-82129000D01*
G75*
G02*
X101920000Y-82329000I-200000J0D01*
G01*
X101370000Y-82329000D01*
G75*
G02*
X101170000Y-82129000I0J200000D01*
G01*
X101170000Y-81729000D01*
G75*
G02*
X101370000Y-81529000I200000J0D01*
G01*
G37*
G36*
G01*
X101370000Y-79879000D02*
X101920000Y-79879000D01*
G75*
G02*
X102120000Y-80079000I0J-200000D01*
G01*
X102120000Y-80479000D01*
G75*
G02*
X101920000Y-80679000I-200000J0D01*
G01*
X101370000Y-80679000D01*
G75*
G02*
X101170000Y-80479000I0J200000D01*
G01*
X101170000Y-80079000D01*
G75*
G02*
X101370000Y-79879000I200000J0D01*
G01*
G37*
%TD*%
%TO.C,R19*%
G36*
G01*
X102894000Y-81529000D02*
X103444000Y-81529000D01*
G75*
G02*
X103644000Y-81729000I0J-200000D01*
G01*
X103644000Y-82129000D01*
G75*
G02*
X103444000Y-82329000I-200000J0D01*
G01*
X102894000Y-82329000D01*
G75*
G02*
X102694000Y-82129000I0J200000D01*
G01*
X102694000Y-81729000D01*
G75*
G02*
X102894000Y-81529000I200000J0D01*
G01*
G37*
G36*
G01*
X102894000Y-79879000D02*
X103444000Y-79879000D01*
G75*
G02*
X103644000Y-80079000I0J-200000D01*
G01*
X103644000Y-80479000D01*
G75*
G02*
X103444000Y-80679000I-200000J0D01*
G01*
X102894000Y-80679000D01*
G75*
G02*
X102694000Y-80479000I0J200000D01*
G01*
X102694000Y-80079000D01*
G75*
G02*
X102894000Y-79879000I200000J0D01*
G01*
G37*
%TD*%
%TO.C,R10*%
G36*
G01*
X74192000Y-81529000D02*
X74742000Y-81529000D01*
G75*
G02*
X74942000Y-81729000I0J-200000D01*
G01*
X74942000Y-82129000D01*
G75*
G02*
X74742000Y-82329000I-200000J0D01*
G01*
X74192000Y-82329000D01*
G75*
G02*
X73992000Y-82129000I0J200000D01*
G01*
X73992000Y-81729000D01*
G75*
G02*
X74192000Y-81529000I200000J0D01*
G01*
G37*
G36*
G01*
X74192000Y-79879000D02*
X74742000Y-79879000D01*
G75*
G02*
X74942000Y-80079000I0J-200000D01*
G01*
X74942000Y-80479000D01*
G75*
G02*
X74742000Y-80679000I-200000J0D01*
G01*
X74192000Y-80679000D01*
G75*
G02*
X73992000Y-80479000I0J200000D01*
G01*
X73992000Y-80079000D01*
G75*
G02*
X74192000Y-79879000I200000J0D01*
G01*
G37*
%TD*%
%TO.C,R9*%
G36*
G01*
X75716000Y-81529000D02*
X76266000Y-81529000D01*
G75*
G02*
X76466000Y-81729000I0J-200000D01*
G01*
X76466000Y-82129000D01*
G75*
G02*
X76266000Y-82329000I-200000J0D01*
G01*
X75716000Y-82329000D01*
G75*
G02*
X75516000Y-82129000I0J200000D01*
G01*
X75516000Y-81729000D01*
G75*
G02*
X75716000Y-81529000I200000J0D01*
G01*
G37*
G36*
G01*
X75716000Y-79879000D02*
X76266000Y-79879000D01*
G75*
G02*
X76466000Y-80079000I0J-200000D01*
G01*
X76466000Y-80479000D01*
G75*
G02*
X76266000Y-80679000I-200000J0D01*
G01*
X75716000Y-80679000D01*
G75*
G02*
X75516000Y-80479000I0J200000D01*
G01*
X75516000Y-80079000D01*
G75*
G02*
X75716000Y-79879000I200000J0D01*
G01*
G37*
%TD*%
%TO.C,R18*%
G36*
G01*
X99721000Y-80553000D02*
X99721000Y-80003000D01*
G75*
G02*
X99921000Y-79803000I200000J0D01*
G01*
X100321000Y-79803000D01*
G75*
G02*
X100521000Y-80003000I0J-200000D01*
G01*
X100521000Y-80553000D01*
G75*
G02*
X100321000Y-80753000I-200000J0D01*
G01*
X99921000Y-80753000D01*
G75*
G02*
X99721000Y-80553000I0J200000D01*
G01*
G37*
G36*
G01*
X98071000Y-80553000D02*
X98071000Y-80003000D01*
G75*
G02*
X98271000Y-79803000I200000J0D01*
G01*
X98671000Y-79803000D01*
G75*
G02*
X98871000Y-80003000I0J-200000D01*
G01*
X98871000Y-80553000D01*
G75*
G02*
X98671000Y-80753000I-200000J0D01*
G01*
X98271000Y-80753000D01*
G75*
G02*
X98071000Y-80553000I0J200000D01*
G01*
G37*
%TD*%
%TO.C,R6*%
G36*
G01*
X77915000Y-80003000D02*
X77915000Y-80553000D01*
G75*
G02*
X77715000Y-80753000I-200000J0D01*
G01*
X77315000Y-80753000D01*
G75*
G02*
X77115000Y-80553000I0J200000D01*
G01*
X77115000Y-80003000D01*
G75*
G02*
X77315000Y-79803000I200000J0D01*
G01*
X77715000Y-79803000D01*
G75*
G02*
X77915000Y-80003000I0J-200000D01*
G01*
G37*
G36*
G01*
X79565000Y-80003000D02*
X79565000Y-80553000D01*
G75*
G02*
X79365000Y-80753000I-200000J0D01*
G01*
X78965000Y-80753000D01*
G75*
G02*
X78765000Y-80553000I0J200000D01*
G01*
X78765000Y-80003000D01*
G75*
G02*
X78965000Y-79803000I200000J0D01*
G01*
X79365000Y-79803000D01*
G75*
G02*
X79565000Y-80003000I0J-200000D01*
G01*
G37*
%TD*%
D32*
%TO.C,Q4*%
X62021000Y-87832000D03*
X64021000Y-86882000D03*
X64021000Y-88782000D03*
%TD*%
%TO.C,Q3*%
X62021000Y-91454000D03*
X64021000Y-90504000D03*
X64021000Y-92404000D03*
%TD*%
D35*
%TO.C,PS1*%
X69641000Y-102249000D03*
X67101000Y-102249000D03*
X64561000Y-102249000D03*
D36*
X62021000Y-102249000D03*
%TD*%
D16*
%TO.C,K1*%
X81833000Y-84342000D03*
X81833000Y-86882000D03*
X81833000Y-91962000D03*
X81833000Y-97042000D03*
X81833000Y-102122000D03*
X74213000Y-102122000D03*
X74213000Y-97042000D03*
X74213000Y-91962000D03*
X74213000Y-86882000D03*
D17*
X74213000Y-84342000D03*
%TD*%
D26*
%TO.C,JP1*%
G36*
X68371000Y-95079000D02*
G01*
X69121000Y-95579000D01*
X69121000Y-96579000D01*
X67621000Y-96579000D01*
X67621000Y-95579000D01*
X68371000Y-95079000D01*
G37*
G36*
X69121000Y-94129000D02*
G01*
X69121000Y-95279000D01*
X68371000Y-94779000D01*
X67621000Y-95279000D01*
X67621000Y-94129000D01*
X69121000Y-94129000D01*
G37*
%TD*%
D25*
%TO.C,C7*%
X107741000Y-100445000D03*
X107741000Y-82945000D03*
%TD*%
%TO.C,C13*%
G36*
G01*
X89395000Y-82949000D02*
X89395000Y-83449000D01*
G75*
G02*
X89170000Y-83674000I-225000J0D01*
G01*
X88720000Y-83674000D01*
G75*
G02*
X88495000Y-83449000I0J225000D01*
G01*
X88495000Y-82949000D01*
G75*
G02*
X88720000Y-82724000I225000J0D01*
G01*
X89170000Y-82724000D01*
G75*
G02*
X89395000Y-82949000I0J-225000D01*
G01*
G37*
G36*
G01*
X90945000Y-82949000D02*
X90945000Y-83449000D01*
G75*
G02*
X90720000Y-83674000I-225000J0D01*
G01*
X90270000Y-83674000D01*
G75*
G02*
X90045000Y-83449000I0J225000D01*
G01*
X90045000Y-82949000D01*
G75*
G02*
X90270000Y-82724000I225000J0D01*
G01*
X90720000Y-82724000D01*
G75*
G02*
X90945000Y-82949000I0J-225000D01*
G01*
G37*
%TD*%
D13*
%TO.C,REF\u002A\u002A*%
X67936000Y-116900000D03*
%TD*%
%TO.C,REF\u002A\u002A*%
X70222000Y-116900000D03*
%TD*%
D12*
%TO.C,J1*%
X69714000Y-108264000D03*
X68444000Y-108264000D03*
X69714000Y-106994000D03*
X68444000Y-106994000D03*
X69714000Y-105724000D03*
D11*
X68444000Y-105724000D03*
%TD*%
D12*
%TO.C,J2*%
X69714000Y-128076000D03*
X68444000Y-128076000D03*
X69714000Y-126806000D03*
X68444000Y-126806000D03*
X69714000Y-125536000D03*
D11*
X68444000Y-125536000D03*
%TD*%
%TO.C,U2*%
G36*
G01*
X70834000Y-118400000D02*
X71134000Y-118400000D01*
G75*
G02*
X71284000Y-118550000I0J-150000D01*
G01*
X71284000Y-120200000D01*
G75*
G02*
X71134000Y-120350000I-150000J0D01*
G01*
X70834000Y-120350000D01*
G75*
G02*
X70684000Y-120200000I0J150000D01*
G01*
X70684000Y-118550000D01*
G75*
G02*
X70834000Y-118400000I150000J0D01*
G01*
G37*
G36*
G01*
X69564000Y-118400000D02*
X69864000Y-118400000D01*
G75*
G02*
X70014000Y-118550000I0J-150000D01*
G01*
X70014000Y-120200000D01*
G75*
G02*
X69864000Y-120350000I-150000J0D01*
G01*
X69564000Y-120350000D01*
G75*
G02*
X69414000Y-120200000I0J150000D01*
G01*
X69414000Y-118550000D01*
G75*
G02*
X69564000Y-118400000I150000J0D01*
G01*
G37*
G36*
G01*
X68294000Y-118400000D02*
X68594000Y-118400000D01*
G75*
G02*
X68744000Y-118550000I0J-150000D01*
G01*
X68744000Y-120200000D01*
G75*
G02*
X68594000Y-120350000I-150000J0D01*
G01*
X68294000Y-120350000D01*
G75*
G02*
X68144000Y-120200000I0J150000D01*
G01*
X68144000Y-118550000D01*
G75*
G02*
X68294000Y-118400000I150000J0D01*
G01*
G37*
G36*
G01*
X67024000Y-118400000D02*
X67324000Y-118400000D01*
G75*
G02*
X67474000Y-118550000I0J-150000D01*
G01*
X67474000Y-120200000D01*
G75*
G02*
X67324000Y-120350000I-150000J0D01*
G01*
X67024000Y-120350000D01*
G75*
G02*
X66874000Y-120200000I0J150000D01*
G01*
X66874000Y-118550000D01*
G75*
G02*
X67024000Y-118400000I150000J0D01*
G01*
G37*
G36*
G01*
X67024000Y-113450000D02*
X67324000Y-113450000D01*
G75*
G02*
X67474000Y-113600000I0J-150000D01*
G01*
X67474000Y-115250000D01*
G75*
G02*
X67324000Y-115400000I-150000J0D01*
G01*
X67024000Y-115400000D01*
G75*
G02*
X66874000Y-115250000I0J150000D01*
G01*
X66874000Y-113600000D01*
G75*
G02*
X67024000Y-113450000I150000J0D01*
G01*
G37*
G36*
G01*
X68294000Y-113450000D02*
X68594000Y-113450000D01*
G75*
G02*
X68744000Y-113600000I0J-150000D01*
G01*
X68744000Y-115250000D01*
G75*
G02*
X68594000Y-115400000I-150000J0D01*
G01*
X68294000Y-115400000D01*
G75*
G02*
X68144000Y-115250000I0J150000D01*
G01*
X68144000Y-113600000D01*
G75*
G02*
X68294000Y-113450000I150000J0D01*
G01*
G37*
G36*
G01*
X69564000Y-113450000D02*
X69864000Y-113450000D01*
G75*
G02*
X70014000Y-113600000I0J-150000D01*
G01*
X70014000Y-115250000D01*
G75*
G02*
X69864000Y-115400000I-150000J0D01*
G01*
X69564000Y-115400000D01*
G75*
G02*
X69414000Y-115250000I0J150000D01*
G01*
X69414000Y-113600000D01*
G75*
G02*
X69564000Y-113450000I150000J0D01*
G01*
G37*
G36*
G01*
X70834000Y-113450000D02*
X71134000Y-113450000D01*
G75*
G02*
X71284000Y-113600000I0J-150000D01*
G01*
X71284000Y-115250000D01*
G75*
G02*
X71134000Y-115400000I-150000J0D01*
G01*
X70834000Y-115400000D01*
G75*
G02*
X70684000Y-115250000I0J150000D01*
G01*
X70684000Y-113600000D01*
G75*
G02*
X70834000Y-113450000I150000J0D01*
G01*
G37*
%TD*%
%TO.C,R23*%
G36*
G01*
X65798000Y-128475000D02*
X65248000Y-128475000D01*
G75*
G02*
X65048000Y-128275000I0J200000D01*
G01*
X65048000Y-127875000D01*
G75*
G02*
X65248000Y-127675000I200000J0D01*
G01*
X65798000Y-127675000D01*
G75*
G02*
X65998000Y-127875000I0J-200000D01*
G01*
X65998000Y-128275000D01*
G75*
G02*
X65798000Y-128475000I-200000J0D01*
G01*
G37*
G36*
G01*
X65798000Y-126825000D02*
X65248000Y-126825000D01*
G75*
G02*
X65048000Y-126625000I0J200000D01*
G01*
X65048000Y-126225000D01*
G75*
G02*
X65248000Y-126025000I200000J0D01*
G01*
X65798000Y-126025000D01*
G75*
G02*
X65998000Y-126225000I0J-200000D01*
G01*
X65998000Y-126625000D01*
G75*
G02*
X65798000Y-126825000I-200000J0D01*
G01*
G37*
%TD*%
%TO.C,R21*%
G36*
G01*
X60168000Y-120437000D02*
X60718000Y-120437000D01*
G75*
G02*
X60918000Y-120637000I0J-200000D01*
G01*
X60918000Y-121037000D01*
G75*
G02*
X60718000Y-121237000I-200000J0D01*
G01*
X60168000Y-121237000D01*
G75*
G02*
X59968000Y-121037000I0J200000D01*
G01*
X59968000Y-120637000D01*
G75*
G02*
X60168000Y-120437000I200000J0D01*
G01*
G37*
G36*
G01*
X60168000Y-118787000D02*
X60718000Y-118787000D01*
G75*
G02*
X60918000Y-118987000I0J-200000D01*
G01*
X60918000Y-119387000D01*
G75*
G02*
X60718000Y-119587000I-200000J0D01*
G01*
X60168000Y-119587000D01*
G75*
G02*
X59968000Y-119387000I0J200000D01*
G01*
X59968000Y-118987000D01*
G75*
G02*
X60168000Y-118787000I200000J0D01*
G01*
G37*
%TD*%
%TO.C,R19*%
G36*
G01*
X60718000Y-128476000D02*
X60168000Y-128476000D01*
G75*
G02*
X59968000Y-128276000I0J200000D01*
G01*
X59968000Y-127876000D01*
G75*
G02*
X60168000Y-127676000I200000J0D01*
G01*
X60718000Y-127676000D01*
G75*
G02*
X60918000Y-127876000I0J-200000D01*
G01*
X60918000Y-128276000D01*
G75*
G02*
X60718000Y-128476000I-200000J0D01*
G01*
G37*
G36*
G01*
X60718000Y-126826000D02*
X60168000Y-126826000D01*
G75*
G02*
X59968000Y-126626000I0J200000D01*
G01*
X59968000Y-126226000D01*
G75*
G02*
X60168000Y-126026000I200000J0D01*
G01*
X60718000Y-126026000D01*
G75*
G02*
X60918000Y-126226000I0J-200000D01*
G01*
X60918000Y-126626000D01*
G75*
G02*
X60718000Y-126826000I-200000J0D01*
G01*
G37*
%TD*%
%TO.C,R17*%
G36*
G01*
X65248000Y-120437000D02*
X65798000Y-120437000D01*
G75*
G02*
X65998000Y-120637000I0J-200000D01*
G01*
X65998000Y-121037000D01*
G75*
G02*
X65798000Y-121237000I-200000J0D01*
G01*
X65248000Y-121237000D01*
G75*
G02*
X65048000Y-121037000I0J200000D01*
G01*
X65048000Y-120637000D01*
G75*
G02*
X65248000Y-120437000I200000J0D01*
G01*
G37*
G36*
G01*
X65248000Y-118787000D02*
X65798000Y-118787000D01*
G75*
G02*
X65998000Y-118987000I0J-200000D01*
G01*
X65998000Y-119387000D01*
G75*
G02*
X65798000Y-119587000I-200000J0D01*
G01*
X65248000Y-119587000D01*
G75*
G02*
X65048000Y-119387000I0J200000D01*
G01*
X65048000Y-118987000D01*
G75*
G02*
X65248000Y-118787000I200000J0D01*
G01*
G37*
%TD*%
%TO.C,R15*%
G36*
G01*
X64145000Y-124626000D02*
X64145000Y-125176000D01*
G75*
G02*
X63945000Y-125376000I-200000J0D01*
G01*
X63545000Y-125376000D01*
G75*
G02*
X63345000Y-125176000I0J200000D01*
G01*
X63345000Y-124626000D01*
G75*
G02*
X63545000Y-124426000I200000J0D01*
G01*
X63945000Y-124426000D01*
G75*
G02*
X64145000Y-124626000I0J-200000D01*
G01*
G37*
G36*
G01*
X62495000Y-124626000D02*
X62495000Y-125176000D01*
G75*
G02*
X62295000Y-125376000I-200000J0D01*
G01*
X61895000Y-125376000D01*
G75*
G02*
X61695000Y-125176000I0J200000D01*
G01*
X61695000Y-124626000D01*
G75*
G02*
X61895000Y-124426000I200000J0D01*
G01*
X62295000Y-124426000D01*
G75*
G02*
X62495000Y-124626000I0J-200000D01*
G01*
G37*
%TD*%
%TO.C,R13*%
G36*
G01*
X63344000Y-122636000D02*
X63344000Y-122086000D01*
G75*
G02*
X63544000Y-121886000I200000J0D01*
G01*
X63944000Y-121886000D01*
G75*
G02*
X64144000Y-122086000I0J-200000D01*
G01*
X64144000Y-122636000D01*
G75*
G02*
X63944000Y-122836000I-200000J0D01*
G01*
X63544000Y-122836000D01*
G75*
G02*
X63344000Y-122636000I0J200000D01*
G01*
G37*
G36*
G01*
X61694000Y-122636000D02*
X61694000Y-122086000D01*
G75*
G02*
X61894000Y-121886000I200000J0D01*
G01*
X62294000Y-121886000D01*
G75*
G02*
X62494000Y-122086000I0J-200000D01*
G01*
X62494000Y-122636000D01*
G75*
G02*
X62294000Y-122836000I-200000J0D01*
G01*
X61894000Y-122836000D01*
G75*
G02*
X61694000Y-122636000I0J200000D01*
G01*
G37*
%TD*%
%TO.C,R11*%
G36*
G01*
X63345000Y-109174000D02*
X63345000Y-108624000D01*
G75*
G02*
X63545000Y-108424000I200000J0D01*
G01*
X63945000Y-108424000D01*
G75*
G02*
X64145000Y-108624000I0J-200000D01*
G01*
X64145000Y-109174000D01*
G75*
G02*
X63945000Y-109374000I-200000J0D01*
G01*
X63545000Y-109374000D01*
G75*
G02*
X63345000Y-109174000I0J200000D01*
G01*
G37*
G36*
G01*
X61695000Y-109174000D02*
X61695000Y-108624000D01*
G75*
G02*
X61895000Y-108424000I200000J0D01*
G01*
X62295000Y-108424000D01*
G75*
G02*
X62495000Y-108624000I0J-200000D01*
G01*
X62495000Y-109174000D01*
G75*
G02*
X62295000Y-109374000I-200000J0D01*
G01*
X61895000Y-109374000D01*
G75*
G02*
X61695000Y-109174000I0J200000D01*
G01*
G37*
%TD*%
%TO.C,R10*%
G36*
G01*
X62495000Y-111164000D02*
X62495000Y-111714000D01*
G75*
G02*
X62295000Y-111914000I-200000J0D01*
G01*
X61895000Y-111914000D01*
G75*
G02*
X61695000Y-111714000I0J200000D01*
G01*
X61695000Y-111164000D01*
G75*
G02*
X61895000Y-110964000I200000J0D01*
G01*
X62295000Y-110964000D01*
G75*
G02*
X62495000Y-111164000I0J-200000D01*
G01*
G37*
G36*
G01*
X64145000Y-111164000D02*
X64145000Y-111714000D01*
G75*
G02*
X63945000Y-111914000I-200000J0D01*
G01*
X63545000Y-111914000D01*
G75*
G02*
X63345000Y-111714000I0J200000D01*
G01*
X63345000Y-111164000D01*
G75*
G02*
X63545000Y-110964000I200000J0D01*
G01*
X63945000Y-110964000D01*
G75*
G02*
X64145000Y-111164000I0J-200000D01*
G01*
G37*
%TD*%
%TO.C,R7*%
G36*
G01*
X65798000Y-106124000D02*
X65248000Y-106124000D01*
G75*
G02*
X65048000Y-105924000I0J200000D01*
G01*
X65048000Y-105524000D01*
G75*
G02*
X65248000Y-105324000I200000J0D01*
G01*
X65798000Y-105324000D01*
G75*
G02*
X65998000Y-105524000I0J-200000D01*
G01*
X65998000Y-105924000D01*
G75*
G02*
X65798000Y-106124000I-200000J0D01*
G01*
G37*
G36*
G01*
X65798000Y-107774000D02*
X65248000Y-107774000D01*
G75*
G02*
X65048000Y-107574000I0J200000D01*
G01*
X65048000Y-107174000D01*
G75*
G02*
X65248000Y-106974000I200000J0D01*
G01*
X65798000Y-106974000D01*
G75*
G02*
X65998000Y-107174000I0J-200000D01*
G01*
X65998000Y-107574000D01*
G75*
G02*
X65798000Y-107774000I-200000J0D01*
G01*
G37*
%TD*%
%TO.C,R6*%
G36*
G01*
X60041000Y-114213000D02*
X60591000Y-114213000D01*
G75*
G02*
X60791000Y-114413000I0J-200000D01*
G01*
X60791000Y-114813000D01*
G75*
G02*
X60591000Y-115013000I-200000J0D01*
G01*
X60041000Y-115013000D01*
G75*
G02*
X59841000Y-114813000I0J200000D01*
G01*
X59841000Y-114413000D01*
G75*
G02*
X60041000Y-114213000I200000J0D01*
G01*
G37*
G36*
G01*
X60041000Y-112563000D02*
X60591000Y-112563000D01*
G75*
G02*
X60791000Y-112763000I0J-200000D01*
G01*
X60791000Y-113163000D01*
G75*
G02*
X60591000Y-113363000I-200000J0D01*
G01*
X60041000Y-113363000D01*
G75*
G02*
X59841000Y-113163000I0J200000D01*
G01*
X59841000Y-112763000D01*
G75*
G02*
X60041000Y-112563000I200000J0D01*
G01*
G37*
%TD*%
%TO.C,R3*%
G36*
G01*
X60041000Y-106975000D02*
X60591000Y-106975000D01*
G75*
G02*
X60791000Y-107175000I0J-200000D01*
G01*
X60791000Y-107575000D01*
G75*
G02*
X60591000Y-107775000I-200000J0D01*
G01*
X60041000Y-107775000D01*
G75*
G02*
X59841000Y-107575000I0J200000D01*
G01*
X59841000Y-107175000D01*
G75*
G02*
X60041000Y-106975000I200000J0D01*
G01*
G37*
G36*
G01*
X60041000Y-105325000D02*
X60591000Y-105325000D01*
G75*
G02*
X60791000Y-105525000I0J-200000D01*
G01*
X60791000Y-105925000D01*
G75*
G02*
X60591000Y-106125000I-200000J0D01*
G01*
X60041000Y-106125000D01*
G75*
G02*
X59841000Y-105925000I0J200000D01*
G01*
X59841000Y-105525000D01*
G75*
G02*
X60041000Y-105325000I200000J0D01*
G01*
G37*
%TD*%
%TO.C,R2*%
G36*
G01*
X65798000Y-113363000D02*
X65248000Y-113363000D01*
G75*
G02*
X65048000Y-113163000I0J200000D01*
G01*
X65048000Y-112763000D01*
G75*
G02*
X65248000Y-112563000I200000J0D01*
G01*
X65798000Y-112563000D01*
G75*
G02*
X65998000Y-112763000I0J-200000D01*
G01*
X65998000Y-113163000D01*
G75*
G02*
X65798000Y-113363000I-200000J0D01*
G01*
G37*
G36*
G01*
X65798000Y-115013000D02*
X65248000Y-115013000D01*
G75*
G02*
X65048000Y-114813000I0J200000D01*
G01*
X65048000Y-114413000D01*
G75*
G02*
X65248000Y-114213000I200000J0D01*
G01*
X65798000Y-114213000D01*
G75*
G02*
X65998000Y-114413000I0J-200000D01*
G01*
X65998000Y-114813000D01*
G75*
G02*
X65798000Y-115013000I-200000J0D01*
G01*
G37*
%TD*%
D10*
%TO.C,Q7*%
X63933000Y-126425000D03*
X62033000Y-126425000D03*
X62983000Y-128425000D03*
%TD*%
%TO.C,Q5*%
X62983000Y-118837000D03*
X63933000Y-120837000D03*
X62033000Y-120837000D03*
%TD*%
%TO.C,Q3*%
X62922000Y-105375000D03*
X63872000Y-107375000D03*
X61972000Y-107375000D03*
%TD*%
%TO.C,Q2*%
X62917000Y-114963000D03*
X61967000Y-112963000D03*
X63867000Y-112963000D03*
%TD*%
%TO.C,C5*%
G36*
G01*
X68741000Y-121857000D02*
X68741000Y-122357000D01*
G75*
G02*
X68516000Y-122582000I-225000J0D01*
G01*
X68066000Y-122582000D01*
G75*
G02*
X67841000Y-122357000I0J225000D01*
G01*
X67841000Y-121857000D01*
G75*
G02*
X68066000Y-121632000I225000J0D01*
G01*
X68516000Y-121632000D01*
G75*
G02*
X68741000Y-121857000I0J-225000D01*
G01*
G37*
G36*
G01*
X70291000Y-121857000D02*
X70291000Y-122357000D01*
G75*
G02*
X70066000Y-122582000I-225000J0D01*
G01*
X69616000Y-122582000D01*
G75*
G02*
X69391000Y-122357000I0J225000D01*
G01*
X69391000Y-121857000D01*
G75*
G02*
X69616000Y-121632000I225000J0D01*
G01*
X70066000Y-121632000D01*
G75*
G02*
X70291000Y-121857000I0J-225000D01*
G01*
G37*
%TD*%
%TO.C,C3*%
G36*
G01*
X68741000Y-111443000D02*
X68741000Y-111943000D01*
G75*
G02*
X68516000Y-112168000I-225000J0D01*
G01*
X68066000Y-112168000D01*
G75*
G02*
X67841000Y-111943000I0J225000D01*
G01*
X67841000Y-111443000D01*
G75*
G02*
X68066000Y-111218000I225000J0D01*
G01*
X68516000Y-111218000D01*
G75*
G02*
X68741000Y-111443000I0J-225000D01*
G01*
G37*
G36*
G01*
X70291000Y-111443000D02*
X70291000Y-111943000D01*
G75*
G02*
X70066000Y-112168000I-225000J0D01*
G01*
X69616000Y-112168000D01*
G75*
G02*
X69391000Y-111943000I0J225000D01*
G01*
X69391000Y-111443000D01*
G75*
G02*
X69616000Y-111218000I225000J0D01*
G01*
X70066000Y-111218000D01*
G75*
G02*
X70291000Y-111443000I0J-225000D01*
G01*
G37*
%TD*%
M02*
