M48
; DRILL file {KiCad (5.1.10)-1} date 01/20/22 20:18:58
; FORMAT={3:3/ absolute / metric / keep zeros}
; #@! TF.CreationDate,2022-01-20T20:18:58+07:00
; #@! TF.GenerationSoftware,Kicad,Pcbnew,(5.1.10)-1
; #@! TF.FileFunction,NonPlated,1,4,NPTH
FMAT,2
METRIC
T1C1.524
T2C2.000
T3C2.290
%
G90
G05
T1
X067936Y-116900
X070222Y-116900
X080436Y-116900
X082722Y-116900
X092936Y-116900
X095222Y-116900
X105436Y-116900
X107722Y-116900
T2
X071800Y-091835
X071800Y-097042
X071927Y-102249
T3
G00X073517Y-089422
M15
G01X075036Y-089422
M16
G05
G00X081073Y-089422
M15
G01X082593Y-089422
M16
G05
G00X094027Y-089422
M15
G01X095547Y-089422
M16
G05
G00X101647Y-089422
M15
G01X103167Y-089422
M16
G05
G00X105201Y-081678
M15
G01X105201Y-084848
M16
G05
T0
M30
