%TF.GenerationSoftware,KiCad,Pcbnew,(5.1.10)-1*%
%TF.CreationDate,2022-01-19T08:45:22+07:00*%
%TF.ProjectId,PCB_4x_pnlz1_3,5043425f-3478-45f7-906e-6c7a315f332e,rev?*%
%TF.SameCoordinates,Original*%
%TF.FileFunction,Paste,Top*%
%TF.FilePolarity,Positive*%
%FSLAX46Y46*%
G04 Gerber Fmt 4.6, Leading zero omitted, Abs format (unit mm)*
G04 Created by KiCad (PCBNEW (5.1.10)-1) date 2022-01-19 08:45:22*
%MOMM*%
%LPD*%
G01*
G04 APERTURE LIST*
%ADD10R,0.800000X0.900000*%
%ADD11R,1.800000X0.650000*%
%ADD12R,0.400000X3.200000*%
%ADD13R,0.450000X0.600000*%
%ADD14R,0.900000X0.800000*%
%ADD15R,1.100000X0.400000*%
G04 APERTURE END LIST*
%TO.C,C3*%
G36*
G01*
X96391000Y-110443000D02*
X96391000Y-110943000D01*
G75*
G02*
X96166000Y-111168000I-225000J0D01*
G01*
X95716000Y-111168000D01*
G75*
G02*
X95491000Y-110943000I0J225000D01*
G01*
X95491000Y-110443000D01*
G75*
G02*
X95716000Y-110218000I225000J0D01*
G01*
X96166000Y-110218000D01*
G75*
G02*
X96391000Y-110443000I0J-225000D01*
G01*
G37*
G36*
G01*
X94841000Y-110443000D02*
X94841000Y-110943000D01*
G75*
G02*
X94616000Y-111168000I-225000J0D01*
G01*
X94166000Y-111168000D01*
G75*
G02*
X93941000Y-110943000I0J225000D01*
G01*
X93941000Y-110443000D01*
G75*
G02*
X94166000Y-110218000I225000J0D01*
G01*
X94616000Y-110218000D01*
G75*
G02*
X94841000Y-110443000I0J-225000D01*
G01*
G37*
%TD*%
%TO.C,C3*%
G36*
G01*
X83891000Y-110443000D02*
X83891000Y-110943000D01*
G75*
G02*
X83666000Y-111168000I-225000J0D01*
G01*
X83216000Y-111168000D01*
G75*
G02*
X82991000Y-110943000I0J225000D01*
G01*
X82991000Y-110443000D01*
G75*
G02*
X83216000Y-110218000I225000J0D01*
G01*
X83666000Y-110218000D01*
G75*
G02*
X83891000Y-110443000I0J-225000D01*
G01*
G37*
G36*
G01*
X82341000Y-110443000D02*
X82341000Y-110943000D01*
G75*
G02*
X82116000Y-111168000I-225000J0D01*
G01*
X81666000Y-111168000D01*
G75*
G02*
X81441000Y-110943000I0J225000D01*
G01*
X81441000Y-110443000D01*
G75*
G02*
X81666000Y-110218000I225000J0D01*
G01*
X82116000Y-110218000D01*
G75*
G02*
X82341000Y-110443000I0J-225000D01*
G01*
G37*
%TD*%
%TO.C,C3*%
G36*
G01*
X71391000Y-110443000D02*
X71391000Y-110943000D01*
G75*
G02*
X71166000Y-111168000I-225000J0D01*
G01*
X70716000Y-111168000D01*
G75*
G02*
X70491000Y-110943000I0J225000D01*
G01*
X70491000Y-110443000D01*
G75*
G02*
X70716000Y-110218000I225000J0D01*
G01*
X71166000Y-110218000D01*
G75*
G02*
X71391000Y-110443000I0J-225000D01*
G01*
G37*
G36*
G01*
X69841000Y-110443000D02*
X69841000Y-110943000D01*
G75*
G02*
X69616000Y-111168000I-225000J0D01*
G01*
X69166000Y-111168000D01*
G75*
G02*
X68941000Y-110943000I0J225000D01*
G01*
X68941000Y-110443000D01*
G75*
G02*
X69166000Y-110218000I225000J0D01*
G01*
X69616000Y-110218000D01*
G75*
G02*
X69841000Y-110443000I0J-225000D01*
G01*
G37*
%TD*%
%TO.C,C5*%
G36*
G01*
X96391000Y-120857000D02*
X96391000Y-121357000D01*
G75*
G02*
X96166000Y-121582000I-225000J0D01*
G01*
X95716000Y-121582000D01*
G75*
G02*
X95491000Y-121357000I0J225000D01*
G01*
X95491000Y-120857000D01*
G75*
G02*
X95716000Y-120632000I225000J0D01*
G01*
X96166000Y-120632000D01*
G75*
G02*
X96391000Y-120857000I0J-225000D01*
G01*
G37*
G36*
G01*
X94841000Y-120857000D02*
X94841000Y-121357000D01*
G75*
G02*
X94616000Y-121582000I-225000J0D01*
G01*
X94166000Y-121582000D01*
G75*
G02*
X93941000Y-121357000I0J225000D01*
G01*
X93941000Y-120857000D01*
G75*
G02*
X94166000Y-120632000I225000J0D01*
G01*
X94616000Y-120632000D01*
G75*
G02*
X94841000Y-120857000I0J-225000D01*
G01*
G37*
%TD*%
%TO.C,C5*%
G36*
G01*
X83891000Y-120857000D02*
X83891000Y-121357000D01*
G75*
G02*
X83666000Y-121582000I-225000J0D01*
G01*
X83216000Y-121582000D01*
G75*
G02*
X82991000Y-121357000I0J225000D01*
G01*
X82991000Y-120857000D01*
G75*
G02*
X83216000Y-120632000I225000J0D01*
G01*
X83666000Y-120632000D01*
G75*
G02*
X83891000Y-120857000I0J-225000D01*
G01*
G37*
G36*
G01*
X82341000Y-120857000D02*
X82341000Y-121357000D01*
G75*
G02*
X82116000Y-121582000I-225000J0D01*
G01*
X81666000Y-121582000D01*
G75*
G02*
X81441000Y-121357000I0J225000D01*
G01*
X81441000Y-120857000D01*
G75*
G02*
X81666000Y-120632000I225000J0D01*
G01*
X82116000Y-120632000D01*
G75*
G02*
X82341000Y-120857000I0J-225000D01*
G01*
G37*
%TD*%
%TO.C,C5*%
G36*
G01*
X71391000Y-120857000D02*
X71391000Y-121357000D01*
G75*
G02*
X71166000Y-121582000I-225000J0D01*
G01*
X70716000Y-121582000D01*
G75*
G02*
X70491000Y-121357000I0J225000D01*
G01*
X70491000Y-120857000D01*
G75*
G02*
X70716000Y-120632000I225000J0D01*
G01*
X71166000Y-120632000D01*
G75*
G02*
X71391000Y-120857000I0J-225000D01*
G01*
G37*
G36*
G01*
X69841000Y-120857000D02*
X69841000Y-121357000D01*
G75*
G02*
X69616000Y-121582000I-225000J0D01*
G01*
X69166000Y-121582000D01*
G75*
G02*
X68941000Y-121357000I0J225000D01*
G01*
X68941000Y-120857000D01*
G75*
G02*
X69166000Y-120632000I225000J0D01*
G01*
X69616000Y-120632000D01*
G75*
G02*
X69841000Y-120857000I0J-225000D01*
G01*
G37*
%TD*%
D10*
%TO.C,Q2*%
X89967000Y-111963000D03*
X88067000Y-111963000D03*
X89017000Y-113963000D03*
%TD*%
%TO.C,Q2*%
X77467000Y-111963000D03*
X75567000Y-111963000D03*
X76517000Y-113963000D03*
%TD*%
%TO.C,Q2*%
X64967000Y-111963000D03*
X63067000Y-111963000D03*
X64017000Y-113963000D03*
%TD*%
%TO.C,Q3*%
X88072000Y-106375000D03*
X89972000Y-106375000D03*
X89022000Y-104375000D03*
%TD*%
%TO.C,Q3*%
X75572000Y-106375000D03*
X77472000Y-106375000D03*
X76522000Y-104375000D03*
%TD*%
%TO.C,Q3*%
X63072000Y-106375000D03*
X64972000Y-106375000D03*
X64022000Y-104375000D03*
%TD*%
%TO.C,Q5*%
X88133000Y-119837000D03*
X90033000Y-119837000D03*
X89083000Y-117837000D03*
%TD*%
%TO.C,Q5*%
X75633000Y-119837000D03*
X77533000Y-119837000D03*
X76583000Y-117837000D03*
%TD*%
%TO.C,Q5*%
X63133000Y-119837000D03*
X65033000Y-119837000D03*
X64083000Y-117837000D03*
%TD*%
%TO.C,Q7*%
X89083000Y-127425000D03*
X88133000Y-125425000D03*
X90033000Y-125425000D03*
%TD*%
%TO.C,Q7*%
X76583000Y-127425000D03*
X75633000Y-125425000D03*
X77533000Y-125425000D03*
%TD*%
%TO.C,Q7*%
X64083000Y-127425000D03*
X63133000Y-125425000D03*
X65033000Y-125425000D03*
%TD*%
%TO.C,R2*%
G36*
G01*
X91898000Y-114013000D02*
X91348000Y-114013000D01*
G75*
G02*
X91148000Y-113813000I0J200000D01*
G01*
X91148000Y-113413000D01*
G75*
G02*
X91348000Y-113213000I200000J0D01*
G01*
X91898000Y-113213000D01*
G75*
G02*
X92098000Y-113413000I0J-200000D01*
G01*
X92098000Y-113813000D01*
G75*
G02*
X91898000Y-114013000I-200000J0D01*
G01*
G37*
G36*
G01*
X91898000Y-112363000D02*
X91348000Y-112363000D01*
G75*
G02*
X91148000Y-112163000I0J200000D01*
G01*
X91148000Y-111763000D01*
G75*
G02*
X91348000Y-111563000I200000J0D01*
G01*
X91898000Y-111563000D01*
G75*
G02*
X92098000Y-111763000I0J-200000D01*
G01*
X92098000Y-112163000D01*
G75*
G02*
X91898000Y-112363000I-200000J0D01*
G01*
G37*
%TD*%
%TO.C,R2*%
G36*
G01*
X79398000Y-114013000D02*
X78848000Y-114013000D01*
G75*
G02*
X78648000Y-113813000I0J200000D01*
G01*
X78648000Y-113413000D01*
G75*
G02*
X78848000Y-113213000I200000J0D01*
G01*
X79398000Y-113213000D01*
G75*
G02*
X79598000Y-113413000I0J-200000D01*
G01*
X79598000Y-113813000D01*
G75*
G02*
X79398000Y-114013000I-200000J0D01*
G01*
G37*
G36*
G01*
X79398000Y-112363000D02*
X78848000Y-112363000D01*
G75*
G02*
X78648000Y-112163000I0J200000D01*
G01*
X78648000Y-111763000D01*
G75*
G02*
X78848000Y-111563000I200000J0D01*
G01*
X79398000Y-111563000D01*
G75*
G02*
X79598000Y-111763000I0J-200000D01*
G01*
X79598000Y-112163000D01*
G75*
G02*
X79398000Y-112363000I-200000J0D01*
G01*
G37*
%TD*%
%TO.C,R2*%
G36*
G01*
X66898000Y-114013000D02*
X66348000Y-114013000D01*
G75*
G02*
X66148000Y-113813000I0J200000D01*
G01*
X66148000Y-113413000D01*
G75*
G02*
X66348000Y-113213000I200000J0D01*
G01*
X66898000Y-113213000D01*
G75*
G02*
X67098000Y-113413000I0J-200000D01*
G01*
X67098000Y-113813000D01*
G75*
G02*
X66898000Y-114013000I-200000J0D01*
G01*
G37*
G36*
G01*
X66898000Y-112363000D02*
X66348000Y-112363000D01*
G75*
G02*
X66148000Y-112163000I0J200000D01*
G01*
X66148000Y-111763000D01*
G75*
G02*
X66348000Y-111563000I200000J0D01*
G01*
X66898000Y-111563000D01*
G75*
G02*
X67098000Y-111763000I0J-200000D01*
G01*
X67098000Y-112163000D01*
G75*
G02*
X66898000Y-112363000I-200000J0D01*
G01*
G37*
%TD*%
%TO.C,R3*%
G36*
G01*
X86141000Y-104325000D02*
X86691000Y-104325000D01*
G75*
G02*
X86891000Y-104525000I0J-200000D01*
G01*
X86891000Y-104925000D01*
G75*
G02*
X86691000Y-105125000I-200000J0D01*
G01*
X86141000Y-105125000D01*
G75*
G02*
X85941000Y-104925000I0J200000D01*
G01*
X85941000Y-104525000D01*
G75*
G02*
X86141000Y-104325000I200000J0D01*
G01*
G37*
G36*
G01*
X86141000Y-105975000D02*
X86691000Y-105975000D01*
G75*
G02*
X86891000Y-106175000I0J-200000D01*
G01*
X86891000Y-106575000D01*
G75*
G02*
X86691000Y-106775000I-200000J0D01*
G01*
X86141000Y-106775000D01*
G75*
G02*
X85941000Y-106575000I0J200000D01*
G01*
X85941000Y-106175000D01*
G75*
G02*
X86141000Y-105975000I200000J0D01*
G01*
G37*
%TD*%
%TO.C,R3*%
G36*
G01*
X73641000Y-104325000D02*
X74191000Y-104325000D01*
G75*
G02*
X74391000Y-104525000I0J-200000D01*
G01*
X74391000Y-104925000D01*
G75*
G02*
X74191000Y-105125000I-200000J0D01*
G01*
X73641000Y-105125000D01*
G75*
G02*
X73441000Y-104925000I0J200000D01*
G01*
X73441000Y-104525000D01*
G75*
G02*
X73641000Y-104325000I200000J0D01*
G01*
G37*
G36*
G01*
X73641000Y-105975000D02*
X74191000Y-105975000D01*
G75*
G02*
X74391000Y-106175000I0J-200000D01*
G01*
X74391000Y-106575000D01*
G75*
G02*
X74191000Y-106775000I-200000J0D01*
G01*
X73641000Y-106775000D01*
G75*
G02*
X73441000Y-106575000I0J200000D01*
G01*
X73441000Y-106175000D01*
G75*
G02*
X73641000Y-105975000I200000J0D01*
G01*
G37*
%TD*%
%TO.C,R3*%
G36*
G01*
X61141000Y-104325000D02*
X61691000Y-104325000D01*
G75*
G02*
X61891000Y-104525000I0J-200000D01*
G01*
X61891000Y-104925000D01*
G75*
G02*
X61691000Y-105125000I-200000J0D01*
G01*
X61141000Y-105125000D01*
G75*
G02*
X60941000Y-104925000I0J200000D01*
G01*
X60941000Y-104525000D01*
G75*
G02*
X61141000Y-104325000I200000J0D01*
G01*
G37*
G36*
G01*
X61141000Y-105975000D02*
X61691000Y-105975000D01*
G75*
G02*
X61891000Y-106175000I0J-200000D01*
G01*
X61891000Y-106575000D01*
G75*
G02*
X61691000Y-106775000I-200000J0D01*
G01*
X61141000Y-106775000D01*
G75*
G02*
X60941000Y-106575000I0J200000D01*
G01*
X60941000Y-106175000D01*
G75*
G02*
X61141000Y-105975000I200000J0D01*
G01*
G37*
%TD*%
%TO.C,R6*%
G36*
G01*
X86141000Y-111563000D02*
X86691000Y-111563000D01*
G75*
G02*
X86891000Y-111763000I0J-200000D01*
G01*
X86891000Y-112163000D01*
G75*
G02*
X86691000Y-112363000I-200000J0D01*
G01*
X86141000Y-112363000D01*
G75*
G02*
X85941000Y-112163000I0J200000D01*
G01*
X85941000Y-111763000D01*
G75*
G02*
X86141000Y-111563000I200000J0D01*
G01*
G37*
G36*
G01*
X86141000Y-113213000D02*
X86691000Y-113213000D01*
G75*
G02*
X86891000Y-113413000I0J-200000D01*
G01*
X86891000Y-113813000D01*
G75*
G02*
X86691000Y-114013000I-200000J0D01*
G01*
X86141000Y-114013000D01*
G75*
G02*
X85941000Y-113813000I0J200000D01*
G01*
X85941000Y-113413000D01*
G75*
G02*
X86141000Y-113213000I200000J0D01*
G01*
G37*
%TD*%
%TO.C,R6*%
G36*
G01*
X73641000Y-111563000D02*
X74191000Y-111563000D01*
G75*
G02*
X74391000Y-111763000I0J-200000D01*
G01*
X74391000Y-112163000D01*
G75*
G02*
X74191000Y-112363000I-200000J0D01*
G01*
X73641000Y-112363000D01*
G75*
G02*
X73441000Y-112163000I0J200000D01*
G01*
X73441000Y-111763000D01*
G75*
G02*
X73641000Y-111563000I200000J0D01*
G01*
G37*
G36*
G01*
X73641000Y-113213000D02*
X74191000Y-113213000D01*
G75*
G02*
X74391000Y-113413000I0J-200000D01*
G01*
X74391000Y-113813000D01*
G75*
G02*
X74191000Y-114013000I-200000J0D01*
G01*
X73641000Y-114013000D01*
G75*
G02*
X73441000Y-113813000I0J200000D01*
G01*
X73441000Y-113413000D01*
G75*
G02*
X73641000Y-113213000I200000J0D01*
G01*
G37*
%TD*%
%TO.C,R6*%
G36*
G01*
X61141000Y-111563000D02*
X61691000Y-111563000D01*
G75*
G02*
X61891000Y-111763000I0J-200000D01*
G01*
X61891000Y-112163000D01*
G75*
G02*
X61691000Y-112363000I-200000J0D01*
G01*
X61141000Y-112363000D01*
G75*
G02*
X60941000Y-112163000I0J200000D01*
G01*
X60941000Y-111763000D01*
G75*
G02*
X61141000Y-111563000I200000J0D01*
G01*
G37*
G36*
G01*
X61141000Y-113213000D02*
X61691000Y-113213000D01*
G75*
G02*
X61891000Y-113413000I0J-200000D01*
G01*
X61891000Y-113813000D01*
G75*
G02*
X61691000Y-114013000I-200000J0D01*
G01*
X61141000Y-114013000D01*
G75*
G02*
X60941000Y-113813000I0J200000D01*
G01*
X60941000Y-113413000D01*
G75*
G02*
X61141000Y-113213000I200000J0D01*
G01*
G37*
%TD*%
%TO.C,R7*%
G36*
G01*
X91898000Y-106774000D02*
X91348000Y-106774000D01*
G75*
G02*
X91148000Y-106574000I0J200000D01*
G01*
X91148000Y-106174000D01*
G75*
G02*
X91348000Y-105974000I200000J0D01*
G01*
X91898000Y-105974000D01*
G75*
G02*
X92098000Y-106174000I0J-200000D01*
G01*
X92098000Y-106574000D01*
G75*
G02*
X91898000Y-106774000I-200000J0D01*
G01*
G37*
G36*
G01*
X91898000Y-105124000D02*
X91348000Y-105124000D01*
G75*
G02*
X91148000Y-104924000I0J200000D01*
G01*
X91148000Y-104524000D01*
G75*
G02*
X91348000Y-104324000I200000J0D01*
G01*
X91898000Y-104324000D01*
G75*
G02*
X92098000Y-104524000I0J-200000D01*
G01*
X92098000Y-104924000D01*
G75*
G02*
X91898000Y-105124000I-200000J0D01*
G01*
G37*
%TD*%
%TO.C,R7*%
G36*
G01*
X79398000Y-106774000D02*
X78848000Y-106774000D01*
G75*
G02*
X78648000Y-106574000I0J200000D01*
G01*
X78648000Y-106174000D01*
G75*
G02*
X78848000Y-105974000I200000J0D01*
G01*
X79398000Y-105974000D01*
G75*
G02*
X79598000Y-106174000I0J-200000D01*
G01*
X79598000Y-106574000D01*
G75*
G02*
X79398000Y-106774000I-200000J0D01*
G01*
G37*
G36*
G01*
X79398000Y-105124000D02*
X78848000Y-105124000D01*
G75*
G02*
X78648000Y-104924000I0J200000D01*
G01*
X78648000Y-104524000D01*
G75*
G02*
X78848000Y-104324000I200000J0D01*
G01*
X79398000Y-104324000D01*
G75*
G02*
X79598000Y-104524000I0J-200000D01*
G01*
X79598000Y-104924000D01*
G75*
G02*
X79398000Y-105124000I-200000J0D01*
G01*
G37*
%TD*%
%TO.C,R7*%
G36*
G01*
X66898000Y-106774000D02*
X66348000Y-106774000D01*
G75*
G02*
X66148000Y-106574000I0J200000D01*
G01*
X66148000Y-106174000D01*
G75*
G02*
X66348000Y-105974000I200000J0D01*
G01*
X66898000Y-105974000D01*
G75*
G02*
X67098000Y-106174000I0J-200000D01*
G01*
X67098000Y-106574000D01*
G75*
G02*
X66898000Y-106774000I-200000J0D01*
G01*
G37*
G36*
G01*
X66898000Y-105124000D02*
X66348000Y-105124000D01*
G75*
G02*
X66148000Y-104924000I0J200000D01*
G01*
X66148000Y-104524000D01*
G75*
G02*
X66348000Y-104324000I200000J0D01*
G01*
X66898000Y-104324000D01*
G75*
G02*
X67098000Y-104524000I0J-200000D01*
G01*
X67098000Y-104924000D01*
G75*
G02*
X66898000Y-105124000I-200000J0D01*
G01*
G37*
%TD*%
%TO.C,R10*%
G36*
G01*
X90245000Y-110164000D02*
X90245000Y-110714000D01*
G75*
G02*
X90045000Y-110914000I-200000J0D01*
G01*
X89645000Y-110914000D01*
G75*
G02*
X89445000Y-110714000I0J200000D01*
G01*
X89445000Y-110164000D01*
G75*
G02*
X89645000Y-109964000I200000J0D01*
G01*
X90045000Y-109964000D01*
G75*
G02*
X90245000Y-110164000I0J-200000D01*
G01*
G37*
G36*
G01*
X88595000Y-110164000D02*
X88595000Y-110714000D01*
G75*
G02*
X88395000Y-110914000I-200000J0D01*
G01*
X87995000Y-110914000D01*
G75*
G02*
X87795000Y-110714000I0J200000D01*
G01*
X87795000Y-110164000D01*
G75*
G02*
X87995000Y-109964000I200000J0D01*
G01*
X88395000Y-109964000D01*
G75*
G02*
X88595000Y-110164000I0J-200000D01*
G01*
G37*
%TD*%
%TO.C,R10*%
G36*
G01*
X77745000Y-110164000D02*
X77745000Y-110714000D01*
G75*
G02*
X77545000Y-110914000I-200000J0D01*
G01*
X77145000Y-110914000D01*
G75*
G02*
X76945000Y-110714000I0J200000D01*
G01*
X76945000Y-110164000D01*
G75*
G02*
X77145000Y-109964000I200000J0D01*
G01*
X77545000Y-109964000D01*
G75*
G02*
X77745000Y-110164000I0J-200000D01*
G01*
G37*
G36*
G01*
X76095000Y-110164000D02*
X76095000Y-110714000D01*
G75*
G02*
X75895000Y-110914000I-200000J0D01*
G01*
X75495000Y-110914000D01*
G75*
G02*
X75295000Y-110714000I0J200000D01*
G01*
X75295000Y-110164000D01*
G75*
G02*
X75495000Y-109964000I200000J0D01*
G01*
X75895000Y-109964000D01*
G75*
G02*
X76095000Y-110164000I0J-200000D01*
G01*
G37*
%TD*%
%TO.C,R10*%
G36*
G01*
X65245000Y-110164000D02*
X65245000Y-110714000D01*
G75*
G02*
X65045000Y-110914000I-200000J0D01*
G01*
X64645000Y-110914000D01*
G75*
G02*
X64445000Y-110714000I0J200000D01*
G01*
X64445000Y-110164000D01*
G75*
G02*
X64645000Y-109964000I200000J0D01*
G01*
X65045000Y-109964000D01*
G75*
G02*
X65245000Y-110164000I0J-200000D01*
G01*
G37*
G36*
G01*
X63595000Y-110164000D02*
X63595000Y-110714000D01*
G75*
G02*
X63395000Y-110914000I-200000J0D01*
G01*
X62995000Y-110914000D01*
G75*
G02*
X62795000Y-110714000I0J200000D01*
G01*
X62795000Y-110164000D01*
G75*
G02*
X62995000Y-109964000I200000J0D01*
G01*
X63395000Y-109964000D01*
G75*
G02*
X63595000Y-110164000I0J-200000D01*
G01*
G37*
%TD*%
%TO.C,R11*%
G36*
G01*
X87795000Y-108174000D02*
X87795000Y-107624000D01*
G75*
G02*
X87995000Y-107424000I200000J0D01*
G01*
X88395000Y-107424000D01*
G75*
G02*
X88595000Y-107624000I0J-200000D01*
G01*
X88595000Y-108174000D01*
G75*
G02*
X88395000Y-108374000I-200000J0D01*
G01*
X87995000Y-108374000D01*
G75*
G02*
X87795000Y-108174000I0J200000D01*
G01*
G37*
G36*
G01*
X89445000Y-108174000D02*
X89445000Y-107624000D01*
G75*
G02*
X89645000Y-107424000I200000J0D01*
G01*
X90045000Y-107424000D01*
G75*
G02*
X90245000Y-107624000I0J-200000D01*
G01*
X90245000Y-108174000D01*
G75*
G02*
X90045000Y-108374000I-200000J0D01*
G01*
X89645000Y-108374000D01*
G75*
G02*
X89445000Y-108174000I0J200000D01*
G01*
G37*
%TD*%
%TO.C,R11*%
G36*
G01*
X75295000Y-108174000D02*
X75295000Y-107624000D01*
G75*
G02*
X75495000Y-107424000I200000J0D01*
G01*
X75895000Y-107424000D01*
G75*
G02*
X76095000Y-107624000I0J-200000D01*
G01*
X76095000Y-108174000D01*
G75*
G02*
X75895000Y-108374000I-200000J0D01*
G01*
X75495000Y-108374000D01*
G75*
G02*
X75295000Y-108174000I0J200000D01*
G01*
G37*
G36*
G01*
X76945000Y-108174000D02*
X76945000Y-107624000D01*
G75*
G02*
X77145000Y-107424000I200000J0D01*
G01*
X77545000Y-107424000D01*
G75*
G02*
X77745000Y-107624000I0J-200000D01*
G01*
X77745000Y-108174000D01*
G75*
G02*
X77545000Y-108374000I-200000J0D01*
G01*
X77145000Y-108374000D01*
G75*
G02*
X76945000Y-108174000I0J200000D01*
G01*
G37*
%TD*%
%TO.C,R11*%
G36*
G01*
X62795000Y-108174000D02*
X62795000Y-107624000D01*
G75*
G02*
X62995000Y-107424000I200000J0D01*
G01*
X63395000Y-107424000D01*
G75*
G02*
X63595000Y-107624000I0J-200000D01*
G01*
X63595000Y-108174000D01*
G75*
G02*
X63395000Y-108374000I-200000J0D01*
G01*
X62995000Y-108374000D01*
G75*
G02*
X62795000Y-108174000I0J200000D01*
G01*
G37*
G36*
G01*
X64445000Y-108174000D02*
X64445000Y-107624000D01*
G75*
G02*
X64645000Y-107424000I200000J0D01*
G01*
X65045000Y-107424000D01*
G75*
G02*
X65245000Y-107624000I0J-200000D01*
G01*
X65245000Y-108174000D01*
G75*
G02*
X65045000Y-108374000I-200000J0D01*
G01*
X64645000Y-108374000D01*
G75*
G02*
X64445000Y-108174000I0J200000D01*
G01*
G37*
%TD*%
%TO.C,R13*%
G36*
G01*
X87794000Y-121636000D02*
X87794000Y-121086000D01*
G75*
G02*
X87994000Y-120886000I200000J0D01*
G01*
X88394000Y-120886000D01*
G75*
G02*
X88594000Y-121086000I0J-200000D01*
G01*
X88594000Y-121636000D01*
G75*
G02*
X88394000Y-121836000I-200000J0D01*
G01*
X87994000Y-121836000D01*
G75*
G02*
X87794000Y-121636000I0J200000D01*
G01*
G37*
G36*
G01*
X89444000Y-121636000D02*
X89444000Y-121086000D01*
G75*
G02*
X89644000Y-120886000I200000J0D01*
G01*
X90044000Y-120886000D01*
G75*
G02*
X90244000Y-121086000I0J-200000D01*
G01*
X90244000Y-121636000D01*
G75*
G02*
X90044000Y-121836000I-200000J0D01*
G01*
X89644000Y-121836000D01*
G75*
G02*
X89444000Y-121636000I0J200000D01*
G01*
G37*
%TD*%
%TO.C,R13*%
G36*
G01*
X75294000Y-121636000D02*
X75294000Y-121086000D01*
G75*
G02*
X75494000Y-120886000I200000J0D01*
G01*
X75894000Y-120886000D01*
G75*
G02*
X76094000Y-121086000I0J-200000D01*
G01*
X76094000Y-121636000D01*
G75*
G02*
X75894000Y-121836000I-200000J0D01*
G01*
X75494000Y-121836000D01*
G75*
G02*
X75294000Y-121636000I0J200000D01*
G01*
G37*
G36*
G01*
X76944000Y-121636000D02*
X76944000Y-121086000D01*
G75*
G02*
X77144000Y-120886000I200000J0D01*
G01*
X77544000Y-120886000D01*
G75*
G02*
X77744000Y-121086000I0J-200000D01*
G01*
X77744000Y-121636000D01*
G75*
G02*
X77544000Y-121836000I-200000J0D01*
G01*
X77144000Y-121836000D01*
G75*
G02*
X76944000Y-121636000I0J200000D01*
G01*
G37*
%TD*%
%TO.C,R13*%
G36*
G01*
X62794000Y-121636000D02*
X62794000Y-121086000D01*
G75*
G02*
X62994000Y-120886000I200000J0D01*
G01*
X63394000Y-120886000D01*
G75*
G02*
X63594000Y-121086000I0J-200000D01*
G01*
X63594000Y-121636000D01*
G75*
G02*
X63394000Y-121836000I-200000J0D01*
G01*
X62994000Y-121836000D01*
G75*
G02*
X62794000Y-121636000I0J200000D01*
G01*
G37*
G36*
G01*
X64444000Y-121636000D02*
X64444000Y-121086000D01*
G75*
G02*
X64644000Y-120886000I200000J0D01*
G01*
X65044000Y-120886000D01*
G75*
G02*
X65244000Y-121086000I0J-200000D01*
G01*
X65244000Y-121636000D01*
G75*
G02*
X65044000Y-121836000I-200000J0D01*
G01*
X64644000Y-121836000D01*
G75*
G02*
X64444000Y-121636000I0J200000D01*
G01*
G37*
%TD*%
%TO.C,R15*%
G36*
G01*
X88595000Y-123626000D02*
X88595000Y-124176000D01*
G75*
G02*
X88395000Y-124376000I-200000J0D01*
G01*
X87995000Y-124376000D01*
G75*
G02*
X87795000Y-124176000I0J200000D01*
G01*
X87795000Y-123626000D01*
G75*
G02*
X87995000Y-123426000I200000J0D01*
G01*
X88395000Y-123426000D01*
G75*
G02*
X88595000Y-123626000I0J-200000D01*
G01*
G37*
G36*
G01*
X90245000Y-123626000D02*
X90245000Y-124176000D01*
G75*
G02*
X90045000Y-124376000I-200000J0D01*
G01*
X89645000Y-124376000D01*
G75*
G02*
X89445000Y-124176000I0J200000D01*
G01*
X89445000Y-123626000D01*
G75*
G02*
X89645000Y-123426000I200000J0D01*
G01*
X90045000Y-123426000D01*
G75*
G02*
X90245000Y-123626000I0J-200000D01*
G01*
G37*
%TD*%
%TO.C,R15*%
G36*
G01*
X76095000Y-123626000D02*
X76095000Y-124176000D01*
G75*
G02*
X75895000Y-124376000I-200000J0D01*
G01*
X75495000Y-124376000D01*
G75*
G02*
X75295000Y-124176000I0J200000D01*
G01*
X75295000Y-123626000D01*
G75*
G02*
X75495000Y-123426000I200000J0D01*
G01*
X75895000Y-123426000D01*
G75*
G02*
X76095000Y-123626000I0J-200000D01*
G01*
G37*
G36*
G01*
X77745000Y-123626000D02*
X77745000Y-124176000D01*
G75*
G02*
X77545000Y-124376000I-200000J0D01*
G01*
X77145000Y-124376000D01*
G75*
G02*
X76945000Y-124176000I0J200000D01*
G01*
X76945000Y-123626000D01*
G75*
G02*
X77145000Y-123426000I200000J0D01*
G01*
X77545000Y-123426000D01*
G75*
G02*
X77745000Y-123626000I0J-200000D01*
G01*
G37*
%TD*%
%TO.C,R15*%
G36*
G01*
X63595000Y-123626000D02*
X63595000Y-124176000D01*
G75*
G02*
X63395000Y-124376000I-200000J0D01*
G01*
X62995000Y-124376000D01*
G75*
G02*
X62795000Y-124176000I0J200000D01*
G01*
X62795000Y-123626000D01*
G75*
G02*
X62995000Y-123426000I200000J0D01*
G01*
X63395000Y-123426000D01*
G75*
G02*
X63595000Y-123626000I0J-200000D01*
G01*
G37*
G36*
G01*
X65245000Y-123626000D02*
X65245000Y-124176000D01*
G75*
G02*
X65045000Y-124376000I-200000J0D01*
G01*
X64645000Y-124376000D01*
G75*
G02*
X64445000Y-124176000I0J200000D01*
G01*
X64445000Y-123626000D01*
G75*
G02*
X64645000Y-123426000I200000J0D01*
G01*
X65045000Y-123426000D01*
G75*
G02*
X65245000Y-123626000I0J-200000D01*
G01*
G37*
%TD*%
%TO.C,R17*%
G36*
G01*
X91348000Y-117787000D02*
X91898000Y-117787000D01*
G75*
G02*
X92098000Y-117987000I0J-200000D01*
G01*
X92098000Y-118387000D01*
G75*
G02*
X91898000Y-118587000I-200000J0D01*
G01*
X91348000Y-118587000D01*
G75*
G02*
X91148000Y-118387000I0J200000D01*
G01*
X91148000Y-117987000D01*
G75*
G02*
X91348000Y-117787000I200000J0D01*
G01*
G37*
G36*
G01*
X91348000Y-119437000D02*
X91898000Y-119437000D01*
G75*
G02*
X92098000Y-119637000I0J-200000D01*
G01*
X92098000Y-120037000D01*
G75*
G02*
X91898000Y-120237000I-200000J0D01*
G01*
X91348000Y-120237000D01*
G75*
G02*
X91148000Y-120037000I0J200000D01*
G01*
X91148000Y-119637000D01*
G75*
G02*
X91348000Y-119437000I200000J0D01*
G01*
G37*
%TD*%
%TO.C,R17*%
G36*
G01*
X78848000Y-117787000D02*
X79398000Y-117787000D01*
G75*
G02*
X79598000Y-117987000I0J-200000D01*
G01*
X79598000Y-118387000D01*
G75*
G02*
X79398000Y-118587000I-200000J0D01*
G01*
X78848000Y-118587000D01*
G75*
G02*
X78648000Y-118387000I0J200000D01*
G01*
X78648000Y-117987000D01*
G75*
G02*
X78848000Y-117787000I200000J0D01*
G01*
G37*
G36*
G01*
X78848000Y-119437000D02*
X79398000Y-119437000D01*
G75*
G02*
X79598000Y-119637000I0J-200000D01*
G01*
X79598000Y-120037000D01*
G75*
G02*
X79398000Y-120237000I-200000J0D01*
G01*
X78848000Y-120237000D01*
G75*
G02*
X78648000Y-120037000I0J200000D01*
G01*
X78648000Y-119637000D01*
G75*
G02*
X78848000Y-119437000I200000J0D01*
G01*
G37*
%TD*%
%TO.C,R17*%
G36*
G01*
X66348000Y-117787000D02*
X66898000Y-117787000D01*
G75*
G02*
X67098000Y-117987000I0J-200000D01*
G01*
X67098000Y-118387000D01*
G75*
G02*
X66898000Y-118587000I-200000J0D01*
G01*
X66348000Y-118587000D01*
G75*
G02*
X66148000Y-118387000I0J200000D01*
G01*
X66148000Y-117987000D01*
G75*
G02*
X66348000Y-117787000I200000J0D01*
G01*
G37*
G36*
G01*
X66348000Y-119437000D02*
X66898000Y-119437000D01*
G75*
G02*
X67098000Y-119637000I0J-200000D01*
G01*
X67098000Y-120037000D01*
G75*
G02*
X66898000Y-120237000I-200000J0D01*
G01*
X66348000Y-120237000D01*
G75*
G02*
X66148000Y-120037000I0J200000D01*
G01*
X66148000Y-119637000D01*
G75*
G02*
X66348000Y-119437000I200000J0D01*
G01*
G37*
%TD*%
%TO.C,R19*%
G36*
G01*
X86818000Y-125826000D02*
X86268000Y-125826000D01*
G75*
G02*
X86068000Y-125626000I0J200000D01*
G01*
X86068000Y-125226000D01*
G75*
G02*
X86268000Y-125026000I200000J0D01*
G01*
X86818000Y-125026000D01*
G75*
G02*
X87018000Y-125226000I0J-200000D01*
G01*
X87018000Y-125626000D01*
G75*
G02*
X86818000Y-125826000I-200000J0D01*
G01*
G37*
G36*
G01*
X86818000Y-127476000D02*
X86268000Y-127476000D01*
G75*
G02*
X86068000Y-127276000I0J200000D01*
G01*
X86068000Y-126876000D01*
G75*
G02*
X86268000Y-126676000I200000J0D01*
G01*
X86818000Y-126676000D01*
G75*
G02*
X87018000Y-126876000I0J-200000D01*
G01*
X87018000Y-127276000D01*
G75*
G02*
X86818000Y-127476000I-200000J0D01*
G01*
G37*
%TD*%
%TO.C,R19*%
G36*
G01*
X74318000Y-125826000D02*
X73768000Y-125826000D01*
G75*
G02*
X73568000Y-125626000I0J200000D01*
G01*
X73568000Y-125226000D01*
G75*
G02*
X73768000Y-125026000I200000J0D01*
G01*
X74318000Y-125026000D01*
G75*
G02*
X74518000Y-125226000I0J-200000D01*
G01*
X74518000Y-125626000D01*
G75*
G02*
X74318000Y-125826000I-200000J0D01*
G01*
G37*
G36*
G01*
X74318000Y-127476000D02*
X73768000Y-127476000D01*
G75*
G02*
X73568000Y-127276000I0J200000D01*
G01*
X73568000Y-126876000D01*
G75*
G02*
X73768000Y-126676000I200000J0D01*
G01*
X74318000Y-126676000D01*
G75*
G02*
X74518000Y-126876000I0J-200000D01*
G01*
X74518000Y-127276000D01*
G75*
G02*
X74318000Y-127476000I-200000J0D01*
G01*
G37*
%TD*%
%TO.C,R19*%
G36*
G01*
X61818000Y-125826000D02*
X61268000Y-125826000D01*
G75*
G02*
X61068000Y-125626000I0J200000D01*
G01*
X61068000Y-125226000D01*
G75*
G02*
X61268000Y-125026000I200000J0D01*
G01*
X61818000Y-125026000D01*
G75*
G02*
X62018000Y-125226000I0J-200000D01*
G01*
X62018000Y-125626000D01*
G75*
G02*
X61818000Y-125826000I-200000J0D01*
G01*
G37*
G36*
G01*
X61818000Y-127476000D02*
X61268000Y-127476000D01*
G75*
G02*
X61068000Y-127276000I0J200000D01*
G01*
X61068000Y-126876000D01*
G75*
G02*
X61268000Y-126676000I200000J0D01*
G01*
X61818000Y-126676000D01*
G75*
G02*
X62018000Y-126876000I0J-200000D01*
G01*
X62018000Y-127276000D01*
G75*
G02*
X61818000Y-127476000I-200000J0D01*
G01*
G37*
%TD*%
%TO.C,R21*%
G36*
G01*
X86268000Y-117787000D02*
X86818000Y-117787000D01*
G75*
G02*
X87018000Y-117987000I0J-200000D01*
G01*
X87018000Y-118387000D01*
G75*
G02*
X86818000Y-118587000I-200000J0D01*
G01*
X86268000Y-118587000D01*
G75*
G02*
X86068000Y-118387000I0J200000D01*
G01*
X86068000Y-117987000D01*
G75*
G02*
X86268000Y-117787000I200000J0D01*
G01*
G37*
G36*
G01*
X86268000Y-119437000D02*
X86818000Y-119437000D01*
G75*
G02*
X87018000Y-119637000I0J-200000D01*
G01*
X87018000Y-120037000D01*
G75*
G02*
X86818000Y-120237000I-200000J0D01*
G01*
X86268000Y-120237000D01*
G75*
G02*
X86068000Y-120037000I0J200000D01*
G01*
X86068000Y-119637000D01*
G75*
G02*
X86268000Y-119437000I200000J0D01*
G01*
G37*
%TD*%
%TO.C,R21*%
G36*
G01*
X73768000Y-117787000D02*
X74318000Y-117787000D01*
G75*
G02*
X74518000Y-117987000I0J-200000D01*
G01*
X74518000Y-118387000D01*
G75*
G02*
X74318000Y-118587000I-200000J0D01*
G01*
X73768000Y-118587000D01*
G75*
G02*
X73568000Y-118387000I0J200000D01*
G01*
X73568000Y-117987000D01*
G75*
G02*
X73768000Y-117787000I200000J0D01*
G01*
G37*
G36*
G01*
X73768000Y-119437000D02*
X74318000Y-119437000D01*
G75*
G02*
X74518000Y-119637000I0J-200000D01*
G01*
X74518000Y-120037000D01*
G75*
G02*
X74318000Y-120237000I-200000J0D01*
G01*
X73768000Y-120237000D01*
G75*
G02*
X73568000Y-120037000I0J200000D01*
G01*
X73568000Y-119637000D01*
G75*
G02*
X73768000Y-119437000I200000J0D01*
G01*
G37*
%TD*%
%TO.C,R21*%
G36*
G01*
X61268000Y-117787000D02*
X61818000Y-117787000D01*
G75*
G02*
X62018000Y-117987000I0J-200000D01*
G01*
X62018000Y-118387000D01*
G75*
G02*
X61818000Y-118587000I-200000J0D01*
G01*
X61268000Y-118587000D01*
G75*
G02*
X61068000Y-118387000I0J200000D01*
G01*
X61068000Y-117987000D01*
G75*
G02*
X61268000Y-117787000I200000J0D01*
G01*
G37*
G36*
G01*
X61268000Y-119437000D02*
X61818000Y-119437000D01*
G75*
G02*
X62018000Y-119637000I0J-200000D01*
G01*
X62018000Y-120037000D01*
G75*
G02*
X61818000Y-120237000I-200000J0D01*
G01*
X61268000Y-120237000D01*
G75*
G02*
X61068000Y-120037000I0J200000D01*
G01*
X61068000Y-119637000D01*
G75*
G02*
X61268000Y-119437000I200000J0D01*
G01*
G37*
%TD*%
%TO.C,R23*%
G36*
G01*
X91898000Y-125825000D02*
X91348000Y-125825000D01*
G75*
G02*
X91148000Y-125625000I0J200000D01*
G01*
X91148000Y-125225000D01*
G75*
G02*
X91348000Y-125025000I200000J0D01*
G01*
X91898000Y-125025000D01*
G75*
G02*
X92098000Y-125225000I0J-200000D01*
G01*
X92098000Y-125625000D01*
G75*
G02*
X91898000Y-125825000I-200000J0D01*
G01*
G37*
G36*
G01*
X91898000Y-127475000D02*
X91348000Y-127475000D01*
G75*
G02*
X91148000Y-127275000I0J200000D01*
G01*
X91148000Y-126875000D01*
G75*
G02*
X91348000Y-126675000I200000J0D01*
G01*
X91898000Y-126675000D01*
G75*
G02*
X92098000Y-126875000I0J-200000D01*
G01*
X92098000Y-127275000D01*
G75*
G02*
X91898000Y-127475000I-200000J0D01*
G01*
G37*
%TD*%
%TO.C,R23*%
G36*
G01*
X79398000Y-125825000D02*
X78848000Y-125825000D01*
G75*
G02*
X78648000Y-125625000I0J200000D01*
G01*
X78648000Y-125225000D01*
G75*
G02*
X78848000Y-125025000I200000J0D01*
G01*
X79398000Y-125025000D01*
G75*
G02*
X79598000Y-125225000I0J-200000D01*
G01*
X79598000Y-125625000D01*
G75*
G02*
X79398000Y-125825000I-200000J0D01*
G01*
G37*
G36*
G01*
X79398000Y-127475000D02*
X78848000Y-127475000D01*
G75*
G02*
X78648000Y-127275000I0J200000D01*
G01*
X78648000Y-126875000D01*
G75*
G02*
X78848000Y-126675000I200000J0D01*
G01*
X79398000Y-126675000D01*
G75*
G02*
X79598000Y-126875000I0J-200000D01*
G01*
X79598000Y-127275000D01*
G75*
G02*
X79398000Y-127475000I-200000J0D01*
G01*
G37*
%TD*%
%TO.C,R23*%
G36*
G01*
X66898000Y-125825000D02*
X66348000Y-125825000D01*
G75*
G02*
X66148000Y-125625000I0J200000D01*
G01*
X66148000Y-125225000D01*
G75*
G02*
X66348000Y-125025000I200000J0D01*
G01*
X66898000Y-125025000D01*
G75*
G02*
X67098000Y-125225000I0J-200000D01*
G01*
X67098000Y-125625000D01*
G75*
G02*
X66898000Y-125825000I-200000J0D01*
G01*
G37*
G36*
G01*
X66898000Y-127475000D02*
X66348000Y-127475000D01*
G75*
G02*
X66148000Y-127275000I0J200000D01*
G01*
X66148000Y-126875000D01*
G75*
G02*
X66348000Y-126675000I200000J0D01*
G01*
X66898000Y-126675000D01*
G75*
G02*
X67098000Y-126875000I0J-200000D01*
G01*
X67098000Y-127275000D01*
G75*
G02*
X66898000Y-127475000I-200000J0D01*
G01*
G37*
%TD*%
%TO.C,U2*%
G36*
G01*
X96934000Y-112450000D02*
X97234000Y-112450000D01*
G75*
G02*
X97384000Y-112600000I0J-150000D01*
G01*
X97384000Y-114250000D01*
G75*
G02*
X97234000Y-114400000I-150000J0D01*
G01*
X96934000Y-114400000D01*
G75*
G02*
X96784000Y-114250000I0J150000D01*
G01*
X96784000Y-112600000D01*
G75*
G02*
X96934000Y-112450000I150000J0D01*
G01*
G37*
G36*
G01*
X95664000Y-112450000D02*
X95964000Y-112450000D01*
G75*
G02*
X96114000Y-112600000I0J-150000D01*
G01*
X96114000Y-114250000D01*
G75*
G02*
X95964000Y-114400000I-150000J0D01*
G01*
X95664000Y-114400000D01*
G75*
G02*
X95514000Y-114250000I0J150000D01*
G01*
X95514000Y-112600000D01*
G75*
G02*
X95664000Y-112450000I150000J0D01*
G01*
G37*
G36*
G01*
X94394000Y-112450000D02*
X94694000Y-112450000D01*
G75*
G02*
X94844000Y-112600000I0J-150000D01*
G01*
X94844000Y-114250000D01*
G75*
G02*
X94694000Y-114400000I-150000J0D01*
G01*
X94394000Y-114400000D01*
G75*
G02*
X94244000Y-114250000I0J150000D01*
G01*
X94244000Y-112600000D01*
G75*
G02*
X94394000Y-112450000I150000J0D01*
G01*
G37*
G36*
G01*
X93124000Y-112450000D02*
X93424000Y-112450000D01*
G75*
G02*
X93574000Y-112600000I0J-150000D01*
G01*
X93574000Y-114250000D01*
G75*
G02*
X93424000Y-114400000I-150000J0D01*
G01*
X93124000Y-114400000D01*
G75*
G02*
X92974000Y-114250000I0J150000D01*
G01*
X92974000Y-112600000D01*
G75*
G02*
X93124000Y-112450000I150000J0D01*
G01*
G37*
G36*
G01*
X93124000Y-117400000D02*
X93424000Y-117400000D01*
G75*
G02*
X93574000Y-117550000I0J-150000D01*
G01*
X93574000Y-119200000D01*
G75*
G02*
X93424000Y-119350000I-150000J0D01*
G01*
X93124000Y-119350000D01*
G75*
G02*
X92974000Y-119200000I0J150000D01*
G01*
X92974000Y-117550000D01*
G75*
G02*
X93124000Y-117400000I150000J0D01*
G01*
G37*
G36*
G01*
X94394000Y-117400000D02*
X94694000Y-117400000D01*
G75*
G02*
X94844000Y-117550000I0J-150000D01*
G01*
X94844000Y-119200000D01*
G75*
G02*
X94694000Y-119350000I-150000J0D01*
G01*
X94394000Y-119350000D01*
G75*
G02*
X94244000Y-119200000I0J150000D01*
G01*
X94244000Y-117550000D01*
G75*
G02*
X94394000Y-117400000I150000J0D01*
G01*
G37*
G36*
G01*
X95664000Y-117400000D02*
X95964000Y-117400000D01*
G75*
G02*
X96114000Y-117550000I0J-150000D01*
G01*
X96114000Y-119200000D01*
G75*
G02*
X95964000Y-119350000I-150000J0D01*
G01*
X95664000Y-119350000D01*
G75*
G02*
X95514000Y-119200000I0J150000D01*
G01*
X95514000Y-117550000D01*
G75*
G02*
X95664000Y-117400000I150000J0D01*
G01*
G37*
G36*
G01*
X96934000Y-117400000D02*
X97234000Y-117400000D01*
G75*
G02*
X97384000Y-117550000I0J-150000D01*
G01*
X97384000Y-119200000D01*
G75*
G02*
X97234000Y-119350000I-150000J0D01*
G01*
X96934000Y-119350000D01*
G75*
G02*
X96784000Y-119200000I0J150000D01*
G01*
X96784000Y-117550000D01*
G75*
G02*
X96934000Y-117400000I150000J0D01*
G01*
G37*
%TD*%
%TO.C,U2*%
G36*
G01*
X84434000Y-112450000D02*
X84734000Y-112450000D01*
G75*
G02*
X84884000Y-112600000I0J-150000D01*
G01*
X84884000Y-114250000D01*
G75*
G02*
X84734000Y-114400000I-150000J0D01*
G01*
X84434000Y-114400000D01*
G75*
G02*
X84284000Y-114250000I0J150000D01*
G01*
X84284000Y-112600000D01*
G75*
G02*
X84434000Y-112450000I150000J0D01*
G01*
G37*
G36*
G01*
X83164000Y-112450000D02*
X83464000Y-112450000D01*
G75*
G02*
X83614000Y-112600000I0J-150000D01*
G01*
X83614000Y-114250000D01*
G75*
G02*
X83464000Y-114400000I-150000J0D01*
G01*
X83164000Y-114400000D01*
G75*
G02*
X83014000Y-114250000I0J150000D01*
G01*
X83014000Y-112600000D01*
G75*
G02*
X83164000Y-112450000I150000J0D01*
G01*
G37*
G36*
G01*
X81894000Y-112450000D02*
X82194000Y-112450000D01*
G75*
G02*
X82344000Y-112600000I0J-150000D01*
G01*
X82344000Y-114250000D01*
G75*
G02*
X82194000Y-114400000I-150000J0D01*
G01*
X81894000Y-114400000D01*
G75*
G02*
X81744000Y-114250000I0J150000D01*
G01*
X81744000Y-112600000D01*
G75*
G02*
X81894000Y-112450000I150000J0D01*
G01*
G37*
G36*
G01*
X80624000Y-112450000D02*
X80924000Y-112450000D01*
G75*
G02*
X81074000Y-112600000I0J-150000D01*
G01*
X81074000Y-114250000D01*
G75*
G02*
X80924000Y-114400000I-150000J0D01*
G01*
X80624000Y-114400000D01*
G75*
G02*
X80474000Y-114250000I0J150000D01*
G01*
X80474000Y-112600000D01*
G75*
G02*
X80624000Y-112450000I150000J0D01*
G01*
G37*
G36*
G01*
X80624000Y-117400000D02*
X80924000Y-117400000D01*
G75*
G02*
X81074000Y-117550000I0J-150000D01*
G01*
X81074000Y-119200000D01*
G75*
G02*
X80924000Y-119350000I-150000J0D01*
G01*
X80624000Y-119350000D01*
G75*
G02*
X80474000Y-119200000I0J150000D01*
G01*
X80474000Y-117550000D01*
G75*
G02*
X80624000Y-117400000I150000J0D01*
G01*
G37*
G36*
G01*
X81894000Y-117400000D02*
X82194000Y-117400000D01*
G75*
G02*
X82344000Y-117550000I0J-150000D01*
G01*
X82344000Y-119200000D01*
G75*
G02*
X82194000Y-119350000I-150000J0D01*
G01*
X81894000Y-119350000D01*
G75*
G02*
X81744000Y-119200000I0J150000D01*
G01*
X81744000Y-117550000D01*
G75*
G02*
X81894000Y-117400000I150000J0D01*
G01*
G37*
G36*
G01*
X83164000Y-117400000D02*
X83464000Y-117400000D01*
G75*
G02*
X83614000Y-117550000I0J-150000D01*
G01*
X83614000Y-119200000D01*
G75*
G02*
X83464000Y-119350000I-150000J0D01*
G01*
X83164000Y-119350000D01*
G75*
G02*
X83014000Y-119200000I0J150000D01*
G01*
X83014000Y-117550000D01*
G75*
G02*
X83164000Y-117400000I150000J0D01*
G01*
G37*
G36*
G01*
X84434000Y-117400000D02*
X84734000Y-117400000D01*
G75*
G02*
X84884000Y-117550000I0J-150000D01*
G01*
X84884000Y-119200000D01*
G75*
G02*
X84734000Y-119350000I-150000J0D01*
G01*
X84434000Y-119350000D01*
G75*
G02*
X84284000Y-119200000I0J150000D01*
G01*
X84284000Y-117550000D01*
G75*
G02*
X84434000Y-117400000I150000J0D01*
G01*
G37*
%TD*%
%TO.C,U2*%
G36*
G01*
X71934000Y-112450000D02*
X72234000Y-112450000D01*
G75*
G02*
X72384000Y-112600000I0J-150000D01*
G01*
X72384000Y-114250000D01*
G75*
G02*
X72234000Y-114400000I-150000J0D01*
G01*
X71934000Y-114400000D01*
G75*
G02*
X71784000Y-114250000I0J150000D01*
G01*
X71784000Y-112600000D01*
G75*
G02*
X71934000Y-112450000I150000J0D01*
G01*
G37*
G36*
G01*
X70664000Y-112450000D02*
X70964000Y-112450000D01*
G75*
G02*
X71114000Y-112600000I0J-150000D01*
G01*
X71114000Y-114250000D01*
G75*
G02*
X70964000Y-114400000I-150000J0D01*
G01*
X70664000Y-114400000D01*
G75*
G02*
X70514000Y-114250000I0J150000D01*
G01*
X70514000Y-112600000D01*
G75*
G02*
X70664000Y-112450000I150000J0D01*
G01*
G37*
G36*
G01*
X69394000Y-112450000D02*
X69694000Y-112450000D01*
G75*
G02*
X69844000Y-112600000I0J-150000D01*
G01*
X69844000Y-114250000D01*
G75*
G02*
X69694000Y-114400000I-150000J0D01*
G01*
X69394000Y-114400000D01*
G75*
G02*
X69244000Y-114250000I0J150000D01*
G01*
X69244000Y-112600000D01*
G75*
G02*
X69394000Y-112450000I150000J0D01*
G01*
G37*
G36*
G01*
X68124000Y-112450000D02*
X68424000Y-112450000D01*
G75*
G02*
X68574000Y-112600000I0J-150000D01*
G01*
X68574000Y-114250000D01*
G75*
G02*
X68424000Y-114400000I-150000J0D01*
G01*
X68124000Y-114400000D01*
G75*
G02*
X67974000Y-114250000I0J150000D01*
G01*
X67974000Y-112600000D01*
G75*
G02*
X68124000Y-112450000I150000J0D01*
G01*
G37*
G36*
G01*
X68124000Y-117400000D02*
X68424000Y-117400000D01*
G75*
G02*
X68574000Y-117550000I0J-150000D01*
G01*
X68574000Y-119200000D01*
G75*
G02*
X68424000Y-119350000I-150000J0D01*
G01*
X68124000Y-119350000D01*
G75*
G02*
X67974000Y-119200000I0J150000D01*
G01*
X67974000Y-117550000D01*
G75*
G02*
X68124000Y-117400000I150000J0D01*
G01*
G37*
G36*
G01*
X69394000Y-117400000D02*
X69694000Y-117400000D01*
G75*
G02*
X69844000Y-117550000I0J-150000D01*
G01*
X69844000Y-119200000D01*
G75*
G02*
X69694000Y-119350000I-150000J0D01*
G01*
X69394000Y-119350000D01*
G75*
G02*
X69244000Y-119200000I0J150000D01*
G01*
X69244000Y-117550000D01*
G75*
G02*
X69394000Y-117400000I150000J0D01*
G01*
G37*
G36*
G01*
X70664000Y-117400000D02*
X70964000Y-117400000D01*
G75*
G02*
X71114000Y-117550000I0J-150000D01*
G01*
X71114000Y-119200000D01*
G75*
G02*
X70964000Y-119350000I-150000J0D01*
G01*
X70664000Y-119350000D01*
G75*
G02*
X70514000Y-119200000I0J150000D01*
G01*
X70514000Y-117550000D01*
G75*
G02*
X70664000Y-117400000I150000J0D01*
G01*
G37*
G36*
G01*
X71934000Y-117400000D02*
X72234000Y-117400000D01*
G75*
G02*
X72384000Y-117550000I0J-150000D01*
G01*
X72384000Y-119200000D01*
G75*
G02*
X72234000Y-119350000I-150000J0D01*
G01*
X71934000Y-119350000D01*
G75*
G02*
X71784000Y-119200000I0J150000D01*
G01*
X71784000Y-117550000D01*
G75*
G02*
X71934000Y-117400000I150000J0D01*
G01*
G37*
%TD*%
D11*
%TO.C,J5*%
X72338000Y-66478000D03*
X72338000Y-69018000D03*
X72338000Y-71558000D03*
X75038000Y-67748000D03*
X75038000Y-70288000D03*
%TD*%
%TO.C,C17*%
G36*
G01*
X64929000Y-61775000D02*
X64929000Y-61275000D01*
G75*
G02*
X65154000Y-61050000I225000J0D01*
G01*
X65604000Y-61050000D01*
G75*
G02*
X65829000Y-61275000I0J-225000D01*
G01*
X65829000Y-61775000D01*
G75*
G02*
X65604000Y-62000000I-225000J0D01*
G01*
X65154000Y-62000000D01*
G75*
G02*
X64929000Y-61775000I0J225000D01*
G01*
G37*
G36*
G01*
X63379000Y-61775000D02*
X63379000Y-61275000D01*
G75*
G02*
X63604000Y-61050000I225000J0D01*
G01*
X64054000Y-61050000D01*
G75*
G02*
X64279000Y-61275000I0J-225000D01*
G01*
X64279000Y-61775000D01*
G75*
G02*
X64054000Y-62000000I-225000J0D01*
G01*
X63604000Y-62000000D01*
G75*
G02*
X63379000Y-61775000I0J225000D01*
G01*
G37*
%TD*%
%TO.C,R25*%
G36*
G01*
X77439000Y-57862000D02*
X76889000Y-57862000D01*
G75*
G02*
X76689000Y-57662000I0J200000D01*
G01*
X76689000Y-57262000D01*
G75*
G02*
X76889000Y-57062000I200000J0D01*
G01*
X77439000Y-57062000D01*
G75*
G02*
X77639000Y-57262000I0J-200000D01*
G01*
X77639000Y-57662000D01*
G75*
G02*
X77439000Y-57862000I-200000J0D01*
G01*
G37*
G36*
G01*
X77439000Y-59512000D02*
X76889000Y-59512000D01*
G75*
G02*
X76689000Y-59312000I0J200000D01*
G01*
X76689000Y-58912000D01*
G75*
G02*
X76889000Y-58712000I200000J0D01*
G01*
X77439000Y-58712000D01*
G75*
G02*
X77639000Y-58912000I0J-200000D01*
G01*
X77639000Y-59312000D01*
G75*
G02*
X77439000Y-59512000I-200000J0D01*
G01*
G37*
%TD*%
%TO.C,R23*%
G36*
G01*
X75238000Y-58711000D02*
X75788000Y-58711000D01*
G75*
G02*
X75988000Y-58911000I0J-200000D01*
G01*
X75988000Y-59311000D01*
G75*
G02*
X75788000Y-59511000I-200000J0D01*
G01*
X75238000Y-59511000D01*
G75*
G02*
X75038000Y-59311000I0J200000D01*
G01*
X75038000Y-58911000D01*
G75*
G02*
X75238000Y-58711000I200000J0D01*
G01*
G37*
G36*
G01*
X75238000Y-57061000D02*
X75788000Y-57061000D01*
G75*
G02*
X75988000Y-57261000I0J-200000D01*
G01*
X75988000Y-57661000D01*
G75*
G02*
X75788000Y-57861000I-200000J0D01*
G01*
X75238000Y-57861000D01*
G75*
G02*
X75038000Y-57661000I0J200000D01*
G01*
X75038000Y-57261000D01*
G75*
G02*
X75238000Y-57061000I200000J0D01*
G01*
G37*
%TD*%
%TO.C,C15*%
G36*
G01*
X69742000Y-71427000D02*
X69742000Y-70927000D01*
G75*
G02*
X69967000Y-70702000I225000J0D01*
G01*
X70417000Y-70702000D01*
G75*
G02*
X70642000Y-70927000I0J-225000D01*
G01*
X70642000Y-71427000D01*
G75*
G02*
X70417000Y-71652000I-225000J0D01*
G01*
X69967000Y-71652000D01*
G75*
G02*
X69742000Y-71427000I0J225000D01*
G01*
G37*
G36*
G01*
X68192000Y-71427000D02*
X68192000Y-70927000D01*
G75*
G02*
X68417000Y-70702000I225000J0D01*
G01*
X68867000Y-70702000D01*
G75*
G02*
X69092000Y-70927000I0J-225000D01*
G01*
X69092000Y-71427000D01*
G75*
G02*
X68867000Y-71652000I-225000J0D01*
G01*
X68417000Y-71652000D01*
G75*
G02*
X68192000Y-71427000I0J225000D01*
G01*
G37*
%TD*%
%TO.C,C7*%
G36*
G01*
X79762000Y-58727000D02*
X79762000Y-58227000D01*
G75*
G02*
X79987000Y-58002000I225000J0D01*
G01*
X80437000Y-58002000D01*
G75*
G02*
X80662000Y-58227000I0J-225000D01*
G01*
X80662000Y-58727000D01*
G75*
G02*
X80437000Y-58952000I-225000J0D01*
G01*
X79987000Y-58952000D01*
G75*
G02*
X79762000Y-58727000I0J225000D01*
G01*
G37*
G36*
G01*
X78212000Y-58727000D02*
X78212000Y-58227000D01*
G75*
G02*
X78437000Y-58002000I225000J0D01*
G01*
X78887000Y-58002000D01*
G75*
G02*
X79112000Y-58227000I0J-225000D01*
G01*
X79112000Y-58727000D01*
G75*
G02*
X78887000Y-58952000I-225000J0D01*
G01*
X78437000Y-58952000D01*
G75*
G02*
X78212000Y-58727000I0J225000D01*
G01*
G37*
%TD*%
D12*
%TO.C,Y1*%
X67074000Y-57715000D03*
X68274000Y-57715000D03*
X69474000Y-57715000D03*
%TD*%
%TO.C,U5*%
G36*
G01*
X70087000Y-68534500D02*
X70287000Y-68534500D01*
G75*
G02*
X70387000Y-68634500I0J-100000D01*
G01*
X70387000Y-69909500D01*
G75*
G02*
X70287000Y-70009500I-100000J0D01*
G01*
X70087000Y-70009500D01*
G75*
G02*
X69987000Y-69909500I0J100000D01*
G01*
X69987000Y-68634500D01*
G75*
G02*
X70087000Y-68534500I100000J0D01*
G01*
G37*
G36*
G01*
X69437000Y-68534500D02*
X69637000Y-68534500D01*
G75*
G02*
X69737000Y-68634500I0J-100000D01*
G01*
X69737000Y-69909500D01*
G75*
G02*
X69637000Y-70009500I-100000J0D01*
G01*
X69437000Y-70009500D01*
G75*
G02*
X69337000Y-69909500I0J100000D01*
G01*
X69337000Y-68634500D01*
G75*
G02*
X69437000Y-68534500I100000J0D01*
G01*
G37*
G36*
G01*
X68787000Y-68534500D02*
X68987000Y-68534500D01*
G75*
G02*
X69087000Y-68634500I0J-100000D01*
G01*
X69087000Y-69909500D01*
G75*
G02*
X68987000Y-70009500I-100000J0D01*
G01*
X68787000Y-70009500D01*
G75*
G02*
X68687000Y-69909500I0J100000D01*
G01*
X68687000Y-68634500D01*
G75*
G02*
X68787000Y-68534500I100000J0D01*
G01*
G37*
G36*
G01*
X68137000Y-68534500D02*
X68337000Y-68534500D01*
G75*
G02*
X68437000Y-68634500I0J-100000D01*
G01*
X68437000Y-69909500D01*
G75*
G02*
X68337000Y-70009500I-100000J0D01*
G01*
X68137000Y-70009500D01*
G75*
G02*
X68037000Y-69909500I0J100000D01*
G01*
X68037000Y-68634500D01*
G75*
G02*
X68137000Y-68534500I100000J0D01*
G01*
G37*
G36*
G01*
X67487000Y-68534500D02*
X67687000Y-68534500D01*
G75*
G02*
X67787000Y-68634500I0J-100000D01*
G01*
X67787000Y-69909500D01*
G75*
G02*
X67687000Y-70009500I-100000J0D01*
G01*
X67487000Y-70009500D01*
G75*
G02*
X67387000Y-69909500I0J100000D01*
G01*
X67387000Y-68634500D01*
G75*
G02*
X67487000Y-68534500I100000J0D01*
G01*
G37*
G36*
G01*
X66837000Y-68534500D02*
X67037000Y-68534500D01*
G75*
G02*
X67137000Y-68634500I0J-100000D01*
G01*
X67137000Y-69909500D01*
G75*
G02*
X67037000Y-70009500I-100000J0D01*
G01*
X66837000Y-70009500D01*
G75*
G02*
X66737000Y-69909500I0J100000D01*
G01*
X66737000Y-68634500D01*
G75*
G02*
X66837000Y-68534500I100000J0D01*
G01*
G37*
G36*
G01*
X66187000Y-68534500D02*
X66387000Y-68534500D01*
G75*
G02*
X66487000Y-68634500I0J-100000D01*
G01*
X66487000Y-69909500D01*
G75*
G02*
X66387000Y-70009500I-100000J0D01*
G01*
X66187000Y-70009500D01*
G75*
G02*
X66087000Y-69909500I0J100000D01*
G01*
X66087000Y-68634500D01*
G75*
G02*
X66187000Y-68534500I100000J0D01*
G01*
G37*
G36*
G01*
X65537000Y-68534500D02*
X65737000Y-68534500D01*
G75*
G02*
X65837000Y-68634500I0J-100000D01*
G01*
X65837000Y-69909500D01*
G75*
G02*
X65737000Y-70009500I-100000J0D01*
G01*
X65537000Y-70009500D01*
G75*
G02*
X65437000Y-69909500I0J100000D01*
G01*
X65437000Y-68634500D01*
G75*
G02*
X65537000Y-68534500I100000J0D01*
G01*
G37*
G36*
G01*
X64887000Y-68534500D02*
X65087000Y-68534500D01*
G75*
G02*
X65187000Y-68634500I0J-100000D01*
G01*
X65187000Y-69909500D01*
G75*
G02*
X65087000Y-70009500I-100000J0D01*
G01*
X64887000Y-70009500D01*
G75*
G02*
X64787000Y-69909500I0J100000D01*
G01*
X64787000Y-68634500D01*
G75*
G02*
X64887000Y-68534500I100000J0D01*
G01*
G37*
G36*
G01*
X64237000Y-68534500D02*
X64437000Y-68534500D01*
G75*
G02*
X64537000Y-68634500I0J-100000D01*
G01*
X64537000Y-69909500D01*
G75*
G02*
X64437000Y-70009500I-100000J0D01*
G01*
X64237000Y-70009500D01*
G75*
G02*
X64137000Y-69909500I0J100000D01*
G01*
X64137000Y-68634500D01*
G75*
G02*
X64237000Y-68534500I100000J0D01*
G01*
G37*
G36*
G01*
X64237000Y-62809500D02*
X64437000Y-62809500D01*
G75*
G02*
X64537000Y-62909500I0J-100000D01*
G01*
X64537000Y-64184500D01*
G75*
G02*
X64437000Y-64284500I-100000J0D01*
G01*
X64237000Y-64284500D01*
G75*
G02*
X64137000Y-64184500I0J100000D01*
G01*
X64137000Y-62909500D01*
G75*
G02*
X64237000Y-62809500I100000J0D01*
G01*
G37*
G36*
G01*
X64887000Y-62809500D02*
X65087000Y-62809500D01*
G75*
G02*
X65187000Y-62909500I0J-100000D01*
G01*
X65187000Y-64184500D01*
G75*
G02*
X65087000Y-64284500I-100000J0D01*
G01*
X64887000Y-64284500D01*
G75*
G02*
X64787000Y-64184500I0J100000D01*
G01*
X64787000Y-62909500D01*
G75*
G02*
X64887000Y-62809500I100000J0D01*
G01*
G37*
G36*
G01*
X65537000Y-62809500D02*
X65737000Y-62809500D01*
G75*
G02*
X65837000Y-62909500I0J-100000D01*
G01*
X65837000Y-64184500D01*
G75*
G02*
X65737000Y-64284500I-100000J0D01*
G01*
X65537000Y-64284500D01*
G75*
G02*
X65437000Y-64184500I0J100000D01*
G01*
X65437000Y-62909500D01*
G75*
G02*
X65537000Y-62809500I100000J0D01*
G01*
G37*
G36*
G01*
X66187000Y-62809500D02*
X66387000Y-62809500D01*
G75*
G02*
X66487000Y-62909500I0J-100000D01*
G01*
X66487000Y-64184500D01*
G75*
G02*
X66387000Y-64284500I-100000J0D01*
G01*
X66187000Y-64284500D01*
G75*
G02*
X66087000Y-64184500I0J100000D01*
G01*
X66087000Y-62909500D01*
G75*
G02*
X66187000Y-62809500I100000J0D01*
G01*
G37*
G36*
G01*
X66837000Y-62809500D02*
X67037000Y-62809500D01*
G75*
G02*
X67137000Y-62909500I0J-100000D01*
G01*
X67137000Y-64184500D01*
G75*
G02*
X67037000Y-64284500I-100000J0D01*
G01*
X66837000Y-64284500D01*
G75*
G02*
X66737000Y-64184500I0J100000D01*
G01*
X66737000Y-62909500D01*
G75*
G02*
X66837000Y-62809500I100000J0D01*
G01*
G37*
G36*
G01*
X67487000Y-62809500D02*
X67687000Y-62809500D01*
G75*
G02*
X67787000Y-62909500I0J-100000D01*
G01*
X67787000Y-64184500D01*
G75*
G02*
X67687000Y-64284500I-100000J0D01*
G01*
X67487000Y-64284500D01*
G75*
G02*
X67387000Y-64184500I0J100000D01*
G01*
X67387000Y-62909500D01*
G75*
G02*
X67487000Y-62809500I100000J0D01*
G01*
G37*
G36*
G01*
X68137000Y-62809500D02*
X68337000Y-62809500D01*
G75*
G02*
X68437000Y-62909500I0J-100000D01*
G01*
X68437000Y-64184500D01*
G75*
G02*
X68337000Y-64284500I-100000J0D01*
G01*
X68137000Y-64284500D01*
G75*
G02*
X68037000Y-64184500I0J100000D01*
G01*
X68037000Y-62909500D01*
G75*
G02*
X68137000Y-62809500I100000J0D01*
G01*
G37*
G36*
G01*
X68787000Y-62809500D02*
X68987000Y-62809500D01*
G75*
G02*
X69087000Y-62909500I0J-100000D01*
G01*
X69087000Y-64184500D01*
G75*
G02*
X68987000Y-64284500I-100000J0D01*
G01*
X68787000Y-64284500D01*
G75*
G02*
X68687000Y-64184500I0J100000D01*
G01*
X68687000Y-62909500D01*
G75*
G02*
X68787000Y-62809500I100000J0D01*
G01*
G37*
G36*
G01*
X69437000Y-62809500D02*
X69637000Y-62809500D01*
G75*
G02*
X69737000Y-62909500I0J-100000D01*
G01*
X69737000Y-64184500D01*
G75*
G02*
X69637000Y-64284500I-100000J0D01*
G01*
X69437000Y-64284500D01*
G75*
G02*
X69337000Y-64184500I0J100000D01*
G01*
X69337000Y-62909500D01*
G75*
G02*
X69437000Y-62809500I100000J0D01*
G01*
G37*
G36*
G01*
X70087000Y-62809500D02*
X70287000Y-62809500D01*
G75*
G02*
X70387000Y-62909500I0J-100000D01*
G01*
X70387000Y-64184500D01*
G75*
G02*
X70287000Y-64284500I-100000J0D01*
G01*
X70087000Y-64284500D01*
G75*
G02*
X69987000Y-64184500I0J100000D01*
G01*
X69987000Y-62909500D01*
G75*
G02*
X70087000Y-62809500I100000J0D01*
G01*
G37*
%TD*%
%TO.C,R24*%
G36*
G01*
X68445000Y-60657000D02*
X68445000Y-60107000D01*
G75*
G02*
X68645000Y-59907000I200000J0D01*
G01*
X69045000Y-59907000D01*
G75*
G02*
X69245000Y-60107000I0J-200000D01*
G01*
X69245000Y-60657000D01*
G75*
G02*
X69045000Y-60857000I-200000J0D01*
G01*
X68645000Y-60857000D01*
G75*
G02*
X68445000Y-60657000I0J200000D01*
G01*
G37*
G36*
G01*
X66795000Y-60657000D02*
X66795000Y-60107000D01*
G75*
G02*
X66995000Y-59907000I200000J0D01*
G01*
X67395000Y-59907000D01*
G75*
G02*
X67595000Y-60107000I0J-200000D01*
G01*
X67595000Y-60657000D01*
G75*
G02*
X67395000Y-60857000I-200000J0D01*
G01*
X66995000Y-60857000D01*
G75*
G02*
X66795000Y-60657000I0J200000D01*
G01*
G37*
%TD*%
%TO.C,C5*%
G36*
G01*
X67508000Y-53948000D02*
X67008000Y-53948000D01*
G75*
G02*
X66783000Y-53723000I0J225000D01*
G01*
X66783000Y-53273000D01*
G75*
G02*
X67008000Y-53048000I225000J0D01*
G01*
X67508000Y-53048000D01*
G75*
G02*
X67733000Y-53273000I0J-225000D01*
G01*
X67733000Y-53723000D01*
G75*
G02*
X67508000Y-53948000I-225000J0D01*
G01*
G37*
G36*
G01*
X67508000Y-55498000D02*
X67008000Y-55498000D01*
G75*
G02*
X66783000Y-55273000I0J225000D01*
G01*
X66783000Y-54823000D01*
G75*
G02*
X67008000Y-54598000I225000J0D01*
G01*
X67508000Y-54598000D01*
G75*
G02*
X67733000Y-54823000I0J-225000D01*
G01*
X67733000Y-55273000D01*
G75*
G02*
X67508000Y-55498000I-225000J0D01*
G01*
G37*
%TD*%
%TO.C,C4*%
G36*
G01*
X69540000Y-53948000D02*
X69040000Y-53948000D01*
G75*
G02*
X68815000Y-53723000I0J225000D01*
G01*
X68815000Y-53273000D01*
G75*
G02*
X69040000Y-53048000I225000J0D01*
G01*
X69540000Y-53048000D01*
G75*
G02*
X69765000Y-53273000I0J-225000D01*
G01*
X69765000Y-53723000D01*
G75*
G02*
X69540000Y-53948000I-225000J0D01*
G01*
G37*
G36*
G01*
X69540000Y-55498000D02*
X69040000Y-55498000D01*
G75*
G02*
X68815000Y-55273000I0J225000D01*
G01*
X68815000Y-54823000D01*
G75*
G02*
X69040000Y-54598000I225000J0D01*
G01*
X69540000Y-54598000D01*
G75*
G02*
X69765000Y-54823000I0J-225000D01*
G01*
X69765000Y-55273000D01*
G75*
G02*
X69540000Y-55498000I-225000J0D01*
G01*
G37*
%TD*%
%TO.C,R21*%
G36*
G01*
X90376500Y-64630998D02*
X90376500Y-65531002D01*
G75*
G02*
X90126502Y-65781000I-249998J0D01*
G01*
X89601498Y-65781000D01*
G75*
G02*
X89351500Y-65531002I0J249998D01*
G01*
X89351500Y-64630998D01*
G75*
G02*
X89601498Y-64381000I249998J0D01*
G01*
X90126502Y-64381000D01*
G75*
G02*
X90376500Y-64630998I0J-249998D01*
G01*
G37*
G36*
G01*
X92201500Y-64630998D02*
X92201500Y-65531002D01*
G75*
G02*
X91951502Y-65781000I-249998J0D01*
G01*
X91426498Y-65781000D01*
G75*
G02*
X91176500Y-65531002I0J249998D01*
G01*
X91176500Y-64630998D01*
G75*
G02*
X91426498Y-64381000I249998J0D01*
G01*
X91951502Y-64381000D01*
G75*
G02*
X92201500Y-64630998I0J-249998D01*
G01*
G37*
%TD*%
%TO.C,R20*%
G36*
G01*
X92201500Y-71615998D02*
X92201500Y-72516002D01*
G75*
G02*
X91951502Y-72766000I-249998J0D01*
G01*
X91426498Y-72766000D01*
G75*
G02*
X91176500Y-72516002I0J249998D01*
G01*
X91176500Y-71615998D01*
G75*
G02*
X91426498Y-71366000I249998J0D01*
G01*
X91951502Y-71366000D01*
G75*
G02*
X92201500Y-71615998I0J-249998D01*
G01*
G37*
G36*
G01*
X90376500Y-71615998D02*
X90376500Y-72516002D01*
G75*
G02*
X90126502Y-72766000I-249998J0D01*
G01*
X89601498Y-72766000D01*
G75*
G02*
X89351500Y-72516002I0J249998D01*
G01*
X89351500Y-71615998D01*
G75*
G02*
X89601498Y-71366000I249998J0D01*
G01*
X90126502Y-71366000D01*
G75*
G02*
X90376500Y-71615998I0J-249998D01*
G01*
G37*
%TD*%
%TO.C,R19*%
G36*
G01*
X80470500Y-64630998D02*
X80470500Y-65531002D01*
G75*
G02*
X80220502Y-65781000I-249998J0D01*
G01*
X79695498Y-65781000D01*
G75*
G02*
X79445500Y-65531002I0J249998D01*
G01*
X79445500Y-64630998D01*
G75*
G02*
X79695498Y-64381000I249998J0D01*
G01*
X80220502Y-64381000D01*
G75*
G02*
X80470500Y-64630998I0J-249998D01*
G01*
G37*
G36*
G01*
X82295500Y-64630998D02*
X82295500Y-65531002D01*
G75*
G02*
X82045502Y-65781000I-249998J0D01*
G01*
X81520498Y-65781000D01*
G75*
G02*
X81270500Y-65531002I0J249998D01*
G01*
X81270500Y-64630998D01*
G75*
G02*
X81520498Y-64381000I249998J0D01*
G01*
X82045502Y-64381000D01*
G75*
G02*
X82295500Y-64630998I0J-249998D01*
G01*
G37*
%TD*%
%TO.C,R18*%
G36*
G01*
X80343500Y-71615998D02*
X80343500Y-72516002D01*
G75*
G02*
X80093502Y-72766000I-249998J0D01*
G01*
X79568498Y-72766000D01*
G75*
G02*
X79318500Y-72516002I0J249998D01*
G01*
X79318500Y-71615998D01*
G75*
G02*
X79568498Y-71366000I249998J0D01*
G01*
X80093502Y-71366000D01*
G75*
G02*
X80343500Y-71615998I0J-249998D01*
G01*
G37*
G36*
G01*
X82168500Y-71615998D02*
X82168500Y-72516002D01*
G75*
G02*
X81918502Y-72766000I-249998J0D01*
G01*
X81393498Y-72766000D01*
G75*
G02*
X81143500Y-72516002I0J249998D01*
G01*
X81143500Y-71615998D01*
G75*
G02*
X81393498Y-71366000I249998J0D01*
G01*
X81918502Y-71366000D01*
G75*
G02*
X82168500Y-71615998I0J-249998D01*
G01*
G37*
%TD*%
%TO.C,C12*%
G36*
G01*
X91264000Y-67588000D02*
X91264000Y-66638000D01*
G75*
G02*
X91514000Y-66388000I250000J0D01*
G01*
X92014000Y-66388000D01*
G75*
G02*
X92264000Y-66638000I0J-250000D01*
G01*
X92264000Y-67588000D01*
G75*
G02*
X92014000Y-67838000I-250000J0D01*
G01*
X91514000Y-67838000D01*
G75*
G02*
X91264000Y-67588000I0J250000D01*
G01*
G37*
G36*
G01*
X89364000Y-67588000D02*
X89364000Y-66638000D01*
G75*
G02*
X89614000Y-66388000I250000J0D01*
G01*
X90114000Y-66388000D01*
G75*
G02*
X90364000Y-66638000I0J-250000D01*
G01*
X90364000Y-67588000D01*
G75*
G02*
X90114000Y-67838000I-250000J0D01*
G01*
X89614000Y-67838000D01*
G75*
G02*
X89364000Y-67588000I0J250000D01*
G01*
G37*
%TD*%
%TO.C,C11*%
G36*
G01*
X90369000Y-69559000D02*
X90369000Y-70509000D01*
G75*
G02*
X90119000Y-70759000I-250000J0D01*
G01*
X89619000Y-70759000D01*
G75*
G02*
X89369000Y-70509000I0J250000D01*
G01*
X89369000Y-69559000D01*
G75*
G02*
X89619000Y-69309000I250000J0D01*
G01*
X90119000Y-69309000D01*
G75*
G02*
X90369000Y-69559000I0J-250000D01*
G01*
G37*
G36*
G01*
X92269000Y-69559000D02*
X92269000Y-70509000D01*
G75*
G02*
X92019000Y-70759000I-250000J0D01*
G01*
X91519000Y-70759000D01*
G75*
G02*
X91269000Y-70509000I0J250000D01*
G01*
X91269000Y-69559000D01*
G75*
G02*
X91519000Y-69309000I250000J0D01*
G01*
X92019000Y-69309000D01*
G75*
G02*
X92269000Y-69559000I0J-250000D01*
G01*
G37*
%TD*%
%TO.C,C10*%
G36*
G01*
X81363000Y-67588000D02*
X81363000Y-66638000D01*
G75*
G02*
X81613000Y-66388000I250000J0D01*
G01*
X82113000Y-66388000D01*
G75*
G02*
X82363000Y-66638000I0J-250000D01*
G01*
X82363000Y-67588000D01*
G75*
G02*
X82113000Y-67838000I-250000J0D01*
G01*
X81613000Y-67838000D01*
G75*
G02*
X81363000Y-67588000I0J250000D01*
G01*
G37*
G36*
G01*
X79463000Y-67588000D02*
X79463000Y-66638000D01*
G75*
G02*
X79713000Y-66388000I250000J0D01*
G01*
X80213000Y-66388000D01*
G75*
G02*
X80463000Y-66638000I0J-250000D01*
G01*
X80463000Y-67588000D01*
G75*
G02*
X80213000Y-67838000I-250000J0D01*
G01*
X79713000Y-67838000D01*
G75*
G02*
X79463000Y-67588000I0J250000D01*
G01*
G37*
%TD*%
%TO.C,C9*%
G36*
G01*
X80331000Y-69559000D02*
X80331000Y-70509000D01*
G75*
G02*
X80081000Y-70759000I-250000J0D01*
G01*
X79581000Y-70759000D01*
G75*
G02*
X79331000Y-70509000I0J250000D01*
G01*
X79331000Y-69559000D01*
G75*
G02*
X79581000Y-69309000I250000J0D01*
G01*
X80081000Y-69309000D01*
G75*
G02*
X80331000Y-69559000I0J-250000D01*
G01*
G37*
G36*
G01*
X82231000Y-69559000D02*
X82231000Y-70509000D01*
G75*
G02*
X81981000Y-70759000I-250000J0D01*
G01*
X81481000Y-70759000D01*
G75*
G02*
X81231000Y-70509000I0J250000D01*
G01*
X81231000Y-69559000D01*
G75*
G02*
X81481000Y-69309000I250000J0D01*
G01*
X81981000Y-69309000D01*
G75*
G02*
X82231000Y-69559000I0J-250000D01*
G01*
G37*
%TD*%
%TO.C,R9*%
G36*
G01*
X91089500Y-54684100D02*
X91089500Y-55234100D01*
G75*
G02*
X90889500Y-55434100I-200000J0D01*
G01*
X90489500Y-55434100D01*
G75*
G02*
X90289500Y-55234100I0J200000D01*
G01*
X90289500Y-54684100D01*
G75*
G02*
X90489500Y-54484100I200000J0D01*
G01*
X90889500Y-54484100D01*
G75*
G02*
X91089500Y-54684100I0J-200000D01*
G01*
G37*
G36*
G01*
X92739500Y-54684100D02*
X92739500Y-55234100D01*
G75*
G02*
X92539500Y-55434100I-200000J0D01*
G01*
X92139500Y-55434100D01*
G75*
G02*
X91939500Y-55234100I0J200000D01*
G01*
X91939500Y-54684100D01*
G75*
G02*
X92139500Y-54484100I200000J0D01*
G01*
X92539500Y-54484100D01*
G75*
G02*
X92739500Y-54684100I0J-200000D01*
G01*
G37*
%TD*%
%TO.C,R8*%
G36*
G01*
X94543000Y-53672000D02*
X94543000Y-53122000D01*
G75*
G02*
X94743000Y-52922000I200000J0D01*
G01*
X95143000Y-52922000D01*
G75*
G02*
X95343000Y-53122000I0J-200000D01*
G01*
X95343000Y-53672000D01*
G75*
G02*
X95143000Y-53872000I-200000J0D01*
G01*
X94743000Y-53872000D01*
G75*
G02*
X94543000Y-53672000I0J200000D01*
G01*
G37*
G36*
G01*
X92893000Y-53672000D02*
X92893000Y-53122000D01*
G75*
G02*
X93093000Y-52922000I200000J0D01*
G01*
X93493000Y-52922000D01*
G75*
G02*
X93693000Y-53122000I0J-200000D01*
G01*
X93693000Y-53672000D01*
G75*
G02*
X93493000Y-53872000I-200000J0D01*
G01*
X93093000Y-53872000D01*
G75*
G02*
X92893000Y-53672000I0J200000D01*
G01*
G37*
%TD*%
%TO.C,R6*%
G36*
G01*
X81183500Y-54646000D02*
X81183500Y-55196000D01*
G75*
G02*
X80983500Y-55396000I-200000J0D01*
G01*
X80583500Y-55396000D01*
G75*
G02*
X80383500Y-55196000I0J200000D01*
G01*
X80383500Y-54646000D01*
G75*
G02*
X80583500Y-54446000I200000J0D01*
G01*
X80983500Y-54446000D01*
G75*
G02*
X81183500Y-54646000I0J-200000D01*
G01*
G37*
G36*
G01*
X82833500Y-54646000D02*
X82833500Y-55196000D01*
G75*
G02*
X82633500Y-55396000I-200000J0D01*
G01*
X82233500Y-55396000D01*
G75*
G02*
X82033500Y-55196000I0J200000D01*
G01*
X82033500Y-54646000D01*
G75*
G02*
X82233500Y-54446000I200000J0D01*
G01*
X82633500Y-54446000D01*
G75*
G02*
X82833500Y-54646000I0J-200000D01*
G01*
G37*
%TD*%
%TO.C,R5*%
G36*
G01*
X84637000Y-53672000D02*
X84637000Y-53122000D01*
G75*
G02*
X84837000Y-52922000I200000J0D01*
G01*
X85237000Y-52922000D01*
G75*
G02*
X85437000Y-53122000I0J-200000D01*
G01*
X85437000Y-53672000D01*
G75*
G02*
X85237000Y-53872000I-200000J0D01*
G01*
X84837000Y-53872000D01*
G75*
G02*
X84637000Y-53672000I0J200000D01*
G01*
G37*
G36*
G01*
X82987000Y-53672000D02*
X82987000Y-53122000D01*
G75*
G02*
X83187000Y-52922000I200000J0D01*
G01*
X83587000Y-52922000D01*
G75*
G02*
X83787000Y-53122000I0J-200000D01*
G01*
X83787000Y-53672000D01*
G75*
G02*
X83587000Y-53872000I-200000J0D01*
G01*
X83187000Y-53872000D01*
G75*
G02*
X82987000Y-53672000I0J200000D01*
G01*
G37*
%TD*%
%TO.C,R2*%
G36*
G01*
X90581500Y-53122000D02*
X90581500Y-53672000D01*
G75*
G02*
X90381500Y-53872000I-200000J0D01*
G01*
X89981500Y-53872000D01*
G75*
G02*
X89781500Y-53672000I0J200000D01*
G01*
X89781500Y-53122000D01*
G75*
G02*
X89981500Y-52922000I200000J0D01*
G01*
X90381500Y-52922000D01*
G75*
G02*
X90581500Y-53122000I0J-200000D01*
G01*
G37*
G36*
G01*
X92231500Y-53122000D02*
X92231500Y-53672000D01*
G75*
G02*
X92031500Y-53872000I-200000J0D01*
G01*
X91631500Y-53872000D01*
G75*
G02*
X91431500Y-53672000I0J200000D01*
G01*
X91431500Y-53122000D01*
G75*
G02*
X91631500Y-52922000I200000J0D01*
G01*
X92031500Y-52922000D01*
G75*
G02*
X92231500Y-53122000I0J-200000D01*
G01*
G37*
%TD*%
%TO.C,R1*%
G36*
G01*
X80675500Y-53122000D02*
X80675500Y-53672000D01*
G75*
G02*
X80475500Y-53872000I-200000J0D01*
G01*
X80075500Y-53872000D01*
G75*
G02*
X79875500Y-53672000I0J200000D01*
G01*
X79875500Y-53122000D01*
G75*
G02*
X80075500Y-52922000I200000J0D01*
G01*
X80475500Y-52922000D01*
G75*
G02*
X80675500Y-53122000I0J-200000D01*
G01*
G37*
G36*
G01*
X82325500Y-53122000D02*
X82325500Y-53672000D01*
G75*
G02*
X82125500Y-53872000I-200000J0D01*
G01*
X81725500Y-53872000D01*
G75*
G02*
X81525500Y-53672000I0J200000D01*
G01*
X81525500Y-53122000D01*
G75*
G02*
X81725500Y-52922000I200000J0D01*
G01*
X82125500Y-52922000D01*
G75*
G02*
X82325500Y-53122000I0J-200000D01*
G01*
G37*
%TD*%
D13*
%TO.C,D4*%
X94563000Y-54794000D03*
X94563000Y-56894000D03*
%TD*%
%TO.C,D3*%
X84657000Y-54794000D03*
X84657000Y-56894000D03*
%TD*%
%TO.C,C2*%
G36*
G01*
X91853000Y-56822000D02*
X91853000Y-56322000D01*
G75*
G02*
X92078000Y-56097000I225000J0D01*
G01*
X92528000Y-56097000D01*
G75*
G02*
X92753000Y-56322000I0J-225000D01*
G01*
X92753000Y-56822000D01*
G75*
G02*
X92528000Y-57047000I-225000J0D01*
G01*
X92078000Y-57047000D01*
G75*
G02*
X91853000Y-56822000I0J225000D01*
G01*
G37*
G36*
G01*
X90303000Y-56822000D02*
X90303000Y-56322000D01*
G75*
G02*
X90528000Y-56097000I225000J0D01*
G01*
X90978000Y-56097000D01*
G75*
G02*
X91203000Y-56322000I0J-225000D01*
G01*
X91203000Y-56822000D01*
G75*
G02*
X90978000Y-57047000I-225000J0D01*
G01*
X90528000Y-57047000D01*
G75*
G02*
X90303000Y-56822000I0J225000D01*
G01*
G37*
%TD*%
%TO.C,C1*%
G36*
G01*
X81947000Y-56822000D02*
X81947000Y-56322000D01*
G75*
G02*
X82172000Y-56097000I225000J0D01*
G01*
X82622000Y-56097000D01*
G75*
G02*
X82847000Y-56322000I0J-225000D01*
G01*
X82847000Y-56822000D01*
G75*
G02*
X82622000Y-57047000I-225000J0D01*
G01*
X82172000Y-57047000D01*
G75*
G02*
X81947000Y-56822000I0J225000D01*
G01*
G37*
G36*
G01*
X80397000Y-56822000D02*
X80397000Y-56322000D01*
G75*
G02*
X80622000Y-56097000I225000J0D01*
G01*
X81072000Y-56097000D01*
G75*
G02*
X81297000Y-56322000I0J-225000D01*
G01*
X81297000Y-56822000D01*
G75*
G02*
X81072000Y-57047000I-225000J0D01*
G01*
X80622000Y-57047000D01*
G75*
G02*
X80397000Y-56822000I0J225000D01*
G01*
G37*
%TD*%
%TO.C,C3*%
G36*
G01*
X57141000Y-56576000D02*
X57141000Y-57076000D01*
G75*
G02*
X56916000Y-57301000I-225000J0D01*
G01*
X56466000Y-57301000D01*
G75*
G02*
X56241000Y-57076000I0J225000D01*
G01*
X56241000Y-56576000D01*
G75*
G02*
X56466000Y-56351000I225000J0D01*
G01*
X56916000Y-56351000D01*
G75*
G02*
X57141000Y-56576000I0J-225000D01*
G01*
G37*
G36*
G01*
X58691000Y-56576000D02*
X58691000Y-57076000D01*
G75*
G02*
X58466000Y-57301000I-225000J0D01*
G01*
X58016000Y-57301000D01*
G75*
G02*
X57791000Y-57076000I0J225000D01*
G01*
X57791000Y-56576000D01*
G75*
G02*
X58016000Y-56351000I225000J0D01*
G01*
X58466000Y-56351000D01*
G75*
G02*
X58691000Y-56576000I0J-225000D01*
G01*
G37*
%TD*%
%TO.C,U1*%
G36*
G01*
X60123000Y-86747000D02*
X60423000Y-86747000D01*
G75*
G02*
X60573000Y-86897000I0J-150000D01*
G01*
X60573000Y-88547000D01*
G75*
G02*
X60423000Y-88697000I-150000J0D01*
G01*
X60123000Y-88697000D01*
G75*
G02*
X59973000Y-88547000I0J150000D01*
G01*
X59973000Y-86897000D01*
G75*
G02*
X60123000Y-86747000I150000J0D01*
G01*
G37*
G36*
G01*
X58853000Y-86747000D02*
X59153000Y-86747000D01*
G75*
G02*
X59303000Y-86897000I0J-150000D01*
G01*
X59303000Y-88547000D01*
G75*
G02*
X59153000Y-88697000I-150000J0D01*
G01*
X58853000Y-88697000D01*
G75*
G02*
X58703000Y-88547000I0J150000D01*
G01*
X58703000Y-86897000D01*
G75*
G02*
X58853000Y-86747000I150000J0D01*
G01*
G37*
G36*
G01*
X57583000Y-86747000D02*
X57883000Y-86747000D01*
G75*
G02*
X58033000Y-86897000I0J-150000D01*
G01*
X58033000Y-88547000D01*
G75*
G02*
X57883000Y-88697000I-150000J0D01*
G01*
X57583000Y-88697000D01*
G75*
G02*
X57433000Y-88547000I0J150000D01*
G01*
X57433000Y-86897000D01*
G75*
G02*
X57583000Y-86747000I150000J0D01*
G01*
G37*
G36*
G01*
X56313000Y-86747000D02*
X56613000Y-86747000D01*
G75*
G02*
X56763000Y-86897000I0J-150000D01*
G01*
X56763000Y-88547000D01*
G75*
G02*
X56613000Y-88697000I-150000J0D01*
G01*
X56313000Y-88697000D01*
G75*
G02*
X56163000Y-88547000I0J150000D01*
G01*
X56163000Y-86897000D01*
G75*
G02*
X56313000Y-86747000I150000J0D01*
G01*
G37*
G36*
G01*
X56313000Y-81797000D02*
X56613000Y-81797000D01*
G75*
G02*
X56763000Y-81947000I0J-150000D01*
G01*
X56763000Y-83597000D01*
G75*
G02*
X56613000Y-83747000I-150000J0D01*
G01*
X56313000Y-83747000D01*
G75*
G02*
X56163000Y-83597000I0J150000D01*
G01*
X56163000Y-81947000D01*
G75*
G02*
X56313000Y-81797000I150000J0D01*
G01*
G37*
G36*
G01*
X57583000Y-81797000D02*
X57883000Y-81797000D01*
G75*
G02*
X58033000Y-81947000I0J-150000D01*
G01*
X58033000Y-83597000D01*
G75*
G02*
X57883000Y-83747000I-150000J0D01*
G01*
X57583000Y-83747000D01*
G75*
G02*
X57433000Y-83597000I0J150000D01*
G01*
X57433000Y-81947000D01*
G75*
G02*
X57583000Y-81797000I150000J0D01*
G01*
G37*
G36*
G01*
X58853000Y-81797000D02*
X59153000Y-81797000D01*
G75*
G02*
X59303000Y-81947000I0J-150000D01*
G01*
X59303000Y-83597000D01*
G75*
G02*
X59153000Y-83747000I-150000J0D01*
G01*
X58853000Y-83747000D01*
G75*
G02*
X58703000Y-83597000I0J150000D01*
G01*
X58703000Y-81947000D01*
G75*
G02*
X58853000Y-81797000I150000J0D01*
G01*
G37*
G36*
G01*
X60123000Y-81797000D02*
X60423000Y-81797000D01*
G75*
G02*
X60573000Y-81947000I0J-150000D01*
G01*
X60573000Y-83597000D01*
G75*
G02*
X60423000Y-83747000I-150000J0D01*
G01*
X60123000Y-83747000D01*
G75*
G02*
X59973000Y-83597000I0J150000D01*
G01*
X59973000Y-81947000D01*
G75*
G02*
X60123000Y-81797000I150000J0D01*
G01*
G37*
%TD*%
%TO.C,R16*%
G36*
G01*
X81717000Y-79172000D02*
X81717000Y-78622000D01*
G75*
G02*
X81917000Y-78422000I200000J0D01*
G01*
X82317000Y-78422000D01*
G75*
G02*
X82517000Y-78622000I0J-200000D01*
G01*
X82517000Y-79172000D01*
G75*
G02*
X82317000Y-79372000I-200000J0D01*
G01*
X81917000Y-79372000D01*
G75*
G02*
X81717000Y-79172000I0J200000D01*
G01*
G37*
G36*
G01*
X80067000Y-79172000D02*
X80067000Y-78622000D01*
G75*
G02*
X80267000Y-78422000I200000J0D01*
G01*
X80667000Y-78422000D01*
G75*
G02*
X80867000Y-78622000I0J-200000D01*
G01*
X80867000Y-79172000D01*
G75*
G02*
X80667000Y-79372000I-200000J0D01*
G01*
X80267000Y-79372000D01*
G75*
G02*
X80067000Y-79172000I0J200000D01*
G01*
G37*
%TD*%
%TO.C,R14*%
G36*
G01*
X81716000Y-81013500D02*
X81716000Y-80463500D01*
G75*
G02*
X81916000Y-80263500I200000J0D01*
G01*
X82316000Y-80263500D01*
G75*
G02*
X82516000Y-80463500I0J-200000D01*
G01*
X82516000Y-81013500D01*
G75*
G02*
X82316000Y-81213500I-200000J0D01*
G01*
X81916000Y-81213500D01*
G75*
G02*
X81716000Y-81013500I0J200000D01*
G01*
G37*
G36*
G01*
X80066000Y-81013500D02*
X80066000Y-80463500D01*
G75*
G02*
X80266000Y-80263500I200000J0D01*
G01*
X80666000Y-80263500D01*
G75*
G02*
X80866000Y-80463500I0J-200000D01*
G01*
X80866000Y-81013500D01*
G75*
G02*
X80666000Y-81213500I-200000J0D01*
G01*
X80266000Y-81213500D01*
G75*
G02*
X80066000Y-81013500I0J200000D01*
G01*
G37*
%TD*%
%TO.C,R4*%
G36*
G01*
X73119000Y-78622000D02*
X73119000Y-79172000D01*
G75*
G02*
X72919000Y-79372000I-200000J0D01*
G01*
X72519000Y-79372000D01*
G75*
G02*
X72319000Y-79172000I0J200000D01*
G01*
X72319000Y-78622000D01*
G75*
G02*
X72519000Y-78422000I200000J0D01*
G01*
X72919000Y-78422000D01*
G75*
G02*
X73119000Y-78622000I0J-200000D01*
G01*
G37*
G36*
G01*
X74769000Y-78622000D02*
X74769000Y-79172000D01*
G75*
G02*
X74569000Y-79372000I-200000J0D01*
G01*
X74169000Y-79372000D01*
G75*
G02*
X73969000Y-79172000I0J200000D01*
G01*
X73969000Y-78622000D01*
G75*
G02*
X74169000Y-78422000I200000J0D01*
G01*
X74569000Y-78422000D01*
G75*
G02*
X74769000Y-78622000I0J-200000D01*
G01*
G37*
%TD*%
%TO.C,R2*%
G36*
G01*
X73969000Y-80696000D02*
X73969000Y-80146000D01*
G75*
G02*
X74169000Y-79946000I200000J0D01*
G01*
X74569000Y-79946000D01*
G75*
G02*
X74769000Y-80146000I0J-200000D01*
G01*
X74769000Y-80696000D01*
G75*
G02*
X74569000Y-80896000I-200000J0D01*
G01*
X74169000Y-80896000D01*
G75*
G02*
X73969000Y-80696000I0J200000D01*
G01*
G37*
G36*
G01*
X72319000Y-80696000D02*
X72319000Y-80146000D01*
G75*
G02*
X72519000Y-79946000I200000J0D01*
G01*
X72919000Y-79946000D01*
G75*
G02*
X73119000Y-80146000I0J-200000D01*
G01*
X73119000Y-80696000D01*
G75*
G02*
X72919000Y-80896000I-200000J0D01*
G01*
X72519000Y-80896000D01*
G75*
G02*
X72319000Y-80696000I0J200000D01*
G01*
G37*
%TD*%
D10*
%TO.C,Q6*%
X84591000Y-80960500D03*
X83641000Y-78960500D03*
X85541000Y-78960500D03*
%TD*%
D14*
%TO.C,Q2*%
X69195000Y-79910500D03*
X71195000Y-78960500D03*
X71195000Y-80860500D03*
%TD*%
%TO.C,C10*%
G36*
G01*
X58172000Y-90069000D02*
X58172000Y-89569000D01*
G75*
G02*
X58397000Y-89344000I225000J0D01*
G01*
X58847000Y-89344000D01*
G75*
G02*
X59072000Y-89569000I0J-225000D01*
G01*
X59072000Y-90069000D01*
G75*
G02*
X58847000Y-90294000I-225000J0D01*
G01*
X58397000Y-90294000D01*
G75*
G02*
X58172000Y-90069000I0J225000D01*
G01*
G37*
G36*
G01*
X56622000Y-90069000D02*
X56622000Y-89569000D01*
G75*
G02*
X56847000Y-89344000I225000J0D01*
G01*
X57297000Y-89344000D01*
G75*
G02*
X57522000Y-89569000I0J-225000D01*
G01*
X57522000Y-90069000D01*
G75*
G02*
X57297000Y-90294000I-225000J0D01*
G01*
X56847000Y-90294000D01*
G75*
G02*
X56622000Y-90069000I0J225000D01*
G01*
G37*
%TD*%
%TO.C,C8*%
G36*
G01*
X58680000Y-80925000D02*
X58680000Y-80425000D01*
G75*
G02*
X58905000Y-80200000I225000J0D01*
G01*
X59355000Y-80200000D01*
G75*
G02*
X59580000Y-80425000I0J-225000D01*
G01*
X59580000Y-80925000D01*
G75*
G02*
X59355000Y-81150000I-225000J0D01*
G01*
X58905000Y-81150000D01*
G75*
G02*
X58680000Y-80925000I0J225000D01*
G01*
G37*
G36*
G01*
X57130000Y-80925000D02*
X57130000Y-80425000D01*
G75*
G02*
X57355000Y-80200000I225000J0D01*
G01*
X57805000Y-80200000D01*
G75*
G02*
X58030000Y-80425000I0J-225000D01*
G01*
X58030000Y-80925000D01*
G75*
G02*
X57805000Y-81150000I-225000J0D01*
G01*
X57355000Y-81150000D01*
G75*
G02*
X57130000Y-80925000I0J225000D01*
G01*
G37*
%TD*%
D15*
%TO.C,U2*%
X79822000Y-83891000D03*
X79822000Y-84541000D03*
X79822000Y-85191000D03*
X79822000Y-85841000D03*
X75522000Y-85841000D03*
X75522000Y-85191000D03*
X75522000Y-84541000D03*
X75522000Y-83891000D03*
%TD*%
%TO.C,R12*%
G36*
G01*
X53902000Y-87259000D02*
X54452000Y-87259000D01*
G75*
G02*
X54652000Y-87459000I0J-200000D01*
G01*
X54652000Y-87859000D01*
G75*
G02*
X54452000Y-88059000I-200000J0D01*
G01*
X53902000Y-88059000D01*
G75*
G02*
X53702000Y-87859000I0J200000D01*
G01*
X53702000Y-87459000D01*
G75*
G02*
X53902000Y-87259000I200000J0D01*
G01*
G37*
G36*
G01*
X53902000Y-85609000D02*
X54452000Y-85609000D01*
G75*
G02*
X54652000Y-85809000I0J-200000D01*
G01*
X54652000Y-86209000D01*
G75*
G02*
X54452000Y-86409000I-200000J0D01*
G01*
X53902000Y-86409000D01*
G75*
G02*
X53702000Y-86209000I0J200000D01*
G01*
X53702000Y-85809000D01*
G75*
G02*
X53902000Y-85609000I200000J0D01*
G01*
G37*
%TD*%
%TO.C,R11*%
G36*
G01*
X53902000Y-90942000D02*
X54452000Y-90942000D01*
G75*
G02*
X54652000Y-91142000I0J-200000D01*
G01*
X54652000Y-91542000D01*
G75*
G02*
X54452000Y-91742000I-200000J0D01*
G01*
X53902000Y-91742000D01*
G75*
G02*
X53702000Y-91542000I0J200000D01*
G01*
X53702000Y-91142000D01*
G75*
G02*
X53902000Y-90942000I200000J0D01*
G01*
G37*
G36*
G01*
X53902000Y-89292000D02*
X54452000Y-89292000D01*
G75*
G02*
X54652000Y-89492000I0J-200000D01*
G01*
X54652000Y-89892000D01*
G75*
G02*
X54452000Y-90092000I-200000J0D01*
G01*
X53902000Y-90092000D01*
G75*
G02*
X53702000Y-89892000I0J200000D01*
G01*
X53702000Y-89492000D01*
G75*
G02*
X53902000Y-89292000I200000J0D01*
G01*
G37*
%TD*%
%TO.C,R8*%
G36*
G01*
X49372000Y-88886500D02*
X48822000Y-88886500D01*
G75*
G02*
X48622000Y-88686500I0J200000D01*
G01*
X48622000Y-88286500D01*
G75*
G02*
X48822000Y-88086500I200000J0D01*
G01*
X49372000Y-88086500D01*
G75*
G02*
X49572000Y-88286500I0J-200000D01*
G01*
X49572000Y-88686500D01*
G75*
G02*
X49372000Y-88886500I-200000J0D01*
G01*
G37*
G36*
G01*
X49372000Y-90536500D02*
X48822000Y-90536500D01*
G75*
G02*
X48622000Y-90336500I0J200000D01*
G01*
X48622000Y-89936500D01*
G75*
G02*
X48822000Y-89736500I200000J0D01*
G01*
X49372000Y-89736500D01*
G75*
G02*
X49572000Y-89936500I0J-200000D01*
G01*
X49572000Y-90336500D01*
G75*
G02*
X49372000Y-90536500I-200000J0D01*
G01*
G37*
%TD*%
%TO.C,R7*%
G36*
G01*
X48822000Y-92847000D02*
X49372000Y-92847000D01*
G75*
G02*
X49572000Y-93047000I0J-200000D01*
G01*
X49572000Y-93447000D01*
G75*
G02*
X49372000Y-93647000I-200000J0D01*
G01*
X48822000Y-93647000D01*
G75*
G02*
X48622000Y-93447000I0J200000D01*
G01*
X48622000Y-93047000D01*
G75*
G02*
X48822000Y-92847000I200000J0D01*
G01*
G37*
G36*
G01*
X48822000Y-91197000D02*
X49372000Y-91197000D01*
G75*
G02*
X49572000Y-91397000I0J-200000D01*
G01*
X49572000Y-91797000D01*
G75*
G02*
X49372000Y-91997000I-200000J0D01*
G01*
X48822000Y-91997000D01*
G75*
G02*
X48622000Y-91797000I0J200000D01*
G01*
X48622000Y-91397000D01*
G75*
G02*
X48822000Y-91197000I200000J0D01*
G01*
G37*
%TD*%
%TO.C,R20*%
G36*
G01*
X89970000Y-80529000D02*
X90520000Y-80529000D01*
G75*
G02*
X90720000Y-80729000I0J-200000D01*
G01*
X90720000Y-81129000D01*
G75*
G02*
X90520000Y-81329000I-200000J0D01*
G01*
X89970000Y-81329000D01*
G75*
G02*
X89770000Y-81129000I0J200000D01*
G01*
X89770000Y-80729000D01*
G75*
G02*
X89970000Y-80529000I200000J0D01*
G01*
G37*
G36*
G01*
X89970000Y-78879000D02*
X90520000Y-78879000D01*
G75*
G02*
X90720000Y-79079000I0J-200000D01*
G01*
X90720000Y-79479000D01*
G75*
G02*
X90520000Y-79679000I-200000J0D01*
G01*
X89970000Y-79679000D01*
G75*
G02*
X89770000Y-79479000I0J200000D01*
G01*
X89770000Y-79079000D01*
G75*
G02*
X89970000Y-78879000I200000J0D01*
G01*
G37*
%TD*%
%TO.C,R19*%
G36*
G01*
X91494000Y-80529000D02*
X92044000Y-80529000D01*
G75*
G02*
X92244000Y-80729000I0J-200000D01*
G01*
X92244000Y-81129000D01*
G75*
G02*
X92044000Y-81329000I-200000J0D01*
G01*
X91494000Y-81329000D01*
G75*
G02*
X91294000Y-81129000I0J200000D01*
G01*
X91294000Y-80729000D01*
G75*
G02*
X91494000Y-80529000I200000J0D01*
G01*
G37*
G36*
G01*
X91494000Y-78879000D02*
X92044000Y-78879000D01*
G75*
G02*
X92244000Y-79079000I0J-200000D01*
G01*
X92244000Y-79479000D01*
G75*
G02*
X92044000Y-79679000I-200000J0D01*
G01*
X91494000Y-79679000D01*
G75*
G02*
X91294000Y-79479000I0J200000D01*
G01*
X91294000Y-79079000D01*
G75*
G02*
X91494000Y-78879000I200000J0D01*
G01*
G37*
%TD*%
%TO.C,R10*%
G36*
G01*
X62792000Y-80529000D02*
X63342000Y-80529000D01*
G75*
G02*
X63542000Y-80729000I0J-200000D01*
G01*
X63542000Y-81129000D01*
G75*
G02*
X63342000Y-81329000I-200000J0D01*
G01*
X62792000Y-81329000D01*
G75*
G02*
X62592000Y-81129000I0J200000D01*
G01*
X62592000Y-80729000D01*
G75*
G02*
X62792000Y-80529000I200000J0D01*
G01*
G37*
G36*
G01*
X62792000Y-78879000D02*
X63342000Y-78879000D01*
G75*
G02*
X63542000Y-79079000I0J-200000D01*
G01*
X63542000Y-79479000D01*
G75*
G02*
X63342000Y-79679000I-200000J0D01*
G01*
X62792000Y-79679000D01*
G75*
G02*
X62592000Y-79479000I0J200000D01*
G01*
X62592000Y-79079000D01*
G75*
G02*
X62792000Y-78879000I200000J0D01*
G01*
G37*
%TD*%
%TO.C,R9*%
G36*
G01*
X64316000Y-80529000D02*
X64866000Y-80529000D01*
G75*
G02*
X65066000Y-80729000I0J-200000D01*
G01*
X65066000Y-81129000D01*
G75*
G02*
X64866000Y-81329000I-200000J0D01*
G01*
X64316000Y-81329000D01*
G75*
G02*
X64116000Y-81129000I0J200000D01*
G01*
X64116000Y-80729000D01*
G75*
G02*
X64316000Y-80529000I200000J0D01*
G01*
G37*
G36*
G01*
X64316000Y-78879000D02*
X64866000Y-78879000D01*
G75*
G02*
X65066000Y-79079000I0J-200000D01*
G01*
X65066000Y-79479000D01*
G75*
G02*
X64866000Y-79679000I-200000J0D01*
G01*
X64316000Y-79679000D01*
G75*
G02*
X64116000Y-79479000I0J200000D01*
G01*
X64116000Y-79079000D01*
G75*
G02*
X64316000Y-78879000I200000J0D01*
G01*
G37*
%TD*%
%TO.C,R18*%
G36*
G01*
X88321000Y-79553000D02*
X88321000Y-79003000D01*
G75*
G02*
X88521000Y-78803000I200000J0D01*
G01*
X88921000Y-78803000D01*
G75*
G02*
X89121000Y-79003000I0J-200000D01*
G01*
X89121000Y-79553000D01*
G75*
G02*
X88921000Y-79753000I-200000J0D01*
G01*
X88521000Y-79753000D01*
G75*
G02*
X88321000Y-79553000I0J200000D01*
G01*
G37*
G36*
G01*
X86671000Y-79553000D02*
X86671000Y-79003000D01*
G75*
G02*
X86871000Y-78803000I200000J0D01*
G01*
X87271000Y-78803000D01*
G75*
G02*
X87471000Y-79003000I0J-200000D01*
G01*
X87471000Y-79553000D01*
G75*
G02*
X87271000Y-79753000I-200000J0D01*
G01*
X86871000Y-79753000D01*
G75*
G02*
X86671000Y-79553000I0J200000D01*
G01*
G37*
%TD*%
%TO.C,R6*%
G36*
G01*
X66515000Y-79003000D02*
X66515000Y-79553000D01*
G75*
G02*
X66315000Y-79753000I-200000J0D01*
G01*
X65915000Y-79753000D01*
G75*
G02*
X65715000Y-79553000I0J200000D01*
G01*
X65715000Y-79003000D01*
G75*
G02*
X65915000Y-78803000I200000J0D01*
G01*
X66315000Y-78803000D01*
G75*
G02*
X66515000Y-79003000I0J-200000D01*
G01*
G37*
G36*
G01*
X68165000Y-79003000D02*
X68165000Y-79553000D01*
G75*
G02*
X67965000Y-79753000I-200000J0D01*
G01*
X67565000Y-79753000D01*
G75*
G02*
X67365000Y-79553000I0J200000D01*
G01*
X67365000Y-79003000D01*
G75*
G02*
X67565000Y-78803000I200000J0D01*
G01*
X67965000Y-78803000D01*
G75*
G02*
X68165000Y-79003000I0J-200000D01*
G01*
G37*
%TD*%
D14*
%TO.C,Q4*%
X50621000Y-86832000D03*
X52621000Y-85882000D03*
X52621000Y-87782000D03*
%TD*%
%TO.C,Q3*%
X50621000Y-90454000D03*
X52621000Y-89504000D03*
X52621000Y-91404000D03*
%TD*%
%TO.C,C13*%
G36*
G01*
X77995000Y-81949000D02*
X77995000Y-82449000D01*
G75*
G02*
X77770000Y-82674000I-225000J0D01*
G01*
X77320000Y-82674000D01*
G75*
G02*
X77095000Y-82449000I0J225000D01*
G01*
X77095000Y-81949000D01*
G75*
G02*
X77320000Y-81724000I225000J0D01*
G01*
X77770000Y-81724000D01*
G75*
G02*
X77995000Y-81949000I0J-225000D01*
G01*
G37*
G36*
G01*
X79545000Y-81949000D02*
X79545000Y-82449000D01*
G75*
G02*
X79320000Y-82674000I-225000J0D01*
G01*
X78870000Y-82674000D01*
G75*
G02*
X78645000Y-82449000I0J225000D01*
G01*
X78645000Y-81949000D01*
G75*
G02*
X78870000Y-81724000I225000J0D01*
G01*
X79320000Y-81724000D01*
G75*
G02*
X79545000Y-81949000I0J-225000D01*
G01*
G37*
%TD*%
%TO.C,U2*%
G36*
G01*
X59434000Y-117400000D02*
X59734000Y-117400000D01*
G75*
G02*
X59884000Y-117550000I0J-150000D01*
G01*
X59884000Y-119200000D01*
G75*
G02*
X59734000Y-119350000I-150000J0D01*
G01*
X59434000Y-119350000D01*
G75*
G02*
X59284000Y-119200000I0J150000D01*
G01*
X59284000Y-117550000D01*
G75*
G02*
X59434000Y-117400000I150000J0D01*
G01*
G37*
G36*
G01*
X58164000Y-117400000D02*
X58464000Y-117400000D01*
G75*
G02*
X58614000Y-117550000I0J-150000D01*
G01*
X58614000Y-119200000D01*
G75*
G02*
X58464000Y-119350000I-150000J0D01*
G01*
X58164000Y-119350000D01*
G75*
G02*
X58014000Y-119200000I0J150000D01*
G01*
X58014000Y-117550000D01*
G75*
G02*
X58164000Y-117400000I150000J0D01*
G01*
G37*
G36*
G01*
X56894000Y-117400000D02*
X57194000Y-117400000D01*
G75*
G02*
X57344000Y-117550000I0J-150000D01*
G01*
X57344000Y-119200000D01*
G75*
G02*
X57194000Y-119350000I-150000J0D01*
G01*
X56894000Y-119350000D01*
G75*
G02*
X56744000Y-119200000I0J150000D01*
G01*
X56744000Y-117550000D01*
G75*
G02*
X56894000Y-117400000I150000J0D01*
G01*
G37*
G36*
G01*
X55624000Y-117400000D02*
X55924000Y-117400000D01*
G75*
G02*
X56074000Y-117550000I0J-150000D01*
G01*
X56074000Y-119200000D01*
G75*
G02*
X55924000Y-119350000I-150000J0D01*
G01*
X55624000Y-119350000D01*
G75*
G02*
X55474000Y-119200000I0J150000D01*
G01*
X55474000Y-117550000D01*
G75*
G02*
X55624000Y-117400000I150000J0D01*
G01*
G37*
G36*
G01*
X55624000Y-112450000D02*
X55924000Y-112450000D01*
G75*
G02*
X56074000Y-112600000I0J-150000D01*
G01*
X56074000Y-114250000D01*
G75*
G02*
X55924000Y-114400000I-150000J0D01*
G01*
X55624000Y-114400000D01*
G75*
G02*
X55474000Y-114250000I0J150000D01*
G01*
X55474000Y-112600000D01*
G75*
G02*
X55624000Y-112450000I150000J0D01*
G01*
G37*
G36*
G01*
X56894000Y-112450000D02*
X57194000Y-112450000D01*
G75*
G02*
X57344000Y-112600000I0J-150000D01*
G01*
X57344000Y-114250000D01*
G75*
G02*
X57194000Y-114400000I-150000J0D01*
G01*
X56894000Y-114400000D01*
G75*
G02*
X56744000Y-114250000I0J150000D01*
G01*
X56744000Y-112600000D01*
G75*
G02*
X56894000Y-112450000I150000J0D01*
G01*
G37*
G36*
G01*
X58164000Y-112450000D02*
X58464000Y-112450000D01*
G75*
G02*
X58614000Y-112600000I0J-150000D01*
G01*
X58614000Y-114250000D01*
G75*
G02*
X58464000Y-114400000I-150000J0D01*
G01*
X58164000Y-114400000D01*
G75*
G02*
X58014000Y-114250000I0J150000D01*
G01*
X58014000Y-112600000D01*
G75*
G02*
X58164000Y-112450000I150000J0D01*
G01*
G37*
G36*
G01*
X59434000Y-112450000D02*
X59734000Y-112450000D01*
G75*
G02*
X59884000Y-112600000I0J-150000D01*
G01*
X59884000Y-114250000D01*
G75*
G02*
X59734000Y-114400000I-150000J0D01*
G01*
X59434000Y-114400000D01*
G75*
G02*
X59284000Y-114250000I0J150000D01*
G01*
X59284000Y-112600000D01*
G75*
G02*
X59434000Y-112450000I150000J0D01*
G01*
G37*
%TD*%
%TO.C,R23*%
G36*
G01*
X54398000Y-127475000D02*
X53848000Y-127475000D01*
G75*
G02*
X53648000Y-127275000I0J200000D01*
G01*
X53648000Y-126875000D01*
G75*
G02*
X53848000Y-126675000I200000J0D01*
G01*
X54398000Y-126675000D01*
G75*
G02*
X54598000Y-126875000I0J-200000D01*
G01*
X54598000Y-127275000D01*
G75*
G02*
X54398000Y-127475000I-200000J0D01*
G01*
G37*
G36*
G01*
X54398000Y-125825000D02*
X53848000Y-125825000D01*
G75*
G02*
X53648000Y-125625000I0J200000D01*
G01*
X53648000Y-125225000D01*
G75*
G02*
X53848000Y-125025000I200000J0D01*
G01*
X54398000Y-125025000D01*
G75*
G02*
X54598000Y-125225000I0J-200000D01*
G01*
X54598000Y-125625000D01*
G75*
G02*
X54398000Y-125825000I-200000J0D01*
G01*
G37*
%TD*%
%TO.C,R21*%
G36*
G01*
X48768000Y-119437000D02*
X49318000Y-119437000D01*
G75*
G02*
X49518000Y-119637000I0J-200000D01*
G01*
X49518000Y-120037000D01*
G75*
G02*
X49318000Y-120237000I-200000J0D01*
G01*
X48768000Y-120237000D01*
G75*
G02*
X48568000Y-120037000I0J200000D01*
G01*
X48568000Y-119637000D01*
G75*
G02*
X48768000Y-119437000I200000J0D01*
G01*
G37*
G36*
G01*
X48768000Y-117787000D02*
X49318000Y-117787000D01*
G75*
G02*
X49518000Y-117987000I0J-200000D01*
G01*
X49518000Y-118387000D01*
G75*
G02*
X49318000Y-118587000I-200000J0D01*
G01*
X48768000Y-118587000D01*
G75*
G02*
X48568000Y-118387000I0J200000D01*
G01*
X48568000Y-117987000D01*
G75*
G02*
X48768000Y-117787000I200000J0D01*
G01*
G37*
%TD*%
%TO.C,R19*%
G36*
G01*
X49318000Y-127476000D02*
X48768000Y-127476000D01*
G75*
G02*
X48568000Y-127276000I0J200000D01*
G01*
X48568000Y-126876000D01*
G75*
G02*
X48768000Y-126676000I200000J0D01*
G01*
X49318000Y-126676000D01*
G75*
G02*
X49518000Y-126876000I0J-200000D01*
G01*
X49518000Y-127276000D01*
G75*
G02*
X49318000Y-127476000I-200000J0D01*
G01*
G37*
G36*
G01*
X49318000Y-125826000D02*
X48768000Y-125826000D01*
G75*
G02*
X48568000Y-125626000I0J200000D01*
G01*
X48568000Y-125226000D01*
G75*
G02*
X48768000Y-125026000I200000J0D01*
G01*
X49318000Y-125026000D01*
G75*
G02*
X49518000Y-125226000I0J-200000D01*
G01*
X49518000Y-125626000D01*
G75*
G02*
X49318000Y-125826000I-200000J0D01*
G01*
G37*
%TD*%
%TO.C,R17*%
G36*
G01*
X53848000Y-119437000D02*
X54398000Y-119437000D01*
G75*
G02*
X54598000Y-119637000I0J-200000D01*
G01*
X54598000Y-120037000D01*
G75*
G02*
X54398000Y-120237000I-200000J0D01*
G01*
X53848000Y-120237000D01*
G75*
G02*
X53648000Y-120037000I0J200000D01*
G01*
X53648000Y-119637000D01*
G75*
G02*
X53848000Y-119437000I200000J0D01*
G01*
G37*
G36*
G01*
X53848000Y-117787000D02*
X54398000Y-117787000D01*
G75*
G02*
X54598000Y-117987000I0J-200000D01*
G01*
X54598000Y-118387000D01*
G75*
G02*
X54398000Y-118587000I-200000J0D01*
G01*
X53848000Y-118587000D01*
G75*
G02*
X53648000Y-118387000I0J200000D01*
G01*
X53648000Y-117987000D01*
G75*
G02*
X53848000Y-117787000I200000J0D01*
G01*
G37*
%TD*%
%TO.C,R15*%
G36*
G01*
X52745000Y-123626000D02*
X52745000Y-124176000D01*
G75*
G02*
X52545000Y-124376000I-200000J0D01*
G01*
X52145000Y-124376000D01*
G75*
G02*
X51945000Y-124176000I0J200000D01*
G01*
X51945000Y-123626000D01*
G75*
G02*
X52145000Y-123426000I200000J0D01*
G01*
X52545000Y-123426000D01*
G75*
G02*
X52745000Y-123626000I0J-200000D01*
G01*
G37*
G36*
G01*
X51095000Y-123626000D02*
X51095000Y-124176000D01*
G75*
G02*
X50895000Y-124376000I-200000J0D01*
G01*
X50495000Y-124376000D01*
G75*
G02*
X50295000Y-124176000I0J200000D01*
G01*
X50295000Y-123626000D01*
G75*
G02*
X50495000Y-123426000I200000J0D01*
G01*
X50895000Y-123426000D01*
G75*
G02*
X51095000Y-123626000I0J-200000D01*
G01*
G37*
%TD*%
%TO.C,R13*%
G36*
G01*
X51944000Y-121636000D02*
X51944000Y-121086000D01*
G75*
G02*
X52144000Y-120886000I200000J0D01*
G01*
X52544000Y-120886000D01*
G75*
G02*
X52744000Y-121086000I0J-200000D01*
G01*
X52744000Y-121636000D01*
G75*
G02*
X52544000Y-121836000I-200000J0D01*
G01*
X52144000Y-121836000D01*
G75*
G02*
X51944000Y-121636000I0J200000D01*
G01*
G37*
G36*
G01*
X50294000Y-121636000D02*
X50294000Y-121086000D01*
G75*
G02*
X50494000Y-120886000I200000J0D01*
G01*
X50894000Y-120886000D01*
G75*
G02*
X51094000Y-121086000I0J-200000D01*
G01*
X51094000Y-121636000D01*
G75*
G02*
X50894000Y-121836000I-200000J0D01*
G01*
X50494000Y-121836000D01*
G75*
G02*
X50294000Y-121636000I0J200000D01*
G01*
G37*
%TD*%
%TO.C,R11*%
G36*
G01*
X51945000Y-108174000D02*
X51945000Y-107624000D01*
G75*
G02*
X52145000Y-107424000I200000J0D01*
G01*
X52545000Y-107424000D01*
G75*
G02*
X52745000Y-107624000I0J-200000D01*
G01*
X52745000Y-108174000D01*
G75*
G02*
X52545000Y-108374000I-200000J0D01*
G01*
X52145000Y-108374000D01*
G75*
G02*
X51945000Y-108174000I0J200000D01*
G01*
G37*
G36*
G01*
X50295000Y-108174000D02*
X50295000Y-107624000D01*
G75*
G02*
X50495000Y-107424000I200000J0D01*
G01*
X50895000Y-107424000D01*
G75*
G02*
X51095000Y-107624000I0J-200000D01*
G01*
X51095000Y-108174000D01*
G75*
G02*
X50895000Y-108374000I-200000J0D01*
G01*
X50495000Y-108374000D01*
G75*
G02*
X50295000Y-108174000I0J200000D01*
G01*
G37*
%TD*%
%TO.C,R10*%
G36*
G01*
X51095000Y-110164000D02*
X51095000Y-110714000D01*
G75*
G02*
X50895000Y-110914000I-200000J0D01*
G01*
X50495000Y-110914000D01*
G75*
G02*
X50295000Y-110714000I0J200000D01*
G01*
X50295000Y-110164000D01*
G75*
G02*
X50495000Y-109964000I200000J0D01*
G01*
X50895000Y-109964000D01*
G75*
G02*
X51095000Y-110164000I0J-200000D01*
G01*
G37*
G36*
G01*
X52745000Y-110164000D02*
X52745000Y-110714000D01*
G75*
G02*
X52545000Y-110914000I-200000J0D01*
G01*
X52145000Y-110914000D01*
G75*
G02*
X51945000Y-110714000I0J200000D01*
G01*
X51945000Y-110164000D01*
G75*
G02*
X52145000Y-109964000I200000J0D01*
G01*
X52545000Y-109964000D01*
G75*
G02*
X52745000Y-110164000I0J-200000D01*
G01*
G37*
%TD*%
%TO.C,R7*%
G36*
G01*
X54398000Y-105124000D02*
X53848000Y-105124000D01*
G75*
G02*
X53648000Y-104924000I0J200000D01*
G01*
X53648000Y-104524000D01*
G75*
G02*
X53848000Y-104324000I200000J0D01*
G01*
X54398000Y-104324000D01*
G75*
G02*
X54598000Y-104524000I0J-200000D01*
G01*
X54598000Y-104924000D01*
G75*
G02*
X54398000Y-105124000I-200000J0D01*
G01*
G37*
G36*
G01*
X54398000Y-106774000D02*
X53848000Y-106774000D01*
G75*
G02*
X53648000Y-106574000I0J200000D01*
G01*
X53648000Y-106174000D01*
G75*
G02*
X53848000Y-105974000I200000J0D01*
G01*
X54398000Y-105974000D01*
G75*
G02*
X54598000Y-106174000I0J-200000D01*
G01*
X54598000Y-106574000D01*
G75*
G02*
X54398000Y-106774000I-200000J0D01*
G01*
G37*
%TD*%
%TO.C,R6*%
G36*
G01*
X48641000Y-113213000D02*
X49191000Y-113213000D01*
G75*
G02*
X49391000Y-113413000I0J-200000D01*
G01*
X49391000Y-113813000D01*
G75*
G02*
X49191000Y-114013000I-200000J0D01*
G01*
X48641000Y-114013000D01*
G75*
G02*
X48441000Y-113813000I0J200000D01*
G01*
X48441000Y-113413000D01*
G75*
G02*
X48641000Y-113213000I200000J0D01*
G01*
G37*
G36*
G01*
X48641000Y-111563000D02*
X49191000Y-111563000D01*
G75*
G02*
X49391000Y-111763000I0J-200000D01*
G01*
X49391000Y-112163000D01*
G75*
G02*
X49191000Y-112363000I-200000J0D01*
G01*
X48641000Y-112363000D01*
G75*
G02*
X48441000Y-112163000I0J200000D01*
G01*
X48441000Y-111763000D01*
G75*
G02*
X48641000Y-111563000I200000J0D01*
G01*
G37*
%TD*%
%TO.C,R3*%
G36*
G01*
X48641000Y-105975000D02*
X49191000Y-105975000D01*
G75*
G02*
X49391000Y-106175000I0J-200000D01*
G01*
X49391000Y-106575000D01*
G75*
G02*
X49191000Y-106775000I-200000J0D01*
G01*
X48641000Y-106775000D01*
G75*
G02*
X48441000Y-106575000I0J200000D01*
G01*
X48441000Y-106175000D01*
G75*
G02*
X48641000Y-105975000I200000J0D01*
G01*
G37*
G36*
G01*
X48641000Y-104325000D02*
X49191000Y-104325000D01*
G75*
G02*
X49391000Y-104525000I0J-200000D01*
G01*
X49391000Y-104925000D01*
G75*
G02*
X49191000Y-105125000I-200000J0D01*
G01*
X48641000Y-105125000D01*
G75*
G02*
X48441000Y-104925000I0J200000D01*
G01*
X48441000Y-104525000D01*
G75*
G02*
X48641000Y-104325000I200000J0D01*
G01*
G37*
%TD*%
%TO.C,R2*%
G36*
G01*
X54398000Y-112363000D02*
X53848000Y-112363000D01*
G75*
G02*
X53648000Y-112163000I0J200000D01*
G01*
X53648000Y-111763000D01*
G75*
G02*
X53848000Y-111563000I200000J0D01*
G01*
X54398000Y-111563000D01*
G75*
G02*
X54598000Y-111763000I0J-200000D01*
G01*
X54598000Y-112163000D01*
G75*
G02*
X54398000Y-112363000I-200000J0D01*
G01*
G37*
G36*
G01*
X54398000Y-114013000D02*
X53848000Y-114013000D01*
G75*
G02*
X53648000Y-113813000I0J200000D01*
G01*
X53648000Y-113413000D01*
G75*
G02*
X53848000Y-113213000I200000J0D01*
G01*
X54398000Y-113213000D01*
G75*
G02*
X54598000Y-113413000I0J-200000D01*
G01*
X54598000Y-113813000D01*
G75*
G02*
X54398000Y-114013000I-200000J0D01*
G01*
G37*
%TD*%
D10*
%TO.C,Q7*%
X52533000Y-125425000D03*
X50633000Y-125425000D03*
X51583000Y-127425000D03*
%TD*%
%TO.C,Q5*%
X51583000Y-117837000D03*
X52533000Y-119837000D03*
X50633000Y-119837000D03*
%TD*%
%TO.C,Q3*%
X51522000Y-104375000D03*
X52472000Y-106375000D03*
X50572000Y-106375000D03*
%TD*%
%TO.C,Q2*%
X51517000Y-113963000D03*
X50567000Y-111963000D03*
X52467000Y-111963000D03*
%TD*%
%TO.C,C5*%
G36*
G01*
X57341000Y-120857000D02*
X57341000Y-121357000D01*
G75*
G02*
X57116000Y-121582000I-225000J0D01*
G01*
X56666000Y-121582000D01*
G75*
G02*
X56441000Y-121357000I0J225000D01*
G01*
X56441000Y-120857000D01*
G75*
G02*
X56666000Y-120632000I225000J0D01*
G01*
X57116000Y-120632000D01*
G75*
G02*
X57341000Y-120857000I0J-225000D01*
G01*
G37*
G36*
G01*
X58891000Y-120857000D02*
X58891000Y-121357000D01*
G75*
G02*
X58666000Y-121582000I-225000J0D01*
G01*
X58216000Y-121582000D01*
G75*
G02*
X57991000Y-121357000I0J225000D01*
G01*
X57991000Y-120857000D01*
G75*
G02*
X58216000Y-120632000I225000J0D01*
G01*
X58666000Y-120632000D01*
G75*
G02*
X58891000Y-120857000I0J-225000D01*
G01*
G37*
%TD*%
%TO.C,C3*%
G36*
G01*
X57341000Y-110443000D02*
X57341000Y-110943000D01*
G75*
G02*
X57116000Y-111168000I-225000J0D01*
G01*
X56666000Y-111168000D01*
G75*
G02*
X56441000Y-110943000I0J225000D01*
G01*
X56441000Y-110443000D01*
G75*
G02*
X56666000Y-110218000I225000J0D01*
G01*
X57116000Y-110218000D01*
G75*
G02*
X57341000Y-110443000I0J-225000D01*
G01*
G37*
G36*
G01*
X58891000Y-110443000D02*
X58891000Y-110943000D01*
G75*
G02*
X58666000Y-111168000I-225000J0D01*
G01*
X58216000Y-111168000D01*
G75*
G02*
X57991000Y-110943000I0J225000D01*
G01*
X57991000Y-110443000D01*
G75*
G02*
X58216000Y-110218000I225000J0D01*
G01*
X58666000Y-110218000D01*
G75*
G02*
X58891000Y-110443000I0J-225000D01*
G01*
G37*
%TD*%
M02*
