%TF.GenerationSoftware,KiCad,Pcbnew,(5.1.10)-1*%
%TF.CreationDate,2022-01-19T08:42:29+07:00*%
%TF.ProjectId,PCB_2x_pnlz1_4,5043425f-3278-45f7-906e-6c7a315f342e,rev?*%
%TF.SameCoordinates,Original*%
%TF.FileFunction,Copper,L1,Top*%
%TF.FilePolarity,Positive*%
%FSLAX46Y46*%
G04 Gerber Fmt 4.6, Leading zero omitted, Abs format (unit mm)*
G04 Created by KiCad (PCBNEW (5.1.10)-1) date 2022-01-19 08:42:29*
%MOMM*%
%LPD*%
G01*
G04 APERTURE LIST*
%TA.AperFunction,NonConductor*%
%ADD10C,0.300000*%
%TD*%
%TA.AperFunction,ComponentPad*%
%ADD11O,1.750000X2.250000*%
%TD*%
%TA.AperFunction,ComponentPad*%
%ADD12R,1.750000X2.250000*%
%TD*%
%TA.AperFunction,SMDPad,CuDef*%
%ADD13R,1.500000X2.000000*%
%TD*%
%TA.AperFunction,SMDPad,CuDef*%
%ADD14R,3.800000X2.000000*%
%TD*%
%TA.AperFunction,ComponentPad*%
%ADD15C,1.900000*%
%TD*%
%TA.AperFunction,ComponentPad*%
%ADD16R,1.900000X1.900000*%
%TD*%
%TA.AperFunction,ComponentPad*%
%ADD17C,1.600000*%
%TD*%
%TA.AperFunction,ComponentPad*%
%ADD18O,1.700000X1.700000*%
%TD*%
%TA.AperFunction,ComponentPad*%
%ADD19R,1.700000X1.700000*%
%TD*%
%TA.AperFunction,ComponentPad*%
%ADD20O,1.800000X2.400000*%
%TD*%
%TA.AperFunction,ComponentPad*%
%ADD21R,1.800000X2.400000*%
%TD*%
%TA.AperFunction,ViaPad*%
%ADD22C,0.800000*%
%TD*%
%TA.AperFunction,ViaPad*%
%ADD23C,1.200000*%
%TD*%
%TA.AperFunction,Conductor*%
%ADD24C,0.800000*%
%TD*%
%TA.AperFunction,Conductor*%
%ADD25C,0.700000*%
%TD*%
%TA.AperFunction,Conductor*%
%ADD26C,0.400000*%
%TD*%
%TA.AperFunction,Conductor*%
%ADD27C,3.000000*%
%TD*%
%TA.AperFunction,Conductor*%
%ADD28C,2.000000*%
%TD*%
G04 APERTURE END LIST*
D10*
X106914571Y-115264571D02*
X107271714Y-116264571D01*
X107628857Y-115264571D01*
X108057428Y-114764571D02*
X108986000Y-114764571D01*
X108486000Y-115336000D01*
X108700285Y-115336000D01*
X108843142Y-115407428D01*
X108914571Y-115478857D01*
X108986000Y-115621714D01*
X108986000Y-115978857D01*
X108914571Y-116121714D01*
X108843142Y-116193142D01*
X108700285Y-116264571D01*
X108271714Y-116264571D01*
X108128857Y-116193142D01*
X108057428Y-116121714D01*
X85214571Y-115264571D02*
X85571714Y-116264571D01*
X85928857Y-115264571D01*
X86357428Y-114764571D02*
X87286000Y-114764571D01*
X86786000Y-115336000D01*
X87000285Y-115336000D01*
X87143142Y-115407428D01*
X87214571Y-115478857D01*
X87286000Y-115621714D01*
X87286000Y-115978857D01*
X87214571Y-116121714D01*
X87143142Y-116193142D01*
X87000285Y-116264571D01*
X86571714Y-116264571D01*
X86428857Y-116193142D01*
X86357428Y-116121714D01*
X63564571Y-115264571D02*
X63921714Y-116264571D01*
X64278857Y-115264571D01*
X64707428Y-114764571D02*
X65636000Y-114764571D01*
X65136000Y-115336000D01*
X65350285Y-115336000D01*
X65493142Y-115407428D01*
X65564571Y-115478857D01*
X65636000Y-115621714D01*
X65636000Y-115978857D01*
X65564571Y-116121714D01*
X65493142Y-116193142D01*
X65350285Y-116264571D01*
X64921714Y-116264571D01*
X64778857Y-116193142D01*
X64707428Y-116121714D01*
X126167571Y-48850571D02*
X126524714Y-49850571D01*
X126881857Y-48850571D01*
X127310428Y-48350571D02*
X128239000Y-48350571D01*
X127739000Y-48922000D01*
X127953285Y-48922000D01*
X128096142Y-48993428D01*
X128167571Y-49064857D01*
X128239000Y-49207714D01*
X128239000Y-49564857D01*
X128167571Y-49707714D01*
X128096142Y-49779142D01*
X127953285Y-49850571D01*
X127524714Y-49850571D01*
X127381857Y-49779142D01*
X127310428Y-49707714D01*
X128564571Y-115264571D02*
X128921714Y-116264571D01*
X129278857Y-115264571D01*
X129707428Y-114764571D02*
X130636000Y-114764571D01*
X130136000Y-115336000D01*
X130350285Y-115336000D01*
X130493142Y-115407428D01*
X130564571Y-115478857D01*
X130636000Y-115621714D01*
X130636000Y-115978857D01*
X130564571Y-116121714D01*
X130493142Y-116193142D01*
X130350285Y-116264571D01*
X129921714Y-116264571D01*
X129778857Y-116193142D01*
X129707428Y-116121714D01*
%TO.P,C8,1*%
%TO.N,+5P*%
%TA.AperFunction,SMDPad,CuDef*%
G36*
G01*
X67089500Y-128676000D02*
X67089500Y-126626000D01*
G75*
G02*
X67339500Y-126376000I250000J0D01*
G01*
X68914500Y-126376000D01*
G75*
G02*
X69164500Y-126626000I0J-250000D01*
G01*
X69164500Y-128676000D01*
G75*
G02*
X68914500Y-128926000I-250000J0D01*
G01*
X67339500Y-128926000D01*
G75*
G02*
X67089500Y-128676000I0J250000D01*
G01*
G37*
%TD.AperFunction*%
%TO.P,C8,2*%
%TO.N,GND1*%
%TA.AperFunction,SMDPad,CuDef*%
G36*
G01*
X73314500Y-128676000D02*
X73314500Y-126626000D01*
G75*
G02*
X73564500Y-126376000I250000J0D01*
G01*
X75139500Y-126376000D01*
G75*
G02*
X75389500Y-126626000I0J-250000D01*
G01*
X75389500Y-128676000D01*
G75*
G02*
X75139500Y-128926000I-250000J0D01*
G01*
X73564500Y-128926000D01*
G75*
G02*
X73314500Y-128676000I0J250000D01*
G01*
G37*
%TD.AperFunction*%
%TD*%
%TO.P,C15,1*%
%TO.N,GND2*%
%TA.AperFunction,SMDPad,CuDef*%
G36*
G01*
X82385000Y-127266000D02*
X82385000Y-126766000D01*
G75*
G02*
X82610000Y-126541000I225000J0D01*
G01*
X83060000Y-126541000D01*
G75*
G02*
X83285000Y-126766000I0J-225000D01*
G01*
X83285000Y-127266000D01*
G75*
G02*
X83060000Y-127491000I-225000J0D01*
G01*
X82610000Y-127491000D01*
G75*
G02*
X82385000Y-127266000I0J225000D01*
G01*
G37*
%TD.AperFunction*%
%TO.P,C15,2*%
%TO.N,+3.3VP*%
%TA.AperFunction,SMDPad,CuDef*%
G36*
G01*
X83935000Y-127266000D02*
X83935000Y-126766000D01*
G75*
G02*
X84160000Y-126541000I225000J0D01*
G01*
X84610000Y-126541000D01*
G75*
G02*
X84835000Y-126766000I0J-225000D01*
G01*
X84835000Y-127266000D01*
G75*
G02*
X84610000Y-127491000I-225000J0D01*
G01*
X84160000Y-127491000D01*
G75*
G02*
X83935000Y-127266000I0J225000D01*
G01*
G37*
%TD.AperFunction*%
%TD*%
%TO.P,C16,1*%
%TO.N,GND2*%
%TA.AperFunction,SMDPad,CuDef*%
G36*
G01*
X82411000Y-128917000D02*
X82411000Y-128417000D01*
G75*
G02*
X82636000Y-128192000I225000J0D01*
G01*
X83086000Y-128192000D01*
G75*
G02*
X83311000Y-128417000I0J-225000D01*
G01*
X83311000Y-128917000D01*
G75*
G02*
X83086000Y-129142000I-225000J0D01*
G01*
X82636000Y-129142000D01*
G75*
G02*
X82411000Y-128917000I0J225000D01*
G01*
G37*
%TD.AperFunction*%
%TO.P,C16,2*%
%TO.N,+3.3VP*%
%TA.AperFunction,SMDPad,CuDef*%
G36*
G01*
X83961000Y-128917000D02*
X83961000Y-128417000D01*
G75*
G02*
X84186000Y-128192000I225000J0D01*
G01*
X84636000Y-128192000D01*
G75*
G02*
X84861000Y-128417000I0J-225000D01*
G01*
X84861000Y-128917000D01*
G75*
G02*
X84636000Y-129142000I-225000J0D01*
G01*
X84186000Y-129142000D01*
G75*
G02*
X83961000Y-128917000I0J225000D01*
G01*
G37*
%TD.AperFunction*%
%TD*%
D11*
%TO.P,PS1,4*%
%TO.N,+5VP*%
X78416000Y-118634000D03*
%TO.P,PS1,3*%
%TO.N,GND2*%
X75876000Y-118634000D03*
%TO.P,PS1,2*%
%TO.N,+5V*%
X73336000Y-118634000D03*
D12*
%TO.P,PS1,1*%
%TO.N,GND1*%
X70796000Y-118634000D03*
%TD*%
%TO.P,C15,2*%
%TO.N,+3.3VP*%
%TA.AperFunction,SMDPad,CuDef*%
G36*
G01*
X127285000Y-127266000D02*
X127285000Y-126766000D01*
G75*
G02*
X127510000Y-126541000I225000J0D01*
G01*
X127960000Y-126541000D01*
G75*
G02*
X128185000Y-126766000I0J-225000D01*
G01*
X128185000Y-127266000D01*
G75*
G02*
X127960000Y-127491000I-225000J0D01*
G01*
X127510000Y-127491000D01*
G75*
G02*
X127285000Y-127266000I0J225000D01*
G01*
G37*
%TD.AperFunction*%
%TO.P,C15,1*%
%TO.N,GND2*%
%TA.AperFunction,SMDPad,CuDef*%
G36*
G01*
X125735000Y-127266000D02*
X125735000Y-126766000D01*
G75*
G02*
X125960000Y-126541000I225000J0D01*
G01*
X126410000Y-126541000D01*
G75*
G02*
X126635000Y-126766000I0J-225000D01*
G01*
X126635000Y-127266000D01*
G75*
G02*
X126410000Y-127491000I-225000J0D01*
G01*
X125960000Y-127491000D01*
G75*
G02*
X125735000Y-127266000I0J225000D01*
G01*
G37*
%TD.AperFunction*%
%TD*%
%TO.P,C8,2*%
%TO.N,GND1*%
%TA.AperFunction,SMDPad,CuDef*%
G36*
G01*
X116664500Y-128676000D02*
X116664500Y-126626000D01*
G75*
G02*
X116914500Y-126376000I250000J0D01*
G01*
X118489500Y-126376000D01*
G75*
G02*
X118739500Y-126626000I0J-250000D01*
G01*
X118739500Y-128676000D01*
G75*
G02*
X118489500Y-128926000I-250000J0D01*
G01*
X116914500Y-128926000D01*
G75*
G02*
X116664500Y-128676000I0J250000D01*
G01*
G37*
%TD.AperFunction*%
%TO.P,C8,1*%
%TO.N,+5P*%
%TA.AperFunction,SMDPad,CuDef*%
G36*
G01*
X110439500Y-128676000D02*
X110439500Y-126626000D01*
G75*
G02*
X110689500Y-126376000I250000J0D01*
G01*
X112264500Y-126376000D01*
G75*
G02*
X112514500Y-126626000I0J-250000D01*
G01*
X112514500Y-128676000D01*
G75*
G02*
X112264500Y-128926000I-250000J0D01*
G01*
X110689500Y-128926000D01*
G75*
G02*
X110439500Y-128676000I0J250000D01*
G01*
G37*
%TD.AperFunction*%
%TD*%
%TO.P,C7,2*%
%TO.N,GND1*%
%TA.AperFunction,SMDPad,CuDef*%
G36*
G01*
X116666500Y-123723000D02*
X116666500Y-121673000D01*
G75*
G02*
X116916500Y-121423000I250000J0D01*
G01*
X118491500Y-121423000D01*
G75*
G02*
X118741500Y-121673000I0J-250000D01*
G01*
X118741500Y-123723000D01*
G75*
G02*
X118491500Y-123973000I-250000J0D01*
G01*
X116916500Y-123973000D01*
G75*
G02*
X116666500Y-123723000I0J250000D01*
G01*
G37*
%TD.AperFunction*%
%TO.P,C7,1*%
%TO.N,+5P*%
%TA.AperFunction,SMDPad,CuDef*%
G36*
G01*
X110441500Y-123723000D02*
X110441500Y-121673000D01*
G75*
G02*
X110691500Y-121423000I250000J0D01*
G01*
X112266500Y-121423000D01*
G75*
G02*
X112516500Y-121673000I0J-250000D01*
G01*
X112516500Y-123723000D01*
G75*
G02*
X112266500Y-123973000I-250000J0D01*
G01*
X110691500Y-123973000D01*
G75*
G02*
X110441500Y-123723000I0J250000D01*
G01*
G37*
%TD.AperFunction*%
%TD*%
D13*
%TO.P,U1,1*%
%TO.N,GND2*%
X130021000Y-118634000D03*
%TO.P,U1,3*%
%TO.N,+5VP*%
X125421000Y-118634000D03*
%TO.P,U1,2*%
%TO.N,+3.3VP*%
X127721000Y-118634000D03*
D14*
X127721000Y-124934000D03*
%TD*%
D12*
%TO.P,PS1,1*%
%TO.N,GND1*%
X114146000Y-118634000D03*
D11*
%TO.P,PS1,2*%
%TO.N,+5V*%
X116686000Y-118634000D03*
%TO.P,PS1,3*%
%TO.N,GND2*%
X119226000Y-118634000D03*
%TO.P,PS1,4*%
%TO.N,+5VP*%
X121766000Y-118634000D03*
%TD*%
%TO.P,C16,2*%
%TO.N,+3.3VP*%
%TA.AperFunction,SMDPad,CuDef*%
G36*
G01*
X127311000Y-128917000D02*
X127311000Y-128417000D01*
G75*
G02*
X127536000Y-128192000I225000J0D01*
G01*
X127986000Y-128192000D01*
G75*
G02*
X128211000Y-128417000I0J-225000D01*
G01*
X128211000Y-128917000D01*
G75*
G02*
X127986000Y-129142000I-225000J0D01*
G01*
X127536000Y-129142000D01*
G75*
G02*
X127311000Y-128917000I0J225000D01*
G01*
G37*
%TD.AperFunction*%
%TO.P,C16,1*%
%TO.N,GND2*%
%TA.AperFunction,SMDPad,CuDef*%
G36*
G01*
X125761000Y-128917000D02*
X125761000Y-128417000D01*
G75*
G02*
X125986000Y-128192000I225000J0D01*
G01*
X126436000Y-128192000D01*
G75*
G02*
X126661000Y-128417000I0J-225000D01*
G01*
X126661000Y-128917000D01*
G75*
G02*
X126436000Y-129142000I-225000J0D01*
G01*
X125986000Y-129142000D01*
G75*
G02*
X125761000Y-128917000I0J225000D01*
G01*
G37*
%TD.AperFunction*%
%TD*%
D15*
%TO.P,XP1,2*%
%TO.N,Net-(F1-Pad2)*%
X49896000Y-54160000D03*
X57416000Y-54160000D03*
D16*
%TO.P,XP1,1*%
%TO.N,Net-(RV1-Pad2)*%
X49896000Y-49080000D03*
D15*
X57416000Y-49080000D03*
%TD*%
D17*
%TO.P,RV1,2*%
%TO.N,Net-(RV1-Pad2)*%
X67088000Y-64285000D03*
%TO.P,RV1,1*%
%TO.N,Net-(F1-Pad1)*%
X62088000Y-66385000D03*
%TD*%
%TO.P,F1,1*%
%TO.N,Net-(F1-Pad1)*%
X57770000Y-60221000D03*
%TO.P,F1,2*%
%TO.N,Net-(F1-Pad2)*%
X47610000Y-60221000D03*
%TO.P,F1,1*%
%TO.N,Net-(F1-Pad1)*%
X62850000Y-60221000D03*
%TO.P,F1,2*%
%TO.N,Net-(F1-Pad2)*%
X52690000Y-60221000D03*
%TD*%
D18*
%TO.P,J1,4*%
%TO.N,/+5V_state*%
X118972000Y-131080000D03*
%TO.P,J1,3*%
%TO.N,+5P*%
X116432000Y-131080000D03*
%TO.P,J1,2*%
%TO.N,GND1*%
X113892000Y-131080000D03*
D19*
%TO.P,J1,1*%
%TO.N,+5V*%
X111352000Y-131080000D03*
%TD*%
D18*
%TO.P,J2,3*%
%TO.N,+3.3VP*%
X129132000Y-131080000D03*
%TO.P,J2,2*%
%TO.N,GND2*%
X126592000Y-131080000D03*
D19*
%TO.P,J2,1*%
%TO.N,+5VP*%
X124052000Y-131080000D03*
%TD*%
%TO.P,C7,1*%
%TO.N,+5P*%
%TA.AperFunction,SMDPad,CuDef*%
G36*
G01*
X67091500Y-123723000D02*
X67091500Y-121673000D01*
G75*
G02*
X67341500Y-121423000I250000J0D01*
G01*
X68916500Y-121423000D01*
G75*
G02*
X69166500Y-121673000I0J-250000D01*
G01*
X69166500Y-123723000D01*
G75*
G02*
X68916500Y-123973000I-250000J0D01*
G01*
X67341500Y-123973000D01*
G75*
G02*
X67091500Y-123723000I0J250000D01*
G01*
G37*
%TD.AperFunction*%
%TO.P,C7,2*%
%TO.N,GND1*%
%TA.AperFunction,SMDPad,CuDef*%
G36*
G01*
X73316500Y-123723000D02*
X73316500Y-121673000D01*
G75*
G02*
X73566500Y-121423000I250000J0D01*
G01*
X75141500Y-121423000D01*
G75*
G02*
X75391500Y-121673000I0J-250000D01*
G01*
X75391500Y-123723000D01*
G75*
G02*
X75141500Y-123973000I-250000J0D01*
G01*
X73566500Y-123973000D01*
G75*
G02*
X73316500Y-123723000I0J250000D01*
G01*
G37*
%TD.AperFunction*%
%TD*%
D14*
%TO.P,U1,2*%
%TO.N,+3.3VP*%
X106071000Y-124934000D03*
D13*
X106071000Y-118634000D03*
%TO.P,U1,3*%
%TO.N,+5VP*%
X103771000Y-118634000D03*
%TO.P,U1,1*%
%TO.N,GND2*%
X108371000Y-118634000D03*
%TD*%
D19*
%TO.P,J1,1*%
%TO.N,+5V*%
X89702000Y-131080000D03*
D18*
%TO.P,J1,2*%
%TO.N,GND1*%
X92242000Y-131080000D03*
%TO.P,J1,3*%
%TO.N,+5P*%
X94782000Y-131080000D03*
%TO.P,J1,4*%
%TO.N,/+5V_state*%
X97322000Y-131080000D03*
%TD*%
D19*
%TO.P,J2,1*%
%TO.N,+5VP*%
X102402000Y-131080000D03*
D18*
%TO.P,J2,2*%
%TO.N,GND2*%
X104942000Y-131080000D03*
%TO.P,J2,3*%
%TO.N,+3.3VP*%
X107482000Y-131080000D03*
%TD*%
D19*
%TO.P,U3,1*%
%TO.N,Net-(U3-Pad1)*%
X86900000Y-82827000D03*
D17*
%TO.P,U3,2*%
%TO.N,Net-(F2-Pad1)*%
X81900000Y-82827000D03*
%TD*%
D20*
%TO.P,U2,5*%
%TO.N,Net-(U2-Pad5)*%
X106949500Y-73620000D03*
%TO.P,U2,4*%
%TO.N,Net-(U2-Pad4)*%
X101949500Y-73620000D03*
%TO.P,U2,3*%
%TO.N,Net-(U2-Pad3)*%
X96949500Y-73620000D03*
%TO.P,U2,2*%
%TO.N,Net-(RV1-Pad2)*%
X69691500Y-73620000D03*
D21*
%TO.P,U2,1*%
%TO.N,Net-(F1-Pad1)*%
X64691500Y-73620000D03*
D20*
%TO.P,U2,6*%
%TO.N,Net-(U2-Pad6)*%
X111949500Y-73620000D03*
%TD*%
D15*
%TO.P,XP4,2*%
%TO.N,Net-(RV2-Pad2)*%
X125742000Y-84640000D03*
X118222000Y-84640000D03*
D16*
%TO.P,XP4,1*%
%TO.N,Net-(U3-Pad1)*%
X125742000Y-89720000D03*
D15*
X118222000Y-89720000D03*
%TD*%
%TO.P,XP2,2*%
%TO.N,Net-(F2-Pad2)*%
X49896000Y-84640000D03*
X57416000Y-84640000D03*
D16*
%TO.P,XP2,1*%
%TO.N,Net-(RV2-Pad2)*%
X49896000Y-79560000D03*
D15*
X57416000Y-79560000D03*
%TD*%
D17*
%TO.P,RV2,2*%
%TO.N,Net-(RV2-Pad2)*%
X64687000Y-80494000D03*
%TO.P,RV2,1*%
%TO.N,Net-(F2-Pad1)*%
X66787000Y-85494000D03*
%TD*%
%TO.P,F2,1*%
%TO.N,Net-(F2-Pad1)*%
X57770000Y-90701000D03*
%TO.P,F2,2*%
%TO.N,Net-(F2-Pad2)*%
X47610000Y-90701000D03*
%TO.P,F2,1*%
%TO.N,Net-(F2-Pad1)*%
X62850000Y-90701000D03*
%TO.P,F2,2*%
%TO.N,Net-(F2-Pad2)*%
X52690000Y-90701000D03*
%TD*%
D15*
%TO.P,XP3,4*%
%TO.N,Net-(U2-Pad3)*%
X125742000Y-59240000D03*
X118222000Y-59240000D03*
%TO.P,XP3,3*%
%TO.N,Net-(U2-Pad4)*%
X125742000Y-64320000D03*
X118222000Y-64320000D03*
%TO.P,XP3,2*%
%TO.N,Net-(U2-Pad6)*%
X125742000Y-69400000D03*
X118222000Y-69400000D03*
D16*
%TO.P,XP3,1*%
%TO.N,Net-(U2-Pad5)*%
X125742000Y-74480000D03*
D15*
X118222000Y-74480000D03*
%TD*%
D14*
%TO.P,U1,2*%
%TO.N,+3.3VP*%
X62721000Y-124934000D03*
D13*
X62721000Y-118634000D03*
%TO.P,U1,3*%
%TO.N,+5VP*%
X60421000Y-118634000D03*
%TO.P,U1,1*%
%TO.N,GND2*%
X65021000Y-118634000D03*
%TD*%
D19*
%TO.P,J1,1*%
%TO.N,+5V*%
X46352000Y-131080000D03*
D18*
%TO.P,J1,2*%
%TO.N,GND1*%
X48892000Y-131080000D03*
%TO.P,J1,3*%
%TO.N,+5P*%
X51432000Y-131080000D03*
%TO.P,J1,4*%
%TO.N,/+5V_state*%
X53972000Y-131080000D03*
%TD*%
D19*
%TO.P,J2,1*%
%TO.N,+5VP*%
X59052000Y-131080000D03*
D18*
%TO.P,J2,2*%
%TO.N,GND2*%
X61592000Y-131080000D03*
%TO.P,J2,3*%
%TO.N,+3.3VP*%
X64132000Y-131080000D03*
%TD*%
%TO.P,C8,1*%
%TO.N,+5P*%
%TA.AperFunction,SMDPad,CuDef*%
G36*
G01*
X45439500Y-128676000D02*
X45439500Y-126626000D01*
G75*
G02*
X45689500Y-126376000I250000J0D01*
G01*
X47264500Y-126376000D01*
G75*
G02*
X47514500Y-126626000I0J-250000D01*
G01*
X47514500Y-128676000D01*
G75*
G02*
X47264500Y-128926000I-250000J0D01*
G01*
X45689500Y-128926000D01*
G75*
G02*
X45439500Y-128676000I0J250000D01*
G01*
G37*
%TD.AperFunction*%
%TO.P,C8,2*%
%TO.N,GND1*%
%TA.AperFunction,SMDPad,CuDef*%
G36*
G01*
X51664500Y-128676000D02*
X51664500Y-126626000D01*
G75*
G02*
X51914500Y-126376000I250000J0D01*
G01*
X53489500Y-126376000D01*
G75*
G02*
X53739500Y-126626000I0J-250000D01*
G01*
X53739500Y-128676000D01*
G75*
G02*
X53489500Y-128926000I-250000J0D01*
G01*
X51914500Y-128926000D01*
G75*
G02*
X51664500Y-128676000I0J250000D01*
G01*
G37*
%TD.AperFunction*%
%TD*%
%TO.P,C15,1*%
%TO.N,GND2*%
%TA.AperFunction,SMDPad,CuDef*%
G36*
G01*
X60735000Y-127266000D02*
X60735000Y-126766000D01*
G75*
G02*
X60960000Y-126541000I225000J0D01*
G01*
X61410000Y-126541000D01*
G75*
G02*
X61635000Y-126766000I0J-225000D01*
G01*
X61635000Y-127266000D01*
G75*
G02*
X61410000Y-127491000I-225000J0D01*
G01*
X60960000Y-127491000D01*
G75*
G02*
X60735000Y-127266000I0J225000D01*
G01*
G37*
%TD.AperFunction*%
%TO.P,C15,2*%
%TO.N,+3.3VP*%
%TA.AperFunction,SMDPad,CuDef*%
G36*
G01*
X62285000Y-127266000D02*
X62285000Y-126766000D01*
G75*
G02*
X62510000Y-126541000I225000J0D01*
G01*
X62960000Y-126541000D01*
G75*
G02*
X63185000Y-126766000I0J-225000D01*
G01*
X63185000Y-127266000D01*
G75*
G02*
X62960000Y-127491000I-225000J0D01*
G01*
X62510000Y-127491000D01*
G75*
G02*
X62285000Y-127266000I0J225000D01*
G01*
G37*
%TD.AperFunction*%
%TD*%
%TO.P,C16,1*%
%TO.N,GND2*%
%TA.AperFunction,SMDPad,CuDef*%
G36*
G01*
X60761000Y-128917000D02*
X60761000Y-128417000D01*
G75*
G02*
X60986000Y-128192000I225000J0D01*
G01*
X61436000Y-128192000D01*
G75*
G02*
X61661000Y-128417000I0J-225000D01*
G01*
X61661000Y-128917000D01*
G75*
G02*
X61436000Y-129142000I-225000J0D01*
G01*
X60986000Y-129142000D01*
G75*
G02*
X60761000Y-128917000I0J225000D01*
G01*
G37*
%TD.AperFunction*%
%TO.P,C16,2*%
%TO.N,+3.3VP*%
%TA.AperFunction,SMDPad,CuDef*%
G36*
G01*
X62311000Y-128917000D02*
X62311000Y-128417000D01*
G75*
G02*
X62536000Y-128192000I225000J0D01*
G01*
X62986000Y-128192000D01*
G75*
G02*
X63211000Y-128417000I0J-225000D01*
G01*
X63211000Y-128917000D01*
G75*
G02*
X62986000Y-129142000I-225000J0D01*
G01*
X62536000Y-129142000D01*
G75*
G02*
X62311000Y-128917000I0J225000D01*
G01*
G37*
%TD.AperFunction*%
%TD*%
D11*
%TO.P,PS1,4*%
%TO.N,+5VP*%
X56766000Y-118634000D03*
%TO.P,PS1,3*%
%TO.N,GND2*%
X54226000Y-118634000D03*
%TO.P,PS1,2*%
%TO.N,+5V*%
X51686000Y-118634000D03*
D12*
%TO.P,PS1,1*%
%TO.N,GND1*%
X49146000Y-118634000D03*
%TD*%
D14*
%TO.P,U1,2*%
%TO.N,+3.3VP*%
X84371000Y-124934000D03*
D13*
X84371000Y-118634000D03*
%TO.P,U1,3*%
%TO.N,+5VP*%
X82071000Y-118634000D03*
%TO.P,U1,1*%
%TO.N,GND2*%
X86671000Y-118634000D03*
%TD*%
D19*
%TO.P,J1,1*%
%TO.N,+5V*%
X68002000Y-131080000D03*
D18*
%TO.P,J1,2*%
%TO.N,GND1*%
X70542000Y-131080000D03*
%TO.P,J1,3*%
%TO.N,+5P*%
X73082000Y-131080000D03*
%TO.P,J1,4*%
%TO.N,/+5V_state*%
X75622000Y-131080000D03*
%TD*%
D19*
%TO.P,J2,1*%
%TO.N,+5VP*%
X80702000Y-131080000D03*
D18*
%TO.P,J2,2*%
%TO.N,GND2*%
X83242000Y-131080000D03*
%TO.P,J2,3*%
%TO.N,+3.3VP*%
X85782000Y-131080000D03*
%TD*%
D11*
%TO.P,PS1,4*%
%TO.N,+5VP*%
X100116000Y-118634000D03*
%TO.P,PS1,3*%
%TO.N,GND2*%
X97576000Y-118634000D03*
%TO.P,PS1,2*%
%TO.N,+5V*%
X95036000Y-118634000D03*
D12*
%TO.P,PS1,1*%
%TO.N,GND1*%
X92496000Y-118634000D03*
%TD*%
%TO.P,C16,1*%
%TO.N,GND2*%
%TA.AperFunction,SMDPad,CuDef*%
G36*
G01*
X104111000Y-128917000D02*
X104111000Y-128417000D01*
G75*
G02*
X104336000Y-128192000I225000J0D01*
G01*
X104786000Y-128192000D01*
G75*
G02*
X105011000Y-128417000I0J-225000D01*
G01*
X105011000Y-128917000D01*
G75*
G02*
X104786000Y-129142000I-225000J0D01*
G01*
X104336000Y-129142000D01*
G75*
G02*
X104111000Y-128917000I0J225000D01*
G01*
G37*
%TD.AperFunction*%
%TO.P,C16,2*%
%TO.N,+3.3VP*%
%TA.AperFunction,SMDPad,CuDef*%
G36*
G01*
X105661000Y-128917000D02*
X105661000Y-128417000D01*
G75*
G02*
X105886000Y-128192000I225000J0D01*
G01*
X106336000Y-128192000D01*
G75*
G02*
X106561000Y-128417000I0J-225000D01*
G01*
X106561000Y-128917000D01*
G75*
G02*
X106336000Y-129142000I-225000J0D01*
G01*
X105886000Y-129142000D01*
G75*
G02*
X105661000Y-128917000I0J225000D01*
G01*
G37*
%TD.AperFunction*%
%TD*%
%TO.P,C15,1*%
%TO.N,GND2*%
%TA.AperFunction,SMDPad,CuDef*%
G36*
G01*
X104085000Y-127266000D02*
X104085000Y-126766000D01*
G75*
G02*
X104310000Y-126541000I225000J0D01*
G01*
X104760000Y-126541000D01*
G75*
G02*
X104985000Y-126766000I0J-225000D01*
G01*
X104985000Y-127266000D01*
G75*
G02*
X104760000Y-127491000I-225000J0D01*
G01*
X104310000Y-127491000D01*
G75*
G02*
X104085000Y-127266000I0J225000D01*
G01*
G37*
%TD.AperFunction*%
%TO.P,C15,2*%
%TO.N,+3.3VP*%
%TA.AperFunction,SMDPad,CuDef*%
G36*
G01*
X105635000Y-127266000D02*
X105635000Y-126766000D01*
G75*
G02*
X105860000Y-126541000I225000J0D01*
G01*
X106310000Y-126541000D01*
G75*
G02*
X106535000Y-126766000I0J-225000D01*
G01*
X106535000Y-127266000D01*
G75*
G02*
X106310000Y-127491000I-225000J0D01*
G01*
X105860000Y-127491000D01*
G75*
G02*
X105635000Y-127266000I0J225000D01*
G01*
G37*
%TD.AperFunction*%
%TD*%
%TO.P,C8,1*%
%TO.N,+5P*%
%TA.AperFunction,SMDPad,CuDef*%
G36*
G01*
X88789500Y-128676000D02*
X88789500Y-126626000D01*
G75*
G02*
X89039500Y-126376000I250000J0D01*
G01*
X90614500Y-126376000D01*
G75*
G02*
X90864500Y-126626000I0J-250000D01*
G01*
X90864500Y-128676000D01*
G75*
G02*
X90614500Y-128926000I-250000J0D01*
G01*
X89039500Y-128926000D01*
G75*
G02*
X88789500Y-128676000I0J250000D01*
G01*
G37*
%TD.AperFunction*%
%TO.P,C8,2*%
%TO.N,GND1*%
%TA.AperFunction,SMDPad,CuDef*%
G36*
G01*
X95014500Y-128676000D02*
X95014500Y-126626000D01*
G75*
G02*
X95264500Y-126376000I250000J0D01*
G01*
X96839500Y-126376000D01*
G75*
G02*
X97089500Y-126626000I0J-250000D01*
G01*
X97089500Y-128676000D01*
G75*
G02*
X96839500Y-128926000I-250000J0D01*
G01*
X95264500Y-128926000D01*
G75*
G02*
X95014500Y-128676000I0J250000D01*
G01*
G37*
%TD.AperFunction*%
%TD*%
%TO.P,C7,1*%
%TO.N,+5P*%
%TA.AperFunction,SMDPad,CuDef*%
G36*
G01*
X88791500Y-123723000D02*
X88791500Y-121673000D01*
G75*
G02*
X89041500Y-121423000I250000J0D01*
G01*
X90616500Y-121423000D01*
G75*
G02*
X90866500Y-121673000I0J-250000D01*
G01*
X90866500Y-123723000D01*
G75*
G02*
X90616500Y-123973000I-250000J0D01*
G01*
X89041500Y-123973000D01*
G75*
G02*
X88791500Y-123723000I0J250000D01*
G01*
G37*
%TD.AperFunction*%
%TO.P,C7,2*%
%TO.N,GND1*%
%TA.AperFunction,SMDPad,CuDef*%
G36*
G01*
X95016500Y-123723000D02*
X95016500Y-121673000D01*
G75*
G02*
X95266500Y-121423000I250000J0D01*
G01*
X96841500Y-121423000D01*
G75*
G02*
X97091500Y-121673000I0J-250000D01*
G01*
X97091500Y-123723000D01*
G75*
G02*
X96841500Y-123973000I-250000J0D01*
G01*
X95266500Y-123973000D01*
G75*
G02*
X95016500Y-123723000I0J250000D01*
G01*
G37*
%TD.AperFunction*%
%TD*%
%TO.P,C7,1*%
%TO.N,+5P*%
%TA.AperFunction,SMDPad,CuDef*%
G36*
G01*
X45441500Y-123723000D02*
X45441500Y-121673000D01*
G75*
G02*
X45691500Y-121423000I250000J0D01*
G01*
X47266500Y-121423000D01*
G75*
G02*
X47516500Y-121673000I0J-250000D01*
G01*
X47516500Y-123723000D01*
G75*
G02*
X47266500Y-123973000I-250000J0D01*
G01*
X45691500Y-123973000D01*
G75*
G02*
X45441500Y-123723000I0J250000D01*
G01*
G37*
%TD.AperFunction*%
%TO.P,C7,2*%
%TO.N,GND1*%
%TA.AperFunction,SMDPad,CuDef*%
G36*
G01*
X51666500Y-123723000D02*
X51666500Y-121673000D01*
G75*
G02*
X51916500Y-121423000I250000J0D01*
G01*
X53491500Y-121423000D01*
G75*
G02*
X53741500Y-121673000I0J-250000D01*
G01*
X53741500Y-123723000D01*
G75*
G02*
X53491500Y-123973000I-250000J0D01*
G01*
X51916500Y-123973000D01*
G75*
G02*
X51666500Y-123723000I0J250000D01*
G01*
G37*
%TD.AperFunction*%
%TD*%
D22*
%TO.N,+5P*%
X94019998Y-128794000D03*
D23*
X89321000Y-120031000D03*
D22*
X91988000Y-126633392D03*
X72319998Y-128794000D03*
D23*
X67621000Y-120031000D03*
D22*
X70288000Y-126633392D03*
X50669998Y-128794000D03*
D23*
X45971000Y-120031000D03*
D22*
X48638000Y-126633392D03*
X115669998Y-128794000D03*
D23*
X110971000Y-120031000D03*
D22*
X113638000Y-126633392D03*
D23*
%TO.N,+5VP*%
X101640000Y-122570990D03*
X103771000Y-118634000D03*
X79940000Y-122570990D03*
X82071000Y-118634000D03*
X58290000Y-122570990D03*
X60421000Y-118634000D03*
X123290000Y-122570990D03*
X125421000Y-118634000D03*
%TO.N,+5V*%
X92345964Y-128436036D03*
X70645964Y-128436036D03*
X48995964Y-128436036D03*
X113995964Y-128436036D03*
%TO.N,GND2*%
X102910000Y-123841000D03*
X108371000Y-118634000D03*
X81210000Y-123841000D03*
X86671000Y-118634000D03*
X59560000Y-123841000D03*
X65021000Y-118634000D03*
X124560000Y-123841000D03*
X130021000Y-118634000D03*
D22*
%TO.N,Net-(D1-Pad5)*%
X52702000Y-125619000D03*
X49273000Y-125111000D03*
X117702000Y-125619000D03*
X114273000Y-125111000D03*
X96052000Y-125619000D03*
X92623000Y-125111000D03*
X74352000Y-125619000D03*
X70923000Y-125111000D03*
%TD*%
D24*
%TO.N,+5P*%
X47747392Y-127524000D02*
X48638000Y-126633392D01*
X46479000Y-127524000D02*
X47747392Y-127524000D01*
X46479000Y-120539000D02*
X45971000Y-120031000D01*
X46479000Y-122698000D02*
X46479000Y-120539000D01*
X72319998Y-128099705D02*
X72319998Y-128794000D01*
X72319998Y-130317998D02*
X73082000Y-131080000D01*
X72319998Y-128794000D02*
X72319998Y-130317998D01*
X69397392Y-127524000D02*
X70288000Y-126633392D01*
X68129000Y-127524000D02*
X69397392Y-127524000D01*
X68129000Y-120539000D02*
X67621000Y-120031000D01*
X68129000Y-122698000D02*
X68129000Y-120539000D01*
X94019998Y-130317998D02*
X94782000Y-131080000D01*
X94019998Y-128794000D02*
X94019998Y-130317998D01*
X91097392Y-127524000D02*
X91988000Y-126633392D01*
X89829000Y-127524000D02*
X91097392Y-127524000D01*
X89829000Y-120539000D02*
X89321000Y-120031000D01*
X89829000Y-122698000D02*
X89829000Y-120539000D01*
X115669998Y-128794000D02*
X115669998Y-130317998D01*
X115669998Y-130317998D02*
X116432000Y-131080000D01*
X115669998Y-128099705D02*
X115669998Y-128794000D01*
X114203685Y-126633392D02*
X115669998Y-128099705D01*
X111479000Y-122698000D02*
X111479000Y-120539000D01*
X111479000Y-120539000D02*
X110971000Y-120031000D01*
X111479000Y-127524000D02*
X112747392Y-127524000D01*
X112747392Y-127524000D02*
X113638000Y-126633392D01*
X113638000Y-126633392D02*
X114203685Y-126633392D01*
X113638000Y-126633392D02*
X111479000Y-124474392D01*
X111479000Y-124474392D02*
X111479000Y-122698000D01*
X49203685Y-126633392D02*
X50669998Y-128099705D01*
X50669998Y-128099705D02*
X50669998Y-128794000D01*
X50669998Y-130317998D02*
X51432000Y-131080000D01*
X50669998Y-128794000D02*
X50669998Y-130317998D01*
X46479000Y-124474392D02*
X46479000Y-122698000D01*
X48638000Y-126633392D02*
X46479000Y-124474392D01*
X48638000Y-126633392D02*
X49203685Y-126633392D01*
X89829000Y-124474392D02*
X89829000Y-122698000D01*
X91988000Y-126633392D02*
X89829000Y-124474392D01*
X91988000Y-126633392D02*
X92553685Y-126633392D01*
X92553685Y-126633392D02*
X94019998Y-128099705D01*
X94019998Y-128099705D02*
X94019998Y-128794000D01*
X68129000Y-124474392D02*
X68129000Y-122698000D01*
X70288000Y-126633392D02*
X68129000Y-124474392D01*
X70288000Y-126633392D02*
X70853685Y-126633392D01*
X70853685Y-126633392D02*
X72319998Y-128099705D01*
%TO.N,GND1*%
X118702001Y-126525999D02*
X117704000Y-127524000D01*
X118702001Y-123696001D02*
X118702001Y-126525999D01*
X117704000Y-122698000D02*
X118702001Y-123696001D01*
X114146000Y-118634000D02*
X114146000Y-119140000D01*
X114146000Y-119140000D02*
X117704000Y-122698000D01*
X75352001Y-126525999D02*
X74354000Y-127524000D01*
X75352001Y-123696001D02*
X75352001Y-126525999D01*
X74354000Y-122698000D02*
X75352001Y-123696001D01*
X70796000Y-118634000D02*
X70796000Y-119140000D01*
X70796000Y-119140000D02*
X74354000Y-122698000D01*
X97052001Y-126525999D02*
X96054000Y-127524000D01*
X97052001Y-123696001D02*
X97052001Y-126525999D01*
X96054000Y-122698000D02*
X97052001Y-123696001D01*
X92496000Y-118634000D02*
X92496000Y-119140000D01*
X92496000Y-119140000D02*
X96054000Y-122698000D01*
X53702001Y-126525999D02*
X52704000Y-127524000D01*
X53702001Y-123696001D02*
X53702001Y-126525999D01*
X52704000Y-122698000D02*
X53702001Y-123696001D01*
X49146000Y-118634000D02*
X49146000Y-119140000D01*
X49146000Y-119140000D02*
X52704000Y-122698000D01*
%TO.N,+5VP*%
X101640000Y-126508000D02*
X101640000Y-122570990D01*
X102402000Y-131080000D02*
X102402000Y-127270000D01*
X102402000Y-127270000D02*
X101640000Y-126508000D01*
X79940000Y-126508000D02*
X79940000Y-122570990D01*
X80702000Y-131080000D02*
X80702000Y-127270000D01*
X80702000Y-127270000D02*
X79940000Y-126508000D01*
X58290000Y-126508000D02*
X58290000Y-122570990D01*
X59052000Y-131080000D02*
X59052000Y-127270000D01*
X59052000Y-127270000D02*
X58290000Y-126508000D01*
X123290000Y-126508000D02*
X123290000Y-122570990D01*
X124052000Y-131080000D02*
X124052000Y-127270000D01*
X124052000Y-127270000D02*
X123290000Y-126508000D01*
D25*
%TO.N,+3.3VP*%
X127721000Y-118634000D02*
X127721000Y-124934000D01*
D24*
X107482000Y-131080000D02*
X107482000Y-130038000D01*
X107482000Y-130038000D02*
X106111000Y-128667000D01*
X106085000Y-127016000D02*
X106085000Y-128641000D01*
X106085000Y-128641000D02*
X106111000Y-128667000D01*
X106071000Y-124934000D02*
X106071000Y-127002000D01*
X106071000Y-127002000D02*
X106085000Y-127016000D01*
D25*
X106071000Y-118634000D02*
X106071000Y-124934000D01*
D24*
X85782000Y-131080000D02*
X85782000Y-130038000D01*
X85782000Y-130038000D02*
X84411000Y-128667000D01*
X84385000Y-127016000D02*
X84385000Y-128641000D01*
X84385000Y-128641000D02*
X84411000Y-128667000D01*
X84371000Y-124934000D02*
X84371000Y-127002000D01*
X84371000Y-127002000D02*
X84385000Y-127016000D01*
D25*
X84371000Y-118634000D02*
X84371000Y-124934000D01*
D24*
X64132000Y-131080000D02*
X64132000Y-130038000D01*
X64132000Y-130038000D02*
X62761000Y-128667000D01*
X62735000Y-127016000D02*
X62735000Y-128641000D01*
X62735000Y-128641000D02*
X62761000Y-128667000D01*
X62721000Y-124934000D02*
X62721000Y-127002000D01*
X62721000Y-127002000D02*
X62735000Y-127016000D01*
D25*
X62721000Y-118634000D02*
X62721000Y-124934000D01*
D24*
X129132000Y-131080000D02*
X129132000Y-130038000D01*
X129132000Y-130038000D02*
X127761000Y-128667000D01*
X127735000Y-127016000D02*
X127735000Y-128641000D01*
X127735000Y-128641000D02*
X127761000Y-128667000D01*
X127721000Y-124934000D02*
X127721000Y-127002000D01*
X127721000Y-127002000D02*
X127735000Y-127016000D01*
%TO.N,+5V*%
X89702000Y-131080000D02*
X92345964Y-128436036D01*
X68002000Y-131080000D02*
X70645964Y-128436036D01*
X46352000Y-131080000D02*
X48995964Y-128436036D01*
X111352000Y-131080000D02*
X113995964Y-128436036D01*
%TO.N,GND2*%
X81210000Y-123841000D02*
X81210000Y-125841000D01*
X81210000Y-125841000D02*
X82385000Y-127016000D01*
X82385000Y-127016000D02*
X82835000Y-127016000D01*
X82861000Y-128667000D02*
X82861000Y-130699000D01*
X82861000Y-130699000D02*
X83242000Y-131080000D01*
X82861000Y-128667000D02*
X82861000Y-127042000D01*
X82861000Y-127042000D02*
X82835000Y-127016000D01*
X59560000Y-123841000D02*
X59560000Y-125841000D01*
X59560000Y-125841000D02*
X60735000Y-127016000D01*
X60735000Y-127016000D02*
X61185000Y-127016000D01*
X61211000Y-128667000D02*
X61211000Y-130699000D01*
X61211000Y-130699000D02*
X61592000Y-131080000D01*
X61211000Y-128667000D02*
X61211000Y-127042000D01*
X61211000Y-127042000D02*
X61185000Y-127016000D01*
X124560000Y-123841000D02*
X124560000Y-125841000D01*
X124560000Y-125841000D02*
X125735000Y-127016000D01*
X125735000Y-127016000D02*
X126185000Y-127016000D01*
X126211000Y-128667000D02*
X126211000Y-130699000D01*
X126211000Y-130699000D02*
X126592000Y-131080000D01*
X126211000Y-128667000D02*
X126211000Y-127042000D01*
X126211000Y-127042000D02*
X126185000Y-127016000D01*
X102910000Y-123841000D02*
X102910000Y-125841000D01*
X102910000Y-125841000D02*
X104085000Y-127016000D01*
X104085000Y-127016000D02*
X104535000Y-127016000D01*
X104561000Y-128667000D02*
X104561000Y-130699000D01*
X104561000Y-130699000D02*
X104942000Y-131080000D01*
X104561000Y-128667000D02*
X104561000Y-127042000D01*
X104561000Y-127042000D02*
X104535000Y-127016000D01*
D26*
%TO.N,Net-(D1-Pad5)*%
X73844000Y-125111000D02*
X74352000Y-125619000D01*
X70923000Y-125111000D02*
X73844000Y-125111000D01*
X52194000Y-125111000D02*
X52702000Y-125619000D01*
X49273000Y-125111000D02*
X52194000Y-125111000D01*
X117194000Y-125111000D02*
X117702000Y-125619000D01*
X114273000Y-125111000D02*
X117194000Y-125111000D01*
X95544000Y-125111000D02*
X96052000Y-125619000D01*
X92623000Y-125111000D02*
X95544000Y-125111000D01*
D27*
%TO.N,Net-(U2-Pad6)*%
X116169500Y-69400000D02*
X111949500Y-73620000D01*
X125742000Y-69400000D02*
X116169500Y-69400000D01*
%TO.N,Net-(U2-Pad4)*%
X118222000Y-64320000D02*
X107773000Y-64320000D01*
X107773000Y-64320000D02*
X101949500Y-70143500D01*
X101949500Y-70143500D02*
X101949500Y-73620000D01*
X125742000Y-64320000D02*
X118222000Y-64320000D01*
%TO.N,Net-(RV1-Pad2)*%
X67088000Y-64285000D02*
X67104500Y-64301500D01*
X67104500Y-64301500D02*
X69691500Y-64301500D01*
X69691500Y-64301500D02*
X69649000Y-64344000D01*
X57389000Y-47140000D02*
X51801000Y-47140000D01*
X51801000Y-47140000D02*
X49896000Y-49045000D01*
X49896000Y-49045000D02*
X49896000Y-49080000D01*
X57416000Y-49080000D02*
X57416000Y-47167000D01*
X69691500Y-52965500D02*
X63866000Y-47140000D01*
X69691500Y-73620000D02*
X69691500Y-65698500D01*
X69691500Y-65698500D02*
X69691500Y-52965500D01*
X63866000Y-47140000D02*
X57389000Y-47140000D01*
D28*
X57416000Y-47167000D02*
X57389000Y-47140000D01*
D27*
%TO.N,Net-(RV2-Pad2)*%
X64663000Y-79560000D02*
X76277000Y-79560000D01*
X76277000Y-79560000D02*
X78598000Y-77239000D01*
X78598000Y-77239000D02*
X90028000Y-77239000D01*
X97429000Y-84640000D02*
X118222000Y-84640000D01*
X90028000Y-77239000D02*
X97429000Y-84640000D01*
X57416000Y-79560000D02*
X64663000Y-79560000D01*
X64687000Y-80494000D02*
X64687000Y-79584000D01*
X49896000Y-79560000D02*
X57416000Y-79560000D01*
X125742000Y-84640000D02*
X118222000Y-84640000D01*
%TD*%
M02*
