M48
; DRILL file {KiCad (5.1.10)-1} date 01/19/22 08:42:32
; FORMAT={3:3/ absolute / metric / keep zeros}
; #@! TF.CreationDate,2022-01-19T08:42:32+07:00
; #@! TF.GenerationSoftware,Kicad,Pcbnew,(5.1.10)-1
; #@! TF.FileFunction,Plated,1,2,PTH
FMAT,2
METRIC
T1C0.400
T2C0.600
T3C0.700
T4C1.000
T5C1.050
T6C1.075
T7C1.100
T8C1.300
%
G90
G05
T1
X048638Y-126633
X049273Y-125111
X050670Y-128794
X052702Y-125619
X070288Y-126633
X070923Y-125111
X072320Y-128794
X074352Y-125619
X091988Y-126633
X092623Y-125111
X094020Y-128794
X096052Y-125619
X113638Y-126633
X114273Y-125111
X115670Y-128794
X117702Y-125619
T2
X062088Y-066385
X064687Y-080494
X066787Y-085494
X067088Y-064285
T3
X045971Y-120031
X048996Y-128436
X058290Y-122571
X059560Y-123841
X060421Y-118634
X065021Y-118634
X067621Y-120031
X070646Y-128436
X079940Y-122571
X081210Y-123841
X082071Y-118634
X086671Y-118634
X089321Y-120031
X092346Y-128436
X101640Y-122571
X102910Y-123841
X103771Y-118634
X108371Y-118634
X110971Y-120031
X113996Y-128436
X123290Y-122571
X124560Y-123841
X125421Y-118634
X130021Y-118634
T4
X046352Y-131080
X048892Y-131080
X051432Y-131080
X053972Y-131080
X059052Y-131080
X061592Y-131080
X064132Y-131080
X064692Y-073620
X068002Y-131080
X069692Y-073620
X070542Y-131080
X073082Y-131080
X075622Y-131080
X080702Y-131080
X083242Y-131080
X085782Y-131080
X089702Y-131080
X092242Y-131080
X094782Y-131080
X096950Y-073620
X097322Y-131080
X101950Y-073620
X102402Y-131080
X104942Y-131080
X106949Y-073620
X107482Y-131080
X111352Y-131080
X111949Y-073620
X113892Y-131080
X116432Y-131080
X118972Y-131080
X124052Y-131080
X126592Y-131080
X129132Y-131080
T5
X047610Y-060221
X047610Y-090701
X052690Y-060221
X052690Y-090701
X057770Y-060221
X057770Y-090701
X062850Y-060221
X062850Y-090701
T6
X049146Y-118634
X051686Y-118634
X054226Y-118634
X056766Y-118634
X070796Y-118634
X073336Y-118634
X075876Y-118634
X078416Y-118634
X092496Y-118634
X095036Y-118634
X097576Y-118634
X100116Y-118634
X114146Y-118634
X116686Y-118634
X119226Y-118634
X121766Y-118634
T7
X081900Y-082827
X086900Y-082827
T8
X049896Y-049080
X049896Y-054160
X049896Y-079560
X049896Y-084640
X057416Y-049080
X057416Y-054160
X057416Y-079560
X057416Y-084640
X118222Y-059240
X118222Y-064320
X118222Y-069400
X118222Y-074480
X118222Y-084640
X118222Y-089720
X125742Y-059240
X125742Y-064320
X125742Y-069400
X125742Y-074480
X125742Y-084640
X125742Y-089720
T0
M30
