%TF.GenerationSoftware,KiCad,Pcbnew,(5.1.10)-1*%
%TF.CreationDate,2022-01-18T18:17:05+07:00*%
%TF.ProjectId,Power_manager_v3_pnlz1x2,506f7765-725f-46d6-916e-616765725f76,rev?*%
%TF.SameCoordinates,Original*%
%TF.FileFunction,Paste,Top*%
%TF.FilePolarity,Positive*%
%FSLAX46Y46*%
G04 Gerber Fmt 4.6, Leading zero omitted, Abs format (unit mm)*
G04 Created by KiCad (PCBNEW (5.1.10)-1) date 2022-01-18 18:17:05*
%MOMM*%
%LPD*%
G01*
G04 APERTURE LIST*
%ADD10R,1.800000X0.650000*%
%ADD11R,0.400000X3.200000*%
%ADD12R,0.450000X0.600000*%
G04 APERTURE END LIST*
D10*
%TO.C,J5*%
X86938000Y-93888000D03*
X86938000Y-91348000D03*
X84238000Y-95158000D03*
X84238000Y-92618000D03*
X84238000Y-90078000D03*
%TD*%
%TO.C,C5*%
G36*
G01*
X79408000Y-79098000D02*
X78908000Y-79098000D01*
G75*
G02*
X78683000Y-78873000I0J225000D01*
G01*
X78683000Y-78423000D01*
G75*
G02*
X78908000Y-78198000I225000J0D01*
G01*
X79408000Y-78198000D01*
G75*
G02*
X79633000Y-78423000I0J-225000D01*
G01*
X79633000Y-78873000D01*
G75*
G02*
X79408000Y-79098000I-225000J0D01*
G01*
G37*
G36*
G01*
X79408000Y-77548000D02*
X78908000Y-77548000D01*
G75*
G02*
X78683000Y-77323000I0J225000D01*
G01*
X78683000Y-76873000D01*
G75*
G02*
X78908000Y-76648000I225000J0D01*
G01*
X79408000Y-76648000D01*
G75*
G02*
X79633000Y-76873000I0J-225000D01*
G01*
X79633000Y-77323000D01*
G75*
G02*
X79408000Y-77548000I-225000J0D01*
G01*
G37*
%TD*%
%TO.C,R24*%
G36*
G01*
X78695000Y-84257000D02*
X78695000Y-83707000D01*
G75*
G02*
X78895000Y-83507000I200000J0D01*
G01*
X79295000Y-83507000D01*
G75*
G02*
X79495000Y-83707000I0J-200000D01*
G01*
X79495000Y-84257000D01*
G75*
G02*
X79295000Y-84457000I-200000J0D01*
G01*
X78895000Y-84457000D01*
G75*
G02*
X78695000Y-84257000I0J200000D01*
G01*
G37*
G36*
G01*
X80345000Y-84257000D02*
X80345000Y-83707000D01*
G75*
G02*
X80545000Y-83507000I200000J0D01*
G01*
X80945000Y-83507000D01*
G75*
G02*
X81145000Y-83707000I0J-200000D01*
G01*
X81145000Y-84257000D01*
G75*
G02*
X80945000Y-84457000I-200000J0D01*
G01*
X80545000Y-84457000D01*
G75*
G02*
X80345000Y-84257000I0J200000D01*
G01*
G37*
%TD*%
%TO.C,U5*%
G36*
G01*
X81987000Y-86409500D02*
X82187000Y-86409500D01*
G75*
G02*
X82287000Y-86509500I0J-100000D01*
G01*
X82287000Y-87784500D01*
G75*
G02*
X82187000Y-87884500I-100000J0D01*
G01*
X81987000Y-87884500D01*
G75*
G02*
X81887000Y-87784500I0J100000D01*
G01*
X81887000Y-86509500D01*
G75*
G02*
X81987000Y-86409500I100000J0D01*
G01*
G37*
G36*
G01*
X81337000Y-86409500D02*
X81537000Y-86409500D01*
G75*
G02*
X81637000Y-86509500I0J-100000D01*
G01*
X81637000Y-87784500D01*
G75*
G02*
X81537000Y-87884500I-100000J0D01*
G01*
X81337000Y-87884500D01*
G75*
G02*
X81237000Y-87784500I0J100000D01*
G01*
X81237000Y-86509500D01*
G75*
G02*
X81337000Y-86409500I100000J0D01*
G01*
G37*
G36*
G01*
X80687000Y-86409500D02*
X80887000Y-86409500D01*
G75*
G02*
X80987000Y-86509500I0J-100000D01*
G01*
X80987000Y-87784500D01*
G75*
G02*
X80887000Y-87884500I-100000J0D01*
G01*
X80687000Y-87884500D01*
G75*
G02*
X80587000Y-87784500I0J100000D01*
G01*
X80587000Y-86509500D01*
G75*
G02*
X80687000Y-86409500I100000J0D01*
G01*
G37*
G36*
G01*
X80037000Y-86409500D02*
X80237000Y-86409500D01*
G75*
G02*
X80337000Y-86509500I0J-100000D01*
G01*
X80337000Y-87784500D01*
G75*
G02*
X80237000Y-87884500I-100000J0D01*
G01*
X80037000Y-87884500D01*
G75*
G02*
X79937000Y-87784500I0J100000D01*
G01*
X79937000Y-86509500D01*
G75*
G02*
X80037000Y-86409500I100000J0D01*
G01*
G37*
G36*
G01*
X79387000Y-86409500D02*
X79587000Y-86409500D01*
G75*
G02*
X79687000Y-86509500I0J-100000D01*
G01*
X79687000Y-87784500D01*
G75*
G02*
X79587000Y-87884500I-100000J0D01*
G01*
X79387000Y-87884500D01*
G75*
G02*
X79287000Y-87784500I0J100000D01*
G01*
X79287000Y-86509500D01*
G75*
G02*
X79387000Y-86409500I100000J0D01*
G01*
G37*
G36*
G01*
X78737000Y-86409500D02*
X78937000Y-86409500D01*
G75*
G02*
X79037000Y-86509500I0J-100000D01*
G01*
X79037000Y-87784500D01*
G75*
G02*
X78937000Y-87884500I-100000J0D01*
G01*
X78737000Y-87884500D01*
G75*
G02*
X78637000Y-87784500I0J100000D01*
G01*
X78637000Y-86509500D01*
G75*
G02*
X78737000Y-86409500I100000J0D01*
G01*
G37*
G36*
G01*
X78087000Y-86409500D02*
X78287000Y-86409500D01*
G75*
G02*
X78387000Y-86509500I0J-100000D01*
G01*
X78387000Y-87784500D01*
G75*
G02*
X78287000Y-87884500I-100000J0D01*
G01*
X78087000Y-87884500D01*
G75*
G02*
X77987000Y-87784500I0J100000D01*
G01*
X77987000Y-86509500D01*
G75*
G02*
X78087000Y-86409500I100000J0D01*
G01*
G37*
G36*
G01*
X77437000Y-86409500D02*
X77637000Y-86409500D01*
G75*
G02*
X77737000Y-86509500I0J-100000D01*
G01*
X77737000Y-87784500D01*
G75*
G02*
X77637000Y-87884500I-100000J0D01*
G01*
X77437000Y-87884500D01*
G75*
G02*
X77337000Y-87784500I0J100000D01*
G01*
X77337000Y-86509500D01*
G75*
G02*
X77437000Y-86409500I100000J0D01*
G01*
G37*
G36*
G01*
X76787000Y-86409500D02*
X76987000Y-86409500D01*
G75*
G02*
X77087000Y-86509500I0J-100000D01*
G01*
X77087000Y-87784500D01*
G75*
G02*
X76987000Y-87884500I-100000J0D01*
G01*
X76787000Y-87884500D01*
G75*
G02*
X76687000Y-87784500I0J100000D01*
G01*
X76687000Y-86509500D01*
G75*
G02*
X76787000Y-86409500I100000J0D01*
G01*
G37*
G36*
G01*
X76137000Y-86409500D02*
X76337000Y-86409500D01*
G75*
G02*
X76437000Y-86509500I0J-100000D01*
G01*
X76437000Y-87784500D01*
G75*
G02*
X76337000Y-87884500I-100000J0D01*
G01*
X76137000Y-87884500D01*
G75*
G02*
X76037000Y-87784500I0J100000D01*
G01*
X76037000Y-86509500D01*
G75*
G02*
X76137000Y-86409500I100000J0D01*
G01*
G37*
G36*
G01*
X76137000Y-92134500D02*
X76337000Y-92134500D01*
G75*
G02*
X76437000Y-92234500I0J-100000D01*
G01*
X76437000Y-93509500D01*
G75*
G02*
X76337000Y-93609500I-100000J0D01*
G01*
X76137000Y-93609500D01*
G75*
G02*
X76037000Y-93509500I0J100000D01*
G01*
X76037000Y-92234500D01*
G75*
G02*
X76137000Y-92134500I100000J0D01*
G01*
G37*
G36*
G01*
X76787000Y-92134500D02*
X76987000Y-92134500D01*
G75*
G02*
X77087000Y-92234500I0J-100000D01*
G01*
X77087000Y-93509500D01*
G75*
G02*
X76987000Y-93609500I-100000J0D01*
G01*
X76787000Y-93609500D01*
G75*
G02*
X76687000Y-93509500I0J100000D01*
G01*
X76687000Y-92234500D01*
G75*
G02*
X76787000Y-92134500I100000J0D01*
G01*
G37*
G36*
G01*
X77437000Y-92134500D02*
X77637000Y-92134500D01*
G75*
G02*
X77737000Y-92234500I0J-100000D01*
G01*
X77737000Y-93509500D01*
G75*
G02*
X77637000Y-93609500I-100000J0D01*
G01*
X77437000Y-93609500D01*
G75*
G02*
X77337000Y-93509500I0J100000D01*
G01*
X77337000Y-92234500D01*
G75*
G02*
X77437000Y-92134500I100000J0D01*
G01*
G37*
G36*
G01*
X78087000Y-92134500D02*
X78287000Y-92134500D01*
G75*
G02*
X78387000Y-92234500I0J-100000D01*
G01*
X78387000Y-93509500D01*
G75*
G02*
X78287000Y-93609500I-100000J0D01*
G01*
X78087000Y-93609500D01*
G75*
G02*
X77987000Y-93509500I0J100000D01*
G01*
X77987000Y-92234500D01*
G75*
G02*
X78087000Y-92134500I100000J0D01*
G01*
G37*
G36*
G01*
X78737000Y-92134500D02*
X78937000Y-92134500D01*
G75*
G02*
X79037000Y-92234500I0J-100000D01*
G01*
X79037000Y-93509500D01*
G75*
G02*
X78937000Y-93609500I-100000J0D01*
G01*
X78737000Y-93609500D01*
G75*
G02*
X78637000Y-93509500I0J100000D01*
G01*
X78637000Y-92234500D01*
G75*
G02*
X78737000Y-92134500I100000J0D01*
G01*
G37*
G36*
G01*
X79387000Y-92134500D02*
X79587000Y-92134500D01*
G75*
G02*
X79687000Y-92234500I0J-100000D01*
G01*
X79687000Y-93509500D01*
G75*
G02*
X79587000Y-93609500I-100000J0D01*
G01*
X79387000Y-93609500D01*
G75*
G02*
X79287000Y-93509500I0J100000D01*
G01*
X79287000Y-92234500D01*
G75*
G02*
X79387000Y-92134500I100000J0D01*
G01*
G37*
G36*
G01*
X80037000Y-92134500D02*
X80237000Y-92134500D01*
G75*
G02*
X80337000Y-92234500I0J-100000D01*
G01*
X80337000Y-93509500D01*
G75*
G02*
X80237000Y-93609500I-100000J0D01*
G01*
X80037000Y-93609500D01*
G75*
G02*
X79937000Y-93509500I0J100000D01*
G01*
X79937000Y-92234500D01*
G75*
G02*
X80037000Y-92134500I100000J0D01*
G01*
G37*
G36*
G01*
X80687000Y-92134500D02*
X80887000Y-92134500D01*
G75*
G02*
X80987000Y-92234500I0J-100000D01*
G01*
X80987000Y-93509500D01*
G75*
G02*
X80887000Y-93609500I-100000J0D01*
G01*
X80687000Y-93609500D01*
G75*
G02*
X80587000Y-93509500I0J100000D01*
G01*
X80587000Y-92234500D01*
G75*
G02*
X80687000Y-92134500I100000J0D01*
G01*
G37*
G36*
G01*
X81337000Y-92134500D02*
X81537000Y-92134500D01*
G75*
G02*
X81637000Y-92234500I0J-100000D01*
G01*
X81637000Y-93509500D01*
G75*
G02*
X81537000Y-93609500I-100000J0D01*
G01*
X81337000Y-93609500D01*
G75*
G02*
X81237000Y-93509500I0J100000D01*
G01*
X81237000Y-92234500D01*
G75*
G02*
X81337000Y-92134500I100000J0D01*
G01*
G37*
G36*
G01*
X81987000Y-92134500D02*
X82187000Y-92134500D01*
G75*
G02*
X82287000Y-92234500I0J-100000D01*
G01*
X82287000Y-93509500D01*
G75*
G02*
X82187000Y-93609500I-100000J0D01*
G01*
X81987000Y-93609500D01*
G75*
G02*
X81887000Y-93509500I0J100000D01*
G01*
X81887000Y-92234500D01*
G75*
G02*
X81987000Y-92134500I100000J0D01*
G01*
G37*
%TD*%
D11*
%TO.C,Y1*%
X81374000Y-81315000D03*
X80174000Y-81315000D03*
X78974000Y-81315000D03*
%TD*%
%TO.C,C7*%
G36*
G01*
X90112000Y-82327000D02*
X90112000Y-81827000D01*
G75*
G02*
X90337000Y-81602000I225000J0D01*
G01*
X90787000Y-81602000D01*
G75*
G02*
X91012000Y-81827000I0J-225000D01*
G01*
X91012000Y-82327000D01*
G75*
G02*
X90787000Y-82552000I-225000J0D01*
G01*
X90337000Y-82552000D01*
G75*
G02*
X90112000Y-82327000I0J225000D01*
G01*
G37*
G36*
G01*
X91662000Y-82327000D02*
X91662000Y-81827000D01*
G75*
G02*
X91887000Y-81602000I225000J0D01*
G01*
X92337000Y-81602000D01*
G75*
G02*
X92562000Y-81827000I0J-225000D01*
G01*
X92562000Y-82327000D01*
G75*
G02*
X92337000Y-82552000I-225000J0D01*
G01*
X91887000Y-82552000D01*
G75*
G02*
X91662000Y-82327000I0J225000D01*
G01*
G37*
%TD*%
%TO.C,C15*%
G36*
G01*
X80092000Y-95027000D02*
X80092000Y-94527000D01*
G75*
G02*
X80317000Y-94302000I225000J0D01*
G01*
X80767000Y-94302000D01*
G75*
G02*
X80992000Y-94527000I0J-225000D01*
G01*
X80992000Y-95027000D01*
G75*
G02*
X80767000Y-95252000I-225000J0D01*
G01*
X80317000Y-95252000D01*
G75*
G02*
X80092000Y-95027000I0J225000D01*
G01*
G37*
G36*
G01*
X81642000Y-95027000D02*
X81642000Y-94527000D01*
G75*
G02*
X81867000Y-94302000I225000J0D01*
G01*
X82317000Y-94302000D01*
G75*
G02*
X82542000Y-94527000I0J-225000D01*
G01*
X82542000Y-95027000D01*
G75*
G02*
X82317000Y-95252000I-225000J0D01*
G01*
X81867000Y-95252000D01*
G75*
G02*
X81642000Y-95027000I0J225000D01*
G01*
G37*
%TD*%
%TO.C,C4*%
G36*
G01*
X81440000Y-79098000D02*
X80940000Y-79098000D01*
G75*
G02*
X80715000Y-78873000I0J225000D01*
G01*
X80715000Y-78423000D01*
G75*
G02*
X80940000Y-78198000I225000J0D01*
G01*
X81440000Y-78198000D01*
G75*
G02*
X81665000Y-78423000I0J-225000D01*
G01*
X81665000Y-78873000D01*
G75*
G02*
X81440000Y-79098000I-225000J0D01*
G01*
G37*
G36*
G01*
X81440000Y-77548000D02*
X80940000Y-77548000D01*
G75*
G02*
X80715000Y-77323000I0J225000D01*
G01*
X80715000Y-76873000D01*
G75*
G02*
X80940000Y-76648000I225000J0D01*
G01*
X81440000Y-76648000D01*
G75*
G02*
X81665000Y-76873000I0J-225000D01*
G01*
X81665000Y-77323000D01*
G75*
G02*
X81440000Y-77548000I-225000J0D01*
G01*
G37*
%TD*%
%TO.C,R18*%
G36*
G01*
X94068500Y-95215999D02*
X94068500Y-96116001D01*
G75*
G02*
X93818501Y-96366000I-249999J0D01*
G01*
X93293499Y-96366000D01*
G75*
G02*
X93043500Y-96116001I0J249999D01*
G01*
X93043500Y-95215999D01*
G75*
G02*
X93293499Y-94966000I249999J0D01*
G01*
X93818501Y-94966000D01*
G75*
G02*
X94068500Y-95215999I0J-249999D01*
G01*
G37*
G36*
G01*
X92243500Y-95215999D02*
X92243500Y-96116001D01*
G75*
G02*
X91993501Y-96366000I-249999J0D01*
G01*
X91468499Y-96366000D01*
G75*
G02*
X91218500Y-96116001I0J249999D01*
G01*
X91218500Y-95215999D01*
G75*
G02*
X91468499Y-94966000I249999J0D01*
G01*
X91993501Y-94966000D01*
G75*
G02*
X92243500Y-95215999I0J-249999D01*
G01*
G37*
%TD*%
%TO.C,R19*%
G36*
G01*
X94195500Y-88230999D02*
X94195500Y-89131001D01*
G75*
G02*
X93945501Y-89381000I-249999J0D01*
G01*
X93420499Y-89381000D01*
G75*
G02*
X93170500Y-89131001I0J249999D01*
G01*
X93170500Y-88230999D01*
G75*
G02*
X93420499Y-87981000I249999J0D01*
G01*
X93945501Y-87981000D01*
G75*
G02*
X94195500Y-88230999I0J-249999D01*
G01*
G37*
G36*
G01*
X92370500Y-88230999D02*
X92370500Y-89131001D01*
G75*
G02*
X92120501Y-89381000I-249999J0D01*
G01*
X91595499Y-89381000D01*
G75*
G02*
X91345500Y-89131001I0J249999D01*
G01*
X91345500Y-88230999D01*
G75*
G02*
X91595499Y-87981000I249999J0D01*
G01*
X92120501Y-87981000D01*
G75*
G02*
X92370500Y-88230999I0J-249999D01*
G01*
G37*
%TD*%
%TO.C,R20*%
G36*
G01*
X102276500Y-95215999D02*
X102276500Y-96116001D01*
G75*
G02*
X102026501Y-96366000I-249999J0D01*
G01*
X101501499Y-96366000D01*
G75*
G02*
X101251500Y-96116001I0J249999D01*
G01*
X101251500Y-95215999D01*
G75*
G02*
X101501499Y-94966000I249999J0D01*
G01*
X102026501Y-94966000D01*
G75*
G02*
X102276500Y-95215999I0J-249999D01*
G01*
G37*
G36*
G01*
X104101500Y-95215999D02*
X104101500Y-96116001D01*
G75*
G02*
X103851501Y-96366000I-249999J0D01*
G01*
X103326499Y-96366000D01*
G75*
G02*
X103076500Y-96116001I0J249999D01*
G01*
X103076500Y-95215999D01*
G75*
G02*
X103326499Y-94966000I249999J0D01*
G01*
X103851501Y-94966000D01*
G75*
G02*
X104101500Y-95215999I0J-249999D01*
G01*
G37*
%TD*%
%TO.C,R21*%
G36*
G01*
X104101500Y-88230999D02*
X104101500Y-89131001D01*
G75*
G02*
X103851501Y-89381000I-249999J0D01*
G01*
X103326499Y-89381000D01*
G75*
G02*
X103076500Y-89131001I0J249999D01*
G01*
X103076500Y-88230999D01*
G75*
G02*
X103326499Y-87981000I249999J0D01*
G01*
X103851501Y-87981000D01*
G75*
G02*
X104101500Y-88230999I0J-249999D01*
G01*
G37*
G36*
G01*
X102276500Y-88230999D02*
X102276500Y-89131001D01*
G75*
G02*
X102026501Y-89381000I-249999J0D01*
G01*
X101501499Y-89381000D01*
G75*
G02*
X101251500Y-89131001I0J249999D01*
G01*
X101251500Y-88230999D01*
G75*
G02*
X101501499Y-87981000I249999J0D01*
G01*
X102026501Y-87981000D01*
G75*
G02*
X102276500Y-88230999I0J-249999D01*
G01*
G37*
%TD*%
%TO.C,R23*%
G36*
G01*
X87138000Y-80661000D02*
X87688000Y-80661000D01*
G75*
G02*
X87888000Y-80861000I0J-200000D01*
G01*
X87888000Y-81261000D01*
G75*
G02*
X87688000Y-81461000I-200000J0D01*
G01*
X87138000Y-81461000D01*
G75*
G02*
X86938000Y-81261000I0J200000D01*
G01*
X86938000Y-80861000D01*
G75*
G02*
X87138000Y-80661000I200000J0D01*
G01*
G37*
G36*
G01*
X87138000Y-82311000D02*
X87688000Y-82311000D01*
G75*
G02*
X87888000Y-82511000I0J-200000D01*
G01*
X87888000Y-82911000D01*
G75*
G02*
X87688000Y-83111000I-200000J0D01*
G01*
X87138000Y-83111000D01*
G75*
G02*
X86938000Y-82911000I0J200000D01*
G01*
X86938000Y-82511000D01*
G75*
G02*
X87138000Y-82311000I200000J0D01*
G01*
G37*
%TD*%
%TO.C,R25*%
G36*
G01*
X89339000Y-83112000D02*
X88789000Y-83112000D01*
G75*
G02*
X88589000Y-82912000I0J200000D01*
G01*
X88589000Y-82512000D01*
G75*
G02*
X88789000Y-82312000I200000J0D01*
G01*
X89339000Y-82312000D01*
G75*
G02*
X89539000Y-82512000I0J-200000D01*
G01*
X89539000Y-82912000D01*
G75*
G02*
X89339000Y-83112000I-200000J0D01*
G01*
G37*
G36*
G01*
X89339000Y-81462000D02*
X88789000Y-81462000D01*
G75*
G02*
X88589000Y-81262000I0J200000D01*
G01*
X88589000Y-80862000D01*
G75*
G02*
X88789000Y-80662000I200000J0D01*
G01*
X89339000Y-80662000D01*
G75*
G02*
X89539000Y-80862000I0J-200000D01*
G01*
X89539000Y-81262000D01*
G75*
G02*
X89339000Y-81462000I-200000J0D01*
G01*
G37*
%TD*%
%TO.C,C17*%
G36*
G01*
X75279000Y-85375000D02*
X75279000Y-84875000D01*
G75*
G02*
X75504000Y-84650000I225000J0D01*
G01*
X75954000Y-84650000D01*
G75*
G02*
X76179000Y-84875000I0J-225000D01*
G01*
X76179000Y-85375000D01*
G75*
G02*
X75954000Y-85600000I-225000J0D01*
G01*
X75504000Y-85600000D01*
G75*
G02*
X75279000Y-85375000I0J225000D01*
G01*
G37*
G36*
G01*
X76829000Y-85375000D02*
X76829000Y-84875000D01*
G75*
G02*
X77054000Y-84650000I225000J0D01*
G01*
X77504000Y-84650000D01*
G75*
G02*
X77729000Y-84875000I0J-225000D01*
G01*
X77729000Y-85375000D01*
G75*
G02*
X77504000Y-85600000I-225000J0D01*
G01*
X77054000Y-85600000D01*
G75*
G02*
X76829000Y-85375000I0J225000D01*
G01*
G37*
%TD*%
%TO.C,R6*%
G36*
G01*
X94733500Y-78246000D02*
X94733500Y-78796000D01*
G75*
G02*
X94533500Y-78996000I-200000J0D01*
G01*
X94133500Y-78996000D01*
G75*
G02*
X93933500Y-78796000I0J200000D01*
G01*
X93933500Y-78246000D01*
G75*
G02*
X94133500Y-78046000I200000J0D01*
G01*
X94533500Y-78046000D01*
G75*
G02*
X94733500Y-78246000I0J-200000D01*
G01*
G37*
G36*
G01*
X93083500Y-78246000D02*
X93083500Y-78796000D01*
G75*
G02*
X92883500Y-78996000I-200000J0D01*
G01*
X92483500Y-78996000D01*
G75*
G02*
X92283500Y-78796000I0J200000D01*
G01*
X92283500Y-78246000D01*
G75*
G02*
X92483500Y-78046000I200000J0D01*
G01*
X92883500Y-78046000D01*
G75*
G02*
X93083500Y-78246000I0J-200000D01*
G01*
G37*
%TD*%
%TO.C,R8*%
G36*
G01*
X104793000Y-77272000D02*
X104793000Y-76722000D01*
G75*
G02*
X104993000Y-76522000I200000J0D01*
G01*
X105393000Y-76522000D01*
G75*
G02*
X105593000Y-76722000I0J-200000D01*
G01*
X105593000Y-77272000D01*
G75*
G02*
X105393000Y-77472000I-200000J0D01*
G01*
X104993000Y-77472000D01*
G75*
G02*
X104793000Y-77272000I0J200000D01*
G01*
G37*
G36*
G01*
X106443000Y-77272000D02*
X106443000Y-76722000D01*
G75*
G02*
X106643000Y-76522000I200000J0D01*
G01*
X107043000Y-76522000D01*
G75*
G02*
X107243000Y-76722000I0J-200000D01*
G01*
X107243000Y-77272000D01*
G75*
G02*
X107043000Y-77472000I-200000J0D01*
G01*
X106643000Y-77472000D01*
G75*
G02*
X106443000Y-77272000I0J200000D01*
G01*
G37*
%TD*%
%TO.C,R9*%
G36*
G01*
X104639500Y-78284100D02*
X104639500Y-78834100D01*
G75*
G02*
X104439500Y-79034100I-200000J0D01*
G01*
X104039500Y-79034100D01*
G75*
G02*
X103839500Y-78834100I0J200000D01*
G01*
X103839500Y-78284100D01*
G75*
G02*
X104039500Y-78084100I200000J0D01*
G01*
X104439500Y-78084100D01*
G75*
G02*
X104639500Y-78284100I0J-200000D01*
G01*
G37*
G36*
G01*
X102989500Y-78284100D02*
X102989500Y-78834100D01*
G75*
G02*
X102789500Y-79034100I-200000J0D01*
G01*
X102389500Y-79034100D01*
G75*
G02*
X102189500Y-78834100I0J200000D01*
G01*
X102189500Y-78284100D01*
G75*
G02*
X102389500Y-78084100I200000J0D01*
G01*
X102789500Y-78084100D01*
G75*
G02*
X102989500Y-78284100I0J-200000D01*
G01*
G37*
%TD*%
%TO.C,C9*%
G36*
G01*
X94131000Y-93159000D02*
X94131000Y-94109000D01*
G75*
G02*
X93881000Y-94359000I-250000J0D01*
G01*
X93381000Y-94359000D01*
G75*
G02*
X93131000Y-94109000I0J250000D01*
G01*
X93131000Y-93159000D01*
G75*
G02*
X93381000Y-92909000I250000J0D01*
G01*
X93881000Y-92909000D01*
G75*
G02*
X94131000Y-93159000I0J-250000D01*
G01*
G37*
G36*
G01*
X92231000Y-93159000D02*
X92231000Y-94109000D01*
G75*
G02*
X91981000Y-94359000I-250000J0D01*
G01*
X91481000Y-94359000D01*
G75*
G02*
X91231000Y-94109000I0J250000D01*
G01*
X91231000Y-93159000D01*
G75*
G02*
X91481000Y-92909000I250000J0D01*
G01*
X91981000Y-92909000D01*
G75*
G02*
X92231000Y-93159000I0J-250000D01*
G01*
G37*
%TD*%
%TO.C,C10*%
G36*
G01*
X91363000Y-91188000D02*
X91363000Y-90238000D01*
G75*
G02*
X91613000Y-89988000I250000J0D01*
G01*
X92113000Y-89988000D01*
G75*
G02*
X92363000Y-90238000I0J-250000D01*
G01*
X92363000Y-91188000D01*
G75*
G02*
X92113000Y-91438000I-250000J0D01*
G01*
X91613000Y-91438000D01*
G75*
G02*
X91363000Y-91188000I0J250000D01*
G01*
G37*
G36*
G01*
X93263000Y-91188000D02*
X93263000Y-90238000D01*
G75*
G02*
X93513000Y-89988000I250000J0D01*
G01*
X94013000Y-89988000D01*
G75*
G02*
X94263000Y-90238000I0J-250000D01*
G01*
X94263000Y-91188000D01*
G75*
G02*
X94013000Y-91438000I-250000J0D01*
G01*
X93513000Y-91438000D01*
G75*
G02*
X93263000Y-91188000I0J250000D01*
G01*
G37*
%TD*%
%TO.C,C11*%
G36*
G01*
X104169000Y-93159000D02*
X104169000Y-94109000D01*
G75*
G02*
X103919000Y-94359000I-250000J0D01*
G01*
X103419000Y-94359000D01*
G75*
G02*
X103169000Y-94109000I0J250000D01*
G01*
X103169000Y-93159000D01*
G75*
G02*
X103419000Y-92909000I250000J0D01*
G01*
X103919000Y-92909000D01*
G75*
G02*
X104169000Y-93159000I0J-250000D01*
G01*
G37*
G36*
G01*
X102269000Y-93159000D02*
X102269000Y-94109000D01*
G75*
G02*
X102019000Y-94359000I-250000J0D01*
G01*
X101519000Y-94359000D01*
G75*
G02*
X101269000Y-94109000I0J250000D01*
G01*
X101269000Y-93159000D01*
G75*
G02*
X101519000Y-92909000I250000J0D01*
G01*
X102019000Y-92909000D01*
G75*
G02*
X102269000Y-93159000I0J-250000D01*
G01*
G37*
%TD*%
%TO.C,C12*%
G36*
G01*
X101264000Y-91188000D02*
X101264000Y-90238000D01*
G75*
G02*
X101514000Y-89988000I250000J0D01*
G01*
X102014000Y-89988000D01*
G75*
G02*
X102264000Y-90238000I0J-250000D01*
G01*
X102264000Y-91188000D01*
G75*
G02*
X102014000Y-91438000I-250000J0D01*
G01*
X101514000Y-91438000D01*
G75*
G02*
X101264000Y-91188000I0J250000D01*
G01*
G37*
G36*
G01*
X103164000Y-91188000D02*
X103164000Y-90238000D01*
G75*
G02*
X103414000Y-89988000I250000J0D01*
G01*
X103914000Y-89988000D01*
G75*
G02*
X104164000Y-90238000I0J-250000D01*
G01*
X104164000Y-91188000D01*
G75*
G02*
X103914000Y-91438000I-250000J0D01*
G01*
X103414000Y-91438000D01*
G75*
G02*
X103164000Y-91188000I0J250000D01*
G01*
G37*
%TD*%
%TO.C,C3*%
G36*
G01*
X70591000Y-80176000D02*
X70591000Y-80676000D01*
G75*
G02*
X70366000Y-80901000I-225000J0D01*
G01*
X69916000Y-80901000D01*
G75*
G02*
X69691000Y-80676000I0J225000D01*
G01*
X69691000Y-80176000D01*
G75*
G02*
X69916000Y-79951000I225000J0D01*
G01*
X70366000Y-79951000D01*
G75*
G02*
X70591000Y-80176000I0J-225000D01*
G01*
G37*
G36*
G01*
X69041000Y-80176000D02*
X69041000Y-80676000D01*
G75*
G02*
X68816000Y-80901000I-225000J0D01*
G01*
X68366000Y-80901000D01*
G75*
G02*
X68141000Y-80676000I0J225000D01*
G01*
X68141000Y-80176000D01*
G75*
G02*
X68366000Y-79951000I225000J0D01*
G01*
X68816000Y-79951000D01*
G75*
G02*
X69041000Y-80176000I0J-225000D01*
G01*
G37*
%TD*%
%TO.C,C1*%
G36*
G01*
X92297000Y-80422000D02*
X92297000Y-79922000D01*
G75*
G02*
X92522000Y-79697000I225000J0D01*
G01*
X92972000Y-79697000D01*
G75*
G02*
X93197000Y-79922000I0J-225000D01*
G01*
X93197000Y-80422000D01*
G75*
G02*
X92972000Y-80647000I-225000J0D01*
G01*
X92522000Y-80647000D01*
G75*
G02*
X92297000Y-80422000I0J225000D01*
G01*
G37*
G36*
G01*
X93847000Y-80422000D02*
X93847000Y-79922000D01*
G75*
G02*
X94072000Y-79697000I225000J0D01*
G01*
X94522000Y-79697000D01*
G75*
G02*
X94747000Y-79922000I0J-225000D01*
G01*
X94747000Y-80422000D01*
G75*
G02*
X94522000Y-80647000I-225000J0D01*
G01*
X94072000Y-80647000D01*
G75*
G02*
X93847000Y-80422000I0J225000D01*
G01*
G37*
%TD*%
%TO.C,C2*%
G36*
G01*
X102203000Y-80422000D02*
X102203000Y-79922000D01*
G75*
G02*
X102428000Y-79697000I225000J0D01*
G01*
X102878000Y-79697000D01*
G75*
G02*
X103103000Y-79922000I0J-225000D01*
G01*
X103103000Y-80422000D01*
G75*
G02*
X102878000Y-80647000I-225000J0D01*
G01*
X102428000Y-80647000D01*
G75*
G02*
X102203000Y-80422000I0J225000D01*
G01*
G37*
G36*
G01*
X103753000Y-80422000D02*
X103753000Y-79922000D01*
G75*
G02*
X103978000Y-79697000I225000J0D01*
G01*
X104428000Y-79697000D01*
G75*
G02*
X104653000Y-79922000I0J-225000D01*
G01*
X104653000Y-80422000D01*
G75*
G02*
X104428000Y-80647000I-225000J0D01*
G01*
X103978000Y-80647000D01*
G75*
G02*
X103753000Y-80422000I0J225000D01*
G01*
G37*
%TD*%
D12*
%TO.C,D3*%
X96557000Y-80494000D03*
X96557000Y-78394000D03*
%TD*%
%TO.C,D4*%
X106463000Y-80494000D03*
X106463000Y-78394000D03*
%TD*%
%TO.C,R1*%
G36*
G01*
X94225500Y-76722000D02*
X94225500Y-77272000D01*
G75*
G02*
X94025500Y-77472000I-200000J0D01*
G01*
X93625500Y-77472000D01*
G75*
G02*
X93425500Y-77272000I0J200000D01*
G01*
X93425500Y-76722000D01*
G75*
G02*
X93625500Y-76522000I200000J0D01*
G01*
X94025500Y-76522000D01*
G75*
G02*
X94225500Y-76722000I0J-200000D01*
G01*
G37*
G36*
G01*
X92575500Y-76722000D02*
X92575500Y-77272000D01*
G75*
G02*
X92375500Y-77472000I-200000J0D01*
G01*
X91975500Y-77472000D01*
G75*
G02*
X91775500Y-77272000I0J200000D01*
G01*
X91775500Y-76722000D01*
G75*
G02*
X91975500Y-76522000I200000J0D01*
G01*
X92375500Y-76522000D01*
G75*
G02*
X92575500Y-76722000I0J-200000D01*
G01*
G37*
%TD*%
%TO.C,R2*%
G36*
G01*
X104131500Y-76722000D02*
X104131500Y-77272000D01*
G75*
G02*
X103931500Y-77472000I-200000J0D01*
G01*
X103531500Y-77472000D01*
G75*
G02*
X103331500Y-77272000I0J200000D01*
G01*
X103331500Y-76722000D01*
G75*
G02*
X103531500Y-76522000I200000J0D01*
G01*
X103931500Y-76522000D01*
G75*
G02*
X104131500Y-76722000I0J-200000D01*
G01*
G37*
G36*
G01*
X102481500Y-76722000D02*
X102481500Y-77272000D01*
G75*
G02*
X102281500Y-77472000I-200000J0D01*
G01*
X101881500Y-77472000D01*
G75*
G02*
X101681500Y-77272000I0J200000D01*
G01*
X101681500Y-76722000D01*
G75*
G02*
X101881500Y-76522000I200000J0D01*
G01*
X102281500Y-76522000D01*
G75*
G02*
X102481500Y-76722000I0J-200000D01*
G01*
G37*
%TD*%
%TO.C,R5*%
G36*
G01*
X94887000Y-77272000D02*
X94887000Y-76722000D01*
G75*
G02*
X95087000Y-76522000I200000J0D01*
G01*
X95487000Y-76522000D01*
G75*
G02*
X95687000Y-76722000I0J-200000D01*
G01*
X95687000Y-77272000D01*
G75*
G02*
X95487000Y-77472000I-200000J0D01*
G01*
X95087000Y-77472000D01*
G75*
G02*
X94887000Y-77272000I0J200000D01*
G01*
G37*
G36*
G01*
X96537000Y-77272000D02*
X96537000Y-76722000D01*
G75*
G02*
X96737000Y-76522000I200000J0D01*
G01*
X97137000Y-76522000D01*
G75*
G02*
X97337000Y-76722000I0J-200000D01*
G01*
X97337000Y-77272000D01*
G75*
G02*
X97137000Y-77472000I-200000J0D01*
G01*
X96737000Y-77472000D01*
G75*
G02*
X96537000Y-77272000I0J200000D01*
G01*
G37*
%TD*%
D10*
%TO.C,J5*%
X84238000Y-65078000D03*
X84238000Y-67618000D03*
X84238000Y-70158000D03*
X86938000Y-66348000D03*
X86938000Y-68888000D03*
%TD*%
%TO.C,C17*%
G36*
G01*
X76829000Y-60375000D02*
X76829000Y-59875000D01*
G75*
G02*
X77054000Y-59650000I225000J0D01*
G01*
X77504000Y-59650000D01*
G75*
G02*
X77729000Y-59875000I0J-225000D01*
G01*
X77729000Y-60375000D01*
G75*
G02*
X77504000Y-60600000I-225000J0D01*
G01*
X77054000Y-60600000D01*
G75*
G02*
X76829000Y-60375000I0J225000D01*
G01*
G37*
G36*
G01*
X75279000Y-60375000D02*
X75279000Y-59875000D01*
G75*
G02*
X75504000Y-59650000I225000J0D01*
G01*
X75954000Y-59650000D01*
G75*
G02*
X76179000Y-59875000I0J-225000D01*
G01*
X76179000Y-60375000D01*
G75*
G02*
X75954000Y-60600000I-225000J0D01*
G01*
X75504000Y-60600000D01*
G75*
G02*
X75279000Y-60375000I0J225000D01*
G01*
G37*
%TD*%
%TO.C,R25*%
G36*
G01*
X89339000Y-56462000D02*
X88789000Y-56462000D01*
G75*
G02*
X88589000Y-56262000I0J200000D01*
G01*
X88589000Y-55862000D01*
G75*
G02*
X88789000Y-55662000I200000J0D01*
G01*
X89339000Y-55662000D01*
G75*
G02*
X89539000Y-55862000I0J-200000D01*
G01*
X89539000Y-56262000D01*
G75*
G02*
X89339000Y-56462000I-200000J0D01*
G01*
G37*
G36*
G01*
X89339000Y-58112000D02*
X88789000Y-58112000D01*
G75*
G02*
X88589000Y-57912000I0J200000D01*
G01*
X88589000Y-57512000D01*
G75*
G02*
X88789000Y-57312000I200000J0D01*
G01*
X89339000Y-57312000D01*
G75*
G02*
X89539000Y-57512000I0J-200000D01*
G01*
X89539000Y-57912000D01*
G75*
G02*
X89339000Y-58112000I-200000J0D01*
G01*
G37*
%TD*%
%TO.C,R23*%
G36*
G01*
X87138000Y-57311000D02*
X87688000Y-57311000D01*
G75*
G02*
X87888000Y-57511000I0J-200000D01*
G01*
X87888000Y-57911000D01*
G75*
G02*
X87688000Y-58111000I-200000J0D01*
G01*
X87138000Y-58111000D01*
G75*
G02*
X86938000Y-57911000I0J200000D01*
G01*
X86938000Y-57511000D01*
G75*
G02*
X87138000Y-57311000I200000J0D01*
G01*
G37*
G36*
G01*
X87138000Y-55661000D02*
X87688000Y-55661000D01*
G75*
G02*
X87888000Y-55861000I0J-200000D01*
G01*
X87888000Y-56261000D01*
G75*
G02*
X87688000Y-56461000I-200000J0D01*
G01*
X87138000Y-56461000D01*
G75*
G02*
X86938000Y-56261000I0J200000D01*
G01*
X86938000Y-55861000D01*
G75*
G02*
X87138000Y-55661000I200000J0D01*
G01*
G37*
%TD*%
%TO.C,C15*%
G36*
G01*
X81642000Y-70027000D02*
X81642000Y-69527000D01*
G75*
G02*
X81867000Y-69302000I225000J0D01*
G01*
X82317000Y-69302000D01*
G75*
G02*
X82542000Y-69527000I0J-225000D01*
G01*
X82542000Y-70027000D01*
G75*
G02*
X82317000Y-70252000I-225000J0D01*
G01*
X81867000Y-70252000D01*
G75*
G02*
X81642000Y-70027000I0J225000D01*
G01*
G37*
G36*
G01*
X80092000Y-70027000D02*
X80092000Y-69527000D01*
G75*
G02*
X80317000Y-69302000I225000J0D01*
G01*
X80767000Y-69302000D01*
G75*
G02*
X80992000Y-69527000I0J-225000D01*
G01*
X80992000Y-70027000D01*
G75*
G02*
X80767000Y-70252000I-225000J0D01*
G01*
X80317000Y-70252000D01*
G75*
G02*
X80092000Y-70027000I0J225000D01*
G01*
G37*
%TD*%
%TO.C,C7*%
G36*
G01*
X91662000Y-57327000D02*
X91662000Y-56827000D01*
G75*
G02*
X91887000Y-56602000I225000J0D01*
G01*
X92337000Y-56602000D01*
G75*
G02*
X92562000Y-56827000I0J-225000D01*
G01*
X92562000Y-57327000D01*
G75*
G02*
X92337000Y-57552000I-225000J0D01*
G01*
X91887000Y-57552000D01*
G75*
G02*
X91662000Y-57327000I0J225000D01*
G01*
G37*
G36*
G01*
X90112000Y-57327000D02*
X90112000Y-56827000D01*
G75*
G02*
X90337000Y-56602000I225000J0D01*
G01*
X90787000Y-56602000D01*
G75*
G02*
X91012000Y-56827000I0J-225000D01*
G01*
X91012000Y-57327000D01*
G75*
G02*
X90787000Y-57552000I-225000J0D01*
G01*
X90337000Y-57552000D01*
G75*
G02*
X90112000Y-57327000I0J225000D01*
G01*
G37*
%TD*%
D11*
%TO.C,Y1*%
X78974000Y-56315000D03*
X80174000Y-56315000D03*
X81374000Y-56315000D03*
%TD*%
%TO.C,U5*%
G36*
G01*
X81987000Y-67134500D02*
X82187000Y-67134500D01*
G75*
G02*
X82287000Y-67234500I0J-100000D01*
G01*
X82287000Y-68509500D01*
G75*
G02*
X82187000Y-68609500I-100000J0D01*
G01*
X81987000Y-68609500D01*
G75*
G02*
X81887000Y-68509500I0J100000D01*
G01*
X81887000Y-67234500D01*
G75*
G02*
X81987000Y-67134500I100000J0D01*
G01*
G37*
G36*
G01*
X81337000Y-67134500D02*
X81537000Y-67134500D01*
G75*
G02*
X81637000Y-67234500I0J-100000D01*
G01*
X81637000Y-68509500D01*
G75*
G02*
X81537000Y-68609500I-100000J0D01*
G01*
X81337000Y-68609500D01*
G75*
G02*
X81237000Y-68509500I0J100000D01*
G01*
X81237000Y-67234500D01*
G75*
G02*
X81337000Y-67134500I100000J0D01*
G01*
G37*
G36*
G01*
X80687000Y-67134500D02*
X80887000Y-67134500D01*
G75*
G02*
X80987000Y-67234500I0J-100000D01*
G01*
X80987000Y-68509500D01*
G75*
G02*
X80887000Y-68609500I-100000J0D01*
G01*
X80687000Y-68609500D01*
G75*
G02*
X80587000Y-68509500I0J100000D01*
G01*
X80587000Y-67234500D01*
G75*
G02*
X80687000Y-67134500I100000J0D01*
G01*
G37*
G36*
G01*
X80037000Y-67134500D02*
X80237000Y-67134500D01*
G75*
G02*
X80337000Y-67234500I0J-100000D01*
G01*
X80337000Y-68509500D01*
G75*
G02*
X80237000Y-68609500I-100000J0D01*
G01*
X80037000Y-68609500D01*
G75*
G02*
X79937000Y-68509500I0J100000D01*
G01*
X79937000Y-67234500D01*
G75*
G02*
X80037000Y-67134500I100000J0D01*
G01*
G37*
G36*
G01*
X79387000Y-67134500D02*
X79587000Y-67134500D01*
G75*
G02*
X79687000Y-67234500I0J-100000D01*
G01*
X79687000Y-68509500D01*
G75*
G02*
X79587000Y-68609500I-100000J0D01*
G01*
X79387000Y-68609500D01*
G75*
G02*
X79287000Y-68509500I0J100000D01*
G01*
X79287000Y-67234500D01*
G75*
G02*
X79387000Y-67134500I100000J0D01*
G01*
G37*
G36*
G01*
X78737000Y-67134500D02*
X78937000Y-67134500D01*
G75*
G02*
X79037000Y-67234500I0J-100000D01*
G01*
X79037000Y-68509500D01*
G75*
G02*
X78937000Y-68609500I-100000J0D01*
G01*
X78737000Y-68609500D01*
G75*
G02*
X78637000Y-68509500I0J100000D01*
G01*
X78637000Y-67234500D01*
G75*
G02*
X78737000Y-67134500I100000J0D01*
G01*
G37*
G36*
G01*
X78087000Y-67134500D02*
X78287000Y-67134500D01*
G75*
G02*
X78387000Y-67234500I0J-100000D01*
G01*
X78387000Y-68509500D01*
G75*
G02*
X78287000Y-68609500I-100000J0D01*
G01*
X78087000Y-68609500D01*
G75*
G02*
X77987000Y-68509500I0J100000D01*
G01*
X77987000Y-67234500D01*
G75*
G02*
X78087000Y-67134500I100000J0D01*
G01*
G37*
G36*
G01*
X77437000Y-67134500D02*
X77637000Y-67134500D01*
G75*
G02*
X77737000Y-67234500I0J-100000D01*
G01*
X77737000Y-68509500D01*
G75*
G02*
X77637000Y-68609500I-100000J0D01*
G01*
X77437000Y-68609500D01*
G75*
G02*
X77337000Y-68509500I0J100000D01*
G01*
X77337000Y-67234500D01*
G75*
G02*
X77437000Y-67134500I100000J0D01*
G01*
G37*
G36*
G01*
X76787000Y-67134500D02*
X76987000Y-67134500D01*
G75*
G02*
X77087000Y-67234500I0J-100000D01*
G01*
X77087000Y-68509500D01*
G75*
G02*
X76987000Y-68609500I-100000J0D01*
G01*
X76787000Y-68609500D01*
G75*
G02*
X76687000Y-68509500I0J100000D01*
G01*
X76687000Y-67234500D01*
G75*
G02*
X76787000Y-67134500I100000J0D01*
G01*
G37*
G36*
G01*
X76137000Y-67134500D02*
X76337000Y-67134500D01*
G75*
G02*
X76437000Y-67234500I0J-100000D01*
G01*
X76437000Y-68509500D01*
G75*
G02*
X76337000Y-68609500I-100000J0D01*
G01*
X76137000Y-68609500D01*
G75*
G02*
X76037000Y-68509500I0J100000D01*
G01*
X76037000Y-67234500D01*
G75*
G02*
X76137000Y-67134500I100000J0D01*
G01*
G37*
G36*
G01*
X76137000Y-61409500D02*
X76337000Y-61409500D01*
G75*
G02*
X76437000Y-61509500I0J-100000D01*
G01*
X76437000Y-62784500D01*
G75*
G02*
X76337000Y-62884500I-100000J0D01*
G01*
X76137000Y-62884500D01*
G75*
G02*
X76037000Y-62784500I0J100000D01*
G01*
X76037000Y-61509500D01*
G75*
G02*
X76137000Y-61409500I100000J0D01*
G01*
G37*
G36*
G01*
X76787000Y-61409500D02*
X76987000Y-61409500D01*
G75*
G02*
X77087000Y-61509500I0J-100000D01*
G01*
X77087000Y-62784500D01*
G75*
G02*
X76987000Y-62884500I-100000J0D01*
G01*
X76787000Y-62884500D01*
G75*
G02*
X76687000Y-62784500I0J100000D01*
G01*
X76687000Y-61509500D01*
G75*
G02*
X76787000Y-61409500I100000J0D01*
G01*
G37*
G36*
G01*
X77437000Y-61409500D02*
X77637000Y-61409500D01*
G75*
G02*
X77737000Y-61509500I0J-100000D01*
G01*
X77737000Y-62784500D01*
G75*
G02*
X77637000Y-62884500I-100000J0D01*
G01*
X77437000Y-62884500D01*
G75*
G02*
X77337000Y-62784500I0J100000D01*
G01*
X77337000Y-61509500D01*
G75*
G02*
X77437000Y-61409500I100000J0D01*
G01*
G37*
G36*
G01*
X78087000Y-61409500D02*
X78287000Y-61409500D01*
G75*
G02*
X78387000Y-61509500I0J-100000D01*
G01*
X78387000Y-62784500D01*
G75*
G02*
X78287000Y-62884500I-100000J0D01*
G01*
X78087000Y-62884500D01*
G75*
G02*
X77987000Y-62784500I0J100000D01*
G01*
X77987000Y-61509500D01*
G75*
G02*
X78087000Y-61409500I100000J0D01*
G01*
G37*
G36*
G01*
X78737000Y-61409500D02*
X78937000Y-61409500D01*
G75*
G02*
X79037000Y-61509500I0J-100000D01*
G01*
X79037000Y-62784500D01*
G75*
G02*
X78937000Y-62884500I-100000J0D01*
G01*
X78737000Y-62884500D01*
G75*
G02*
X78637000Y-62784500I0J100000D01*
G01*
X78637000Y-61509500D01*
G75*
G02*
X78737000Y-61409500I100000J0D01*
G01*
G37*
G36*
G01*
X79387000Y-61409500D02*
X79587000Y-61409500D01*
G75*
G02*
X79687000Y-61509500I0J-100000D01*
G01*
X79687000Y-62784500D01*
G75*
G02*
X79587000Y-62884500I-100000J0D01*
G01*
X79387000Y-62884500D01*
G75*
G02*
X79287000Y-62784500I0J100000D01*
G01*
X79287000Y-61509500D01*
G75*
G02*
X79387000Y-61409500I100000J0D01*
G01*
G37*
G36*
G01*
X80037000Y-61409500D02*
X80237000Y-61409500D01*
G75*
G02*
X80337000Y-61509500I0J-100000D01*
G01*
X80337000Y-62784500D01*
G75*
G02*
X80237000Y-62884500I-100000J0D01*
G01*
X80037000Y-62884500D01*
G75*
G02*
X79937000Y-62784500I0J100000D01*
G01*
X79937000Y-61509500D01*
G75*
G02*
X80037000Y-61409500I100000J0D01*
G01*
G37*
G36*
G01*
X80687000Y-61409500D02*
X80887000Y-61409500D01*
G75*
G02*
X80987000Y-61509500I0J-100000D01*
G01*
X80987000Y-62784500D01*
G75*
G02*
X80887000Y-62884500I-100000J0D01*
G01*
X80687000Y-62884500D01*
G75*
G02*
X80587000Y-62784500I0J100000D01*
G01*
X80587000Y-61509500D01*
G75*
G02*
X80687000Y-61409500I100000J0D01*
G01*
G37*
G36*
G01*
X81337000Y-61409500D02*
X81537000Y-61409500D01*
G75*
G02*
X81637000Y-61509500I0J-100000D01*
G01*
X81637000Y-62784500D01*
G75*
G02*
X81537000Y-62884500I-100000J0D01*
G01*
X81337000Y-62884500D01*
G75*
G02*
X81237000Y-62784500I0J100000D01*
G01*
X81237000Y-61509500D01*
G75*
G02*
X81337000Y-61409500I100000J0D01*
G01*
G37*
G36*
G01*
X81987000Y-61409500D02*
X82187000Y-61409500D01*
G75*
G02*
X82287000Y-61509500I0J-100000D01*
G01*
X82287000Y-62784500D01*
G75*
G02*
X82187000Y-62884500I-100000J0D01*
G01*
X81987000Y-62884500D01*
G75*
G02*
X81887000Y-62784500I0J100000D01*
G01*
X81887000Y-61509500D01*
G75*
G02*
X81987000Y-61409500I100000J0D01*
G01*
G37*
%TD*%
%TO.C,R24*%
G36*
G01*
X80345000Y-59257000D02*
X80345000Y-58707000D01*
G75*
G02*
X80545000Y-58507000I200000J0D01*
G01*
X80945000Y-58507000D01*
G75*
G02*
X81145000Y-58707000I0J-200000D01*
G01*
X81145000Y-59257000D01*
G75*
G02*
X80945000Y-59457000I-200000J0D01*
G01*
X80545000Y-59457000D01*
G75*
G02*
X80345000Y-59257000I0J200000D01*
G01*
G37*
G36*
G01*
X78695000Y-59257000D02*
X78695000Y-58707000D01*
G75*
G02*
X78895000Y-58507000I200000J0D01*
G01*
X79295000Y-58507000D01*
G75*
G02*
X79495000Y-58707000I0J-200000D01*
G01*
X79495000Y-59257000D01*
G75*
G02*
X79295000Y-59457000I-200000J0D01*
G01*
X78895000Y-59457000D01*
G75*
G02*
X78695000Y-59257000I0J200000D01*
G01*
G37*
%TD*%
%TO.C,C5*%
G36*
G01*
X79408000Y-52548000D02*
X78908000Y-52548000D01*
G75*
G02*
X78683000Y-52323000I0J225000D01*
G01*
X78683000Y-51873000D01*
G75*
G02*
X78908000Y-51648000I225000J0D01*
G01*
X79408000Y-51648000D01*
G75*
G02*
X79633000Y-51873000I0J-225000D01*
G01*
X79633000Y-52323000D01*
G75*
G02*
X79408000Y-52548000I-225000J0D01*
G01*
G37*
G36*
G01*
X79408000Y-54098000D02*
X78908000Y-54098000D01*
G75*
G02*
X78683000Y-53873000I0J225000D01*
G01*
X78683000Y-53423000D01*
G75*
G02*
X78908000Y-53198000I225000J0D01*
G01*
X79408000Y-53198000D01*
G75*
G02*
X79633000Y-53423000I0J-225000D01*
G01*
X79633000Y-53873000D01*
G75*
G02*
X79408000Y-54098000I-225000J0D01*
G01*
G37*
%TD*%
%TO.C,C4*%
G36*
G01*
X81440000Y-52548000D02*
X80940000Y-52548000D01*
G75*
G02*
X80715000Y-52323000I0J225000D01*
G01*
X80715000Y-51873000D01*
G75*
G02*
X80940000Y-51648000I225000J0D01*
G01*
X81440000Y-51648000D01*
G75*
G02*
X81665000Y-51873000I0J-225000D01*
G01*
X81665000Y-52323000D01*
G75*
G02*
X81440000Y-52548000I-225000J0D01*
G01*
G37*
G36*
G01*
X81440000Y-54098000D02*
X80940000Y-54098000D01*
G75*
G02*
X80715000Y-53873000I0J225000D01*
G01*
X80715000Y-53423000D01*
G75*
G02*
X80940000Y-53198000I225000J0D01*
G01*
X81440000Y-53198000D01*
G75*
G02*
X81665000Y-53423000I0J-225000D01*
G01*
X81665000Y-53873000D01*
G75*
G02*
X81440000Y-54098000I-225000J0D01*
G01*
G37*
%TD*%
%TO.C,R21*%
G36*
G01*
X102276500Y-63230999D02*
X102276500Y-64131001D01*
G75*
G02*
X102026501Y-64381000I-249999J0D01*
G01*
X101501499Y-64381000D01*
G75*
G02*
X101251500Y-64131001I0J249999D01*
G01*
X101251500Y-63230999D01*
G75*
G02*
X101501499Y-62981000I249999J0D01*
G01*
X102026501Y-62981000D01*
G75*
G02*
X102276500Y-63230999I0J-249999D01*
G01*
G37*
G36*
G01*
X104101500Y-63230999D02*
X104101500Y-64131001D01*
G75*
G02*
X103851501Y-64381000I-249999J0D01*
G01*
X103326499Y-64381000D01*
G75*
G02*
X103076500Y-64131001I0J249999D01*
G01*
X103076500Y-63230999D01*
G75*
G02*
X103326499Y-62981000I249999J0D01*
G01*
X103851501Y-62981000D01*
G75*
G02*
X104101500Y-63230999I0J-249999D01*
G01*
G37*
%TD*%
%TO.C,R20*%
G36*
G01*
X104101500Y-70215999D02*
X104101500Y-71116001D01*
G75*
G02*
X103851501Y-71366000I-249999J0D01*
G01*
X103326499Y-71366000D01*
G75*
G02*
X103076500Y-71116001I0J249999D01*
G01*
X103076500Y-70215999D01*
G75*
G02*
X103326499Y-69966000I249999J0D01*
G01*
X103851501Y-69966000D01*
G75*
G02*
X104101500Y-70215999I0J-249999D01*
G01*
G37*
G36*
G01*
X102276500Y-70215999D02*
X102276500Y-71116001D01*
G75*
G02*
X102026501Y-71366000I-249999J0D01*
G01*
X101501499Y-71366000D01*
G75*
G02*
X101251500Y-71116001I0J249999D01*
G01*
X101251500Y-70215999D01*
G75*
G02*
X101501499Y-69966000I249999J0D01*
G01*
X102026501Y-69966000D01*
G75*
G02*
X102276500Y-70215999I0J-249999D01*
G01*
G37*
%TD*%
%TO.C,R19*%
G36*
G01*
X92370500Y-63230999D02*
X92370500Y-64131001D01*
G75*
G02*
X92120501Y-64381000I-249999J0D01*
G01*
X91595499Y-64381000D01*
G75*
G02*
X91345500Y-64131001I0J249999D01*
G01*
X91345500Y-63230999D01*
G75*
G02*
X91595499Y-62981000I249999J0D01*
G01*
X92120501Y-62981000D01*
G75*
G02*
X92370500Y-63230999I0J-249999D01*
G01*
G37*
G36*
G01*
X94195500Y-63230999D02*
X94195500Y-64131001D01*
G75*
G02*
X93945501Y-64381000I-249999J0D01*
G01*
X93420499Y-64381000D01*
G75*
G02*
X93170500Y-64131001I0J249999D01*
G01*
X93170500Y-63230999D01*
G75*
G02*
X93420499Y-62981000I249999J0D01*
G01*
X93945501Y-62981000D01*
G75*
G02*
X94195500Y-63230999I0J-249999D01*
G01*
G37*
%TD*%
%TO.C,R18*%
G36*
G01*
X92243500Y-70215999D02*
X92243500Y-71116001D01*
G75*
G02*
X91993501Y-71366000I-249999J0D01*
G01*
X91468499Y-71366000D01*
G75*
G02*
X91218500Y-71116001I0J249999D01*
G01*
X91218500Y-70215999D01*
G75*
G02*
X91468499Y-69966000I249999J0D01*
G01*
X91993501Y-69966000D01*
G75*
G02*
X92243500Y-70215999I0J-249999D01*
G01*
G37*
G36*
G01*
X94068500Y-70215999D02*
X94068500Y-71116001D01*
G75*
G02*
X93818501Y-71366000I-249999J0D01*
G01*
X93293499Y-71366000D01*
G75*
G02*
X93043500Y-71116001I0J249999D01*
G01*
X93043500Y-70215999D01*
G75*
G02*
X93293499Y-69966000I249999J0D01*
G01*
X93818501Y-69966000D01*
G75*
G02*
X94068500Y-70215999I0J-249999D01*
G01*
G37*
%TD*%
%TO.C,C12*%
G36*
G01*
X103164000Y-66188000D02*
X103164000Y-65238000D01*
G75*
G02*
X103414000Y-64988000I250000J0D01*
G01*
X103914000Y-64988000D01*
G75*
G02*
X104164000Y-65238000I0J-250000D01*
G01*
X104164000Y-66188000D01*
G75*
G02*
X103914000Y-66438000I-250000J0D01*
G01*
X103414000Y-66438000D01*
G75*
G02*
X103164000Y-66188000I0J250000D01*
G01*
G37*
G36*
G01*
X101264000Y-66188000D02*
X101264000Y-65238000D01*
G75*
G02*
X101514000Y-64988000I250000J0D01*
G01*
X102014000Y-64988000D01*
G75*
G02*
X102264000Y-65238000I0J-250000D01*
G01*
X102264000Y-66188000D01*
G75*
G02*
X102014000Y-66438000I-250000J0D01*
G01*
X101514000Y-66438000D01*
G75*
G02*
X101264000Y-66188000I0J250000D01*
G01*
G37*
%TD*%
%TO.C,C11*%
G36*
G01*
X102269000Y-68159000D02*
X102269000Y-69109000D01*
G75*
G02*
X102019000Y-69359000I-250000J0D01*
G01*
X101519000Y-69359000D01*
G75*
G02*
X101269000Y-69109000I0J250000D01*
G01*
X101269000Y-68159000D01*
G75*
G02*
X101519000Y-67909000I250000J0D01*
G01*
X102019000Y-67909000D01*
G75*
G02*
X102269000Y-68159000I0J-250000D01*
G01*
G37*
G36*
G01*
X104169000Y-68159000D02*
X104169000Y-69109000D01*
G75*
G02*
X103919000Y-69359000I-250000J0D01*
G01*
X103419000Y-69359000D01*
G75*
G02*
X103169000Y-69109000I0J250000D01*
G01*
X103169000Y-68159000D01*
G75*
G02*
X103419000Y-67909000I250000J0D01*
G01*
X103919000Y-67909000D01*
G75*
G02*
X104169000Y-68159000I0J-250000D01*
G01*
G37*
%TD*%
%TO.C,C10*%
G36*
G01*
X93263000Y-66188000D02*
X93263000Y-65238000D01*
G75*
G02*
X93513000Y-64988000I250000J0D01*
G01*
X94013000Y-64988000D01*
G75*
G02*
X94263000Y-65238000I0J-250000D01*
G01*
X94263000Y-66188000D01*
G75*
G02*
X94013000Y-66438000I-250000J0D01*
G01*
X93513000Y-66438000D01*
G75*
G02*
X93263000Y-66188000I0J250000D01*
G01*
G37*
G36*
G01*
X91363000Y-66188000D02*
X91363000Y-65238000D01*
G75*
G02*
X91613000Y-64988000I250000J0D01*
G01*
X92113000Y-64988000D01*
G75*
G02*
X92363000Y-65238000I0J-250000D01*
G01*
X92363000Y-66188000D01*
G75*
G02*
X92113000Y-66438000I-250000J0D01*
G01*
X91613000Y-66438000D01*
G75*
G02*
X91363000Y-66188000I0J250000D01*
G01*
G37*
%TD*%
%TO.C,C9*%
G36*
G01*
X92231000Y-68159000D02*
X92231000Y-69109000D01*
G75*
G02*
X91981000Y-69359000I-250000J0D01*
G01*
X91481000Y-69359000D01*
G75*
G02*
X91231000Y-69109000I0J250000D01*
G01*
X91231000Y-68159000D01*
G75*
G02*
X91481000Y-67909000I250000J0D01*
G01*
X91981000Y-67909000D01*
G75*
G02*
X92231000Y-68159000I0J-250000D01*
G01*
G37*
G36*
G01*
X94131000Y-68159000D02*
X94131000Y-69109000D01*
G75*
G02*
X93881000Y-69359000I-250000J0D01*
G01*
X93381000Y-69359000D01*
G75*
G02*
X93131000Y-69109000I0J250000D01*
G01*
X93131000Y-68159000D01*
G75*
G02*
X93381000Y-67909000I250000J0D01*
G01*
X93881000Y-67909000D01*
G75*
G02*
X94131000Y-68159000I0J-250000D01*
G01*
G37*
%TD*%
%TO.C,R9*%
G36*
G01*
X102989500Y-53284100D02*
X102989500Y-53834100D01*
G75*
G02*
X102789500Y-54034100I-200000J0D01*
G01*
X102389500Y-54034100D01*
G75*
G02*
X102189500Y-53834100I0J200000D01*
G01*
X102189500Y-53284100D01*
G75*
G02*
X102389500Y-53084100I200000J0D01*
G01*
X102789500Y-53084100D01*
G75*
G02*
X102989500Y-53284100I0J-200000D01*
G01*
G37*
G36*
G01*
X104639500Y-53284100D02*
X104639500Y-53834100D01*
G75*
G02*
X104439500Y-54034100I-200000J0D01*
G01*
X104039500Y-54034100D01*
G75*
G02*
X103839500Y-53834100I0J200000D01*
G01*
X103839500Y-53284100D01*
G75*
G02*
X104039500Y-53084100I200000J0D01*
G01*
X104439500Y-53084100D01*
G75*
G02*
X104639500Y-53284100I0J-200000D01*
G01*
G37*
%TD*%
%TO.C,R8*%
G36*
G01*
X106443000Y-52272000D02*
X106443000Y-51722000D01*
G75*
G02*
X106643000Y-51522000I200000J0D01*
G01*
X107043000Y-51522000D01*
G75*
G02*
X107243000Y-51722000I0J-200000D01*
G01*
X107243000Y-52272000D01*
G75*
G02*
X107043000Y-52472000I-200000J0D01*
G01*
X106643000Y-52472000D01*
G75*
G02*
X106443000Y-52272000I0J200000D01*
G01*
G37*
G36*
G01*
X104793000Y-52272000D02*
X104793000Y-51722000D01*
G75*
G02*
X104993000Y-51522000I200000J0D01*
G01*
X105393000Y-51522000D01*
G75*
G02*
X105593000Y-51722000I0J-200000D01*
G01*
X105593000Y-52272000D01*
G75*
G02*
X105393000Y-52472000I-200000J0D01*
G01*
X104993000Y-52472000D01*
G75*
G02*
X104793000Y-52272000I0J200000D01*
G01*
G37*
%TD*%
%TO.C,R6*%
G36*
G01*
X93083500Y-53246000D02*
X93083500Y-53796000D01*
G75*
G02*
X92883500Y-53996000I-200000J0D01*
G01*
X92483500Y-53996000D01*
G75*
G02*
X92283500Y-53796000I0J200000D01*
G01*
X92283500Y-53246000D01*
G75*
G02*
X92483500Y-53046000I200000J0D01*
G01*
X92883500Y-53046000D01*
G75*
G02*
X93083500Y-53246000I0J-200000D01*
G01*
G37*
G36*
G01*
X94733500Y-53246000D02*
X94733500Y-53796000D01*
G75*
G02*
X94533500Y-53996000I-200000J0D01*
G01*
X94133500Y-53996000D01*
G75*
G02*
X93933500Y-53796000I0J200000D01*
G01*
X93933500Y-53246000D01*
G75*
G02*
X94133500Y-53046000I200000J0D01*
G01*
X94533500Y-53046000D01*
G75*
G02*
X94733500Y-53246000I0J-200000D01*
G01*
G37*
%TD*%
%TO.C,R5*%
G36*
G01*
X96537000Y-52272000D02*
X96537000Y-51722000D01*
G75*
G02*
X96737000Y-51522000I200000J0D01*
G01*
X97137000Y-51522000D01*
G75*
G02*
X97337000Y-51722000I0J-200000D01*
G01*
X97337000Y-52272000D01*
G75*
G02*
X97137000Y-52472000I-200000J0D01*
G01*
X96737000Y-52472000D01*
G75*
G02*
X96537000Y-52272000I0J200000D01*
G01*
G37*
G36*
G01*
X94887000Y-52272000D02*
X94887000Y-51722000D01*
G75*
G02*
X95087000Y-51522000I200000J0D01*
G01*
X95487000Y-51522000D01*
G75*
G02*
X95687000Y-51722000I0J-200000D01*
G01*
X95687000Y-52272000D01*
G75*
G02*
X95487000Y-52472000I-200000J0D01*
G01*
X95087000Y-52472000D01*
G75*
G02*
X94887000Y-52272000I0J200000D01*
G01*
G37*
%TD*%
%TO.C,R2*%
G36*
G01*
X102481500Y-51722000D02*
X102481500Y-52272000D01*
G75*
G02*
X102281500Y-52472000I-200000J0D01*
G01*
X101881500Y-52472000D01*
G75*
G02*
X101681500Y-52272000I0J200000D01*
G01*
X101681500Y-51722000D01*
G75*
G02*
X101881500Y-51522000I200000J0D01*
G01*
X102281500Y-51522000D01*
G75*
G02*
X102481500Y-51722000I0J-200000D01*
G01*
G37*
G36*
G01*
X104131500Y-51722000D02*
X104131500Y-52272000D01*
G75*
G02*
X103931500Y-52472000I-200000J0D01*
G01*
X103531500Y-52472000D01*
G75*
G02*
X103331500Y-52272000I0J200000D01*
G01*
X103331500Y-51722000D01*
G75*
G02*
X103531500Y-51522000I200000J0D01*
G01*
X103931500Y-51522000D01*
G75*
G02*
X104131500Y-51722000I0J-200000D01*
G01*
G37*
%TD*%
%TO.C,R1*%
G36*
G01*
X92575500Y-51722000D02*
X92575500Y-52272000D01*
G75*
G02*
X92375500Y-52472000I-200000J0D01*
G01*
X91975500Y-52472000D01*
G75*
G02*
X91775500Y-52272000I0J200000D01*
G01*
X91775500Y-51722000D01*
G75*
G02*
X91975500Y-51522000I200000J0D01*
G01*
X92375500Y-51522000D01*
G75*
G02*
X92575500Y-51722000I0J-200000D01*
G01*
G37*
G36*
G01*
X94225500Y-51722000D02*
X94225500Y-52272000D01*
G75*
G02*
X94025500Y-52472000I-200000J0D01*
G01*
X93625500Y-52472000D01*
G75*
G02*
X93425500Y-52272000I0J200000D01*
G01*
X93425500Y-51722000D01*
G75*
G02*
X93625500Y-51522000I200000J0D01*
G01*
X94025500Y-51522000D01*
G75*
G02*
X94225500Y-51722000I0J-200000D01*
G01*
G37*
%TD*%
D12*
%TO.C,D4*%
X106463000Y-53394000D03*
X106463000Y-55494000D03*
%TD*%
%TO.C,D3*%
X96557000Y-53394000D03*
X96557000Y-55494000D03*
%TD*%
%TO.C,C2*%
G36*
G01*
X103753000Y-55422000D02*
X103753000Y-54922000D01*
G75*
G02*
X103978000Y-54697000I225000J0D01*
G01*
X104428000Y-54697000D01*
G75*
G02*
X104653000Y-54922000I0J-225000D01*
G01*
X104653000Y-55422000D01*
G75*
G02*
X104428000Y-55647000I-225000J0D01*
G01*
X103978000Y-55647000D01*
G75*
G02*
X103753000Y-55422000I0J225000D01*
G01*
G37*
G36*
G01*
X102203000Y-55422000D02*
X102203000Y-54922000D01*
G75*
G02*
X102428000Y-54697000I225000J0D01*
G01*
X102878000Y-54697000D01*
G75*
G02*
X103103000Y-54922000I0J-225000D01*
G01*
X103103000Y-55422000D01*
G75*
G02*
X102878000Y-55647000I-225000J0D01*
G01*
X102428000Y-55647000D01*
G75*
G02*
X102203000Y-55422000I0J225000D01*
G01*
G37*
%TD*%
%TO.C,C1*%
G36*
G01*
X93847000Y-55422000D02*
X93847000Y-54922000D01*
G75*
G02*
X94072000Y-54697000I225000J0D01*
G01*
X94522000Y-54697000D01*
G75*
G02*
X94747000Y-54922000I0J-225000D01*
G01*
X94747000Y-55422000D01*
G75*
G02*
X94522000Y-55647000I-225000J0D01*
G01*
X94072000Y-55647000D01*
G75*
G02*
X93847000Y-55422000I0J225000D01*
G01*
G37*
G36*
G01*
X92297000Y-55422000D02*
X92297000Y-54922000D01*
G75*
G02*
X92522000Y-54697000I225000J0D01*
G01*
X92972000Y-54697000D01*
G75*
G02*
X93197000Y-54922000I0J-225000D01*
G01*
X93197000Y-55422000D01*
G75*
G02*
X92972000Y-55647000I-225000J0D01*
G01*
X92522000Y-55647000D01*
G75*
G02*
X92297000Y-55422000I0J225000D01*
G01*
G37*
%TD*%
%TO.C,C3*%
G36*
G01*
X69041000Y-55176000D02*
X69041000Y-55676000D01*
G75*
G02*
X68816000Y-55901000I-225000J0D01*
G01*
X68366000Y-55901000D01*
G75*
G02*
X68141000Y-55676000I0J225000D01*
G01*
X68141000Y-55176000D01*
G75*
G02*
X68366000Y-54951000I225000J0D01*
G01*
X68816000Y-54951000D01*
G75*
G02*
X69041000Y-55176000I0J-225000D01*
G01*
G37*
G36*
G01*
X70591000Y-55176000D02*
X70591000Y-55676000D01*
G75*
G02*
X70366000Y-55901000I-225000J0D01*
G01*
X69916000Y-55901000D01*
G75*
G02*
X69691000Y-55676000I0J225000D01*
G01*
X69691000Y-55176000D01*
G75*
G02*
X69916000Y-54951000I225000J0D01*
G01*
X70366000Y-54951000D01*
G75*
G02*
X70591000Y-55176000I0J-225000D01*
G01*
G37*
%TD*%
M02*
