M48
; DRILL file {KiCad (5.1.10)-1} date 01/18/22 18:17:08
; FORMAT={3:3/ absolute / metric / keep zeros}
; #@! TF.CreationDate,2022-01-18T18:17:08+07:00
; #@! TF.GenerationSoftware,Kicad,Pcbnew,(5.1.10)-1
; #@! TF.FileFunction,Plated,1,4,PTH
FMAT,2
METRIC
T1C0.400
T2C0.500
T3C0.600
T4C0.650
T5C0.700
T6C0.800
T7C1.000
T8C1.200
%
G90
G05
T1
X061124Y-064697
X061124Y-089697
X064425Y-060379
X064425Y-085379
X075729Y-060125
X075729Y-085125
X075961Y-065883
X075961Y-090883
X076361Y-064840
X076361Y-089840
X076765Y-066529
X076765Y-091529
X077279Y-060125
X077279Y-085125
X077888Y-063501
X077888Y-088501
X078062Y-070285
X078062Y-095285
X078777Y-060760
X078777Y-085760
X078777Y-066475
X078777Y-091475
X078899Y-063490
X078899Y-088490
X078978Y-069274
X078978Y-094274
X079412Y-070285
X079412Y-095285
X079937Y-064974
X079937Y-089974
X080031Y-066502
X080031Y-091502
X080174Y-052505
X080174Y-077505
X081070Y-066455
X081070Y-091455
X082057Y-069755
X082057Y-094755
X082738Y-065373
X082738Y-090373
X083730Y-052505
X083730Y-077505
X084024Y-063312
X084024Y-088312
X085663Y-063172
X085663Y-088172
X085961Y-071063
X085961Y-096063
X087286Y-063834
X087286Y-088834
X088572Y-068142
X088572Y-093142
X089064Y-057712
X089064Y-082712
X091863Y-065713
X091863Y-090713
X092097Y-061633
X092097Y-086633
X092112Y-057077
X092112Y-058601
X092112Y-082077
X092112Y-083601
X092176Y-051997
X092176Y-076997
X092683Y-053521
X092683Y-078521
X093683Y-063681
X093683Y-088681
X095160Y-058474
X095160Y-083474
X095282Y-066353
X095282Y-091353
X101764Y-065713
X101764Y-090713
X102018Y-057077
X102018Y-082077
X102082Y-051997
X102082Y-076997
X102590Y-053559
X102590Y-078559
X103589Y-063681
X103589Y-088681
T2
X084288Y-069072
X084288Y-094072
T3
X066839Y-059617
X066839Y-060887
X066839Y-084617
X066839Y-085887
X068109Y-059617
X068109Y-060887
X068109Y-084617
X068109Y-085887
X069379Y-059617
X069379Y-060887
X069379Y-084617
X069379Y-085887
X086651Y-059617
X086651Y-060887
X086651Y-084617
X086651Y-085887
X087921Y-059617
X087921Y-060887
X087921Y-084617
X087921Y-085887
X089191Y-059617
X089191Y-060887
X089191Y-084617
X089191Y-085887
T4
X061251Y-055680
X061251Y-056950
X061251Y-080680
X061251Y-081950
X062521Y-055680
X062521Y-056950
X062521Y-080680
X062521Y-081950
X063791Y-055680
X063791Y-056950
X063791Y-080680
X063791Y-081950
X074459Y-055680
X074459Y-056950
X074459Y-080680
X074459Y-081950
X075729Y-055680
X075729Y-056950
X075729Y-080680
X075729Y-081950
X076999Y-055680
X076999Y-056950
X076999Y-080680
X076999Y-081950
X087540Y-052632
X087540Y-053902
X087540Y-077632
X087540Y-078902
X088810Y-052632
X088810Y-053902
X088810Y-077632
X088810Y-078902
T5
X071919Y-074730
X071919Y-099730
X074205Y-062157
X074205Y-087157
X074332Y-066729
X074332Y-091729
X076258Y-070261
X076258Y-095261
X093763Y-067110
X093763Y-092110
X103669Y-067110
X103669Y-092110
T6
X097700Y-061522
X097700Y-069142
X097700Y-086522
X097700Y-094142
X107733Y-061522
X107733Y-069142
X107733Y-086522
X107733Y-094142
T7
X061378Y-074222
X061378Y-099222
X063537Y-062665
X063537Y-087665
X063918Y-074222
X063918Y-099222
X066458Y-053013
X066458Y-055553
X066458Y-068253
X066458Y-073333
X066458Y-078013
X066458Y-080553
X066458Y-093253
X066458Y-098333
X072427Y-052378
X072427Y-054918
X072427Y-057458
X072427Y-059998
X072427Y-067618
X072427Y-070158
X072427Y-077378
X072427Y-079918
X072427Y-082458
X072427Y-084998
X072427Y-092618
X072427Y-095158
X072437Y-065078
X072437Y-090078
X093636Y-074222
X093636Y-099222
X096176Y-074222
X096176Y-099222
X103542Y-074222
X103542Y-099222
X106082Y-074222
X106082Y-099222
T8
X098716Y-053140
X098716Y-055680
X098716Y-065840
X098716Y-073460
X098716Y-078140
X098716Y-080680
X098716Y-090840
X098716Y-098460
X108622Y-053140
X108622Y-055680
X108622Y-065840
X108622Y-073460
X108622Y-078140
X108622Y-080680
X108622Y-090840
X108622Y-098460
T8
G00X066458Y-073314
M15
G01X066458Y-074114
M16
G05
G00X066458Y-098314
M15
G01X066458Y-099114
M16
G05
G00X098716Y-073314
M15
G01X098716Y-074114
M16
G05
G00X098716Y-098314
M15
G01X098716Y-099114
M16
G05
G00X108622Y-073314
M15
G01X108622Y-074114
M16
G05
G00X108622Y-098314
M15
G01X108622Y-099114
M16
G05
T0
M30
