%TF.GenerationSoftware,KiCad,Pcbnew,(5.1.10)-1*%
%TF.CreationDate,2022-01-18T18:17:05+07:00*%
%TF.ProjectId,Power_manager_v3_pnlz1x2,506f7765-725f-46d6-916e-616765725f76,rev?*%
%TF.SameCoordinates,Original*%
%TF.FileFunction,Paste,Bot*%
%TF.FilePolarity,Positive*%
%FSLAX46Y46*%
G04 Gerber Fmt 4.6, Leading zero omitted, Abs format (unit mm)*
G04 Created by KiCad (PCBNEW (5.1.10)-1) date 2022-01-18 18:17:05*
%MOMM*%
%LPD*%
G01*
G04 APERTURE LIST*
%ADD10R,0.800000X0.900000*%
%ADD11R,0.400000X1.000000*%
%ADD12R,0.400000X3.200000*%
%ADD13R,1.800000X1.500000*%
G04 APERTURE END LIST*
%TO.C,C14*%
G36*
G01*
X82529000Y-94527000D02*
X82529000Y-95027000D01*
G75*
G02*
X82304000Y-95252000I-225000J0D01*
G01*
X81854000Y-95252000D01*
G75*
G02*
X81629000Y-95027000I0J225000D01*
G01*
X81629000Y-94527000D01*
G75*
G02*
X81854000Y-94302000I225000J0D01*
G01*
X82304000Y-94302000D01*
G75*
G02*
X82529000Y-94527000I0J-225000D01*
G01*
G37*
G36*
G01*
X80979000Y-94527000D02*
X80979000Y-95027000D01*
G75*
G02*
X80754000Y-95252000I-225000J0D01*
G01*
X80304000Y-95252000D01*
G75*
G02*
X80079000Y-95027000I0J225000D01*
G01*
X80079000Y-94527000D01*
G75*
G02*
X80304000Y-94302000I225000J0D01*
G01*
X80754000Y-94302000D01*
G75*
G02*
X80979000Y-94527000I0J-225000D01*
G01*
G37*
%TD*%
%TO.C,C16*%
G36*
G01*
X87036000Y-86834000D02*
X87536000Y-86834000D01*
G75*
G02*
X87761000Y-87059000I0J-225000D01*
G01*
X87761000Y-87509000D01*
G75*
G02*
X87536000Y-87734000I-225000J0D01*
G01*
X87036000Y-87734000D01*
G75*
G02*
X86811000Y-87509000I0J225000D01*
G01*
X86811000Y-87059000D01*
G75*
G02*
X87036000Y-86834000I225000J0D01*
G01*
G37*
G36*
G01*
X87036000Y-88384000D02*
X87536000Y-88384000D01*
G75*
G02*
X87761000Y-88609000I0J-225000D01*
G01*
X87761000Y-89059000D01*
G75*
G02*
X87536000Y-89284000I-225000J0D01*
G01*
X87036000Y-89284000D01*
G75*
G02*
X86811000Y-89059000I0J225000D01*
G01*
X86811000Y-88609000D01*
G75*
G02*
X87036000Y-88384000I225000J0D01*
G01*
G37*
%TD*%
%TO.C,C19*%
G36*
G01*
X82464000Y-76648000D02*
X82964000Y-76648000D01*
G75*
G02*
X83189000Y-76873000I0J-225000D01*
G01*
X83189000Y-77323000D01*
G75*
G02*
X82964000Y-77548000I-225000J0D01*
G01*
X82464000Y-77548000D01*
G75*
G02*
X82239000Y-77323000I0J225000D01*
G01*
X82239000Y-76873000D01*
G75*
G02*
X82464000Y-76648000I225000J0D01*
G01*
G37*
G36*
G01*
X82464000Y-78198000D02*
X82964000Y-78198000D01*
G75*
G02*
X83189000Y-78423000I0J-225000D01*
G01*
X83189000Y-78873000D01*
G75*
G02*
X82964000Y-79098000I-225000J0D01*
G01*
X82464000Y-79098000D01*
G75*
G02*
X82239000Y-78873000I0J225000D01*
G01*
X82239000Y-78423000D01*
G75*
G02*
X82464000Y-78198000I225000J0D01*
G01*
G37*
%TD*%
D10*
%TO.C,Q1*%
X93636000Y-80521000D03*
X91736000Y-80521000D03*
X92686000Y-78521000D03*
%TD*%
%TO.C,R3*%
G36*
G01*
X94163000Y-83326000D02*
X94163000Y-83876000D01*
G75*
G02*
X93963000Y-84076000I-200000J0D01*
G01*
X93563000Y-84076000D01*
G75*
G02*
X93363000Y-83876000I0J200000D01*
G01*
X93363000Y-83326000D01*
G75*
G02*
X93563000Y-83126000I200000J0D01*
G01*
X93963000Y-83126000D01*
G75*
G02*
X94163000Y-83326000I0J-200000D01*
G01*
G37*
G36*
G01*
X92513000Y-83326000D02*
X92513000Y-83876000D01*
G75*
G02*
X92313000Y-84076000I-200000J0D01*
G01*
X91913000Y-84076000D01*
G75*
G02*
X91713000Y-83876000I0J200000D01*
G01*
X91713000Y-83326000D01*
G75*
G02*
X91913000Y-83126000I200000J0D01*
G01*
X92313000Y-83126000D01*
G75*
G02*
X92513000Y-83326000I0J-200000D01*
G01*
G37*
%TD*%
%TO.C,R7*%
G36*
G01*
X94163000Y-81802000D02*
X94163000Y-82352000D01*
G75*
G02*
X93963000Y-82552000I-200000J0D01*
G01*
X93563000Y-82552000D01*
G75*
G02*
X93363000Y-82352000I0J200000D01*
G01*
X93363000Y-81802000D01*
G75*
G02*
X93563000Y-81602000I200000J0D01*
G01*
X93963000Y-81602000D01*
G75*
G02*
X94163000Y-81802000I0J-200000D01*
G01*
G37*
G36*
G01*
X92513000Y-81802000D02*
X92513000Y-82352000D01*
G75*
G02*
X92313000Y-82552000I-200000J0D01*
G01*
X91913000Y-82552000D01*
G75*
G02*
X91713000Y-82352000I0J200000D01*
G01*
X91713000Y-81802000D01*
G75*
G02*
X91913000Y-81602000I200000J0D01*
G01*
X92313000Y-81602000D01*
G75*
G02*
X92513000Y-81802000I0J-200000D01*
G01*
G37*
%TD*%
%TO.C,R11*%
G36*
G01*
X79336500Y-98009999D02*
X79336500Y-98910001D01*
G75*
G02*
X79086501Y-99160000I-249999J0D01*
G01*
X78561499Y-99160000D01*
G75*
G02*
X78311500Y-98910001I0J249999D01*
G01*
X78311500Y-98009999D01*
G75*
G02*
X78561499Y-97760000I249999J0D01*
G01*
X79086501Y-97760000D01*
G75*
G02*
X79336500Y-98009999I0J-249999D01*
G01*
G37*
G36*
G01*
X77511500Y-98009999D02*
X77511500Y-98910001D01*
G75*
G02*
X77261501Y-99160000I-249999J0D01*
G01*
X76736499Y-99160000D01*
G75*
G02*
X76486500Y-98910001I0J249999D01*
G01*
X76486500Y-98009999D01*
G75*
G02*
X76736499Y-97760000I249999J0D01*
G01*
X77261501Y-97760000D01*
G75*
G02*
X77511500Y-98009999I0J-249999D01*
G01*
G37*
%TD*%
%TO.C,R14*%
G36*
G01*
X62503000Y-91496000D02*
X62503000Y-90946000D01*
G75*
G02*
X62703000Y-90746000I200000J0D01*
G01*
X63103000Y-90746000D01*
G75*
G02*
X63303000Y-90946000I0J-200000D01*
G01*
X63303000Y-91496000D01*
G75*
G02*
X63103000Y-91696000I-200000J0D01*
G01*
X62703000Y-91696000D01*
G75*
G02*
X62503000Y-91496000I0J200000D01*
G01*
G37*
G36*
G01*
X64153000Y-91496000D02*
X64153000Y-90946000D01*
G75*
G02*
X64353000Y-90746000I200000J0D01*
G01*
X64753000Y-90746000D01*
G75*
G02*
X64953000Y-90946000I0J-200000D01*
G01*
X64953000Y-91496000D01*
G75*
G02*
X64753000Y-91696000I-200000J0D01*
G01*
X64353000Y-91696000D01*
G75*
G02*
X64153000Y-91496000I0J200000D01*
G01*
G37*
%TD*%
%TO.C,Q2*%
X103542000Y-80553000D03*
X101642000Y-80553000D03*
X102592000Y-78553000D03*
%TD*%
%TO.C,R10*%
G36*
G01*
X104069000Y-81802000D02*
X104069000Y-82352000D01*
G75*
G02*
X103869000Y-82552000I-200000J0D01*
G01*
X103469000Y-82552000D01*
G75*
G02*
X103269000Y-82352000I0J200000D01*
G01*
X103269000Y-81802000D01*
G75*
G02*
X103469000Y-81602000I200000J0D01*
G01*
X103869000Y-81602000D01*
G75*
G02*
X104069000Y-81802000I0J-200000D01*
G01*
G37*
G36*
G01*
X102419000Y-81802000D02*
X102419000Y-82352000D01*
G75*
G02*
X102219000Y-82552000I-200000J0D01*
G01*
X101819000Y-82552000D01*
G75*
G02*
X101619000Y-82352000I0J200000D01*
G01*
X101619000Y-81802000D01*
G75*
G02*
X101819000Y-81602000I200000J0D01*
G01*
X102219000Y-81602000D01*
G75*
G02*
X102419000Y-81802000I0J-200000D01*
G01*
G37*
%TD*%
%TO.C,R4*%
G36*
G01*
X104069000Y-83326000D02*
X104069000Y-83876000D01*
G75*
G02*
X103869000Y-84076000I-200000J0D01*
G01*
X103469000Y-84076000D01*
G75*
G02*
X103269000Y-83876000I0J200000D01*
G01*
X103269000Y-83326000D01*
G75*
G02*
X103469000Y-83126000I200000J0D01*
G01*
X103869000Y-83126000D01*
G75*
G02*
X104069000Y-83326000I0J-200000D01*
G01*
G37*
G36*
G01*
X102419000Y-83326000D02*
X102419000Y-83876000D01*
G75*
G02*
X102219000Y-84076000I-200000J0D01*
G01*
X101819000Y-84076000D01*
G75*
G02*
X101619000Y-83876000I0J200000D01*
G01*
X101619000Y-83326000D01*
G75*
G02*
X101819000Y-83126000I200000J0D01*
G01*
X102219000Y-83126000D01*
G75*
G02*
X102419000Y-83326000I0J-200000D01*
G01*
G37*
%TD*%
%TO.C,C6*%
G36*
G01*
X70518000Y-79987000D02*
X70018000Y-79987000D01*
G75*
G02*
X69793000Y-79762000I0J225000D01*
G01*
X69793000Y-79312000D01*
G75*
G02*
X70018000Y-79087000I225000J0D01*
G01*
X70518000Y-79087000D01*
G75*
G02*
X70743000Y-79312000I0J-225000D01*
G01*
X70743000Y-79762000D01*
G75*
G02*
X70518000Y-79987000I-225000J0D01*
G01*
G37*
G36*
G01*
X70518000Y-78437000D02*
X70018000Y-78437000D01*
G75*
G02*
X69793000Y-78212000I0J225000D01*
G01*
X69793000Y-77762000D01*
G75*
G02*
X70018000Y-77537000I225000J0D01*
G01*
X70518000Y-77537000D01*
G75*
G02*
X70743000Y-77762000I0J-225000D01*
G01*
X70743000Y-78212000D01*
G75*
G02*
X70518000Y-78437000I-225000J0D01*
G01*
G37*
%TD*%
%TO.C,C8*%
G36*
G01*
X68968000Y-79987000D02*
X68468000Y-79987000D01*
G75*
G02*
X68243000Y-79762000I0J225000D01*
G01*
X68243000Y-79312000D01*
G75*
G02*
X68468000Y-79087000I225000J0D01*
G01*
X68968000Y-79087000D01*
G75*
G02*
X69193000Y-79312000I0J-225000D01*
G01*
X69193000Y-79762000D01*
G75*
G02*
X68968000Y-79987000I-225000J0D01*
G01*
G37*
G36*
G01*
X68968000Y-78437000D02*
X68468000Y-78437000D01*
G75*
G02*
X68243000Y-78212000I0J225000D01*
G01*
X68243000Y-77762000D01*
G75*
G02*
X68468000Y-77537000I225000J0D01*
G01*
X68968000Y-77537000D01*
G75*
G02*
X69193000Y-77762000I0J-225000D01*
G01*
X69193000Y-78212000D01*
G75*
G02*
X68968000Y-78437000I-225000J0D01*
G01*
G37*
%TD*%
%TO.C,C13*%
G36*
G01*
X86516000Y-95064000D02*
X86516000Y-96014000D01*
G75*
G02*
X86266000Y-96264000I-250000J0D01*
G01*
X85766000Y-96264000D01*
G75*
G02*
X85516000Y-96014000I0J250000D01*
G01*
X85516000Y-95064000D01*
G75*
G02*
X85766000Y-94814000I250000J0D01*
G01*
X86266000Y-94814000D01*
G75*
G02*
X86516000Y-95064000I0J-250000D01*
G01*
G37*
G36*
G01*
X84616000Y-95064000D02*
X84616000Y-96014000D01*
G75*
G02*
X84366000Y-96264000I-250000J0D01*
G01*
X83866000Y-96264000D01*
G75*
G02*
X83616000Y-96014000I0J250000D01*
G01*
X83616000Y-95064000D01*
G75*
G02*
X83866000Y-94814000I250000J0D01*
G01*
X84366000Y-94814000D01*
G75*
G02*
X84616000Y-95064000I0J-250000D01*
G01*
G37*
%TD*%
%TO.C,C18*%
G36*
G01*
X84496000Y-76648000D02*
X84996000Y-76648000D01*
G75*
G02*
X85221000Y-76873000I0J-225000D01*
G01*
X85221000Y-77323000D01*
G75*
G02*
X84996000Y-77548000I-225000J0D01*
G01*
X84496000Y-77548000D01*
G75*
G02*
X84271000Y-77323000I0J225000D01*
G01*
X84271000Y-76873000D01*
G75*
G02*
X84496000Y-76648000I225000J0D01*
G01*
G37*
G36*
G01*
X84496000Y-78198000D02*
X84996000Y-78198000D01*
G75*
G02*
X85221000Y-78423000I0J-225000D01*
G01*
X85221000Y-78873000D01*
G75*
G02*
X84996000Y-79098000I-225000J0D01*
G01*
X84496000Y-79098000D01*
G75*
G02*
X84271000Y-78873000I0J225000D01*
G01*
X84271000Y-78423000D01*
G75*
G02*
X84496000Y-78198000I225000J0D01*
G01*
G37*
%TD*%
%TO.C,R12*%
G36*
G01*
X75780500Y-99279999D02*
X75780500Y-100180001D01*
G75*
G02*
X75530501Y-100430000I-249999J0D01*
G01*
X75005499Y-100430000D01*
G75*
G02*
X74755500Y-100180001I0J249999D01*
G01*
X74755500Y-99279999D01*
G75*
G02*
X75005499Y-99030000I249999J0D01*
G01*
X75530501Y-99030000D01*
G75*
G02*
X75780500Y-99279999I0J-249999D01*
G01*
G37*
G36*
G01*
X73955500Y-99279999D02*
X73955500Y-100180001D01*
G75*
G02*
X73705501Y-100430000I-249999J0D01*
G01*
X73180499Y-100430000D01*
G75*
G02*
X72930500Y-100180001I0J249999D01*
G01*
X72930500Y-99279999D01*
G75*
G02*
X73180499Y-99030000I249999J0D01*
G01*
X73705501Y-99030000D01*
G75*
G02*
X73955500Y-99279999I0J-249999D01*
G01*
G37*
%TD*%
%TO.C,R17*%
G36*
G01*
X82892500Y-97247999D02*
X82892500Y-98148001D01*
G75*
G02*
X82642501Y-98398000I-249999J0D01*
G01*
X82117499Y-98398000D01*
G75*
G02*
X81867500Y-98148001I0J249999D01*
G01*
X81867500Y-97247999D01*
G75*
G02*
X82117499Y-96998000I249999J0D01*
G01*
X82642501Y-96998000D01*
G75*
G02*
X82892500Y-97247999I0J-249999D01*
G01*
G37*
G36*
G01*
X81067500Y-97247999D02*
X81067500Y-98148001D01*
G75*
G02*
X80817501Y-98398000I-249999J0D01*
G01*
X80292499Y-98398000D01*
G75*
G02*
X80042500Y-98148001I0J249999D01*
G01*
X80042500Y-97247999D01*
G75*
G02*
X80292499Y-96998000I249999J0D01*
G01*
X80817501Y-96998000D01*
G75*
G02*
X81067500Y-97247999I0J-249999D01*
G01*
G37*
%TD*%
%TO.C,R22*%
G36*
G01*
X83678500Y-98148001D02*
X83678500Y-97247999D01*
G75*
G02*
X83928499Y-96998000I249999J0D01*
G01*
X84453501Y-96998000D01*
G75*
G02*
X84703500Y-97247999I0J-249999D01*
G01*
X84703500Y-98148001D01*
G75*
G02*
X84453501Y-98398000I-249999J0D01*
G01*
X83928499Y-98398000D01*
G75*
G02*
X83678500Y-98148001I0J249999D01*
G01*
G37*
G36*
G01*
X85503500Y-98148001D02*
X85503500Y-97247999D01*
G75*
G02*
X85753499Y-96998000I249999J0D01*
G01*
X86278501Y-96998000D01*
G75*
G02*
X86528500Y-97247999I0J-249999D01*
G01*
X86528500Y-98148001D01*
G75*
G02*
X86278501Y-98398000I-249999J0D01*
G01*
X85753499Y-98398000D01*
G75*
G02*
X85503500Y-98148001I0J249999D01*
G01*
G37*
%TD*%
%TO.C,R26*%
G36*
G01*
X85018000Y-83707000D02*
X85018000Y-84257000D01*
G75*
G02*
X84818000Y-84457000I-200000J0D01*
G01*
X84418000Y-84457000D01*
G75*
G02*
X84218000Y-84257000I0J200000D01*
G01*
X84218000Y-83707000D01*
G75*
G02*
X84418000Y-83507000I200000J0D01*
G01*
X84818000Y-83507000D01*
G75*
G02*
X85018000Y-83707000I0J-200000D01*
G01*
G37*
G36*
G01*
X83368000Y-83707000D02*
X83368000Y-84257000D01*
G75*
G02*
X83168000Y-84457000I-200000J0D01*
G01*
X82768000Y-84457000D01*
G75*
G02*
X82568000Y-84257000I0J200000D01*
G01*
X82568000Y-83707000D01*
G75*
G02*
X82768000Y-83507000I200000J0D01*
G01*
X83168000Y-83507000D01*
G75*
G02*
X83368000Y-83707000I0J-200000D01*
G01*
G37*
%TD*%
D11*
%TO.C,U6*%
X85807000Y-92872000D03*
X85157000Y-92872000D03*
X84507000Y-92872000D03*
X83857000Y-92872000D03*
X83207000Y-92872000D03*
X82557000Y-92872000D03*
X81907000Y-92872000D03*
X81257000Y-92872000D03*
X81257000Y-87072000D03*
X81907000Y-87072000D03*
X82557000Y-87072000D03*
X83207000Y-87072000D03*
X83857000Y-87072000D03*
X84507000Y-87072000D03*
X85157000Y-87072000D03*
X85807000Y-87072000D03*
%TD*%
D12*
%TO.C,Y2*%
X82530000Y-81315000D03*
X83730000Y-81315000D03*
X84930000Y-81315000D03*
%TD*%
D13*
%TO.C,R16*%
X103161000Y-95872000D03*
X103161000Y-92872000D03*
%TD*%
%TO.C,D6*%
G36*
G01*
X60867750Y-89259500D02*
X61380250Y-89259500D01*
G75*
G02*
X61599000Y-89478250I0J-218750D01*
G01*
X61599000Y-89915750D01*
G75*
G02*
X61380250Y-90134500I-218750J0D01*
G01*
X60867750Y-90134500D01*
G75*
G02*
X60649000Y-89915750I0J218750D01*
G01*
X60649000Y-89478250D01*
G75*
G02*
X60867750Y-89259500I218750J0D01*
G01*
G37*
G36*
G01*
X60867750Y-90834500D02*
X61380250Y-90834500D01*
G75*
G02*
X61599000Y-91053250I0J-218750D01*
G01*
X61599000Y-91490750D01*
G75*
G02*
X61380250Y-91709500I-218750J0D01*
G01*
X60867750Y-91709500D01*
G75*
G02*
X60649000Y-91490750I0J218750D01*
G01*
X60649000Y-91053250D01*
G75*
G02*
X60867750Y-90834500I218750J0D01*
G01*
G37*
%TD*%
%TO.C,L1*%
G36*
G01*
X75724500Y-95735001D02*
X75724500Y-94834999D01*
G75*
G02*
X75974499Y-94585000I249999J0D01*
G01*
X76499501Y-94585000D01*
G75*
G02*
X76749500Y-94834999I0J-249999D01*
G01*
X76749500Y-95735001D01*
G75*
G02*
X76499501Y-95985000I-249999J0D01*
G01*
X75974499Y-95985000D01*
G75*
G02*
X75724500Y-95735001I0J249999D01*
G01*
G37*
G36*
G01*
X77549500Y-95735001D02*
X77549500Y-94834999D01*
G75*
G02*
X77799499Y-94585000I249999J0D01*
G01*
X78324501Y-94585000D01*
G75*
G02*
X78574500Y-94834999I0J-249999D01*
G01*
X78574500Y-95735001D01*
G75*
G02*
X78324501Y-95985000I-249999J0D01*
G01*
X77799499Y-95985000D01*
G75*
G02*
X77549500Y-95735001I0J249999D01*
G01*
G37*
%TD*%
%TO.C,R27*%
G36*
G01*
X91837000Y-84598000D02*
X92387000Y-84598000D01*
G75*
G02*
X92587000Y-84798000I0J-200000D01*
G01*
X92587000Y-85198000D01*
G75*
G02*
X92387000Y-85398000I-200000J0D01*
G01*
X91837000Y-85398000D01*
G75*
G02*
X91637000Y-85198000I0J200000D01*
G01*
X91637000Y-84798000D01*
G75*
G02*
X91837000Y-84598000I200000J0D01*
G01*
G37*
G36*
G01*
X91837000Y-86248000D02*
X92387000Y-86248000D01*
G75*
G02*
X92587000Y-86448000I0J-200000D01*
G01*
X92587000Y-86848000D01*
G75*
G02*
X92387000Y-87048000I-200000J0D01*
G01*
X91837000Y-87048000D01*
G75*
G02*
X91637000Y-86848000I0J200000D01*
G01*
X91637000Y-86448000D01*
G75*
G02*
X91837000Y-86248000I200000J0D01*
G01*
G37*
%TD*%
%TO.C,R15*%
X93382000Y-95872000D03*
X93382000Y-92872000D03*
%TD*%
%TO.C,D5*%
G36*
G01*
X60867750Y-83366500D02*
X61380250Y-83366500D01*
G75*
G02*
X61599000Y-83585250I0J-218750D01*
G01*
X61599000Y-84022750D01*
G75*
G02*
X61380250Y-84241500I-218750J0D01*
G01*
X60867750Y-84241500D01*
G75*
G02*
X60649000Y-84022750I0J218750D01*
G01*
X60649000Y-83585250D01*
G75*
G02*
X60867750Y-83366500I218750J0D01*
G01*
G37*
G36*
G01*
X60867750Y-84941500D02*
X61380250Y-84941500D01*
G75*
G02*
X61599000Y-85160250I0J-218750D01*
G01*
X61599000Y-85597750D01*
G75*
G02*
X61380250Y-85816500I-218750J0D01*
G01*
X60867750Y-85816500D01*
G75*
G02*
X60649000Y-85597750I0J218750D01*
G01*
X60649000Y-85160250D01*
G75*
G02*
X60867750Y-84941500I218750J0D01*
G01*
G37*
%TD*%
%TO.C,R13*%
G36*
G01*
X62375000Y-85654000D02*
X62375000Y-85104000D01*
G75*
G02*
X62575000Y-84904000I200000J0D01*
G01*
X62975000Y-84904000D01*
G75*
G02*
X63175000Y-85104000I0J-200000D01*
G01*
X63175000Y-85654000D01*
G75*
G02*
X62975000Y-85854000I-200000J0D01*
G01*
X62575000Y-85854000D01*
G75*
G02*
X62375000Y-85654000I0J200000D01*
G01*
G37*
G36*
G01*
X64025000Y-85654000D02*
X64025000Y-85104000D01*
G75*
G02*
X64225000Y-84904000I200000J0D01*
G01*
X64625000Y-84904000D01*
G75*
G02*
X64825000Y-85104000I0J-200000D01*
G01*
X64825000Y-85654000D01*
G75*
G02*
X64625000Y-85854000I-200000J0D01*
G01*
X64225000Y-85854000D01*
G75*
G02*
X64025000Y-85654000I0J200000D01*
G01*
G37*
%TD*%
%TO.C,D1*%
G36*
G01*
X91738000Y-77253250D02*
X91738000Y-76740750D01*
G75*
G02*
X91956750Y-76522000I218750J0D01*
G01*
X92394250Y-76522000D01*
G75*
G02*
X92613000Y-76740750I0J-218750D01*
G01*
X92613000Y-77253250D01*
G75*
G02*
X92394250Y-77472000I-218750J0D01*
G01*
X91956750Y-77472000D01*
G75*
G02*
X91738000Y-77253250I0J218750D01*
G01*
G37*
G36*
G01*
X93313000Y-77253250D02*
X93313000Y-76740750D01*
G75*
G02*
X93531750Y-76522000I218750J0D01*
G01*
X93969250Y-76522000D01*
G75*
G02*
X94188000Y-76740750I0J-218750D01*
G01*
X94188000Y-77253250D01*
G75*
G02*
X93969250Y-77472000I-218750J0D01*
G01*
X93531750Y-77472000D01*
G75*
G02*
X93313000Y-77253250I0J218750D01*
G01*
G37*
%TD*%
%TO.C,D2*%
G36*
G01*
X101644000Y-77253250D02*
X101644000Y-76740750D01*
G75*
G02*
X101862750Y-76522000I218750J0D01*
G01*
X102300250Y-76522000D01*
G75*
G02*
X102519000Y-76740750I0J-218750D01*
G01*
X102519000Y-77253250D01*
G75*
G02*
X102300250Y-77472000I-218750J0D01*
G01*
X101862750Y-77472000D01*
G75*
G02*
X101644000Y-77253250I0J218750D01*
G01*
G37*
G36*
G01*
X103219000Y-77253250D02*
X103219000Y-76740750D01*
G75*
G02*
X103437750Y-76522000I218750J0D01*
G01*
X103875250Y-76522000D01*
G75*
G02*
X104094000Y-76740750I0J-218750D01*
G01*
X104094000Y-77253250D01*
G75*
G02*
X103875250Y-77472000I-218750J0D01*
G01*
X103437750Y-77472000D01*
G75*
G02*
X103219000Y-77253250I0J218750D01*
G01*
G37*
%TD*%
%TO.C,R27*%
G36*
G01*
X91837000Y-61248000D02*
X92387000Y-61248000D01*
G75*
G02*
X92587000Y-61448000I0J-200000D01*
G01*
X92587000Y-61848000D01*
G75*
G02*
X92387000Y-62048000I-200000J0D01*
G01*
X91837000Y-62048000D01*
G75*
G02*
X91637000Y-61848000I0J200000D01*
G01*
X91637000Y-61448000D01*
G75*
G02*
X91837000Y-61248000I200000J0D01*
G01*
G37*
G36*
G01*
X91837000Y-59598000D02*
X92387000Y-59598000D01*
G75*
G02*
X92587000Y-59798000I0J-200000D01*
G01*
X92587000Y-60198000D01*
G75*
G02*
X92387000Y-60398000I-200000J0D01*
G01*
X91837000Y-60398000D01*
G75*
G02*
X91637000Y-60198000I0J200000D01*
G01*
X91637000Y-59798000D01*
G75*
G02*
X91837000Y-59598000I200000J0D01*
G01*
G37*
%TD*%
%TO.C,L1*%
G36*
G01*
X77549500Y-70735001D02*
X77549500Y-69834999D01*
G75*
G02*
X77799499Y-69585000I249999J0D01*
G01*
X78324501Y-69585000D01*
G75*
G02*
X78574500Y-69834999I0J-249999D01*
G01*
X78574500Y-70735001D01*
G75*
G02*
X78324501Y-70985000I-249999J0D01*
G01*
X77799499Y-70985000D01*
G75*
G02*
X77549500Y-70735001I0J249999D01*
G01*
G37*
G36*
G01*
X75724500Y-70735001D02*
X75724500Y-69834999D01*
G75*
G02*
X75974499Y-69585000I249999J0D01*
G01*
X76499501Y-69585000D01*
G75*
G02*
X76749500Y-69834999I0J-249999D01*
G01*
X76749500Y-70735001D01*
G75*
G02*
X76499501Y-70985000I-249999J0D01*
G01*
X75974499Y-70985000D01*
G75*
G02*
X75724500Y-70735001I0J249999D01*
G01*
G37*
%TD*%
%TO.C,C16*%
G36*
G01*
X87036000Y-63384000D02*
X87536000Y-63384000D01*
G75*
G02*
X87761000Y-63609000I0J-225000D01*
G01*
X87761000Y-64059000D01*
G75*
G02*
X87536000Y-64284000I-225000J0D01*
G01*
X87036000Y-64284000D01*
G75*
G02*
X86811000Y-64059000I0J225000D01*
G01*
X86811000Y-63609000D01*
G75*
G02*
X87036000Y-63384000I225000J0D01*
G01*
G37*
G36*
G01*
X87036000Y-61834000D02*
X87536000Y-61834000D01*
G75*
G02*
X87761000Y-62059000I0J-225000D01*
G01*
X87761000Y-62509000D01*
G75*
G02*
X87536000Y-62734000I-225000J0D01*
G01*
X87036000Y-62734000D01*
G75*
G02*
X86811000Y-62509000I0J225000D01*
G01*
X86811000Y-62059000D01*
G75*
G02*
X87036000Y-61834000I225000J0D01*
G01*
G37*
%TD*%
%TO.C,C14*%
G36*
G01*
X80979000Y-69527000D02*
X80979000Y-70027000D01*
G75*
G02*
X80754000Y-70252000I-225000J0D01*
G01*
X80304000Y-70252000D01*
G75*
G02*
X80079000Y-70027000I0J225000D01*
G01*
X80079000Y-69527000D01*
G75*
G02*
X80304000Y-69302000I225000J0D01*
G01*
X80754000Y-69302000D01*
G75*
G02*
X80979000Y-69527000I0J-225000D01*
G01*
G37*
G36*
G01*
X82529000Y-69527000D02*
X82529000Y-70027000D01*
G75*
G02*
X82304000Y-70252000I-225000J0D01*
G01*
X81854000Y-70252000D01*
G75*
G02*
X81629000Y-70027000I0J225000D01*
G01*
X81629000Y-69527000D01*
G75*
G02*
X81854000Y-69302000I225000J0D01*
G01*
X82304000Y-69302000D01*
G75*
G02*
X82529000Y-69527000I0J-225000D01*
G01*
G37*
%TD*%
D12*
%TO.C,Y2*%
X84930000Y-56315000D03*
X83730000Y-56315000D03*
X82530000Y-56315000D03*
%TD*%
D11*
%TO.C,U6*%
X85807000Y-62072000D03*
X85157000Y-62072000D03*
X84507000Y-62072000D03*
X83857000Y-62072000D03*
X83207000Y-62072000D03*
X82557000Y-62072000D03*
X81907000Y-62072000D03*
X81257000Y-62072000D03*
X81257000Y-67872000D03*
X81907000Y-67872000D03*
X82557000Y-67872000D03*
X83207000Y-67872000D03*
X83857000Y-67872000D03*
X84507000Y-67872000D03*
X85157000Y-67872000D03*
X85807000Y-67872000D03*
%TD*%
%TO.C,R26*%
G36*
G01*
X83368000Y-58707000D02*
X83368000Y-59257000D01*
G75*
G02*
X83168000Y-59457000I-200000J0D01*
G01*
X82768000Y-59457000D01*
G75*
G02*
X82568000Y-59257000I0J200000D01*
G01*
X82568000Y-58707000D01*
G75*
G02*
X82768000Y-58507000I200000J0D01*
G01*
X83168000Y-58507000D01*
G75*
G02*
X83368000Y-58707000I0J-200000D01*
G01*
G37*
G36*
G01*
X85018000Y-58707000D02*
X85018000Y-59257000D01*
G75*
G02*
X84818000Y-59457000I-200000J0D01*
G01*
X84418000Y-59457000D01*
G75*
G02*
X84218000Y-59257000I0J200000D01*
G01*
X84218000Y-58707000D01*
G75*
G02*
X84418000Y-58507000I200000J0D01*
G01*
X84818000Y-58507000D01*
G75*
G02*
X85018000Y-58707000I0J-200000D01*
G01*
G37*
%TD*%
%TO.C,R22*%
G36*
G01*
X85503500Y-73148001D02*
X85503500Y-72247999D01*
G75*
G02*
X85753499Y-71998000I249999J0D01*
G01*
X86278501Y-71998000D01*
G75*
G02*
X86528500Y-72247999I0J-249999D01*
G01*
X86528500Y-73148001D01*
G75*
G02*
X86278501Y-73398000I-249999J0D01*
G01*
X85753499Y-73398000D01*
G75*
G02*
X85503500Y-73148001I0J249999D01*
G01*
G37*
G36*
G01*
X83678500Y-73148001D02*
X83678500Y-72247999D01*
G75*
G02*
X83928499Y-71998000I249999J0D01*
G01*
X84453501Y-71998000D01*
G75*
G02*
X84703500Y-72247999I0J-249999D01*
G01*
X84703500Y-73148001D01*
G75*
G02*
X84453501Y-73398000I-249999J0D01*
G01*
X83928499Y-73398000D01*
G75*
G02*
X83678500Y-73148001I0J249999D01*
G01*
G37*
%TD*%
%TO.C,R17*%
G36*
G01*
X81067500Y-72247999D02*
X81067500Y-73148001D01*
G75*
G02*
X80817501Y-73398000I-249999J0D01*
G01*
X80292499Y-73398000D01*
G75*
G02*
X80042500Y-73148001I0J249999D01*
G01*
X80042500Y-72247999D01*
G75*
G02*
X80292499Y-71998000I249999J0D01*
G01*
X80817501Y-71998000D01*
G75*
G02*
X81067500Y-72247999I0J-249999D01*
G01*
G37*
G36*
G01*
X82892500Y-72247999D02*
X82892500Y-73148001D01*
G75*
G02*
X82642501Y-73398000I-249999J0D01*
G01*
X82117499Y-73398000D01*
G75*
G02*
X81867500Y-73148001I0J249999D01*
G01*
X81867500Y-72247999D01*
G75*
G02*
X82117499Y-71998000I249999J0D01*
G01*
X82642501Y-71998000D01*
G75*
G02*
X82892500Y-72247999I0J-249999D01*
G01*
G37*
%TD*%
%TO.C,R12*%
G36*
G01*
X73955500Y-74279999D02*
X73955500Y-75180001D01*
G75*
G02*
X73705501Y-75430000I-249999J0D01*
G01*
X73180499Y-75430000D01*
G75*
G02*
X72930500Y-75180001I0J249999D01*
G01*
X72930500Y-74279999D01*
G75*
G02*
X73180499Y-74030000I249999J0D01*
G01*
X73705501Y-74030000D01*
G75*
G02*
X73955500Y-74279999I0J-249999D01*
G01*
G37*
G36*
G01*
X75780500Y-74279999D02*
X75780500Y-75180001D01*
G75*
G02*
X75530501Y-75430000I-249999J0D01*
G01*
X75005499Y-75430000D01*
G75*
G02*
X74755500Y-75180001I0J249999D01*
G01*
X74755500Y-74279999D01*
G75*
G02*
X75005499Y-74030000I249999J0D01*
G01*
X75530501Y-74030000D01*
G75*
G02*
X75780500Y-74279999I0J-249999D01*
G01*
G37*
%TD*%
%TO.C,R11*%
G36*
G01*
X77511500Y-73009999D02*
X77511500Y-73910001D01*
G75*
G02*
X77261501Y-74160000I-249999J0D01*
G01*
X76736499Y-74160000D01*
G75*
G02*
X76486500Y-73910001I0J249999D01*
G01*
X76486500Y-73009999D01*
G75*
G02*
X76736499Y-72760000I249999J0D01*
G01*
X77261501Y-72760000D01*
G75*
G02*
X77511500Y-73009999I0J-249999D01*
G01*
G37*
G36*
G01*
X79336500Y-73009999D02*
X79336500Y-73910001D01*
G75*
G02*
X79086501Y-74160000I-249999J0D01*
G01*
X78561499Y-74160000D01*
G75*
G02*
X78311500Y-73910001I0J249999D01*
G01*
X78311500Y-73009999D01*
G75*
G02*
X78561499Y-72760000I249999J0D01*
G01*
X79086501Y-72760000D01*
G75*
G02*
X79336500Y-73009999I0J-249999D01*
G01*
G37*
%TD*%
%TO.C,R7*%
G36*
G01*
X92513000Y-56802000D02*
X92513000Y-57352000D01*
G75*
G02*
X92313000Y-57552000I-200000J0D01*
G01*
X91913000Y-57552000D01*
G75*
G02*
X91713000Y-57352000I0J200000D01*
G01*
X91713000Y-56802000D01*
G75*
G02*
X91913000Y-56602000I200000J0D01*
G01*
X92313000Y-56602000D01*
G75*
G02*
X92513000Y-56802000I0J-200000D01*
G01*
G37*
G36*
G01*
X94163000Y-56802000D02*
X94163000Y-57352000D01*
G75*
G02*
X93963000Y-57552000I-200000J0D01*
G01*
X93563000Y-57552000D01*
G75*
G02*
X93363000Y-57352000I0J200000D01*
G01*
X93363000Y-56802000D01*
G75*
G02*
X93563000Y-56602000I200000J0D01*
G01*
X93963000Y-56602000D01*
G75*
G02*
X94163000Y-56802000I0J-200000D01*
G01*
G37*
%TD*%
%TO.C,R3*%
G36*
G01*
X92513000Y-58326000D02*
X92513000Y-58876000D01*
G75*
G02*
X92313000Y-59076000I-200000J0D01*
G01*
X91913000Y-59076000D01*
G75*
G02*
X91713000Y-58876000I0J200000D01*
G01*
X91713000Y-58326000D01*
G75*
G02*
X91913000Y-58126000I200000J0D01*
G01*
X92313000Y-58126000D01*
G75*
G02*
X92513000Y-58326000I0J-200000D01*
G01*
G37*
G36*
G01*
X94163000Y-58326000D02*
X94163000Y-58876000D01*
G75*
G02*
X93963000Y-59076000I-200000J0D01*
G01*
X93563000Y-59076000D01*
G75*
G02*
X93363000Y-58876000I0J200000D01*
G01*
X93363000Y-58326000D01*
G75*
G02*
X93563000Y-58126000I200000J0D01*
G01*
X93963000Y-58126000D01*
G75*
G02*
X94163000Y-58326000I0J-200000D01*
G01*
G37*
%TD*%
D10*
%TO.C,Q1*%
X92686000Y-53521000D03*
X91736000Y-55521000D03*
X93636000Y-55521000D03*
%TD*%
%TO.C,C19*%
G36*
G01*
X82464000Y-53198000D02*
X82964000Y-53198000D01*
G75*
G02*
X83189000Y-53423000I0J-225000D01*
G01*
X83189000Y-53873000D01*
G75*
G02*
X82964000Y-54098000I-225000J0D01*
G01*
X82464000Y-54098000D01*
G75*
G02*
X82239000Y-53873000I0J225000D01*
G01*
X82239000Y-53423000D01*
G75*
G02*
X82464000Y-53198000I225000J0D01*
G01*
G37*
G36*
G01*
X82464000Y-51648000D02*
X82964000Y-51648000D01*
G75*
G02*
X83189000Y-51873000I0J-225000D01*
G01*
X83189000Y-52323000D01*
G75*
G02*
X82964000Y-52548000I-225000J0D01*
G01*
X82464000Y-52548000D01*
G75*
G02*
X82239000Y-52323000I0J225000D01*
G01*
X82239000Y-51873000D01*
G75*
G02*
X82464000Y-51648000I225000J0D01*
G01*
G37*
%TD*%
%TO.C,C18*%
G36*
G01*
X84496000Y-53198000D02*
X84996000Y-53198000D01*
G75*
G02*
X85221000Y-53423000I0J-225000D01*
G01*
X85221000Y-53873000D01*
G75*
G02*
X84996000Y-54098000I-225000J0D01*
G01*
X84496000Y-54098000D01*
G75*
G02*
X84271000Y-53873000I0J225000D01*
G01*
X84271000Y-53423000D01*
G75*
G02*
X84496000Y-53198000I225000J0D01*
G01*
G37*
G36*
G01*
X84496000Y-51648000D02*
X84996000Y-51648000D01*
G75*
G02*
X85221000Y-51873000I0J-225000D01*
G01*
X85221000Y-52323000D01*
G75*
G02*
X84996000Y-52548000I-225000J0D01*
G01*
X84496000Y-52548000D01*
G75*
G02*
X84271000Y-52323000I0J225000D01*
G01*
X84271000Y-51873000D01*
G75*
G02*
X84496000Y-51648000I225000J0D01*
G01*
G37*
%TD*%
%TO.C,C13*%
G36*
G01*
X84616000Y-70064000D02*
X84616000Y-71014000D01*
G75*
G02*
X84366000Y-71264000I-250000J0D01*
G01*
X83866000Y-71264000D01*
G75*
G02*
X83616000Y-71014000I0J250000D01*
G01*
X83616000Y-70064000D01*
G75*
G02*
X83866000Y-69814000I250000J0D01*
G01*
X84366000Y-69814000D01*
G75*
G02*
X84616000Y-70064000I0J-250000D01*
G01*
G37*
G36*
G01*
X86516000Y-70064000D02*
X86516000Y-71014000D01*
G75*
G02*
X86266000Y-71264000I-250000J0D01*
G01*
X85766000Y-71264000D01*
G75*
G02*
X85516000Y-71014000I0J250000D01*
G01*
X85516000Y-70064000D01*
G75*
G02*
X85766000Y-69814000I250000J0D01*
G01*
X86266000Y-69814000D01*
G75*
G02*
X86516000Y-70064000I0J-250000D01*
G01*
G37*
%TD*%
%TO.C,C8*%
G36*
G01*
X68968000Y-53437000D02*
X68468000Y-53437000D01*
G75*
G02*
X68243000Y-53212000I0J225000D01*
G01*
X68243000Y-52762000D01*
G75*
G02*
X68468000Y-52537000I225000J0D01*
G01*
X68968000Y-52537000D01*
G75*
G02*
X69193000Y-52762000I0J-225000D01*
G01*
X69193000Y-53212000D01*
G75*
G02*
X68968000Y-53437000I-225000J0D01*
G01*
G37*
G36*
G01*
X68968000Y-54987000D02*
X68468000Y-54987000D01*
G75*
G02*
X68243000Y-54762000I0J225000D01*
G01*
X68243000Y-54312000D01*
G75*
G02*
X68468000Y-54087000I225000J0D01*
G01*
X68968000Y-54087000D01*
G75*
G02*
X69193000Y-54312000I0J-225000D01*
G01*
X69193000Y-54762000D01*
G75*
G02*
X68968000Y-54987000I-225000J0D01*
G01*
G37*
%TD*%
%TO.C,C6*%
G36*
G01*
X70518000Y-53437000D02*
X70018000Y-53437000D01*
G75*
G02*
X69793000Y-53212000I0J225000D01*
G01*
X69793000Y-52762000D01*
G75*
G02*
X70018000Y-52537000I225000J0D01*
G01*
X70518000Y-52537000D01*
G75*
G02*
X70743000Y-52762000I0J-225000D01*
G01*
X70743000Y-53212000D01*
G75*
G02*
X70518000Y-53437000I-225000J0D01*
G01*
G37*
G36*
G01*
X70518000Y-54987000D02*
X70018000Y-54987000D01*
G75*
G02*
X69793000Y-54762000I0J225000D01*
G01*
X69793000Y-54312000D01*
G75*
G02*
X70018000Y-54087000I225000J0D01*
G01*
X70518000Y-54087000D01*
G75*
G02*
X70743000Y-54312000I0J-225000D01*
G01*
X70743000Y-54762000D01*
G75*
G02*
X70518000Y-54987000I-225000J0D01*
G01*
G37*
%TD*%
%TO.C,R4*%
G36*
G01*
X102419000Y-58326000D02*
X102419000Y-58876000D01*
G75*
G02*
X102219000Y-59076000I-200000J0D01*
G01*
X101819000Y-59076000D01*
G75*
G02*
X101619000Y-58876000I0J200000D01*
G01*
X101619000Y-58326000D01*
G75*
G02*
X101819000Y-58126000I200000J0D01*
G01*
X102219000Y-58126000D01*
G75*
G02*
X102419000Y-58326000I0J-200000D01*
G01*
G37*
G36*
G01*
X104069000Y-58326000D02*
X104069000Y-58876000D01*
G75*
G02*
X103869000Y-59076000I-200000J0D01*
G01*
X103469000Y-59076000D01*
G75*
G02*
X103269000Y-58876000I0J200000D01*
G01*
X103269000Y-58326000D01*
G75*
G02*
X103469000Y-58126000I200000J0D01*
G01*
X103869000Y-58126000D01*
G75*
G02*
X104069000Y-58326000I0J-200000D01*
G01*
G37*
%TD*%
%TO.C,R10*%
G36*
G01*
X102419000Y-56802000D02*
X102419000Y-57352000D01*
G75*
G02*
X102219000Y-57552000I-200000J0D01*
G01*
X101819000Y-57552000D01*
G75*
G02*
X101619000Y-57352000I0J200000D01*
G01*
X101619000Y-56802000D01*
G75*
G02*
X101819000Y-56602000I200000J0D01*
G01*
X102219000Y-56602000D01*
G75*
G02*
X102419000Y-56802000I0J-200000D01*
G01*
G37*
G36*
G01*
X104069000Y-56802000D02*
X104069000Y-57352000D01*
G75*
G02*
X103869000Y-57552000I-200000J0D01*
G01*
X103469000Y-57552000D01*
G75*
G02*
X103269000Y-57352000I0J200000D01*
G01*
X103269000Y-56802000D01*
G75*
G02*
X103469000Y-56602000I200000J0D01*
G01*
X103869000Y-56602000D01*
G75*
G02*
X104069000Y-56802000I0J-200000D01*
G01*
G37*
%TD*%
%TO.C,Q2*%
X102592000Y-53553000D03*
X101642000Y-55553000D03*
X103542000Y-55553000D03*
%TD*%
%TO.C,R14*%
G36*
G01*
X64153000Y-66496000D02*
X64153000Y-65946000D01*
G75*
G02*
X64353000Y-65746000I200000J0D01*
G01*
X64753000Y-65746000D01*
G75*
G02*
X64953000Y-65946000I0J-200000D01*
G01*
X64953000Y-66496000D01*
G75*
G02*
X64753000Y-66696000I-200000J0D01*
G01*
X64353000Y-66696000D01*
G75*
G02*
X64153000Y-66496000I0J200000D01*
G01*
G37*
G36*
G01*
X62503000Y-66496000D02*
X62503000Y-65946000D01*
G75*
G02*
X62703000Y-65746000I200000J0D01*
G01*
X63103000Y-65746000D01*
G75*
G02*
X63303000Y-65946000I0J-200000D01*
G01*
X63303000Y-66496000D01*
G75*
G02*
X63103000Y-66696000I-200000J0D01*
G01*
X62703000Y-66696000D01*
G75*
G02*
X62503000Y-66496000I0J200000D01*
G01*
G37*
%TD*%
%TO.C,D6*%
G36*
G01*
X60867750Y-65834500D02*
X61380250Y-65834500D01*
G75*
G02*
X61599000Y-66053250I0J-218750D01*
G01*
X61599000Y-66490750D01*
G75*
G02*
X61380250Y-66709500I-218750J0D01*
G01*
X60867750Y-66709500D01*
G75*
G02*
X60649000Y-66490750I0J218750D01*
G01*
X60649000Y-66053250D01*
G75*
G02*
X60867750Y-65834500I218750J0D01*
G01*
G37*
G36*
G01*
X60867750Y-64259500D02*
X61380250Y-64259500D01*
G75*
G02*
X61599000Y-64478250I0J-218750D01*
G01*
X61599000Y-64915750D01*
G75*
G02*
X61380250Y-65134500I-218750J0D01*
G01*
X60867750Y-65134500D01*
G75*
G02*
X60649000Y-64915750I0J218750D01*
G01*
X60649000Y-64478250D01*
G75*
G02*
X60867750Y-64259500I218750J0D01*
G01*
G37*
%TD*%
D13*
%TO.C,R16*%
X103161000Y-67872000D03*
X103161000Y-70872000D03*
%TD*%
%TO.C,R15*%
X93382000Y-67872000D03*
X93382000Y-70872000D03*
%TD*%
%TO.C,D2*%
G36*
G01*
X103219000Y-52253250D02*
X103219000Y-51740750D01*
G75*
G02*
X103437750Y-51522000I218750J0D01*
G01*
X103875250Y-51522000D01*
G75*
G02*
X104094000Y-51740750I0J-218750D01*
G01*
X104094000Y-52253250D01*
G75*
G02*
X103875250Y-52472000I-218750J0D01*
G01*
X103437750Y-52472000D01*
G75*
G02*
X103219000Y-52253250I0J218750D01*
G01*
G37*
G36*
G01*
X101644000Y-52253250D02*
X101644000Y-51740750D01*
G75*
G02*
X101862750Y-51522000I218750J0D01*
G01*
X102300250Y-51522000D01*
G75*
G02*
X102519000Y-51740750I0J-218750D01*
G01*
X102519000Y-52253250D01*
G75*
G02*
X102300250Y-52472000I-218750J0D01*
G01*
X101862750Y-52472000D01*
G75*
G02*
X101644000Y-52253250I0J218750D01*
G01*
G37*
%TD*%
%TO.C,D1*%
G36*
G01*
X93313000Y-52253250D02*
X93313000Y-51740750D01*
G75*
G02*
X93531750Y-51522000I218750J0D01*
G01*
X93969250Y-51522000D01*
G75*
G02*
X94188000Y-51740750I0J-218750D01*
G01*
X94188000Y-52253250D01*
G75*
G02*
X93969250Y-52472000I-218750J0D01*
G01*
X93531750Y-52472000D01*
G75*
G02*
X93313000Y-52253250I0J218750D01*
G01*
G37*
G36*
G01*
X91738000Y-52253250D02*
X91738000Y-51740750D01*
G75*
G02*
X91956750Y-51522000I218750J0D01*
G01*
X92394250Y-51522000D01*
G75*
G02*
X92613000Y-51740750I0J-218750D01*
G01*
X92613000Y-52253250D01*
G75*
G02*
X92394250Y-52472000I-218750J0D01*
G01*
X91956750Y-52472000D01*
G75*
G02*
X91738000Y-52253250I0J218750D01*
G01*
G37*
%TD*%
%TO.C,R13*%
G36*
G01*
X64025000Y-60654000D02*
X64025000Y-60104000D01*
G75*
G02*
X64225000Y-59904000I200000J0D01*
G01*
X64625000Y-59904000D01*
G75*
G02*
X64825000Y-60104000I0J-200000D01*
G01*
X64825000Y-60654000D01*
G75*
G02*
X64625000Y-60854000I-200000J0D01*
G01*
X64225000Y-60854000D01*
G75*
G02*
X64025000Y-60654000I0J200000D01*
G01*
G37*
G36*
G01*
X62375000Y-60654000D02*
X62375000Y-60104000D01*
G75*
G02*
X62575000Y-59904000I200000J0D01*
G01*
X62975000Y-59904000D01*
G75*
G02*
X63175000Y-60104000I0J-200000D01*
G01*
X63175000Y-60654000D01*
G75*
G02*
X62975000Y-60854000I-200000J0D01*
G01*
X62575000Y-60854000D01*
G75*
G02*
X62375000Y-60654000I0J200000D01*
G01*
G37*
%TD*%
%TO.C,D5*%
G36*
G01*
X60867750Y-59941500D02*
X61380250Y-59941500D01*
G75*
G02*
X61599000Y-60160250I0J-218750D01*
G01*
X61599000Y-60597750D01*
G75*
G02*
X61380250Y-60816500I-218750J0D01*
G01*
X60867750Y-60816500D01*
G75*
G02*
X60649000Y-60597750I0J218750D01*
G01*
X60649000Y-60160250D01*
G75*
G02*
X60867750Y-59941500I218750J0D01*
G01*
G37*
G36*
G01*
X60867750Y-58366500D02*
X61380250Y-58366500D01*
G75*
G02*
X61599000Y-58585250I0J-218750D01*
G01*
X61599000Y-59022750D01*
G75*
G02*
X61380250Y-59241500I-218750J0D01*
G01*
X60867750Y-59241500D01*
G75*
G02*
X60649000Y-59022750I0J218750D01*
G01*
X60649000Y-58585250D01*
G75*
G02*
X60867750Y-58366500I218750J0D01*
G01*
G37*
%TD*%
M02*
