%TF.GenerationSoftware,KiCad,Pcbnew,(5.1.10)-1*%
%TF.CreationDate,2022-01-17T18:44:23+07:00*%
%TF.ProjectId,Power_manager_v3_pnlz1x2,506f7765-725f-46d6-916e-616765725f76,rev?*%
%TF.SameCoordinates,Original*%
%TF.FileFunction,Legend,Top*%
%TF.FilePolarity,Positive*%
%FSLAX46Y46*%
G04 Gerber Fmt 4.6, Leading zero omitted, Abs format (unit mm)*
G04 Created by KiCad (PCBNEW (5.1.10)-1) date 2022-01-17 18:44:23*
%MOMM*%
%LPD*%
G01*
G04 APERTURE LIST*
%ADD10C,0.150000*%
%ADD11C,0.120000*%
%ADD12R,0.400000X3.200000*%
%ADD13C,0.020000*%
%ADD14C,1.600000*%
%ADD15O,1.600000X1.600000*%
%ADD16C,1.500000*%
%ADD17R,1.000000X1.000000*%
%ADD18O,1.000000X1.000000*%
%ADD19R,1.900000X2.700000*%
%ADD20O,1.700000X1.700000*%
%ADD21O,2.400000X1.700000*%
%ADD22R,2.400000X1.700000*%
%ADD23R,1.600000X1.600000*%
%ADD24C,1.000000*%
%ADD25R,1.800000X0.650000*%
%ADD26R,1.800000X1.800000*%
%ADD27C,1.800000*%
%ADD28R,0.450000X0.600000*%
%ADD29C,2.000000*%
G04 APERTURE END LIST*
D10*
X98688904Y-114499666D02*
X99165095Y-114499666D01*
X98593666Y-114785380D02*
X98927000Y-113785380D01*
X99260333Y-114785380D01*
X100165095Y-114690142D02*
X100117476Y-114737761D01*
X99974619Y-114785380D01*
X99879380Y-114785380D01*
X99736523Y-114737761D01*
X99641285Y-114642523D01*
X99593666Y-114547285D01*
X99546047Y-114356809D01*
X99546047Y-114213952D01*
X99593666Y-114023476D01*
X99641285Y-113928238D01*
X99736523Y-113833000D01*
X99879380Y-113785380D01*
X99974619Y-113785380D01*
X100117476Y-113833000D01*
X100165095Y-113880619D01*
X98688904Y-89499666D02*
X99165095Y-89499666D01*
X98593666Y-89785380D02*
X98927000Y-88785380D01*
X99260333Y-89785380D01*
X100165095Y-89690142D02*
X100117476Y-89737761D01*
X99974619Y-89785380D01*
X99879380Y-89785380D01*
X99736523Y-89737761D01*
X99641285Y-89642523D01*
X99593666Y-89547285D01*
X99546047Y-89356809D01*
X99546047Y-89213952D01*
X99593666Y-89023476D01*
X99641285Y-88928238D01*
X99736523Y-88833000D01*
X99879380Y-88785380D01*
X99974619Y-88785380D01*
X100117476Y-88833000D01*
X100165095Y-88880619D01*
D11*
%TO.C,C5*%
X106668000Y-94013580D02*
X106668000Y-93732420D01*
X105648000Y-94013580D02*
X105648000Y-93732420D01*
%TO.C,R24*%
X106682742Y-100504500D02*
X107157258Y-100504500D01*
X106682742Y-99459500D02*
X107157258Y-99459500D01*
%TO.C,U5*%
X109547000Y-106009500D02*
X109547000Y-102409500D01*
X109547000Y-106009500D02*
X109547000Y-108209500D01*
X102777000Y-106009500D02*
X102777000Y-103809500D01*
X102777000Y-106009500D02*
X102777000Y-108209500D01*
%TO.C,Y1*%
X105374000Y-98515000D02*
X105524000Y-98515000D01*
X105374000Y-96115000D02*
X105524000Y-96115000D01*
X107924000Y-96115000D02*
X107974000Y-96115000D01*
X108974000Y-96115000D02*
X108824000Y-96115000D01*
X108974000Y-98515000D02*
X108824000Y-98515000D01*
X109174000Y-96515000D02*
X109174000Y-96115000D01*
X108974000Y-96515000D02*
X108974000Y-96115000D01*
X105374000Y-96515000D02*
X105374000Y-96115000D01*
X109174000Y-98515000D02*
X109174000Y-96515000D01*
X107924000Y-96115000D02*
X107924000Y-95715000D01*
X108974000Y-96515000D02*
X108974000Y-98515000D01*
X105374000Y-98515000D02*
X105374000Y-96515000D01*
%TO.C,C7*%
X118196420Y-97567000D02*
X118477580Y-97567000D01*
X118196420Y-98587000D02*
X118477580Y-98587000D01*
%TO.C,C15*%
X108176420Y-110267000D02*
X108457580Y-110267000D01*
X108176420Y-111287000D02*
X108457580Y-111287000D01*
%TO.C,JP3*%
X95252000Y-95376000D02*
X95252000Y-92576000D01*
X95252000Y-92576000D02*
X97252000Y-92576000D01*
X97252000Y-92576000D02*
X97252000Y-95376000D01*
X97252000Y-95376000D02*
X95252000Y-95376000D01*
%TO.C,JP5*%
X102332000Y-105149000D02*
X102332000Y-107949000D01*
X102332000Y-107949000D02*
X100332000Y-107949000D01*
X100332000Y-107949000D02*
X100332000Y-105149000D01*
X100332000Y-105149000D02*
X102332000Y-105149000D01*
%TO.C,JP6*%
X100657000Y-110158000D02*
X103457000Y-110158000D01*
X103457000Y-110158000D02*
X103457000Y-112158000D01*
X103457000Y-112158000D02*
X100657000Y-112158000D01*
X100657000Y-112158000D02*
X100657000Y-110158000D01*
%TO.C,R23*%
X114935500Y-97648742D02*
X114935500Y-98123258D01*
X113890500Y-97648742D02*
X113890500Y-98123258D01*
%TO.C,R25*%
X115541500Y-98124258D02*
X115541500Y-97649742D01*
X116586500Y-98124258D02*
X116586500Y-97649742D01*
%TO.C,F1*%
X126070000Y-103062000D02*
X125740000Y-103062000D01*
X126070000Y-109602000D02*
X126070000Y-103062000D01*
X125740000Y-109602000D02*
X126070000Y-109602000D01*
X123330000Y-103062000D02*
X123660000Y-103062000D01*
X123330000Y-109602000D02*
X123330000Y-103062000D01*
X123660000Y-109602000D02*
X123330000Y-109602000D01*
%TO.C,KP1*%
X102155000Y-103157000D02*
G75*
G03*
X102155000Y-103157000I-950000J0D01*
G01*
%TO.C,C17*%
X103363420Y-100615000D02*
X103644580Y-100615000D01*
X103363420Y-101635000D02*
X103644580Y-101635000D01*
%TO.C,J6*%
X104574000Y-92070000D02*
X104574000Y-96183034D01*
X104464000Y-92070000D02*
X104464000Y-96078855D01*
X104354000Y-92070000D02*
X104354000Y-96008007D01*
X104244000Y-92070000D02*
X104244000Y-95960573D01*
X104134000Y-92070000D02*
X104134000Y-95932086D01*
X104024000Y-92070000D02*
X104024000Y-95920411D01*
X103914000Y-92070000D02*
X103914000Y-95924768D01*
X103804000Y-92070000D02*
X103804000Y-95945442D01*
X103694000Y-92070000D02*
X103694000Y-95983886D01*
X103584000Y-92070000D02*
X103584000Y-96043309D01*
X103474000Y-92070000D02*
X103474000Y-96130477D01*
X103364000Y-92070000D02*
X103364000Y-96262418D01*
X102094000Y-92070000D02*
X102094000Y-96262418D01*
X104694000Y-92070000D02*
X104694000Y-96372470D01*
X100764000Y-92070000D02*
X100764000Y-96372470D01*
X104694000Y-92070000D02*
X100764000Y-92070000D01*
X104759000Y-98710000D02*
X103999000Y-98710000D01*
X104759000Y-97950000D02*
X104759000Y-98710000D01*
%TO.C,J1*%
X94788000Y-115222000D02*
X94788000Y-116552000D01*
X93458000Y-116552000D02*
X94788000Y-116552000D01*
X92188000Y-113892000D02*
X92188000Y-116552000D01*
X92188000Y-116552000D02*
X87048000Y-116552000D01*
X92188000Y-113892000D02*
X87048000Y-113892000D01*
X87048000Y-113892000D02*
X87048000Y-116552000D01*
%TO.C,J3*%
X127046000Y-115222000D02*
X127046000Y-116552000D01*
X125716000Y-116552000D02*
X127046000Y-116552000D01*
X124446000Y-113892000D02*
X124446000Y-116552000D01*
X124446000Y-116552000D02*
X119306000Y-116552000D01*
X124446000Y-113892000D02*
X119306000Y-113892000D01*
X119306000Y-113892000D02*
X119306000Y-116552000D01*
%TO.C,J4*%
X136952000Y-115222000D02*
X136952000Y-116552000D01*
X135622000Y-116552000D02*
X136952000Y-116552000D01*
X134352000Y-113892000D02*
X134352000Y-116552000D01*
X134352000Y-116552000D02*
X129212000Y-116552000D01*
X134352000Y-113892000D02*
X129212000Y-113892000D01*
X129212000Y-113892000D02*
X129212000Y-116552000D01*
%TO.C,U7*%
X97776000Y-99552000D02*
X92515000Y-99552000D01*
X112254000Y-102952000D02*
X112254000Y-99552000D01*
X97776000Y-102952000D02*
X97776000Y-99552000D01*
X97776000Y-102952000D02*
X92515000Y-102952000D01*
X105015000Y-104052000D02*
X105015000Y-102802000D01*
X117515000Y-92052000D02*
X117515000Y-104552000D01*
X117515000Y-92052000D02*
X92515000Y-92052000D01*
X92515000Y-104552000D02*
X92515000Y-92052000D01*
X112254000Y-99552000D02*
X117515000Y-99552000D01*
X117515000Y-104552000D02*
X92515000Y-104552000D01*
X117515000Y-102952000D02*
X112254000Y-102952000D01*
%TO.C,J5*%
X113548000Y-112028000D02*
X111628000Y-112028000D01*
X111628000Y-112028000D02*
X111628000Y-111743000D01*
X111628000Y-110573000D02*
X111628000Y-109203000D01*
X111628000Y-108033000D02*
X111628000Y-106663000D01*
X111628000Y-105493000D02*
X111628000Y-105208000D01*
X113548000Y-105208000D02*
X111628000Y-105208000D01*
X113548000Y-112028000D02*
X113548000Y-110473000D01*
X113548000Y-109303000D02*
X113548000Y-107933000D01*
X113548000Y-106763000D02*
X113548000Y-105208000D01*
X111628000Y-111743000D02*
X110398000Y-111743000D01*
%TO.C,F2*%
X136103000Y-103062000D02*
X135773000Y-103062000D01*
X136103000Y-109602000D02*
X136103000Y-103062000D01*
X135773000Y-109602000D02*
X136103000Y-109602000D01*
X133363000Y-103062000D02*
X133693000Y-103062000D01*
X133363000Y-109602000D02*
X133363000Y-103062000D01*
X133693000Y-109602000D02*
X133363000Y-109602000D01*
%TO.C,J2*%
X91551000Y-97950000D02*
X91551000Y-98710000D01*
X91551000Y-98710000D02*
X90791000Y-98710000D01*
X91486000Y-92070000D02*
X87556000Y-92070000D01*
X87556000Y-92070000D02*
X87556000Y-96372470D01*
X91486000Y-92070000D02*
X91486000Y-96372470D01*
X88886000Y-92070000D02*
X88886000Y-96262418D01*
X90156000Y-92070000D02*
X90156000Y-96262418D01*
X90266000Y-92070000D02*
X90266000Y-96130477D01*
X90376000Y-92070000D02*
X90376000Y-96043309D01*
X90486000Y-92070000D02*
X90486000Y-95983886D01*
X90596000Y-92070000D02*
X90596000Y-95945442D01*
X90706000Y-92070000D02*
X90706000Y-95924768D01*
X90816000Y-92070000D02*
X90816000Y-95920411D01*
X90926000Y-92070000D02*
X90926000Y-95932086D01*
X91036000Y-92070000D02*
X91036000Y-95960573D01*
X91146000Y-92070000D02*
X91146000Y-96008007D01*
X91256000Y-92070000D02*
X91256000Y-96078855D01*
X91366000Y-92070000D02*
X91366000Y-96183034D01*
%TO.C,JP1*%
X95196000Y-114603000D02*
X97996000Y-114603000D01*
X97996000Y-114603000D02*
X97996000Y-116603000D01*
X97996000Y-116603000D02*
X95196000Y-116603000D01*
X95196000Y-116603000D02*
X95196000Y-114603000D01*
%TO.C,C3*%
X96506580Y-95916000D02*
X96225420Y-95916000D01*
X96506580Y-96936000D02*
X96225420Y-96936000D01*
%TO.C,C1*%
X120381420Y-96682000D02*
X120662580Y-96682000D01*
X120381420Y-95662000D02*
X120662580Y-95662000D01*
%TO.C,C2*%
X130287420Y-96682000D02*
X130568580Y-96682000D01*
X130287420Y-95662000D02*
X130568580Y-95662000D01*
%TO.C,D3*%
X122707000Y-96944000D02*
X122707000Y-94394000D01*
X124407000Y-96944000D02*
X124407000Y-94394000D01*
X122707000Y-96944000D02*
X124407000Y-96944000D01*
%TO.C,D4*%
X132613000Y-96944000D02*
X132613000Y-94394000D01*
X134313000Y-96944000D02*
X134313000Y-94394000D01*
X132613000Y-96944000D02*
X134313000Y-96944000D01*
%TO.C,R1*%
X120237758Y-92474500D02*
X119763242Y-92474500D01*
X120237758Y-93519500D02*
X119763242Y-93519500D01*
%TO.C,R2*%
X130143758Y-92474500D02*
X129669242Y-92474500D01*
X130143758Y-93519500D02*
X129669242Y-93519500D01*
%TO.C,R5*%
X122874742Y-93519500D02*
X123349258Y-93519500D01*
X122874742Y-92474500D02*
X123349258Y-92474500D01*
%TO.C,C4*%
X108700000Y-94013580D02*
X108700000Y-93732420D01*
X107680000Y-94013580D02*
X107680000Y-93732420D01*
%TO.C,R6*%
X120745758Y-93998500D02*
X120271242Y-93998500D01*
X120745758Y-95043500D02*
X120271242Y-95043500D01*
%TO.C,R8*%
X132780742Y-93519500D02*
X133255258Y-93519500D01*
X132780742Y-92474500D02*
X133255258Y-92474500D01*
%TO.C,R9*%
X130651758Y-94036600D02*
X130177242Y-94036600D01*
X130651758Y-95081600D02*
X130177242Y-95081600D01*
%TO.C,C9*%
X119942252Y-108899000D02*
X119419748Y-108899000D01*
X119942252Y-110369000D02*
X119419748Y-110369000D01*
%TO.C,C10*%
X119551748Y-107448000D02*
X120074252Y-107448000D01*
X119551748Y-105978000D02*
X120074252Y-105978000D01*
%TO.C,C11*%
X129980252Y-108899000D02*
X129457748Y-108899000D01*
X129980252Y-110369000D02*
X129457748Y-110369000D01*
%TO.C,C12*%
X129452748Y-107448000D02*
X129975252Y-107448000D01*
X129452748Y-105978000D02*
X129975252Y-105978000D01*
%TO.C,R21*%
X129903564Y-103946000D02*
X129449436Y-103946000D01*
X129903564Y-105416000D02*
X129449436Y-105416000D01*
%TO.C,JP2*%
X95196000Y-107618000D02*
X97996000Y-107618000D01*
X97996000Y-107618000D02*
X97996000Y-109618000D01*
X97996000Y-109618000D02*
X95196000Y-109618000D01*
X95196000Y-109618000D02*
X95196000Y-107618000D01*
%TO.C,R18*%
X119870564Y-110931000D02*
X119416436Y-110931000D01*
X119870564Y-112401000D02*
X119416436Y-112401000D01*
%TO.C,R19*%
X119997564Y-103946000D02*
X119543436Y-103946000D01*
X119997564Y-105416000D02*
X119543436Y-105416000D01*
%TO.C,R20*%
X129903564Y-112401000D02*
X129449436Y-112401000D01*
X129903564Y-110931000D02*
X129449436Y-110931000D01*
%TO.C,J5*%
X111628000Y-86743000D02*
X110398000Y-86743000D01*
X113548000Y-81763000D02*
X113548000Y-80208000D01*
X113548000Y-84303000D02*
X113548000Y-82933000D01*
X113548000Y-87028000D02*
X113548000Y-85473000D01*
X113548000Y-80208000D02*
X111628000Y-80208000D01*
X111628000Y-80493000D02*
X111628000Y-80208000D01*
X111628000Y-83033000D02*
X111628000Y-81663000D01*
X111628000Y-85573000D02*
X111628000Y-84203000D01*
X111628000Y-87028000D02*
X111628000Y-86743000D01*
X113548000Y-87028000D02*
X111628000Y-87028000D01*
%TO.C,U7*%
X117515000Y-77952000D02*
X112254000Y-77952000D01*
X117515000Y-79552000D02*
X92515000Y-79552000D01*
X112254000Y-74552000D02*
X117515000Y-74552000D01*
X92515000Y-79552000D02*
X92515000Y-67052000D01*
X117515000Y-67052000D02*
X92515000Y-67052000D01*
X117515000Y-67052000D02*
X117515000Y-79552000D01*
X105015000Y-79052000D02*
X105015000Y-77802000D01*
X97776000Y-77952000D02*
X92515000Y-77952000D01*
X97776000Y-77952000D02*
X97776000Y-74552000D01*
X112254000Y-77952000D02*
X112254000Y-74552000D01*
X97776000Y-74552000D02*
X92515000Y-74552000D01*
%TO.C,J4*%
X129212000Y-88892000D02*
X129212000Y-91552000D01*
X134352000Y-88892000D02*
X129212000Y-88892000D01*
X134352000Y-91552000D02*
X129212000Y-91552000D01*
X134352000Y-88892000D02*
X134352000Y-91552000D01*
X135622000Y-91552000D02*
X136952000Y-91552000D01*
X136952000Y-90222000D02*
X136952000Y-91552000D01*
%TO.C,J3*%
X119306000Y-88892000D02*
X119306000Y-91552000D01*
X124446000Y-88892000D02*
X119306000Y-88892000D01*
X124446000Y-91552000D02*
X119306000Y-91552000D01*
X124446000Y-88892000D02*
X124446000Y-91552000D01*
X125716000Y-91552000D02*
X127046000Y-91552000D01*
X127046000Y-90222000D02*
X127046000Y-91552000D01*
%TO.C,J1*%
X87048000Y-88892000D02*
X87048000Y-91552000D01*
X92188000Y-88892000D02*
X87048000Y-88892000D01*
X92188000Y-91552000D02*
X87048000Y-91552000D01*
X92188000Y-88892000D02*
X92188000Y-91552000D01*
X93458000Y-91552000D02*
X94788000Y-91552000D01*
X94788000Y-90222000D02*
X94788000Y-91552000D01*
%TO.C,J6*%
X104759000Y-72950000D02*
X104759000Y-73710000D01*
X104759000Y-73710000D02*
X103999000Y-73710000D01*
X104694000Y-67070000D02*
X100764000Y-67070000D01*
X100764000Y-67070000D02*
X100764000Y-71372470D01*
X104694000Y-67070000D02*
X104694000Y-71372470D01*
X102094000Y-67070000D02*
X102094000Y-71262418D01*
X103364000Y-67070000D02*
X103364000Y-71262418D01*
X103474000Y-67070000D02*
X103474000Y-71130477D01*
X103584000Y-67070000D02*
X103584000Y-71043309D01*
X103694000Y-67070000D02*
X103694000Y-70983886D01*
X103804000Y-67070000D02*
X103804000Y-70945442D01*
X103914000Y-67070000D02*
X103914000Y-70924768D01*
X104024000Y-67070000D02*
X104024000Y-70920411D01*
X104134000Y-67070000D02*
X104134000Y-70932086D01*
X104244000Y-67070000D02*
X104244000Y-70960573D01*
X104354000Y-67070000D02*
X104354000Y-71008007D01*
X104464000Y-67070000D02*
X104464000Y-71078855D01*
X104574000Y-67070000D02*
X104574000Y-71183034D01*
%TO.C,C17*%
X103363420Y-76635000D02*
X103644580Y-76635000D01*
X103363420Y-75615000D02*
X103644580Y-75615000D01*
%TO.C,KP1*%
X102155000Y-78157000D02*
G75*
G03*
X102155000Y-78157000I-950000J0D01*
G01*
%TO.C,F1*%
X123660000Y-84602000D02*
X123330000Y-84602000D01*
X123330000Y-84602000D02*
X123330000Y-78062000D01*
X123330000Y-78062000D02*
X123660000Y-78062000D01*
X125740000Y-84602000D02*
X126070000Y-84602000D01*
X126070000Y-84602000D02*
X126070000Y-78062000D01*
X126070000Y-78062000D02*
X125740000Y-78062000D01*
%TO.C,R25*%
X116586500Y-73124258D02*
X116586500Y-72649742D01*
X115541500Y-73124258D02*
X115541500Y-72649742D01*
%TO.C,R23*%
X113890500Y-72648742D02*
X113890500Y-73123258D01*
X114935500Y-72648742D02*
X114935500Y-73123258D01*
%TO.C,C15*%
X108176420Y-86287000D02*
X108457580Y-86287000D01*
X108176420Y-85267000D02*
X108457580Y-85267000D01*
%TO.C,C7*%
X118196420Y-73587000D02*
X118477580Y-73587000D01*
X118196420Y-72567000D02*
X118477580Y-72567000D01*
%TO.C,Y1*%
X105374000Y-73515000D02*
X105374000Y-71515000D01*
X108974000Y-71515000D02*
X108974000Y-73515000D01*
X107924000Y-71115000D02*
X107924000Y-70715000D01*
X109174000Y-73515000D02*
X109174000Y-71515000D01*
X105374000Y-71515000D02*
X105374000Y-71115000D01*
X108974000Y-71515000D02*
X108974000Y-71115000D01*
X109174000Y-71515000D02*
X109174000Y-71115000D01*
X108974000Y-73515000D02*
X108824000Y-73515000D01*
X108974000Y-71115000D02*
X108824000Y-71115000D01*
X107924000Y-71115000D02*
X107974000Y-71115000D01*
X105374000Y-71115000D02*
X105524000Y-71115000D01*
X105374000Y-73515000D02*
X105524000Y-73515000D01*
%TO.C,U5*%
X102777000Y-81009500D02*
X102777000Y-83209500D01*
X102777000Y-81009500D02*
X102777000Y-78809500D01*
X109547000Y-81009500D02*
X109547000Y-83209500D01*
X109547000Y-81009500D02*
X109547000Y-77409500D01*
%TO.C,R24*%
X106682742Y-74459500D02*
X107157258Y-74459500D01*
X106682742Y-75504500D02*
X107157258Y-75504500D01*
%TO.C,C5*%
X105648000Y-69013580D02*
X105648000Y-68732420D01*
X106668000Y-69013580D02*
X106668000Y-68732420D01*
%TO.C,C4*%
X107680000Y-69013580D02*
X107680000Y-68732420D01*
X108700000Y-69013580D02*
X108700000Y-68732420D01*
%TO.C,JP6*%
X100657000Y-87158000D02*
X100657000Y-85158000D01*
X103457000Y-87158000D02*
X100657000Y-87158000D01*
X103457000Y-85158000D02*
X103457000Y-87158000D01*
X100657000Y-85158000D02*
X103457000Y-85158000D01*
%TO.C,JP5*%
X100332000Y-80149000D02*
X102332000Y-80149000D01*
X100332000Y-82949000D02*
X100332000Y-80149000D01*
X102332000Y-82949000D02*
X100332000Y-82949000D01*
X102332000Y-80149000D02*
X102332000Y-82949000D01*
%TO.C,JP3*%
X97252000Y-70376000D02*
X95252000Y-70376000D01*
X97252000Y-67576000D02*
X97252000Y-70376000D01*
X95252000Y-67576000D02*
X97252000Y-67576000D01*
X95252000Y-70376000D02*
X95252000Y-67576000D01*
%TO.C,JP2*%
X95196000Y-84618000D02*
X95196000Y-82618000D01*
X97996000Y-84618000D02*
X95196000Y-84618000D01*
X97996000Y-82618000D02*
X97996000Y-84618000D01*
X95196000Y-82618000D02*
X97996000Y-82618000D01*
%TO.C,R21*%
X129903564Y-80416000D02*
X129449436Y-80416000D01*
X129903564Y-78946000D02*
X129449436Y-78946000D01*
%TO.C,R20*%
X129903564Y-85931000D02*
X129449436Y-85931000D01*
X129903564Y-87401000D02*
X129449436Y-87401000D01*
%TO.C,R19*%
X119997564Y-80416000D02*
X119543436Y-80416000D01*
X119997564Y-78946000D02*
X119543436Y-78946000D01*
%TO.C,R18*%
X119870564Y-87401000D02*
X119416436Y-87401000D01*
X119870564Y-85931000D02*
X119416436Y-85931000D01*
%TO.C,C12*%
X129452748Y-80978000D02*
X129975252Y-80978000D01*
X129452748Y-82448000D02*
X129975252Y-82448000D01*
%TO.C,C11*%
X129980252Y-85369000D02*
X129457748Y-85369000D01*
X129980252Y-83899000D02*
X129457748Y-83899000D01*
%TO.C,C10*%
X119551748Y-80978000D02*
X120074252Y-80978000D01*
X119551748Y-82448000D02*
X120074252Y-82448000D01*
%TO.C,C9*%
X119942252Y-85369000D02*
X119419748Y-85369000D01*
X119942252Y-83899000D02*
X119419748Y-83899000D01*
%TO.C,R9*%
X130651758Y-70081600D02*
X130177242Y-70081600D01*
X130651758Y-69036600D02*
X130177242Y-69036600D01*
%TO.C,R8*%
X132780742Y-67474500D02*
X133255258Y-67474500D01*
X132780742Y-68519500D02*
X133255258Y-68519500D01*
%TO.C,R6*%
X120745758Y-70043500D02*
X120271242Y-70043500D01*
X120745758Y-68998500D02*
X120271242Y-68998500D01*
%TO.C,R5*%
X122874742Y-67474500D02*
X123349258Y-67474500D01*
X122874742Y-68519500D02*
X123349258Y-68519500D01*
%TO.C,R2*%
X130143758Y-68519500D02*
X129669242Y-68519500D01*
X130143758Y-67474500D02*
X129669242Y-67474500D01*
%TO.C,R1*%
X120237758Y-68519500D02*
X119763242Y-68519500D01*
X120237758Y-67474500D02*
X119763242Y-67474500D01*
%TO.C,D4*%
X132613000Y-71944000D02*
X134313000Y-71944000D01*
X134313000Y-71944000D02*
X134313000Y-69394000D01*
X132613000Y-71944000D02*
X132613000Y-69394000D01*
%TO.C,D3*%
X122707000Y-71944000D02*
X124407000Y-71944000D01*
X124407000Y-71944000D02*
X124407000Y-69394000D01*
X122707000Y-71944000D02*
X122707000Y-69394000D01*
%TO.C,C2*%
X130287420Y-70662000D02*
X130568580Y-70662000D01*
X130287420Y-71682000D02*
X130568580Y-71682000D01*
%TO.C,C1*%
X120381420Y-70662000D02*
X120662580Y-70662000D01*
X120381420Y-71682000D02*
X120662580Y-71682000D01*
%TO.C,C3*%
X96506580Y-71936000D02*
X96225420Y-71936000D01*
X96506580Y-70916000D02*
X96225420Y-70916000D01*
%TO.C,JP1*%
X95196000Y-91603000D02*
X95196000Y-89603000D01*
X97996000Y-91603000D02*
X95196000Y-91603000D01*
X97996000Y-89603000D02*
X97996000Y-91603000D01*
X95196000Y-89603000D02*
X97996000Y-89603000D01*
%TO.C,J2*%
X91366000Y-67070000D02*
X91366000Y-71183034D01*
X91256000Y-67070000D02*
X91256000Y-71078855D01*
X91146000Y-67070000D02*
X91146000Y-71008007D01*
X91036000Y-67070000D02*
X91036000Y-70960573D01*
X90926000Y-67070000D02*
X90926000Y-70932086D01*
X90816000Y-67070000D02*
X90816000Y-70920411D01*
X90706000Y-67070000D02*
X90706000Y-70924768D01*
X90596000Y-67070000D02*
X90596000Y-70945442D01*
X90486000Y-67070000D02*
X90486000Y-70983886D01*
X90376000Y-67070000D02*
X90376000Y-71043309D01*
X90266000Y-67070000D02*
X90266000Y-71130477D01*
X90156000Y-67070000D02*
X90156000Y-71262418D01*
X88886000Y-67070000D02*
X88886000Y-71262418D01*
X91486000Y-67070000D02*
X91486000Y-71372470D01*
X87556000Y-67070000D02*
X87556000Y-71372470D01*
X91486000Y-67070000D02*
X87556000Y-67070000D01*
X91551000Y-73710000D02*
X90791000Y-73710000D01*
X91551000Y-72950000D02*
X91551000Y-73710000D01*
%TO.C,F2*%
X133693000Y-84602000D02*
X133363000Y-84602000D01*
X133363000Y-84602000D02*
X133363000Y-78062000D01*
X133363000Y-78062000D02*
X133693000Y-78062000D01*
X135773000Y-84602000D02*
X136103000Y-84602000D01*
X136103000Y-84602000D02*
X136103000Y-78062000D01*
X136103000Y-78062000D02*
X135773000Y-78062000D01*
%TO.C,C5*%
D10*
X109801333Y-93354142D02*
X109753714Y-93401761D01*
X109610857Y-93449380D01*
X109515619Y-93449380D01*
X109372761Y-93401761D01*
X109277523Y-93306523D01*
X109229904Y-93211285D01*
X109182285Y-93020809D01*
X109182285Y-92877952D01*
X109229904Y-92687476D01*
X109277523Y-92592238D01*
X109372761Y-92497000D01*
X109515619Y-92449380D01*
X109610857Y-92449380D01*
X109753714Y-92497000D01*
X109801333Y-92544619D01*
X110706095Y-92449380D02*
X110229904Y-92449380D01*
X110182285Y-92925571D01*
X110229904Y-92877952D01*
X110325142Y-92830333D01*
X110563238Y-92830333D01*
X110658476Y-92877952D01*
X110706095Y-92925571D01*
X110753714Y-93020809D01*
X110753714Y-93258904D01*
X110706095Y-93354142D01*
X110658476Y-93401761D01*
X110563238Y-93449380D01*
X110325142Y-93449380D01*
X110229904Y-93401761D01*
X110182285Y-93354142D01*
%TO.C,R24*%
X109071142Y-100561380D02*
X108737809Y-100085190D01*
X108499714Y-100561380D02*
X108499714Y-99561380D01*
X108880666Y-99561380D01*
X108975904Y-99609000D01*
X109023523Y-99656619D01*
X109071142Y-99751857D01*
X109071142Y-99894714D01*
X109023523Y-99989952D01*
X108975904Y-100037571D01*
X108880666Y-100085190D01*
X108499714Y-100085190D01*
X109452095Y-99656619D02*
X109499714Y-99609000D01*
X109594952Y-99561380D01*
X109833047Y-99561380D01*
X109928285Y-99609000D01*
X109975904Y-99656619D01*
X110023523Y-99751857D01*
X110023523Y-99847095D01*
X109975904Y-99989952D01*
X109404476Y-100561380D01*
X110023523Y-100561380D01*
X110880666Y-99894714D02*
X110880666Y-100561380D01*
X110642571Y-99513761D02*
X110404476Y-100228047D01*
X111023523Y-100228047D01*
%TO.C,U5*%
X109968095Y-103117380D02*
X109968095Y-103926904D01*
X110015714Y-104022142D01*
X110063333Y-104069761D01*
X110158571Y-104117380D01*
X110349047Y-104117380D01*
X110444285Y-104069761D01*
X110491904Y-104022142D01*
X110539523Y-103926904D01*
X110539523Y-103117380D01*
X111491904Y-103117380D02*
X111015714Y-103117380D01*
X110968095Y-103593571D01*
X111015714Y-103545952D01*
X111110952Y-103498333D01*
X111349047Y-103498333D01*
X111444285Y-103545952D01*
X111491904Y-103593571D01*
X111539523Y-103688809D01*
X111539523Y-103926904D01*
X111491904Y-104022142D01*
X111444285Y-104069761D01*
X111349047Y-104117380D01*
X111110952Y-104117380D01*
X111015714Y-104069761D01*
X110968095Y-104022142D01*
%TO.C,Y1*%
X109872809Y-97291190D02*
X109872809Y-97767380D01*
X109539476Y-96767380D02*
X109872809Y-97291190D01*
X110206142Y-96767380D01*
X111063285Y-97767380D02*
X110491857Y-97767380D01*
X110777571Y-97767380D02*
X110777571Y-96767380D01*
X110682333Y-96910238D01*
X110587095Y-97005476D01*
X110491857Y-97053095D01*
%TO.C,C7*%
X120469333Y-98434142D02*
X120421714Y-98481761D01*
X120278857Y-98529380D01*
X120183619Y-98529380D01*
X120040761Y-98481761D01*
X119945523Y-98386523D01*
X119897904Y-98291285D01*
X119850285Y-98100809D01*
X119850285Y-97957952D01*
X119897904Y-97767476D01*
X119945523Y-97672238D01*
X120040761Y-97577000D01*
X120183619Y-97529380D01*
X120278857Y-97529380D01*
X120421714Y-97577000D01*
X120469333Y-97624619D01*
X120802666Y-97529380D02*
X121469333Y-97529380D01*
X121040761Y-98529380D01*
%TO.C,C15*%
X107674142Y-112531142D02*
X107626523Y-112578761D01*
X107483666Y-112626380D01*
X107388428Y-112626380D01*
X107245571Y-112578761D01*
X107150333Y-112483523D01*
X107102714Y-112388285D01*
X107055095Y-112197809D01*
X107055095Y-112054952D01*
X107102714Y-111864476D01*
X107150333Y-111769238D01*
X107245571Y-111674000D01*
X107388428Y-111626380D01*
X107483666Y-111626380D01*
X107626523Y-111674000D01*
X107674142Y-111721619D01*
X108626523Y-112626380D02*
X108055095Y-112626380D01*
X108340809Y-112626380D02*
X108340809Y-111626380D01*
X108245571Y-111769238D01*
X108150333Y-111864476D01*
X108055095Y-111912095D01*
X109531285Y-111626380D02*
X109055095Y-111626380D01*
X109007476Y-112102571D01*
X109055095Y-112054952D01*
X109150333Y-112007333D01*
X109388428Y-112007333D01*
X109483666Y-112054952D01*
X109531285Y-112102571D01*
X109578904Y-112197809D01*
X109578904Y-112435904D01*
X109531285Y-112531142D01*
X109483666Y-112578761D01*
X109388428Y-112626380D01*
X109150333Y-112626380D01*
X109055095Y-112578761D01*
X109007476Y-112531142D01*
%TO.C,JP3*%
X97482380Y-94899333D02*
X98196666Y-94899333D01*
X98339523Y-94946952D01*
X98434761Y-95042190D01*
X98482380Y-95185047D01*
X98482380Y-95280285D01*
X98482380Y-94423142D02*
X97482380Y-94423142D01*
X97482380Y-94042190D01*
X97530000Y-93946952D01*
X97577619Y-93899333D01*
X97672857Y-93851714D01*
X97815714Y-93851714D01*
X97910952Y-93899333D01*
X97958571Y-93946952D01*
X98006190Y-94042190D01*
X98006190Y-94423142D01*
X97482380Y-93518380D02*
X97482380Y-92899333D01*
X97863333Y-93232666D01*
X97863333Y-93089809D01*
X97910952Y-92994571D01*
X97958571Y-92946952D01*
X98053809Y-92899333D01*
X98291904Y-92899333D01*
X98387142Y-92946952D01*
X98434761Y-92994571D01*
X98482380Y-93089809D01*
X98482380Y-93375523D01*
X98434761Y-93470761D01*
X98387142Y-93518380D01*
%TO.C,JP5*%
X100498666Y-108451380D02*
X100498666Y-109165666D01*
X100451047Y-109308523D01*
X100355809Y-109403761D01*
X100212952Y-109451380D01*
X100117714Y-109451380D01*
X100974857Y-109451380D02*
X100974857Y-108451380D01*
X101355809Y-108451380D01*
X101451047Y-108499000D01*
X101498666Y-108546619D01*
X101546285Y-108641857D01*
X101546285Y-108784714D01*
X101498666Y-108879952D01*
X101451047Y-108927571D01*
X101355809Y-108975190D01*
X100974857Y-108975190D01*
X102451047Y-108451380D02*
X101974857Y-108451380D01*
X101927238Y-108927571D01*
X101974857Y-108879952D01*
X102070095Y-108832333D01*
X102308190Y-108832333D01*
X102403428Y-108879952D01*
X102451047Y-108927571D01*
X102498666Y-109022809D01*
X102498666Y-109260904D01*
X102451047Y-109356142D01*
X102403428Y-109403761D01*
X102308190Y-109451380D01*
X102070095Y-109451380D01*
X101974857Y-109403761D01*
X101927238Y-109356142D01*
%TO.C,JP6*%
X101133666Y-112515380D02*
X101133666Y-113229666D01*
X101086047Y-113372523D01*
X100990809Y-113467761D01*
X100847952Y-113515380D01*
X100752714Y-113515380D01*
X101609857Y-113515380D02*
X101609857Y-112515380D01*
X101990809Y-112515380D01*
X102086047Y-112563000D01*
X102133666Y-112610619D01*
X102181285Y-112705857D01*
X102181285Y-112848714D01*
X102133666Y-112943952D01*
X102086047Y-112991571D01*
X101990809Y-113039190D01*
X101609857Y-113039190D01*
X103038428Y-112515380D02*
X102847952Y-112515380D01*
X102752714Y-112563000D01*
X102705095Y-112610619D01*
X102609857Y-112753476D01*
X102562238Y-112943952D01*
X102562238Y-113324904D01*
X102609857Y-113420142D01*
X102657476Y-113467761D01*
X102752714Y-113515380D01*
X102943190Y-113515380D01*
X103038428Y-113467761D01*
X103086047Y-113420142D01*
X103133666Y-113324904D01*
X103133666Y-113086809D01*
X103086047Y-112991571D01*
X103038428Y-112943952D01*
X102943190Y-112896333D01*
X102752714Y-112896333D01*
X102657476Y-112943952D01*
X102609857Y-112991571D01*
X102562238Y-113086809D01*
%TO.C,R23*%
X113468380Y-98465857D02*
X112992190Y-98799190D01*
X113468380Y-99037285D02*
X112468380Y-99037285D01*
X112468380Y-98656333D01*
X112516000Y-98561095D01*
X112563619Y-98513476D01*
X112658857Y-98465857D01*
X112801714Y-98465857D01*
X112896952Y-98513476D01*
X112944571Y-98561095D01*
X112992190Y-98656333D01*
X112992190Y-99037285D01*
X112563619Y-98084904D02*
X112516000Y-98037285D01*
X112468380Y-97942047D01*
X112468380Y-97703952D01*
X112516000Y-97608714D01*
X112563619Y-97561095D01*
X112658857Y-97513476D01*
X112754095Y-97513476D01*
X112896952Y-97561095D01*
X113468380Y-98132523D01*
X113468380Y-97513476D01*
X112468380Y-97180142D02*
X112468380Y-96561095D01*
X112849333Y-96894428D01*
X112849333Y-96751571D01*
X112896952Y-96656333D01*
X112944571Y-96608714D01*
X113039809Y-96561095D01*
X113277904Y-96561095D01*
X113373142Y-96608714D01*
X113420761Y-96656333D01*
X113468380Y-96751571D01*
X113468380Y-97037285D01*
X113420761Y-97132523D01*
X113373142Y-97180142D01*
%TO.C,R25*%
X114786142Y-96497380D02*
X114452809Y-96021190D01*
X114214714Y-96497380D02*
X114214714Y-95497380D01*
X114595666Y-95497380D01*
X114690904Y-95545000D01*
X114738523Y-95592619D01*
X114786142Y-95687857D01*
X114786142Y-95830714D01*
X114738523Y-95925952D01*
X114690904Y-95973571D01*
X114595666Y-96021190D01*
X114214714Y-96021190D01*
X115167095Y-95592619D02*
X115214714Y-95545000D01*
X115309952Y-95497380D01*
X115548047Y-95497380D01*
X115643285Y-95545000D01*
X115690904Y-95592619D01*
X115738523Y-95687857D01*
X115738523Y-95783095D01*
X115690904Y-95925952D01*
X115119476Y-96497380D01*
X115738523Y-96497380D01*
X116643285Y-95497380D02*
X116167095Y-95497380D01*
X116119476Y-95973571D01*
X116167095Y-95925952D01*
X116262333Y-95878333D01*
X116500428Y-95878333D01*
X116595666Y-95925952D01*
X116643285Y-95973571D01*
X116690904Y-96068809D01*
X116690904Y-96306904D01*
X116643285Y-96402142D01*
X116595666Y-96449761D01*
X116500428Y-96497380D01*
X116262333Y-96497380D01*
X116167095Y-96449761D01*
X116119476Y-96402142D01*
%TO.C,F1*%
X126398666Y-102196571D02*
X126065333Y-102196571D01*
X126065333Y-102720380D02*
X126065333Y-101720380D01*
X126541523Y-101720380D01*
X127446285Y-102720380D02*
X126874857Y-102720380D01*
X127160571Y-102720380D02*
X127160571Y-101720380D01*
X127065333Y-101863238D01*
X126970095Y-101958476D01*
X126874857Y-102006095D01*
%TO.C,KP1*%
X101657380Y-101855095D02*
X100657380Y-101855095D01*
X101657380Y-101283666D02*
X101085952Y-101712238D01*
X100657380Y-101283666D02*
X101228809Y-101855095D01*
X101657380Y-100855095D02*
X100657380Y-100855095D01*
X100657380Y-100474142D01*
X100705000Y-100378904D01*
X100752619Y-100331285D01*
X100847857Y-100283666D01*
X100990714Y-100283666D01*
X101085952Y-100331285D01*
X101133571Y-100378904D01*
X101181190Y-100474142D01*
X101181190Y-100855095D01*
X101657380Y-99331285D02*
X101657380Y-99902714D01*
X101657380Y-99617000D02*
X100657380Y-99617000D01*
X100800238Y-99712238D01*
X100895476Y-99807476D01*
X100943095Y-99902714D01*
%TO.C,C17*%
X102848142Y-100212142D02*
X102800523Y-100259761D01*
X102657666Y-100307380D01*
X102562428Y-100307380D01*
X102419571Y-100259761D01*
X102324333Y-100164523D01*
X102276714Y-100069285D01*
X102229095Y-99878809D01*
X102229095Y-99735952D01*
X102276714Y-99545476D01*
X102324333Y-99450238D01*
X102419571Y-99355000D01*
X102562428Y-99307380D01*
X102657666Y-99307380D01*
X102800523Y-99355000D01*
X102848142Y-99402619D01*
X103800523Y-100307380D02*
X103229095Y-100307380D01*
X103514809Y-100307380D02*
X103514809Y-99307380D01*
X103419571Y-99450238D01*
X103324333Y-99545476D01*
X103229095Y-99593095D01*
X104133857Y-99307380D02*
X104800523Y-99307380D01*
X104371952Y-100307380D01*
%TO.C,J6*%
X99768380Y-97648333D02*
X100482666Y-97648333D01*
X100625523Y-97695952D01*
X100720761Y-97791190D01*
X100768380Y-97934047D01*
X100768380Y-98029285D01*
X99768380Y-96743571D02*
X99768380Y-96934047D01*
X99816000Y-97029285D01*
X99863619Y-97076904D01*
X100006476Y-97172142D01*
X100196952Y-97219761D01*
X100577904Y-97219761D01*
X100673142Y-97172142D01*
X100720761Y-97124523D01*
X100768380Y-97029285D01*
X100768380Y-96838809D01*
X100720761Y-96743571D01*
X100673142Y-96695952D01*
X100577904Y-96648333D01*
X100339809Y-96648333D01*
X100244571Y-96695952D01*
X100196952Y-96743571D01*
X100149333Y-96838809D01*
X100149333Y-97029285D01*
X100196952Y-97124523D01*
X100244571Y-97172142D01*
X100339809Y-97219761D01*
%TO.C,J1*%
X90711666Y-112515380D02*
X90711666Y-113229666D01*
X90664047Y-113372523D01*
X90568809Y-113467761D01*
X90425952Y-113515380D01*
X90330714Y-113515380D01*
X91711666Y-113515380D02*
X91140238Y-113515380D01*
X91425952Y-113515380D02*
X91425952Y-112515380D01*
X91330714Y-112658238D01*
X91235476Y-112753476D01*
X91140238Y-112801095D01*
%TO.C,J3*%
X118016666Y-114928380D02*
X118016666Y-115642666D01*
X117969047Y-115785523D01*
X117873809Y-115880761D01*
X117730952Y-115928380D01*
X117635714Y-115928380D01*
X118397619Y-114928380D02*
X119016666Y-114928380D01*
X118683333Y-115309333D01*
X118826190Y-115309333D01*
X118921428Y-115356952D01*
X118969047Y-115404571D01*
X119016666Y-115499809D01*
X119016666Y-115737904D01*
X118969047Y-115833142D01*
X118921428Y-115880761D01*
X118826190Y-115928380D01*
X118540476Y-115928380D01*
X118445238Y-115880761D01*
X118397619Y-115833142D01*
%TO.C,J4*%
X127922666Y-114928380D02*
X127922666Y-115642666D01*
X127875047Y-115785523D01*
X127779809Y-115880761D01*
X127636952Y-115928380D01*
X127541714Y-115928380D01*
X128827428Y-115261714D02*
X128827428Y-115928380D01*
X128589333Y-114880761D02*
X128351238Y-115595047D01*
X128970285Y-115595047D01*
%TO.C,U7*%
X104253095Y-97654380D02*
X104253095Y-98463904D01*
X104300714Y-98559142D01*
X104348333Y-98606761D01*
X104443571Y-98654380D01*
X104634047Y-98654380D01*
X104729285Y-98606761D01*
X104776904Y-98559142D01*
X104824523Y-98463904D01*
X104824523Y-97654380D01*
X105205476Y-97654380D02*
X105872142Y-97654380D01*
X105443571Y-98654380D01*
%TO.C,J5*%
X112254666Y-112920380D02*
X112254666Y-113634666D01*
X112207047Y-113777523D01*
X112111809Y-113872761D01*
X111968952Y-113920380D01*
X111873714Y-113920380D01*
X113207047Y-112920380D02*
X112730857Y-112920380D01*
X112683238Y-113396571D01*
X112730857Y-113348952D01*
X112826095Y-113301333D01*
X113064190Y-113301333D01*
X113159428Y-113348952D01*
X113207047Y-113396571D01*
X113254666Y-113491809D01*
X113254666Y-113729904D01*
X113207047Y-113825142D01*
X113159428Y-113872761D01*
X113064190Y-113920380D01*
X112826095Y-113920380D01*
X112730857Y-113872761D01*
X112683238Y-113825142D01*
%TO.C,F2*%
X132367666Y-102196571D02*
X132034333Y-102196571D01*
X132034333Y-102720380D02*
X132034333Y-101720380D01*
X132510523Y-101720380D01*
X132843857Y-101815619D02*
X132891476Y-101768000D01*
X132986714Y-101720380D01*
X133224809Y-101720380D01*
X133320047Y-101768000D01*
X133367666Y-101815619D01*
X133415285Y-101910857D01*
X133415285Y-102006095D01*
X133367666Y-102148952D01*
X132796238Y-102720380D01*
X133415285Y-102720380D01*
%TO.C,J2*%
X89187666Y-98799380D02*
X89187666Y-99513666D01*
X89140047Y-99656523D01*
X89044809Y-99751761D01*
X88901952Y-99799380D01*
X88806714Y-99799380D01*
X89616238Y-98894619D02*
X89663857Y-98847000D01*
X89759095Y-98799380D01*
X89997190Y-98799380D01*
X90092428Y-98847000D01*
X90140047Y-98894619D01*
X90187666Y-98989857D01*
X90187666Y-99085095D01*
X90140047Y-99227952D01*
X89568619Y-99799380D01*
X90187666Y-99799380D01*
%TO.C,JP1*%
X95799666Y-113150380D02*
X95799666Y-113864666D01*
X95752047Y-114007523D01*
X95656809Y-114102761D01*
X95513952Y-114150380D01*
X95418714Y-114150380D01*
X96275857Y-114150380D02*
X96275857Y-113150380D01*
X96656809Y-113150380D01*
X96752047Y-113198000D01*
X96799666Y-113245619D01*
X96847285Y-113340857D01*
X96847285Y-113483714D01*
X96799666Y-113578952D01*
X96752047Y-113626571D01*
X96656809Y-113674190D01*
X96275857Y-113674190D01*
X97799666Y-114150380D02*
X97228238Y-114150380D01*
X97513952Y-114150380D02*
X97513952Y-113150380D01*
X97418714Y-113293238D01*
X97323476Y-113388476D01*
X97228238Y-113436095D01*
%TO.C,C3*%
X96212333Y-98180142D02*
X96164714Y-98227761D01*
X96021857Y-98275380D01*
X95926619Y-98275380D01*
X95783761Y-98227761D01*
X95688523Y-98132523D01*
X95640904Y-98037285D01*
X95593285Y-97846809D01*
X95593285Y-97703952D01*
X95640904Y-97513476D01*
X95688523Y-97418238D01*
X95783761Y-97323000D01*
X95926619Y-97275380D01*
X96021857Y-97275380D01*
X96164714Y-97323000D01*
X96212333Y-97370619D01*
X96545666Y-97275380D02*
X97164714Y-97275380D01*
X96831380Y-97656333D01*
X96974238Y-97656333D01*
X97069476Y-97703952D01*
X97117095Y-97751571D01*
X97164714Y-97846809D01*
X97164714Y-98084904D01*
X97117095Y-98180142D01*
X97069476Y-98227761D01*
X96974238Y-98275380D01*
X96688523Y-98275380D01*
X96593285Y-98227761D01*
X96545666Y-98180142D01*
%TO.C,C1*%
X118310333Y-96656142D02*
X118262714Y-96703761D01*
X118119857Y-96751380D01*
X118024619Y-96751380D01*
X117881761Y-96703761D01*
X117786523Y-96608523D01*
X117738904Y-96513285D01*
X117691285Y-96322809D01*
X117691285Y-96179952D01*
X117738904Y-95989476D01*
X117786523Y-95894238D01*
X117881761Y-95799000D01*
X118024619Y-95751380D01*
X118119857Y-95751380D01*
X118262714Y-95799000D01*
X118310333Y-95846619D01*
X119262714Y-96751380D02*
X118691285Y-96751380D01*
X118977000Y-96751380D02*
X118977000Y-95751380D01*
X118881761Y-95894238D01*
X118786523Y-95989476D01*
X118691285Y-96037095D01*
%TO.C,C2*%
X127962333Y-96656142D02*
X127914714Y-96703761D01*
X127771857Y-96751380D01*
X127676619Y-96751380D01*
X127533761Y-96703761D01*
X127438523Y-96608523D01*
X127390904Y-96513285D01*
X127343285Y-96322809D01*
X127343285Y-96179952D01*
X127390904Y-95989476D01*
X127438523Y-95894238D01*
X127533761Y-95799000D01*
X127676619Y-95751380D01*
X127771857Y-95751380D01*
X127914714Y-95799000D01*
X127962333Y-95846619D01*
X128343285Y-95846619D02*
X128390904Y-95799000D01*
X128486142Y-95751380D01*
X128724238Y-95751380D01*
X128819476Y-95799000D01*
X128867095Y-95846619D01*
X128914714Y-95941857D01*
X128914714Y-96037095D01*
X128867095Y-96179952D01*
X128295666Y-96751380D01*
X128914714Y-96751380D01*
%TO.C,D3*%
X122818904Y-98275380D02*
X122818904Y-97275380D01*
X123057000Y-97275380D01*
X123199857Y-97323000D01*
X123295095Y-97418238D01*
X123342714Y-97513476D01*
X123390333Y-97703952D01*
X123390333Y-97846809D01*
X123342714Y-98037285D01*
X123295095Y-98132523D01*
X123199857Y-98227761D01*
X123057000Y-98275380D01*
X122818904Y-98275380D01*
X123723666Y-97275380D02*
X124342714Y-97275380D01*
X124009380Y-97656333D01*
X124152238Y-97656333D01*
X124247476Y-97703952D01*
X124295095Y-97751571D01*
X124342714Y-97846809D01*
X124342714Y-98084904D01*
X124295095Y-98180142D01*
X124247476Y-98227761D01*
X124152238Y-98275380D01*
X123866523Y-98275380D01*
X123771285Y-98227761D01*
X123723666Y-98180142D01*
%TO.C,D4*%
X132724904Y-98275380D02*
X132724904Y-97275380D01*
X132963000Y-97275380D01*
X133105857Y-97323000D01*
X133201095Y-97418238D01*
X133248714Y-97513476D01*
X133296333Y-97703952D01*
X133296333Y-97846809D01*
X133248714Y-98037285D01*
X133201095Y-98132523D01*
X133105857Y-98227761D01*
X132963000Y-98275380D01*
X132724904Y-98275380D01*
X134153476Y-97608714D02*
X134153476Y-98275380D01*
X133915380Y-97227761D02*
X133677285Y-97942047D01*
X134296333Y-97942047D01*
%TO.C,R1*%
X117738833Y-93703380D02*
X117405500Y-93227190D01*
X117167404Y-93703380D02*
X117167404Y-92703380D01*
X117548357Y-92703380D01*
X117643595Y-92751000D01*
X117691214Y-92798619D01*
X117738833Y-92893857D01*
X117738833Y-93036714D01*
X117691214Y-93131952D01*
X117643595Y-93179571D01*
X117548357Y-93227190D01*
X117167404Y-93227190D01*
X118691214Y-93703380D02*
X118119785Y-93703380D01*
X118405500Y-93703380D02*
X118405500Y-92703380D01*
X118310261Y-92846238D01*
X118215023Y-92941476D01*
X118119785Y-92989095D01*
%TO.C,R2*%
X127454333Y-93703380D02*
X127121000Y-93227190D01*
X126882904Y-93703380D02*
X126882904Y-92703380D01*
X127263857Y-92703380D01*
X127359095Y-92751000D01*
X127406714Y-92798619D01*
X127454333Y-92893857D01*
X127454333Y-93036714D01*
X127406714Y-93131952D01*
X127359095Y-93179571D01*
X127263857Y-93227190D01*
X126882904Y-93227190D01*
X127835285Y-92798619D02*
X127882904Y-92751000D01*
X127978142Y-92703380D01*
X128216238Y-92703380D01*
X128311476Y-92751000D01*
X128359095Y-92798619D01*
X128406714Y-92893857D01*
X128406714Y-92989095D01*
X128359095Y-93131952D01*
X127787666Y-93703380D01*
X128406714Y-93703380D01*
%TO.C,R5*%
X125422333Y-93195380D02*
X125089000Y-92719190D01*
X124850904Y-93195380D02*
X124850904Y-92195380D01*
X125231857Y-92195380D01*
X125327095Y-92243000D01*
X125374714Y-92290619D01*
X125422333Y-92385857D01*
X125422333Y-92528714D01*
X125374714Y-92623952D01*
X125327095Y-92671571D01*
X125231857Y-92719190D01*
X124850904Y-92719190D01*
X126327095Y-92195380D02*
X125850904Y-92195380D01*
X125803285Y-92671571D01*
X125850904Y-92623952D01*
X125946142Y-92576333D01*
X126184238Y-92576333D01*
X126279476Y-92623952D01*
X126327095Y-92671571D01*
X126374714Y-92766809D01*
X126374714Y-93004904D01*
X126327095Y-93100142D01*
X126279476Y-93147761D01*
X126184238Y-93195380D01*
X125946142Y-93195380D01*
X125850904Y-93147761D01*
X125803285Y-93100142D01*
%TO.C,C4*%
X109801333Y-94751142D02*
X109753714Y-94798761D01*
X109610857Y-94846380D01*
X109515619Y-94846380D01*
X109372761Y-94798761D01*
X109277523Y-94703523D01*
X109229904Y-94608285D01*
X109182285Y-94417809D01*
X109182285Y-94274952D01*
X109229904Y-94084476D01*
X109277523Y-93989238D01*
X109372761Y-93894000D01*
X109515619Y-93846380D01*
X109610857Y-93846380D01*
X109753714Y-93894000D01*
X109801333Y-93941619D01*
X110658476Y-94179714D02*
X110658476Y-94846380D01*
X110420380Y-93798761D02*
X110182285Y-94513047D01*
X110801333Y-94513047D01*
%TO.C,R6*%
X118056333Y-95227380D02*
X117723000Y-94751190D01*
X117484904Y-95227380D02*
X117484904Y-94227380D01*
X117865857Y-94227380D01*
X117961095Y-94275000D01*
X118008714Y-94322619D01*
X118056333Y-94417857D01*
X118056333Y-94560714D01*
X118008714Y-94655952D01*
X117961095Y-94703571D01*
X117865857Y-94751190D01*
X117484904Y-94751190D01*
X118913476Y-94227380D02*
X118723000Y-94227380D01*
X118627761Y-94275000D01*
X118580142Y-94322619D01*
X118484904Y-94465476D01*
X118437285Y-94655952D01*
X118437285Y-95036904D01*
X118484904Y-95132142D01*
X118532523Y-95179761D01*
X118627761Y-95227380D01*
X118818238Y-95227380D01*
X118913476Y-95179761D01*
X118961095Y-95132142D01*
X119008714Y-95036904D01*
X119008714Y-94798809D01*
X118961095Y-94703571D01*
X118913476Y-94655952D01*
X118818238Y-94608333D01*
X118627761Y-94608333D01*
X118532523Y-94655952D01*
X118484904Y-94703571D01*
X118437285Y-94798809D01*
%TO.C,R8*%
X135328333Y-93195380D02*
X134995000Y-92719190D01*
X134756904Y-93195380D02*
X134756904Y-92195380D01*
X135137857Y-92195380D01*
X135233095Y-92243000D01*
X135280714Y-92290619D01*
X135328333Y-92385857D01*
X135328333Y-92528714D01*
X135280714Y-92623952D01*
X135233095Y-92671571D01*
X135137857Y-92719190D01*
X134756904Y-92719190D01*
X135899761Y-92623952D02*
X135804523Y-92576333D01*
X135756904Y-92528714D01*
X135709285Y-92433476D01*
X135709285Y-92385857D01*
X135756904Y-92290619D01*
X135804523Y-92243000D01*
X135899761Y-92195380D01*
X136090238Y-92195380D01*
X136185476Y-92243000D01*
X136233095Y-92290619D01*
X136280714Y-92385857D01*
X136280714Y-92433476D01*
X136233095Y-92528714D01*
X136185476Y-92576333D01*
X136090238Y-92623952D01*
X135899761Y-92623952D01*
X135804523Y-92671571D01*
X135756904Y-92719190D01*
X135709285Y-92814428D01*
X135709285Y-93004904D01*
X135756904Y-93100142D01*
X135804523Y-93147761D01*
X135899761Y-93195380D01*
X136090238Y-93195380D01*
X136185476Y-93147761D01*
X136233095Y-93100142D01*
X136280714Y-93004904D01*
X136280714Y-92814428D01*
X136233095Y-92719190D01*
X136185476Y-92671571D01*
X136090238Y-92623952D01*
%TO.C,R9*%
X127962333Y-95227380D02*
X127629000Y-94751190D01*
X127390904Y-95227380D02*
X127390904Y-94227380D01*
X127771857Y-94227380D01*
X127867095Y-94275000D01*
X127914714Y-94322619D01*
X127962333Y-94417857D01*
X127962333Y-94560714D01*
X127914714Y-94655952D01*
X127867095Y-94703571D01*
X127771857Y-94751190D01*
X127390904Y-94751190D01*
X128438523Y-95227380D02*
X128629000Y-95227380D01*
X128724238Y-95179761D01*
X128771857Y-95132142D01*
X128867095Y-94989285D01*
X128914714Y-94798809D01*
X128914714Y-94417857D01*
X128867095Y-94322619D01*
X128819476Y-94275000D01*
X128724238Y-94227380D01*
X128533761Y-94227380D01*
X128438523Y-94275000D01*
X128390904Y-94322619D01*
X128343285Y-94417857D01*
X128343285Y-94655952D01*
X128390904Y-94751190D01*
X128438523Y-94798809D01*
X128533761Y-94846428D01*
X128724238Y-94846428D01*
X128819476Y-94798809D01*
X128867095Y-94751190D01*
X128914714Y-94655952D01*
%TO.C,C9*%
X122390142Y-110054666D02*
X122437761Y-110102285D01*
X122485380Y-110245142D01*
X122485380Y-110340380D01*
X122437761Y-110483238D01*
X122342523Y-110578476D01*
X122247285Y-110626095D01*
X122056809Y-110673714D01*
X121913952Y-110673714D01*
X121723476Y-110626095D01*
X121628238Y-110578476D01*
X121533000Y-110483238D01*
X121485380Y-110340380D01*
X121485380Y-110245142D01*
X121533000Y-110102285D01*
X121580619Y-110054666D01*
X122485380Y-109578476D02*
X122485380Y-109388000D01*
X122437761Y-109292761D01*
X122390142Y-109245142D01*
X122247285Y-109149904D01*
X122056809Y-109102285D01*
X121675857Y-109102285D01*
X121580619Y-109149904D01*
X121533000Y-109197523D01*
X121485380Y-109292761D01*
X121485380Y-109483238D01*
X121533000Y-109578476D01*
X121580619Y-109626095D01*
X121675857Y-109673714D01*
X121913952Y-109673714D01*
X122009190Y-109626095D01*
X122056809Y-109578476D01*
X122104428Y-109483238D01*
X122104428Y-109292761D01*
X122056809Y-109197523D01*
X122009190Y-109149904D01*
X121913952Y-109102285D01*
%TO.C,C10*%
X122517142Y-107101857D02*
X122564761Y-107149476D01*
X122612380Y-107292333D01*
X122612380Y-107387571D01*
X122564761Y-107530428D01*
X122469523Y-107625666D01*
X122374285Y-107673285D01*
X122183809Y-107720904D01*
X122040952Y-107720904D01*
X121850476Y-107673285D01*
X121755238Y-107625666D01*
X121660000Y-107530428D01*
X121612380Y-107387571D01*
X121612380Y-107292333D01*
X121660000Y-107149476D01*
X121707619Y-107101857D01*
X122612380Y-106149476D02*
X122612380Y-106720904D01*
X122612380Y-106435190D02*
X121612380Y-106435190D01*
X121755238Y-106530428D01*
X121850476Y-106625666D01*
X121898095Y-106720904D01*
X121612380Y-105530428D02*
X121612380Y-105435190D01*
X121660000Y-105339952D01*
X121707619Y-105292333D01*
X121802857Y-105244714D01*
X121993333Y-105197095D01*
X122231428Y-105197095D01*
X122421904Y-105244714D01*
X122517142Y-105292333D01*
X122564761Y-105339952D01*
X122612380Y-105435190D01*
X122612380Y-105530428D01*
X122564761Y-105625666D01*
X122517142Y-105673285D01*
X122421904Y-105720904D01*
X122231428Y-105768523D01*
X121993333Y-105768523D01*
X121802857Y-105720904D01*
X121707619Y-105673285D01*
X121660000Y-105625666D01*
X121612380Y-105530428D01*
%TO.C,C11*%
X132423142Y-110657857D02*
X132470761Y-110705476D01*
X132518380Y-110848333D01*
X132518380Y-110943571D01*
X132470761Y-111086428D01*
X132375523Y-111181666D01*
X132280285Y-111229285D01*
X132089809Y-111276904D01*
X131946952Y-111276904D01*
X131756476Y-111229285D01*
X131661238Y-111181666D01*
X131566000Y-111086428D01*
X131518380Y-110943571D01*
X131518380Y-110848333D01*
X131566000Y-110705476D01*
X131613619Y-110657857D01*
X132518380Y-109705476D02*
X132518380Y-110276904D01*
X132518380Y-109991190D02*
X131518380Y-109991190D01*
X131661238Y-110086428D01*
X131756476Y-110181666D01*
X131804095Y-110276904D01*
X132518380Y-108753095D02*
X132518380Y-109324523D01*
X132518380Y-109038809D02*
X131518380Y-109038809D01*
X131661238Y-109134047D01*
X131756476Y-109229285D01*
X131804095Y-109324523D01*
%TO.C,C12*%
X132423142Y-107101857D02*
X132470761Y-107149476D01*
X132518380Y-107292333D01*
X132518380Y-107387571D01*
X132470761Y-107530428D01*
X132375523Y-107625666D01*
X132280285Y-107673285D01*
X132089809Y-107720904D01*
X131946952Y-107720904D01*
X131756476Y-107673285D01*
X131661238Y-107625666D01*
X131566000Y-107530428D01*
X131518380Y-107387571D01*
X131518380Y-107292333D01*
X131566000Y-107149476D01*
X131613619Y-107101857D01*
X132518380Y-106149476D02*
X132518380Y-106720904D01*
X132518380Y-106435190D02*
X131518380Y-106435190D01*
X131661238Y-106530428D01*
X131756476Y-106625666D01*
X131804095Y-106720904D01*
X131613619Y-105768523D02*
X131566000Y-105720904D01*
X131518380Y-105625666D01*
X131518380Y-105387571D01*
X131566000Y-105292333D01*
X131613619Y-105244714D01*
X131708857Y-105197095D01*
X131804095Y-105197095D01*
X131946952Y-105244714D01*
X132518380Y-105816142D01*
X132518380Y-105197095D01*
%TO.C,R21*%
X129057142Y-103609380D02*
X128723809Y-103133190D01*
X128485714Y-103609380D02*
X128485714Y-102609380D01*
X128866666Y-102609380D01*
X128961904Y-102657000D01*
X129009523Y-102704619D01*
X129057142Y-102799857D01*
X129057142Y-102942714D01*
X129009523Y-103037952D01*
X128961904Y-103085571D01*
X128866666Y-103133190D01*
X128485714Y-103133190D01*
X129438095Y-102704619D02*
X129485714Y-102657000D01*
X129580952Y-102609380D01*
X129819047Y-102609380D01*
X129914285Y-102657000D01*
X129961904Y-102704619D01*
X130009523Y-102799857D01*
X130009523Y-102895095D01*
X129961904Y-103037952D01*
X129390476Y-103609380D01*
X130009523Y-103609380D01*
X130961904Y-103609380D02*
X130390476Y-103609380D01*
X130676190Y-103609380D02*
X130676190Y-102609380D01*
X130580952Y-102752238D01*
X130485714Y-102847476D01*
X130390476Y-102895095D01*
%TO.C,JP2*%
X95672666Y-110102380D02*
X95672666Y-110816666D01*
X95625047Y-110959523D01*
X95529809Y-111054761D01*
X95386952Y-111102380D01*
X95291714Y-111102380D01*
X96148857Y-111102380D02*
X96148857Y-110102380D01*
X96529809Y-110102380D01*
X96625047Y-110150000D01*
X96672666Y-110197619D01*
X96720285Y-110292857D01*
X96720285Y-110435714D01*
X96672666Y-110530952D01*
X96625047Y-110578571D01*
X96529809Y-110626190D01*
X96148857Y-110626190D01*
X97101238Y-110197619D02*
X97148857Y-110150000D01*
X97244095Y-110102380D01*
X97482190Y-110102380D01*
X97577428Y-110150000D01*
X97625047Y-110197619D01*
X97672666Y-110292857D01*
X97672666Y-110388095D01*
X97625047Y-110530952D01*
X97053619Y-111102380D01*
X97672666Y-111102380D01*
%TO.C,R18*%
X122025142Y-112880380D02*
X121691809Y-112404190D01*
X121453714Y-112880380D02*
X121453714Y-111880380D01*
X121834666Y-111880380D01*
X121929904Y-111928000D01*
X121977523Y-111975619D01*
X122025142Y-112070857D01*
X122025142Y-112213714D01*
X121977523Y-112308952D01*
X121929904Y-112356571D01*
X121834666Y-112404190D01*
X121453714Y-112404190D01*
X122977523Y-112880380D02*
X122406095Y-112880380D01*
X122691809Y-112880380D02*
X122691809Y-111880380D01*
X122596571Y-112023238D01*
X122501333Y-112118476D01*
X122406095Y-112166095D01*
X123548952Y-112308952D02*
X123453714Y-112261333D01*
X123406095Y-112213714D01*
X123358476Y-112118476D01*
X123358476Y-112070857D01*
X123406095Y-111975619D01*
X123453714Y-111928000D01*
X123548952Y-111880380D01*
X123739428Y-111880380D01*
X123834666Y-111928000D01*
X123882285Y-111975619D01*
X123929904Y-112070857D01*
X123929904Y-112118476D01*
X123882285Y-112213714D01*
X123834666Y-112261333D01*
X123739428Y-112308952D01*
X123548952Y-112308952D01*
X123453714Y-112356571D01*
X123406095Y-112404190D01*
X123358476Y-112499428D01*
X123358476Y-112689904D01*
X123406095Y-112785142D01*
X123453714Y-112832761D01*
X123548952Y-112880380D01*
X123739428Y-112880380D01*
X123834666Y-112832761D01*
X123882285Y-112785142D01*
X123929904Y-112689904D01*
X123929904Y-112499428D01*
X123882285Y-112404190D01*
X123834666Y-112356571D01*
X123739428Y-112308952D01*
%TO.C,R19*%
X120628142Y-103482380D02*
X120294809Y-103006190D01*
X120056714Y-103482380D02*
X120056714Y-102482380D01*
X120437666Y-102482380D01*
X120532904Y-102530000D01*
X120580523Y-102577619D01*
X120628142Y-102672857D01*
X120628142Y-102815714D01*
X120580523Y-102910952D01*
X120532904Y-102958571D01*
X120437666Y-103006190D01*
X120056714Y-103006190D01*
X121580523Y-103482380D02*
X121009095Y-103482380D01*
X121294809Y-103482380D02*
X121294809Y-102482380D01*
X121199571Y-102625238D01*
X121104333Y-102720476D01*
X121009095Y-102768095D01*
X122056714Y-103482380D02*
X122247190Y-103482380D01*
X122342428Y-103434761D01*
X122390047Y-103387142D01*
X122485285Y-103244285D01*
X122532904Y-103053809D01*
X122532904Y-102672857D01*
X122485285Y-102577619D01*
X122437666Y-102530000D01*
X122342428Y-102482380D01*
X122151952Y-102482380D01*
X122056714Y-102530000D01*
X122009095Y-102577619D01*
X121961476Y-102672857D01*
X121961476Y-102910952D01*
X122009095Y-103006190D01*
X122056714Y-103053809D01*
X122151952Y-103101428D01*
X122342428Y-103101428D01*
X122437666Y-103053809D01*
X122485285Y-103006190D01*
X122532904Y-102910952D01*
%TO.C,R20*%
X132058142Y-112880380D02*
X131724809Y-112404190D01*
X131486714Y-112880380D02*
X131486714Y-111880380D01*
X131867666Y-111880380D01*
X131962904Y-111928000D01*
X132010523Y-111975619D01*
X132058142Y-112070857D01*
X132058142Y-112213714D01*
X132010523Y-112308952D01*
X131962904Y-112356571D01*
X131867666Y-112404190D01*
X131486714Y-112404190D01*
X132439095Y-111975619D02*
X132486714Y-111928000D01*
X132581952Y-111880380D01*
X132820047Y-111880380D01*
X132915285Y-111928000D01*
X132962904Y-111975619D01*
X133010523Y-112070857D01*
X133010523Y-112166095D01*
X132962904Y-112308952D01*
X132391476Y-112880380D01*
X133010523Y-112880380D01*
X133629571Y-111880380D02*
X133724809Y-111880380D01*
X133820047Y-111928000D01*
X133867666Y-111975619D01*
X133915285Y-112070857D01*
X133962904Y-112261333D01*
X133962904Y-112499428D01*
X133915285Y-112689904D01*
X133867666Y-112785142D01*
X133820047Y-112832761D01*
X133724809Y-112880380D01*
X133629571Y-112880380D01*
X133534333Y-112832761D01*
X133486714Y-112785142D01*
X133439095Y-112689904D01*
X133391476Y-112499428D01*
X133391476Y-112261333D01*
X133439095Y-112070857D01*
X133486714Y-111975619D01*
X133534333Y-111928000D01*
X133629571Y-111880380D01*
%TO.C,J5*%
X112254666Y-87920380D02*
X112254666Y-88634666D01*
X112207047Y-88777523D01*
X112111809Y-88872761D01*
X111968952Y-88920380D01*
X111873714Y-88920380D01*
X113207047Y-87920380D02*
X112730857Y-87920380D01*
X112683238Y-88396571D01*
X112730857Y-88348952D01*
X112826095Y-88301333D01*
X113064190Y-88301333D01*
X113159428Y-88348952D01*
X113207047Y-88396571D01*
X113254666Y-88491809D01*
X113254666Y-88729904D01*
X113207047Y-88825142D01*
X113159428Y-88872761D01*
X113064190Y-88920380D01*
X112826095Y-88920380D01*
X112730857Y-88872761D01*
X112683238Y-88825142D01*
%TO.C,U7*%
X104253095Y-72654380D02*
X104253095Y-73463904D01*
X104300714Y-73559142D01*
X104348333Y-73606761D01*
X104443571Y-73654380D01*
X104634047Y-73654380D01*
X104729285Y-73606761D01*
X104776904Y-73559142D01*
X104824523Y-73463904D01*
X104824523Y-72654380D01*
X105205476Y-72654380D02*
X105872142Y-72654380D01*
X105443571Y-73654380D01*
%TO.C,J4*%
X127922666Y-89928380D02*
X127922666Y-90642666D01*
X127875047Y-90785523D01*
X127779809Y-90880761D01*
X127636952Y-90928380D01*
X127541714Y-90928380D01*
X128827428Y-90261714D02*
X128827428Y-90928380D01*
X128589333Y-89880761D02*
X128351238Y-90595047D01*
X128970285Y-90595047D01*
%TO.C,J3*%
X118016666Y-89928380D02*
X118016666Y-90642666D01*
X117969047Y-90785523D01*
X117873809Y-90880761D01*
X117730952Y-90928380D01*
X117635714Y-90928380D01*
X118397619Y-89928380D02*
X119016666Y-89928380D01*
X118683333Y-90309333D01*
X118826190Y-90309333D01*
X118921428Y-90356952D01*
X118969047Y-90404571D01*
X119016666Y-90499809D01*
X119016666Y-90737904D01*
X118969047Y-90833142D01*
X118921428Y-90880761D01*
X118826190Y-90928380D01*
X118540476Y-90928380D01*
X118445238Y-90880761D01*
X118397619Y-90833142D01*
%TO.C,J1*%
X90711666Y-87515380D02*
X90711666Y-88229666D01*
X90664047Y-88372523D01*
X90568809Y-88467761D01*
X90425952Y-88515380D01*
X90330714Y-88515380D01*
X91711666Y-88515380D02*
X91140238Y-88515380D01*
X91425952Y-88515380D02*
X91425952Y-87515380D01*
X91330714Y-87658238D01*
X91235476Y-87753476D01*
X91140238Y-87801095D01*
%TO.C,J6*%
X99768380Y-72648333D02*
X100482666Y-72648333D01*
X100625523Y-72695952D01*
X100720761Y-72791190D01*
X100768380Y-72934047D01*
X100768380Y-73029285D01*
X99768380Y-71743571D02*
X99768380Y-71934047D01*
X99816000Y-72029285D01*
X99863619Y-72076904D01*
X100006476Y-72172142D01*
X100196952Y-72219761D01*
X100577904Y-72219761D01*
X100673142Y-72172142D01*
X100720761Y-72124523D01*
X100768380Y-72029285D01*
X100768380Y-71838809D01*
X100720761Y-71743571D01*
X100673142Y-71695952D01*
X100577904Y-71648333D01*
X100339809Y-71648333D01*
X100244571Y-71695952D01*
X100196952Y-71743571D01*
X100149333Y-71838809D01*
X100149333Y-72029285D01*
X100196952Y-72124523D01*
X100244571Y-72172142D01*
X100339809Y-72219761D01*
%TO.C,C17*%
X102848142Y-75212142D02*
X102800523Y-75259761D01*
X102657666Y-75307380D01*
X102562428Y-75307380D01*
X102419571Y-75259761D01*
X102324333Y-75164523D01*
X102276714Y-75069285D01*
X102229095Y-74878809D01*
X102229095Y-74735952D01*
X102276714Y-74545476D01*
X102324333Y-74450238D01*
X102419571Y-74355000D01*
X102562428Y-74307380D01*
X102657666Y-74307380D01*
X102800523Y-74355000D01*
X102848142Y-74402619D01*
X103800523Y-75307380D02*
X103229095Y-75307380D01*
X103514809Y-75307380D02*
X103514809Y-74307380D01*
X103419571Y-74450238D01*
X103324333Y-74545476D01*
X103229095Y-74593095D01*
X104133857Y-74307380D02*
X104800523Y-74307380D01*
X104371952Y-75307380D01*
%TO.C,KP1*%
X101657380Y-76855095D02*
X100657380Y-76855095D01*
X101657380Y-76283666D02*
X101085952Y-76712238D01*
X100657380Y-76283666D02*
X101228809Y-76855095D01*
X101657380Y-75855095D02*
X100657380Y-75855095D01*
X100657380Y-75474142D01*
X100705000Y-75378904D01*
X100752619Y-75331285D01*
X100847857Y-75283666D01*
X100990714Y-75283666D01*
X101085952Y-75331285D01*
X101133571Y-75378904D01*
X101181190Y-75474142D01*
X101181190Y-75855095D01*
X101657380Y-74331285D02*
X101657380Y-74902714D01*
X101657380Y-74617000D02*
X100657380Y-74617000D01*
X100800238Y-74712238D01*
X100895476Y-74807476D01*
X100943095Y-74902714D01*
%TO.C,F1*%
X126398666Y-77196571D02*
X126065333Y-77196571D01*
X126065333Y-77720380D02*
X126065333Y-76720380D01*
X126541523Y-76720380D01*
X127446285Y-77720380D02*
X126874857Y-77720380D01*
X127160571Y-77720380D02*
X127160571Y-76720380D01*
X127065333Y-76863238D01*
X126970095Y-76958476D01*
X126874857Y-77006095D01*
%TO.C,R25*%
X114786142Y-71497380D02*
X114452809Y-71021190D01*
X114214714Y-71497380D02*
X114214714Y-70497380D01*
X114595666Y-70497380D01*
X114690904Y-70545000D01*
X114738523Y-70592619D01*
X114786142Y-70687857D01*
X114786142Y-70830714D01*
X114738523Y-70925952D01*
X114690904Y-70973571D01*
X114595666Y-71021190D01*
X114214714Y-71021190D01*
X115167095Y-70592619D02*
X115214714Y-70545000D01*
X115309952Y-70497380D01*
X115548047Y-70497380D01*
X115643285Y-70545000D01*
X115690904Y-70592619D01*
X115738523Y-70687857D01*
X115738523Y-70783095D01*
X115690904Y-70925952D01*
X115119476Y-71497380D01*
X115738523Y-71497380D01*
X116643285Y-70497380D02*
X116167095Y-70497380D01*
X116119476Y-70973571D01*
X116167095Y-70925952D01*
X116262333Y-70878333D01*
X116500428Y-70878333D01*
X116595666Y-70925952D01*
X116643285Y-70973571D01*
X116690904Y-71068809D01*
X116690904Y-71306904D01*
X116643285Y-71402142D01*
X116595666Y-71449761D01*
X116500428Y-71497380D01*
X116262333Y-71497380D01*
X116167095Y-71449761D01*
X116119476Y-71402142D01*
%TO.C,R23*%
X113468380Y-73465857D02*
X112992190Y-73799190D01*
X113468380Y-74037285D02*
X112468380Y-74037285D01*
X112468380Y-73656333D01*
X112516000Y-73561095D01*
X112563619Y-73513476D01*
X112658857Y-73465857D01*
X112801714Y-73465857D01*
X112896952Y-73513476D01*
X112944571Y-73561095D01*
X112992190Y-73656333D01*
X112992190Y-74037285D01*
X112563619Y-73084904D02*
X112516000Y-73037285D01*
X112468380Y-72942047D01*
X112468380Y-72703952D01*
X112516000Y-72608714D01*
X112563619Y-72561095D01*
X112658857Y-72513476D01*
X112754095Y-72513476D01*
X112896952Y-72561095D01*
X113468380Y-73132523D01*
X113468380Y-72513476D01*
X112468380Y-72180142D02*
X112468380Y-71561095D01*
X112849333Y-71894428D01*
X112849333Y-71751571D01*
X112896952Y-71656333D01*
X112944571Y-71608714D01*
X113039809Y-71561095D01*
X113277904Y-71561095D01*
X113373142Y-71608714D01*
X113420761Y-71656333D01*
X113468380Y-71751571D01*
X113468380Y-72037285D01*
X113420761Y-72132523D01*
X113373142Y-72180142D01*
%TO.C,C15*%
X107674142Y-87531142D02*
X107626523Y-87578761D01*
X107483666Y-87626380D01*
X107388428Y-87626380D01*
X107245571Y-87578761D01*
X107150333Y-87483523D01*
X107102714Y-87388285D01*
X107055095Y-87197809D01*
X107055095Y-87054952D01*
X107102714Y-86864476D01*
X107150333Y-86769238D01*
X107245571Y-86674000D01*
X107388428Y-86626380D01*
X107483666Y-86626380D01*
X107626523Y-86674000D01*
X107674142Y-86721619D01*
X108626523Y-87626380D02*
X108055095Y-87626380D01*
X108340809Y-87626380D02*
X108340809Y-86626380D01*
X108245571Y-86769238D01*
X108150333Y-86864476D01*
X108055095Y-86912095D01*
X109531285Y-86626380D02*
X109055095Y-86626380D01*
X109007476Y-87102571D01*
X109055095Y-87054952D01*
X109150333Y-87007333D01*
X109388428Y-87007333D01*
X109483666Y-87054952D01*
X109531285Y-87102571D01*
X109578904Y-87197809D01*
X109578904Y-87435904D01*
X109531285Y-87531142D01*
X109483666Y-87578761D01*
X109388428Y-87626380D01*
X109150333Y-87626380D01*
X109055095Y-87578761D01*
X109007476Y-87531142D01*
%TO.C,C7*%
X120469333Y-73434142D02*
X120421714Y-73481761D01*
X120278857Y-73529380D01*
X120183619Y-73529380D01*
X120040761Y-73481761D01*
X119945523Y-73386523D01*
X119897904Y-73291285D01*
X119850285Y-73100809D01*
X119850285Y-72957952D01*
X119897904Y-72767476D01*
X119945523Y-72672238D01*
X120040761Y-72577000D01*
X120183619Y-72529380D01*
X120278857Y-72529380D01*
X120421714Y-72577000D01*
X120469333Y-72624619D01*
X120802666Y-72529380D02*
X121469333Y-72529380D01*
X121040761Y-73529380D01*
%TO.C,Y1*%
X109872809Y-72291190D02*
X109872809Y-72767380D01*
X109539476Y-71767380D02*
X109872809Y-72291190D01*
X110206142Y-71767380D01*
X111063285Y-72767380D02*
X110491857Y-72767380D01*
X110777571Y-72767380D02*
X110777571Y-71767380D01*
X110682333Y-71910238D01*
X110587095Y-72005476D01*
X110491857Y-72053095D01*
%TO.C,U5*%
X109968095Y-78117380D02*
X109968095Y-78926904D01*
X110015714Y-79022142D01*
X110063333Y-79069761D01*
X110158571Y-79117380D01*
X110349047Y-79117380D01*
X110444285Y-79069761D01*
X110491904Y-79022142D01*
X110539523Y-78926904D01*
X110539523Y-78117380D01*
X111491904Y-78117380D02*
X111015714Y-78117380D01*
X110968095Y-78593571D01*
X111015714Y-78545952D01*
X111110952Y-78498333D01*
X111349047Y-78498333D01*
X111444285Y-78545952D01*
X111491904Y-78593571D01*
X111539523Y-78688809D01*
X111539523Y-78926904D01*
X111491904Y-79022142D01*
X111444285Y-79069761D01*
X111349047Y-79117380D01*
X111110952Y-79117380D01*
X111015714Y-79069761D01*
X110968095Y-79022142D01*
%TO.C,R24*%
X109071142Y-75561380D02*
X108737809Y-75085190D01*
X108499714Y-75561380D02*
X108499714Y-74561380D01*
X108880666Y-74561380D01*
X108975904Y-74609000D01*
X109023523Y-74656619D01*
X109071142Y-74751857D01*
X109071142Y-74894714D01*
X109023523Y-74989952D01*
X108975904Y-75037571D01*
X108880666Y-75085190D01*
X108499714Y-75085190D01*
X109452095Y-74656619D02*
X109499714Y-74609000D01*
X109594952Y-74561380D01*
X109833047Y-74561380D01*
X109928285Y-74609000D01*
X109975904Y-74656619D01*
X110023523Y-74751857D01*
X110023523Y-74847095D01*
X109975904Y-74989952D01*
X109404476Y-75561380D01*
X110023523Y-75561380D01*
X110880666Y-74894714D02*
X110880666Y-75561380D01*
X110642571Y-74513761D02*
X110404476Y-75228047D01*
X111023523Y-75228047D01*
%TO.C,C5*%
X109801333Y-68354142D02*
X109753714Y-68401761D01*
X109610857Y-68449380D01*
X109515619Y-68449380D01*
X109372761Y-68401761D01*
X109277523Y-68306523D01*
X109229904Y-68211285D01*
X109182285Y-68020809D01*
X109182285Y-67877952D01*
X109229904Y-67687476D01*
X109277523Y-67592238D01*
X109372761Y-67497000D01*
X109515619Y-67449380D01*
X109610857Y-67449380D01*
X109753714Y-67497000D01*
X109801333Y-67544619D01*
X110706095Y-67449380D02*
X110229904Y-67449380D01*
X110182285Y-67925571D01*
X110229904Y-67877952D01*
X110325142Y-67830333D01*
X110563238Y-67830333D01*
X110658476Y-67877952D01*
X110706095Y-67925571D01*
X110753714Y-68020809D01*
X110753714Y-68258904D01*
X110706095Y-68354142D01*
X110658476Y-68401761D01*
X110563238Y-68449380D01*
X110325142Y-68449380D01*
X110229904Y-68401761D01*
X110182285Y-68354142D01*
%TO.C,C4*%
X109801333Y-69751142D02*
X109753714Y-69798761D01*
X109610857Y-69846380D01*
X109515619Y-69846380D01*
X109372761Y-69798761D01*
X109277523Y-69703523D01*
X109229904Y-69608285D01*
X109182285Y-69417809D01*
X109182285Y-69274952D01*
X109229904Y-69084476D01*
X109277523Y-68989238D01*
X109372761Y-68894000D01*
X109515619Y-68846380D01*
X109610857Y-68846380D01*
X109753714Y-68894000D01*
X109801333Y-68941619D01*
X110658476Y-69179714D02*
X110658476Y-69846380D01*
X110420380Y-68798761D02*
X110182285Y-69513047D01*
X110801333Y-69513047D01*
%TO.C,JP6*%
X101133666Y-87515380D02*
X101133666Y-88229666D01*
X101086047Y-88372523D01*
X100990809Y-88467761D01*
X100847952Y-88515380D01*
X100752714Y-88515380D01*
X101609857Y-88515380D02*
X101609857Y-87515380D01*
X101990809Y-87515380D01*
X102086047Y-87563000D01*
X102133666Y-87610619D01*
X102181285Y-87705857D01*
X102181285Y-87848714D01*
X102133666Y-87943952D01*
X102086047Y-87991571D01*
X101990809Y-88039190D01*
X101609857Y-88039190D01*
X103038428Y-87515380D02*
X102847952Y-87515380D01*
X102752714Y-87563000D01*
X102705095Y-87610619D01*
X102609857Y-87753476D01*
X102562238Y-87943952D01*
X102562238Y-88324904D01*
X102609857Y-88420142D01*
X102657476Y-88467761D01*
X102752714Y-88515380D01*
X102943190Y-88515380D01*
X103038428Y-88467761D01*
X103086047Y-88420142D01*
X103133666Y-88324904D01*
X103133666Y-88086809D01*
X103086047Y-87991571D01*
X103038428Y-87943952D01*
X102943190Y-87896333D01*
X102752714Y-87896333D01*
X102657476Y-87943952D01*
X102609857Y-87991571D01*
X102562238Y-88086809D01*
%TO.C,JP5*%
X100498666Y-83451380D02*
X100498666Y-84165666D01*
X100451047Y-84308523D01*
X100355809Y-84403761D01*
X100212952Y-84451380D01*
X100117714Y-84451380D01*
X100974857Y-84451380D02*
X100974857Y-83451380D01*
X101355809Y-83451380D01*
X101451047Y-83499000D01*
X101498666Y-83546619D01*
X101546285Y-83641857D01*
X101546285Y-83784714D01*
X101498666Y-83879952D01*
X101451047Y-83927571D01*
X101355809Y-83975190D01*
X100974857Y-83975190D01*
X102451047Y-83451380D02*
X101974857Y-83451380D01*
X101927238Y-83927571D01*
X101974857Y-83879952D01*
X102070095Y-83832333D01*
X102308190Y-83832333D01*
X102403428Y-83879952D01*
X102451047Y-83927571D01*
X102498666Y-84022809D01*
X102498666Y-84260904D01*
X102451047Y-84356142D01*
X102403428Y-84403761D01*
X102308190Y-84451380D01*
X102070095Y-84451380D01*
X101974857Y-84403761D01*
X101927238Y-84356142D01*
%TO.C,JP3*%
X97482380Y-69899333D02*
X98196666Y-69899333D01*
X98339523Y-69946952D01*
X98434761Y-70042190D01*
X98482380Y-70185047D01*
X98482380Y-70280285D01*
X98482380Y-69423142D02*
X97482380Y-69423142D01*
X97482380Y-69042190D01*
X97530000Y-68946952D01*
X97577619Y-68899333D01*
X97672857Y-68851714D01*
X97815714Y-68851714D01*
X97910952Y-68899333D01*
X97958571Y-68946952D01*
X98006190Y-69042190D01*
X98006190Y-69423142D01*
X97482380Y-68518380D02*
X97482380Y-67899333D01*
X97863333Y-68232666D01*
X97863333Y-68089809D01*
X97910952Y-67994571D01*
X97958571Y-67946952D01*
X98053809Y-67899333D01*
X98291904Y-67899333D01*
X98387142Y-67946952D01*
X98434761Y-67994571D01*
X98482380Y-68089809D01*
X98482380Y-68375523D01*
X98434761Y-68470761D01*
X98387142Y-68518380D01*
%TO.C,JP2*%
X95672666Y-85102380D02*
X95672666Y-85816666D01*
X95625047Y-85959523D01*
X95529809Y-86054761D01*
X95386952Y-86102380D01*
X95291714Y-86102380D01*
X96148857Y-86102380D02*
X96148857Y-85102380D01*
X96529809Y-85102380D01*
X96625047Y-85150000D01*
X96672666Y-85197619D01*
X96720285Y-85292857D01*
X96720285Y-85435714D01*
X96672666Y-85530952D01*
X96625047Y-85578571D01*
X96529809Y-85626190D01*
X96148857Y-85626190D01*
X97101238Y-85197619D02*
X97148857Y-85150000D01*
X97244095Y-85102380D01*
X97482190Y-85102380D01*
X97577428Y-85150000D01*
X97625047Y-85197619D01*
X97672666Y-85292857D01*
X97672666Y-85388095D01*
X97625047Y-85530952D01*
X97053619Y-86102380D01*
X97672666Y-86102380D01*
%TO.C,R21*%
X129057142Y-78609380D02*
X128723809Y-78133190D01*
X128485714Y-78609380D02*
X128485714Y-77609380D01*
X128866666Y-77609380D01*
X128961904Y-77657000D01*
X129009523Y-77704619D01*
X129057142Y-77799857D01*
X129057142Y-77942714D01*
X129009523Y-78037952D01*
X128961904Y-78085571D01*
X128866666Y-78133190D01*
X128485714Y-78133190D01*
X129438095Y-77704619D02*
X129485714Y-77657000D01*
X129580952Y-77609380D01*
X129819047Y-77609380D01*
X129914285Y-77657000D01*
X129961904Y-77704619D01*
X130009523Y-77799857D01*
X130009523Y-77895095D01*
X129961904Y-78037952D01*
X129390476Y-78609380D01*
X130009523Y-78609380D01*
X130961904Y-78609380D02*
X130390476Y-78609380D01*
X130676190Y-78609380D02*
X130676190Y-77609380D01*
X130580952Y-77752238D01*
X130485714Y-77847476D01*
X130390476Y-77895095D01*
%TO.C,R20*%
X132058142Y-87880380D02*
X131724809Y-87404190D01*
X131486714Y-87880380D02*
X131486714Y-86880380D01*
X131867666Y-86880380D01*
X131962904Y-86928000D01*
X132010523Y-86975619D01*
X132058142Y-87070857D01*
X132058142Y-87213714D01*
X132010523Y-87308952D01*
X131962904Y-87356571D01*
X131867666Y-87404190D01*
X131486714Y-87404190D01*
X132439095Y-86975619D02*
X132486714Y-86928000D01*
X132581952Y-86880380D01*
X132820047Y-86880380D01*
X132915285Y-86928000D01*
X132962904Y-86975619D01*
X133010523Y-87070857D01*
X133010523Y-87166095D01*
X132962904Y-87308952D01*
X132391476Y-87880380D01*
X133010523Y-87880380D01*
X133629571Y-86880380D02*
X133724809Y-86880380D01*
X133820047Y-86928000D01*
X133867666Y-86975619D01*
X133915285Y-87070857D01*
X133962904Y-87261333D01*
X133962904Y-87499428D01*
X133915285Y-87689904D01*
X133867666Y-87785142D01*
X133820047Y-87832761D01*
X133724809Y-87880380D01*
X133629571Y-87880380D01*
X133534333Y-87832761D01*
X133486714Y-87785142D01*
X133439095Y-87689904D01*
X133391476Y-87499428D01*
X133391476Y-87261333D01*
X133439095Y-87070857D01*
X133486714Y-86975619D01*
X133534333Y-86928000D01*
X133629571Y-86880380D01*
%TO.C,R19*%
X120628142Y-78482380D02*
X120294809Y-78006190D01*
X120056714Y-78482380D02*
X120056714Y-77482380D01*
X120437666Y-77482380D01*
X120532904Y-77530000D01*
X120580523Y-77577619D01*
X120628142Y-77672857D01*
X120628142Y-77815714D01*
X120580523Y-77910952D01*
X120532904Y-77958571D01*
X120437666Y-78006190D01*
X120056714Y-78006190D01*
X121580523Y-78482380D02*
X121009095Y-78482380D01*
X121294809Y-78482380D02*
X121294809Y-77482380D01*
X121199571Y-77625238D01*
X121104333Y-77720476D01*
X121009095Y-77768095D01*
X122056714Y-78482380D02*
X122247190Y-78482380D01*
X122342428Y-78434761D01*
X122390047Y-78387142D01*
X122485285Y-78244285D01*
X122532904Y-78053809D01*
X122532904Y-77672857D01*
X122485285Y-77577619D01*
X122437666Y-77530000D01*
X122342428Y-77482380D01*
X122151952Y-77482380D01*
X122056714Y-77530000D01*
X122009095Y-77577619D01*
X121961476Y-77672857D01*
X121961476Y-77910952D01*
X122009095Y-78006190D01*
X122056714Y-78053809D01*
X122151952Y-78101428D01*
X122342428Y-78101428D01*
X122437666Y-78053809D01*
X122485285Y-78006190D01*
X122532904Y-77910952D01*
%TO.C,R18*%
X122025142Y-87880380D02*
X121691809Y-87404190D01*
X121453714Y-87880380D02*
X121453714Y-86880380D01*
X121834666Y-86880380D01*
X121929904Y-86928000D01*
X121977523Y-86975619D01*
X122025142Y-87070857D01*
X122025142Y-87213714D01*
X121977523Y-87308952D01*
X121929904Y-87356571D01*
X121834666Y-87404190D01*
X121453714Y-87404190D01*
X122977523Y-87880380D02*
X122406095Y-87880380D01*
X122691809Y-87880380D02*
X122691809Y-86880380D01*
X122596571Y-87023238D01*
X122501333Y-87118476D01*
X122406095Y-87166095D01*
X123548952Y-87308952D02*
X123453714Y-87261333D01*
X123406095Y-87213714D01*
X123358476Y-87118476D01*
X123358476Y-87070857D01*
X123406095Y-86975619D01*
X123453714Y-86928000D01*
X123548952Y-86880380D01*
X123739428Y-86880380D01*
X123834666Y-86928000D01*
X123882285Y-86975619D01*
X123929904Y-87070857D01*
X123929904Y-87118476D01*
X123882285Y-87213714D01*
X123834666Y-87261333D01*
X123739428Y-87308952D01*
X123548952Y-87308952D01*
X123453714Y-87356571D01*
X123406095Y-87404190D01*
X123358476Y-87499428D01*
X123358476Y-87689904D01*
X123406095Y-87785142D01*
X123453714Y-87832761D01*
X123548952Y-87880380D01*
X123739428Y-87880380D01*
X123834666Y-87832761D01*
X123882285Y-87785142D01*
X123929904Y-87689904D01*
X123929904Y-87499428D01*
X123882285Y-87404190D01*
X123834666Y-87356571D01*
X123739428Y-87308952D01*
%TO.C,C12*%
X132423142Y-82101857D02*
X132470761Y-82149476D01*
X132518380Y-82292333D01*
X132518380Y-82387571D01*
X132470761Y-82530428D01*
X132375523Y-82625666D01*
X132280285Y-82673285D01*
X132089809Y-82720904D01*
X131946952Y-82720904D01*
X131756476Y-82673285D01*
X131661238Y-82625666D01*
X131566000Y-82530428D01*
X131518380Y-82387571D01*
X131518380Y-82292333D01*
X131566000Y-82149476D01*
X131613619Y-82101857D01*
X132518380Y-81149476D02*
X132518380Y-81720904D01*
X132518380Y-81435190D02*
X131518380Y-81435190D01*
X131661238Y-81530428D01*
X131756476Y-81625666D01*
X131804095Y-81720904D01*
X131613619Y-80768523D02*
X131566000Y-80720904D01*
X131518380Y-80625666D01*
X131518380Y-80387571D01*
X131566000Y-80292333D01*
X131613619Y-80244714D01*
X131708857Y-80197095D01*
X131804095Y-80197095D01*
X131946952Y-80244714D01*
X132518380Y-80816142D01*
X132518380Y-80197095D01*
%TO.C,C11*%
X132423142Y-85657857D02*
X132470761Y-85705476D01*
X132518380Y-85848333D01*
X132518380Y-85943571D01*
X132470761Y-86086428D01*
X132375523Y-86181666D01*
X132280285Y-86229285D01*
X132089809Y-86276904D01*
X131946952Y-86276904D01*
X131756476Y-86229285D01*
X131661238Y-86181666D01*
X131566000Y-86086428D01*
X131518380Y-85943571D01*
X131518380Y-85848333D01*
X131566000Y-85705476D01*
X131613619Y-85657857D01*
X132518380Y-84705476D02*
X132518380Y-85276904D01*
X132518380Y-84991190D02*
X131518380Y-84991190D01*
X131661238Y-85086428D01*
X131756476Y-85181666D01*
X131804095Y-85276904D01*
X132518380Y-83753095D02*
X132518380Y-84324523D01*
X132518380Y-84038809D02*
X131518380Y-84038809D01*
X131661238Y-84134047D01*
X131756476Y-84229285D01*
X131804095Y-84324523D01*
%TO.C,C10*%
X122517142Y-82101857D02*
X122564761Y-82149476D01*
X122612380Y-82292333D01*
X122612380Y-82387571D01*
X122564761Y-82530428D01*
X122469523Y-82625666D01*
X122374285Y-82673285D01*
X122183809Y-82720904D01*
X122040952Y-82720904D01*
X121850476Y-82673285D01*
X121755238Y-82625666D01*
X121660000Y-82530428D01*
X121612380Y-82387571D01*
X121612380Y-82292333D01*
X121660000Y-82149476D01*
X121707619Y-82101857D01*
X122612380Y-81149476D02*
X122612380Y-81720904D01*
X122612380Y-81435190D02*
X121612380Y-81435190D01*
X121755238Y-81530428D01*
X121850476Y-81625666D01*
X121898095Y-81720904D01*
X121612380Y-80530428D02*
X121612380Y-80435190D01*
X121660000Y-80339952D01*
X121707619Y-80292333D01*
X121802857Y-80244714D01*
X121993333Y-80197095D01*
X122231428Y-80197095D01*
X122421904Y-80244714D01*
X122517142Y-80292333D01*
X122564761Y-80339952D01*
X122612380Y-80435190D01*
X122612380Y-80530428D01*
X122564761Y-80625666D01*
X122517142Y-80673285D01*
X122421904Y-80720904D01*
X122231428Y-80768523D01*
X121993333Y-80768523D01*
X121802857Y-80720904D01*
X121707619Y-80673285D01*
X121660000Y-80625666D01*
X121612380Y-80530428D01*
%TO.C,C9*%
X122390142Y-85054666D02*
X122437761Y-85102285D01*
X122485380Y-85245142D01*
X122485380Y-85340380D01*
X122437761Y-85483238D01*
X122342523Y-85578476D01*
X122247285Y-85626095D01*
X122056809Y-85673714D01*
X121913952Y-85673714D01*
X121723476Y-85626095D01*
X121628238Y-85578476D01*
X121533000Y-85483238D01*
X121485380Y-85340380D01*
X121485380Y-85245142D01*
X121533000Y-85102285D01*
X121580619Y-85054666D01*
X122485380Y-84578476D02*
X122485380Y-84388000D01*
X122437761Y-84292761D01*
X122390142Y-84245142D01*
X122247285Y-84149904D01*
X122056809Y-84102285D01*
X121675857Y-84102285D01*
X121580619Y-84149904D01*
X121533000Y-84197523D01*
X121485380Y-84292761D01*
X121485380Y-84483238D01*
X121533000Y-84578476D01*
X121580619Y-84626095D01*
X121675857Y-84673714D01*
X121913952Y-84673714D01*
X122009190Y-84626095D01*
X122056809Y-84578476D01*
X122104428Y-84483238D01*
X122104428Y-84292761D01*
X122056809Y-84197523D01*
X122009190Y-84149904D01*
X121913952Y-84102285D01*
%TO.C,R9*%
X127962333Y-70227380D02*
X127629000Y-69751190D01*
X127390904Y-70227380D02*
X127390904Y-69227380D01*
X127771857Y-69227380D01*
X127867095Y-69275000D01*
X127914714Y-69322619D01*
X127962333Y-69417857D01*
X127962333Y-69560714D01*
X127914714Y-69655952D01*
X127867095Y-69703571D01*
X127771857Y-69751190D01*
X127390904Y-69751190D01*
X128438523Y-70227380D02*
X128629000Y-70227380D01*
X128724238Y-70179761D01*
X128771857Y-70132142D01*
X128867095Y-69989285D01*
X128914714Y-69798809D01*
X128914714Y-69417857D01*
X128867095Y-69322619D01*
X128819476Y-69275000D01*
X128724238Y-69227380D01*
X128533761Y-69227380D01*
X128438523Y-69275000D01*
X128390904Y-69322619D01*
X128343285Y-69417857D01*
X128343285Y-69655952D01*
X128390904Y-69751190D01*
X128438523Y-69798809D01*
X128533761Y-69846428D01*
X128724238Y-69846428D01*
X128819476Y-69798809D01*
X128867095Y-69751190D01*
X128914714Y-69655952D01*
%TO.C,R8*%
X135328333Y-68195380D02*
X134995000Y-67719190D01*
X134756904Y-68195380D02*
X134756904Y-67195380D01*
X135137857Y-67195380D01*
X135233095Y-67243000D01*
X135280714Y-67290619D01*
X135328333Y-67385857D01*
X135328333Y-67528714D01*
X135280714Y-67623952D01*
X135233095Y-67671571D01*
X135137857Y-67719190D01*
X134756904Y-67719190D01*
X135899761Y-67623952D02*
X135804523Y-67576333D01*
X135756904Y-67528714D01*
X135709285Y-67433476D01*
X135709285Y-67385857D01*
X135756904Y-67290619D01*
X135804523Y-67243000D01*
X135899761Y-67195380D01*
X136090238Y-67195380D01*
X136185476Y-67243000D01*
X136233095Y-67290619D01*
X136280714Y-67385857D01*
X136280714Y-67433476D01*
X136233095Y-67528714D01*
X136185476Y-67576333D01*
X136090238Y-67623952D01*
X135899761Y-67623952D01*
X135804523Y-67671571D01*
X135756904Y-67719190D01*
X135709285Y-67814428D01*
X135709285Y-68004904D01*
X135756904Y-68100142D01*
X135804523Y-68147761D01*
X135899761Y-68195380D01*
X136090238Y-68195380D01*
X136185476Y-68147761D01*
X136233095Y-68100142D01*
X136280714Y-68004904D01*
X136280714Y-67814428D01*
X136233095Y-67719190D01*
X136185476Y-67671571D01*
X136090238Y-67623952D01*
%TO.C,R6*%
X118056333Y-70227380D02*
X117723000Y-69751190D01*
X117484904Y-70227380D02*
X117484904Y-69227380D01*
X117865857Y-69227380D01*
X117961095Y-69275000D01*
X118008714Y-69322619D01*
X118056333Y-69417857D01*
X118056333Y-69560714D01*
X118008714Y-69655952D01*
X117961095Y-69703571D01*
X117865857Y-69751190D01*
X117484904Y-69751190D01*
X118913476Y-69227380D02*
X118723000Y-69227380D01*
X118627761Y-69275000D01*
X118580142Y-69322619D01*
X118484904Y-69465476D01*
X118437285Y-69655952D01*
X118437285Y-70036904D01*
X118484904Y-70132142D01*
X118532523Y-70179761D01*
X118627761Y-70227380D01*
X118818238Y-70227380D01*
X118913476Y-70179761D01*
X118961095Y-70132142D01*
X119008714Y-70036904D01*
X119008714Y-69798809D01*
X118961095Y-69703571D01*
X118913476Y-69655952D01*
X118818238Y-69608333D01*
X118627761Y-69608333D01*
X118532523Y-69655952D01*
X118484904Y-69703571D01*
X118437285Y-69798809D01*
%TO.C,R5*%
X125422333Y-68195380D02*
X125089000Y-67719190D01*
X124850904Y-68195380D02*
X124850904Y-67195380D01*
X125231857Y-67195380D01*
X125327095Y-67243000D01*
X125374714Y-67290619D01*
X125422333Y-67385857D01*
X125422333Y-67528714D01*
X125374714Y-67623952D01*
X125327095Y-67671571D01*
X125231857Y-67719190D01*
X124850904Y-67719190D01*
X126327095Y-67195380D02*
X125850904Y-67195380D01*
X125803285Y-67671571D01*
X125850904Y-67623952D01*
X125946142Y-67576333D01*
X126184238Y-67576333D01*
X126279476Y-67623952D01*
X126327095Y-67671571D01*
X126374714Y-67766809D01*
X126374714Y-68004904D01*
X126327095Y-68100142D01*
X126279476Y-68147761D01*
X126184238Y-68195380D01*
X125946142Y-68195380D01*
X125850904Y-68147761D01*
X125803285Y-68100142D01*
%TO.C,R2*%
X127454333Y-68703380D02*
X127121000Y-68227190D01*
X126882904Y-68703380D02*
X126882904Y-67703380D01*
X127263857Y-67703380D01*
X127359095Y-67751000D01*
X127406714Y-67798619D01*
X127454333Y-67893857D01*
X127454333Y-68036714D01*
X127406714Y-68131952D01*
X127359095Y-68179571D01*
X127263857Y-68227190D01*
X126882904Y-68227190D01*
X127835285Y-67798619D02*
X127882904Y-67751000D01*
X127978142Y-67703380D01*
X128216238Y-67703380D01*
X128311476Y-67751000D01*
X128359095Y-67798619D01*
X128406714Y-67893857D01*
X128406714Y-67989095D01*
X128359095Y-68131952D01*
X127787666Y-68703380D01*
X128406714Y-68703380D01*
%TO.C,R1*%
X117738833Y-68703380D02*
X117405500Y-68227190D01*
X117167404Y-68703380D02*
X117167404Y-67703380D01*
X117548357Y-67703380D01*
X117643595Y-67751000D01*
X117691214Y-67798619D01*
X117738833Y-67893857D01*
X117738833Y-68036714D01*
X117691214Y-68131952D01*
X117643595Y-68179571D01*
X117548357Y-68227190D01*
X117167404Y-68227190D01*
X118691214Y-68703380D02*
X118119785Y-68703380D01*
X118405500Y-68703380D02*
X118405500Y-67703380D01*
X118310261Y-67846238D01*
X118215023Y-67941476D01*
X118119785Y-67989095D01*
%TO.C,D4*%
X132724904Y-73275380D02*
X132724904Y-72275380D01*
X132963000Y-72275380D01*
X133105857Y-72323000D01*
X133201095Y-72418238D01*
X133248714Y-72513476D01*
X133296333Y-72703952D01*
X133296333Y-72846809D01*
X133248714Y-73037285D01*
X133201095Y-73132523D01*
X133105857Y-73227761D01*
X132963000Y-73275380D01*
X132724904Y-73275380D01*
X134153476Y-72608714D02*
X134153476Y-73275380D01*
X133915380Y-72227761D02*
X133677285Y-72942047D01*
X134296333Y-72942047D01*
%TO.C,D3*%
X122818904Y-73275380D02*
X122818904Y-72275380D01*
X123057000Y-72275380D01*
X123199857Y-72323000D01*
X123295095Y-72418238D01*
X123342714Y-72513476D01*
X123390333Y-72703952D01*
X123390333Y-72846809D01*
X123342714Y-73037285D01*
X123295095Y-73132523D01*
X123199857Y-73227761D01*
X123057000Y-73275380D01*
X122818904Y-73275380D01*
X123723666Y-72275380D02*
X124342714Y-72275380D01*
X124009380Y-72656333D01*
X124152238Y-72656333D01*
X124247476Y-72703952D01*
X124295095Y-72751571D01*
X124342714Y-72846809D01*
X124342714Y-73084904D01*
X124295095Y-73180142D01*
X124247476Y-73227761D01*
X124152238Y-73275380D01*
X123866523Y-73275380D01*
X123771285Y-73227761D01*
X123723666Y-73180142D01*
%TO.C,C2*%
X127962333Y-71656142D02*
X127914714Y-71703761D01*
X127771857Y-71751380D01*
X127676619Y-71751380D01*
X127533761Y-71703761D01*
X127438523Y-71608523D01*
X127390904Y-71513285D01*
X127343285Y-71322809D01*
X127343285Y-71179952D01*
X127390904Y-70989476D01*
X127438523Y-70894238D01*
X127533761Y-70799000D01*
X127676619Y-70751380D01*
X127771857Y-70751380D01*
X127914714Y-70799000D01*
X127962333Y-70846619D01*
X128343285Y-70846619D02*
X128390904Y-70799000D01*
X128486142Y-70751380D01*
X128724238Y-70751380D01*
X128819476Y-70799000D01*
X128867095Y-70846619D01*
X128914714Y-70941857D01*
X128914714Y-71037095D01*
X128867095Y-71179952D01*
X128295666Y-71751380D01*
X128914714Y-71751380D01*
%TO.C,C1*%
X118310333Y-71656142D02*
X118262714Y-71703761D01*
X118119857Y-71751380D01*
X118024619Y-71751380D01*
X117881761Y-71703761D01*
X117786523Y-71608523D01*
X117738904Y-71513285D01*
X117691285Y-71322809D01*
X117691285Y-71179952D01*
X117738904Y-70989476D01*
X117786523Y-70894238D01*
X117881761Y-70799000D01*
X118024619Y-70751380D01*
X118119857Y-70751380D01*
X118262714Y-70799000D01*
X118310333Y-70846619D01*
X119262714Y-71751380D02*
X118691285Y-71751380D01*
X118977000Y-71751380D02*
X118977000Y-70751380D01*
X118881761Y-70894238D01*
X118786523Y-70989476D01*
X118691285Y-71037095D01*
%TO.C,C3*%
X96212333Y-73180142D02*
X96164714Y-73227761D01*
X96021857Y-73275380D01*
X95926619Y-73275380D01*
X95783761Y-73227761D01*
X95688523Y-73132523D01*
X95640904Y-73037285D01*
X95593285Y-72846809D01*
X95593285Y-72703952D01*
X95640904Y-72513476D01*
X95688523Y-72418238D01*
X95783761Y-72323000D01*
X95926619Y-72275380D01*
X96021857Y-72275380D01*
X96164714Y-72323000D01*
X96212333Y-72370619D01*
X96545666Y-72275380D02*
X97164714Y-72275380D01*
X96831380Y-72656333D01*
X96974238Y-72656333D01*
X97069476Y-72703952D01*
X97117095Y-72751571D01*
X97164714Y-72846809D01*
X97164714Y-73084904D01*
X97117095Y-73180142D01*
X97069476Y-73227761D01*
X96974238Y-73275380D01*
X96688523Y-73275380D01*
X96593285Y-73227761D01*
X96545666Y-73180142D01*
%TO.C,JP1*%
X95799666Y-88150380D02*
X95799666Y-88864666D01*
X95752047Y-89007523D01*
X95656809Y-89102761D01*
X95513952Y-89150380D01*
X95418714Y-89150380D01*
X96275857Y-89150380D02*
X96275857Y-88150380D01*
X96656809Y-88150380D01*
X96752047Y-88198000D01*
X96799666Y-88245619D01*
X96847285Y-88340857D01*
X96847285Y-88483714D01*
X96799666Y-88578952D01*
X96752047Y-88626571D01*
X96656809Y-88674190D01*
X96275857Y-88674190D01*
X97799666Y-89150380D02*
X97228238Y-89150380D01*
X97513952Y-89150380D02*
X97513952Y-88150380D01*
X97418714Y-88293238D01*
X97323476Y-88388476D01*
X97228238Y-88436095D01*
%TO.C,J2*%
X89187666Y-73799380D02*
X89187666Y-74513666D01*
X89140047Y-74656523D01*
X89044809Y-74751761D01*
X88901952Y-74799380D01*
X88806714Y-74799380D01*
X89616238Y-73894619D02*
X89663857Y-73847000D01*
X89759095Y-73799380D01*
X89997190Y-73799380D01*
X90092428Y-73847000D01*
X90140047Y-73894619D01*
X90187666Y-73989857D01*
X90187666Y-74085095D01*
X90140047Y-74227952D01*
X89568619Y-74799380D01*
X90187666Y-74799380D01*
%TO.C,F2*%
X132367666Y-77196571D02*
X132034333Y-77196571D01*
X132034333Y-77720380D02*
X132034333Y-76720380D01*
X132510523Y-76720380D01*
X132843857Y-76815619D02*
X132891476Y-76768000D01*
X132986714Y-76720380D01*
X133224809Y-76720380D01*
X133320047Y-76768000D01*
X133367666Y-76815619D01*
X133415285Y-76910857D01*
X133415285Y-77006095D01*
X133367666Y-77148952D01*
X132796238Y-77720380D01*
X133415285Y-77720380D01*
%TD*%
%LPC*%
%TO.C,C5*%
G36*
G01*
X106408000Y-95098000D02*
X105908000Y-95098000D01*
G75*
G02*
X105683000Y-94873000I0J225000D01*
G01*
X105683000Y-94423000D01*
G75*
G02*
X105908000Y-94198000I225000J0D01*
G01*
X106408000Y-94198000D01*
G75*
G02*
X106633000Y-94423000I0J-225000D01*
G01*
X106633000Y-94873000D01*
G75*
G02*
X106408000Y-95098000I-225000J0D01*
G01*
G37*
G36*
G01*
X106408000Y-93548000D02*
X105908000Y-93548000D01*
G75*
G02*
X105683000Y-93323000I0J225000D01*
G01*
X105683000Y-92873000D01*
G75*
G02*
X105908000Y-92648000I225000J0D01*
G01*
X106408000Y-92648000D01*
G75*
G02*
X106633000Y-92873000I0J-225000D01*
G01*
X106633000Y-93323000D01*
G75*
G02*
X106408000Y-93548000I-225000J0D01*
G01*
G37*
%TD*%
%TO.C,R24*%
G36*
G01*
X105695000Y-100257000D02*
X105695000Y-99707000D01*
G75*
G02*
X105895000Y-99507000I200000J0D01*
G01*
X106295000Y-99507000D01*
G75*
G02*
X106495000Y-99707000I0J-200000D01*
G01*
X106495000Y-100257000D01*
G75*
G02*
X106295000Y-100457000I-200000J0D01*
G01*
X105895000Y-100457000D01*
G75*
G02*
X105695000Y-100257000I0J200000D01*
G01*
G37*
G36*
G01*
X107345000Y-100257000D02*
X107345000Y-99707000D01*
G75*
G02*
X107545000Y-99507000I200000J0D01*
G01*
X107945000Y-99507000D01*
G75*
G02*
X108145000Y-99707000I0J-200000D01*
G01*
X108145000Y-100257000D01*
G75*
G02*
X107945000Y-100457000I-200000J0D01*
G01*
X107545000Y-100457000D01*
G75*
G02*
X107345000Y-100257000I0J200000D01*
G01*
G37*
%TD*%
%TO.C,U5*%
G36*
G01*
X108987000Y-102409500D02*
X109187000Y-102409500D01*
G75*
G02*
X109287000Y-102509500I0J-100000D01*
G01*
X109287000Y-103784500D01*
G75*
G02*
X109187000Y-103884500I-100000J0D01*
G01*
X108987000Y-103884500D01*
G75*
G02*
X108887000Y-103784500I0J100000D01*
G01*
X108887000Y-102509500D01*
G75*
G02*
X108987000Y-102409500I100000J0D01*
G01*
G37*
G36*
G01*
X108337000Y-102409500D02*
X108537000Y-102409500D01*
G75*
G02*
X108637000Y-102509500I0J-100000D01*
G01*
X108637000Y-103784500D01*
G75*
G02*
X108537000Y-103884500I-100000J0D01*
G01*
X108337000Y-103884500D01*
G75*
G02*
X108237000Y-103784500I0J100000D01*
G01*
X108237000Y-102509500D01*
G75*
G02*
X108337000Y-102409500I100000J0D01*
G01*
G37*
G36*
G01*
X107687000Y-102409500D02*
X107887000Y-102409500D01*
G75*
G02*
X107987000Y-102509500I0J-100000D01*
G01*
X107987000Y-103784500D01*
G75*
G02*
X107887000Y-103884500I-100000J0D01*
G01*
X107687000Y-103884500D01*
G75*
G02*
X107587000Y-103784500I0J100000D01*
G01*
X107587000Y-102509500D01*
G75*
G02*
X107687000Y-102409500I100000J0D01*
G01*
G37*
G36*
G01*
X107037000Y-102409500D02*
X107237000Y-102409500D01*
G75*
G02*
X107337000Y-102509500I0J-100000D01*
G01*
X107337000Y-103784500D01*
G75*
G02*
X107237000Y-103884500I-100000J0D01*
G01*
X107037000Y-103884500D01*
G75*
G02*
X106937000Y-103784500I0J100000D01*
G01*
X106937000Y-102509500D01*
G75*
G02*
X107037000Y-102409500I100000J0D01*
G01*
G37*
G36*
G01*
X106387000Y-102409500D02*
X106587000Y-102409500D01*
G75*
G02*
X106687000Y-102509500I0J-100000D01*
G01*
X106687000Y-103784500D01*
G75*
G02*
X106587000Y-103884500I-100000J0D01*
G01*
X106387000Y-103884500D01*
G75*
G02*
X106287000Y-103784500I0J100000D01*
G01*
X106287000Y-102509500D01*
G75*
G02*
X106387000Y-102409500I100000J0D01*
G01*
G37*
G36*
G01*
X105737000Y-102409500D02*
X105937000Y-102409500D01*
G75*
G02*
X106037000Y-102509500I0J-100000D01*
G01*
X106037000Y-103784500D01*
G75*
G02*
X105937000Y-103884500I-100000J0D01*
G01*
X105737000Y-103884500D01*
G75*
G02*
X105637000Y-103784500I0J100000D01*
G01*
X105637000Y-102509500D01*
G75*
G02*
X105737000Y-102409500I100000J0D01*
G01*
G37*
G36*
G01*
X105087000Y-102409500D02*
X105287000Y-102409500D01*
G75*
G02*
X105387000Y-102509500I0J-100000D01*
G01*
X105387000Y-103784500D01*
G75*
G02*
X105287000Y-103884500I-100000J0D01*
G01*
X105087000Y-103884500D01*
G75*
G02*
X104987000Y-103784500I0J100000D01*
G01*
X104987000Y-102509500D01*
G75*
G02*
X105087000Y-102409500I100000J0D01*
G01*
G37*
G36*
G01*
X104437000Y-102409500D02*
X104637000Y-102409500D01*
G75*
G02*
X104737000Y-102509500I0J-100000D01*
G01*
X104737000Y-103784500D01*
G75*
G02*
X104637000Y-103884500I-100000J0D01*
G01*
X104437000Y-103884500D01*
G75*
G02*
X104337000Y-103784500I0J100000D01*
G01*
X104337000Y-102509500D01*
G75*
G02*
X104437000Y-102409500I100000J0D01*
G01*
G37*
G36*
G01*
X103787000Y-102409500D02*
X103987000Y-102409500D01*
G75*
G02*
X104087000Y-102509500I0J-100000D01*
G01*
X104087000Y-103784500D01*
G75*
G02*
X103987000Y-103884500I-100000J0D01*
G01*
X103787000Y-103884500D01*
G75*
G02*
X103687000Y-103784500I0J100000D01*
G01*
X103687000Y-102509500D01*
G75*
G02*
X103787000Y-102409500I100000J0D01*
G01*
G37*
G36*
G01*
X103137000Y-102409500D02*
X103337000Y-102409500D01*
G75*
G02*
X103437000Y-102509500I0J-100000D01*
G01*
X103437000Y-103784500D01*
G75*
G02*
X103337000Y-103884500I-100000J0D01*
G01*
X103137000Y-103884500D01*
G75*
G02*
X103037000Y-103784500I0J100000D01*
G01*
X103037000Y-102509500D01*
G75*
G02*
X103137000Y-102409500I100000J0D01*
G01*
G37*
G36*
G01*
X103137000Y-108134500D02*
X103337000Y-108134500D01*
G75*
G02*
X103437000Y-108234500I0J-100000D01*
G01*
X103437000Y-109509500D01*
G75*
G02*
X103337000Y-109609500I-100000J0D01*
G01*
X103137000Y-109609500D01*
G75*
G02*
X103037000Y-109509500I0J100000D01*
G01*
X103037000Y-108234500D01*
G75*
G02*
X103137000Y-108134500I100000J0D01*
G01*
G37*
G36*
G01*
X103787000Y-108134500D02*
X103987000Y-108134500D01*
G75*
G02*
X104087000Y-108234500I0J-100000D01*
G01*
X104087000Y-109509500D01*
G75*
G02*
X103987000Y-109609500I-100000J0D01*
G01*
X103787000Y-109609500D01*
G75*
G02*
X103687000Y-109509500I0J100000D01*
G01*
X103687000Y-108234500D01*
G75*
G02*
X103787000Y-108134500I100000J0D01*
G01*
G37*
G36*
G01*
X104437000Y-108134500D02*
X104637000Y-108134500D01*
G75*
G02*
X104737000Y-108234500I0J-100000D01*
G01*
X104737000Y-109509500D01*
G75*
G02*
X104637000Y-109609500I-100000J0D01*
G01*
X104437000Y-109609500D01*
G75*
G02*
X104337000Y-109509500I0J100000D01*
G01*
X104337000Y-108234500D01*
G75*
G02*
X104437000Y-108134500I100000J0D01*
G01*
G37*
G36*
G01*
X105087000Y-108134500D02*
X105287000Y-108134500D01*
G75*
G02*
X105387000Y-108234500I0J-100000D01*
G01*
X105387000Y-109509500D01*
G75*
G02*
X105287000Y-109609500I-100000J0D01*
G01*
X105087000Y-109609500D01*
G75*
G02*
X104987000Y-109509500I0J100000D01*
G01*
X104987000Y-108234500D01*
G75*
G02*
X105087000Y-108134500I100000J0D01*
G01*
G37*
G36*
G01*
X105737000Y-108134500D02*
X105937000Y-108134500D01*
G75*
G02*
X106037000Y-108234500I0J-100000D01*
G01*
X106037000Y-109509500D01*
G75*
G02*
X105937000Y-109609500I-100000J0D01*
G01*
X105737000Y-109609500D01*
G75*
G02*
X105637000Y-109509500I0J100000D01*
G01*
X105637000Y-108234500D01*
G75*
G02*
X105737000Y-108134500I100000J0D01*
G01*
G37*
G36*
G01*
X106387000Y-108134500D02*
X106587000Y-108134500D01*
G75*
G02*
X106687000Y-108234500I0J-100000D01*
G01*
X106687000Y-109509500D01*
G75*
G02*
X106587000Y-109609500I-100000J0D01*
G01*
X106387000Y-109609500D01*
G75*
G02*
X106287000Y-109509500I0J100000D01*
G01*
X106287000Y-108234500D01*
G75*
G02*
X106387000Y-108134500I100000J0D01*
G01*
G37*
G36*
G01*
X107037000Y-108134500D02*
X107237000Y-108134500D01*
G75*
G02*
X107337000Y-108234500I0J-100000D01*
G01*
X107337000Y-109509500D01*
G75*
G02*
X107237000Y-109609500I-100000J0D01*
G01*
X107037000Y-109609500D01*
G75*
G02*
X106937000Y-109509500I0J100000D01*
G01*
X106937000Y-108234500D01*
G75*
G02*
X107037000Y-108134500I100000J0D01*
G01*
G37*
G36*
G01*
X107687000Y-108134500D02*
X107887000Y-108134500D01*
G75*
G02*
X107987000Y-108234500I0J-100000D01*
G01*
X107987000Y-109509500D01*
G75*
G02*
X107887000Y-109609500I-100000J0D01*
G01*
X107687000Y-109609500D01*
G75*
G02*
X107587000Y-109509500I0J100000D01*
G01*
X107587000Y-108234500D01*
G75*
G02*
X107687000Y-108134500I100000J0D01*
G01*
G37*
G36*
G01*
X108337000Y-108134500D02*
X108537000Y-108134500D01*
G75*
G02*
X108637000Y-108234500I0J-100000D01*
G01*
X108637000Y-109509500D01*
G75*
G02*
X108537000Y-109609500I-100000J0D01*
G01*
X108337000Y-109609500D01*
G75*
G02*
X108237000Y-109509500I0J100000D01*
G01*
X108237000Y-108234500D01*
G75*
G02*
X108337000Y-108134500I100000J0D01*
G01*
G37*
G36*
G01*
X108987000Y-108134500D02*
X109187000Y-108134500D01*
G75*
G02*
X109287000Y-108234500I0J-100000D01*
G01*
X109287000Y-109509500D01*
G75*
G02*
X109187000Y-109609500I-100000J0D01*
G01*
X108987000Y-109609500D01*
G75*
G02*
X108887000Y-109509500I0J100000D01*
G01*
X108887000Y-108234500D01*
G75*
G02*
X108987000Y-108134500I100000J0D01*
G01*
G37*
%TD*%
D12*
%TO.C,Y1*%
X108374000Y-97315000D03*
X107174000Y-97315000D03*
X105974000Y-97315000D03*
%TD*%
%TO.C,C7*%
G36*
G01*
X117112000Y-98327000D02*
X117112000Y-97827000D01*
G75*
G02*
X117337000Y-97602000I225000J0D01*
G01*
X117787000Y-97602000D01*
G75*
G02*
X118012000Y-97827000I0J-225000D01*
G01*
X118012000Y-98327000D01*
G75*
G02*
X117787000Y-98552000I-225000J0D01*
G01*
X117337000Y-98552000D01*
G75*
G02*
X117112000Y-98327000I0J225000D01*
G01*
G37*
G36*
G01*
X118662000Y-98327000D02*
X118662000Y-97827000D01*
G75*
G02*
X118887000Y-97602000I225000J0D01*
G01*
X119337000Y-97602000D01*
G75*
G02*
X119562000Y-97827000I0J-225000D01*
G01*
X119562000Y-98327000D01*
G75*
G02*
X119337000Y-98552000I-225000J0D01*
G01*
X118887000Y-98552000D01*
G75*
G02*
X118662000Y-98327000I0J225000D01*
G01*
G37*
%TD*%
%TO.C,C15*%
G36*
G01*
X107092000Y-111027000D02*
X107092000Y-110527000D01*
G75*
G02*
X107317000Y-110302000I225000J0D01*
G01*
X107767000Y-110302000D01*
G75*
G02*
X107992000Y-110527000I0J-225000D01*
G01*
X107992000Y-111027000D01*
G75*
G02*
X107767000Y-111252000I-225000J0D01*
G01*
X107317000Y-111252000D01*
G75*
G02*
X107092000Y-111027000I0J225000D01*
G01*
G37*
G36*
G01*
X108642000Y-111027000D02*
X108642000Y-110527000D01*
G75*
G02*
X108867000Y-110302000I225000J0D01*
G01*
X109317000Y-110302000D01*
G75*
G02*
X109542000Y-110527000I0J-225000D01*
G01*
X109542000Y-111027000D01*
G75*
G02*
X109317000Y-111252000I-225000J0D01*
G01*
X108867000Y-111252000D01*
G75*
G02*
X108642000Y-111027000I0J225000D01*
G01*
G37*
%TD*%
D13*
%TO.C,JP3*%
G36*
X97002000Y-92751000D02*
G01*
X97002000Y-93901000D01*
X96252000Y-93401000D01*
X95502000Y-93901000D01*
X95502000Y-92751000D01*
X97002000Y-92751000D01*
G37*
G36*
X96252000Y-93701000D02*
G01*
X97002000Y-94201000D01*
X97002000Y-95201000D01*
X95502000Y-95201000D01*
X95502000Y-94201000D01*
X96252000Y-93701000D01*
G37*
%TD*%
%TO.C,JP5*%
G36*
X100582000Y-107774000D02*
G01*
X100582000Y-106624000D01*
X101332000Y-107124000D01*
X102082000Y-106624000D01*
X102082000Y-107774000D01*
X100582000Y-107774000D01*
G37*
G36*
X101332000Y-106824000D02*
G01*
X100582000Y-106324000D01*
X100582000Y-105324000D01*
X102082000Y-105324000D01*
X102082000Y-106324000D01*
X101332000Y-106824000D01*
G37*
%TD*%
%TO.C,JP6*%
G36*
X103282000Y-111908000D02*
G01*
X102132000Y-111908000D01*
X102632000Y-111158000D01*
X102132000Y-110408000D01*
X103282000Y-110408000D01*
X103282000Y-111908000D01*
G37*
G36*
X102332000Y-111158000D02*
G01*
X101832000Y-111908000D01*
X100832000Y-111908000D01*
X100832000Y-110408000D01*
X101832000Y-110408000D01*
X102332000Y-111158000D01*
G37*
%TD*%
%TO.C,R23*%
G36*
G01*
X114138000Y-96661000D02*
X114688000Y-96661000D01*
G75*
G02*
X114888000Y-96861000I0J-200000D01*
G01*
X114888000Y-97261000D01*
G75*
G02*
X114688000Y-97461000I-200000J0D01*
G01*
X114138000Y-97461000D01*
G75*
G02*
X113938000Y-97261000I0J200000D01*
G01*
X113938000Y-96861000D01*
G75*
G02*
X114138000Y-96661000I200000J0D01*
G01*
G37*
G36*
G01*
X114138000Y-98311000D02*
X114688000Y-98311000D01*
G75*
G02*
X114888000Y-98511000I0J-200000D01*
G01*
X114888000Y-98911000D01*
G75*
G02*
X114688000Y-99111000I-200000J0D01*
G01*
X114138000Y-99111000D01*
G75*
G02*
X113938000Y-98911000I0J200000D01*
G01*
X113938000Y-98511000D01*
G75*
G02*
X114138000Y-98311000I200000J0D01*
G01*
G37*
%TD*%
%TO.C,R25*%
G36*
G01*
X116339000Y-99112000D02*
X115789000Y-99112000D01*
G75*
G02*
X115589000Y-98912000I0J200000D01*
G01*
X115589000Y-98512000D01*
G75*
G02*
X115789000Y-98312000I200000J0D01*
G01*
X116339000Y-98312000D01*
G75*
G02*
X116539000Y-98512000I0J-200000D01*
G01*
X116539000Y-98912000D01*
G75*
G02*
X116339000Y-99112000I-200000J0D01*
G01*
G37*
G36*
G01*
X116339000Y-97462000D02*
X115789000Y-97462000D01*
G75*
G02*
X115589000Y-97262000I0J200000D01*
G01*
X115589000Y-96862000D01*
G75*
G02*
X115789000Y-96662000I200000J0D01*
G01*
X116339000Y-96662000D01*
G75*
G02*
X116539000Y-96862000I0J-200000D01*
G01*
X116539000Y-97262000D01*
G75*
G02*
X116339000Y-97462000I-200000J0D01*
G01*
G37*
%TD*%
D14*
%TO.C,F1*%
X124700000Y-110142000D03*
D15*
X124700000Y-102522000D03*
%TD*%
D16*
%TO.C,KP1*%
X101205000Y-103157000D03*
%TD*%
%TO.C,C17*%
G36*
G01*
X102279000Y-101375000D02*
X102279000Y-100875000D01*
G75*
G02*
X102504000Y-100650000I225000J0D01*
G01*
X102954000Y-100650000D01*
G75*
G02*
X103179000Y-100875000I0J-225000D01*
G01*
X103179000Y-101375000D01*
G75*
G02*
X102954000Y-101600000I-225000J0D01*
G01*
X102504000Y-101600000D01*
G75*
G02*
X102279000Y-101375000I0J225000D01*
G01*
G37*
G36*
G01*
X103829000Y-101375000D02*
X103829000Y-100875000D01*
G75*
G02*
X104054000Y-100650000I225000J0D01*
G01*
X104504000Y-100650000D01*
G75*
G02*
X104729000Y-100875000I0J-225000D01*
G01*
X104729000Y-101375000D01*
G75*
G02*
X104504000Y-101600000I-225000J0D01*
G01*
X104054000Y-101600000D01*
G75*
G02*
X103829000Y-101375000I0J225000D01*
G01*
G37*
%TD*%
D17*
%TO.C,J6*%
X103999000Y-97950000D03*
D18*
X103999000Y-96680000D03*
X102729000Y-97950000D03*
X102729000Y-96680000D03*
X101459000Y-97950000D03*
X101459000Y-96680000D03*
%TD*%
D17*
%TO.C,JP4*%
X114540000Y-93632000D03*
D18*
X114540000Y-94902000D03*
X115810000Y-93632000D03*
X115810000Y-94902000D03*
%TD*%
D19*
%TO.C,J1*%
X93458000Y-114714000D03*
D20*
X90918000Y-115222000D03*
X88378000Y-115222000D03*
%TD*%
D19*
%TO.C,J3*%
X125716000Y-114714000D03*
D20*
X123176000Y-115222000D03*
X120636000Y-115222000D03*
%TD*%
D19*
%TO.C,J4*%
X135622000Y-114714000D03*
D20*
X133082000Y-115222000D03*
X130542000Y-115222000D03*
%TD*%
D21*
%TO.C,U1*%
X93458000Y-94013000D03*
X93458000Y-96553000D03*
X93458000Y-109253000D03*
D22*
X93458000Y-114333000D03*
%TD*%
D23*
%TO.C,U4*%
X99427000Y-93378000D03*
D14*
X99427000Y-95918000D03*
X99427000Y-98458000D03*
X99427000Y-100998000D03*
X99436500Y-106078000D03*
X99427000Y-108618000D03*
X99427000Y-111158000D03*
%TD*%
D17*
%TO.C,U7*%
X93839000Y-100617000D03*
D24*
X93839000Y-101887000D03*
X95109000Y-100617000D03*
X95109000Y-101887000D03*
X96379000Y-100617000D03*
X96379000Y-101887000D03*
D17*
X113651000Y-100617000D03*
D24*
X113651000Y-101887000D03*
X114921000Y-100617000D03*
X114921000Y-101887000D03*
X116191000Y-100617000D03*
X116191000Y-101887000D03*
%TD*%
D25*
%TO.C,J5*%
X113938000Y-109888000D03*
X113938000Y-107348000D03*
X111238000Y-111158000D03*
X111238000Y-108618000D03*
X111238000Y-106078000D03*
%TD*%
D14*
%TO.C,F2*%
X134733000Y-110142000D03*
D15*
X134733000Y-102522000D03*
%TD*%
D17*
%TO.C,J2*%
X90791000Y-97950000D03*
D18*
X90791000Y-96680000D03*
X89521000Y-97950000D03*
X89521000Y-96680000D03*
X88251000Y-97950000D03*
X88251000Y-96680000D03*
%TD*%
D13*
%TO.C,JP1*%
G36*
X97821000Y-116353000D02*
G01*
X96671000Y-116353000D01*
X97171000Y-115603000D01*
X96671000Y-114853000D01*
X97821000Y-114853000D01*
X97821000Y-116353000D01*
G37*
G36*
X96871000Y-115603000D02*
G01*
X96371000Y-116353000D01*
X95371000Y-116353000D01*
X95371000Y-114853000D01*
X96371000Y-114853000D01*
X96871000Y-115603000D01*
G37*
%TD*%
D26*
%TO.C,U3*%
X135622000Y-114460000D03*
D27*
X135622000Y-106840000D03*
X135622000Y-96680000D03*
X135622000Y-94140000D03*
%TD*%
%TO.C,C3*%
G36*
G01*
X97591000Y-96176000D02*
X97591000Y-96676000D01*
G75*
G02*
X97366000Y-96901000I-225000J0D01*
G01*
X96916000Y-96901000D01*
G75*
G02*
X96691000Y-96676000I0J225000D01*
G01*
X96691000Y-96176000D01*
G75*
G02*
X96916000Y-95951000I225000J0D01*
G01*
X97366000Y-95951000D01*
G75*
G02*
X97591000Y-96176000I0J-225000D01*
G01*
G37*
G36*
G01*
X96041000Y-96176000D02*
X96041000Y-96676000D01*
G75*
G02*
X95816000Y-96901000I-225000J0D01*
G01*
X95366000Y-96901000D01*
G75*
G02*
X95141000Y-96676000I0J225000D01*
G01*
X95141000Y-96176000D01*
G75*
G02*
X95366000Y-95951000I225000J0D01*
G01*
X95816000Y-95951000D01*
G75*
G02*
X96041000Y-96176000I0J-225000D01*
G01*
G37*
%TD*%
%TO.C,C1*%
G36*
G01*
X119297000Y-96422000D02*
X119297000Y-95922000D01*
G75*
G02*
X119522000Y-95697000I225000J0D01*
G01*
X119972000Y-95697000D01*
G75*
G02*
X120197000Y-95922000I0J-225000D01*
G01*
X120197000Y-96422000D01*
G75*
G02*
X119972000Y-96647000I-225000J0D01*
G01*
X119522000Y-96647000D01*
G75*
G02*
X119297000Y-96422000I0J225000D01*
G01*
G37*
G36*
G01*
X120847000Y-96422000D02*
X120847000Y-95922000D01*
G75*
G02*
X121072000Y-95697000I225000J0D01*
G01*
X121522000Y-95697000D01*
G75*
G02*
X121747000Y-95922000I0J-225000D01*
G01*
X121747000Y-96422000D01*
G75*
G02*
X121522000Y-96647000I-225000J0D01*
G01*
X121072000Y-96647000D01*
G75*
G02*
X120847000Y-96422000I0J225000D01*
G01*
G37*
%TD*%
%TO.C,C2*%
G36*
G01*
X129203000Y-96422000D02*
X129203000Y-95922000D01*
G75*
G02*
X129428000Y-95697000I225000J0D01*
G01*
X129878000Y-95697000D01*
G75*
G02*
X130103000Y-95922000I0J-225000D01*
G01*
X130103000Y-96422000D01*
G75*
G02*
X129878000Y-96647000I-225000J0D01*
G01*
X129428000Y-96647000D01*
G75*
G02*
X129203000Y-96422000I0J225000D01*
G01*
G37*
G36*
G01*
X130753000Y-96422000D02*
X130753000Y-95922000D01*
G75*
G02*
X130978000Y-95697000I225000J0D01*
G01*
X131428000Y-95697000D01*
G75*
G02*
X131653000Y-95922000I0J-225000D01*
G01*
X131653000Y-96422000D01*
G75*
G02*
X131428000Y-96647000I-225000J0D01*
G01*
X130978000Y-96647000D01*
G75*
G02*
X130753000Y-96422000I0J225000D01*
G01*
G37*
%TD*%
D28*
%TO.C,D3*%
X123557000Y-96494000D03*
X123557000Y-94394000D03*
%TD*%
%TO.C,D4*%
X133463000Y-96494000D03*
X133463000Y-94394000D03*
%TD*%
%TO.C,R1*%
G36*
G01*
X121225500Y-92722000D02*
X121225500Y-93272000D01*
G75*
G02*
X121025500Y-93472000I-200000J0D01*
G01*
X120625500Y-93472000D01*
G75*
G02*
X120425500Y-93272000I0J200000D01*
G01*
X120425500Y-92722000D01*
G75*
G02*
X120625500Y-92522000I200000J0D01*
G01*
X121025500Y-92522000D01*
G75*
G02*
X121225500Y-92722000I0J-200000D01*
G01*
G37*
G36*
G01*
X119575500Y-92722000D02*
X119575500Y-93272000D01*
G75*
G02*
X119375500Y-93472000I-200000J0D01*
G01*
X118975500Y-93472000D01*
G75*
G02*
X118775500Y-93272000I0J200000D01*
G01*
X118775500Y-92722000D01*
G75*
G02*
X118975500Y-92522000I200000J0D01*
G01*
X119375500Y-92522000D01*
G75*
G02*
X119575500Y-92722000I0J-200000D01*
G01*
G37*
%TD*%
%TO.C,R2*%
G36*
G01*
X131131500Y-92722000D02*
X131131500Y-93272000D01*
G75*
G02*
X130931500Y-93472000I-200000J0D01*
G01*
X130531500Y-93472000D01*
G75*
G02*
X130331500Y-93272000I0J200000D01*
G01*
X130331500Y-92722000D01*
G75*
G02*
X130531500Y-92522000I200000J0D01*
G01*
X130931500Y-92522000D01*
G75*
G02*
X131131500Y-92722000I0J-200000D01*
G01*
G37*
G36*
G01*
X129481500Y-92722000D02*
X129481500Y-93272000D01*
G75*
G02*
X129281500Y-93472000I-200000J0D01*
G01*
X128881500Y-93472000D01*
G75*
G02*
X128681500Y-93272000I0J200000D01*
G01*
X128681500Y-92722000D01*
G75*
G02*
X128881500Y-92522000I200000J0D01*
G01*
X129281500Y-92522000D01*
G75*
G02*
X129481500Y-92722000I0J-200000D01*
G01*
G37*
%TD*%
%TO.C,R5*%
G36*
G01*
X121887000Y-93272000D02*
X121887000Y-92722000D01*
G75*
G02*
X122087000Y-92522000I200000J0D01*
G01*
X122487000Y-92522000D01*
G75*
G02*
X122687000Y-92722000I0J-200000D01*
G01*
X122687000Y-93272000D01*
G75*
G02*
X122487000Y-93472000I-200000J0D01*
G01*
X122087000Y-93472000D01*
G75*
G02*
X121887000Y-93272000I0J200000D01*
G01*
G37*
G36*
G01*
X123537000Y-93272000D02*
X123537000Y-92722000D01*
G75*
G02*
X123737000Y-92522000I200000J0D01*
G01*
X124137000Y-92522000D01*
G75*
G02*
X124337000Y-92722000I0J-200000D01*
G01*
X124337000Y-93272000D01*
G75*
G02*
X124137000Y-93472000I-200000J0D01*
G01*
X123737000Y-93472000D01*
G75*
G02*
X123537000Y-93272000I0J200000D01*
G01*
G37*
%TD*%
D29*
%TO.C,GND1*%
X90537000Y-103665000D03*
%TD*%
%TO.C,C4*%
G36*
G01*
X108440000Y-95098000D02*
X107940000Y-95098000D01*
G75*
G02*
X107715000Y-94873000I0J225000D01*
G01*
X107715000Y-94423000D01*
G75*
G02*
X107940000Y-94198000I225000J0D01*
G01*
X108440000Y-94198000D01*
G75*
G02*
X108665000Y-94423000I0J-225000D01*
G01*
X108665000Y-94873000D01*
G75*
G02*
X108440000Y-95098000I-225000J0D01*
G01*
G37*
G36*
G01*
X108440000Y-93548000D02*
X107940000Y-93548000D01*
G75*
G02*
X107715000Y-93323000I0J225000D01*
G01*
X107715000Y-92873000D01*
G75*
G02*
X107940000Y-92648000I225000J0D01*
G01*
X108440000Y-92648000D01*
G75*
G02*
X108665000Y-92873000I0J-225000D01*
G01*
X108665000Y-93323000D01*
G75*
G02*
X108440000Y-93548000I-225000J0D01*
G01*
G37*
%TD*%
%TO.C,R6*%
G36*
G01*
X121733500Y-94246000D02*
X121733500Y-94796000D01*
G75*
G02*
X121533500Y-94996000I-200000J0D01*
G01*
X121133500Y-94996000D01*
G75*
G02*
X120933500Y-94796000I0J200000D01*
G01*
X120933500Y-94246000D01*
G75*
G02*
X121133500Y-94046000I200000J0D01*
G01*
X121533500Y-94046000D01*
G75*
G02*
X121733500Y-94246000I0J-200000D01*
G01*
G37*
G36*
G01*
X120083500Y-94246000D02*
X120083500Y-94796000D01*
G75*
G02*
X119883500Y-94996000I-200000J0D01*
G01*
X119483500Y-94996000D01*
G75*
G02*
X119283500Y-94796000I0J200000D01*
G01*
X119283500Y-94246000D01*
G75*
G02*
X119483500Y-94046000I200000J0D01*
G01*
X119883500Y-94046000D01*
G75*
G02*
X120083500Y-94246000I0J-200000D01*
G01*
G37*
%TD*%
%TO.C,R8*%
G36*
G01*
X131793000Y-93272000D02*
X131793000Y-92722000D01*
G75*
G02*
X131993000Y-92522000I200000J0D01*
G01*
X132393000Y-92522000D01*
G75*
G02*
X132593000Y-92722000I0J-200000D01*
G01*
X132593000Y-93272000D01*
G75*
G02*
X132393000Y-93472000I-200000J0D01*
G01*
X131993000Y-93472000D01*
G75*
G02*
X131793000Y-93272000I0J200000D01*
G01*
G37*
G36*
G01*
X133443000Y-93272000D02*
X133443000Y-92722000D01*
G75*
G02*
X133643000Y-92522000I200000J0D01*
G01*
X134043000Y-92522000D01*
G75*
G02*
X134243000Y-92722000I0J-200000D01*
G01*
X134243000Y-93272000D01*
G75*
G02*
X134043000Y-93472000I-200000J0D01*
G01*
X133643000Y-93472000D01*
G75*
G02*
X133443000Y-93272000I0J200000D01*
G01*
G37*
%TD*%
%TO.C,R9*%
G36*
G01*
X131639500Y-94284100D02*
X131639500Y-94834100D01*
G75*
G02*
X131439500Y-95034100I-200000J0D01*
G01*
X131039500Y-95034100D01*
G75*
G02*
X130839500Y-94834100I0J200000D01*
G01*
X130839500Y-94284100D01*
G75*
G02*
X131039500Y-94084100I200000J0D01*
G01*
X131439500Y-94084100D01*
G75*
G02*
X131639500Y-94284100I0J-200000D01*
G01*
G37*
G36*
G01*
X129989500Y-94284100D02*
X129989500Y-94834100D01*
G75*
G02*
X129789500Y-95034100I-200000J0D01*
G01*
X129389500Y-95034100D01*
G75*
G02*
X129189500Y-94834100I0J200000D01*
G01*
X129189500Y-94284100D01*
G75*
G02*
X129389500Y-94084100I200000J0D01*
G01*
X129789500Y-94084100D01*
G75*
G02*
X129989500Y-94284100I0J-200000D01*
G01*
G37*
%TD*%
%TO.C,C9*%
G36*
G01*
X121131000Y-109159000D02*
X121131000Y-110109000D01*
G75*
G02*
X120881000Y-110359000I-250000J0D01*
G01*
X120381000Y-110359000D01*
G75*
G02*
X120131000Y-110109000I0J250000D01*
G01*
X120131000Y-109159000D01*
G75*
G02*
X120381000Y-108909000I250000J0D01*
G01*
X120881000Y-108909000D01*
G75*
G02*
X121131000Y-109159000I0J-250000D01*
G01*
G37*
G36*
G01*
X119231000Y-109159000D02*
X119231000Y-110109000D01*
G75*
G02*
X118981000Y-110359000I-250000J0D01*
G01*
X118481000Y-110359000D01*
G75*
G02*
X118231000Y-110109000I0J250000D01*
G01*
X118231000Y-109159000D01*
G75*
G02*
X118481000Y-108909000I250000J0D01*
G01*
X118981000Y-108909000D01*
G75*
G02*
X119231000Y-109159000I0J-250000D01*
G01*
G37*
%TD*%
%TO.C,C10*%
G36*
G01*
X118363000Y-107188000D02*
X118363000Y-106238000D01*
G75*
G02*
X118613000Y-105988000I250000J0D01*
G01*
X119113000Y-105988000D01*
G75*
G02*
X119363000Y-106238000I0J-250000D01*
G01*
X119363000Y-107188000D01*
G75*
G02*
X119113000Y-107438000I-250000J0D01*
G01*
X118613000Y-107438000D01*
G75*
G02*
X118363000Y-107188000I0J250000D01*
G01*
G37*
G36*
G01*
X120263000Y-107188000D02*
X120263000Y-106238000D01*
G75*
G02*
X120513000Y-105988000I250000J0D01*
G01*
X121013000Y-105988000D01*
G75*
G02*
X121263000Y-106238000I0J-250000D01*
G01*
X121263000Y-107188000D01*
G75*
G02*
X121013000Y-107438000I-250000J0D01*
G01*
X120513000Y-107438000D01*
G75*
G02*
X120263000Y-107188000I0J250000D01*
G01*
G37*
%TD*%
%TO.C,C11*%
G36*
G01*
X131169000Y-109159000D02*
X131169000Y-110109000D01*
G75*
G02*
X130919000Y-110359000I-250000J0D01*
G01*
X130419000Y-110359000D01*
G75*
G02*
X130169000Y-110109000I0J250000D01*
G01*
X130169000Y-109159000D01*
G75*
G02*
X130419000Y-108909000I250000J0D01*
G01*
X130919000Y-108909000D01*
G75*
G02*
X131169000Y-109159000I0J-250000D01*
G01*
G37*
G36*
G01*
X129269000Y-109159000D02*
X129269000Y-110109000D01*
G75*
G02*
X129019000Y-110359000I-250000J0D01*
G01*
X128519000Y-110359000D01*
G75*
G02*
X128269000Y-110109000I0J250000D01*
G01*
X128269000Y-109159000D01*
G75*
G02*
X128519000Y-108909000I250000J0D01*
G01*
X129019000Y-108909000D01*
G75*
G02*
X129269000Y-109159000I0J-250000D01*
G01*
G37*
%TD*%
%TO.C,C12*%
G36*
G01*
X128264000Y-107188000D02*
X128264000Y-106238000D01*
G75*
G02*
X128514000Y-105988000I250000J0D01*
G01*
X129014000Y-105988000D01*
G75*
G02*
X129264000Y-106238000I0J-250000D01*
G01*
X129264000Y-107188000D01*
G75*
G02*
X129014000Y-107438000I-250000J0D01*
G01*
X128514000Y-107438000D01*
G75*
G02*
X128264000Y-107188000I0J250000D01*
G01*
G37*
G36*
G01*
X130164000Y-107188000D02*
X130164000Y-106238000D01*
G75*
G02*
X130414000Y-105988000I250000J0D01*
G01*
X130914000Y-105988000D01*
G75*
G02*
X131164000Y-106238000I0J-250000D01*
G01*
X131164000Y-107188000D01*
G75*
G02*
X130914000Y-107438000I-250000J0D01*
G01*
X130414000Y-107438000D01*
G75*
G02*
X130164000Y-107188000I0J250000D01*
G01*
G37*
%TD*%
%TO.C,R21*%
G36*
G01*
X131101500Y-104230999D02*
X131101500Y-105131001D01*
G75*
G02*
X130851501Y-105381000I-249999J0D01*
G01*
X130326499Y-105381000D01*
G75*
G02*
X130076500Y-105131001I0J249999D01*
G01*
X130076500Y-104230999D01*
G75*
G02*
X130326499Y-103981000I249999J0D01*
G01*
X130851501Y-103981000D01*
G75*
G02*
X131101500Y-104230999I0J-249999D01*
G01*
G37*
G36*
G01*
X129276500Y-104230999D02*
X129276500Y-105131001D01*
G75*
G02*
X129026501Y-105381000I-249999J0D01*
G01*
X128501499Y-105381000D01*
G75*
G02*
X128251500Y-105131001I0J249999D01*
G01*
X128251500Y-104230999D01*
G75*
G02*
X128501499Y-103981000I249999J0D01*
G01*
X129026501Y-103981000D01*
G75*
G02*
X129276500Y-104230999I0J-249999D01*
G01*
G37*
%TD*%
D26*
%TO.C,U2*%
X125716000Y-114460000D03*
D27*
X125716000Y-106840000D03*
X125716000Y-96680000D03*
X125716000Y-94140000D03*
%TD*%
D13*
%TO.C,JP2*%
G36*
X97821000Y-109368000D02*
G01*
X96671000Y-109368000D01*
X97171000Y-108618000D01*
X96671000Y-107868000D01*
X97821000Y-107868000D01*
X97821000Y-109368000D01*
G37*
G36*
X96871000Y-108618000D02*
G01*
X96371000Y-109368000D01*
X95371000Y-109368000D01*
X95371000Y-107868000D01*
X96371000Y-107868000D01*
X96871000Y-108618000D01*
G37*
%TD*%
%TO.C,R18*%
G36*
G01*
X121068500Y-111215999D02*
X121068500Y-112116001D01*
G75*
G02*
X120818501Y-112366000I-249999J0D01*
G01*
X120293499Y-112366000D01*
G75*
G02*
X120043500Y-112116001I0J249999D01*
G01*
X120043500Y-111215999D01*
G75*
G02*
X120293499Y-110966000I249999J0D01*
G01*
X120818501Y-110966000D01*
G75*
G02*
X121068500Y-111215999I0J-249999D01*
G01*
G37*
G36*
G01*
X119243500Y-111215999D02*
X119243500Y-112116001D01*
G75*
G02*
X118993501Y-112366000I-249999J0D01*
G01*
X118468499Y-112366000D01*
G75*
G02*
X118218500Y-112116001I0J249999D01*
G01*
X118218500Y-111215999D01*
G75*
G02*
X118468499Y-110966000I249999J0D01*
G01*
X118993501Y-110966000D01*
G75*
G02*
X119243500Y-111215999I0J-249999D01*
G01*
G37*
%TD*%
%TO.C,R19*%
G36*
G01*
X121195500Y-104230999D02*
X121195500Y-105131001D01*
G75*
G02*
X120945501Y-105381000I-249999J0D01*
G01*
X120420499Y-105381000D01*
G75*
G02*
X120170500Y-105131001I0J249999D01*
G01*
X120170500Y-104230999D01*
G75*
G02*
X120420499Y-103981000I249999J0D01*
G01*
X120945501Y-103981000D01*
G75*
G02*
X121195500Y-104230999I0J-249999D01*
G01*
G37*
G36*
G01*
X119370500Y-104230999D02*
X119370500Y-105131001D01*
G75*
G02*
X119120501Y-105381000I-249999J0D01*
G01*
X118595499Y-105381000D01*
G75*
G02*
X118345500Y-105131001I0J249999D01*
G01*
X118345500Y-104230999D01*
G75*
G02*
X118595499Y-103981000I249999J0D01*
G01*
X119120501Y-103981000D01*
G75*
G02*
X119370500Y-104230999I0J-249999D01*
G01*
G37*
%TD*%
%TO.C,R20*%
G36*
G01*
X129276500Y-111215999D02*
X129276500Y-112116001D01*
G75*
G02*
X129026501Y-112366000I-249999J0D01*
G01*
X128501499Y-112366000D01*
G75*
G02*
X128251500Y-112116001I0J249999D01*
G01*
X128251500Y-111215999D01*
G75*
G02*
X128501499Y-110966000I249999J0D01*
G01*
X129026501Y-110966000D01*
G75*
G02*
X129276500Y-111215999I0J-249999D01*
G01*
G37*
G36*
G01*
X131101500Y-111215999D02*
X131101500Y-112116001D01*
G75*
G02*
X130851501Y-112366000I-249999J0D01*
G01*
X130326499Y-112366000D01*
G75*
G02*
X130076500Y-112116001I0J249999D01*
G01*
X130076500Y-111215999D01*
G75*
G02*
X130326499Y-110966000I249999J0D01*
G01*
X130851501Y-110966000D01*
G75*
G02*
X131101500Y-111215999I0J-249999D01*
G01*
G37*
%TD*%
D25*
%TO.C,J5*%
X111238000Y-81078000D03*
X111238000Y-83618000D03*
X111238000Y-86158000D03*
X113938000Y-82348000D03*
X113938000Y-84888000D03*
%TD*%
D24*
%TO.C,U7*%
X116191000Y-76887000D03*
X116191000Y-75617000D03*
X114921000Y-76887000D03*
X114921000Y-75617000D03*
X113651000Y-76887000D03*
D17*
X113651000Y-75617000D03*
D24*
X96379000Y-76887000D03*
X96379000Y-75617000D03*
X95109000Y-76887000D03*
X95109000Y-75617000D03*
X93839000Y-76887000D03*
D17*
X93839000Y-75617000D03*
%TD*%
D14*
%TO.C,U4*%
X99427000Y-86158000D03*
X99427000Y-83618000D03*
X99436500Y-81078000D03*
X99427000Y-75998000D03*
X99427000Y-73458000D03*
X99427000Y-70918000D03*
D23*
X99427000Y-68378000D03*
%TD*%
D22*
%TO.C,U1*%
X93458000Y-89333000D03*
D21*
X93458000Y-84253000D03*
X93458000Y-71553000D03*
X93458000Y-69013000D03*
%TD*%
D20*
%TO.C,J4*%
X130542000Y-90222000D03*
X133082000Y-90222000D03*
D19*
X135622000Y-89714000D03*
%TD*%
D20*
%TO.C,J3*%
X120636000Y-90222000D03*
X123176000Y-90222000D03*
D19*
X125716000Y-89714000D03*
%TD*%
D20*
%TO.C,J1*%
X88378000Y-90222000D03*
X90918000Y-90222000D03*
D19*
X93458000Y-89714000D03*
%TD*%
D18*
%TO.C,JP4*%
X115810000Y-69902000D03*
X115810000Y-68632000D03*
X114540000Y-69902000D03*
D17*
X114540000Y-68632000D03*
%TD*%
D18*
%TO.C,J6*%
X101459000Y-71680000D03*
X101459000Y-72950000D03*
X102729000Y-71680000D03*
X102729000Y-72950000D03*
X103999000Y-71680000D03*
D17*
X103999000Y-72950000D03*
%TD*%
%TO.C,C17*%
G36*
G01*
X103829000Y-76375000D02*
X103829000Y-75875000D01*
G75*
G02*
X104054000Y-75650000I225000J0D01*
G01*
X104504000Y-75650000D01*
G75*
G02*
X104729000Y-75875000I0J-225000D01*
G01*
X104729000Y-76375000D01*
G75*
G02*
X104504000Y-76600000I-225000J0D01*
G01*
X104054000Y-76600000D01*
G75*
G02*
X103829000Y-76375000I0J225000D01*
G01*
G37*
G36*
G01*
X102279000Y-76375000D02*
X102279000Y-75875000D01*
G75*
G02*
X102504000Y-75650000I225000J0D01*
G01*
X102954000Y-75650000D01*
G75*
G02*
X103179000Y-75875000I0J-225000D01*
G01*
X103179000Y-76375000D01*
G75*
G02*
X102954000Y-76600000I-225000J0D01*
G01*
X102504000Y-76600000D01*
G75*
G02*
X102279000Y-76375000I0J225000D01*
G01*
G37*
%TD*%
D16*
%TO.C,KP1*%
X101205000Y-78157000D03*
%TD*%
D15*
%TO.C,F1*%
X124700000Y-77522000D03*
D14*
X124700000Y-85142000D03*
%TD*%
%TO.C,R25*%
G36*
G01*
X116339000Y-72462000D02*
X115789000Y-72462000D01*
G75*
G02*
X115589000Y-72262000I0J200000D01*
G01*
X115589000Y-71862000D01*
G75*
G02*
X115789000Y-71662000I200000J0D01*
G01*
X116339000Y-71662000D01*
G75*
G02*
X116539000Y-71862000I0J-200000D01*
G01*
X116539000Y-72262000D01*
G75*
G02*
X116339000Y-72462000I-200000J0D01*
G01*
G37*
G36*
G01*
X116339000Y-74112000D02*
X115789000Y-74112000D01*
G75*
G02*
X115589000Y-73912000I0J200000D01*
G01*
X115589000Y-73512000D01*
G75*
G02*
X115789000Y-73312000I200000J0D01*
G01*
X116339000Y-73312000D01*
G75*
G02*
X116539000Y-73512000I0J-200000D01*
G01*
X116539000Y-73912000D01*
G75*
G02*
X116339000Y-74112000I-200000J0D01*
G01*
G37*
%TD*%
%TO.C,R23*%
G36*
G01*
X114138000Y-73311000D02*
X114688000Y-73311000D01*
G75*
G02*
X114888000Y-73511000I0J-200000D01*
G01*
X114888000Y-73911000D01*
G75*
G02*
X114688000Y-74111000I-200000J0D01*
G01*
X114138000Y-74111000D01*
G75*
G02*
X113938000Y-73911000I0J200000D01*
G01*
X113938000Y-73511000D01*
G75*
G02*
X114138000Y-73311000I200000J0D01*
G01*
G37*
G36*
G01*
X114138000Y-71661000D02*
X114688000Y-71661000D01*
G75*
G02*
X114888000Y-71861000I0J-200000D01*
G01*
X114888000Y-72261000D01*
G75*
G02*
X114688000Y-72461000I-200000J0D01*
G01*
X114138000Y-72461000D01*
G75*
G02*
X113938000Y-72261000I0J200000D01*
G01*
X113938000Y-71861000D01*
G75*
G02*
X114138000Y-71661000I200000J0D01*
G01*
G37*
%TD*%
%TO.C,C15*%
G36*
G01*
X108642000Y-86027000D02*
X108642000Y-85527000D01*
G75*
G02*
X108867000Y-85302000I225000J0D01*
G01*
X109317000Y-85302000D01*
G75*
G02*
X109542000Y-85527000I0J-225000D01*
G01*
X109542000Y-86027000D01*
G75*
G02*
X109317000Y-86252000I-225000J0D01*
G01*
X108867000Y-86252000D01*
G75*
G02*
X108642000Y-86027000I0J225000D01*
G01*
G37*
G36*
G01*
X107092000Y-86027000D02*
X107092000Y-85527000D01*
G75*
G02*
X107317000Y-85302000I225000J0D01*
G01*
X107767000Y-85302000D01*
G75*
G02*
X107992000Y-85527000I0J-225000D01*
G01*
X107992000Y-86027000D01*
G75*
G02*
X107767000Y-86252000I-225000J0D01*
G01*
X107317000Y-86252000D01*
G75*
G02*
X107092000Y-86027000I0J225000D01*
G01*
G37*
%TD*%
%TO.C,C7*%
G36*
G01*
X118662000Y-73327000D02*
X118662000Y-72827000D01*
G75*
G02*
X118887000Y-72602000I225000J0D01*
G01*
X119337000Y-72602000D01*
G75*
G02*
X119562000Y-72827000I0J-225000D01*
G01*
X119562000Y-73327000D01*
G75*
G02*
X119337000Y-73552000I-225000J0D01*
G01*
X118887000Y-73552000D01*
G75*
G02*
X118662000Y-73327000I0J225000D01*
G01*
G37*
G36*
G01*
X117112000Y-73327000D02*
X117112000Y-72827000D01*
G75*
G02*
X117337000Y-72602000I225000J0D01*
G01*
X117787000Y-72602000D01*
G75*
G02*
X118012000Y-72827000I0J-225000D01*
G01*
X118012000Y-73327000D01*
G75*
G02*
X117787000Y-73552000I-225000J0D01*
G01*
X117337000Y-73552000D01*
G75*
G02*
X117112000Y-73327000I0J225000D01*
G01*
G37*
%TD*%
D12*
%TO.C,Y1*%
X105974000Y-72315000D03*
X107174000Y-72315000D03*
X108374000Y-72315000D03*
%TD*%
%TO.C,U5*%
G36*
G01*
X108987000Y-83134500D02*
X109187000Y-83134500D01*
G75*
G02*
X109287000Y-83234500I0J-100000D01*
G01*
X109287000Y-84509500D01*
G75*
G02*
X109187000Y-84609500I-100000J0D01*
G01*
X108987000Y-84609500D01*
G75*
G02*
X108887000Y-84509500I0J100000D01*
G01*
X108887000Y-83234500D01*
G75*
G02*
X108987000Y-83134500I100000J0D01*
G01*
G37*
G36*
G01*
X108337000Y-83134500D02*
X108537000Y-83134500D01*
G75*
G02*
X108637000Y-83234500I0J-100000D01*
G01*
X108637000Y-84509500D01*
G75*
G02*
X108537000Y-84609500I-100000J0D01*
G01*
X108337000Y-84609500D01*
G75*
G02*
X108237000Y-84509500I0J100000D01*
G01*
X108237000Y-83234500D01*
G75*
G02*
X108337000Y-83134500I100000J0D01*
G01*
G37*
G36*
G01*
X107687000Y-83134500D02*
X107887000Y-83134500D01*
G75*
G02*
X107987000Y-83234500I0J-100000D01*
G01*
X107987000Y-84509500D01*
G75*
G02*
X107887000Y-84609500I-100000J0D01*
G01*
X107687000Y-84609500D01*
G75*
G02*
X107587000Y-84509500I0J100000D01*
G01*
X107587000Y-83234500D01*
G75*
G02*
X107687000Y-83134500I100000J0D01*
G01*
G37*
G36*
G01*
X107037000Y-83134500D02*
X107237000Y-83134500D01*
G75*
G02*
X107337000Y-83234500I0J-100000D01*
G01*
X107337000Y-84509500D01*
G75*
G02*
X107237000Y-84609500I-100000J0D01*
G01*
X107037000Y-84609500D01*
G75*
G02*
X106937000Y-84509500I0J100000D01*
G01*
X106937000Y-83234500D01*
G75*
G02*
X107037000Y-83134500I100000J0D01*
G01*
G37*
G36*
G01*
X106387000Y-83134500D02*
X106587000Y-83134500D01*
G75*
G02*
X106687000Y-83234500I0J-100000D01*
G01*
X106687000Y-84509500D01*
G75*
G02*
X106587000Y-84609500I-100000J0D01*
G01*
X106387000Y-84609500D01*
G75*
G02*
X106287000Y-84509500I0J100000D01*
G01*
X106287000Y-83234500D01*
G75*
G02*
X106387000Y-83134500I100000J0D01*
G01*
G37*
G36*
G01*
X105737000Y-83134500D02*
X105937000Y-83134500D01*
G75*
G02*
X106037000Y-83234500I0J-100000D01*
G01*
X106037000Y-84509500D01*
G75*
G02*
X105937000Y-84609500I-100000J0D01*
G01*
X105737000Y-84609500D01*
G75*
G02*
X105637000Y-84509500I0J100000D01*
G01*
X105637000Y-83234500D01*
G75*
G02*
X105737000Y-83134500I100000J0D01*
G01*
G37*
G36*
G01*
X105087000Y-83134500D02*
X105287000Y-83134500D01*
G75*
G02*
X105387000Y-83234500I0J-100000D01*
G01*
X105387000Y-84509500D01*
G75*
G02*
X105287000Y-84609500I-100000J0D01*
G01*
X105087000Y-84609500D01*
G75*
G02*
X104987000Y-84509500I0J100000D01*
G01*
X104987000Y-83234500D01*
G75*
G02*
X105087000Y-83134500I100000J0D01*
G01*
G37*
G36*
G01*
X104437000Y-83134500D02*
X104637000Y-83134500D01*
G75*
G02*
X104737000Y-83234500I0J-100000D01*
G01*
X104737000Y-84509500D01*
G75*
G02*
X104637000Y-84609500I-100000J0D01*
G01*
X104437000Y-84609500D01*
G75*
G02*
X104337000Y-84509500I0J100000D01*
G01*
X104337000Y-83234500D01*
G75*
G02*
X104437000Y-83134500I100000J0D01*
G01*
G37*
G36*
G01*
X103787000Y-83134500D02*
X103987000Y-83134500D01*
G75*
G02*
X104087000Y-83234500I0J-100000D01*
G01*
X104087000Y-84509500D01*
G75*
G02*
X103987000Y-84609500I-100000J0D01*
G01*
X103787000Y-84609500D01*
G75*
G02*
X103687000Y-84509500I0J100000D01*
G01*
X103687000Y-83234500D01*
G75*
G02*
X103787000Y-83134500I100000J0D01*
G01*
G37*
G36*
G01*
X103137000Y-83134500D02*
X103337000Y-83134500D01*
G75*
G02*
X103437000Y-83234500I0J-100000D01*
G01*
X103437000Y-84509500D01*
G75*
G02*
X103337000Y-84609500I-100000J0D01*
G01*
X103137000Y-84609500D01*
G75*
G02*
X103037000Y-84509500I0J100000D01*
G01*
X103037000Y-83234500D01*
G75*
G02*
X103137000Y-83134500I100000J0D01*
G01*
G37*
G36*
G01*
X103137000Y-77409500D02*
X103337000Y-77409500D01*
G75*
G02*
X103437000Y-77509500I0J-100000D01*
G01*
X103437000Y-78784500D01*
G75*
G02*
X103337000Y-78884500I-100000J0D01*
G01*
X103137000Y-78884500D01*
G75*
G02*
X103037000Y-78784500I0J100000D01*
G01*
X103037000Y-77509500D01*
G75*
G02*
X103137000Y-77409500I100000J0D01*
G01*
G37*
G36*
G01*
X103787000Y-77409500D02*
X103987000Y-77409500D01*
G75*
G02*
X104087000Y-77509500I0J-100000D01*
G01*
X104087000Y-78784500D01*
G75*
G02*
X103987000Y-78884500I-100000J0D01*
G01*
X103787000Y-78884500D01*
G75*
G02*
X103687000Y-78784500I0J100000D01*
G01*
X103687000Y-77509500D01*
G75*
G02*
X103787000Y-77409500I100000J0D01*
G01*
G37*
G36*
G01*
X104437000Y-77409500D02*
X104637000Y-77409500D01*
G75*
G02*
X104737000Y-77509500I0J-100000D01*
G01*
X104737000Y-78784500D01*
G75*
G02*
X104637000Y-78884500I-100000J0D01*
G01*
X104437000Y-78884500D01*
G75*
G02*
X104337000Y-78784500I0J100000D01*
G01*
X104337000Y-77509500D01*
G75*
G02*
X104437000Y-77409500I100000J0D01*
G01*
G37*
G36*
G01*
X105087000Y-77409500D02*
X105287000Y-77409500D01*
G75*
G02*
X105387000Y-77509500I0J-100000D01*
G01*
X105387000Y-78784500D01*
G75*
G02*
X105287000Y-78884500I-100000J0D01*
G01*
X105087000Y-78884500D01*
G75*
G02*
X104987000Y-78784500I0J100000D01*
G01*
X104987000Y-77509500D01*
G75*
G02*
X105087000Y-77409500I100000J0D01*
G01*
G37*
G36*
G01*
X105737000Y-77409500D02*
X105937000Y-77409500D01*
G75*
G02*
X106037000Y-77509500I0J-100000D01*
G01*
X106037000Y-78784500D01*
G75*
G02*
X105937000Y-78884500I-100000J0D01*
G01*
X105737000Y-78884500D01*
G75*
G02*
X105637000Y-78784500I0J100000D01*
G01*
X105637000Y-77509500D01*
G75*
G02*
X105737000Y-77409500I100000J0D01*
G01*
G37*
G36*
G01*
X106387000Y-77409500D02*
X106587000Y-77409500D01*
G75*
G02*
X106687000Y-77509500I0J-100000D01*
G01*
X106687000Y-78784500D01*
G75*
G02*
X106587000Y-78884500I-100000J0D01*
G01*
X106387000Y-78884500D01*
G75*
G02*
X106287000Y-78784500I0J100000D01*
G01*
X106287000Y-77509500D01*
G75*
G02*
X106387000Y-77409500I100000J0D01*
G01*
G37*
G36*
G01*
X107037000Y-77409500D02*
X107237000Y-77409500D01*
G75*
G02*
X107337000Y-77509500I0J-100000D01*
G01*
X107337000Y-78784500D01*
G75*
G02*
X107237000Y-78884500I-100000J0D01*
G01*
X107037000Y-78884500D01*
G75*
G02*
X106937000Y-78784500I0J100000D01*
G01*
X106937000Y-77509500D01*
G75*
G02*
X107037000Y-77409500I100000J0D01*
G01*
G37*
G36*
G01*
X107687000Y-77409500D02*
X107887000Y-77409500D01*
G75*
G02*
X107987000Y-77509500I0J-100000D01*
G01*
X107987000Y-78784500D01*
G75*
G02*
X107887000Y-78884500I-100000J0D01*
G01*
X107687000Y-78884500D01*
G75*
G02*
X107587000Y-78784500I0J100000D01*
G01*
X107587000Y-77509500D01*
G75*
G02*
X107687000Y-77409500I100000J0D01*
G01*
G37*
G36*
G01*
X108337000Y-77409500D02*
X108537000Y-77409500D01*
G75*
G02*
X108637000Y-77509500I0J-100000D01*
G01*
X108637000Y-78784500D01*
G75*
G02*
X108537000Y-78884500I-100000J0D01*
G01*
X108337000Y-78884500D01*
G75*
G02*
X108237000Y-78784500I0J100000D01*
G01*
X108237000Y-77509500D01*
G75*
G02*
X108337000Y-77409500I100000J0D01*
G01*
G37*
G36*
G01*
X108987000Y-77409500D02*
X109187000Y-77409500D01*
G75*
G02*
X109287000Y-77509500I0J-100000D01*
G01*
X109287000Y-78784500D01*
G75*
G02*
X109187000Y-78884500I-100000J0D01*
G01*
X108987000Y-78884500D01*
G75*
G02*
X108887000Y-78784500I0J100000D01*
G01*
X108887000Y-77509500D01*
G75*
G02*
X108987000Y-77409500I100000J0D01*
G01*
G37*
%TD*%
%TO.C,R24*%
G36*
G01*
X107345000Y-75257000D02*
X107345000Y-74707000D01*
G75*
G02*
X107545000Y-74507000I200000J0D01*
G01*
X107945000Y-74507000D01*
G75*
G02*
X108145000Y-74707000I0J-200000D01*
G01*
X108145000Y-75257000D01*
G75*
G02*
X107945000Y-75457000I-200000J0D01*
G01*
X107545000Y-75457000D01*
G75*
G02*
X107345000Y-75257000I0J200000D01*
G01*
G37*
G36*
G01*
X105695000Y-75257000D02*
X105695000Y-74707000D01*
G75*
G02*
X105895000Y-74507000I200000J0D01*
G01*
X106295000Y-74507000D01*
G75*
G02*
X106495000Y-74707000I0J-200000D01*
G01*
X106495000Y-75257000D01*
G75*
G02*
X106295000Y-75457000I-200000J0D01*
G01*
X105895000Y-75457000D01*
G75*
G02*
X105695000Y-75257000I0J200000D01*
G01*
G37*
%TD*%
%TO.C,C5*%
G36*
G01*
X106408000Y-68548000D02*
X105908000Y-68548000D01*
G75*
G02*
X105683000Y-68323000I0J225000D01*
G01*
X105683000Y-67873000D01*
G75*
G02*
X105908000Y-67648000I225000J0D01*
G01*
X106408000Y-67648000D01*
G75*
G02*
X106633000Y-67873000I0J-225000D01*
G01*
X106633000Y-68323000D01*
G75*
G02*
X106408000Y-68548000I-225000J0D01*
G01*
G37*
G36*
G01*
X106408000Y-70098000D02*
X105908000Y-70098000D01*
G75*
G02*
X105683000Y-69873000I0J225000D01*
G01*
X105683000Y-69423000D01*
G75*
G02*
X105908000Y-69198000I225000J0D01*
G01*
X106408000Y-69198000D01*
G75*
G02*
X106633000Y-69423000I0J-225000D01*
G01*
X106633000Y-69873000D01*
G75*
G02*
X106408000Y-70098000I-225000J0D01*
G01*
G37*
%TD*%
%TO.C,C4*%
G36*
G01*
X108440000Y-68548000D02*
X107940000Y-68548000D01*
G75*
G02*
X107715000Y-68323000I0J225000D01*
G01*
X107715000Y-67873000D01*
G75*
G02*
X107940000Y-67648000I225000J0D01*
G01*
X108440000Y-67648000D01*
G75*
G02*
X108665000Y-67873000I0J-225000D01*
G01*
X108665000Y-68323000D01*
G75*
G02*
X108440000Y-68548000I-225000J0D01*
G01*
G37*
G36*
G01*
X108440000Y-70098000D02*
X107940000Y-70098000D01*
G75*
G02*
X107715000Y-69873000I0J225000D01*
G01*
X107715000Y-69423000D01*
G75*
G02*
X107940000Y-69198000I225000J0D01*
G01*
X108440000Y-69198000D01*
G75*
G02*
X108665000Y-69423000I0J-225000D01*
G01*
X108665000Y-69873000D01*
G75*
G02*
X108440000Y-70098000I-225000J0D01*
G01*
G37*
%TD*%
D29*
%TO.C,GND1*%
X90537000Y-78665000D03*
%TD*%
D13*
%TO.C,JP6*%
G36*
X102332000Y-86158000D02*
G01*
X101832000Y-86908000D01*
X100832000Y-86908000D01*
X100832000Y-85408000D01*
X101832000Y-85408000D01*
X102332000Y-86158000D01*
G37*
G36*
X103282000Y-86908000D02*
G01*
X102132000Y-86908000D01*
X102632000Y-86158000D01*
X102132000Y-85408000D01*
X103282000Y-85408000D01*
X103282000Y-86908000D01*
G37*
%TD*%
%TO.C,JP5*%
G36*
X101332000Y-81824000D02*
G01*
X100582000Y-81324000D01*
X100582000Y-80324000D01*
X102082000Y-80324000D01*
X102082000Y-81324000D01*
X101332000Y-81824000D01*
G37*
G36*
X100582000Y-82774000D02*
G01*
X100582000Y-81624000D01*
X101332000Y-82124000D01*
X102082000Y-81624000D01*
X102082000Y-82774000D01*
X100582000Y-82774000D01*
G37*
%TD*%
%TO.C,JP3*%
G36*
X96252000Y-68701000D02*
G01*
X97002000Y-69201000D01*
X97002000Y-70201000D01*
X95502000Y-70201000D01*
X95502000Y-69201000D01*
X96252000Y-68701000D01*
G37*
G36*
X97002000Y-67751000D02*
G01*
X97002000Y-68901000D01*
X96252000Y-68401000D01*
X95502000Y-68901000D01*
X95502000Y-67751000D01*
X97002000Y-67751000D01*
G37*
%TD*%
%TO.C,JP2*%
G36*
X96871000Y-83618000D02*
G01*
X96371000Y-84368000D01*
X95371000Y-84368000D01*
X95371000Y-82868000D01*
X96371000Y-82868000D01*
X96871000Y-83618000D01*
G37*
G36*
X97821000Y-84368000D02*
G01*
X96671000Y-84368000D01*
X97171000Y-83618000D01*
X96671000Y-82868000D01*
X97821000Y-82868000D01*
X97821000Y-84368000D01*
G37*
%TD*%
D27*
%TO.C,U2*%
X125716000Y-69140000D03*
X125716000Y-71680000D03*
X125716000Y-81840000D03*
D26*
X125716000Y-89460000D03*
%TD*%
%TO.C,R21*%
G36*
G01*
X129276500Y-79230999D02*
X129276500Y-80131001D01*
G75*
G02*
X129026501Y-80381000I-249999J0D01*
G01*
X128501499Y-80381000D01*
G75*
G02*
X128251500Y-80131001I0J249999D01*
G01*
X128251500Y-79230999D01*
G75*
G02*
X128501499Y-78981000I249999J0D01*
G01*
X129026501Y-78981000D01*
G75*
G02*
X129276500Y-79230999I0J-249999D01*
G01*
G37*
G36*
G01*
X131101500Y-79230999D02*
X131101500Y-80131001D01*
G75*
G02*
X130851501Y-80381000I-249999J0D01*
G01*
X130326499Y-80381000D01*
G75*
G02*
X130076500Y-80131001I0J249999D01*
G01*
X130076500Y-79230999D01*
G75*
G02*
X130326499Y-78981000I249999J0D01*
G01*
X130851501Y-78981000D01*
G75*
G02*
X131101500Y-79230999I0J-249999D01*
G01*
G37*
%TD*%
%TO.C,R20*%
G36*
G01*
X131101500Y-86215999D02*
X131101500Y-87116001D01*
G75*
G02*
X130851501Y-87366000I-249999J0D01*
G01*
X130326499Y-87366000D01*
G75*
G02*
X130076500Y-87116001I0J249999D01*
G01*
X130076500Y-86215999D01*
G75*
G02*
X130326499Y-85966000I249999J0D01*
G01*
X130851501Y-85966000D01*
G75*
G02*
X131101500Y-86215999I0J-249999D01*
G01*
G37*
G36*
G01*
X129276500Y-86215999D02*
X129276500Y-87116001D01*
G75*
G02*
X129026501Y-87366000I-249999J0D01*
G01*
X128501499Y-87366000D01*
G75*
G02*
X128251500Y-87116001I0J249999D01*
G01*
X128251500Y-86215999D01*
G75*
G02*
X128501499Y-85966000I249999J0D01*
G01*
X129026501Y-85966000D01*
G75*
G02*
X129276500Y-86215999I0J-249999D01*
G01*
G37*
%TD*%
%TO.C,R19*%
G36*
G01*
X119370500Y-79230999D02*
X119370500Y-80131001D01*
G75*
G02*
X119120501Y-80381000I-249999J0D01*
G01*
X118595499Y-80381000D01*
G75*
G02*
X118345500Y-80131001I0J249999D01*
G01*
X118345500Y-79230999D01*
G75*
G02*
X118595499Y-78981000I249999J0D01*
G01*
X119120501Y-78981000D01*
G75*
G02*
X119370500Y-79230999I0J-249999D01*
G01*
G37*
G36*
G01*
X121195500Y-79230999D02*
X121195500Y-80131001D01*
G75*
G02*
X120945501Y-80381000I-249999J0D01*
G01*
X120420499Y-80381000D01*
G75*
G02*
X120170500Y-80131001I0J249999D01*
G01*
X120170500Y-79230999D01*
G75*
G02*
X120420499Y-78981000I249999J0D01*
G01*
X120945501Y-78981000D01*
G75*
G02*
X121195500Y-79230999I0J-249999D01*
G01*
G37*
%TD*%
%TO.C,R18*%
G36*
G01*
X119243500Y-86215999D02*
X119243500Y-87116001D01*
G75*
G02*
X118993501Y-87366000I-249999J0D01*
G01*
X118468499Y-87366000D01*
G75*
G02*
X118218500Y-87116001I0J249999D01*
G01*
X118218500Y-86215999D01*
G75*
G02*
X118468499Y-85966000I249999J0D01*
G01*
X118993501Y-85966000D01*
G75*
G02*
X119243500Y-86215999I0J-249999D01*
G01*
G37*
G36*
G01*
X121068500Y-86215999D02*
X121068500Y-87116001D01*
G75*
G02*
X120818501Y-87366000I-249999J0D01*
G01*
X120293499Y-87366000D01*
G75*
G02*
X120043500Y-87116001I0J249999D01*
G01*
X120043500Y-86215999D01*
G75*
G02*
X120293499Y-85966000I249999J0D01*
G01*
X120818501Y-85966000D01*
G75*
G02*
X121068500Y-86215999I0J-249999D01*
G01*
G37*
%TD*%
%TO.C,C12*%
G36*
G01*
X130164000Y-82188000D02*
X130164000Y-81238000D01*
G75*
G02*
X130414000Y-80988000I250000J0D01*
G01*
X130914000Y-80988000D01*
G75*
G02*
X131164000Y-81238000I0J-250000D01*
G01*
X131164000Y-82188000D01*
G75*
G02*
X130914000Y-82438000I-250000J0D01*
G01*
X130414000Y-82438000D01*
G75*
G02*
X130164000Y-82188000I0J250000D01*
G01*
G37*
G36*
G01*
X128264000Y-82188000D02*
X128264000Y-81238000D01*
G75*
G02*
X128514000Y-80988000I250000J0D01*
G01*
X129014000Y-80988000D01*
G75*
G02*
X129264000Y-81238000I0J-250000D01*
G01*
X129264000Y-82188000D01*
G75*
G02*
X129014000Y-82438000I-250000J0D01*
G01*
X128514000Y-82438000D01*
G75*
G02*
X128264000Y-82188000I0J250000D01*
G01*
G37*
%TD*%
%TO.C,C11*%
G36*
G01*
X129269000Y-84159000D02*
X129269000Y-85109000D01*
G75*
G02*
X129019000Y-85359000I-250000J0D01*
G01*
X128519000Y-85359000D01*
G75*
G02*
X128269000Y-85109000I0J250000D01*
G01*
X128269000Y-84159000D01*
G75*
G02*
X128519000Y-83909000I250000J0D01*
G01*
X129019000Y-83909000D01*
G75*
G02*
X129269000Y-84159000I0J-250000D01*
G01*
G37*
G36*
G01*
X131169000Y-84159000D02*
X131169000Y-85109000D01*
G75*
G02*
X130919000Y-85359000I-250000J0D01*
G01*
X130419000Y-85359000D01*
G75*
G02*
X130169000Y-85109000I0J250000D01*
G01*
X130169000Y-84159000D01*
G75*
G02*
X130419000Y-83909000I250000J0D01*
G01*
X130919000Y-83909000D01*
G75*
G02*
X131169000Y-84159000I0J-250000D01*
G01*
G37*
%TD*%
%TO.C,C10*%
G36*
G01*
X120263000Y-82188000D02*
X120263000Y-81238000D01*
G75*
G02*
X120513000Y-80988000I250000J0D01*
G01*
X121013000Y-80988000D01*
G75*
G02*
X121263000Y-81238000I0J-250000D01*
G01*
X121263000Y-82188000D01*
G75*
G02*
X121013000Y-82438000I-250000J0D01*
G01*
X120513000Y-82438000D01*
G75*
G02*
X120263000Y-82188000I0J250000D01*
G01*
G37*
G36*
G01*
X118363000Y-82188000D02*
X118363000Y-81238000D01*
G75*
G02*
X118613000Y-80988000I250000J0D01*
G01*
X119113000Y-80988000D01*
G75*
G02*
X119363000Y-81238000I0J-250000D01*
G01*
X119363000Y-82188000D01*
G75*
G02*
X119113000Y-82438000I-250000J0D01*
G01*
X118613000Y-82438000D01*
G75*
G02*
X118363000Y-82188000I0J250000D01*
G01*
G37*
%TD*%
%TO.C,C9*%
G36*
G01*
X119231000Y-84159000D02*
X119231000Y-85109000D01*
G75*
G02*
X118981000Y-85359000I-250000J0D01*
G01*
X118481000Y-85359000D01*
G75*
G02*
X118231000Y-85109000I0J250000D01*
G01*
X118231000Y-84159000D01*
G75*
G02*
X118481000Y-83909000I250000J0D01*
G01*
X118981000Y-83909000D01*
G75*
G02*
X119231000Y-84159000I0J-250000D01*
G01*
G37*
G36*
G01*
X121131000Y-84159000D02*
X121131000Y-85109000D01*
G75*
G02*
X120881000Y-85359000I-250000J0D01*
G01*
X120381000Y-85359000D01*
G75*
G02*
X120131000Y-85109000I0J250000D01*
G01*
X120131000Y-84159000D01*
G75*
G02*
X120381000Y-83909000I250000J0D01*
G01*
X120881000Y-83909000D01*
G75*
G02*
X121131000Y-84159000I0J-250000D01*
G01*
G37*
%TD*%
%TO.C,R9*%
G36*
G01*
X129989500Y-69284100D02*
X129989500Y-69834100D01*
G75*
G02*
X129789500Y-70034100I-200000J0D01*
G01*
X129389500Y-70034100D01*
G75*
G02*
X129189500Y-69834100I0J200000D01*
G01*
X129189500Y-69284100D01*
G75*
G02*
X129389500Y-69084100I200000J0D01*
G01*
X129789500Y-69084100D01*
G75*
G02*
X129989500Y-69284100I0J-200000D01*
G01*
G37*
G36*
G01*
X131639500Y-69284100D02*
X131639500Y-69834100D01*
G75*
G02*
X131439500Y-70034100I-200000J0D01*
G01*
X131039500Y-70034100D01*
G75*
G02*
X130839500Y-69834100I0J200000D01*
G01*
X130839500Y-69284100D01*
G75*
G02*
X131039500Y-69084100I200000J0D01*
G01*
X131439500Y-69084100D01*
G75*
G02*
X131639500Y-69284100I0J-200000D01*
G01*
G37*
%TD*%
%TO.C,R8*%
G36*
G01*
X133443000Y-68272000D02*
X133443000Y-67722000D01*
G75*
G02*
X133643000Y-67522000I200000J0D01*
G01*
X134043000Y-67522000D01*
G75*
G02*
X134243000Y-67722000I0J-200000D01*
G01*
X134243000Y-68272000D01*
G75*
G02*
X134043000Y-68472000I-200000J0D01*
G01*
X133643000Y-68472000D01*
G75*
G02*
X133443000Y-68272000I0J200000D01*
G01*
G37*
G36*
G01*
X131793000Y-68272000D02*
X131793000Y-67722000D01*
G75*
G02*
X131993000Y-67522000I200000J0D01*
G01*
X132393000Y-67522000D01*
G75*
G02*
X132593000Y-67722000I0J-200000D01*
G01*
X132593000Y-68272000D01*
G75*
G02*
X132393000Y-68472000I-200000J0D01*
G01*
X131993000Y-68472000D01*
G75*
G02*
X131793000Y-68272000I0J200000D01*
G01*
G37*
%TD*%
%TO.C,R6*%
G36*
G01*
X120083500Y-69246000D02*
X120083500Y-69796000D01*
G75*
G02*
X119883500Y-69996000I-200000J0D01*
G01*
X119483500Y-69996000D01*
G75*
G02*
X119283500Y-69796000I0J200000D01*
G01*
X119283500Y-69246000D01*
G75*
G02*
X119483500Y-69046000I200000J0D01*
G01*
X119883500Y-69046000D01*
G75*
G02*
X120083500Y-69246000I0J-200000D01*
G01*
G37*
G36*
G01*
X121733500Y-69246000D02*
X121733500Y-69796000D01*
G75*
G02*
X121533500Y-69996000I-200000J0D01*
G01*
X121133500Y-69996000D01*
G75*
G02*
X120933500Y-69796000I0J200000D01*
G01*
X120933500Y-69246000D01*
G75*
G02*
X121133500Y-69046000I200000J0D01*
G01*
X121533500Y-69046000D01*
G75*
G02*
X121733500Y-69246000I0J-200000D01*
G01*
G37*
%TD*%
%TO.C,R5*%
G36*
G01*
X123537000Y-68272000D02*
X123537000Y-67722000D01*
G75*
G02*
X123737000Y-67522000I200000J0D01*
G01*
X124137000Y-67522000D01*
G75*
G02*
X124337000Y-67722000I0J-200000D01*
G01*
X124337000Y-68272000D01*
G75*
G02*
X124137000Y-68472000I-200000J0D01*
G01*
X123737000Y-68472000D01*
G75*
G02*
X123537000Y-68272000I0J200000D01*
G01*
G37*
G36*
G01*
X121887000Y-68272000D02*
X121887000Y-67722000D01*
G75*
G02*
X122087000Y-67522000I200000J0D01*
G01*
X122487000Y-67522000D01*
G75*
G02*
X122687000Y-67722000I0J-200000D01*
G01*
X122687000Y-68272000D01*
G75*
G02*
X122487000Y-68472000I-200000J0D01*
G01*
X122087000Y-68472000D01*
G75*
G02*
X121887000Y-68272000I0J200000D01*
G01*
G37*
%TD*%
%TO.C,R2*%
G36*
G01*
X129481500Y-67722000D02*
X129481500Y-68272000D01*
G75*
G02*
X129281500Y-68472000I-200000J0D01*
G01*
X128881500Y-68472000D01*
G75*
G02*
X128681500Y-68272000I0J200000D01*
G01*
X128681500Y-67722000D01*
G75*
G02*
X128881500Y-67522000I200000J0D01*
G01*
X129281500Y-67522000D01*
G75*
G02*
X129481500Y-67722000I0J-200000D01*
G01*
G37*
G36*
G01*
X131131500Y-67722000D02*
X131131500Y-68272000D01*
G75*
G02*
X130931500Y-68472000I-200000J0D01*
G01*
X130531500Y-68472000D01*
G75*
G02*
X130331500Y-68272000I0J200000D01*
G01*
X130331500Y-67722000D01*
G75*
G02*
X130531500Y-67522000I200000J0D01*
G01*
X130931500Y-67522000D01*
G75*
G02*
X131131500Y-67722000I0J-200000D01*
G01*
G37*
%TD*%
%TO.C,R1*%
G36*
G01*
X119575500Y-67722000D02*
X119575500Y-68272000D01*
G75*
G02*
X119375500Y-68472000I-200000J0D01*
G01*
X118975500Y-68472000D01*
G75*
G02*
X118775500Y-68272000I0J200000D01*
G01*
X118775500Y-67722000D01*
G75*
G02*
X118975500Y-67522000I200000J0D01*
G01*
X119375500Y-67522000D01*
G75*
G02*
X119575500Y-67722000I0J-200000D01*
G01*
G37*
G36*
G01*
X121225500Y-67722000D02*
X121225500Y-68272000D01*
G75*
G02*
X121025500Y-68472000I-200000J0D01*
G01*
X120625500Y-68472000D01*
G75*
G02*
X120425500Y-68272000I0J200000D01*
G01*
X120425500Y-67722000D01*
G75*
G02*
X120625500Y-67522000I200000J0D01*
G01*
X121025500Y-67522000D01*
G75*
G02*
X121225500Y-67722000I0J-200000D01*
G01*
G37*
%TD*%
D28*
%TO.C,D4*%
X133463000Y-69394000D03*
X133463000Y-71494000D03*
%TD*%
%TO.C,D3*%
X123557000Y-69394000D03*
X123557000Y-71494000D03*
%TD*%
%TO.C,C2*%
G36*
G01*
X130753000Y-71422000D02*
X130753000Y-70922000D01*
G75*
G02*
X130978000Y-70697000I225000J0D01*
G01*
X131428000Y-70697000D01*
G75*
G02*
X131653000Y-70922000I0J-225000D01*
G01*
X131653000Y-71422000D01*
G75*
G02*
X131428000Y-71647000I-225000J0D01*
G01*
X130978000Y-71647000D01*
G75*
G02*
X130753000Y-71422000I0J225000D01*
G01*
G37*
G36*
G01*
X129203000Y-71422000D02*
X129203000Y-70922000D01*
G75*
G02*
X129428000Y-70697000I225000J0D01*
G01*
X129878000Y-70697000D01*
G75*
G02*
X130103000Y-70922000I0J-225000D01*
G01*
X130103000Y-71422000D01*
G75*
G02*
X129878000Y-71647000I-225000J0D01*
G01*
X129428000Y-71647000D01*
G75*
G02*
X129203000Y-71422000I0J225000D01*
G01*
G37*
%TD*%
%TO.C,C1*%
G36*
G01*
X120847000Y-71422000D02*
X120847000Y-70922000D01*
G75*
G02*
X121072000Y-70697000I225000J0D01*
G01*
X121522000Y-70697000D01*
G75*
G02*
X121747000Y-70922000I0J-225000D01*
G01*
X121747000Y-71422000D01*
G75*
G02*
X121522000Y-71647000I-225000J0D01*
G01*
X121072000Y-71647000D01*
G75*
G02*
X120847000Y-71422000I0J225000D01*
G01*
G37*
G36*
G01*
X119297000Y-71422000D02*
X119297000Y-70922000D01*
G75*
G02*
X119522000Y-70697000I225000J0D01*
G01*
X119972000Y-70697000D01*
G75*
G02*
X120197000Y-70922000I0J-225000D01*
G01*
X120197000Y-71422000D01*
G75*
G02*
X119972000Y-71647000I-225000J0D01*
G01*
X119522000Y-71647000D01*
G75*
G02*
X119297000Y-71422000I0J225000D01*
G01*
G37*
%TD*%
%TO.C,C3*%
G36*
G01*
X96041000Y-71176000D02*
X96041000Y-71676000D01*
G75*
G02*
X95816000Y-71901000I-225000J0D01*
G01*
X95366000Y-71901000D01*
G75*
G02*
X95141000Y-71676000I0J225000D01*
G01*
X95141000Y-71176000D01*
G75*
G02*
X95366000Y-70951000I225000J0D01*
G01*
X95816000Y-70951000D01*
G75*
G02*
X96041000Y-71176000I0J-225000D01*
G01*
G37*
G36*
G01*
X97591000Y-71176000D02*
X97591000Y-71676000D01*
G75*
G02*
X97366000Y-71901000I-225000J0D01*
G01*
X96916000Y-71901000D01*
G75*
G02*
X96691000Y-71676000I0J225000D01*
G01*
X96691000Y-71176000D01*
G75*
G02*
X96916000Y-70951000I225000J0D01*
G01*
X97366000Y-70951000D01*
G75*
G02*
X97591000Y-71176000I0J-225000D01*
G01*
G37*
%TD*%
D27*
%TO.C,U3*%
X135622000Y-69140000D03*
X135622000Y-71680000D03*
X135622000Y-81840000D03*
D26*
X135622000Y-89460000D03*
%TD*%
D13*
%TO.C,JP1*%
G36*
X96871000Y-90603000D02*
G01*
X96371000Y-91353000D01*
X95371000Y-91353000D01*
X95371000Y-89853000D01*
X96371000Y-89853000D01*
X96871000Y-90603000D01*
G37*
G36*
X97821000Y-91353000D02*
G01*
X96671000Y-91353000D01*
X97171000Y-90603000D01*
X96671000Y-89853000D01*
X97821000Y-89853000D01*
X97821000Y-91353000D01*
G37*
%TD*%
D18*
%TO.C,J2*%
X88251000Y-71680000D03*
X88251000Y-72950000D03*
X89521000Y-71680000D03*
X89521000Y-72950000D03*
X90791000Y-71680000D03*
D17*
X90791000Y-72950000D03*
%TD*%
D15*
%TO.C,F2*%
X134733000Y-77522000D03*
D14*
X134733000Y-85142000D03*
%TD*%
M02*
