M48
; DRILL file {KiCad (5.1.10)-1} date 01/17/22 18:44:26
; FORMAT={3:3/ absolute / metric / keep zeros}
; #@! TF.CreationDate,2022-01-17T18:44:26+07:00
; #@! TF.GenerationSoftware,Kicad,Pcbnew,(5.1.10)-1
; #@! TF.FileFunction,Plated,1,4,PTH
FMAT,2
METRIC
T1C0.400
T2C0.500
T3C0.600
T4C0.650
T5C0.700
T6C0.800
T7C1.000
T8C1.200
%
G90
G05
T1
X088124Y-080697
X088124Y-105697
X091425Y-076379
X091425Y-101379
X102729Y-076125
X102729Y-101125
X102961Y-081883
X102961Y-106883
X103361Y-080840
X103361Y-105840
X103765Y-082529
X103765Y-107529
X104279Y-076125
X104279Y-101125
X104888Y-079501
X104888Y-104501
X105062Y-086285
X105062Y-111285
X105777Y-076760
X105777Y-101760
X105777Y-082475
X105777Y-107475
X105899Y-079490
X105899Y-104490
X105978Y-085274
X105978Y-110274
X106412Y-086285
X106412Y-111285
X106937Y-080974
X106937Y-105974
X107031Y-082502
X107031Y-107502
X107174Y-068505
X107174Y-093505
X108070Y-082455
X108070Y-107455
X109057Y-085755
X109057Y-110755
X109738Y-081373
X109738Y-106373
X110730Y-068505
X110730Y-093505
X111024Y-079312
X111024Y-104312
X112663Y-079172
X112663Y-104172
X112961Y-087063
X112961Y-112063
X114286Y-079834
X114286Y-104834
X115572Y-084142
X115572Y-109142
X116064Y-073712
X116064Y-098712
X118863Y-081713
X118863Y-106713
X119097Y-077633
X119097Y-102633
X119112Y-073077
X119112Y-074601
X119112Y-098077
X119112Y-099601
X119176Y-067997
X119176Y-092997
X119684Y-069521
X119684Y-094521
X120683Y-079681
X120683Y-104681
X122160Y-074474
X122160Y-099474
X122282Y-082353
X122282Y-107353
X128764Y-081713
X128764Y-106713
X129018Y-073077
X129018Y-098077
X129082Y-067997
X129082Y-092997
X129590Y-069559
X129590Y-094559
X130589Y-079681
X130589Y-104681
T2
X111288Y-085072
X111288Y-110072
T3
X093839Y-075617
X093839Y-076887
X093839Y-100617
X093839Y-101887
X095109Y-075617
X095109Y-076887
X095109Y-100617
X095109Y-101887
X096379Y-075617
X096379Y-076887
X096379Y-100617
X096379Y-101887
X113651Y-075617
X113651Y-076887
X113651Y-100617
X113651Y-101887
X114921Y-075617
X114921Y-076887
X114921Y-100617
X114921Y-101887
X116191Y-075617
X116191Y-076887
X116191Y-100617
X116191Y-101887
T4
X088251Y-071680
X088251Y-072950
X088251Y-096680
X088251Y-097950
X089521Y-071680
X089521Y-072950
X089521Y-096680
X089521Y-097950
X090791Y-071680
X090791Y-072950
X090791Y-096680
X090791Y-097950
X101459Y-071680
X101459Y-072950
X101459Y-096680
X101459Y-097950
X102729Y-071680
X102729Y-072950
X102729Y-096680
X102729Y-097950
X103999Y-071680
X103999Y-072950
X103999Y-096680
X103999Y-097950
X114540Y-068632
X114540Y-069902
X114540Y-093632
X114540Y-094902
X115810Y-068632
X115810Y-069902
X115810Y-093632
X115810Y-094902
T5
X098919Y-090730
X098919Y-115730
X101205Y-078157
X101205Y-103157
X101332Y-082729
X101332Y-107729
X103258Y-086261
X103258Y-111261
X120763Y-083110
X120763Y-108110
X130669Y-083110
X130669Y-108110
T6
X124700Y-077522
X124700Y-085142
X124700Y-102522
X124700Y-110142
X134733Y-077522
X134733Y-085142
X134733Y-102522
X134733Y-110142
T7
X088378Y-090222
X088378Y-115222
X090537Y-078665
X090537Y-103665
X090918Y-090222
X090918Y-115222
X093458Y-069013
X093458Y-071553
X093458Y-084253
X093458Y-089333
X093458Y-094013
X093458Y-096553
X093458Y-109253
X093458Y-114333
X099427Y-068378
X099427Y-070918
X099427Y-073458
X099427Y-075998
X099427Y-083618
X099427Y-086158
X099427Y-093378
X099427Y-095918
X099427Y-098458
X099427Y-100998
X099427Y-108618
X099427Y-111158
X099437Y-081078
X099437Y-106078
X120636Y-090222
X120636Y-115222
X123176Y-090222
X123176Y-115222
X130542Y-090222
X130542Y-115222
X133082Y-090222
X133082Y-115222
T8
X125716Y-069140
X125716Y-071680
X125716Y-081840
X125716Y-089460
X125716Y-094140
X125716Y-096680
X125716Y-106840
X125716Y-114460
X135622Y-069140
X135622Y-071680
X135622Y-081840
X135622Y-089460
X135622Y-094140
X135622Y-096680
X135622Y-106840
X135622Y-114460
T8
G00X093458Y-089314
M15
G01X093458Y-090114
M16
G05
G00X093458Y-114314
M15
G01X093458Y-115114
M16
G05
G00X125716Y-089314
M15
G01X125716Y-090114
M16
G05
G00X125716Y-114314
M15
G01X125716Y-115114
M16
G05
G00X135622Y-089314
M15
G01X135622Y-090114
M16
G05
G00X135622Y-114314
M15
G01X135622Y-115114
M16
G05
T0
M30
