%TF.GenerationSoftware,KiCad,Pcbnew,(5.1.10)-1*%
%TF.CreationDate,2022-01-18T18:17:05+07:00*%
%TF.ProjectId,Power_manager_v3_pnlz1x2,506f7765-725f-46d6-916e-616765725f76,rev?*%
%TF.SameCoordinates,Original*%
%TF.FileFunction,Legend,Bot*%
%TF.FilePolarity,Positive*%
%FSLAX46Y46*%
G04 Gerber Fmt 4.6, Leading zero omitted, Abs format (unit mm)*
G04 Created by KiCad (PCBNEW (5.1.10)-1) date 2022-01-18 18:17:05*
%MOMM*%
%LPD*%
G01*
G04 APERTURE LIST*
%ADD10C,0.150000*%
%ADD11C,0.120000*%
%ADD12R,1.000000X1.000000*%
%ADD13O,1.000000X1.000000*%
%ADD14R,1.900000X2.700000*%
%ADD15O,1.700000X1.700000*%
%ADD16O,2.400000X1.700000*%
%ADD17R,2.400000X1.700000*%
%ADD18R,1.600000X1.600000*%
%ADD19C,1.600000*%
%ADD20C,1.000000*%
%ADD21R,0.800000X0.900000*%
%ADD22R,0.400000X1.000000*%
%ADD23R,0.400000X3.200000*%
%ADD24C,2.000000*%
%ADD25R,1.800000X1.500000*%
%ADD26R,1.800000X1.800000*%
%ADD27C,1.800000*%
%ADD28O,1.600000X1.600000*%
%ADD29C,1.500000*%
G04 APERTURE END LIST*
D10*
X60941428Y-92142000D02*
X60941428Y-92903904D01*
X61322380Y-92522952D02*
X60560476Y-92522952D01*
X60322380Y-93284857D02*
X60322380Y-93903904D01*
X60703333Y-93570571D01*
X60703333Y-93713428D01*
X60750952Y-93808666D01*
X60798571Y-93856285D01*
X60893809Y-93903904D01*
X61131904Y-93903904D01*
X61227142Y-93856285D01*
X61274761Y-93808666D01*
X61322380Y-93713428D01*
X61322380Y-93427714D01*
X61274761Y-93332476D01*
X61227142Y-93284857D01*
X61227142Y-94332476D02*
X61274761Y-94380095D01*
X61322380Y-94332476D01*
X61274761Y-94284857D01*
X61227142Y-94332476D01*
X61322380Y-94332476D01*
X60322380Y-94713428D02*
X60322380Y-95332476D01*
X60703333Y-94999142D01*
X60703333Y-95142000D01*
X60750952Y-95237238D01*
X60798571Y-95284857D01*
X60893809Y-95332476D01*
X61131904Y-95332476D01*
X61227142Y-95284857D01*
X61274761Y-95237238D01*
X61322380Y-95142000D01*
X61322380Y-94856285D01*
X61274761Y-94761047D01*
X61227142Y-94713428D01*
X60322380Y-95618190D02*
X61322380Y-95951523D01*
X60322380Y-96284857D01*
X60941428Y-86125285D02*
X60941428Y-86887190D01*
X61322380Y-86506238D02*
X60560476Y-86506238D01*
X60322380Y-87839571D02*
X60322380Y-87363380D01*
X60798571Y-87315761D01*
X60750952Y-87363380D01*
X60703333Y-87458619D01*
X60703333Y-87696714D01*
X60750952Y-87791952D01*
X60798571Y-87839571D01*
X60893809Y-87887190D01*
X61131904Y-87887190D01*
X61227142Y-87839571D01*
X61274761Y-87791952D01*
X61322380Y-87696714D01*
X61322380Y-87458619D01*
X61274761Y-87363380D01*
X61227142Y-87315761D01*
X60322380Y-88172904D02*
X61322380Y-88506238D01*
X60322380Y-88839571D01*
X60941428Y-67142000D02*
X60941428Y-67903904D01*
X61322380Y-67522952D02*
X60560476Y-67522952D01*
X60322380Y-68284857D02*
X60322380Y-68903904D01*
X60703333Y-68570571D01*
X60703333Y-68713428D01*
X60750952Y-68808666D01*
X60798571Y-68856285D01*
X60893809Y-68903904D01*
X61131904Y-68903904D01*
X61227142Y-68856285D01*
X61274761Y-68808666D01*
X61322380Y-68713428D01*
X61322380Y-68427714D01*
X61274761Y-68332476D01*
X61227142Y-68284857D01*
X61227142Y-69332476D02*
X61274761Y-69380095D01*
X61322380Y-69332476D01*
X61274761Y-69284857D01*
X61227142Y-69332476D01*
X61322380Y-69332476D01*
X60322380Y-69713428D02*
X60322380Y-70332476D01*
X60703333Y-69999142D01*
X60703333Y-70142000D01*
X60750952Y-70237238D01*
X60798571Y-70284857D01*
X60893809Y-70332476D01*
X61131904Y-70332476D01*
X61227142Y-70284857D01*
X61274761Y-70237238D01*
X61322380Y-70142000D01*
X61322380Y-69856285D01*
X61274761Y-69761047D01*
X61227142Y-69713428D01*
X60322380Y-70618190D02*
X61322380Y-70951523D01*
X60322380Y-71284857D01*
X60941428Y-61125285D02*
X60941428Y-61887190D01*
X61322380Y-61506238D02*
X60560476Y-61506238D01*
X60322380Y-62839571D02*
X60322380Y-62363380D01*
X60798571Y-62315761D01*
X60750952Y-62363380D01*
X60703333Y-62458619D01*
X60703333Y-62696714D01*
X60750952Y-62791952D01*
X60798571Y-62839571D01*
X60893809Y-62887190D01*
X61131904Y-62887190D01*
X61227142Y-62839571D01*
X61274761Y-62791952D01*
X61322380Y-62696714D01*
X61322380Y-62458619D01*
X61274761Y-62363380D01*
X61227142Y-62315761D01*
X60322380Y-63172904D02*
X61322380Y-63506238D01*
X60322380Y-63839571D01*
D11*
%TO.C,JP4*%
X89505000Y-76502000D02*
X89505000Y-77324470D01*
X89505000Y-79209530D02*
X89505000Y-80032000D01*
X89505000Y-77939530D02*
X89505000Y-78594470D01*
X88300000Y-76502000D02*
X89505000Y-76502000D01*
X86845000Y-80032000D02*
X89505000Y-80032000D01*
X88300000Y-76502000D02*
X88300000Y-77068529D01*
X88300000Y-78195471D02*
X88300000Y-78338529D01*
X88246529Y-78392000D02*
X88103471Y-78392000D01*
X86976529Y-78392000D02*
X86845000Y-78392000D01*
X86845000Y-78392000D02*
X86845000Y-78594470D01*
X86845000Y-79209530D02*
X86845000Y-80032000D01*
X87540000Y-76502000D02*
X86780000Y-76502000D01*
X86780000Y-76502000D02*
X86780000Y-77632000D01*
%TO.C,U1*%
X74208000Y-99543000D02*
X74208000Y-76043000D01*
X74208000Y-76043000D02*
X60708000Y-76043000D01*
X60708000Y-99543000D02*
X74208000Y-99543000D01*
X61708000Y-99543000D02*
X61708000Y-76043000D01*
X60708000Y-99543000D02*
X60708000Y-76043000D01*
%TO.C,U4*%
X78100500Y-76030000D02*
X78100500Y-97530000D01*
X88311500Y-97530000D02*
X71039500Y-97530000D01*
X76500500Y-76030000D02*
X76500500Y-97530000D01*
X88311500Y-76030000D02*
X71039500Y-76030000D01*
X88311500Y-76030000D02*
X88311500Y-97530000D01*
X71039500Y-76030000D02*
X71039500Y-97530000D01*
%TO.C,C14*%
X81444580Y-94267000D02*
X81163420Y-94267000D01*
X81444580Y-95287000D02*
X81163420Y-95287000D01*
%TO.C,C16*%
X86776000Y-87918420D02*
X86776000Y-88199580D01*
X87796000Y-87918420D02*
X87796000Y-88199580D01*
%TO.C,C19*%
X83224000Y-77732420D02*
X83224000Y-78013580D01*
X82204000Y-77732420D02*
X82204000Y-78013580D01*
%TO.C,Q1*%
X91106000Y-78761000D02*
X91106000Y-80221000D01*
X94266000Y-78761000D02*
X94266000Y-80921000D01*
X94266000Y-78761000D02*
X93336000Y-78761000D01*
X91106000Y-78761000D02*
X92036000Y-78761000D01*
%TO.C,R3*%
X93175258Y-84123500D02*
X92700742Y-84123500D01*
X93175258Y-83078500D02*
X92700742Y-83078500D01*
%TO.C,R7*%
X93175258Y-82599500D02*
X92700742Y-82599500D01*
X93175258Y-81554500D02*
X92700742Y-81554500D01*
%TO.C,R11*%
X78138564Y-99195000D02*
X77684436Y-99195000D01*
X78138564Y-97725000D02*
X77684436Y-97725000D01*
%TO.C,R14*%
X63490742Y-90698500D02*
X63965258Y-90698500D01*
X63490742Y-91743500D02*
X63965258Y-91743500D01*
%TO.C,Q2*%
X101012000Y-78793000D02*
X101012000Y-80253000D01*
X104172000Y-78793000D02*
X104172000Y-80953000D01*
X104172000Y-78793000D02*
X103242000Y-78793000D01*
X101012000Y-78793000D02*
X101942000Y-78793000D01*
%TO.C,R10*%
X103081258Y-82599500D02*
X102606742Y-82599500D01*
X103081258Y-81554500D02*
X102606742Y-81554500D01*
%TO.C,R4*%
X103081258Y-84123500D02*
X102606742Y-84123500D01*
X103081258Y-83078500D02*
X102606742Y-83078500D01*
%TO.C,C6*%
X69758000Y-78902580D02*
X69758000Y-78621420D01*
X70778000Y-78902580D02*
X70778000Y-78621420D01*
%TO.C,C8*%
X68208000Y-78902580D02*
X68208000Y-78621420D01*
X69228000Y-78902580D02*
X69228000Y-78621420D01*
%TO.C,C13*%
X85327252Y-96274000D02*
X84804748Y-96274000D01*
X85327252Y-94804000D02*
X84804748Y-94804000D01*
%TO.C,C18*%
X85256000Y-77732420D02*
X85256000Y-78013580D01*
X84236000Y-77732420D02*
X84236000Y-78013580D01*
%TO.C,R12*%
X74582564Y-100465000D02*
X74128436Y-100465000D01*
X74582564Y-98995000D02*
X74128436Y-98995000D01*
%TO.C,R17*%
X81694564Y-98433000D02*
X81240436Y-98433000D01*
X81694564Y-96963000D02*
X81240436Y-96963000D01*
%TO.C,R22*%
X84876436Y-96963000D02*
X85330564Y-96963000D01*
X84876436Y-98433000D02*
X85330564Y-98433000D01*
%TO.C,R26*%
X84030258Y-84504500D02*
X83555742Y-84504500D01*
X84030258Y-83459500D02*
X83555742Y-83459500D01*
D10*
%TO.C,U6*%
X80807000Y-92297000D02*
X80807000Y-87647000D01*
X86332000Y-93372000D02*
X86332000Y-87672000D01*
X80807000Y-92297000D02*
X80832000Y-92297000D01*
X80807000Y-87647000D02*
X80832000Y-87647000D01*
X86332000Y-87672000D02*
X86232000Y-87672000D01*
D11*
%TO.C,Y2*%
X85530000Y-82515000D02*
X85380000Y-82515000D01*
X85530000Y-80115000D02*
X85380000Y-80115000D01*
X82980000Y-80115000D02*
X82930000Y-80115000D01*
X81930000Y-80115000D02*
X82080000Y-80115000D01*
X81930000Y-82515000D02*
X82080000Y-82515000D01*
X81730000Y-80515000D02*
X81730000Y-80115000D01*
X81930000Y-80515000D02*
X81930000Y-80115000D01*
X85530000Y-80515000D02*
X85530000Y-80115000D01*
X81730000Y-82515000D02*
X81730000Y-80515000D01*
X82980000Y-80115000D02*
X82980000Y-79715000D01*
X81930000Y-80515000D02*
X81930000Y-82515000D01*
X85530000Y-82515000D02*
X85530000Y-80515000D01*
%TO.C,GND1*%
X64737000Y-87665000D02*
G75*
G03*
X64737000Y-87665000I-1200000J0D01*
G01*
%TO.C,R16*%
X104011000Y-94972000D02*
X104011000Y-93772000D01*
X102311000Y-93772000D02*
X102311000Y-94972000D01*
%TO.C,U2*%
X100066000Y-76050000D02*
X100066000Y-100550000D01*
X100066000Y-76050000D02*
X94566000Y-76050000D01*
X94566000Y-76050000D02*
X94566000Y-100550000D01*
X100066000Y-100550000D02*
X94566000Y-100550000D01*
%TO.C,D6*%
X61859000Y-88999500D02*
X61859000Y-91284500D01*
X60389000Y-88999500D02*
X61859000Y-88999500D01*
X60389000Y-91284500D02*
X60389000Y-88999500D01*
%TO.C,L1*%
X76922436Y-96020000D02*
X77376564Y-96020000D01*
X76922436Y-94550000D02*
X77376564Y-94550000D01*
%TO.C,R27*%
X91589500Y-85585742D02*
X91589500Y-86060258D01*
X92634500Y-85585742D02*
X92634500Y-86060258D01*
%TO.C,R15*%
X94232000Y-94972000D02*
X94232000Y-93772000D01*
X92532000Y-93772000D02*
X92532000Y-94972000D01*
%TO.C,U3*%
X109972000Y-76050000D02*
X109972000Y-100550000D01*
X109972000Y-76050000D02*
X104472000Y-76050000D01*
X104472000Y-76050000D02*
X104472000Y-100550000D01*
X109972000Y-100550000D02*
X104472000Y-100550000D01*
%TO.C,D5*%
X61859000Y-83106500D02*
X61859000Y-85391500D01*
X60389000Y-83106500D02*
X61859000Y-83106500D01*
X60389000Y-85391500D02*
X60389000Y-83106500D01*
%TO.C,R13*%
X63362742Y-84856500D02*
X63837258Y-84856500D01*
X63362742Y-85901500D02*
X63837258Y-85901500D01*
%TO.C,D1*%
X91478000Y-76262000D02*
X93763000Y-76262000D01*
X91478000Y-77732000D02*
X91478000Y-76262000D01*
X93763000Y-77732000D02*
X91478000Y-77732000D01*
%TO.C,D2*%
X101384000Y-76262000D02*
X103669000Y-76262000D01*
X101384000Y-77732000D02*
X101384000Y-76262000D01*
X103669000Y-77732000D02*
X101384000Y-77732000D01*
%TO.C,U4*%
X71039500Y-51030000D02*
X71039500Y-72530000D01*
X88311500Y-51030000D02*
X88311500Y-72530000D01*
X88311500Y-51030000D02*
X71039500Y-51030000D01*
X76500500Y-51030000D02*
X76500500Y-72530000D01*
X88311500Y-72530000D02*
X71039500Y-72530000D01*
X78100500Y-51030000D02*
X78100500Y-72530000D01*
%TO.C,U1*%
X60708000Y-74543000D02*
X60708000Y-51043000D01*
X61708000Y-74543000D02*
X61708000Y-51043000D01*
X60708000Y-74543000D02*
X74208000Y-74543000D01*
X74208000Y-51043000D02*
X60708000Y-51043000D01*
X74208000Y-74543000D02*
X74208000Y-51043000D01*
%TO.C,JP4*%
X86780000Y-51502000D02*
X86780000Y-52632000D01*
X87540000Y-51502000D02*
X86780000Y-51502000D01*
X86845000Y-54209530D02*
X86845000Y-55032000D01*
X86845000Y-53392000D02*
X86845000Y-53594470D01*
X86976529Y-53392000D02*
X86845000Y-53392000D01*
X88246529Y-53392000D02*
X88103471Y-53392000D01*
X88300000Y-53195471D02*
X88300000Y-53338529D01*
X88300000Y-51502000D02*
X88300000Y-52068529D01*
X86845000Y-55032000D02*
X89505000Y-55032000D01*
X88300000Y-51502000D02*
X89505000Y-51502000D01*
X89505000Y-52939530D02*
X89505000Y-53594470D01*
X89505000Y-54209530D02*
X89505000Y-55032000D01*
X89505000Y-51502000D02*
X89505000Y-52324470D01*
%TO.C,R27*%
X92634500Y-60585742D02*
X92634500Y-61060258D01*
X91589500Y-60585742D02*
X91589500Y-61060258D01*
%TO.C,L1*%
X76922436Y-69550000D02*
X77376564Y-69550000D01*
X76922436Y-71020000D02*
X77376564Y-71020000D01*
%TO.C,C16*%
X87796000Y-62918420D02*
X87796000Y-63199580D01*
X86776000Y-62918420D02*
X86776000Y-63199580D01*
%TO.C,C14*%
X81444580Y-70287000D02*
X81163420Y-70287000D01*
X81444580Y-69267000D02*
X81163420Y-69267000D01*
%TO.C,GND1*%
X64737000Y-62665000D02*
G75*
G03*
X64737000Y-62665000I-1200000J0D01*
G01*
%TO.C,Y2*%
X85530000Y-57515000D02*
X85530000Y-55515000D01*
X81930000Y-55515000D02*
X81930000Y-57515000D01*
X82980000Y-55115000D02*
X82980000Y-54715000D01*
X81730000Y-57515000D02*
X81730000Y-55515000D01*
X85530000Y-55515000D02*
X85530000Y-55115000D01*
X81930000Y-55515000D02*
X81930000Y-55115000D01*
X81730000Y-55515000D02*
X81730000Y-55115000D01*
X81930000Y-57515000D02*
X82080000Y-57515000D01*
X81930000Y-55115000D02*
X82080000Y-55115000D01*
X82980000Y-55115000D02*
X82930000Y-55115000D01*
X85530000Y-55115000D02*
X85380000Y-55115000D01*
X85530000Y-57515000D02*
X85380000Y-57515000D01*
D10*
%TO.C,U6*%
X86332000Y-62672000D02*
X86232000Y-62672000D01*
X80807000Y-62647000D02*
X80832000Y-62647000D01*
X80807000Y-67297000D02*
X80832000Y-67297000D01*
X86332000Y-68372000D02*
X86332000Y-62672000D01*
X80807000Y-67297000D02*
X80807000Y-62647000D01*
D11*
%TO.C,R26*%
X84030258Y-58459500D02*
X83555742Y-58459500D01*
X84030258Y-59504500D02*
X83555742Y-59504500D01*
%TO.C,R22*%
X84876436Y-73433000D02*
X85330564Y-73433000D01*
X84876436Y-71963000D02*
X85330564Y-71963000D01*
%TO.C,R17*%
X81694564Y-71963000D02*
X81240436Y-71963000D01*
X81694564Y-73433000D02*
X81240436Y-73433000D01*
%TO.C,R12*%
X74582564Y-73995000D02*
X74128436Y-73995000D01*
X74582564Y-75465000D02*
X74128436Y-75465000D01*
%TO.C,R11*%
X78138564Y-72725000D02*
X77684436Y-72725000D01*
X78138564Y-74195000D02*
X77684436Y-74195000D01*
%TO.C,R7*%
X93175258Y-56554500D02*
X92700742Y-56554500D01*
X93175258Y-57599500D02*
X92700742Y-57599500D01*
%TO.C,R3*%
X93175258Y-58078500D02*
X92700742Y-58078500D01*
X93175258Y-59123500D02*
X92700742Y-59123500D01*
%TO.C,Q1*%
X91106000Y-53761000D02*
X92036000Y-53761000D01*
X94266000Y-53761000D02*
X93336000Y-53761000D01*
X94266000Y-53761000D02*
X94266000Y-55921000D01*
X91106000Y-53761000D02*
X91106000Y-55221000D01*
%TO.C,C19*%
X82204000Y-52732420D02*
X82204000Y-53013580D01*
X83224000Y-52732420D02*
X83224000Y-53013580D01*
%TO.C,C18*%
X84236000Y-52732420D02*
X84236000Y-53013580D01*
X85256000Y-52732420D02*
X85256000Y-53013580D01*
%TO.C,C13*%
X85327252Y-69804000D02*
X84804748Y-69804000D01*
X85327252Y-71274000D02*
X84804748Y-71274000D01*
%TO.C,C8*%
X69228000Y-53902580D02*
X69228000Y-53621420D01*
X68208000Y-53902580D02*
X68208000Y-53621420D01*
%TO.C,C6*%
X70778000Y-53902580D02*
X70778000Y-53621420D01*
X69758000Y-53902580D02*
X69758000Y-53621420D01*
%TO.C,R4*%
X103081258Y-58078500D02*
X102606742Y-58078500D01*
X103081258Y-59123500D02*
X102606742Y-59123500D01*
%TO.C,R10*%
X103081258Y-56554500D02*
X102606742Y-56554500D01*
X103081258Y-57599500D02*
X102606742Y-57599500D01*
%TO.C,Q2*%
X101012000Y-53793000D02*
X101942000Y-53793000D01*
X104172000Y-53793000D02*
X103242000Y-53793000D01*
X104172000Y-53793000D02*
X104172000Y-55953000D01*
X101012000Y-53793000D02*
X101012000Y-55253000D01*
%TO.C,R14*%
X63490742Y-66743500D02*
X63965258Y-66743500D01*
X63490742Y-65698500D02*
X63965258Y-65698500D01*
%TO.C,D6*%
X60389000Y-66284500D02*
X60389000Y-63999500D01*
X60389000Y-63999500D02*
X61859000Y-63999500D01*
X61859000Y-63999500D02*
X61859000Y-66284500D01*
%TO.C,U2*%
X100066000Y-75550000D02*
X94566000Y-75550000D01*
X94566000Y-51050000D02*
X94566000Y-75550000D01*
X100066000Y-51050000D02*
X94566000Y-51050000D01*
X100066000Y-51050000D02*
X100066000Y-75550000D01*
%TO.C,R16*%
X102311000Y-68772000D02*
X102311000Y-69972000D01*
X104011000Y-69972000D02*
X104011000Y-68772000D01*
%TO.C,R15*%
X92532000Y-68772000D02*
X92532000Y-69972000D01*
X94232000Y-69972000D02*
X94232000Y-68772000D01*
%TO.C,D2*%
X103669000Y-52732000D02*
X101384000Y-52732000D01*
X101384000Y-52732000D02*
X101384000Y-51262000D01*
X101384000Y-51262000D02*
X103669000Y-51262000D01*
%TO.C,D1*%
X93763000Y-52732000D02*
X91478000Y-52732000D01*
X91478000Y-52732000D02*
X91478000Y-51262000D01*
X91478000Y-51262000D02*
X93763000Y-51262000D01*
%TO.C,R13*%
X63362742Y-60901500D02*
X63837258Y-60901500D01*
X63362742Y-59856500D02*
X63837258Y-59856500D01*
%TO.C,D5*%
X60389000Y-60391500D02*
X60389000Y-58106500D01*
X60389000Y-58106500D02*
X61859000Y-58106500D01*
X61859000Y-58106500D02*
X61859000Y-60391500D01*
%TO.C,U3*%
X109972000Y-75550000D02*
X104472000Y-75550000D01*
X104472000Y-51050000D02*
X104472000Y-75550000D01*
X109972000Y-51050000D02*
X104472000Y-51050000D01*
X109972000Y-51050000D02*
X109972000Y-75550000D01*
%TO.C,JP4*%
D10*
X89008333Y-80386380D02*
X89008333Y-81100666D01*
X89055952Y-81243523D01*
X89151190Y-81338761D01*
X89294047Y-81386380D01*
X89389285Y-81386380D01*
X88532142Y-81386380D02*
X88532142Y-80386380D01*
X88151190Y-80386380D01*
X88055952Y-80434000D01*
X88008333Y-80481619D01*
X87960714Y-80576857D01*
X87960714Y-80719714D01*
X88008333Y-80814952D01*
X88055952Y-80862571D01*
X88151190Y-80910190D01*
X88532142Y-80910190D01*
X87103571Y-80719714D02*
X87103571Y-81386380D01*
X87341666Y-80338761D02*
X87579761Y-81053047D01*
X86960714Y-81053047D01*
%TO.C,U1*%
X67460380Y-87031095D02*
X68269904Y-87031095D01*
X68365142Y-87078714D01*
X68412761Y-87126333D01*
X68460380Y-87221571D01*
X68460380Y-87412047D01*
X68412761Y-87507285D01*
X68365142Y-87554904D01*
X68269904Y-87602523D01*
X67460380Y-87602523D01*
X68460380Y-88602523D02*
X68460380Y-88031095D01*
X68460380Y-88316809D02*
X67460380Y-88316809D01*
X67603238Y-88221571D01*
X67698476Y-88126333D01*
X67746095Y-88031095D01*
%TO.C,U4*%
X79919904Y-76322380D02*
X79919904Y-77131904D01*
X79872285Y-77227142D01*
X79824666Y-77274761D01*
X79729428Y-77322380D01*
X79538952Y-77322380D01*
X79443714Y-77274761D01*
X79396095Y-77227142D01*
X79348476Y-77131904D01*
X79348476Y-76322380D01*
X78443714Y-76655714D02*
X78443714Y-77322380D01*
X78681809Y-76274761D02*
X78919904Y-76989047D01*
X78300857Y-76989047D01*
%TO.C,C14*%
X81959857Y-96404142D02*
X82007476Y-96451761D01*
X82150333Y-96499380D01*
X82245571Y-96499380D01*
X82388428Y-96451761D01*
X82483666Y-96356523D01*
X82531285Y-96261285D01*
X82578904Y-96070809D01*
X82578904Y-95927952D01*
X82531285Y-95737476D01*
X82483666Y-95642238D01*
X82388428Y-95547000D01*
X82245571Y-95499380D01*
X82150333Y-95499380D01*
X82007476Y-95547000D01*
X81959857Y-95594619D01*
X81007476Y-96499380D02*
X81578904Y-96499380D01*
X81293190Y-96499380D02*
X81293190Y-95499380D01*
X81388428Y-95642238D01*
X81483666Y-95737476D01*
X81578904Y-95785095D01*
X80150333Y-95832714D02*
X80150333Y-96499380D01*
X80388428Y-95451761D02*
X80626523Y-96166047D01*
X80007476Y-96166047D01*
%TO.C,C16*%
X87643142Y-90197142D02*
X87690761Y-90149523D01*
X87738380Y-90006666D01*
X87738380Y-89911428D01*
X87690761Y-89768571D01*
X87595523Y-89673333D01*
X87500285Y-89625714D01*
X87309809Y-89578095D01*
X87166952Y-89578095D01*
X86976476Y-89625714D01*
X86881238Y-89673333D01*
X86786000Y-89768571D01*
X86738380Y-89911428D01*
X86738380Y-90006666D01*
X86786000Y-90149523D01*
X86833619Y-90197142D01*
X87738380Y-91149523D02*
X87738380Y-90578095D01*
X87738380Y-90863809D02*
X86738380Y-90863809D01*
X86881238Y-90768571D01*
X86976476Y-90673333D01*
X87024095Y-90578095D01*
X86738380Y-92006666D02*
X86738380Y-91816190D01*
X86786000Y-91720952D01*
X86833619Y-91673333D01*
X86976476Y-91578095D01*
X87166952Y-91530476D01*
X87547904Y-91530476D01*
X87643142Y-91578095D01*
X87690761Y-91625714D01*
X87738380Y-91720952D01*
X87738380Y-91911428D01*
X87690761Y-92006666D01*
X87643142Y-92054285D01*
X87547904Y-92101904D01*
X87309809Y-92101904D01*
X87214571Y-92054285D01*
X87166952Y-92006666D01*
X87119333Y-91911428D01*
X87119333Y-91720952D01*
X87166952Y-91625714D01*
X87214571Y-91578095D01*
X87309809Y-91530476D01*
%TO.C,C19*%
X81928142Y-77243142D02*
X81975761Y-77195523D01*
X82023380Y-77052666D01*
X82023380Y-76957428D01*
X81975761Y-76814571D01*
X81880523Y-76719333D01*
X81785285Y-76671714D01*
X81594809Y-76624095D01*
X81451952Y-76624095D01*
X81261476Y-76671714D01*
X81166238Y-76719333D01*
X81071000Y-76814571D01*
X81023380Y-76957428D01*
X81023380Y-77052666D01*
X81071000Y-77195523D01*
X81118619Y-77243142D01*
X82023380Y-78195523D02*
X82023380Y-77624095D01*
X82023380Y-77909809D02*
X81023380Y-77909809D01*
X81166238Y-77814571D01*
X81261476Y-77719333D01*
X81309095Y-77624095D01*
X82023380Y-78671714D02*
X82023380Y-78862190D01*
X81975761Y-78957428D01*
X81928142Y-79005047D01*
X81785285Y-79100285D01*
X81594809Y-79147904D01*
X81213857Y-79147904D01*
X81118619Y-79100285D01*
X81071000Y-79052666D01*
X81023380Y-78957428D01*
X81023380Y-78766952D01*
X81071000Y-78671714D01*
X81118619Y-78624095D01*
X81213857Y-78576476D01*
X81451952Y-78576476D01*
X81547190Y-78624095D01*
X81594809Y-78671714D01*
X81642428Y-78766952D01*
X81642428Y-78957428D01*
X81594809Y-79052666D01*
X81547190Y-79100285D01*
X81451952Y-79147904D01*
%TO.C,Q1*%
X90881619Y-79425761D02*
X90834000Y-79330523D01*
X90738761Y-79235285D01*
X90595904Y-79092428D01*
X90548285Y-78997190D01*
X90548285Y-78901952D01*
X90786380Y-78949571D02*
X90738761Y-78854333D01*
X90643523Y-78759095D01*
X90453047Y-78711476D01*
X90119714Y-78711476D01*
X89929238Y-78759095D01*
X89834000Y-78854333D01*
X89786380Y-78949571D01*
X89786380Y-79140047D01*
X89834000Y-79235285D01*
X89929238Y-79330523D01*
X90119714Y-79378142D01*
X90453047Y-79378142D01*
X90643523Y-79330523D01*
X90738761Y-79235285D01*
X90786380Y-79140047D01*
X90786380Y-78949571D01*
X90786380Y-80330523D02*
X90786380Y-79759095D01*
X90786380Y-80044809D02*
X89786380Y-80044809D01*
X89929238Y-79949571D01*
X90024476Y-79854333D01*
X90072095Y-79759095D01*
%TO.C,R3*%
X93040666Y-85424980D02*
X93374000Y-84948790D01*
X93612095Y-85424980D02*
X93612095Y-84424980D01*
X93231142Y-84424980D01*
X93135904Y-84472600D01*
X93088285Y-84520219D01*
X93040666Y-84615457D01*
X93040666Y-84758314D01*
X93088285Y-84853552D01*
X93135904Y-84901171D01*
X93231142Y-84948790D01*
X93612095Y-84948790D01*
X92707333Y-84424980D02*
X92088285Y-84424980D01*
X92421619Y-84805933D01*
X92278761Y-84805933D01*
X92183523Y-84853552D01*
X92135904Y-84901171D01*
X92088285Y-84996409D01*
X92088285Y-85234504D01*
X92135904Y-85329742D01*
X92183523Y-85377361D01*
X92278761Y-85424980D01*
X92564476Y-85424980D01*
X92659714Y-85377361D01*
X92707333Y-85329742D01*
%TO.C,R7*%
X90882666Y-82402380D02*
X91216000Y-81926190D01*
X91454095Y-82402380D02*
X91454095Y-81402380D01*
X91073142Y-81402380D01*
X90977904Y-81450000D01*
X90930285Y-81497619D01*
X90882666Y-81592857D01*
X90882666Y-81735714D01*
X90930285Y-81830952D01*
X90977904Y-81878571D01*
X91073142Y-81926190D01*
X91454095Y-81926190D01*
X90549333Y-81402380D02*
X89882666Y-81402380D01*
X90311238Y-82402380D01*
%TO.C,R11*%
X78530857Y-100436380D02*
X78864190Y-99960190D01*
X79102285Y-100436380D02*
X79102285Y-99436380D01*
X78721333Y-99436380D01*
X78626095Y-99484000D01*
X78578476Y-99531619D01*
X78530857Y-99626857D01*
X78530857Y-99769714D01*
X78578476Y-99864952D01*
X78626095Y-99912571D01*
X78721333Y-99960190D01*
X79102285Y-99960190D01*
X77578476Y-100436380D02*
X78149904Y-100436380D01*
X77864190Y-100436380D02*
X77864190Y-99436380D01*
X77959428Y-99579238D01*
X78054666Y-99674476D01*
X78149904Y-99722095D01*
X76626095Y-100436380D02*
X77197523Y-100436380D01*
X76911809Y-100436380D02*
X76911809Y-99436380D01*
X77007047Y-99579238D01*
X77102285Y-99674476D01*
X77197523Y-99722095D01*
%TO.C,R14*%
X67227857Y-91800380D02*
X67561190Y-91324190D01*
X67799285Y-91800380D02*
X67799285Y-90800380D01*
X67418333Y-90800380D01*
X67323095Y-90848000D01*
X67275476Y-90895619D01*
X67227857Y-90990857D01*
X67227857Y-91133714D01*
X67275476Y-91228952D01*
X67323095Y-91276571D01*
X67418333Y-91324190D01*
X67799285Y-91324190D01*
X66275476Y-91800380D02*
X66846904Y-91800380D01*
X66561190Y-91800380D02*
X66561190Y-90800380D01*
X66656428Y-90943238D01*
X66751666Y-91038476D01*
X66846904Y-91086095D01*
X65418333Y-91133714D02*
X65418333Y-91800380D01*
X65656428Y-90752761D02*
X65894523Y-91467047D01*
X65275476Y-91467047D01*
%TO.C,Q2*%
X101295619Y-82108761D02*
X101248000Y-82013523D01*
X101152761Y-81918285D01*
X101009904Y-81775428D01*
X100962285Y-81680190D01*
X100962285Y-81584952D01*
X101200380Y-81632571D02*
X101152761Y-81537333D01*
X101057523Y-81442095D01*
X100867047Y-81394476D01*
X100533714Y-81394476D01*
X100343238Y-81442095D01*
X100248000Y-81537333D01*
X100200380Y-81632571D01*
X100200380Y-81823047D01*
X100248000Y-81918285D01*
X100343238Y-82013523D01*
X100533714Y-82061142D01*
X100867047Y-82061142D01*
X101057523Y-82013523D01*
X101152761Y-81918285D01*
X101200380Y-81823047D01*
X101200380Y-81632571D01*
X100295619Y-82442095D02*
X100248000Y-82489714D01*
X100200380Y-82584952D01*
X100200380Y-82823047D01*
X100248000Y-82918285D01*
X100295619Y-82965904D01*
X100390857Y-83013523D01*
X100486095Y-83013523D01*
X100628952Y-82965904D01*
X101200380Y-82394476D01*
X101200380Y-83013523D01*
%TO.C,R10*%
X101200380Y-84101142D02*
X100724190Y-83767809D01*
X101200380Y-83529714D02*
X100200380Y-83529714D01*
X100200380Y-83910666D01*
X100248000Y-84005904D01*
X100295619Y-84053523D01*
X100390857Y-84101142D01*
X100533714Y-84101142D01*
X100628952Y-84053523D01*
X100676571Y-84005904D01*
X100724190Y-83910666D01*
X100724190Y-83529714D01*
X101200380Y-85053523D02*
X101200380Y-84482095D01*
X101200380Y-84767809D02*
X100200380Y-84767809D01*
X100343238Y-84672571D01*
X100438476Y-84577333D01*
X100486095Y-84482095D01*
X100200380Y-85672571D02*
X100200380Y-85767809D01*
X100248000Y-85863047D01*
X100295619Y-85910666D01*
X100390857Y-85958285D01*
X100581333Y-86005904D01*
X100819428Y-86005904D01*
X101009904Y-85958285D01*
X101105142Y-85910666D01*
X101152761Y-85863047D01*
X101200380Y-85767809D01*
X101200380Y-85672571D01*
X101152761Y-85577333D01*
X101105142Y-85529714D01*
X101009904Y-85482095D01*
X100819428Y-85434476D01*
X100581333Y-85434476D01*
X100390857Y-85482095D01*
X100295619Y-85529714D01*
X100248000Y-85577333D01*
X100200380Y-85672571D01*
%TO.C,R4*%
X102946666Y-85450380D02*
X103280000Y-84974190D01*
X103518095Y-85450380D02*
X103518095Y-84450380D01*
X103137142Y-84450380D01*
X103041904Y-84498000D01*
X102994285Y-84545619D01*
X102946666Y-84640857D01*
X102946666Y-84783714D01*
X102994285Y-84878952D01*
X103041904Y-84926571D01*
X103137142Y-84974190D01*
X103518095Y-84974190D01*
X102089523Y-84783714D02*
X102089523Y-85450380D01*
X102327619Y-84402761D02*
X102565714Y-85117047D01*
X101946666Y-85117047D01*
%TO.C,C6*%
X70625142Y-80894333D02*
X70672761Y-80846714D01*
X70720380Y-80703857D01*
X70720380Y-80608619D01*
X70672761Y-80465761D01*
X70577523Y-80370523D01*
X70482285Y-80322904D01*
X70291809Y-80275285D01*
X70148952Y-80275285D01*
X69958476Y-80322904D01*
X69863238Y-80370523D01*
X69768000Y-80465761D01*
X69720380Y-80608619D01*
X69720380Y-80703857D01*
X69768000Y-80846714D01*
X69815619Y-80894333D01*
X69720380Y-81751476D02*
X69720380Y-81561000D01*
X69768000Y-81465761D01*
X69815619Y-81418142D01*
X69958476Y-81322904D01*
X70148952Y-81275285D01*
X70529904Y-81275285D01*
X70625142Y-81322904D01*
X70672761Y-81370523D01*
X70720380Y-81465761D01*
X70720380Y-81656238D01*
X70672761Y-81751476D01*
X70625142Y-81799095D01*
X70529904Y-81846714D01*
X70291809Y-81846714D01*
X70196571Y-81799095D01*
X70148952Y-81751476D01*
X70101333Y-81656238D01*
X70101333Y-81465761D01*
X70148952Y-81370523D01*
X70196571Y-81322904D01*
X70291809Y-81275285D01*
%TO.C,C8*%
X69101142Y-80894333D02*
X69148761Y-80846714D01*
X69196380Y-80703857D01*
X69196380Y-80608619D01*
X69148761Y-80465761D01*
X69053523Y-80370523D01*
X68958285Y-80322904D01*
X68767809Y-80275285D01*
X68624952Y-80275285D01*
X68434476Y-80322904D01*
X68339238Y-80370523D01*
X68244000Y-80465761D01*
X68196380Y-80608619D01*
X68196380Y-80703857D01*
X68244000Y-80846714D01*
X68291619Y-80894333D01*
X68624952Y-81465761D02*
X68577333Y-81370523D01*
X68529714Y-81322904D01*
X68434476Y-81275285D01*
X68386857Y-81275285D01*
X68291619Y-81322904D01*
X68244000Y-81370523D01*
X68196380Y-81465761D01*
X68196380Y-81656238D01*
X68244000Y-81751476D01*
X68291619Y-81799095D01*
X68386857Y-81846714D01*
X68434476Y-81846714D01*
X68529714Y-81799095D01*
X68577333Y-81751476D01*
X68624952Y-81656238D01*
X68624952Y-81465761D01*
X68672571Y-81370523D01*
X68720190Y-81322904D01*
X68815428Y-81275285D01*
X69005904Y-81275285D01*
X69101142Y-81322904D01*
X69148761Y-81370523D01*
X69196380Y-81465761D01*
X69196380Y-81656238D01*
X69148761Y-81751476D01*
X69101142Y-81799095D01*
X69005904Y-81846714D01*
X68815428Y-81846714D01*
X68720190Y-81799095D01*
X68672571Y-81751476D01*
X68624952Y-81656238D01*
%TO.C,C13*%
X87770142Y-94896142D02*
X87817761Y-94848523D01*
X87865380Y-94705666D01*
X87865380Y-94610428D01*
X87817761Y-94467571D01*
X87722523Y-94372333D01*
X87627285Y-94324714D01*
X87436809Y-94277095D01*
X87293952Y-94277095D01*
X87103476Y-94324714D01*
X87008238Y-94372333D01*
X86913000Y-94467571D01*
X86865380Y-94610428D01*
X86865380Y-94705666D01*
X86913000Y-94848523D01*
X86960619Y-94896142D01*
X87865380Y-95848523D02*
X87865380Y-95277095D01*
X87865380Y-95562809D02*
X86865380Y-95562809D01*
X87008238Y-95467571D01*
X87103476Y-95372333D01*
X87151095Y-95277095D01*
X86865380Y-96181857D02*
X86865380Y-96800904D01*
X87246333Y-96467571D01*
X87246333Y-96610428D01*
X87293952Y-96705666D01*
X87341571Y-96753285D01*
X87436809Y-96800904D01*
X87674904Y-96800904D01*
X87770142Y-96753285D01*
X87817761Y-96705666D01*
X87865380Y-96610428D01*
X87865380Y-96324714D01*
X87817761Y-96229476D01*
X87770142Y-96181857D01*
%TO.C,C18*%
X86373142Y-76989142D02*
X86420761Y-76941523D01*
X86468380Y-76798666D01*
X86468380Y-76703428D01*
X86420761Y-76560571D01*
X86325523Y-76465333D01*
X86230285Y-76417714D01*
X86039809Y-76370095D01*
X85896952Y-76370095D01*
X85706476Y-76417714D01*
X85611238Y-76465333D01*
X85516000Y-76560571D01*
X85468380Y-76703428D01*
X85468380Y-76798666D01*
X85516000Y-76941523D01*
X85563619Y-76989142D01*
X86468380Y-77941523D02*
X86468380Y-77370095D01*
X86468380Y-77655809D02*
X85468380Y-77655809D01*
X85611238Y-77560571D01*
X85706476Y-77465333D01*
X85754095Y-77370095D01*
X85896952Y-78512952D02*
X85849333Y-78417714D01*
X85801714Y-78370095D01*
X85706476Y-78322476D01*
X85658857Y-78322476D01*
X85563619Y-78370095D01*
X85516000Y-78417714D01*
X85468380Y-78512952D01*
X85468380Y-78703428D01*
X85516000Y-78798666D01*
X85563619Y-78846285D01*
X85658857Y-78893904D01*
X85706476Y-78893904D01*
X85801714Y-78846285D01*
X85849333Y-78798666D01*
X85896952Y-78703428D01*
X85896952Y-78512952D01*
X85944571Y-78417714D01*
X85992190Y-78370095D01*
X86087428Y-78322476D01*
X86277904Y-78322476D01*
X86373142Y-78370095D01*
X86420761Y-78417714D01*
X86468380Y-78512952D01*
X86468380Y-78703428D01*
X86420761Y-78798666D01*
X86373142Y-78846285D01*
X86277904Y-78893904D01*
X86087428Y-78893904D01*
X85992190Y-78846285D01*
X85944571Y-78798666D01*
X85896952Y-78703428D01*
%TO.C,R12*%
X74847857Y-98658380D02*
X75181190Y-98182190D01*
X75419285Y-98658380D02*
X75419285Y-97658380D01*
X75038333Y-97658380D01*
X74943095Y-97706000D01*
X74895476Y-97753619D01*
X74847857Y-97848857D01*
X74847857Y-97991714D01*
X74895476Y-98086952D01*
X74943095Y-98134571D01*
X75038333Y-98182190D01*
X75419285Y-98182190D01*
X73895476Y-98658380D02*
X74466904Y-98658380D01*
X74181190Y-98658380D02*
X74181190Y-97658380D01*
X74276428Y-97801238D01*
X74371666Y-97896476D01*
X74466904Y-97944095D01*
X73514523Y-97753619D02*
X73466904Y-97706000D01*
X73371666Y-97658380D01*
X73133571Y-97658380D01*
X73038333Y-97706000D01*
X72990714Y-97753619D01*
X72943095Y-97848857D01*
X72943095Y-97944095D01*
X72990714Y-98086952D01*
X73562142Y-98658380D01*
X72943095Y-98658380D01*
%TO.C,R17*%
X82086857Y-99674380D02*
X82420190Y-99198190D01*
X82658285Y-99674380D02*
X82658285Y-98674380D01*
X82277333Y-98674380D01*
X82182095Y-98722000D01*
X82134476Y-98769619D01*
X82086857Y-98864857D01*
X82086857Y-99007714D01*
X82134476Y-99102952D01*
X82182095Y-99150571D01*
X82277333Y-99198190D01*
X82658285Y-99198190D01*
X81134476Y-99674380D02*
X81705904Y-99674380D01*
X81420190Y-99674380D02*
X81420190Y-98674380D01*
X81515428Y-98817238D01*
X81610666Y-98912476D01*
X81705904Y-98960095D01*
X80801142Y-98674380D02*
X80134476Y-98674380D01*
X80563047Y-99674380D01*
%TO.C,R22*%
X85769857Y-99674380D02*
X86103190Y-99198190D01*
X86341285Y-99674380D02*
X86341285Y-98674380D01*
X85960333Y-98674380D01*
X85865095Y-98722000D01*
X85817476Y-98769619D01*
X85769857Y-98864857D01*
X85769857Y-99007714D01*
X85817476Y-99102952D01*
X85865095Y-99150571D01*
X85960333Y-99198190D01*
X86341285Y-99198190D01*
X85388904Y-98769619D02*
X85341285Y-98722000D01*
X85246047Y-98674380D01*
X85007952Y-98674380D01*
X84912714Y-98722000D01*
X84865095Y-98769619D01*
X84817476Y-98864857D01*
X84817476Y-98960095D01*
X84865095Y-99102952D01*
X85436523Y-99674380D01*
X84817476Y-99674380D01*
X84436523Y-98769619D02*
X84388904Y-98722000D01*
X84293666Y-98674380D01*
X84055571Y-98674380D01*
X83960333Y-98722000D01*
X83912714Y-98769619D01*
X83865095Y-98864857D01*
X83865095Y-98960095D01*
X83912714Y-99102952D01*
X84484142Y-99674380D01*
X83865095Y-99674380D01*
%TO.C,R26*%
X81578857Y-84434380D02*
X81912190Y-83958190D01*
X82150285Y-84434380D02*
X82150285Y-83434380D01*
X81769333Y-83434380D01*
X81674095Y-83482000D01*
X81626476Y-83529619D01*
X81578857Y-83624857D01*
X81578857Y-83767714D01*
X81626476Y-83862952D01*
X81674095Y-83910571D01*
X81769333Y-83958190D01*
X82150285Y-83958190D01*
X81197904Y-83529619D02*
X81150285Y-83482000D01*
X81055047Y-83434380D01*
X80816952Y-83434380D01*
X80721714Y-83482000D01*
X80674095Y-83529619D01*
X80626476Y-83624857D01*
X80626476Y-83720095D01*
X80674095Y-83862952D01*
X81245523Y-84434380D01*
X80626476Y-84434380D01*
X79769333Y-83434380D02*
X79959809Y-83434380D01*
X80055047Y-83482000D01*
X80102666Y-83529619D01*
X80197904Y-83672476D01*
X80245523Y-83862952D01*
X80245523Y-84243904D01*
X80197904Y-84339142D01*
X80150285Y-84386761D01*
X80055047Y-84434380D01*
X79864571Y-84434380D01*
X79769333Y-84386761D01*
X79721714Y-84339142D01*
X79674095Y-84243904D01*
X79674095Y-84005809D01*
X79721714Y-83910571D01*
X79769333Y-83862952D01*
X79864571Y-83815333D01*
X80055047Y-83815333D01*
X80150285Y-83862952D01*
X80197904Y-83910571D01*
X80245523Y-84005809D01*
%TO.C,U6*%
X80300904Y-87625380D02*
X80300904Y-88434904D01*
X80253285Y-88530142D01*
X80205666Y-88577761D01*
X80110428Y-88625380D01*
X79919952Y-88625380D01*
X79824714Y-88577761D01*
X79777095Y-88530142D01*
X79729476Y-88434904D01*
X79729476Y-87625380D01*
X78824714Y-87625380D02*
X79015190Y-87625380D01*
X79110428Y-87673000D01*
X79158047Y-87720619D01*
X79253285Y-87863476D01*
X79300904Y-88053952D01*
X79300904Y-88434904D01*
X79253285Y-88530142D01*
X79205666Y-88577761D01*
X79110428Y-88625380D01*
X78919952Y-88625380D01*
X78824714Y-88577761D01*
X78777095Y-88530142D01*
X78729476Y-88434904D01*
X78729476Y-88196809D01*
X78777095Y-88101571D01*
X78824714Y-88053952D01*
X78919952Y-88006333D01*
X79110428Y-88006333D01*
X79205666Y-88053952D01*
X79253285Y-88101571D01*
X79300904Y-88196809D01*
%TO.C,Y2*%
X81031190Y-81291190D02*
X81031190Y-81767380D01*
X81364523Y-80767380D02*
X81031190Y-81291190D01*
X80697857Y-80767380D01*
X80412142Y-80862619D02*
X80364523Y-80815000D01*
X80269285Y-80767380D01*
X80031190Y-80767380D01*
X79935952Y-80815000D01*
X79888333Y-80862619D01*
X79840714Y-80957857D01*
X79840714Y-81053095D01*
X79888333Y-81195952D01*
X80459761Y-81767380D01*
X79840714Y-81767380D01*
%TO.C,GND1*%
X67950095Y-87419000D02*
X68045333Y-87371380D01*
X68188190Y-87371380D01*
X68331047Y-87419000D01*
X68426285Y-87514238D01*
X68473904Y-87609476D01*
X68521523Y-87799952D01*
X68521523Y-87942809D01*
X68473904Y-88133285D01*
X68426285Y-88228523D01*
X68331047Y-88323761D01*
X68188190Y-88371380D01*
X68092952Y-88371380D01*
X67950095Y-88323761D01*
X67902476Y-88276142D01*
X67902476Y-87942809D01*
X68092952Y-87942809D01*
X67473904Y-88371380D02*
X67473904Y-87371380D01*
X66902476Y-88371380D01*
X66902476Y-87371380D01*
X66426285Y-88371380D02*
X66426285Y-87371380D01*
X66188190Y-87371380D01*
X66045333Y-87419000D01*
X65950095Y-87514238D01*
X65902476Y-87609476D01*
X65854857Y-87799952D01*
X65854857Y-87942809D01*
X65902476Y-88133285D01*
X65950095Y-88228523D01*
X66045333Y-88323761D01*
X66188190Y-88371380D01*
X66426285Y-88371380D01*
X64902476Y-88371380D02*
X65473904Y-88371380D01*
X65188190Y-88371380D02*
X65188190Y-87371380D01*
X65283428Y-87514238D01*
X65378666Y-87609476D01*
X65473904Y-87657095D01*
%TO.C,R16*%
X101962380Y-93705142D02*
X101486190Y-93371809D01*
X101962380Y-93133714D02*
X100962380Y-93133714D01*
X100962380Y-93514666D01*
X101010000Y-93609904D01*
X101057619Y-93657523D01*
X101152857Y-93705142D01*
X101295714Y-93705142D01*
X101390952Y-93657523D01*
X101438571Y-93609904D01*
X101486190Y-93514666D01*
X101486190Y-93133714D01*
X101962380Y-94657523D02*
X101962380Y-94086095D01*
X101962380Y-94371809D02*
X100962380Y-94371809D01*
X101105238Y-94276571D01*
X101200476Y-94181333D01*
X101248095Y-94086095D01*
X100962380Y-95514666D02*
X100962380Y-95324190D01*
X101010000Y-95228952D01*
X101057619Y-95181333D01*
X101200476Y-95086095D01*
X101390952Y-95038476D01*
X101771904Y-95038476D01*
X101867142Y-95086095D01*
X101914761Y-95133714D01*
X101962380Y-95228952D01*
X101962380Y-95419428D01*
X101914761Y-95514666D01*
X101867142Y-95562285D01*
X101771904Y-95609904D01*
X101533809Y-95609904D01*
X101438571Y-95562285D01*
X101390952Y-95514666D01*
X101343333Y-95419428D01*
X101343333Y-95228952D01*
X101390952Y-95133714D01*
X101438571Y-95086095D01*
X101533809Y-95038476D01*
%TO.C,U2*%
X94270904Y-97023380D02*
X94270904Y-97832904D01*
X94223285Y-97928142D01*
X94175666Y-97975761D01*
X94080428Y-98023380D01*
X93889952Y-98023380D01*
X93794714Y-97975761D01*
X93747095Y-97928142D01*
X93699476Y-97832904D01*
X93699476Y-97023380D01*
X93270904Y-97118619D02*
X93223285Y-97071000D01*
X93128047Y-97023380D01*
X92889952Y-97023380D01*
X92794714Y-97071000D01*
X92747095Y-97118619D01*
X92699476Y-97213857D01*
X92699476Y-97309095D01*
X92747095Y-97451952D01*
X93318523Y-98023380D01*
X92699476Y-98023380D01*
%TO.C,D6*%
X63640095Y-90276380D02*
X63640095Y-89276380D01*
X63402000Y-89276380D01*
X63259142Y-89324000D01*
X63163904Y-89419238D01*
X63116285Y-89514476D01*
X63068666Y-89704952D01*
X63068666Y-89847809D01*
X63116285Y-90038285D01*
X63163904Y-90133523D01*
X63259142Y-90228761D01*
X63402000Y-90276380D01*
X63640095Y-90276380D01*
X62211523Y-89276380D02*
X62402000Y-89276380D01*
X62497238Y-89324000D01*
X62544857Y-89371619D01*
X62640095Y-89514476D01*
X62687714Y-89704952D01*
X62687714Y-90085904D01*
X62640095Y-90181142D01*
X62592476Y-90228761D01*
X62497238Y-90276380D01*
X62306761Y-90276380D01*
X62211523Y-90228761D01*
X62163904Y-90181142D01*
X62116285Y-90085904D01*
X62116285Y-89847809D01*
X62163904Y-89752571D01*
X62211523Y-89704952D01*
X62306761Y-89657333D01*
X62497238Y-89657333D01*
X62592476Y-89704952D01*
X62640095Y-89752571D01*
X62687714Y-89847809D01*
%TO.C,L1*%
X74799666Y-95737380D02*
X75275857Y-95737380D01*
X75275857Y-94737380D01*
X73942523Y-95737380D02*
X74513952Y-95737380D01*
X74228238Y-95737380D02*
X74228238Y-94737380D01*
X74323476Y-94880238D01*
X74418714Y-94975476D01*
X74513952Y-95023095D01*
%TO.C,R27*%
X92754857Y-88244380D02*
X93088190Y-87768190D01*
X93326285Y-88244380D02*
X93326285Y-87244380D01*
X92945333Y-87244380D01*
X92850095Y-87292000D01*
X92802476Y-87339619D01*
X92754857Y-87434857D01*
X92754857Y-87577714D01*
X92802476Y-87672952D01*
X92850095Y-87720571D01*
X92945333Y-87768190D01*
X93326285Y-87768190D01*
X92373904Y-87339619D02*
X92326285Y-87292000D01*
X92231047Y-87244380D01*
X91992952Y-87244380D01*
X91897714Y-87292000D01*
X91850095Y-87339619D01*
X91802476Y-87434857D01*
X91802476Y-87530095D01*
X91850095Y-87672952D01*
X92421523Y-88244380D01*
X91802476Y-88244380D01*
X91469142Y-87244380D02*
X90802476Y-87244380D01*
X91231047Y-88244380D01*
%TO.C,R15*%
X92183380Y-93832142D02*
X91707190Y-93498809D01*
X92183380Y-93260714D02*
X91183380Y-93260714D01*
X91183380Y-93641666D01*
X91231000Y-93736904D01*
X91278619Y-93784523D01*
X91373857Y-93832142D01*
X91516714Y-93832142D01*
X91611952Y-93784523D01*
X91659571Y-93736904D01*
X91707190Y-93641666D01*
X91707190Y-93260714D01*
X92183380Y-94784523D02*
X92183380Y-94213095D01*
X92183380Y-94498809D02*
X91183380Y-94498809D01*
X91326238Y-94403571D01*
X91421476Y-94308333D01*
X91469095Y-94213095D01*
X91183380Y-95689285D02*
X91183380Y-95213095D01*
X91659571Y-95165476D01*
X91611952Y-95213095D01*
X91564333Y-95308333D01*
X91564333Y-95546428D01*
X91611952Y-95641666D01*
X91659571Y-95689285D01*
X91754809Y-95736904D01*
X91992904Y-95736904D01*
X92088142Y-95689285D01*
X92135761Y-95641666D01*
X92183380Y-95546428D01*
X92183380Y-95308333D01*
X92135761Y-95213095D01*
X92088142Y-95165476D01*
%TO.C,U3*%
X104049904Y-97023380D02*
X104049904Y-97832904D01*
X104002285Y-97928142D01*
X103954666Y-97975761D01*
X103859428Y-98023380D01*
X103668952Y-98023380D01*
X103573714Y-97975761D01*
X103526095Y-97928142D01*
X103478476Y-97832904D01*
X103478476Y-97023380D01*
X103097523Y-97023380D02*
X102478476Y-97023380D01*
X102811809Y-97404333D01*
X102668952Y-97404333D01*
X102573714Y-97451952D01*
X102526095Y-97499571D01*
X102478476Y-97594809D01*
X102478476Y-97832904D01*
X102526095Y-97928142D01*
X102573714Y-97975761D01*
X102668952Y-98023380D01*
X102954666Y-98023380D01*
X103049904Y-97975761D01*
X103097523Y-97928142D01*
%TO.C,D5*%
X63640095Y-84307380D02*
X63640095Y-83307380D01*
X63402000Y-83307380D01*
X63259142Y-83355000D01*
X63163904Y-83450238D01*
X63116285Y-83545476D01*
X63068666Y-83735952D01*
X63068666Y-83878809D01*
X63116285Y-84069285D01*
X63163904Y-84164523D01*
X63259142Y-84259761D01*
X63402000Y-84307380D01*
X63640095Y-84307380D01*
X62163904Y-83307380D02*
X62640095Y-83307380D01*
X62687714Y-83783571D01*
X62640095Y-83735952D01*
X62544857Y-83688333D01*
X62306761Y-83688333D01*
X62211523Y-83735952D01*
X62163904Y-83783571D01*
X62116285Y-83878809D01*
X62116285Y-84116904D01*
X62163904Y-84212142D01*
X62211523Y-84259761D01*
X62306761Y-84307380D01*
X62544857Y-84307380D01*
X62640095Y-84259761D01*
X62687714Y-84212142D01*
%TO.C,R13*%
X66021380Y-84736142D02*
X65545190Y-84402809D01*
X66021380Y-84164714D02*
X65021380Y-84164714D01*
X65021380Y-84545666D01*
X65069000Y-84640904D01*
X65116619Y-84688523D01*
X65211857Y-84736142D01*
X65354714Y-84736142D01*
X65449952Y-84688523D01*
X65497571Y-84640904D01*
X65545190Y-84545666D01*
X65545190Y-84164714D01*
X66021380Y-85688523D02*
X66021380Y-85117095D01*
X66021380Y-85402809D02*
X65021380Y-85402809D01*
X65164238Y-85307571D01*
X65259476Y-85212333D01*
X65307095Y-85117095D01*
X65021380Y-86021857D02*
X65021380Y-86640904D01*
X65402333Y-86307571D01*
X65402333Y-86450428D01*
X65449952Y-86545666D01*
X65497571Y-86593285D01*
X65592809Y-86640904D01*
X65830904Y-86640904D01*
X65926142Y-86593285D01*
X65973761Y-86545666D01*
X66021380Y-86450428D01*
X66021380Y-86164714D01*
X65973761Y-86069476D01*
X65926142Y-86021857D01*
%TO.C,D1*%
X91281880Y-76258904D02*
X90281880Y-76258904D01*
X90281880Y-76497000D01*
X90329500Y-76639857D01*
X90424738Y-76735095D01*
X90519976Y-76782714D01*
X90710452Y-76830333D01*
X90853309Y-76830333D01*
X91043785Y-76782714D01*
X91139023Y-76735095D01*
X91234261Y-76639857D01*
X91281880Y-76497000D01*
X91281880Y-76258904D01*
X91281880Y-77782714D02*
X91281880Y-77211285D01*
X91281880Y-77497000D02*
X90281880Y-77497000D01*
X90424738Y-77401761D01*
X90519976Y-77306523D01*
X90567595Y-77211285D01*
%TO.C,D2*%
X101187880Y-76258904D02*
X100187880Y-76258904D01*
X100187880Y-76497000D01*
X100235500Y-76639857D01*
X100330738Y-76735095D01*
X100425976Y-76782714D01*
X100616452Y-76830333D01*
X100759309Y-76830333D01*
X100949785Y-76782714D01*
X101045023Y-76735095D01*
X101140261Y-76639857D01*
X101187880Y-76497000D01*
X101187880Y-76258904D01*
X100283119Y-77211285D02*
X100235500Y-77258904D01*
X100187880Y-77354142D01*
X100187880Y-77592238D01*
X100235500Y-77687476D01*
X100283119Y-77735095D01*
X100378357Y-77782714D01*
X100473595Y-77782714D01*
X100616452Y-77735095D01*
X101187880Y-77163666D01*
X101187880Y-77782714D01*
%TO.C,U4*%
X79919904Y-51322380D02*
X79919904Y-52131904D01*
X79872285Y-52227142D01*
X79824666Y-52274761D01*
X79729428Y-52322380D01*
X79538952Y-52322380D01*
X79443714Y-52274761D01*
X79396095Y-52227142D01*
X79348476Y-52131904D01*
X79348476Y-51322380D01*
X78443714Y-51655714D02*
X78443714Y-52322380D01*
X78681809Y-51274761D02*
X78919904Y-51989047D01*
X78300857Y-51989047D01*
%TO.C,U1*%
X67460380Y-62031095D02*
X68269904Y-62031095D01*
X68365142Y-62078714D01*
X68412761Y-62126333D01*
X68460380Y-62221571D01*
X68460380Y-62412047D01*
X68412761Y-62507285D01*
X68365142Y-62554904D01*
X68269904Y-62602523D01*
X67460380Y-62602523D01*
X68460380Y-63602523D02*
X68460380Y-63031095D01*
X68460380Y-63316809D02*
X67460380Y-63316809D01*
X67603238Y-63221571D01*
X67698476Y-63126333D01*
X67746095Y-63031095D01*
%TO.C,JP4*%
X89008333Y-55386380D02*
X89008333Y-56100666D01*
X89055952Y-56243523D01*
X89151190Y-56338761D01*
X89294047Y-56386380D01*
X89389285Y-56386380D01*
X88532142Y-56386380D02*
X88532142Y-55386380D01*
X88151190Y-55386380D01*
X88055952Y-55434000D01*
X88008333Y-55481619D01*
X87960714Y-55576857D01*
X87960714Y-55719714D01*
X88008333Y-55814952D01*
X88055952Y-55862571D01*
X88151190Y-55910190D01*
X88532142Y-55910190D01*
X87103571Y-55719714D02*
X87103571Y-56386380D01*
X87341666Y-55338761D02*
X87579761Y-56053047D01*
X86960714Y-56053047D01*
%TO.C,R27*%
X92754857Y-63244380D02*
X93088190Y-62768190D01*
X93326285Y-63244380D02*
X93326285Y-62244380D01*
X92945333Y-62244380D01*
X92850095Y-62292000D01*
X92802476Y-62339619D01*
X92754857Y-62434857D01*
X92754857Y-62577714D01*
X92802476Y-62672952D01*
X92850095Y-62720571D01*
X92945333Y-62768190D01*
X93326285Y-62768190D01*
X92373904Y-62339619D02*
X92326285Y-62292000D01*
X92231047Y-62244380D01*
X91992952Y-62244380D01*
X91897714Y-62292000D01*
X91850095Y-62339619D01*
X91802476Y-62434857D01*
X91802476Y-62530095D01*
X91850095Y-62672952D01*
X92421523Y-63244380D01*
X91802476Y-63244380D01*
X91469142Y-62244380D02*
X90802476Y-62244380D01*
X91231047Y-63244380D01*
%TO.C,L1*%
X74799666Y-70737380D02*
X75275857Y-70737380D01*
X75275857Y-69737380D01*
X73942523Y-70737380D02*
X74513952Y-70737380D01*
X74228238Y-70737380D02*
X74228238Y-69737380D01*
X74323476Y-69880238D01*
X74418714Y-69975476D01*
X74513952Y-70023095D01*
%TO.C,C16*%
X87643142Y-65197142D02*
X87690761Y-65149523D01*
X87738380Y-65006666D01*
X87738380Y-64911428D01*
X87690761Y-64768571D01*
X87595523Y-64673333D01*
X87500285Y-64625714D01*
X87309809Y-64578095D01*
X87166952Y-64578095D01*
X86976476Y-64625714D01*
X86881238Y-64673333D01*
X86786000Y-64768571D01*
X86738380Y-64911428D01*
X86738380Y-65006666D01*
X86786000Y-65149523D01*
X86833619Y-65197142D01*
X87738380Y-66149523D02*
X87738380Y-65578095D01*
X87738380Y-65863809D02*
X86738380Y-65863809D01*
X86881238Y-65768571D01*
X86976476Y-65673333D01*
X87024095Y-65578095D01*
X86738380Y-67006666D02*
X86738380Y-66816190D01*
X86786000Y-66720952D01*
X86833619Y-66673333D01*
X86976476Y-66578095D01*
X87166952Y-66530476D01*
X87547904Y-66530476D01*
X87643142Y-66578095D01*
X87690761Y-66625714D01*
X87738380Y-66720952D01*
X87738380Y-66911428D01*
X87690761Y-67006666D01*
X87643142Y-67054285D01*
X87547904Y-67101904D01*
X87309809Y-67101904D01*
X87214571Y-67054285D01*
X87166952Y-67006666D01*
X87119333Y-66911428D01*
X87119333Y-66720952D01*
X87166952Y-66625714D01*
X87214571Y-66578095D01*
X87309809Y-66530476D01*
%TO.C,C14*%
X81959857Y-71404142D02*
X82007476Y-71451761D01*
X82150333Y-71499380D01*
X82245571Y-71499380D01*
X82388428Y-71451761D01*
X82483666Y-71356523D01*
X82531285Y-71261285D01*
X82578904Y-71070809D01*
X82578904Y-70927952D01*
X82531285Y-70737476D01*
X82483666Y-70642238D01*
X82388428Y-70547000D01*
X82245571Y-70499380D01*
X82150333Y-70499380D01*
X82007476Y-70547000D01*
X81959857Y-70594619D01*
X81007476Y-71499380D02*
X81578904Y-71499380D01*
X81293190Y-71499380D02*
X81293190Y-70499380D01*
X81388428Y-70642238D01*
X81483666Y-70737476D01*
X81578904Y-70785095D01*
X80150333Y-70832714D02*
X80150333Y-71499380D01*
X80388428Y-70451761D02*
X80626523Y-71166047D01*
X80007476Y-71166047D01*
%TO.C,GND1*%
X67950095Y-62419000D02*
X68045333Y-62371380D01*
X68188190Y-62371380D01*
X68331047Y-62419000D01*
X68426285Y-62514238D01*
X68473904Y-62609476D01*
X68521523Y-62799952D01*
X68521523Y-62942809D01*
X68473904Y-63133285D01*
X68426285Y-63228523D01*
X68331047Y-63323761D01*
X68188190Y-63371380D01*
X68092952Y-63371380D01*
X67950095Y-63323761D01*
X67902476Y-63276142D01*
X67902476Y-62942809D01*
X68092952Y-62942809D01*
X67473904Y-63371380D02*
X67473904Y-62371380D01*
X66902476Y-63371380D01*
X66902476Y-62371380D01*
X66426285Y-63371380D02*
X66426285Y-62371380D01*
X66188190Y-62371380D01*
X66045333Y-62419000D01*
X65950095Y-62514238D01*
X65902476Y-62609476D01*
X65854857Y-62799952D01*
X65854857Y-62942809D01*
X65902476Y-63133285D01*
X65950095Y-63228523D01*
X66045333Y-63323761D01*
X66188190Y-63371380D01*
X66426285Y-63371380D01*
X64902476Y-63371380D02*
X65473904Y-63371380D01*
X65188190Y-63371380D02*
X65188190Y-62371380D01*
X65283428Y-62514238D01*
X65378666Y-62609476D01*
X65473904Y-62657095D01*
%TO.C,Y2*%
X81031190Y-56291190D02*
X81031190Y-56767380D01*
X81364523Y-55767380D02*
X81031190Y-56291190D01*
X80697857Y-55767380D01*
X80412142Y-55862619D02*
X80364523Y-55815000D01*
X80269285Y-55767380D01*
X80031190Y-55767380D01*
X79935952Y-55815000D01*
X79888333Y-55862619D01*
X79840714Y-55957857D01*
X79840714Y-56053095D01*
X79888333Y-56195952D01*
X80459761Y-56767380D01*
X79840714Y-56767380D01*
%TO.C,U6*%
X80300904Y-62625380D02*
X80300904Y-63434904D01*
X80253285Y-63530142D01*
X80205666Y-63577761D01*
X80110428Y-63625380D01*
X79919952Y-63625380D01*
X79824714Y-63577761D01*
X79777095Y-63530142D01*
X79729476Y-63434904D01*
X79729476Y-62625380D01*
X78824714Y-62625380D02*
X79015190Y-62625380D01*
X79110428Y-62673000D01*
X79158047Y-62720619D01*
X79253285Y-62863476D01*
X79300904Y-63053952D01*
X79300904Y-63434904D01*
X79253285Y-63530142D01*
X79205666Y-63577761D01*
X79110428Y-63625380D01*
X78919952Y-63625380D01*
X78824714Y-63577761D01*
X78777095Y-63530142D01*
X78729476Y-63434904D01*
X78729476Y-63196809D01*
X78777095Y-63101571D01*
X78824714Y-63053952D01*
X78919952Y-63006333D01*
X79110428Y-63006333D01*
X79205666Y-63053952D01*
X79253285Y-63101571D01*
X79300904Y-63196809D01*
%TO.C,R26*%
X81578857Y-59434380D02*
X81912190Y-58958190D01*
X82150285Y-59434380D02*
X82150285Y-58434380D01*
X81769333Y-58434380D01*
X81674095Y-58482000D01*
X81626476Y-58529619D01*
X81578857Y-58624857D01*
X81578857Y-58767714D01*
X81626476Y-58862952D01*
X81674095Y-58910571D01*
X81769333Y-58958190D01*
X82150285Y-58958190D01*
X81197904Y-58529619D02*
X81150285Y-58482000D01*
X81055047Y-58434380D01*
X80816952Y-58434380D01*
X80721714Y-58482000D01*
X80674095Y-58529619D01*
X80626476Y-58624857D01*
X80626476Y-58720095D01*
X80674095Y-58862952D01*
X81245523Y-59434380D01*
X80626476Y-59434380D01*
X79769333Y-58434380D02*
X79959809Y-58434380D01*
X80055047Y-58482000D01*
X80102666Y-58529619D01*
X80197904Y-58672476D01*
X80245523Y-58862952D01*
X80245523Y-59243904D01*
X80197904Y-59339142D01*
X80150285Y-59386761D01*
X80055047Y-59434380D01*
X79864571Y-59434380D01*
X79769333Y-59386761D01*
X79721714Y-59339142D01*
X79674095Y-59243904D01*
X79674095Y-59005809D01*
X79721714Y-58910571D01*
X79769333Y-58862952D01*
X79864571Y-58815333D01*
X80055047Y-58815333D01*
X80150285Y-58862952D01*
X80197904Y-58910571D01*
X80245523Y-59005809D01*
%TO.C,R22*%
X85769857Y-74674380D02*
X86103190Y-74198190D01*
X86341285Y-74674380D02*
X86341285Y-73674380D01*
X85960333Y-73674380D01*
X85865095Y-73722000D01*
X85817476Y-73769619D01*
X85769857Y-73864857D01*
X85769857Y-74007714D01*
X85817476Y-74102952D01*
X85865095Y-74150571D01*
X85960333Y-74198190D01*
X86341285Y-74198190D01*
X85388904Y-73769619D02*
X85341285Y-73722000D01*
X85246047Y-73674380D01*
X85007952Y-73674380D01*
X84912714Y-73722000D01*
X84865095Y-73769619D01*
X84817476Y-73864857D01*
X84817476Y-73960095D01*
X84865095Y-74102952D01*
X85436523Y-74674380D01*
X84817476Y-74674380D01*
X84436523Y-73769619D02*
X84388904Y-73722000D01*
X84293666Y-73674380D01*
X84055571Y-73674380D01*
X83960333Y-73722000D01*
X83912714Y-73769619D01*
X83865095Y-73864857D01*
X83865095Y-73960095D01*
X83912714Y-74102952D01*
X84484142Y-74674380D01*
X83865095Y-74674380D01*
%TO.C,R17*%
X82086857Y-74674380D02*
X82420190Y-74198190D01*
X82658285Y-74674380D02*
X82658285Y-73674380D01*
X82277333Y-73674380D01*
X82182095Y-73722000D01*
X82134476Y-73769619D01*
X82086857Y-73864857D01*
X82086857Y-74007714D01*
X82134476Y-74102952D01*
X82182095Y-74150571D01*
X82277333Y-74198190D01*
X82658285Y-74198190D01*
X81134476Y-74674380D02*
X81705904Y-74674380D01*
X81420190Y-74674380D02*
X81420190Y-73674380D01*
X81515428Y-73817238D01*
X81610666Y-73912476D01*
X81705904Y-73960095D01*
X80801142Y-73674380D02*
X80134476Y-73674380D01*
X80563047Y-74674380D01*
%TO.C,R12*%
X74847857Y-73658380D02*
X75181190Y-73182190D01*
X75419285Y-73658380D02*
X75419285Y-72658380D01*
X75038333Y-72658380D01*
X74943095Y-72706000D01*
X74895476Y-72753619D01*
X74847857Y-72848857D01*
X74847857Y-72991714D01*
X74895476Y-73086952D01*
X74943095Y-73134571D01*
X75038333Y-73182190D01*
X75419285Y-73182190D01*
X73895476Y-73658380D02*
X74466904Y-73658380D01*
X74181190Y-73658380D02*
X74181190Y-72658380D01*
X74276428Y-72801238D01*
X74371666Y-72896476D01*
X74466904Y-72944095D01*
X73514523Y-72753619D02*
X73466904Y-72706000D01*
X73371666Y-72658380D01*
X73133571Y-72658380D01*
X73038333Y-72706000D01*
X72990714Y-72753619D01*
X72943095Y-72848857D01*
X72943095Y-72944095D01*
X72990714Y-73086952D01*
X73562142Y-73658380D01*
X72943095Y-73658380D01*
%TO.C,R11*%
X78530857Y-75436380D02*
X78864190Y-74960190D01*
X79102285Y-75436380D02*
X79102285Y-74436380D01*
X78721333Y-74436380D01*
X78626095Y-74484000D01*
X78578476Y-74531619D01*
X78530857Y-74626857D01*
X78530857Y-74769714D01*
X78578476Y-74864952D01*
X78626095Y-74912571D01*
X78721333Y-74960190D01*
X79102285Y-74960190D01*
X77578476Y-75436380D02*
X78149904Y-75436380D01*
X77864190Y-75436380D02*
X77864190Y-74436380D01*
X77959428Y-74579238D01*
X78054666Y-74674476D01*
X78149904Y-74722095D01*
X76626095Y-75436380D02*
X77197523Y-75436380D01*
X76911809Y-75436380D02*
X76911809Y-74436380D01*
X77007047Y-74579238D01*
X77102285Y-74674476D01*
X77197523Y-74722095D01*
%TO.C,R7*%
X90882666Y-57402380D02*
X91216000Y-56926190D01*
X91454095Y-57402380D02*
X91454095Y-56402380D01*
X91073142Y-56402380D01*
X90977904Y-56450000D01*
X90930285Y-56497619D01*
X90882666Y-56592857D01*
X90882666Y-56735714D01*
X90930285Y-56830952D01*
X90977904Y-56878571D01*
X91073142Y-56926190D01*
X91454095Y-56926190D01*
X90549333Y-56402380D02*
X89882666Y-56402380D01*
X90311238Y-57402380D01*
%TO.C,R3*%
X93040666Y-60424980D02*
X93374000Y-59948790D01*
X93612095Y-60424980D02*
X93612095Y-59424980D01*
X93231142Y-59424980D01*
X93135904Y-59472600D01*
X93088285Y-59520219D01*
X93040666Y-59615457D01*
X93040666Y-59758314D01*
X93088285Y-59853552D01*
X93135904Y-59901171D01*
X93231142Y-59948790D01*
X93612095Y-59948790D01*
X92707333Y-59424980D02*
X92088285Y-59424980D01*
X92421619Y-59805933D01*
X92278761Y-59805933D01*
X92183523Y-59853552D01*
X92135904Y-59901171D01*
X92088285Y-59996409D01*
X92088285Y-60234504D01*
X92135904Y-60329742D01*
X92183523Y-60377361D01*
X92278761Y-60424980D01*
X92564476Y-60424980D01*
X92659714Y-60377361D01*
X92707333Y-60329742D01*
%TO.C,Q1*%
X90881619Y-54425761D02*
X90834000Y-54330523D01*
X90738761Y-54235285D01*
X90595904Y-54092428D01*
X90548285Y-53997190D01*
X90548285Y-53901952D01*
X90786380Y-53949571D02*
X90738761Y-53854333D01*
X90643523Y-53759095D01*
X90453047Y-53711476D01*
X90119714Y-53711476D01*
X89929238Y-53759095D01*
X89834000Y-53854333D01*
X89786380Y-53949571D01*
X89786380Y-54140047D01*
X89834000Y-54235285D01*
X89929238Y-54330523D01*
X90119714Y-54378142D01*
X90453047Y-54378142D01*
X90643523Y-54330523D01*
X90738761Y-54235285D01*
X90786380Y-54140047D01*
X90786380Y-53949571D01*
X90786380Y-55330523D02*
X90786380Y-54759095D01*
X90786380Y-55044809D02*
X89786380Y-55044809D01*
X89929238Y-54949571D01*
X90024476Y-54854333D01*
X90072095Y-54759095D01*
%TO.C,C19*%
X81928142Y-52243142D02*
X81975761Y-52195523D01*
X82023380Y-52052666D01*
X82023380Y-51957428D01*
X81975761Y-51814571D01*
X81880523Y-51719333D01*
X81785285Y-51671714D01*
X81594809Y-51624095D01*
X81451952Y-51624095D01*
X81261476Y-51671714D01*
X81166238Y-51719333D01*
X81071000Y-51814571D01*
X81023380Y-51957428D01*
X81023380Y-52052666D01*
X81071000Y-52195523D01*
X81118619Y-52243142D01*
X82023380Y-53195523D02*
X82023380Y-52624095D01*
X82023380Y-52909809D02*
X81023380Y-52909809D01*
X81166238Y-52814571D01*
X81261476Y-52719333D01*
X81309095Y-52624095D01*
X82023380Y-53671714D02*
X82023380Y-53862190D01*
X81975761Y-53957428D01*
X81928142Y-54005047D01*
X81785285Y-54100285D01*
X81594809Y-54147904D01*
X81213857Y-54147904D01*
X81118619Y-54100285D01*
X81071000Y-54052666D01*
X81023380Y-53957428D01*
X81023380Y-53766952D01*
X81071000Y-53671714D01*
X81118619Y-53624095D01*
X81213857Y-53576476D01*
X81451952Y-53576476D01*
X81547190Y-53624095D01*
X81594809Y-53671714D01*
X81642428Y-53766952D01*
X81642428Y-53957428D01*
X81594809Y-54052666D01*
X81547190Y-54100285D01*
X81451952Y-54147904D01*
%TO.C,C18*%
X86373142Y-51989142D02*
X86420761Y-51941523D01*
X86468380Y-51798666D01*
X86468380Y-51703428D01*
X86420761Y-51560571D01*
X86325523Y-51465333D01*
X86230285Y-51417714D01*
X86039809Y-51370095D01*
X85896952Y-51370095D01*
X85706476Y-51417714D01*
X85611238Y-51465333D01*
X85516000Y-51560571D01*
X85468380Y-51703428D01*
X85468380Y-51798666D01*
X85516000Y-51941523D01*
X85563619Y-51989142D01*
X86468380Y-52941523D02*
X86468380Y-52370095D01*
X86468380Y-52655809D02*
X85468380Y-52655809D01*
X85611238Y-52560571D01*
X85706476Y-52465333D01*
X85754095Y-52370095D01*
X85896952Y-53512952D02*
X85849333Y-53417714D01*
X85801714Y-53370095D01*
X85706476Y-53322476D01*
X85658857Y-53322476D01*
X85563619Y-53370095D01*
X85516000Y-53417714D01*
X85468380Y-53512952D01*
X85468380Y-53703428D01*
X85516000Y-53798666D01*
X85563619Y-53846285D01*
X85658857Y-53893904D01*
X85706476Y-53893904D01*
X85801714Y-53846285D01*
X85849333Y-53798666D01*
X85896952Y-53703428D01*
X85896952Y-53512952D01*
X85944571Y-53417714D01*
X85992190Y-53370095D01*
X86087428Y-53322476D01*
X86277904Y-53322476D01*
X86373142Y-53370095D01*
X86420761Y-53417714D01*
X86468380Y-53512952D01*
X86468380Y-53703428D01*
X86420761Y-53798666D01*
X86373142Y-53846285D01*
X86277904Y-53893904D01*
X86087428Y-53893904D01*
X85992190Y-53846285D01*
X85944571Y-53798666D01*
X85896952Y-53703428D01*
%TO.C,C13*%
X87770142Y-69896142D02*
X87817761Y-69848523D01*
X87865380Y-69705666D01*
X87865380Y-69610428D01*
X87817761Y-69467571D01*
X87722523Y-69372333D01*
X87627285Y-69324714D01*
X87436809Y-69277095D01*
X87293952Y-69277095D01*
X87103476Y-69324714D01*
X87008238Y-69372333D01*
X86913000Y-69467571D01*
X86865380Y-69610428D01*
X86865380Y-69705666D01*
X86913000Y-69848523D01*
X86960619Y-69896142D01*
X87865380Y-70848523D02*
X87865380Y-70277095D01*
X87865380Y-70562809D02*
X86865380Y-70562809D01*
X87008238Y-70467571D01*
X87103476Y-70372333D01*
X87151095Y-70277095D01*
X86865380Y-71181857D02*
X86865380Y-71800904D01*
X87246333Y-71467571D01*
X87246333Y-71610428D01*
X87293952Y-71705666D01*
X87341571Y-71753285D01*
X87436809Y-71800904D01*
X87674904Y-71800904D01*
X87770142Y-71753285D01*
X87817761Y-71705666D01*
X87865380Y-71610428D01*
X87865380Y-71324714D01*
X87817761Y-71229476D01*
X87770142Y-71181857D01*
%TO.C,C8*%
X69101142Y-55894333D02*
X69148761Y-55846714D01*
X69196380Y-55703857D01*
X69196380Y-55608619D01*
X69148761Y-55465761D01*
X69053523Y-55370523D01*
X68958285Y-55322904D01*
X68767809Y-55275285D01*
X68624952Y-55275285D01*
X68434476Y-55322904D01*
X68339238Y-55370523D01*
X68244000Y-55465761D01*
X68196380Y-55608619D01*
X68196380Y-55703857D01*
X68244000Y-55846714D01*
X68291619Y-55894333D01*
X68624952Y-56465761D02*
X68577333Y-56370523D01*
X68529714Y-56322904D01*
X68434476Y-56275285D01*
X68386857Y-56275285D01*
X68291619Y-56322904D01*
X68244000Y-56370523D01*
X68196380Y-56465761D01*
X68196380Y-56656238D01*
X68244000Y-56751476D01*
X68291619Y-56799095D01*
X68386857Y-56846714D01*
X68434476Y-56846714D01*
X68529714Y-56799095D01*
X68577333Y-56751476D01*
X68624952Y-56656238D01*
X68624952Y-56465761D01*
X68672571Y-56370523D01*
X68720190Y-56322904D01*
X68815428Y-56275285D01*
X69005904Y-56275285D01*
X69101142Y-56322904D01*
X69148761Y-56370523D01*
X69196380Y-56465761D01*
X69196380Y-56656238D01*
X69148761Y-56751476D01*
X69101142Y-56799095D01*
X69005904Y-56846714D01*
X68815428Y-56846714D01*
X68720190Y-56799095D01*
X68672571Y-56751476D01*
X68624952Y-56656238D01*
%TO.C,C6*%
X70625142Y-55894333D02*
X70672761Y-55846714D01*
X70720380Y-55703857D01*
X70720380Y-55608619D01*
X70672761Y-55465761D01*
X70577523Y-55370523D01*
X70482285Y-55322904D01*
X70291809Y-55275285D01*
X70148952Y-55275285D01*
X69958476Y-55322904D01*
X69863238Y-55370523D01*
X69768000Y-55465761D01*
X69720380Y-55608619D01*
X69720380Y-55703857D01*
X69768000Y-55846714D01*
X69815619Y-55894333D01*
X69720380Y-56751476D02*
X69720380Y-56561000D01*
X69768000Y-56465761D01*
X69815619Y-56418142D01*
X69958476Y-56322904D01*
X70148952Y-56275285D01*
X70529904Y-56275285D01*
X70625142Y-56322904D01*
X70672761Y-56370523D01*
X70720380Y-56465761D01*
X70720380Y-56656238D01*
X70672761Y-56751476D01*
X70625142Y-56799095D01*
X70529904Y-56846714D01*
X70291809Y-56846714D01*
X70196571Y-56799095D01*
X70148952Y-56751476D01*
X70101333Y-56656238D01*
X70101333Y-56465761D01*
X70148952Y-56370523D01*
X70196571Y-56322904D01*
X70291809Y-56275285D01*
%TO.C,R4*%
X102946666Y-60450380D02*
X103280000Y-59974190D01*
X103518095Y-60450380D02*
X103518095Y-59450380D01*
X103137142Y-59450380D01*
X103041904Y-59498000D01*
X102994285Y-59545619D01*
X102946666Y-59640857D01*
X102946666Y-59783714D01*
X102994285Y-59878952D01*
X103041904Y-59926571D01*
X103137142Y-59974190D01*
X103518095Y-59974190D01*
X102089523Y-59783714D02*
X102089523Y-60450380D01*
X102327619Y-59402761D02*
X102565714Y-60117047D01*
X101946666Y-60117047D01*
%TO.C,R10*%
X101200380Y-59101142D02*
X100724190Y-58767809D01*
X101200380Y-58529714D02*
X100200380Y-58529714D01*
X100200380Y-58910666D01*
X100248000Y-59005904D01*
X100295619Y-59053523D01*
X100390857Y-59101142D01*
X100533714Y-59101142D01*
X100628952Y-59053523D01*
X100676571Y-59005904D01*
X100724190Y-58910666D01*
X100724190Y-58529714D01*
X101200380Y-60053523D02*
X101200380Y-59482095D01*
X101200380Y-59767809D02*
X100200380Y-59767809D01*
X100343238Y-59672571D01*
X100438476Y-59577333D01*
X100486095Y-59482095D01*
X100200380Y-60672571D02*
X100200380Y-60767809D01*
X100248000Y-60863047D01*
X100295619Y-60910666D01*
X100390857Y-60958285D01*
X100581333Y-61005904D01*
X100819428Y-61005904D01*
X101009904Y-60958285D01*
X101105142Y-60910666D01*
X101152761Y-60863047D01*
X101200380Y-60767809D01*
X101200380Y-60672571D01*
X101152761Y-60577333D01*
X101105142Y-60529714D01*
X101009904Y-60482095D01*
X100819428Y-60434476D01*
X100581333Y-60434476D01*
X100390857Y-60482095D01*
X100295619Y-60529714D01*
X100248000Y-60577333D01*
X100200380Y-60672571D01*
%TO.C,Q2*%
X101295619Y-57108761D02*
X101248000Y-57013523D01*
X101152761Y-56918285D01*
X101009904Y-56775428D01*
X100962285Y-56680190D01*
X100962285Y-56584952D01*
X101200380Y-56632571D02*
X101152761Y-56537333D01*
X101057523Y-56442095D01*
X100867047Y-56394476D01*
X100533714Y-56394476D01*
X100343238Y-56442095D01*
X100248000Y-56537333D01*
X100200380Y-56632571D01*
X100200380Y-56823047D01*
X100248000Y-56918285D01*
X100343238Y-57013523D01*
X100533714Y-57061142D01*
X100867047Y-57061142D01*
X101057523Y-57013523D01*
X101152761Y-56918285D01*
X101200380Y-56823047D01*
X101200380Y-56632571D01*
X100295619Y-57442095D02*
X100248000Y-57489714D01*
X100200380Y-57584952D01*
X100200380Y-57823047D01*
X100248000Y-57918285D01*
X100295619Y-57965904D01*
X100390857Y-58013523D01*
X100486095Y-58013523D01*
X100628952Y-57965904D01*
X101200380Y-57394476D01*
X101200380Y-58013523D01*
%TO.C,R14*%
X67227857Y-66800380D02*
X67561190Y-66324190D01*
X67799285Y-66800380D02*
X67799285Y-65800380D01*
X67418333Y-65800380D01*
X67323095Y-65848000D01*
X67275476Y-65895619D01*
X67227857Y-65990857D01*
X67227857Y-66133714D01*
X67275476Y-66228952D01*
X67323095Y-66276571D01*
X67418333Y-66324190D01*
X67799285Y-66324190D01*
X66275476Y-66800380D02*
X66846904Y-66800380D01*
X66561190Y-66800380D02*
X66561190Y-65800380D01*
X66656428Y-65943238D01*
X66751666Y-66038476D01*
X66846904Y-66086095D01*
X65418333Y-66133714D02*
X65418333Y-66800380D01*
X65656428Y-65752761D02*
X65894523Y-66467047D01*
X65275476Y-66467047D01*
%TO.C,D6*%
X63640095Y-65276380D02*
X63640095Y-64276380D01*
X63402000Y-64276380D01*
X63259142Y-64324000D01*
X63163904Y-64419238D01*
X63116285Y-64514476D01*
X63068666Y-64704952D01*
X63068666Y-64847809D01*
X63116285Y-65038285D01*
X63163904Y-65133523D01*
X63259142Y-65228761D01*
X63402000Y-65276380D01*
X63640095Y-65276380D01*
X62211523Y-64276380D02*
X62402000Y-64276380D01*
X62497238Y-64324000D01*
X62544857Y-64371619D01*
X62640095Y-64514476D01*
X62687714Y-64704952D01*
X62687714Y-65085904D01*
X62640095Y-65181142D01*
X62592476Y-65228761D01*
X62497238Y-65276380D01*
X62306761Y-65276380D01*
X62211523Y-65228761D01*
X62163904Y-65181142D01*
X62116285Y-65085904D01*
X62116285Y-64847809D01*
X62163904Y-64752571D01*
X62211523Y-64704952D01*
X62306761Y-64657333D01*
X62497238Y-64657333D01*
X62592476Y-64704952D01*
X62640095Y-64752571D01*
X62687714Y-64847809D01*
%TO.C,U2*%
X94270904Y-72023380D02*
X94270904Y-72832904D01*
X94223285Y-72928142D01*
X94175666Y-72975761D01*
X94080428Y-73023380D01*
X93889952Y-73023380D01*
X93794714Y-72975761D01*
X93747095Y-72928142D01*
X93699476Y-72832904D01*
X93699476Y-72023380D01*
X93270904Y-72118619D02*
X93223285Y-72071000D01*
X93128047Y-72023380D01*
X92889952Y-72023380D01*
X92794714Y-72071000D01*
X92747095Y-72118619D01*
X92699476Y-72213857D01*
X92699476Y-72309095D01*
X92747095Y-72451952D01*
X93318523Y-73023380D01*
X92699476Y-73023380D01*
%TO.C,R16*%
X101962380Y-68705142D02*
X101486190Y-68371809D01*
X101962380Y-68133714D02*
X100962380Y-68133714D01*
X100962380Y-68514666D01*
X101010000Y-68609904D01*
X101057619Y-68657523D01*
X101152857Y-68705142D01*
X101295714Y-68705142D01*
X101390952Y-68657523D01*
X101438571Y-68609904D01*
X101486190Y-68514666D01*
X101486190Y-68133714D01*
X101962380Y-69657523D02*
X101962380Y-69086095D01*
X101962380Y-69371809D02*
X100962380Y-69371809D01*
X101105238Y-69276571D01*
X101200476Y-69181333D01*
X101248095Y-69086095D01*
X100962380Y-70514666D02*
X100962380Y-70324190D01*
X101010000Y-70228952D01*
X101057619Y-70181333D01*
X101200476Y-70086095D01*
X101390952Y-70038476D01*
X101771904Y-70038476D01*
X101867142Y-70086095D01*
X101914761Y-70133714D01*
X101962380Y-70228952D01*
X101962380Y-70419428D01*
X101914761Y-70514666D01*
X101867142Y-70562285D01*
X101771904Y-70609904D01*
X101533809Y-70609904D01*
X101438571Y-70562285D01*
X101390952Y-70514666D01*
X101343333Y-70419428D01*
X101343333Y-70228952D01*
X101390952Y-70133714D01*
X101438571Y-70086095D01*
X101533809Y-70038476D01*
%TO.C,R15*%
X92183380Y-68832142D02*
X91707190Y-68498809D01*
X92183380Y-68260714D02*
X91183380Y-68260714D01*
X91183380Y-68641666D01*
X91231000Y-68736904D01*
X91278619Y-68784523D01*
X91373857Y-68832142D01*
X91516714Y-68832142D01*
X91611952Y-68784523D01*
X91659571Y-68736904D01*
X91707190Y-68641666D01*
X91707190Y-68260714D01*
X92183380Y-69784523D02*
X92183380Y-69213095D01*
X92183380Y-69498809D02*
X91183380Y-69498809D01*
X91326238Y-69403571D01*
X91421476Y-69308333D01*
X91469095Y-69213095D01*
X91183380Y-70689285D02*
X91183380Y-70213095D01*
X91659571Y-70165476D01*
X91611952Y-70213095D01*
X91564333Y-70308333D01*
X91564333Y-70546428D01*
X91611952Y-70641666D01*
X91659571Y-70689285D01*
X91754809Y-70736904D01*
X91992904Y-70736904D01*
X92088142Y-70689285D01*
X92135761Y-70641666D01*
X92183380Y-70546428D01*
X92183380Y-70308333D01*
X92135761Y-70213095D01*
X92088142Y-70165476D01*
%TO.C,D2*%
X101187880Y-51258904D02*
X100187880Y-51258904D01*
X100187880Y-51497000D01*
X100235500Y-51639857D01*
X100330738Y-51735095D01*
X100425976Y-51782714D01*
X100616452Y-51830333D01*
X100759309Y-51830333D01*
X100949785Y-51782714D01*
X101045023Y-51735095D01*
X101140261Y-51639857D01*
X101187880Y-51497000D01*
X101187880Y-51258904D01*
X100283119Y-52211285D02*
X100235500Y-52258904D01*
X100187880Y-52354142D01*
X100187880Y-52592238D01*
X100235500Y-52687476D01*
X100283119Y-52735095D01*
X100378357Y-52782714D01*
X100473595Y-52782714D01*
X100616452Y-52735095D01*
X101187880Y-52163666D01*
X101187880Y-52782714D01*
%TO.C,D1*%
X91281880Y-51258904D02*
X90281880Y-51258904D01*
X90281880Y-51497000D01*
X90329500Y-51639857D01*
X90424738Y-51735095D01*
X90519976Y-51782714D01*
X90710452Y-51830333D01*
X90853309Y-51830333D01*
X91043785Y-51782714D01*
X91139023Y-51735095D01*
X91234261Y-51639857D01*
X91281880Y-51497000D01*
X91281880Y-51258904D01*
X91281880Y-52782714D02*
X91281880Y-52211285D01*
X91281880Y-52497000D02*
X90281880Y-52497000D01*
X90424738Y-52401761D01*
X90519976Y-52306523D01*
X90567595Y-52211285D01*
%TO.C,R13*%
X66021380Y-59736142D02*
X65545190Y-59402809D01*
X66021380Y-59164714D02*
X65021380Y-59164714D01*
X65021380Y-59545666D01*
X65069000Y-59640904D01*
X65116619Y-59688523D01*
X65211857Y-59736142D01*
X65354714Y-59736142D01*
X65449952Y-59688523D01*
X65497571Y-59640904D01*
X65545190Y-59545666D01*
X65545190Y-59164714D01*
X66021380Y-60688523D02*
X66021380Y-60117095D01*
X66021380Y-60402809D02*
X65021380Y-60402809D01*
X65164238Y-60307571D01*
X65259476Y-60212333D01*
X65307095Y-60117095D01*
X65021380Y-61021857D02*
X65021380Y-61640904D01*
X65402333Y-61307571D01*
X65402333Y-61450428D01*
X65449952Y-61545666D01*
X65497571Y-61593285D01*
X65592809Y-61640904D01*
X65830904Y-61640904D01*
X65926142Y-61593285D01*
X65973761Y-61545666D01*
X66021380Y-61450428D01*
X66021380Y-61164714D01*
X65973761Y-61069476D01*
X65926142Y-61021857D01*
%TO.C,D5*%
X63640095Y-59307380D02*
X63640095Y-58307380D01*
X63402000Y-58307380D01*
X63259142Y-58355000D01*
X63163904Y-58450238D01*
X63116285Y-58545476D01*
X63068666Y-58735952D01*
X63068666Y-58878809D01*
X63116285Y-59069285D01*
X63163904Y-59164523D01*
X63259142Y-59259761D01*
X63402000Y-59307380D01*
X63640095Y-59307380D01*
X62163904Y-58307380D02*
X62640095Y-58307380D01*
X62687714Y-58783571D01*
X62640095Y-58735952D01*
X62544857Y-58688333D01*
X62306761Y-58688333D01*
X62211523Y-58735952D01*
X62163904Y-58783571D01*
X62116285Y-58878809D01*
X62116285Y-59116904D01*
X62163904Y-59212142D01*
X62211523Y-59259761D01*
X62306761Y-59307380D01*
X62544857Y-59307380D01*
X62640095Y-59259761D01*
X62687714Y-59212142D01*
%TO.C,U3*%
X104049904Y-72023380D02*
X104049904Y-72832904D01*
X104002285Y-72928142D01*
X103954666Y-72975761D01*
X103859428Y-73023380D01*
X103668952Y-73023380D01*
X103573714Y-72975761D01*
X103526095Y-72928142D01*
X103478476Y-72832904D01*
X103478476Y-72023380D01*
X103097523Y-72023380D02*
X102478476Y-72023380D01*
X102811809Y-72404333D01*
X102668952Y-72404333D01*
X102573714Y-72451952D01*
X102526095Y-72499571D01*
X102478476Y-72594809D01*
X102478476Y-72832904D01*
X102526095Y-72928142D01*
X102573714Y-72975761D01*
X102668952Y-73023380D01*
X102954666Y-73023380D01*
X103049904Y-72975761D01*
X103097523Y-72928142D01*
%TD*%
%LPC*%
D12*
%TO.C,JP4*%
X87540000Y-77632000D03*
D13*
X87540000Y-78902000D03*
X88810000Y-77632000D03*
X88810000Y-78902000D03*
%TD*%
D14*
%TO.C,J1*%
X66458000Y-98714000D03*
D15*
X63918000Y-99222000D03*
X61378000Y-99222000D03*
%TD*%
D14*
%TO.C,J3*%
X98716000Y-98714000D03*
D15*
X96176000Y-99222000D03*
X93636000Y-99222000D03*
%TD*%
D14*
%TO.C,J4*%
X108622000Y-98714000D03*
D15*
X106082000Y-99222000D03*
X103542000Y-99222000D03*
%TD*%
D16*
%TO.C,U1*%
X66458000Y-78013000D03*
X66458000Y-80553000D03*
X66458000Y-93253000D03*
D17*
X66458000Y-98333000D03*
%TD*%
D18*
%TO.C,U4*%
X72427000Y-77378000D03*
D19*
X72427000Y-79918000D03*
X72427000Y-82458000D03*
X72427000Y-84998000D03*
X72436500Y-90078000D03*
X72427000Y-92618000D03*
X72427000Y-95158000D03*
%TD*%
D12*
%TO.C,U7*%
X66839000Y-84617000D03*
D20*
X66839000Y-85887000D03*
X68109000Y-84617000D03*
X68109000Y-85887000D03*
X69379000Y-84617000D03*
X69379000Y-85887000D03*
D12*
X86651000Y-84617000D03*
D20*
X86651000Y-85887000D03*
X87921000Y-84617000D03*
X87921000Y-85887000D03*
X89191000Y-84617000D03*
X89191000Y-85887000D03*
%TD*%
%TO.C,C14*%
G36*
G01*
X82529000Y-94527000D02*
X82529000Y-95027000D01*
G75*
G02*
X82304000Y-95252000I-225000J0D01*
G01*
X81854000Y-95252000D01*
G75*
G02*
X81629000Y-95027000I0J225000D01*
G01*
X81629000Y-94527000D01*
G75*
G02*
X81854000Y-94302000I225000J0D01*
G01*
X82304000Y-94302000D01*
G75*
G02*
X82529000Y-94527000I0J-225000D01*
G01*
G37*
G36*
G01*
X80979000Y-94527000D02*
X80979000Y-95027000D01*
G75*
G02*
X80754000Y-95252000I-225000J0D01*
G01*
X80304000Y-95252000D01*
G75*
G02*
X80079000Y-95027000I0J225000D01*
G01*
X80079000Y-94527000D01*
G75*
G02*
X80304000Y-94302000I225000J0D01*
G01*
X80754000Y-94302000D01*
G75*
G02*
X80979000Y-94527000I0J-225000D01*
G01*
G37*
%TD*%
%TO.C,C16*%
G36*
G01*
X87036000Y-86834000D02*
X87536000Y-86834000D01*
G75*
G02*
X87761000Y-87059000I0J-225000D01*
G01*
X87761000Y-87509000D01*
G75*
G02*
X87536000Y-87734000I-225000J0D01*
G01*
X87036000Y-87734000D01*
G75*
G02*
X86811000Y-87509000I0J225000D01*
G01*
X86811000Y-87059000D01*
G75*
G02*
X87036000Y-86834000I225000J0D01*
G01*
G37*
G36*
G01*
X87036000Y-88384000D02*
X87536000Y-88384000D01*
G75*
G02*
X87761000Y-88609000I0J-225000D01*
G01*
X87761000Y-89059000D01*
G75*
G02*
X87536000Y-89284000I-225000J0D01*
G01*
X87036000Y-89284000D01*
G75*
G02*
X86811000Y-89059000I0J225000D01*
G01*
X86811000Y-88609000D01*
G75*
G02*
X87036000Y-88384000I225000J0D01*
G01*
G37*
%TD*%
%TO.C,C19*%
G36*
G01*
X82464000Y-76648000D02*
X82964000Y-76648000D01*
G75*
G02*
X83189000Y-76873000I0J-225000D01*
G01*
X83189000Y-77323000D01*
G75*
G02*
X82964000Y-77548000I-225000J0D01*
G01*
X82464000Y-77548000D01*
G75*
G02*
X82239000Y-77323000I0J225000D01*
G01*
X82239000Y-76873000D01*
G75*
G02*
X82464000Y-76648000I225000J0D01*
G01*
G37*
G36*
G01*
X82464000Y-78198000D02*
X82964000Y-78198000D01*
G75*
G02*
X83189000Y-78423000I0J-225000D01*
G01*
X83189000Y-78873000D01*
G75*
G02*
X82964000Y-79098000I-225000J0D01*
G01*
X82464000Y-79098000D01*
G75*
G02*
X82239000Y-78873000I0J225000D01*
G01*
X82239000Y-78423000D01*
G75*
G02*
X82464000Y-78198000I225000J0D01*
G01*
G37*
%TD*%
D21*
%TO.C,Q1*%
X93636000Y-80521000D03*
X91736000Y-80521000D03*
X92686000Y-78521000D03*
%TD*%
%TO.C,R3*%
G36*
G01*
X94163000Y-83326000D02*
X94163000Y-83876000D01*
G75*
G02*
X93963000Y-84076000I-200000J0D01*
G01*
X93563000Y-84076000D01*
G75*
G02*
X93363000Y-83876000I0J200000D01*
G01*
X93363000Y-83326000D01*
G75*
G02*
X93563000Y-83126000I200000J0D01*
G01*
X93963000Y-83126000D01*
G75*
G02*
X94163000Y-83326000I0J-200000D01*
G01*
G37*
G36*
G01*
X92513000Y-83326000D02*
X92513000Y-83876000D01*
G75*
G02*
X92313000Y-84076000I-200000J0D01*
G01*
X91913000Y-84076000D01*
G75*
G02*
X91713000Y-83876000I0J200000D01*
G01*
X91713000Y-83326000D01*
G75*
G02*
X91913000Y-83126000I200000J0D01*
G01*
X92313000Y-83126000D01*
G75*
G02*
X92513000Y-83326000I0J-200000D01*
G01*
G37*
%TD*%
%TO.C,R7*%
G36*
G01*
X94163000Y-81802000D02*
X94163000Y-82352000D01*
G75*
G02*
X93963000Y-82552000I-200000J0D01*
G01*
X93563000Y-82552000D01*
G75*
G02*
X93363000Y-82352000I0J200000D01*
G01*
X93363000Y-81802000D01*
G75*
G02*
X93563000Y-81602000I200000J0D01*
G01*
X93963000Y-81602000D01*
G75*
G02*
X94163000Y-81802000I0J-200000D01*
G01*
G37*
G36*
G01*
X92513000Y-81802000D02*
X92513000Y-82352000D01*
G75*
G02*
X92313000Y-82552000I-200000J0D01*
G01*
X91913000Y-82552000D01*
G75*
G02*
X91713000Y-82352000I0J200000D01*
G01*
X91713000Y-81802000D01*
G75*
G02*
X91913000Y-81602000I200000J0D01*
G01*
X92313000Y-81602000D01*
G75*
G02*
X92513000Y-81802000I0J-200000D01*
G01*
G37*
%TD*%
%TO.C,R11*%
G36*
G01*
X79336500Y-98009999D02*
X79336500Y-98910001D01*
G75*
G02*
X79086501Y-99160000I-249999J0D01*
G01*
X78561499Y-99160000D01*
G75*
G02*
X78311500Y-98910001I0J249999D01*
G01*
X78311500Y-98009999D01*
G75*
G02*
X78561499Y-97760000I249999J0D01*
G01*
X79086501Y-97760000D01*
G75*
G02*
X79336500Y-98009999I0J-249999D01*
G01*
G37*
G36*
G01*
X77511500Y-98009999D02*
X77511500Y-98910001D01*
G75*
G02*
X77261501Y-99160000I-249999J0D01*
G01*
X76736499Y-99160000D01*
G75*
G02*
X76486500Y-98910001I0J249999D01*
G01*
X76486500Y-98009999D01*
G75*
G02*
X76736499Y-97760000I249999J0D01*
G01*
X77261501Y-97760000D01*
G75*
G02*
X77511500Y-98009999I0J-249999D01*
G01*
G37*
%TD*%
%TO.C,R14*%
G36*
G01*
X62503000Y-91496000D02*
X62503000Y-90946000D01*
G75*
G02*
X62703000Y-90746000I200000J0D01*
G01*
X63103000Y-90746000D01*
G75*
G02*
X63303000Y-90946000I0J-200000D01*
G01*
X63303000Y-91496000D01*
G75*
G02*
X63103000Y-91696000I-200000J0D01*
G01*
X62703000Y-91696000D01*
G75*
G02*
X62503000Y-91496000I0J200000D01*
G01*
G37*
G36*
G01*
X64153000Y-91496000D02*
X64153000Y-90946000D01*
G75*
G02*
X64353000Y-90746000I200000J0D01*
G01*
X64753000Y-90746000D01*
G75*
G02*
X64953000Y-90946000I0J-200000D01*
G01*
X64953000Y-91496000D01*
G75*
G02*
X64753000Y-91696000I-200000J0D01*
G01*
X64353000Y-91696000D01*
G75*
G02*
X64153000Y-91496000I0J200000D01*
G01*
G37*
%TD*%
%TO.C,Q2*%
X103542000Y-80553000D03*
X101642000Y-80553000D03*
X102592000Y-78553000D03*
%TD*%
%TO.C,R10*%
G36*
G01*
X104069000Y-81802000D02*
X104069000Y-82352000D01*
G75*
G02*
X103869000Y-82552000I-200000J0D01*
G01*
X103469000Y-82552000D01*
G75*
G02*
X103269000Y-82352000I0J200000D01*
G01*
X103269000Y-81802000D01*
G75*
G02*
X103469000Y-81602000I200000J0D01*
G01*
X103869000Y-81602000D01*
G75*
G02*
X104069000Y-81802000I0J-200000D01*
G01*
G37*
G36*
G01*
X102419000Y-81802000D02*
X102419000Y-82352000D01*
G75*
G02*
X102219000Y-82552000I-200000J0D01*
G01*
X101819000Y-82552000D01*
G75*
G02*
X101619000Y-82352000I0J200000D01*
G01*
X101619000Y-81802000D01*
G75*
G02*
X101819000Y-81602000I200000J0D01*
G01*
X102219000Y-81602000D01*
G75*
G02*
X102419000Y-81802000I0J-200000D01*
G01*
G37*
%TD*%
%TO.C,R4*%
G36*
G01*
X104069000Y-83326000D02*
X104069000Y-83876000D01*
G75*
G02*
X103869000Y-84076000I-200000J0D01*
G01*
X103469000Y-84076000D01*
G75*
G02*
X103269000Y-83876000I0J200000D01*
G01*
X103269000Y-83326000D01*
G75*
G02*
X103469000Y-83126000I200000J0D01*
G01*
X103869000Y-83126000D01*
G75*
G02*
X104069000Y-83326000I0J-200000D01*
G01*
G37*
G36*
G01*
X102419000Y-83326000D02*
X102419000Y-83876000D01*
G75*
G02*
X102219000Y-84076000I-200000J0D01*
G01*
X101819000Y-84076000D01*
G75*
G02*
X101619000Y-83876000I0J200000D01*
G01*
X101619000Y-83326000D01*
G75*
G02*
X101819000Y-83126000I200000J0D01*
G01*
X102219000Y-83126000D01*
G75*
G02*
X102419000Y-83326000I0J-200000D01*
G01*
G37*
%TD*%
%TO.C,C6*%
G36*
G01*
X70518000Y-79987000D02*
X70018000Y-79987000D01*
G75*
G02*
X69793000Y-79762000I0J225000D01*
G01*
X69793000Y-79312000D01*
G75*
G02*
X70018000Y-79087000I225000J0D01*
G01*
X70518000Y-79087000D01*
G75*
G02*
X70743000Y-79312000I0J-225000D01*
G01*
X70743000Y-79762000D01*
G75*
G02*
X70518000Y-79987000I-225000J0D01*
G01*
G37*
G36*
G01*
X70518000Y-78437000D02*
X70018000Y-78437000D01*
G75*
G02*
X69793000Y-78212000I0J225000D01*
G01*
X69793000Y-77762000D01*
G75*
G02*
X70018000Y-77537000I225000J0D01*
G01*
X70518000Y-77537000D01*
G75*
G02*
X70743000Y-77762000I0J-225000D01*
G01*
X70743000Y-78212000D01*
G75*
G02*
X70518000Y-78437000I-225000J0D01*
G01*
G37*
%TD*%
%TO.C,C8*%
G36*
G01*
X68968000Y-79987000D02*
X68468000Y-79987000D01*
G75*
G02*
X68243000Y-79762000I0J225000D01*
G01*
X68243000Y-79312000D01*
G75*
G02*
X68468000Y-79087000I225000J0D01*
G01*
X68968000Y-79087000D01*
G75*
G02*
X69193000Y-79312000I0J-225000D01*
G01*
X69193000Y-79762000D01*
G75*
G02*
X68968000Y-79987000I-225000J0D01*
G01*
G37*
G36*
G01*
X68968000Y-78437000D02*
X68468000Y-78437000D01*
G75*
G02*
X68243000Y-78212000I0J225000D01*
G01*
X68243000Y-77762000D01*
G75*
G02*
X68468000Y-77537000I225000J0D01*
G01*
X68968000Y-77537000D01*
G75*
G02*
X69193000Y-77762000I0J-225000D01*
G01*
X69193000Y-78212000D01*
G75*
G02*
X68968000Y-78437000I-225000J0D01*
G01*
G37*
%TD*%
%TO.C,C13*%
G36*
G01*
X86516000Y-95064000D02*
X86516000Y-96014000D01*
G75*
G02*
X86266000Y-96264000I-250000J0D01*
G01*
X85766000Y-96264000D01*
G75*
G02*
X85516000Y-96014000I0J250000D01*
G01*
X85516000Y-95064000D01*
G75*
G02*
X85766000Y-94814000I250000J0D01*
G01*
X86266000Y-94814000D01*
G75*
G02*
X86516000Y-95064000I0J-250000D01*
G01*
G37*
G36*
G01*
X84616000Y-95064000D02*
X84616000Y-96014000D01*
G75*
G02*
X84366000Y-96264000I-250000J0D01*
G01*
X83866000Y-96264000D01*
G75*
G02*
X83616000Y-96014000I0J250000D01*
G01*
X83616000Y-95064000D01*
G75*
G02*
X83866000Y-94814000I250000J0D01*
G01*
X84366000Y-94814000D01*
G75*
G02*
X84616000Y-95064000I0J-250000D01*
G01*
G37*
%TD*%
%TO.C,C18*%
G36*
G01*
X84496000Y-76648000D02*
X84996000Y-76648000D01*
G75*
G02*
X85221000Y-76873000I0J-225000D01*
G01*
X85221000Y-77323000D01*
G75*
G02*
X84996000Y-77548000I-225000J0D01*
G01*
X84496000Y-77548000D01*
G75*
G02*
X84271000Y-77323000I0J225000D01*
G01*
X84271000Y-76873000D01*
G75*
G02*
X84496000Y-76648000I225000J0D01*
G01*
G37*
G36*
G01*
X84496000Y-78198000D02*
X84996000Y-78198000D01*
G75*
G02*
X85221000Y-78423000I0J-225000D01*
G01*
X85221000Y-78873000D01*
G75*
G02*
X84996000Y-79098000I-225000J0D01*
G01*
X84496000Y-79098000D01*
G75*
G02*
X84271000Y-78873000I0J225000D01*
G01*
X84271000Y-78423000D01*
G75*
G02*
X84496000Y-78198000I225000J0D01*
G01*
G37*
%TD*%
%TO.C,R12*%
G36*
G01*
X75780500Y-99279999D02*
X75780500Y-100180001D01*
G75*
G02*
X75530501Y-100430000I-249999J0D01*
G01*
X75005499Y-100430000D01*
G75*
G02*
X74755500Y-100180001I0J249999D01*
G01*
X74755500Y-99279999D01*
G75*
G02*
X75005499Y-99030000I249999J0D01*
G01*
X75530501Y-99030000D01*
G75*
G02*
X75780500Y-99279999I0J-249999D01*
G01*
G37*
G36*
G01*
X73955500Y-99279999D02*
X73955500Y-100180001D01*
G75*
G02*
X73705501Y-100430000I-249999J0D01*
G01*
X73180499Y-100430000D01*
G75*
G02*
X72930500Y-100180001I0J249999D01*
G01*
X72930500Y-99279999D01*
G75*
G02*
X73180499Y-99030000I249999J0D01*
G01*
X73705501Y-99030000D01*
G75*
G02*
X73955500Y-99279999I0J-249999D01*
G01*
G37*
%TD*%
%TO.C,R17*%
G36*
G01*
X82892500Y-97247999D02*
X82892500Y-98148001D01*
G75*
G02*
X82642501Y-98398000I-249999J0D01*
G01*
X82117499Y-98398000D01*
G75*
G02*
X81867500Y-98148001I0J249999D01*
G01*
X81867500Y-97247999D01*
G75*
G02*
X82117499Y-96998000I249999J0D01*
G01*
X82642501Y-96998000D01*
G75*
G02*
X82892500Y-97247999I0J-249999D01*
G01*
G37*
G36*
G01*
X81067500Y-97247999D02*
X81067500Y-98148001D01*
G75*
G02*
X80817501Y-98398000I-249999J0D01*
G01*
X80292499Y-98398000D01*
G75*
G02*
X80042500Y-98148001I0J249999D01*
G01*
X80042500Y-97247999D01*
G75*
G02*
X80292499Y-96998000I249999J0D01*
G01*
X80817501Y-96998000D01*
G75*
G02*
X81067500Y-97247999I0J-249999D01*
G01*
G37*
%TD*%
%TO.C,R22*%
G36*
G01*
X83678500Y-98148001D02*
X83678500Y-97247999D01*
G75*
G02*
X83928499Y-96998000I249999J0D01*
G01*
X84453501Y-96998000D01*
G75*
G02*
X84703500Y-97247999I0J-249999D01*
G01*
X84703500Y-98148001D01*
G75*
G02*
X84453501Y-98398000I-249999J0D01*
G01*
X83928499Y-98398000D01*
G75*
G02*
X83678500Y-98148001I0J249999D01*
G01*
G37*
G36*
G01*
X85503500Y-98148001D02*
X85503500Y-97247999D01*
G75*
G02*
X85753499Y-96998000I249999J0D01*
G01*
X86278501Y-96998000D01*
G75*
G02*
X86528500Y-97247999I0J-249999D01*
G01*
X86528500Y-98148001D01*
G75*
G02*
X86278501Y-98398000I-249999J0D01*
G01*
X85753499Y-98398000D01*
G75*
G02*
X85503500Y-98148001I0J249999D01*
G01*
G37*
%TD*%
%TO.C,R26*%
G36*
G01*
X85018000Y-83707000D02*
X85018000Y-84257000D01*
G75*
G02*
X84818000Y-84457000I-200000J0D01*
G01*
X84418000Y-84457000D01*
G75*
G02*
X84218000Y-84257000I0J200000D01*
G01*
X84218000Y-83707000D01*
G75*
G02*
X84418000Y-83507000I200000J0D01*
G01*
X84818000Y-83507000D01*
G75*
G02*
X85018000Y-83707000I0J-200000D01*
G01*
G37*
G36*
G01*
X83368000Y-83707000D02*
X83368000Y-84257000D01*
G75*
G02*
X83168000Y-84457000I-200000J0D01*
G01*
X82768000Y-84457000D01*
G75*
G02*
X82568000Y-84257000I0J200000D01*
G01*
X82568000Y-83707000D01*
G75*
G02*
X82768000Y-83507000I200000J0D01*
G01*
X83168000Y-83507000D01*
G75*
G02*
X83368000Y-83707000I0J-200000D01*
G01*
G37*
%TD*%
D22*
%TO.C,U6*%
X85807000Y-92872000D03*
X85157000Y-92872000D03*
X84507000Y-92872000D03*
X83857000Y-92872000D03*
X83207000Y-92872000D03*
X82557000Y-92872000D03*
X81907000Y-92872000D03*
X81257000Y-92872000D03*
X81257000Y-87072000D03*
X81907000Y-87072000D03*
X82557000Y-87072000D03*
X83207000Y-87072000D03*
X83857000Y-87072000D03*
X84507000Y-87072000D03*
X85157000Y-87072000D03*
X85807000Y-87072000D03*
%TD*%
D23*
%TO.C,Y2*%
X82530000Y-81315000D03*
X83730000Y-81315000D03*
X84930000Y-81315000D03*
%TD*%
D24*
%TO.C,GND1*%
X63537000Y-87665000D03*
%TD*%
D25*
%TO.C,R16*%
X103161000Y-95872000D03*
X103161000Y-92872000D03*
%TD*%
D26*
%TO.C,U2*%
X98716000Y-98460000D03*
D27*
X98716000Y-90840000D03*
X98716000Y-80680000D03*
X98716000Y-78140000D03*
%TD*%
%TO.C,D6*%
G36*
G01*
X60867750Y-89259500D02*
X61380250Y-89259500D01*
G75*
G02*
X61599000Y-89478250I0J-218750D01*
G01*
X61599000Y-89915750D01*
G75*
G02*
X61380250Y-90134500I-218750J0D01*
G01*
X60867750Y-90134500D01*
G75*
G02*
X60649000Y-89915750I0J218750D01*
G01*
X60649000Y-89478250D01*
G75*
G02*
X60867750Y-89259500I218750J0D01*
G01*
G37*
G36*
G01*
X60867750Y-90834500D02*
X61380250Y-90834500D01*
G75*
G02*
X61599000Y-91053250I0J-218750D01*
G01*
X61599000Y-91490750D01*
G75*
G02*
X61380250Y-91709500I-218750J0D01*
G01*
X60867750Y-91709500D01*
G75*
G02*
X60649000Y-91490750I0J218750D01*
G01*
X60649000Y-91053250D01*
G75*
G02*
X60867750Y-90834500I218750J0D01*
G01*
G37*
%TD*%
%TO.C,L1*%
G36*
G01*
X75724500Y-95735001D02*
X75724500Y-94834999D01*
G75*
G02*
X75974499Y-94585000I249999J0D01*
G01*
X76499501Y-94585000D01*
G75*
G02*
X76749500Y-94834999I0J-249999D01*
G01*
X76749500Y-95735001D01*
G75*
G02*
X76499501Y-95985000I-249999J0D01*
G01*
X75974499Y-95985000D01*
G75*
G02*
X75724500Y-95735001I0J249999D01*
G01*
G37*
G36*
G01*
X77549500Y-95735001D02*
X77549500Y-94834999D01*
G75*
G02*
X77799499Y-94585000I249999J0D01*
G01*
X78324501Y-94585000D01*
G75*
G02*
X78574500Y-94834999I0J-249999D01*
G01*
X78574500Y-95735001D01*
G75*
G02*
X78324501Y-95985000I-249999J0D01*
G01*
X77799499Y-95985000D01*
G75*
G02*
X77549500Y-95735001I0J249999D01*
G01*
G37*
%TD*%
%TO.C,R27*%
G36*
G01*
X91837000Y-84598000D02*
X92387000Y-84598000D01*
G75*
G02*
X92587000Y-84798000I0J-200000D01*
G01*
X92587000Y-85198000D01*
G75*
G02*
X92387000Y-85398000I-200000J0D01*
G01*
X91837000Y-85398000D01*
G75*
G02*
X91637000Y-85198000I0J200000D01*
G01*
X91637000Y-84798000D01*
G75*
G02*
X91837000Y-84598000I200000J0D01*
G01*
G37*
G36*
G01*
X91837000Y-86248000D02*
X92387000Y-86248000D01*
G75*
G02*
X92587000Y-86448000I0J-200000D01*
G01*
X92587000Y-86848000D01*
G75*
G02*
X92387000Y-87048000I-200000J0D01*
G01*
X91837000Y-87048000D01*
G75*
G02*
X91637000Y-86848000I0J200000D01*
G01*
X91637000Y-86448000D01*
G75*
G02*
X91837000Y-86248000I200000J0D01*
G01*
G37*
%TD*%
D19*
%TO.C,F1*%
X97700000Y-94142000D03*
D28*
X97700000Y-86522000D03*
%TD*%
D29*
%TO.C,KP1*%
X74205000Y-87157000D03*
%TD*%
D12*
%TO.C,J6*%
X76999000Y-81950000D03*
D13*
X76999000Y-80680000D03*
X75729000Y-81950000D03*
X75729000Y-80680000D03*
X74459000Y-81950000D03*
X74459000Y-80680000D03*
%TD*%
D25*
%TO.C,R15*%
X93382000Y-95872000D03*
X93382000Y-92872000D03*
%TD*%
D19*
%TO.C,F2*%
X107733000Y-94142000D03*
D28*
X107733000Y-86522000D03*
%TD*%
D12*
%TO.C,J2*%
X63791000Y-81950000D03*
D13*
X63791000Y-80680000D03*
X62521000Y-81950000D03*
X62521000Y-80680000D03*
X61251000Y-81950000D03*
X61251000Y-80680000D03*
%TD*%
D26*
%TO.C,U3*%
X108622000Y-98460000D03*
D27*
X108622000Y-90840000D03*
X108622000Y-80680000D03*
X108622000Y-78140000D03*
%TD*%
%TO.C,D5*%
G36*
G01*
X60867750Y-83366500D02*
X61380250Y-83366500D01*
G75*
G02*
X61599000Y-83585250I0J-218750D01*
G01*
X61599000Y-84022750D01*
G75*
G02*
X61380250Y-84241500I-218750J0D01*
G01*
X60867750Y-84241500D01*
G75*
G02*
X60649000Y-84022750I0J218750D01*
G01*
X60649000Y-83585250D01*
G75*
G02*
X60867750Y-83366500I218750J0D01*
G01*
G37*
G36*
G01*
X60867750Y-84941500D02*
X61380250Y-84941500D01*
G75*
G02*
X61599000Y-85160250I0J-218750D01*
G01*
X61599000Y-85597750D01*
G75*
G02*
X61380250Y-85816500I-218750J0D01*
G01*
X60867750Y-85816500D01*
G75*
G02*
X60649000Y-85597750I0J218750D01*
G01*
X60649000Y-85160250D01*
G75*
G02*
X60867750Y-84941500I218750J0D01*
G01*
G37*
%TD*%
%TO.C,R13*%
G36*
G01*
X62375000Y-85654000D02*
X62375000Y-85104000D01*
G75*
G02*
X62575000Y-84904000I200000J0D01*
G01*
X62975000Y-84904000D01*
G75*
G02*
X63175000Y-85104000I0J-200000D01*
G01*
X63175000Y-85654000D01*
G75*
G02*
X62975000Y-85854000I-200000J0D01*
G01*
X62575000Y-85854000D01*
G75*
G02*
X62375000Y-85654000I0J200000D01*
G01*
G37*
G36*
G01*
X64025000Y-85654000D02*
X64025000Y-85104000D01*
G75*
G02*
X64225000Y-84904000I200000J0D01*
G01*
X64625000Y-84904000D01*
G75*
G02*
X64825000Y-85104000I0J-200000D01*
G01*
X64825000Y-85654000D01*
G75*
G02*
X64625000Y-85854000I-200000J0D01*
G01*
X64225000Y-85854000D01*
G75*
G02*
X64025000Y-85654000I0J200000D01*
G01*
G37*
%TD*%
%TO.C,D1*%
G36*
G01*
X91738000Y-77253250D02*
X91738000Y-76740750D01*
G75*
G02*
X91956750Y-76522000I218750J0D01*
G01*
X92394250Y-76522000D01*
G75*
G02*
X92613000Y-76740750I0J-218750D01*
G01*
X92613000Y-77253250D01*
G75*
G02*
X92394250Y-77472000I-218750J0D01*
G01*
X91956750Y-77472000D01*
G75*
G02*
X91738000Y-77253250I0J218750D01*
G01*
G37*
G36*
G01*
X93313000Y-77253250D02*
X93313000Y-76740750D01*
G75*
G02*
X93531750Y-76522000I218750J0D01*
G01*
X93969250Y-76522000D01*
G75*
G02*
X94188000Y-76740750I0J-218750D01*
G01*
X94188000Y-77253250D01*
G75*
G02*
X93969250Y-77472000I-218750J0D01*
G01*
X93531750Y-77472000D01*
G75*
G02*
X93313000Y-77253250I0J218750D01*
G01*
G37*
%TD*%
%TO.C,D2*%
G36*
G01*
X101644000Y-77253250D02*
X101644000Y-76740750D01*
G75*
G02*
X101862750Y-76522000I218750J0D01*
G01*
X102300250Y-76522000D01*
G75*
G02*
X102519000Y-76740750I0J-218750D01*
G01*
X102519000Y-77253250D01*
G75*
G02*
X102300250Y-77472000I-218750J0D01*
G01*
X101862750Y-77472000D01*
G75*
G02*
X101644000Y-77253250I0J218750D01*
G01*
G37*
G36*
G01*
X103219000Y-77253250D02*
X103219000Y-76740750D01*
G75*
G02*
X103437750Y-76522000I218750J0D01*
G01*
X103875250Y-76522000D01*
G75*
G02*
X104094000Y-76740750I0J-218750D01*
G01*
X104094000Y-77253250D01*
G75*
G02*
X103875250Y-77472000I-218750J0D01*
G01*
X103437750Y-77472000D01*
G75*
G02*
X103219000Y-77253250I0J218750D01*
G01*
G37*
%TD*%
D20*
%TO.C,U7*%
X89191000Y-60887000D03*
X89191000Y-59617000D03*
X87921000Y-60887000D03*
X87921000Y-59617000D03*
X86651000Y-60887000D03*
D12*
X86651000Y-59617000D03*
D20*
X69379000Y-60887000D03*
X69379000Y-59617000D03*
X68109000Y-60887000D03*
X68109000Y-59617000D03*
X66839000Y-60887000D03*
D12*
X66839000Y-59617000D03*
%TD*%
D19*
%TO.C,U4*%
X72427000Y-70158000D03*
X72427000Y-67618000D03*
X72436500Y-65078000D03*
X72427000Y-59998000D03*
X72427000Y-57458000D03*
X72427000Y-54918000D03*
D18*
X72427000Y-52378000D03*
%TD*%
D17*
%TO.C,U1*%
X66458000Y-73333000D03*
D16*
X66458000Y-68253000D03*
X66458000Y-55553000D03*
X66458000Y-53013000D03*
%TD*%
D15*
%TO.C,J4*%
X103542000Y-74222000D03*
X106082000Y-74222000D03*
D14*
X108622000Y-73714000D03*
%TD*%
D15*
%TO.C,J3*%
X93636000Y-74222000D03*
X96176000Y-74222000D03*
D14*
X98716000Y-73714000D03*
%TD*%
D15*
%TO.C,J1*%
X61378000Y-74222000D03*
X63918000Y-74222000D03*
D14*
X66458000Y-73714000D03*
%TD*%
D13*
%TO.C,JP4*%
X88810000Y-53902000D03*
X88810000Y-52632000D03*
X87540000Y-53902000D03*
D12*
X87540000Y-52632000D03*
%TD*%
D13*
%TO.C,J6*%
X74459000Y-55680000D03*
X74459000Y-56950000D03*
X75729000Y-55680000D03*
X75729000Y-56950000D03*
X76999000Y-55680000D03*
D12*
X76999000Y-56950000D03*
%TD*%
D29*
%TO.C,KP1*%
X74205000Y-62157000D03*
%TD*%
D28*
%TO.C,F1*%
X97700000Y-61522000D03*
D19*
X97700000Y-69142000D03*
%TD*%
%TO.C,R27*%
G36*
G01*
X91837000Y-61248000D02*
X92387000Y-61248000D01*
G75*
G02*
X92587000Y-61448000I0J-200000D01*
G01*
X92587000Y-61848000D01*
G75*
G02*
X92387000Y-62048000I-200000J0D01*
G01*
X91837000Y-62048000D01*
G75*
G02*
X91637000Y-61848000I0J200000D01*
G01*
X91637000Y-61448000D01*
G75*
G02*
X91837000Y-61248000I200000J0D01*
G01*
G37*
G36*
G01*
X91837000Y-59598000D02*
X92387000Y-59598000D01*
G75*
G02*
X92587000Y-59798000I0J-200000D01*
G01*
X92587000Y-60198000D01*
G75*
G02*
X92387000Y-60398000I-200000J0D01*
G01*
X91837000Y-60398000D01*
G75*
G02*
X91637000Y-60198000I0J200000D01*
G01*
X91637000Y-59798000D01*
G75*
G02*
X91837000Y-59598000I200000J0D01*
G01*
G37*
%TD*%
%TO.C,L1*%
G36*
G01*
X77549500Y-70735001D02*
X77549500Y-69834999D01*
G75*
G02*
X77799499Y-69585000I249999J0D01*
G01*
X78324501Y-69585000D01*
G75*
G02*
X78574500Y-69834999I0J-249999D01*
G01*
X78574500Y-70735001D01*
G75*
G02*
X78324501Y-70985000I-249999J0D01*
G01*
X77799499Y-70985000D01*
G75*
G02*
X77549500Y-70735001I0J249999D01*
G01*
G37*
G36*
G01*
X75724500Y-70735001D02*
X75724500Y-69834999D01*
G75*
G02*
X75974499Y-69585000I249999J0D01*
G01*
X76499501Y-69585000D01*
G75*
G02*
X76749500Y-69834999I0J-249999D01*
G01*
X76749500Y-70735001D01*
G75*
G02*
X76499501Y-70985000I-249999J0D01*
G01*
X75974499Y-70985000D01*
G75*
G02*
X75724500Y-70735001I0J249999D01*
G01*
G37*
%TD*%
%TO.C,C16*%
G36*
G01*
X87036000Y-63384000D02*
X87536000Y-63384000D01*
G75*
G02*
X87761000Y-63609000I0J-225000D01*
G01*
X87761000Y-64059000D01*
G75*
G02*
X87536000Y-64284000I-225000J0D01*
G01*
X87036000Y-64284000D01*
G75*
G02*
X86811000Y-64059000I0J225000D01*
G01*
X86811000Y-63609000D01*
G75*
G02*
X87036000Y-63384000I225000J0D01*
G01*
G37*
G36*
G01*
X87036000Y-61834000D02*
X87536000Y-61834000D01*
G75*
G02*
X87761000Y-62059000I0J-225000D01*
G01*
X87761000Y-62509000D01*
G75*
G02*
X87536000Y-62734000I-225000J0D01*
G01*
X87036000Y-62734000D01*
G75*
G02*
X86811000Y-62509000I0J225000D01*
G01*
X86811000Y-62059000D01*
G75*
G02*
X87036000Y-61834000I225000J0D01*
G01*
G37*
%TD*%
%TO.C,C14*%
G36*
G01*
X80979000Y-69527000D02*
X80979000Y-70027000D01*
G75*
G02*
X80754000Y-70252000I-225000J0D01*
G01*
X80304000Y-70252000D01*
G75*
G02*
X80079000Y-70027000I0J225000D01*
G01*
X80079000Y-69527000D01*
G75*
G02*
X80304000Y-69302000I225000J0D01*
G01*
X80754000Y-69302000D01*
G75*
G02*
X80979000Y-69527000I0J-225000D01*
G01*
G37*
G36*
G01*
X82529000Y-69527000D02*
X82529000Y-70027000D01*
G75*
G02*
X82304000Y-70252000I-225000J0D01*
G01*
X81854000Y-70252000D01*
G75*
G02*
X81629000Y-70027000I0J225000D01*
G01*
X81629000Y-69527000D01*
G75*
G02*
X81854000Y-69302000I225000J0D01*
G01*
X82304000Y-69302000D01*
G75*
G02*
X82529000Y-69527000I0J-225000D01*
G01*
G37*
%TD*%
D24*
%TO.C,GND1*%
X63537000Y-62665000D03*
%TD*%
D23*
%TO.C,Y2*%
X84930000Y-56315000D03*
X83730000Y-56315000D03*
X82530000Y-56315000D03*
%TD*%
D22*
%TO.C,U6*%
X85807000Y-62072000D03*
X85157000Y-62072000D03*
X84507000Y-62072000D03*
X83857000Y-62072000D03*
X83207000Y-62072000D03*
X82557000Y-62072000D03*
X81907000Y-62072000D03*
X81257000Y-62072000D03*
X81257000Y-67872000D03*
X81907000Y-67872000D03*
X82557000Y-67872000D03*
X83207000Y-67872000D03*
X83857000Y-67872000D03*
X84507000Y-67872000D03*
X85157000Y-67872000D03*
X85807000Y-67872000D03*
%TD*%
%TO.C,R26*%
G36*
G01*
X83368000Y-58707000D02*
X83368000Y-59257000D01*
G75*
G02*
X83168000Y-59457000I-200000J0D01*
G01*
X82768000Y-59457000D01*
G75*
G02*
X82568000Y-59257000I0J200000D01*
G01*
X82568000Y-58707000D01*
G75*
G02*
X82768000Y-58507000I200000J0D01*
G01*
X83168000Y-58507000D01*
G75*
G02*
X83368000Y-58707000I0J-200000D01*
G01*
G37*
G36*
G01*
X85018000Y-58707000D02*
X85018000Y-59257000D01*
G75*
G02*
X84818000Y-59457000I-200000J0D01*
G01*
X84418000Y-59457000D01*
G75*
G02*
X84218000Y-59257000I0J200000D01*
G01*
X84218000Y-58707000D01*
G75*
G02*
X84418000Y-58507000I200000J0D01*
G01*
X84818000Y-58507000D01*
G75*
G02*
X85018000Y-58707000I0J-200000D01*
G01*
G37*
%TD*%
%TO.C,R22*%
G36*
G01*
X85503500Y-73148001D02*
X85503500Y-72247999D01*
G75*
G02*
X85753499Y-71998000I249999J0D01*
G01*
X86278501Y-71998000D01*
G75*
G02*
X86528500Y-72247999I0J-249999D01*
G01*
X86528500Y-73148001D01*
G75*
G02*
X86278501Y-73398000I-249999J0D01*
G01*
X85753499Y-73398000D01*
G75*
G02*
X85503500Y-73148001I0J249999D01*
G01*
G37*
G36*
G01*
X83678500Y-73148001D02*
X83678500Y-72247999D01*
G75*
G02*
X83928499Y-71998000I249999J0D01*
G01*
X84453501Y-71998000D01*
G75*
G02*
X84703500Y-72247999I0J-249999D01*
G01*
X84703500Y-73148001D01*
G75*
G02*
X84453501Y-73398000I-249999J0D01*
G01*
X83928499Y-73398000D01*
G75*
G02*
X83678500Y-73148001I0J249999D01*
G01*
G37*
%TD*%
%TO.C,R17*%
G36*
G01*
X81067500Y-72247999D02*
X81067500Y-73148001D01*
G75*
G02*
X80817501Y-73398000I-249999J0D01*
G01*
X80292499Y-73398000D01*
G75*
G02*
X80042500Y-73148001I0J249999D01*
G01*
X80042500Y-72247999D01*
G75*
G02*
X80292499Y-71998000I249999J0D01*
G01*
X80817501Y-71998000D01*
G75*
G02*
X81067500Y-72247999I0J-249999D01*
G01*
G37*
G36*
G01*
X82892500Y-72247999D02*
X82892500Y-73148001D01*
G75*
G02*
X82642501Y-73398000I-249999J0D01*
G01*
X82117499Y-73398000D01*
G75*
G02*
X81867500Y-73148001I0J249999D01*
G01*
X81867500Y-72247999D01*
G75*
G02*
X82117499Y-71998000I249999J0D01*
G01*
X82642501Y-71998000D01*
G75*
G02*
X82892500Y-72247999I0J-249999D01*
G01*
G37*
%TD*%
%TO.C,R12*%
G36*
G01*
X73955500Y-74279999D02*
X73955500Y-75180001D01*
G75*
G02*
X73705501Y-75430000I-249999J0D01*
G01*
X73180499Y-75430000D01*
G75*
G02*
X72930500Y-75180001I0J249999D01*
G01*
X72930500Y-74279999D01*
G75*
G02*
X73180499Y-74030000I249999J0D01*
G01*
X73705501Y-74030000D01*
G75*
G02*
X73955500Y-74279999I0J-249999D01*
G01*
G37*
G36*
G01*
X75780500Y-74279999D02*
X75780500Y-75180001D01*
G75*
G02*
X75530501Y-75430000I-249999J0D01*
G01*
X75005499Y-75430000D01*
G75*
G02*
X74755500Y-75180001I0J249999D01*
G01*
X74755500Y-74279999D01*
G75*
G02*
X75005499Y-74030000I249999J0D01*
G01*
X75530501Y-74030000D01*
G75*
G02*
X75780500Y-74279999I0J-249999D01*
G01*
G37*
%TD*%
%TO.C,R11*%
G36*
G01*
X77511500Y-73009999D02*
X77511500Y-73910001D01*
G75*
G02*
X77261501Y-74160000I-249999J0D01*
G01*
X76736499Y-74160000D01*
G75*
G02*
X76486500Y-73910001I0J249999D01*
G01*
X76486500Y-73009999D01*
G75*
G02*
X76736499Y-72760000I249999J0D01*
G01*
X77261501Y-72760000D01*
G75*
G02*
X77511500Y-73009999I0J-249999D01*
G01*
G37*
G36*
G01*
X79336500Y-73009999D02*
X79336500Y-73910001D01*
G75*
G02*
X79086501Y-74160000I-249999J0D01*
G01*
X78561499Y-74160000D01*
G75*
G02*
X78311500Y-73910001I0J249999D01*
G01*
X78311500Y-73009999D01*
G75*
G02*
X78561499Y-72760000I249999J0D01*
G01*
X79086501Y-72760000D01*
G75*
G02*
X79336500Y-73009999I0J-249999D01*
G01*
G37*
%TD*%
%TO.C,R7*%
G36*
G01*
X92513000Y-56802000D02*
X92513000Y-57352000D01*
G75*
G02*
X92313000Y-57552000I-200000J0D01*
G01*
X91913000Y-57552000D01*
G75*
G02*
X91713000Y-57352000I0J200000D01*
G01*
X91713000Y-56802000D01*
G75*
G02*
X91913000Y-56602000I200000J0D01*
G01*
X92313000Y-56602000D01*
G75*
G02*
X92513000Y-56802000I0J-200000D01*
G01*
G37*
G36*
G01*
X94163000Y-56802000D02*
X94163000Y-57352000D01*
G75*
G02*
X93963000Y-57552000I-200000J0D01*
G01*
X93563000Y-57552000D01*
G75*
G02*
X93363000Y-57352000I0J200000D01*
G01*
X93363000Y-56802000D01*
G75*
G02*
X93563000Y-56602000I200000J0D01*
G01*
X93963000Y-56602000D01*
G75*
G02*
X94163000Y-56802000I0J-200000D01*
G01*
G37*
%TD*%
%TO.C,R3*%
G36*
G01*
X92513000Y-58326000D02*
X92513000Y-58876000D01*
G75*
G02*
X92313000Y-59076000I-200000J0D01*
G01*
X91913000Y-59076000D01*
G75*
G02*
X91713000Y-58876000I0J200000D01*
G01*
X91713000Y-58326000D01*
G75*
G02*
X91913000Y-58126000I200000J0D01*
G01*
X92313000Y-58126000D01*
G75*
G02*
X92513000Y-58326000I0J-200000D01*
G01*
G37*
G36*
G01*
X94163000Y-58326000D02*
X94163000Y-58876000D01*
G75*
G02*
X93963000Y-59076000I-200000J0D01*
G01*
X93563000Y-59076000D01*
G75*
G02*
X93363000Y-58876000I0J200000D01*
G01*
X93363000Y-58326000D01*
G75*
G02*
X93563000Y-58126000I200000J0D01*
G01*
X93963000Y-58126000D01*
G75*
G02*
X94163000Y-58326000I0J-200000D01*
G01*
G37*
%TD*%
D21*
%TO.C,Q1*%
X92686000Y-53521000D03*
X91736000Y-55521000D03*
X93636000Y-55521000D03*
%TD*%
%TO.C,C19*%
G36*
G01*
X82464000Y-53198000D02*
X82964000Y-53198000D01*
G75*
G02*
X83189000Y-53423000I0J-225000D01*
G01*
X83189000Y-53873000D01*
G75*
G02*
X82964000Y-54098000I-225000J0D01*
G01*
X82464000Y-54098000D01*
G75*
G02*
X82239000Y-53873000I0J225000D01*
G01*
X82239000Y-53423000D01*
G75*
G02*
X82464000Y-53198000I225000J0D01*
G01*
G37*
G36*
G01*
X82464000Y-51648000D02*
X82964000Y-51648000D01*
G75*
G02*
X83189000Y-51873000I0J-225000D01*
G01*
X83189000Y-52323000D01*
G75*
G02*
X82964000Y-52548000I-225000J0D01*
G01*
X82464000Y-52548000D01*
G75*
G02*
X82239000Y-52323000I0J225000D01*
G01*
X82239000Y-51873000D01*
G75*
G02*
X82464000Y-51648000I225000J0D01*
G01*
G37*
%TD*%
%TO.C,C18*%
G36*
G01*
X84496000Y-53198000D02*
X84996000Y-53198000D01*
G75*
G02*
X85221000Y-53423000I0J-225000D01*
G01*
X85221000Y-53873000D01*
G75*
G02*
X84996000Y-54098000I-225000J0D01*
G01*
X84496000Y-54098000D01*
G75*
G02*
X84271000Y-53873000I0J225000D01*
G01*
X84271000Y-53423000D01*
G75*
G02*
X84496000Y-53198000I225000J0D01*
G01*
G37*
G36*
G01*
X84496000Y-51648000D02*
X84996000Y-51648000D01*
G75*
G02*
X85221000Y-51873000I0J-225000D01*
G01*
X85221000Y-52323000D01*
G75*
G02*
X84996000Y-52548000I-225000J0D01*
G01*
X84496000Y-52548000D01*
G75*
G02*
X84271000Y-52323000I0J225000D01*
G01*
X84271000Y-51873000D01*
G75*
G02*
X84496000Y-51648000I225000J0D01*
G01*
G37*
%TD*%
%TO.C,C13*%
G36*
G01*
X84616000Y-70064000D02*
X84616000Y-71014000D01*
G75*
G02*
X84366000Y-71264000I-250000J0D01*
G01*
X83866000Y-71264000D01*
G75*
G02*
X83616000Y-71014000I0J250000D01*
G01*
X83616000Y-70064000D01*
G75*
G02*
X83866000Y-69814000I250000J0D01*
G01*
X84366000Y-69814000D01*
G75*
G02*
X84616000Y-70064000I0J-250000D01*
G01*
G37*
G36*
G01*
X86516000Y-70064000D02*
X86516000Y-71014000D01*
G75*
G02*
X86266000Y-71264000I-250000J0D01*
G01*
X85766000Y-71264000D01*
G75*
G02*
X85516000Y-71014000I0J250000D01*
G01*
X85516000Y-70064000D01*
G75*
G02*
X85766000Y-69814000I250000J0D01*
G01*
X86266000Y-69814000D01*
G75*
G02*
X86516000Y-70064000I0J-250000D01*
G01*
G37*
%TD*%
%TO.C,C8*%
G36*
G01*
X68968000Y-53437000D02*
X68468000Y-53437000D01*
G75*
G02*
X68243000Y-53212000I0J225000D01*
G01*
X68243000Y-52762000D01*
G75*
G02*
X68468000Y-52537000I225000J0D01*
G01*
X68968000Y-52537000D01*
G75*
G02*
X69193000Y-52762000I0J-225000D01*
G01*
X69193000Y-53212000D01*
G75*
G02*
X68968000Y-53437000I-225000J0D01*
G01*
G37*
G36*
G01*
X68968000Y-54987000D02*
X68468000Y-54987000D01*
G75*
G02*
X68243000Y-54762000I0J225000D01*
G01*
X68243000Y-54312000D01*
G75*
G02*
X68468000Y-54087000I225000J0D01*
G01*
X68968000Y-54087000D01*
G75*
G02*
X69193000Y-54312000I0J-225000D01*
G01*
X69193000Y-54762000D01*
G75*
G02*
X68968000Y-54987000I-225000J0D01*
G01*
G37*
%TD*%
%TO.C,C6*%
G36*
G01*
X70518000Y-53437000D02*
X70018000Y-53437000D01*
G75*
G02*
X69793000Y-53212000I0J225000D01*
G01*
X69793000Y-52762000D01*
G75*
G02*
X70018000Y-52537000I225000J0D01*
G01*
X70518000Y-52537000D01*
G75*
G02*
X70743000Y-52762000I0J-225000D01*
G01*
X70743000Y-53212000D01*
G75*
G02*
X70518000Y-53437000I-225000J0D01*
G01*
G37*
G36*
G01*
X70518000Y-54987000D02*
X70018000Y-54987000D01*
G75*
G02*
X69793000Y-54762000I0J225000D01*
G01*
X69793000Y-54312000D01*
G75*
G02*
X70018000Y-54087000I225000J0D01*
G01*
X70518000Y-54087000D01*
G75*
G02*
X70743000Y-54312000I0J-225000D01*
G01*
X70743000Y-54762000D01*
G75*
G02*
X70518000Y-54987000I-225000J0D01*
G01*
G37*
%TD*%
%TO.C,R4*%
G36*
G01*
X102419000Y-58326000D02*
X102419000Y-58876000D01*
G75*
G02*
X102219000Y-59076000I-200000J0D01*
G01*
X101819000Y-59076000D01*
G75*
G02*
X101619000Y-58876000I0J200000D01*
G01*
X101619000Y-58326000D01*
G75*
G02*
X101819000Y-58126000I200000J0D01*
G01*
X102219000Y-58126000D01*
G75*
G02*
X102419000Y-58326000I0J-200000D01*
G01*
G37*
G36*
G01*
X104069000Y-58326000D02*
X104069000Y-58876000D01*
G75*
G02*
X103869000Y-59076000I-200000J0D01*
G01*
X103469000Y-59076000D01*
G75*
G02*
X103269000Y-58876000I0J200000D01*
G01*
X103269000Y-58326000D01*
G75*
G02*
X103469000Y-58126000I200000J0D01*
G01*
X103869000Y-58126000D01*
G75*
G02*
X104069000Y-58326000I0J-200000D01*
G01*
G37*
%TD*%
%TO.C,R10*%
G36*
G01*
X102419000Y-56802000D02*
X102419000Y-57352000D01*
G75*
G02*
X102219000Y-57552000I-200000J0D01*
G01*
X101819000Y-57552000D01*
G75*
G02*
X101619000Y-57352000I0J200000D01*
G01*
X101619000Y-56802000D01*
G75*
G02*
X101819000Y-56602000I200000J0D01*
G01*
X102219000Y-56602000D01*
G75*
G02*
X102419000Y-56802000I0J-200000D01*
G01*
G37*
G36*
G01*
X104069000Y-56802000D02*
X104069000Y-57352000D01*
G75*
G02*
X103869000Y-57552000I-200000J0D01*
G01*
X103469000Y-57552000D01*
G75*
G02*
X103269000Y-57352000I0J200000D01*
G01*
X103269000Y-56802000D01*
G75*
G02*
X103469000Y-56602000I200000J0D01*
G01*
X103869000Y-56602000D01*
G75*
G02*
X104069000Y-56802000I0J-200000D01*
G01*
G37*
%TD*%
%TO.C,Q2*%
X102592000Y-53553000D03*
X101642000Y-55553000D03*
X103542000Y-55553000D03*
%TD*%
%TO.C,R14*%
G36*
G01*
X64153000Y-66496000D02*
X64153000Y-65946000D01*
G75*
G02*
X64353000Y-65746000I200000J0D01*
G01*
X64753000Y-65746000D01*
G75*
G02*
X64953000Y-65946000I0J-200000D01*
G01*
X64953000Y-66496000D01*
G75*
G02*
X64753000Y-66696000I-200000J0D01*
G01*
X64353000Y-66696000D01*
G75*
G02*
X64153000Y-66496000I0J200000D01*
G01*
G37*
G36*
G01*
X62503000Y-66496000D02*
X62503000Y-65946000D01*
G75*
G02*
X62703000Y-65746000I200000J0D01*
G01*
X63103000Y-65746000D01*
G75*
G02*
X63303000Y-65946000I0J-200000D01*
G01*
X63303000Y-66496000D01*
G75*
G02*
X63103000Y-66696000I-200000J0D01*
G01*
X62703000Y-66696000D01*
G75*
G02*
X62503000Y-66496000I0J200000D01*
G01*
G37*
%TD*%
%TO.C,D6*%
G36*
G01*
X60867750Y-65834500D02*
X61380250Y-65834500D01*
G75*
G02*
X61599000Y-66053250I0J-218750D01*
G01*
X61599000Y-66490750D01*
G75*
G02*
X61380250Y-66709500I-218750J0D01*
G01*
X60867750Y-66709500D01*
G75*
G02*
X60649000Y-66490750I0J218750D01*
G01*
X60649000Y-66053250D01*
G75*
G02*
X60867750Y-65834500I218750J0D01*
G01*
G37*
G36*
G01*
X60867750Y-64259500D02*
X61380250Y-64259500D01*
G75*
G02*
X61599000Y-64478250I0J-218750D01*
G01*
X61599000Y-64915750D01*
G75*
G02*
X61380250Y-65134500I-218750J0D01*
G01*
X60867750Y-65134500D01*
G75*
G02*
X60649000Y-64915750I0J218750D01*
G01*
X60649000Y-64478250D01*
G75*
G02*
X60867750Y-64259500I218750J0D01*
G01*
G37*
%TD*%
D27*
%TO.C,U2*%
X98716000Y-53140000D03*
X98716000Y-55680000D03*
X98716000Y-65840000D03*
D26*
X98716000Y-73460000D03*
%TD*%
D25*
%TO.C,R16*%
X103161000Y-67872000D03*
X103161000Y-70872000D03*
%TD*%
%TO.C,R15*%
X93382000Y-67872000D03*
X93382000Y-70872000D03*
%TD*%
%TO.C,D2*%
G36*
G01*
X103219000Y-52253250D02*
X103219000Y-51740750D01*
G75*
G02*
X103437750Y-51522000I218750J0D01*
G01*
X103875250Y-51522000D01*
G75*
G02*
X104094000Y-51740750I0J-218750D01*
G01*
X104094000Y-52253250D01*
G75*
G02*
X103875250Y-52472000I-218750J0D01*
G01*
X103437750Y-52472000D01*
G75*
G02*
X103219000Y-52253250I0J218750D01*
G01*
G37*
G36*
G01*
X101644000Y-52253250D02*
X101644000Y-51740750D01*
G75*
G02*
X101862750Y-51522000I218750J0D01*
G01*
X102300250Y-51522000D01*
G75*
G02*
X102519000Y-51740750I0J-218750D01*
G01*
X102519000Y-52253250D01*
G75*
G02*
X102300250Y-52472000I-218750J0D01*
G01*
X101862750Y-52472000D01*
G75*
G02*
X101644000Y-52253250I0J218750D01*
G01*
G37*
%TD*%
%TO.C,D1*%
G36*
G01*
X93313000Y-52253250D02*
X93313000Y-51740750D01*
G75*
G02*
X93531750Y-51522000I218750J0D01*
G01*
X93969250Y-51522000D01*
G75*
G02*
X94188000Y-51740750I0J-218750D01*
G01*
X94188000Y-52253250D01*
G75*
G02*
X93969250Y-52472000I-218750J0D01*
G01*
X93531750Y-52472000D01*
G75*
G02*
X93313000Y-52253250I0J218750D01*
G01*
G37*
G36*
G01*
X91738000Y-52253250D02*
X91738000Y-51740750D01*
G75*
G02*
X91956750Y-51522000I218750J0D01*
G01*
X92394250Y-51522000D01*
G75*
G02*
X92613000Y-51740750I0J-218750D01*
G01*
X92613000Y-52253250D01*
G75*
G02*
X92394250Y-52472000I-218750J0D01*
G01*
X91956750Y-52472000D01*
G75*
G02*
X91738000Y-52253250I0J218750D01*
G01*
G37*
%TD*%
%TO.C,R13*%
G36*
G01*
X64025000Y-60654000D02*
X64025000Y-60104000D01*
G75*
G02*
X64225000Y-59904000I200000J0D01*
G01*
X64625000Y-59904000D01*
G75*
G02*
X64825000Y-60104000I0J-200000D01*
G01*
X64825000Y-60654000D01*
G75*
G02*
X64625000Y-60854000I-200000J0D01*
G01*
X64225000Y-60854000D01*
G75*
G02*
X64025000Y-60654000I0J200000D01*
G01*
G37*
G36*
G01*
X62375000Y-60654000D02*
X62375000Y-60104000D01*
G75*
G02*
X62575000Y-59904000I200000J0D01*
G01*
X62975000Y-59904000D01*
G75*
G02*
X63175000Y-60104000I0J-200000D01*
G01*
X63175000Y-60654000D01*
G75*
G02*
X62975000Y-60854000I-200000J0D01*
G01*
X62575000Y-60854000D01*
G75*
G02*
X62375000Y-60654000I0J200000D01*
G01*
G37*
%TD*%
%TO.C,D5*%
G36*
G01*
X60867750Y-59941500D02*
X61380250Y-59941500D01*
G75*
G02*
X61599000Y-60160250I0J-218750D01*
G01*
X61599000Y-60597750D01*
G75*
G02*
X61380250Y-60816500I-218750J0D01*
G01*
X60867750Y-60816500D01*
G75*
G02*
X60649000Y-60597750I0J218750D01*
G01*
X60649000Y-60160250D01*
G75*
G02*
X60867750Y-59941500I218750J0D01*
G01*
G37*
G36*
G01*
X60867750Y-58366500D02*
X61380250Y-58366500D01*
G75*
G02*
X61599000Y-58585250I0J-218750D01*
G01*
X61599000Y-59022750D01*
G75*
G02*
X61380250Y-59241500I-218750J0D01*
G01*
X60867750Y-59241500D01*
G75*
G02*
X60649000Y-59022750I0J218750D01*
G01*
X60649000Y-58585250D01*
G75*
G02*
X60867750Y-58366500I218750J0D01*
G01*
G37*
%TD*%
D27*
%TO.C,U3*%
X108622000Y-53140000D03*
X108622000Y-55680000D03*
X108622000Y-65840000D03*
D26*
X108622000Y-73460000D03*
%TD*%
D13*
%TO.C,J2*%
X61251000Y-55680000D03*
X61251000Y-56950000D03*
X62521000Y-55680000D03*
X62521000Y-56950000D03*
X63791000Y-55680000D03*
D12*
X63791000Y-56950000D03*
%TD*%
D28*
%TO.C,F2*%
X107733000Y-61522000D03*
D19*
X107733000Y-69142000D03*
%TD*%
M02*
