%TF.GenerationSoftware,KiCad,Pcbnew,(5.1.10)-1*%
%TF.CreationDate,2022-01-18T18:17:05+07:00*%
%TF.ProjectId,Power_manager_v3_pnlz1x2,506f7765-725f-46d6-916e-616765725f76,rev?*%
%TF.SameCoordinates,Original*%
%TF.FileFunction,Copper,L2,Inr*%
%TF.FilePolarity,Positive*%
%FSLAX46Y46*%
G04 Gerber Fmt 4.6, Leading zero omitted, Abs format (unit mm)*
G04 Created by KiCad (PCBNEW (5.1.10)-1) date 2022-01-18 18:17:05*
%MOMM*%
%LPD*%
G01*
G04 APERTURE LIST*
%TA.AperFunction,ComponentPad*%
%ADD10R,1.000000X1.000000*%
%TD*%
%TA.AperFunction,ComponentPad*%
%ADD11O,1.000000X1.000000*%
%TD*%
%TA.AperFunction,ComponentPad*%
%ADD12R,1.900000X2.700000*%
%TD*%
%TA.AperFunction,ComponentPad*%
%ADD13O,1.700000X1.700000*%
%TD*%
%TA.AperFunction,ComponentPad*%
%ADD14O,2.400000X1.700000*%
%TD*%
%TA.AperFunction,ComponentPad*%
%ADD15R,2.400000X1.700000*%
%TD*%
%TA.AperFunction,ComponentPad*%
%ADD16R,1.600000X1.600000*%
%TD*%
%TA.AperFunction,ComponentPad*%
%ADD17C,1.600000*%
%TD*%
%TA.AperFunction,ComponentPad*%
%ADD18C,1.000000*%
%TD*%
%TA.AperFunction,ComponentPad*%
%ADD19C,2.000000*%
%TD*%
%TA.AperFunction,ComponentPad*%
%ADD20R,1.800000X1.800000*%
%TD*%
%TA.AperFunction,ComponentPad*%
%ADD21C,1.800000*%
%TD*%
%TA.AperFunction,ComponentPad*%
%ADD22O,1.600000X1.600000*%
%TD*%
%TA.AperFunction,ComponentPad*%
%ADD23C,1.500000*%
%TD*%
%TA.AperFunction,ViaPad*%
%ADD24C,0.800000*%
%TD*%
%TA.AperFunction,ViaPad*%
%ADD25C,1.200000*%
%TD*%
%TA.AperFunction,ViaPad*%
%ADD26C,1.000000*%
%TD*%
%TA.AperFunction,Conductor*%
%ADD27C,1.000000*%
%TD*%
%TA.AperFunction,Conductor*%
%ADD28C,2.000000*%
%TD*%
%TA.AperFunction,Conductor*%
%ADD29C,0.800000*%
%TD*%
%TA.AperFunction,Conductor*%
%ADD30C,0.300000*%
%TD*%
%TA.AperFunction,Conductor*%
%ADD31C,0.250000*%
%TD*%
G04 APERTURE END LIST*
D10*
%TO.N,GNDPWR*%
%TO.C,JP4*%
X87540000Y-77632000D03*
D11*
%TO.N,Net-(JP4-Pad2)*%
X87540000Y-78902000D03*
%TO.N,GNDPWR*%
X88810000Y-77632000D03*
%TO.N,/nRst*%
X88810000Y-78902000D03*
%TD*%
D12*
%TO.N,Net-(J1-Pad1)*%
%TO.C,J1*%
X66458000Y-98714000D03*
D13*
%TO.N,N/C*%
X63918000Y-99222000D03*
%TO.N,Net-(J1-Pad3)*%
X61378000Y-99222000D03*
%TD*%
D12*
%TO.N,Net-(J3-Pad1)*%
%TO.C,J3*%
X98716000Y-98714000D03*
D13*
%TO.N,N/C*%
X96176000Y-99222000D03*
%TO.N,/Load1N*%
X93636000Y-99222000D03*
%TD*%
D12*
%TO.N,Net-(J4-Pad1)*%
%TO.C,J4*%
X108622000Y-98714000D03*
D13*
%TO.N,N/C*%
X106082000Y-99222000D03*
%TO.N,/Load2N*%
X103542000Y-99222000D03*
%TD*%
D14*
%TO.N,GND1*%
%TO.C,U1*%
X66458000Y-78013000D03*
%TO.N,+5V*%
X66458000Y-80553000D03*
%TO.N,Net-(J1-Pad3)*%
X66458000Y-93253000D03*
D15*
%TO.N,Net-(J1-Pad1)*%
X66458000Y-98333000D03*
%TD*%
D16*
%TO.N,Net-(C6-Pad2)*%
%TO.C,U4*%
X72427000Y-77378000D03*
D17*
%TO.N,GND1*%
X72427000Y-79918000D03*
%TO.N,+5P*%
X72427000Y-82458000D03*
%TO.N,/+5V_state*%
X72427000Y-84998000D03*
%TO.N,Net-(JP5-Pad1)*%
X72436500Y-90078000D03*
%TO.N,GNDPWR*%
X72427000Y-92618000D03*
%TO.N,Net-(JP6-Pad1)*%
X72427000Y-95158000D03*
%TD*%
D10*
%TO.N,/+5V_state*%
%TO.C,U7*%
X66839000Y-84617000D03*
D18*
%TO.N,/I2C_Int*%
X66839000Y-85887000D03*
%TO.N,/sda0*%
X68109000Y-84617000D03*
%TO.N,/scl0*%
X68109000Y-85887000D03*
%TO.N,+5P*%
X69379000Y-84617000D03*
%TO.N,GND1*%
X69379000Y-85887000D03*
D10*
%TO.N,+3.3VP*%
X86651000Y-84617000D03*
D18*
%TO.N,GNDPWR*%
X86651000Y-85887000D03*
%TO.N,/I2C_SDA*%
X87921000Y-84617000D03*
%TO.N,/I2C_SCL*%
X87921000Y-85887000D03*
%TO.N,/+5V_valid*%
X89191000Y-84617000D03*
%TO.N,/Int*%
X89191000Y-85887000D03*
%TD*%
D19*
%TO.N,GND1*%
%TO.C,GND1*%
X63537000Y-87665000D03*
%TD*%
D20*
%TO.N,Net-(J3-Pad1)*%
%TO.C,U2*%
X98716000Y-98460000D03*
D21*
%TO.N,Net-(F1-Pad2)*%
X98716000Y-90840000D03*
%TO.N,+5VP*%
X98716000Y-80680000D03*
%TO.N,Net-(D3-Pad2)*%
X98716000Y-78140000D03*
%TD*%
D17*
%TO.N,AC*%
%TO.C,F1*%
X97700000Y-94142000D03*
D22*
%TO.N,Net-(F1-Pad2)*%
X97700000Y-86522000D03*
%TD*%
D23*
%TO.N,Net-(KP1-Pad1)*%
%TO.C,KP1*%
X74205000Y-87157000D03*
%TD*%
D10*
%TO.N,/+5V_state*%
%TO.C,J6*%
X76999000Y-81950000D03*
D11*
%TO.N,/I2C_Int*%
X76999000Y-80680000D03*
%TO.N,GND1*%
X75729000Y-81950000D03*
X75729000Y-80680000D03*
%TO.N,/scl0*%
X74459000Y-81950000D03*
%TO.N,/sda0*%
X74459000Y-80680000D03*
%TD*%
D17*
%TO.N,AC*%
%TO.C,F2*%
X107733000Y-94142000D03*
D22*
%TO.N,Net-(F2-Pad2)*%
X107733000Y-86522000D03*
%TD*%
D10*
%TO.N,+5P*%
%TO.C,J2*%
X63791000Y-81950000D03*
D11*
X63791000Y-80680000D03*
%TO.N,GND1*%
X62521000Y-81950000D03*
X62521000Y-80680000D03*
%TO.N,+5V*%
X61251000Y-81950000D03*
X61251000Y-80680000D03*
%TD*%
D20*
%TO.N,Net-(J4-Pad1)*%
%TO.C,U3*%
X108622000Y-98460000D03*
D21*
%TO.N,Net-(F2-Pad2)*%
X108622000Y-90840000D03*
%TO.N,+5VP*%
X108622000Y-80680000D03*
%TO.N,Net-(D4-Pad2)*%
X108622000Y-78140000D03*
%TD*%
D18*
%TO.N,/Int*%
%TO.C,U7*%
X89191000Y-60887000D03*
%TO.N,/+5V_valid*%
X89191000Y-59617000D03*
%TO.N,/I2C_SCL*%
X87921000Y-60887000D03*
%TO.N,/I2C_SDA*%
X87921000Y-59617000D03*
%TO.N,GNDPWR*%
X86651000Y-60887000D03*
D10*
%TO.N,+3.3VP*%
X86651000Y-59617000D03*
D18*
%TO.N,GND1*%
X69379000Y-60887000D03*
%TO.N,+5P*%
X69379000Y-59617000D03*
%TO.N,/scl0*%
X68109000Y-60887000D03*
%TO.N,/sda0*%
X68109000Y-59617000D03*
%TO.N,/I2C_Int*%
X66839000Y-60887000D03*
D10*
%TO.N,/+5V_state*%
X66839000Y-59617000D03*
%TD*%
D17*
%TO.N,Net-(JP6-Pad1)*%
%TO.C,U4*%
X72427000Y-70158000D03*
%TO.N,GNDPWR*%
X72427000Y-67618000D03*
%TO.N,Net-(JP5-Pad1)*%
X72436500Y-65078000D03*
%TO.N,/+5V_state*%
X72427000Y-59998000D03*
%TO.N,+5P*%
X72427000Y-57458000D03*
%TO.N,GND1*%
X72427000Y-54918000D03*
D16*
%TO.N,Net-(C6-Pad2)*%
X72427000Y-52378000D03*
%TD*%
D15*
%TO.N,Net-(J1-Pad1)*%
%TO.C,U1*%
X66458000Y-73333000D03*
D14*
%TO.N,Net-(J1-Pad3)*%
X66458000Y-68253000D03*
%TO.N,+5V*%
X66458000Y-55553000D03*
%TO.N,GND1*%
X66458000Y-53013000D03*
%TD*%
D13*
%TO.N,/Load2N*%
%TO.C,J4*%
X103542000Y-74222000D03*
%TO.N,N/C*%
X106082000Y-74222000D03*
D12*
%TO.N,Net-(J4-Pad1)*%
X108622000Y-73714000D03*
%TD*%
D13*
%TO.N,/Load1N*%
%TO.C,J3*%
X93636000Y-74222000D03*
%TO.N,N/C*%
X96176000Y-74222000D03*
D12*
%TO.N,Net-(J3-Pad1)*%
X98716000Y-73714000D03*
%TD*%
D13*
%TO.N,Net-(J1-Pad3)*%
%TO.C,J1*%
X61378000Y-74222000D03*
%TO.N,N/C*%
X63918000Y-74222000D03*
D12*
%TO.N,Net-(J1-Pad1)*%
X66458000Y-73714000D03*
%TD*%
D11*
%TO.N,/nRst*%
%TO.C,JP4*%
X88810000Y-53902000D03*
%TO.N,GNDPWR*%
X88810000Y-52632000D03*
%TO.N,Net-(JP4-Pad2)*%
X87540000Y-53902000D03*
D10*
%TO.N,GNDPWR*%
X87540000Y-52632000D03*
%TD*%
D11*
%TO.N,/sda0*%
%TO.C,J6*%
X74459000Y-55680000D03*
%TO.N,/scl0*%
X74459000Y-56950000D03*
%TO.N,GND1*%
X75729000Y-55680000D03*
X75729000Y-56950000D03*
%TO.N,/I2C_Int*%
X76999000Y-55680000D03*
D10*
%TO.N,/+5V_state*%
X76999000Y-56950000D03*
%TD*%
D23*
%TO.N,Net-(KP1-Pad1)*%
%TO.C,KP1*%
X74205000Y-62157000D03*
%TD*%
D22*
%TO.N,Net-(F1-Pad2)*%
%TO.C,F1*%
X97700000Y-61522000D03*
D17*
%TO.N,AC*%
X97700000Y-69142000D03*
%TD*%
D19*
%TO.N,GND1*%
%TO.C,GND1*%
X63537000Y-62665000D03*
%TD*%
D21*
%TO.N,Net-(D3-Pad2)*%
%TO.C,U2*%
X98716000Y-53140000D03*
%TO.N,+5VP*%
X98716000Y-55680000D03*
%TO.N,Net-(F1-Pad2)*%
X98716000Y-65840000D03*
D20*
%TO.N,Net-(J3-Pad1)*%
X98716000Y-73460000D03*
%TD*%
D21*
%TO.N,Net-(D4-Pad2)*%
%TO.C,U3*%
X108622000Y-53140000D03*
%TO.N,+5VP*%
X108622000Y-55680000D03*
%TO.N,Net-(F2-Pad2)*%
X108622000Y-65840000D03*
D20*
%TO.N,Net-(J4-Pad1)*%
X108622000Y-73460000D03*
%TD*%
D11*
%TO.N,+5V*%
%TO.C,J2*%
X61251000Y-55680000D03*
X61251000Y-56950000D03*
%TO.N,GND1*%
X62521000Y-55680000D03*
X62521000Y-56950000D03*
%TO.N,+5P*%
X63791000Y-55680000D03*
D10*
X63791000Y-56950000D03*
%TD*%
D22*
%TO.N,Net-(F2-Pad2)*%
%TO.C,F2*%
X107733000Y-61522000D03*
D17*
%TO.N,AC*%
X107733000Y-69142000D03*
%TD*%
D24*
%TO.N,GNDPWR*%
X102018000Y-57077000D03*
D25*
X103669000Y-67110000D03*
X93763000Y-67110000D03*
D24*
X80174000Y-52505000D03*
X92112000Y-57077000D03*
X83730000Y-52505000D03*
X103589000Y-63681000D03*
X93683000Y-63681000D03*
X61124000Y-64697000D03*
X85960945Y-71063065D03*
X82057425Y-69755425D03*
X75729000Y-60125022D03*
X78978402Y-69274063D03*
X61124000Y-89697000D03*
X85960945Y-96063065D03*
X82057425Y-94755425D03*
X75729000Y-85125022D03*
X78978402Y-94274063D03*
X102018000Y-82077000D03*
D25*
X103669000Y-92110000D03*
X93763000Y-92110000D03*
D24*
X80174000Y-77505000D03*
X92112000Y-82077000D03*
X83730000Y-77505000D03*
X103589000Y-88681000D03*
X93683000Y-88681000D03*
D25*
%TO.N,+5VP*%
X74332000Y-66729000D03*
X74332000Y-91729000D03*
%TO.N,AC*%
X71919000Y-74730000D03*
X71919000Y-99730000D03*
%TO.N,+3.3VP*%
X76257678Y-70260868D03*
D24*
X87286000Y-63834000D03*
X79412000Y-70285000D03*
D26*
X84287627Y-69071744D03*
D24*
X89064000Y-57712000D03*
D25*
X76257678Y-95260868D03*
D24*
X87286000Y-88834000D03*
X79412000Y-95285000D03*
D26*
X84287627Y-94071744D03*
D24*
X89064000Y-82712000D03*
%TO.N,Net-(C9-Pad2)*%
X88571824Y-68141826D03*
X88571824Y-93141826D03*
%TO.N,Net-(C10-Pad1)*%
X91863013Y-65712998D03*
X91863013Y-90712998D03*
%TO.N,Net-(C11-Pad2)*%
X95282337Y-66352659D03*
X95282337Y-91352659D03*
%TO.N,Net-(C12-Pad1)*%
X101764000Y-65713000D03*
X101764000Y-90713000D03*
%TO.N,/L1_o1_nEn*%
X92112000Y-58601000D03*
X77888000Y-63500679D03*
X92112000Y-83601000D03*
X77888000Y-88500679D03*
%TO.N,/L1_o2_nEn*%
X78777000Y-60760000D03*
X95160000Y-58473998D03*
X78777000Y-85760000D03*
X95160000Y-83473998D03*
%TO.N,/SPI_MOSI*%
X76361034Y-64840237D03*
X76361034Y-89840237D03*
%TO.N,/SPI_MISO*%
X76764927Y-66528876D03*
X76764927Y-91528876D03*
%TO.N,/SPI_SCLK*%
X75960803Y-65882612D03*
X75960803Y-90882612D03*
%TO.N,/SPI_SSEL*%
X79936969Y-64973799D03*
X79936969Y-89973799D03*
%TO.N,/Int*%
X85662621Y-63172012D03*
X78899241Y-63490007D03*
X85662621Y-88172012D03*
X78899241Y-88490007D03*
%TO.N,Net-(C1-Pad1)*%
X92683500Y-53521000D03*
X92683500Y-78521000D03*
%TO.N,Net-(C2-Pad1)*%
X102589500Y-53559100D03*
X102589500Y-78559100D03*
%TO.N,Net-(D1-Pad1)*%
X92175500Y-51997000D03*
X92175500Y-76997000D03*
%TO.N,Net-(D2-Pad1)*%
X102081500Y-51997000D03*
X102081500Y-76997000D03*
%TO.N,+5V*%
X64425000Y-60379000D03*
X64425000Y-85379000D03*
%TO.N,Net-(C17-Pad2)*%
X78062000Y-70285000D03*
X77279000Y-60125020D03*
X78062000Y-95285000D03*
X77279000Y-85125020D03*
%TO.N,Net-(R27-Pad2)*%
X82737978Y-65373021D03*
X92096675Y-61632675D03*
X82737978Y-90373021D03*
X92096675Y-86632675D03*
%TO.N,/I2C_SDA*%
X81069875Y-66454535D03*
X81069875Y-91454535D03*
%TO.N,/I2C_SCL*%
X84024357Y-63311990D03*
X80030639Y-66502033D03*
X84024357Y-88311990D03*
X80030639Y-91502033D03*
%TO.N,/+5V_valid*%
X78777002Y-66475002D03*
X78777002Y-91475002D03*
%TD*%
D27*
%TO.N,+5VP*%
X107860000Y-54918000D02*
X108622000Y-55680000D01*
X99478000Y-54918000D02*
X107860000Y-54918000D01*
X98716000Y-55680000D02*
X99478000Y-54918000D01*
X98716000Y-56952792D02*
X98716000Y-55680000D01*
X92876792Y-62792000D02*
X98716000Y-56952792D01*
X92366000Y-62792000D02*
X92876792Y-62792000D01*
X87291991Y-67866009D02*
X92366000Y-62792000D01*
X75469009Y-67866009D02*
X87291991Y-67866009D01*
X74332000Y-66729000D02*
X75469009Y-67866009D01*
X107860000Y-54918000D02*
X108622000Y-55680000D01*
X99478000Y-54918000D02*
X107860000Y-54918000D01*
X98716000Y-55680000D02*
X99478000Y-54918000D01*
X98716000Y-56952792D02*
X98716000Y-55680000D01*
X92876792Y-62792000D02*
X98716000Y-56952792D01*
X92366000Y-62792000D02*
X92876792Y-62792000D01*
X87291991Y-67866009D02*
X92366000Y-62792000D01*
X75469009Y-67866009D02*
X87291991Y-67866009D01*
X74332000Y-66729000D02*
X75469009Y-67866009D01*
X107860000Y-79918000D02*
X108622000Y-80680000D01*
X99478000Y-79918000D02*
X107860000Y-79918000D01*
X98716000Y-80680000D02*
X99478000Y-79918000D01*
X98716000Y-81952792D02*
X98716000Y-80680000D01*
X92876792Y-87792000D02*
X98716000Y-81952792D01*
X92366000Y-87792000D02*
X92876792Y-87792000D01*
X87291991Y-92866009D02*
X92366000Y-87792000D01*
X75469009Y-92866009D02*
X87291991Y-92866009D01*
X74332000Y-91729000D02*
X75469009Y-92866009D01*
D28*
%TO.N,Net-(F1-Pad2)*%
X97700000Y-64824000D02*
X98716000Y-65840000D01*
X97700000Y-61522000D02*
X97700000Y-64824000D01*
X97700000Y-64824000D02*
X98716000Y-65840000D01*
X97700000Y-61522000D02*
X97700000Y-64824000D01*
X97700000Y-89824000D02*
X98716000Y-90840000D01*
X97700000Y-86522000D02*
X97700000Y-89824000D01*
%TO.N,AC*%
X107225000Y-69650000D02*
X107733000Y-69142000D01*
X98208000Y-69650000D02*
X107225000Y-69650000D01*
X97700000Y-69142000D02*
X98208000Y-69650000D01*
X97192000Y-69650000D02*
X97700000Y-69142000D01*
X92747000Y-69650000D02*
X97192000Y-69650000D01*
X87667000Y-74730000D02*
X92747000Y-69650000D01*
X71919000Y-74730000D02*
X87667000Y-74730000D01*
X107225000Y-69650000D02*
X107733000Y-69142000D01*
X98208000Y-69650000D02*
X107225000Y-69650000D01*
X97700000Y-69142000D02*
X98208000Y-69650000D01*
X97192000Y-69650000D02*
X97700000Y-69142000D01*
X92747000Y-69650000D02*
X97192000Y-69650000D01*
X87667000Y-74730000D02*
X92747000Y-69650000D01*
X71919000Y-74730000D02*
X87667000Y-74730000D01*
X107225000Y-94650000D02*
X107733000Y-94142000D01*
X98208000Y-94650000D02*
X107225000Y-94650000D01*
X97700000Y-94142000D02*
X98208000Y-94650000D01*
X97192000Y-94650000D02*
X97700000Y-94142000D01*
X92747000Y-94650000D02*
X97192000Y-94650000D01*
X87667000Y-99730000D02*
X92747000Y-94650000D01*
X71919000Y-99730000D02*
X87667000Y-99730000D01*
%TO.N,Net-(F2-Pad2)*%
X107733000Y-64951000D02*
X108622000Y-65840000D01*
X107733000Y-61522000D02*
X107733000Y-64951000D01*
X107733000Y-64951000D02*
X108622000Y-65840000D01*
X107733000Y-61522000D02*
X107733000Y-64951000D01*
X107733000Y-89951000D02*
X108622000Y-90840000D01*
X107733000Y-86522000D02*
X107733000Y-89951000D01*
D27*
%TO.N,+3.3VP*%
X76257678Y-70260868D02*
X77551810Y-71555000D01*
X79412000Y-71428000D02*
X79539000Y-71555000D01*
X79412000Y-70285000D02*
X79412000Y-71428000D01*
X77551810Y-71555000D02*
X79539000Y-71555000D01*
X84287627Y-69080874D02*
X84287627Y-69071744D01*
X79539000Y-71555000D02*
X81813501Y-71555000D01*
X81813501Y-71555000D02*
X84287627Y-69080874D01*
D29*
X86651000Y-59617000D02*
X86292998Y-59617000D01*
X85550999Y-61580388D02*
X87286000Y-63315389D01*
X85550999Y-60358999D02*
X85550999Y-61580388D01*
X87286000Y-63315389D02*
X87286000Y-63834000D01*
X86292998Y-59617000D02*
X85550999Y-60358999D01*
D27*
X76257678Y-70260868D02*
X77551810Y-71555000D01*
X79412000Y-71428000D02*
X79539000Y-71555000D01*
X79412000Y-70285000D02*
X79412000Y-71428000D01*
X77551810Y-71555000D02*
X79539000Y-71555000D01*
X84287627Y-69080874D02*
X84287627Y-69071744D01*
X79539000Y-71555000D02*
X81813501Y-71555000D01*
X81813501Y-71555000D02*
X84287627Y-69080874D01*
D29*
X86651000Y-59617000D02*
X86292998Y-59617000D01*
X85550999Y-61580388D02*
X87286000Y-63315389D01*
X85550999Y-60358999D02*
X85550999Y-61580388D01*
X87286000Y-63315389D02*
X87286000Y-63834000D01*
X86292998Y-59617000D02*
X85550999Y-60358999D01*
D27*
X77551810Y-96555000D02*
X79539000Y-96555000D01*
X84287627Y-94080874D02*
X84287627Y-94071744D01*
X79539000Y-96555000D02*
X81813501Y-96555000D01*
X81813501Y-96555000D02*
X84287627Y-94080874D01*
D29*
X86651000Y-84617000D02*
X86292998Y-84617000D01*
X85550999Y-86580388D02*
X87286000Y-88315389D01*
X85550999Y-85358999D02*
X85550999Y-86580388D01*
X87286000Y-88315389D02*
X87286000Y-88834000D01*
X86292998Y-84617000D02*
X85550999Y-85358999D01*
D27*
X76257678Y-95260868D02*
X77551810Y-96555000D01*
X79412000Y-96428000D02*
X79539000Y-96555000D01*
X79412000Y-95285000D02*
X79412000Y-96428000D01*
D30*
%TO.N,/L1_o2_nEn*%
X94282997Y-59351001D02*
X95160000Y-58473998D01*
X90275000Y-59351001D02*
X94282997Y-59351001D01*
X89651999Y-58728000D02*
X90275000Y-59351001D01*
X85952500Y-58728000D02*
X89651999Y-58728000D01*
X83920500Y-60760000D02*
X85952500Y-58728000D01*
X78777000Y-60760000D02*
X83920500Y-60760000D01*
X94282997Y-59351001D02*
X95160000Y-58473998D01*
X90275000Y-59351001D02*
X94282997Y-59351001D01*
X89651999Y-58728000D02*
X90275000Y-59351001D01*
X85952500Y-58728000D02*
X89651999Y-58728000D01*
X83920500Y-60760000D02*
X85952500Y-58728000D01*
X78777000Y-60760000D02*
X83920500Y-60760000D01*
X94282997Y-84351001D02*
X95160000Y-83473998D01*
X90275000Y-84351001D02*
X94282997Y-84351001D01*
X89651999Y-83728000D02*
X90275000Y-84351001D01*
X85952500Y-83728000D02*
X89651999Y-83728000D01*
X83920500Y-85760000D02*
X85952500Y-83728000D01*
X78777000Y-85760000D02*
X83920500Y-85760000D01*
D31*
%TO.N,/+5V_valid*%
X79553199Y-65698805D02*
X78777002Y-66475002D01*
X80696195Y-65698805D02*
X79553199Y-65698805D01*
X81746989Y-64648011D02*
X80696195Y-65698805D01*
X90016001Y-62347999D02*
X87715989Y-64648011D01*
X87715989Y-64648011D02*
X81746989Y-64648011D01*
X90016001Y-60442001D02*
X90016001Y-62347999D01*
X89191000Y-59617000D02*
X90016001Y-60442001D01*
X79553199Y-65698805D02*
X78777002Y-66475002D01*
X80696195Y-65698805D02*
X79553199Y-65698805D01*
X81746989Y-64648011D02*
X80696195Y-65698805D01*
X90016001Y-62347999D02*
X87715989Y-64648011D01*
X87715989Y-64648011D02*
X81746989Y-64648011D01*
X90016001Y-60442001D02*
X90016001Y-62347999D01*
X89191000Y-59617000D02*
X90016001Y-60442001D01*
X79553199Y-90698805D02*
X78777002Y-91475002D01*
X80696195Y-90698805D02*
X79553199Y-90698805D01*
X81746989Y-89648011D02*
X80696195Y-90698805D01*
X90016001Y-87347999D02*
X87715989Y-89648011D01*
X87715989Y-89648011D02*
X81746989Y-89648011D01*
X90016001Y-85442001D02*
X90016001Y-87347999D01*
X89191000Y-84617000D02*
X90016001Y-85442001D01*
%TD*%
M02*
