%TF.GenerationSoftware,KiCad,Pcbnew,(5.1.10)-1*%
%TF.CreationDate,2022-01-17T18:44:23+07:00*%
%TF.ProjectId,Power_manager_v3_pnlz1x2,506f7765-725f-46d6-916e-616765725f76,rev?*%
%TF.SameCoordinates,Original*%
%TF.FileFunction,Legend,Bot*%
%TF.FilePolarity,Positive*%
%FSLAX46Y46*%
G04 Gerber Fmt 4.6, Leading zero omitted, Abs format (unit mm)*
G04 Created by KiCad (PCBNEW (5.1.10)-1) date 2022-01-17 18:44:23*
%MOMM*%
%LPD*%
G01*
G04 APERTURE LIST*
%ADD10C,0.150000*%
%ADD11C,0.120000*%
%ADD12R,0.800000X0.900000*%
%ADD13C,1.600000*%
%ADD14O,1.600000X1.600000*%
%ADD15C,1.500000*%
%ADD16R,1.000000X1.000000*%
%ADD17O,1.000000X1.000000*%
%ADD18R,1.900000X2.700000*%
%ADD19O,1.700000X1.700000*%
%ADD20O,2.400000X1.700000*%
%ADD21R,2.400000X1.700000*%
%ADD22R,1.600000X1.600000*%
%ADD23C,1.000000*%
%ADD24R,1.800000X1.800000*%
%ADD25C,1.800000*%
%ADD26R,0.400000X1.000000*%
%ADD27R,0.400000X3.200000*%
%ADD28C,2.000000*%
%ADD29R,1.800000X1.500000*%
G04 APERTURE END LIST*
D10*
X87941428Y-108142000D02*
X87941428Y-108903904D01*
X88322380Y-108522952D02*
X87560476Y-108522952D01*
X87322380Y-109284857D02*
X87322380Y-109903904D01*
X87703333Y-109570571D01*
X87703333Y-109713428D01*
X87750952Y-109808666D01*
X87798571Y-109856285D01*
X87893809Y-109903904D01*
X88131904Y-109903904D01*
X88227142Y-109856285D01*
X88274761Y-109808666D01*
X88322380Y-109713428D01*
X88322380Y-109427714D01*
X88274761Y-109332476D01*
X88227142Y-109284857D01*
X88227142Y-110332476D02*
X88274761Y-110380095D01*
X88322380Y-110332476D01*
X88274761Y-110284857D01*
X88227142Y-110332476D01*
X88322380Y-110332476D01*
X87322380Y-110713428D02*
X87322380Y-111332476D01*
X87703333Y-110999142D01*
X87703333Y-111142000D01*
X87750952Y-111237238D01*
X87798571Y-111284857D01*
X87893809Y-111332476D01*
X88131904Y-111332476D01*
X88227142Y-111284857D01*
X88274761Y-111237238D01*
X88322380Y-111142000D01*
X88322380Y-110856285D01*
X88274761Y-110761047D01*
X88227142Y-110713428D01*
X87322380Y-111618190D02*
X88322380Y-111951523D01*
X87322380Y-112284857D01*
X87941428Y-102125285D02*
X87941428Y-102887190D01*
X88322380Y-102506238D02*
X87560476Y-102506238D01*
X87322380Y-103839571D02*
X87322380Y-103363380D01*
X87798571Y-103315761D01*
X87750952Y-103363380D01*
X87703333Y-103458619D01*
X87703333Y-103696714D01*
X87750952Y-103791952D01*
X87798571Y-103839571D01*
X87893809Y-103887190D01*
X88131904Y-103887190D01*
X88227142Y-103839571D01*
X88274761Y-103791952D01*
X88322380Y-103696714D01*
X88322380Y-103458619D01*
X88274761Y-103363380D01*
X88227142Y-103315761D01*
X87322380Y-104172904D02*
X88322380Y-104506238D01*
X87322380Y-104839571D01*
X87941428Y-83142000D02*
X87941428Y-83903904D01*
X88322380Y-83522952D02*
X87560476Y-83522952D01*
X87322380Y-84284857D02*
X87322380Y-84903904D01*
X87703333Y-84570571D01*
X87703333Y-84713428D01*
X87750952Y-84808666D01*
X87798571Y-84856285D01*
X87893809Y-84903904D01*
X88131904Y-84903904D01*
X88227142Y-84856285D01*
X88274761Y-84808666D01*
X88322380Y-84713428D01*
X88322380Y-84427714D01*
X88274761Y-84332476D01*
X88227142Y-84284857D01*
X88227142Y-85332476D02*
X88274761Y-85380095D01*
X88322380Y-85332476D01*
X88274761Y-85284857D01*
X88227142Y-85332476D01*
X88322380Y-85332476D01*
X87322380Y-85713428D02*
X87322380Y-86332476D01*
X87703333Y-85999142D01*
X87703333Y-86142000D01*
X87750952Y-86237238D01*
X87798571Y-86284857D01*
X87893809Y-86332476D01*
X88131904Y-86332476D01*
X88227142Y-86284857D01*
X88274761Y-86237238D01*
X88322380Y-86142000D01*
X88322380Y-85856285D01*
X88274761Y-85761047D01*
X88227142Y-85713428D01*
X87322380Y-86618190D02*
X88322380Y-86951523D01*
X87322380Y-87284857D01*
X87941428Y-77125285D02*
X87941428Y-77887190D01*
X88322380Y-77506238D02*
X87560476Y-77506238D01*
X87322380Y-78839571D02*
X87322380Y-78363380D01*
X87798571Y-78315761D01*
X87750952Y-78363380D01*
X87703333Y-78458619D01*
X87703333Y-78696714D01*
X87750952Y-78791952D01*
X87798571Y-78839571D01*
X87893809Y-78887190D01*
X88131904Y-78887190D01*
X88227142Y-78839571D01*
X88274761Y-78791952D01*
X88322380Y-78696714D01*
X88322380Y-78458619D01*
X88274761Y-78363380D01*
X88227142Y-78315761D01*
X87322380Y-79172904D02*
X88322380Y-79506238D01*
X87322380Y-79839571D01*
D11*
%TO.C,C14*%
X108444580Y-110267000D02*
X108163420Y-110267000D01*
X108444580Y-111287000D02*
X108163420Y-111287000D01*
%TO.C,C16*%
X113776000Y-103918420D02*
X113776000Y-104199580D01*
X114796000Y-103918420D02*
X114796000Y-104199580D01*
%TO.C,R14*%
X90490742Y-106698500D02*
X90965258Y-106698500D01*
X90490742Y-107743500D02*
X90965258Y-107743500D01*
%TO.C,Q2*%
X128012000Y-94793000D02*
X128012000Y-96253000D01*
X131172000Y-94793000D02*
X131172000Y-96953000D01*
X131172000Y-94793000D02*
X130242000Y-94793000D01*
X128012000Y-94793000D02*
X128942000Y-94793000D01*
%TO.C,R10*%
X130081258Y-98599500D02*
X129606742Y-98599500D01*
X130081258Y-97554500D02*
X129606742Y-97554500D01*
%TO.C,R4*%
X130081258Y-100123500D02*
X129606742Y-100123500D01*
X130081258Y-99078500D02*
X129606742Y-99078500D01*
%TO.C,C19*%
X110224000Y-93732420D02*
X110224000Y-94013580D01*
X109204000Y-93732420D02*
X109204000Y-94013580D01*
%TO.C,L1*%
X103922436Y-112020000D02*
X104376564Y-112020000D01*
X103922436Y-110550000D02*
X104376564Y-110550000D01*
%TO.C,R27*%
X118589500Y-101585742D02*
X118589500Y-102060258D01*
X119634500Y-101585742D02*
X119634500Y-102060258D01*
%TO.C,JP4*%
X116505000Y-92502000D02*
X116505000Y-93324470D01*
X116505000Y-95209530D02*
X116505000Y-96032000D01*
X116505000Y-93939530D02*
X116505000Y-94594470D01*
X115300000Y-92502000D02*
X116505000Y-92502000D01*
X113845000Y-96032000D02*
X116505000Y-96032000D01*
X115300000Y-92502000D02*
X115300000Y-93068529D01*
X115300000Y-94195471D02*
X115300000Y-94338529D01*
X115246529Y-94392000D02*
X115103471Y-94392000D01*
X113976529Y-94392000D02*
X113845000Y-94392000D01*
X113845000Y-94392000D02*
X113845000Y-94594470D01*
X113845000Y-95209530D02*
X113845000Y-96032000D01*
X114540000Y-92502000D02*
X113780000Y-92502000D01*
X113780000Y-92502000D02*
X113780000Y-93632000D01*
%TO.C,U1*%
X101208000Y-115543000D02*
X101208000Y-92043000D01*
X101208000Y-92043000D02*
X87708000Y-92043000D01*
X87708000Y-115543000D02*
X101208000Y-115543000D01*
X88708000Y-115543000D02*
X88708000Y-92043000D01*
X87708000Y-115543000D02*
X87708000Y-92043000D01*
%TO.C,U4*%
X105100500Y-92030000D02*
X105100500Y-113530000D01*
X115311500Y-113530000D02*
X98039500Y-113530000D01*
X103500500Y-92030000D02*
X103500500Y-113530000D01*
X115311500Y-92030000D02*
X98039500Y-92030000D01*
X115311500Y-92030000D02*
X115311500Y-113530000D01*
X98039500Y-92030000D02*
X98039500Y-113530000D01*
%TO.C,U3*%
X136972000Y-92050000D02*
X136972000Y-116550000D01*
X136972000Y-92050000D02*
X131472000Y-92050000D01*
X131472000Y-92050000D02*
X131472000Y-116550000D01*
X136972000Y-116550000D02*
X131472000Y-116550000D01*
%TO.C,D5*%
X88859000Y-99106500D02*
X88859000Y-101391500D01*
X87389000Y-99106500D02*
X88859000Y-99106500D01*
X87389000Y-101391500D02*
X87389000Y-99106500D01*
%TO.C,R13*%
X90362742Y-100856500D02*
X90837258Y-100856500D01*
X90362742Y-101901500D02*
X90837258Y-101901500D01*
%TO.C,D1*%
X118478000Y-92262000D02*
X120763000Y-92262000D01*
X118478000Y-93732000D02*
X118478000Y-92262000D01*
X120763000Y-93732000D02*
X118478000Y-93732000D01*
%TO.C,D2*%
X128384000Y-92262000D02*
X130669000Y-92262000D01*
X128384000Y-93732000D02*
X128384000Y-92262000D01*
X130669000Y-93732000D02*
X128384000Y-93732000D01*
%TO.C,R12*%
X101582564Y-116465000D02*
X101128436Y-116465000D01*
X101582564Y-114995000D02*
X101128436Y-114995000D01*
%TO.C,R17*%
X108694564Y-114433000D02*
X108240436Y-114433000D01*
X108694564Y-112963000D02*
X108240436Y-112963000D01*
%TO.C,R22*%
X111876436Y-112963000D02*
X112330564Y-112963000D01*
X111876436Y-114433000D02*
X112330564Y-114433000D01*
%TO.C,R26*%
X111030258Y-100504500D02*
X110555742Y-100504500D01*
X111030258Y-99459500D02*
X110555742Y-99459500D01*
D10*
%TO.C,U6*%
X107807000Y-108297000D02*
X107807000Y-103647000D01*
X113332000Y-109372000D02*
X113332000Y-103672000D01*
X107807000Y-108297000D02*
X107832000Y-108297000D01*
X107807000Y-103647000D02*
X107832000Y-103647000D01*
X113332000Y-103672000D02*
X113232000Y-103672000D01*
D11*
%TO.C,Y2*%
X112530000Y-98515000D02*
X112380000Y-98515000D01*
X112530000Y-96115000D02*
X112380000Y-96115000D01*
X109980000Y-96115000D02*
X109930000Y-96115000D01*
X108930000Y-96115000D02*
X109080000Y-96115000D01*
X108930000Y-98515000D02*
X109080000Y-98515000D01*
X108730000Y-96515000D02*
X108730000Y-96115000D01*
X108930000Y-96515000D02*
X108930000Y-96115000D01*
X112530000Y-96515000D02*
X112530000Y-96115000D01*
X108730000Y-98515000D02*
X108730000Y-96515000D01*
X109980000Y-96115000D02*
X109980000Y-95715000D01*
X108930000Y-96515000D02*
X108930000Y-98515000D01*
X112530000Y-98515000D02*
X112530000Y-96515000D01*
%TO.C,GND1*%
X91737000Y-103665000D02*
G75*
G03*
X91737000Y-103665000I-1200000J0D01*
G01*
%TO.C,C6*%
X96758000Y-94902580D02*
X96758000Y-94621420D01*
X97778000Y-94902580D02*
X97778000Y-94621420D01*
%TO.C,C8*%
X95208000Y-94902580D02*
X95208000Y-94621420D01*
X96228000Y-94902580D02*
X96228000Y-94621420D01*
%TO.C,C13*%
X112327252Y-112274000D02*
X111804748Y-112274000D01*
X112327252Y-110804000D02*
X111804748Y-110804000D01*
%TO.C,C18*%
X112256000Y-93732420D02*
X112256000Y-94013580D01*
X111236000Y-93732420D02*
X111236000Y-94013580D01*
%TO.C,R15*%
X121232000Y-110972000D02*
X121232000Y-109772000D01*
X119532000Y-109772000D02*
X119532000Y-110972000D01*
%TO.C,Q1*%
X118106000Y-94761000D02*
X118106000Y-96221000D01*
X121266000Y-94761000D02*
X121266000Y-96921000D01*
X121266000Y-94761000D02*
X120336000Y-94761000D01*
X118106000Y-94761000D02*
X119036000Y-94761000D01*
%TO.C,R3*%
X120175258Y-100123500D02*
X119700742Y-100123500D01*
X120175258Y-99078500D02*
X119700742Y-99078500D01*
%TO.C,R7*%
X120175258Y-98599500D02*
X119700742Y-98599500D01*
X120175258Y-97554500D02*
X119700742Y-97554500D01*
%TO.C,R11*%
X105138564Y-115195000D02*
X104684436Y-115195000D01*
X105138564Y-113725000D02*
X104684436Y-113725000D01*
%TO.C,U2*%
X127066000Y-92050000D02*
X127066000Y-116550000D01*
X127066000Y-92050000D02*
X121566000Y-92050000D01*
X121566000Y-92050000D02*
X121566000Y-116550000D01*
X127066000Y-116550000D02*
X121566000Y-116550000D01*
%TO.C,D6*%
X88859000Y-104999500D02*
X88859000Y-107284500D01*
X87389000Y-104999500D02*
X88859000Y-104999500D01*
X87389000Y-107284500D02*
X87389000Y-104999500D01*
%TO.C,R16*%
X131011000Y-110972000D02*
X131011000Y-109772000D01*
X129311000Y-109772000D02*
X129311000Y-110972000D01*
%TO.C,U4*%
X98039500Y-67030000D02*
X98039500Y-88530000D01*
X115311500Y-67030000D02*
X115311500Y-88530000D01*
X115311500Y-67030000D02*
X98039500Y-67030000D01*
X103500500Y-67030000D02*
X103500500Y-88530000D01*
X115311500Y-88530000D02*
X98039500Y-88530000D01*
X105100500Y-67030000D02*
X105100500Y-88530000D01*
%TO.C,U1*%
X87708000Y-90543000D02*
X87708000Y-67043000D01*
X88708000Y-90543000D02*
X88708000Y-67043000D01*
X87708000Y-90543000D02*
X101208000Y-90543000D01*
X101208000Y-67043000D02*
X87708000Y-67043000D01*
X101208000Y-90543000D02*
X101208000Y-67043000D01*
%TO.C,JP4*%
X113780000Y-67502000D02*
X113780000Y-68632000D01*
X114540000Y-67502000D02*
X113780000Y-67502000D01*
X113845000Y-70209530D02*
X113845000Y-71032000D01*
X113845000Y-69392000D02*
X113845000Y-69594470D01*
X113976529Y-69392000D02*
X113845000Y-69392000D01*
X115246529Y-69392000D02*
X115103471Y-69392000D01*
X115300000Y-69195471D02*
X115300000Y-69338529D01*
X115300000Y-67502000D02*
X115300000Y-68068529D01*
X113845000Y-71032000D02*
X116505000Y-71032000D01*
X115300000Y-67502000D02*
X116505000Y-67502000D01*
X116505000Y-68939530D02*
X116505000Y-69594470D01*
X116505000Y-70209530D02*
X116505000Y-71032000D01*
X116505000Y-67502000D02*
X116505000Y-68324470D01*
%TO.C,R27*%
X119634500Y-76585742D02*
X119634500Y-77060258D01*
X118589500Y-76585742D02*
X118589500Y-77060258D01*
%TO.C,L1*%
X103922436Y-85550000D02*
X104376564Y-85550000D01*
X103922436Y-87020000D02*
X104376564Y-87020000D01*
%TO.C,C16*%
X114796000Y-78918420D02*
X114796000Y-79199580D01*
X113776000Y-78918420D02*
X113776000Y-79199580D01*
%TO.C,C14*%
X108444580Y-86287000D02*
X108163420Y-86287000D01*
X108444580Y-85267000D02*
X108163420Y-85267000D01*
%TO.C,GND1*%
X91737000Y-78665000D02*
G75*
G03*
X91737000Y-78665000I-1200000J0D01*
G01*
%TO.C,Y2*%
X112530000Y-73515000D02*
X112530000Y-71515000D01*
X108930000Y-71515000D02*
X108930000Y-73515000D01*
X109980000Y-71115000D02*
X109980000Y-70715000D01*
X108730000Y-73515000D02*
X108730000Y-71515000D01*
X112530000Y-71515000D02*
X112530000Y-71115000D01*
X108930000Y-71515000D02*
X108930000Y-71115000D01*
X108730000Y-71515000D02*
X108730000Y-71115000D01*
X108930000Y-73515000D02*
X109080000Y-73515000D01*
X108930000Y-71115000D02*
X109080000Y-71115000D01*
X109980000Y-71115000D02*
X109930000Y-71115000D01*
X112530000Y-71115000D02*
X112380000Y-71115000D01*
X112530000Y-73515000D02*
X112380000Y-73515000D01*
D10*
%TO.C,U6*%
X113332000Y-78672000D02*
X113232000Y-78672000D01*
X107807000Y-78647000D02*
X107832000Y-78647000D01*
X107807000Y-83297000D02*
X107832000Y-83297000D01*
X113332000Y-84372000D02*
X113332000Y-78672000D01*
X107807000Y-83297000D02*
X107807000Y-78647000D01*
D11*
%TO.C,R26*%
X111030258Y-74459500D02*
X110555742Y-74459500D01*
X111030258Y-75504500D02*
X110555742Y-75504500D01*
%TO.C,R22*%
X111876436Y-89433000D02*
X112330564Y-89433000D01*
X111876436Y-87963000D02*
X112330564Y-87963000D01*
%TO.C,R17*%
X108694564Y-87963000D02*
X108240436Y-87963000D01*
X108694564Y-89433000D02*
X108240436Y-89433000D01*
%TO.C,R12*%
X101582564Y-89995000D02*
X101128436Y-89995000D01*
X101582564Y-91465000D02*
X101128436Y-91465000D01*
%TO.C,R11*%
X105138564Y-88725000D02*
X104684436Y-88725000D01*
X105138564Y-90195000D02*
X104684436Y-90195000D01*
%TO.C,R7*%
X120175258Y-72554500D02*
X119700742Y-72554500D01*
X120175258Y-73599500D02*
X119700742Y-73599500D01*
%TO.C,R3*%
X120175258Y-74078500D02*
X119700742Y-74078500D01*
X120175258Y-75123500D02*
X119700742Y-75123500D01*
%TO.C,Q1*%
X118106000Y-69761000D02*
X119036000Y-69761000D01*
X121266000Y-69761000D02*
X120336000Y-69761000D01*
X121266000Y-69761000D02*
X121266000Y-71921000D01*
X118106000Y-69761000D02*
X118106000Y-71221000D01*
%TO.C,C19*%
X109204000Y-68732420D02*
X109204000Y-69013580D01*
X110224000Y-68732420D02*
X110224000Y-69013580D01*
%TO.C,C18*%
X111236000Y-68732420D02*
X111236000Y-69013580D01*
X112256000Y-68732420D02*
X112256000Y-69013580D01*
%TO.C,C13*%
X112327252Y-85804000D02*
X111804748Y-85804000D01*
X112327252Y-87274000D02*
X111804748Y-87274000D01*
%TO.C,C8*%
X96228000Y-69902580D02*
X96228000Y-69621420D01*
X95208000Y-69902580D02*
X95208000Y-69621420D01*
%TO.C,C6*%
X97778000Y-69902580D02*
X97778000Y-69621420D01*
X96758000Y-69902580D02*
X96758000Y-69621420D01*
%TO.C,R4*%
X130081258Y-74078500D02*
X129606742Y-74078500D01*
X130081258Y-75123500D02*
X129606742Y-75123500D01*
%TO.C,R10*%
X130081258Y-72554500D02*
X129606742Y-72554500D01*
X130081258Y-73599500D02*
X129606742Y-73599500D01*
%TO.C,Q2*%
X128012000Y-69793000D02*
X128942000Y-69793000D01*
X131172000Y-69793000D02*
X130242000Y-69793000D01*
X131172000Y-69793000D02*
X131172000Y-71953000D01*
X128012000Y-69793000D02*
X128012000Y-71253000D01*
%TO.C,R14*%
X90490742Y-82743500D02*
X90965258Y-82743500D01*
X90490742Y-81698500D02*
X90965258Y-81698500D01*
%TO.C,D6*%
X87389000Y-82284500D02*
X87389000Y-79999500D01*
X87389000Y-79999500D02*
X88859000Y-79999500D01*
X88859000Y-79999500D02*
X88859000Y-82284500D01*
%TO.C,U2*%
X127066000Y-91550000D02*
X121566000Y-91550000D01*
X121566000Y-67050000D02*
X121566000Y-91550000D01*
X127066000Y-67050000D02*
X121566000Y-67050000D01*
X127066000Y-67050000D02*
X127066000Y-91550000D01*
%TO.C,R16*%
X129311000Y-84772000D02*
X129311000Y-85972000D01*
X131011000Y-85972000D02*
X131011000Y-84772000D01*
%TO.C,R15*%
X119532000Y-84772000D02*
X119532000Y-85972000D01*
X121232000Y-85972000D02*
X121232000Y-84772000D01*
%TO.C,D2*%
X130669000Y-68732000D02*
X128384000Y-68732000D01*
X128384000Y-68732000D02*
X128384000Y-67262000D01*
X128384000Y-67262000D02*
X130669000Y-67262000D01*
%TO.C,D1*%
X120763000Y-68732000D02*
X118478000Y-68732000D01*
X118478000Y-68732000D02*
X118478000Y-67262000D01*
X118478000Y-67262000D02*
X120763000Y-67262000D01*
%TO.C,R13*%
X90362742Y-76901500D02*
X90837258Y-76901500D01*
X90362742Y-75856500D02*
X90837258Y-75856500D01*
%TO.C,D5*%
X87389000Y-76391500D02*
X87389000Y-74106500D01*
X87389000Y-74106500D02*
X88859000Y-74106500D01*
X88859000Y-74106500D02*
X88859000Y-76391500D01*
%TO.C,U3*%
X136972000Y-91550000D02*
X131472000Y-91550000D01*
X131472000Y-67050000D02*
X131472000Y-91550000D01*
X136972000Y-67050000D02*
X131472000Y-67050000D01*
X136972000Y-67050000D02*
X136972000Y-91550000D01*
%TO.C,C14*%
D10*
X108959857Y-112404142D02*
X109007476Y-112451761D01*
X109150333Y-112499380D01*
X109245571Y-112499380D01*
X109388428Y-112451761D01*
X109483666Y-112356523D01*
X109531285Y-112261285D01*
X109578904Y-112070809D01*
X109578904Y-111927952D01*
X109531285Y-111737476D01*
X109483666Y-111642238D01*
X109388428Y-111547000D01*
X109245571Y-111499380D01*
X109150333Y-111499380D01*
X109007476Y-111547000D01*
X108959857Y-111594619D01*
X108007476Y-112499380D02*
X108578904Y-112499380D01*
X108293190Y-112499380D02*
X108293190Y-111499380D01*
X108388428Y-111642238D01*
X108483666Y-111737476D01*
X108578904Y-111785095D01*
X107150333Y-111832714D02*
X107150333Y-112499380D01*
X107388428Y-111451761D02*
X107626523Y-112166047D01*
X107007476Y-112166047D01*
%TO.C,C16*%
X114643142Y-106197142D02*
X114690761Y-106149523D01*
X114738380Y-106006666D01*
X114738380Y-105911428D01*
X114690761Y-105768571D01*
X114595523Y-105673333D01*
X114500285Y-105625714D01*
X114309809Y-105578095D01*
X114166952Y-105578095D01*
X113976476Y-105625714D01*
X113881238Y-105673333D01*
X113786000Y-105768571D01*
X113738380Y-105911428D01*
X113738380Y-106006666D01*
X113786000Y-106149523D01*
X113833619Y-106197142D01*
X114738380Y-107149523D02*
X114738380Y-106578095D01*
X114738380Y-106863809D02*
X113738380Y-106863809D01*
X113881238Y-106768571D01*
X113976476Y-106673333D01*
X114024095Y-106578095D01*
X113738380Y-108006666D02*
X113738380Y-107816190D01*
X113786000Y-107720952D01*
X113833619Y-107673333D01*
X113976476Y-107578095D01*
X114166952Y-107530476D01*
X114547904Y-107530476D01*
X114643142Y-107578095D01*
X114690761Y-107625714D01*
X114738380Y-107720952D01*
X114738380Y-107911428D01*
X114690761Y-108006666D01*
X114643142Y-108054285D01*
X114547904Y-108101904D01*
X114309809Y-108101904D01*
X114214571Y-108054285D01*
X114166952Y-108006666D01*
X114119333Y-107911428D01*
X114119333Y-107720952D01*
X114166952Y-107625714D01*
X114214571Y-107578095D01*
X114309809Y-107530476D01*
%TO.C,R14*%
X94227857Y-107800380D02*
X94561190Y-107324190D01*
X94799285Y-107800380D02*
X94799285Y-106800380D01*
X94418333Y-106800380D01*
X94323095Y-106848000D01*
X94275476Y-106895619D01*
X94227857Y-106990857D01*
X94227857Y-107133714D01*
X94275476Y-107228952D01*
X94323095Y-107276571D01*
X94418333Y-107324190D01*
X94799285Y-107324190D01*
X93275476Y-107800380D02*
X93846904Y-107800380D01*
X93561190Y-107800380D02*
X93561190Y-106800380D01*
X93656428Y-106943238D01*
X93751666Y-107038476D01*
X93846904Y-107086095D01*
X92418333Y-107133714D02*
X92418333Y-107800380D01*
X92656428Y-106752761D02*
X92894523Y-107467047D01*
X92275476Y-107467047D01*
%TO.C,Q2*%
X128295619Y-98108761D02*
X128248000Y-98013523D01*
X128152761Y-97918285D01*
X128009904Y-97775428D01*
X127962285Y-97680190D01*
X127962285Y-97584952D01*
X128200380Y-97632571D02*
X128152761Y-97537333D01*
X128057523Y-97442095D01*
X127867047Y-97394476D01*
X127533714Y-97394476D01*
X127343238Y-97442095D01*
X127248000Y-97537333D01*
X127200380Y-97632571D01*
X127200380Y-97823047D01*
X127248000Y-97918285D01*
X127343238Y-98013523D01*
X127533714Y-98061142D01*
X127867047Y-98061142D01*
X128057523Y-98013523D01*
X128152761Y-97918285D01*
X128200380Y-97823047D01*
X128200380Y-97632571D01*
X127295619Y-98442095D02*
X127248000Y-98489714D01*
X127200380Y-98584952D01*
X127200380Y-98823047D01*
X127248000Y-98918285D01*
X127295619Y-98965904D01*
X127390857Y-99013523D01*
X127486095Y-99013523D01*
X127628952Y-98965904D01*
X128200380Y-98394476D01*
X128200380Y-99013523D01*
%TO.C,R10*%
X128200380Y-100101142D02*
X127724190Y-99767809D01*
X128200380Y-99529714D02*
X127200380Y-99529714D01*
X127200380Y-99910666D01*
X127248000Y-100005904D01*
X127295619Y-100053523D01*
X127390857Y-100101142D01*
X127533714Y-100101142D01*
X127628952Y-100053523D01*
X127676571Y-100005904D01*
X127724190Y-99910666D01*
X127724190Y-99529714D01*
X128200380Y-101053523D02*
X128200380Y-100482095D01*
X128200380Y-100767809D02*
X127200380Y-100767809D01*
X127343238Y-100672571D01*
X127438476Y-100577333D01*
X127486095Y-100482095D01*
X127200380Y-101672571D02*
X127200380Y-101767809D01*
X127248000Y-101863047D01*
X127295619Y-101910666D01*
X127390857Y-101958285D01*
X127581333Y-102005904D01*
X127819428Y-102005904D01*
X128009904Y-101958285D01*
X128105142Y-101910666D01*
X128152761Y-101863047D01*
X128200380Y-101767809D01*
X128200380Y-101672571D01*
X128152761Y-101577333D01*
X128105142Y-101529714D01*
X128009904Y-101482095D01*
X127819428Y-101434476D01*
X127581333Y-101434476D01*
X127390857Y-101482095D01*
X127295619Y-101529714D01*
X127248000Y-101577333D01*
X127200380Y-101672571D01*
%TO.C,R4*%
X129946666Y-101450380D02*
X130280000Y-100974190D01*
X130518095Y-101450380D02*
X130518095Y-100450380D01*
X130137142Y-100450380D01*
X130041904Y-100498000D01*
X129994285Y-100545619D01*
X129946666Y-100640857D01*
X129946666Y-100783714D01*
X129994285Y-100878952D01*
X130041904Y-100926571D01*
X130137142Y-100974190D01*
X130518095Y-100974190D01*
X129089523Y-100783714D02*
X129089523Y-101450380D01*
X129327619Y-100402761D02*
X129565714Y-101117047D01*
X128946666Y-101117047D01*
%TO.C,C19*%
X108928142Y-93243142D02*
X108975761Y-93195523D01*
X109023380Y-93052666D01*
X109023380Y-92957428D01*
X108975761Y-92814571D01*
X108880523Y-92719333D01*
X108785285Y-92671714D01*
X108594809Y-92624095D01*
X108451952Y-92624095D01*
X108261476Y-92671714D01*
X108166238Y-92719333D01*
X108071000Y-92814571D01*
X108023380Y-92957428D01*
X108023380Y-93052666D01*
X108071000Y-93195523D01*
X108118619Y-93243142D01*
X109023380Y-94195523D02*
X109023380Y-93624095D01*
X109023380Y-93909809D02*
X108023380Y-93909809D01*
X108166238Y-93814571D01*
X108261476Y-93719333D01*
X108309095Y-93624095D01*
X109023380Y-94671714D02*
X109023380Y-94862190D01*
X108975761Y-94957428D01*
X108928142Y-95005047D01*
X108785285Y-95100285D01*
X108594809Y-95147904D01*
X108213857Y-95147904D01*
X108118619Y-95100285D01*
X108071000Y-95052666D01*
X108023380Y-94957428D01*
X108023380Y-94766952D01*
X108071000Y-94671714D01*
X108118619Y-94624095D01*
X108213857Y-94576476D01*
X108451952Y-94576476D01*
X108547190Y-94624095D01*
X108594809Y-94671714D01*
X108642428Y-94766952D01*
X108642428Y-94957428D01*
X108594809Y-95052666D01*
X108547190Y-95100285D01*
X108451952Y-95147904D01*
%TO.C,L1*%
X101799666Y-111737380D02*
X102275857Y-111737380D01*
X102275857Y-110737380D01*
X100942523Y-111737380D02*
X101513952Y-111737380D01*
X101228238Y-111737380D02*
X101228238Y-110737380D01*
X101323476Y-110880238D01*
X101418714Y-110975476D01*
X101513952Y-111023095D01*
%TO.C,R27*%
X119754857Y-104244380D02*
X120088190Y-103768190D01*
X120326285Y-104244380D02*
X120326285Y-103244380D01*
X119945333Y-103244380D01*
X119850095Y-103292000D01*
X119802476Y-103339619D01*
X119754857Y-103434857D01*
X119754857Y-103577714D01*
X119802476Y-103672952D01*
X119850095Y-103720571D01*
X119945333Y-103768190D01*
X120326285Y-103768190D01*
X119373904Y-103339619D02*
X119326285Y-103292000D01*
X119231047Y-103244380D01*
X118992952Y-103244380D01*
X118897714Y-103292000D01*
X118850095Y-103339619D01*
X118802476Y-103434857D01*
X118802476Y-103530095D01*
X118850095Y-103672952D01*
X119421523Y-104244380D01*
X118802476Y-104244380D01*
X118469142Y-103244380D02*
X117802476Y-103244380D01*
X118231047Y-104244380D01*
%TO.C,JP4*%
X116008333Y-96386380D02*
X116008333Y-97100666D01*
X116055952Y-97243523D01*
X116151190Y-97338761D01*
X116294047Y-97386380D01*
X116389285Y-97386380D01*
X115532142Y-97386380D02*
X115532142Y-96386380D01*
X115151190Y-96386380D01*
X115055952Y-96434000D01*
X115008333Y-96481619D01*
X114960714Y-96576857D01*
X114960714Y-96719714D01*
X115008333Y-96814952D01*
X115055952Y-96862571D01*
X115151190Y-96910190D01*
X115532142Y-96910190D01*
X114103571Y-96719714D02*
X114103571Y-97386380D01*
X114341666Y-96338761D02*
X114579761Y-97053047D01*
X113960714Y-97053047D01*
%TO.C,U1*%
X94460380Y-103031095D02*
X95269904Y-103031095D01*
X95365142Y-103078714D01*
X95412761Y-103126333D01*
X95460380Y-103221571D01*
X95460380Y-103412047D01*
X95412761Y-103507285D01*
X95365142Y-103554904D01*
X95269904Y-103602523D01*
X94460380Y-103602523D01*
X95460380Y-104602523D02*
X95460380Y-104031095D01*
X95460380Y-104316809D02*
X94460380Y-104316809D01*
X94603238Y-104221571D01*
X94698476Y-104126333D01*
X94746095Y-104031095D01*
%TO.C,U4*%
X106919904Y-92322380D02*
X106919904Y-93131904D01*
X106872285Y-93227142D01*
X106824666Y-93274761D01*
X106729428Y-93322380D01*
X106538952Y-93322380D01*
X106443714Y-93274761D01*
X106396095Y-93227142D01*
X106348476Y-93131904D01*
X106348476Y-92322380D01*
X105443714Y-92655714D02*
X105443714Y-93322380D01*
X105681809Y-92274761D02*
X105919904Y-92989047D01*
X105300857Y-92989047D01*
%TO.C,U3*%
X131049904Y-113023380D02*
X131049904Y-113832904D01*
X131002285Y-113928142D01*
X130954666Y-113975761D01*
X130859428Y-114023380D01*
X130668952Y-114023380D01*
X130573714Y-113975761D01*
X130526095Y-113928142D01*
X130478476Y-113832904D01*
X130478476Y-113023380D01*
X130097523Y-113023380D02*
X129478476Y-113023380D01*
X129811809Y-113404333D01*
X129668952Y-113404333D01*
X129573714Y-113451952D01*
X129526095Y-113499571D01*
X129478476Y-113594809D01*
X129478476Y-113832904D01*
X129526095Y-113928142D01*
X129573714Y-113975761D01*
X129668952Y-114023380D01*
X129954666Y-114023380D01*
X130049904Y-113975761D01*
X130097523Y-113928142D01*
%TO.C,D5*%
X90640095Y-100307380D02*
X90640095Y-99307380D01*
X90402000Y-99307380D01*
X90259142Y-99355000D01*
X90163904Y-99450238D01*
X90116285Y-99545476D01*
X90068666Y-99735952D01*
X90068666Y-99878809D01*
X90116285Y-100069285D01*
X90163904Y-100164523D01*
X90259142Y-100259761D01*
X90402000Y-100307380D01*
X90640095Y-100307380D01*
X89163904Y-99307380D02*
X89640095Y-99307380D01*
X89687714Y-99783571D01*
X89640095Y-99735952D01*
X89544857Y-99688333D01*
X89306761Y-99688333D01*
X89211523Y-99735952D01*
X89163904Y-99783571D01*
X89116285Y-99878809D01*
X89116285Y-100116904D01*
X89163904Y-100212142D01*
X89211523Y-100259761D01*
X89306761Y-100307380D01*
X89544857Y-100307380D01*
X89640095Y-100259761D01*
X89687714Y-100212142D01*
%TO.C,R13*%
X93021380Y-100736142D02*
X92545190Y-100402809D01*
X93021380Y-100164714D02*
X92021380Y-100164714D01*
X92021380Y-100545666D01*
X92069000Y-100640904D01*
X92116619Y-100688523D01*
X92211857Y-100736142D01*
X92354714Y-100736142D01*
X92449952Y-100688523D01*
X92497571Y-100640904D01*
X92545190Y-100545666D01*
X92545190Y-100164714D01*
X93021380Y-101688523D02*
X93021380Y-101117095D01*
X93021380Y-101402809D02*
X92021380Y-101402809D01*
X92164238Y-101307571D01*
X92259476Y-101212333D01*
X92307095Y-101117095D01*
X92021380Y-102021857D02*
X92021380Y-102640904D01*
X92402333Y-102307571D01*
X92402333Y-102450428D01*
X92449952Y-102545666D01*
X92497571Y-102593285D01*
X92592809Y-102640904D01*
X92830904Y-102640904D01*
X92926142Y-102593285D01*
X92973761Y-102545666D01*
X93021380Y-102450428D01*
X93021380Y-102164714D01*
X92973761Y-102069476D01*
X92926142Y-102021857D01*
%TO.C,D1*%
X118281880Y-92258904D02*
X117281880Y-92258904D01*
X117281880Y-92497000D01*
X117329500Y-92639857D01*
X117424738Y-92735095D01*
X117519976Y-92782714D01*
X117710452Y-92830333D01*
X117853309Y-92830333D01*
X118043785Y-92782714D01*
X118139023Y-92735095D01*
X118234261Y-92639857D01*
X118281880Y-92497000D01*
X118281880Y-92258904D01*
X118281880Y-93782714D02*
X118281880Y-93211285D01*
X118281880Y-93497000D02*
X117281880Y-93497000D01*
X117424738Y-93401761D01*
X117519976Y-93306523D01*
X117567595Y-93211285D01*
%TO.C,D2*%
X128187880Y-92258904D02*
X127187880Y-92258904D01*
X127187880Y-92497000D01*
X127235500Y-92639857D01*
X127330738Y-92735095D01*
X127425976Y-92782714D01*
X127616452Y-92830333D01*
X127759309Y-92830333D01*
X127949785Y-92782714D01*
X128045023Y-92735095D01*
X128140261Y-92639857D01*
X128187880Y-92497000D01*
X128187880Y-92258904D01*
X127283119Y-93211285D02*
X127235500Y-93258904D01*
X127187880Y-93354142D01*
X127187880Y-93592238D01*
X127235500Y-93687476D01*
X127283119Y-93735095D01*
X127378357Y-93782714D01*
X127473595Y-93782714D01*
X127616452Y-93735095D01*
X128187880Y-93163666D01*
X128187880Y-93782714D01*
%TO.C,R12*%
X101847857Y-114658380D02*
X102181190Y-114182190D01*
X102419285Y-114658380D02*
X102419285Y-113658380D01*
X102038333Y-113658380D01*
X101943095Y-113706000D01*
X101895476Y-113753619D01*
X101847857Y-113848857D01*
X101847857Y-113991714D01*
X101895476Y-114086952D01*
X101943095Y-114134571D01*
X102038333Y-114182190D01*
X102419285Y-114182190D01*
X100895476Y-114658380D02*
X101466904Y-114658380D01*
X101181190Y-114658380D02*
X101181190Y-113658380D01*
X101276428Y-113801238D01*
X101371666Y-113896476D01*
X101466904Y-113944095D01*
X100514523Y-113753619D02*
X100466904Y-113706000D01*
X100371666Y-113658380D01*
X100133571Y-113658380D01*
X100038333Y-113706000D01*
X99990714Y-113753619D01*
X99943095Y-113848857D01*
X99943095Y-113944095D01*
X99990714Y-114086952D01*
X100562142Y-114658380D01*
X99943095Y-114658380D01*
%TO.C,R17*%
X109086857Y-115674380D02*
X109420190Y-115198190D01*
X109658285Y-115674380D02*
X109658285Y-114674380D01*
X109277333Y-114674380D01*
X109182095Y-114722000D01*
X109134476Y-114769619D01*
X109086857Y-114864857D01*
X109086857Y-115007714D01*
X109134476Y-115102952D01*
X109182095Y-115150571D01*
X109277333Y-115198190D01*
X109658285Y-115198190D01*
X108134476Y-115674380D02*
X108705904Y-115674380D01*
X108420190Y-115674380D02*
X108420190Y-114674380D01*
X108515428Y-114817238D01*
X108610666Y-114912476D01*
X108705904Y-114960095D01*
X107801142Y-114674380D02*
X107134476Y-114674380D01*
X107563047Y-115674380D01*
%TO.C,R22*%
X112769857Y-115674380D02*
X113103190Y-115198190D01*
X113341285Y-115674380D02*
X113341285Y-114674380D01*
X112960333Y-114674380D01*
X112865095Y-114722000D01*
X112817476Y-114769619D01*
X112769857Y-114864857D01*
X112769857Y-115007714D01*
X112817476Y-115102952D01*
X112865095Y-115150571D01*
X112960333Y-115198190D01*
X113341285Y-115198190D01*
X112388904Y-114769619D02*
X112341285Y-114722000D01*
X112246047Y-114674380D01*
X112007952Y-114674380D01*
X111912714Y-114722000D01*
X111865095Y-114769619D01*
X111817476Y-114864857D01*
X111817476Y-114960095D01*
X111865095Y-115102952D01*
X112436523Y-115674380D01*
X111817476Y-115674380D01*
X111436523Y-114769619D02*
X111388904Y-114722000D01*
X111293666Y-114674380D01*
X111055571Y-114674380D01*
X110960333Y-114722000D01*
X110912714Y-114769619D01*
X110865095Y-114864857D01*
X110865095Y-114960095D01*
X110912714Y-115102952D01*
X111484142Y-115674380D01*
X110865095Y-115674380D01*
%TO.C,R26*%
X108578857Y-100434380D02*
X108912190Y-99958190D01*
X109150285Y-100434380D02*
X109150285Y-99434380D01*
X108769333Y-99434380D01*
X108674095Y-99482000D01*
X108626476Y-99529619D01*
X108578857Y-99624857D01*
X108578857Y-99767714D01*
X108626476Y-99862952D01*
X108674095Y-99910571D01*
X108769333Y-99958190D01*
X109150285Y-99958190D01*
X108197904Y-99529619D02*
X108150285Y-99482000D01*
X108055047Y-99434380D01*
X107816952Y-99434380D01*
X107721714Y-99482000D01*
X107674095Y-99529619D01*
X107626476Y-99624857D01*
X107626476Y-99720095D01*
X107674095Y-99862952D01*
X108245523Y-100434380D01*
X107626476Y-100434380D01*
X106769333Y-99434380D02*
X106959809Y-99434380D01*
X107055047Y-99482000D01*
X107102666Y-99529619D01*
X107197904Y-99672476D01*
X107245523Y-99862952D01*
X107245523Y-100243904D01*
X107197904Y-100339142D01*
X107150285Y-100386761D01*
X107055047Y-100434380D01*
X106864571Y-100434380D01*
X106769333Y-100386761D01*
X106721714Y-100339142D01*
X106674095Y-100243904D01*
X106674095Y-100005809D01*
X106721714Y-99910571D01*
X106769333Y-99862952D01*
X106864571Y-99815333D01*
X107055047Y-99815333D01*
X107150285Y-99862952D01*
X107197904Y-99910571D01*
X107245523Y-100005809D01*
%TO.C,U6*%
X107300904Y-103625380D02*
X107300904Y-104434904D01*
X107253285Y-104530142D01*
X107205666Y-104577761D01*
X107110428Y-104625380D01*
X106919952Y-104625380D01*
X106824714Y-104577761D01*
X106777095Y-104530142D01*
X106729476Y-104434904D01*
X106729476Y-103625380D01*
X105824714Y-103625380D02*
X106015190Y-103625380D01*
X106110428Y-103673000D01*
X106158047Y-103720619D01*
X106253285Y-103863476D01*
X106300904Y-104053952D01*
X106300904Y-104434904D01*
X106253285Y-104530142D01*
X106205666Y-104577761D01*
X106110428Y-104625380D01*
X105919952Y-104625380D01*
X105824714Y-104577761D01*
X105777095Y-104530142D01*
X105729476Y-104434904D01*
X105729476Y-104196809D01*
X105777095Y-104101571D01*
X105824714Y-104053952D01*
X105919952Y-104006333D01*
X106110428Y-104006333D01*
X106205666Y-104053952D01*
X106253285Y-104101571D01*
X106300904Y-104196809D01*
%TO.C,Y2*%
X108031190Y-97291190D02*
X108031190Y-97767380D01*
X108364523Y-96767380D02*
X108031190Y-97291190D01*
X107697857Y-96767380D01*
X107412142Y-96862619D02*
X107364523Y-96815000D01*
X107269285Y-96767380D01*
X107031190Y-96767380D01*
X106935952Y-96815000D01*
X106888333Y-96862619D01*
X106840714Y-96957857D01*
X106840714Y-97053095D01*
X106888333Y-97195952D01*
X107459761Y-97767380D01*
X106840714Y-97767380D01*
%TO.C,GND1*%
X94950095Y-103419000D02*
X95045333Y-103371380D01*
X95188190Y-103371380D01*
X95331047Y-103419000D01*
X95426285Y-103514238D01*
X95473904Y-103609476D01*
X95521523Y-103799952D01*
X95521523Y-103942809D01*
X95473904Y-104133285D01*
X95426285Y-104228523D01*
X95331047Y-104323761D01*
X95188190Y-104371380D01*
X95092952Y-104371380D01*
X94950095Y-104323761D01*
X94902476Y-104276142D01*
X94902476Y-103942809D01*
X95092952Y-103942809D01*
X94473904Y-104371380D02*
X94473904Y-103371380D01*
X93902476Y-104371380D01*
X93902476Y-103371380D01*
X93426285Y-104371380D02*
X93426285Y-103371380D01*
X93188190Y-103371380D01*
X93045333Y-103419000D01*
X92950095Y-103514238D01*
X92902476Y-103609476D01*
X92854857Y-103799952D01*
X92854857Y-103942809D01*
X92902476Y-104133285D01*
X92950095Y-104228523D01*
X93045333Y-104323761D01*
X93188190Y-104371380D01*
X93426285Y-104371380D01*
X91902476Y-104371380D02*
X92473904Y-104371380D01*
X92188190Y-104371380D02*
X92188190Y-103371380D01*
X92283428Y-103514238D01*
X92378666Y-103609476D01*
X92473904Y-103657095D01*
%TO.C,C6*%
X97625142Y-96894333D02*
X97672761Y-96846714D01*
X97720380Y-96703857D01*
X97720380Y-96608619D01*
X97672761Y-96465761D01*
X97577523Y-96370523D01*
X97482285Y-96322904D01*
X97291809Y-96275285D01*
X97148952Y-96275285D01*
X96958476Y-96322904D01*
X96863238Y-96370523D01*
X96768000Y-96465761D01*
X96720380Y-96608619D01*
X96720380Y-96703857D01*
X96768000Y-96846714D01*
X96815619Y-96894333D01*
X96720380Y-97751476D02*
X96720380Y-97561000D01*
X96768000Y-97465761D01*
X96815619Y-97418142D01*
X96958476Y-97322904D01*
X97148952Y-97275285D01*
X97529904Y-97275285D01*
X97625142Y-97322904D01*
X97672761Y-97370523D01*
X97720380Y-97465761D01*
X97720380Y-97656238D01*
X97672761Y-97751476D01*
X97625142Y-97799095D01*
X97529904Y-97846714D01*
X97291809Y-97846714D01*
X97196571Y-97799095D01*
X97148952Y-97751476D01*
X97101333Y-97656238D01*
X97101333Y-97465761D01*
X97148952Y-97370523D01*
X97196571Y-97322904D01*
X97291809Y-97275285D01*
%TO.C,C8*%
X96101142Y-96894333D02*
X96148761Y-96846714D01*
X96196380Y-96703857D01*
X96196380Y-96608619D01*
X96148761Y-96465761D01*
X96053523Y-96370523D01*
X95958285Y-96322904D01*
X95767809Y-96275285D01*
X95624952Y-96275285D01*
X95434476Y-96322904D01*
X95339238Y-96370523D01*
X95244000Y-96465761D01*
X95196380Y-96608619D01*
X95196380Y-96703857D01*
X95244000Y-96846714D01*
X95291619Y-96894333D01*
X95624952Y-97465761D02*
X95577333Y-97370523D01*
X95529714Y-97322904D01*
X95434476Y-97275285D01*
X95386857Y-97275285D01*
X95291619Y-97322904D01*
X95244000Y-97370523D01*
X95196380Y-97465761D01*
X95196380Y-97656238D01*
X95244000Y-97751476D01*
X95291619Y-97799095D01*
X95386857Y-97846714D01*
X95434476Y-97846714D01*
X95529714Y-97799095D01*
X95577333Y-97751476D01*
X95624952Y-97656238D01*
X95624952Y-97465761D01*
X95672571Y-97370523D01*
X95720190Y-97322904D01*
X95815428Y-97275285D01*
X96005904Y-97275285D01*
X96101142Y-97322904D01*
X96148761Y-97370523D01*
X96196380Y-97465761D01*
X96196380Y-97656238D01*
X96148761Y-97751476D01*
X96101142Y-97799095D01*
X96005904Y-97846714D01*
X95815428Y-97846714D01*
X95720190Y-97799095D01*
X95672571Y-97751476D01*
X95624952Y-97656238D01*
%TO.C,C13*%
X114770142Y-110896142D02*
X114817761Y-110848523D01*
X114865380Y-110705666D01*
X114865380Y-110610428D01*
X114817761Y-110467571D01*
X114722523Y-110372333D01*
X114627285Y-110324714D01*
X114436809Y-110277095D01*
X114293952Y-110277095D01*
X114103476Y-110324714D01*
X114008238Y-110372333D01*
X113913000Y-110467571D01*
X113865380Y-110610428D01*
X113865380Y-110705666D01*
X113913000Y-110848523D01*
X113960619Y-110896142D01*
X114865380Y-111848523D02*
X114865380Y-111277095D01*
X114865380Y-111562809D02*
X113865380Y-111562809D01*
X114008238Y-111467571D01*
X114103476Y-111372333D01*
X114151095Y-111277095D01*
X113865380Y-112181857D02*
X113865380Y-112800904D01*
X114246333Y-112467571D01*
X114246333Y-112610428D01*
X114293952Y-112705666D01*
X114341571Y-112753285D01*
X114436809Y-112800904D01*
X114674904Y-112800904D01*
X114770142Y-112753285D01*
X114817761Y-112705666D01*
X114865380Y-112610428D01*
X114865380Y-112324714D01*
X114817761Y-112229476D01*
X114770142Y-112181857D01*
%TO.C,C18*%
X113373142Y-92989142D02*
X113420761Y-92941523D01*
X113468380Y-92798666D01*
X113468380Y-92703428D01*
X113420761Y-92560571D01*
X113325523Y-92465333D01*
X113230285Y-92417714D01*
X113039809Y-92370095D01*
X112896952Y-92370095D01*
X112706476Y-92417714D01*
X112611238Y-92465333D01*
X112516000Y-92560571D01*
X112468380Y-92703428D01*
X112468380Y-92798666D01*
X112516000Y-92941523D01*
X112563619Y-92989142D01*
X113468380Y-93941523D02*
X113468380Y-93370095D01*
X113468380Y-93655809D02*
X112468380Y-93655809D01*
X112611238Y-93560571D01*
X112706476Y-93465333D01*
X112754095Y-93370095D01*
X112896952Y-94512952D02*
X112849333Y-94417714D01*
X112801714Y-94370095D01*
X112706476Y-94322476D01*
X112658857Y-94322476D01*
X112563619Y-94370095D01*
X112516000Y-94417714D01*
X112468380Y-94512952D01*
X112468380Y-94703428D01*
X112516000Y-94798666D01*
X112563619Y-94846285D01*
X112658857Y-94893904D01*
X112706476Y-94893904D01*
X112801714Y-94846285D01*
X112849333Y-94798666D01*
X112896952Y-94703428D01*
X112896952Y-94512952D01*
X112944571Y-94417714D01*
X112992190Y-94370095D01*
X113087428Y-94322476D01*
X113277904Y-94322476D01*
X113373142Y-94370095D01*
X113420761Y-94417714D01*
X113468380Y-94512952D01*
X113468380Y-94703428D01*
X113420761Y-94798666D01*
X113373142Y-94846285D01*
X113277904Y-94893904D01*
X113087428Y-94893904D01*
X112992190Y-94846285D01*
X112944571Y-94798666D01*
X112896952Y-94703428D01*
%TO.C,R15*%
X119183380Y-109832142D02*
X118707190Y-109498809D01*
X119183380Y-109260714D02*
X118183380Y-109260714D01*
X118183380Y-109641666D01*
X118231000Y-109736904D01*
X118278619Y-109784523D01*
X118373857Y-109832142D01*
X118516714Y-109832142D01*
X118611952Y-109784523D01*
X118659571Y-109736904D01*
X118707190Y-109641666D01*
X118707190Y-109260714D01*
X119183380Y-110784523D02*
X119183380Y-110213095D01*
X119183380Y-110498809D02*
X118183380Y-110498809D01*
X118326238Y-110403571D01*
X118421476Y-110308333D01*
X118469095Y-110213095D01*
X118183380Y-111689285D02*
X118183380Y-111213095D01*
X118659571Y-111165476D01*
X118611952Y-111213095D01*
X118564333Y-111308333D01*
X118564333Y-111546428D01*
X118611952Y-111641666D01*
X118659571Y-111689285D01*
X118754809Y-111736904D01*
X118992904Y-111736904D01*
X119088142Y-111689285D01*
X119135761Y-111641666D01*
X119183380Y-111546428D01*
X119183380Y-111308333D01*
X119135761Y-111213095D01*
X119088142Y-111165476D01*
%TO.C,Q1*%
X117881619Y-95425761D02*
X117834000Y-95330523D01*
X117738761Y-95235285D01*
X117595904Y-95092428D01*
X117548285Y-94997190D01*
X117548285Y-94901952D01*
X117786380Y-94949571D02*
X117738761Y-94854333D01*
X117643523Y-94759095D01*
X117453047Y-94711476D01*
X117119714Y-94711476D01*
X116929238Y-94759095D01*
X116834000Y-94854333D01*
X116786380Y-94949571D01*
X116786380Y-95140047D01*
X116834000Y-95235285D01*
X116929238Y-95330523D01*
X117119714Y-95378142D01*
X117453047Y-95378142D01*
X117643523Y-95330523D01*
X117738761Y-95235285D01*
X117786380Y-95140047D01*
X117786380Y-94949571D01*
X117786380Y-96330523D02*
X117786380Y-95759095D01*
X117786380Y-96044809D02*
X116786380Y-96044809D01*
X116929238Y-95949571D01*
X117024476Y-95854333D01*
X117072095Y-95759095D01*
%TO.C,R3*%
X120040666Y-101424980D02*
X120374000Y-100948790D01*
X120612095Y-101424980D02*
X120612095Y-100424980D01*
X120231142Y-100424980D01*
X120135904Y-100472600D01*
X120088285Y-100520219D01*
X120040666Y-100615457D01*
X120040666Y-100758314D01*
X120088285Y-100853552D01*
X120135904Y-100901171D01*
X120231142Y-100948790D01*
X120612095Y-100948790D01*
X119707333Y-100424980D02*
X119088285Y-100424980D01*
X119421619Y-100805933D01*
X119278761Y-100805933D01*
X119183523Y-100853552D01*
X119135904Y-100901171D01*
X119088285Y-100996409D01*
X119088285Y-101234504D01*
X119135904Y-101329742D01*
X119183523Y-101377361D01*
X119278761Y-101424980D01*
X119564476Y-101424980D01*
X119659714Y-101377361D01*
X119707333Y-101329742D01*
%TO.C,R7*%
X117882666Y-98402380D02*
X118216000Y-97926190D01*
X118454095Y-98402380D02*
X118454095Y-97402380D01*
X118073142Y-97402380D01*
X117977904Y-97450000D01*
X117930285Y-97497619D01*
X117882666Y-97592857D01*
X117882666Y-97735714D01*
X117930285Y-97830952D01*
X117977904Y-97878571D01*
X118073142Y-97926190D01*
X118454095Y-97926190D01*
X117549333Y-97402380D02*
X116882666Y-97402380D01*
X117311238Y-98402380D01*
%TO.C,R11*%
X105530857Y-116436380D02*
X105864190Y-115960190D01*
X106102285Y-116436380D02*
X106102285Y-115436380D01*
X105721333Y-115436380D01*
X105626095Y-115484000D01*
X105578476Y-115531619D01*
X105530857Y-115626857D01*
X105530857Y-115769714D01*
X105578476Y-115864952D01*
X105626095Y-115912571D01*
X105721333Y-115960190D01*
X106102285Y-115960190D01*
X104578476Y-116436380D02*
X105149904Y-116436380D01*
X104864190Y-116436380D02*
X104864190Y-115436380D01*
X104959428Y-115579238D01*
X105054666Y-115674476D01*
X105149904Y-115722095D01*
X103626095Y-116436380D02*
X104197523Y-116436380D01*
X103911809Y-116436380D02*
X103911809Y-115436380D01*
X104007047Y-115579238D01*
X104102285Y-115674476D01*
X104197523Y-115722095D01*
%TO.C,U2*%
X121270904Y-113023380D02*
X121270904Y-113832904D01*
X121223285Y-113928142D01*
X121175666Y-113975761D01*
X121080428Y-114023380D01*
X120889952Y-114023380D01*
X120794714Y-113975761D01*
X120747095Y-113928142D01*
X120699476Y-113832904D01*
X120699476Y-113023380D01*
X120270904Y-113118619D02*
X120223285Y-113071000D01*
X120128047Y-113023380D01*
X119889952Y-113023380D01*
X119794714Y-113071000D01*
X119747095Y-113118619D01*
X119699476Y-113213857D01*
X119699476Y-113309095D01*
X119747095Y-113451952D01*
X120318523Y-114023380D01*
X119699476Y-114023380D01*
%TO.C,D6*%
X90640095Y-106276380D02*
X90640095Y-105276380D01*
X90402000Y-105276380D01*
X90259142Y-105324000D01*
X90163904Y-105419238D01*
X90116285Y-105514476D01*
X90068666Y-105704952D01*
X90068666Y-105847809D01*
X90116285Y-106038285D01*
X90163904Y-106133523D01*
X90259142Y-106228761D01*
X90402000Y-106276380D01*
X90640095Y-106276380D01*
X89211523Y-105276380D02*
X89402000Y-105276380D01*
X89497238Y-105324000D01*
X89544857Y-105371619D01*
X89640095Y-105514476D01*
X89687714Y-105704952D01*
X89687714Y-106085904D01*
X89640095Y-106181142D01*
X89592476Y-106228761D01*
X89497238Y-106276380D01*
X89306761Y-106276380D01*
X89211523Y-106228761D01*
X89163904Y-106181142D01*
X89116285Y-106085904D01*
X89116285Y-105847809D01*
X89163904Y-105752571D01*
X89211523Y-105704952D01*
X89306761Y-105657333D01*
X89497238Y-105657333D01*
X89592476Y-105704952D01*
X89640095Y-105752571D01*
X89687714Y-105847809D01*
%TO.C,R16*%
X128962380Y-109705142D02*
X128486190Y-109371809D01*
X128962380Y-109133714D02*
X127962380Y-109133714D01*
X127962380Y-109514666D01*
X128010000Y-109609904D01*
X128057619Y-109657523D01*
X128152857Y-109705142D01*
X128295714Y-109705142D01*
X128390952Y-109657523D01*
X128438571Y-109609904D01*
X128486190Y-109514666D01*
X128486190Y-109133714D01*
X128962380Y-110657523D02*
X128962380Y-110086095D01*
X128962380Y-110371809D02*
X127962380Y-110371809D01*
X128105238Y-110276571D01*
X128200476Y-110181333D01*
X128248095Y-110086095D01*
X127962380Y-111514666D02*
X127962380Y-111324190D01*
X128010000Y-111228952D01*
X128057619Y-111181333D01*
X128200476Y-111086095D01*
X128390952Y-111038476D01*
X128771904Y-111038476D01*
X128867142Y-111086095D01*
X128914761Y-111133714D01*
X128962380Y-111228952D01*
X128962380Y-111419428D01*
X128914761Y-111514666D01*
X128867142Y-111562285D01*
X128771904Y-111609904D01*
X128533809Y-111609904D01*
X128438571Y-111562285D01*
X128390952Y-111514666D01*
X128343333Y-111419428D01*
X128343333Y-111228952D01*
X128390952Y-111133714D01*
X128438571Y-111086095D01*
X128533809Y-111038476D01*
%TO.C,U4*%
X106919904Y-67322380D02*
X106919904Y-68131904D01*
X106872285Y-68227142D01*
X106824666Y-68274761D01*
X106729428Y-68322380D01*
X106538952Y-68322380D01*
X106443714Y-68274761D01*
X106396095Y-68227142D01*
X106348476Y-68131904D01*
X106348476Y-67322380D01*
X105443714Y-67655714D02*
X105443714Y-68322380D01*
X105681809Y-67274761D02*
X105919904Y-67989047D01*
X105300857Y-67989047D01*
%TO.C,U1*%
X94460380Y-78031095D02*
X95269904Y-78031095D01*
X95365142Y-78078714D01*
X95412761Y-78126333D01*
X95460380Y-78221571D01*
X95460380Y-78412047D01*
X95412761Y-78507285D01*
X95365142Y-78554904D01*
X95269904Y-78602523D01*
X94460380Y-78602523D01*
X95460380Y-79602523D02*
X95460380Y-79031095D01*
X95460380Y-79316809D02*
X94460380Y-79316809D01*
X94603238Y-79221571D01*
X94698476Y-79126333D01*
X94746095Y-79031095D01*
%TO.C,JP4*%
X116008333Y-71386380D02*
X116008333Y-72100666D01*
X116055952Y-72243523D01*
X116151190Y-72338761D01*
X116294047Y-72386380D01*
X116389285Y-72386380D01*
X115532142Y-72386380D02*
X115532142Y-71386380D01*
X115151190Y-71386380D01*
X115055952Y-71434000D01*
X115008333Y-71481619D01*
X114960714Y-71576857D01*
X114960714Y-71719714D01*
X115008333Y-71814952D01*
X115055952Y-71862571D01*
X115151190Y-71910190D01*
X115532142Y-71910190D01*
X114103571Y-71719714D02*
X114103571Y-72386380D01*
X114341666Y-71338761D02*
X114579761Y-72053047D01*
X113960714Y-72053047D01*
%TO.C,R27*%
X119754857Y-79244380D02*
X120088190Y-78768190D01*
X120326285Y-79244380D02*
X120326285Y-78244380D01*
X119945333Y-78244380D01*
X119850095Y-78292000D01*
X119802476Y-78339619D01*
X119754857Y-78434857D01*
X119754857Y-78577714D01*
X119802476Y-78672952D01*
X119850095Y-78720571D01*
X119945333Y-78768190D01*
X120326285Y-78768190D01*
X119373904Y-78339619D02*
X119326285Y-78292000D01*
X119231047Y-78244380D01*
X118992952Y-78244380D01*
X118897714Y-78292000D01*
X118850095Y-78339619D01*
X118802476Y-78434857D01*
X118802476Y-78530095D01*
X118850095Y-78672952D01*
X119421523Y-79244380D01*
X118802476Y-79244380D01*
X118469142Y-78244380D02*
X117802476Y-78244380D01*
X118231047Y-79244380D01*
%TO.C,L1*%
X101799666Y-86737380D02*
X102275857Y-86737380D01*
X102275857Y-85737380D01*
X100942523Y-86737380D02*
X101513952Y-86737380D01*
X101228238Y-86737380D02*
X101228238Y-85737380D01*
X101323476Y-85880238D01*
X101418714Y-85975476D01*
X101513952Y-86023095D01*
%TO.C,C16*%
X114643142Y-81197142D02*
X114690761Y-81149523D01*
X114738380Y-81006666D01*
X114738380Y-80911428D01*
X114690761Y-80768571D01*
X114595523Y-80673333D01*
X114500285Y-80625714D01*
X114309809Y-80578095D01*
X114166952Y-80578095D01*
X113976476Y-80625714D01*
X113881238Y-80673333D01*
X113786000Y-80768571D01*
X113738380Y-80911428D01*
X113738380Y-81006666D01*
X113786000Y-81149523D01*
X113833619Y-81197142D01*
X114738380Y-82149523D02*
X114738380Y-81578095D01*
X114738380Y-81863809D02*
X113738380Y-81863809D01*
X113881238Y-81768571D01*
X113976476Y-81673333D01*
X114024095Y-81578095D01*
X113738380Y-83006666D02*
X113738380Y-82816190D01*
X113786000Y-82720952D01*
X113833619Y-82673333D01*
X113976476Y-82578095D01*
X114166952Y-82530476D01*
X114547904Y-82530476D01*
X114643142Y-82578095D01*
X114690761Y-82625714D01*
X114738380Y-82720952D01*
X114738380Y-82911428D01*
X114690761Y-83006666D01*
X114643142Y-83054285D01*
X114547904Y-83101904D01*
X114309809Y-83101904D01*
X114214571Y-83054285D01*
X114166952Y-83006666D01*
X114119333Y-82911428D01*
X114119333Y-82720952D01*
X114166952Y-82625714D01*
X114214571Y-82578095D01*
X114309809Y-82530476D01*
%TO.C,C14*%
X108959857Y-87404142D02*
X109007476Y-87451761D01*
X109150333Y-87499380D01*
X109245571Y-87499380D01*
X109388428Y-87451761D01*
X109483666Y-87356523D01*
X109531285Y-87261285D01*
X109578904Y-87070809D01*
X109578904Y-86927952D01*
X109531285Y-86737476D01*
X109483666Y-86642238D01*
X109388428Y-86547000D01*
X109245571Y-86499380D01*
X109150333Y-86499380D01*
X109007476Y-86547000D01*
X108959857Y-86594619D01*
X108007476Y-87499380D02*
X108578904Y-87499380D01*
X108293190Y-87499380D02*
X108293190Y-86499380D01*
X108388428Y-86642238D01*
X108483666Y-86737476D01*
X108578904Y-86785095D01*
X107150333Y-86832714D02*
X107150333Y-87499380D01*
X107388428Y-86451761D02*
X107626523Y-87166047D01*
X107007476Y-87166047D01*
%TO.C,GND1*%
X94950095Y-78419000D02*
X95045333Y-78371380D01*
X95188190Y-78371380D01*
X95331047Y-78419000D01*
X95426285Y-78514238D01*
X95473904Y-78609476D01*
X95521523Y-78799952D01*
X95521523Y-78942809D01*
X95473904Y-79133285D01*
X95426285Y-79228523D01*
X95331047Y-79323761D01*
X95188190Y-79371380D01*
X95092952Y-79371380D01*
X94950095Y-79323761D01*
X94902476Y-79276142D01*
X94902476Y-78942809D01*
X95092952Y-78942809D01*
X94473904Y-79371380D02*
X94473904Y-78371380D01*
X93902476Y-79371380D01*
X93902476Y-78371380D01*
X93426285Y-79371380D02*
X93426285Y-78371380D01*
X93188190Y-78371380D01*
X93045333Y-78419000D01*
X92950095Y-78514238D01*
X92902476Y-78609476D01*
X92854857Y-78799952D01*
X92854857Y-78942809D01*
X92902476Y-79133285D01*
X92950095Y-79228523D01*
X93045333Y-79323761D01*
X93188190Y-79371380D01*
X93426285Y-79371380D01*
X91902476Y-79371380D02*
X92473904Y-79371380D01*
X92188190Y-79371380D02*
X92188190Y-78371380D01*
X92283428Y-78514238D01*
X92378666Y-78609476D01*
X92473904Y-78657095D01*
%TO.C,Y2*%
X108031190Y-72291190D02*
X108031190Y-72767380D01*
X108364523Y-71767380D02*
X108031190Y-72291190D01*
X107697857Y-71767380D01*
X107412142Y-71862619D02*
X107364523Y-71815000D01*
X107269285Y-71767380D01*
X107031190Y-71767380D01*
X106935952Y-71815000D01*
X106888333Y-71862619D01*
X106840714Y-71957857D01*
X106840714Y-72053095D01*
X106888333Y-72195952D01*
X107459761Y-72767380D01*
X106840714Y-72767380D01*
%TO.C,U6*%
X107300904Y-78625380D02*
X107300904Y-79434904D01*
X107253285Y-79530142D01*
X107205666Y-79577761D01*
X107110428Y-79625380D01*
X106919952Y-79625380D01*
X106824714Y-79577761D01*
X106777095Y-79530142D01*
X106729476Y-79434904D01*
X106729476Y-78625380D01*
X105824714Y-78625380D02*
X106015190Y-78625380D01*
X106110428Y-78673000D01*
X106158047Y-78720619D01*
X106253285Y-78863476D01*
X106300904Y-79053952D01*
X106300904Y-79434904D01*
X106253285Y-79530142D01*
X106205666Y-79577761D01*
X106110428Y-79625380D01*
X105919952Y-79625380D01*
X105824714Y-79577761D01*
X105777095Y-79530142D01*
X105729476Y-79434904D01*
X105729476Y-79196809D01*
X105777095Y-79101571D01*
X105824714Y-79053952D01*
X105919952Y-79006333D01*
X106110428Y-79006333D01*
X106205666Y-79053952D01*
X106253285Y-79101571D01*
X106300904Y-79196809D01*
%TO.C,R26*%
X108578857Y-75434380D02*
X108912190Y-74958190D01*
X109150285Y-75434380D02*
X109150285Y-74434380D01*
X108769333Y-74434380D01*
X108674095Y-74482000D01*
X108626476Y-74529619D01*
X108578857Y-74624857D01*
X108578857Y-74767714D01*
X108626476Y-74862952D01*
X108674095Y-74910571D01*
X108769333Y-74958190D01*
X109150285Y-74958190D01*
X108197904Y-74529619D02*
X108150285Y-74482000D01*
X108055047Y-74434380D01*
X107816952Y-74434380D01*
X107721714Y-74482000D01*
X107674095Y-74529619D01*
X107626476Y-74624857D01*
X107626476Y-74720095D01*
X107674095Y-74862952D01*
X108245523Y-75434380D01*
X107626476Y-75434380D01*
X106769333Y-74434380D02*
X106959809Y-74434380D01*
X107055047Y-74482000D01*
X107102666Y-74529619D01*
X107197904Y-74672476D01*
X107245523Y-74862952D01*
X107245523Y-75243904D01*
X107197904Y-75339142D01*
X107150285Y-75386761D01*
X107055047Y-75434380D01*
X106864571Y-75434380D01*
X106769333Y-75386761D01*
X106721714Y-75339142D01*
X106674095Y-75243904D01*
X106674095Y-75005809D01*
X106721714Y-74910571D01*
X106769333Y-74862952D01*
X106864571Y-74815333D01*
X107055047Y-74815333D01*
X107150285Y-74862952D01*
X107197904Y-74910571D01*
X107245523Y-75005809D01*
%TO.C,R22*%
X112769857Y-90674380D02*
X113103190Y-90198190D01*
X113341285Y-90674380D02*
X113341285Y-89674380D01*
X112960333Y-89674380D01*
X112865095Y-89722000D01*
X112817476Y-89769619D01*
X112769857Y-89864857D01*
X112769857Y-90007714D01*
X112817476Y-90102952D01*
X112865095Y-90150571D01*
X112960333Y-90198190D01*
X113341285Y-90198190D01*
X112388904Y-89769619D02*
X112341285Y-89722000D01*
X112246047Y-89674380D01*
X112007952Y-89674380D01*
X111912714Y-89722000D01*
X111865095Y-89769619D01*
X111817476Y-89864857D01*
X111817476Y-89960095D01*
X111865095Y-90102952D01*
X112436523Y-90674380D01*
X111817476Y-90674380D01*
X111436523Y-89769619D02*
X111388904Y-89722000D01*
X111293666Y-89674380D01*
X111055571Y-89674380D01*
X110960333Y-89722000D01*
X110912714Y-89769619D01*
X110865095Y-89864857D01*
X110865095Y-89960095D01*
X110912714Y-90102952D01*
X111484142Y-90674380D01*
X110865095Y-90674380D01*
%TO.C,R17*%
X109086857Y-90674380D02*
X109420190Y-90198190D01*
X109658285Y-90674380D02*
X109658285Y-89674380D01*
X109277333Y-89674380D01*
X109182095Y-89722000D01*
X109134476Y-89769619D01*
X109086857Y-89864857D01*
X109086857Y-90007714D01*
X109134476Y-90102952D01*
X109182095Y-90150571D01*
X109277333Y-90198190D01*
X109658285Y-90198190D01*
X108134476Y-90674380D02*
X108705904Y-90674380D01*
X108420190Y-90674380D02*
X108420190Y-89674380D01*
X108515428Y-89817238D01*
X108610666Y-89912476D01*
X108705904Y-89960095D01*
X107801142Y-89674380D02*
X107134476Y-89674380D01*
X107563047Y-90674380D01*
%TO.C,R12*%
X101847857Y-89658380D02*
X102181190Y-89182190D01*
X102419285Y-89658380D02*
X102419285Y-88658380D01*
X102038333Y-88658380D01*
X101943095Y-88706000D01*
X101895476Y-88753619D01*
X101847857Y-88848857D01*
X101847857Y-88991714D01*
X101895476Y-89086952D01*
X101943095Y-89134571D01*
X102038333Y-89182190D01*
X102419285Y-89182190D01*
X100895476Y-89658380D02*
X101466904Y-89658380D01*
X101181190Y-89658380D02*
X101181190Y-88658380D01*
X101276428Y-88801238D01*
X101371666Y-88896476D01*
X101466904Y-88944095D01*
X100514523Y-88753619D02*
X100466904Y-88706000D01*
X100371666Y-88658380D01*
X100133571Y-88658380D01*
X100038333Y-88706000D01*
X99990714Y-88753619D01*
X99943095Y-88848857D01*
X99943095Y-88944095D01*
X99990714Y-89086952D01*
X100562142Y-89658380D01*
X99943095Y-89658380D01*
%TO.C,R11*%
X105530857Y-91436380D02*
X105864190Y-90960190D01*
X106102285Y-91436380D02*
X106102285Y-90436380D01*
X105721333Y-90436380D01*
X105626095Y-90484000D01*
X105578476Y-90531619D01*
X105530857Y-90626857D01*
X105530857Y-90769714D01*
X105578476Y-90864952D01*
X105626095Y-90912571D01*
X105721333Y-90960190D01*
X106102285Y-90960190D01*
X104578476Y-91436380D02*
X105149904Y-91436380D01*
X104864190Y-91436380D02*
X104864190Y-90436380D01*
X104959428Y-90579238D01*
X105054666Y-90674476D01*
X105149904Y-90722095D01*
X103626095Y-91436380D02*
X104197523Y-91436380D01*
X103911809Y-91436380D02*
X103911809Y-90436380D01*
X104007047Y-90579238D01*
X104102285Y-90674476D01*
X104197523Y-90722095D01*
%TO.C,R7*%
X117882666Y-73402380D02*
X118216000Y-72926190D01*
X118454095Y-73402380D02*
X118454095Y-72402380D01*
X118073142Y-72402380D01*
X117977904Y-72450000D01*
X117930285Y-72497619D01*
X117882666Y-72592857D01*
X117882666Y-72735714D01*
X117930285Y-72830952D01*
X117977904Y-72878571D01*
X118073142Y-72926190D01*
X118454095Y-72926190D01*
X117549333Y-72402380D02*
X116882666Y-72402380D01*
X117311238Y-73402380D01*
%TO.C,R3*%
X120040666Y-76424980D02*
X120374000Y-75948790D01*
X120612095Y-76424980D02*
X120612095Y-75424980D01*
X120231142Y-75424980D01*
X120135904Y-75472600D01*
X120088285Y-75520219D01*
X120040666Y-75615457D01*
X120040666Y-75758314D01*
X120088285Y-75853552D01*
X120135904Y-75901171D01*
X120231142Y-75948790D01*
X120612095Y-75948790D01*
X119707333Y-75424980D02*
X119088285Y-75424980D01*
X119421619Y-75805933D01*
X119278761Y-75805933D01*
X119183523Y-75853552D01*
X119135904Y-75901171D01*
X119088285Y-75996409D01*
X119088285Y-76234504D01*
X119135904Y-76329742D01*
X119183523Y-76377361D01*
X119278761Y-76424980D01*
X119564476Y-76424980D01*
X119659714Y-76377361D01*
X119707333Y-76329742D01*
%TO.C,Q1*%
X117881619Y-70425761D02*
X117834000Y-70330523D01*
X117738761Y-70235285D01*
X117595904Y-70092428D01*
X117548285Y-69997190D01*
X117548285Y-69901952D01*
X117786380Y-69949571D02*
X117738761Y-69854333D01*
X117643523Y-69759095D01*
X117453047Y-69711476D01*
X117119714Y-69711476D01*
X116929238Y-69759095D01*
X116834000Y-69854333D01*
X116786380Y-69949571D01*
X116786380Y-70140047D01*
X116834000Y-70235285D01*
X116929238Y-70330523D01*
X117119714Y-70378142D01*
X117453047Y-70378142D01*
X117643523Y-70330523D01*
X117738761Y-70235285D01*
X117786380Y-70140047D01*
X117786380Y-69949571D01*
X117786380Y-71330523D02*
X117786380Y-70759095D01*
X117786380Y-71044809D02*
X116786380Y-71044809D01*
X116929238Y-70949571D01*
X117024476Y-70854333D01*
X117072095Y-70759095D01*
%TO.C,C19*%
X108928142Y-68243142D02*
X108975761Y-68195523D01*
X109023380Y-68052666D01*
X109023380Y-67957428D01*
X108975761Y-67814571D01*
X108880523Y-67719333D01*
X108785285Y-67671714D01*
X108594809Y-67624095D01*
X108451952Y-67624095D01*
X108261476Y-67671714D01*
X108166238Y-67719333D01*
X108071000Y-67814571D01*
X108023380Y-67957428D01*
X108023380Y-68052666D01*
X108071000Y-68195523D01*
X108118619Y-68243142D01*
X109023380Y-69195523D02*
X109023380Y-68624095D01*
X109023380Y-68909809D02*
X108023380Y-68909809D01*
X108166238Y-68814571D01*
X108261476Y-68719333D01*
X108309095Y-68624095D01*
X109023380Y-69671714D02*
X109023380Y-69862190D01*
X108975761Y-69957428D01*
X108928142Y-70005047D01*
X108785285Y-70100285D01*
X108594809Y-70147904D01*
X108213857Y-70147904D01*
X108118619Y-70100285D01*
X108071000Y-70052666D01*
X108023380Y-69957428D01*
X108023380Y-69766952D01*
X108071000Y-69671714D01*
X108118619Y-69624095D01*
X108213857Y-69576476D01*
X108451952Y-69576476D01*
X108547190Y-69624095D01*
X108594809Y-69671714D01*
X108642428Y-69766952D01*
X108642428Y-69957428D01*
X108594809Y-70052666D01*
X108547190Y-70100285D01*
X108451952Y-70147904D01*
%TO.C,C18*%
X113373142Y-67989142D02*
X113420761Y-67941523D01*
X113468380Y-67798666D01*
X113468380Y-67703428D01*
X113420761Y-67560571D01*
X113325523Y-67465333D01*
X113230285Y-67417714D01*
X113039809Y-67370095D01*
X112896952Y-67370095D01*
X112706476Y-67417714D01*
X112611238Y-67465333D01*
X112516000Y-67560571D01*
X112468380Y-67703428D01*
X112468380Y-67798666D01*
X112516000Y-67941523D01*
X112563619Y-67989142D01*
X113468380Y-68941523D02*
X113468380Y-68370095D01*
X113468380Y-68655809D02*
X112468380Y-68655809D01*
X112611238Y-68560571D01*
X112706476Y-68465333D01*
X112754095Y-68370095D01*
X112896952Y-69512952D02*
X112849333Y-69417714D01*
X112801714Y-69370095D01*
X112706476Y-69322476D01*
X112658857Y-69322476D01*
X112563619Y-69370095D01*
X112516000Y-69417714D01*
X112468380Y-69512952D01*
X112468380Y-69703428D01*
X112516000Y-69798666D01*
X112563619Y-69846285D01*
X112658857Y-69893904D01*
X112706476Y-69893904D01*
X112801714Y-69846285D01*
X112849333Y-69798666D01*
X112896952Y-69703428D01*
X112896952Y-69512952D01*
X112944571Y-69417714D01*
X112992190Y-69370095D01*
X113087428Y-69322476D01*
X113277904Y-69322476D01*
X113373142Y-69370095D01*
X113420761Y-69417714D01*
X113468380Y-69512952D01*
X113468380Y-69703428D01*
X113420761Y-69798666D01*
X113373142Y-69846285D01*
X113277904Y-69893904D01*
X113087428Y-69893904D01*
X112992190Y-69846285D01*
X112944571Y-69798666D01*
X112896952Y-69703428D01*
%TO.C,C13*%
X114770142Y-85896142D02*
X114817761Y-85848523D01*
X114865380Y-85705666D01*
X114865380Y-85610428D01*
X114817761Y-85467571D01*
X114722523Y-85372333D01*
X114627285Y-85324714D01*
X114436809Y-85277095D01*
X114293952Y-85277095D01*
X114103476Y-85324714D01*
X114008238Y-85372333D01*
X113913000Y-85467571D01*
X113865380Y-85610428D01*
X113865380Y-85705666D01*
X113913000Y-85848523D01*
X113960619Y-85896142D01*
X114865380Y-86848523D02*
X114865380Y-86277095D01*
X114865380Y-86562809D02*
X113865380Y-86562809D01*
X114008238Y-86467571D01*
X114103476Y-86372333D01*
X114151095Y-86277095D01*
X113865380Y-87181857D02*
X113865380Y-87800904D01*
X114246333Y-87467571D01*
X114246333Y-87610428D01*
X114293952Y-87705666D01*
X114341571Y-87753285D01*
X114436809Y-87800904D01*
X114674904Y-87800904D01*
X114770142Y-87753285D01*
X114817761Y-87705666D01*
X114865380Y-87610428D01*
X114865380Y-87324714D01*
X114817761Y-87229476D01*
X114770142Y-87181857D01*
%TO.C,C8*%
X96101142Y-71894333D02*
X96148761Y-71846714D01*
X96196380Y-71703857D01*
X96196380Y-71608619D01*
X96148761Y-71465761D01*
X96053523Y-71370523D01*
X95958285Y-71322904D01*
X95767809Y-71275285D01*
X95624952Y-71275285D01*
X95434476Y-71322904D01*
X95339238Y-71370523D01*
X95244000Y-71465761D01*
X95196380Y-71608619D01*
X95196380Y-71703857D01*
X95244000Y-71846714D01*
X95291619Y-71894333D01*
X95624952Y-72465761D02*
X95577333Y-72370523D01*
X95529714Y-72322904D01*
X95434476Y-72275285D01*
X95386857Y-72275285D01*
X95291619Y-72322904D01*
X95244000Y-72370523D01*
X95196380Y-72465761D01*
X95196380Y-72656238D01*
X95244000Y-72751476D01*
X95291619Y-72799095D01*
X95386857Y-72846714D01*
X95434476Y-72846714D01*
X95529714Y-72799095D01*
X95577333Y-72751476D01*
X95624952Y-72656238D01*
X95624952Y-72465761D01*
X95672571Y-72370523D01*
X95720190Y-72322904D01*
X95815428Y-72275285D01*
X96005904Y-72275285D01*
X96101142Y-72322904D01*
X96148761Y-72370523D01*
X96196380Y-72465761D01*
X96196380Y-72656238D01*
X96148761Y-72751476D01*
X96101142Y-72799095D01*
X96005904Y-72846714D01*
X95815428Y-72846714D01*
X95720190Y-72799095D01*
X95672571Y-72751476D01*
X95624952Y-72656238D01*
%TO.C,C6*%
X97625142Y-71894333D02*
X97672761Y-71846714D01*
X97720380Y-71703857D01*
X97720380Y-71608619D01*
X97672761Y-71465761D01*
X97577523Y-71370523D01*
X97482285Y-71322904D01*
X97291809Y-71275285D01*
X97148952Y-71275285D01*
X96958476Y-71322904D01*
X96863238Y-71370523D01*
X96768000Y-71465761D01*
X96720380Y-71608619D01*
X96720380Y-71703857D01*
X96768000Y-71846714D01*
X96815619Y-71894333D01*
X96720380Y-72751476D02*
X96720380Y-72561000D01*
X96768000Y-72465761D01*
X96815619Y-72418142D01*
X96958476Y-72322904D01*
X97148952Y-72275285D01*
X97529904Y-72275285D01*
X97625142Y-72322904D01*
X97672761Y-72370523D01*
X97720380Y-72465761D01*
X97720380Y-72656238D01*
X97672761Y-72751476D01*
X97625142Y-72799095D01*
X97529904Y-72846714D01*
X97291809Y-72846714D01*
X97196571Y-72799095D01*
X97148952Y-72751476D01*
X97101333Y-72656238D01*
X97101333Y-72465761D01*
X97148952Y-72370523D01*
X97196571Y-72322904D01*
X97291809Y-72275285D01*
%TO.C,R4*%
X129946666Y-76450380D02*
X130280000Y-75974190D01*
X130518095Y-76450380D02*
X130518095Y-75450380D01*
X130137142Y-75450380D01*
X130041904Y-75498000D01*
X129994285Y-75545619D01*
X129946666Y-75640857D01*
X129946666Y-75783714D01*
X129994285Y-75878952D01*
X130041904Y-75926571D01*
X130137142Y-75974190D01*
X130518095Y-75974190D01*
X129089523Y-75783714D02*
X129089523Y-76450380D01*
X129327619Y-75402761D02*
X129565714Y-76117047D01*
X128946666Y-76117047D01*
%TO.C,R10*%
X128200380Y-75101142D02*
X127724190Y-74767809D01*
X128200380Y-74529714D02*
X127200380Y-74529714D01*
X127200380Y-74910666D01*
X127248000Y-75005904D01*
X127295619Y-75053523D01*
X127390857Y-75101142D01*
X127533714Y-75101142D01*
X127628952Y-75053523D01*
X127676571Y-75005904D01*
X127724190Y-74910666D01*
X127724190Y-74529714D01*
X128200380Y-76053523D02*
X128200380Y-75482095D01*
X128200380Y-75767809D02*
X127200380Y-75767809D01*
X127343238Y-75672571D01*
X127438476Y-75577333D01*
X127486095Y-75482095D01*
X127200380Y-76672571D02*
X127200380Y-76767809D01*
X127248000Y-76863047D01*
X127295619Y-76910666D01*
X127390857Y-76958285D01*
X127581333Y-77005904D01*
X127819428Y-77005904D01*
X128009904Y-76958285D01*
X128105142Y-76910666D01*
X128152761Y-76863047D01*
X128200380Y-76767809D01*
X128200380Y-76672571D01*
X128152761Y-76577333D01*
X128105142Y-76529714D01*
X128009904Y-76482095D01*
X127819428Y-76434476D01*
X127581333Y-76434476D01*
X127390857Y-76482095D01*
X127295619Y-76529714D01*
X127248000Y-76577333D01*
X127200380Y-76672571D01*
%TO.C,Q2*%
X128295619Y-73108761D02*
X128248000Y-73013523D01*
X128152761Y-72918285D01*
X128009904Y-72775428D01*
X127962285Y-72680190D01*
X127962285Y-72584952D01*
X128200380Y-72632571D02*
X128152761Y-72537333D01*
X128057523Y-72442095D01*
X127867047Y-72394476D01*
X127533714Y-72394476D01*
X127343238Y-72442095D01*
X127248000Y-72537333D01*
X127200380Y-72632571D01*
X127200380Y-72823047D01*
X127248000Y-72918285D01*
X127343238Y-73013523D01*
X127533714Y-73061142D01*
X127867047Y-73061142D01*
X128057523Y-73013523D01*
X128152761Y-72918285D01*
X128200380Y-72823047D01*
X128200380Y-72632571D01*
X127295619Y-73442095D02*
X127248000Y-73489714D01*
X127200380Y-73584952D01*
X127200380Y-73823047D01*
X127248000Y-73918285D01*
X127295619Y-73965904D01*
X127390857Y-74013523D01*
X127486095Y-74013523D01*
X127628952Y-73965904D01*
X128200380Y-73394476D01*
X128200380Y-74013523D01*
%TO.C,R14*%
X94227857Y-82800380D02*
X94561190Y-82324190D01*
X94799285Y-82800380D02*
X94799285Y-81800380D01*
X94418333Y-81800380D01*
X94323095Y-81848000D01*
X94275476Y-81895619D01*
X94227857Y-81990857D01*
X94227857Y-82133714D01*
X94275476Y-82228952D01*
X94323095Y-82276571D01*
X94418333Y-82324190D01*
X94799285Y-82324190D01*
X93275476Y-82800380D02*
X93846904Y-82800380D01*
X93561190Y-82800380D02*
X93561190Y-81800380D01*
X93656428Y-81943238D01*
X93751666Y-82038476D01*
X93846904Y-82086095D01*
X92418333Y-82133714D02*
X92418333Y-82800380D01*
X92656428Y-81752761D02*
X92894523Y-82467047D01*
X92275476Y-82467047D01*
%TO.C,D6*%
X90640095Y-81276380D02*
X90640095Y-80276380D01*
X90402000Y-80276380D01*
X90259142Y-80324000D01*
X90163904Y-80419238D01*
X90116285Y-80514476D01*
X90068666Y-80704952D01*
X90068666Y-80847809D01*
X90116285Y-81038285D01*
X90163904Y-81133523D01*
X90259142Y-81228761D01*
X90402000Y-81276380D01*
X90640095Y-81276380D01*
X89211523Y-80276380D02*
X89402000Y-80276380D01*
X89497238Y-80324000D01*
X89544857Y-80371619D01*
X89640095Y-80514476D01*
X89687714Y-80704952D01*
X89687714Y-81085904D01*
X89640095Y-81181142D01*
X89592476Y-81228761D01*
X89497238Y-81276380D01*
X89306761Y-81276380D01*
X89211523Y-81228761D01*
X89163904Y-81181142D01*
X89116285Y-81085904D01*
X89116285Y-80847809D01*
X89163904Y-80752571D01*
X89211523Y-80704952D01*
X89306761Y-80657333D01*
X89497238Y-80657333D01*
X89592476Y-80704952D01*
X89640095Y-80752571D01*
X89687714Y-80847809D01*
%TO.C,U2*%
X121270904Y-88023380D02*
X121270904Y-88832904D01*
X121223285Y-88928142D01*
X121175666Y-88975761D01*
X121080428Y-89023380D01*
X120889952Y-89023380D01*
X120794714Y-88975761D01*
X120747095Y-88928142D01*
X120699476Y-88832904D01*
X120699476Y-88023380D01*
X120270904Y-88118619D02*
X120223285Y-88071000D01*
X120128047Y-88023380D01*
X119889952Y-88023380D01*
X119794714Y-88071000D01*
X119747095Y-88118619D01*
X119699476Y-88213857D01*
X119699476Y-88309095D01*
X119747095Y-88451952D01*
X120318523Y-89023380D01*
X119699476Y-89023380D01*
%TO.C,R16*%
X128962380Y-84705142D02*
X128486190Y-84371809D01*
X128962380Y-84133714D02*
X127962380Y-84133714D01*
X127962380Y-84514666D01*
X128010000Y-84609904D01*
X128057619Y-84657523D01*
X128152857Y-84705142D01*
X128295714Y-84705142D01*
X128390952Y-84657523D01*
X128438571Y-84609904D01*
X128486190Y-84514666D01*
X128486190Y-84133714D01*
X128962380Y-85657523D02*
X128962380Y-85086095D01*
X128962380Y-85371809D02*
X127962380Y-85371809D01*
X128105238Y-85276571D01*
X128200476Y-85181333D01*
X128248095Y-85086095D01*
X127962380Y-86514666D02*
X127962380Y-86324190D01*
X128010000Y-86228952D01*
X128057619Y-86181333D01*
X128200476Y-86086095D01*
X128390952Y-86038476D01*
X128771904Y-86038476D01*
X128867142Y-86086095D01*
X128914761Y-86133714D01*
X128962380Y-86228952D01*
X128962380Y-86419428D01*
X128914761Y-86514666D01*
X128867142Y-86562285D01*
X128771904Y-86609904D01*
X128533809Y-86609904D01*
X128438571Y-86562285D01*
X128390952Y-86514666D01*
X128343333Y-86419428D01*
X128343333Y-86228952D01*
X128390952Y-86133714D01*
X128438571Y-86086095D01*
X128533809Y-86038476D01*
%TO.C,R15*%
X119183380Y-84832142D02*
X118707190Y-84498809D01*
X119183380Y-84260714D02*
X118183380Y-84260714D01*
X118183380Y-84641666D01*
X118231000Y-84736904D01*
X118278619Y-84784523D01*
X118373857Y-84832142D01*
X118516714Y-84832142D01*
X118611952Y-84784523D01*
X118659571Y-84736904D01*
X118707190Y-84641666D01*
X118707190Y-84260714D01*
X119183380Y-85784523D02*
X119183380Y-85213095D01*
X119183380Y-85498809D02*
X118183380Y-85498809D01*
X118326238Y-85403571D01*
X118421476Y-85308333D01*
X118469095Y-85213095D01*
X118183380Y-86689285D02*
X118183380Y-86213095D01*
X118659571Y-86165476D01*
X118611952Y-86213095D01*
X118564333Y-86308333D01*
X118564333Y-86546428D01*
X118611952Y-86641666D01*
X118659571Y-86689285D01*
X118754809Y-86736904D01*
X118992904Y-86736904D01*
X119088142Y-86689285D01*
X119135761Y-86641666D01*
X119183380Y-86546428D01*
X119183380Y-86308333D01*
X119135761Y-86213095D01*
X119088142Y-86165476D01*
%TO.C,D2*%
X128187880Y-67258904D02*
X127187880Y-67258904D01*
X127187880Y-67497000D01*
X127235500Y-67639857D01*
X127330738Y-67735095D01*
X127425976Y-67782714D01*
X127616452Y-67830333D01*
X127759309Y-67830333D01*
X127949785Y-67782714D01*
X128045023Y-67735095D01*
X128140261Y-67639857D01*
X128187880Y-67497000D01*
X128187880Y-67258904D01*
X127283119Y-68211285D02*
X127235500Y-68258904D01*
X127187880Y-68354142D01*
X127187880Y-68592238D01*
X127235500Y-68687476D01*
X127283119Y-68735095D01*
X127378357Y-68782714D01*
X127473595Y-68782714D01*
X127616452Y-68735095D01*
X128187880Y-68163666D01*
X128187880Y-68782714D01*
%TO.C,D1*%
X118281880Y-67258904D02*
X117281880Y-67258904D01*
X117281880Y-67497000D01*
X117329500Y-67639857D01*
X117424738Y-67735095D01*
X117519976Y-67782714D01*
X117710452Y-67830333D01*
X117853309Y-67830333D01*
X118043785Y-67782714D01*
X118139023Y-67735095D01*
X118234261Y-67639857D01*
X118281880Y-67497000D01*
X118281880Y-67258904D01*
X118281880Y-68782714D02*
X118281880Y-68211285D01*
X118281880Y-68497000D02*
X117281880Y-68497000D01*
X117424738Y-68401761D01*
X117519976Y-68306523D01*
X117567595Y-68211285D01*
%TO.C,R13*%
X93021380Y-75736142D02*
X92545190Y-75402809D01*
X93021380Y-75164714D02*
X92021380Y-75164714D01*
X92021380Y-75545666D01*
X92069000Y-75640904D01*
X92116619Y-75688523D01*
X92211857Y-75736142D01*
X92354714Y-75736142D01*
X92449952Y-75688523D01*
X92497571Y-75640904D01*
X92545190Y-75545666D01*
X92545190Y-75164714D01*
X93021380Y-76688523D02*
X93021380Y-76117095D01*
X93021380Y-76402809D02*
X92021380Y-76402809D01*
X92164238Y-76307571D01*
X92259476Y-76212333D01*
X92307095Y-76117095D01*
X92021380Y-77021857D02*
X92021380Y-77640904D01*
X92402333Y-77307571D01*
X92402333Y-77450428D01*
X92449952Y-77545666D01*
X92497571Y-77593285D01*
X92592809Y-77640904D01*
X92830904Y-77640904D01*
X92926142Y-77593285D01*
X92973761Y-77545666D01*
X93021380Y-77450428D01*
X93021380Y-77164714D01*
X92973761Y-77069476D01*
X92926142Y-77021857D01*
%TO.C,D5*%
X90640095Y-75307380D02*
X90640095Y-74307380D01*
X90402000Y-74307380D01*
X90259142Y-74355000D01*
X90163904Y-74450238D01*
X90116285Y-74545476D01*
X90068666Y-74735952D01*
X90068666Y-74878809D01*
X90116285Y-75069285D01*
X90163904Y-75164523D01*
X90259142Y-75259761D01*
X90402000Y-75307380D01*
X90640095Y-75307380D01*
X89163904Y-74307380D02*
X89640095Y-74307380D01*
X89687714Y-74783571D01*
X89640095Y-74735952D01*
X89544857Y-74688333D01*
X89306761Y-74688333D01*
X89211523Y-74735952D01*
X89163904Y-74783571D01*
X89116285Y-74878809D01*
X89116285Y-75116904D01*
X89163904Y-75212142D01*
X89211523Y-75259761D01*
X89306761Y-75307380D01*
X89544857Y-75307380D01*
X89640095Y-75259761D01*
X89687714Y-75212142D01*
%TO.C,U3*%
X131049904Y-88023380D02*
X131049904Y-88832904D01*
X131002285Y-88928142D01*
X130954666Y-88975761D01*
X130859428Y-89023380D01*
X130668952Y-89023380D01*
X130573714Y-88975761D01*
X130526095Y-88928142D01*
X130478476Y-88832904D01*
X130478476Y-88023380D01*
X130097523Y-88023380D02*
X129478476Y-88023380D01*
X129811809Y-88404333D01*
X129668952Y-88404333D01*
X129573714Y-88451952D01*
X129526095Y-88499571D01*
X129478476Y-88594809D01*
X129478476Y-88832904D01*
X129526095Y-88928142D01*
X129573714Y-88975761D01*
X129668952Y-89023380D01*
X129954666Y-89023380D01*
X130049904Y-88975761D01*
X130097523Y-88928142D01*
%TD*%
%LPC*%
%TO.C,C14*%
G36*
G01*
X109529000Y-110527000D02*
X109529000Y-111027000D01*
G75*
G02*
X109304000Y-111252000I-225000J0D01*
G01*
X108854000Y-111252000D01*
G75*
G02*
X108629000Y-111027000I0J225000D01*
G01*
X108629000Y-110527000D01*
G75*
G02*
X108854000Y-110302000I225000J0D01*
G01*
X109304000Y-110302000D01*
G75*
G02*
X109529000Y-110527000I0J-225000D01*
G01*
G37*
G36*
G01*
X107979000Y-110527000D02*
X107979000Y-111027000D01*
G75*
G02*
X107754000Y-111252000I-225000J0D01*
G01*
X107304000Y-111252000D01*
G75*
G02*
X107079000Y-111027000I0J225000D01*
G01*
X107079000Y-110527000D01*
G75*
G02*
X107304000Y-110302000I225000J0D01*
G01*
X107754000Y-110302000D01*
G75*
G02*
X107979000Y-110527000I0J-225000D01*
G01*
G37*
%TD*%
%TO.C,C16*%
G36*
G01*
X114036000Y-102834000D02*
X114536000Y-102834000D01*
G75*
G02*
X114761000Y-103059000I0J-225000D01*
G01*
X114761000Y-103509000D01*
G75*
G02*
X114536000Y-103734000I-225000J0D01*
G01*
X114036000Y-103734000D01*
G75*
G02*
X113811000Y-103509000I0J225000D01*
G01*
X113811000Y-103059000D01*
G75*
G02*
X114036000Y-102834000I225000J0D01*
G01*
G37*
G36*
G01*
X114036000Y-104384000D02*
X114536000Y-104384000D01*
G75*
G02*
X114761000Y-104609000I0J-225000D01*
G01*
X114761000Y-105059000D01*
G75*
G02*
X114536000Y-105284000I-225000J0D01*
G01*
X114036000Y-105284000D01*
G75*
G02*
X113811000Y-105059000I0J225000D01*
G01*
X113811000Y-104609000D01*
G75*
G02*
X114036000Y-104384000I225000J0D01*
G01*
G37*
%TD*%
%TO.C,R14*%
G36*
G01*
X89503000Y-107496000D02*
X89503000Y-106946000D01*
G75*
G02*
X89703000Y-106746000I200000J0D01*
G01*
X90103000Y-106746000D01*
G75*
G02*
X90303000Y-106946000I0J-200000D01*
G01*
X90303000Y-107496000D01*
G75*
G02*
X90103000Y-107696000I-200000J0D01*
G01*
X89703000Y-107696000D01*
G75*
G02*
X89503000Y-107496000I0J200000D01*
G01*
G37*
G36*
G01*
X91153000Y-107496000D02*
X91153000Y-106946000D01*
G75*
G02*
X91353000Y-106746000I200000J0D01*
G01*
X91753000Y-106746000D01*
G75*
G02*
X91953000Y-106946000I0J-200000D01*
G01*
X91953000Y-107496000D01*
G75*
G02*
X91753000Y-107696000I-200000J0D01*
G01*
X91353000Y-107696000D01*
G75*
G02*
X91153000Y-107496000I0J200000D01*
G01*
G37*
%TD*%
D12*
%TO.C,Q2*%
X130542000Y-96553000D03*
X128642000Y-96553000D03*
X129592000Y-94553000D03*
%TD*%
%TO.C,R10*%
G36*
G01*
X131069000Y-97802000D02*
X131069000Y-98352000D01*
G75*
G02*
X130869000Y-98552000I-200000J0D01*
G01*
X130469000Y-98552000D01*
G75*
G02*
X130269000Y-98352000I0J200000D01*
G01*
X130269000Y-97802000D01*
G75*
G02*
X130469000Y-97602000I200000J0D01*
G01*
X130869000Y-97602000D01*
G75*
G02*
X131069000Y-97802000I0J-200000D01*
G01*
G37*
G36*
G01*
X129419000Y-97802000D02*
X129419000Y-98352000D01*
G75*
G02*
X129219000Y-98552000I-200000J0D01*
G01*
X128819000Y-98552000D01*
G75*
G02*
X128619000Y-98352000I0J200000D01*
G01*
X128619000Y-97802000D01*
G75*
G02*
X128819000Y-97602000I200000J0D01*
G01*
X129219000Y-97602000D01*
G75*
G02*
X129419000Y-97802000I0J-200000D01*
G01*
G37*
%TD*%
%TO.C,R4*%
G36*
G01*
X131069000Y-99326000D02*
X131069000Y-99876000D01*
G75*
G02*
X130869000Y-100076000I-200000J0D01*
G01*
X130469000Y-100076000D01*
G75*
G02*
X130269000Y-99876000I0J200000D01*
G01*
X130269000Y-99326000D01*
G75*
G02*
X130469000Y-99126000I200000J0D01*
G01*
X130869000Y-99126000D01*
G75*
G02*
X131069000Y-99326000I0J-200000D01*
G01*
G37*
G36*
G01*
X129419000Y-99326000D02*
X129419000Y-99876000D01*
G75*
G02*
X129219000Y-100076000I-200000J0D01*
G01*
X128819000Y-100076000D01*
G75*
G02*
X128619000Y-99876000I0J200000D01*
G01*
X128619000Y-99326000D01*
G75*
G02*
X128819000Y-99126000I200000J0D01*
G01*
X129219000Y-99126000D01*
G75*
G02*
X129419000Y-99326000I0J-200000D01*
G01*
G37*
%TD*%
%TO.C,C19*%
G36*
G01*
X109464000Y-92648000D02*
X109964000Y-92648000D01*
G75*
G02*
X110189000Y-92873000I0J-225000D01*
G01*
X110189000Y-93323000D01*
G75*
G02*
X109964000Y-93548000I-225000J0D01*
G01*
X109464000Y-93548000D01*
G75*
G02*
X109239000Y-93323000I0J225000D01*
G01*
X109239000Y-92873000D01*
G75*
G02*
X109464000Y-92648000I225000J0D01*
G01*
G37*
G36*
G01*
X109464000Y-94198000D02*
X109964000Y-94198000D01*
G75*
G02*
X110189000Y-94423000I0J-225000D01*
G01*
X110189000Y-94873000D01*
G75*
G02*
X109964000Y-95098000I-225000J0D01*
G01*
X109464000Y-95098000D01*
G75*
G02*
X109239000Y-94873000I0J225000D01*
G01*
X109239000Y-94423000D01*
G75*
G02*
X109464000Y-94198000I225000J0D01*
G01*
G37*
%TD*%
%TO.C,L1*%
G36*
G01*
X102724500Y-111735001D02*
X102724500Y-110834999D01*
G75*
G02*
X102974499Y-110585000I249999J0D01*
G01*
X103499501Y-110585000D01*
G75*
G02*
X103749500Y-110834999I0J-249999D01*
G01*
X103749500Y-111735001D01*
G75*
G02*
X103499501Y-111985000I-249999J0D01*
G01*
X102974499Y-111985000D01*
G75*
G02*
X102724500Y-111735001I0J249999D01*
G01*
G37*
G36*
G01*
X104549500Y-111735001D02*
X104549500Y-110834999D01*
G75*
G02*
X104799499Y-110585000I249999J0D01*
G01*
X105324501Y-110585000D01*
G75*
G02*
X105574500Y-110834999I0J-249999D01*
G01*
X105574500Y-111735001D01*
G75*
G02*
X105324501Y-111985000I-249999J0D01*
G01*
X104799499Y-111985000D01*
G75*
G02*
X104549500Y-111735001I0J249999D01*
G01*
G37*
%TD*%
%TO.C,R27*%
G36*
G01*
X118837000Y-100598000D02*
X119387000Y-100598000D01*
G75*
G02*
X119587000Y-100798000I0J-200000D01*
G01*
X119587000Y-101198000D01*
G75*
G02*
X119387000Y-101398000I-200000J0D01*
G01*
X118837000Y-101398000D01*
G75*
G02*
X118637000Y-101198000I0J200000D01*
G01*
X118637000Y-100798000D01*
G75*
G02*
X118837000Y-100598000I200000J0D01*
G01*
G37*
G36*
G01*
X118837000Y-102248000D02*
X119387000Y-102248000D01*
G75*
G02*
X119587000Y-102448000I0J-200000D01*
G01*
X119587000Y-102848000D01*
G75*
G02*
X119387000Y-103048000I-200000J0D01*
G01*
X118837000Y-103048000D01*
G75*
G02*
X118637000Y-102848000I0J200000D01*
G01*
X118637000Y-102448000D01*
G75*
G02*
X118837000Y-102248000I200000J0D01*
G01*
G37*
%TD*%
D13*
%TO.C,F1*%
X124700000Y-110142000D03*
D14*
X124700000Y-102522000D03*
%TD*%
D15*
%TO.C,KP1*%
X101205000Y-103157000D03*
%TD*%
D16*
%TO.C,J6*%
X103999000Y-97950000D03*
D17*
X103999000Y-96680000D03*
X102729000Y-97950000D03*
X102729000Y-96680000D03*
X101459000Y-97950000D03*
X101459000Y-96680000D03*
%TD*%
D16*
%TO.C,JP4*%
X114540000Y-93632000D03*
D17*
X114540000Y-94902000D03*
X115810000Y-93632000D03*
X115810000Y-94902000D03*
%TD*%
D18*
%TO.C,J1*%
X93458000Y-114714000D03*
D19*
X90918000Y-115222000D03*
X88378000Y-115222000D03*
%TD*%
D18*
%TO.C,J3*%
X125716000Y-114714000D03*
D19*
X123176000Y-115222000D03*
X120636000Y-115222000D03*
%TD*%
D18*
%TO.C,J4*%
X135622000Y-114714000D03*
D19*
X133082000Y-115222000D03*
X130542000Y-115222000D03*
%TD*%
D20*
%TO.C,U1*%
X93458000Y-94013000D03*
X93458000Y-96553000D03*
X93458000Y-109253000D03*
D21*
X93458000Y-114333000D03*
%TD*%
D22*
%TO.C,U4*%
X99427000Y-93378000D03*
D13*
X99427000Y-95918000D03*
X99427000Y-98458000D03*
X99427000Y-100998000D03*
X99436500Y-106078000D03*
X99427000Y-108618000D03*
X99427000Y-111158000D03*
%TD*%
D16*
%TO.C,U7*%
X93839000Y-100617000D03*
D23*
X93839000Y-101887000D03*
X95109000Y-100617000D03*
X95109000Y-101887000D03*
X96379000Y-100617000D03*
X96379000Y-101887000D03*
D16*
X113651000Y-100617000D03*
D23*
X113651000Y-101887000D03*
X114921000Y-100617000D03*
X114921000Y-101887000D03*
X116191000Y-100617000D03*
X116191000Y-101887000D03*
%TD*%
D13*
%TO.C,F2*%
X134733000Y-110142000D03*
D14*
X134733000Y-102522000D03*
%TD*%
D16*
%TO.C,J2*%
X90791000Y-97950000D03*
D17*
X90791000Y-96680000D03*
X89521000Y-97950000D03*
X89521000Y-96680000D03*
X88251000Y-97950000D03*
X88251000Y-96680000D03*
%TD*%
D24*
%TO.C,U3*%
X135622000Y-114460000D03*
D25*
X135622000Y-106840000D03*
X135622000Y-96680000D03*
X135622000Y-94140000D03*
%TD*%
%TO.C,D5*%
G36*
G01*
X87867750Y-99366500D02*
X88380250Y-99366500D01*
G75*
G02*
X88599000Y-99585250I0J-218750D01*
G01*
X88599000Y-100022750D01*
G75*
G02*
X88380250Y-100241500I-218750J0D01*
G01*
X87867750Y-100241500D01*
G75*
G02*
X87649000Y-100022750I0J218750D01*
G01*
X87649000Y-99585250D01*
G75*
G02*
X87867750Y-99366500I218750J0D01*
G01*
G37*
G36*
G01*
X87867750Y-100941500D02*
X88380250Y-100941500D01*
G75*
G02*
X88599000Y-101160250I0J-218750D01*
G01*
X88599000Y-101597750D01*
G75*
G02*
X88380250Y-101816500I-218750J0D01*
G01*
X87867750Y-101816500D01*
G75*
G02*
X87649000Y-101597750I0J218750D01*
G01*
X87649000Y-101160250D01*
G75*
G02*
X87867750Y-100941500I218750J0D01*
G01*
G37*
%TD*%
%TO.C,R13*%
G36*
G01*
X89375000Y-101654000D02*
X89375000Y-101104000D01*
G75*
G02*
X89575000Y-100904000I200000J0D01*
G01*
X89975000Y-100904000D01*
G75*
G02*
X90175000Y-101104000I0J-200000D01*
G01*
X90175000Y-101654000D01*
G75*
G02*
X89975000Y-101854000I-200000J0D01*
G01*
X89575000Y-101854000D01*
G75*
G02*
X89375000Y-101654000I0J200000D01*
G01*
G37*
G36*
G01*
X91025000Y-101654000D02*
X91025000Y-101104000D01*
G75*
G02*
X91225000Y-100904000I200000J0D01*
G01*
X91625000Y-100904000D01*
G75*
G02*
X91825000Y-101104000I0J-200000D01*
G01*
X91825000Y-101654000D01*
G75*
G02*
X91625000Y-101854000I-200000J0D01*
G01*
X91225000Y-101854000D01*
G75*
G02*
X91025000Y-101654000I0J200000D01*
G01*
G37*
%TD*%
%TO.C,D1*%
G36*
G01*
X118738000Y-93253250D02*
X118738000Y-92740750D01*
G75*
G02*
X118956750Y-92522000I218750J0D01*
G01*
X119394250Y-92522000D01*
G75*
G02*
X119613000Y-92740750I0J-218750D01*
G01*
X119613000Y-93253250D01*
G75*
G02*
X119394250Y-93472000I-218750J0D01*
G01*
X118956750Y-93472000D01*
G75*
G02*
X118738000Y-93253250I0J218750D01*
G01*
G37*
G36*
G01*
X120313000Y-93253250D02*
X120313000Y-92740750D01*
G75*
G02*
X120531750Y-92522000I218750J0D01*
G01*
X120969250Y-92522000D01*
G75*
G02*
X121188000Y-92740750I0J-218750D01*
G01*
X121188000Y-93253250D01*
G75*
G02*
X120969250Y-93472000I-218750J0D01*
G01*
X120531750Y-93472000D01*
G75*
G02*
X120313000Y-93253250I0J218750D01*
G01*
G37*
%TD*%
%TO.C,D2*%
G36*
G01*
X128644000Y-93253250D02*
X128644000Y-92740750D01*
G75*
G02*
X128862750Y-92522000I218750J0D01*
G01*
X129300250Y-92522000D01*
G75*
G02*
X129519000Y-92740750I0J-218750D01*
G01*
X129519000Y-93253250D01*
G75*
G02*
X129300250Y-93472000I-218750J0D01*
G01*
X128862750Y-93472000D01*
G75*
G02*
X128644000Y-93253250I0J218750D01*
G01*
G37*
G36*
G01*
X130219000Y-93253250D02*
X130219000Y-92740750D01*
G75*
G02*
X130437750Y-92522000I218750J0D01*
G01*
X130875250Y-92522000D01*
G75*
G02*
X131094000Y-92740750I0J-218750D01*
G01*
X131094000Y-93253250D01*
G75*
G02*
X130875250Y-93472000I-218750J0D01*
G01*
X130437750Y-93472000D01*
G75*
G02*
X130219000Y-93253250I0J218750D01*
G01*
G37*
%TD*%
%TO.C,R12*%
G36*
G01*
X102780500Y-115279999D02*
X102780500Y-116180001D01*
G75*
G02*
X102530501Y-116430000I-249999J0D01*
G01*
X102005499Y-116430000D01*
G75*
G02*
X101755500Y-116180001I0J249999D01*
G01*
X101755500Y-115279999D01*
G75*
G02*
X102005499Y-115030000I249999J0D01*
G01*
X102530501Y-115030000D01*
G75*
G02*
X102780500Y-115279999I0J-249999D01*
G01*
G37*
G36*
G01*
X100955500Y-115279999D02*
X100955500Y-116180001D01*
G75*
G02*
X100705501Y-116430000I-249999J0D01*
G01*
X100180499Y-116430000D01*
G75*
G02*
X99930500Y-116180001I0J249999D01*
G01*
X99930500Y-115279999D01*
G75*
G02*
X100180499Y-115030000I249999J0D01*
G01*
X100705501Y-115030000D01*
G75*
G02*
X100955500Y-115279999I0J-249999D01*
G01*
G37*
%TD*%
%TO.C,R17*%
G36*
G01*
X109892500Y-113247999D02*
X109892500Y-114148001D01*
G75*
G02*
X109642501Y-114398000I-249999J0D01*
G01*
X109117499Y-114398000D01*
G75*
G02*
X108867500Y-114148001I0J249999D01*
G01*
X108867500Y-113247999D01*
G75*
G02*
X109117499Y-112998000I249999J0D01*
G01*
X109642501Y-112998000D01*
G75*
G02*
X109892500Y-113247999I0J-249999D01*
G01*
G37*
G36*
G01*
X108067500Y-113247999D02*
X108067500Y-114148001D01*
G75*
G02*
X107817501Y-114398000I-249999J0D01*
G01*
X107292499Y-114398000D01*
G75*
G02*
X107042500Y-114148001I0J249999D01*
G01*
X107042500Y-113247999D01*
G75*
G02*
X107292499Y-112998000I249999J0D01*
G01*
X107817501Y-112998000D01*
G75*
G02*
X108067500Y-113247999I0J-249999D01*
G01*
G37*
%TD*%
%TO.C,R22*%
G36*
G01*
X110678500Y-114148001D02*
X110678500Y-113247999D01*
G75*
G02*
X110928499Y-112998000I249999J0D01*
G01*
X111453501Y-112998000D01*
G75*
G02*
X111703500Y-113247999I0J-249999D01*
G01*
X111703500Y-114148001D01*
G75*
G02*
X111453501Y-114398000I-249999J0D01*
G01*
X110928499Y-114398000D01*
G75*
G02*
X110678500Y-114148001I0J249999D01*
G01*
G37*
G36*
G01*
X112503500Y-114148001D02*
X112503500Y-113247999D01*
G75*
G02*
X112753499Y-112998000I249999J0D01*
G01*
X113278501Y-112998000D01*
G75*
G02*
X113528500Y-113247999I0J-249999D01*
G01*
X113528500Y-114148001D01*
G75*
G02*
X113278501Y-114398000I-249999J0D01*
G01*
X112753499Y-114398000D01*
G75*
G02*
X112503500Y-114148001I0J249999D01*
G01*
G37*
%TD*%
%TO.C,R26*%
G36*
G01*
X112018000Y-99707000D02*
X112018000Y-100257000D01*
G75*
G02*
X111818000Y-100457000I-200000J0D01*
G01*
X111418000Y-100457000D01*
G75*
G02*
X111218000Y-100257000I0J200000D01*
G01*
X111218000Y-99707000D01*
G75*
G02*
X111418000Y-99507000I200000J0D01*
G01*
X111818000Y-99507000D01*
G75*
G02*
X112018000Y-99707000I0J-200000D01*
G01*
G37*
G36*
G01*
X110368000Y-99707000D02*
X110368000Y-100257000D01*
G75*
G02*
X110168000Y-100457000I-200000J0D01*
G01*
X109768000Y-100457000D01*
G75*
G02*
X109568000Y-100257000I0J200000D01*
G01*
X109568000Y-99707000D01*
G75*
G02*
X109768000Y-99507000I200000J0D01*
G01*
X110168000Y-99507000D01*
G75*
G02*
X110368000Y-99707000I0J-200000D01*
G01*
G37*
%TD*%
D26*
%TO.C,U6*%
X112807000Y-108872000D03*
X112157000Y-108872000D03*
X111507000Y-108872000D03*
X110857000Y-108872000D03*
X110207000Y-108872000D03*
X109557000Y-108872000D03*
X108907000Y-108872000D03*
X108257000Y-108872000D03*
X108257000Y-103072000D03*
X108907000Y-103072000D03*
X109557000Y-103072000D03*
X110207000Y-103072000D03*
X110857000Y-103072000D03*
X111507000Y-103072000D03*
X112157000Y-103072000D03*
X112807000Y-103072000D03*
%TD*%
D27*
%TO.C,Y2*%
X109530000Y-97315000D03*
X110730000Y-97315000D03*
X111930000Y-97315000D03*
%TD*%
D28*
%TO.C,GND1*%
X90537000Y-103665000D03*
%TD*%
%TO.C,C6*%
G36*
G01*
X97518000Y-95987000D02*
X97018000Y-95987000D01*
G75*
G02*
X96793000Y-95762000I0J225000D01*
G01*
X96793000Y-95312000D01*
G75*
G02*
X97018000Y-95087000I225000J0D01*
G01*
X97518000Y-95087000D01*
G75*
G02*
X97743000Y-95312000I0J-225000D01*
G01*
X97743000Y-95762000D01*
G75*
G02*
X97518000Y-95987000I-225000J0D01*
G01*
G37*
G36*
G01*
X97518000Y-94437000D02*
X97018000Y-94437000D01*
G75*
G02*
X96793000Y-94212000I0J225000D01*
G01*
X96793000Y-93762000D01*
G75*
G02*
X97018000Y-93537000I225000J0D01*
G01*
X97518000Y-93537000D01*
G75*
G02*
X97743000Y-93762000I0J-225000D01*
G01*
X97743000Y-94212000D01*
G75*
G02*
X97518000Y-94437000I-225000J0D01*
G01*
G37*
%TD*%
%TO.C,C8*%
G36*
G01*
X95968000Y-95987000D02*
X95468000Y-95987000D01*
G75*
G02*
X95243000Y-95762000I0J225000D01*
G01*
X95243000Y-95312000D01*
G75*
G02*
X95468000Y-95087000I225000J0D01*
G01*
X95968000Y-95087000D01*
G75*
G02*
X96193000Y-95312000I0J-225000D01*
G01*
X96193000Y-95762000D01*
G75*
G02*
X95968000Y-95987000I-225000J0D01*
G01*
G37*
G36*
G01*
X95968000Y-94437000D02*
X95468000Y-94437000D01*
G75*
G02*
X95243000Y-94212000I0J225000D01*
G01*
X95243000Y-93762000D01*
G75*
G02*
X95468000Y-93537000I225000J0D01*
G01*
X95968000Y-93537000D01*
G75*
G02*
X96193000Y-93762000I0J-225000D01*
G01*
X96193000Y-94212000D01*
G75*
G02*
X95968000Y-94437000I-225000J0D01*
G01*
G37*
%TD*%
%TO.C,C13*%
G36*
G01*
X113516000Y-111064000D02*
X113516000Y-112014000D01*
G75*
G02*
X113266000Y-112264000I-250000J0D01*
G01*
X112766000Y-112264000D01*
G75*
G02*
X112516000Y-112014000I0J250000D01*
G01*
X112516000Y-111064000D01*
G75*
G02*
X112766000Y-110814000I250000J0D01*
G01*
X113266000Y-110814000D01*
G75*
G02*
X113516000Y-111064000I0J-250000D01*
G01*
G37*
G36*
G01*
X111616000Y-111064000D02*
X111616000Y-112014000D01*
G75*
G02*
X111366000Y-112264000I-250000J0D01*
G01*
X110866000Y-112264000D01*
G75*
G02*
X110616000Y-112014000I0J250000D01*
G01*
X110616000Y-111064000D01*
G75*
G02*
X110866000Y-110814000I250000J0D01*
G01*
X111366000Y-110814000D01*
G75*
G02*
X111616000Y-111064000I0J-250000D01*
G01*
G37*
%TD*%
%TO.C,C18*%
G36*
G01*
X111496000Y-92648000D02*
X111996000Y-92648000D01*
G75*
G02*
X112221000Y-92873000I0J-225000D01*
G01*
X112221000Y-93323000D01*
G75*
G02*
X111996000Y-93548000I-225000J0D01*
G01*
X111496000Y-93548000D01*
G75*
G02*
X111271000Y-93323000I0J225000D01*
G01*
X111271000Y-92873000D01*
G75*
G02*
X111496000Y-92648000I225000J0D01*
G01*
G37*
G36*
G01*
X111496000Y-94198000D02*
X111996000Y-94198000D01*
G75*
G02*
X112221000Y-94423000I0J-225000D01*
G01*
X112221000Y-94873000D01*
G75*
G02*
X111996000Y-95098000I-225000J0D01*
G01*
X111496000Y-95098000D01*
G75*
G02*
X111271000Y-94873000I0J225000D01*
G01*
X111271000Y-94423000D01*
G75*
G02*
X111496000Y-94198000I225000J0D01*
G01*
G37*
%TD*%
D29*
%TO.C,R15*%
X120382000Y-111872000D03*
X120382000Y-108872000D03*
%TD*%
D12*
%TO.C,Q1*%
X120636000Y-96521000D03*
X118736000Y-96521000D03*
X119686000Y-94521000D03*
%TD*%
%TO.C,R3*%
G36*
G01*
X121163000Y-99326000D02*
X121163000Y-99876000D01*
G75*
G02*
X120963000Y-100076000I-200000J0D01*
G01*
X120563000Y-100076000D01*
G75*
G02*
X120363000Y-99876000I0J200000D01*
G01*
X120363000Y-99326000D01*
G75*
G02*
X120563000Y-99126000I200000J0D01*
G01*
X120963000Y-99126000D01*
G75*
G02*
X121163000Y-99326000I0J-200000D01*
G01*
G37*
G36*
G01*
X119513000Y-99326000D02*
X119513000Y-99876000D01*
G75*
G02*
X119313000Y-100076000I-200000J0D01*
G01*
X118913000Y-100076000D01*
G75*
G02*
X118713000Y-99876000I0J200000D01*
G01*
X118713000Y-99326000D01*
G75*
G02*
X118913000Y-99126000I200000J0D01*
G01*
X119313000Y-99126000D01*
G75*
G02*
X119513000Y-99326000I0J-200000D01*
G01*
G37*
%TD*%
%TO.C,R7*%
G36*
G01*
X121163000Y-97802000D02*
X121163000Y-98352000D01*
G75*
G02*
X120963000Y-98552000I-200000J0D01*
G01*
X120563000Y-98552000D01*
G75*
G02*
X120363000Y-98352000I0J200000D01*
G01*
X120363000Y-97802000D01*
G75*
G02*
X120563000Y-97602000I200000J0D01*
G01*
X120963000Y-97602000D01*
G75*
G02*
X121163000Y-97802000I0J-200000D01*
G01*
G37*
G36*
G01*
X119513000Y-97802000D02*
X119513000Y-98352000D01*
G75*
G02*
X119313000Y-98552000I-200000J0D01*
G01*
X118913000Y-98552000D01*
G75*
G02*
X118713000Y-98352000I0J200000D01*
G01*
X118713000Y-97802000D01*
G75*
G02*
X118913000Y-97602000I200000J0D01*
G01*
X119313000Y-97602000D01*
G75*
G02*
X119513000Y-97802000I0J-200000D01*
G01*
G37*
%TD*%
%TO.C,R11*%
G36*
G01*
X106336500Y-114009999D02*
X106336500Y-114910001D01*
G75*
G02*
X106086501Y-115160000I-249999J0D01*
G01*
X105561499Y-115160000D01*
G75*
G02*
X105311500Y-114910001I0J249999D01*
G01*
X105311500Y-114009999D01*
G75*
G02*
X105561499Y-113760000I249999J0D01*
G01*
X106086501Y-113760000D01*
G75*
G02*
X106336500Y-114009999I0J-249999D01*
G01*
G37*
G36*
G01*
X104511500Y-114009999D02*
X104511500Y-114910001D01*
G75*
G02*
X104261501Y-115160000I-249999J0D01*
G01*
X103736499Y-115160000D01*
G75*
G02*
X103486500Y-114910001I0J249999D01*
G01*
X103486500Y-114009999D01*
G75*
G02*
X103736499Y-113760000I249999J0D01*
G01*
X104261501Y-113760000D01*
G75*
G02*
X104511500Y-114009999I0J-249999D01*
G01*
G37*
%TD*%
D24*
%TO.C,U2*%
X125716000Y-114460000D03*
D25*
X125716000Y-106840000D03*
X125716000Y-96680000D03*
X125716000Y-94140000D03*
%TD*%
%TO.C,D6*%
G36*
G01*
X87867750Y-105259500D02*
X88380250Y-105259500D01*
G75*
G02*
X88599000Y-105478250I0J-218750D01*
G01*
X88599000Y-105915750D01*
G75*
G02*
X88380250Y-106134500I-218750J0D01*
G01*
X87867750Y-106134500D01*
G75*
G02*
X87649000Y-105915750I0J218750D01*
G01*
X87649000Y-105478250D01*
G75*
G02*
X87867750Y-105259500I218750J0D01*
G01*
G37*
G36*
G01*
X87867750Y-106834500D02*
X88380250Y-106834500D01*
G75*
G02*
X88599000Y-107053250I0J-218750D01*
G01*
X88599000Y-107490750D01*
G75*
G02*
X88380250Y-107709500I-218750J0D01*
G01*
X87867750Y-107709500D01*
G75*
G02*
X87649000Y-107490750I0J218750D01*
G01*
X87649000Y-107053250D01*
G75*
G02*
X87867750Y-106834500I218750J0D01*
G01*
G37*
%TD*%
D29*
%TO.C,R16*%
X130161000Y-111872000D03*
X130161000Y-108872000D03*
%TD*%
D23*
%TO.C,U7*%
X116191000Y-76887000D03*
X116191000Y-75617000D03*
X114921000Y-76887000D03*
X114921000Y-75617000D03*
X113651000Y-76887000D03*
D16*
X113651000Y-75617000D03*
D23*
X96379000Y-76887000D03*
X96379000Y-75617000D03*
X95109000Y-76887000D03*
X95109000Y-75617000D03*
X93839000Y-76887000D03*
D16*
X93839000Y-75617000D03*
%TD*%
D13*
%TO.C,U4*%
X99427000Y-86158000D03*
X99427000Y-83618000D03*
X99436500Y-81078000D03*
X99427000Y-75998000D03*
X99427000Y-73458000D03*
X99427000Y-70918000D03*
D22*
X99427000Y-68378000D03*
%TD*%
D21*
%TO.C,U1*%
X93458000Y-89333000D03*
D20*
X93458000Y-84253000D03*
X93458000Y-71553000D03*
X93458000Y-69013000D03*
%TD*%
D19*
%TO.C,J4*%
X130542000Y-90222000D03*
X133082000Y-90222000D03*
D18*
X135622000Y-89714000D03*
%TD*%
D19*
%TO.C,J3*%
X120636000Y-90222000D03*
X123176000Y-90222000D03*
D18*
X125716000Y-89714000D03*
%TD*%
D19*
%TO.C,J1*%
X88378000Y-90222000D03*
X90918000Y-90222000D03*
D18*
X93458000Y-89714000D03*
%TD*%
D17*
%TO.C,JP4*%
X115810000Y-69902000D03*
X115810000Y-68632000D03*
X114540000Y-69902000D03*
D16*
X114540000Y-68632000D03*
%TD*%
D17*
%TO.C,J6*%
X101459000Y-71680000D03*
X101459000Y-72950000D03*
X102729000Y-71680000D03*
X102729000Y-72950000D03*
X103999000Y-71680000D03*
D16*
X103999000Y-72950000D03*
%TD*%
D15*
%TO.C,KP1*%
X101205000Y-78157000D03*
%TD*%
D14*
%TO.C,F1*%
X124700000Y-77522000D03*
D13*
X124700000Y-85142000D03*
%TD*%
%TO.C,R27*%
G36*
G01*
X118837000Y-77248000D02*
X119387000Y-77248000D01*
G75*
G02*
X119587000Y-77448000I0J-200000D01*
G01*
X119587000Y-77848000D01*
G75*
G02*
X119387000Y-78048000I-200000J0D01*
G01*
X118837000Y-78048000D01*
G75*
G02*
X118637000Y-77848000I0J200000D01*
G01*
X118637000Y-77448000D01*
G75*
G02*
X118837000Y-77248000I200000J0D01*
G01*
G37*
G36*
G01*
X118837000Y-75598000D02*
X119387000Y-75598000D01*
G75*
G02*
X119587000Y-75798000I0J-200000D01*
G01*
X119587000Y-76198000D01*
G75*
G02*
X119387000Y-76398000I-200000J0D01*
G01*
X118837000Y-76398000D01*
G75*
G02*
X118637000Y-76198000I0J200000D01*
G01*
X118637000Y-75798000D01*
G75*
G02*
X118837000Y-75598000I200000J0D01*
G01*
G37*
%TD*%
%TO.C,L1*%
G36*
G01*
X104549500Y-86735001D02*
X104549500Y-85834999D01*
G75*
G02*
X104799499Y-85585000I249999J0D01*
G01*
X105324501Y-85585000D01*
G75*
G02*
X105574500Y-85834999I0J-249999D01*
G01*
X105574500Y-86735001D01*
G75*
G02*
X105324501Y-86985000I-249999J0D01*
G01*
X104799499Y-86985000D01*
G75*
G02*
X104549500Y-86735001I0J249999D01*
G01*
G37*
G36*
G01*
X102724500Y-86735001D02*
X102724500Y-85834999D01*
G75*
G02*
X102974499Y-85585000I249999J0D01*
G01*
X103499501Y-85585000D01*
G75*
G02*
X103749500Y-85834999I0J-249999D01*
G01*
X103749500Y-86735001D01*
G75*
G02*
X103499501Y-86985000I-249999J0D01*
G01*
X102974499Y-86985000D01*
G75*
G02*
X102724500Y-86735001I0J249999D01*
G01*
G37*
%TD*%
%TO.C,C16*%
G36*
G01*
X114036000Y-79384000D02*
X114536000Y-79384000D01*
G75*
G02*
X114761000Y-79609000I0J-225000D01*
G01*
X114761000Y-80059000D01*
G75*
G02*
X114536000Y-80284000I-225000J0D01*
G01*
X114036000Y-80284000D01*
G75*
G02*
X113811000Y-80059000I0J225000D01*
G01*
X113811000Y-79609000D01*
G75*
G02*
X114036000Y-79384000I225000J0D01*
G01*
G37*
G36*
G01*
X114036000Y-77834000D02*
X114536000Y-77834000D01*
G75*
G02*
X114761000Y-78059000I0J-225000D01*
G01*
X114761000Y-78509000D01*
G75*
G02*
X114536000Y-78734000I-225000J0D01*
G01*
X114036000Y-78734000D01*
G75*
G02*
X113811000Y-78509000I0J225000D01*
G01*
X113811000Y-78059000D01*
G75*
G02*
X114036000Y-77834000I225000J0D01*
G01*
G37*
%TD*%
%TO.C,C14*%
G36*
G01*
X107979000Y-85527000D02*
X107979000Y-86027000D01*
G75*
G02*
X107754000Y-86252000I-225000J0D01*
G01*
X107304000Y-86252000D01*
G75*
G02*
X107079000Y-86027000I0J225000D01*
G01*
X107079000Y-85527000D01*
G75*
G02*
X107304000Y-85302000I225000J0D01*
G01*
X107754000Y-85302000D01*
G75*
G02*
X107979000Y-85527000I0J-225000D01*
G01*
G37*
G36*
G01*
X109529000Y-85527000D02*
X109529000Y-86027000D01*
G75*
G02*
X109304000Y-86252000I-225000J0D01*
G01*
X108854000Y-86252000D01*
G75*
G02*
X108629000Y-86027000I0J225000D01*
G01*
X108629000Y-85527000D01*
G75*
G02*
X108854000Y-85302000I225000J0D01*
G01*
X109304000Y-85302000D01*
G75*
G02*
X109529000Y-85527000I0J-225000D01*
G01*
G37*
%TD*%
D28*
%TO.C,GND1*%
X90537000Y-78665000D03*
%TD*%
D27*
%TO.C,Y2*%
X111930000Y-72315000D03*
X110730000Y-72315000D03*
X109530000Y-72315000D03*
%TD*%
D26*
%TO.C,U6*%
X112807000Y-78072000D03*
X112157000Y-78072000D03*
X111507000Y-78072000D03*
X110857000Y-78072000D03*
X110207000Y-78072000D03*
X109557000Y-78072000D03*
X108907000Y-78072000D03*
X108257000Y-78072000D03*
X108257000Y-83872000D03*
X108907000Y-83872000D03*
X109557000Y-83872000D03*
X110207000Y-83872000D03*
X110857000Y-83872000D03*
X111507000Y-83872000D03*
X112157000Y-83872000D03*
X112807000Y-83872000D03*
%TD*%
%TO.C,R26*%
G36*
G01*
X110368000Y-74707000D02*
X110368000Y-75257000D01*
G75*
G02*
X110168000Y-75457000I-200000J0D01*
G01*
X109768000Y-75457000D01*
G75*
G02*
X109568000Y-75257000I0J200000D01*
G01*
X109568000Y-74707000D01*
G75*
G02*
X109768000Y-74507000I200000J0D01*
G01*
X110168000Y-74507000D01*
G75*
G02*
X110368000Y-74707000I0J-200000D01*
G01*
G37*
G36*
G01*
X112018000Y-74707000D02*
X112018000Y-75257000D01*
G75*
G02*
X111818000Y-75457000I-200000J0D01*
G01*
X111418000Y-75457000D01*
G75*
G02*
X111218000Y-75257000I0J200000D01*
G01*
X111218000Y-74707000D01*
G75*
G02*
X111418000Y-74507000I200000J0D01*
G01*
X111818000Y-74507000D01*
G75*
G02*
X112018000Y-74707000I0J-200000D01*
G01*
G37*
%TD*%
%TO.C,R22*%
G36*
G01*
X112503500Y-89148001D02*
X112503500Y-88247999D01*
G75*
G02*
X112753499Y-87998000I249999J0D01*
G01*
X113278501Y-87998000D01*
G75*
G02*
X113528500Y-88247999I0J-249999D01*
G01*
X113528500Y-89148001D01*
G75*
G02*
X113278501Y-89398000I-249999J0D01*
G01*
X112753499Y-89398000D01*
G75*
G02*
X112503500Y-89148001I0J249999D01*
G01*
G37*
G36*
G01*
X110678500Y-89148001D02*
X110678500Y-88247999D01*
G75*
G02*
X110928499Y-87998000I249999J0D01*
G01*
X111453501Y-87998000D01*
G75*
G02*
X111703500Y-88247999I0J-249999D01*
G01*
X111703500Y-89148001D01*
G75*
G02*
X111453501Y-89398000I-249999J0D01*
G01*
X110928499Y-89398000D01*
G75*
G02*
X110678500Y-89148001I0J249999D01*
G01*
G37*
%TD*%
%TO.C,R17*%
G36*
G01*
X108067500Y-88247999D02*
X108067500Y-89148001D01*
G75*
G02*
X107817501Y-89398000I-249999J0D01*
G01*
X107292499Y-89398000D01*
G75*
G02*
X107042500Y-89148001I0J249999D01*
G01*
X107042500Y-88247999D01*
G75*
G02*
X107292499Y-87998000I249999J0D01*
G01*
X107817501Y-87998000D01*
G75*
G02*
X108067500Y-88247999I0J-249999D01*
G01*
G37*
G36*
G01*
X109892500Y-88247999D02*
X109892500Y-89148001D01*
G75*
G02*
X109642501Y-89398000I-249999J0D01*
G01*
X109117499Y-89398000D01*
G75*
G02*
X108867500Y-89148001I0J249999D01*
G01*
X108867500Y-88247999D01*
G75*
G02*
X109117499Y-87998000I249999J0D01*
G01*
X109642501Y-87998000D01*
G75*
G02*
X109892500Y-88247999I0J-249999D01*
G01*
G37*
%TD*%
%TO.C,R12*%
G36*
G01*
X100955500Y-90279999D02*
X100955500Y-91180001D01*
G75*
G02*
X100705501Y-91430000I-249999J0D01*
G01*
X100180499Y-91430000D01*
G75*
G02*
X99930500Y-91180001I0J249999D01*
G01*
X99930500Y-90279999D01*
G75*
G02*
X100180499Y-90030000I249999J0D01*
G01*
X100705501Y-90030000D01*
G75*
G02*
X100955500Y-90279999I0J-249999D01*
G01*
G37*
G36*
G01*
X102780500Y-90279999D02*
X102780500Y-91180001D01*
G75*
G02*
X102530501Y-91430000I-249999J0D01*
G01*
X102005499Y-91430000D01*
G75*
G02*
X101755500Y-91180001I0J249999D01*
G01*
X101755500Y-90279999D01*
G75*
G02*
X102005499Y-90030000I249999J0D01*
G01*
X102530501Y-90030000D01*
G75*
G02*
X102780500Y-90279999I0J-249999D01*
G01*
G37*
%TD*%
%TO.C,R11*%
G36*
G01*
X104511500Y-89009999D02*
X104511500Y-89910001D01*
G75*
G02*
X104261501Y-90160000I-249999J0D01*
G01*
X103736499Y-90160000D01*
G75*
G02*
X103486500Y-89910001I0J249999D01*
G01*
X103486500Y-89009999D01*
G75*
G02*
X103736499Y-88760000I249999J0D01*
G01*
X104261501Y-88760000D01*
G75*
G02*
X104511500Y-89009999I0J-249999D01*
G01*
G37*
G36*
G01*
X106336500Y-89009999D02*
X106336500Y-89910001D01*
G75*
G02*
X106086501Y-90160000I-249999J0D01*
G01*
X105561499Y-90160000D01*
G75*
G02*
X105311500Y-89910001I0J249999D01*
G01*
X105311500Y-89009999D01*
G75*
G02*
X105561499Y-88760000I249999J0D01*
G01*
X106086501Y-88760000D01*
G75*
G02*
X106336500Y-89009999I0J-249999D01*
G01*
G37*
%TD*%
%TO.C,R7*%
G36*
G01*
X119513000Y-72802000D02*
X119513000Y-73352000D01*
G75*
G02*
X119313000Y-73552000I-200000J0D01*
G01*
X118913000Y-73552000D01*
G75*
G02*
X118713000Y-73352000I0J200000D01*
G01*
X118713000Y-72802000D01*
G75*
G02*
X118913000Y-72602000I200000J0D01*
G01*
X119313000Y-72602000D01*
G75*
G02*
X119513000Y-72802000I0J-200000D01*
G01*
G37*
G36*
G01*
X121163000Y-72802000D02*
X121163000Y-73352000D01*
G75*
G02*
X120963000Y-73552000I-200000J0D01*
G01*
X120563000Y-73552000D01*
G75*
G02*
X120363000Y-73352000I0J200000D01*
G01*
X120363000Y-72802000D01*
G75*
G02*
X120563000Y-72602000I200000J0D01*
G01*
X120963000Y-72602000D01*
G75*
G02*
X121163000Y-72802000I0J-200000D01*
G01*
G37*
%TD*%
%TO.C,R3*%
G36*
G01*
X119513000Y-74326000D02*
X119513000Y-74876000D01*
G75*
G02*
X119313000Y-75076000I-200000J0D01*
G01*
X118913000Y-75076000D01*
G75*
G02*
X118713000Y-74876000I0J200000D01*
G01*
X118713000Y-74326000D01*
G75*
G02*
X118913000Y-74126000I200000J0D01*
G01*
X119313000Y-74126000D01*
G75*
G02*
X119513000Y-74326000I0J-200000D01*
G01*
G37*
G36*
G01*
X121163000Y-74326000D02*
X121163000Y-74876000D01*
G75*
G02*
X120963000Y-75076000I-200000J0D01*
G01*
X120563000Y-75076000D01*
G75*
G02*
X120363000Y-74876000I0J200000D01*
G01*
X120363000Y-74326000D01*
G75*
G02*
X120563000Y-74126000I200000J0D01*
G01*
X120963000Y-74126000D01*
G75*
G02*
X121163000Y-74326000I0J-200000D01*
G01*
G37*
%TD*%
D12*
%TO.C,Q1*%
X119686000Y-69521000D03*
X118736000Y-71521000D03*
X120636000Y-71521000D03*
%TD*%
%TO.C,C19*%
G36*
G01*
X109464000Y-69198000D02*
X109964000Y-69198000D01*
G75*
G02*
X110189000Y-69423000I0J-225000D01*
G01*
X110189000Y-69873000D01*
G75*
G02*
X109964000Y-70098000I-225000J0D01*
G01*
X109464000Y-70098000D01*
G75*
G02*
X109239000Y-69873000I0J225000D01*
G01*
X109239000Y-69423000D01*
G75*
G02*
X109464000Y-69198000I225000J0D01*
G01*
G37*
G36*
G01*
X109464000Y-67648000D02*
X109964000Y-67648000D01*
G75*
G02*
X110189000Y-67873000I0J-225000D01*
G01*
X110189000Y-68323000D01*
G75*
G02*
X109964000Y-68548000I-225000J0D01*
G01*
X109464000Y-68548000D01*
G75*
G02*
X109239000Y-68323000I0J225000D01*
G01*
X109239000Y-67873000D01*
G75*
G02*
X109464000Y-67648000I225000J0D01*
G01*
G37*
%TD*%
%TO.C,C18*%
G36*
G01*
X111496000Y-69198000D02*
X111996000Y-69198000D01*
G75*
G02*
X112221000Y-69423000I0J-225000D01*
G01*
X112221000Y-69873000D01*
G75*
G02*
X111996000Y-70098000I-225000J0D01*
G01*
X111496000Y-70098000D01*
G75*
G02*
X111271000Y-69873000I0J225000D01*
G01*
X111271000Y-69423000D01*
G75*
G02*
X111496000Y-69198000I225000J0D01*
G01*
G37*
G36*
G01*
X111496000Y-67648000D02*
X111996000Y-67648000D01*
G75*
G02*
X112221000Y-67873000I0J-225000D01*
G01*
X112221000Y-68323000D01*
G75*
G02*
X111996000Y-68548000I-225000J0D01*
G01*
X111496000Y-68548000D01*
G75*
G02*
X111271000Y-68323000I0J225000D01*
G01*
X111271000Y-67873000D01*
G75*
G02*
X111496000Y-67648000I225000J0D01*
G01*
G37*
%TD*%
%TO.C,C13*%
G36*
G01*
X111616000Y-86064000D02*
X111616000Y-87014000D01*
G75*
G02*
X111366000Y-87264000I-250000J0D01*
G01*
X110866000Y-87264000D01*
G75*
G02*
X110616000Y-87014000I0J250000D01*
G01*
X110616000Y-86064000D01*
G75*
G02*
X110866000Y-85814000I250000J0D01*
G01*
X111366000Y-85814000D01*
G75*
G02*
X111616000Y-86064000I0J-250000D01*
G01*
G37*
G36*
G01*
X113516000Y-86064000D02*
X113516000Y-87014000D01*
G75*
G02*
X113266000Y-87264000I-250000J0D01*
G01*
X112766000Y-87264000D01*
G75*
G02*
X112516000Y-87014000I0J250000D01*
G01*
X112516000Y-86064000D01*
G75*
G02*
X112766000Y-85814000I250000J0D01*
G01*
X113266000Y-85814000D01*
G75*
G02*
X113516000Y-86064000I0J-250000D01*
G01*
G37*
%TD*%
%TO.C,C8*%
G36*
G01*
X95968000Y-69437000D02*
X95468000Y-69437000D01*
G75*
G02*
X95243000Y-69212000I0J225000D01*
G01*
X95243000Y-68762000D01*
G75*
G02*
X95468000Y-68537000I225000J0D01*
G01*
X95968000Y-68537000D01*
G75*
G02*
X96193000Y-68762000I0J-225000D01*
G01*
X96193000Y-69212000D01*
G75*
G02*
X95968000Y-69437000I-225000J0D01*
G01*
G37*
G36*
G01*
X95968000Y-70987000D02*
X95468000Y-70987000D01*
G75*
G02*
X95243000Y-70762000I0J225000D01*
G01*
X95243000Y-70312000D01*
G75*
G02*
X95468000Y-70087000I225000J0D01*
G01*
X95968000Y-70087000D01*
G75*
G02*
X96193000Y-70312000I0J-225000D01*
G01*
X96193000Y-70762000D01*
G75*
G02*
X95968000Y-70987000I-225000J0D01*
G01*
G37*
%TD*%
%TO.C,C6*%
G36*
G01*
X97518000Y-69437000D02*
X97018000Y-69437000D01*
G75*
G02*
X96793000Y-69212000I0J225000D01*
G01*
X96793000Y-68762000D01*
G75*
G02*
X97018000Y-68537000I225000J0D01*
G01*
X97518000Y-68537000D01*
G75*
G02*
X97743000Y-68762000I0J-225000D01*
G01*
X97743000Y-69212000D01*
G75*
G02*
X97518000Y-69437000I-225000J0D01*
G01*
G37*
G36*
G01*
X97518000Y-70987000D02*
X97018000Y-70987000D01*
G75*
G02*
X96793000Y-70762000I0J225000D01*
G01*
X96793000Y-70312000D01*
G75*
G02*
X97018000Y-70087000I225000J0D01*
G01*
X97518000Y-70087000D01*
G75*
G02*
X97743000Y-70312000I0J-225000D01*
G01*
X97743000Y-70762000D01*
G75*
G02*
X97518000Y-70987000I-225000J0D01*
G01*
G37*
%TD*%
%TO.C,R4*%
G36*
G01*
X129419000Y-74326000D02*
X129419000Y-74876000D01*
G75*
G02*
X129219000Y-75076000I-200000J0D01*
G01*
X128819000Y-75076000D01*
G75*
G02*
X128619000Y-74876000I0J200000D01*
G01*
X128619000Y-74326000D01*
G75*
G02*
X128819000Y-74126000I200000J0D01*
G01*
X129219000Y-74126000D01*
G75*
G02*
X129419000Y-74326000I0J-200000D01*
G01*
G37*
G36*
G01*
X131069000Y-74326000D02*
X131069000Y-74876000D01*
G75*
G02*
X130869000Y-75076000I-200000J0D01*
G01*
X130469000Y-75076000D01*
G75*
G02*
X130269000Y-74876000I0J200000D01*
G01*
X130269000Y-74326000D01*
G75*
G02*
X130469000Y-74126000I200000J0D01*
G01*
X130869000Y-74126000D01*
G75*
G02*
X131069000Y-74326000I0J-200000D01*
G01*
G37*
%TD*%
%TO.C,R10*%
G36*
G01*
X129419000Y-72802000D02*
X129419000Y-73352000D01*
G75*
G02*
X129219000Y-73552000I-200000J0D01*
G01*
X128819000Y-73552000D01*
G75*
G02*
X128619000Y-73352000I0J200000D01*
G01*
X128619000Y-72802000D01*
G75*
G02*
X128819000Y-72602000I200000J0D01*
G01*
X129219000Y-72602000D01*
G75*
G02*
X129419000Y-72802000I0J-200000D01*
G01*
G37*
G36*
G01*
X131069000Y-72802000D02*
X131069000Y-73352000D01*
G75*
G02*
X130869000Y-73552000I-200000J0D01*
G01*
X130469000Y-73552000D01*
G75*
G02*
X130269000Y-73352000I0J200000D01*
G01*
X130269000Y-72802000D01*
G75*
G02*
X130469000Y-72602000I200000J0D01*
G01*
X130869000Y-72602000D01*
G75*
G02*
X131069000Y-72802000I0J-200000D01*
G01*
G37*
%TD*%
%TO.C,Q2*%
X129592000Y-69553000D03*
X128642000Y-71553000D03*
X130542000Y-71553000D03*
%TD*%
%TO.C,R14*%
G36*
G01*
X91153000Y-82496000D02*
X91153000Y-81946000D01*
G75*
G02*
X91353000Y-81746000I200000J0D01*
G01*
X91753000Y-81746000D01*
G75*
G02*
X91953000Y-81946000I0J-200000D01*
G01*
X91953000Y-82496000D01*
G75*
G02*
X91753000Y-82696000I-200000J0D01*
G01*
X91353000Y-82696000D01*
G75*
G02*
X91153000Y-82496000I0J200000D01*
G01*
G37*
G36*
G01*
X89503000Y-82496000D02*
X89503000Y-81946000D01*
G75*
G02*
X89703000Y-81746000I200000J0D01*
G01*
X90103000Y-81746000D01*
G75*
G02*
X90303000Y-81946000I0J-200000D01*
G01*
X90303000Y-82496000D01*
G75*
G02*
X90103000Y-82696000I-200000J0D01*
G01*
X89703000Y-82696000D01*
G75*
G02*
X89503000Y-82496000I0J200000D01*
G01*
G37*
%TD*%
%TO.C,D6*%
G36*
G01*
X87867750Y-81834500D02*
X88380250Y-81834500D01*
G75*
G02*
X88599000Y-82053250I0J-218750D01*
G01*
X88599000Y-82490750D01*
G75*
G02*
X88380250Y-82709500I-218750J0D01*
G01*
X87867750Y-82709500D01*
G75*
G02*
X87649000Y-82490750I0J218750D01*
G01*
X87649000Y-82053250D01*
G75*
G02*
X87867750Y-81834500I218750J0D01*
G01*
G37*
G36*
G01*
X87867750Y-80259500D02*
X88380250Y-80259500D01*
G75*
G02*
X88599000Y-80478250I0J-218750D01*
G01*
X88599000Y-80915750D01*
G75*
G02*
X88380250Y-81134500I-218750J0D01*
G01*
X87867750Y-81134500D01*
G75*
G02*
X87649000Y-80915750I0J218750D01*
G01*
X87649000Y-80478250D01*
G75*
G02*
X87867750Y-80259500I218750J0D01*
G01*
G37*
%TD*%
D25*
%TO.C,U2*%
X125716000Y-69140000D03*
X125716000Y-71680000D03*
X125716000Y-81840000D03*
D24*
X125716000Y-89460000D03*
%TD*%
D29*
%TO.C,R16*%
X130161000Y-83872000D03*
X130161000Y-86872000D03*
%TD*%
%TO.C,R15*%
X120382000Y-83872000D03*
X120382000Y-86872000D03*
%TD*%
%TO.C,D2*%
G36*
G01*
X130219000Y-68253250D02*
X130219000Y-67740750D01*
G75*
G02*
X130437750Y-67522000I218750J0D01*
G01*
X130875250Y-67522000D01*
G75*
G02*
X131094000Y-67740750I0J-218750D01*
G01*
X131094000Y-68253250D01*
G75*
G02*
X130875250Y-68472000I-218750J0D01*
G01*
X130437750Y-68472000D01*
G75*
G02*
X130219000Y-68253250I0J218750D01*
G01*
G37*
G36*
G01*
X128644000Y-68253250D02*
X128644000Y-67740750D01*
G75*
G02*
X128862750Y-67522000I218750J0D01*
G01*
X129300250Y-67522000D01*
G75*
G02*
X129519000Y-67740750I0J-218750D01*
G01*
X129519000Y-68253250D01*
G75*
G02*
X129300250Y-68472000I-218750J0D01*
G01*
X128862750Y-68472000D01*
G75*
G02*
X128644000Y-68253250I0J218750D01*
G01*
G37*
%TD*%
%TO.C,D1*%
G36*
G01*
X120313000Y-68253250D02*
X120313000Y-67740750D01*
G75*
G02*
X120531750Y-67522000I218750J0D01*
G01*
X120969250Y-67522000D01*
G75*
G02*
X121188000Y-67740750I0J-218750D01*
G01*
X121188000Y-68253250D01*
G75*
G02*
X120969250Y-68472000I-218750J0D01*
G01*
X120531750Y-68472000D01*
G75*
G02*
X120313000Y-68253250I0J218750D01*
G01*
G37*
G36*
G01*
X118738000Y-68253250D02*
X118738000Y-67740750D01*
G75*
G02*
X118956750Y-67522000I218750J0D01*
G01*
X119394250Y-67522000D01*
G75*
G02*
X119613000Y-67740750I0J-218750D01*
G01*
X119613000Y-68253250D01*
G75*
G02*
X119394250Y-68472000I-218750J0D01*
G01*
X118956750Y-68472000D01*
G75*
G02*
X118738000Y-68253250I0J218750D01*
G01*
G37*
%TD*%
%TO.C,R13*%
G36*
G01*
X91025000Y-76654000D02*
X91025000Y-76104000D01*
G75*
G02*
X91225000Y-75904000I200000J0D01*
G01*
X91625000Y-75904000D01*
G75*
G02*
X91825000Y-76104000I0J-200000D01*
G01*
X91825000Y-76654000D01*
G75*
G02*
X91625000Y-76854000I-200000J0D01*
G01*
X91225000Y-76854000D01*
G75*
G02*
X91025000Y-76654000I0J200000D01*
G01*
G37*
G36*
G01*
X89375000Y-76654000D02*
X89375000Y-76104000D01*
G75*
G02*
X89575000Y-75904000I200000J0D01*
G01*
X89975000Y-75904000D01*
G75*
G02*
X90175000Y-76104000I0J-200000D01*
G01*
X90175000Y-76654000D01*
G75*
G02*
X89975000Y-76854000I-200000J0D01*
G01*
X89575000Y-76854000D01*
G75*
G02*
X89375000Y-76654000I0J200000D01*
G01*
G37*
%TD*%
%TO.C,D5*%
G36*
G01*
X87867750Y-75941500D02*
X88380250Y-75941500D01*
G75*
G02*
X88599000Y-76160250I0J-218750D01*
G01*
X88599000Y-76597750D01*
G75*
G02*
X88380250Y-76816500I-218750J0D01*
G01*
X87867750Y-76816500D01*
G75*
G02*
X87649000Y-76597750I0J218750D01*
G01*
X87649000Y-76160250D01*
G75*
G02*
X87867750Y-75941500I218750J0D01*
G01*
G37*
G36*
G01*
X87867750Y-74366500D02*
X88380250Y-74366500D01*
G75*
G02*
X88599000Y-74585250I0J-218750D01*
G01*
X88599000Y-75022750D01*
G75*
G02*
X88380250Y-75241500I-218750J0D01*
G01*
X87867750Y-75241500D01*
G75*
G02*
X87649000Y-75022750I0J218750D01*
G01*
X87649000Y-74585250D01*
G75*
G02*
X87867750Y-74366500I218750J0D01*
G01*
G37*
%TD*%
D25*
%TO.C,U3*%
X135622000Y-69140000D03*
X135622000Y-71680000D03*
X135622000Y-81840000D03*
D24*
X135622000Y-89460000D03*
%TD*%
D17*
%TO.C,J2*%
X88251000Y-71680000D03*
X88251000Y-72950000D03*
X89521000Y-71680000D03*
X89521000Y-72950000D03*
X90791000Y-71680000D03*
D16*
X90791000Y-72950000D03*
%TD*%
D14*
%TO.C,F2*%
X134733000Y-77522000D03*
D13*
X134733000Y-85142000D03*
%TD*%
M02*
