%TF.GenerationSoftware,KiCad,Pcbnew,(5.1.10)-1*%
%TF.CreationDate,2022-01-17T18:44:23+07:00*%
%TF.ProjectId,Power_manager_v3_pnlz1x2,506f7765-725f-46d6-916e-616765725f76,rev?*%
%TF.SameCoordinates,Original*%
%TF.FileFunction,Copper,L3,Inr*%
%TF.FilePolarity,Positive*%
%FSLAX46Y46*%
G04 Gerber Fmt 4.6, Leading zero omitted, Abs format (unit mm)*
G04 Created by KiCad (PCBNEW (5.1.10)-1) date 2022-01-17 18:44:23*
%MOMM*%
%LPD*%
G01*
G04 APERTURE LIST*
%TA.AperFunction,ComponentPad*%
%ADD10C,1.600000*%
%TD*%
%TA.AperFunction,ComponentPad*%
%ADD11O,1.600000X1.600000*%
%TD*%
%TA.AperFunction,ComponentPad*%
%ADD12C,1.500000*%
%TD*%
%TA.AperFunction,ComponentPad*%
%ADD13R,1.000000X1.000000*%
%TD*%
%TA.AperFunction,ComponentPad*%
%ADD14O,1.000000X1.000000*%
%TD*%
%TA.AperFunction,ComponentPad*%
%ADD15R,1.900000X2.700000*%
%TD*%
%TA.AperFunction,ComponentPad*%
%ADD16O,1.700000X1.700000*%
%TD*%
%TA.AperFunction,ComponentPad*%
%ADD17O,2.400000X1.700000*%
%TD*%
%TA.AperFunction,ComponentPad*%
%ADD18R,2.400000X1.700000*%
%TD*%
%TA.AperFunction,ComponentPad*%
%ADD19R,1.600000X1.600000*%
%TD*%
%TA.AperFunction,ComponentPad*%
%ADD20C,1.000000*%
%TD*%
%TA.AperFunction,ComponentPad*%
%ADD21R,1.800000X1.800000*%
%TD*%
%TA.AperFunction,ComponentPad*%
%ADD22C,1.800000*%
%TD*%
%TA.AperFunction,ComponentPad*%
%ADD23C,2.000000*%
%TD*%
%TA.AperFunction,ViaPad*%
%ADD24C,0.800000*%
%TD*%
%TA.AperFunction,ViaPad*%
%ADD25C,1.200000*%
%TD*%
%TA.AperFunction,ViaPad*%
%ADD26C,1.000000*%
%TD*%
%TA.AperFunction,Conductor*%
%ADD27C,1.000000*%
%TD*%
%TA.AperFunction,Conductor*%
%ADD28C,0.600000*%
%TD*%
%TA.AperFunction,Conductor*%
%ADD29C,1.400000*%
%TD*%
%TA.AperFunction,Conductor*%
%ADD30C,0.300000*%
%TD*%
%TA.AperFunction,Conductor*%
%ADD31C,0.250000*%
%TD*%
G04 APERTURE END LIST*
D10*
%TO.N,AC*%
%TO.C,F1*%
X124700000Y-110142000D03*
D11*
%TO.N,Net-(F1-Pad2)*%
X124700000Y-102522000D03*
%TD*%
D12*
%TO.N,Net-(KP1-Pad1)*%
%TO.C,KP1*%
X101205000Y-103157000D03*
%TD*%
D13*
%TO.N,/+5V_state*%
%TO.C,J6*%
X103999000Y-97950000D03*
D14*
%TO.N,/I2C_Int*%
X103999000Y-96680000D03*
%TO.N,GND1*%
X102729000Y-97950000D03*
X102729000Y-96680000D03*
%TO.N,/scl0*%
X101459000Y-97950000D03*
%TO.N,/sda0*%
X101459000Y-96680000D03*
%TD*%
D13*
%TO.N,GNDPWR*%
%TO.C,JP4*%
X114540000Y-93632000D03*
D14*
%TO.N,Net-(JP4-Pad2)*%
X114540000Y-94902000D03*
%TO.N,GNDPWR*%
X115810000Y-93632000D03*
%TO.N,/nRst*%
X115810000Y-94902000D03*
%TD*%
D15*
%TO.N,Net-(J1-Pad1)*%
%TO.C,J1*%
X93458000Y-114714000D03*
D16*
%TO.N,N/C*%
X90918000Y-115222000D03*
%TO.N,Net-(J1-Pad3)*%
X88378000Y-115222000D03*
%TD*%
D15*
%TO.N,Net-(J3-Pad1)*%
%TO.C,J3*%
X125716000Y-114714000D03*
D16*
%TO.N,N/C*%
X123176000Y-115222000D03*
%TO.N,/Load1N*%
X120636000Y-115222000D03*
%TD*%
D15*
%TO.N,Net-(J4-Pad1)*%
%TO.C,J4*%
X135622000Y-114714000D03*
D16*
%TO.N,N/C*%
X133082000Y-115222000D03*
%TO.N,/Load2N*%
X130542000Y-115222000D03*
%TD*%
D17*
%TO.N,GND1*%
%TO.C,U1*%
X93458000Y-94013000D03*
%TO.N,+5V*%
X93458000Y-96553000D03*
%TO.N,Net-(J1-Pad3)*%
X93458000Y-109253000D03*
D18*
%TO.N,Net-(J1-Pad1)*%
X93458000Y-114333000D03*
%TD*%
D19*
%TO.N,Net-(C6-Pad2)*%
%TO.C,U4*%
X99427000Y-93378000D03*
D10*
%TO.N,GND1*%
X99427000Y-95918000D03*
%TO.N,+5P*%
X99427000Y-98458000D03*
%TO.N,/+5V_state*%
X99427000Y-100998000D03*
%TO.N,Net-(JP5-Pad1)*%
X99436500Y-106078000D03*
%TO.N,GNDPWR*%
X99427000Y-108618000D03*
%TO.N,Net-(JP6-Pad1)*%
X99427000Y-111158000D03*
%TD*%
D13*
%TO.N,/+5V_state*%
%TO.C,U7*%
X93839000Y-100617000D03*
D20*
%TO.N,/I2C_Int*%
X93839000Y-101887000D03*
%TO.N,/sda0*%
X95109000Y-100617000D03*
%TO.N,/scl0*%
X95109000Y-101887000D03*
%TO.N,+5P*%
X96379000Y-100617000D03*
%TO.N,GND1*%
X96379000Y-101887000D03*
D13*
%TO.N,+3.3VP*%
X113651000Y-100617000D03*
D20*
%TO.N,GNDPWR*%
X113651000Y-101887000D03*
%TO.N,/I2C_SDA*%
X114921000Y-100617000D03*
%TO.N,/I2C_SCL*%
X114921000Y-101887000D03*
%TO.N,/+5V_valid*%
X116191000Y-100617000D03*
%TO.N,/Int*%
X116191000Y-101887000D03*
%TD*%
D10*
%TO.N,AC*%
%TO.C,F2*%
X134733000Y-110142000D03*
D11*
%TO.N,Net-(F2-Pad2)*%
X134733000Y-102522000D03*
%TD*%
D13*
%TO.N,+5P*%
%TO.C,J2*%
X90791000Y-97950000D03*
D14*
X90791000Y-96680000D03*
%TO.N,GND1*%
X89521000Y-97950000D03*
X89521000Y-96680000D03*
%TO.N,+5V*%
X88251000Y-97950000D03*
X88251000Y-96680000D03*
%TD*%
D21*
%TO.N,Net-(J4-Pad1)*%
%TO.C,U3*%
X135622000Y-114460000D03*
D22*
%TO.N,Net-(F2-Pad2)*%
X135622000Y-106840000D03*
%TO.N,+5VP*%
X135622000Y-96680000D03*
%TO.N,Net-(D4-Pad2)*%
X135622000Y-94140000D03*
%TD*%
D23*
%TO.N,GND1*%
%TO.C,GND1*%
X90537000Y-103665000D03*
%TD*%
D21*
%TO.N,Net-(J3-Pad1)*%
%TO.C,U2*%
X125716000Y-114460000D03*
D22*
%TO.N,Net-(F1-Pad2)*%
X125716000Y-106840000D03*
%TO.N,+5VP*%
X125716000Y-96680000D03*
%TO.N,Net-(D3-Pad2)*%
X125716000Y-94140000D03*
%TD*%
D20*
%TO.N,/Int*%
%TO.C,U7*%
X116191000Y-76887000D03*
%TO.N,/+5V_valid*%
X116191000Y-75617000D03*
%TO.N,/I2C_SCL*%
X114921000Y-76887000D03*
%TO.N,/I2C_SDA*%
X114921000Y-75617000D03*
%TO.N,GNDPWR*%
X113651000Y-76887000D03*
D13*
%TO.N,+3.3VP*%
X113651000Y-75617000D03*
D20*
%TO.N,GND1*%
X96379000Y-76887000D03*
%TO.N,+5P*%
X96379000Y-75617000D03*
%TO.N,/scl0*%
X95109000Y-76887000D03*
%TO.N,/sda0*%
X95109000Y-75617000D03*
%TO.N,/I2C_Int*%
X93839000Y-76887000D03*
D13*
%TO.N,/+5V_state*%
X93839000Y-75617000D03*
%TD*%
D10*
%TO.N,Net-(JP6-Pad1)*%
%TO.C,U4*%
X99427000Y-86158000D03*
%TO.N,GNDPWR*%
X99427000Y-83618000D03*
%TO.N,Net-(JP5-Pad1)*%
X99436500Y-81078000D03*
%TO.N,/+5V_state*%
X99427000Y-75998000D03*
%TO.N,+5P*%
X99427000Y-73458000D03*
%TO.N,GND1*%
X99427000Y-70918000D03*
D19*
%TO.N,Net-(C6-Pad2)*%
X99427000Y-68378000D03*
%TD*%
D18*
%TO.N,Net-(J1-Pad1)*%
%TO.C,U1*%
X93458000Y-89333000D03*
D17*
%TO.N,Net-(J1-Pad3)*%
X93458000Y-84253000D03*
%TO.N,+5V*%
X93458000Y-71553000D03*
%TO.N,GND1*%
X93458000Y-69013000D03*
%TD*%
D16*
%TO.N,/Load2N*%
%TO.C,J4*%
X130542000Y-90222000D03*
%TO.N,N/C*%
X133082000Y-90222000D03*
D15*
%TO.N,Net-(J4-Pad1)*%
X135622000Y-89714000D03*
%TD*%
D16*
%TO.N,/Load1N*%
%TO.C,J3*%
X120636000Y-90222000D03*
%TO.N,N/C*%
X123176000Y-90222000D03*
D15*
%TO.N,Net-(J3-Pad1)*%
X125716000Y-89714000D03*
%TD*%
D16*
%TO.N,Net-(J1-Pad3)*%
%TO.C,J1*%
X88378000Y-90222000D03*
%TO.N,N/C*%
X90918000Y-90222000D03*
D15*
%TO.N,Net-(J1-Pad1)*%
X93458000Y-89714000D03*
%TD*%
D14*
%TO.N,/nRst*%
%TO.C,JP4*%
X115810000Y-69902000D03*
%TO.N,GNDPWR*%
X115810000Y-68632000D03*
%TO.N,Net-(JP4-Pad2)*%
X114540000Y-69902000D03*
D13*
%TO.N,GNDPWR*%
X114540000Y-68632000D03*
%TD*%
D14*
%TO.N,/sda0*%
%TO.C,J6*%
X101459000Y-71680000D03*
%TO.N,/scl0*%
X101459000Y-72950000D03*
%TO.N,GND1*%
X102729000Y-71680000D03*
X102729000Y-72950000D03*
%TO.N,/I2C_Int*%
X103999000Y-71680000D03*
D13*
%TO.N,/+5V_state*%
X103999000Y-72950000D03*
%TD*%
D12*
%TO.N,Net-(KP1-Pad1)*%
%TO.C,KP1*%
X101205000Y-78157000D03*
%TD*%
D11*
%TO.N,Net-(F1-Pad2)*%
%TO.C,F1*%
X124700000Y-77522000D03*
D10*
%TO.N,AC*%
X124700000Y-85142000D03*
%TD*%
D23*
%TO.N,GND1*%
%TO.C,GND1*%
X90537000Y-78665000D03*
%TD*%
D22*
%TO.N,Net-(D3-Pad2)*%
%TO.C,U2*%
X125716000Y-69140000D03*
%TO.N,+5VP*%
X125716000Y-71680000D03*
%TO.N,Net-(F1-Pad2)*%
X125716000Y-81840000D03*
D21*
%TO.N,Net-(J3-Pad1)*%
X125716000Y-89460000D03*
%TD*%
D22*
%TO.N,Net-(D4-Pad2)*%
%TO.C,U3*%
X135622000Y-69140000D03*
%TO.N,+5VP*%
X135622000Y-71680000D03*
%TO.N,Net-(F2-Pad2)*%
X135622000Y-81840000D03*
D21*
%TO.N,Net-(J4-Pad1)*%
X135622000Y-89460000D03*
%TD*%
D14*
%TO.N,+5V*%
%TO.C,J2*%
X88251000Y-71680000D03*
X88251000Y-72950000D03*
%TO.N,GND1*%
X89521000Y-71680000D03*
X89521000Y-72950000D03*
%TO.N,+5P*%
X90791000Y-71680000D03*
D13*
X90791000Y-72950000D03*
%TD*%
D11*
%TO.N,Net-(F2-Pad2)*%
%TO.C,F2*%
X134733000Y-77522000D03*
D10*
%TO.N,AC*%
X134733000Y-85142000D03*
%TD*%
D24*
%TO.N,GNDPWR*%
X129018000Y-73077000D03*
D25*
X130669000Y-83110000D03*
X120763000Y-83110000D03*
D24*
X107174000Y-68505000D03*
X119112000Y-73077000D03*
X110730000Y-68505000D03*
X130589000Y-79681000D03*
X120683000Y-79681000D03*
X88124000Y-80697000D03*
X112960945Y-87063065D03*
X109057425Y-85755425D03*
X102729000Y-76125022D03*
X105978402Y-85274063D03*
X88124000Y-105697000D03*
X120683000Y-104681000D03*
X105978402Y-110274063D03*
X102729000Y-101125022D03*
X112960945Y-112063065D03*
X109057425Y-110755425D03*
X130589000Y-104681000D03*
X110730000Y-93505000D03*
X129018000Y-98077000D03*
D25*
X130669000Y-108110000D03*
X120763000Y-108110000D03*
D24*
X107174000Y-93505000D03*
X119112000Y-98077000D03*
D25*
%TO.N,+5VP*%
X101332000Y-82729000D03*
X101332000Y-107729000D03*
%TO.N,AC*%
X98919000Y-90730000D03*
X98919000Y-115730000D03*
%TO.N,+3.3VP*%
X103257678Y-86260868D03*
D24*
X114286000Y-79834000D03*
X106412000Y-86285000D03*
D26*
X111287627Y-85071744D03*
D24*
X116064000Y-73712000D03*
D26*
X111287627Y-110071744D03*
D24*
X116064000Y-98712000D03*
X106412000Y-111285000D03*
X114286000Y-104834000D03*
D25*
X103257678Y-111260868D03*
D24*
%TO.N,Net-(C9-Pad2)*%
X115571824Y-84141826D03*
X115571824Y-109141826D03*
%TO.N,Net-(C10-Pad1)*%
X118863013Y-81712998D03*
X118863013Y-106712998D03*
%TO.N,Net-(C11-Pad2)*%
X122282337Y-82352659D03*
X122282337Y-107352659D03*
%TO.N,Net-(C12-Pad1)*%
X128764000Y-81713000D03*
X128764000Y-106713000D03*
%TO.N,/L1_o1_nEn*%
X119112000Y-74601000D03*
X104888000Y-79500679D03*
X104888000Y-104500679D03*
X119112000Y-99601000D03*
%TO.N,/L1_o2_nEn*%
X105777000Y-76760000D03*
X122160000Y-74473998D03*
X122160000Y-99473998D03*
X105777000Y-101760000D03*
%TO.N,/SPI_MOSI*%
X103361034Y-80840237D03*
X103361034Y-105840237D03*
%TO.N,/SPI_MISO*%
X103764927Y-82528876D03*
X103764927Y-107528876D03*
%TO.N,/SPI_SCLK*%
X102960803Y-81882612D03*
X102960803Y-106882612D03*
%TO.N,/SPI_SSEL*%
X106936969Y-80973799D03*
X106936969Y-105973799D03*
%TO.N,/Int*%
X112662621Y-79172012D03*
X105899241Y-79490007D03*
X105899241Y-104490007D03*
X112662621Y-104172012D03*
%TO.N,Net-(C1-Pad1)*%
X119683500Y-69521000D03*
X119683500Y-94521000D03*
%TO.N,Net-(C2-Pad1)*%
X129589500Y-69559100D03*
X129589500Y-94559100D03*
%TO.N,Net-(D1-Pad1)*%
X119175500Y-67997000D03*
X119175500Y-92997000D03*
%TO.N,Net-(D2-Pad1)*%
X129081500Y-67997000D03*
X129081500Y-92997000D03*
%TO.N,+5V*%
X91425000Y-76379000D03*
X91425000Y-101379000D03*
%TO.N,Net-(C17-Pad2)*%
X105062000Y-86285000D03*
X104279000Y-76125020D03*
X105062000Y-111285000D03*
X104279000Y-101125020D03*
%TO.N,Net-(R27-Pad2)*%
X109737978Y-81373021D03*
X119096675Y-77632675D03*
X109737978Y-106373021D03*
X119096675Y-102632675D03*
%TO.N,/I2C_SDA*%
X108069875Y-82454535D03*
X108069875Y-107454535D03*
%TO.N,/I2C_SCL*%
X111024357Y-79311990D03*
X107030639Y-82502033D03*
X111024357Y-104311990D03*
X107030639Y-107502033D03*
%TO.N,/+5V_valid*%
X105777002Y-82475002D03*
X105777002Y-107475002D03*
%TD*%
D27*
%TO.N,GND1*%
X97926999Y-72418001D02*
X99427000Y-70918000D01*
X97926999Y-76046107D02*
X97926999Y-72418001D01*
X97086106Y-76887000D02*
X97926999Y-76046107D01*
X96379000Y-76887000D02*
X97086106Y-76887000D01*
X89521000Y-77649000D02*
X90537000Y-78665000D01*
X89521000Y-72950000D02*
X89521000Y-77649000D01*
X97926999Y-72418001D02*
X99427000Y-70918000D01*
X97926999Y-76046107D02*
X97926999Y-72418001D01*
X97086106Y-76887000D02*
X97926999Y-76046107D01*
X96379000Y-76887000D02*
X97086106Y-76887000D01*
X89521000Y-77649000D02*
X90537000Y-78665000D01*
X89521000Y-72950000D02*
X89521000Y-77649000D01*
X89521000Y-102649000D02*
X90537000Y-103665000D01*
X97926999Y-97418001D02*
X99427000Y-95918000D01*
X97926999Y-101046107D02*
X97926999Y-97418001D01*
X96379000Y-101887000D02*
X97086106Y-101887000D01*
X97086106Y-101887000D02*
X97926999Y-101046107D01*
X89521000Y-97950000D02*
X89521000Y-102649000D01*
D28*
%TO.N,GNDPWR*%
X114540000Y-68632000D02*
X115810000Y-68632000D01*
X107174000Y-68505000D02*
X110730000Y-68505000D01*
X114413000Y-68505000D02*
X114540000Y-68632000D01*
X110730000Y-68505000D02*
X114413000Y-68505000D01*
D27*
X116517106Y-68632000D02*
X115810000Y-68632000D01*
X119112000Y-71226894D02*
X116517106Y-68632000D01*
X119112000Y-73077000D02*
X119112000Y-71226894D01*
D29*
X130589000Y-83030000D02*
X130669000Y-83110000D01*
X130589000Y-79681000D02*
X130589000Y-83030000D01*
X120683000Y-83030000D02*
X120763000Y-83110000D01*
X120683000Y-79681000D02*
X120683000Y-83030000D01*
D27*
X102633677Y-87560869D02*
X101586000Y-86513192D01*
X101586000Y-85777000D02*
X99427000Y-83618000D01*
X101586000Y-86513192D02*
X101586000Y-85777000D01*
X112463141Y-87560869D02*
X112960945Y-87063065D01*
X109073131Y-87560869D02*
X112463141Y-87560869D01*
X109073131Y-87560869D02*
X109073131Y-85771131D01*
X109073131Y-85771131D02*
X109057425Y-85755425D01*
X115830070Y-79681000D02*
X120683000Y-79681000D01*
X113651000Y-77501930D02*
X115830070Y-79681000D01*
X113651000Y-76887000D02*
X113651000Y-77501930D01*
D28*
X88124000Y-81332000D02*
X88124000Y-80697000D01*
X98030000Y-82221000D02*
X89013000Y-82221000D01*
X89013000Y-82221000D02*
X88124000Y-81332000D01*
X99427000Y-83618000D02*
X98030000Y-82221000D01*
D29*
X119874000Y-73077000D02*
X119112000Y-73077000D01*
X120683000Y-73886000D02*
X119874000Y-73077000D01*
X120683000Y-79681000D02*
X120683000Y-73886000D01*
X129526000Y-73077000D02*
X129018000Y-73077000D01*
X130589000Y-74140000D02*
X129526000Y-73077000D01*
X130589000Y-79681000D02*
X130589000Y-74140000D01*
D28*
X107312001Y-85852999D02*
X107312001Y-87289999D01*
X106733065Y-85274063D02*
X107312001Y-85852999D01*
X105978402Y-85274063D02*
X106733065Y-85274063D01*
X107312001Y-87289999D02*
X107041131Y-87560869D01*
D27*
X107041131Y-87560869D02*
X102633677Y-87560869D01*
X109073131Y-87560869D02*
X107041131Y-87560869D01*
D28*
X99427000Y-83618000D02*
X99427000Y-83011502D01*
X102729000Y-79709502D02*
X102729000Y-76125022D01*
X99427000Y-83011502D02*
X102729000Y-79709502D01*
D29*
X119112000Y-73077000D02*
X119142001Y-73046999D01*
X128002000Y-74093000D02*
X129018000Y-73077000D01*
X119142001Y-73046999D02*
X122891999Y-73046999D01*
X123938000Y-74093000D02*
X128002000Y-74093000D01*
X122891999Y-73046999D02*
X123938000Y-74093000D01*
X114587435Y-87063065D02*
X112960945Y-87063065D01*
X118540500Y-83110000D02*
X114587435Y-87063065D01*
X120763000Y-83110000D02*
X118540500Y-83110000D01*
D28*
X114540000Y-68632000D02*
X115810000Y-68632000D01*
X107174000Y-68505000D02*
X110730000Y-68505000D01*
X114413000Y-68505000D02*
X114540000Y-68632000D01*
X110730000Y-68505000D02*
X114413000Y-68505000D01*
D27*
X116517106Y-68632000D02*
X115810000Y-68632000D01*
X119112000Y-71226894D02*
X116517106Y-68632000D01*
X119112000Y-73077000D02*
X119112000Y-71226894D01*
D29*
X130589000Y-83030000D02*
X130669000Y-83110000D01*
X130589000Y-79681000D02*
X130589000Y-83030000D01*
X120683000Y-83030000D02*
X120763000Y-83110000D01*
X120683000Y-79681000D02*
X120683000Y-83030000D01*
D27*
X102633677Y-87560869D02*
X101586000Y-86513192D01*
X101586000Y-85777000D02*
X99427000Y-83618000D01*
X101586000Y-86513192D02*
X101586000Y-85777000D01*
X112463141Y-87560869D02*
X112960945Y-87063065D01*
X109073131Y-87560869D02*
X112463141Y-87560869D01*
X109073131Y-87560869D02*
X109073131Y-85771131D01*
X109073131Y-85771131D02*
X109057425Y-85755425D01*
X115830070Y-79681000D02*
X120683000Y-79681000D01*
X113651000Y-77501930D02*
X115830070Y-79681000D01*
X113651000Y-76887000D02*
X113651000Y-77501930D01*
D28*
X88124000Y-81332000D02*
X88124000Y-80697000D01*
X98030000Y-82221000D02*
X89013000Y-82221000D01*
X89013000Y-82221000D02*
X88124000Y-81332000D01*
X99427000Y-83618000D02*
X98030000Y-82221000D01*
D29*
X119874000Y-73077000D02*
X119112000Y-73077000D01*
X120683000Y-73886000D02*
X119874000Y-73077000D01*
X120683000Y-79681000D02*
X120683000Y-73886000D01*
X129526000Y-73077000D02*
X129018000Y-73077000D01*
X130589000Y-74140000D02*
X129526000Y-73077000D01*
X130589000Y-79681000D02*
X130589000Y-74140000D01*
D28*
X107312001Y-85852999D02*
X107312001Y-87289999D01*
X106733065Y-85274063D02*
X107312001Y-85852999D01*
X105978402Y-85274063D02*
X106733065Y-85274063D01*
X107312001Y-87289999D02*
X107041131Y-87560869D01*
D27*
X107041131Y-87560869D02*
X102633677Y-87560869D01*
X109073131Y-87560869D02*
X107041131Y-87560869D01*
D28*
X99427000Y-83618000D02*
X99427000Y-83011502D01*
X102729000Y-79709502D02*
X102729000Y-76125022D01*
X99427000Y-83011502D02*
X102729000Y-79709502D01*
D29*
X119112000Y-73077000D02*
X119142001Y-73046999D01*
X128002000Y-74093000D02*
X129018000Y-73077000D01*
X119142001Y-73046999D02*
X122891999Y-73046999D01*
X123938000Y-74093000D02*
X128002000Y-74093000D01*
X122891999Y-73046999D02*
X123938000Y-74093000D01*
X114587435Y-87063065D02*
X112960945Y-87063065D01*
X118540500Y-83110000D02*
X114587435Y-87063065D01*
X120763000Y-83110000D02*
X118540500Y-83110000D01*
D27*
X109073131Y-112560869D02*
X109073131Y-110771131D01*
X109073131Y-110771131D02*
X109057425Y-110755425D01*
X115830070Y-104681000D02*
X120683000Y-104681000D01*
X113651000Y-102501930D02*
X115830070Y-104681000D01*
X113651000Y-101887000D02*
X113651000Y-102501930D01*
D28*
X88124000Y-106332000D02*
X88124000Y-105697000D01*
X98030000Y-107221000D02*
X89013000Y-107221000D01*
X89013000Y-107221000D02*
X88124000Y-106332000D01*
X99427000Y-108618000D02*
X98030000Y-107221000D01*
D29*
X119874000Y-98077000D02*
X119112000Y-98077000D01*
X120683000Y-98886000D02*
X119874000Y-98077000D01*
X120683000Y-104681000D02*
X120683000Y-98886000D01*
X129526000Y-98077000D02*
X129018000Y-98077000D01*
X130589000Y-99140000D02*
X129526000Y-98077000D01*
X130589000Y-104681000D02*
X130589000Y-99140000D01*
D28*
X107312001Y-110852999D02*
X107312001Y-112289999D01*
X106733065Y-110274063D02*
X107312001Y-110852999D01*
X105978402Y-110274063D02*
X106733065Y-110274063D01*
X107312001Y-112289999D02*
X107041131Y-112560869D01*
D27*
X107041131Y-112560869D02*
X102633677Y-112560869D01*
X109073131Y-112560869D02*
X107041131Y-112560869D01*
D28*
X99427000Y-108618000D02*
X99427000Y-108011502D01*
X114540000Y-93632000D02*
X115810000Y-93632000D01*
X107174000Y-93505000D02*
X110730000Y-93505000D01*
X114413000Y-93505000D02*
X114540000Y-93632000D01*
X110730000Y-93505000D02*
X114413000Y-93505000D01*
D27*
X116517106Y-93632000D02*
X115810000Y-93632000D01*
X119112000Y-96226894D02*
X116517106Y-93632000D01*
X119112000Y-98077000D02*
X119112000Y-96226894D01*
D29*
X130589000Y-108030000D02*
X130669000Y-108110000D01*
X130589000Y-104681000D02*
X130589000Y-108030000D01*
X120683000Y-108030000D02*
X120763000Y-108110000D01*
X120683000Y-104681000D02*
X120683000Y-108030000D01*
D27*
X102633677Y-112560869D02*
X101586000Y-111513192D01*
X101586000Y-110777000D02*
X99427000Y-108618000D01*
X101586000Y-111513192D02*
X101586000Y-110777000D01*
X112463141Y-112560869D02*
X112960945Y-112063065D01*
X109073131Y-112560869D02*
X112463141Y-112560869D01*
D28*
X102729000Y-104709502D02*
X102729000Y-101125022D01*
X99427000Y-108011502D02*
X102729000Y-104709502D01*
D29*
X119112000Y-98077000D02*
X119142001Y-98046999D01*
X128002000Y-99093000D02*
X129018000Y-98077000D01*
X119142001Y-98046999D02*
X122891999Y-98046999D01*
X123938000Y-99093000D02*
X128002000Y-99093000D01*
X122891999Y-98046999D02*
X123938000Y-99093000D01*
X114587435Y-112063065D02*
X112960945Y-112063065D01*
X118540500Y-108110000D02*
X114587435Y-112063065D01*
X120763000Y-108110000D02*
X118540500Y-108110000D01*
D27*
%TO.N,+3.3VP*%
X114286000Y-79834000D02*
X114286000Y-82094000D01*
X111308256Y-85071744D02*
X111287627Y-85071744D01*
X114286000Y-82094000D02*
X111308256Y-85071744D01*
X114286000Y-79834000D02*
X114286000Y-82094000D01*
X111308256Y-85071744D02*
X111287627Y-85071744D01*
X114286000Y-82094000D02*
X111308256Y-85071744D01*
X114286000Y-104834000D02*
X114286000Y-107094000D01*
X111308256Y-110071744D02*
X111287627Y-110071744D01*
X114286000Y-107094000D02*
X111308256Y-110071744D01*
D30*
%TO.N,/L1_o1_nEn*%
X104888000Y-79427000D02*
X104888000Y-79500679D01*
X119112000Y-74601000D02*
X118985000Y-74728000D01*
X110984000Y-76760000D02*
X113016000Y-74728000D01*
X107555000Y-76760000D02*
X110984000Y-76760000D01*
X118985000Y-74728000D02*
X113016000Y-74728000D01*
X107555000Y-76760000D02*
X104888000Y-79427000D01*
X104888000Y-79427000D02*
X104888000Y-79500679D01*
X119112000Y-74601000D02*
X118985000Y-74728000D01*
X110984000Y-76760000D02*
X113016000Y-74728000D01*
X107555000Y-76760000D02*
X110984000Y-76760000D01*
X118985000Y-74728000D02*
X113016000Y-74728000D01*
X107555000Y-76760000D02*
X104888000Y-79427000D01*
X104888000Y-104427000D02*
X104888000Y-104500679D01*
X119112000Y-99601000D02*
X118985000Y-99728000D01*
X110984000Y-101760000D02*
X113016000Y-99728000D01*
X107555000Y-101760000D02*
X110984000Y-101760000D01*
X118985000Y-99728000D02*
X113016000Y-99728000D01*
X107555000Y-101760000D02*
X104888000Y-104427000D01*
%TO.N,/Int*%
X112052598Y-78561989D02*
X106827259Y-78561989D01*
X106827259Y-78561989D02*
X105899241Y-79490007D01*
X112662621Y-79172012D02*
X112052598Y-78561989D01*
X112052598Y-78561989D02*
X106827259Y-78561989D01*
X106827259Y-78561989D02*
X105899241Y-79490007D01*
X112662621Y-79172012D02*
X112052598Y-78561989D01*
X112052598Y-103561989D02*
X106827259Y-103561989D01*
X106827259Y-103561989D02*
X105899241Y-104490007D01*
X112662621Y-104172012D02*
X112052598Y-103561989D01*
D28*
%TO.N,Net-(C17-Pad2)*%
X103724868Y-76679152D02*
X104279000Y-76125020D01*
X104705125Y-85928125D02*
X104705125Y-80907492D01*
X103724868Y-79927235D02*
X103724868Y-76679152D01*
X105062000Y-86285000D02*
X104705125Y-85928125D01*
X104705125Y-80907492D02*
X103724868Y-79927235D01*
X103724868Y-76679152D02*
X104279000Y-76125020D01*
X104705125Y-85928125D02*
X104705125Y-80907492D01*
X103724868Y-79927235D02*
X103724868Y-76679152D01*
X105062000Y-86285000D02*
X104705125Y-85928125D01*
X104705125Y-80907492D02*
X103724868Y-79927235D01*
X103724868Y-101679152D02*
X104279000Y-101125020D01*
X104705125Y-110928125D02*
X104705125Y-105907492D01*
X103724868Y-104927235D02*
X103724868Y-101679152D01*
X105062000Y-111285000D02*
X104705125Y-110928125D01*
X104705125Y-105907492D02*
X103724868Y-104927235D01*
D31*
%TO.N,/I2C_SCL*%
X107030639Y-82364361D02*
X107030639Y-82502033D01*
X110083010Y-79311990D02*
X107030639Y-82364361D01*
X111024357Y-79311990D02*
X110083010Y-79311990D01*
X107030639Y-82364361D02*
X107030639Y-82502033D01*
X110083010Y-79311990D02*
X107030639Y-82364361D01*
X111024357Y-79311990D02*
X110083010Y-79311990D01*
X107030639Y-107364361D02*
X107030639Y-107502033D01*
X110083010Y-104311990D02*
X107030639Y-107364361D01*
X111024357Y-104311990D02*
X110083010Y-104311990D01*
%TD*%
M02*
